<svg width="64" height="64" viewBox="0 0 64 64" fill="none" xmlns="http://www.w3.org/2000/svg">
<rect x="3" y="23.4827" width="40.6207" height="17.0345" rx="1.31034" fill="white"/>
<path fill-rule="evenodd" clip-rule="evenodd" d="M51.4811 49.1074L51.4811 16.9312L55.4121 16.9312L55.4121 49.1074L51.4811 49.1074Z" fill="white"/>
<path fill-rule="evenodd" clip-rule="evenodd" d="M61.9642 14.9655C61.9642 16.051 61.0842 16.931 59.9987 16.931H46.8952C45.8097 16.931 44.9297 16.051 44.9297 14.9655V14.9655C44.9297 13.88 45.8097 13 46.8952 13H59.9987C61.0842 13 61.9642 13.88 61.9642 14.9655V14.9655Z" fill="white"/>
<path fill-rule="evenodd" clip-rule="evenodd" d="M61.9642 49.0344C61.9642 50.1199 61.0842 50.9999 59.9987 50.9999H46.8952C45.8097 50.9999 44.9297 50.1199 44.9297 49.0344V49.0344C44.9297 47.9488 45.8097 47.0688 46.8952 47.0688H59.9987C61.0842 47.0688 61.9642 47.9488 61.9642 49.0344V49.0344Z" fill="white"/>
</svg>
