<svg width="615" height="461" viewBox="0 0 615 461" fill="none" xmlns="http://www.w3.org/2000/svg">
<g clip-path="url(#clip0_230_7918)">
<mask id="mask0_230_7918" style="mask-type:luminance" maskUnits="userSpaceOnUse" x="76" y="55" width="477" height="356">
<path d="M552.957 55.2959H76.7969V410.112H552.957V55.2959Z" fill="white"/>
</mask>
<g mask="url(#mask0_230_7918)">
<path d="M205.438 410.112L214.757 409.991L225.63 409.558L231.843 408.76L238.056 407.873L241.163 406.948L244.269 405.474L245.822 404.513L247.376 403.366L248.929 401.998L252.036 398.71L255.142 395.398L258.249 392.23L259.802 390.351L261.355 388.125L272.228 370.58L273.781 367.412L275.335 363.56L278.441 354.218L281.548 343.775L290.867 311.118L293.974 302.365L297.08 293.605L301.74 278.619L303.293 274.664L304.847 271.744L306.4 269.715L307.953 268.251L311.06 266.018L312.613 265.207L314.166 264.812L315.72 264.986L317.273 265.763L318.826 267.082L320.379 268.904L321.933 271.283L323.486 274.317L325.039 278.015L328.146 286.726L332.805 300.818L345.232 340.092L351.445 357.921L354.551 367.228L356.104 371.468L357.658 375.215L359.211 378.459L360.764 381.286L363.871 386.042L366.977 389.823L370.084 392.739L384.063 403.729L387.17 405.443L388.723 406.059L391.83 406.843L402.703 408.768L410.469 409.606L415.129 409.828L427.555 409.882L436.874 410.016L458.62 410.089L480.366 410.062L514.538 410.112" fill="#EFEFEF" fill-opacity="0.4"/>
<path d="M205.438 410.112L214.757 409.991L225.63 409.558L231.843 408.76L238.056 407.873L241.163 406.948L244.269 405.474L245.822 404.513L247.376 403.366L248.929 401.998L252.036 398.71L255.142 395.398L258.249 392.23L259.802 390.351L261.355 388.125L272.228 370.58L273.781 367.412L275.335 363.56L278.441 354.218L281.548 343.775L290.867 311.118L293.974 302.365L297.08 293.605L301.74 278.619L303.293 274.664L304.847 271.744L306.4 269.715L307.953 268.251L311.06 266.018L312.613 265.207L314.166 264.812L315.72 264.986L317.273 265.763L318.826 267.082L320.379 268.904L321.933 271.283L323.486 274.317L325.039 278.015L328.146 286.726L332.805 300.818L345.232 340.092L351.445 357.921L354.551 367.228L356.104 371.468L357.658 375.215L359.211 378.459L360.764 381.286L363.871 386.042L366.977 389.823L370.084 392.739L384.063 403.729L387.17 405.443L388.723 406.059L391.83 406.843L402.703 408.768L410.469 409.606L415.129 409.828L427.555 409.882L436.874 410.016L458.62 410.089L480.366 410.062L514.538 410.112" stroke="#EFEFEF" stroke-linecap="square"/>
</g>
<mask id="mask1_230_7918" style="mask-type:luminance" maskUnits="userSpaceOnUse" x="76" y="55" width="477" height="356">
<path d="M552.957 55.2959H76.7969V410.112H552.957V55.2959Z" fill="white"/>
</mask>
<g mask="url(#mask1_230_7918)">
<path d="M243.281 410.111L270.418 409.856L273.274 409.723L276.131 409.577L281.843 408.838L284.7 407.766L288.985 405.898L290.413 404.939L294.698 401.352L297.554 398.38L298.982 396.693L300.41 394.13L301.839 390.221L303.267 385.116L306.123 373.023L307.552 365.682L308.98 356.236L310.408 343.54L313.265 311.376L314.693 293.118L316.121 271.197L318.977 214.872L323.262 126.008L324.69 102.044L326.119 86.331L327.547 76.3541L328.975 72.1924L330.403 74.5948L331.831 82.5438L333.26 95.3872L334.688 111.874L336.116 130.962L337.544 153.082L343.257 250.708L346.114 292.647L347.542 310.711L348.97 324.303L353.255 355.114L354.683 364.21L356.111 371.68L358.968 383.244L360.396 388.368L361.824 392.544L363.253 395.704L364.681 398.162L366.109 400.108L367.537 401.624L368.965 402.709L376.107 406.812L378.963 407.668L381.82 408.184L384.676 408.366L386.104 408.391L396.102 409.71L398.958 409.769L404.671 409.673L418.953 410.001L426.095 409.831L430.379 409.837L438.949 410.106L456.087 410.05L461.8 410.079L466.085 410.036L470.37 410.098L477.511 410.08L487.509 410.112L527.499 410.111" fill="#EFEFEF" fill-opacity="0.4"/>
<path d="M243.281 410.111L270.418 409.856L273.274 409.723L276.131 409.577L281.843 408.838L284.7 407.766L288.985 405.898L290.413 404.939L294.698 401.352L297.554 398.38L298.982 396.693L300.41 394.13L301.839 390.221L303.267 385.116L306.123 373.023L307.552 365.682L308.98 356.236L310.408 343.54L313.265 311.376L314.693 293.118L316.121 271.197L318.977 214.872L323.262 126.008L324.69 102.044L326.119 86.331L327.547 76.3541L328.975 72.1924L330.403 74.5948L331.831 82.5438L333.26 95.3872L334.688 111.874L336.116 130.962L337.544 153.082L343.257 250.708L346.114 292.647L347.542 310.711L348.97 324.303L353.255 355.114L354.683 364.21L356.111 371.68L358.968 383.244L360.396 388.368L361.824 392.544L363.253 395.704L364.681 398.162L366.109 400.108L367.537 401.624L368.965 402.709L376.107 406.812L378.963 407.668L381.82 408.184L384.676 408.366L386.104 408.391L396.102 409.71L398.958 409.769L404.671 409.673L418.953 410.001L426.095 409.831L430.379 409.837L438.949 410.106L456.087 410.05L461.8 410.079L466.085 410.036L470.37 410.098L477.511 410.08L487.509 410.112L527.499 410.111" stroke="#EFEFEF" stroke-linecap="square"/>
</g>
<mask id="mask2_230_7918" style="mask-type:luminance" maskUnits="userSpaceOnUse" x="76" y="55" width="477" height="356">
<path d="M552.957 55.2959H76.7969V410.112H552.957V55.2959Z" fill="white"/>
</mask>
<g mask="url(#mask2_230_7918)">
<path d="M241.508 410.111L259.285 409.963L263.387 409.889L268.857 409.944L277.061 409.458L281.164 408.594L283.899 407.909L286.633 407.517L288.001 407.095L289.368 406.315L292.103 404.069L293.471 402.752L294.838 401.066L296.206 398.876L297.573 396.279L298.94 393.329L300.308 389.903L303.043 381.787L304.41 377.408L305.778 372.494L307.145 366.508L308.513 359.236L309.88 350.798L311.247 341.191L313.982 318.164L316.717 292.529L318.085 278.53L320.82 245.701L323.554 212.236L326.289 183.968L327.657 172.552L329.024 164.452L330.392 160.101L331.759 158.414L334.494 156.518L335.861 156.195L337.229 158.087L338.596 163.025L339.964 170.898L341.331 181.026L344.066 204.833L350.903 269.695L353.638 296.18L356.373 319.111L359.108 338.062L361.843 354.093L364.578 366.567L367.313 377.504L368.68 382.268L370.048 386.37L371.415 389.82L372.782 392.654L374.15 394.934L376.885 398.45L380.987 403.497L382.355 404.568L383.722 405.151L386.457 405.802L387.824 406.415L390.559 407.872L391.927 408.229L394.662 408.316L397.396 408.45L405.601 409.42L408.336 409.664L413.806 409.664L416.541 409.506L419.276 409.667L422.01 409.83L424.745 409.566L427.48 409.13L428.848 409.086L431.583 409.432L434.317 409.775L438.42 409.881L450.727 409.84L458.931 409.997L463.034 409.878L468.504 410.043L475.341 410.104L502.69 410.093L509.527 410.072L513.629 410.111" fill="#EFEFEF" fill-opacity="0.4"/>
<path d="M241.508 410.111L259.285 409.963L263.387 409.889L268.857 409.944L277.061 409.458L281.164 408.594L283.899 407.909L286.633 407.517L288.001 407.095L289.368 406.315L292.103 404.069L293.471 402.752L294.838 401.066L296.206 398.876L297.573 396.279L298.94 393.329L300.308 389.903L303.043 381.787L304.41 377.408L305.778 372.494L307.145 366.508L308.513 359.236L309.88 350.798L311.247 341.191L313.982 318.164L316.717 292.529L318.085 278.53L320.82 245.701L323.554 212.236L326.289 183.968L327.657 172.552L329.024 164.452L330.392 160.101L331.759 158.414L334.494 156.518L335.861 156.195L337.229 158.087L338.596 163.025L339.964 170.898L341.331 181.026L344.066 204.833L350.903 269.695L353.638 296.18L356.373 319.111L359.108 338.062L361.843 354.093L364.578 366.567L367.313 377.504L368.68 382.268L370.048 386.37L371.415 389.82L372.782 392.654L374.15 394.934L376.885 398.45L380.987 403.497L382.355 404.568L383.722 405.151L386.457 405.802L387.824 406.415L390.559 407.872L391.927 408.229L394.662 408.316L397.396 408.45L405.601 409.42L408.336 409.664L413.806 409.664L416.541 409.506L419.276 409.667L422.01 409.83L424.745 409.566L427.48 409.13L428.848 409.086L431.583 409.432L434.317 409.775L438.42 409.881L450.727 409.84L458.931 409.997L463.034 409.878L468.504 410.043L475.341 410.104L502.69 410.093L509.527 410.072L513.629 410.111" stroke="#EFEFEF" stroke-linecap="square"/>
</g>
<mask id="mask3_230_7918" style="mask-type:luminance" maskUnits="userSpaceOnUse" x="76" y="55" width="477" height="356">
<path d="M552.957 55.2959H76.7969V410.112H552.957V55.2959Z" fill="white"/>
</mask>
<g mask="url(#mask3_230_7918)">
<path d="M255.773 410.111L279.312 409.928L287.619 409.832L290.389 409.314L293.158 408.855L295.927 408.833L297.312 408.637L298.696 408.166L300.081 407.425L301.465 406.408L302.85 405.061L304.235 403.356L305.619 401.327L307.004 399.004L308.388 396.299L309.773 392.99L311.158 388.762L312.542 383.248L313.927 376.028L315.311 366.608L316.696 354.488L318.081 339.434L323.619 270.504L325.004 257.199L327.773 234.983L329.158 225.715L330.542 218.336L331.927 213.318L333.311 210.553L334.696 209.495L336.081 209.582L337.465 210.569L338.85 212.536L341.619 218.472L343.004 220.658L344.388 221.591L345.773 222.003L347.157 223.113L348.542 225.847L349.927 230.501L352.696 243.45L355.465 256.089L358.234 268.106L361.003 281.715L367.926 317.675L376.234 354.89L377.619 359.673L380.388 367.359L384.542 378.004L388.696 386.976L391.465 392.752L392.849 395.283L394.234 397.444L395.619 399.21L397.003 400.62L399.772 402.721L406.695 406.906L409.465 407.978L412.234 408.546L421.926 409.257L427.464 409.723L433.003 409.894L438.541 409.762L455.157 410.018L474.541 410.047L480.079 410.051L487.002 409.986L500.849 410.057L511.925 410.058L520.233 410.075L527.156 410.087L531.31 410.112" fill="#EFEFEF" fill-opacity="0.4"/>
<path d="M255.773 410.111L279.312 409.928L287.619 409.832L290.389 409.314L293.158 408.855L295.927 408.833L297.312 408.637L298.696 408.166L300.081 407.425L301.465 406.408L302.85 405.061L304.235 403.356L305.619 401.327L307.004 399.004L308.388 396.299L309.773 392.99L311.158 388.762L312.542 383.248L313.927 376.028L315.311 366.608L316.696 354.488L318.081 339.434L323.619 270.504L325.004 257.199L327.773 234.983L329.158 225.715L330.542 218.336L331.927 213.318L333.311 210.553L334.696 209.495L336.081 209.582L337.465 210.569L338.85 212.536L341.619 218.472L343.004 220.658L344.388 221.591L345.773 222.003L347.157 223.113L348.542 225.847L349.927 230.501L352.696 243.45L355.465 256.089L358.234 268.106L361.003 281.715L367.926 317.675L376.234 354.89L377.619 359.673L380.388 367.359L384.542 378.004L388.696 386.976L391.465 392.752L392.849 395.283L394.234 397.444L395.619 399.21L397.003 400.62L399.772 402.721L406.695 406.906L409.465 407.978L412.234 408.546L421.926 409.257L427.464 409.723L433.003 409.894L438.541 409.762L455.157 410.018L474.541 410.047L480.079 410.051L487.002 409.986L500.849 410.057L511.925 410.058L520.233 410.075L527.156 410.087L531.31 410.112" stroke="#EFEFEF" stroke-linecap="square"/>
</g>
<mask id="mask4_230_7918" style="mask-type:luminance" maskUnits="userSpaceOnUse" x="76" y="55" width="477" height="356">
<path d="M552.957 55.2959H76.7969V410.112H552.957V55.2959Z" fill="white"/>
</mask>
<g mask="url(#mask4_230_7918)">
<path d="M239.414 410.111L266.037 409.908L268.839 409.54L274.444 409.21L277.246 408.125L280.049 406.661L281.45 405.868L282.851 405.265L285.653 404.454L287.055 403.503L292.659 397.319L294.061 395.191L296.863 388.948L298.264 385.293L299.665 380.326L301.067 373.111L302.468 363.582L305.27 340.923L308.073 315.194L312.276 273.523L313.677 255.365L317.881 188.028L320.683 157.083L322.084 138.626L324.887 98.0848L326.288 82.3954L327.689 75.3975L329.09 80.1997L330.492 94.8394L331.893 114.895L337.498 205.018L341.701 273.617L343.102 292.499L345.905 325.015L347.306 338.395L348.707 348.957L351.51 365.69L352.911 372.663L354.312 378.26L357.114 386.586L358.516 390.573L359.917 394.033L361.318 396.416L364.12 400.156L365.522 401.714L369.725 405.705L371.126 406.434L373.929 407.061L376.731 408.321L378.132 408.606L380.935 408.801L383.737 409.327L393.545 409.982L403.354 409.793L407.557 409.997L414.563 410.056L417.366 410.046L421.569 409.85L425.773 409.984L428.575 410.074L435.581 410.008L441.186 410.112L518.252 410.111" fill="#EFEFEF" fill-opacity="0.4"/>
<path d="M239.414 410.111L266.037 409.908L268.839 409.54L274.444 409.21L277.246 408.125L280.049 406.661L281.45 405.868L282.851 405.265L285.653 404.454L287.055 403.503L292.659 397.319L294.061 395.191L296.863 388.948L298.264 385.293L299.665 380.326L301.067 373.111L302.468 363.582L305.27 340.923L308.073 315.194L312.276 273.523L313.677 255.365L317.881 188.028L320.683 157.083L322.084 138.626L324.887 98.0848L326.288 82.3954L327.689 75.3975L329.09 80.1997L330.492 94.8394L331.893 114.895L337.498 205.018L341.701 273.617L343.102 292.499L345.905 325.015L347.306 338.395L348.707 348.957L351.51 365.69L352.911 372.663L354.312 378.26L357.114 386.586L358.516 390.573L359.917 394.033L361.318 396.416L364.12 400.156L365.522 401.714L369.725 405.705L371.126 406.434L373.929 407.061L376.731 408.321L378.132 408.606L380.935 408.801L383.737 409.327L393.545 409.982L403.354 409.793L407.557 409.997L414.563 410.056L417.366 410.046L421.569 409.85L425.773 409.984L428.575 410.074L435.581 410.008L441.186 410.112L518.252 410.111" stroke="#EFEFEF" stroke-linecap="square"/>
</g>
<mask id="mask5_230_7918" style="mask-type:luminance" maskUnits="userSpaceOnUse" x="76" y="55" width="477" height="356">
<path d="M552.957 55.2959H76.7969V410.112H552.957V55.2959Z" fill="white"/>
</mask>
<g mask="url(#mask5_230_7918)">
<path d="M240.305 410.111L254.088 409.958L264.112 409.606L266.618 409.627L269.124 409.259L274.136 407.996L276.642 407.484L277.895 406.95L279.148 406.114L281.654 404.087L286.666 400.558L287.919 398.953L289.172 396.893L290.425 394.352L291.678 391.297L294.184 383.975L295.437 379.691L296.69 374.641L299.196 362.207L300.449 355.974L301.702 350.697L302.955 346.593L304.208 343.385L306.714 338.005L307.967 335.506L309.22 333.394L310.473 331.937L311.726 330.935L312.979 329.677L314.232 327.522L315.485 324.388L316.738 320.478L317.991 315.683L319.244 309.515L320.497 301.558L321.75 291.73L323.003 280.073L324.256 266.501L325.509 250.897L328.016 214.423L331.775 156.483L333.028 139.575L334.281 124.75L335.534 112.308L336.787 103.138L338.04 98.9297L339.293 101.449L340.546 111.337L341.799 127.564L343.052 148.168L345.558 196.257L348.064 246.029L350.57 289.088L351.823 306.805L353.076 322.132L354.329 335.463L355.582 346.942L356.835 356.442L358.088 363.972L359.341 369.95L361.847 379.645L364.353 387.737L365.606 390.913L368.112 395.859L370.618 399.912L371.871 401.49L373.124 402.662L374.377 403.491L379.389 406.027L380.642 406.494L385.654 407.586L388.16 408.313L391.919 408.927L395.678 409.258L400.69 409.515L406.955 409.589L410.714 409.857L418.232 409.983L449.558 410.061L460.835 410.096L485.895 410.081L489.654 410.111" fill="#EFEFEF" fill-opacity="0.4"/>
<path d="M240.305 410.111L254.088 409.958L264.112 409.606L266.618 409.627L269.124 409.259L274.136 407.996L276.642 407.484L277.895 406.95L279.148 406.114L281.654 404.087L286.666 400.558L287.919 398.953L289.172 396.893L290.425 394.352L291.678 391.297L294.184 383.975L295.437 379.691L296.69 374.641L299.196 362.207L300.449 355.974L301.702 350.697L302.955 346.593L304.208 343.385L306.714 338.005L307.967 335.506L309.22 333.394L310.473 331.937L311.726 330.935L312.979 329.677L314.232 327.522L315.485 324.388L316.738 320.478L317.991 315.683L319.244 309.515L320.497 301.558L321.75 291.73L323.003 280.073L324.256 266.501L325.509 250.897L328.016 214.423L331.775 156.483L333.028 139.575L334.281 124.75L335.534 112.308L336.787 103.138L338.04 98.9297L339.293 101.449L340.546 111.337L341.799 127.564L343.052 148.168L345.558 196.257L348.064 246.029L350.57 289.088L351.823 306.805L353.076 322.132L354.329 335.463L355.582 346.942L356.835 356.442L358.088 363.972L359.341 369.95L361.847 379.645L364.353 387.737L365.606 390.913L368.112 395.859L370.618 399.912L371.871 401.49L373.124 402.662L374.377 403.491L379.389 406.027L380.642 406.494L385.654 407.586L388.16 408.313L391.919 408.927L395.678 409.258L400.69 409.515L406.955 409.589L410.714 409.857L418.232 409.983L449.558 410.061L460.835 410.096L485.895 410.081L489.654 410.111" stroke="#EFEFEF" stroke-linecap="square"/>
</g>
<mask id="mask6_230_7918" style="mask-type:luminance" maskUnits="userSpaceOnUse" x="76" y="55" width="477" height="356">
<path d="M552.957 55.2959H76.7969V410.112H552.957V55.2959Z" fill="white"/>
</mask>
<g mask="url(#mask6_230_7918)">
<path d="M259.797 410.111L278.744 409.957L284.665 409.806L288.218 409.612L290.586 409.094L291.77 408.804L292.954 408.678L295.323 409.002L297.691 409.297L300.06 409.179L303.612 408.822L304.796 408.534L305.981 408.046L308.349 406.596L311.902 403.959L313.086 402.612L314.27 400.703L315.454 398.172L316.638 395.03L317.823 391.271L319.007 386.828L320.191 381.502L321.375 374.897L322.559 366.593L323.744 356.483L326.112 332.714L332.033 271.895L334.401 248.285L336.77 223.649L339.138 204.326L343.875 166.22L345.059 160.17L346.243 157.131L347.428 157.172L348.612 159.517L349.796 163.254L350.98 168.215L352.164 174.626L354.533 190.259L358.085 215.503L372.296 321.718L378.217 357.79L380.585 367.615L385.322 385.289L386.506 388.629L387.691 391.261L388.875 393.264L391.243 396.328L394.796 400.565L398.348 404.222L399.533 405.284L400.717 406.101L401.901 406.628L404.269 407.055L409.006 407.31L414.927 408.756L427.953 410.045L433.874 409.854L437.427 409.862L442.164 410.054L450.453 409.993L455.19 410.107L491.9 410.078L495.453 410.111" fill="#EFEFEF" fill-opacity="0.4"/>
<path d="M259.797 410.111L278.744 409.957L284.665 409.806L288.218 409.612L290.586 409.094L291.77 408.804L292.954 408.678L295.323 409.002L297.691 409.297L300.06 409.179L303.612 408.822L304.796 408.534L305.981 408.046L308.349 406.596L311.902 403.959L313.086 402.612L314.27 400.703L315.454 398.172L316.638 395.03L317.823 391.271L319.007 386.828L320.191 381.502L321.375 374.897L322.559 366.593L323.744 356.483L326.112 332.714L332.033 271.895L334.401 248.285L336.77 223.649L339.138 204.326L343.875 166.22L345.059 160.17L346.243 157.131L347.428 157.172L348.612 159.517L349.796 163.254L350.98 168.215L352.164 174.626L354.533 190.259L358.085 215.503L372.296 321.718L378.217 357.79L380.585 367.615L385.322 385.289L386.506 388.629L387.691 391.261L388.875 393.264L391.243 396.328L394.796 400.565L398.348 404.222L399.533 405.284L400.717 406.101L401.901 406.628L404.269 407.055L409.006 407.31L414.927 408.756L427.953 410.045L433.874 409.854L437.427 409.862L442.164 410.054L450.453 409.993L455.19 410.107L491.9 410.078L495.453 410.111" stroke="#EFEFEF" stroke-linecap="square"/>
</g>
<mask id="mask7_230_7918" style="mask-type:luminance" maskUnits="userSpaceOnUse" x="76" y="55" width="477" height="356">
<path d="M552.957 55.2959H76.7969V410.112H552.957V55.2959Z" fill="white"/>
</mask>
<g mask="url(#mask7_230_7918)">
<path d="M199.594 410.111L208.044 409.992L213.678 409.628L222.129 408.8L224.945 408.048L227.762 406.896L230.579 405.617L233.396 404.712L236.213 403.786L237.621 403.084L239.03 402.156L240.438 400.977L241.846 399.537L243.255 397.837L246.072 393.683L248.889 388.675L251.705 383.004L253.114 379.77L255.931 372.193L260.156 359.145L264.381 345.154L265.79 340.157L267.198 334.537L268.607 328.078L271.423 313.183L274.24 298.32L275.649 291.861L277.057 286.225L279.874 276.659L288.324 249.979L289.733 246.291L291.141 243.162L292.55 240.554L299.592 229.352L301 228.096L302.409 227.934L303.817 228.983L305.226 231.221L306.634 234.571L308.042 238.948L309.451 244.289L310.859 250.585L312.268 257.872L315.085 275.248L319.31 304.75L326.352 356.527L327.76 365.24L329.169 372.925L330.577 379.569L331.986 385.178L333.394 389.814L334.802 393.6L336.211 396.669L337.619 399.112L339.028 400.982L340.436 402.35L341.845 403.343L346.07 405.505L348.887 406.833L351.704 407.779L354.52 408.224L364.379 409.213L370.013 409.134L375.647 409.345L384.097 409.341L391.139 409.702L396.773 409.609L400.998 409.683L410.857 409.893L479.87 410.111" fill="#EFEFEF" fill-opacity="0.4"/>
<path d="M199.594 410.111L208.044 409.992L213.678 409.628L222.129 408.8L224.945 408.048L227.762 406.896L230.579 405.617L233.396 404.712L236.213 403.786L237.621 403.084L239.03 402.156L240.438 400.977L241.846 399.537L243.255 397.837L246.072 393.683L248.889 388.675L251.705 383.004L253.114 379.77L255.931 372.193L260.156 359.145L264.381 345.154L265.79 340.157L267.198 334.537L268.607 328.078L271.423 313.183L274.24 298.32L275.649 291.861L277.057 286.225L279.874 276.659L288.324 249.979L289.733 246.291L291.141 243.162L292.55 240.554L299.592 229.352L301 228.096L302.409 227.934L303.817 228.983L305.226 231.221L306.634 234.571L308.042 238.948L309.451 244.289L310.859 250.585L312.268 257.872L315.085 275.248L319.31 304.75L326.352 356.527L327.76 365.24L329.169 372.925L330.577 379.569L331.986 385.178L333.394 389.814L334.802 393.6L336.211 396.669L337.619 399.112L339.028 400.982L340.436 402.35L341.845 403.343L346.07 405.505L348.887 406.833L351.704 407.779L354.52 408.224L364.379 409.213L370.013 409.134L375.647 409.345L384.097 409.341L391.139 409.702L396.773 409.609L400.998 409.683L410.857 409.893L479.87 410.111" stroke="#EFEFEF" stroke-linecap="square"/>
</g>
<mask id="mask8_230_7918" style="mask-type:luminance" maskUnits="userSpaceOnUse" x="76" y="55" width="477" height="356">
<path d="M552.957 55.2959H76.7969V410.112H552.957V55.2959Z" fill="white"/>
</mask>
<g mask="url(#mask8_230_7918)">
<path d="M265.062 410.111L270.402 409.985L274.674 409.846L280.013 409.829L284.285 409.47L287.489 408.827L288.557 408.415L289.625 407.79L291.761 406.183L292.829 405.587L293.896 405.309L296.032 405.438L298.168 405.717L300.304 405.631L301.372 405.317L302.44 404.703L303.508 403.666L304.576 402.033L305.644 399.539L306.712 395.798L307.78 390.373L308.847 382.944L309.915 373.539L314.187 329.796L319.527 282.952L320.595 270.394L321.663 255.491L322.73 237.491L324.866 191.854L327.002 143.193L328.07 124.054L329.138 111.358L330.206 105.95L331.274 107.259L332.342 113.659L333.41 123.193L335.546 146.146L337.681 172.241L340.885 214.8L341.953 226.776L343.021 236.808L344.089 244.926L345.157 251.159L346.225 255.607L347.293 258.732L348.361 261.38L349.429 264.449L350.497 268.575L351.564 274.004L353.7 287.827L355.836 301.628L357.972 312.915L360.108 324.118L363.312 341.837L365.447 352.054L367.583 360.475L369.719 367.358L371.855 373.468L375.059 381.227L378.263 389.158L379.331 391.36L380.398 393.126L382.534 395.802L390.01 404.317L391.078 404.977L392.146 405.356L395.349 406.095L400.689 408.249L406.029 409.373L408.165 409.54L416.708 409.591L419.912 409.805L428.455 409.88L433.795 410.025L444.474 410.013L448.746 409.989L454.085 410.111L469.036 409.978L472.24 409.982L477.58 410.11" fill="#EFEFEF" fill-opacity="0.4"/>
<path d="M265.062 410.111L270.402 409.985L274.674 409.846L280.013 409.829L284.285 409.47L287.489 408.827L288.557 408.415L289.625 407.79L291.761 406.183L292.829 405.587L293.896 405.309L296.032 405.438L298.168 405.717L300.304 405.631L301.372 405.317L302.44 404.703L303.508 403.666L304.576 402.033L305.644 399.539L306.712 395.798L307.78 390.373L308.847 382.944L309.915 373.539L314.187 329.796L319.527 282.952L320.595 270.394L321.663 255.491L322.73 237.491L324.866 191.854L327.002 143.193L328.07 124.054L329.138 111.358L330.206 105.95L331.274 107.259L332.342 113.659L333.41 123.193L335.546 146.146L337.681 172.241L340.885 214.8L341.953 226.776L343.021 236.808L344.089 244.926L345.157 251.159L346.225 255.607L347.293 258.732L348.361 261.38L349.429 264.449L350.497 268.575L351.564 274.004L353.7 287.827L355.836 301.628L357.972 312.915L360.108 324.118L363.312 341.837L365.447 352.054L367.583 360.475L369.719 367.358L371.855 373.468L375.059 381.227L378.263 389.158L379.331 391.36L380.398 393.126L382.534 395.802L390.01 404.317L391.078 404.977L392.146 405.356L395.349 406.095L400.689 408.249L406.029 409.373L408.165 409.54L416.708 409.591L419.912 409.805L428.455 409.88L433.795 410.025L444.474 410.013L448.746 409.989L454.085 410.111L469.036 409.978L472.24 409.982L477.58 410.11" stroke="#EFEFEF" stroke-linecap="square"/>
</g>
<mask id="mask9_230_7918" style="mask-type:luminance" maskUnits="userSpaceOnUse" x="76" y="55" width="477" height="356">
<path d="M552.957 55.2959H76.7969V410.112H552.957V55.2959Z" fill="white"/>
</mask>
<g mask="url(#mask9_230_7918)">
<path d="M239.211 410.111L272.742 409.911L281.125 409.24L282.522 408.924L283.919 408.247L285.316 406.848L286.713 403.925L288.111 397.771L289.508 385.674L290.905 365.037L292.302 335.99L293.699 303.46L295.096 275.524L296.493 258.148L297.891 251.103L299.288 248.994L300.685 245.811L302.082 238.542L303.479 227.468L304.876 214.114L306.273 199.19L307.67 182.059L310.465 139.947L311.862 119.393L313.259 104.721L314.656 99.29L316.053 104.082L317.45 117.617L318.847 137.038L321.642 183.423L324.436 231.061L325.833 252.918L327.23 272.079L328.627 288.247L330.025 301.765L331.422 313.091L332.819 322.67L335.613 338.733L337.01 345.822L338.407 351.964L339.804 356.749L341.202 360.272L349.584 377.181L350.982 379.355L352.379 381.184L353.776 382.62L356.57 384.554L357.967 385.542L359.364 386.798L362.159 389.728L367.747 394.737L370.541 397.795L371.939 399.029L374.733 400.946L377.527 402.89L378.924 403.885L380.321 404.669L383.116 405.713L385.91 406.46L390.101 407.181L401.278 408.674L404.073 409.184L406.867 409.334L412.455 409.077L419.441 409.771L426.427 409.361L434.81 409.868L441.795 409.951L447.384 409.703L457.164 409.902L465.546 409.917L472.532 410.055L478.121 410.031L483.709 409.933L494.886 410.095L514.446 410.1L517.24 410.111" fill="#EFEFEF" fill-opacity="0.4"/>
<path d="M239.211 410.111L272.742 409.911L281.125 409.24L282.522 408.924L283.919 408.247L285.316 406.848L286.713 403.925L288.111 397.771L289.508 385.674L290.905 365.037L292.302 335.99L293.699 303.46L295.096 275.524L296.493 258.148L297.891 251.103L299.288 248.994L300.685 245.811L302.082 238.542L303.479 227.468L304.876 214.114L306.273 199.19L307.67 182.059L310.465 139.947L311.862 119.393L313.259 104.721L314.656 99.29L316.053 104.082L317.45 117.617L318.847 137.038L321.642 183.423L324.436 231.061L325.833 252.918L327.23 272.079L328.627 288.247L330.025 301.765L331.422 313.091L332.819 322.67L335.613 338.733L337.01 345.822L338.407 351.964L339.804 356.749L341.202 360.272L349.584 377.181L350.982 379.355L352.379 381.184L353.776 382.62L356.57 384.554L357.967 385.542L359.364 386.798L362.159 389.728L367.747 394.737L370.541 397.795L371.939 399.029L374.733 400.946L377.527 402.89L378.924 403.885L380.321 404.669L383.116 405.713L385.91 406.46L390.101 407.181L401.278 408.674L404.073 409.184L406.867 409.334L412.455 409.077L419.441 409.771L426.427 409.361L434.81 409.868L441.795 409.951L447.384 409.703L457.164 409.902L465.546 409.917L472.532 410.055L478.121 410.031L483.709 409.933L494.886 410.095L514.446 410.1L517.24 410.111" stroke="#EFEFEF" stroke-linecap="square"/>
</g>
<mask id="mask10_230_7918" style="mask-type:luminance" maskUnits="userSpaceOnUse" x="76" y="55" width="477" height="356">
<path d="M552.957 55.2959H76.7969V410.112H552.957V55.2959Z" fill="white"/>
</mask>
<g mask="url(#mask10_230_7918)">
<path d="M251.578 410.111L275.302 409.918L281.892 409.753L288.482 409.66L295.072 408.547L299.026 407.5L300.344 407.045L301.662 406.277L302.98 405.04L304.298 403.281L305.616 400.956L306.934 397.916L308.252 393.889L309.57 388.576L310.888 381.779L312.207 373.375L313.524 363.162L314.843 350.888L317.479 320.878L322.751 257.965L325.387 226.917L328.023 199.999L329.341 189.117L330.659 180.297L331.977 173.558L333.295 168.757L334.613 165.863L335.931 165.012L337.249 166.366L338.567 169.938L339.885 175.318L342.521 188.583L345.157 203.748L347.793 221.989L357.019 293.576L359.655 308.692L370.199 362.516L371.517 368.512L372.835 373.242L375.471 380.569L378.107 387.186L379.425 389.978L380.743 392.314L382.061 394.218L384.697 397.107L388.651 400.615L391.287 402.438L393.923 404.168L396.559 405.982L399.195 407.265L401.831 408.155L404.467 408.581L415.011 409.506L424.237 409.732L432.145 409.585L437.417 409.819L444.007 409.565L454.551 410.011L458.505 409.846L499.364 410.101L509.908 410.074L513.862 410.111" fill="#EFEFEF" fill-opacity="0.4"/>
<path d="M251.578 410.111L275.302 409.918L281.892 409.753L288.482 409.66L295.072 408.547L299.026 407.5L300.344 407.045L301.662 406.277L302.98 405.04L304.298 403.281L305.616 400.956L306.934 397.916L308.252 393.889L309.57 388.576L310.888 381.779L312.207 373.375L313.524 363.162L314.843 350.888L317.479 320.878L322.751 257.965L325.387 226.917L328.023 199.999L329.341 189.117L330.659 180.297L331.977 173.558L333.295 168.757L334.613 165.863L335.931 165.012L337.249 166.366L338.567 169.938L339.885 175.318L342.521 188.583L345.157 203.748L347.793 221.989L357.019 293.576L359.655 308.692L370.199 362.516L371.517 368.512L372.835 373.242L375.471 380.569L378.107 387.186L379.425 389.978L380.743 392.314L382.061 394.218L384.697 397.107L388.651 400.615L391.287 402.438L393.923 404.168L396.559 405.982L399.195 407.265L401.831 408.155L404.467 408.581L415.011 409.506L424.237 409.732L432.145 409.585L437.417 409.819L444.007 409.565L454.551 410.011L458.505 409.846L499.364 410.101L509.908 410.074L513.862 410.111" stroke="#EFEFEF" stroke-linecap="square"/>
</g>
<mask id="mask11_230_7918" style="mask-type:luminance" maskUnits="userSpaceOnUse" x="76" y="55" width="477" height="356">
<path d="M552.957 55.2959H76.7969V410.112H552.957V55.2959Z" fill="white"/>
</mask>
<g mask="url(#mask11_230_7918)">
<path d="M235.109 410.11L248.052 409.936L252.366 409.871L255.243 409.9L265.309 408.673L268.186 408.055L271.062 408.108L272.5 407.798L276.814 405.897L278.252 405.35L279.69 404.176L281.128 402.095L286.881 392.058L288.319 388.213L289.757 382.631L292.633 370.644L294.071 365.238L295.509 358.958L296.947 351.685L298.385 343.631L299.824 333.728L301.262 320.625L307.014 256.679L308.452 240.896L314.204 162.95L315.643 148.218L317.081 135.709L318.519 125.25L319.957 116.738L321.395 109.783L322.833 104.295L324.271 102.348L325.709 106.867L327.147 118.739L328.585 136.468L330.023 157.89L331.462 182.308L337.214 291.275L338.652 311.743L340.09 328.075L342.966 354.913L344.404 367.101L345.843 377.123L347.281 384.035L348.719 388.588L351.595 396.047L353.033 399.413L354.471 402.256L355.909 404.347L357.347 405.56L361.662 407.702L363.1 408.048L367.414 408.053L370.29 408.75L373.166 409.455L374.604 409.443L378.919 408.929L381.795 409.306L384.671 409.582L387.547 409.461L388.985 409.345L391.861 409.6L394.738 409.792L407.68 409.823L411.995 409.872L416.309 410.062L430.69 409.848L439.319 410.111L449.385 409.973L452.261 409.929L460.89 410.078L465.204 410.033L472.395 410.106L482.461 410.109L521.29 410.11" fill="#EFEFEF" fill-opacity="0.4"/>
<path d="M235.109 410.11L248.052 409.936L252.366 409.871L255.243 409.9L265.309 408.673L268.186 408.055L271.062 408.108L272.5 407.798L276.814 405.897L278.252 405.35L279.69 404.176L281.128 402.095L286.881 392.058L288.319 388.213L289.757 382.631L292.633 370.644L294.071 365.238L295.509 358.958L296.947 351.685L298.385 343.631L299.824 333.728L301.262 320.625L307.014 256.679L308.452 240.896L314.204 162.95L315.643 148.218L317.081 135.709L318.519 125.25L319.957 116.738L321.395 109.783L322.833 104.295L324.271 102.348L325.709 106.867L327.147 118.739L328.585 136.468L330.023 157.89L331.462 182.308L337.214 291.275L338.652 311.743L340.09 328.075L342.966 354.913L344.404 367.101L345.843 377.123L347.281 384.035L348.719 388.588L351.595 396.047L353.033 399.413L354.471 402.256L355.909 404.347L357.347 405.56L361.662 407.702L363.1 408.048L367.414 408.053L370.29 408.75L373.166 409.455L374.604 409.443L378.919 408.929L381.795 409.306L384.671 409.582L387.547 409.461L388.985 409.345L391.861 409.6L394.738 409.792L407.68 409.823L411.995 409.872L416.309 410.062L430.69 409.848L439.319 410.111L449.385 409.973L452.261 409.929L460.89 410.078L465.204 410.033L472.395 410.106L482.461 410.109L521.29 410.11" stroke="#EFEFEF" stroke-linecap="square"/>
</g>
<mask id="mask12_230_7918" style="mask-type:luminance" maskUnits="userSpaceOnUse" x="76" y="55" width="477" height="356">
<path d="M552.957 55.2959H76.7969V410.112H552.957V55.2959Z" fill="white"/>
</mask>
<g mask="url(#mask12_230_7918)">
<path d="M238.914 410.111L271.412 409.942L276.612 409.491L280.511 409.502L288.311 408.72L289.611 408.287L292.211 407.103L297.41 405.337L301.31 403.017L303.91 401.242L306.51 398.932L309.11 396.186L310.409 394.585L311.709 392.526L313.009 389.854L315.609 383.145L318.209 375.429L319.509 370.383L320.809 364.041L322.109 356.498L323.409 347.822L326.008 327.054L328.608 303.36L332.508 263.872L335.108 236.846L337.708 214.302L341.607 183.058L342.907 174.542L344.207 167.715L345.507 162.96L346.807 160.596L348.107 160.064L349.407 160.495L350.707 162.066L352.007 166.018L353.307 173.218L355.906 193.819L361.106 236.203L363.706 263.032L366.306 290.967L368.906 315.109L370.206 325.126L371.505 333.865L376.705 363.766L378.005 370.659L379.305 376.297L380.605 380.765L384.505 392.11L385.805 395.443L387.104 398.241L388.404 400.551L389.704 402.47L391.004 403.955L392.304 404.908L398.804 407.47L405.303 409.216L415.703 410.048L422.202 409.945L426.102 409.997L432.602 409.739L437.801 410.008L441.701 410.015L446.901 410.003L463.799 410.07L468.999 409.971L475.499 410.111L497.597 410.111" fill="#EFEFEF" fill-opacity="0.4"/>
<path d="M238.914 410.111L271.412 409.942L276.612 409.491L280.511 409.502L288.311 408.72L289.611 408.287L292.211 407.103L297.41 405.337L301.31 403.017L303.91 401.242L306.51 398.932L309.11 396.186L310.409 394.585L311.709 392.526L313.009 389.854L315.609 383.145L318.209 375.429L319.509 370.383L320.809 364.041L322.109 356.498L323.409 347.822L326.008 327.054L328.608 303.36L332.508 263.872L335.108 236.846L337.708 214.302L341.607 183.058L342.907 174.542L344.207 167.715L345.507 162.96L346.807 160.596L348.107 160.064L349.407 160.495L350.707 162.066L352.007 166.018L353.307 173.218L355.906 193.819L361.106 236.203L363.706 263.032L366.306 290.967L368.906 315.109L370.206 325.126L371.505 333.865L376.705 363.766L378.005 370.659L379.305 376.297L380.605 380.765L384.505 392.11L385.805 395.443L387.104 398.241L388.404 400.551L389.704 402.47L391.004 403.955L392.304 404.908L398.804 407.47L405.303 409.216L415.703 410.048L422.202 409.945L426.102 409.997L432.602 409.739L437.801 410.008L441.701 410.015L446.901 410.003L463.799 410.07L468.999 409.971L475.499 410.111L497.597 410.111" stroke="#EFEFEF" stroke-linecap="square"/>
</g>
<mask id="mask13_230_7918" style="mask-type:luminance" maskUnits="userSpaceOnUse" x="76" y="55" width="477" height="356">
<path d="M552.957 55.2959H76.7969V410.112H552.957V55.2959Z" fill="white"/>
</mask>
<g mask="url(#mask13_230_7918)">
<path d="M255.852 410.111L278.741 409.977L281.15 409.826L284.764 409.851L288.378 409.555L290.788 409.567L296.811 409.06L299.221 408.464L301.63 407.627L302.835 407.081L304.039 406.31L305.244 405.118L306.449 403.221L307.653 400.279L308.858 396.01L310.063 390.304L311.267 383.069L312.472 373.898L313.677 362.225L314.881 347.975L317.291 313.593L325.724 180.109L326.928 164.363L328.133 151.166L329.338 140.544L330.543 132.69L331.747 128.036L332.952 126.824L334.157 128.479L335.361 131.724L336.566 135.724L337.771 140.792L338.975 147.488L342.589 171.252L343.794 180.014L344.999 190.825L347.408 218.544L351.022 261.413L353.432 288.06L354.636 299.401L357.046 317.714L359.455 332.905L363.069 353.165L364.274 358.945L366.683 368.215L370.297 381.215L371.502 384.257L372.707 386.251L373.911 387.938L375.116 390.011L377.526 394.982L378.73 397.107L381.14 400.381L383.549 402.982L384.754 403.927L388.368 406.047L390.777 407.039L394.391 408.048L396.801 408.48L405.233 409.059L407.643 408.798L408.848 408.904L412.462 409.802L414.871 409.873L418.485 409.749L425.713 409.997L430.532 409.617L436.555 409.945L440.17 409.94L444.988 410.096L458.24 409.966L461.854 410.106L487.153 410.06L491.971 410.069L495.585 410.111" fill="#EFEFEF" fill-opacity="0.4"/>
<path d="M255.852 410.111L278.741 409.977L281.15 409.826L284.764 409.851L288.378 409.555L290.788 409.567L296.811 409.06L299.221 408.464L301.63 407.627L302.835 407.081L304.039 406.31L305.244 405.118L306.449 403.221L307.653 400.279L308.858 396.01L310.063 390.304L311.267 383.069L312.472 373.898L313.677 362.225L314.881 347.975L317.291 313.593L325.724 180.109L326.928 164.363L328.133 151.166L329.338 140.544L330.543 132.69L331.747 128.036L332.952 126.824L334.157 128.479L335.361 131.724L336.566 135.724L337.771 140.792L338.975 147.488L342.589 171.252L343.794 180.014L344.999 190.825L347.408 218.544L351.022 261.413L353.432 288.06L354.636 299.401L357.046 317.714L359.455 332.905L363.069 353.165L364.274 358.945L366.683 368.215L370.297 381.215L371.502 384.257L372.707 386.251L373.911 387.938L375.116 390.011L377.526 394.982L378.73 397.107L381.14 400.381L383.549 402.982L384.754 403.927L388.368 406.047L390.777 407.039L394.391 408.048L396.801 408.48L405.233 409.059L407.643 408.798L408.848 408.904L412.462 409.802L414.871 409.873L418.485 409.749L425.713 409.997L430.532 409.617L436.555 409.945L440.17 409.94L444.988 410.096L458.24 409.966L461.854 410.106L487.153 410.06L491.971 410.069L495.585 410.111" stroke="#EFEFEF" stroke-linecap="square"/>
</g>
<mask id="mask14_230_7918" style="mask-type:luminance" maskUnits="userSpaceOnUse" x="76" y="55" width="477" height="356">
<path d="M552.957 55.2959H76.7969V410.112H552.957V55.2959Z" fill="white"/>
</mask>
<g mask="url(#mask14_230_7918)">
<path d="M98.4375 410.112L164.845 409.952L168.87 409.67L172.895 409.088L176.92 408.114L182.957 406.224L184.969 405.425L186.981 404.433L188.994 403.19L191.006 401.668L193.018 399.861L195.031 397.771L197.043 395.407L201.068 389.967L205.093 383.888L211.13 374.099L221.192 357.21L237.29 328.743L239.303 325.943L241.315 323.731L243.327 322.074L245.34 320.877L247.352 320.04L253.389 318.26L257.414 316.475L263.451 313.472L267.476 311.234L269.488 310.288L271.5 309.61L275.525 308.527L279.55 306.933L281.562 306.453L283.575 306.703L285.587 307.808L287.599 309.594L289.612 311.805L291.624 314.333L293.636 317.261L295.649 320.703L297.661 324.65L301.686 333.606L305.711 343.799L313.76 366.153L317.785 375.85L319.797 380.084L321.81 383.824L323.822 387.017L325.834 389.684L327.847 391.918L329.859 393.839L333.884 397.043L335.896 398.353L337.908 399.445L339.921 400.317L343.945 401.618L356.02 405.137L366.081 406.978L382.18 409.054L388.217 409.333L396.267 409.753L402.304 409.998L424.44 410.014L436.514 409.978L458.65 410.014L488.835 410.086L498.897 410.112" fill="#7EB0D5" fill-opacity="0.4"/>
<path d="M98.4375 410.112L164.845 409.952L168.87 409.67L172.895 409.088L176.92 408.114L182.957 406.224L184.969 405.425L186.981 404.433L188.994 403.19L191.006 401.668L193.018 399.861L195.031 397.771L197.043 395.407L201.068 389.967L205.093 383.888L211.13 374.099L221.192 357.21L237.29 328.743L239.303 325.943L241.315 323.731L243.327 322.074L245.34 320.877L247.352 320.04L253.389 318.26L257.414 316.475L263.451 313.472L267.476 311.234L269.488 310.288L271.5 309.61L275.525 308.527L279.55 306.933L281.562 306.453L283.575 306.703L285.587 307.808L287.599 309.594L289.612 311.805L291.624 314.333L293.636 317.261L295.649 320.703L297.661 324.65L301.686 333.606L305.711 343.799L313.76 366.153L317.785 375.85L319.797 380.084L321.81 383.824L323.822 387.017L325.834 389.684L327.847 391.918L329.859 393.839L333.884 397.043L335.896 398.353L337.908 399.445L339.921 400.317L343.945 401.618L356.02 405.137L366.081 406.978L382.18 409.054L388.217 409.333L396.267 409.753L402.304 409.998L424.44 410.014L436.514 409.978L458.65 410.014L488.835 410.086L498.897 410.112" stroke="#7EB0D5" stroke-linecap="square"/>
</g>
<path d="M535.061 411.061C535.646 410.475 535.646 409.525 535.061 408.939L525.515 399.393C524.929 398.808 523.979 398.808 523.393 399.393C522.808 399.979 522.808 400.929 523.393 401.515L531.879 410L523.393 418.485C522.808 419.071 522.808 420.021 523.393 420.607C523.979 421.192 524.929 421.192 525.515 420.607L535.061 411.061ZM79 411.5H534V408.5H79V411.5Z" fill="black"/>
</g>
<defs>
<clipPath id="clip0_230_7918">
<rect width="614.4" height="460.8" fill="white"/>
</clipPath>
</defs>
</svg>
