<svg width="615" height="461" viewBox="0 0 615 461" fill="none" xmlns="http://www.w3.org/2000/svg">
<g clip-path="url(#clip0_230_8798)">
<mask id="mask0_230_8798" style="mask-type:luminance" maskUnits="userSpaceOnUse" x="76" y="55" width="477" height="356">
<path d="M552.957 55.2959H76.7969V410.112H552.957V55.2959Z" fill="white"/>
</mask>
<g mask="url(#mask0_230_8798)">
<path d="M192.25 410.111L203.866 409.963L220.461 409.283L223.78 408.76L227.098 407.897L230.417 406.756L233.736 405.416L237.055 403.762L238.715 402.73L240.374 401.517L242.033 400.108L245.352 396.687L248.671 392.472L251.99 387.505L255.309 381.906L258.628 375.771L261.947 369.054L265.266 361.615L268.585 353.371L276.882 331.128L281.86 317.273L286.839 302.949L288.498 298.618L290.157 294.722L293.476 288.132L296.795 282.046L300.114 275.285L303.433 268.67L305.092 266.067L306.752 264.169L308.411 262.988L310.071 262.447L311.73 262.451L313.39 262.917L315.049 263.778L316.709 264.958L320.027 267.988L323.346 271.728L325.006 273.947L326.665 276.471L328.325 279.332L329.984 282.538L333.303 289.887L343.26 313.646L348.238 323.961L353.216 333.568L356.535 339.319L363.173 350.305L368.151 359.331L369.811 362.013L371.47 364.376L374.789 368.317L384.746 378.821L389.724 383.578L394.703 387.829L398.021 390.272L407.978 396.901L411.297 398.807L414.616 400.27L417.935 401.316L434.529 405.659L442.827 407.258L449.464 408.187L459.421 409.191L467.718 409.747L476.016 409.921L522.48 410.112" fill="#EFEFEF" fill-opacity="0.4"/>
<path d="M192.25 410.111L203.866 409.963L220.461 409.283L223.78 408.76L227.098 407.897L230.417 406.756L233.736 405.416L237.055 403.762L238.715 402.73L240.374 401.517L242.033 400.108L245.352 396.687L248.671 392.472L251.99 387.505L255.309 381.906L258.628 375.771L261.947 369.054L265.266 361.615L268.585 353.371L276.882 331.128L281.86 317.273L286.839 302.949L288.498 298.618L290.157 294.722L293.476 288.132L296.795 282.046L300.114 275.285L303.433 268.67L305.092 266.067L306.752 264.169L308.411 262.988L310.071 262.447L311.73 262.451L313.39 262.917L315.049 263.778L316.709 264.958L320.027 267.988L323.346 271.728L325.006 273.947L326.665 276.471L328.325 279.332L329.984 282.538L333.303 289.887L343.26 313.646L348.238 323.961L353.216 333.568L356.535 339.319L363.173 350.305L368.151 359.331L369.811 362.013L371.47 364.376L374.789 368.317L384.746 378.821L389.724 383.578L394.703 387.829L398.021 390.272L407.978 396.901L411.297 398.807L414.616 400.27L417.935 401.316L434.529 405.659L442.827 407.258L449.464 408.187L459.421 409.191L467.718 409.747L476.016 409.921L522.48 410.112" stroke="#EFEFEF" stroke-linecap="square"/>
</g>
<mask id="mask1_230_8798" style="mask-type:luminance" maskUnits="userSpaceOnUse" x="76" y="55" width="477" height="356">
<path d="M552.957 55.2959H76.7969V410.112H552.957V55.2959Z" fill="white"/>
</mask>
<g mask="url(#mask1_230_8798)">
<path d="M212.812 410.11L219.153 409.949L228.664 409.77L233.419 409.841L236.589 409.384L242.93 407.73L246.1 407.095L247.685 406.33L249.27 405.012L250.856 403.168L255.611 396.841L260.366 391.201L261.951 388.265L263.537 384.111L266.707 374.597L271.462 362.92L273.047 358.011L274.633 351.85L276.218 344.366L279.388 327.064L280.973 317.553L282.558 306.72L284.143 293.959L285.728 279.14L288.899 245.389L296.824 158.416L299.995 118.648L301.58 101.409L303.165 89.1227L304.75 81.1625L306.335 76.3899L307.92 75.4297L309.505 79.4249L311.09 88.2078L312.676 100.949L314.261 117.334L315.846 137.146L319.016 183.051L325.357 276.691L326.942 297.752L328.527 316.109L330.112 331.378L331.697 343.688L333.282 353.583L334.867 361.64L336.453 368.207L338.038 373.538L339.623 378.002L342.793 385.786L344.378 389.211L347.548 394.903L349.134 397.361L350.719 399.358L352.304 400.487L353.889 400.73L355.474 400.673L357.059 400.974L358.644 401.816L364.985 406.375L366.57 406.912L372.91 407.644L376.081 407.64L379.251 407.639L384.006 408.053L393.517 409.547L398.273 409.595L407.783 409.548L418.879 409.767L431.56 409.854L437.901 410.081L447.412 409.9L456.922 410.111L464.848 409.997L468.018 409.922L475.944 410.041L485.455 409.941L501.306 410.112L528.253 410.111" fill="#EFEFEF" fill-opacity="0.4"/>
<path d="M212.812 410.11L219.153 409.949L228.664 409.77L233.419 409.841L236.589 409.384L242.93 407.73L246.1 407.095L247.685 406.33L249.27 405.012L250.856 403.168L255.611 396.841L260.366 391.201L261.951 388.265L263.537 384.111L266.707 374.597L271.462 362.92L273.047 358.011L274.633 351.85L276.218 344.366L279.388 327.064L280.973 317.553L282.558 306.72L284.143 293.959L285.728 279.14L288.899 245.389L296.824 158.416L299.995 118.648L301.58 101.409L303.165 89.1227L304.75 81.1625L306.335 76.3899L307.92 75.4297L309.505 79.4249L311.09 88.2078L312.676 100.949L314.261 117.334L315.846 137.146L319.016 183.051L325.357 276.691L326.942 297.752L328.527 316.109L330.112 331.378L331.697 343.688L333.282 353.583L334.867 361.64L336.453 368.207L338.038 373.538L339.623 378.002L342.793 385.786L344.378 389.211L347.548 394.903L349.134 397.361L350.719 399.358L352.304 400.487L353.889 400.73L355.474 400.673L357.059 400.974L358.644 401.816L364.985 406.375L366.57 406.912L372.91 407.644L376.081 407.64L379.251 407.639L384.006 408.053L393.517 409.547L398.273 409.595L407.783 409.548L418.879 409.767L431.56 409.854L437.901 410.081L447.412 409.9L456.922 410.111L464.848 409.997L468.018 409.922L475.944 410.041L485.455 409.941L501.306 410.112L528.253 410.111" stroke="#EFEFEF" stroke-linecap="square"/>
</g>
<mask id="mask2_230_8798" style="mask-type:luminance" maskUnits="userSpaceOnUse" x="76" y="55" width="477" height="356">
<path d="M552.957 55.2959H76.7969V410.112H552.957V55.2959Z" fill="white"/>
</mask>
<g mask="url(#mask2_230_8798)">
<path d="M212.992 410.111L232.615 409.955L237.143 409.681L255.257 407.604L256.766 407.189L258.276 406.544L261.294 404.642L264.313 402.3L265.823 400.934L267.332 399.283L268.842 397.246L271.861 392.186L274.879 386.428L276.389 382.949L277.898 378.546L279.408 372.85L280.917 365.684L282.427 357.137L285.446 337.517L289.974 305.907L292.993 280.747L296.012 251.879L300.54 208.25L302.049 195.719L303.559 185.16L305.068 176.856L306.578 170.567L308.087 165.621L311.106 157.491L312.616 154.324L314.125 152.325L315.634 151.933L317.144 153.585L318.653 157.762L320.163 164.697L321.672 174.005L329.219 227.724L332.238 246.185L339.786 287.107L342.804 301.837L345.823 316.101L350.352 339.071L351.861 345.552L353.371 351.214L356.389 360.934L357.899 365.094L359.408 368.707L362.427 374.663L365.446 380.452L368.465 386.731L369.974 389.506L371.484 391.658L372.993 393.153L374.503 394.195L380.54 397.772L383.559 399.988L388.088 403.424L391.107 405.097L392.616 405.727L394.125 406.184L395.635 406.432L400.163 406.639L403.182 407.281L406.201 407.997L409.22 408.334L416.767 408.731L436.39 409.312L440.918 409.519L451.484 409.624L457.522 409.726L463.56 409.779L469.598 409.983L483.183 409.962L513.372 410.111" fill="#EFEFEF" fill-opacity="0.4"/>
<path d="M212.992 410.111L232.615 409.955L237.143 409.681L255.257 407.604L256.766 407.189L258.276 406.544L261.294 404.642L264.313 402.3L265.823 400.934L267.332 399.283L268.842 397.246L271.861 392.186L274.879 386.428L276.389 382.949L277.898 378.546L279.408 372.85L280.917 365.684L282.427 357.137L285.446 337.517L289.974 305.907L292.993 280.747L296.012 251.879L300.54 208.25L302.049 195.719L303.559 185.16L305.068 176.856L306.578 170.567L308.087 165.621L311.106 157.491L312.616 154.324L314.125 152.325L315.634 151.933L317.144 153.585L318.653 157.762L320.163 164.697L321.672 174.005L329.219 227.724L332.238 246.185L339.786 287.107L342.804 301.837L345.823 316.101L350.352 339.071L351.861 345.552L353.371 351.214L356.389 360.934L357.899 365.094L359.408 368.707L362.427 374.663L365.446 380.452L368.465 386.731L369.974 389.506L371.484 391.658L372.993 393.153L374.503 394.195L380.54 397.772L383.559 399.988L388.088 403.424L391.107 405.097L392.616 405.727L394.125 406.184L395.635 406.432L400.163 406.639L403.182 407.281L406.201 407.997L409.22 408.334L416.767 408.731L436.39 409.312L440.918 409.519L451.484 409.624L457.522 409.726L463.56 409.779L469.598 409.983L483.183 409.962L513.372 410.111" stroke="#EFEFEF" stroke-linecap="square"/>
</g>
<mask id="mask3_230_8798" style="mask-type:luminance" maskUnits="userSpaceOnUse" x="76" y="55" width="477" height="356">
<path d="M552.957 55.2959H76.7969V410.112H552.957V55.2959Z" fill="white"/>
</mask>
<g mask="url(#mask3_230_8798)">
<path d="M224.336 410.111L245.597 409.943L266.857 409.059L272.932 408.408L277.488 407.672L280.525 406.886L282.043 406.259L283.562 405.398L285.081 404.306L288.118 401.566L291.155 398.078L294.192 393.729L295.711 391.147L297.23 388.156L298.748 384.652L300.267 380.565L301.786 375.825L303.304 370.366L304.823 364.163L307.86 349.767L310.897 333.137L313.934 314.484L318.49 283.879L323.046 250.448L326.083 228.59L329.121 209.1L330.639 200.582L332.158 193.063L333.677 186.597L335.195 181.15L336.714 176.696L338.232 173.323L339.751 171.259L341.27 170.812L342.788 172.25L344.307 175.69L345.825 181.016L347.344 187.878L351.9 212.21L357.974 244.444L362.53 269.364L374.679 329.883L376.198 336.277L377.716 341.768L379.235 346.497L382.272 354.621L388.347 369.662L391.384 376.739L394.421 383.002L395.94 385.542L397.459 387.654L400.496 391.024L406.57 396.935L409.607 399.263L411.126 400.134L414.163 401.373L417.201 402.5L424.794 405.982L427.831 406.844L432.387 407.698L439.98 408.715L444.536 408.991L450.61 409.286L455.166 409.626L461.241 409.545L465.796 409.646L471.871 409.856L485.538 409.854L490.094 410.065L509.836 410.026L517.429 409.944L526.541 410.11" fill="#EFEFEF" fill-opacity="0.4"/>
<path d="M224.336 410.111L245.597 409.943L266.857 409.059L272.932 408.408L277.488 407.672L280.525 406.886L282.043 406.259L283.562 405.398L285.081 404.306L288.118 401.566L291.155 398.078L294.192 393.729L295.711 391.147L297.23 388.156L298.748 384.652L300.267 380.565L301.786 375.825L303.304 370.366L304.823 364.163L307.86 349.767L310.897 333.137L313.934 314.484L318.49 283.879L323.046 250.448L326.083 228.59L329.121 209.1L330.639 200.582L332.158 193.063L333.677 186.597L335.195 181.15L336.714 176.696L338.232 173.323L339.751 171.259L341.27 170.812L342.788 172.25L344.307 175.69L345.825 181.016L347.344 187.878L351.9 212.21L357.974 244.444L362.53 269.364L374.679 329.883L376.198 336.277L377.716 341.768L379.235 346.497L382.272 354.621L388.347 369.662L391.384 376.739L394.421 383.002L395.94 385.542L397.459 387.654L400.496 391.024L406.57 396.935L409.607 399.263L411.126 400.134L414.163 401.373L417.201 402.5L424.794 405.982L427.831 406.844L432.387 407.698L439.98 408.715L444.536 408.991L450.61 409.286L455.166 409.626L461.241 409.545L465.796 409.646L471.871 409.856L485.538 409.854L490.094 410.065L509.836 410.026L517.429 409.944L526.541 410.11" stroke="#EFEFEF" stroke-linecap="square"/>
</g>
<mask id="mask4_230_8798" style="mask-type:luminance" maskUnits="userSpaceOnUse" x="76" y="55" width="477" height="356">
<path d="M552.957 55.2959H76.7969V410.112H552.957V55.2959Z" fill="white"/>
</mask>
<g mask="url(#mask4_230_8798)">
<path d="M200.094 410.11L220.926 409.936L228.938 409.623L233.746 409.901L236.951 409.724L244.963 409.023L249.771 407.802L251.373 407.707L256.181 407.935L259.386 407.574L262.591 406.723L264.193 406.108L265.796 405.292L267.398 404.229L270.603 401.46L272.206 399.778L273.808 397.789L275.411 395.358L277.013 392.382L278.616 388.798L280.218 384.559L281.82 379.633L285.025 367.964L288.23 354.255L289.833 346.189L291.435 337L294.64 315.673L297.845 291.693L301.05 264.229L305.858 221.126L309.063 195.641L312.268 172.469L313.87 162.003L315.473 152.719L317.075 145.498L318.678 141.13L320.28 139.376L321.883 139.125L323.485 139.711L325.088 141.769L326.69 146.702L328.293 155.469L329.895 167.771L334.703 210.536L341.112 262.859L344.317 291.871L347.522 317.649L349.125 328.771L350.727 338.359L352.33 346.186L353.932 352.379L355.535 357.331L360.342 369.627L361.945 373.621L363.547 376.994L365.15 379.473L368.355 383.258L369.957 385.459L376.367 395.385L377.97 397.029L379.572 398.107L382.777 399.353L385.982 400.709L390.79 403.01L395.597 404.678L400.404 406.134L403.609 406.892L406.814 407.379L418.032 408.592L422.839 409.198L426.044 409.311L430.852 409.358L437.262 409.872L518.988 410.11" fill="#EFEFEF" fill-opacity="0.4"/>
<path d="M200.094 410.11L220.926 409.936L228.938 409.623L233.746 409.901L236.951 409.724L244.963 409.023L249.771 407.802L251.373 407.707L256.181 407.935L259.386 407.574L262.591 406.723L264.193 406.108L265.796 405.292L267.398 404.229L270.603 401.46L272.206 399.778L273.808 397.789L275.411 395.358L277.013 392.382L278.616 388.798L280.218 384.559L281.82 379.633L285.025 367.964L288.23 354.255L289.833 346.189L291.435 337L294.64 315.673L297.845 291.693L301.05 264.229L305.858 221.126L309.063 195.641L312.268 172.469L313.87 162.003L315.473 152.719L317.075 145.498L318.678 141.13L320.28 139.376L321.883 139.125L323.485 139.711L325.088 141.769L326.69 146.702L328.293 155.469L329.895 167.771L334.703 210.536L341.112 262.859L344.317 291.871L347.522 317.649L349.125 328.771L350.727 338.359L352.33 346.186L353.932 352.379L355.535 357.331L360.342 369.627L361.945 373.621L363.547 376.994L365.15 379.473L368.355 383.258L369.957 385.459L376.367 395.385L377.97 397.029L379.572 398.107L382.777 399.353L385.982 400.709L390.79 403.01L395.597 404.678L400.404 406.134L403.609 406.892L406.814 407.379L418.032 408.592L422.839 409.198L426.044 409.311L430.852 409.358L437.262 409.872L518.988 410.11" stroke="#EFEFEF" stroke-linecap="square"/>
</g>
<mask id="mask5_230_8798" style="mask-type:luminance" maskUnits="userSpaceOnUse" x="76" y="55" width="477" height="356">
<path d="M552.957 55.2959H76.7969V410.112H552.957V55.2959Z" fill="white"/>
</mask>
<g mask="url(#mask5_230_8798)">
<path d="M218.281 410.11L232.282 409.963L241.616 409.685L244.727 409.516L249.394 408.849L252.505 408.846L255.616 408.791L258.728 408.225L261.839 407.086L266.506 404.833L268.061 403.876L269.617 402.583L271.173 400.842L272.728 398.651L274.284 396.117L275.839 393.277L277.395 389.991L278.951 386.06L280.506 381.322L282.062 375.511L283.618 368.33L289.84 333.936L292.951 315.504L300.729 266.028L303.841 244.318L305.396 231.763L310.063 188.834L314.73 146.503L317.841 120.309L319.397 109.255L320.953 102.015L322.508 99.9287L324.064 102.848L325.619 109.261L327.175 117.602L328.731 127.715L330.286 140.512L331.842 156.56L333.398 175.568L339.62 258.493L341.176 275.577L344.287 304.929L347.398 332.062L348.954 344.259L350.509 354.246L352.065 361.901L353.621 368.009L356.732 378.2L358.288 382.398L359.843 385.938L362.955 391.782L364.51 394.218L366.066 396.207L369.177 399.313L372.288 402.002L373.844 402.972L375.4 403.491L378.511 403.805L380.066 404.171L383.178 405.488L386.289 406.849L387.845 407.302L390.956 407.728L397.178 408.483L401.845 408.513L406.512 409.02L412.735 409.197L415.846 409.307L422.068 409.263L428.291 409.449L431.402 409.478L437.625 409.844L446.958 409.841L453.181 410.088L460.959 410.043L468.737 409.919L479.626 410.044L485.849 409.975L493.627 410.033H504.516L513.85 410.102L524.74 410.095L527.851 410.11" fill="#EFEFEF" fill-opacity="0.4"/>
<path d="M218.281 410.11L232.282 409.963L241.616 409.685L244.727 409.516L249.394 408.849L252.505 408.846L255.616 408.791L258.728 408.225L261.839 407.086L266.506 404.833L268.061 403.876L269.617 402.583L271.173 400.842L272.728 398.651L274.284 396.117L275.839 393.277L277.395 389.991L278.951 386.06L280.506 381.322L282.062 375.511L283.618 368.33L289.84 333.936L292.951 315.504L300.729 266.028L303.841 244.318L305.396 231.763L310.063 188.834L314.73 146.503L317.841 120.309L319.397 109.255L320.953 102.015L322.508 99.9287L324.064 102.848L325.619 109.261L327.175 117.602L328.731 127.715L330.286 140.512L331.842 156.56L333.398 175.568L339.62 258.493L341.176 275.577L344.287 304.929L347.398 332.062L348.954 344.259L350.509 354.246L352.065 361.901L353.621 368.009L356.732 378.2L358.288 382.398L359.843 385.938L362.955 391.782L364.51 394.218L366.066 396.207L369.177 399.313L372.288 402.002L373.844 402.972L375.4 403.491L378.511 403.805L380.066 404.171L383.178 405.488L386.289 406.849L387.845 407.302L390.956 407.728L397.178 408.483L401.845 408.513L406.512 409.02L412.735 409.197L415.846 409.307L422.068 409.263L428.291 409.449L431.402 409.478L437.625 409.844L446.958 409.841L453.181 410.088L460.959 410.043L468.737 409.919L479.626 410.044L485.849 409.975L493.627 410.033H504.516L513.85 410.102L524.74 410.095L527.851 410.11" stroke="#EFEFEF" stroke-linecap="square"/>
</g>
<mask id="mask6_230_8798" style="mask-type:luminance" maskUnits="userSpaceOnUse" x="76" y="55" width="477" height="356">
<path d="M552.957 55.2959H76.7969V410.112H552.957V55.2959Z" fill="white"/>
</mask>
<g mask="url(#mask6_230_8798)">
<path d="M216.383 410.112L231.938 409.976L247.493 409.406L263.048 408.043L266.159 407.406L270.825 406.13L275.491 404.537L278.602 403.107L283.269 400.731L289.491 398.004L291.046 397.003L292.602 395.635L294.157 393.82L295.713 391.559L298.824 386.117L305.046 374.207L306.601 370.814L308.157 367.055L311.268 358.364L320.601 329.409L322.156 324.074L325.267 311.78L328.378 298.677L331.489 287.094L334.6 277.381L337.711 268.646L340.822 260.588L343.933 253.174L347.044 246.525L348.6 243.688L350.155 241.382L351.711 239.787L353.266 239.018L354.822 239.051L356.377 239.747L357.932 240.928L359.488 242.455L362.599 246.241L364.154 248.473L365.71 251.059L367.265 254.202L368.821 258.042L375.043 275.497L376.598 278.546L379.709 283.173L381.265 285.515L382.82 288.329L384.376 291.78L385.931 295.888L389.042 305.708L393.709 322.48L396.82 333.507L399.931 343.596L404.597 357.269L407.708 365.734L410.819 373.024L413.93 378.81L418.597 386.198L423.263 393.15L426.374 396.98L427.93 398.572L429.485 399.949L431.041 401.112L432.596 402.062L435.707 403.411L440.373 404.719L446.595 406.315L454.373 408.635L457.484 409.129L460.595 409.302L468.372 409.475L476.15 409.781L513.482 410.051L525.925 410.112" fill="#EFEFEF" fill-opacity="0.4"/>
<path d="M216.383 410.112L231.938 409.976L247.493 409.406L263.048 408.043L266.159 407.406L270.825 406.13L275.491 404.537L278.602 403.107L283.269 400.731L289.491 398.004L291.046 397.003L292.602 395.635L294.157 393.82L295.713 391.559L298.824 386.117L305.046 374.207L306.601 370.814L308.157 367.055L311.268 358.364L320.601 329.409L322.156 324.074L325.267 311.78L328.378 298.677L331.489 287.094L334.6 277.381L337.711 268.646L340.822 260.588L343.933 253.174L347.044 246.525L348.6 243.688L350.155 241.382L351.711 239.787L353.266 239.018L354.822 239.051L356.377 239.747L357.932 240.928L359.488 242.455L362.599 246.241L364.154 248.473L365.71 251.059L367.265 254.202L368.821 258.042L375.043 275.497L376.598 278.546L379.709 283.173L381.265 285.515L382.82 288.329L384.376 291.78L385.931 295.888L389.042 305.708L393.709 322.48L396.82 333.507L399.931 343.596L404.597 357.269L407.708 365.734L410.819 373.024L413.93 378.81L418.597 386.198L423.263 393.15L426.374 396.98L427.93 398.572L429.485 399.949L431.041 401.112L432.596 402.062L435.707 403.411L440.373 404.719L446.595 406.315L454.373 408.635L457.484 409.129L460.595 409.302L468.372 409.475L476.15 409.781L513.482 410.051L525.925 410.112" stroke="#EFEFEF" stroke-linecap="square"/>
</g>
<mask id="mask7_230_8798" style="mask-type:luminance" maskUnits="userSpaceOnUse" x="76" y="55" width="477" height="356">
<path d="M552.957 55.2959H76.7969V410.112H552.957V55.2959Z" fill="white"/>
</mask>
<g mask="url(#mask7_230_8798)">
<path d="M161.289 410.111L180.099 409.95L185.229 409.693L188.649 409.025L192.069 407.923L197.2 406.054L198.91 405.394L200.62 404.272L202.33 402.492L204.04 400.152L205.75 397.431L207.46 394.356L209.17 390.829L210.88 386.815L212.59 382.376L214.3 377.418L216.01 371.507L217.72 364.174L219.43 355.432L222.85 335.212L224.56 323.513L227.98 296.126L236.53 224.557L239.95 191.971L241.66 177.106L243.37 164.295L245.08 154.574L246.79 148.683L248.5 146.585L250.21 147.495L251.92 150.22L255.34 157.255L257.05 161.278L258.76 166.249L260.47 172.759L262.18 181.267L263.89 191.644L267.31 214.909L270.73 240.276L274.151 267.1L277.571 290.521L280.991 313.455L284.411 337.143L286.121 346.675L287.831 354.364L291.251 367.143L294.671 378.411L296.381 383.311L298.091 387.553L299.801 390.905L301.511 393.253L303.221 394.83L308.351 398.801L311.771 401.636L313.481 402.818L315.191 403.621L316.901 403.955L320.321 404.057L322.031 404.429L328.871 407.068L330.581 407.4L332.291 407.487L339.131 407.199L342.551 407.996L344.261 408.377L345.971 408.546L354.522 408.511L359.652 409.336L366.492 409.496L369.912 409.364L373.332 409.185L376.752 409.389L380.172 409.711L383.592 409.681L388.722 409.606L402.402 409.481L407.532 409.779L412.662 409.529L416.082 409.436L428.053 409.958L438.313 409.857L453.703 409.958L465.673 410.098L477.643 410.099L491.323 410.032L501.584 410.111" fill="#EFEFEF" fill-opacity="0.4"/>
<path d="M161.289 410.111L180.099 409.95L185.229 409.693L188.649 409.025L192.069 407.923L197.2 406.054L198.91 405.394L200.62 404.272L202.33 402.492L204.04 400.152L205.75 397.431L207.46 394.356L209.17 390.829L210.88 386.815L212.59 382.376L214.3 377.418L216.01 371.507L217.72 364.174L219.43 355.432L222.85 335.212L224.56 323.513L227.98 296.126L236.53 224.557L239.95 191.971L241.66 177.106L243.37 164.295L245.08 154.574L246.79 148.683L248.5 146.585L250.21 147.495L251.92 150.22L255.34 157.255L257.05 161.278L258.76 166.249L260.47 172.759L262.18 181.267L263.89 191.644L267.31 214.909L270.73 240.276L274.151 267.1L277.571 290.521L280.991 313.455L284.411 337.143L286.121 346.675L287.831 354.364L291.251 367.143L294.671 378.411L296.381 383.311L298.091 387.553L299.801 390.905L301.511 393.253L303.221 394.83L308.351 398.801L311.771 401.636L313.481 402.818L315.191 403.621L316.901 403.955L320.321 404.057L322.031 404.429L328.871 407.068L330.581 407.4L332.291 407.487L339.131 407.199L342.551 407.996L344.261 408.377L345.971 408.546L354.522 408.511L359.652 409.336L366.492 409.496L369.912 409.364L373.332 409.185L376.752 409.389L380.172 409.711L383.592 409.681L388.722 409.606L402.402 409.481L407.532 409.779L412.662 409.529L416.082 409.436L428.053 409.958L438.313 409.857L453.703 409.958L465.673 410.098L477.643 410.099L491.323 410.032L501.584 410.111" stroke="#EFEFEF" stroke-linecap="square"/>
</g>
<mask id="mask8_230_8798" style="mask-type:luminance" maskUnits="userSpaceOnUse" x="76" y="55" width="477" height="356">
<path d="M552.957 55.2959H76.7969V410.112H552.957V55.2959Z" fill="white"/>
</mask>
<g mask="url(#mask8_230_8798)">
<path d="M235.672 410.111L241.339 410.009L249.839 409.587L255.506 409.768L258.339 409.8L261.173 409.591L269.673 408.651L275.34 408.031L276.756 407.727L278.173 407.263L281.006 405.871L283.84 404.015L285.257 402.862L286.673 401.484L289.507 398.065L290.923 396.077L292.34 393.794L293.757 390.964L295.173 387.281L296.59 382.492L298.007 376.435L299.424 368.973L300.84 359.87L302.257 348.723L303.674 335.064L305.09 318.6L306.507 299.376L309.341 254.249L313.591 177.544L316.424 127.54L317.841 106.264L319.257 89.3754L320.674 77.8638L322.091 72.1924L323.508 72.3663L324.924 77.9693L326.341 88.1808L327.758 101.898L330.591 135.22L336.258 203.996L339.091 235.619L340.508 249.881L341.925 262.628L343.341 273.628L344.758 282.801L346.175 290.294L347.592 296.505L350.425 307.131L354.675 322.052L357.509 330.618L358.925 333.977L360.342 336.569L364.592 342.367L366.009 344.955L368.842 351.509L371.676 358.239L377.342 370.601L378.759 373.421L380.176 375.893L383.009 379.961L387.259 385.374L390.093 388.634L392.926 391.387L398.593 395.724L402.843 400.305L404.26 401.475L405.676 402.389L408.51 403.725L411.343 404.576L418.427 405.931L422.677 407.33L425.51 407.748L429.76 408.294L434.011 408.888L442.511 409.647L479.345 409.952L502.012 410.053L517.596 410.111" fill="#EFEFEF" fill-opacity="0.4"/>
<path d="M235.672 410.111L241.339 410.009L249.839 409.587L255.506 409.768L258.339 409.8L261.173 409.591L269.673 408.651L275.34 408.031L276.756 407.727L278.173 407.263L281.006 405.871L283.84 404.015L285.257 402.862L286.673 401.484L289.507 398.065L290.923 396.077L292.34 393.794L293.757 390.964L295.173 387.281L296.59 382.492L298.007 376.435L299.424 368.973L300.84 359.87L302.257 348.723L303.674 335.064L305.09 318.6L306.507 299.376L309.341 254.249L313.591 177.544L316.424 127.54L317.841 106.264L319.257 89.3754L320.674 77.8638L322.091 72.1924L323.508 72.3663L324.924 77.9693L326.341 88.1808L327.758 101.898L330.591 135.22L336.258 203.996L339.091 235.619L340.508 249.881L341.925 262.628L343.341 273.628L344.758 282.801L346.175 290.294L347.592 296.505L350.425 307.131L354.675 322.052L357.509 330.618L358.925 333.977L360.342 336.569L364.592 342.367L366.009 344.955L368.842 351.509L371.676 358.239L377.342 370.601L378.759 373.421L380.176 375.893L383.009 379.961L387.259 385.374L390.093 388.634L392.926 391.387L398.593 395.724L402.843 400.305L404.26 401.475L405.676 402.389L408.51 403.725L411.343 404.576L418.427 405.931L422.677 407.33L425.51 407.748L429.76 408.294L434.011 408.888L442.511 409.647L479.345 409.952L502.012 410.053L517.596 410.111" stroke="#EFEFEF" stroke-linecap="square"/>
</g>
<mask id="mask9_230_8798" style="mask-type:luminance" maskUnits="userSpaceOnUse" x="76" y="55" width="477" height="356">
<path d="M552.957 55.2959H76.7969V410.112H552.957V55.2959Z" fill="white"/>
</mask>
<g mask="url(#mask9_230_8798)">
<path d="M185.062 410.11L230.922 409.853L236.018 409.894L239.415 409.88L246.209 409.491L254.701 409.671L258.098 409.194L268.289 407.349L269.988 406.849L271.686 406.113L273.385 405.054L275.083 403.769L276.782 402.286L278.481 400.454L280.179 398.035L281.878 394.636L283.576 389.828L285.275 383.629L286.973 376.322L288.672 367.611L290.37 356.606L292.069 342.783L293.767 326.359L295.466 307.811L298.863 265.753L309.054 132.126L310.752 113.424L312.451 97.0754L314.149 84.6015L315.848 77.7627L317.546 76.0967L319.245 78.0933L320.943 84.3088L322.642 96.353L324.34 113.878L329.436 174.332L334.531 228.753L337.928 268.057L339.627 285.77L341.325 301.525L343.024 315.597L344.722 328.075L346.421 338.488L348.119 346.756L351.516 360.866L353.215 367.092L354.913 371.783L358.31 378.985L361.707 387.176L363.406 390.622L365.104 393.19L366.803 395.107L371.899 399.981L373.597 401.286L375.296 402.198L376.994 402.71L387.185 404.234L390.582 404.717L395.678 405.714L400.773 407.116L402.472 407.34L412.663 407.845L419.457 409.05L427.949 409.239L431.346 409.467L434.743 409.368L438.14 409.244L443.236 409.648L446.633 409.802L453.427 409.613L458.523 409.972L473.809 409.96L478.905 409.756L487.397 409.998L523.066 410.11" fill="#EFEFEF" fill-opacity="0.4"/>
<path d="M185.062 410.11L230.922 409.853L236.018 409.894L239.415 409.88L246.209 409.491L254.701 409.671L258.098 409.194L268.289 407.349L269.988 406.849L271.686 406.113L273.385 405.054L275.083 403.769L276.782 402.286L278.481 400.454L280.179 398.035L281.878 394.636L283.576 389.828L285.275 383.629L286.973 376.322L288.672 367.611L290.37 356.606L292.069 342.783L293.767 326.359L295.466 307.811L298.863 265.753L309.054 132.126L310.752 113.424L312.451 97.0754L314.149 84.6015L315.848 77.7627L317.546 76.0967L319.245 78.0933L320.943 84.3088L322.642 96.353L324.34 113.878L329.436 174.332L334.531 228.753L337.928 268.057L339.627 285.77L341.325 301.525L343.024 315.597L344.722 328.075L346.421 338.488L348.119 346.756L351.516 360.866L353.215 367.092L354.913 371.783L358.31 378.985L361.707 387.176L363.406 390.622L365.104 393.19L366.803 395.107L371.899 399.981L373.597 401.286L375.296 402.198L376.994 402.71L387.185 404.234L390.582 404.717L395.678 405.714L400.773 407.116L402.472 407.34L412.663 407.845L419.457 409.05L427.949 409.239L431.346 409.467L434.743 409.368L438.14 409.244L443.236 409.648L446.633 409.802L453.427 409.613L458.523 409.972L473.809 409.96L478.905 409.756L487.397 409.998L523.066 410.11" stroke="#EFEFEF" stroke-linecap="square"/>
</g>
<mask id="mask10_230_8798" style="mask-type:luminance" maskUnits="userSpaceOnUse" x="76" y="55" width="477" height="356">
<path d="M552.957 55.2959H76.7969V410.112H552.957V55.2959Z" fill="white"/>
</mask>
<g mask="url(#mask10_230_8798)">
<path d="M220.422 410.111L229.394 409.963L235.375 409.951L245.842 409.969L248.833 409.889L254.814 409.373L269.767 407.398L271.263 406.934L272.758 406.272L274.253 405.34L275.748 404.058L277.244 402.381L278.739 400.303L280.234 397.831L283.225 391.848L286.216 384.858L287.711 380.74L289.206 375.847L290.702 369.915L292.197 362.733L293.692 354.188L295.188 344.297L296.683 333.137L299.674 307.337L302.664 277.822L305.655 244.725L310.141 194.179L311.636 179.644L313.131 167.039L314.627 156.566L316.122 148.166L317.617 141.597L319.113 136.519L320.608 132.582L322.103 129.64L323.599 128.031L325.094 128.556L326.589 131.988L328.084 138.5L329.58 147.572L332.57 170.283L335.561 196.392L343.038 267.778L346.028 290.167L349.019 309.621L350.514 317.836L353.505 332.134L356.495 344.925L357.991 350.068L365.467 371.955L366.963 375.53L368.458 378.658L369.953 381.387L371.449 383.694L374.439 387.242L375.935 388.984L380.42 395.136L381.916 396.755L384.906 399.135L389.392 402.25L390.888 402.999L393.878 403.892L396.869 404.951L398.364 405.585L399.86 406.023L401.355 406.151L404.346 405.995L405.841 406.132L408.831 407L411.822 407.887L414.813 408.344L419.299 408.399L423.785 408.533L429.766 408.861L432.756 408.916L435.747 409.241L438.738 409.613L441.728 409.717L447.71 409.755L452.196 409.907L462.663 409.917L468.644 409.979L491.074 410.009L497.055 410.048L509.018 410.025L517.989 410.111" fill="#EFEFEF" fill-opacity="0.4"/>
<path d="M220.422 410.111L229.394 409.963L235.375 409.951L245.842 409.969L248.833 409.889L254.814 409.373L269.767 407.398L271.263 406.934L272.758 406.272L274.253 405.34L275.748 404.058L277.244 402.381L278.739 400.303L280.234 397.831L283.225 391.848L286.216 384.858L287.711 380.74L289.206 375.847L290.702 369.915L292.197 362.733L293.692 354.188L295.188 344.297L296.683 333.137L299.674 307.337L302.664 277.822L305.655 244.725L310.141 194.179L311.636 179.644L313.131 167.039L314.627 156.566L316.122 148.166L317.617 141.597L319.113 136.519L320.608 132.582L322.103 129.64L323.599 128.031L325.094 128.556L326.589 131.988L328.084 138.5L329.58 147.572L332.57 170.283L335.561 196.392L343.038 267.778L346.028 290.167L349.019 309.621L350.514 317.836L353.505 332.134L356.495 344.925L357.991 350.068L365.467 371.955L366.963 375.53L368.458 378.658L369.953 381.387L371.449 383.694L374.439 387.242L375.935 388.984L380.42 395.136L381.916 396.755L384.906 399.135L389.392 402.25L390.888 402.999L393.878 403.892L396.869 404.951L398.364 405.585L399.86 406.023L401.355 406.151L404.346 405.995L405.841 406.132L408.831 407L411.822 407.887L414.813 408.344L419.299 408.399L423.785 408.533L429.766 408.861L432.756 408.916L435.747 409.241L438.738 409.613L441.728 409.717L447.71 409.755L452.196 409.907L462.663 409.917L468.644 409.979L491.074 410.009L497.055 410.048L509.018 410.025L517.989 410.111" stroke="#EFEFEF" stroke-linecap="square"/>
</g>
<mask id="mask11_230_8798" style="mask-type:luminance" maskUnits="userSpaceOnUse" x="76" y="55" width="477" height="356">
<path d="M552.957 55.2959H76.7969V410.112H552.957V55.2959Z" fill="white"/>
</mask>
<g mask="url(#mask11_230_8798)">
<path d="M209.609 410.111L216.076 409.986L224.159 409.552L227.392 409.416L230.625 408.878L233.858 407.963L237.091 406.62L240.324 404.855L243.558 402.549L246.791 399.835L248.407 398.316L250.024 396.465L251.641 394L253.257 390.797L254.874 386.991L258.107 378.294L259.723 373.437L261.34 368.085L262.957 362.017L266.19 347.624L267.806 339.611L269.423 330.747L271.04 320.484L272.656 308.641L277.506 269.635L285.589 212.537L288.822 193.337L292.055 176.458L293.672 169.444L295.288 163.812L296.905 159.385L300.138 151.179L301.755 146.63L303.371 143.464L304.988 143.827L306.604 148.606L308.221 156.896L309.838 167.13L313.071 190.486L316.304 216.798L319.537 245.95L324.387 290.743L326.003 304.705L327.62 317.323L329.237 328.505L332.47 348.131L335.703 365.974L337.32 374.152L338.936 381.305L340.553 387.055L342.169 391.391L343.786 394.579L345.402 396.927L348.636 400.393L351.869 403.714L353.485 405.126L355.102 406.165L356.719 406.881L359.952 407.808L363.185 408.28L368.035 408.785L371.268 409.149L374.501 409.107L377.734 409.034L397.133 409.798L403.599 409.638L411.682 409.652L416.532 409.953L427.848 409.755L431.081 409.672L434.315 409.547L444.014 409.842L471.496 410.112L487.662 409.978L494.128 410.054L503.828 410.112L531.31 410.111" fill="#EFEFEF" fill-opacity="0.4"/>
<path d="M209.609 410.111L216.076 409.986L224.159 409.552L227.392 409.416L230.625 408.878L233.858 407.963L237.091 406.62L240.324 404.855L243.558 402.549L246.791 399.835L248.407 398.316L250.024 396.465L251.641 394L253.257 390.797L254.874 386.991L258.107 378.294L259.723 373.437L261.34 368.085L262.957 362.017L266.19 347.624L267.806 339.611L269.423 330.747L271.04 320.484L272.656 308.641L277.506 269.635L285.589 212.537L288.822 193.337L292.055 176.458L293.672 169.444L295.288 163.812L296.905 159.385L300.138 151.179L301.755 146.63L303.371 143.464L304.988 143.827L306.604 148.606L308.221 156.896L309.838 167.13L313.071 190.486L316.304 216.798L319.537 245.95L324.387 290.743L326.003 304.705L327.62 317.323L329.237 328.505L332.47 348.131L335.703 365.974L337.32 374.152L338.936 381.305L340.553 387.055L342.169 391.391L343.786 394.579L345.402 396.927L348.636 400.393L351.869 403.714L353.485 405.126L355.102 406.165L356.719 406.881L359.952 407.808L363.185 408.28L368.035 408.785L371.268 409.149L374.501 409.107L377.734 409.034L397.133 409.798L403.599 409.638L411.682 409.652L416.532 409.953L427.848 409.755L431.081 409.672L434.315 409.547L444.014 409.842L471.496 410.112L487.662 409.978L494.128 410.054L503.828 410.112L531.31 410.111" stroke="#EFEFEF" stroke-linecap="square"/>
</g>
<mask id="mask12_230_8798" style="mask-type:luminance" maskUnits="userSpaceOnUse" x="76" y="55" width="477" height="356">
<path d="M552.957 55.2959H76.7969V410.112H552.957V55.2959Z" fill="white"/>
</mask>
<g mask="url(#mask12_230_8798)">
<path d="M226.727 410.11L234.051 409.95L239.91 409.786L248.699 409.825L253.094 409.706L257.488 409.095L261.883 408.492L264.812 408.078L266.277 407.689L269.207 406.478L272.137 404.852L275.066 402.933L276.531 401.773L277.996 400.312L279.461 398.414L280.926 395.978L282.39 392.964L283.855 389.397L286.785 380.961L289.715 371.552L292.644 361.128L294.109 354.983L295.574 347.927L297.039 339.904L299.968 321.672L305.828 283.303L310.222 250.528L314.617 217.631L316.082 208.287L319.011 192.549L323.406 170.48L324.871 165.012L326.336 161.829L327.8 161.121L329.265 162.426L330.73 165.131L332.195 168.966L333.66 173.952L335.125 180.059L336.589 187.117L338.054 195.008L340.984 213.164L343.914 231.979L346.843 248.171L349.773 264.863L354.167 293.053L355.632 301.322L358.562 315.463L362.956 334.311L365.886 346.2L368.816 356.552L374.675 375.319L376.14 379.186L377.605 382.23L379.07 384.585L387.859 396.496L390.788 400.437L392.253 401.932L393.718 402.98L395.183 403.63L399.577 404.946L403.972 406.919L406.902 407.669L412.761 408.72L415.691 408.826L418.62 408.767L421.55 409.017L425.944 409.49L428.874 409.461L433.269 409.301L437.663 409.594L443.523 409.987L450.847 410.111L462.565 409.973L466.96 409.994L474.284 410.111L505.046 410.017L509.44 409.957L518.229 410.111" fill="#EFEFEF" fill-opacity="0.4"/>
<path d="M226.727 410.11L234.051 409.95L239.91 409.786L248.699 409.825L253.094 409.706L257.488 409.095L261.883 408.492L264.812 408.078L266.277 407.689L269.207 406.478L272.137 404.852L275.066 402.933L276.531 401.773L277.996 400.312L279.461 398.414L280.926 395.978L282.39 392.964L283.855 389.397L286.785 380.961L289.715 371.552L292.644 361.128L294.109 354.983L295.574 347.927L297.039 339.904L299.968 321.672L305.828 283.303L310.222 250.528L314.617 217.631L316.082 208.287L319.011 192.549L323.406 170.48L324.871 165.012L326.336 161.829L327.8 161.121L329.265 162.426L330.73 165.131L332.195 168.966L333.66 173.952L335.125 180.059L336.589 187.117L338.054 195.008L340.984 213.164L343.914 231.979L346.843 248.171L349.773 264.863L354.167 293.053L355.632 301.322L358.562 315.463L362.956 334.311L365.886 346.2L368.816 356.552L374.675 375.319L376.14 379.186L377.605 382.23L379.07 384.585L387.859 396.496L390.788 400.437L392.253 401.932L393.718 402.98L395.183 403.63L399.577 404.946L403.972 406.919L406.902 407.669L412.761 408.72L415.691 408.826L418.62 408.767L421.55 409.017L425.944 409.49L428.874 409.461L433.269 409.301L437.663 409.594L443.523 409.987L450.847 410.111L462.565 409.973L466.96 409.994L474.284 410.111L505.046 410.017L509.44 409.957L518.229 410.111" stroke="#EFEFEF" stroke-linecap="square"/>
</g>
<mask id="mask13_230_8798" style="mask-type:luminance" maskUnits="userSpaceOnUse" x="76" y="55" width="477" height="356">
<path d="M552.957 55.2959H76.7969V410.112H552.957V55.2959Z" fill="white"/>
</mask>
<g mask="url(#mask13_230_8798)">
<path d="M231.898 410.111L238.541 409.952L242.527 409.895L249.169 409.833L254.484 409.612L263.783 409.947L266.44 409.791L271.754 409.048L274.412 409.289L277.069 409.589L278.397 409.503L281.054 408.851L283.711 408.258L289.025 407.827L291.682 407.133L298.325 404.884L300.982 403.637L302.311 402.771L303.639 401.566L304.968 399.906L306.296 397.789L308.953 392.59L310.282 389.488L311.61 385.764L312.939 381.261L315.596 370.584L318.253 358.548L319.582 351.312L320.91 342.644L322.239 332.355L324.896 308.36L330.21 257.942L332.867 227.18L335.524 196.398L336.853 183.995L338.181 173.841L340.838 157.487L343.495 142.482L344.824 135.76L346.152 131.094L347.481 129.362L348.809 130.055L351.466 133.333L352.795 135.389L354.124 139.037L355.452 144.829L362.095 181.646L363.423 189.905L364.752 200.061L367.409 224.992L374.052 291.422L375.38 302.552L376.709 311.98L378.037 319.85L380.694 332.902L387.337 363.696L389.994 374.003L392.651 383.061L393.98 386.883L395.308 390.098L396.637 392.709L397.965 394.796L399.294 396.447L400.622 397.747L407.265 402.907L408.593 403.79L411.25 404.995L420.55 408.107L423.207 408.35L427.193 408.446L431.178 408.943L436.493 409.761L439.15 409.812L445.792 409.742L451.107 409.734L455.092 409.711L464.392 410.105L469.706 409.96L473.692 409.824L496.277 410.111" fill="#EFEFEF" fill-opacity="0.4"/>
<path d="M231.898 410.111L238.541 409.952L242.527 409.895L249.169 409.833L254.484 409.612L263.783 409.947L266.44 409.791L271.754 409.048L274.412 409.289L277.069 409.589L278.397 409.503L281.054 408.851L283.711 408.258L289.025 407.827L291.682 407.133L298.325 404.884L300.982 403.637L302.311 402.771L303.639 401.566L304.968 399.906L306.296 397.789L308.953 392.59L310.282 389.488L311.61 385.764L312.939 381.261L315.596 370.584L318.253 358.548L319.582 351.312L320.91 342.644L322.239 332.355L324.896 308.36L330.21 257.942L332.867 227.18L335.524 196.398L336.853 183.995L338.181 173.841L340.838 157.487L343.495 142.482L344.824 135.76L346.152 131.094L347.481 129.362L348.809 130.055L351.466 133.333L352.795 135.389L354.124 139.037L355.452 144.829L362.095 181.646L363.423 189.905L364.752 200.061L367.409 224.992L374.052 291.422L375.38 302.552L376.709 311.98L378.037 319.85L380.694 332.902L387.337 363.696L389.994 374.003L392.651 383.061L393.98 386.883L395.308 390.098L396.637 392.709L397.965 394.796L399.294 396.447L400.622 397.747L407.265 402.907L408.593 403.79L411.25 404.995L420.55 408.107L423.207 408.35L427.193 408.446L431.178 408.943L436.493 409.761L439.15 409.812L445.792 409.742L451.107 409.734L455.092 409.711L464.392 410.105L469.706 409.96L473.692 409.824L496.277 410.111" stroke="#EFEFEF" stroke-linecap="square"/>
</g>
<mask id="mask14_230_8798" style="mask-type:luminance" maskUnits="userSpaceOnUse" x="76" y="55" width="477" height="356">
<path d="M552.957 55.2959H76.7969V410.112H552.957V55.2959Z" fill="white"/>
</mask>
<g mask="url(#mask14_230_8798)">
<path d="M98.4375 410.112L137.793 409.977L139.865 409.803L141.936 409.469L144.007 408.88L146.079 407.904L148.15 406.388L150.221 404.163L152.293 401.016L154.364 396.684L156.435 390.936L158.507 383.677L160.578 374.892L162.649 364.434L164.721 351.98L166.792 337.327L170.935 303.156L175.078 268.745L177.149 253.243L179.22 239.101L181.292 226.176L183.363 214.32L185.434 203.581L187.506 194.213L189.577 186.538L191.648 180.857L193.72 177.536L195.791 176.968L197.862 179.284L199.934 184.076L202.005 190.535L204.076 197.953L206.148 206.12L208.219 215.279L210.291 225.774L212.362 237.715L216.505 264.89L220.647 292.976L222.719 305.652L224.79 316.694L226.861 326.054L228.933 334.023L231.004 340.974L233.075 347.196L237.218 358.169L239.289 363.07L241.361 367.552L243.432 371.615L247.575 378.838L251.718 385.11L253.789 387.764L255.86 390.005L257.932 391.777L260.003 393.108L272.431 399.359L276.574 400.618L278.645 401.038L280.716 401.241L282.788 401.189L289.002 400.535L291.073 400.668L295.216 401.518L301.43 402.723L309.715 404.226L313.858 404.576L322.144 404.661L332.5 406.12L336.643 406.875L340.786 407.683L344.928 408.088L353.214 408.22L363.571 409.199L382.213 409.372L400.855 409.776L427.782 409.93L436.068 409.843L446.425 409.949L454.71 409.969L465.067 410.11L510.637 410.112" fill="#7EB0D5" fill-opacity="0.4"/>
<path d="M98.4375 410.112L137.793 409.977L139.865 409.803L141.936 409.469L144.007 408.88L146.079 407.904L148.15 406.388L150.221 404.163L152.293 401.016L154.364 396.684L156.435 390.936L158.507 383.677L160.578 374.892L162.649 364.434L164.721 351.98L166.792 337.327L170.935 303.156L175.078 268.745L177.149 253.243L179.22 239.101L181.292 226.176L183.363 214.32L185.434 203.581L187.506 194.213L189.577 186.538L191.648 180.857L193.72 177.536L195.791 176.968L197.862 179.284L199.934 184.076L202.005 190.535L204.076 197.953L206.148 206.12L208.219 215.279L210.291 225.774L212.362 237.715L216.505 264.89L220.647 292.976L222.719 305.652L224.79 316.694L226.861 326.054L228.933 334.023L231.004 340.974L233.075 347.196L237.218 358.169L239.289 363.07L241.361 367.552L243.432 371.615L247.575 378.838L251.718 385.11L253.789 387.764L255.86 390.005L257.932 391.777L260.003 393.108L272.431 399.359L276.574 400.618L278.645 401.038L280.716 401.241L282.788 401.189L289.002 400.535L291.073 400.668L295.216 401.518L301.43 402.723L309.715 404.226L313.858 404.576L322.144 404.661L332.5 406.12L336.643 406.875L340.786 407.683L344.928 408.088L353.214 408.22L363.571 409.199L382.213 409.372L400.855 409.776L427.782 409.93L436.068 409.843L446.425 409.949L454.71 409.969L465.067 410.11L510.637 410.112" stroke="#7EB0D5" stroke-linecap="square"/>
</g>
<path d="M535.061 411.061C535.646 410.475 535.646 409.525 535.061 408.939L525.515 399.393C524.929 398.808 523.979 398.808 523.393 399.393C522.808 399.979 522.808 400.929 523.393 401.515L531.879 410L523.393 418.485C522.808 419.071 522.808 420.021 523.393 420.607C523.979 421.192 524.929 421.192 525.515 420.607L535.061 411.061ZM79 411.5H534V408.5H79V411.5Z" fill="black"/>
</g>
<defs>
<clipPath id="clip0_230_8798">
<rect width="614.4" height="460.8" fill="white"/>
</clipPath>
</defs>
</svg>
