<svg width="615" height="461" viewBox="0 0 615 461" fill="none" xmlns="http://www.w3.org/2000/svg">
<g clip-path="url(#clip0_230_7998)">
<mask id="mask0_230_7998" style="mask-type:luminance" maskUnits="userSpaceOnUse" x="76" y="55" width="477" height="356">
<path d="M552.957 55.2959H76.7969V410.112H552.957V55.2959Z" fill="white"/>
</mask>
<g mask="url(#mask0_230_7998)">
<path d="M242.312 410.111L250.694 409.996L260.472 409.744L266.06 409.505L270.251 408.894L274.441 408.299L278.632 407.876L281.426 407.193L284.22 406.209L287.013 405.014L289.807 403.54L292.601 401.693L295.395 399.504L298.189 397.025L300.982 394.138L303.776 390.696L306.57 386.652L313.555 375.827L316.348 370.594L319.142 364.302L321.936 356.82L324.73 347.878L327.524 337.825L331.714 321.432L338.699 292.085L341.493 281.628L344.286 272.268L347.08 264.535L348.477 261.322L349.874 258.526L351.271 256.114L352.668 254.031L354.065 252.243L355.462 250.781L356.858 249.738L358.255 249.201L359.652 249.211L361.049 249.8L362.446 251.044L363.843 253.06L365.24 255.893L366.637 259.441L373.621 279.08L376.415 286.225L377.812 290.28L379.209 294.92L382.003 305.849L386.193 322.874L390.384 338.004L393.178 347.589L395.972 356.206L398.766 363.657L402.956 373.957L405.75 380.068L408.544 384.996L411.338 389.037L414.131 392.555L416.925 395.675L419.719 398.375L423.91 401.793L426.704 403.734L429.497 405.259L432.291 406.437L436.482 407.789L440.673 408.71L444.863 409.297L449.054 409.636L460.229 409.996L507.724 410.061L520.296 410.111" fill="#EFEFEF" fill-opacity="0.4"/>
<path d="M242.312 410.111L250.694 409.996L260.472 409.744L266.06 409.505L270.251 408.894L274.441 408.299L278.632 407.876L281.426 407.193L284.22 406.209L287.013 405.014L289.807 403.54L292.601 401.693L295.395 399.504L298.189 397.025L300.982 394.138L303.776 390.696L306.57 386.652L313.555 375.827L316.348 370.594L319.142 364.302L321.936 356.82L324.73 347.878L327.524 337.825L331.714 321.432L338.699 292.085L341.493 281.628L344.286 272.268L347.08 264.535L348.477 261.322L349.874 258.526L351.271 256.114L352.668 254.031L354.065 252.243L355.462 250.781L356.858 249.738L358.255 249.201L359.652 249.211L361.049 249.8L362.446 251.044L363.843 253.06L365.24 255.893L366.637 259.441L373.621 279.08L376.415 286.225L377.812 290.28L379.209 294.92L382.003 305.849L386.193 322.874L390.384 338.004L393.178 347.589L395.972 356.206L398.766 363.657L402.956 373.957L405.75 380.068L408.544 384.996L411.338 389.037L414.131 392.555L416.925 395.675L419.719 398.375L423.91 401.793L426.704 403.734L429.497 405.259L432.291 406.437L436.482 407.789L440.673 408.71L444.863 409.297L449.054 409.636L460.229 409.996L507.724 410.061L520.296 410.111" stroke="#EFEFEF" stroke-linecap="square"/>
</g>
<mask id="mask1_230_7998" style="mask-type:luminance" maskUnits="userSpaceOnUse" x="76" y="55" width="477" height="356">
<path d="M552.957 55.2959H76.7969V410.112H552.957V55.2959Z" fill="white"/>
</mask>
<g mask="url(#mask1_230_7998)">
<path d="M278.188 410.111L315.802 409.792L319.563 409.634L322.071 409.078L325.833 407.88L329.594 406.199L333.355 404.901L335.863 403.819L337.117 402.923L338.371 401.541L339.625 399.656L340.878 397.405L342.132 394.682L343.386 391.21L345.894 383.019L347.147 378.286L348.401 371.892L349.655 363.448L350.909 353.443L352.163 342.007L353.416 328.251L354.67 311.392L357.178 271.755L365.955 124.821L367.208 107.551L368.462 93.5492L369.716 82.231L370.97 74.4632L372.224 72.1924L373.478 76.574L374.731 86.4907L377.239 114.252L381 161.758L386.016 229.471L388.523 264.616L389.777 279.2L394.792 329.694L396.046 340.52L397.3 349.437L398.554 357.07L401.062 369.556L403.569 380.422L404.823 384.914L406.077 388.466L409.838 396.885L411.092 399.529L412.346 401.55L413.6 402.741L414.853 403.296L416.107 403.679L417.361 404.295L419.869 406.107L421.123 406.755L426.138 408.174L428.645 408.661L433.661 409.305L439.93 409.697L442.437 409.877L448.707 409.87L452.468 410.055L458.737 409.926L462.499 410.105L466.26 410.031L470.021 409.928L475.037 410.111L527.697 410.111" fill="#EFEFEF" fill-opacity="0.4"/>
<path d="M278.188 410.111L315.802 409.792L319.563 409.634L322.071 409.078L325.833 407.88L329.594 406.199L333.355 404.901L335.863 403.819L337.117 402.923L338.371 401.541L339.625 399.656L340.878 397.405L342.132 394.682L343.386 391.21L345.894 383.019L347.147 378.286L348.401 371.892L349.655 363.448L350.909 353.443L352.163 342.007L353.416 328.251L354.67 311.392L357.178 271.755L365.955 124.821L367.208 107.551L368.462 93.5492L369.716 82.231L370.97 74.4632L372.224 72.1924L373.478 76.574L374.731 86.4907L377.239 114.252L381 161.758L386.016 229.471L388.523 264.616L389.777 279.2L394.792 329.694L396.046 340.52L397.3 349.437L398.554 357.07L401.062 369.556L403.569 380.422L404.823 384.914L406.077 388.466L409.838 396.885L411.092 399.529L412.346 401.55L413.6 402.741L414.853 403.296L416.107 403.679L417.361 404.295L419.869 406.107L421.123 406.755L426.138 408.174L428.645 408.661L433.661 409.305L439.93 409.697L442.437 409.877L448.707 409.87L452.468 410.055L458.737 409.926L462.499 410.105L466.26 410.031L470.021 409.928L475.037 410.111L527.697 410.111" stroke="#EFEFEF" stroke-linecap="square"/>
</g>
<mask id="mask2_230_7998" style="mask-type:luminance" maskUnits="userSpaceOnUse" x="76" y="55" width="477" height="356">
<path d="M552.957 55.2959H76.7969V410.112H552.957V55.2959Z" fill="white"/>
</mask>
<g mask="url(#mask2_230_7998)">
<path d="M274.508 410.111L294.064 409.953L298.953 409.776L308.732 409.866L313.621 409.48L316.065 409.382L319.732 408.784L320.955 408.501L322.177 408.064L323.399 407.384L325.844 405.438L328.288 403.477L331.955 400.82L333.177 399.676L334.4 398.319L335.622 396.737L336.844 394.821L338.066 392.29L339.289 388.829L340.511 384.304L342.956 372.896L345.4 361.143L349.067 344.538L350.289 337.658L352.734 321.11L355.178 300.524L358.845 267.775L363.734 228.604L368.623 193.042L371.068 177.088L372.29 170.667L373.513 166.145L374.735 164.416L375.957 165.676L377.179 169.066L378.402 173.49L379.624 178.503L384.513 200.87L385.735 205.146L386.958 210.007L388.18 216.824L389.402 226.103L394.291 270.067L397.958 297.566L401.625 322.958L404.07 337.447L406.514 350.484L410.181 368.417L412.626 379.31L413.848 383.72L415.07 387.186L416.292 389.865L422.404 401.286L423.626 403.044L424.848 404.468L426.071 405.583L427.293 406.435L429.738 407.643L432.182 408.428L434.627 408.678L438.294 408.815L444.405 409.361L450.516 409.602L455.405 409.317L457.85 409.288L461.517 409.495L465.184 409.493L472.517 410.016L478.629 410.028L517.742 410.111" fill="#EFEFEF" fill-opacity="0.4"/>
<path d="M274.508 410.111L294.064 409.953L298.953 409.776L308.732 409.866L313.621 409.48L316.065 409.382L319.732 408.784L320.955 408.501L322.177 408.064L323.399 407.384L325.844 405.438L328.288 403.477L331.955 400.82L333.177 399.676L334.4 398.319L335.622 396.737L336.844 394.821L338.066 392.29L339.289 388.829L340.511 384.304L342.956 372.896L345.4 361.143L349.067 344.538L350.289 337.658L352.734 321.11L355.178 300.524L358.845 267.775L363.734 228.604L368.623 193.042L371.068 177.088L372.29 170.667L373.513 166.145L374.735 164.416L375.957 165.676L377.179 169.066L378.402 173.49L379.624 178.503L384.513 200.87L385.735 205.146L386.958 210.007L388.18 216.824L389.402 226.103L394.291 270.067L397.958 297.566L401.625 322.958L404.07 337.447L406.514 350.484L410.181 368.417L412.626 379.31L413.848 383.72L415.07 387.186L416.292 389.865L422.404 401.286L423.626 403.044L424.848 404.468L426.071 405.583L427.293 406.435L429.738 407.643L432.182 408.428L434.627 408.678L438.294 408.815L444.405 409.361L450.516 409.602L455.405 409.317L457.85 409.288L461.517 409.495L465.184 409.493L472.517 410.016L478.629 410.028L517.742 410.111" stroke="#EFEFEF" stroke-linecap="square"/>
</g>
<mask id="mask3_230_7998" style="mask-type:luminance" maskUnits="userSpaceOnUse" x="76" y="55" width="477" height="356">
<path d="M552.957 55.2959H76.7969V410.112H552.957V55.2959Z" fill="white"/>
</mask>
<g mask="url(#mask3_230_7998)">
<path d="M294.469 410.111L320.652 409.942L323.033 409.765L332.554 408.322L333.744 407.945L334.934 407.354L336.124 406.447L337.315 405.156L338.505 403.481L340.885 399.25L342.075 396.764L343.265 393.935L344.456 390.608L345.646 386.647L346.836 381.973L348.026 376.551L349.216 370.335L350.406 363.243L352.787 346.189L355.167 325.313L357.547 299.858L362.308 242.103L363.498 230.184L364.688 220.064L365.878 211.856L367.069 205.728L368.259 201.789L369.449 199.886L370.639 199.57L371.829 200.305L373.019 201.737L374.21 203.799L375.4 206.567L376.59 210.05L381.351 225.644L388.491 244.461L390.872 252.259L393.252 261.653L396.823 276.547L400.393 290.631L407.534 320.978L411.105 333.52L414.675 346.018L419.436 363.449L420.626 367.04L421.816 370.149L424.196 375.215L427.767 382.287L431.337 389.636L433.718 393.914L436.098 397.191L439.668 401.13L442.049 403.486L444.429 405.177L446.809 406.237L452.76 408.184L455.141 408.701L463.472 409.762L468.232 409.905L486.085 409.947L492.035 409.889L506.317 410.063L512.268 409.991L519.409 410.074L527.74 410.095L531.311 410.111" fill="#EFEFEF" fill-opacity="0.4"/>
<path d="M294.469 410.111L320.652 409.942L323.033 409.765L332.554 408.322L333.744 407.945L334.934 407.354L336.124 406.447L337.315 405.156L338.505 403.481L340.885 399.25L342.075 396.764L343.265 393.935L344.456 390.608L345.646 386.647L346.836 381.973L348.026 376.551L349.216 370.335L350.406 363.243L352.787 346.189L355.167 325.313L357.547 299.858L362.308 242.103L363.498 230.184L364.688 220.064L365.878 211.856L367.069 205.728L368.259 201.789L369.449 199.886L370.639 199.57L371.829 200.305L373.019 201.737L374.21 203.799L375.4 206.567L376.59 210.05L381.351 225.644L388.491 244.461L390.872 252.259L393.252 261.653L396.823 276.547L400.393 290.631L407.534 320.978L411.105 333.52L414.675 346.018L419.436 363.449L420.626 367.04L421.816 370.149L424.196 375.215L427.767 382.287L431.337 389.636L433.718 393.914L436.098 397.191L439.668 401.13L442.049 403.486L444.429 405.177L446.809 406.237L452.76 408.184L455.141 408.701L463.472 409.762L468.232 409.905L486.085 409.947L492.035 409.889L506.317 410.063L512.268 409.991L519.409 410.074L527.74 410.095L531.311 410.111" stroke="#EFEFEF" stroke-linecap="square"/>
</g>
<mask id="mask4_230_7998" style="mask-type:luminance" maskUnits="userSpaceOnUse" x="76" y="55" width="477" height="356">
<path d="M552.957 55.2959H76.7969V410.112H552.957V55.2959Z" fill="white"/>
</mask>
<g mask="url(#mask4_230_7998)">
<path d="M276.352 410.11L300.805 409.892L306.918 409.598L314.254 408.891L316.699 408.361L319.145 407.581L322.813 406.106L325.258 404.71L330.149 401.568L331.371 400.314L333.817 396.759L337.485 391.284L338.707 388.488L339.93 384.851L341.153 380.602L342.375 375.524L343.598 369.087L344.821 361.023L347.266 341.101L350.934 310.217L353.379 286.096L355.825 260.356L357.047 244.993L360.715 192.754L363.161 164.882L365.606 136.146L368.051 106.518L369.274 97.1032L370.496 93.4814L371.719 95.0305L372.942 100.284L374.164 107.897L376.61 126.715L377.832 137.407L379.055 150.5L380.278 167.036L382.723 206.579L386.391 268.354L387.614 287.002L388.836 303.365L390.059 316.902L391.282 327.67L393.727 344.755L396.172 359.719L397.395 365.753L399.84 375.585L401.063 379.819L402.286 383.412L404.731 389.075L408.399 397.487L409.622 399.555L410.844 400.958L414.512 404.207L418.18 407.112L419.403 407.758L421.848 408.259L426.739 409.156L429.184 409.685L451.192 409.974L457.305 409.983L502.544 410.112L519.661 410.11" fill="#EFEFEF" fill-opacity="0.4"/>
<path d="M276.352 410.11L300.805 409.892L306.918 409.598L314.254 408.891L316.699 408.361L319.145 407.581L322.813 406.106L325.258 404.71L330.149 401.568L331.371 400.314L333.817 396.759L337.485 391.284L338.707 388.488L339.93 384.851L341.153 380.602L342.375 375.524L343.598 369.087L344.821 361.023L347.266 341.101L350.934 310.217L353.379 286.096L355.825 260.356L357.047 244.993L360.715 192.754L363.161 164.882L365.606 136.146L368.051 106.518L369.274 97.1032L370.496 93.4814L371.719 95.0305L372.942 100.284L374.164 107.897L376.61 126.715L377.832 137.407L379.055 150.5L380.278 167.036L382.723 206.579L386.391 268.354L387.614 287.002L388.836 303.365L390.059 316.902L391.282 327.67L393.727 344.755L396.172 359.719L397.395 365.753L399.84 375.585L401.063 379.819L402.286 383.412L404.731 389.075L408.399 397.487L409.622 399.555L410.844 400.958L414.512 404.207L418.18 407.112L419.403 407.758L421.848 408.259L426.739 409.156L429.184 409.685L451.192 409.974L457.305 409.983L502.544 410.112L519.661 410.11" stroke="#EFEFEF" stroke-linecap="square"/>
</g>
<mask id="mask5_230_7998" style="mask-type:luminance" maskUnits="userSpaceOnUse" x="76" y="55" width="477" height="356">
<path d="M552.957 55.2959H76.7969V410.112H552.957V55.2959Z" fill="white"/>
</mask>
<g mask="url(#mask5_230_7998)">
<path d="M279.039 410.111L292.257 409.95L299.967 409.601L303.271 409.522L305.474 409.27L308.779 408.539L314.286 407.255L316.489 406.183L318.692 404.536L321.996 401.519L324.199 399.134L326.402 396.164L328.605 392.579L330.808 388.641L331.909 386.369L333.011 383.622L334.112 380.239L336.315 371.768L339.619 358.3L340.721 354.578L341.822 351.57L342.924 349.374L344.025 347.974L345.127 347.266L346.228 347.11L347.33 347.382L350.634 349.234L351.736 349.464L352.837 349.256L356.141 347.765L358.344 347.026L359.446 346.116L360.547 344.516L361.649 342.177L362.75 339.16L363.852 335.54L366.055 326.676L368.257 315.738L369.359 309.302L370.46 301.981L372.663 284.397L375.968 253.345L379.272 219.731L382.576 184.521L384.779 165.052L385.881 157.453L386.982 151.301L388.084 146.689L389.185 143.948L390.287 143.521L391.388 145.702L392.49 150.483L393.591 157.644L394.693 166.974L395.794 178.375L397.997 206.921L403.504 287.597L405.707 312.682L407.91 331.974L410.113 347.688L413.417 368.785L415.62 380.093L416.722 384.505L417.823 388.17L420.026 393.923L422.229 398.275L423.331 399.964L424.432 401.336L426.635 403.358L428.838 404.844L432.142 406.578L435.447 407.907L437.65 408.476L440.954 408.945L454.171 409.974L459.679 409.91L465.186 409.969L473.998 410.062L482.809 410.1L498.23 410.111" fill="#EFEFEF" fill-opacity="0.4"/>
<path d="M279.039 410.111L292.257 409.95L299.967 409.601L303.271 409.522L305.474 409.27L308.779 408.539L314.286 407.255L316.489 406.183L318.692 404.536L321.996 401.519L324.199 399.134L326.402 396.164L328.605 392.579L330.808 388.641L331.909 386.369L333.011 383.622L334.112 380.239L336.315 371.768L339.619 358.3L340.721 354.578L341.822 351.57L342.924 349.374L344.025 347.974L345.127 347.266L346.228 347.11L347.33 347.382L350.634 349.234L351.736 349.464L352.837 349.256L356.141 347.765L358.344 347.026L359.446 346.116L360.547 344.516L361.649 342.177L362.75 339.16L363.852 335.54L366.055 326.676L368.257 315.738L369.359 309.302L370.46 301.981L372.663 284.397L375.968 253.345L379.272 219.731L382.576 184.521L384.779 165.052L385.881 157.453L386.982 151.301L388.084 146.689L389.185 143.948L390.287 143.521L391.388 145.702L392.49 150.483L393.591 157.644L394.693 166.974L395.794 178.375L397.997 206.921L403.504 287.597L405.707 312.682L407.91 331.974L410.113 347.688L413.417 368.785L415.62 380.093L416.722 384.505L417.823 388.17L420.026 393.923L422.229 398.275L423.331 399.964L424.432 401.336L426.635 403.358L428.838 404.844L432.142 406.578L435.447 407.907L437.65 408.476L440.954 408.945L454.171 409.974L459.679 409.91L465.186 409.969L473.998 410.062L482.809 410.1L498.23 410.111" stroke="#EFEFEF" stroke-linecap="square"/>
</g>
<mask id="mask6_230_7998" style="mask-type:luminance" maskUnits="userSpaceOnUse" x="76" y="55" width="477" height="356">
<path d="M552.957 55.2959H76.7969V410.112H552.957V55.2959Z" fill="white"/>
</mask>
<g mask="url(#mask6_230_7998)">
<path d="M303.93 410.111L311.001 409.96L316.051 409.805L322.112 409.799L324.132 409.4L326.153 408.884L327.163 408.764L329.183 408.944L332.214 409.379L334.234 409.318L337.264 408.89L341.305 408.04L343.325 407.409L345.345 406.385L347.366 404.775L348.376 403.666L349.386 402.238L350.396 400.377L351.406 398.003L352.416 395.111L354.437 388.056L356.457 379.832L358.477 370.214L360.497 358.088L362.518 343.397L367.568 302.826L370.599 279.023L372.619 265.511L377.67 234.742L383.731 201.45L385.751 192.097L386.761 188.519L387.771 185.854L388.781 184.253L389.791 183.804L390.802 184.43L391.812 185.902L392.822 187.972L393.832 190.513L394.842 193.534L396.862 201.004L400.903 218.165L401.913 223.806L402.923 230.739L406.964 262.162L408.984 273.319L411.004 284.324L413.025 298.639L415.045 313.86L417.065 326.529L420.096 342.262L424.136 361.537L427.166 374.41L429.187 381.332L431.207 386.715L433.227 390.832L439.288 401.118L440.298 402.214L441.308 402.919L443.329 403.602L445.349 404.339L447.369 405.577L449.389 406.854L451.41 407.725L453.43 408.214L462.521 409.677L466.562 409.802L487.775 410.073L496.866 410.027L504.947 410.111" fill="#EFEFEF" fill-opacity="0.4"/>
<path d="M303.93 410.111L311.001 409.96L316.051 409.805L322.112 409.799L324.132 409.4L326.153 408.884L327.163 408.764L329.183 408.944L332.214 409.379L334.234 409.318L337.264 408.89L341.305 408.04L343.325 407.409L345.345 406.385L347.366 404.775L348.376 403.666L349.386 402.238L350.396 400.377L351.406 398.003L352.416 395.111L354.437 388.056L356.457 379.832L358.477 370.214L360.497 358.088L362.518 343.397L367.568 302.826L370.599 279.023L372.619 265.511L377.67 234.742L383.731 201.45L385.751 192.097L386.761 188.519L387.771 185.854L388.781 184.253L389.791 183.804L390.802 184.43L391.812 185.902L392.822 187.972L393.832 190.513L394.842 193.534L396.862 201.004L400.903 218.165L401.913 223.806L402.923 230.739L406.964 262.162L408.984 273.319L411.004 284.324L413.025 298.639L415.045 313.86L417.065 326.529L420.096 342.262L424.136 361.537L427.166 374.41L429.187 381.332L431.207 386.715L433.227 390.832L439.288 401.118L440.298 402.214L441.308 402.919L443.329 403.602L445.349 404.339L447.369 405.577L449.389 406.854L451.41 407.725L453.43 408.214L462.521 409.677L466.562 409.802L487.775 410.073L496.866 410.027L504.947 410.111" stroke="#EFEFEF" stroke-linecap="square"/>
</g>
<mask id="mask7_230_7998" style="mask-type:luminance" maskUnits="userSpaceOnUse" x="76" y="55" width="477" height="356">
<path d="M552.957 55.2959H76.7969V410.112H552.957V55.2959Z" fill="white"/>
</mask>
<g mask="url(#mask7_230_7998)">
<path d="M236.859 410.111L244.295 409.964L259.167 409.287L262.885 408.98L266.603 408.423L270.321 407.543L274.039 406.164L276.517 405.317L278.996 404.567L281.474 403.423L285.192 401.369L286.432 400.543L288.91 398.338L293.868 393.014L295.107 391.353L296.346 389.136L297.585 386.088L298.825 382.083L301.303 371.99L303.782 362.114L305.021 358.115L307.5 351.674L308.739 348.492L309.979 344.687L311.218 339.874L312.457 333.945L314.936 319.748L318.654 297.931L321.132 285.728L324.85 269.612L331.047 240.135L337.243 214.859L338.483 211.234L339.722 208.781L340.961 207.34L343.44 205.743L345.918 204.353L347.158 204.144L348.397 204.675L349.636 206.247L350.876 209.144L352.115 213.59L353.354 219.669L354.594 227.328L357.072 246.48L360.79 277.562L371.944 362.156L373.183 369.918L374.423 376.353L375.662 381.396L376.901 385.273L378.14 388.368L380.619 393.522L383.098 398.116L385.576 401.866L386.816 403.286L388.055 404.384L389.294 405.176L390.534 405.701L393.012 406.258L395.491 406.733L399.209 407.853L401.687 408.511L404.166 408.787L414.08 408.932L417.798 408.765L420.277 408.996L423.995 409.416L432.67 409.776L438.867 409.726L445.063 409.913L452.499 409.935L457.456 409.949L467.371 409.887L473.567 409.965L483.482 410.111" fill="#EFEFEF" fill-opacity="0.4"/>
<path d="M236.859 410.111L244.295 409.964L259.167 409.287L262.885 408.98L266.603 408.423L270.321 407.543L274.039 406.164L276.517 405.317L278.996 404.567L281.474 403.423L285.192 401.369L286.432 400.543L288.91 398.338L293.868 393.014L295.107 391.353L296.346 389.136L297.585 386.088L298.825 382.083L301.303 371.99L303.782 362.114L305.021 358.115L307.5 351.674L308.739 348.492L309.979 344.687L311.218 339.874L312.457 333.945L314.936 319.748L318.654 297.931L321.132 285.728L324.85 269.612L331.047 240.135L337.243 214.859L338.483 211.234L339.722 208.781L340.961 207.34L343.44 205.743L345.918 204.353L347.158 204.144L348.397 204.675L349.636 206.247L350.876 209.144L352.115 213.59L353.354 219.669L354.594 227.328L357.072 246.48L360.79 277.562L371.944 362.156L373.183 369.918L374.423 376.353L375.662 381.396L376.901 385.273L378.14 388.368L380.619 393.522L383.098 398.116L385.576 401.866L386.816 403.286L388.055 404.384L389.294 405.176L390.534 405.701L393.012 406.258L395.491 406.733L399.209 407.853L401.687 408.511L404.166 408.787L414.08 408.932L417.798 408.765L420.277 408.996L423.995 409.416L432.67 409.776L438.867 409.726L445.063 409.913L452.499 409.935L457.456 409.949L467.371 409.887L473.567 409.965L483.482 410.111" stroke="#EFEFEF" stroke-linecap="square"/>
</g>
<mask id="mask8_230_7998" style="mask-type:luminance" maskUnits="userSpaceOnUse" x="76" y="55" width="477" height="356">
<path d="M552.957 55.2959H76.7969V410.112H552.957V55.2959Z" fill="white"/>
</mask>
<g mask="url(#mask8_230_7998)">
<path d="M301.633 410.11L307.236 409.967L311.905 409.813L320.31 409.789L322.177 409.243L324.045 408.238L326.847 406.431L328.714 405.694L330.582 405.53L334.317 405.738L336.185 405.42L338.053 404.727L339.92 403.819L340.854 403.248L341.788 402.494L342.722 401.438L343.656 399.94L344.59 397.846L345.523 394.987L346.457 391.194L347.391 386.333L348.325 380.356L350.193 365.394L352.994 338.491L355.796 311.891L361.399 263.684L366.068 219.083L367.936 195.254L369.803 169.964L370.737 159.48L371.671 151.635L372.605 146.626L373.539 144.065L374.472 143.247L375.406 143.519L376.34 144.542L377.274 146.334L378.208 149.127L379.142 153.175L380.075 158.621L381.009 165.46L382.877 182.63L387.546 230.428L389.414 244.932L395.017 282.496L396.885 292.562L401.554 314.112L403.422 323.537L405.289 331.431L409.025 345.563L411.826 356.779L413.694 363.393L415.561 369.181L417.429 373.966L420.231 380.74L422.098 385.481L423.032 387.533L423.966 389.207L425.834 391.568L427.701 393.692L429.569 396.568L431.437 399.664L432.371 400.934L433.304 401.934L435.172 403.29L441.709 406.688L443.577 407.41L445.444 407.866L450.114 408.482L457.584 409.547L465.989 409.944L470.658 410.035L475.327 410.068L481.864 410.006L487.467 410.111" fill="#EFEFEF" fill-opacity="0.4"/>
<path d="M301.633 410.11L307.236 409.967L311.905 409.813L320.31 409.789L322.177 409.243L324.045 408.238L326.847 406.431L328.714 405.694L330.582 405.53L334.317 405.738L336.185 405.42L338.053 404.727L339.92 403.819L340.854 403.248L341.788 402.494L342.722 401.438L343.656 399.94L344.59 397.846L345.523 394.987L346.457 391.194L347.391 386.333L348.325 380.356L350.193 365.394L352.994 338.491L355.796 311.891L361.399 263.684L366.068 219.083L367.936 195.254L369.803 169.964L370.737 159.48L371.671 151.635L372.605 146.626L373.539 144.065L374.472 143.247L375.406 143.519L376.34 144.542L377.274 146.334L378.208 149.127L379.142 153.175L380.075 158.621L381.009 165.46L382.877 182.63L387.546 230.428L389.414 244.932L395.017 282.496L396.885 292.562L401.554 314.112L403.422 323.537L405.289 331.431L409.025 345.563L411.826 356.779L413.694 363.393L415.561 369.181L417.429 373.966L420.231 380.74L422.098 385.481L423.032 387.533L423.966 389.207L425.834 391.568L427.701 393.692L429.569 396.568L431.437 399.664L432.371 400.934L433.304 401.934L435.172 403.29L441.709 406.688L443.577 407.41L445.444 407.866L450.114 408.482L457.584 409.547L465.989 409.944L470.658 410.035L475.327 410.068L481.864 410.006L487.467 410.111" stroke="#EFEFEF" stroke-linecap="square"/>
</g>
<mask id="mask9_230_7998" style="mask-type:luminance" maskUnits="userSpaceOnUse" x="76" y="55" width="477" height="356">
<path d="M552.957 55.2959H76.7969V410.112H552.957V55.2959Z" fill="white"/>
</mask>
<g mask="url(#mask9_230_7998)">
<path d="M279.055 410.111L309.481 409.921L315.566 409.648L316.783 409.456L318 409.076L319.217 408.387L320.434 407.171L321.651 404.967L322.868 400.857L324.085 393.366L325.302 380.792L326.519 362.156L330.17 288.989L331.387 271.536L332.605 261.566L333.822 257.875L336.256 257.253L337.473 254.92L338.69 249.888L339.907 242.705L342.341 224.964L344.775 204.363L349.643 158.884L350.86 150.084L352.077 143.567L353.294 139.625L354.511 138.551L355.728 140.564L356.945 145.67L358.162 153.73L359.379 164.602L360.596 178.027L367.899 268.733L370.333 292.946L372.767 313.278L375.201 329.723L377.635 342.992L378.852 348.558L380.069 353.245L381.286 356.978L386.154 368.719L387.371 371.58L388.588 373.967L389.805 375.804L391.023 377.189L392.24 378.236L394.674 379.666L395.891 380.401L397.108 381.443L398.325 382.844L401.976 387.729L403.193 389.061L404.41 390.076L405.627 390.743L408.061 391.318L409.278 391.605L410.495 392.188L411.712 393.164L416.58 398.41L419.014 400.104L423.883 402.788L428.751 405.847L431.185 406.797L433.619 407.181L438.487 407.636L443.355 408.47L448.223 409.547L450.658 409.699L462.828 409.712L468.913 409.883L477.432 409.932L483.518 409.991L489.603 409.955L511.51 410.047L521.246 410.111" fill="#EFEFEF" fill-opacity="0.4"/>
<path d="M279.055 410.111L309.481 409.921L315.566 409.648L316.783 409.456L318 409.076L319.217 408.387L320.434 407.171L321.651 404.967L322.868 400.857L324.085 393.366L325.302 380.792L326.519 362.156L330.17 288.989L331.387 271.536L332.605 261.566L333.822 257.875L336.256 257.253L337.473 254.92L338.69 249.888L339.907 242.705L342.341 224.964L344.775 204.363L349.643 158.884L350.86 150.084L352.077 143.567L353.294 139.625L354.511 138.551L355.728 140.564L356.945 145.67L358.162 153.73L359.379 164.602L360.596 178.027L367.899 268.733L370.333 292.946L372.767 313.278L375.201 329.723L377.635 342.992L378.852 348.558L380.069 353.245L381.286 356.978L386.154 368.719L387.371 371.58L388.588 373.967L389.805 375.804L391.023 377.189L392.24 378.236L394.674 379.666L395.891 380.401L397.108 381.443L398.325 382.844L401.976 387.729L403.193 389.061L404.41 390.076L405.627 390.743L408.061 391.318L409.278 391.605L410.495 392.188L411.712 393.164L416.58 398.41L419.014 400.104L423.883 402.788L428.751 405.847L431.185 406.797L433.619 407.181L438.487 407.636L443.355 408.47L448.223 409.547L450.658 409.699L462.828 409.712L468.913 409.883L477.432 409.932L483.518 409.991L489.603 409.955L511.51 410.047L521.246 410.111" stroke="#EFEFEF" stroke-linecap="square"/>
</g>
<mask id="mask10_230_7998" style="mask-type:luminance" maskUnits="userSpaceOnUse" x="76" y="55" width="477" height="356">
<path d="M552.957 55.2959H76.7969V410.112H552.957V55.2959Z" fill="white"/>
</mask>
<g mask="url(#mask10_230_7998)">
<path d="M288.852 410.111L312.941 409.968L318.677 409.808L323.265 409.733L326.707 409.326L330.148 408.958L332.442 408.698L333.589 408.422L334.737 407.963L335.884 407.24L337.031 406.18L338.178 404.739L339.325 402.911L340.472 400.683L341.619 397.989L342.766 394.688L343.914 390.6L345.061 385.562L346.208 379.458L347.355 372.206L348.502 363.729L350.796 343.087L357.679 273.727L361.12 241.149L363.415 221.865L366.856 196.027L368.003 188.484L369.15 182.382L370.297 178.209L371.445 176.072L372.592 175.869L373.739 177.492L374.886 180.732L377.18 189.845L379.474 198.849L381.769 207.491L382.916 212.407L384.063 218.086L386.357 231.842L394.387 284.271L395.534 289.523L397.828 297.196L398.976 300.883L400.123 305.069L402.417 315.345L405.858 331.826L409.3 346.833L411.594 357.382L412.741 361.715L420.771 386.778L421.918 389.368L424.212 393.431L425.359 394.987L427.654 397.295L437.978 405.746L440.272 406.878L443.713 408.026L446.008 408.506L451.743 409.065L455.185 409.618L458.626 409.713L465.509 409.707L490.745 410.085L501.07 410.096L512.541 410.071L517.129 410.111" fill="#EFEFEF" fill-opacity="0.4"/>
<path d="M288.852 410.111L312.941 409.968L318.677 409.808L323.265 409.733L326.707 409.326L330.148 408.958L332.442 408.698L333.589 408.422L334.737 407.963L335.884 407.24L337.031 406.18L338.178 404.739L339.325 402.911L340.472 400.683L341.619 397.989L342.766 394.688L343.914 390.6L345.061 385.562L346.208 379.458L347.355 372.206L348.502 363.729L350.796 343.087L357.679 273.727L361.12 241.149L363.415 221.865L366.856 196.027L368.003 188.484L369.15 182.382L370.297 178.209L371.445 176.072L372.592 175.869L373.739 177.492L374.886 180.732L377.18 189.845L379.474 198.849L381.769 207.491L382.916 212.407L384.063 218.086L386.357 231.842L394.387 284.271L395.534 289.523L397.828 297.196L398.976 300.883L400.123 305.069L402.417 315.345L405.858 331.826L409.3 346.833L411.594 357.382L412.741 361.715L420.771 386.778L421.918 389.368L424.212 393.431L425.359 394.987L427.654 397.295L437.978 405.746L440.272 406.878L443.713 408.026L446.008 408.506L451.743 409.065L455.185 409.618L458.626 409.713L465.509 409.707L490.745 410.085L501.07 410.096L512.541 410.071L517.129 410.111" stroke="#EFEFEF" stroke-linecap="square"/>
</g>
<mask id="mask11_230_7998" style="mask-type:luminance" maskUnits="userSpaceOnUse" x="76" y="55" width="477" height="356">
<path d="M552.957 55.2959H76.7969V410.112H552.957V55.2959Z" fill="white"/>
</mask>
<g mask="url(#mask11_230_7998)">
<path d="M275.094 410.11L291.271 410.009L296.249 409.652L299.982 409.683L303.716 409.742L306.205 409.32L308.693 408.759L312.427 408.368L318.649 406.588L319.893 406.056L321.138 405.279L322.382 404.168L323.627 402.725L327.36 397.518L328.604 395.368L329.849 392.296L331.093 388.03L334.827 373.912L337.315 363.71L338.56 357.761L339.804 350.866L341.049 342.541L343.538 321.962L346.026 299.197L348.515 278.433L349.76 265.452L354.737 202.635L358.471 161.747L359.715 150.974L360.96 142.923L363.448 130.299L364.693 125.646L365.937 123.123L367.182 122.072L368.426 121.455L369.671 121.735L370.915 124.571L372.16 131.204L373.404 141.816L374.648 155.729L378.382 204.127L380.871 238.771L384.604 296.422L385.848 312.011L388.337 338.781L390.826 362.203L392.07 371.387L393.315 379.049L394.559 385.439L395.804 390.493L397.048 394.174L398.293 396.807L400.781 400.928L403.27 404.32L404.515 405.636L405.759 406.516L408.248 407.281L411.981 408.264L416.959 409.019L429.403 409.555L431.892 409.754L435.626 409.709L439.359 409.617L446.826 409.942L451.803 409.965L456.781 410L469.225 409.956L474.203 410.109L514.025 410.067L519.003 410.06L522.736 410.11" fill="#EFEFEF" fill-opacity="0.4"/>
<path d="M275.094 410.11L291.271 410.009L296.249 409.652L299.982 409.683L303.716 409.742L306.205 409.32L308.693 408.759L312.427 408.368L318.649 406.588L319.893 406.056L321.138 405.279L322.382 404.168L323.627 402.725L327.36 397.518L328.604 395.368L329.849 392.296L331.093 388.03L334.827 373.912L337.315 363.71L338.56 357.761L339.804 350.866L341.049 342.541L343.538 321.962L346.026 299.197L348.515 278.433L349.76 265.452L354.737 202.635L358.471 161.747L359.715 150.974L360.96 142.923L363.448 130.299L364.693 125.646L365.937 123.123L367.182 122.072L368.426 121.455L369.671 121.735L370.915 124.571L372.16 131.204L373.404 141.816L374.648 155.729L378.382 204.127L380.871 238.771L384.604 296.422L385.848 312.011L388.337 338.781L390.826 362.203L392.07 371.387L393.315 379.049L394.559 385.439L395.804 390.493L397.048 394.174L398.293 396.807L400.781 400.928L403.27 404.32L404.515 405.636L405.759 406.516L408.248 407.281L411.981 408.264L416.959 409.019L429.403 409.555L431.892 409.754L435.626 409.709L439.359 409.617L446.826 409.942L451.803 409.965L456.781 410L469.225 409.956L474.203 410.109L514.025 410.067L519.003 410.06L522.736 410.11" stroke="#EFEFEF" stroke-linecap="square"/>
</g>
<mask id="mask12_230_7998" style="mask-type:luminance" maskUnits="userSpaceOnUse" x="76" y="55" width="477" height="356">
<path d="M552.957 55.2959H76.7969V410.112H552.957V55.2959Z" fill="white"/>
</mask>
<g mask="url(#mask12_230_7998)">
<path d="M277.242 410.111L300.292 409.958L304.902 409.819L310.664 409.882L316.427 409.692L324.494 409.056L327.952 408.548L331.409 408.333L332.561 408.071L333.714 407.606L336.019 406.197L338.324 404.774L339.476 404.29L344.086 403.075L345.239 402.471L346.391 401.581L347.544 400.333L348.696 398.696L349.849 396.687L352.154 391.828L355.611 383.628L356.764 380.576L357.916 376.959L359.069 372.405L360.221 366.721L362.526 352.915L367.136 324.2L371.746 290.756L375.203 266.397L378.661 244.287L383.271 216.822L386.728 198.281L389.033 186.728L390.186 182.147L391.338 178.946L392.491 177.312L393.643 177.243L394.796 178.597L395.948 181.087L397.101 184.321L398.253 188.008L399.406 192.199L400.558 197.224L401.711 203.332L404.016 218.075L407.473 242.934L409.778 262.303L413.235 292.92L415.54 309.947L417.845 323.789L421.303 343.79L424.76 364.997L427.065 376.521L428.218 381.066L430.523 388.438L432.828 394.874L433.98 397.654L435.133 399.923L436.285 401.681L438.59 404.246L439.743 405.241L440.895 406.013L443.2 407.025L447.81 408.945L450.115 409.365L455.877 409.829L472.012 410.083L481.232 410.069L489.299 410.112L506.587 410.111" fill="#EFEFEF" fill-opacity="0.4"/>
<path d="M277.242 410.111L300.292 409.958L304.902 409.819L310.664 409.882L316.427 409.692L324.494 409.056L327.952 408.548L331.409 408.333L332.561 408.071L333.714 407.606L336.019 406.197L338.324 404.774L339.476 404.29L344.086 403.075L345.239 402.471L346.391 401.581L347.544 400.333L348.696 398.696L349.849 396.687L352.154 391.828L355.611 383.628L356.764 380.576L357.916 376.959L359.069 372.405L360.221 366.721L362.526 352.915L367.136 324.2L371.746 290.756L375.203 266.397L378.661 244.287L383.271 216.822L386.728 198.281L389.033 186.728L390.186 182.147L391.338 178.946L392.491 177.312L393.643 177.243L394.796 178.597L395.948 181.087L397.101 184.321L398.253 188.008L399.406 192.199L400.558 197.224L401.711 203.332L404.016 218.075L407.473 242.934L409.778 262.303L413.235 292.92L415.54 309.947L417.845 323.789L421.303 343.79L424.76 364.997L427.065 376.521L428.218 381.066L430.523 388.438L432.828 394.874L433.98 397.654L435.133 399.923L436.285 401.681L438.59 404.246L439.743 405.241L440.895 406.013L443.2 407.025L447.81 408.945L450.115 409.365L455.877 409.829L472.012 410.083L481.232 410.069L489.299 410.112L506.587 410.111" stroke="#EFEFEF" stroke-linecap="square"/>
</g>
<mask id="mask13_230_7998" style="mask-type:luminance" maskUnits="userSpaceOnUse" x="76" y="55" width="477" height="356">
<path d="M552.957 55.2959H76.7969V410.112H552.957V55.2959Z" fill="white"/>
</mask>
<g mask="url(#mask13_230_7998)">
<path d="M291.102 410.11L313.747 409.933L319.138 409.781L323.451 409.734L328.843 409.451L332.078 409.362L335.313 408.874L338.548 408.168L339.626 407.795L340.705 407.262L341.783 406.517L342.861 405.503L343.94 404.142L345.018 402.384L346.096 400.24L347.175 397.73L348.253 394.786L349.331 391.223L350.41 386.833L351.488 381.477L352.566 375.035L353.645 367.255L354.723 357.738L355.801 346.206L357.958 318.295L366.585 200.022L367.663 186.651L368.741 175.479L369.82 166.419L371.976 151.423L373.055 144.445L374.133 138.71L375.211 135.443L376.29 135.155L377.368 137.551L378.446 142.058L380.603 154.889L381.681 161.584L382.76 167.336L383.838 171.627L385.995 177.251L387.073 181.306L388.151 188.044L389.23 197.591L396.778 276.19L400.013 303.842L402.17 319.952L404.326 333.19L406.483 343.884L408.64 352.745L412.953 368.354L415.11 374.956L417.266 380.627L422.658 392.794L423.736 394.895L425.893 398.155L429.128 402.082L431.284 404.122L433.441 405.417L436.676 407.028L438.833 407.701L443.146 408.705L449.616 409.22L453.929 409.227L457.164 409.737L460.399 409.631L463.634 409.648L471.183 410.108L498.141 410.025L505.689 410.11" fill="#EFEFEF" fill-opacity="0.4"/>
<path d="M291.102 410.11L313.747 409.933L319.138 409.781L323.451 409.734L328.843 409.451L332.078 409.362L335.313 408.874L338.548 408.168L339.626 407.795L340.705 407.262L341.783 406.517L342.861 405.503L343.94 404.142L345.018 402.384L346.096 400.24L347.175 397.73L348.253 394.786L349.331 391.223L350.41 386.833L351.488 381.477L352.566 375.035L353.645 367.255L354.723 357.738L355.801 346.206L357.958 318.295L366.585 200.022L367.663 186.651L368.741 175.479L369.82 166.419L371.976 151.423L373.055 144.445L374.133 138.71L375.211 135.443L376.29 135.155L377.368 137.551L378.446 142.058L380.603 154.889L381.681 161.584L382.76 167.336L383.838 171.627L385.995 177.251L387.073 181.306L388.151 188.044L389.23 197.591L396.778 276.19L400.013 303.842L402.17 319.952L404.326 333.19L406.483 343.884L408.64 352.745L412.953 368.354L415.11 374.956L417.266 380.627L422.658 392.794L423.736 394.895L425.893 398.155L429.128 402.082L431.284 404.122L433.441 405.417L436.676 407.028L438.833 407.701L443.146 408.705L449.616 409.22L453.929 409.227L457.164 409.737L460.399 409.631L463.634 409.648L471.183 410.108L498.141 410.025L505.689 410.11" stroke="#EFEFEF" stroke-linecap="square"/>
</g>
<mask id="mask14_230_7998" style="mask-type:luminance" maskUnits="userSpaceOnUse" x="76" y="55" width="477" height="356">
<path d="M552.957 55.2959H76.7969V410.112H552.957V55.2959Z" fill="white"/>
</mask>
<g mask="url(#mask14_230_7998)">
<path d="M98.4375 410.111L190.313 409.968L196.438 409.631L200.522 409.161L212.772 407.016L216.855 406.014L218.897 405.295L220.938 404.408L225.022 402.161L229.105 399.403L233.189 396.198L237.272 392.57L243.397 386.462L251.564 378.294L253.605 375.969L257.689 370.698L265.855 359.406L269.939 354.542L274.022 349.827L278.106 344.213L280.147 341.363L282.189 338.795L284.231 336.618L286.272 334.792L300.564 323.634L304.647 320.571L306.689 318.776L308.731 316.684L310.772 314.282L316.898 306.114L320.981 300.916L323.023 298.547L325.064 296.495L327.106 295.026L329.148 294.396L331.189 294.706L333.231 295.844L335.273 297.589L337.314 299.774L339.356 302.363L341.398 305.416L343.439 308.999L345.481 313.13L347.523 317.806L349.564 323.039L351.606 328.843L355.69 341.902L359.773 355.543L363.856 367.982L365.898 373.41L367.94 378.206L369.981 382.341L372.023 385.842L374.065 388.79L376.106 391.291L378.148 393.432L380.19 395.274L382.231 396.864L386.315 399.504L390.398 401.703L392.44 402.619L394.481 403.369L398.565 404.416L414.898 407.433L425.107 408.998L431.232 409.514L437.357 409.743L457.774 409.925L472.065 410.042L484.315 410.086L504.732 410.111" fill="#7EB0D5" fill-opacity="0.4"/>
<path d="M98.4375 410.111L190.313 409.968L196.438 409.631L200.522 409.161L212.772 407.016L216.855 406.014L218.897 405.295L220.938 404.408L225.022 402.161L229.105 399.403L233.189 396.198L237.272 392.57L243.397 386.462L251.564 378.294L253.605 375.969L257.689 370.698L265.855 359.406L269.939 354.542L274.022 349.827L278.106 344.213L280.147 341.363L282.189 338.795L284.231 336.618L286.272 334.792L300.564 323.634L304.647 320.571L306.689 318.776L308.731 316.684L310.772 314.282L316.898 306.114L320.981 300.916L323.023 298.547L325.064 296.495L327.106 295.026L329.148 294.396L331.189 294.706L333.231 295.844L335.273 297.589L337.314 299.774L339.356 302.363L341.398 305.416L343.439 308.999L345.481 313.13L347.523 317.806L349.564 323.039L351.606 328.843L355.69 341.902L359.773 355.543L363.856 367.982L365.898 373.41L367.94 378.206L369.981 382.341L372.023 385.842L374.065 388.79L376.106 391.291L378.148 393.432L380.19 395.274L382.231 396.864L386.315 399.504L390.398 401.703L392.44 402.619L394.481 403.369L398.565 404.416L414.898 407.433L425.107 408.998L431.232 409.514L437.357 409.743L457.774 409.925L472.065 410.042L484.315 410.086L504.732 410.111" stroke="#7EB0D5" stroke-linecap="square"/>
</g>
<path d="M535.061 411.061C535.646 410.475 535.646 409.525 535.061 408.939L525.515 399.393C524.929 398.808 523.979 398.808 523.393 399.393C522.808 399.979 522.808 400.929 523.393 401.515L531.879 410L523.393 418.485C522.808 419.071 522.808 420.021 523.393 420.607C523.979 421.192 524.929 421.192 525.515 420.607L535.061 411.061ZM79 411.5H534V408.5H79V411.5Z" fill="black"/>
</g>
<defs>
<clipPath id="clip0_230_7998">
<rect width="614.4" height="460.8" fill="white"/>
</clipPath>
</defs>
</svg>
