<svg width="615" height="461" viewBox="0 0 615 461" fill="none" xmlns="http://www.w3.org/2000/svg">
<g clip-path="url(#clip0_230_8398)">
<mask id="mask0_230_8398" style="mask-type:luminance" maskUnits="userSpaceOnUse" x="76" y="55" width="477" height="356">
<path d="M552.957 55.2959H76.7969V410.112H552.957V55.2959Z" fill="white"/>
</mask>
<g mask="url(#mask0_230_8398)">
<path d="M224.664 410.112L236.77 409.997L244.336 409.638L248.875 409.177L253.415 408.409L256.441 407.541L259.468 406.143L262.494 404.084L267.034 400.235L273.087 394.949L274.6 393.398L276.113 391.622L277.626 389.576L280.653 384.659L283.679 378.89L289.732 366.507L292.758 359.801L295.785 352.164L298.811 343.502L303.351 329.086L307.89 314.774L310.917 306.664L312.43 303.186L313.943 300.081L315.456 297.321L316.97 294.884L318.483 292.757L319.996 290.925L323.022 287.979L327.562 284.267L329.075 283.152L330.588 282.272L332.102 281.773L333.615 281.754L335.128 282.219L336.641 283.078L341.181 286.546L345.72 290.006L348.747 292.688L353.287 297.367L359.339 304L360.853 305.938L363.879 310.516L369.932 320.846L374.471 329.148L380.524 340.484L383.551 347.1L389.603 361.946L392.63 368.144L395.656 373.291L401.709 382.467L404.735 386.625L407.762 390.183L410.788 393.226L415.328 397.25L418.354 399.645L421.381 401.691L424.407 403.353L428.947 405.373L431.973 406.498L435 407.363L439.539 408.193L447.105 409.231L450.132 409.436L489.475 410.103L525.792 410.112" fill="#EFEFEF" fill-opacity="0.4"/>
<path d="M224.664 410.112L236.77 409.997L244.336 409.638L248.875 409.177L253.415 408.409L256.441 407.541L259.468 406.143L262.494 404.084L267.034 400.235L273.087 394.949L274.6 393.398L276.113 391.622L277.626 389.576L280.653 384.659L283.679 378.89L289.732 366.507L292.758 359.801L295.785 352.164L298.811 343.502L303.351 329.086L307.89 314.774L310.917 306.664L312.43 303.186L313.943 300.081L315.456 297.321L316.97 294.884L318.483 292.757L319.996 290.925L323.022 287.979L327.562 284.267L329.075 283.152L330.588 282.272L332.102 281.773L333.615 281.754L335.128 282.219L336.641 283.078L341.181 286.546L345.72 290.006L348.747 292.688L353.287 297.367L359.339 304L360.853 305.938L363.879 310.516L369.932 320.846L374.471 329.148L380.524 340.484L383.551 347.1L389.603 361.946L392.63 368.144L395.656 373.291L401.709 382.467L404.735 386.625L407.762 390.183L410.788 393.226L415.328 397.25L418.354 399.645L421.381 401.691L424.407 403.353L428.947 405.373L431.973 406.498L435 407.363L439.539 408.193L447.105 409.231L450.132 409.436L489.475 410.103L525.792 410.112" stroke="#EFEFEF" stroke-linecap="square"/>
</g>
<mask id="mask1_230_8398" style="mask-type:luminance" maskUnits="userSpaceOnUse" x="76" y="55" width="477" height="356">
<path d="M552.957 55.2959H76.7969V410.112H552.957V55.2959Z" fill="white"/>
</mask>
<g mask="url(#mask1_230_8398)">
<path d="M247.148 410.111L279.552 409.927L285.187 409.701L290.822 409.519L295.049 409.447L299.275 409.016L303.502 408.44L307.728 407.47L310.546 406.438L311.955 405.636L314.773 403.486L317.59 401.265L321.817 398.423L323.226 396.723L324.635 394.258L328.861 384.783L331.679 378.3L333.088 374.479L335.905 365.467L337.314 360.112L338.723 353.923L342.949 332.53L345.767 317.088L348.585 298.672L354.22 258.81L358.447 224.927L359.855 215.617L361.264 208.336L362.673 202.863L364.082 198.61L365.491 195.032L366.9 191.866L368.309 189.088L369.717 186.858L371.126 185.556L372.535 185.596L373.944 187.08L375.353 189.706L376.762 193.07L378.17 197.003L379.579 201.712L380.988 207.675L382.397 215.323L383.806 224.706L390.85 277.005L400.712 337.157L402.121 344.532L404.938 356.895L407.756 367.047L409.165 371.316L411.983 378.545L417.618 392.864L419.027 395.457L420.436 397.454L421.844 399.015L423.253 400.227L426.071 401.916L430.297 404.3L433.115 405.874L435.933 407.068L438.75 407.945L441.568 408.578L444.386 408.812L448.612 409.085L458.474 409.802L465.518 409.656L469.745 409.714L475.38 409.86L492.286 410.049L504.966 410.06L514.828 410.082L523.281 410.088L527.507 410.111" fill="#EFEFEF" fill-opacity="0.4"/>
<path d="M247.148 410.111L279.552 409.927L285.187 409.701L290.822 409.519L295.049 409.447L299.275 409.016L303.502 408.44L307.728 407.47L310.546 406.438L311.955 405.636L314.773 403.486L317.59 401.265L321.817 398.423L323.226 396.723L324.635 394.258L328.861 384.783L331.679 378.3L333.088 374.479L335.905 365.467L337.314 360.112L338.723 353.923L342.949 332.53L345.767 317.088L348.585 298.672L354.22 258.81L358.447 224.927L359.855 215.617L361.264 208.336L362.673 202.863L364.082 198.61L365.491 195.032L366.9 191.866L368.309 189.088L369.717 186.858L371.126 185.556L372.535 185.596L373.944 187.08L375.353 189.706L376.762 193.07L378.17 197.003L379.579 201.712L380.988 207.675L382.397 215.323L383.806 224.706L390.85 277.005L400.712 337.157L402.121 344.532L404.938 356.895L407.756 367.047L409.165 371.316L411.983 378.545L417.618 392.864L419.027 395.457L420.436 397.454L421.844 399.015L423.253 400.227L426.071 401.916L430.297 404.3L433.115 405.874L435.933 407.068L438.75 407.945L441.568 408.578L444.386 408.812L448.612 409.085L458.474 409.802L465.518 409.656L469.745 409.714L475.38 409.86L492.286 410.049L504.966 410.06L514.828 410.082L523.281 410.088L527.507 410.111" stroke="#EFEFEF" stroke-linecap="square"/>
</g>
<mask id="mask2_230_8398" style="mask-type:luminance" maskUnits="userSpaceOnUse" x="76" y="55" width="477" height="356">
<path d="M552.957 55.2959H76.7969V410.112H552.957V55.2959Z" fill="white"/>
</mask>
<g mask="url(#mask2_230_8398)">
<path d="M266.93 410.11L279.834 409.957L291.447 409.35L296.609 409.011L301.77 409.12L304.351 408.885L306.932 408.345L312.093 406.972L315.964 406.087L318.545 405.006L321.126 403.979L323.707 403.162L324.997 402.438L326.288 401.302L328.868 398.131L332.739 392.986L335.32 388.71L339.191 381.67L340.482 378.755L341.772 375.023L343.063 370.325L345.643 358.783L348.224 345.728L350.805 330.533L353.386 312.382L355.966 290.999L363.709 222.575L366.289 205.157L368.87 190.307L371.451 177.501L372.741 172.333L374.032 168.299L375.322 165.462L376.613 163.757L377.903 163.188L379.193 163.928L380.484 166.235L381.774 170.343L383.065 176.382L384.355 184.278L386.936 204.035L389.516 224.456L392.097 241.131L394.678 257.676L399.84 297.429L402.42 313.458L407.582 343.125L410.163 356.389L412.743 367.756L414.034 372.523L415.324 376.557L416.615 379.892L420.486 388.129L423.067 393.636L424.357 396.042L425.647 397.982L426.938 399.432L428.228 400.495L432.099 402.823L435.97 404.944L439.842 406.486L442.422 407.292L445.003 407.824L450.165 408.434L455.326 408.964L463.069 409.204L466.94 409.099L469.52 409.393L473.392 409.847L478.553 409.889L523.717 410.111" fill="#EFEFEF" fill-opacity="0.4"/>
<path d="M266.93 410.11L279.834 409.957L291.447 409.35L296.609 409.011L301.77 409.12L304.351 408.885L306.932 408.345L312.093 406.972L315.964 406.087L318.545 405.006L321.126 403.979L323.707 403.162L324.997 402.438L326.288 401.302L328.868 398.131L332.739 392.986L335.32 388.71L339.191 381.67L340.482 378.755L341.772 375.023L343.063 370.325L345.643 358.783L348.224 345.728L350.805 330.533L353.386 312.382L355.966 290.999L363.709 222.575L366.289 205.157L368.87 190.307L371.451 177.501L372.741 172.333L374.032 168.299L375.322 165.462L376.613 163.757L377.903 163.188L379.193 163.928L380.484 166.235L381.774 170.343L383.065 176.382L384.355 184.278L386.936 204.035L389.516 224.456L392.097 241.131L394.678 257.676L399.84 297.429L402.42 313.458L407.582 343.125L410.163 356.389L412.743 367.756L414.034 372.523L415.324 376.557L416.615 379.892L420.486 388.129L423.067 393.636L424.357 396.042L425.647 397.982L426.938 399.432L428.228 400.495L432.099 402.823L435.97 404.944L439.842 406.486L442.422 407.292L445.003 407.824L450.165 408.434L455.326 408.964L463.069 409.204L466.94 409.099L469.52 409.393L473.392 409.847L478.553 409.889L523.717 410.111" stroke="#EFEFEF" stroke-linecap="square"/>
</g>
<mask id="mask3_230_8398" style="mask-type:luminance" maskUnits="userSpaceOnUse" x="76" y="55" width="477" height="356">
<path d="M552.957 55.2959H76.7969V410.112H552.957V55.2959Z" fill="white"/>
</mask>
<g mask="url(#mask3_230_8398)">
<path d="M277.594 410.111L297.994 409.916L304.368 409.65L309.468 409.473L320.943 409.525L327.318 409.442L329.868 408.952L332.418 408.32L334.968 408.097L337.518 407.905L338.793 407.593L340.068 407.092L341.343 406.395L343.893 404.444L346.443 401.929L347.718 400.333L348.993 398.278L350.268 395.554L351.543 391.986L352.818 387.48L354.093 382.027L355.368 375.684L357.918 360.69L360.468 343.179L363.018 322.863L365.568 299.018L370.668 249.408L373.218 228.022L374.493 219.384L375.768 212.493L377.043 207.037L378.318 202.474L379.593 198.537L380.868 195.323L382.143 192.894L385.968 187.245L387.243 185.792L388.518 185.374L389.792 186.299L391.067 188.381L392.342 191.208L393.617 194.511L396.167 202.396L398.717 212.004L399.992 217.647L401.267 224.153L403.817 239.637L406.367 255.33L411.467 284.129L417.842 325.129L420.392 337.805L426.767 365.668L428.042 370.404L429.317 374.254L430.592 377.297L433.142 382.118L435.692 386.843L438.242 392.296L440.792 397.683L442.067 399.847L443.342 401.544L444.617 402.83L447.167 404.655L449.717 405.99L452.267 406.734L456.092 407.409L459.917 408.363L462.467 408.646L471.392 409.252L475.217 409.654L482.866 409.943L501.991 409.867L507.091 409.796L514.741 409.988L519.841 409.972L531.316 410.111" fill="#EFEFEF" fill-opacity="0.4"/>
<path d="M277.594 410.111L297.994 409.916L304.368 409.65L309.468 409.473L320.943 409.525L327.318 409.442L329.868 408.952L332.418 408.32L334.968 408.097L337.518 407.905L338.793 407.593L340.068 407.092L341.343 406.395L343.893 404.444L346.443 401.929L347.718 400.333L348.993 398.278L350.268 395.554L351.543 391.986L352.818 387.48L354.093 382.027L355.368 375.684L357.918 360.69L360.468 343.179L363.018 322.863L365.568 299.018L370.668 249.408L373.218 228.022L374.493 219.384L375.768 212.493L377.043 207.037L378.318 202.474L379.593 198.537L380.868 195.323L382.143 192.894L385.968 187.245L387.243 185.792L388.518 185.374L389.792 186.299L391.067 188.381L392.342 191.208L393.617 194.511L396.167 202.396L398.717 212.004L399.992 217.647L401.267 224.153L403.817 239.637L406.367 255.33L411.467 284.129L417.842 325.129L420.392 337.805L426.767 365.668L428.042 370.404L429.317 374.254L430.592 377.297L433.142 382.118L435.692 386.843L438.242 392.296L440.792 397.683L442.067 399.847L443.342 401.544L444.617 402.83L447.167 404.655L449.717 405.99L452.267 406.734L456.092 407.409L459.917 408.363L462.467 408.646L471.392 409.252L475.217 409.654L482.866 409.943L501.991 409.867L507.091 409.796L514.741 409.988L519.841 409.972L531.316 410.111" stroke="#EFEFEF" stroke-linecap="square"/>
</g>
<mask id="mask4_230_8398" style="mask-type:luminance" maskUnits="userSpaceOnUse" x="76" y="55" width="477" height="356">
<path d="M552.957 55.2959H76.7969V410.112H552.957V55.2959Z" fill="white"/>
</mask>
<g mask="url(#mask4_230_8398)">
<path d="M255.289 410.111L275.297 409.951L279.298 409.607L281.966 409.225L285.967 408.301L287.301 408.245L289.969 408.626L292.636 408.964L295.304 408.718L297.972 408.292L301.973 408.094L303.307 407.69L304.641 406.925L307.309 404.643L309.976 402.454L312.644 400.701L313.978 399.491L315.312 397.918L316.645 395.983L317.979 393.551L320.647 387.135L323.315 380.874L324.648 377.909L325.982 374.497L327.316 370.381L329.984 360.654L331.318 355.293L332.651 349.122L333.985 341.65L340.654 297.832L343.322 276.093L347.324 240.749L348.657 227.311L351.325 195.802L355.327 148.083L357.994 119.624L359.328 108.857L360.662 102.114L361.996 100.562L363.33 104.971L364.663 114.562L371.333 177.457L374 208.648L376.668 244.648L379.336 281.379L380.669 297.676L382.003 312.016L384.671 335.911L386.005 345.7L387.339 353.942L390.006 367.146L392.674 378.334L394.008 383.086L395.342 387.251L396.675 390.898L398.009 393.949L399.343 396.305L400.677 398.042L402.011 399.352L404.678 401.363L407.346 403.132L410.014 404.382L412.681 405.695L415.349 407.042L418.017 407.648L426.02 408.896L432.689 409.323L435.357 409.586L463.367 409.861L466.035 409.767L472.704 410.053L478.039 410.061L487.376 410.112L520.722 410.111" fill="#EFEFEF" fill-opacity="0.4"/>
<path d="M255.289 410.111L275.297 409.951L279.298 409.607L281.966 409.225L285.967 408.301L287.301 408.245L289.969 408.626L292.636 408.964L295.304 408.718L297.972 408.292L301.973 408.094L303.307 407.69L304.641 406.925L307.309 404.643L309.976 402.454L312.644 400.701L313.978 399.491L315.312 397.918L316.645 395.983L317.979 393.551L320.647 387.135L323.315 380.874L324.648 377.909L325.982 374.497L327.316 370.381L329.984 360.654L331.318 355.293L332.651 349.122L333.985 341.65L340.654 297.832L343.322 276.093L347.324 240.749L348.657 227.311L351.325 195.802L355.327 148.083L357.994 119.624L359.328 108.857L360.662 102.114L361.996 100.562L363.33 104.971L364.663 114.562L371.333 177.457L374 208.648L376.668 244.648L379.336 281.379L380.669 297.676L382.003 312.016L384.671 335.911L386.005 345.7L387.339 353.942L390.006 367.146L392.674 378.334L394.008 383.086L395.342 387.251L396.675 390.898L398.009 393.949L399.343 396.305L400.677 398.042L402.011 399.352L404.678 401.363L407.346 403.132L410.014 404.382L412.681 405.695L415.349 407.042L418.017 407.648L426.02 408.896L432.689 409.323L435.357 409.586L463.367 409.861L466.035 409.767L472.704 410.053L478.039 410.061L487.376 410.112L520.722 410.111" stroke="#EFEFEF" stroke-linecap="square"/>
</g>
<mask id="mask5_230_8398" style="mask-type:luminance" maskUnits="userSpaceOnUse" x="76" y="55" width="477" height="356">
<path d="M552.957 55.2959H76.7969V410.112H552.957V55.2959Z" fill="white"/>
</mask>
<g mask="url(#mask5_230_8398)">
<path d="M243.016 410.111L264.56 409.959L269.947 409.937L273.986 409.887L283.412 409.354L287.452 409.181L292.838 408.86L295.531 408.702L303.61 407.758L308.997 407.522L311.69 407.041L314.383 405.972L318.422 403.632L321.115 402.22L326.502 400.069L327.848 399.094L329.195 397.833L330.541 396.265L331.888 394.333L333.234 391.985L335.927 386.165L341.314 373.154L342.66 369.453L344.007 365.196L346.7 355.138L349.393 345.309L350.74 341.642L352.086 339.129L353.433 337.612L354.779 336.71L357.472 335.517L358.819 335.143L360.165 335.1L361.512 335.46L364.205 336.638L365.552 336.666L366.898 335.863L368.245 334.196L369.591 331.851L370.938 329L372.284 325.602L373.631 321.404L374.977 316.135L376.324 309.696L377.671 302.187L379.017 293.75L380.364 284.36L381.71 273.719L383.057 261.319L384.403 246.657L385.75 229.506L388.443 189.3L391.136 148.306L392.483 130.856L393.829 117.075L395.176 107.955L396.522 104.232L397.869 106.256L399.215 113.873L400.562 126.483L401.908 143.285L403.255 163.486L405.948 210.553L408.641 258.148L409.988 279.177L411.334 297.763L412.681 314.067L414.027 328.354L415.374 340.757L416.72 351.292L418.067 360.039L419.414 367.259L420.76 373.325L422.107 378.559L423.453 383.134L424.8 387.097L426.146 390.462L427.493 393.275L428.839 395.603L430.186 397.497L431.532 398.982L432.879 400.109L438.265 403.862L440.958 405.805L442.305 406.462L444.998 407.234L454.424 409.144L458.463 409.611L462.503 409.762L471.929 409.812L477.315 410.037L493.474 409.95L498.86 409.846L510.979 410.111" fill="#EFEFEF" fill-opacity="0.4"/>
<path d="M243.016 410.111L264.56 409.959L269.947 409.937L273.986 409.887L283.412 409.354L287.452 409.181L292.838 408.86L295.531 408.702L303.61 407.758L308.997 407.522L311.69 407.041L314.383 405.972L318.422 403.632L321.115 402.22L326.502 400.069L327.848 399.094L329.195 397.833L330.541 396.265L331.888 394.333L333.234 391.985L335.927 386.165L341.314 373.154L342.66 369.453L344.007 365.196L346.7 355.138L349.393 345.309L350.74 341.642L352.086 339.129L353.433 337.612L354.779 336.71L357.472 335.517L358.819 335.143L360.165 335.1L361.512 335.46L364.205 336.638L365.552 336.666L366.898 335.863L368.245 334.196L369.591 331.851L370.938 329L372.284 325.602L373.631 321.404L374.977 316.135L376.324 309.696L377.671 302.187L379.017 293.75L380.364 284.36L381.71 273.719L383.057 261.319L384.403 246.657L385.75 229.506L388.443 189.3L391.136 148.306L392.483 130.856L393.829 117.075L395.176 107.955L396.522 104.232L397.869 106.256L399.215 113.873L400.562 126.483L401.908 143.285L403.255 163.486L405.948 210.553L408.641 258.148L409.988 279.177L411.334 297.763L412.681 314.067L414.027 328.354L415.374 340.757L416.72 351.292L418.067 360.039L419.414 367.259L420.76 373.325L422.107 378.559L423.453 383.134L424.8 387.097L426.146 390.462L427.493 393.275L428.839 395.603L430.186 397.497L431.532 398.982L432.879 400.109L438.265 403.862L440.958 405.805L442.305 406.462L444.998 407.234L454.424 409.144L458.463 409.611L462.503 409.762L471.929 409.812L477.315 410.037L493.474 409.95L498.86 409.846L510.979 410.111" stroke="#EFEFEF" stroke-linecap="square"/>
</g>
<mask id="mask6_230_8398" style="mask-type:luminance" maskUnits="userSpaceOnUse" x="76" y="55" width="477" height="356">
<path d="M552.957 55.2959H76.7969V410.112H552.957V55.2959Z" fill="white"/>
</mask>
<g mask="url(#mask6_230_8398)">
<path d="M276.07 410.11L280.987 409.993L287.133 409.819L292.05 409.912L296.967 410.096L301.884 409.956L305.572 409.862L312.947 409.955L319.093 409.629L324.01 409.536L328.927 409.192L332.615 408.241L335.073 407.65L337.531 407.425L339.99 407.449L341.219 407.249L342.448 406.766L343.677 406.008L349.824 401.172L351.053 399.999L352.282 398.506L354.741 394.582L358.428 387.69L359.657 385.052L360.887 381.96L362.116 378.181L363.345 373.407L364.574 367.314L365.804 359.808L368.262 341.57L370.72 320.003L373.179 295.546L375.637 267.629L378.096 238.504L380.554 213.683L383.013 192.19L384.242 182.867L385.471 174.795L387.929 161.611L390.388 151.442L392.846 142.524L394.076 139.121L395.305 137.963L396.534 140.028L397.763 145.289L398.992 152.752L401.451 170.19L403.909 189.375L406.368 210.115L408.826 233.446L411.285 258.365L412.514 269.371L417.431 306.707L418.66 315.697L419.889 323.557L422.348 336.801L428.494 368.049L430.952 378.962L432.181 383.545L433.411 387.331L434.64 390.353L435.869 392.786L438.328 396.648L440.786 399.928L443.244 402.841L444.474 404.135L445.703 405.197L446.932 405.918L448.161 406.3L451.849 406.92L455.537 407.869L460.454 408.575L469.058 409.838L476.433 409.894L482.58 410.108L491.184 410.028L494.872 409.935L504.706 410.112L520.685 410.111" fill="#EFEFEF" fill-opacity="0.4"/>
<path d="M276.07 410.11L280.987 409.993L287.133 409.819L292.05 409.912L296.967 410.096L301.884 409.956L305.572 409.862L312.947 409.955L319.093 409.629L324.01 409.536L328.927 409.192L332.615 408.241L335.073 407.65L337.531 407.425L339.99 407.449L341.219 407.249L342.448 406.766L343.677 406.008L349.824 401.172L351.053 399.999L352.282 398.506L354.741 394.582L358.428 387.69L359.657 385.052L360.887 381.96L362.116 378.181L363.345 373.407L364.574 367.314L365.804 359.808L368.262 341.57L370.72 320.003L373.179 295.546L375.637 267.629L378.096 238.504L380.554 213.683L383.013 192.19L384.242 182.867L385.471 174.795L387.929 161.611L390.388 151.442L392.846 142.524L394.076 139.121L395.305 137.963L396.534 140.028L397.763 145.289L398.992 152.752L401.451 170.19L403.909 189.375L406.368 210.115L408.826 233.446L411.285 258.365L412.514 269.371L417.431 306.707L418.66 315.697L419.889 323.557L422.348 336.801L428.494 368.049L430.952 378.962L432.181 383.545L433.411 387.331L434.64 390.353L435.869 392.786L438.328 396.648L440.786 399.928L443.244 402.841L444.474 404.135L445.703 405.197L446.932 405.918L448.161 406.3L451.849 406.92L455.537 407.869L460.454 408.575L469.058 409.838L476.433 409.894L482.58 410.108L491.184 410.028L494.872 409.935L504.706 410.112L520.685 410.111" stroke="#EFEFEF" stroke-linecap="square"/>
</g>
<mask id="mask7_230_8398" style="mask-type:luminance" maskUnits="userSpaceOnUse" x="76" y="55" width="477" height="356">
<path d="M552.957 55.2959H76.7969V410.112H552.957V55.2959Z" fill="white"/>
</mask>
<g mask="url(#mask7_230_8398)">
<path d="M204.312 410.111L219.171 409.98L225.114 409.68L229.572 409.082L234.029 408.054L237.001 407.101L239.972 405.858L242.944 404.329L247.402 401.646L250.373 399.352L251.859 397.885L253.345 396.133L256.316 391.794L260.774 384.245L263.746 378.95L266.717 372.778L269.689 365.363L274.146 353.607L277.118 346.698L281.576 336.772L284.547 329.086L287.519 320.301L291.976 306.43L293.462 302.392L294.948 299.079L296.434 296.657L297.92 295.111L299.406 294.226L302.377 293.047L303.863 292.203L309.806 288.031L312.778 286.762L318.721 284.583L323.179 283.311L326.15 282.744L327.636 282.79L329.122 283.163L330.608 283.837L335.065 286.581L336.551 287.586L338.037 288.784L339.523 290.316L341.009 292.267L342.495 294.653L345.466 300.493L354.381 320.442L357.353 327.489L360.324 335.452L366.268 352.143L370.725 363.311L376.669 377.401L379.64 383.894L382.612 389.709L385.584 394.592L387.069 396.638L390.041 399.99L393.013 402.586L395.984 404.625L398.956 406.128L401.928 407.153L404.899 407.876L409.357 408.6L413.814 408.875L422.729 409.123L430.158 409.575L436.102 409.498L442.045 409.424L449.474 409.781L455.417 409.89L471.762 409.857L479.191 410.015L491.077 410.053L499.992 410.111" fill="#EFEFEF" fill-opacity="0.4"/>
<path d="M204.312 410.111L219.171 409.98L225.114 409.68L229.572 409.082L234.029 408.054L237.001 407.101L239.972 405.858L242.944 404.329L247.402 401.646L250.373 399.352L251.859 397.885L253.345 396.133L256.316 391.794L260.774 384.245L263.746 378.95L266.717 372.778L269.689 365.363L274.146 353.607L277.118 346.698L281.576 336.772L284.547 329.086L287.519 320.301L291.976 306.43L293.462 302.392L294.948 299.079L296.434 296.657L297.92 295.111L299.406 294.226L302.377 293.047L303.863 292.203L309.806 288.031L312.778 286.762L318.721 284.583L323.179 283.311L326.15 282.744L327.636 282.79L329.122 283.163L330.608 283.837L335.065 286.581L336.551 287.586L338.037 288.784L339.523 290.316L341.009 292.267L342.495 294.653L345.466 300.493L354.381 320.442L357.353 327.489L360.324 335.452L366.268 352.143L370.725 363.311L376.669 377.401L379.64 383.894L382.612 389.709L385.584 394.592L387.069 396.638L390.041 399.99L393.013 402.586L395.984 404.625L398.956 406.128L401.928 407.153L404.899 407.876L409.357 408.6L413.814 408.875L422.729 409.123L430.158 409.575L436.102 409.498L442.045 409.424L449.474 409.781L455.417 409.89L471.762 409.857L479.191 410.015L491.077 410.053L499.992 410.111" stroke="#EFEFEF" stroke-linecap="square"/>
</g>
<mask id="mask8_230_8398" style="mask-type:luminance" maskUnits="userSpaceOnUse" x="76" y="55" width="477" height="356">
<path d="M552.957 55.2959H76.7969V410.112H552.957V55.2959Z" fill="white"/>
</mask>
<g mask="url(#mask8_230_8398)">
<path d="M277.539 410.11L282.194 409.979L285.686 409.775L293.832 409.821L297.324 409.819L304.307 410.063L314.781 409.886L320.6 409.446L324.092 409.557L326.419 409.312L328.747 408.755L333.402 407.366L336.894 406.802L339.221 406.37L343.877 405.069L346.204 404.091L347.368 403.437L348.532 402.555L349.696 401.284L350.859 399.482L352.023 397.075L353.187 394.052L355.515 386.392L359.006 372.728L362.498 358.783L364.825 349.927L365.989 344.799L368.317 332.652L371.808 312.595L372.972 304.94L374.136 296.247L375.3 286.021L376.463 273.582L377.627 258.271L378.791 239.851L381.119 196.337L383.446 152.852L385.774 116.594L386.938 101.37L388.102 88.2163L389.265 77.983L390.429 72.1924L391.593 72.408L392.757 79.3311L393.921 92.3213L396.248 129.094L398.576 167.76L400.903 200.395L403.231 225.86L405.559 246.448L407.886 263.013L410.214 278.823L414.869 313.041L419.525 338.412L421.852 350.273L425.344 365.612L427.671 374.739L428.835 378.408L429.999 381.23L431.163 383.358L438.146 393.911L441.637 398.585L443.965 401.169L447.456 404.058L449.784 405.911L450.948 406.611L453.275 407.427L460.258 408.872L464.913 409.299L470.732 409.394L475.388 409.997L478.879 409.942L482.371 409.811L496.336 410.019L504.483 410.05L509.138 410.111" fill="#EFEFEF" fill-opacity="0.4"/>
<path d="M277.539 410.11L282.194 409.979L285.686 409.775L293.832 409.821L297.324 409.819L304.307 410.063L314.781 409.886L320.6 409.446L324.092 409.557L326.419 409.312L328.747 408.755L333.402 407.366L336.894 406.802L339.221 406.37L343.877 405.069L346.204 404.091L347.368 403.437L348.532 402.555L349.696 401.284L350.859 399.482L352.023 397.075L353.187 394.052L355.515 386.392L359.006 372.728L362.498 358.783L364.825 349.927L365.989 344.799L368.317 332.652L371.808 312.595L372.972 304.94L374.136 296.247L375.3 286.021L376.463 273.582L377.627 258.271L378.791 239.851L381.119 196.337L383.446 152.852L385.774 116.594L386.938 101.37L388.102 88.2163L389.265 77.983L390.429 72.1924L391.593 72.408L392.757 79.3311L393.921 92.3213L396.248 129.094L398.576 167.76L400.903 200.395L403.231 225.86L405.559 246.448L407.886 263.013L410.214 278.823L414.869 313.041L419.525 338.412L421.852 350.273L425.344 365.612L427.671 374.739L428.835 378.408L429.999 381.23L431.163 383.358L438.146 393.911L441.637 398.585L443.965 401.169L447.456 404.058L449.784 405.911L450.948 406.611L453.275 407.427L460.258 408.872L464.913 409.299L470.732 409.394L475.388 409.997L478.879 409.942L482.371 409.811L496.336 410.019L504.483 410.05L509.138 410.111" stroke="#EFEFEF" stroke-linecap="square"/>
</g>
<mask id="mask9_230_8398" style="mask-type:luminance" maskUnits="userSpaceOnUse" x="76" y="55" width="477" height="356">
<path d="M552.957 55.2959H76.7969V410.112H552.957V55.2959Z" fill="white"/>
</mask>
<g mask="url(#mask9_230_8398)">
<path d="M230.859 410.111L282.423 409.877L286.842 409.762L295.682 409.881L303.048 409.766L310.414 409.564L320.727 408.971L322.2 408.48L323.673 407.502L325.147 405.696L326.62 402.59L328.093 397.633L329.566 390.416L331.04 380.992L342.826 294.003L347.245 263.159L350.192 239.327L354.611 198.566L357.558 170.5L359.031 157.765L360.504 147.585L361.978 141.105L363.451 138.733L364.924 140.122L366.397 144.595L367.871 151.591L369.344 160.727L370.817 171.699L372.29 184.341L375.237 214.152L378.183 244.812L381.13 270.321L384.076 293.084L387.023 313.264L389.969 330.127L392.916 343.874L395.862 355.195L398.809 364.621L400.282 368.606L401.755 372.011L403.228 374.83L406.175 379.306L407.648 381.217L409.121 382.813L410.594 383.903L412.068 384.487L413.541 384.898L415.014 385.602L416.487 386.806L422.38 392.733L425.327 395.469L426.8 396.602L429.747 398.309L434.166 400.539L438.586 403.187L443.006 405.414L445.952 406.402L457.738 408.548L460.685 408.62L465.104 408.504L468.051 408.852L472.471 409.577L475.417 409.807L488.676 409.918L506.355 410.028L510.775 410.051L516.668 409.983L524.034 410.111" fill="#EFEFEF" fill-opacity="0.4"/>
<path d="M230.859 410.111L282.423 409.877L286.842 409.762L295.682 409.881L303.048 409.766L310.414 409.564L320.727 408.971L322.2 408.48L323.673 407.502L325.147 405.696L326.62 402.59L328.093 397.633L329.566 390.416L331.04 380.992L342.826 294.003L347.245 263.159L350.192 239.327L354.611 198.566L357.558 170.5L359.031 157.765L360.504 147.585L361.978 141.105L363.451 138.733L364.924 140.122L366.397 144.595L367.871 151.591L369.344 160.727L370.817 171.699L372.29 184.341L375.237 214.152L378.183 244.812L381.13 270.321L384.076 293.084L387.023 313.264L389.969 330.127L392.916 343.874L395.862 355.195L398.809 364.621L400.282 368.606L401.755 372.011L403.228 374.83L406.175 379.306L407.648 381.217L409.121 382.813L410.594 383.903L412.068 384.487L413.541 384.898L415.014 385.602L416.487 386.806L422.38 392.733L425.327 395.469L426.8 396.602L429.747 398.309L434.166 400.539L438.586 403.187L443.006 405.414L445.952 406.402L457.738 408.548L460.685 408.62L465.104 408.504L468.051 408.852L472.471 409.577L475.417 409.807L488.676 409.918L506.355 410.028L510.775 410.051L516.668 409.983L524.034 410.111" stroke="#EFEFEF" stroke-linecap="square"/>
</g>
<mask id="mask10_230_8398" style="mask-type:luminance" maskUnits="userSpaceOnUse" x="76" y="55" width="477" height="356">
<path d="M552.957 55.2959H76.7969V410.112H552.957V55.2959Z" fill="white"/>
</mask>
<g mask="url(#mask10_230_8398)">
<path d="M275.539 410.11L281.645 409.961L286.53 409.9L299.963 409.936L313.396 409.683L318.281 409.718L321.944 409.396L325.608 409.385L328.05 408.898L330.493 407.984L336.599 405.222L341.484 402.386L342.705 401.419L343.926 400.125L345.147 398.4L346.368 396.188L347.589 393.437L348.811 390.026L350.032 385.843L351.253 380.898L352.474 375.279L353.695 368.93L354.917 361.585L356.138 352.997L358.58 332.776L362.244 299.89L363.465 287.361L365.907 257.666L369.571 210.292L372.013 182.549L373.235 170.767L375.677 151.105L376.898 142.717L378.119 136.025L379.34 132.005L380.562 130.848L381.783 131.647L383.004 133.267L384.225 135.545L385.446 139.341L386.668 145.354L387.889 153.284L390.331 171.707L392.774 192.693L398.88 253.314L401.322 272.365L403.764 289.127L406.207 309.134L408.649 328.625L411.091 343.726L413.534 356.571L414.755 361.75L417.197 369.995L420.861 381.136L423.303 387.452L425.746 392.831L426.967 394.95L428.188 396.635L430.631 399.261L433.073 401.577L435.515 403.274L440.4 406.318L442.843 407.042L448.948 408.298L452.612 408.41L457.497 409.397L461.16 409.297L466.045 409.139L469.709 409.512L472.151 409.681L478.257 409.774L483.142 410.062L486.805 409.924L490.469 409.775L496.575 410.008L518.556 410.111" fill="#EFEFEF" fill-opacity="0.4"/>
<path d="M275.539 410.11L281.645 409.961L286.53 409.9L299.963 409.936L313.396 409.683L318.281 409.718L321.944 409.396L325.608 409.385L328.05 408.898L330.493 407.984L336.599 405.222L341.484 402.386L342.705 401.419L343.926 400.125L345.147 398.4L346.368 396.188L347.589 393.437L348.811 390.026L350.032 385.843L351.253 380.898L352.474 375.279L353.695 368.93L354.917 361.585L356.138 352.997L358.58 332.776L362.244 299.89L363.465 287.361L365.907 257.666L369.571 210.292L372.013 182.549L373.235 170.767L375.677 151.105L376.898 142.717L378.119 136.025L379.34 132.005L380.562 130.848L381.783 131.647L383.004 133.267L384.225 135.545L385.446 139.341L386.668 145.354L387.889 153.284L390.331 171.707L392.774 192.693L398.88 253.314L401.322 272.365L403.764 289.127L406.207 309.134L408.649 328.625L411.091 343.726L413.534 356.571L414.755 361.75L417.197 369.995L420.861 381.136L423.303 387.452L425.746 392.831L426.967 394.95L428.188 396.635L430.631 399.261L433.073 401.577L435.515 403.274L440.4 406.318L442.843 407.042L448.948 408.298L452.612 408.41L457.497 409.397L461.16 409.297L466.045 409.139L469.709 409.512L472.151 409.681L478.257 409.774L483.142 410.062L486.805 409.924L490.469 409.775L496.575 410.008L518.556 410.111" stroke="#EFEFEF" stroke-linecap="square"/>
</g>
<mask id="mask11_230_8398" style="mask-type:luminance" maskUnits="userSpaceOnUse" x="76" y="55" width="477" height="356">
<path d="M552.957 55.2959H76.7969V410.112H552.957V55.2959Z" fill="white"/>
</mask>
<g mask="url(#mask11_230_8398)">
<path d="M234.805 410.111L254.069 409.989L262.96 409.758L267.405 409.571L270.369 409.184L279.26 407.722L282.223 407.285L283.705 406.832L286.669 405.462L292.596 402.305L295.56 400.154L300.005 396.223L301.487 395.252L304.451 394.022L307.415 392.833L308.896 391.983L310.378 390.814L311.86 389.187L313.342 387.063L319.269 377.249L325.197 368.662L326.678 366.158L329.642 360.264L334.088 350.556L337.051 343L338.533 338.787L340.015 334.101L341.497 328.568L342.978 321.993L347.424 300.467L350.388 289.083L353.351 278.455L356.315 266.266L357.797 259.186L359.279 251.201L362.242 232.429L365.206 212.764L366.688 204.11L368.17 196.527L371.133 183.803L372.615 178.352L374.097 173.513L375.579 169.584L377.061 167.336L378.543 167.99L380.024 172.775L381.506 182.301L382.988 196.182L385.952 231.418L388.915 267.164L393.361 315.776L396.324 344.459L397.806 356.513L399.288 366.639L400.77 374.853L402.252 381.452L403.734 386.91L405.216 391.649L406.697 395.844L408.179 399.403L409.661 402.141L411.143 403.986L412.625 405.082L414.107 405.716L424.479 408.782L427.443 409.181L431.888 409.402L439.298 409.566L443.743 409.738L449.67 409.587L458.562 409.543L476.343 410.058L529.689 410.111" fill="#EFEFEF" fill-opacity="0.4"/>
<path d="M234.805 410.111L254.069 409.989L262.96 409.758L267.405 409.571L270.369 409.184L279.26 407.722L282.223 407.285L283.705 406.832L286.669 405.462L292.596 402.305L295.56 400.154L300.005 396.223L301.487 395.252L304.451 394.022L307.415 392.833L308.896 391.983L310.378 390.814L311.86 389.187L313.342 387.063L319.269 377.249L325.197 368.662L326.678 366.158L329.642 360.264L334.088 350.556L337.051 343L338.533 338.787L340.015 334.101L341.497 328.568L342.978 321.993L347.424 300.467L350.388 289.083L353.351 278.455L356.315 266.266L357.797 259.186L359.279 251.201L362.242 232.429L365.206 212.764L366.688 204.11L368.17 196.527L371.133 183.803L372.615 178.352L374.097 173.513L375.579 169.584L377.061 167.336L378.543 167.99L380.024 172.775L381.506 182.301L382.988 196.182L385.952 231.418L388.915 267.164L393.361 315.776L396.324 344.459L397.806 356.513L399.288 366.639L400.77 374.853L402.252 381.452L403.734 386.91L405.216 391.649L406.697 395.844L408.179 399.403L409.661 402.141L411.143 403.986L412.625 405.082L414.107 405.716L424.479 408.782L427.443 409.181L431.888 409.402L439.298 409.566L443.743 409.738L449.67 409.587L458.562 409.543L476.343 410.058L529.689 410.111" stroke="#EFEFEF" stroke-linecap="square"/>
</g>
<mask id="mask12_230_8398" style="mask-type:luminance" maskUnits="userSpaceOnUse" x="76" y="55" width="477" height="356">
<path d="M552.957 55.2959H76.7969V410.112H552.957V55.2959Z" fill="white"/>
</mask>
<g mask="url(#mask12_230_8398)">
<path d="M260.719 410.111L286.253 409.931L295.19 409.665L310.51 408.178L313.064 407.586L319.447 405.494L322.001 404.297L328.384 400.576L330.937 399.35L333.491 397.675L336.044 395.525L339.874 391.79L341.151 390.382L342.428 388.711L343.705 386.623L344.981 384.035L347.535 377.753L352.641 364.941L353.918 360.554L355.195 354.807L356.472 347.68L359.025 330.728L361.578 311.433L364.132 289.138L367.962 254.258L371.792 223.085L374.345 202.97L375.622 193.84L376.899 185.956L378.175 179.283L380.729 168.252L382.006 163.938L383.282 161.241L384.559 160.859L385.836 162.942L387.112 166.982L389.666 177.973L392.219 190.438L394.773 204.725L398.603 229.124L401.156 246.621L403.71 266.47L410.093 320.163L412.646 337.904L415.2 352.854L417.753 365.288L419.03 370.262L420.307 374.2L421.583 377.226L425.414 385.148L429.244 394.532L430.52 397.119L431.797 399.154L433.074 400.66L434.35 401.767L439.457 405.164L442.011 406.657L444.564 407.473L448.394 408.406L450.948 409.138L453.501 409.485L463.715 409.755L467.545 409.622L473.928 409.865L486.695 410.072L514.783 410.111" fill="#EFEFEF" fill-opacity="0.4"/>
<path d="M260.719 410.111L286.253 409.931L295.19 409.665L310.51 408.178L313.064 407.586L319.447 405.494L322.001 404.297L328.384 400.576L330.937 399.35L333.491 397.675L336.044 395.525L339.874 391.79L341.151 390.382L342.428 388.711L343.705 386.623L344.981 384.035L347.535 377.753L352.641 364.941L353.918 360.554L355.195 354.807L356.472 347.68L359.025 330.728L361.578 311.433L364.132 289.138L367.962 254.258L371.792 223.085L374.345 202.97L375.622 193.84L376.899 185.956L378.175 179.283L380.729 168.252L382.006 163.938L383.282 161.241L384.559 160.859L385.836 162.942L387.112 166.982L389.666 177.973L392.219 190.438L394.773 204.725L398.603 229.124L401.156 246.621L403.71 266.47L410.093 320.163L412.646 337.904L415.2 352.854L417.753 365.288L419.03 370.262L420.307 374.2L421.583 377.226L425.414 385.148L429.244 394.532L430.52 397.119L431.797 399.154L433.074 400.66L434.35 401.767L439.457 405.164L442.011 406.657L444.564 407.473L448.394 408.406L450.948 409.138L453.501 409.485L463.715 409.755L467.545 409.622L473.928 409.865L486.695 410.072L514.783 410.111" stroke="#EFEFEF" stroke-linecap="square"/>
</g>
<mask id="mask13_230_8398" style="mask-type:luminance" maskUnits="userSpaceOnUse" x="76" y="55" width="477" height="356">
<path d="M552.957 55.2959H76.7969V410.112H552.957V55.2959Z" fill="white"/>
</mask>
<g mask="url(#mask13_230_8398)">
<path d="M279.57 410.111L284.2 409.984L287.672 409.812L293.459 410.035L302.718 410.089L322.393 409.851L328.18 409.678L331.652 409.707L335.125 409.384L339.754 408.668L342.069 408.363L343.226 407.913L345.541 406.458L347.856 404.557L349.013 403.375L350.171 401.904L351.328 399.934L352.485 397.106L353.643 393.025L354.8 387.452L355.957 380.288L357.115 371.457L359.43 349.469L362.902 312.639L365.217 283.359L369.846 219.52L372.161 190.146L373.318 176.735L374.476 165.28L375.633 156.287L379.105 134.535L381.42 117.786L382.577 111.901L383.735 109.284L384.892 110.075L386.049 113.801L387.207 119.84L388.364 127.665L390.679 146.649L392.994 168.076L398.781 223.15L404.568 278.465L410.354 326.497L412.669 342.743L414.984 357.183L416.141 363.374L417.299 368.319L418.456 371.977L426.558 391.686L428.873 396.234L431.187 400.068L432.345 401.516L433.502 402.594L435.817 404.127L439.289 406.164L441.604 407.074L443.918 407.403L446.233 407.621L448.548 408.141L452.02 409.01L454.335 409.276L460.122 409.418L463.594 409.545L470.538 409.503L472.853 409.465L479.797 409.879L486.742 409.963L498.315 410.076L504.102 409.957L509.889 410.111" fill="#EFEFEF" fill-opacity="0.4"/>
<path d="M279.57 410.111L284.2 409.984L287.672 409.812L293.459 410.035L302.718 410.089L322.393 409.851L328.18 409.678L331.652 409.707L335.125 409.384L339.754 408.668L342.069 408.363L343.226 407.913L345.541 406.458L347.856 404.557L349.013 403.375L350.171 401.904L351.328 399.934L352.485 397.106L353.643 393.025L354.8 387.452L355.957 380.288L357.115 371.457L359.43 349.469L362.902 312.639L365.217 283.359L369.846 219.52L372.161 190.146L373.318 176.735L374.476 165.28L375.633 156.287L379.105 134.535L381.42 117.786L382.577 111.901L383.735 109.284L384.892 110.075L386.049 113.801L387.207 119.84L388.364 127.665L390.679 146.649L392.994 168.076L398.781 223.15L404.568 278.465L410.354 326.497L412.669 342.743L414.984 357.183L416.141 363.374L417.299 368.319L418.456 371.977L426.558 391.686L428.873 396.234L431.187 400.068L432.345 401.516L433.502 402.594L435.817 404.127L439.289 406.164L441.604 407.074L443.918 407.403L446.233 407.621L448.548 408.141L452.02 409.01L454.335 409.276L460.122 409.418L463.594 409.545L470.538 409.503L472.853 409.465L479.797 409.879L486.742 409.963L498.315 410.076L504.102 409.957L509.889 410.111" stroke="#EFEFEF" stroke-linecap="square"/>
</g>
<mask id="mask14_230_8398" style="mask-type:luminance" maskUnits="userSpaceOnUse" x="76" y="55" width="477" height="356">
<path d="M552.957 55.2959H76.7969V410.112H552.957V55.2959Z" fill="white"/>
</mask>
<g mask="url(#mask14_230_8398)">
<path d="M98.4375 410.111L169.743 409.976L174.064 409.672L178.386 409.006L180.547 408.473L182.707 407.756L184.868 406.797L187.029 405.517L189.19 403.822L191.35 401.627L193.511 398.876L195.672 395.554L197.833 391.662L199.993 387.198L202.154 382.149L204.315 376.521L208.637 363.851L215.119 343.065L221.601 321.706L223.762 315.17L225.923 309.366L228.083 304.472L230.244 300.526L232.405 297.44L234.566 295.057L236.726 293.227L238.887 291.861L241.048 290.929L243.209 290.426L245.37 290.32L247.53 290.547L249.691 291.022L251.852 291.682L254.013 292.523L256.173 293.599L258.334 295.001L260.495 296.8L262.656 299.015L264.816 301.599L269.138 307.497L277.781 319.933L286.424 331.398L288.585 334.893L290.746 338.895L299.389 356.356L301.549 360.06L303.71 363.322L305.871 366.17L308.032 368.671L312.353 372.951L316.675 376.554L320.996 379.596L325.318 382.218L333.961 387.255L338.282 389.724L340.443 390.729L342.604 391.535L346.925 392.74L351.247 393.93L355.568 395.463L362.051 397.881L366.372 399L370.694 399.67L377.176 400.602L383.658 401.941L396.623 404.728L413.909 407.941L420.391 408.825L426.874 409.301L435.517 409.491L463.607 409.816L524.108 410.109L528.43 410.111" fill="#7EB0D5" fill-opacity="0.4"/>
<path d="M98.4375 410.111L169.743 409.976L174.064 409.672L178.386 409.006L180.547 408.473L182.707 407.756L184.868 406.797L187.029 405.517L189.19 403.822L191.35 401.627L193.511 398.876L195.672 395.554L197.833 391.662L199.993 387.198L202.154 382.149L204.315 376.521L208.637 363.851L215.119 343.065L221.601 321.706L223.762 315.17L225.923 309.366L228.083 304.472L230.244 300.526L232.405 297.44L234.566 295.057L236.726 293.227L238.887 291.861L241.048 290.929L243.209 290.426L245.37 290.32L247.53 290.547L249.691 291.022L251.852 291.682L254.013 292.523L256.173 293.599L258.334 295.001L260.495 296.8L262.656 299.015L264.816 301.599L269.138 307.497L277.781 319.933L286.424 331.398L288.585 334.893L290.746 338.895L299.389 356.356L301.549 360.06L303.71 363.322L305.871 366.17L308.032 368.671L312.353 372.951L316.675 376.554L320.996 379.596L325.318 382.218L333.961 387.255L338.282 389.724L340.443 390.729L342.604 391.535L346.925 392.74L351.247 393.93L355.568 395.463L362.051 397.881L366.372 399L370.694 399.67L377.176 400.602L383.658 401.941L396.623 404.728L413.909 407.941L420.391 408.825L426.874 409.301L435.517 409.491L463.607 409.816L524.108 410.109L528.43 410.111" stroke="#7EB0D5" stroke-linecap="square"/>
</g>
<path d="M535.061 411.061C535.646 410.475 535.646 409.525 535.061 408.939L525.515 399.393C524.929 398.808 523.979 398.808 523.393 399.393C522.808 399.979 522.808 400.929 523.393 401.515L531.879 410L523.393 418.485C522.808 419.071 522.808 420.021 523.393 420.607C523.979 421.192 524.929 421.192 525.515 420.607L535.061 411.061ZM79 411.5H534V408.5H79V411.5Z" fill="black"/>
</g>
<defs>
<clipPath id="clip0_230_8398">
<rect width="614.4" height="460.8" fill="white"/>
</clipPath>
</defs>
</svg>
