<svg width="615" height="461" viewBox="0 0 615 461" fill="none" xmlns="http://www.w3.org/2000/svg">
<g clip-path="url(#clip0_230_8718)">
<mask id="mask0_230_8718" style="mask-type:luminance" maskUnits="userSpaceOnUse" x="76" y="55" width="477" height="356">
<path d="M552.957 55.2959H76.7969V410.112H552.957V55.2959Z" fill="white"/>
</mask>
<g mask="url(#mask0_230_8718)">
<path d="M216.781 410.111L233.547 409.972L248.788 409.685L251.837 409.376L254.885 408.823L257.933 408.024L262.506 406.487L265.554 405.229L268.602 403.663L271.65 401.673L274.699 399.137L277.747 395.88L280.795 391.763L283.844 386.833L286.892 381.209L291.464 371.822L296.037 362.523L300.609 353.168L303.657 345.904L306.706 337.28L309.754 327.201L314.326 311.389L317.375 302.547L326.519 279.948L328.044 276.313L329.568 273.193L331.092 270.83L332.616 269.37L334.14 268.796L335.664 268.919L338.713 269.958L340.237 270.249L341.761 270.169L346.333 268.905L347.857 269.058L349.382 269.969L350.906 271.771L352.43 274.424L355.478 281.343L358.526 288.232L360.051 291.12L366.147 301.588L369.195 308.366L372.244 315.26L375.292 320.982L381.389 331.056L385.961 339.518L389.009 345.946L396.63 363.774L399.678 369.314L402.727 373.904L408.823 382.059L413.396 387.931L416.444 391.304L419.492 394.026L422.54 396.151L425.589 397.818L430.161 399.834L443.878 405.401L448.451 406.556L454.547 407.703L463.692 409.133L468.265 409.464L474.361 409.63L483.506 409.81L491.127 410.017L520.086 410.111" fill="#EFEFEF" fill-opacity="0.4"/>
<path d="M216.781 410.111L233.547 409.972L248.788 409.685L251.837 409.376L254.885 408.823L257.933 408.024L262.506 406.487L265.554 405.229L268.602 403.663L271.65 401.673L274.699 399.137L277.747 395.88L280.795 391.763L283.844 386.833L286.892 381.209L291.464 371.822L296.037 362.523L300.609 353.168L303.657 345.904L306.706 337.28L309.754 327.201L314.326 311.389L317.375 302.547L326.519 279.948L328.044 276.313L329.568 273.193L331.092 270.83L332.616 269.37L334.14 268.796L335.664 268.919L338.713 269.958L340.237 270.249L341.761 270.169L346.333 268.905L347.857 269.058L349.382 269.969L350.906 271.771L352.43 274.424L355.478 281.343L358.526 288.232L360.051 291.12L366.147 301.588L369.195 308.366L372.244 315.26L375.292 320.982L381.389 331.056L385.961 339.518L389.009 345.946L396.63 363.774L399.678 369.314L402.727 373.904L408.823 382.059L413.396 387.931L416.444 391.304L419.492 394.026L422.54 396.151L425.589 397.818L430.161 399.834L443.878 405.401L448.451 406.556L454.547 407.703L463.692 409.133L468.265 409.464L474.361 409.63L483.506 409.81L491.127 410.017L520.086 410.111" stroke="#EFEFEF" stroke-linecap="square"/>
</g>
<mask id="mask1_230_8718" style="mask-type:luminance" maskUnits="userSpaceOnUse" x="76" y="55" width="477" height="356">
<path d="M552.957 55.2959H76.7969V410.112H552.957V55.2959Z" fill="white"/>
</mask>
<g mask="url(#mask1_230_8718)">
<path d="M238.938 410.111L267.402 409.929L277.364 409.359L287.327 408.148L290.173 407.565L291.596 407.062L293.019 406.38L294.443 405.491L297.289 403.136L300.135 400.333L301.559 398.703L302.982 396.723L304.405 394.226L305.828 391.131L308.675 383.452L311.521 374.476L314.368 364.127L317.214 352.584L320.06 339.93L322.907 325.871L325.753 310.701L327.176 302.013L330.023 281.314L332.869 260.142L338.562 223.986L339.985 215.058L341.409 207.241L342.832 200.697L345.678 189.639L347.101 185.015L348.525 181.719L349.948 179.95L351.371 179.256L352.794 179.215L354.217 180.087L355.641 182.607L357.064 187.138L361.333 204.845L362.757 209.856L364.18 215.455L365.603 222.85L367.026 232.485L372.719 276.67L375.566 294.424L378.412 310.914L381.258 325.284L384.105 338.989L388.374 360.621L389.798 366.645L391.221 371.591L392.644 375.494L395.49 381.461L399.76 390.013L401.183 392.454L402.607 394.493L405.453 397.84L408.299 400.582L409.723 401.628L412.569 403.205L418.262 405.816L421.108 406.871L423.955 407.598L426.801 407.945L431.071 408.351L435.34 409.072L438.187 409.267L445.303 409.283L452.419 409.311L469.497 409.902L483.729 409.88L495.115 409.986L503.654 410.066L510.77 410.052L517.886 410.089L522.156 410.111" fill="#EFEFEF" fill-opacity="0.4"/>
<path d="M238.938 410.111L267.402 409.929L277.364 409.359L287.327 408.148L290.173 407.565L291.596 407.062L293.019 406.38L294.443 405.491L297.289 403.136L300.135 400.333L301.559 398.703L302.982 396.723L304.405 394.226L305.828 391.131L308.675 383.452L311.521 374.476L314.368 364.127L317.214 352.584L320.06 339.93L322.907 325.871L325.753 310.701L327.176 302.013L330.023 281.314L332.869 260.142L338.562 223.986L339.985 215.058L341.409 207.241L342.832 200.697L345.678 189.639L347.101 185.015L348.525 181.719L349.948 179.95L351.371 179.256L352.794 179.215L354.217 180.087L355.641 182.607L357.064 187.138L361.333 204.845L362.757 209.856L364.18 215.455L365.603 222.85L367.026 232.485L372.719 276.67L375.566 294.424L378.412 310.914L381.258 325.284L384.105 338.989L388.374 360.621L389.798 366.645L391.221 371.591L392.644 375.494L395.49 381.461L399.76 390.013L401.183 392.454L402.607 394.493L405.453 397.84L408.299 400.582L409.723 401.628L412.569 403.205L418.262 405.816L421.108 406.871L423.955 407.598L426.801 407.945L431.071 408.351L435.34 409.072L438.187 409.267L445.303 409.283L452.419 409.311L469.497 409.902L483.729 409.88L495.115 409.986L503.654 410.066L510.77 410.052L517.886 410.089L522.156 410.111" stroke="#EFEFEF" stroke-linecap="square"/>
</g>
<mask id="mask2_230_8718" style="mask-type:luminance" maskUnits="userSpaceOnUse" x="76" y="55" width="477" height="356">
<path d="M552.957 55.2959H76.7969V410.112H552.957V55.2959Z" fill="white"/>
</mask>
<g mask="url(#mask2_230_8718)">
<path d="M245.008 410.111L267.33 409.979L275.7 409.708L281.281 409.509L295.232 407.994L300.812 407.367L302.207 406.984L303.602 406.372L304.997 405.535L307.788 403.317L310.578 400.551L313.368 397.438L314.763 395.606L316.158 393.365L317.553 390.62L320.344 383.861L323.134 375.763L325.924 365.906L327.319 360.182L328.714 353.771L330.109 346.439L331.504 337.966L332.899 328.285L335.69 306L344.06 234.066L345.455 223.523L346.851 214.15L349.641 198.527L351.036 191.855L352.431 185.928L353.826 180.933L355.221 176.998L356.616 174.125L358.011 172.355L359.406 171.939L360.802 173.237L362.197 176.412L363.592 181.304L364.987 187.587L367.777 203.07L370.567 219.396L371.962 226.491L374.753 238.29L377.543 250.143L378.938 257.367L381.728 274.943L384.518 293.565L387.309 309.751L390.099 323.695L392.889 336.256L395.679 346.946L402.655 370.474L404.05 374.23L405.445 377.372L408.235 382.515L411.025 386.826L413.816 390.28L422.186 399.275L423.581 400.439L426.372 402.194L429.162 403.507L431.952 404.386L436.137 405.326L443.113 407.419L445.903 407.648L450.088 407.785L455.669 408.24L464.039 408.383L471.015 409.509L475.2 409.663L484.966 409.558L493.337 410.013L500.312 410.042L518.449 410.093L522.634 410.111" fill="#EFEFEF" fill-opacity="0.4"/>
<path d="M245.008 410.111L267.33 409.979L275.7 409.708L281.281 409.509L295.232 407.994L300.812 407.367L302.207 406.984L303.602 406.372L304.997 405.535L307.788 403.317L310.578 400.551L313.368 397.438L314.763 395.606L316.158 393.365L317.553 390.62L320.344 383.861L323.134 375.763L325.924 365.906L327.319 360.182L328.714 353.771L330.109 346.439L331.504 337.966L332.899 328.285L335.69 306L344.06 234.066L345.455 223.523L346.851 214.15L349.641 198.527L351.036 191.855L352.431 185.928L353.826 180.933L355.221 176.998L356.616 174.125L358.011 172.355L359.406 171.939L360.802 173.237L362.197 176.412L363.592 181.304L364.987 187.587L367.777 203.07L370.567 219.396L371.962 226.491L374.753 238.29L377.543 250.143L378.938 257.367L381.728 274.943L384.518 293.565L387.309 309.751L390.099 323.695L392.889 336.256L395.679 346.946L402.655 370.474L404.05 374.23L405.445 377.372L408.235 382.515L411.025 386.826L413.816 390.28L422.186 399.275L423.581 400.439L426.372 402.194L429.162 403.507L431.952 404.386L436.137 405.326L443.113 407.419L445.903 407.648L450.088 407.785L455.669 408.24L464.039 408.383L471.015 409.509L475.2 409.663L484.966 409.558L493.337 410.013L500.312 410.042L518.449 410.093L522.634 410.111" stroke="#EFEFEF" stroke-linecap="square"/>
</g>
<mask id="mask3_230_8718" style="mask-type:luminance" maskUnits="userSpaceOnUse" x="76" y="55" width="477" height="356">
<path d="M552.957 55.2959H76.7969V410.112H552.957V55.2959Z" fill="white"/>
</mask>
<g mask="url(#mask3_230_8718)">
<path d="M260.562 410.111L285.759 409.945L289.737 409.746L293.715 409.558L299.02 409.546L302.998 409.508L306.977 409.669L310.955 409.45L316.259 408.853L318.912 408.254L321.564 407.32L324.216 406.104L326.868 404.441L329.52 402.235L330.847 400.83L332.173 399.076L333.499 396.842L334.825 394.06L336.151 390.737L337.477 386.863L338.803 382.305L340.129 376.805L341.456 370.099L342.782 362.073L345.434 343.015L349.412 312.679L350.738 301.339L353.391 274.664L356.043 247.38L358.695 224.819L361.347 204.916L362.673 195.816L363.999 187.895L365.326 181.411L366.652 176.28L367.978 172.312L369.304 169.475L370.63 167.889L371.956 167.537L373.282 168.147L374.608 169.459L375.934 171.469L377.261 174.277L378.587 177.834L379.913 182.01L381.239 186.804L382.565 192.323L383.891 198.615L386.543 213.368L390.522 237.16L393.174 252.597L395.826 271.176L398.478 290.409L401.131 306.577L406.435 335.552L407.761 341.192L410.413 349.735L411.74 354.021L414.392 364.337L417.044 374.431L418.37 378.444L419.696 381.77L422.349 387.162L425.001 391.901L427.653 396.105L430.305 399.718L431.631 401.267L432.957 402.561L435.61 404.455L438.262 405.835L440.914 406.677L448.871 408.45L451.523 408.541L458.154 408.482L466.11 409.689L470.089 409.84L486.002 409.814L516.503 410.02L524.459 410.111" fill="#EFEFEF" fill-opacity="0.4"/>
<path d="M260.562 410.111L285.759 409.945L289.737 409.746L293.715 409.558L299.02 409.546L302.998 409.508L306.977 409.669L310.955 409.45L316.259 408.853L318.912 408.254L321.564 407.32L324.216 406.104L326.868 404.441L329.52 402.235L330.847 400.83L332.173 399.076L333.499 396.842L334.825 394.06L336.151 390.737L337.477 386.863L338.803 382.305L340.129 376.805L341.456 370.099L342.782 362.073L345.434 343.015L349.412 312.679L350.738 301.339L353.391 274.664L356.043 247.38L358.695 224.819L361.347 204.916L362.673 195.816L363.999 187.895L365.326 181.411L366.652 176.28L367.978 172.312L369.304 169.475L370.63 167.889L371.956 167.537L373.282 168.147L374.608 169.459L375.934 171.469L377.261 174.277L378.587 177.834L379.913 182.01L381.239 186.804L382.565 192.323L383.891 198.615L386.543 213.368L390.522 237.16L393.174 252.597L395.826 271.176L398.478 290.409L401.131 306.577L406.435 335.552L407.761 341.192L410.413 349.735L411.74 354.021L414.392 364.337L417.044 374.431L418.37 378.444L419.696 381.77L422.349 387.162L425.001 391.901L427.653 396.105L430.305 399.718L431.631 401.267L432.957 402.561L435.61 404.455L438.262 405.835L440.914 406.677L448.871 408.45L451.523 408.541L458.154 408.482L466.11 409.689L470.089 409.84L486.002 409.814L516.503 410.02L524.459 410.111" stroke="#EFEFEF" stroke-linecap="square"/>
</g>
<mask id="mask4_230_8718" style="mask-type:luminance" maskUnits="userSpaceOnUse" x="76" y="55" width="477" height="356">
<path d="M552.957 55.2959H76.7969V410.112H552.957V55.2959Z" fill="white"/>
</mask>
<g mask="url(#mask4_230_8718)">
<path d="M240.461 410.111L247.32 409.975L254.178 409.918L262.409 409.757L265.152 409.34L267.896 408.898L270.639 408.723L273.382 408.896L276.126 409.155L277.498 409.088L280.241 408.438L282.985 407.683L288.471 406.532L289.843 405.953L291.215 404.982L293.958 402.157L295.33 400.586L296.702 398.779L298.074 396.512L300.817 390.677L303.56 383.647L307.676 371.44L309.047 366.844L310.419 361.121L311.791 354.02L313.163 345.473L314.534 335.317L317.278 311.251L320.021 285.211L321.393 270.701L324.136 236.284L329.623 157.741L332.367 118.586L333.739 100.736L335.11 86.2519L336.482 76.5875L337.854 72.1924L339.225 72.3907L340.597 76.1423L341.969 83.2789L343.341 94.4761L344.712 110.075L346.084 129.59L351.571 219.349L352.943 236.653L355.686 264.051L361.173 315.457L363.917 336.526L365.288 345.397L366.66 353.06L368.032 359.438L369.403 364.459L370.775 368.256L374.89 377.463L379.006 387.515L380.377 390.121L381.749 392.107L383.121 393.561L385.864 395.743L387.236 396.697L389.979 398.099L391.351 398.837L394.095 401.029L396.838 403.149L399.581 405.11L400.953 405.862L402.325 406.337L409.184 407.949L410.555 408.278L413.299 408.49L417.414 408.481L420.157 408.752L424.273 409.282L427.016 409.252L431.131 408.956L433.875 409.26L436.618 409.526L442.105 409.699L447.592 409.925L466.796 409.847L470.911 410.088L479.142 410.061L487.372 409.917L495.603 410.022L513.435 410.111" fill="#EFEFEF" fill-opacity="0.4"/>
<path d="M240.461 410.111L247.32 409.975L254.178 409.918L262.409 409.757L265.152 409.34L267.896 408.898L270.639 408.723L273.382 408.896L276.126 409.155L277.498 409.088L280.241 408.438L282.985 407.683L288.471 406.532L289.843 405.953L291.215 404.982L293.958 402.157L295.33 400.586L296.702 398.779L298.074 396.512L300.817 390.677L303.56 383.647L307.676 371.44L309.047 366.844L310.419 361.121L311.791 354.02L313.163 345.473L314.534 335.317L317.278 311.251L320.021 285.211L321.393 270.701L324.136 236.284L329.623 157.741L332.367 118.586L333.739 100.736L335.11 86.2519L336.482 76.5875L337.854 72.1924L339.225 72.3907L340.597 76.1423L341.969 83.2789L343.341 94.4761L344.712 110.075L346.084 129.59L351.571 219.349L352.943 236.653L355.686 264.051L361.173 315.457L363.917 336.526L365.288 345.397L366.66 353.06L368.032 359.438L369.403 364.459L370.775 368.256L374.89 377.463L379.006 387.515L380.377 390.121L381.749 392.107L383.121 393.561L385.864 395.743L387.236 396.697L389.979 398.099L391.351 398.837L394.095 401.029L396.838 403.149L399.581 405.11L400.953 405.862L402.325 406.337L409.184 407.949L410.555 408.278L413.299 408.49L417.414 408.481L420.157 408.752L424.273 409.282L427.016 409.252L431.131 408.956L433.875 409.26L436.618 409.526L442.105 409.699L447.592 409.925L466.796 409.847L470.911 410.088L479.142 410.061L487.372 409.917L495.603 410.022L513.435 410.111" stroke="#EFEFEF" stroke-linecap="square"/>
</g>
<mask id="mask5_230_8718" style="mask-type:luminance" maskUnits="userSpaceOnUse" x="76" y="55" width="477" height="356">
<path d="M552.957 55.2959H76.7969V410.112H552.957V55.2959Z" fill="white"/>
</mask>
<g mask="url(#mask5_230_8718)">
<path d="M251.766 410.111L266.691 409.946L280.259 409.584L288.4 408.588L296.541 407.246L300.611 406.866L301.968 406.524L303.325 405.909L304.682 404.983L307.396 402.524L312.823 397.153L314.18 395.661L315.537 393.893L316.893 391.523L318.25 388.217L319.607 383.895L330.462 343.14L333.175 331.171L335.889 316.697L338.603 300.515L341.316 282.891L344.03 263.147L356.241 166.893L357.598 159.037L358.955 153.27L360.312 149.552L361.669 147.74L363.025 147.72L364.382 149.463L365.739 152.986L367.096 158.305L368.453 165.446L369.81 174.388L372.523 196.45L375.237 219.682L380.664 263.346L387.448 323.523L388.805 332.682L390.162 340.266L391.519 346.49L394.233 356.488L398.303 369.944L399.66 373.973L401.017 377.473L403.73 383.048L407.801 390.461L409.158 392.498L410.514 394.02L417.299 399.729L418.655 400.887L420.012 401.837L422.726 403.246L428.153 405.838L430.867 406.539L436.294 407.594L439.008 408.117L444.435 408.645L449.862 408.879L463.431 409.324L468.858 409.891L479.713 409.974L486.497 409.931L501.422 409.955L508.206 409.895L521.774 410.111" fill="#EFEFEF" fill-opacity="0.4"/>
<path d="M251.766 410.111L266.691 409.946L280.259 409.584L288.4 408.588L296.541 407.246L300.611 406.866L301.968 406.524L303.325 405.909L304.682 404.983L307.396 402.524L312.823 397.153L314.18 395.661L315.537 393.893L316.893 391.523L318.25 388.217L319.607 383.895L330.462 343.14L333.175 331.171L335.889 316.697L338.603 300.515L341.316 282.891L344.03 263.147L356.241 166.893L357.598 159.037L358.955 153.27L360.312 149.552L361.669 147.74L363.025 147.72L364.382 149.463L365.739 152.986L367.096 158.305L368.453 165.446L369.81 174.388L372.523 196.45L375.237 219.682L380.664 263.346L387.448 323.523L388.805 332.682L390.162 340.266L391.519 346.49L394.233 356.488L398.303 369.944L399.66 373.973L401.017 377.473L403.73 383.048L407.801 390.461L409.158 392.498L410.514 394.02L417.299 399.729L418.655 400.887L420.012 401.837L422.726 403.246L428.153 405.838L430.867 406.539L436.294 407.594L439.008 408.117L444.435 408.645L449.862 408.879L463.431 409.324L468.858 409.891L479.713 409.974L486.497 409.931L501.422 409.955L508.206 409.895L521.774 410.111" stroke="#EFEFEF" stroke-linecap="square"/>
</g>
<mask id="mask6_230_8718" style="mask-type:luminance" maskUnits="userSpaceOnUse" x="76" y="55" width="477" height="356">
<path d="M552.957 55.2959H76.7969V410.112H552.957V55.2959Z" fill="white"/>
</mask>
<g mask="url(#mask6_230_8718)">
<path d="M256.719 410.111L263.412 409.994L271.443 409.721L292.861 410.032L302.231 409.649L306.247 409.301L310.263 408.49L314.278 407.334L316.956 406.556L323.649 405.027L326.326 403.738L331.68 400.522L333.019 399.631L334.357 398.5L335.696 396.929L337.035 394.772L338.373 391.986L339.712 388.609L342.389 380.396L345.066 370.649L347.743 359.362L350.421 346.359L353.098 331.053L355.775 312.391L358.452 292.624L361.129 275.255L363.807 258.483L369.161 221.555L370.5 214.874L371.838 209.811L373.177 206.103L374.515 203.44L375.854 201.54L377.193 200.137L378.531 199.015L379.87 198.102L381.208 197.485L382.547 197.31L383.886 197.638L385.224 198.448L386.563 199.788L387.901 201.912L389.24 205.187L390.579 209.828L391.917 215.667L399.949 254.948L403.964 276.502L409.319 302.921L411.996 314.788L416.012 331.286L421.366 355.502L422.705 360.118L424.043 363.971L426.721 370.362L430.736 378.938L437.429 391.518L440.107 395.903L442.784 399.347L444.122 400.759L445.461 401.942L448.138 403.697L452.154 405.68L456.17 407.379L458.847 408.059L470.894 409.578L478.926 409.817L523.1 410.111" fill="#EFEFEF" fill-opacity="0.4"/>
<path d="M256.719 410.111L263.412 409.994L271.443 409.721L292.861 410.032L302.231 409.649L306.247 409.301L310.263 408.49L314.278 407.334L316.956 406.556L323.649 405.027L326.326 403.738L331.68 400.522L333.019 399.631L334.357 398.5L335.696 396.929L337.035 394.772L338.373 391.986L339.712 388.609L342.389 380.396L345.066 370.649L347.743 359.362L350.421 346.359L353.098 331.053L355.775 312.391L358.452 292.624L361.129 275.255L363.807 258.483L369.161 221.555L370.5 214.874L371.838 209.811L373.177 206.103L374.515 203.44L375.854 201.54L377.193 200.137L378.531 199.015L379.87 198.102L381.208 197.485L382.547 197.31L383.886 197.638L385.224 198.448L386.563 199.788L387.901 201.912L389.24 205.187L390.579 209.828L391.917 215.667L399.949 254.948L403.964 276.502L409.319 302.921L411.996 314.788L416.012 331.286L421.366 355.502L422.705 360.118L424.043 363.971L426.721 370.362L430.736 378.938L437.429 391.518L440.107 395.903L442.784 399.347L444.122 400.759L445.461 401.942L448.138 403.697L452.154 405.68L456.17 407.379L458.847 408.059L470.894 409.578L478.926 409.817L523.1 410.111" stroke="#EFEFEF" stroke-linecap="square"/>
</g>
<mask id="mask7_230_8718" style="mask-type:luminance" maskUnits="userSpaceOnUse" x="76" y="55" width="477" height="356">
<path d="M552.957 55.2959H76.7969V410.112H552.957V55.2959Z" fill="white"/>
</mask>
<g mask="url(#mask7_230_8718)">
<path d="M203.203 410.112L213.096 409.975L218.042 409.643L222.989 409.021L227.935 407.985L231.233 407.068L232.882 406.38L234.53 405.435L236.179 404.233L239.477 401.315L241.126 399.641L242.775 397.728L244.423 395.497L247.721 390.14L249.37 387.033L251.019 383.465L252.667 379.222L254.316 374.206L257.614 362.32L264.209 336.278L272.453 301.705L277.399 281.872L282.346 261.904L287.292 243.47L290.59 232.462L292.239 227.754L293.888 223.707L295.536 220.414L297.185 217.992L298.834 216.474L300.483 215.715L302.132 215.494L303.78 215.74L305.429 216.63L307.078 218.47L308.727 221.473L310.376 225.661L312.024 230.943L313.673 237.239L315.322 244.518L316.971 252.749L320.269 271.558L323.566 291.508L325.215 300.717L326.864 308.959L330.161 323.414L336.757 350.901L338.405 356.807L340.054 361.937L343.352 370.428L348.298 381.959L349.947 385.416L351.596 388.486L354.893 393.675L358.191 398.222L359.84 400.211L361.489 401.82L363.138 402.969L364.786 403.73L369.733 405.443L374.679 407.347L377.977 408.027L381.274 408.39L384.572 408.481L392.816 408.315L402.709 408.971L407.655 409.093L415.899 409.573L424.143 409.686L430.739 409.87L453.822 409.259L462.066 409.788L470.31 409.844L480.203 410.086L531.316 410.112" fill="#EFEFEF" fill-opacity="0.4"/>
<path d="M203.203 410.112L213.096 409.975L218.042 409.643L222.989 409.021L227.935 407.985L231.233 407.068L232.882 406.38L234.53 405.435L236.179 404.233L239.477 401.315L241.126 399.641L242.775 397.728L244.423 395.497L247.721 390.14L249.37 387.033L251.019 383.465L252.667 379.222L254.316 374.206L257.614 362.32L264.209 336.278L272.453 301.705L277.399 281.872L282.346 261.904L287.292 243.47L290.59 232.462L292.239 227.754L293.888 223.707L295.536 220.414L297.185 217.992L298.834 216.474L300.483 215.715L302.132 215.494L303.78 215.74L305.429 216.63L307.078 218.47L308.727 221.473L310.376 225.661L312.024 230.943L313.673 237.239L315.322 244.518L316.971 252.749L320.269 271.558L323.566 291.508L325.215 300.717L326.864 308.959L330.161 323.414L336.757 350.901L338.405 356.807L340.054 361.937L343.352 370.428L348.298 381.959L349.947 385.416L351.596 388.486L354.893 393.675L358.191 398.222L359.84 400.211L361.489 401.82L363.138 402.969L364.786 403.73L369.733 405.443L374.679 407.347L377.977 408.027L381.274 408.39L384.572 408.481L392.816 408.315L402.709 408.971L407.655 409.093L415.899 409.573L424.143 409.686L430.739 409.87L453.822 409.259L462.066 409.788L470.31 409.844L480.203 410.086L531.316 410.112" stroke="#EFEFEF" stroke-linecap="square"/>
</g>
<mask id="mask8_230_8718" style="mask-type:luminance" maskUnits="userSpaceOnUse" x="76" y="55" width="477" height="356">
<path d="M552.957 55.2959H76.7969V410.112H552.957V55.2959Z" fill="white"/>
</mask>
<g mask="url(#mask8_230_8718)">
<path d="M260.359 410.111L268.218 409.981L273.457 409.93L278.696 409.978L285.245 409.805L294.414 410.016L300.962 409.779L304.892 409.761L307.511 409.514L311.441 408.74L314.06 408.225L319.299 407.55L320.609 407.059L323.229 405.469L327.158 402.489L328.468 401.214L329.778 399.493L331.087 397.112L332.397 393.898L333.707 389.742L335.017 384.651L337.636 372.494L342.875 346.188L346.805 323.836L349.424 307.697L350.734 298.036L352.044 286.364L353.354 272.472L355.973 239.698L361.212 169.444L362.522 154.014L363.832 140.547L365.141 129.963L366.451 123.466L367.761 121.95L369.071 125.335L370.381 132.481L373 152.166L376.929 185.895L379.549 208.431L382.169 227.666L384.788 243.662L388.717 265.978L391.337 278.998L399.196 313.502L400.505 318.72L401.815 323.173L407.054 338.839L409.674 348.638L413.603 364.282L414.913 368.877L416.223 372.872L417.533 376.2L418.842 378.906L421.462 383.27L426.701 391.773L428.011 393.405L429.321 394.709L438.489 402.364L441.109 404.057L445.038 406.175L447.657 407.342L450.277 408.153L452.896 408.513L456.826 408.531L460.755 408.55L464.684 409.166L467.304 409.458L486.951 410.026L503.978 409.979L510.527 410.041L519.695 410.109L521.005 410.111" fill="#EFEFEF" fill-opacity="0.4"/>
<path d="M260.359 410.111L268.218 409.981L273.457 409.93L278.696 409.978L285.245 409.805L294.414 410.016L300.962 409.779L304.892 409.761L307.511 409.514L311.441 408.74L314.06 408.225L319.299 407.55L320.609 407.059L323.229 405.469L327.158 402.489L328.468 401.214L329.778 399.493L331.087 397.112L332.397 393.898L333.707 389.742L335.017 384.651L337.636 372.494L342.875 346.188L346.805 323.836L349.424 307.697L350.734 298.036L352.044 286.364L353.354 272.472L355.973 239.698L361.212 169.444L362.522 154.014L363.832 140.547L365.141 129.963L366.451 123.466L367.761 121.95L369.071 125.335L370.381 132.481L373 152.166L376.929 185.895L379.549 208.431L382.169 227.666L384.788 243.662L388.717 265.978L391.337 278.998L399.196 313.502L400.505 318.72L401.815 323.173L407.054 338.839L409.674 348.638L413.603 364.282L414.913 368.877L416.223 372.872L417.533 376.2L418.842 378.906L421.462 383.27L426.701 391.773L428.011 393.405L429.321 394.709L438.489 402.364L441.109 404.057L445.038 406.175L447.657 407.342L450.277 408.153L452.896 408.513L456.826 408.531L460.755 408.55L464.684 409.166L467.304 409.458L486.951 410.026L503.978 409.979L510.527 410.041L519.695 410.109L521.005 410.111" stroke="#EFEFEF" stroke-linecap="square"/>
</g>
<mask id="mask9_230_8718" style="mask-type:luminance" maskUnits="userSpaceOnUse" x="76" y="55" width="477" height="356">
<path d="M552.957 55.2959H76.7969V410.112H552.957V55.2959Z" fill="white"/>
</mask>
<g mask="url(#mask9_230_8718)">
<path d="M221.008 410.111L264.08 409.911L274.848 409.72L291.77 409.914L300.999 408.92L307.153 408.256L310.229 407.513L313.306 406.351L314.844 405.484L316.382 404.127L317.921 401.97L319.459 398.796L320.997 394.544L322.535 389.164L324.074 382.426L325.612 373.902L327.15 363.21L328.689 350.301L331.765 319.304L334.842 283.748L339.457 228.3L342.533 195.013L344.072 181.068L345.61 170.082L347.148 161.902L348.687 155.494L350.225 150.217L351.763 146.546L353.301 145.353L354.84 146.962L356.378 151.107L357.916 157.301L360.993 172.895L364.07 189.331L367.146 208.432L371.761 240.858L376.376 273.169L382.529 312.839L385.606 331.484L387.144 339.221L388.682 345.548L390.221 350.459L391.759 354.165L394.836 360.777L397.912 369.469L399.45 373.817L400.989 377.661L402.527 381.011L404.065 383.943L405.604 386.468L407.142 388.609L408.68 390.44L410.218 392.013L413.295 394.511L416.372 397.01L419.448 399.771L420.987 400.854L424.063 402.327L427.14 403.473L430.216 404.216L433.293 405.027L436.37 405.991L440.984 406.826L444.061 407.222L447.138 407.097L448.676 407.024L450.214 407.128L456.367 408.238L464.059 408.842L467.136 409.386L471.75 409.675L479.442 409.801L484.057 409.834L488.672 409.926L497.901 409.815L507.131 409.976L513.284 410.024L519.438 410.003L527.129 410.111" fill="#EFEFEF" fill-opacity="0.4"/>
<path d="M221.008 410.111L264.08 409.911L274.848 409.72L291.77 409.914L300.999 408.92L307.153 408.256L310.229 407.513L313.306 406.351L314.844 405.484L316.382 404.127L317.921 401.97L319.459 398.796L320.997 394.544L322.535 389.164L324.074 382.426L325.612 373.902L327.15 363.21L328.689 350.301L331.765 319.304L334.842 283.748L339.457 228.3L342.533 195.013L344.072 181.068L345.61 170.082L347.148 161.902L348.687 155.494L350.225 150.217L351.763 146.546L353.301 145.353L354.84 146.962L356.378 151.107L357.916 157.301L360.993 172.895L364.07 189.331L367.146 208.432L371.761 240.858L376.376 273.169L382.529 312.839L385.606 331.484L387.144 339.221L388.682 345.548L390.221 350.459L391.759 354.165L394.836 360.777L397.912 369.469L399.45 373.817L400.989 377.661L402.527 381.011L404.065 383.943L405.604 386.468L407.142 388.609L408.68 390.44L410.218 392.013L413.295 394.511L416.372 397.01L419.448 399.771L420.987 400.854L424.063 402.327L427.14 403.473L430.216 404.216L433.293 405.027L436.37 405.991L440.984 406.826L444.061 407.222L447.138 407.097L448.676 407.024L450.214 407.128L456.367 408.238L464.059 408.842L467.136 409.386L471.75 409.675L479.442 409.801L484.057 409.834L488.672 409.926L497.901 409.815L507.131 409.976L513.284 410.024L519.438 410.003L527.129 410.111" stroke="#EFEFEF" stroke-linecap="square"/>
</g>
<mask id="mask10_230_8718" style="mask-type:luminance" maskUnits="userSpaceOnUse" x="76" y="55" width="477" height="356">
<path d="M552.957 55.2959H76.7969V410.112H552.957V55.2959Z" fill="white"/>
</mask>
<g mask="url(#mask10_230_8718)">
<path d="M253.617 410.111L271.846 409.939L277.055 409.966L280.961 410L288.774 409.832L292.68 409.795L305.701 408.924L312.211 407.759L314.815 406.913L317.42 405.691L318.722 404.911L320.024 403.87L321.326 402.467L322.628 400.694L325.232 396.299L327.836 391.104L329.138 388.076L330.441 384.474L331.743 380.095L334.347 369.234L336.951 356.559L338.253 349.292L339.555 341.035L342.159 321.383L344.764 298.423L347.368 272.098L349.972 245.619L351.274 234.656L352.576 225.654L357.785 194.251L361.691 168.544L362.993 161.912L364.295 157.435L365.597 155.205L366.899 154.753L368.201 155.465L369.503 156.96L370.805 159.183L372.108 162.372L373.41 166.959L374.712 173.225L377.316 189.539L379.92 207.866L382.524 227.988L390.337 290.409L392.941 306.429L398.149 336.586L400.754 349.575L403.358 360.672L405.962 370.686L407.264 375.192L408.566 379.081L409.868 382.213L411.17 384.648L413.774 388.342L420.285 396.536L421.587 397.975L422.889 399.189L425.493 400.98L428.097 402.505L433.306 405.856L435.91 406.861L439.816 407.88L442.42 408.21L447.629 408.631L451.535 408.872L461.952 409.158L465.858 409.352L473.671 409.362L481.483 409.798L486.692 409.709L494.504 410.001L499.712 409.967L512.733 410.111" fill="#EFEFEF" fill-opacity="0.4"/>
<path d="M253.617 410.111L271.846 409.939L277.055 409.966L280.961 410L288.774 409.832L292.68 409.795L305.701 408.924L312.211 407.759L314.815 406.913L317.42 405.691L318.722 404.911L320.024 403.87L321.326 402.467L322.628 400.694L325.232 396.299L327.836 391.104L329.138 388.076L330.441 384.474L331.743 380.095L334.347 369.234L336.951 356.559L338.253 349.292L339.555 341.035L342.159 321.383L344.764 298.423L347.368 272.098L349.972 245.619L351.274 234.656L352.576 225.654L357.785 194.251L361.691 168.544L362.993 161.912L364.295 157.435L365.597 155.205L366.899 154.753L368.201 155.465L369.503 156.96L370.805 159.183L372.108 162.372L373.41 166.959L374.712 173.225L377.316 189.539L379.92 207.866L382.524 227.988L390.337 290.409L392.941 306.429L398.149 336.586L400.754 349.575L403.358 360.672L405.962 370.686L407.264 375.192L408.566 379.081L409.868 382.213L411.17 384.648L413.774 388.342L420.285 396.536L421.587 397.975L422.889 399.189L425.493 400.98L428.097 402.505L433.306 405.856L435.91 406.861L439.816 407.88L442.42 408.21L447.629 408.631L451.535 408.872L461.952 409.158L465.858 409.352L473.671 409.362L481.483 409.798L486.692 409.709L494.504 410.001L499.712 409.967L512.733 410.111" stroke="#EFEFEF" stroke-linecap="square"/>
</g>
<mask id="mask11_230_8718" style="mask-type:luminance" maskUnits="userSpaceOnUse" x="76" y="55" width="477" height="356">
<path d="M552.957 55.2959H76.7969V410.112H552.957V55.2959Z" fill="white"/>
</mask>
<g mask="url(#mask11_230_8718)">
<path d="M243.414 410.111L257.558 409.937L264.63 409.448L275.945 408.182L278.773 407.432L281.602 406.258L287.26 403.65L290.088 402.219L291.503 401.198L292.917 399.871L295.746 396.416L299.989 390.813L302.818 387.304L304.232 385.207L305.647 382.684L308.475 376.659L311.304 369.932L312.718 366.042L314.133 361.362L315.547 355.527L316.962 348.393L319.79 331.131L325.448 293.343L328.277 276.041L331.105 256.131L333.934 233.111L336.763 210.142L339.592 191.243L342.42 174.765L343.835 168.069L345.249 163.864L346.663 162.405L349.492 162.897L350.907 162.392L352.321 161.492L353.735 161.462L355.15 163.584L356.564 168.442L357.978 175.706L360.807 193.966L363.636 214.87L366.465 240.338L372.122 294.916L374.951 319.299L377.78 341.418L379.194 351.29L380.608 359.983L382.023 367.353L383.437 373.553L386.266 383.868L387.68 388.363L389.095 392.258L390.509 395.379L391.923 397.744L393.338 399.561L396.167 402.489L398.995 404.978L400.41 405.884L401.824 406.492L404.653 407.145L414.553 408.686L420.211 408.817L424.454 408.889L431.526 409.392L437.183 409.485L447.084 409.812L456.985 409.834L462.642 409.402L465.471 409.53L471.128 409.965L524.875 410.111" fill="#EFEFEF" fill-opacity="0.4"/>
<path d="M243.414 410.111L257.558 409.937L264.63 409.448L275.945 408.182L278.773 407.432L281.602 406.258L287.26 403.65L290.088 402.219L291.503 401.198L292.917 399.871L295.746 396.416L299.989 390.813L302.818 387.304L304.232 385.207L305.647 382.684L308.475 376.659L311.304 369.932L312.718 366.042L314.133 361.362L315.547 355.527L316.962 348.393L319.79 331.131L325.448 293.343L328.277 276.041L331.105 256.131L333.934 233.111L336.763 210.142L339.592 191.243L342.42 174.765L343.835 168.069L345.249 163.864L346.663 162.405L349.492 162.897L350.907 162.392L352.321 161.492L353.735 161.462L355.15 163.584L356.564 168.442L357.978 175.706L360.807 193.966L363.636 214.87L366.465 240.338L372.122 294.916L374.951 319.299L377.78 341.418L379.194 351.29L380.608 359.983L382.023 367.353L383.437 373.553L386.266 383.868L387.68 388.363L389.095 392.258L390.509 395.379L391.923 397.744L393.338 399.561L396.167 402.489L398.995 404.978L400.41 405.884L401.824 406.492L404.653 407.145L414.553 408.686L420.211 408.817L424.454 408.889L431.526 409.392L437.183 409.485L447.084 409.812L456.985 409.834L462.642 409.402L465.471 409.53L471.128 409.965L524.875 410.111" stroke="#EFEFEF" stroke-linecap="square"/>
</g>
<mask id="mask12_230_8718" style="mask-type:luminance" maskUnits="userSpaceOnUse" x="76" y="55" width="477" height="356">
<path d="M552.957 55.2959H76.7969V410.112H552.957V55.2959Z" fill="white"/>
</mask>
<g mask="url(#mask12_230_8718)">
<path d="M256.633 410.111L264.467 409.979L269.69 409.903L284.053 410.02L294.499 409.84L298.416 409.399L304.945 408.11L310.168 407.085L312.779 406.129L315.391 404.538L318.002 402.314L320.613 399.392L323.225 395.905L325.836 391.838L327.142 389.378L328.448 386.504L329.754 383.172L331.059 379.375L333.671 370.377L336.282 359.656L338.894 347.834L341.505 334.28L344.117 318.049L348.034 293.145L353.257 262.294L357.174 239.142L361.091 214.484L362.397 207.305L363.702 201.291L365.008 196.649L366.314 193.402L367.62 191.431L368.925 190.596L370.231 190.758L371.537 191.699L374.148 194.608L375.454 196.306L376.76 198.566L378.065 201.898L379.371 206.572L380.677 212.434L385.9 238.312L388.511 250.667L391.123 264.605L398.957 309.205L401.569 322.358L404.18 333.739L406.791 343.63L409.403 352.627L412.014 360.446L415.932 370.628L418.543 376.609L419.849 379.122L422.46 383.298L425.072 387.513L430.294 397.012L431.6 398.83L432.906 400.352L434.212 401.609L435.517 402.623L436.823 403.423L439.435 404.52L445.963 406.422L449.88 407.944L451.186 408.221L453.798 408.309L459.02 407.965L461.632 408.249L468.161 409.647L470.772 409.807L498.192 410.022L516.472 410.111" fill="#EFEFEF" fill-opacity="0.4"/>
<path d="M256.633 410.111L264.467 409.979L269.69 409.903L284.053 410.02L294.499 409.84L298.416 409.399L304.945 408.11L310.168 407.085L312.779 406.129L315.391 404.538L318.002 402.314L320.613 399.392L323.225 395.905L325.836 391.838L327.142 389.378L328.448 386.504L329.754 383.172L331.059 379.375L333.671 370.377L336.282 359.656L338.894 347.834L341.505 334.28L344.117 318.049L348.034 293.145L353.257 262.294L357.174 239.142L361.091 214.484L362.397 207.305L363.702 201.291L365.008 196.649L366.314 193.402L367.62 191.431L368.925 190.596L370.231 190.758L371.537 191.699L374.148 194.608L375.454 196.306L376.76 198.566L378.065 201.898L379.371 206.572L380.677 212.434L385.9 238.312L388.511 250.667L391.123 264.605L398.957 309.205L401.569 322.358L404.18 333.739L406.791 343.63L409.403 352.627L412.014 360.446L415.932 370.628L418.543 376.609L419.849 379.122L422.46 383.298L425.072 387.513L430.294 397.012L431.6 398.83L432.906 400.352L434.212 401.609L435.517 402.623L436.823 403.423L439.435 404.52L445.963 406.422L449.88 407.944L451.186 408.221L453.798 408.309L459.02 407.965L461.632 408.249L468.161 409.647L470.772 409.807L498.192 410.022L516.472 410.111" stroke="#EFEFEF" stroke-linecap="square"/>
</g>
<mask id="mask13_230_8718" style="mask-type:luminance" maskUnits="userSpaceOnUse" x="76" y="55" width="477" height="356">
<path d="M552.957 55.2959H76.7969V410.112H552.957V55.2959Z" fill="white"/>
</mask>
<g mask="url(#mask13_230_8718)">
<path d="M261.602 410.11L266.613 409.978L270.372 409.835L276.637 410.002L304.203 409.738L307.962 409.661L311.721 409.707L314.227 409.386L317.985 408.536L322.997 407.238L324.25 406.59L325.503 405.678L326.756 404.494L328.009 402.995L329.262 401.109L330.515 398.79L331.768 395.988L333.021 392.561L334.274 388.217L335.527 382.594L336.78 375.55L343.045 335.26L344.298 325.28L351.816 256.084L355.575 219.413L358.081 198.767L364.346 156.185L366.852 143.069L368.105 137.681L369.358 133.653L370.611 131.749L371.863 132.035L373.116 133.741L374.369 136.128L375.622 139.343L376.875 144.291L378.128 151.672L384.393 199.369L385.646 211.128L388.152 240.531L390.658 269.05L391.911 280.446L400.682 348.635L401.935 356.408L403.188 362.295L404.441 366.58L409.453 380.561L411.959 387.318L414.465 393.127L415.718 395.73L416.971 397.851L418.224 399.296L419.477 400.119L423.236 401.574L424.488 402.348L428.247 405.162L429.5 405.754L435.765 407.572L439.524 408.308L443.283 408.857L454.56 409.604L458.319 409.645L465.837 409.474L472.102 409.746L478.366 410.078L492.149 409.934L499.667 409.821L509.691 410.108L510.944 410.111" fill="#EFEFEF" fill-opacity="0.4"/>
<path d="M261.602 410.11L266.613 409.978L270.372 409.835L276.637 410.002L304.203 409.738L307.962 409.661L311.721 409.707L314.227 409.386L317.985 408.536L322.997 407.238L324.25 406.59L325.503 405.678L326.756 404.494L328.009 402.995L329.262 401.109L330.515 398.79L331.768 395.988L333.021 392.561L334.274 388.217L335.527 382.594L336.78 375.55L343.045 335.26L344.298 325.28L351.816 256.084L355.575 219.413L358.081 198.767L364.346 156.185L366.852 143.069L368.105 137.681L369.358 133.653L370.611 131.749L371.863 132.035L373.116 133.741L374.369 136.128L375.622 139.343L376.875 144.291L378.128 151.672L384.393 199.369L385.646 211.128L388.152 240.531L390.658 269.05L391.911 280.446L400.682 348.635L401.935 356.408L403.188 362.295L404.441 366.58L409.453 380.561L411.959 387.318L414.465 393.127L415.718 395.73L416.971 397.851L418.224 399.296L419.477 400.119L423.236 401.574L424.488 402.348L428.247 405.162L429.5 405.754L435.765 407.572L439.524 408.308L443.283 408.857L454.56 409.604L458.319 409.645L465.837 409.474L472.102 409.746L478.366 410.078L492.149 409.934L499.667 409.821L509.691 410.108L510.944 410.111" stroke="#EFEFEF" stroke-linecap="square"/>
</g>
<mask id="mask14_230_8718" style="mask-type:luminance" maskUnits="userSpaceOnUse" x="76" y="55" width="477" height="356">
<path d="M552.957 55.2959H76.7969V410.112H552.957V55.2959Z" fill="white"/>
</mask>
<g mask="url(#mask14_230_8718)">
<path d="M98.4375 410.111L160.563 409.97L164.847 409.661L166.989 409.352L169.132 408.863L171.274 408.122L173.416 407.062L175.558 405.633L177.701 403.784L179.843 401.453L181.985 398.557L184.127 395.012L186.269 390.764L188.412 385.82L190.554 380.232L192.696 374.051L194.838 367.296L199.123 352.173L214.119 295.75L218.403 281.027L220.545 274.599L222.688 268.94L224.83 264.124L226.972 260.221L229.114 257.285L231.257 255.366L233.399 254.517L235.541 254.763L237.683 256.028L239.826 258.107L241.968 260.776L244.11 263.935L246.252 267.619L248.395 271.857L252.679 281.424L261.248 301.328L274.101 333.47L276.244 337.988L278.386 342.018L289.097 360.646L293.382 368.8L295.524 372.596L297.666 375.983L299.808 378.924L301.951 381.493L306.235 385.911L310.52 389.716L314.804 392.994L316.946 394.356L319.089 395.45L321.231 396.271L329.8 398.938L334.084 400.207L338.369 400.841L344.795 401.584L351.222 402.45L361.933 403.389L366.218 404.229L374.787 406.171L383.356 407.597L387.64 408.163L391.925 408.5L402.636 408.818L411.205 409.058L421.916 409.48L443.339 409.684L449.765 409.746L456.192 409.847L466.903 409.868L479.757 410.055L524.744 410.111" fill="#7EB0D5" fill-opacity="0.4"/>
<path d="M98.4375 410.111L160.563 409.97L164.847 409.661L166.989 409.352L169.132 408.863L171.274 408.122L173.416 407.062L175.558 405.633L177.701 403.784L179.843 401.453L181.985 398.557L184.127 395.012L186.269 390.764L188.412 385.82L190.554 380.232L192.696 374.051L194.838 367.296L199.123 352.173L214.119 295.75L218.403 281.027L220.545 274.599L222.688 268.94L224.83 264.124L226.972 260.221L229.114 257.285L231.257 255.366L233.399 254.517L235.541 254.763L237.683 256.028L239.826 258.107L241.968 260.776L244.11 263.935L246.252 267.619L248.395 271.857L252.679 281.424L261.248 301.328L274.101 333.47L276.244 337.988L278.386 342.018L289.097 360.646L293.382 368.8L295.524 372.596L297.666 375.983L299.808 378.924L301.951 381.493L306.235 385.911L310.52 389.716L314.804 392.994L316.946 394.356L319.089 395.45L321.231 396.271L329.8 398.938L334.084 400.207L338.369 400.841L344.795 401.584L351.222 402.45L361.933 403.389L366.218 404.229L374.787 406.171L383.356 407.597L387.64 408.163L391.925 408.5L402.636 408.818L411.205 409.058L421.916 409.48L443.339 409.684L449.765 409.746L456.192 409.847L466.903 409.868L479.757 410.055L524.744 410.111" stroke="#7EB0D5" stroke-linecap="square"/>
</g>
<path d="M535.061 411.061C535.646 410.475 535.646 409.525 535.061 408.939L525.515 399.393C524.929 398.808 523.979 398.808 523.393 399.393C522.808 399.979 522.808 400.929 523.393 401.515L531.879 410L523.393 418.485C522.808 419.071 522.808 420.021 523.393 420.607C523.979 421.192 524.929 421.192 525.515 420.607L535.061 411.061ZM79 411.5H534V408.5H79V411.5Z" fill="black"/>
</g>
<defs>
<clipPath id="clip0_230_8718">
<rect width="614.4" height="460.8" fill="white"/>
</clipPath>
</defs>
</svg>
