<svg width="615" height="461" viewBox="0 0 615 461" fill="none" xmlns="http://www.w3.org/2000/svg">
<g clip-path="url(#clip0_230_8318)">
<mask id="mask0_230_8318" style="mask-type:luminance" maskUnits="userSpaceOnUse" x="76" y="55" width="477" height="356">
<path d="M552.957 55.2959H76.7969V410.112H552.957V55.2959Z" fill="white"/>
</mask>
<g mask="url(#mask0_230_8318)">
<path d="M214.844 410.112L225.355 409.966L229.86 409.533L234.365 408.73L237.368 408.04L240.371 406.995L243.374 405.367L246.377 403.152L249.381 400.542L252.384 397.496L255.387 393.692L258.39 389.235L261.393 384.21L264.397 378.226L271.905 361.161L274.908 354.072L277.911 346.193L280.914 337.514L283.918 327.579L288.422 311.973L291.426 303.33L294.429 296.292L297.432 290.565L301.937 282.929L303.438 280.58L304.94 278.614L306.442 277.192L307.943 276.324L309.445 275.92L310.946 275.909L312.448 276.327L313.95 277.264L315.451 278.769L316.953 280.806L318.454 283.289L321.458 289.222L328.966 305.696L331.969 313.253L334.972 322.105L340.979 340.625L346.985 357.434L349.988 365.119L352.991 371.41L357.496 379.48L360.499 384.511L363.503 388.896L366.506 392.542L369.509 395.42L374.014 398.853L378.519 401.968L383.023 404.613L386.027 406.099L389.03 407.146L392.033 407.761L398.04 408.391L408.551 409.557L416.059 409.655L422.065 409.961L513.663 410.112" fill="#EFEFEF" fill-opacity="0.4"/>
<path d="M214.844 410.112L225.355 409.966L229.86 409.533L234.365 408.73L237.368 408.04L240.371 406.995L243.374 405.367L246.377 403.152L249.381 400.542L252.384 397.496L255.387 393.692L258.39 389.235L261.393 384.21L264.397 378.226L271.905 361.161L274.908 354.072L277.911 346.193L280.914 337.514L283.918 327.579L288.422 311.973L291.426 303.33L294.429 296.292L297.432 290.565L301.937 282.929L303.438 280.58L304.94 278.614L306.442 277.192L307.943 276.324L309.445 275.92L310.946 275.909L312.448 276.327L313.95 277.264L315.451 278.769L316.953 280.806L318.454 283.289L321.458 289.222L328.966 305.696L331.969 313.253L334.972 322.105L340.979 340.625L346.985 357.434L349.988 365.119L352.991 371.41L357.496 379.48L360.499 384.511L363.503 388.896L366.506 392.542L369.509 395.42L374.014 398.853L378.519 401.968L383.023 404.613L386.027 406.099L389.03 407.146L392.033 407.761L398.04 408.391L408.551 409.557L416.059 409.655L422.065 409.961L513.663 410.112" stroke="#EFEFEF" stroke-linecap="square"/>
</g>
<mask id="mask1_230_8318" style="mask-type:luminance" maskUnits="userSpaceOnUse" x="76" y="55" width="477" height="356">
<path d="M552.957 55.2959H76.7969V410.112H552.957V55.2959Z" fill="white"/>
</mask>
<g mask="url(#mask1_230_8318)">
<path d="M229.938 410.11L259.954 409.951L264.456 409.541L270.46 409.293L274.962 408.646L276.463 408.294L277.964 407.678L280.965 405.653L285.468 402.262L286.969 400.528L288.469 397.905L291.471 391.047L292.972 387.104L294.473 382.177L295.973 376.095L297.474 368.469L298.975 358.15L300.476 344.196L301.977 327.105L303.478 308.051L304.978 286.65L307.98 236.148L310.982 186.762L312.482 166.252L313.983 151.408L315.484 142.17L316.985 136.751L318.486 134.464L319.987 135.008L321.487 137.392L322.988 141.395L324.489 149.451L325.99 164.026L328.991 205.583L330.492 226.258L331.993 244.009L334.995 274.743L336.496 288.582L339.497 311.537L342.499 332.251L347.001 357.579L348.502 365.212L350.003 371.483L353.005 382.017L354.505 386.496L357.507 393.884L359.008 396.991L360.509 399.29L363.51 402.555L365.011 403.917L366.512 404.77L372.515 406.32L374.016 406.837L378.518 408.72L380.019 408.937L384.522 408.764L392.026 409.533L398.029 409.707L405.533 409.646L434.049 410.015L441.553 409.843L453.559 410.068L462.564 410.109L519.595 410.075L524.098 410.05L528.6 410.11" fill="#EFEFEF" fill-opacity="0.4"/>
<path d="M229.938 410.11L259.954 409.951L264.456 409.541L270.46 409.293L274.962 408.646L276.463 408.294L277.964 407.678L280.965 405.653L285.468 402.262L286.969 400.528L288.469 397.905L291.471 391.047L292.972 387.104L294.473 382.177L295.973 376.095L297.474 368.469L298.975 358.15L300.476 344.196L301.977 327.105L303.478 308.051L304.978 286.65L307.98 236.148L310.982 186.762L312.482 166.252L313.983 151.408L315.484 142.17L316.985 136.751L318.486 134.464L319.987 135.008L321.487 137.392L322.988 141.395L324.489 149.451L325.99 164.026L328.991 205.583L330.492 226.258L331.993 244.009L334.995 274.743L336.496 288.582L339.497 311.537L342.499 332.251L347.001 357.579L348.502 365.212L350.003 371.483L353.005 382.017L354.505 386.496L357.507 393.884L359.008 396.991L360.509 399.29L363.51 402.555L365.011 403.917L366.512 404.77L372.515 406.32L374.016 406.837L378.518 408.72L380.019 408.937L384.522 408.764L392.026 409.533L398.029 409.707L405.533 409.646L434.049 410.015L441.553 409.843L453.559 410.068L462.564 410.109L519.595 410.075L524.098 410.05L528.6 410.11" stroke="#EFEFEF" stroke-linecap="square"/>
</g>
<mask id="mask2_230_8318" style="mask-type:luminance" maskUnits="userSpaceOnUse" x="76" y="55" width="477" height="356">
<path d="M552.957 55.2959H76.7969V410.112H552.957V55.2959Z" fill="white"/>
</mask>
<g mask="url(#mask2_230_8318)">
<path d="M243.609 410.111L260.203 409.932L262.969 409.816L276.798 408.399L278.18 407.939L279.563 407.254L282.329 405.439L285.095 403.417L286.478 402.019L287.86 400.093L289.243 397.656L290.626 394.793L292.009 391.41L293.392 387.317L294.775 382.475L298.923 365.812L300.306 359.776L301.689 352.674L303.072 343.757L304.455 332.508L307.22 304.266L309.986 276.156L316.9 209.247L318.283 198.981L319.666 190.164L321.049 183.07L322.432 177.736L323.814 174.064L325.197 172.079L326.58 172.159L327.963 174.926L329.346 180.528L330.729 188.287L332.111 197.391L334.877 218.629L337.643 241.104L341.791 270.633L345.94 306.407L348.706 325.587L352.854 352.804L354.237 360.579L355.62 366.757L357.003 371.555L361.151 383.318L362.534 386.835L363.917 389.719L365.3 391.969L370.831 399.449L372.214 401.064L373.597 402.237L374.98 403.012L381.894 406.006L383.277 406.325L386.042 406.615L388.808 407.353L391.574 408.169L394.339 408.686L397.105 408.951L404.019 409.292L406.785 409.17L409.551 409.352L412.316 409.567L423.379 409.676L427.528 409.385L430.293 409.455L435.825 409.865L446.887 409.743L452.419 409.919L457.95 409.814L467.63 410.11L518.795 410.111" fill="#EFEFEF" fill-opacity="0.4"/>
<path d="M243.609 410.111L260.203 409.932L262.969 409.816L276.798 408.399L278.18 407.939L279.563 407.254L282.329 405.439L285.095 403.417L286.478 402.019L287.86 400.093L289.243 397.656L290.626 394.793L292.009 391.41L293.392 387.317L294.775 382.475L298.923 365.812L300.306 359.776L301.689 352.674L303.072 343.757L304.455 332.508L307.22 304.266L309.986 276.156L316.9 209.247L318.283 198.981L319.666 190.164L321.049 183.07L322.432 177.736L323.814 174.064L325.197 172.079L326.58 172.159L327.963 174.926L329.346 180.528L330.729 188.287L332.111 197.391L334.877 218.629L337.643 241.104L341.791 270.633L345.94 306.407L348.706 325.587L352.854 352.804L354.237 360.579L355.62 366.757L357.003 371.555L361.151 383.318L362.534 386.835L363.917 389.719L365.3 391.969L370.831 399.449L372.214 401.064L373.597 402.237L374.98 403.012L381.894 406.006L383.277 406.325L386.042 406.615L388.808 407.353L391.574 408.169L394.339 408.686L397.105 408.951L404.019 409.292L406.785 409.17L409.551 409.352L412.316 409.567L423.379 409.676L427.528 409.385L430.293 409.455L435.825 409.865L446.887 409.743L452.419 409.919L457.95 409.814L467.63 410.11L518.795 410.111" stroke="#EFEFEF" stroke-linecap="square"/>
</g>
<mask id="mask3_230_8318" style="mask-type:luminance" maskUnits="userSpaceOnUse" x="76" y="55" width="477" height="356">
<path d="M552.957 55.2959H76.7969V410.112H552.957V55.2959Z" fill="white"/>
</mask>
<g mask="url(#mask3_230_8318)">
<path d="M254.188 410.111L262.543 409.954L268.113 410.02L272.291 409.963L279.254 409.641L286.217 408.921L289.002 408.645L290.395 408.288L291.787 407.683L293.18 406.797L294.573 405.62L295.965 404.093L297.358 402.031L298.75 399.082L300.143 394.804L301.536 388.891L302.928 381.38L304.321 372.558L305.713 362.65L307.106 351.639L309.891 325.776L312.676 297.458L314.069 284.958L315.461 274.304L316.854 265.111L318.247 256.972L319.639 250.001L321.032 244.58L322.424 240.741L325.209 235.483L327.995 230.632L329.387 228.624L330.78 226.942L332.172 225.51L333.565 224.61L334.958 224.745L336.35 226.102L337.743 228.323L340.528 233.545L341.921 236.769L343.313 241.156L344.706 246.995L347.491 261.381L351.669 283.866L358.632 323.724L361.417 336.836L364.202 347.189L368.38 362.092L369.772 367.038L371.165 371.419L372.558 375.132L376.735 384.768L378.128 387.827L379.52 390.42L380.913 392.424L385.091 397.551L387.876 401.328L389.269 402.768L390.661 403.743L393.446 404.867L396.232 406.014L400.409 407.85L401.802 408.267L404.587 408.627L411.55 409.022L415.728 409.129L426.868 409.822L432.439 409.672L436.617 409.685L442.187 409.844L456.113 410.038L464.468 410.102L482.572 410.047L503.461 410.11L531.313 410.111" fill="#EFEFEF" fill-opacity="0.4"/>
<path d="M254.188 410.111L262.543 409.954L268.113 410.02L272.291 409.963L279.254 409.641L286.217 408.921L289.002 408.645L290.395 408.288L291.787 407.683L293.18 406.797L294.573 405.62L295.965 404.093L297.358 402.031L298.75 399.082L300.143 394.804L301.536 388.891L302.928 381.38L304.321 372.558L305.713 362.65L307.106 351.639L309.891 325.776L312.676 297.458L314.069 284.958L315.461 274.304L316.854 265.111L318.247 256.972L319.639 250.001L321.032 244.58L322.424 240.741L325.209 235.483L327.995 230.632L329.387 228.624L330.78 226.942L332.172 225.51L333.565 224.61L334.958 224.745L336.35 226.102L337.743 228.323L340.528 233.545L341.921 236.769L343.313 241.156L344.706 246.995L347.491 261.381L351.669 283.866L358.632 323.724L361.417 336.836L364.202 347.189L368.38 362.092L369.772 367.038L371.165 371.419L372.558 375.132L376.735 384.768L378.128 387.827L379.52 390.42L380.913 392.424L385.091 397.551L387.876 401.328L389.269 402.768L390.661 403.743L393.446 404.867L396.232 406.014L400.409 407.85L401.802 408.267L404.587 408.627L411.55 409.022L415.728 409.129L426.868 409.822L432.439 409.672L436.617 409.685L442.187 409.844L456.113 410.038L464.468 410.102L482.572 410.047L503.461 410.11L531.313 410.111" stroke="#EFEFEF" stroke-linecap="square"/>
</g>
<mask id="mask4_230_8318" style="mask-type:luminance" maskUnits="userSpaceOnUse" x="76" y="55" width="477" height="356">
<path d="M552.957 55.2959H76.7969V410.112H552.957V55.2959Z" fill="white"/>
</mask>
<g mask="url(#mask4_230_8318)">
<path d="M247.391 410.11L250.102 410.041L254.17 409.691L259.594 409.645L262.306 409.122L265.017 408.655L269.085 408.632L273.153 407.845L275.865 407.915L277.221 407.327L278.577 406.141L282.644 401.431L284 399.075L286.712 393.298L288.068 390.084L289.424 385.364L292.136 371.167L293.492 364.093L294.847 356.121L296.203 346.419L297.559 335.578L298.915 323.314L300.271 308.523L302.983 272.203L305.695 231.573L307.051 206.756L311.118 123.105L312.474 99.8874L313.83 83.8533L315.186 75.0008L316.542 72.1924L317.898 76.419L319.254 87.772L320.61 104.728L323.322 148.082L326.033 201.358L327.389 228.056L331.457 296.915L332.813 314.735L334.169 327.943L336.881 349.512L338.237 359.416L339.593 367.79L340.948 374.401L342.304 379.635L343.66 384.062L345.016 387.976L346.372 391.159L347.728 393.447L353.152 400.649L355.863 402.946L358.575 404.925L361.287 406.312L366.711 408.409L368.067 408.399L369.423 408.236L370.778 408.252L374.846 409.199L381.626 409.2L388.405 409.941L391.117 409.853L393.829 409.607L399.253 410.062L403.32 410.047L408.744 410.074L415.524 409.956L422.303 409.963L425.015 409.869L445.354 410.074L449.421 410.036L462.98 410.112L517.217 410.111" fill="#EFEFEF" fill-opacity="0.4"/>
<path d="M247.391 410.11L250.102 410.041L254.17 409.691L259.594 409.645L262.306 409.122L265.017 408.655L269.085 408.632L273.153 407.845L275.865 407.915L277.221 407.327L278.577 406.141L282.644 401.431L284 399.075L286.712 393.298L288.068 390.084L289.424 385.364L292.136 371.167L293.492 364.093L294.847 356.121L296.203 346.419L297.559 335.578L298.915 323.314L300.271 308.523L302.983 272.203L305.695 231.573L307.051 206.756L311.118 123.105L312.474 99.8874L313.83 83.8533L315.186 75.0008L316.542 72.1924L317.898 76.419L319.254 87.772L320.61 104.728L323.322 148.082L326.033 201.358L327.389 228.056L331.457 296.915L332.813 314.735L334.169 327.943L336.881 349.512L338.237 359.416L339.593 367.79L340.948 374.401L342.304 379.635L343.66 384.062L345.016 387.976L346.372 391.159L347.728 393.447L353.152 400.649L355.863 402.946L358.575 404.925L361.287 406.312L366.711 408.409L368.067 408.399L369.423 408.236L370.778 408.252L374.846 409.199L381.626 409.2L388.405 409.941L391.117 409.853L393.829 409.607L399.253 410.062L403.32 410.047L408.744 410.074L415.524 409.956L422.303 409.963L425.015 409.869L445.354 410.074L449.421 410.036L462.98 410.112L517.217 410.111" stroke="#EFEFEF" stroke-linecap="square"/>
</g>
<mask id="mask5_230_8318" style="mask-type:luminance" maskUnits="userSpaceOnUse" x="76" y="55" width="477" height="356">
<path d="M552.957 55.2959H76.7969V410.112H552.957V55.2959Z" fill="white"/>
</mask>
<g mask="url(#mask5_230_8318)">
<path d="M227.461 410.111L250.516 409.969L263.325 409.079L268.448 408.239L271.01 407.92L273.572 407.286L276.134 406.192L278.695 404.699L281.257 402.956L282.538 401.974L283.819 400.801L285.1 399.269L286.38 397.175L287.661 394.346L288.942 390.699L290.223 386.269L292.785 375.455L299.189 345.102L300.47 341.374L301.751 339.486L303.032 339.432L304.312 340.763L310.717 351.048L311.998 352.655L313.278 353.733L314.559 354.1L315.84 353.775L317.121 352.833L318.402 351.209L319.683 348.736L320.964 345.404L323.525 337.135L324.806 332.22L326.087 326.007L327.368 317.582L328.649 306.155L329.93 291.146L331.21 272.205L332.491 249.458L337.615 145.378L338.896 124.607L340.176 109.484L341.457 101.441L342.738 101.174L344.019 108.641L345.3 123.28L346.581 144.017L349.142 196.428L351.704 249.42L354.266 293.891L355.547 312.338L356.828 328.166L358.109 341.458L359.389 352.526L360.67 361.827L361.951 369.769L363.232 376.542L364.513 382.147L365.794 386.576L367.074 389.974L368.355 392.611L369.636 394.73L370.917 396.48L372.198 397.944L374.76 400.247L378.602 402.97L381.164 404.503L383.726 405.756L386.287 406.621L391.411 407.984L393.973 408.639L396.534 408.913L401.658 409.32L405.5 409.577L411.905 409.659L417.028 410.023L422.151 410.075L432.398 410.053L440.083 410.045L452.892 409.939L472.105 410.012L477.228 410.04L482.352 410.111" fill="#EFEFEF" fill-opacity="0.4"/>
<path d="M227.461 410.111L250.516 409.969L263.325 409.079L268.448 408.239L271.01 407.92L273.572 407.286L276.134 406.192L278.695 404.699L281.257 402.956L282.538 401.974L283.819 400.801L285.1 399.269L286.38 397.175L287.661 394.346L288.942 390.699L290.223 386.269L292.785 375.455L299.189 345.102L300.47 341.374L301.751 339.486L303.032 339.432L304.312 340.763L310.717 351.048L311.998 352.655L313.278 353.733L314.559 354.1L315.84 353.775L317.121 352.833L318.402 351.209L319.683 348.736L320.964 345.404L323.525 337.135L324.806 332.22L326.087 326.007L327.368 317.582L328.649 306.155L329.93 291.146L331.21 272.205L332.491 249.458L337.615 145.378L338.896 124.607L340.176 109.484L341.457 101.441L342.738 101.174L344.019 108.641L345.3 123.28L346.581 144.017L349.142 196.428L351.704 249.42L354.266 293.891L355.547 312.338L356.828 328.166L358.109 341.458L359.389 352.526L360.67 361.827L361.951 369.769L363.232 376.542L364.513 382.147L365.794 386.576L367.074 389.974L368.355 392.611L369.636 394.73L370.917 396.48L372.198 397.944L374.76 400.247L378.602 402.97L381.164 404.503L383.726 405.756L386.287 406.621L391.411 407.984L393.973 408.639L396.534 408.913L401.658 409.32L405.5 409.577L411.905 409.659L417.028 410.023L422.151 410.075L432.398 410.053L440.083 410.045L452.892 409.939L472.105 410.012L477.228 410.04L482.352 410.111" stroke="#EFEFEF" stroke-linecap="square"/>
</g>
<mask id="mask6_230_8318" style="mask-type:luminance" maskUnits="userSpaceOnUse" x="76" y="55" width="477" height="356">
<path d="M552.957 55.2959H76.7969V410.112H552.957V55.2959Z" fill="white"/>
</mask>
<g mask="url(#mask6_230_8318)">
<path d="M255.953 410.111L261.908 409.966L266.671 409.829L271.435 409.966L275.007 410.025L278.58 409.823L284.534 408.863L289.298 409.404L291.68 409.139L294.061 408.371L296.443 406.972L301.207 403.279L302.397 402.252L303.588 400.969L304.779 399.277L305.97 397.024L307.161 394.067L308.352 390.268L309.543 385.457L310.734 379.419L311.925 371.955L313.115 363.006L315.497 341.726L319.07 309.014L325.024 260.112L327.406 241.782L333.36 202.829L335.742 185.833L336.933 178.612L338.124 173.591L339.315 171.541L340.506 172.753L341.697 176.927L342.887 183.232L345.269 199.006L347.651 218.282L351.224 250.617L353.605 268.677L355.987 284.344L359.56 305.07L364.323 331.676L370.278 363.355L372.659 374.505L373.85 378.872L375.041 382.364L376.232 385.167L377.423 387.439L385.759 400.756L386.95 402.135L388.141 403.157L389.332 403.863L397.668 407.166L400.05 407.58L403.622 407.994L410.768 409.552L413.149 409.688L422.676 409.901L434.585 409.94L440.54 410.057L445.303 410.006L448.876 409.985L454.83 410.064L460.784 410.088L476.266 410.112L492.938 410.111" fill="#EFEFEF" fill-opacity="0.4"/>
<path d="M255.953 410.111L261.908 409.966L266.671 409.829L271.435 409.966L275.007 410.025L278.58 409.823L284.534 408.863L289.298 409.404L291.68 409.139L294.061 408.371L296.443 406.972L301.207 403.279L302.397 402.252L303.588 400.969L304.779 399.277L305.97 397.024L307.161 394.067L308.352 390.268L309.543 385.457L310.734 379.419L311.925 371.955L313.115 363.006L315.497 341.726L319.07 309.014L325.024 260.112L327.406 241.782L333.36 202.829L335.742 185.833L336.933 178.612L338.124 173.591L339.315 171.541L340.506 172.753L341.697 176.927L342.887 183.232L345.269 199.006L347.651 218.282L351.224 250.617L353.605 268.677L355.987 284.344L359.56 305.07L364.323 331.676L370.278 363.355L372.659 374.505L373.85 378.872L375.041 382.364L376.232 385.167L377.423 387.439L385.759 400.756L386.95 402.135L388.141 403.157L389.332 403.863L397.668 407.166L400.05 407.58L403.622 407.994L410.768 409.552L413.149 409.688L422.676 409.901L434.585 409.94L440.54 410.057L445.303 410.006L448.876 409.985L454.83 410.064L460.784 410.088L476.266 410.112L492.938 410.111" stroke="#EFEFEF" stroke-linecap="square"/>
</g>
<mask id="mask7_230_8318" style="mask-type:luminance" maskUnits="userSpaceOnUse" x="76" y="55" width="477" height="356">
<path d="M552.957 55.2959H76.7969V410.112H552.957V55.2959Z" fill="white"/>
</mask>
<g mask="url(#mask7_230_8318)">
<path d="M199.68 410.111L208.156 409.979L215.219 409.736L218.045 409.298L220.87 408.497L223.695 407.422L227.933 405.356L230.759 403.878L232.171 403.014L233.584 401.96L236.41 399.215L242.06 392.717L243.473 390.943L244.886 388.9L246.298 386.495L249.124 380.815L260.425 355.769L264.663 343.926L267.489 335.992L268.901 331.334L270.314 325.901L273.139 313.312L278.79 286.974L281.615 275.037L284.441 265.038L287.266 255.602L290.092 245.414L291.504 240.851L292.917 237.001L294.33 233.863L295.742 231.444L297.155 229.856L298.568 229.237L299.98 229.65L301.393 231.045L302.806 233.354L304.218 236.682L305.631 241.339L307.044 247.6L308.456 255.364L314.107 290.693L316.933 310.099L321.171 340.961L323.996 359.588L326.821 375.721L328.234 382.507L329.647 388.351L331.059 393.285L332.472 397.356L333.885 400.562L335.297 402.906L336.71 404.492L338.123 405.535L339.536 406.253L340.948 406.768L343.774 407.369L353.662 408.679L359.313 408.787L363.551 409.254L366.377 409.248L369.202 409.213L381.916 409.904L404.519 409.849L408.757 409.894L418.646 409.812L444.074 410.043L455.376 409.952L472.328 410.052L480.804 410.111" fill="#EFEFEF" fill-opacity="0.4"/>
<path d="M199.68 410.111L208.156 409.979L215.219 409.736L218.045 409.298L220.87 408.497L223.695 407.422L227.933 405.356L230.759 403.878L232.171 403.014L233.584 401.96L236.41 399.215L242.06 392.717L243.473 390.943L244.886 388.9L246.298 386.495L249.124 380.815L260.425 355.769L264.663 343.926L267.489 335.992L268.901 331.334L270.314 325.901L273.139 313.312L278.79 286.974L281.615 275.037L284.441 265.038L287.266 255.602L290.092 245.414L291.504 240.851L292.917 237.001L294.33 233.863L295.742 231.444L297.155 229.856L298.568 229.237L299.98 229.65L301.393 231.045L302.806 233.354L304.218 236.682L305.631 241.339L307.044 247.6L308.456 255.364L314.107 290.693L316.933 310.099L321.171 340.961L323.996 359.588L326.821 375.721L328.234 382.507L329.647 388.351L331.059 393.285L332.472 397.356L333.885 400.562L335.297 402.906L336.71 404.492L338.123 405.535L339.536 406.253L340.948 406.768L343.774 407.369L353.662 408.679L359.313 408.787L363.551 409.254L366.377 409.248L369.202 409.213L381.916 409.904L404.519 409.849L408.757 409.894L418.646 409.812L444.074 410.043L455.376 409.952L472.328 410.052L480.804 410.111" stroke="#EFEFEF" stroke-linecap="square"/>
</g>
<mask id="mask8_230_8318" style="mask-type:luminance" maskUnits="userSpaceOnUse" x="76" y="55" width="477" height="356">
<path d="M552.957 55.2959H76.7969V410.112H552.957V55.2959Z" fill="white"/>
</mask>
<g mask="url(#mask8_230_8318)">
<path d="M255.961 410.111L261.655 410.008L268.488 409.658L274.182 409.935L276.46 409.764L278.737 409.206L282.154 407.967L284.431 407.638L287.848 407.398L291.264 406.756L293.542 406.046L294.68 405.411L295.819 404.326L296.958 402.534L298.097 399.845L299.236 396.168L300.375 391.507L302.652 379.92L304.93 368.038L306.069 363.112L307.207 359.183L308.346 356.266L309.485 354.193L311.763 350.896L312.901 348.547L314.04 345.125L315.179 340.469L316.318 334.595L317.457 327.484L318.595 318.812L319.734 307.803L320.873 293.396L322.012 274.68L323.151 251.294L325.428 192.804L327.706 130.39L328.845 104.862L329.984 87.6519L331.122 81.2744L332.261 86.3598L333.4 101.377L334.539 123.248L337.955 197.453L339.094 218.138L340.233 235.401L341.372 249.059L342.51 259.249L343.649 266.484L344.788 271.555L347.066 278.718L348.205 282.303L349.343 286.496L351.621 296.676L358.454 330.599L360.731 343.489L363.009 357.326L364.148 363.043L365.287 367.689L366.425 371.445L367.564 374.457L368.703 376.821L370.981 380.439L373.258 384.116L377.814 392.292L378.952 393.858L381.23 396.233L384.646 399.316L386.924 400.967L390.34 402.901L393.757 404.85L397.173 406.831L399.451 407.716L401.729 408.349L404.006 408.699L410.839 409.315L416.533 409.38L426.782 409.92L440.448 409.993L450.697 410.104L459.808 410.019L464.363 410.014L471.196 410.095L480.306 410.103L482.584 410.111" fill="#EFEFEF" fill-opacity="0.4"/>
<path d="M255.961 410.111L261.655 410.008L268.488 409.658L274.182 409.935L276.46 409.764L278.737 409.206L282.154 407.967L284.431 407.638L287.848 407.398L291.264 406.756L293.542 406.046L294.68 405.411L295.819 404.326L296.958 402.534L298.097 399.845L299.236 396.168L300.375 391.507L302.652 379.92L304.93 368.038L306.069 363.112L307.207 359.183L308.346 356.266L309.485 354.193L311.763 350.896L312.901 348.547L314.04 345.125L315.179 340.469L316.318 334.595L317.457 327.484L318.595 318.812L319.734 307.803L320.873 293.396L322.012 274.68L323.151 251.294L325.428 192.804L327.706 130.39L328.845 104.862L329.984 87.6519L331.122 81.2744L332.261 86.3598L333.4 101.377L334.539 123.248L337.955 197.453L339.094 218.138L340.233 235.401L341.372 249.059L342.51 259.249L343.649 266.484L344.788 271.555L347.066 278.718L348.205 282.303L349.343 286.496L351.621 296.676L358.454 330.599L360.731 343.489L363.009 357.326L364.148 363.043L365.287 367.689L366.425 371.445L367.564 374.457L368.703 376.821L370.981 380.439L373.258 384.116L377.814 392.292L378.952 393.858L381.23 396.233L384.646 399.316L386.924 400.967L390.34 402.901L393.757 404.85L397.173 406.831L399.451 407.716L401.729 408.349L404.006 408.699L410.839 409.315L416.533 409.38L426.782 409.92L440.448 409.993L450.697 410.104L459.808 410.019L464.363 410.014L471.196 410.095L480.306 410.103L482.584 410.111" stroke="#EFEFEF" stroke-linecap="square"/>
</g>
<mask id="mask9_230_8318" style="mask-type:luminance" maskUnits="userSpaceOnUse" x="76" y="55" width="477" height="356">
<path d="M552.957 55.2959H76.7969V410.112H552.957V55.2959Z" fill="white"/>
</mask>
<g mask="url(#mask9_230_8318)">
<path d="M222.781 410.111L259.894 409.958L271.771 409.46L273.255 409.076L274.74 408.003L276.224 405.52L277.709 400.529L279.193 391.828L280.678 378.776L282.162 361.951L285.131 324.855L286.616 308.649L288.101 295.163L289.585 284.023L292.554 265.565L297.008 239.332L298.492 228.376L299.977 214.539L304.43 166.012L305.915 154.837L307.399 148.84L308.884 148.676L310.368 154.477L311.853 165.774L313.338 181.481L316.307 220.133L319.276 260.405L320.76 278.877L322.245 295.157L323.729 308.977L325.214 320.619L326.698 330.582L328.183 339.295L329.667 346.999L331.152 353.721L332.636 359.345L334.121 363.83L335.605 367.384L338.575 373.232L340.059 375.903L341.544 378.233L343.028 380.042L344.513 381.331L347.482 383.084L353.42 386.46L354.904 387.459L359.358 391.273L360.842 392.046L363.812 392.953L365.296 393.64L368.265 395.666L378.657 402.906L380.141 403.57L386.079 405.341L389.049 406.604L390.533 407.037L394.987 407.61L402.409 408.563L406.863 408.932L412.801 409.459L417.255 409.765L421.708 409.641L426.162 409.491L435.069 409.781L439.523 409.639L458.821 410.004L463.275 410.061L485.543 410.018L518.203 410.111" fill="#EFEFEF" fill-opacity="0.4"/>
<path d="M222.781 410.111L259.894 409.958L271.771 409.46L273.255 409.076L274.74 408.003L276.224 405.52L277.709 400.529L279.193 391.828L280.678 378.776L282.162 361.951L285.131 324.855L286.616 308.649L288.101 295.163L289.585 284.023L292.554 265.565L297.008 239.332L298.492 228.376L299.977 214.539L304.43 166.012L305.915 154.837L307.399 148.84L308.884 148.676L310.368 154.477L311.853 165.774L313.338 181.481L316.307 220.133L319.276 260.405L320.76 278.877L322.245 295.157L323.729 308.977L325.214 320.619L326.698 330.582L328.183 339.295L329.667 346.999L331.152 353.721L332.636 359.345L334.121 363.83L335.605 367.384L338.575 373.232L340.059 375.903L341.544 378.233L343.028 380.042L344.513 381.331L347.482 383.084L353.42 386.46L354.904 387.459L359.358 391.273L360.842 392.046L363.812 392.953L365.296 393.64L368.265 395.666L378.657 402.906L380.141 403.57L386.079 405.341L389.049 406.604L390.533 407.037L394.987 407.61L402.409 408.563L406.863 408.932L412.801 409.459L417.255 409.765L421.708 409.641L426.162 409.491L435.069 409.781L439.523 409.639L458.821 410.004L463.275 410.061L485.543 410.018L518.203 410.111" stroke="#EFEFEF" stroke-linecap="square"/>
</g>
<mask id="mask10_230_8318" style="mask-type:luminance" maskUnits="userSpaceOnUse" x="76" y="55" width="477" height="356">
<path d="M552.957 55.2959H76.7969V410.112H552.957V55.2959Z" fill="white"/>
</mask>
<g mask="url(#mask10_230_8318)">
<path d="M253.141 410.111L259.578 409.976L264.728 409.939L275.028 409.889L284.04 409.47L287.903 408.623L290.478 407.553L291.765 406.792L293.052 405.815L294.34 404.393L295.627 402.2L296.915 399.026L298.202 394.913L299.49 390.017L300.777 384.324L302.065 377.518L303.352 369.003L304.64 358.191L307.215 331.09L312.365 275.756L314.94 242.378L316.227 225.198L317.515 210.039L318.802 197.607L320.09 187.129L321.377 178.001L322.664 170.768L323.952 166.214L325.239 164.551L326.527 165.648L327.814 169.059L331.677 182.9L332.964 188.675L334.252 196.815L335.539 207.357L340.689 256.144L341.977 266.208L343.264 274.509L345.839 289.165L347.127 297.859L350.989 327.451L353.564 343.008L354.851 349.804L356.139 355.768L361.289 376.19L362.576 380.775L363.864 384.347L365.151 387.035L366.439 389.204L371.589 396.83L372.876 399.162L374.164 401.026L375.451 402.115L378.026 403.25L380.601 405.05L381.889 405.913L384.464 407.023L387.038 407.781L389.613 408.139L394.763 408.443L398.626 409.048L403.776 409.293L408.926 409.841L412.788 409.8L416.65 409.805L421.8 409.712L425.663 409.727L429.525 409.888L433.388 409.717L437.25 409.573L442.4 409.609L447.55 409.818L487.462 410.057L496.474 410.03L509.349 410.111" fill="#EFEFEF" fill-opacity="0.4"/>
<path d="M253.141 410.111L259.578 409.976L264.728 409.939L275.028 409.889L284.04 409.47L287.903 408.623L290.478 407.553L291.765 406.792L293.052 405.815L294.34 404.393L295.627 402.2L296.915 399.026L298.202 394.913L299.49 390.017L300.777 384.324L302.065 377.518L303.352 369.003L304.64 358.191L307.215 331.09L312.365 275.756L314.94 242.378L316.227 225.198L317.515 210.039L318.802 197.607L320.09 187.129L321.377 178.001L322.664 170.768L323.952 166.214L325.239 164.551L326.527 165.648L327.814 169.059L331.677 182.9L332.964 188.675L334.252 196.815L335.539 207.357L340.689 256.144L341.977 266.208L343.264 274.509L345.839 289.165L347.127 297.859L350.989 327.451L353.564 343.008L354.851 349.804L356.139 355.768L361.289 376.19L362.576 380.775L363.864 384.347L365.151 387.035L366.439 389.204L371.589 396.83L372.876 399.162L374.164 401.026L375.451 402.115L378.026 403.25L380.601 405.05L381.889 405.913L384.464 407.023L387.038 407.781L389.613 408.139L394.763 408.443L398.626 409.048L403.776 409.293L408.926 409.841L412.788 409.8L416.65 409.805L421.8 409.712L425.663 409.727L429.525 409.888L433.388 409.717L437.25 409.573L442.4 409.609L447.55 409.818L487.462 410.057L496.474 410.03L509.349 410.111" stroke="#EFEFEF" stroke-linecap="square"/>
</g>
<mask id="mask11_230_8318" style="mask-type:luminance" maskUnits="userSpaceOnUse" x="76" y="55" width="477" height="356">
<path d="M552.957 55.2959H76.7969V410.112H552.957V55.2959Z" fill="white"/>
</mask>
<g mask="url(#mask11_230_8318)">
<path d="M230.352 410.111L240.611 409.938L247.939 409.44L250.87 409.603L253.801 409.166L256.733 408.727L261.129 408.487L262.595 408.092L264.061 407.519L268.457 405.39L271.389 405.005L272.854 404.499L274.32 403.498L275.785 401.928L280.182 395.518L281.648 394.155L283.114 392.508L284.579 389.953L288.976 380.724L290.442 376.601L291.907 371.205L293.373 364.952L294.838 357.779L297.77 340.115L299.235 330.465L300.701 319.582L302.166 306.067L306.563 258.231L309.495 230.987L310.96 214.955L313.891 176.398L316.823 136.205L319.754 102.078L321.219 90.5828L322.685 88.3164L324.151 96.1134L325.616 111.297L327.082 132.393L328.547 159.824L334.41 288.818L335.876 313.284L337.341 333.431L338.807 349.644L340.272 362.592L341.738 372.929L343.204 381.521L344.669 388.928L346.135 394.965L347.6 399.361L349.066 402.369L350.532 404.368L351.997 405.498L354.928 406.42L357.86 408.13L359.325 408.577L363.722 408.398L373.981 409.635L376.913 409.607L379.844 409.247L382.775 409.368L390.103 409.916L393.034 409.871L397.431 409.485L403.294 409.731L406.225 409.754L413.553 410.015L416.484 409.994L420.881 409.849L428.209 410.056L432.606 410.066L437.003 410.038L442.865 410.017L445.796 410.005L448.728 409.857L460.452 410.105L488.299 410.075L492.696 410.049L500.024 410.112L522.008 410.111" fill="#EFEFEF" fill-opacity="0.4"/>
<path d="M230.352 410.111L240.611 409.938L247.939 409.44L250.87 409.603L253.801 409.166L256.733 408.727L261.129 408.487L262.595 408.092L264.061 407.519L268.457 405.39L271.389 405.005L272.854 404.499L274.32 403.498L275.785 401.928L280.182 395.518L281.648 394.155L283.114 392.508L284.579 389.953L288.976 380.724L290.442 376.601L291.907 371.205L293.373 364.952L294.838 357.779L297.77 340.115L299.235 330.465L300.701 319.582L302.166 306.067L306.563 258.231L309.495 230.987L310.96 214.955L313.891 176.398L316.823 136.205L319.754 102.078L321.219 90.5828L322.685 88.3164L324.151 96.1134L325.616 111.297L327.082 132.393L328.547 159.824L334.41 288.818L335.876 313.284L337.341 333.431L338.807 349.644L340.272 362.592L341.738 372.929L343.204 381.521L344.669 388.928L346.135 394.965L347.6 399.361L349.066 402.369L350.532 404.368L351.997 405.498L354.928 406.42L357.86 408.13L359.325 408.577L363.722 408.398L373.981 409.635L376.913 409.607L379.844 409.247L382.775 409.368L390.103 409.916L393.034 409.871L397.431 409.485L403.294 409.731L406.225 409.754L413.553 410.015L416.484 409.994L420.881 409.849L428.209 410.056L432.606 410.066L437.003 410.038L442.865 410.017L445.796 410.005L448.728 409.857L460.452 410.105L488.299 410.075L492.696 410.049L500.024 410.112L522.008 410.111" stroke="#EFEFEF" stroke-linecap="square"/>
</g>
<mask id="mask12_230_8318" style="mask-type:luminance" maskUnits="userSpaceOnUse" x="76" y="55" width="477" height="356">
<path d="M552.957 55.2959H76.7969V410.112H552.957V55.2959Z" fill="white"/>
</mask>
<g mask="url(#mask12_230_8318)">
<path d="M234.586 410.111L260.718 409.905L267.251 409.738L273.784 409.916L276.397 409.584L281.623 408.562L285.543 407.84L288.156 407.218L289.463 406.764L290.77 406.036L298.609 400.117L299.916 398.732L301.222 397.06L302.529 394.879L303.835 392.026L305.142 388.508L309.062 376.163L310.368 371.572L311.675 366.086L312.982 358.909L314.288 349.529L316.901 325.683L319.515 297.508L326.048 223.297L328.661 199.837L331.274 177.626L332.581 168.97L333.887 164.341L335.194 163.849L336.5 166.295L340.42 177.884L341.727 183.034L343.033 190.872L345.647 212.485L349.566 246.009L352.179 270.097L354.793 290.973L360.019 330.314L362.632 346.789L365.245 361.298L367.859 373.425L369.165 378.627L370.472 383.13L371.778 386.752L373.085 389.437L379.618 399.292L380.925 401.144L382.231 402.736L383.538 403.973L384.844 404.853L387.458 406.279L390.071 407.977L391.377 408.59L392.684 408.9L396.604 409.065L399.217 409.294L401.83 409.596L429.269 410.008L452.787 410.049L459.32 410.102L473.693 410.033L494.598 410.111" fill="#EFEFEF" fill-opacity="0.4"/>
<path d="M234.586 410.111L260.718 409.905L267.251 409.738L273.784 409.916L276.397 409.584L281.623 408.562L285.543 407.84L288.156 407.218L289.463 406.764L290.77 406.036L298.609 400.117L299.916 398.732L301.222 397.06L302.529 394.879L303.835 392.026L305.142 388.508L309.062 376.163L310.368 371.572L311.675 366.086L312.982 358.909L314.288 349.529L316.901 325.683L319.515 297.508L326.048 223.297L328.661 199.837L331.274 177.626L332.581 168.97L333.887 164.341L335.194 163.849L336.5 166.295L340.42 177.884L341.727 183.034L343.033 190.872L345.647 212.485L349.566 246.009L352.179 270.097L354.793 290.973L360.019 330.314L362.632 346.789L365.245 361.298L367.859 373.425L369.165 378.627L370.472 383.13L371.778 386.752L373.085 389.437L379.618 399.292L380.925 401.144L382.231 402.736L383.538 403.973L384.844 404.853L387.458 406.279L390.071 407.977L391.377 408.59L392.684 408.9L396.604 409.065L399.217 409.294L401.83 409.596L429.269 410.008L452.787 410.049L459.32 410.102L473.693 410.033L494.598 410.111" stroke="#EFEFEF" stroke-linecap="square"/>
</g>
<mask id="mask13_230_8318" style="mask-type:luminance" maskUnits="userSpaceOnUse" x="76" y="55" width="477" height="356">
<path d="M552.957 55.2959H76.7969V410.112H552.957V55.2959Z" fill="white"/>
</mask>
<g mask="url(#mask13_230_8318)">
<path d="M254.508 410.111L277.428 409.92L283.46 409.675L287.079 409.537L289.492 409.046L293.111 407.735L294.317 406.834L295.523 405.172L296.73 402.508L297.936 398.716L299.142 393.676L300.349 387.313L301.555 379.613L302.761 370.451L303.968 359.538L306.38 332.517L308.793 301.828L313.618 238.465L318.444 181.085L319.65 170.532L320.856 164.44L322.063 161.674L323.269 159.409L325.682 151.917L326.888 150.358L328.094 152.588L329.301 158.022L330.507 165.328L331.713 173.789L334.126 193.868L337.745 227.102L342.57 276.309L344.983 296.052L348.602 322.492L351.015 339.289L352.221 346.738L353.427 353.031L355.84 363.054L358.253 372.407L359.459 376.398L360.665 379.578L364.284 388.122L365.491 391.01L366.697 393.496L367.903 395.472L369.11 397.003L373.935 401.821L376.348 403.935L378.76 405.46L381.173 406.546L385.998 408.522L387.205 408.693L389.617 408.385L390.824 408.245L392.03 408.284L398.062 409.248L405.3 409.467L408.919 409.645L429.426 410.048L440.283 409.916L443.902 410.084L454.759 409.957L458.378 410.06L464.41 410.092L474.061 410.088L480.092 410.073L486.124 410.058L490.949 410.076L494.568 410.111" fill="#EFEFEF" fill-opacity="0.4"/>
<path d="M254.508 410.111L277.428 409.92L283.46 409.675L287.079 409.537L289.492 409.046L293.111 407.735L294.317 406.834L295.523 405.172L296.73 402.508L297.936 398.716L299.142 393.676L300.349 387.313L301.555 379.613L302.761 370.451L303.968 359.538L306.38 332.517L308.793 301.828L313.618 238.465L318.444 181.085L319.65 170.532L320.856 164.44L322.063 161.674L323.269 159.409L325.682 151.917L326.888 150.358L328.094 152.588L329.301 158.022L330.507 165.328L331.713 173.789L334.126 193.868L337.745 227.102L342.57 276.309L344.983 296.052L348.602 322.492L351.015 339.289L352.221 346.738L353.427 353.031L355.84 363.054L358.253 372.407L359.459 376.398L360.665 379.578L364.284 388.122L365.491 391.01L366.697 393.496L367.903 395.472L369.11 397.003L373.935 401.821L376.348 403.935L378.76 405.46L381.173 406.546L385.998 408.522L387.205 408.693L389.617 408.385L390.824 408.245L392.03 408.284L398.062 409.248L405.3 409.467L408.919 409.645L429.426 410.048L440.283 409.916L443.902 410.084L454.759 409.957L458.378 410.06L464.41 410.092L474.061 410.088L480.092 410.073L486.124 410.058L490.949 410.076L494.568 410.111" stroke="#EFEFEF" stroke-linecap="square"/>
</g>
<mask id="mask14_230_8318" style="mask-type:luminance" maskUnits="userSpaceOnUse" x="76" y="55" width="477" height="356">
<path d="M552.957 55.2959H76.7969V410.112H552.957V55.2959Z" fill="white"/>
</mask>
<g mask="url(#mask14_230_8318)">
<path d="M98.4375 410.112L164.17 409.939L168.278 409.505L172.387 408.637L176.495 407.301L178.549 406.392L180.603 405.227L182.657 403.701L184.712 401.715L186.766 399.222L188.82 396.241L190.874 392.81L192.928 388.925L194.982 384.517L197.036 379.525L201.145 368.105L215.524 326.332L217.578 321.252L219.632 317.188L221.686 314.211L223.74 312.126L225.794 310.666L227.849 309.73L229.903 309.437L231.957 309.935L234.011 311.172L238.119 314.421L240.173 315.64L242.228 316.395L250.444 318.267L252.498 319.066L254.552 320.05L256.607 321.229L260.715 324.097L264.823 327.088L268.931 329.611L273.04 332.141L275.094 333.682L277.148 335.485L279.202 337.587L281.256 340.034L285.365 345.841L293.581 358.345L297.689 365.607L301.798 372.906L305.906 379.43L307.96 382.413L310.014 385.127L312.068 387.491L314.123 389.514L318.231 392.976L322.339 396.129L324.393 397.48L326.448 398.608L330.556 400.402L334.664 401.965L338.772 403.259L344.935 405.117L349.043 406.398L353.151 407.361L357.26 407.954L367.53 408.875L375.747 409.344L386.018 409.663L418.884 409.993L507.212 410.112" fill="#7EB0D5" fill-opacity="0.4"/>
<path d="M98.4375 410.112L164.17 409.939L168.278 409.505L172.387 408.637L176.495 407.301L178.549 406.392L180.603 405.227L182.657 403.701L184.712 401.715L186.766 399.222L188.82 396.241L190.874 392.81L192.928 388.925L194.982 384.517L197.036 379.525L201.145 368.105L215.524 326.332L217.578 321.252L219.632 317.188L221.686 314.211L223.74 312.126L225.794 310.666L227.849 309.73L229.903 309.437L231.957 309.935L234.011 311.172L238.119 314.421L240.173 315.64L242.228 316.395L250.444 318.267L252.498 319.066L254.552 320.05L256.607 321.229L260.715 324.097L264.823 327.088L268.931 329.611L273.04 332.141L275.094 333.682L277.148 335.485L279.202 337.587L281.256 340.034L285.365 345.841L293.581 358.345L297.689 365.607L301.798 372.906L305.906 379.43L307.96 382.413L310.014 385.127L312.068 387.491L314.123 389.514L318.231 392.976L322.339 396.129L324.393 397.48L326.448 398.608L330.556 400.402L334.664 401.965L338.772 403.259L344.935 405.117L349.043 406.398L353.151 407.361L357.26 407.954L367.53 408.875L375.747 409.344L386.018 409.663L418.884 409.993L507.212 410.112" stroke="#7EB0D5" stroke-linecap="square"/>
</g>
<path d="M535.061 411.061C535.646 410.475 535.646 409.525 535.061 408.939L525.515 399.393C524.929 398.808 523.979 398.808 523.393 399.393C522.808 399.979 522.808 400.929 523.393 401.515L531.879 410L523.393 418.485C522.808 419.071 522.808 420.021 523.393 420.607C523.979 421.192 524.929 421.192 525.515 420.607L535.061 411.061ZM79 411.5H534V408.5H79V411.5Z" fill="black"/>
</g>
<defs>
<clipPath id="clip0_230_8318">
<rect width="614.4" height="460.8" fill="white"/>
</clipPath>
</defs>
</svg>
