<svg width="615" height="461" viewBox="0 0 615 461" fill="none" xmlns="http://www.w3.org/2000/svg">
<g clip-path="url(#clip0_230_8958)">
<mask id="mask0_230_8958" style="mask-type:luminance" maskUnits="userSpaceOnUse" x="76" y="55" width="477" height="356">
<path d="M552.957 55.2959H76.7969V410.112H552.957V55.2959Z" fill="white"/>
</mask>
<g mask="url(#mask0_230_8958)">
<path d="M199.461 410.11L206.113 409.975L211.815 409.904L215.616 409.732L221.318 409.082L223.218 408.946L225.119 409.098L227.97 409.449L230.82 409.385L236.522 408.897L238.423 408.495L240.323 407.702L243.174 406.398L246.975 405.209L248.876 403.892L255.528 398.086L257.428 395.814L261.23 390.429L263.13 387.238L265.031 383.343L266.931 378.364L267.882 375.188L268.832 371.397L270.732 361.883L272.633 350.471L274.534 337.751L276.434 322.405L278.335 303.405L286.887 208.768L289.738 177.074L292.589 147.016L294.49 130.526L295.44 124.356L296.39 119.45L297.34 115.48L299.241 109.309L300.191 106.94L301.142 105.116L302.092 103.911L303.042 103.358L303.992 103.475L304.943 104.315L305.893 106.038L306.843 108.903L307.794 113.192L308.744 119.076L309.694 126.504L311.595 144.613L314.446 172.751L325.849 273.871L330.601 309.113L332.501 321.066L338.203 353.326L340.103 362.316L342.004 369.995L343.905 376.83L345.805 382.695L347.706 387.496L349.606 391.513L351.507 395.058L353.407 398.09L355.308 400.319L357.209 401.785L361.96 404.902L364.811 406.911L366.711 407.898L368.612 408.456L375.264 409.619L378.115 409.906L385.717 410.094L388.568 410.11" fill="#EFEFEF" fill-opacity="0.4"/>
<path d="M199.461 410.11L206.113 409.975L211.815 409.904L215.616 409.732L221.318 409.082L223.218 408.946L225.119 409.098L227.97 409.449L230.82 409.385L236.522 408.897L238.423 408.495L240.323 407.702L243.174 406.398L246.975 405.209L248.876 403.892L255.528 398.086L257.428 395.814L261.23 390.429L263.13 387.238L265.031 383.343L266.931 378.364L267.882 375.188L268.832 371.397L270.732 361.883L272.633 350.471L274.534 337.751L276.434 322.405L278.335 303.405L286.887 208.768L289.738 177.074L292.589 147.016L294.49 130.526L295.44 124.356L296.39 119.45L297.34 115.48L299.241 109.309L300.191 106.94L301.142 105.116L302.092 103.911L303.042 103.358L303.992 103.475L304.943 104.315L305.893 106.038L306.843 108.903L307.794 113.192L308.744 119.076L309.694 126.504L311.595 144.613L314.446 172.751L325.849 273.871L330.601 309.113L332.501 321.066L338.203 353.326L340.103 362.316L342.004 369.995L343.905 376.83L345.805 382.695L347.706 387.496L349.606 391.513L351.507 395.058L353.407 398.09L355.308 400.319L357.209 401.785L361.96 404.902L364.811 406.911L366.711 407.898L368.612 408.456L375.264 409.619L378.115 409.906L385.717 410.094L388.568 410.11" stroke="#EFEFEF" stroke-linecap="square"/>
</g>
<mask id="mask1_230_8958" style="mask-type:luminance" maskUnits="userSpaceOnUse" x="76" y="55" width="477" height="356">
<path d="M552.957 55.2959H76.7969V410.112H552.957V55.2959Z" fill="white"/>
</mask>
<g mask="url(#mask1_230_8958)">
<path d="M218.703 410.111L240.358 409.978L246.057 409.838L251.755 409.78L255.174 409.42L257.454 408.929L260.873 407.847L265.432 406.03L268.851 404.39L271.131 403.092L273.41 401.416L275.69 399.068L277.969 396.057L281.388 390.954L282.528 389.008L283.668 386.757L284.807 384.071L285.947 380.865L288.227 372.995L291.646 359.36L293.925 349.454L296.205 337.451L298.484 322.471L301.903 296.38L307.602 251.365L309.881 236.08L312.161 224.267L317.86 200.167L320.139 190.791L321.279 186.732L322.418 183.411L323.558 181.046L324.698 179.757L325.838 179.492L326.977 180.017L329.257 182.188L331.536 184.965L332.676 186.891L333.816 189.454L334.955 192.712L337.235 200.662L339.514 208.632L345.213 226.761L347.493 236.625L356.61 280.138L365.728 329.15L368.008 338.882L370.287 346.562L372.567 352.61L375.986 361.315L378.265 368.209L381.684 378.598L383.964 384.023L386.243 388.396L388.523 392.196L390.802 395.241L393.082 397.515L398.78 402.278L402.2 404.795L404.479 406.092L407.898 407.548L410.178 408.255L412.457 408.692L427.274 410.092L445.509 410.111" fill="#EFEFEF" fill-opacity="0.4"/>
<path d="M218.703 410.111L240.358 409.978L246.057 409.838L251.755 409.78L255.174 409.42L257.454 408.929L260.873 407.847L265.432 406.03L268.851 404.39L271.131 403.092L273.41 401.416L275.69 399.068L277.969 396.057L281.388 390.954L282.528 389.008L283.668 386.757L284.807 384.071L285.947 380.865L288.227 372.995L291.646 359.36L293.925 349.454L296.205 337.451L298.484 322.471L301.903 296.38L307.602 251.365L309.881 236.08L312.161 224.267L317.86 200.167L320.139 190.791L321.279 186.732L322.418 183.411L323.558 181.046L324.698 179.757L325.838 179.492L326.977 180.017L329.257 182.188L331.536 184.965L332.676 186.891L333.816 189.454L334.955 192.712L337.235 200.662L339.514 208.632L345.213 226.761L347.493 236.625L356.61 280.138L365.728 329.15L368.008 338.882L370.287 346.562L372.567 352.61L375.986 361.315L378.265 368.209L381.684 378.598L383.964 384.023L386.243 388.396L388.523 392.196L390.802 395.241L393.082 397.515L398.78 402.278L402.2 404.795L404.479 406.092L407.898 407.548L410.178 408.255L412.457 408.692L427.274 410.092L445.509 410.111" stroke="#EFEFEF" stroke-linecap="square"/>
</g>
<mask id="mask2_230_8958" style="mask-type:luminance" maskUnits="userSpaceOnUse" x="76" y="55" width="477" height="356">
<path d="M552.957 55.2959H76.7969V410.112H552.957V55.2959Z" fill="white"/>
</mask>
<g mask="url(#mask2_230_8958)">
<path d="M231.844 410.11L237.678 409.963L242.346 409.758L249.348 409.862L254.016 409.32L258.684 408.751L261.017 408.693L264.518 408.729L266.852 408.316L269.186 407.371L271.52 405.937L277.355 401.886L278.522 400.739L279.689 399.239L282.022 395.346L285.523 388.691L286.69 386.146L287.857 383.18L289.024 379.648L290.191 375.461L291.358 370.559L292.525 364.887L294.859 351.104L297.193 334.401L299.527 315.306L301.861 293.441L308.862 222.362L311.196 204.37L313.53 190.118L320.532 151.207L321.699 146.652L322.866 143.679L324.033 142.259L325.2 142.1L326.366 142.829L327.533 144.211L328.7 146.276L329.867 149.263L331.034 153.414L332.201 158.771L334.535 172.038L338.036 192.524L341.537 212.315L345.038 234.367L348.538 256.21L350.872 268.402L354.373 284.658L356.707 297.164L362.542 329.974L364.876 341.48L367.21 350.846L369.544 358.03L371.877 363.731L376.545 374.222L380.046 382.975L381.213 385.516L382.38 387.67L384.714 391.144L388.215 395.869L390.549 398.398L392.882 400.136L399.884 404.147L402.218 405.252L408.053 407.378L410.387 407.995L412.721 408.225L416.221 408.399L425.557 409.564L439.56 410.015L464.066 410.111" fill="#EFEFEF" fill-opacity="0.4"/>
<path d="M231.844 410.11L237.678 409.963L242.346 409.758L249.348 409.862L254.016 409.32L258.684 408.751L261.017 408.693L264.518 408.729L266.852 408.316L269.186 407.371L271.52 405.937L277.355 401.886L278.522 400.739L279.689 399.239L282.022 395.346L285.523 388.691L286.69 386.146L287.857 383.18L289.024 379.648L290.191 375.461L291.358 370.559L292.525 364.887L294.859 351.104L297.193 334.401L299.527 315.306L301.861 293.441L308.862 222.362L311.196 204.37L313.53 190.118L320.532 151.207L321.699 146.652L322.866 143.679L324.033 142.259L325.2 142.1L326.366 142.829L327.533 144.211L328.7 146.276L329.867 149.263L331.034 153.414L332.201 158.771L334.535 172.038L338.036 192.524L341.537 212.315L345.038 234.367L348.538 256.21L350.872 268.402L354.373 284.658L356.707 297.164L362.542 329.974L364.876 341.48L367.21 350.846L369.544 358.03L371.877 363.731L376.545 374.222L380.046 382.975L381.213 385.516L382.38 387.67L384.714 391.144L388.215 395.869L390.549 398.398L392.882 400.136L399.884 404.147L402.218 405.252L408.053 407.378L410.387 407.995L412.721 408.225L416.221 408.399L425.557 409.564L439.56 410.015L464.066 410.111" stroke="#EFEFEF" stroke-linecap="square"/>
</g>
<mask id="mask3_230_8958" style="mask-type:luminance" maskUnits="userSpaceOnUse" x="76" y="55" width="477" height="356">
<path d="M552.957 55.2959H76.7969V410.112H552.957V55.2959Z" fill="white"/>
</mask>
<g mask="url(#mask3_230_8958)">
<path d="M209.367 410.111L244.53 409.923L253.32 409.638L258.344 409.552L260.855 409.122L264.623 408.404L267.134 407.905L268.39 407.465L270.902 406.103L279.692 400.313L280.948 399.091L282.204 397.536L283.46 395.527L284.716 392.998L287.227 386.639L289.739 379.171L290.995 374.769L292.251 369.479L293.506 362.963L294.762 355.018L296.018 345.563L297.274 334.583L298.53 322.066L301.041 292.406L303.553 257.345L307.32 203.685L308.576 188.353L309.832 174.845L311.088 163.014L313.599 143.361L314.855 135.328L316.111 128.659L317.367 123.537L318.623 119.984L319.878 117.879L321.134 117.172L322.39 118.042L323.646 120.74L324.902 125.257L326.157 131.163L328.669 144.871L331.181 160.657L333.692 180.335L342.483 256.29L343.739 265.245L344.995 273.051L346.25 279.767L348.762 291.109L352.529 307.813L357.553 331.63L358.808 336.553L361.32 344.634L365.087 354.867L367.599 360.89L370.111 365.801L372.622 369.63L375.134 373.399L380.157 382.399L382.669 385.751L385.18 389.178L390.204 396.705L391.459 398.086L393.971 400.212L397.738 403.27L398.994 404.057L400.25 404.576L402.762 404.977L405.273 405.228L407.785 405.912L411.552 407.22L414.064 407.658L417.831 408.197L422.855 409.29L426.622 409.651L434.157 409.787L459.273 410.111" fill="#EFEFEF" fill-opacity="0.4"/>
<path d="M209.367 410.111L244.53 409.923L253.32 409.638L258.344 409.552L260.855 409.122L264.623 408.404L267.134 407.905L268.39 407.465L270.902 406.103L279.692 400.313L280.948 399.091L282.204 397.536L283.46 395.527L284.716 392.998L287.227 386.639L289.739 379.171L290.995 374.769L292.251 369.479L293.506 362.963L294.762 355.018L296.018 345.563L297.274 334.583L298.53 322.066L301.041 292.406L303.553 257.345L307.32 203.685L308.576 188.353L309.832 174.845L311.088 163.014L313.599 143.361L314.855 135.328L316.111 128.659L317.367 123.537L318.623 119.984L319.878 117.879L321.134 117.172L322.39 118.042L323.646 120.74L324.902 125.257L326.157 131.163L328.669 144.871L331.181 160.657L333.692 180.335L342.483 256.29L343.739 265.245L344.995 273.051L346.25 279.767L348.762 291.109L352.529 307.813L357.553 331.63L358.808 336.553L361.32 344.634L365.087 354.867L367.599 360.89L370.111 365.801L372.622 369.63L375.134 373.399L380.157 382.399L382.669 385.751L385.18 389.178L390.204 396.705L391.459 398.086L393.971 400.212L397.738 403.27L398.994 404.057L400.25 404.576L402.762 404.977L405.273 405.228L407.785 405.912L411.552 407.22L414.064 407.658L417.831 408.197L422.855 409.29L426.622 409.651L434.157 409.787L459.273 410.111" stroke="#EFEFEF" stroke-linecap="square"/>
</g>
<mask id="mask4_230_8958" style="mask-type:luminance" maskUnits="userSpaceOnUse" x="76" y="55" width="477" height="356">
<path d="M552.957 55.2959H76.7969V410.112H552.957V55.2959Z" fill="white"/>
</mask>
<g mask="url(#mask4_230_8958)">
<path d="M202.266 410.111L237.022 409.931L241.816 409.745L249.007 409.815L253.8 409.702L257.396 409.287L260.991 408.583L265.785 407.207L269.381 405.84L272.976 404.303L274.175 403.571L275.373 402.522L276.572 401.048L277.77 399.109L278.969 396.734L281.366 390.988L283.763 384.169L284.961 380.134L286.16 375.401L287.358 369.785L288.557 363.227L290.953 347.881L295.747 315.99L299.343 292.833L305.335 250.097L307.732 235.859L310.129 223.407L312.526 213.082L314.923 204.661L317.32 197.983L322.114 185.565L323.313 183.527L324.511 182.329L329.305 179.875L330.503 179.856L331.702 180.755L332.9 182.501L335.297 187.331L336.496 190.374L337.694 194.23L338.893 199.025L342.488 214.979L344.885 223.806L350.878 244.67L352.076 250.199L353.275 257.084L355.672 274.128L359.267 300.891L361.664 316.877L365.26 338.158L367.656 351.545L370.053 362.808L371.252 367.315L373.649 374.788L378.443 388.363L380.84 394.154L382.038 396.372L383.237 398.116L385.634 400.724L391.626 406.756L392.825 407.639L394.023 408.322L396.42 409.202L398.817 409.61L402.413 409.751L416.794 410.021L440.764 410.111" fill="#EFEFEF" fill-opacity="0.4"/>
<path d="M202.266 410.111L237.022 409.931L241.816 409.745L249.007 409.815L253.8 409.702L257.396 409.287L260.991 408.583L265.785 407.207L269.381 405.84L272.976 404.303L274.175 403.571L275.373 402.522L276.572 401.048L277.77 399.109L278.969 396.734L281.366 390.988L283.763 384.169L284.961 380.134L286.16 375.401L287.358 369.785L288.557 363.227L290.953 347.881L295.747 315.99L299.343 292.833L305.335 250.097L307.732 235.859L310.129 223.407L312.526 213.082L314.923 204.661L317.32 197.983L322.114 185.565L323.313 183.527L324.511 182.329L329.305 179.875L330.503 179.856L331.702 180.755L332.9 182.501L335.297 187.331L336.496 190.374L337.694 194.23L338.893 199.025L342.488 214.979L344.885 223.806L350.878 244.67L352.076 250.199L353.275 257.084L355.672 274.128L359.267 300.891L361.664 316.877L365.26 338.158L367.656 351.545L370.053 362.808L371.252 367.315L373.649 374.788L378.443 388.363L380.84 394.154L382.038 396.372L383.237 398.116L385.634 400.724L391.626 406.756L392.825 407.639L394.023 408.322L396.42 409.202L398.817 409.61L402.413 409.751L416.794 410.021L440.764 410.111" stroke="#EFEFEF" stroke-linecap="square"/>
</g>
<mask id="mask5_230_8958" style="mask-type:luminance" maskUnits="userSpaceOnUse" x="76" y="55" width="477" height="356">
<path d="M552.957 55.2959H76.7969V410.112H552.957V55.2959Z" fill="white"/>
</mask>
<g mask="url(#mask5_230_8958)">
<path d="M243.258 410.111L255.891 409.947L261.155 409.793L265.366 409.447L268.524 408.916L272.735 408.03L274.841 407.894L280.104 407.966L281.157 407.705L283.263 406.741L287.474 404.243L290.632 402.721L291.685 402.024L292.738 401.103L293.79 399.921L295.896 396.826L299.054 391.079L302.213 385.325L306.424 378.289L307.476 375.931L309.582 369.998L314.846 353.034L316.951 344.805L319.057 334.207L321.162 321.028L328.532 270.572L332.743 242.984L335.901 222.301L341.165 189.041L343.27 174.761L344.323 168.577L345.376 163.568L346.429 159.901L347.481 157.559L348.534 156.39L349.587 156.146L350.64 156.51L352.745 157.906L354.851 159.574L355.903 160.691L358.009 163.646L359.062 165.422L360.114 167.497L361.167 170.131L362.22 173.647L363.273 178.275L364.325 184.015L367.484 204.651L370.642 226.007L372.748 242.593L378.011 286.457L381.17 309.195L383.275 322.518L386.433 340.542L390.645 362.98L392.75 372.936L393.803 377.144L394.856 380.741L396.961 386.375L399.067 390.695L401.172 394.123L403.278 396.714L406.436 399.7L411.7 404.182L413.805 405.433L416.964 406.678L422.227 408.532L425.386 409.237L428.544 409.563L441.177 409.916L447.494 410.052L452.757 410.111" fill="#EFEFEF" fill-opacity="0.4"/>
<path d="M243.258 410.111L255.891 409.947L261.155 409.793L265.366 409.447L268.524 408.916L272.735 408.03L274.841 407.894L280.104 407.966L281.157 407.705L283.263 406.741L287.474 404.243L290.632 402.721L291.685 402.024L292.738 401.103L293.79 399.921L295.896 396.826L299.054 391.079L302.213 385.325L306.424 378.289L307.476 375.931L309.582 369.998L314.846 353.034L316.951 344.805L319.057 334.207L321.162 321.028L328.532 270.572L332.743 242.984L335.901 222.301L341.165 189.041L343.27 174.761L344.323 168.577L345.376 163.568L346.429 159.901L347.481 157.559L348.534 156.39L349.587 156.146L350.64 156.51L352.745 157.906L354.851 159.574L355.903 160.691L358.009 163.646L359.062 165.422L360.114 167.497L361.167 170.131L362.22 173.647L363.273 178.275L364.325 184.015L367.484 204.651L370.642 226.007L372.748 242.593L378.011 286.457L381.17 309.195L383.275 322.518L386.433 340.542L390.645 362.98L392.75 372.936L393.803 377.144L394.856 380.741L396.961 386.375L399.067 390.695L401.172 394.123L403.278 396.714L406.436 399.7L411.7 404.182L413.805 405.433L416.964 406.678L422.227 408.532L425.386 409.237L428.544 409.563L441.177 409.916L447.494 410.052L452.757 410.111" stroke="#EFEFEF" stroke-linecap="square"/>
</g>
<mask id="mask6_230_8958" style="mask-type:luminance" maskUnits="userSpaceOnUse" x="76" y="55" width="477" height="356">
<path d="M552.957 55.2959H76.7969V410.112H552.957V55.2959Z" fill="white"/>
</mask>
<g mask="url(#mask6_230_8958)">
<path d="M222.844 410.111L231.647 409.955L239.351 409.924L250.355 409.864L258.058 409.058L261.36 408.747L264.661 408.536L266.862 408.069L269.063 407.209L272.364 405.435L280.067 401.085L282.268 399.259L283.369 398.093L285.57 395.085L287.771 391.108L289.972 385.998L292.172 379.608L294.373 371.685L296.574 361.67L298.775 349.329L300.976 334.843L304.277 309.901L308.679 275.066L310.88 259.946L316.382 225.992L319.684 204.322L320.784 198.362L322.985 188.72L327.387 172.272L329.588 164.538L330.688 161.103L331.789 158.29L332.889 156.442L333.99 155.845L335.09 156.597L336.191 158.563L337.291 161.423L339.492 168.383L341.693 175.951L343.894 184.807L347.195 200.59L349.396 211.98L351.597 224.794L353.798 239.811L361.501 296.547L363.702 309.427L365.903 320.09L373.606 354.535L375.807 362.503L379.108 373.291L381.309 379.75L383.51 385.415L385.711 390.043L387.912 393.678L390.113 396.565L392.314 398.849L394.515 400.69L398.917 403.92L401.118 405.301L403.318 406.431L406.62 407.717L409.921 408.632L412.122 408.921L419.825 409.166L425.328 409.411L434.131 409.952L439.634 410.105L441.834 410.111" fill="#EFEFEF" fill-opacity="0.4"/>
<path d="M222.844 410.111L231.647 409.955L239.351 409.924L250.355 409.864L258.058 409.058L261.36 408.747L264.661 408.536L266.862 408.069L269.063 407.209L272.364 405.435L280.067 401.085L282.268 399.259L283.369 398.093L285.57 395.085L287.771 391.108L289.972 385.998L292.172 379.608L294.373 371.685L296.574 361.67L298.775 349.329L300.976 334.843L304.277 309.901L308.679 275.066L310.88 259.946L316.382 225.992L319.684 204.322L320.784 198.362L322.985 188.72L327.387 172.272L329.588 164.538L330.688 161.103L331.789 158.29L332.889 156.442L333.99 155.845L335.09 156.597L336.191 158.563L337.291 161.423L339.492 168.383L341.693 175.951L343.894 184.807L347.195 200.59L349.396 211.98L351.597 224.794L353.798 239.811L361.501 296.547L363.702 309.427L365.903 320.09L373.606 354.535L375.807 362.503L379.108 373.291L381.309 379.75L383.51 385.415L385.711 390.043L387.912 393.678L390.113 396.565L392.314 398.849L394.515 400.69L398.917 403.92L401.118 405.301L403.318 406.431L406.62 407.717L409.921 408.632L412.122 408.921L419.825 409.166L425.328 409.411L434.131 409.952L439.634 410.105L441.834 410.111" stroke="#EFEFEF" stroke-linecap="square"/>
</g>
<mask id="mask7_230_8958" style="mask-type:luminance" maskUnits="userSpaceOnUse" x="76" y="55" width="477" height="356">
<path d="M552.957 55.2959H76.7969V410.112H552.957V55.2959Z" fill="white"/>
</mask>
<g mask="url(#mask7_230_8958)">
<path d="M143.297 410.111L164.884 409.926L175.043 409.692L180.122 409.451L183.932 409.286L187.741 408.82L191.551 408.072L195.36 407.188L196.63 406.736L197.9 406.096L200.44 404.253L202.979 402.256L204.249 401.493L208.059 399.786L209.329 398.965L211.868 396.688L214.408 393.692L215.678 391.77L216.948 389.448L219.487 383.851L224.567 372.171L225.836 368.654L228.376 360.294L232.186 346.596L233.455 341.45L234.725 335.623L237.265 321.88L244.884 276.231L252.503 233.353L253.773 224.507L256.313 203.847L258.852 183.394L260.122 174.773L261.392 167.425L262.662 161.199L263.932 155.961L265.201 151.679L266.471 148.323L267.741 145.707L270.281 141.585L271.551 140.113L272.82 139.533L274.09 140.11L275.36 141.734L276.63 144.115L277.9 147.167L279.17 151.215L280.44 156.88L281.709 164.751L282.979 175.047L285.519 201.144L290.598 255.871L295.678 311.109L296.947 322.602L298.217 332.216L299.487 340.199L302.027 353.3L304.566 364.944L307.106 375.103L308.376 379.26L309.646 382.793L312.186 388.512L314.725 392.989L317.265 396.388L322.344 402.322L323.614 403.601L324.884 404.638L326.154 405.425L328.693 406.439L331.233 407.031L336.312 408.025L342.662 409.505L345.201 409.777L351.551 409.937L366.789 410.107L395.995 410.111" fill="#EFEFEF" fill-opacity="0.4"/>
<path d="M143.297 410.111L164.884 409.926L175.043 409.692L180.122 409.451L183.932 409.286L187.741 408.82L191.551 408.072L195.36 407.188L196.63 406.736L197.9 406.096L200.44 404.253L202.979 402.256L204.249 401.493L208.059 399.786L209.329 398.965L211.868 396.688L214.408 393.692L215.678 391.77L216.948 389.448L219.487 383.851L224.567 372.171L225.836 368.654L228.376 360.294L232.186 346.596L233.455 341.45L234.725 335.623L237.265 321.88L244.884 276.231L252.503 233.353L253.773 224.507L256.313 203.847L258.852 183.394L260.122 174.773L261.392 167.425L262.662 161.199L263.932 155.961L265.201 151.679L266.471 148.323L267.741 145.707L270.281 141.585L271.551 140.113L272.82 139.533L274.09 140.11L275.36 141.734L276.63 144.115L277.9 147.167L279.17 151.215L280.44 156.88L281.709 164.751L282.979 175.047L285.519 201.144L290.598 255.871L295.678 311.109L296.947 322.602L298.217 332.216L299.487 340.199L302.027 353.3L304.566 364.944L307.106 375.103L308.376 379.26L309.646 382.793L312.186 388.512L314.725 392.989L317.265 396.388L322.344 402.322L323.614 403.601L324.884 404.638L326.154 405.425L328.693 406.439L331.233 407.031L336.312 408.025L342.662 409.505L345.201 409.777L351.551 409.937L366.789 410.107L395.995 410.111" stroke="#EFEFEF" stroke-linecap="square"/>
</g>
<mask id="mask8_230_8958" style="mask-type:luminance" maskUnits="userSpaceOnUse" x="76" y="55" width="477" height="356">
<path d="M552.957 55.2959H76.7969V410.112H552.957V55.2959Z" fill="white"/>
</mask>
<g mask="url(#mask8_230_8958)">
<path d="M241.055 410.11L263.375 409.919L268.073 409.46L271.598 408.851L277.471 407.371L279.821 406.45L282.17 405.429L284.52 404.716L286.869 403.996L288.044 403.281L289.219 402.173L290.393 400.689L292.743 397.109L295.092 393.07L296.267 390.542L297.442 387.397L298.616 383.539L300.966 374.034L303.315 363.016L305.665 350.228L308.014 335.173L310.364 318.088L312.713 298.016L319.762 230.476L324.46 189.376L325.635 180.541L327.985 166.045L332.684 139.881L333.858 134.383L335.033 129.766L336.208 125.964L337.383 122.952L338.557 120.986L339.732 120.619L340.907 122.44L342.081 126.678L343.256 133.008L345.606 148.916L347.955 164.83L355.003 209.245L358.528 235.658L369.1 316.561L371.45 330.872L373.799 342.926L378.498 365.026L379.673 369.864L380.848 374.042L383.197 380.869L385.546 386.31L386.721 388.368L391.42 395.11L393.77 398.964L394.944 400.585L396.119 401.892L398.468 403.853L401.993 406.324L404.342 407.699L405.517 408.187L406.692 408.491L409.041 408.662L411.39 408.782L418.439 409.766L423.138 409.83L430.186 409.834L445.458 410.111L474.826 410.11" fill="#EFEFEF" fill-opacity="0.4"/>
<path d="M241.055 410.11L263.375 409.919L268.073 409.46L271.598 408.851L277.471 407.371L279.821 406.45L282.17 405.429L284.52 404.716L286.869 403.996L288.044 403.281L289.219 402.173L290.393 400.689L292.743 397.109L295.092 393.07L296.267 390.542L297.442 387.397L298.616 383.539L300.966 374.034L303.315 363.016L305.665 350.228L308.014 335.173L310.364 318.088L312.713 298.016L319.762 230.476L324.46 189.376L325.635 180.541L327.985 166.045L332.684 139.881L333.858 134.383L335.033 129.766L336.208 125.964L337.383 122.952L338.557 120.986L339.732 120.619L340.907 122.44L342.081 126.678L343.256 133.008L345.606 148.916L347.955 164.83L355.003 209.245L358.528 235.658L369.1 316.561L371.45 330.872L373.799 342.926L378.498 365.026L379.673 369.864L380.848 374.042L383.197 380.869L385.546 386.31L386.721 388.368L391.42 395.11L393.77 398.964L394.944 400.585L396.119 401.892L398.468 403.853L401.993 406.324L404.342 407.699L405.517 408.187L406.692 408.491L409.041 408.662L411.39 408.782L418.439 409.766L423.138 409.83L430.186 409.834L445.458 410.111L474.826 410.11" stroke="#EFEFEF" stroke-linecap="square"/>
</g>
<mask id="mask9_230_8958" style="mask-type:luminance" maskUnits="userSpaceOnUse" x="76" y="55" width="477" height="356">
<path d="M552.957 55.2959H76.7969V410.112H552.957V55.2959Z" fill="white"/>
</mask>
<g mask="url(#mask9_230_8958)">
<path d="M179.609 410.111L242.411 409.935L249.547 409.584L256.684 409.152L265.248 408.849L268.102 408.395L270.957 407.49L275.239 405.551L278.094 403.953L279.521 402.927L280.948 401.644L282.376 400.042L283.803 398.084L285.23 395.77L288.085 390.213L290.939 383.811L293.794 376.487L295.221 372.015L296.649 366.655L298.076 360.303L300.931 345.394L305.212 322.686L313.776 280.295L318.058 255.788L320.913 239.389L323.767 224.938L325.195 218.899L326.622 213.887L328.049 210.069L329.477 207.501L330.904 206.017L332.331 205.232L335.186 204.261L336.613 203.909L338.041 203.939L339.468 204.59L340.895 205.858L343.75 208.994L348.032 212.732L349.459 214.999L350.886 218.479L352.314 223.176L355.168 234.915L366.587 284.34L372.296 307.526L378.005 329.478L380.86 339.253L383.714 347.49L387.996 359.517L390.851 367.699L393.706 374.978L395.133 378.065L397.987 383.137L406.551 396.402L407.979 397.823L409.406 398.927L412.261 400.653L415.115 402.136L419.397 403.9L423.679 405.799L426.534 407.008L429.388 407.831L433.67 408.689L436.525 408.967L443.661 409.198L449.371 409.724L459.362 410.09L463.644 410.111" fill="#EFEFEF" fill-opacity="0.4"/>
<path d="M179.609 410.111L242.411 409.935L249.547 409.584L256.684 409.152L265.248 408.849L268.102 408.395L270.957 407.49L275.239 405.551L278.094 403.953L279.521 402.927L280.948 401.644L282.376 400.042L283.803 398.084L285.23 395.77L288.085 390.213L290.939 383.811L293.794 376.487L295.221 372.015L296.649 366.655L298.076 360.303L300.931 345.394L305.212 322.686L313.776 280.295L318.058 255.788L320.913 239.389L323.767 224.938L325.195 218.899L326.622 213.887L328.049 210.069L329.477 207.501L330.904 206.017L332.331 205.232L335.186 204.261L336.613 203.909L338.041 203.939L339.468 204.59L340.895 205.858L343.75 208.994L348.032 212.732L349.459 214.999L350.886 218.479L352.314 223.176L355.168 234.915L366.587 284.34L372.296 307.526L378.005 329.478L380.86 339.253L383.714 347.49L387.996 359.517L390.851 367.699L393.706 374.978L395.133 378.065L397.987 383.137L406.551 396.402L407.979 397.823L409.406 398.927L412.261 400.653L415.115 402.136L419.397 403.9L423.679 405.799L426.534 407.008L429.388 407.831L433.67 408.689L436.525 408.967L443.661 409.198L449.371 409.724L459.362 410.09L463.644 410.111" stroke="#EFEFEF" stroke-linecap="square"/>
</g>
<mask id="mask10_230_8958" style="mask-type:luminance" maskUnits="userSpaceOnUse" x="76" y="55" width="477" height="356">
<path d="M552.957 55.2959H76.7969V410.112H552.957V55.2959Z" fill="white"/>
</mask>
<g mask="url(#mask10_230_8958)">
<path d="M243.633 410.111L248.017 410.004L256.785 409.223L260.292 408.491L262.046 408.159L263.799 408.147L266.43 408.431L268.183 408.119L269.937 407.254L273.444 405.063L276.951 403.484L278.705 401.986L280.458 399.853L282.212 397.241L283.966 394.209L285.719 390.681L287.473 386.456L289.226 381.387L290.98 375.221L292.734 367.266L294.487 356.975L296.241 344.463L297.994 329.718L299.748 312.098L301.502 291.438L306.762 223.336L309.393 184.668L312.9 131.317L314.654 109.601L316.407 93.951L318.161 82.2597L319.037 77.5174L319.914 74.0012L320.791 72.1924L321.668 72.2765L322.545 74.0644L323.421 77.1434L325.175 85.4304L329.559 108.3L331.313 120.565L334.82 149.069L336.573 166.919L338.327 189.348L340.957 223.925L342.711 243.305L346.218 277.631L348.849 300.208L351.479 319.285L354.109 335.293L359.37 365.305L361.124 372.564L363.754 381.932L365.508 386.86L369.892 397.492L370.769 399.03L371.645 400.161L372.522 400.948L375.153 402.48L381.29 406.173L385.674 408.282L387.428 408.753L390.058 409.15L406.717 410.089L413.732 410.052L418.116 410.111" fill="#EFEFEF" fill-opacity="0.4"/>
<path d="M243.633 410.111L248.017 410.004L256.785 409.223L260.292 408.491L262.046 408.159L263.799 408.147L266.43 408.431L268.183 408.119L269.937 407.254L273.444 405.063L276.951 403.484L278.705 401.986L280.458 399.853L282.212 397.241L283.966 394.209L285.719 390.681L287.473 386.456L289.226 381.387L290.98 375.221L292.734 367.266L294.487 356.975L296.241 344.463L297.994 329.718L299.748 312.098L301.502 291.438L306.762 223.336L309.393 184.668L312.9 131.317L314.654 109.601L316.407 93.951L318.161 82.2597L319.037 77.5174L319.914 74.0012L320.791 72.1924L321.668 72.2765L322.545 74.0644L323.421 77.1434L325.175 85.4304L329.559 108.3L331.313 120.565L334.82 149.069L336.573 166.919L338.327 189.348L340.957 223.925L342.711 243.305L346.218 277.631L348.849 300.208L351.479 319.285L354.109 335.293L359.37 365.305L361.124 372.564L363.754 381.932L365.508 386.86L369.892 397.492L370.769 399.03L371.645 400.161L372.522 400.948L375.153 402.48L381.29 406.173L385.674 408.282L387.428 408.753L390.058 409.15L406.717 410.089L413.732 410.052L418.116 410.111" stroke="#EFEFEF" stroke-linecap="square"/>
</g>
<mask id="mask11_230_8958" style="mask-type:luminance" maskUnits="userSpaceOnUse" x="76" y="55" width="477" height="356">
<path d="M552.957 55.2959H76.7969V410.112H552.957V55.2959Z" fill="white"/>
</mask>
<g mask="url(#mask11_230_8958)">
<path d="M200.633 410.111L208.383 409.96L218.348 409.605L227.205 409.478L237.169 408.605L240.491 408.17L243.813 407.378L253.777 404.026L255.991 402.596L258.206 400.482L260.42 397.629L265.956 389.482L269.277 385.297L270.385 383.476L271.492 381.285L273.706 375.943L275.921 369.753L278.135 362.68L280.349 354.472L282.564 345.308L285.885 329.958L290.314 307.58L296.957 272.386L298.064 265.453L300.278 248.914L302.493 231.106L303.6 223.085L304.707 216.166L305.814 210.393L308.029 201.182L316.886 167.751L317.993 164.621L319.1 162.506L320.207 161.854L321.315 162.826L322.422 165.166L325.743 174.997L327.958 181.669L330.172 189.498L333.493 202.678L335.708 213.226L337.922 226.483L342.351 257.235L350.101 310.903L353.423 329.831L358.958 360.388L361.173 369.791L362.28 373.591L363.387 376.853L365.601 382.065L368.923 388.417L372.244 394.396L374.459 397.722L376.673 400.288L379.995 403.293L383.316 406.073L385.531 407.419L387.745 408.252L389.959 408.768L394.388 409.354L401.031 410.049L406.567 410.084L415.424 410.073L420.96 410.111" fill="#EFEFEF" fill-opacity="0.4"/>
<path d="M200.633 410.111L208.383 409.96L218.348 409.605L227.205 409.478L237.169 408.605L240.491 408.17L243.813 407.378L253.777 404.026L255.991 402.596L258.206 400.482L260.42 397.629L265.956 389.482L269.277 385.297L270.385 383.476L271.492 381.285L273.706 375.943L275.921 369.753L278.135 362.68L280.349 354.472L282.564 345.308L285.885 329.958L290.314 307.58L296.957 272.386L298.064 265.453L300.278 248.914L302.493 231.106L303.6 223.085L304.707 216.166L305.814 210.393L308.029 201.182L316.886 167.751L317.993 164.621L319.1 162.506L320.207 161.854L321.315 162.826L322.422 165.166L325.743 174.997L327.958 181.669L330.172 189.498L333.493 202.678L335.708 213.226L337.922 226.483L342.351 257.235L350.101 310.903L353.423 329.831L358.958 360.388L361.173 369.791L362.28 373.591L363.387 376.853L365.601 382.065L368.923 388.417L372.244 394.396L374.459 397.722L376.673 400.288L379.995 403.293L383.316 406.073L385.531 407.419L387.745 408.252L389.959 408.768L394.388 409.354L401.031 410.049L406.567 410.084L415.424 410.073L420.96 410.111" stroke="#EFEFEF" stroke-linecap="square"/>
</g>
<mask id="mask12_230_8958" style="mask-type:luminance" maskUnits="userSpaceOnUse" x="76" y="55" width="477" height="356">
<path d="M552.957 55.2959H76.7969V410.112H552.957V55.2959Z" fill="white"/>
</mask>
<g mask="url(#mask12_230_8958)">
<path d="M182.188 410.111L256.462 409.907L261.864 409.556L265.916 409.005L274.018 407.559L276.719 406.565L279.42 405.08L284.822 401.657L286.172 400.593L287.523 399.302L288.873 397.71L290.224 395.741L291.574 393.305L292.925 390.308L294.275 386.685L295.626 382.452L298.327 372.628L301.027 361.802L303.728 349.803L306.429 335.62L309.13 319.242L313.181 292.689L318.583 255.166L322.635 226.995L323.985 219.089L325.336 212.683L326.686 207.818L328.036 204.128L330.737 197.61L333.438 189.327L334.789 185.159L336.139 181.983L337.49 180.357L338.84 180.378L340.191 181.735L341.541 183.908L346.943 193.944L348.293 197.096L349.644 200.978L350.994 205.611L353.695 216.655L356.396 229.34L361.798 256.753L367.2 285.548L369.901 297.72L375.302 319.359L379.354 335.835L384.755 358.565L386.106 363.227L387.456 367.16L388.807 370.457L391.508 376.045L396.91 386.669L399.61 391.046L402.311 394.395L409.064 401.38L410.414 402.523L411.765 403.435L414.466 404.801L419.867 407.22L422.568 408.051L426.62 408.766L433.372 409.558L437.423 409.735L444.175 409.97L449.577 410.105L450.928 410.11" fill="#EFEFEF" fill-opacity="0.4"/>
<path d="M182.188 410.111L256.462 409.907L261.864 409.556L265.916 409.005L274.018 407.559L276.719 406.565L279.42 405.08L284.822 401.657L286.172 400.593L287.523 399.302L288.873 397.71L290.224 395.741L291.574 393.305L292.925 390.308L294.275 386.685L295.626 382.452L298.327 372.628L301.027 361.802L303.728 349.803L306.429 335.62L309.13 319.242L313.181 292.689L318.583 255.166L322.635 226.995L323.985 219.089L325.336 212.683L326.686 207.818L328.036 204.128L330.737 197.61L333.438 189.327L334.789 185.159L336.139 181.983L337.49 180.357L338.84 180.378L340.191 181.735L341.541 183.908L346.943 193.944L348.293 197.096L349.644 200.978L350.994 205.611L353.695 216.655L356.396 229.34L361.798 256.753L367.2 285.548L369.901 297.72L375.302 319.359L379.354 335.835L384.755 358.565L386.106 363.227L387.456 367.16L388.807 370.457L391.508 376.045L396.91 386.669L399.61 391.046L402.311 394.395L409.064 401.38L410.414 402.523L411.765 403.435L414.466 404.801L419.867 407.22L422.568 408.051L426.62 408.766L433.372 409.558L437.423 409.735L444.175 409.97L449.577 410.105L450.928 410.11" stroke="#EFEFEF" stroke-linecap="square"/>
</g>
<mask id="mask13_230_8958" style="mask-type:luminance" maskUnits="userSpaceOnUse" x="76" y="55" width="477" height="356">
<path d="M552.957 55.2959H76.7969V410.112H552.957V55.2959Z" fill="white"/>
</mask>
<g mask="url(#mask13_230_8958)">
<path d="M223.422 410.111L260.554 409.971L266.743 409.531L280.668 408.161L285.309 407.231L288.403 406.318L291.498 405.035L294.592 403.182L297.687 400.691L308.517 390.727L311.611 387.321L314.706 383.283L319.347 376.369L328.63 361.871L331.725 355.954L339.46 339.834L344.102 330.477L347.196 323.42L351.838 311.554L356.479 299.549L359.574 292.415L362.668 286.418L365.763 281.536L371.951 272.708L378.14 263.393L379.687 261.401L381.234 259.722L382.782 258.461L384.329 257.717L385.876 257.553L387.423 257.973L388.97 258.899L395.159 263.913L398.253 265.666L399.801 266.858L401.348 268.683L402.895 271.351L404.442 274.892L407.536 283.815L410.631 293.134L413.725 301.355L419.914 316.925L423.008 324.798L424.555 328.34L426.103 331.483L429.197 336.732L432.291 341.684L433.839 344.507L436.933 351.153L441.574 361.906L444.669 367.99L447.763 372.988L452.405 379.484L455.499 383.338L458.593 386.693L463.235 391.14L466.329 393.848L470.971 397.417L478.707 402.911L481.801 404.748L484.896 406.18L487.99 407.231L491.084 407.966L495.726 408.715L501.915 409.364L511.198 409.837L522.028 410.075L531.311 410.111" fill="#EFEFEF" fill-opacity="0.4"/>
<path d="M223.422 410.111L260.554 409.971L266.743 409.531L280.668 408.161L285.309 407.231L288.403 406.318L291.498 405.035L294.592 403.182L297.687 400.691L308.517 390.727L311.611 387.321L314.706 383.283L319.347 376.369L328.63 361.871L331.725 355.954L339.46 339.834L344.102 330.477L347.196 323.42L351.838 311.554L356.479 299.549L359.574 292.415L362.668 286.418L365.763 281.536L371.951 272.708L378.14 263.393L379.687 261.401L381.234 259.722L382.782 258.461L384.329 257.717L385.876 257.553L387.423 257.973L388.97 258.899L395.159 263.913L398.253 265.666L399.801 266.858L401.348 268.683L402.895 271.351L404.442 274.892L407.536 283.815L410.631 293.134L413.725 301.355L419.914 316.925L423.008 324.798L424.555 328.34L426.103 331.483L429.197 336.732L432.291 341.684L433.839 344.507L436.933 351.153L441.574 361.906L444.669 367.99L447.763 372.988L452.405 379.484L455.499 383.338L458.593 386.693L463.235 391.14L466.329 393.848L470.971 397.417L478.707 402.911L481.801 404.748L484.896 406.18L487.99 407.231L491.084 407.966L495.726 408.715L501.915 409.364L511.198 409.837L522.028 410.075L531.311 410.111" stroke="#EFEFEF" stroke-linecap="square"/>
</g>
<mask id="mask14_230_8958" style="mask-type:luminance" maskUnits="userSpaceOnUse" x="76" y="55" width="477" height="356">
<path d="M552.957 55.2959H76.7969V410.112H552.957V55.2959Z" fill="white"/>
</mask>
<g mask="url(#mask14_230_8958)">
<path d="M98.4375 410.111L120.593 409.996L123.199 409.713L125.805 408.983L127.109 408.348L128.412 407.473L129.715 406.308L131.018 404.796L132.322 402.856L133.625 400.384L134.928 397.248L136.231 393.318L137.535 388.487L138.838 382.703L140.141 375.963L141.444 368.298L144.051 350.277L146.657 328.67L150.567 291.294L153.173 266.379L155.78 243.979L158.386 224.765L160.993 209.024L162.296 202.726L163.599 197.676L164.903 193.979L166.206 191.665L167.509 190.672L168.812 190.853L170.116 192.001L171.419 193.878L174.025 198.83L177.935 206.435L181.845 213.573L184.451 219.366L187.058 226.636L189.664 235.238L193.574 249.402L202.696 283.249L210.516 308.765L218.335 337.358L220.942 345.261L224.852 355.541L228.761 365.268L231.368 370.924L232.671 373.292L235.277 377.146L237.884 380.265L243.097 385.912L245.703 388.3L248.31 390.1L252.219 392.078L257.432 394.737L261.342 396.687L265.252 398.134L267.858 399.103L274.375 402.052L276.981 402.714L291.317 404.974L293.923 405.009L296.53 404.803L300.439 404.301L303.046 404.3L305.652 404.703L310.865 406.087L314.775 406.955L322.594 408.194L326.504 409.092L330.414 409.61L335.627 409.946L342.143 409.992L357.782 410.111" fill="#7EB0D5" fill-opacity="0.4"/>
<path d="M98.4375 410.111L120.593 409.996L123.199 409.713L125.805 408.983L127.109 408.348L128.412 407.473L129.715 406.308L131.018 404.796L132.322 402.856L133.625 400.384L134.928 397.248L136.231 393.318L137.535 388.487L138.838 382.703L140.141 375.963L141.444 368.298L144.051 350.277L146.657 328.67L150.567 291.294L153.173 266.379L155.78 243.979L158.386 224.765L160.993 209.024L162.296 202.726L163.599 197.676L164.903 193.979L166.206 191.665L167.509 190.672L168.812 190.853L170.116 192.001L171.419 193.878L174.025 198.83L177.935 206.435L181.845 213.573L184.451 219.366L187.058 226.636L189.664 235.238L193.574 249.402L202.696 283.249L210.516 308.765L218.335 337.358L220.942 345.261L224.852 355.541L228.761 365.268L231.368 370.924L232.671 373.292L235.277 377.146L237.884 380.265L243.097 385.912L245.703 388.3L248.31 390.1L252.219 392.078L257.432 394.737L261.342 396.687L265.252 398.134L267.858 399.103L274.375 402.052L276.981 402.714L291.317 404.974L293.923 405.009L296.53 404.803L300.439 404.301L303.046 404.3L305.652 404.703L310.865 406.087L314.775 406.955L322.594 408.194L326.504 409.092L330.414 409.61L335.627 409.946L342.143 409.992L357.782 410.111" stroke="#7EB0D5" stroke-linecap="square"/>
</g>
<path d="M535.061 411.061C535.646 410.475 535.646 409.525 535.061 408.939L525.515 399.393C524.929 398.808 523.979 398.808 523.393 399.393C522.808 399.979 522.808 400.929 523.393 401.515L531.879 410L523.393 418.485C522.808 419.071 522.808 420.021 523.393 420.607C523.979 421.192 524.929 421.192 525.515 420.607L535.061 411.061ZM79 411.5H534V408.5H79V411.5Z" fill="black"/>
</g>
<defs>
<clipPath id="clip0_230_8958">
<rect width="614.4" height="460.8" fill="white"/>
</clipPath>
</defs>
</svg>
