<svg width="615" height="461" viewBox="0 0 615 461" fill="none" xmlns="http://www.w3.org/2000/svg">
<g clip-path="url(#clip0_230_8158)">
<mask id="mask0_230_8158" style="mask-type:luminance" maskUnits="userSpaceOnUse" x="76" y="55" width="477" height="356">
<path d="M552.957 55.2959H76.7969V410.112H552.957V55.2959Z" fill="white"/>
</mask>
<g mask="url(#mask0_230_8158)">
<path d="M255.352 410.111L268.232 409.983L279.824 409.56L283.688 409.132L288.84 408.169L292.704 407.204L295.28 406.353L297.856 405.249L300.432 403.824L303.008 402.084L309.448 397.135L313.312 394.083L315.888 391.618L318.464 388.433L321.04 384.415L324.904 377.302L328.768 370.195L332.632 363.173L335.208 357.615L339.072 347.848L344.224 334.817L348.088 325.057L353.24 311.03L359.68 292.641L366.12 273.18L367.408 270.036L368.696 267.397L369.984 265.248L371.272 263.493L373.848 260.638L379 255.544L380.288 254.495L381.576 253.643L382.864 253.025L384.152 252.661L385.44 252.559L386.728 252.718L388.016 253.138L389.304 253.819L390.592 254.76L391.88 255.959L393.168 257.409L395.744 261.033L398.32 265.56L402.184 273.451L409.912 289.642L412.488 296.005L416.352 306.483L425.368 331.95L433.097 354.725L435.673 360.888L439.537 368.919L443.401 376.573L445.977 381.082L448.553 384.816L452.417 389.526L458.857 396.866L462.721 400.765L465.297 403.017L467.873 404.822L470.449 406.091L473.025 406.918L476.889 407.703L482.041 408.295L488.481 409.037L494.921 409.757L500.073 410.004L510.377 410.11L511.665 410.111" fill="#EFEFEF" fill-opacity="0.4"/>
<path d="M255.352 410.111L268.232 409.983L279.824 409.56L283.688 409.132L288.84 408.169L292.704 407.204L295.28 406.353L297.856 405.249L300.432 403.824L303.008 402.084L309.448 397.135L313.312 394.083L315.888 391.618L318.464 388.433L321.04 384.415L324.904 377.302L328.768 370.195L332.632 363.173L335.208 357.615L339.072 347.848L344.224 334.817L348.088 325.057L353.24 311.03L359.68 292.641L366.12 273.18L367.408 270.036L368.696 267.397L369.984 265.248L371.272 263.493L373.848 260.638L379 255.544L380.288 254.495L381.576 253.643L382.864 253.025L384.152 252.661L385.44 252.559L386.728 252.718L388.016 253.138L389.304 253.819L390.592 254.76L391.88 255.959L393.168 257.409L395.744 261.033L398.32 265.56L402.184 273.451L409.912 289.642L412.488 296.005L416.352 306.483L425.368 331.95L433.097 354.725L435.673 360.888L439.537 368.919L443.401 376.573L445.977 381.082L448.553 384.816L452.417 389.526L458.857 396.866L462.721 400.765L465.297 403.017L467.873 404.822L470.449 406.091L473.025 406.918L476.889 407.703L482.041 408.295L488.481 409.037L494.921 409.757L500.073 410.004L510.377 410.11L511.665 410.111" stroke="#EFEFEF" stroke-linecap="square"/>
</g>
<mask id="mask1_230_8158" style="mask-type:luminance" maskUnits="userSpaceOnUse" x="76" y="55" width="477" height="356">
<path d="M552.957 55.2959H76.7969V410.112H552.957V55.2959Z" fill="white"/>
</mask>
<g mask="url(#mask1_230_8158)">
<path d="M291.289 410.111L334.278 409.959L338.687 409.523L344.199 409.517L350.813 408.825L354.119 408.291L358.529 407.649L361.836 406.745L364.04 405.878L366.245 404.687L368.449 403.113L370.654 400.87L375.063 395.479L376.165 393.935L377.268 391.966L378.37 389.399L380.574 382.671L382.779 374.734L384.984 365.19L387.188 353.603L389.393 340.307L390.495 332.612L391.597 323.699L393.802 301.877L397.109 263.991L399.313 235.473L402.62 188.295L405.927 139.46L408.132 112.382L410.336 91.717L411.438 83.8957L412.541 78.6649L413.643 76.833L414.745 78.7838L415.848 84.1625L419.154 107.109L420.257 112.566L422.461 121.104L423.564 126.969L424.666 135.133L425.768 145.479L427.973 170.275L431.28 213.002L433.484 240.547L435.689 261.958L438.996 288.978L442.303 312.523L446.712 341.883L448.916 353.784L451.121 363.249L453.325 370.453L455.53 377.097L459.939 390.987L461.041 393.7L462.144 395.942L463.246 397.765L465.451 400.53L467.655 402.536L469.86 403.981L473.167 405.666L476.473 407.078L478.678 407.754L488.599 409.769L491.906 409.736L494.11 409.745L499.622 410.063L507.338 410.083L510.644 410.111" fill="#EFEFEF" fill-opacity="0.4"/>
<path d="M291.289 410.111L334.278 409.959L338.687 409.523L344.199 409.517L350.813 408.825L354.119 408.291L358.529 407.649L361.836 406.745L364.04 405.878L366.245 404.687L368.449 403.113L370.654 400.87L375.063 395.479L376.165 393.935L377.268 391.966L378.37 389.399L380.574 382.671L382.779 374.734L384.984 365.19L387.188 353.603L389.393 340.307L390.495 332.612L391.597 323.699L393.802 301.877L397.109 263.991L399.313 235.473L402.62 188.295L405.927 139.46L408.132 112.382L410.336 91.717L411.438 83.8957L412.541 78.6649L413.643 76.833L414.745 78.7838L415.848 84.1625L419.154 107.109L420.257 112.566L422.461 121.104L423.564 126.969L424.666 135.133L425.768 145.479L427.973 170.275L431.28 213.002L433.484 240.547L435.689 261.958L438.996 288.978L442.303 312.523L446.712 341.883L448.916 353.784L451.121 363.249L453.325 370.453L455.53 377.097L459.939 390.987L461.041 393.7L462.144 395.942L463.246 397.765L465.451 400.53L467.655 402.536L469.86 403.981L473.167 405.666L476.473 407.078L478.678 407.754L488.599 409.769L491.906 409.736L494.11 409.745L499.622 410.063L507.338 410.083L510.644 410.111" stroke="#EFEFEF" stroke-linecap="square"/>
</g>
<mask id="mask2_230_8158" style="mask-type:luminance" maskUnits="userSpaceOnUse" x="76" y="55" width="477" height="356">
<path d="M552.957 55.2959H76.7969V410.112H552.957V55.2959Z" fill="white"/>
</mask>
<g mask="url(#mask2_230_8158)">
<path d="M305.641 410.111L312.783 409.982L318.905 409.89L333.189 410.008L336.25 409.754L339.311 409.173L343.393 408.363L345.433 408.149L351.555 407.877L355.637 407.023L357.677 406.295L363.799 403.625L364.82 402.987L365.84 402.133L367.881 399.76L371.962 394.176L374.003 390.818L376.043 386.612L378.084 381.544L380.125 375.386L382.165 367.64L384.206 357.953L386.247 345.911L388.287 331.005L391.348 306.943L393.389 293.564L395.43 281.192L397.47 266.765L405.633 201.922L407.674 188.138L409.714 176.701L412.775 161.476L414.816 149.21L416.856 135.799L417.877 130.645L418.897 127.849L419.917 127.874L420.938 130.432L422.978 139.373L425.019 148.151L427.06 156.762L429.1 167.786L432.161 187.551L434.202 201.956L436.243 218.242L445.426 295.459L449.507 326.562L451.548 339.875L453.588 350.739L456.649 365.024L458.69 373.14L460.731 380.17L462.771 386.21L465.832 393.835L467.873 398.281L469.914 401.748L470.934 403.04L472.975 404.942L475.015 406.334L477.056 407.436L479.097 408.195L481.137 408.57L486.239 409.112L489.3 409.558L493.381 409.717L508.686 410.111" fill="#EFEFEF" fill-opacity="0.4"/>
<path d="M305.641 410.111L312.783 409.982L318.905 409.89L333.189 410.008L336.25 409.754L339.311 409.173L343.393 408.363L345.433 408.149L351.555 407.877L355.637 407.023L357.677 406.295L363.799 403.625L364.82 402.987L365.84 402.133L367.881 399.76L371.962 394.176L374.003 390.818L376.043 386.612L378.084 381.544L380.125 375.386L382.165 367.64L384.206 357.953L386.247 345.911L388.287 331.005L391.348 306.943L393.389 293.564L395.43 281.192L397.47 266.765L405.633 201.922L407.674 188.138L409.714 176.701L412.775 161.476L414.816 149.21L416.856 135.799L417.877 130.645L418.897 127.849L419.917 127.874L420.938 130.432L422.978 139.373L425.019 148.151L427.06 156.762L429.1 167.786L432.161 187.551L434.202 201.956L436.243 218.242L445.426 295.459L449.507 326.562L451.548 339.875L453.588 350.739L456.649 365.024L458.69 373.14L460.731 380.17L462.771 386.21L465.832 393.835L467.873 398.281L469.914 401.748L470.934 403.04L472.975 404.942L475.015 406.334L477.056 407.436L479.097 408.195L481.137 408.57L486.239 409.112L489.3 409.558L493.381 409.717L508.686 410.111" stroke="#EFEFEF" stroke-linecap="square"/>
</g>
<mask id="mask3_230_8158" style="mask-type:luminance" maskUnits="userSpaceOnUse" x="76" y="55" width="477" height="356">
<path d="M552.957 55.2959H76.7969V410.112H552.957V55.2959Z" fill="white"/>
</mask>
<g mask="url(#mask3_230_8158)">
<path d="M316.555 410.111L343.534 409.931L348.93 409.83L353.247 409.906L362.96 409.295L368.356 408.815L370.514 408.22L372.673 407.183L374.831 405.789L375.91 404.922L376.989 403.85L378.069 402.473L379.148 400.691L380.227 398.452L382.385 392.693L384.544 385.639L386.702 377.258L388.861 366.787L391.019 353.98L396.415 318.732L398.573 301.67L400.732 280.152L402.89 254.059L407.207 197.342L409.365 173.958L410.444 164.588L411.524 157.066L412.603 151.584L413.682 148.216L414.761 146.864L415.84 147.25L416.919 148.945L417.999 151.463L420.157 157.544L422.315 164.529L424.474 172.728L429.87 195.122L433.107 210.149L435.266 221.668L439.582 246.501L441.741 256.707L443.899 265.107L446.058 271.753L448.216 278.112L449.295 281.881L451.454 291.208L459.008 328.736L462.246 342.599L464.404 350.922L466.562 358.297L469.8 368.123L471.958 374.079L474.117 379.05L477.354 385.885L480.592 393.31L482.75 397.284L483.829 398.787L484.909 399.998L485.988 400.952L488.146 402.268L491.384 403.959L495.7 406.834L497.859 407.729L502.176 408.805L505.413 409.448L508.651 409.776L514.047 409.961L531.314 410.111" fill="#EFEFEF" fill-opacity="0.4"/>
<path d="M316.555 410.111L343.534 409.931L348.93 409.83L353.247 409.906L362.96 409.295L368.356 408.815L370.514 408.22L372.673 407.183L374.831 405.789L375.91 404.922L376.989 403.85L378.069 402.473L379.148 400.691L380.227 398.452L382.385 392.693L384.544 385.639L386.702 377.258L388.861 366.787L391.019 353.98L396.415 318.732L398.573 301.67L400.732 280.152L402.89 254.059L407.207 197.342L409.365 173.958L410.444 164.588L411.524 157.066L412.603 151.584L413.682 148.216L414.761 146.864L415.84 147.25L416.919 148.945L417.999 151.463L420.157 157.544L422.315 164.529L424.474 172.728L429.87 195.122L433.107 210.149L435.266 221.668L439.582 246.501L441.741 256.707L443.899 265.107L446.058 271.753L448.216 278.112L449.295 281.881L451.454 291.208L459.008 328.736L462.246 342.599L464.404 350.922L466.562 358.297L469.8 368.123L471.958 374.079L474.117 379.05L477.354 385.885L480.592 393.31L482.75 397.284L483.829 398.787L484.909 399.998L485.988 400.952L488.146 402.268L491.384 403.959L495.7 406.834L497.859 407.729L502.176 408.805L505.413 409.448L508.651 409.776L514.047 409.961L531.314 410.111" stroke="#EFEFEF" stroke-linecap="square"/>
</g>
<mask id="mask4_230_8158" style="mask-type:luminance" maskUnits="userSpaceOnUse" x="76" y="55" width="477" height="356">
<path d="M552.957 55.2959H76.7969V410.112H552.957V55.2959Z" fill="white"/>
</mask>
<g mask="url(#mask4_230_8158)">
<path d="M303.289 410.111L323.543 409.925L336.081 409.624L338.01 409.55L339.939 409.13L345.726 407.202L347.655 406.995L350.549 406.805L352.478 406.416L357.3 404.91L359.229 404.025L361.158 402.658L363.087 400.857L365.016 398.453L367.909 393.823L369.838 390.577L371.767 386.478L374.661 378.8L376.59 372.88L378.518 365.716L382.376 350.264L383.341 345.691L385.27 334.276L392.021 286.997L393.95 272.162L395.879 254.344L397.808 233.049L400.701 199.025L402.63 179.46L406.488 144.183L408.417 129.967L411.311 111.206L415.169 81.4594L416.133 76.2147L417.098 73.0604L418.062 72.1924L419.027 73.6245L419.991 77.3153L420.956 83.2397L421.92 91.3542L423.849 113.145L429.636 189.452L431.565 219.274L437.352 314.018L438.316 325.884L439.281 335.507L440.245 343.157L442.174 355.177L445.068 371.51L446.996 380.866L448.925 388.479L449.89 391.508L450.854 393.976L452.783 397.67L454.712 400.447L455.677 401.473L456.641 402.213L459.535 403.809L461.464 405.384L463.393 406.975L465.322 407.976L469.18 409.169L471.108 409.485L478.824 409.783L492.327 410.09L495.22 410.111" fill="#EFEFEF" fill-opacity="0.4"/>
<path d="M303.289 410.111L323.543 409.925L336.081 409.624L338.01 409.55L339.939 409.13L345.726 407.202L347.655 406.995L350.549 406.805L352.478 406.416L357.3 404.91L359.229 404.025L361.158 402.658L363.087 400.857L365.016 398.453L367.909 393.823L369.838 390.577L371.767 386.478L374.661 378.8L376.59 372.88L378.518 365.716L382.376 350.264L383.341 345.691L385.27 334.276L392.021 286.997L393.95 272.162L395.879 254.344L397.808 233.049L400.701 199.025L402.63 179.46L406.488 144.183L408.417 129.967L411.311 111.206L415.169 81.4594L416.133 76.2147L417.098 73.0604L418.062 72.1924L419.027 73.6245L419.991 77.3153L420.956 83.2397L421.92 91.3542L423.849 113.145L429.636 189.452L431.565 219.274L437.352 314.018L438.316 325.884L439.281 335.507L440.245 343.157L442.174 355.177L445.068 371.51L446.996 380.866L448.925 388.479L449.89 391.508L450.854 393.976L452.783 397.67L454.712 400.447L455.677 401.473L456.641 402.213L459.535 403.809L461.464 405.384L463.393 406.975L465.322 407.976L469.18 409.169L471.108 409.485L478.824 409.783L492.327 410.09L495.22 410.111" stroke="#EFEFEF" stroke-linecap="square"/>
</g>
<mask id="mask5_230_8158" style="mask-type:luminance" maskUnits="userSpaceOnUse" x="76" y="55" width="477" height="356">
<path d="M552.957 55.2959H76.7969V410.112H552.957V55.2959Z" fill="white"/>
</mask>
<g mask="url(#mask5_230_8158)">
<path d="M293 410.111L316.052 409.936L330.322 409.673L333.615 409.473L348.983 407.206L353.374 406.242L358.863 404.589L361.058 403.718L363.254 402.512L365.449 400.895L367.644 398.817L373.133 392.734L375.328 390.002L377.524 386.486L379.719 382.045L381.915 376.9L384.11 371.148L386.306 364.331L388.501 355.944L393.99 332.818L395.087 329.323L396.185 326.525L397.283 324.426L398.38 322.951L399.478 321.977L400.576 321.358L402.771 320.716L406.064 320.117L407.162 319.619L408.26 318.765L409.358 317.495L410.455 315.815L412.651 311.437L414.846 306.012L417.042 299.738L419.237 292.307L420.335 287.846L422.53 276.928L424.726 263.656L426.921 248.867L429.116 232.382L431.312 213.221L436.8 160.72L438.996 143.855L440.094 137.147L441.191 131.851L442.289 128.208L443.387 126.483L444.484 126.917L445.582 129.634L446.68 134.576L447.778 141.484L448.875 149.963L451.071 170.061L454.364 204.675L457.657 242.951L463.146 309.296L465.341 332.263L467.536 350.932L468.634 358.426L469.732 364.737L470.829 370.007L471.927 374.425L474.123 381.544L477.416 390.321L479.611 395.465L481.807 399.631L482.904 401.259L484.002 402.6L486.197 404.629L488.393 406.141L490.588 407.366L492.784 408.339L494.979 409.051L497.175 409.518L500.468 409.871L505.956 410.073L511.445 410.111" fill="#EFEFEF" fill-opacity="0.4"/>
<path d="M293 410.111L316.052 409.936L330.322 409.673L333.615 409.473L348.983 407.206L353.374 406.242L358.863 404.589L361.058 403.718L363.254 402.512L365.449 400.895L367.644 398.817L373.133 392.734L375.328 390.002L377.524 386.486L379.719 382.045L381.915 376.9L384.11 371.148L386.306 364.331L388.501 355.944L393.99 332.818L395.087 329.323L396.185 326.525L397.283 324.426L398.38 322.951L399.478 321.977L400.576 321.358L402.771 320.716L406.064 320.117L407.162 319.619L408.26 318.765L409.358 317.495L410.455 315.815L412.651 311.437L414.846 306.012L417.042 299.738L419.237 292.307L420.335 287.846L422.53 276.928L424.726 263.656L426.921 248.867L429.116 232.382L431.312 213.221L436.8 160.72L438.996 143.855L440.094 137.147L441.191 131.851L442.289 128.208L443.387 126.483L444.484 126.917L445.582 129.634L446.68 134.576L447.778 141.484L448.875 149.963L451.071 170.061L454.364 204.675L457.657 242.951L463.146 309.296L465.341 332.263L467.536 350.932L468.634 358.426L469.732 364.737L470.829 370.007L471.927 374.425L474.123 381.544L477.416 390.321L479.611 395.465L481.807 399.631L482.904 401.259L484.002 402.6L486.197 404.629L488.393 406.141L490.588 407.366L492.784 408.339L494.979 409.051L497.175 409.518L500.468 409.871L505.956 410.073L511.445 410.111" stroke="#EFEFEF" stroke-linecap="square"/>
</g>
<mask id="mask6_230_8158" style="mask-type:luminance" maskUnits="userSpaceOnUse" x="76" y="55" width="477" height="356">
<path d="M552.957 55.2959H76.7969V410.112H552.957V55.2959Z" fill="white"/>
</mask>
<g mask="url(#mask6_230_8158)">
<path d="M325.75 410.111L341.34 409.943L352.059 409.677L358.879 409.945L363.751 409.925L365.7 409.66L371.546 408.394L377.393 407.799L379.342 407.41L381.29 406.604L383.239 405.144L385.188 403.02L387.137 400.093L389.086 396.155L391.034 391.297L392.983 385.532L394.932 378.478L396.881 370.06L401.753 346.71L404.676 331.584L407.599 314.492L410.522 295.568L413.445 273.878L416.369 251.629L418.317 238.721L421.24 221.983L425.138 202.022L427.087 192.889L428.061 188.935L429.036 185.606L430.01 182.969L430.984 180.971L431.959 179.46L434.882 175.76L436.831 172.613L438.78 169.418L439.754 168.373L440.728 167.993L441.703 168.371L442.677 169.452L443.652 171.075L445.6 175.389L446.575 178.126L447.549 181.462L448.523 185.505L450.472 195.336L453.395 211.992L455.344 224.543L461.191 266.532L468.986 322.047L471.909 340.779L473.858 351.782L476.781 365.865L479.704 378.459L481.653 385.639L483.602 391.465L485.55 395.935L487.499 399.286L489.448 401.916L491.397 404.103L493.346 405.855L495.294 407.143L497.243 408.022L499.192 408.569L505.038 409.574L507.961 409.885L513.808 410.049L519.654 410.111" fill="#EFEFEF" fill-opacity="0.4"/>
<path d="M325.75 410.111L341.34 409.943L352.059 409.677L358.879 409.945L363.751 409.925L365.7 409.66L371.546 408.394L377.393 407.799L379.342 407.41L381.29 406.604L383.239 405.144L385.188 403.02L387.137 400.093L389.086 396.155L391.034 391.297L392.983 385.532L394.932 378.478L396.881 370.06L401.753 346.71L404.676 331.584L407.599 314.492L410.522 295.568L413.445 273.878L416.369 251.629L418.317 238.721L421.24 221.983L425.138 202.022L427.087 192.889L428.061 188.935L429.036 185.606L430.01 182.969L430.984 180.971L431.959 179.46L434.882 175.76L436.831 172.613L438.78 169.418L439.754 168.373L440.728 167.993L441.703 168.371L442.677 169.452L443.652 171.075L445.6 175.389L446.575 178.126L447.549 181.462L448.523 185.505L450.472 195.336L453.395 211.992L455.344 224.543L461.191 266.532L468.986 322.047L471.909 340.779L473.858 351.782L476.781 365.865L479.704 378.459L481.653 385.639L483.602 391.465L485.55 395.935L487.499 399.286L489.448 401.916L491.397 404.103L493.346 405.855L495.294 407.143L497.243 408.022L499.192 408.569L505.038 409.574L507.961 409.885L513.808 410.049L519.654 410.111" stroke="#EFEFEF" stroke-linecap="square"/>
</g>
<mask id="mask7_230_8158" style="mask-type:luminance" maskUnits="userSpaceOnUse" x="76" y="55" width="477" height="356">
<path d="M552.957 55.2959H76.7969V410.112H552.957V55.2959Z" fill="white"/>
</mask>
<g mask="url(#mask7_230_8158)">
<path d="M249.883 410.111L257.998 410.001L266.114 409.545L272.877 408.853L276.935 408.209L279.64 407.411L282.345 406.26L287.756 403.863L291.813 402.118L294.519 400.499L297.224 398.252L301.282 394.107L305.339 389.869L308.045 386.499L309.397 384.429L312.102 379.372L321.571 359.25L324.276 353.757L326.981 347.441L332.391 333.158L337.802 318.681L340.507 310.163L344.565 295.708L348.623 281.199L351.328 272.277L354.033 264.221L355.386 260.686L356.738 257.665L358.091 255.302L359.443 253.656L360.796 252.651L364.854 250.795L366.206 249.512L367.559 247.605L370.264 242.448L371.617 239.78L372.969 237.465L374.322 235.709L375.675 234.607L377.027 234.176L378.38 234.403L379.732 235.268L381.085 236.736L382.438 238.74L385.143 243.865L391.906 258.242L393.258 261.745L394.611 265.808L395.964 270.493L398.669 281.503L405.432 311.152L420.31 369.877L423.016 378.495L425.721 385.419L428.426 391.035L431.131 395.578L433.836 399.114L436.542 401.776L439.247 403.795L441.952 405.28L444.657 406.262L448.715 407.234L454.125 408.346L458.183 408.823L463.594 408.926L469.004 409.136L482.53 410.006L498.761 410.102L519.05 410.111" fill="#EFEFEF" fill-opacity="0.4"/>
<path d="M249.883 410.111L257.998 410.001L266.114 409.545L272.877 408.853L276.935 408.209L279.64 407.411L282.345 406.26L287.756 403.863L291.813 402.118L294.519 400.499L297.224 398.252L301.282 394.107L305.339 389.869L308.045 386.499L309.397 384.429L312.102 379.372L321.571 359.25L324.276 353.757L326.981 347.441L332.391 333.158L337.802 318.681L340.507 310.163L344.565 295.708L348.623 281.199L351.328 272.277L354.033 264.221L355.386 260.686L356.738 257.665L358.091 255.302L359.443 253.656L360.796 252.651L364.854 250.795L366.206 249.512L367.559 247.605L370.264 242.448L371.617 239.78L372.969 237.465L374.322 235.709L375.675 234.607L377.027 234.176L378.38 234.403L379.732 235.268L381.085 236.736L382.438 238.74L385.143 243.865L391.906 258.242L393.258 261.745L394.611 265.808L395.964 270.493L398.669 281.503L405.432 311.152L420.31 369.877L423.016 378.495L425.721 385.419L428.426 391.035L431.131 395.578L433.836 399.114L436.542 401.776L439.247 403.795L441.952 405.28L444.657 406.262L448.715 407.234L454.125 408.346L458.183 408.823L463.594 408.926L469.004 409.136L482.53 410.006L498.761 410.102L519.05 410.111" stroke="#EFEFEF" stroke-linecap="square"/>
</g>
<mask id="mask8_230_8158" style="mask-type:luminance" maskUnits="userSpaceOnUse" x="76" y="55" width="477" height="356">
<path d="M552.957 55.2959H76.7969V410.112H552.957V55.2959Z" fill="white"/>
</mask>
<g mask="url(#mask8_230_8158)">
<path d="M327.031 410.111L333.909 409.978L347.663 409.617L354.54 409.808L357.488 409.563L361.418 409.013L367.313 408.799L369.278 408.085L376.155 404.72L381.067 403.277L382.05 402.67L383.032 401.879L384.015 400.88L384.997 399.649L386.962 396.459L388.927 392.288L390.892 386.812L392.857 379.635L394.822 370.787L396.787 360.012L398.752 346.525L400.717 330.421L405.629 288.357L407.594 271.585L410.541 242.336L412.506 224.316L414.471 210.314L418.401 184.988L420.366 170.401L423.313 147.151L424.296 140.455L425.278 135.046L426.261 131.127L427.243 128.657L428.226 127.441L429.208 127.217L430.191 127.704L431.173 128.643L432.156 129.873L433.138 131.416L434.121 133.485L435.103 136.361L436.086 140.239L437.068 145.132L439.033 157.438L440.998 172.524L442.963 190.65L448.858 250.131L451.805 275.326L453.77 290.16L455.735 303.428L457.7 314.738L459.665 323.785L461.63 330.773L464.577 340.09L466.542 348.482L469.49 362.685L471.455 370.089L473.42 375.326L478.332 386.528L481.279 393.38L483.244 396.961L485.209 399.518L487.174 401.401L493.069 406.227L495.034 407.305L497.981 408.25L501.911 409.267L504.859 409.651L508.789 409.703L513.701 409.785L521.561 410.107L522.543 410.11" fill="#EFEFEF" fill-opacity="0.4"/>
<path d="M327.031 410.111L333.909 409.978L347.663 409.617L354.54 409.808L357.488 409.563L361.418 409.013L367.313 408.799L369.278 408.085L376.155 404.72L381.067 403.277L382.05 402.67L383.032 401.879L384.015 400.88L384.997 399.649L386.962 396.459L388.927 392.288L390.892 386.812L392.857 379.635L394.822 370.787L396.787 360.012L398.752 346.525L400.717 330.421L405.629 288.357L407.594 271.585L410.541 242.336L412.506 224.316L414.471 210.314L418.401 184.988L420.366 170.401L423.313 147.151L424.296 140.455L425.278 135.046L426.261 131.127L427.243 128.657L428.226 127.441L429.208 127.217L430.191 127.704L431.173 128.643L432.156 129.873L433.138 131.416L434.121 133.485L435.103 136.361L436.086 140.239L437.068 145.132L439.033 157.438L440.998 172.524L442.963 190.65L448.858 250.131L451.805 275.326L453.77 290.16L455.735 303.428L457.7 314.738L459.665 323.785L461.63 330.773L464.577 340.09L466.542 348.482L469.49 362.685L471.455 370.089L473.42 375.326L478.332 386.528L481.279 393.38L483.244 396.961L485.209 399.518L487.174 401.401L493.069 406.227L495.034 407.305L497.981 408.25L501.911 409.267L504.859 409.651L508.789 409.703L513.701 409.785L521.561 410.107L522.543 410.11" stroke="#EFEFEF" stroke-linecap="square"/>
</g>
<mask id="mask9_230_8158" style="mask-type:luminance" maskUnits="userSpaceOnUse" x="76" y="55" width="477" height="356">
<path d="M552.957 55.2959H76.7969V410.112H552.957V55.2959Z" fill="white"/>
</mask>
<g mask="url(#mask9_230_8158)">
<path d="M297.812 410.111L304.244 409.973L308.532 409.893L320.324 410.039L333.188 409.946L340.692 409.899L344.979 409.516L347.123 409.384L353.555 409.389L357.843 408.925L359.987 408.236L361.059 407.646L362.131 406.795L363.203 405.545L364.275 403.709L365.347 401.075L366.419 397.432L367.491 392.566L368.563 386.237L369.635 378.182L370.707 368.17L371.779 356.101L373.923 326.552L378.211 260.991L380.355 233.379L381.427 221.852L382.499 211.969L383.571 203.682L384.643 196.773L386.786 185.689L388.93 176.48L393.218 160.354L396.434 147.574L399.65 134.148L400.722 130.273L401.794 127.309L402.866 125.565L403.938 125.188L405.01 126.22L406.082 128.734L407.154 132.87L408.226 138.744L409.298 146.315L411.442 165.502L414.658 199.605L418.946 245.503L421.09 265.807L423.234 284.054L425.378 300.47L427.522 314.913L429.666 326.647L431.809 335.541L439.313 361.576L441.457 367.984L442.529 370.536L443.601 372.665L444.673 374.423L445.745 375.854L446.817 376.99L448.961 378.656L450.033 379.474L451.105 380.484L453.249 383.113L455.393 385.733L457.537 387.739L478.976 405.369L481.12 406.249L490.768 409L493.984 409.515L497.2 409.727L511.136 410.111" fill="#EFEFEF" fill-opacity="0.4"/>
<path d="M297.812 410.111L304.244 409.973L308.532 409.893L320.324 410.039L333.188 409.946L340.692 409.899L344.979 409.516L347.123 409.384L353.555 409.389L357.843 408.925L359.987 408.236L361.059 407.646L362.131 406.795L363.203 405.545L364.275 403.709L365.347 401.075L366.419 397.432L367.491 392.566L368.563 386.237L369.635 378.182L370.707 368.17L371.779 356.101L373.923 326.552L378.211 260.991L380.355 233.379L381.427 221.852L382.499 211.969L383.571 203.682L384.643 196.773L386.786 185.689L388.93 176.48L393.218 160.354L396.434 147.574L399.65 134.148L400.722 130.273L401.794 127.309L402.866 125.565L403.938 125.188L405.01 126.22L406.082 128.734L407.154 132.87L408.226 138.744L409.298 146.315L411.442 165.502L414.658 199.605L418.946 245.503L421.09 265.807L423.234 284.054L425.378 300.47L427.522 314.913L429.666 326.647L431.809 335.541L439.313 361.576L441.457 367.984L442.529 370.536L443.601 372.665L444.673 374.423L445.745 375.854L446.817 376.99L448.961 378.656L450.033 379.474L451.105 380.484L453.249 383.113L455.393 385.733L457.537 387.739L478.976 405.369L481.12 406.249L490.768 409L493.984 409.515L497.2 409.727L511.136 410.111" stroke="#EFEFEF" stroke-linecap="square"/>
</g>
<mask id="mask10_230_8158" style="mask-type:luminance" maskUnits="userSpaceOnUse" x="76" y="55" width="477" height="356">
<path d="M552.957 55.2959H76.7969V410.112H552.957V55.2959Z" fill="white"/>
</mask>
<g mask="url(#mask10_230_8158)">
<path d="M318.406 410.111L332.595 409.964L339.689 409.821L346.783 409.79L355.904 409.901L358.944 409.687L364.012 409.15L367.052 409.065L369.079 408.725L371.106 408.051L373.133 406.957L375.16 405.228L377.187 402.824L378.2 401.324L379.213 399.511L380.227 397.256L381.24 394.44L382.254 391.008L384.281 382.37L386.308 371.543L388.335 358.053L390.361 340.709L392.388 319.085L398.469 248.62L400.496 228.262L402.523 211.06L408.604 166.163L410.631 151.21L411.644 145.456L412.657 141.112L413.671 138.079L414.684 136.115L415.698 134.968L416.711 134.514L417.725 134.84L418.738 136.194L419.752 138.838L420.765 142.887L421.779 148.216L426.846 178.852L429.886 194.24L435.967 230.315L437.994 241.715L440.021 256.28L443.061 281.1L445.088 294.078L450.155 320.301L452.182 329.813L454.209 337.69L457.249 348.85L460.29 361.483L462.317 369.674L464.344 376.461L466.37 381.897L470.424 390.981L472.451 395.226L473.465 396.92L474.478 398.216L476.505 399.931L478.532 401.535L483.599 406.479L484.613 407.091L486.64 407.797L490.693 408.581L494.747 409.774L496.774 410.028L499.814 410.061L506.909 409.97L515.016 410.059L520.083 410.111" fill="#EFEFEF" fill-opacity="0.4"/>
<path d="M318.406 410.111L332.595 409.964L339.689 409.821L346.783 409.79L355.904 409.901L358.944 409.687L364.012 409.15L367.052 409.065L369.079 408.725L371.106 408.051L373.133 406.957L375.16 405.228L377.187 402.824L378.2 401.324L379.213 399.511L380.227 397.256L381.24 394.44L382.254 391.008L384.281 382.37L386.308 371.543L388.335 358.053L390.361 340.709L392.388 319.085L398.469 248.62L400.496 228.262L402.523 211.06L408.604 166.163L410.631 151.21L411.644 145.456L412.657 141.112L413.671 138.079L414.684 136.115L415.698 134.968L416.711 134.514L417.725 134.84L418.738 136.194L419.752 138.838L420.765 142.887L421.779 148.216L426.846 178.852L429.886 194.24L435.967 230.315L437.994 241.715L440.021 256.28L443.061 281.1L445.088 294.078L450.155 320.301L452.182 329.813L454.209 337.69L457.249 348.85L460.29 361.483L462.317 369.674L464.344 376.461L466.37 381.897L470.424 390.981L472.451 395.226L473.465 396.92L474.478 398.216L476.505 399.931L478.532 401.535L483.599 406.479L484.613 407.091L486.64 407.797L490.693 408.581L494.747 409.774L496.774 410.028L499.814 410.061L506.909 409.97L515.016 410.059L520.083 410.111" stroke="#EFEFEF" stroke-linecap="square"/>
</g>
<mask id="mask11_230_8158" style="mask-type:luminance" maskUnits="userSpaceOnUse" x="76" y="55" width="477" height="356">
<path d="M552.957 55.2959H76.7969V410.112H552.957V55.2959Z" fill="white"/>
</mask>
<g mask="url(#mask11_230_8158)">
<path d="M289.953 410.111L307.249 409.953L316.405 409.417L319.458 409.462L321.492 409.223L325.562 408.537L330.649 407.94L336.753 406.908L340.823 406.533L342.858 405.941L343.875 405.4L345.91 403.796L348.962 401.194L354.049 397.666L356.084 395.693L358.118 393.035L360.153 389.375L365.24 378.63L370.327 369.843L371.345 367.504L372.362 364.649L374.397 357.404L378.466 340.839L380.501 331.456L383.553 314.761L388.64 286.161L390.675 272.279L395.762 233.269L397.797 215.813L400.849 187.881L402.884 172.061L404.919 159.245L405.936 154.104L406.953 149.917L408.988 143.658L410.006 140.699L411.023 137.22L413.058 128.266L414.075 123.54L415.093 119.643L416.11 117.33L417.127 117.025L418.145 118.696L419.162 121.957L420.179 126.315L422.214 137.117L423.232 143.633L424.249 151.326L425.266 160.603L426.284 171.719L428.319 198.936L432.388 258.457L435.44 298.039L438.493 333.476L440.527 353.074L442.562 368.685L443.58 374.857L444.597 379.964L445.614 384.171L447.649 390.865L449.684 396.33L450.701 398.613L451.719 400.484L452.736 401.904L453.753 402.935L459.858 407.582L461.893 408.517L463.927 408.933L466.98 409.182L492.414 410.11" fill="#EFEFEF" fill-opacity="0.4"/>
<path d="M289.953 410.111L307.249 409.953L316.405 409.417L319.458 409.462L321.492 409.223L325.562 408.537L330.649 407.94L336.753 406.908L340.823 406.533L342.858 405.941L343.875 405.4L345.91 403.796L348.962 401.194L354.049 397.666L356.084 395.693L358.118 393.035L360.153 389.375L365.24 378.63L370.327 369.843L371.345 367.504L372.362 364.649L374.397 357.404L378.466 340.839L380.501 331.456L383.553 314.761L388.64 286.161L390.675 272.279L395.762 233.269L397.797 215.813L400.849 187.881L402.884 172.061L404.919 159.245L405.936 154.104L406.953 149.917L408.988 143.658L410.006 140.699L411.023 137.22L413.058 128.266L414.075 123.54L415.093 119.643L416.11 117.33L417.127 117.025L418.145 118.696L419.162 121.957L420.179 126.315L422.214 137.117L423.232 143.633L424.249 151.326L425.266 160.603L426.284 171.719L428.319 198.936L432.388 258.457L435.44 298.039L438.493 333.476L440.527 353.074L442.562 368.685L443.58 374.857L444.597 379.964L445.614 384.171L447.649 390.865L449.684 396.33L450.701 398.613L451.719 400.484L452.736 401.904L453.753 402.935L459.858 407.582L461.893 408.517L463.927 408.933L466.98 409.182L492.414 410.11" stroke="#EFEFEF" stroke-linecap="square"/>
</g>
<mask id="mask12_230_8158" style="mask-type:luminance" maskUnits="userSpaceOnUse" x="76" y="55" width="477" height="356">
<path d="M552.957 55.2959H76.7969V410.112H552.957V55.2959Z" fill="white"/>
</mask>
<g mask="url(#mask12_230_8158)">
<path d="M296.547 410.111L319.82 409.924L331.457 409.843L335.689 409.709L343.094 409.112L348.383 408.47L356.847 407.509L358.962 406.749L362.136 405.427L365.31 404.439L370.599 403.005L371.657 402.332L373.773 400.5L375.889 398.649L380.12 395.513L384.352 391.365L386.467 389.008L387.525 387.486L389.641 383.581L391.757 378.538L393.873 372.131L395.988 364.002L398.104 353.672L400.22 340.646L402.336 324.91L408.683 274.336L415.03 231.498L418.204 208.991L420.32 196.859L424.551 176.046L428.783 153.005L429.841 148.849L430.899 146.094L431.957 144.842L433.015 144.86L434.072 145.692L436.188 148.329L437.246 149.992L438.304 152.047L439.362 154.625L440.42 157.827L441.478 161.755L442.536 166.49L444.651 178.396L446.767 193.374L448.883 211.542L458.404 300.672L460.52 318.599L462.635 334.239L464.751 347.581L466.867 359.09L468.983 369.258L471.099 378.081L473.214 385.496L475.33 391.676L477.446 396.787L478.504 398.901L479.562 400.68L480.62 402.131L482.735 404.273L485.909 406.636L488.025 407.87L490.141 408.678L492.256 409.099L498.604 409.896L503.893 410.094L507.067 410.111" fill="#EFEFEF" fill-opacity="0.4"/>
<path d="M296.547 410.111L319.82 409.924L331.457 409.843L335.689 409.709L343.094 409.112L348.383 408.47L356.847 407.509L358.962 406.749L362.136 405.427L365.31 404.439L370.599 403.005L371.657 402.332L373.773 400.5L375.889 398.649L380.12 395.513L384.352 391.365L386.467 389.008L387.525 387.486L389.641 383.581L391.757 378.538L393.873 372.131L395.988 364.002L398.104 353.672L400.22 340.646L402.336 324.91L408.683 274.336L415.03 231.498L418.204 208.991L420.32 196.859L424.551 176.046L428.783 153.005L429.841 148.849L430.899 146.094L431.957 144.842L433.015 144.86L434.072 145.692L436.188 148.329L437.246 149.992L438.304 152.047L439.362 154.625L440.42 157.827L441.478 161.755L442.536 166.49L444.651 178.396L446.767 193.374L448.883 211.542L458.404 300.672L460.52 318.599L462.635 334.239L464.751 347.581L466.867 359.09L468.983 369.258L471.099 378.081L473.214 385.496L475.33 391.676L477.446 396.787L478.504 398.901L479.562 400.68L480.62 402.131L482.735 404.273L485.909 406.636L488.025 407.87L490.141 408.678L492.256 409.099L498.604 409.896L503.893 410.094L507.067 410.111" stroke="#EFEFEF" stroke-linecap="square"/>
</g>
<mask id="mask13_230_8158" style="mask-type:luminance" maskUnits="userSpaceOnUse" x="76" y="55" width="477" height="356">
<path d="M552.957 55.2959H76.7969V410.112H552.957V55.2959Z" fill="white"/>
</mask>
<g mask="url(#mask13_230_8158)">
<path d="M320.406 410.111L347.056 409.898L359.888 409.88L368.772 409.743L371.733 409.017L373.707 408.619L377.655 408.281L379.629 407.564L381.603 406.281L385.551 402.935L386.538 401.931L387.525 400.636L388.512 398.929L390.487 394.419L393.448 386.688L394.435 383.677L395.422 380.129L396.409 375.928L397.396 371.02L398.383 365.324L399.37 358.67L400.357 350.87L402.331 331.921L407.266 278.617L409.24 253.274L414.176 182.296L416.15 159.519L418.124 140.736L419.111 132.898L420.098 126.39L421.085 121.327L423.059 114.017L426.02 103.878L427.007 101.829L427.994 101.414L428.981 102.788L429.968 105.779L430.955 110.055L432.93 121.051L435.891 138.702L438.852 154.944L440.826 168.417L442.8 184.327L444.774 202.969L446.748 225.11L450.696 271.514L452.67 290.15L454.645 306.154L456.619 320.174L458.593 332.072L461.554 347.135L463.528 355.869L469.45 378.812L471.424 385.704L473.398 391.231L475.373 395.628L476.36 397.378L477.347 398.81L478.334 399.945L480.308 401.604L483.269 404.005L485.243 405.607L487.217 406.733L492.152 409L494.126 409.382L497.088 409.291L500.049 409.277L503.01 409.578L505.971 409.928L509.919 409.997L516.829 410.111" fill="#EFEFEF" fill-opacity="0.4"/>
<path d="M320.406 410.111L347.056 409.898L359.888 409.88L368.772 409.743L371.733 409.017L373.707 408.619L377.655 408.281L379.629 407.564L381.603 406.281L385.551 402.935L386.538 401.931L387.525 400.636L388.512 398.929L390.487 394.419L393.448 386.688L394.435 383.677L395.422 380.129L396.409 375.928L397.396 371.02L398.383 365.324L399.37 358.67L400.357 350.87L402.331 331.921L407.266 278.617L409.24 253.274L414.176 182.296L416.15 159.519L418.124 140.736L419.111 132.898L420.098 126.39L421.085 121.327L423.059 114.017L426.02 103.878L427.007 101.829L427.994 101.414L428.981 102.788L429.968 105.779L430.955 110.055L432.93 121.051L435.891 138.702L438.852 154.944L440.826 168.417L442.8 184.327L444.774 202.969L446.748 225.11L450.696 271.514L452.67 290.15L454.645 306.154L456.619 320.174L458.593 332.072L461.554 347.135L463.528 355.869L469.45 378.812L471.424 385.704L473.398 391.231L475.373 395.628L476.36 397.378L477.347 398.81L478.334 399.945L480.308 401.604L483.269 404.005L485.243 405.607L487.217 406.733L492.152 409L494.126 409.382L497.088 409.291L500.049 409.277L503.01 409.578L505.971 409.928L509.919 409.997L516.829 410.111" stroke="#EFEFEF" stroke-linecap="square"/>
</g>
<mask id="mask14_230_8158" style="mask-type:luminance" maskUnits="userSpaceOnUse" x="76" y="55" width="477" height="356">
<path d="M552.957 55.2959H76.7969V410.112H552.957V55.2959Z" fill="white"/>
</mask>
<g mask="url(#mask14_230_8158)">
<path d="M98.4375 410.111L202.916 409.958L207.095 409.69L211.274 409.193L215.453 408.423L219.633 407.365L223.812 406.032L227.991 404.373L230.08 403.362L232.17 402.18L234.26 400.795L236.349 399.187L238.439 397.346L240.528 395.266L242.618 392.935L244.707 390.332L246.797 387.443L250.976 380.833L255.155 373.389L259.334 365.463L263.514 357.025L267.693 347.897L271.872 338.608L276.051 330.138L280.23 322.625L284.409 315.766L286.499 312.66L288.588 309.854L290.678 307.386L292.768 305.281L294.857 303.592L296.947 302.397L299.036 301.763L301.126 301.665L303.215 301.963L307.395 302.889L311.574 303.448L315.753 303.944L324.111 305.272L332.469 306.197L334.559 306.621L336.649 307.224L338.738 308.054L340.828 309.133L342.917 310.449L347.096 313.67L351.276 317.606L363.813 330.844L367.992 335.049L370.082 337.491L372.171 340.268L376.35 346.749L388.888 367.789L393.067 374.021L397.246 379.527L399.336 381.954L401.425 384.126L403.515 386.029L405.604 387.675L407.694 389.098L411.873 391.44L418.142 394.34L426.5 397.976L432.769 400.212L439.038 402.188L443.217 403.266L453.665 405.507L464.112 408.195L468.292 408.889L472.471 409.302L480.829 409.682L493.366 409.929L514.262 410.111" fill="#7EB0D5" fill-opacity="0.4"/>
<path d="M98.4375 410.111L202.916 409.958L207.095 409.69L211.274 409.193L215.453 408.423L219.633 407.365L223.812 406.032L227.991 404.373L230.08 403.362L232.17 402.18L234.26 400.795L236.349 399.187L238.439 397.346L240.528 395.266L242.618 392.935L244.707 390.332L246.797 387.443L250.976 380.833L255.155 373.389L259.334 365.463L263.514 357.025L267.693 347.897L271.872 338.608L276.051 330.138L280.23 322.625L284.409 315.766L286.499 312.66L288.588 309.854L290.678 307.386L292.768 305.281L294.857 303.592L296.947 302.397L299.036 301.763L301.126 301.665L303.215 301.963L307.395 302.889L311.574 303.448L315.753 303.944L324.111 305.272L332.469 306.197L334.559 306.621L336.649 307.224L338.738 308.054L340.828 309.133L342.917 310.449L347.096 313.67L351.276 317.606L363.813 330.844L367.992 335.049L370.082 337.491L372.171 340.268L376.35 346.749L388.888 367.789L393.067 374.021L397.246 379.527L399.336 381.954L401.425 384.126L403.515 386.029L405.604 387.675L407.694 389.098L411.873 391.44L418.142 394.34L426.5 397.976L432.769 400.212L439.038 402.188L443.217 403.266L453.665 405.507L464.112 408.195L468.292 408.889L472.471 409.302L480.829 409.682L493.366 409.929L514.262 410.111" stroke="#7EB0D5" stroke-linecap="square"/>
</g>
<path d="M535.061 411.061C535.646 410.475 535.646 409.525 535.061 408.939L525.515 399.393C524.929 398.808 523.979 398.808 523.393 399.393C522.808 399.979 522.808 400.929 523.393 401.515L531.879 410L523.393 418.485C522.808 419.071 522.808 420.021 523.393 420.607C523.979 421.192 524.929 421.192 525.515 420.607L535.061 411.061ZM79 411.5H534V408.5H79V411.5Z" fill="black"/>
</g>
<defs>
<clipPath id="clip0_230_8158">
<rect width="614.4" height="460.8" fill="white"/>
</clipPath>
</defs>
</svg>
