<svg width="615" height="461" viewBox="0 0 615 461" fill="none" xmlns="http://www.w3.org/2000/svg">
<g clip-path="url(#clip0_230_8078)">
<mask id="mask0_230_8078" style="mask-type:luminance" maskUnits="userSpaceOnUse" x="76" y="55" width="477" height="356">
<path d="M552.957 55.2959H76.7969V410.112H552.957V55.2959Z" fill="white"/>
</mask>
<g mask="url(#mask0_230_8078)">
<path d="M271.805 410.111L279.35 409.994L288.152 409.654L291.925 409.507L295.697 408.976L300.727 407.972L303.242 407.246L307.015 405.746L312.045 403.463L314.56 402.007L318.332 399.474L320.847 397.35L322.105 395.943L323.362 394.213L325.877 389.795L332.164 376.838L334.679 370.675L337.194 363.068L340.967 349.825L345.997 331.329L348.512 319.964L351.027 306.553L356.057 278.352L358.572 266.367L361.087 256.352L363.602 247.664L364.859 243.784L366.117 240.41L367.374 237.769L368.632 236.02L369.889 235.161L371.147 235.028L372.404 235.374L374.919 236.74L376.177 237.652L377.434 238.794L378.692 240.246L379.949 242.049L381.207 244.189L383.722 249.347L384.979 252.414L386.237 255.915L388.752 264.322L392.524 279.118L396.297 293.868L400.069 307.836L402.584 318.882L406.357 335.673L408.872 345.507L412.644 358.758L415.159 366.717L417.674 373.609L420.189 379.113L422.704 383.546L428.992 393.596L431.507 396.965L434.022 399.712L436.537 401.955L439.052 403.884L441.567 405.523L444.082 406.665L446.597 407.322L457.914 409.456L461.687 409.772L467.974 409.903L488.094 410.102L513.244 410.053L522.046 410.111" fill="#EFEFEF" fill-opacity="0.4"/>
<path d="M271.805 410.111L279.35 409.994L288.152 409.654L291.925 409.507L295.697 408.976L300.727 407.972L303.242 407.246L307.015 405.746L312.045 403.463L314.56 402.007L318.332 399.474L320.847 397.35L322.105 395.943L323.362 394.213L325.877 389.795L332.164 376.838L334.679 370.675L337.194 363.068L340.967 349.825L345.997 331.329L348.512 319.964L351.027 306.553L356.057 278.352L358.572 266.367L361.087 256.352L363.602 247.664L364.859 243.784L366.117 240.41L367.374 237.769L368.632 236.02L369.889 235.161L371.147 235.028L372.404 235.374L374.919 236.74L376.177 237.652L377.434 238.794L378.692 240.246L379.949 242.049L381.207 244.189L383.722 249.347L384.979 252.414L386.237 255.915L388.752 264.322L392.524 279.118L396.297 293.868L400.069 307.836L402.584 318.882L406.357 335.673L408.872 345.507L412.644 358.758L415.159 366.717L417.674 373.609L420.189 379.113L422.704 383.546L428.992 393.596L431.507 396.965L434.022 399.712L436.537 401.955L439.052 403.884L441.567 405.523L444.082 406.665L446.597 407.322L457.914 409.456L461.687 409.772L467.974 409.903L488.094 410.102L513.244 410.053L522.046 410.111" stroke="#EFEFEF" stroke-linecap="square"/>
</g>
<mask id="mask1_230_8078" style="mask-type:luminance" maskUnits="userSpaceOnUse" x="76" y="55" width="477" height="356">
<path d="M552.957 55.2959H76.7969V410.112H552.957V55.2959Z" fill="white"/>
</mask>
<g mask="url(#mask1_230_8078)">
<path d="M297.336 410.111L331.008 409.856L337.975 409.22L339.136 408.927L342.619 407.412L346.102 407.087L349.586 406.097L350.747 405.42L351.908 404.384L353.069 402.993L354.23 401.286L356.552 397.038L357.713 394.335L358.874 390.922L360.035 386.523L362.358 375.103L363.519 368.416L364.68 360.728L365.841 351.699L368.163 329.666L369.324 316.855L370.485 302.351L372.808 267.736L375.13 226.921L377.452 185.475L379.774 149.658L382.096 118.803L384.419 94.3554L385.58 83.3263L386.741 75.7223L387.902 73.9648L389.063 77.9962L390.224 85.6597L392.546 104.611L393.707 115.468L396.03 141.853L398.352 173.984L401.835 228.867L405.318 275.966L406.48 289.679L408.802 311.083L413.446 349.68L415.768 364.759L416.929 370.554L418.091 374.956L421.574 386.091L422.735 390.054L423.896 393.379L425.057 395.888L427.379 399.752L429.702 402.979L430.863 404.194L432.024 405.154L433.185 405.88L435.507 406.767L442.474 408.609L445.957 408.769L451.763 409.808L454.085 409.696L456.407 409.556L468.018 410.039L471.501 409.902L478.468 410.112L491.24 409.975L494.723 409.962L499.368 410.11L528.395 410.111" fill="#EFEFEF" fill-opacity="0.4"/>
<path d="M297.336 410.111L331.008 409.856L337.975 409.22L339.136 408.927L342.619 407.412L346.102 407.087L349.586 406.097L350.747 405.42L351.908 404.384L353.069 402.993L354.23 401.286L356.552 397.038L357.713 394.335L358.874 390.922L360.035 386.523L362.358 375.103L363.519 368.416L364.68 360.728L365.841 351.699L368.163 329.666L369.324 316.855L370.485 302.351L372.808 267.736L375.13 226.921L377.452 185.475L379.774 149.658L382.096 118.803L384.419 94.3554L385.58 83.3263L386.741 75.7223L387.902 73.9648L389.063 77.9962L390.224 85.6597L392.546 104.611L393.707 115.468L396.03 141.853L398.352 173.984L401.835 228.867L405.318 275.966L406.48 289.679L408.802 311.083L413.446 349.68L415.768 364.759L416.929 370.554L418.091 374.956L421.574 386.091L422.735 390.054L423.896 393.379L425.057 395.888L427.379 399.752L429.702 402.979L430.863 404.194L432.024 405.154L433.185 405.88L435.507 406.767L442.474 408.609L445.957 408.769L451.763 409.808L454.085 409.696L456.407 409.556L468.018 410.039L471.501 409.902L478.468 410.112L491.24 409.975L494.723 409.962L499.368 410.11L528.395 410.111" stroke="#EFEFEF" stroke-linecap="square"/>
</g>
<mask id="mask2_230_8078" style="mask-type:luminance" maskUnits="userSpaceOnUse" x="76" y="55" width="477" height="356">
<path d="M552.957 55.2959H76.7969V410.112H552.957V55.2959Z" fill="white"/>
</mask>
<g mask="url(#mask2_230_8078)">
<path d="M290.836 410.111L315.117 409.911L320.899 409.809L323.211 409.792L327.836 409.259L331.305 408.74L335.93 407.509L337.086 407.068L339.399 405.708L342.867 403.548L344.024 402.802L345.18 401.869L346.336 400.687L347.492 399.21L348.649 397.349L349.805 394.972L350.961 391.975L352.117 388.34L354.43 379.539L359.055 359.731L361.367 349.073L363.68 335.927L365.992 320.167L368.305 302.02L372.93 262.834L377.555 222.014L378.711 214.407L385.649 177.008L386.805 171.889L387.961 167.872L389.118 165.005L390.274 163.45L391.43 163.422L392.586 165.052L393.743 168.328L394.899 173.017L397.211 184.826L399.524 199.023L406.461 249.208L413.399 308.936L414.555 317.213L416.868 330.674L426.118 377.759L427.274 382.528L428.43 386.63L429.586 390.088L430.743 392.938L431.899 395.263L434.211 398.927L436.524 402.058L438.836 404.738L441.149 406.794L442.305 407.544L443.461 408.051L444.618 408.305L449.243 408.706L451.555 409.036L456.18 409.2L465.43 409.438L470.055 409.269L473.524 409.568L478.149 410.051L482.774 410.037L489.712 410.106L511.68 410.048L517.462 410.088L520.93 410.111" fill="#EFEFEF" fill-opacity="0.4"/>
<path d="M290.836 410.111L315.117 409.911L320.899 409.809L323.211 409.792L327.836 409.259L331.305 408.74L335.93 407.509L337.086 407.068L339.399 405.708L342.867 403.548L344.024 402.802L345.18 401.869L346.336 400.687L347.492 399.21L348.649 397.349L349.805 394.972L350.961 391.975L352.117 388.34L354.43 379.539L359.055 359.731L361.367 349.073L363.68 335.927L365.992 320.167L368.305 302.02L372.93 262.834L377.555 222.014L378.711 214.407L385.649 177.008L386.805 171.889L387.961 167.872L389.118 165.005L390.274 163.45L391.43 163.422L392.586 165.052L393.743 168.328L394.899 173.017L397.211 184.826L399.524 199.023L406.461 249.208L413.399 308.936L414.555 317.213L416.868 330.674L426.118 377.759L427.274 382.528L428.43 386.63L429.586 390.088L430.743 392.938L431.899 395.263L434.211 398.927L436.524 402.058L438.836 404.738L441.149 406.794L442.305 407.544L443.461 408.051L444.618 408.305L449.243 408.706L451.555 409.036L456.18 409.2L465.43 409.438L470.055 409.269L473.524 409.568L478.149 410.051L482.774 410.037L489.712 410.106L511.68 410.048L517.462 410.088L520.93 410.111" stroke="#EFEFEF" stroke-linecap="square"/>
</g>
<mask id="mask3_230_8078" style="mask-type:luminance" maskUnits="userSpaceOnUse" x="76" y="55" width="477" height="356">
<path d="M552.957 55.2959H76.7969V410.112H552.957V55.2959Z" fill="white"/>
</mask>
<g mask="url(#mask3_230_8078)">
<path d="M303.93 410.111L332.495 409.932L340.494 409.338L347.349 408.12L348.492 407.504L349.635 406.659L350.777 405.569L351.92 404.205L353.063 402.519L354.205 400.458L355.348 397.986L356.49 395.09L357.633 391.742L358.776 387.861L359.918 383.321L361.061 378.015L363.346 365.064L365.631 349.426L367.917 331.622L370.202 311.185L372.487 286.857L378.2 221.043L379.343 210.318L380.486 201.251L381.628 194.192L382.771 189.443L383.913 187.147L385.056 187.142L386.199 188.928L387.341 191.806L389.627 198.285L391.912 203.765L394.197 209.192L396.482 216.023L398.768 224.118L401.053 234.197L405.623 257.065L407.909 266.158L410.194 273.162L411.336 276.431L412.479 280.228L413.622 284.949L419.335 312.811L422.763 326.331L426.191 337.979L428.476 346.054L433.046 363.33L435.332 370.62L437.617 376.269L446.758 395.607L447.9 397.516L449.043 399.079L450.186 400.28L451.328 401.161L453.613 402.298L457.041 403.757L459.327 405.173L462.755 407.52L463.897 408.067L466.182 408.681L471.896 409.5L481.037 410.003L491.32 410.016L497.033 409.917L511.887 409.98L518.743 410.065L531.312 410.111" fill="#EFEFEF" fill-opacity="0.4"/>
<path d="M303.93 410.111L332.495 409.932L340.494 409.338L347.349 408.12L348.492 407.504L349.635 406.659L350.777 405.569L351.92 404.205L353.063 402.519L354.205 400.458L355.348 397.986L356.49 395.09L357.633 391.742L358.776 387.861L359.918 383.321L361.061 378.015L363.346 365.064L365.631 349.426L367.917 331.622L370.202 311.185L372.487 286.857L378.2 221.043L379.343 210.318L380.486 201.251L381.628 194.192L382.771 189.443L383.913 187.147L385.056 187.142L386.199 188.928L387.341 191.806L389.627 198.285L391.912 203.765L394.197 209.192L396.482 216.023L398.768 224.118L401.053 234.197L405.623 257.065L407.909 266.158L410.194 273.162L411.336 276.431L412.479 280.228L413.622 284.949L419.335 312.811L422.763 326.331L426.191 337.979L428.476 346.054L433.046 363.33L435.332 370.62L437.617 376.269L446.758 395.607L447.9 397.516L449.043 399.079L450.186 400.28L451.328 401.161L453.613 402.298L457.041 403.757L459.327 405.173L462.755 407.52L463.897 408.067L466.182 408.681L471.896 409.5L481.037 410.003L491.32 410.016L497.033 409.917L511.887 409.98L518.743 410.065L531.312 410.111" stroke="#EFEFEF" stroke-linecap="square"/>
</g>
<mask id="mask4_230_8078" style="mask-type:luminance" maskUnits="userSpaceOnUse" x="76" y="55" width="477" height="356">
<path d="M552.957 55.2959H76.7969V410.112H552.957V55.2959Z" fill="white"/>
</mask>
<g mask="url(#mask4_230_8078)">
<path d="M289.594 410.111L312.943 409.88L322.283 409.133L330.455 409.195L332.79 408.824L335.125 408.056L342.129 405.124L343.297 404.455L344.464 403.497L346.799 400.685L350.301 396.43L351.469 393.84L354.971 383.905L356.139 380.05L357.306 374.978L359.641 361.739L361.976 347.001L363.143 338.492L364.311 328.242L366.646 302.559L368.981 276.881L371.316 254.536L373.651 228.478L375.985 199.017L379.488 148.412L381.823 121.242L385.325 83.0784L386.493 74.485L387.66 72.1924L388.827 76.144L389.995 84.4864L392.33 106.102L393.497 118.805L394.665 134.635L397 175.058L404.004 302.024L405.172 317.49L406.339 330.037L407.507 339.861L409.842 354.661L412.177 367.916L413.344 373.849L414.512 378.915L415.679 383.013L416.846 386.305L420.349 394.36L421.516 396.825L422.684 398.889L425.019 401.913L427.354 404.738L428.521 405.692L429.688 406.222L433.191 407.384L436.693 408.801L439.028 409.301L443.698 409.756L479.889 410.112L521.917 410.111" fill="#EFEFEF" fill-opacity="0.4"/>
<path d="M289.594 410.111L312.943 409.88L322.283 409.133L330.455 409.195L332.79 408.824L335.125 408.056L342.129 405.124L343.297 404.455L344.464 403.497L346.799 400.685L350.301 396.43L351.469 393.84L354.971 383.905L356.139 380.05L357.306 374.978L359.641 361.739L361.976 347.001L363.143 338.492L364.311 328.242L366.646 302.559L368.981 276.881L371.316 254.536L373.651 228.478L375.985 199.017L379.488 148.412L381.823 121.242L385.325 83.0784L386.493 74.485L387.66 72.1924L388.827 76.144L389.995 84.4864L392.33 106.102L393.497 118.805L394.665 134.635L397 175.058L404.004 302.024L405.172 317.49L406.339 330.037L407.507 339.861L409.842 354.661L412.177 367.916L413.344 373.849L414.512 378.915L415.679 383.013L416.846 386.305L420.349 394.36L421.516 396.825L422.684 398.889L425.019 401.913L427.354 404.738L428.521 405.692L429.688 406.222L433.191 407.384L436.693 408.801L439.028 409.301L443.698 409.756L479.889 410.112L521.917 410.111" stroke="#EFEFEF" stroke-linecap="square"/>
</g>
<mask id="mask5_230_8078" style="mask-type:luminance" maskUnits="userSpaceOnUse" x="76" y="55" width="477" height="356">
<path d="M552.957 55.2959H76.7969V410.112H552.957V55.2959Z" fill="white"/>
</mask>
<g mask="url(#mask5_230_8078)">
<path d="M295.836 410.111L306.546 409.968L311.415 409.684L316.283 409.381L320.178 409.194L322.125 408.844L325.046 407.932L329.915 406.137L331.862 405.076L333.809 403.662L335.757 401.941L337.704 399.916L340.625 396.368L344.52 391.239L346.467 387.97L347.441 385.884L348.414 383.411L350.362 377.276L353.283 366.189L355.23 358.993L357.177 353.002L358.151 350.623L359.125 348.713L360.098 347.302L361.072 346.406L362.046 346.011L363.019 346.068L363.993 346.491L365.94 347.994L370.809 352.202L372.756 353.628L373.73 354.026L374.704 354.061L375.677 353.682L376.651 352.918L378.598 350.645L381.519 346.612L383.467 343.409L384.44 341.404L385.414 338.961L386.388 335.942L387.361 332.244L388.335 327.821L390.282 316.982L392.23 304.069L394.177 289.527L397.098 265.074L400.993 229.399L405.861 183.644L407.808 168.058L408.782 161.801L409.756 156.897L410.729 153.545L411.703 151.9L412.677 152.083L413.65 154.172L414.624 158.199L415.598 164.128L416.571 171.829L418.519 191.607L421.44 227.711L426.308 289.494L428.256 311.425L430.203 330.853L432.15 347.54L434.098 361.269L436.045 372.138L437.992 380.67L439.94 387.422L441.887 392.763L443.834 396.924L445.782 400.051L447.729 402.366L449.676 404.203L452.597 406.463L454.545 407.562L456.492 408.228L459.413 408.666L462.334 409.114L466.229 409.798L469.15 409.947L480.834 410.013L489.597 410.111" fill="#EFEFEF" fill-opacity="0.4"/>
<path d="M295.836 410.111L306.546 409.968L311.415 409.684L316.283 409.381L320.178 409.194L322.125 408.844L325.046 407.932L329.915 406.137L331.862 405.076L333.809 403.662L335.757 401.941L337.704 399.916L340.625 396.368L344.52 391.239L346.467 387.97L347.441 385.884L348.414 383.411L350.362 377.276L353.283 366.189L355.23 358.993L357.177 353.002L358.151 350.623L359.125 348.713L360.098 347.302L361.072 346.406L362.046 346.011L363.019 346.068L363.993 346.491L365.94 347.994L370.809 352.202L372.756 353.628L373.73 354.026L374.704 354.061L375.677 353.682L376.651 352.918L378.598 350.645L381.519 346.612L383.467 343.409L384.44 341.404L385.414 338.961L386.388 335.942L387.361 332.244L388.335 327.821L390.282 316.982L392.23 304.069L394.177 289.527L397.098 265.074L400.993 229.399L405.861 183.644L407.808 168.058L408.782 161.801L409.756 156.897L410.729 153.545L411.703 151.9L412.677 152.083L413.65 154.172L414.624 158.199L415.598 164.128L416.571 171.829L418.519 191.607L421.44 227.711L426.308 289.494L428.256 311.425L430.203 330.853L432.15 347.54L434.098 361.269L436.045 372.138L437.992 380.67L439.94 387.422L441.887 392.763L443.834 396.924L445.782 400.051L447.729 402.366L449.676 404.203L452.597 406.463L454.545 407.562L456.492 408.228L459.413 408.666L462.334 409.114L466.229 409.798L469.15 409.947L480.834 410.013L489.597 410.111" stroke="#EFEFEF" stroke-linecap="square"/>
</g>
<mask id="mask6_230_8078" style="mask-type:luminance" maskUnits="userSpaceOnUse" x="76" y="55" width="477" height="356">
<path d="M552.957 55.2959H76.7969V410.112H552.957V55.2959Z" fill="white"/>
</mask>
<g mask="url(#mask6_230_8078)">
<path d="M313.641 410.111L320.425 409.971L325.272 409.879L333.026 409.998L336.903 409.629L342.718 408.901L347.564 409.048L350.472 408.572L355.318 407.637L356.288 407.212L357.257 406.54L358.226 405.558L359.195 404.242L361.134 400.729L363.072 396.432L365.011 391.457L366.949 385.465L368.888 378.407L370.827 370.485L372.765 361.36L374.704 350.269L387.304 269.304L389.242 257.977L392.15 242.906L394.089 233.627L396.027 225.514L397.966 218.595L399.904 212.658L402.812 204.809L404.75 200.298L405.72 198.63L406.689 197.588L407.658 197.31L408.627 197.862L409.597 199.202L410.566 201.175L412.504 206.21L414.443 212.196L415.412 215.945L416.381 220.579L418.32 232.644L420.258 245.753L422.197 256.162L425.105 269.547L427.043 281.785L430.92 309.649L432.859 321.22L436.736 342.259L438.674 351.845L441.582 364.499L443.52 372.043L445.459 378.634L448.367 387.021L450.305 391.833L452.244 395.74L454.182 398.675L456.121 401.003L458.059 402.952L459.998 404.411L465.813 407.643L467.752 408.54L469.69 409.04L472.598 409.339L478.413 409.592L492.952 409.965L506.522 410.111" fill="#EFEFEF" fill-opacity="0.4"/>
<path d="M313.641 410.111L320.425 409.971L325.272 409.879L333.026 409.998L336.903 409.629L342.718 408.901L347.564 409.048L350.472 408.572L355.318 407.637L356.288 407.212L357.257 406.54L358.226 405.558L359.195 404.242L361.134 400.729L363.072 396.432L365.011 391.457L366.949 385.465L368.888 378.407L370.827 370.485L372.765 361.36L374.704 350.269L387.304 269.304L389.242 257.977L392.15 242.906L394.089 233.627L396.027 225.514L397.966 218.595L399.904 212.658L402.812 204.809L404.75 200.298L405.72 198.63L406.689 197.588L407.658 197.31L408.627 197.862L409.597 199.202L410.566 201.175L412.504 206.21L414.443 212.196L415.412 215.945L416.381 220.579L418.32 232.644L420.258 245.753L422.197 256.162L425.105 269.547L427.043 281.785L430.92 309.649L432.859 321.22L436.736 342.259L438.674 351.845L441.582 364.499L443.52 372.043L445.459 378.634L448.367 387.021L450.305 391.833L452.244 395.74L454.182 398.675L456.121 401.003L458.059 402.952L459.998 404.411L465.813 407.643L467.752 408.54L469.69 409.04L472.598 409.339L478.413 409.592L492.952 409.965L506.522 410.111" stroke="#EFEFEF" stroke-linecap="square"/>
</g>
<mask id="mask7_230_8078" style="mask-type:luminance" maskUnits="userSpaceOnUse" x="76" y="55" width="477" height="356">
<path d="M552.957 55.2959H76.7969V410.112H552.957V55.2959Z" fill="white"/>
</mask>
<g mask="url(#mask7_230_8078)">
<path d="M258.039 410.111L270.809 409.949L274.292 409.781L281.257 409.164L284.74 409.01L288.223 408.55L290.544 408.035L292.866 407.236L295.188 406.112L298.671 404.062L300.992 403.16L303.314 402.294L304.475 401.555L307.958 398.529L310.28 396.415L311.441 395.028L312.602 393.201L313.762 390.833L314.923 387.893L317.245 380.569L320.728 367.727L323.05 358.139L325.371 347.318L332.337 312.181L334.659 296.904L338.141 272.792L342.785 243.94L348.59 210.213L349.75 204.262L350.911 199.217L352.072 195.202L353.233 192.216L354.394 190.147L355.555 188.761L357.877 186.937L359.038 186.283L360.199 185.979L361.359 186.306L362.52 187.591L363.681 190.155L364.842 194.18L366.003 199.599L367.164 206.186L368.325 213.801L369.486 222.507L371.808 243.312L374.129 265.734L375.29 275.717L377.612 292.17L379.934 308.014L385.738 352.292L388.06 366.135L389.221 371.667L391.543 380.566L393.865 387.977L396.187 394.27L397.347 396.746L398.508 398.723L399.669 400.285L401.991 402.626L404.313 404.384L406.635 405.799L408.956 406.744L411.278 407.203L420.565 408.319L424.048 408.259L443.784 409.819L460.036 409.826L465.841 409.843L473.967 409.906L489.059 410.111" fill="#EFEFEF" fill-opacity="0.4"/>
<path d="M258.039 410.111L270.809 409.949L274.292 409.781L281.257 409.164L284.74 409.01L288.223 408.55L290.544 408.035L292.866 407.236L295.188 406.112L298.671 404.062L300.992 403.16L303.314 402.294L304.475 401.555L307.958 398.529L310.28 396.415L311.441 395.028L312.602 393.201L313.762 390.833L314.923 387.893L317.245 380.569L320.728 367.727L323.05 358.139L325.371 347.318L332.337 312.181L334.659 296.904L338.141 272.792L342.785 243.94L348.59 210.213L349.75 204.262L350.911 199.217L352.072 195.202L353.233 192.216L354.394 190.147L355.555 188.761L357.877 186.937L359.038 186.283L360.199 185.979L361.359 186.306L362.52 187.591L363.681 190.155L364.842 194.18L366.003 199.599L367.164 206.186L368.325 213.801L369.486 222.507L371.808 243.312L374.129 265.734L375.29 275.717L377.612 292.17L379.934 308.014L385.738 352.292L388.06 366.135L389.221 371.667L391.543 380.566L393.865 387.977L396.187 394.27L397.347 396.746L398.508 398.723L399.669 400.285L401.991 402.626L404.313 404.384L406.635 405.799L408.956 406.744L411.278 407.203L420.565 408.319L424.048 408.259L443.784 409.819L460.036 409.826L465.841 409.843L473.967 409.906L489.059 410.111" stroke="#EFEFEF" stroke-linecap="square"/>
</g>
<mask id="mask8_230_8078" style="mask-type:luminance" maskUnits="userSpaceOnUse" x="76" y="55" width="477" height="356">
<path d="M552.957 55.2959H76.7969V410.112H552.957V55.2959Z" fill="white"/>
</mask>
<g mask="url(#mask8_230_8078)">
<path d="M312.094 410.111L318.513 409.964L329.517 409.747L334.102 409.719L335.936 409.456L337.77 408.892L339.604 407.877L342.355 406.067L343.272 405.703L345.106 405.494L348.774 405.637L350.608 405.32L352.442 404.439L356.11 401.762L357.027 401.027L357.944 400.017L358.861 398.477L359.778 396.183L360.695 393.023L361.612 389.02L363.446 379.013L365.28 367.086L367.114 353.214L368.948 336.991L372.616 302.569L374.45 288.126L383.62 220.987L385.454 203.26L388.205 173.926L389.122 166.283L390.039 160.438L390.956 156.318L391.873 153.698L392.79 152.397L393.707 152.323L394.624 153.385L395.541 155.393L396.458 158.102L398.292 165.097L399.209 169.509L401.043 180.689L402.877 194.751L404.711 211.118L410.213 263.241L412.964 284.479L414.798 296.128L416.632 305.622L420.3 322.453L422.134 329.166L424.885 337.831L425.802 341.656L430.388 363.913L432.222 369.741L435.89 379.205L437.724 382.946L442.309 390.717L445.06 395.564L447.811 399.721L449.645 401.951L451.479 403.48L453.313 404.565L456.981 406.247L460.649 407.834L462.483 408.283L467.985 409.246L470.736 409.681L473.487 409.769L478.989 409.775L485.408 410.026L494.578 410.111" fill="#EFEFEF" fill-opacity="0.4"/>
<path d="M312.094 410.111L318.513 409.964L329.517 409.747L334.102 409.719L335.936 409.456L337.77 408.892L339.604 407.877L342.355 406.067L343.272 405.703L345.106 405.494L348.774 405.637L350.608 405.32L352.442 404.439L356.11 401.762L357.027 401.027L357.944 400.017L358.861 398.477L359.778 396.183L360.695 393.023L361.612 389.02L363.446 379.013L365.28 367.086L367.114 353.214L368.948 336.991L372.616 302.569L374.45 288.126L383.62 220.987L385.454 203.26L388.205 173.926L389.122 166.283L390.039 160.438L390.956 156.318L391.873 153.698L392.79 152.397L393.707 152.323L394.624 153.385L395.541 155.393L396.458 158.102L398.292 165.097L399.209 169.509L401.043 180.689L402.877 194.751L404.711 211.118L410.213 263.241L412.964 284.479L414.798 296.128L416.632 305.622L420.3 322.453L422.134 329.166L424.885 337.831L425.802 341.656L430.388 363.913L432.222 369.741L435.89 379.205L437.724 382.946L442.309 390.717L445.06 395.564L447.811 399.721L449.645 401.951L451.479 403.48L453.313 404.565L456.981 406.247L460.649 407.834L462.483 408.283L467.985 409.246L470.736 409.681L473.487 409.769L478.989 409.775L485.408 410.026L494.578 410.111" stroke="#EFEFEF" stroke-linecap="square"/>
</g>
<mask id="mask9_230_8078" style="mask-type:luminance" maskUnits="userSpaceOnUse" x="76" y="55" width="477" height="356">
<path d="M552.957 55.2959H76.7969V410.112H552.957V55.2959Z" fill="white"/>
</mask>
<g mask="url(#mask9_230_8078)">
<path d="M302.641 410.111L318.194 409.946L328.193 409.682L330.415 409.21L332.637 408.302L333.748 407.493L334.858 406.133L335.969 403.72L337.08 399.462L338.191 392.312L339.302 381.197L340.413 365.467L341.524 345.414L344.857 278.845L345.968 262.947L347.079 252.567L348.19 247.099L349.301 244.914L350.412 244.031L351.523 242.764L352.634 240.128L353.745 235.921L355.967 224.438L360.411 199.261L362.632 184.077L364.854 168.292L365.965 162.014L367.076 157.497L368.187 154.665L369.298 153.161L370.409 152.752L371.52 153.64L372.631 156.427L373.742 161.761L374.853 169.917L375.964 180.633L378.186 207.1L382.63 263.256L384.852 286.13L387.074 305.678L389.296 322.968L391.517 337.165L393.739 348.315L395.961 357.154L397.072 360.7L398.183 363.647L399.294 366.076L401.516 370.045L407.071 379.278L409.293 381.863L411.515 383.695L413.737 385.062L423.735 390.144L425.957 391.323L430.401 393.953L432.623 395.104L433.734 395.862L435.956 397.905L438.178 400.124L440.4 401.915L443.733 404.037L445.955 405.174L448.176 405.969L451.509 406.654L453.731 407.123L457.064 408.2L460.397 409.185L462.619 409.485L465.952 409.515L469.285 409.584L475.95 409.964L487.06 409.976L492.615 409.809L505.946 410.094L523.722 410.111" fill="#EFEFEF" fill-opacity="0.4"/>
<path d="M302.641 410.111L318.194 409.946L328.193 409.682L330.415 409.21L332.637 408.302L333.748 407.493L334.858 406.133L335.969 403.72L337.08 399.462L338.191 392.312L339.302 381.197L340.413 365.467L341.524 345.414L344.857 278.845L345.968 262.947L347.079 252.567L348.19 247.099L349.301 244.914L350.412 244.031L351.523 242.764L352.634 240.128L353.745 235.921L355.967 224.438L360.411 199.261L362.632 184.077L364.854 168.292L365.965 162.014L367.076 157.497L368.187 154.665L369.298 153.161L370.409 152.752L371.52 153.64L372.631 156.427L373.742 161.761L374.853 169.917L375.964 180.633L378.186 207.1L382.63 263.256L384.852 286.13L387.074 305.678L389.296 322.968L391.517 337.165L393.739 348.315L395.961 357.154L397.072 360.7L398.183 363.647L399.294 366.076L401.516 370.045L407.071 379.278L409.293 381.863L411.515 383.695L413.737 385.062L423.735 390.144L425.957 391.323L430.401 393.953L432.623 395.104L433.734 395.862L435.956 397.905L438.178 400.124L440.4 401.915L443.733 404.037L445.955 405.174L448.176 405.969L451.509 406.654L453.731 407.123L457.064 408.2L460.397 409.185L462.619 409.485L465.952 409.515L469.285 409.584L475.95 409.964L487.06 409.976L492.615 409.809L505.946 410.094L523.722 410.111" stroke="#EFEFEF" stroke-linecap="square"/>
</g>
<mask id="mask10_230_8078" style="mask-type:luminance" maskUnits="userSpaceOnUse" x="76" y="55" width="477" height="356">
<path d="M552.957 55.2959H76.7969V410.112H552.957V55.2959Z" fill="white"/>
</mask>
<g mask="url(#mask10_230_8078)">
<path d="M311.492 410.111L334.383 409.968L338.545 409.513L346.869 408.088L347.909 407.597L348.95 406.89L349.99 405.962L351.031 404.785L352.071 403.271L353.112 401.265L354.152 398.593L355.193 395.119L356.233 390.792L357.274 385.62L358.314 379.591L359.354 372.624L361.435 355.609L363.516 335.325L372.881 239.416L376.002 211.561L378.083 195.249L380.164 181.001L381.205 175.195L382.245 170.954L383.286 168.765L384.326 168.685L385.367 170.275L386.407 172.934L387.448 176.283L389.529 184.774L397.852 224.819L403.055 252.542L405.136 266.784L407.217 281.357L408.257 287.004L410.338 295.239L412.419 303.465L415.541 318.716L419.703 338.724L422.824 352.575L424.905 360.238L431.148 381.453L434.269 389.741L435.31 392.16L436.35 394.202L437.391 395.83L439.472 398.166L442.593 401.238L445.715 404.641L446.755 405.555L447.796 406.27L449.877 407.171L451.958 407.643L456.12 408.449L460.282 409.457L462.363 409.636L465.484 409.526L468.605 409.337L471.727 409.533L475.889 409.894L482.132 409.941L492.537 410.025L518.549 410.111" fill="#EFEFEF" fill-opacity="0.4"/>
<path d="M311.492 410.111L334.383 409.968L338.545 409.513L346.869 408.088L347.909 407.597L348.95 406.89L349.99 405.962L351.031 404.785L352.071 403.271L353.112 401.265L354.152 398.593L355.193 395.119L356.233 390.792L357.274 385.62L358.314 379.591L359.354 372.624L361.435 355.609L363.516 335.325L372.881 239.416L376.002 211.561L378.083 195.249L380.164 181.001L381.205 175.195L382.245 170.954L383.286 168.765L384.326 168.685L385.367 170.275L386.407 172.934L387.448 176.283L389.529 184.774L397.852 224.819L403.055 252.542L405.136 266.784L407.217 281.357L408.257 287.004L410.338 295.239L412.419 303.465L415.541 318.716L419.703 338.724L422.824 352.575L424.905 360.238L431.148 381.453L434.269 389.741L435.31 392.16L436.35 394.202L437.391 395.83L439.472 398.166L442.593 401.238L445.715 404.641L446.755 405.555L447.796 406.27L449.877 407.171L451.958 407.643L456.12 408.449L460.282 409.457L462.363 409.636L465.484 409.526L468.605 409.337L471.727 409.533L475.889 409.894L482.132 409.941L492.537 410.025L518.549 410.111" stroke="#EFEFEF" stroke-linecap="square"/>
</g>
<mask id="mask11_230_8078" style="mask-type:luminance" maskUnits="userSpaceOnUse" x="76" y="55" width="477" height="356">
<path d="M552.957 55.2959H76.7969V410.112H552.957V55.2959Z" fill="white"/>
</mask>
<g mask="url(#mask11_230_8078)">
<path d="M293.859 410.111L310.068 409.933L322.804 409.264L326.277 408.688L328.593 408.347L329.75 407.98L335.539 405.404L336.697 404.53L339.013 401.932L341.328 398.852L343.644 395.172L344.801 393.188L345.959 390.892L347.117 387.986L349.432 380.443L351.748 371.978L352.906 367.047L354.064 361.081L357.537 340.582L359.852 328.004L362.168 311.998L363.326 302.69L364.484 292.105L366.799 265.835L369.115 239.532L371.43 220.444L372.588 210.707L373.746 198.579L376.061 171.026L377.219 159.713L378.377 151.177L379.535 145.042L380.692 141.044L381.85 139.053L383.008 138.347L384.166 137.369L385.323 134.533L387.639 124.332L388.797 122.119L389.955 125.513L391.112 134.595L396.901 197.296L398.059 213.029L400.374 249.887L403.848 304.788L406.163 334.832L408.479 358.75L409.637 368.511L410.794 376.61L411.952 383.219L413.11 388.625L414.268 392.97L415.426 396.259L416.583 398.581L418.899 401.647L422.372 405.926L423.53 407.07L424.688 407.85L425.846 408.275L428.161 408.509L436.265 408.787L439.739 409.271L447.843 409.886L451.316 409.435L453.632 409.688L455.948 409.957L466.368 409.962L476.788 410.103L490.681 410.052L495.312 410.062L503.416 410.112L524.256 410.111" fill="#EFEFEF" fill-opacity="0.4"/>
<path d="M293.859 410.111L310.068 409.933L322.804 409.264L326.277 408.688L328.593 408.347L329.75 407.98L335.539 405.404L336.697 404.53L339.013 401.932L341.328 398.852L343.644 395.172L344.801 393.188L345.959 390.892L347.117 387.986L349.432 380.443L351.748 371.978L352.906 367.047L354.064 361.081L357.537 340.582L359.852 328.004L362.168 311.998L363.326 302.69L364.484 292.105L366.799 265.835L369.115 239.532L371.43 220.444L372.588 210.707L373.746 198.579L376.061 171.026L377.219 159.713L378.377 151.177L379.535 145.042L380.692 141.044L381.85 139.053L383.008 138.347L384.166 137.369L385.323 134.533L387.639 124.332L388.797 122.119L389.955 125.513L391.112 134.595L396.901 197.296L398.059 213.029L400.374 249.887L403.848 304.788L406.163 334.832L408.479 358.75L409.637 368.511L410.794 376.61L411.952 383.219L413.11 388.625L414.268 392.97L415.426 396.259L416.583 398.581L418.899 401.647L422.372 405.926L423.53 407.07L424.688 407.85L425.846 408.275L428.161 408.509L436.265 408.787L439.739 409.271L447.843 409.886L451.316 409.435L453.632 409.688L455.948 409.957L466.368 409.962L476.788 410.103L490.681 410.052L495.312 410.062L503.416 410.112L524.256 410.111" stroke="#EFEFEF" stroke-linecap="square"/>
</g>
<mask id="mask12_230_8078" style="mask-type:luminance" maskUnits="userSpaceOnUse" x="76" y="55" width="477" height="356">
<path d="M552.957 55.2959H76.7969V410.112H552.957V55.2959Z" fill="white"/>
</mask>
<g mask="url(#mask12_230_8078)">
<path d="M296.586 410.111L322.866 409.912L329.173 409.724L332.326 409.548L335.48 409.292L338.634 409.211L340.736 408.885L351.248 406.395L353.35 405.648L355.453 404.445L357.555 402.761L360.708 399.663L362.811 397.162L363.862 395.52L364.913 393.455L367.016 388.102L370.169 378.791L371.22 375.216L372.272 371.092L374.374 360.969L376.476 348.519L379.63 326.792L385.937 281.775L390.142 255.179L400.654 187.729L401.705 183.172L402.756 180.087L403.807 178.416L404.858 177.67L408.012 176.176L409.063 176.191L410.114 177.121L411.166 179.093L412.217 182.012L413.268 185.759L414.319 190.299L415.37 195.661L417.473 208.952L419.575 225.072L422.729 251.546L426.933 287.267L430.087 312.207L433.241 338.244L435.343 352.455L437.445 363.251L441.65 381.569L443.752 389.547L445.855 395.758L447.957 400.342L450.06 403.661L452.162 406.129L453.213 407.006L454.264 407.617L456.367 408.288L460.572 409.103L463.725 409.511L473.186 410.015L478.442 410.109L505.773 410.111" fill="#EFEFEF" fill-opacity="0.4"/>
<path d="M296.586 410.111L322.866 409.912L329.173 409.724L332.326 409.548L335.48 409.292L338.634 409.211L340.736 408.885L351.248 406.395L353.35 405.648L355.453 404.445L357.555 402.761L360.708 399.663L362.811 397.162L363.862 395.52L364.913 393.455L367.016 388.102L370.169 378.791L371.22 375.216L372.272 371.092L374.374 360.969L376.476 348.519L379.63 326.792L385.937 281.775L390.142 255.179L400.654 187.729L401.705 183.172L402.756 180.087L403.807 178.416L404.858 177.67L408.012 176.176L409.063 176.191L410.114 177.121L411.166 179.093L412.217 182.012L413.268 185.759L414.319 190.299L415.37 195.661L417.473 208.952L419.575 225.072L422.729 251.546L426.933 287.267L430.087 312.207L433.241 338.244L435.343 352.455L437.445 363.251L441.65 381.569L443.752 389.547L445.855 395.758L447.957 400.342L450.06 403.661L452.162 406.129L453.213 407.006L454.264 407.617L456.367 408.288L460.572 409.103L463.725 409.511L473.186 410.015L478.442 410.109L505.773 410.111" stroke="#EFEFEF" stroke-linecap="square"/>
</g>
<mask id="mask13_230_8078" style="mask-type:luminance" maskUnits="userSpaceOnUse" x="76" y="55" width="477" height="356">
<path d="M552.957 55.2959H76.7969V410.112H552.957V55.2959Z" fill="white"/>
</mask>
<g mask="url(#mask13_230_8078)">
<path d="M305.43 410.11L326.956 409.915L332.081 409.8L336.182 409.868L347.457 409.089L350.533 408.404L352.583 407.64L354.633 406.876L356.683 406.311L357.708 405.763L358.733 404.827L359.758 403.425L360.783 401.502L361.808 399L362.833 395.896L364.883 388.197L366.934 379.226L367.959 374.152L368.984 368.199L370.009 360.85L371.034 351.853L373.084 330.257L375.134 306.615L377.184 279.717L384.36 175.294L385.385 164.064L386.41 154.985L387.435 147.932L388.46 142.659L389.485 138.976L390.51 136.686L391.535 135.529L392.56 135.249L393.585 135.708L394.61 136.931L395.635 139.077L396.66 142.341L397.685 146.825L399.736 158.646L403.836 185.29L405.886 201.688L407.936 221.721L414.086 285.259L416.137 302.348L418.187 314.946L424.337 348.73L426.387 357.877L428.437 365.825L433.563 381.967L435.613 387.518L436.638 389.619L442.788 399.89L443.813 401.33L444.838 402.439L446.888 403.979L450.989 406.801L453.039 407.566L456.114 408.196L463.29 409.047L465.34 409.327L468.415 409.825L471.49 409.812L474.565 409.872L479.691 410.034L485.841 410.09L498.142 410.101L507.367 410.1L509.417 410.11" fill="#EFEFEF" fill-opacity="0.4"/>
<path d="M305.43 410.11L326.956 409.915L332.081 409.8L336.182 409.868L347.457 409.089L350.533 408.404L352.583 407.64L354.633 406.876L356.683 406.311L357.708 405.763L358.733 404.827L359.758 403.425L360.783 401.502L361.808 399L362.833 395.896L364.883 388.197L366.934 379.226L367.959 374.152L368.984 368.199L370.009 360.85L371.034 351.853L373.084 330.257L375.134 306.615L377.184 279.717L384.36 175.294L385.385 164.064L386.41 154.985L387.435 147.932L388.46 142.659L389.485 138.976L390.51 136.686L391.535 135.529L392.56 135.249L393.585 135.708L394.61 136.931L395.635 139.077L396.66 142.341L397.685 146.825L399.736 158.646L403.836 185.29L405.886 201.688L407.936 221.721L414.086 285.259L416.137 302.348L418.187 314.946L424.337 348.73L426.387 357.877L428.437 365.825L433.563 381.967L435.613 387.518L436.638 389.619L442.788 399.89L443.813 401.33L444.838 402.439L446.888 403.979L450.989 406.801L453.039 407.566L456.114 408.196L463.29 409.047L465.34 409.327L468.415 409.825L471.49 409.812L474.565 409.872L479.691 410.034L485.841 410.09L498.142 410.101L507.367 410.1L509.417 410.11" stroke="#EFEFEF" stroke-linecap="square"/>
</g>
<mask id="mask14_230_8078" style="mask-type:luminance" maskUnits="userSpaceOnUse" x="76" y="55" width="477" height="356">
<path d="M552.957 55.2959H76.7969V410.112H552.957V55.2959Z" fill="white"/>
</mask>
<g mask="url(#mask14_230_8078)">
<path d="M98.4375 410.111L211.448 409.954L217.613 409.577L223.777 408.896L231.996 407.614L238.16 406.493L242.27 405.308L244.324 404.476L246.379 403.449L248.434 402.215L252.543 399.219L260.762 392.406L264.872 388.862L266.927 386.901L268.981 384.724L271.036 382.278L273.091 379.533L277.2 373.284L281.31 366.838L291.584 351.645L305.967 327.891L308.022 324.836L312.131 319.568L314.186 316.962L316.241 314.04L320.35 307.171L324.46 300.319L336.788 281.811L338.843 279.434L340.897 277.753L342.952 276.94L345.007 277.156L347.062 278.515L349.116 281.043L351.171 284.644L353.226 289.109L357.335 299.546L361.445 310.963L363.5 317.264L365.554 324.24L369.664 340.046L373.773 355.952L375.828 362.918L377.883 368.928L379.938 373.973L381.992 378.178L384.047 381.729L386.102 384.802L388.157 387.515L390.211 389.917L392.266 392.019L394.321 393.843L398.43 396.882L402.54 399.497L404.595 400.658L406.649 401.642L408.704 402.401L412.814 403.385L416.923 404.272L423.087 406.013L429.252 407.776L433.361 408.616L439.525 409.419L443.635 409.69L449.799 409.68L455.963 409.645L482.675 410.103L507.332 410.111" fill="#7EB0D5" fill-opacity="0.4"/>
<path d="M98.4375 410.111L211.448 409.954L217.613 409.577L223.777 408.896L231.996 407.614L238.16 406.493L242.27 405.308L244.324 404.476L246.379 403.449L248.434 402.215L252.543 399.219L260.762 392.406L264.872 388.862L266.927 386.901L268.981 384.724L271.036 382.278L273.091 379.533L277.2 373.284L281.31 366.838L291.584 351.645L305.967 327.891L308.022 324.836L312.131 319.568L314.186 316.962L316.241 314.04L320.35 307.171L324.46 300.319L336.788 281.811L338.843 279.434L340.897 277.753L342.952 276.94L345.007 277.156L347.062 278.515L349.116 281.043L351.171 284.644L353.226 289.109L357.335 299.546L361.445 310.963L363.5 317.264L365.554 324.24L369.664 340.046L373.773 355.952L375.828 362.918L377.883 368.928L379.938 373.973L381.992 378.178L384.047 381.729L386.102 384.802L388.157 387.515L390.211 389.917L392.266 392.019L394.321 393.843L398.43 396.882L402.54 399.497L404.595 400.658L406.649 401.642L408.704 402.401L412.814 403.385L416.923 404.272L423.087 406.013L429.252 407.776L433.361 408.616L439.525 409.419L443.635 409.69L449.799 409.68L455.963 409.645L482.675 410.103L507.332 410.111" stroke="#7EB0D5" stroke-linecap="square"/>
</g>
<path d="M535.061 411.061C535.646 410.475 535.646 409.525 535.061 408.939L525.515 399.393C524.929 398.808 523.979 398.808 523.393 399.393C522.808 399.979 522.808 400.929 523.393 401.515L531.879 410L523.393 418.485C522.808 419.071 522.808 420.021 523.393 420.607C523.979 421.192 524.929 421.192 525.515 420.607L535.061 411.061ZM79 411.5H534V408.5H79V411.5Z" fill="black"/>
</g>
<defs>
<clipPath id="clip0_230_8078">
<rect width="614.4" height="460.8" fill="white"/>
</clipPath>
</defs>
</svg>
