<svg width="615" height="461" viewBox="0 0 615 461" fill="none" xmlns="http://www.w3.org/2000/svg">
<g clip-path="url(#clip0_230_8558)">
<mask id="mask0_230_8558" style="mask-type:luminance" maskUnits="userSpaceOnUse" x="76" y="55" width="477" height="356">
<path d="M552.957 55.2959H76.7969V410.112H552.957V55.2959Z" fill="white"/>
</mask>
<g mask="url(#mask0_230_8558)">
<path d="M202.352 410.111L216.868 409.973L223.32 409.782L229.772 409.278L232.998 408.74L236.224 407.731L237.837 406.98L239.45 406.028L241.063 404.842L242.676 403.396L244.289 401.682L247.515 397.608L252.354 390.695L253.967 388.128L255.58 385.28L257.193 382.071L258.806 378.469L262.032 370.17L265.258 360.692L268.484 350.171L271.709 338.35L276.548 319.598L279.774 308.867L283 299.761L287.839 286.897L289.452 283.052L291.065 279.796L292.678 277.298L294.291 275.574L295.904 274.49L297.517 273.832L299.13 273.429L300.743 273.244L302.356 273.366L303.969 273.915L305.582 274.937L307.195 276.377L308.808 278.135L310.421 280.165L312.034 282.508L313.647 285.232L318.486 294.546L320.099 297.094L324.938 303.093L326.551 305.871L328.164 309.529L329.777 313.993L334.615 328.671L336.228 332.829L339.454 339.763L344.293 348.862L349.132 356.932L355.584 367.54L358.81 372.052L362.036 375.848L366.875 381.018L370.101 385.06L373.327 389.141L374.94 390.841L378.166 393.546L386.231 399.551L389.457 401.277L392.683 402.511L397.521 403.877L405.586 405.891L412.038 407.554L416.877 408.396L421.716 408.789L429.781 409.367L434.62 409.619L447.524 409.805L455.589 410.058L523.333 410.111" fill="#EFEFEF" fill-opacity="0.4"/>
<path d="M202.352 410.111L216.868 409.973L223.32 409.782L229.772 409.278L232.998 408.74L236.224 407.731L237.837 406.98L239.45 406.028L241.063 404.842L242.676 403.396L244.289 401.682L247.515 397.608L252.354 390.695L253.967 388.128L255.58 385.28L257.193 382.071L258.806 378.469L262.032 370.17L265.258 360.692L268.484 350.171L271.709 338.35L276.548 319.598L279.774 308.867L283 299.761L287.839 286.897L289.452 283.052L291.065 279.796L292.678 277.298L294.291 275.574L295.904 274.49L297.517 273.832L299.13 273.429L300.743 273.244L302.356 273.366L303.969 273.915L305.582 274.937L307.195 276.377L308.808 278.135L310.421 280.165L312.034 282.508L313.647 285.232L318.486 294.546L320.099 297.094L324.938 303.093L326.551 305.871L328.164 309.529L329.777 313.993L334.615 328.671L336.228 332.829L339.454 339.763L344.293 348.862L349.132 356.932L355.584 367.54L358.81 372.052L362.036 375.848L366.875 381.018L370.101 385.06L373.327 389.141L374.94 390.841L378.166 393.546L386.231 399.551L389.457 401.277L392.683 402.511L397.521 403.877L405.586 405.891L412.038 407.554L416.877 408.396L421.716 408.789L429.781 409.367L434.62 409.619L447.524 409.805L455.589 410.058L523.333 410.111" stroke="#EFEFEF" stroke-linecap="square"/>
</g>
<mask id="mask1_230_8558" style="mask-type:luminance" maskUnits="userSpaceOnUse" x="76" y="55" width="477" height="356">
<path d="M552.957 55.2959H76.7969V410.112H552.957V55.2959Z" fill="white"/>
</mask>
<g mask="url(#mask1_230_8558)">
<path d="M227.094 410.111L240.76 409.925L245.316 409.741L251.389 409.782L254.426 409.514L257.463 408.961L263.537 407.045L268.093 405.058L269.611 403.984L271.13 402.229L272.648 399.837L274.167 396.972L275.685 393.718L277.204 390.028L278.722 385.737L280.241 380.719L281.759 374.853L283.278 367.791L284.796 359.155L287.833 337.998L289.352 326.15L290.87 312.825L292.389 297.1L293.907 278.749L298.462 218.397L301.499 183.622L304.536 151.678L306.055 139.494L307.573 132.143L309.092 129.376L310.61 130.03L312.129 133.496L313.647 139.569L315.166 147.675L316.684 157.512L318.203 169.888L321.24 201.416L330.351 296.166L333.388 321.636L334.906 332.041L336.425 340.302L339.462 353.685L344.017 372.188L345.535 378.071L347.054 383.318L348.572 387.47L350.091 390.385L351.609 392.237L353.128 393.62L354.646 395.285L357.683 399.502L359.202 401.175L360.72 402.448L362.239 403.514L363.757 404.392L365.276 404.95L368.313 405.49L374.387 407.253L378.942 407.933L381.979 408.532L385.016 408.833L391.09 408.88L394.127 408.931L401.719 409.588L406.275 409.957L410.83 409.973L422.978 409.595L427.534 409.796L433.608 410.004L445.755 409.88L454.866 410.011L468.533 410.086L476.125 410.058L485.236 410.023L508.013 410.112L529.272 410.111" fill="#EFEFEF" fill-opacity="0.4"/>
<path d="M227.094 410.111L240.76 409.925L245.316 409.741L251.389 409.782L254.426 409.514L257.463 408.961L263.537 407.045L268.093 405.058L269.611 403.984L271.13 402.229L272.648 399.837L274.167 396.972L275.685 393.718L277.204 390.028L278.722 385.737L280.241 380.719L281.759 374.853L283.278 367.791L284.796 359.155L287.833 337.998L289.352 326.15L290.87 312.825L292.389 297.1L293.907 278.749L298.462 218.397L301.499 183.622L304.536 151.678L306.055 139.494L307.573 132.143L309.092 129.376L310.61 130.03L312.129 133.496L313.647 139.569L315.166 147.675L316.684 157.512L318.203 169.888L321.24 201.416L330.351 296.166L333.388 321.636L334.906 332.041L336.425 340.302L339.462 353.685L344.017 372.188L345.535 378.071L347.054 383.318L348.572 387.47L350.091 390.385L351.609 392.237L353.128 393.62L354.646 395.285L357.683 399.502L359.202 401.175L360.72 402.448L362.239 403.514L363.757 404.392L365.276 404.95L368.313 405.49L374.387 407.253L378.942 407.933L381.979 408.532L385.016 408.833L391.09 408.88L394.127 408.931L401.719 409.588L406.275 409.957L410.83 409.973L422.978 409.595L427.534 409.796L433.608 410.004L445.755 409.88L454.866 410.011L468.533 410.086L476.125 410.058L485.236 410.023L508.013 410.112L529.272 410.111" stroke="#EFEFEF" stroke-linecap="square"/>
</g>
<mask id="mask2_230_8558" style="mask-type:luminance" maskUnits="userSpaceOnUse" x="76" y="55" width="477" height="356">
<path d="M552.957 55.2959H76.7969V410.112H552.957V55.2959Z" fill="white"/>
</mask>
<g mask="url(#mask2_230_8558)">
<path d="M233.5 410.111L243.68 409.963L255.315 409.596L259.678 409.515L262.587 409.046L266.95 408.169L271.313 407.402L272.767 406.838L274.221 406.006L275.676 404.931L277.13 403.652L278.584 402.13L280.039 400.178L281.493 397.482L282.947 393.787L284.402 389.089L285.856 383.576L287.31 377.352L288.765 370.24L290.219 361.852L291.673 351.844L293.128 340.157L296.036 313.038L301.854 254.032L306.217 208.695L307.671 195.395L309.125 184.321L310.58 175.812L312.034 169.786L313.488 165.974L314.943 164.065L316.397 163.941L317.851 165.885L319.306 170.286L320.76 176.996L326.577 210.064L329.486 228.73L336.758 281.247L341.121 309.059L344.03 325.891L345.484 333.348L346.938 339.68L348.393 344.762L351.301 353.655L354.21 364.355L357.119 374.633L358.573 378.828L361.482 385.749L362.936 388.659L364.39 391.118L365.845 393.096L368.753 396.132L373.116 400.21L374.571 401.388L377.479 403.185L380.388 404.552L383.297 405.572L384.751 405.782L389.114 405.742L390.568 406.033L394.931 407.532L397.84 408.019L405.112 408.702L412.383 408.706L418.201 409.053L422.564 409.271L437.107 409.522L441.47 409.286L444.379 409.397L450.196 409.812L454.559 409.814L458.922 409.839L464.739 409.84L469.102 409.84L474.92 410.038L501.098 410.112L522.913 410.111" fill="#EFEFEF" fill-opacity="0.4"/>
<path d="M233.5 410.111L243.68 409.963L255.315 409.596L259.678 409.515L262.587 409.046L266.95 408.169L271.313 407.402L272.767 406.838L274.221 406.006L275.676 404.931L277.13 403.652L278.584 402.13L280.039 400.178L281.493 397.482L282.947 393.787L284.402 389.089L285.856 383.576L287.31 377.352L288.765 370.24L290.219 361.852L291.673 351.844L293.128 340.157L296.036 313.038L301.854 254.032L306.217 208.695L307.671 195.395L309.125 184.321L310.58 175.812L312.034 169.786L313.488 165.974L314.943 164.065L316.397 163.941L317.851 165.885L319.306 170.286L320.76 176.996L326.577 210.064L329.486 228.73L336.758 281.247L341.121 309.059L344.03 325.891L345.484 333.348L346.938 339.68L348.393 344.762L351.301 353.655L354.21 364.355L357.119 374.633L358.573 378.828L361.482 385.749L362.936 388.659L364.39 391.118L365.845 393.096L368.753 396.132L373.116 400.21L374.571 401.388L377.479 403.185L380.388 404.552L383.297 405.572L384.751 405.782L389.114 405.742L390.568 406.033L394.931 407.532L397.84 408.019L405.112 408.702L412.383 408.706L418.201 409.053L422.564 409.271L437.107 409.522L441.47 409.286L444.379 409.397L450.196 409.812L454.559 409.814L458.922 409.839L464.739 409.84L469.102 409.84L474.92 410.038L501.098 410.112L522.913 410.111" stroke="#EFEFEF" stroke-linecap="square"/>
</g>
<mask id="mask3_230_8558" style="mask-type:luminance" maskUnits="userSpaceOnUse" x="76" y="55" width="477" height="356">
<path d="M552.957 55.2959H76.7969V410.112H552.957V55.2959Z" fill="white"/>
</mask>
<g mask="url(#mask3_230_8558)">
<path d="M240.164 410.111L256.134 409.985L261.941 409.822L269.201 409.81L273.556 409.324L277.912 408.918L283.719 408.667L285.171 408.205L286.623 407.248L288.074 405.695L289.526 403.536L290.978 400.778L292.43 397.353L293.882 393.105L295.334 387.873L296.785 381.659L298.237 374.616L299.689 366.722L301.141 357.495L302.593 346.322L305.496 319.028L308.4 291.221L312.755 252.786L314.207 242.238L315.659 234.231L317.111 228.581L320.015 219.129L322.918 207.727L324.37 203.022L325.822 200.251L327.274 199.722L328.726 201.256L330.177 204.406L333.081 212.35L334.533 215.472L335.985 218.026L337.437 220.927L338.888 224.916L340.34 230.101L341.792 236.265L343.244 243.275L346.147 259.369L349.051 275.684L351.955 290.912L359.214 331.963L360.666 338.321L362.118 343.508L367.925 360.92L370.829 369.98L372.28 373.951L375.184 380.557L379.54 389.304L380.991 391.863L382.443 393.95L383.895 395.563L388.25 399.676L391.154 402.398L392.606 403.363L396.961 405.474L399.865 406.691L402.769 407.506L408.576 408.328L412.932 408.812L420.191 409.409L431.805 409.406L440.516 409.851L456.486 409.818L468.101 409.956L510.204 410.074L521.819 409.991L529.078 410.111" fill="#EFEFEF" fill-opacity="0.4"/>
<path d="M240.164 410.111L256.134 409.985L261.941 409.822L269.201 409.81L273.556 409.324L277.912 408.918L283.719 408.667L285.171 408.205L286.623 407.248L288.074 405.695L289.526 403.536L290.978 400.778L292.43 397.353L293.882 393.105L295.334 387.873L296.785 381.659L298.237 374.616L299.689 366.722L301.141 357.495L302.593 346.322L305.496 319.028L308.4 291.221L312.755 252.786L314.207 242.238L315.659 234.231L317.111 228.581L320.015 219.129L322.918 207.727L324.37 203.022L325.822 200.251L327.274 199.722L328.726 201.256L330.177 204.406L333.081 212.35L334.533 215.472L335.985 218.026L337.437 220.927L338.888 224.916L340.34 230.101L341.792 236.265L343.244 243.275L346.147 259.369L349.051 275.684L351.955 290.912L359.214 331.963L360.666 338.321L362.118 343.508L367.925 360.92L370.829 369.98L372.28 373.951L375.184 380.557L379.54 389.304L380.991 391.863L382.443 393.95L383.895 395.563L388.25 399.676L391.154 402.398L392.606 403.363L396.961 405.474L399.865 406.691L402.769 407.506L408.576 408.328L412.932 408.812L420.191 409.409L431.805 409.406L440.516 409.851L456.486 409.818L468.101 409.956L510.204 410.074L521.819 409.991L529.078 410.111" stroke="#EFEFEF" stroke-linecap="square"/>
</g>
<mask id="mask4_230_8558" style="mask-type:luminance" maskUnits="userSpaceOnUse" x="76" y="55" width="477" height="356">
<path d="M552.957 55.2959H76.7969V410.112H552.957V55.2959Z" fill="white"/>
</mask>
<g mask="url(#mask4_230_8558)">
<path d="M224.469 410.111L230.451 409.938L236.433 409.811L240.92 409.967L242.415 409.921L243.911 409.725L248.397 408.473L249.893 408.519L252.884 408.833L254.38 408.764L260.362 407.948L261.857 407.309L263.353 406.23L266.344 403.491L267.84 401.729L269.335 399.477L270.831 396.365L272.326 392.075L273.822 386.616L275.317 379.798L276.813 370.984L278.308 359.62L279.804 345.625L282.795 312.5L284.291 294.6L285.786 273.76L287.282 247.636L290.273 184.822L293.264 121.278L294.759 95.413L296.255 78.7267L297.75 72.1924L299.246 73.6512L300.742 80.3461L302.237 91.611L303.733 107.771L309.715 185.595L314.201 239.122L318.688 290.737L320.184 306.182L321.679 319.143L323.175 329.468L327.661 355.473L329.157 362.36L330.652 367.068L333.644 375.035L335.139 379.225L336.635 382.95L338.13 386.121L339.626 388.823L342.617 393.39L344.112 395.385L347.103 398.68L351.59 403.534L353.086 404.488L354.581 404.86L356.077 404.93L357.572 405.192L359.068 405.915L360.563 406.803L362.059 407.366L369.537 408.345L374.023 408.149L377.014 408.797L378.51 409.106L381.501 409.117L384.492 409.299L387.483 409.446L390.474 409.42L399.448 409.994L420.385 410.051L429.358 409.914L435.341 409.997L442.818 409.92L447.305 409.967L451.792 410.097L460.765 410.036L466.747 410.112L522.082 410.111" fill="#EFEFEF" fill-opacity="0.4"/>
<path d="M224.469 410.111L230.451 409.938L236.433 409.811L240.92 409.967L242.415 409.921L243.911 409.725L248.397 408.473L249.893 408.519L252.884 408.833L254.38 408.764L260.362 407.948L261.857 407.309L263.353 406.23L266.344 403.491L267.84 401.729L269.335 399.477L270.831 396.365L272.326 392.075L273.822 386.616L275.317 379.798L276.813 370.984L278.308 359.62L279.804 345.625L282.795 312.5L284.291 294.6L285.786 273.76L287.282 247.636L290.273 184.822L293.264 121.278L294.759 95.413L296.255 78.7267L297.75 72.1924L299.246 73.6512L300.742 80.3461L302.237 91.611L303.733 107.771L309.715 185.595L314.201 239.122L318.688 290.737L320.184 306.182L321.679 319.143L323.175 329.468L327.661 355.473L329.157 362.36L330.652 367.068L333.644 375.035L335.139 379.225L336.635 382.95L338.13 386.121L339.626 388.823L342.617 393.39L344.112 395.385L347.103 398.68L351.59 403.534L353.086 404.488L354.581 404.86L356.077 404.93L357.572 405.192L359.068 405.915L360.563 406.803L362.059 407.366L369.537 408.345L374.023 408.149L377.014 408.797L378.51 409.106L381.501 409.117L384.492 409.299L387.483 409.446L390.474 409.42L399.448 409.994L420.385 410.051L429.358 409.914L435.341 409.997L442.818 409.92L447.305 409.967L451.792 410.097L460.765 410.036L466.747 410.112L522.082 410.111" stroke="#EFEFEF" stroke-linecap="square"/>
</g>
<mask id="mask5_230_8558" style="mask-type:luminance" maskUnits="userSpaceOnUse" x="76" y="55" width="477" height="356">
<path d="M552.957 55.2959H76.7969V410.112H552.957V55.2959Z" fill="white"/>
</mask>
<g mask="url(#mask5_230_8558)">
<path d="M235.047 410.11L240.498 409.987L245.95 409.877L254.127 409.683L258.216 409.254L260.941 409.063L263.667 408.534L269.119 407.069L275.933 404.657L277.296 404.187L278.659 403.414L280.021 402.35L281.384 401.072L282.747 399.556L284.11 397.642L285.473 395.151L286.836 392.049L289.562 384.716L290.924 380.576L292.287 375.659L293.65 369.556L295.013 362.23L300.464 329.643L301.827 322.696L303.19 317.254L304.553 313.336L307.279 306.513L308.642 302.287L310.005 297.414L311.367 291.793L312.73 285.045L314.093 276.604L315.456 265.967L316.819 253.075L318.182 238.332L319.545 221.976L322.27 183.764L324.996 143.66L326.359 126.899L327.722 114.225L329.085 106.633L330.448 104.409L331.81 107.087L333.173 114.045L334.536 125.152L335.899 140.356L338.625 179.031L341.35 223.257L344.076 269.522L345.439 289.292L346.802 305.837L348.165 319.869L350.891 343.402L352.253 353.662L353.616 362.79L354.979 370.423L356.342 376.443L357.705 381.091L359.068 384.778L361.793 390.608L363.156 393.033L364.519 395.111L365.882 396.816L367.245 398.17L374.059 403.562L375.422 404.429L376.785 404.933L379.511 405.505L382.236 406.536L384.962 407.485L387.688 407.961L391.777 408.321L395.865 408.425L402.68 409.216L410.857 409.108L416.308 409.482L420.397 409.762L438.114 409.896L442.203 409.906L450.38 410.088L468.097 410.111L474.911 409.995L479 409.882L484.451 410.066L491.266 409.999L496.717 410.052L502.169 410.076L506.257 410.111" fill="#EFEFEF" fill-opacity="0.4"/>
<path d="M235.047 410.11L240.498 409.987L245.95 409.877L254.127 409.683L258.216 409.254L260.941 409.063L263.667 408.534L269.119 407.069L275.933 404.657L277.296 404.187L278.659 403.414L280.021 402.35L281.384 401.072L282.747 399.556L284.11 397.642L285.473 395.151L286.836 392.049L289.562 384.716L290.924 380.576L292.287 375.659L293.65 369.556L295.013 362.23L300.464 329.643L301.827 322.696L303.19 317.254L304.553 313.336L307.279 306.513L308.642 302.287L310.005 297.414L311.367 291.793L312.73 285.045L314.093 276.604L315.456 265.967L316.819 253.075L318.182 238.332L319.545 221.976L322.27 183.764L324.996 143.66L326.359 126.899L327.722 114.225L329.085 106.633L330.448 104.409L331.81 107.087L333.173 114.045L334.536 125.152L335.899 140.356L338.625 179.031L341.35 223.257L344.076 269.522L345.439 289.292L346.802 305.837L348.165 319.869L350.891 343.402L352.253 353.662L353.616 362.79L354.979 370.423L356.342 376.443L357.705 381.091L359.068 384.778L361.793 390.608L363.156 393.033L364.519 395.111L365.882 396.816L367.245 398.17L374.059 403.562L375.422 404.429L376.785 404.933L379.511 405.505L382.236 406.536L384.962 407.485L387.688 407.961L391.777 408.321L395.865 408.425L402.68 409.216L410.857 409.108L416.308 409.482L420.397 409.762L438.114 409.896L442.203 409.906L450.38 410.088L468.097 410.111L474.911 409.995L479 409.882L484.451 410.066L491.266 409.999L496.717 410.052L502.169 410.076L506.257 410.111" stroke="#EFEFEF" stroke-linecap="square"/>
</g>
<mask id="mask6_230_8558" style="mask-type:luminance" maskUnits="userSpaceOnUse" x="76" y="55" width="477" height="356">
<path d="M552.957 55.2959H76.7969V410.112H552.957V55.2959Z" fill="white"/>
</mask>
<g mask="url(#mask6_230_8558)">
<path d="M236.359 410.11L244.763 409.953L253.166 409.857L262.97 410.021L271.373 409.743L274.174 409.31L276.975 408.765L279.776 408.607L283.978 408.575L285.378 408.363L286.779 408L288.179 407.482L289.58 406.789L290.98 405.843L292.381 404.521L293.781 402.751L296.582 398.223L297.983 395.632L299.383 392.664L300.784 389.085L302.185 384.754L303.585 379.628L304.986 373.676L306.386 366.837L307.787 359.044L310.588 340.566L313.389 319.064L318.991 275.493L321.792 254.005L323.193 244.163L324.593 235.696L325.994 228.798L327.394 223.252L328.795 218.75L330.195 215.243L331.596 212.915L332.996 211.777L334.397 211.391L337.198 211.079L338.598 211.623L339.999 213.455L341.4 216.711L342.8 221.054L345.601 231.43L351.203 254.031L356.805 278.09L359.607 291.01L365.209 317.828L369.41 335.907L372.211 346.475L375.012 355.366L382.015 374.91L383.416 378.511L384.816 381.665L386.217 384.27L387.617 386.389L393.219 393.877L396.02 397.786L397.421 399.397L398.821 400.648L400.222 401.571L403.023 402.894L407.225 404.52L412.827 406.303L417.028 407.722L421.23 408.861L424.031 409.4L426.832 409.629L431.034 409.611L436.636 409.523L461.846 410.065L470.249 410.1L489.856 410.06L499.66 410.101L515.066 410.111" fill="#EFEFEF" fill-opacity="0.4"/>
<path d="M236.359 410.11L244.763 409.953L253.166 409.857L262.97 410.021L271.373 409.743L274.174 409.31L276.975 408.765L279.776 408.607L283.978 408.575L285.378 408.363L286.779 408L288.179 407.482L289.58 406.789L290.98 405.843L292.381 404.521L293.781 402.751L296.582 398.223L297.983 395.632L299.383 392.664L300.784 389.085L302.185 384.754L303.585 379.628L304.986 373.676L306.386 366.837L307.787 359.044L310.588 340.566L313.389 319.064L318.991 275.493L321.792 254.005L323.193 244.163L324.593 235.696L325.994 228.798L327.394 223.252L328.795 218.75L330.195 215.243L331.596 212.915L332.996 211.777L334.397 211.391L337.198 211.079L338.598 211.623L339.999 213.455L341.4 216.711L342.8 221.054L345.601 231.43L351.203 254.031L356.805 278.09L359.607 291.01L365.209 317.828L369.41 335.907L372.211 346.475L375.012 355.366L382.015 374.91L383.416 378.511L384.816 381.665L386.217 384.27L387.617 386.389L393.219 393.877L396.02 397.786L397.421 399.397L398.821 400.648L400.222 401.571L403.023 402.894L407.225 404.52L412.827 406.303L417.028 407.722L421.23 408.861L424.031 409.4L426.832 409.629L431.034 409.611L436.636 409.523L461.846 410.065L470.249 410.1L489.856 410.06L499.66 410.101L515.066 410.111" stroke="#EFEFEF" stroke-linecap="square"/>
</g>
<mask id="mask7_230_8558" style="mask-type:luminance" maskUnits="userSpaceOnUse" x="76" y="55" width="477" height="356">
<path d="M552.957 55.2959H76.7969V410.112H552.957V55.2959Z" fill="white"/>
</mask>
<g mask="url(#mask7_230_8558)">
<path d="M186.297 410.111L200.504 409.946L205.239 409.633L208.396 409.207L211.553 408.408L214.71 407.075L216.289 406.142L219.446 403.804L222.603 401.155L224.182 399.454L225.76 397.221L227.339 394.383L228.917 390.986L230.496 387.08L232.074 382.641L233.653 377.586L236.81 365.644L241.546 345.602L244.703 331.1L247.86 314.358L254.174 279.447L257.331 264.449L258.909 258.377L260.488 253.761L262.066 250.544L265.224 245.165L269.959 235.137L271.538 233.043L273.116 232.322L274.695 232.698L276.273 233.612L281.009 236.835L284.166 238.658L285.744 240.458L287.323 243.475L288.902 247.539L290.48 252.274L292.059 257.614L293.637 263.782L295.216 270.866L298.373 287.04L301.53 305.812L306.265 335.853L309.422 353.139L312.58 368.539L314.158 375.347L315.737 381.295L317.315 386.3L318.894 390.406L320.472 393.776L322.051 396.646L323.629 399.178L325.208 401.381L326.786 403.203L328.365 404.665L329.943 405.85L331.522 406.798L333.1 407.489L334.679 407.903L336.258 408.08L344.15 408.284L355.2 409.068L361.514 409.099L367.828 409.582L375.721 409.538L383.614 409.858L391.506 409.955L397.82 409.978L408.87 409.686L413.606 409.629L418.341 409.57L426.234 409.787L448.333 409.965L454.648 409.948L465.697 410.026L479.904 410.11L500.425 410.111" fill="#EFEFEF" fill-opacity="0.4"/>
<path d="M186.297 410.111L200.504 409.946L205.239 409.633L208.396 409.207L211.553 408.408L214.71 407.075L216.289 406.142L219.446 403.804L222.603 401.155L224.182 399.454L225.76 397.221L227.339 394.383L228.917 390.986L230.496 387.08L232.074 382.641L233.653 377.586L236.81 365.644L241.546 345.602L244.703 331.1L247.86 314.358L254.174 279.447L257.331 264.449L258.909 258.377L260.488 253.761L262.066 250.544L265.224 245.165L269.959 235.137L271.538 233.043L273.116 232.322L274.695 232.698L276.273 233.612L281.009 236.835L284.166 238.658L285.744 240.458L287.323 243.475L288.902 247.539L290.48 252.274L292.059 257.614L293.637 263.782L295.216 270.866L298.373 287.04L301.53 305.812L306.265 335.853L309.422 353.139L312.58 368.539L314.158 375.347L315.737 381.295L317.315 386.3L318.894 390.406L320.472 393.776L322.051 396.646L323.629 399.178L325.208 401.381L326.786 403.203L328.365 404.665L329.943 405.85L331.522 406.798L333.1 407.489L334.679 407.903L336.258 408.08L344.15 408.284L355.2 409.068L361.514 409.099L367.828 409.582L375.721 409.538L383.614 409.858L391.506 409.955L397.82 409.978L408.87 409.686L413.606 409.629L418.341 409.57L426.234 409.787L448.333 409.965L454.648 409.948L465.697 410.026L479.904 410.11L500.425 410.111" stroke="#EFEFEF" stroke-linecap="square"/>
</g>
<mask id="mask8_230_8558" style="mask-type:luminance" maskUnits="userSpaceOnUse" x="76" y="55" width="477" height="356">
<path d="M552.957 55.2959H76.7969V410.112H552.957V55.2959Z" fill="white"/>
</mask>
<g mask="url(#mask8_230_8558)">
<path d="M240.469 410.11L245.736 409.994L251.003 409.773L257.587 409.974L270.754 409.572L273.388 408.962L278.655 407.41L279.971 407.035L281.288 406.463L282.605 405.534L283.922 404.065L285.238 401.808L286.555 398.46L287.872 393.785L289.189 387.777L294.456 360.003L297.089 349.065L299.723 338.283L301.039 332.137L302.356 324.598L303.673 314.673L304.99 301.466L306.306 284.497L307.623 263.868L310.257 215.149L312.89 166.723L314.207 146.962L315.524 132.261L316.84 123.755L318.157 122.044L319.474 127.094L320.791 138.102L322.107 153.422L326.058 204.298L327.374 218.401L328.691 230.678L330.008 241.436L331.325 250.932L332.641 259.291L333.958 266.477L335.275 272.299L336.592 276.601L337.908 279.544L340.542 283.863L341.859 286.586L343.175 290.141L344.492 294.538L347.126 305.287L352.393 328.262L361.61 363.28L362.927 367.3L364.243 370.732L365.56 373.688L368.194 378.609L373.461 387.271L376.094 390.818L383.995 399.9L385.311 401.037L387.945 402.757L390.578 404.011L394.529 405.762L398.479 407.513L401.112 408.219L403.746 408.576L407.696 408.851L415.597 409.006L419.547 409.365L431.398 409.612L434.031 409.533L437.982 409.874L441.932 410.068L469.584 410.083L502.502 410.111" fill="#EFEFEF" fill-opacity="0.4"/>
<path d="M240.469 410.11L245.736 409.994L251.003 409.773L257.587 409.974L270.754 409.572L273.388 408.962L278.655 407.41L279.971 407.035L281.288 406.463L282.605 405.534L283.922 404.065L285.238 401.808L286.555 398.46L287.872 393.785L289.189 387.777L294.456 360.003L297.089 349.065L299.723 338.283L301.039 332.137L302.356 324.598L303.673 314.673L304.99 301.466L306.306 284.497L307.623 263.868L310.257 215.149L312.89 166.723L314.207 146.962L315.524 132.261L316.84 123.755L318.157 122.044L319.474 127.094L320.791 138.102L322.107 153.422L326.058 204.298L327.374 218.401L328.691 230.678L330.008 241.436L331.325 250.932L332.641 259.291L333.958 266.477L335.275 272.299L336.592 276.601L337.908 279.544L340.542 283.863L341.859 286.586L343.175 290.141L344.492 294.538L347.126 305.287L352.393 328.262L361.61 363.28L362.927 367.3L364.243 370.732L365.56 373.688L368.194 378.609L373.461 387.271L376.094 390.818L383.995 399.9L385.311 401.037L387.945 402.757L390.578 404.011L394.529 405.762L398.479 407.513L401.112 408.219L403.746 408.576L407.696 408.851L415.597 409.006L419.547 409.365L431.398 409.612L434.031 409.533L437.982 409.874L441.932 410.068L469.584 410.083L502.502 410.111" stroke="#EFEFEF" stroke-linecap="square"/>
</g>
<mask id="mask9_230_8558" style="mask-type:luminance" maskUnits="userSpaceOnUse" x="76" y="55" width="477" height="356">
<path d="M552.957 55.2959H76.7969V410.112H552.957V55.2959Z" fill="white"/>
</mask>
<g mask="url(#mask9_230_8558)">
<path d="M205.414 410.111L244.346 409.904L249.213 409.659L255.702 409.897L265.435 409.471L267.057 409.166L268.679 408.667L270.301 407.859L271.923 406.447L273.546 403.844L275.168 399.255L276.79 392.005L278.412 381.795L280.034 368.626L281.656 352.478L283.279 333.221L284.901 310.874L291.39 211.908L293.012 192.738L294.634 176.816L296.256 163.909L297.878 153.896L299.5 146.719L301.123 142.397L302.745 140.832L304.367 141.822L305.989 145.472L307.611 152.216L309.234 162.123L312.478 187.615L315.722 214.75L318.967 244.736L323.833 290.778L325.455 304.617L327.078 317.089L328.7 328.311L330.322 338.4L331.944 347.238L333.566 354.719L335.188 360.815L336.811 365.488L338.433 368.898L341.677 374.61L344.922 381.471L346.544 384.318L348.166 386.31L349.788 387.699L353.032 389.87L356.277 391.556L361.143 393.396L362.765 394.611L367.632 399.881L369.254 401.06L370.876 401.88L372.499 402.381L375.743 402.984L377.365 403.497L382.232 405.459L387.098 406.964L390.343 407.531L393.587 407.599L396.831 407.493L398.453 407.578L403.32 408.384L406.564 408.429L409.809 408.503L416.297 409.282L424.408 409.318L430.897 409.688L443.874 409.432L450.363 409.809L463.341 410.035L471.452 409.967L481.185 409.914L490.918 410.04L499.029 410.102L510.384 410.031L515.25 410.087L524.983 410.099L528.228 410.111" fill="#EFEFEF" fill-opacity="0.4"/>
<path d="M205.414 410.111L244.346 409.904L249.213 409.659L255.702 409.897L265.435 409.471L267.057 409.166L268.679 408.667L270.301 407.859L271.923 406.447L273.546 403.844L275.168 399.255L276.79 392.005L278.412 381.795L280.034 368.626L281.656 352.478L283.279 333.221L284.901 310.874L291.39 211.908L293.012 192.738L294.634 176.816L296.256 163.909L297.878 153.896L299.5 146.719L301.123 142.397L302.745 140.832L304.367 141.822L305.989 145.472L307.611 152.216L309.234 162.123L312.478 187.615L315.722 214.75L318.967 244.736L323.833 290.778L325.455 304.617L327.078 317.089L328.7 328.311L330.322 338.4L331.944 347.238L333.566 354.719L335.188 360.815L336.811 365.488L338.433 368.898L341.677 374.61L344.922 381.471L346.544 384.318L348.166 386.31L349.788 387.699L353.032 389.87L356.277 391.556L361.143 393.396L362.765 394.611L367.632 399.881L369.254 401.06L370.876 401.88L372.499 402.381L375.743 402.984L377.365 403.497L382.232 405.459L387.098 406.964L390.343 407.531L393.587 407.599L396.831 407.493L398.453 407.578L403.32 408.384L406.564 408.429L409.809 408.503L416.297 409.282L424.408 409.318L430.897 409.688L443.874 409.432L450.363 409.809L463.341 410.035L471.452 409.967L481.185 409.914L490.918 410.04L499.029 410.102L510.384 410.031L515.25 410.087L524.983 410.099L528.228 410.111" stroke="#EFEFEF" stroke-linecap="square"/>
</g>
<mask id="mask10_230_8558" style="mask-type:luminance" maskUnits="userSpaceOnUse" x="76" y="55" width="477" height="356">
<path d="M552.957 55.2959H76.7969V410.112H552.957V55.2959Z" fill="white"/>
</mask>
<g mask="url(#mask10_230_8558)">
<path d="M238.5 410.111L248.335 409.959L255.36 409.908L262.384 410.024L268.004 409.894L272.219 409.348L277.839 408.409L280.649 408.034L282.054 407.566L283.459 406.7L284.864 405.388L286.269 403.665L287.674 401.481L289.079 398.631L290.484 394.885L291.889 390.112L293.294 384.224L294.699 377.094L296.104 368.517L297.509 358.193L298.914 345.89L301.723 316.373L305.938 270.4L308.748 242.056L311.558 216.938L314.368 193.939L315.773 184.638L317.178 177.366L319.988 165.31L321.393 160.119L322.798 156.718L324.203 155.924L325.608 157.87L327.013 162.464L328.418 169.826L329.823 179.988L335.443 229.028L342.468 282.714L348.087 320.129L349.492 328.936L350.897 336.768L353.707 350.241L355.112 356.433L356.517 361.796L357.922 366.021L362.137 376.765L364.947 384.541L366.352 387.845L367.757 390.35L369.162 392.127L373.377 396.395L380.402 402.329L381.807 403.09L386.021 404.933L388.831 406.267L391.641 407.17L394.451 407.705L405.691 409.151L409.906 409.259L414.121 409.593L418.336 409.703L421.146 409.472L423.956 409.198L426.765 409.27L432.385 409.744L439.41 409.555L442.22 409.548L446.435 409.126L449.245 409.568L452.055 409.995L454.865 410.031L460.485 409.905L464.7 409.947L470.319 409.929L481.559 410.099H491.394L504.039 410.056L511.063 410.018L518.088 410.111" fill="#EFEFEF" fill-opacity="0.4"/>
<path d="M238.5 410.111L248.335 409.959L255.36 409.908L262.384 410.024L268.004 409.894L272.219 409.348L277.839 408.409L280.649 408.034L282.054 407.566L283.459 406.7L284.864 405.388L286.269 403.665L287.674 401.481L289.079 398.631L290.484 394.885L291.889 390.112L293.294 384.224L294.699 377.094L296.104 368.517L297.509 358.193L298.914 345.89L301.723 316.373L305.938 270.4L308.748 242.056L311.558 216.938L314.368 193.939L315.773 184.638L317.178 177.366L319.988 165.31L321.393 160.119L322.798 156.718L324.203 155.924L325.608 157.87L327.013 162.464L328.418 169.826L329.823 179.988L335.443 229.028L342.468 282.714L348.087 320.129L349.492 328.936L350.897 336.768L353.707 350.241L355.112 356.433L356.517 361.796L357.922 366.021L362.137 376.765L364.947 384.541L366.352 387.845L367.757 390.35L369.162 392.127L373.377 396.395L380.402 402.329L381.807 403.09L386.021 404.933L388.831 406.267L391.641 407.17L394.451 407.705L405.691 409.151L409.906 409.259L414.121 409.593L418.336 409.703L421.146 409.472L423.956 409.198L426.765 409.27L432.385 409.744L439.41 409.555L442.22 409.548L446.435 409.126L449.245 409.568L452.055 409.995L454.865 410.031L460.485 409.905L464.7 409.947L470.319 409.929L481.559 410.099H491.394L504.039 410.056L511.063 410.018L518.088 410.111" stroke="#EFEFEF" stroke-linecap="square"/>
</g>
<mask id="mask11_230_8558" style="mask-type:luminance" maskUnits="userSpaceOnUse" x="76" y="55" width="477" height="356">
<path d="M552.957 55.2959H76.7969V410.112H552.957V55.2959Z" fill="white"/>
</mask>
<g mask="url(#mask11_230_8558)">
<path d="M216.703 410.111L232.513 410.01L237.256 409.556L241.999 409.203L245.161 409.024L246.742 408.77L248.323 408.229L251.485 406.607L257.808 403.026L259.389 401.589L262.551 397.929L264.132 395.802L268.875 388.148L272.037 384.436L273.618 381.997L275.199 378.626L276.78 374.249L283.104 354.351L284.685 347.517L286.266 339.028L289.428 319.485L291.009 307.848L298.914 239.054L305.238 176.683L309.981 139.941L311.561 127.917L313.142 120.48L314.723 120.062L316.304 125.31L317.885 134.062L319.466 146.121L321.047 162.244L324.209 203.154L327.371 248.357L330.533 296.28L332.114 317.433L333.695 335.729L335.276 351.038L336.857 363.451L338.438 373.757L340.019 382.557L341.6 389.529L343.181 394.394L344.762 397.773L346.343 400.49L347.924 402.695L349.505 404.273L352.667 406.422L354.248 407.183L357.41 408.058L360.572 408.618L374.8 409.297L381.124 409.5L384.286 409.477L387.448 409.216L390.61 409.35L395.353 409.641L408.001 409.907L412.744 409.752L434.877 410.01L447.525 409.83L453.849 410.107L485.468 410.062L490.211 410.055L499.697 410.112L531.317 410.111" fill="#EFEFEF" fill-opacity="0.4"/>
<path d="M216.703 410.111L232.513 410.01L237.256 409.556L241.999 409.203L245.161 409.024L246.742 408.77L248.323 408.229L251.485 406.607L257.808 403.026L259.389 401.589L262.551 397.929L264.132 395.802L268.875 388.148L272.037 384.436L273.618 381.997L275.199 378.626L276.78 374.249L283.104 354.351L284.685 347.517L286.266 339.028L289.428 319.485L291.009 307.848L298.914 239.054L305.238 176.683L309.981 139.941L311.561 127.917L313.142 120.48L314.723 120.062L316.304 125.31L317.885 134.062L319.466 146.121L321.047 162.244L324.209 203.154L327.371 248.357L330.533 296.28L332.114 317.433L333.695 335.729L335.276 351.038L336.857 363.451L338.438 373.757L340.019 382.557L341.6 389.529L343.181 394.394L344.762 397.773L346.343 400.49L347.924 402.695L349.505 404.273L352.667 406.422L354.248 407.183L357.41 408.058L360.572 408.618L374.8 409.297L381.124 409.5L384.286 409.477L387.448 409.216L390.61 409.35L395.353 409.641L408.001 409.907L412.744 409.752L434.877 410.01L447.525 409.83L453.849 410.107L485.468 410.062L490.211 410.055L499.697 410.112L531.317 410.111" stroke="#EFEFEF" stroke-linecap="square"/>
</g>
<mask id="mask12_230_8558" style="mask-type:luminance" maskUnits="userSpaceOnUse" x="76" y="55" width="477" height="356">
<path d="M552.957 55.2959H76.7969V410.112H552.957V55.2959Z" fill="white"/>
</mask>
<g mask="url(#mask12_230_8558)">
<path d="M230.734 410.111L260.22 409.936L264.432 409.692L267.24 409.581L270.048 409.594L271.452 409.46L274.26 408.793L281.28 406.827L284.088 405.251L285.493 404.255L286.897 403.05L288.301 401.512L291.109 397.667L293.917 393.36L295.321 390.535L296.725 386.749L298.129 381.767L299.533 375.688L303.745 355.047L306.553 340.163L307.957 331.448L309.361 321.232L310.766 309.277L317.786 243.339L320.594 220.637L323.402 200.617L324.806 192.397L326.21 185.439L327.614 179.718L329.018 175.951L330.422 175.393L331.826 178.46L334.634 189.218L336.039 193.262L337.443 196.421L338.847 200.245L340.251 205.881L341.655 213.469L343.059 222.595L345.867 243.642L348.675 265.167L351.483 283.744L355.695 308.669L358.503 326.982L359.907 335.133L361.312 341.81L362.716 347.246L365.524 356.546L373.948 382.62L375.352 385.808L376.756 388.176L383.776 397.941L385.18 399.408L386.585 400.524L389.393 401.978L392.201 403.362L396.413 405.615L400.625 407.556L403.433 408.425L406.241 408.698L411.858 408.809L418.878 409.573L423.09 409.375L432.918 409.67L441.343 409.66L445.555 409.885L449.767 410.093L463.808 410.101L476.444 410.063L484.868 410.099L501.717 410.035L510.141 410.111" fill="#EFEFEF" fill-opacity="0.4"/>
<path d="M230.734 410.111L260.22 409.936L264.432 409.692L267.24 409.581L270.048 409.594L271.452 409.46L274.26 408.793L281.28 406.827L284.088 405.251L285.493 404.255L286.897 403.05L288.301 401.512L291.109 397.667L293.917 393.36L295.321 390.535L296.725 386.749L298.129 381.767L299.533 375.688L303.745 355.047L306.553 340.163L307.957 331.448L309.361 321.232L310.766 309.277L317.786 243.339L320.594 220.637L323.402 200.617L324.806 192.397L326.21 185.439L327.614 179.718L329.018 175.951L330.422 175.393L331.826 178.46L334.634 189.218L336.039 193.262L337.443 196.421L338.847 200.245L340.251 205.881L341.655 213.469L343.059 222.595L345.867 243.642L348.675 265.167L351.483 283.744L355.695 308.669L358.503 326.982L359.907 335.133L361.312 341.81L362.716 347.246L365.524 356.546L373.948 382.62L375.352 385.808L376.756 388.176L383.776 397.941L385.18 399.408L386.585 400.524L389.393 401.978L392.201 403.362L396.413 405.615L400.625 407.556L403.433 408.425L406.241 408.698L411.858 408.809L418.878 409.573L423.09 409.375L432.918 409.67L441.343 409.66L445.555 409.885L449.767 410.093L463.808 410.101L476.444 410.063L484.868 410.099L501.717 410.035L510.141 410.111" stroke="#EFEFEF" stroke-linecap="square"/>
</g>
<mask id="mask13_230_8558" style="mask-type:luminance" maskUnits="userSpaceOnUse" x="76" y="55" width="477" height="356">
<path d="M552.957 55.2959H76.7969V410.112H552.957V55.2959Z" fill="white"/>
</mask>
<g mask="url(#mask13_230_8558)">
<path d="M240.023 410.11L246.37 409.946L251.447 409.983L257.794 410.052L264.14 409.846L269.218 409.879L278.103 409.269L281.911 408.579L283.18 408.153L284.449 407.452L285.719 406.354L286.988 404.712L288.257 402.253L289.527 398.593L290.796 393.469L292.065 386.894L293.335 379.039L295.873 360.147L299.681 327.264L302.22 304.256L304.758 277.213L307.297 249.969L309.836 226.678L313.644 194.624L316.182 175.846L319.99 149.838L321.259 143.957L322.529 141.041L323.798 140.959L325.067 143.103L326.337 146.948L327.606 152.125L328.875 158.398L330.145 165.83L331.414 174.763L332.683 185.431L335.222 210.427L341.568 275.418L346.646 322.61L347.915 331.92L349.184 339.676L350.454 346.282L352.992 357.318L355.531 366.782L358.069 374.643L360.608 381.198L364.416 389.743L366.955 394.886L368.224 397.056L369.493 398.911L370.763 400.383L372.032 401.383L373.301 401.938L375.84 402.761L379.648 404.954L380.917 405.362L385.994 406.123L391.072 407.929L394.88 408.579L401.226 409.31L408.842 409.653L412.65 409.637L416.458 409.5L425.343 409.869L440.575 409.775L444.383 409.67L449.46 409.858L454.537 409.927L459.614 410.101L492.617 410.111" fill="#EFEFEF" fill-opacity="0.4"/>
<path d="M240.023 410.11L246.37 409.946L251.447 409.983L257.794 410.052L264.14 409.846L269.218 409.879L278.103 409.269L281.911 408.579L283.18 408.153L284.449 407.452L285.719 406.354L286.988 404.712L288.257 402.253L289.527 398.593L290.796 393.469L292.065 386.894L293.335 379.039L295.873 360.147L299.681 327.264L302.22 304.256L304.758 277.213L307.297 249.969L309.836 226.678L313.644 194.624L316.182 175.846L319.99 149.838L321.259 143.957L322.529 141.041L323.798 140.959L325.067 143.103L326.337 146.948L327.606 152.125L328.875 158.398L330.145 165.83L331.414 174.763L332.683 185.431L335.222 210.427L341.568 275.418L346.646 322.61L347.915 331.92L349.184 339.676L350.454 346.282L352.992 357.318L355.531 366.782L358.069 374.643L360.608 381.198L364.416 389.743L366.955 394.886L368.224 397.056L369.493 398.911L370.763 400.383L372.032 401.383L373.301 401.938L375.84 402.761L379.648 404.954L380.917 405.362L385.994 406.123L391.072 407.929L394.88 408.579L401.226 409.31L408.842 409.653L412.65 409.637L416.458 409.5L425.343 409.869L440.575 409.775L444.383 409.67L449.46 409.858L454.537 409.927L459.614 410.101L492.617 410.111" stroke="#EFEFEF" stroke-linecap="square"/>
</g>
<mask id="mask14_230_8558" style="mask-type:luminance" maskUnits="userSpaceOnUse" x="76" y="55" width="477" height="356">
<path d="M552.957 55.2959H76.7969V410.112H552.957V55.2959Z" fill="white"/>
</mask>
<g mask="url(#mask14_230_8558)">
<path d="M98.4375 410.111L152.309 409.952L156.453 409.591L158.525 409.255L160.597 408.76L162.669 408.027L164.741 406.94L166.813 405.361L168.885 403.186L170.957 400.387L173.029 396.989L175.101 392.975L177.173 388.208L179.245 382.479L181.317 375.679L185.461 359.656L191.677 334.995L204.109 288.821L206.181 282.585L208.253 277.667L210.325 273.972L212.397 271.276L214.469 269.383L216.541 268.163L218.613 267.564L220.685 267.631L222.757 268.473L224.829 270.163L226.901 272.632L231.045 278.882L235.189 285.402L237.261 288.999L239.333 293.25L241.405 298.293L253.837 331.893L257.98 342.461L260.052 347.335L262.124 351.772L264.196 355.717L266.268 359.203L270.412 365.347L278.7 376.988L282.844 382.243L284.916 384.431L286.988 386.259L291.132 389.228L295.276 391.844L299.42 394.151L303.564 396.211L305.636 397.037L307.708 397.614L311.852 398.132L313.924 398.379L315.996 398.834L320.14 400.327L324.284 401.812L336.716 405.447L340.86 406.281L353.292 408.283L361.58 408.846L371.94 409.372L386.444 409.678L436.171 409.99L450.675 409.944L485.899 410.105L510.763 410.111" fill="#7EB0D5" fill-opacity="0.4"/>
<path d="M98.4375 410.111L152.309 409.952L156.453 409.591L158.525 409.255L160.597 408.76L162.669 408.027L164.741 406.94L166.813 405.361L168.885 403.186L170.957 400.387L173.029 396.989L175.101 392.975L177.173 388.208L179.245 382.479L181.317 375.679L185.461 359.656L191.677 334.995L204.109 288.821L206.181 282.585L208.253 277.667L210.325 273.972L212.397 271.276L214.469 269.383L216.541 268.163L218.613 267.564L220.685 267.631L222.757 268.473L224.829 270.163L226.901 272.632L231.045 278.882L235.189 285.402L237.261 288.999L239.333 293.25L241.405 298.293L253.837 331.893L257.98 342.461L260.052 347.335L262.124 351.772L264.196 355.717L266.268 359.203L270.412 365.347L278.7 376.988L282.844 382.243L284.916 384.431L286.988 386.259L291.132 389.228L295.276 391.844L299.42 394.151L303.564 396.211L305.636 397.037L307.708 397.614L311.852 398.132L313.924 398.379L315.996 398.834L320.14 400.327L324.284 401.812L336.716 405.447L340.86 406.281L353.292 408.283L361.58 408.846L371.94 409.372L386.444 409.678L436.171 409.99L450.675 409.944L485.899 410.105L510.763 410.111" stroke="#7EB0D5" stroke-linecap="square"/>
</g>
<path d="M535.061 411.061C535.646 410.475 535.646 409.525 535.061 408.939L525.515 399.393C524.929 398.808 523.979 398.808 523.393 399.393C522.808 399.979 522.808 400.929 523.393 401.515L531.879 410L523.393 418.485C522.808 419.071 522.808 420.021 523.393 420.607C523.979 421.192 524.929 421.192 525.515 420.607L535.061 411.061ZM79 411.5H534V408.5H79V411.5Z" fill="black"/>
</g>
<defs>
<clipPath id="clip0_230_8558">
<rect width="614.4" height="460.8" fill="white"/>
</clipPath>
</defs>
</svg>
