<svg width="615" height="461" viewBox="0 0 615 461" fill="none" xmlns="http://www.w3.org/2000/svg">
<g clip-path="url(#clip0_230_8238)">
<mask id="mask0_230_8238" style="mask-type:luminance" maskUnits="userSpaceOnUse" x="76" y="55" width="477" height="356">
<path d="M552.957 55.2959H76.7969V410.112H552.957V55.2959Z" fill="white"/>
</mask>
<g mask="url(#mask0_230_8238)">
<path d="M213.414 410.112L224.39 409.955L230.661 409.507L235.365 408.825L238.501 408.106L241.637 407.051L244.773 405.569L247.909 403.618L249.477 402.425L251.045 401.044L252.613 399.441L255.748 395.564L262.02 386.569L266.724 379.496L269.86 374.095L274.564 365.1L279.267 355.493L282.403 348.279L288.675 333.276L293.379 322.609L301.219 304.201L304.354 297.879L305.922 295.199L307.49 293.037L309.058 291.532L310.626 290.735L312.194 290.58L313.762 290.915L315.33 291.575L318.466 293.434L326.306 299.085L327.874 300.362L329.441 301.851L332.577 305.448L338.849 313.478L343.553 319.769L346.689 324.515L348.257 327.313L349.825 330.462L352.961 337.748L356.096 346.052L359.232 354.569L362.368 362.204L365.504 368.72L368.64 374.336L371.776 379.08L374.912 383.19L379.615 388.806L382.751 392.082L385.887 394.804L390.591 398.333L393.727 400.374L398.431 402.986L403.135 405.316L406.27 406.509L409.406 407.294L414.11 408.026L418.814 408.557L437.629 409.796L456.444 410.018L483.099 410.112L525.434 410.112" fill="#EFEFEF" fill-opacity="0.4"/>
<path d="M213.414 410.112L224.39 409.955L230.661 409.507L235.365 408.825L238.501 408.106L241.637 407.051L244.773 405.569L247.909 403.618L249.477 402.425L251.045 401.044L252.613 399.441L255.748 395.564L262.02 386.569L266.724 379.496L269.86 374.095L274.564 365.1L279.267 355.493L282.403 348.279L288.675 333.276L293.379 322.609L301.219 304.201L304.354 297.879L305.922 295.199L307.49 293.037L309.058 291.532L310.626 290.735L312.194 290.58L313.762 290.915L315.33 291.575L318.466 293.434L326.306 299.085L327.874 300.362L329.441 301.851L332.577 305.448L338.849 313.478L343.553 319.769L346.689 324.515L348.257 327.313L349.825 330.462L352.961 337.748L356.096 346.052L359.232 354.569L362.368 362.204L365.504 368.72L368.64 374.336L371.776 379.08L374.912 383.19L379.615 388.806L382.751 392.082L385.887 394.804L390.591 398.333L393.727 400.374L398.431 402.986L403.135 405.316L406.27 406.509L409.406 407.294L414.11 408.026L418.814 408.557L437.629 409.796L456.444 410.018L483.099 410.112L525.434 410.112" stroke="#EFEFEF" stroke-linecap="square"/>
</g>
<mask id="mask1_230_8238" style="mask-type:luminance" maskUnits="userSpaceOnUse" x="76" y="55" width="477" height="356">
<path d="M552.957 55.2959H76.7969V410.112H552.957V55.2959Z" fill="white"/>
</mask>
<g mask="url(#mask1_230_8238)">
<path d="M225.984 410.111L270.455 409.857L278.122 409.611L281.189 409.361L284.256 409.02L290.39 408.771L291.923 408.485L294.99 407.468L298.057 406.126L302.658 403.717L304.191 402.649L305.725 401.277L308.792 397.731L311.858 393.827L313.392 391.302L314.925 387.741L316.459 383.162L322.593 362.552L324.126 356.448L325.66 349.367L327.193 340.916L328.727 330.634L330.26 318.331L334.86 277.272L339.461 242.197L342.528 217.933L344.061 207.802L345.595 199.227L347.128 192.176L348.662 186.775L350.195 183.237L351.729 181.455L353.262 181.062L354.795 182.234L356.329 186.194L357.862 194.065L362.463 225.8L363.996 236.087L365.53 248.591L368.597 277.021L370.13 289.374L374.731 321.995L377.797 341.03L380.864 357.748L382.398 365.343L383.931 371.943L385.465 377.437L388.532 386.509L390.065 390.569L391.599 394.134L393.132 397.079L394.666 399.531L396.199 401.647L397.733 403.36L399.266 404.567L402.333 406.073L406.933 407.813L411.534 409.093L413.067 409.267L417.668 409.091L422.268 409.549L426.868 409.282L429.935 409.453L434.536 409.866L440.67 410.071L462.138 409.893L468.272 409.99L472.872 410.015L479.006 410.111L531.144 410.111" fill="#EFEFEF" fill-opacity="0.4"/>
<path d="M225.984 410.111L270.455 409.857L278.122 409.611L281.189 409.361L284.256 409.02L290.39 408.771L291.923 408.485L294.99 407.468L298.057 406.126L302.658 403.717L304.191 402.649L305.725 401.277L308.792 397.731L311.858 393.827L313.392 391.302L314.925 387.741L316.459 383.162L322.593 362.552L324.126 356.448L325.66 349.367L327.193 340.916L328.727 330.634L330.26 318.331L334.86 277.272L339.461 242.197L342.528 217.933L344.061 207.802L345.595 199.227L347.128 192.176L348.662 186.775L350.195 183.237L351.729 181.455L353.262 181.062L354.795 182.234L356.329 186.194L357.862 194.065L362.463 225.8L363.996 236.087L365.53 248.591L368.597 277.021L370.13 289.374L374.731 321.995L377.797 341.03L380.864 357.748L382.398 365.343L383.931 371.943L385.465 377.437L388.532 386.509L390.065 390.569L391.599 394.134L393.132 397.079L394.666 399.531L396.199 401.647L397.733 403.36L399.266 404.567L402.333 406.073L406.933 407.813L411.534 409.093L413.067 409.267L417.668 409.091L422.268 409.549L426.868 409.282L429.935 409.453L434.536 409.866L440.67 410.071L462.138 409.893L468.272 409.99L472.872 410.015L479.006 410.111L531.144 410.111" stroke="#EFEFEF" stroke-linecap="square"/>
</g>
<mask id="mask2_230_8238" style="mask-type:luminance" maskUnits="userSpaceOnUse" x="76" y="55" width="477" height="356">
<path d="M552.957 55.2959H76.7969V410.112H552.957V55.2959Z" fill="white"/>
</mask>
<g mask="url(#mask2_230_8238)">
<path d="M248.234 410.111L263.528 409.965L273.26 409.355L277.431 409.413L280.212 409.204L285.773 408.626L289.944 408.328L292.725 407.77L295.505 406.834L298.286 405.542L306.628 400.22L308.018 398.898L309.409 397.191L310.799 395.102L313.58 389.973L316.36 384.158L317.751 380.868L319.141 376.778L320.531 371.555L321.922 365.283L324.702 350.759L326.093 342.556L328.873 323.508L334.435 280.774L342.777 205.898L344.167 195.016L345.557 185.851L346.948 178.557L348.338 173.009L349.728 169.266L351.119 167.606L352.509 168.522L353.899 172.368L355.289 178.677L358.07 194.194L359.46 202.792L360.851 212.582L363.631 235.049L366.412 259.764L370.583 299.653L371.973 311.181L374.754 330.508L378.925 356.869L380.315 364.522L381.706 371.105L383.096 376.437L384.486 380.642L387.267 387.325L390.048 393.237L391.438 395.706L392.828 397.742L394.219 399.381L396.999 401.838L399.78 403.741L401.17 404.436L402.561 404.892L409.512 406.431L415.074 408.142L419.244 408.895L423.415 409.473L426.196 409.463L428.977 409.226L431.757 409.308L438.709 409.656L442.88 409.601L448.441 409.584L455.393 409.748L462.345 409.44L467.906 409.763L481.809 410.032L524.909 410.111" fill="#EFEFEF" fill-opacity="0.4"/>
<path d="M248.234 410.111L263.528 409.965L273.26 409.355L277.431 409.413L280.212 409.204L285.773 408.626L289.944 408.328L292.725 407.77L295.505 406.834L298.286 405.542L306.628 400.22L308.018 398.898L309.409 397.191L310.799 395.102L313.58 389.973L316.36 384.158L317.751 380.868L319.141 376.778L320.531 371.555L321.922 365.283L324.702 350.759L326.093 342.556L328.873 323.508L334.435 280.774L342.777 205.898L344.167 195.016L345.557 185.851L346.948 178.557L348.338 173.009L349.728 169.266L351.119 167.606L352.509 168.522L353.899 172.368L355.289 178.677L358.07 194.194L359.46 202.792L360.851 212.582L363.631 235.049L366.412 259.764L370.583 299.653L371.973 311.181L374.754 330.508L378.925 356.869L380.315 364.522L381.706 371.105L383.096 376.437L384.486 380.642L387.267 387.325L390.048 393.237L391.438 395.706L392.828 397.742L394.219 399.381L396.999 401.838L399.78 403.741L401.17 404.436L402.561 404.892L409.512 406.431L415.074 408.142L419.244 408.895L423.415 409.473L426.196 409.463L428.977 409.226L431.757 409.308L438.709 409.656L442.88 409.601L448.441 409.584L455.393 409.748L462.345 409.44L467.906 409.763L481.809 410.032L524.909 410.111" stroke="#EFEFEF" stroke-linecap="square"/>
</g>
<mask id="mask3_230_8238" style="mask-type:luminance" maskUnits="userSpaceOnUse" x="76" y="55" width="477" height="356">
<path d="M552.957 55.2959H76.7969V410.112H552.957V55.2959Z" fill="white"/>
</mask>
<g mask="url(#mask3_230_8238)">
<path d="M266.562 410.111L273.214 409.992L278.536 409.783L287.849 409.846L295.831 409.708L305.144 409.756L317.117 408.815L319.778 407.834L325.1 405.261L326.43 404.489L327.761 403.403L329.091 401.783L330.421 399.476L331.752 396.416L333.082 392.52L334.412 387.617L335.743 381.52L337.073 374.173L338.404 365.646L339.734 355.961L341.064 345.007L343.725 319.397L349.047 265.125L351.708 242.016L353.038 231.885L354.368 223.072L355.699 215.977L357.029 210.985L358.36 208.193L359.69 207.138L362.351 206.701L363.681 206.202L365.011 205.899L366.342 206.657L367.672 209.034L369.003 212.851L371.663 222.498L374.324 233.559L382.307 269.458L384.967 283.113L394.28 336.134L395.61 342.485L396.941 347.639L399.602 356.492L403.593 370.973L404.923 374.779L407.584 380.801L410.245 385.582L414.236 391.888L416.897 396.636L418.227 398.711L419.558 400.369L420.888 401.641L423.549 403.534L426.21 404.917L432.861 407.56L435.522 408.327L439.513 408.883L447.496 409.596L450.157 409.711L458.139 409.606L462.13 409.92L531.31 410.111" fill="#EFEFEF" fill-opacity="0.4"/>
<path d="M266.562 410.111L273.214 409.992L278.536 409.783L287.849 409.846L295.831 409.708L305.144 409.756L317.117 408.815L319.778 407.834L325.1 405.261L326.43 404.489L327.761 403.403L329.091 401.783L330.421 399.476L331.752 396.416L333.082 392.52L334.412 387.617L335.743 381.52L337.073 374.173L338.404 365.646L339.734 355.961L341.064 345.007L343.725 319.397L349.047 265.125L351.708 242.016L353.038 231.885L354.368 223.072L355.699 215.977L357.029 210.985L358.36 208.193L359.69 207.138L362.351 206.701L363.681 206.202L365.011 205.899L366.342 206.657L367.672 209.034L369.003 212.851L371.663 222.498L374.324 233.559L382.307 269.458L384.967 283.113L394.28 336.134L395.61 342.485L396.941 347.639L399.602 356.492L403.593 370.973L404.923 374.779L407.584 380.801L410.245 385.582L414.236 391.888L416.897 396.636L418.227 398.711L419.558 400.369L420.888 401.641L423.549 403.534L426.21 404.917L432.861 407.56L435.522 408.327L439.513 408.883L447.496 409.596L450.157 409.711L458.139 409.606L462.13 409.92L531.31 410.111" stroke="#EFEFEF" stroke-linecap="square"/>
</g>
<mask id="mask4_230_8238" style="mask-type:luminance" maskUnits="userSpaceOnUse" x="76" y="55" width="477" height="356">
<path d="M552.957 55.2959H76.7969V410.112H552.957V55.2959Z" fill="white"/>
</mask>
<g mask="url(#mask4_230_8238)">
<path d="M244.227 410.11L248.465 410.017L252.704 409.887L256.943 410.035L262.595 409.822L268.246 409.441L273.898 408.523L276.724 408.444L279.55 408.463L286.615 407.797L288.028 407.293L289.44 406.299L295.092 400.453L296.505 399.131L297.918 397.267L299.331 394.849L302.157 389.119L309.222 372.175L310.635 368.125L312.047 362.796L313.46 356.373L316.286 341.325L317.699 332.607L319.112 322.498L324.764 275.389L327.59 249.472L331.829 207.294L334.654 182.328L336.067 171.448L338.893 153.033L340.306 144.55L341.719 137.773L343.132 134.661L344.545 135.762L345.958 140.317L347.371 148.517L348.784 161.184L350.197 177.779L351.61 197.063L354.436 242.457L357.261 288.86L358.674 308.446L360.087 325.757L361.5 340.832L362.913 353.45L364.326 364.123L365.739 373.579L367.152 381.701L368.565 387.886L369.978 392.207L371.391 395.436L372.804 398.017L374.217 399.854L375.63 400.941L379.868 402.909L382.694 405.132L384.107 405.905L386.933 406.839L391.172 407.82L393.998 408.022L395.411 408.07L396.824 408.301L399.649 409.063L402.475 409.365L405.301 409.483L410.953 410.033L420.844 409.898L427.908 410.049L432.147 409.963L437.799 410.075L446.276 409.911L453.341 410.023L460.406 410.029L464.645 409.922L480.187 410.112L525.401 410.111" fill="#EFEFEF" fill-opacity="0.4"/>
<path d="M244.227 410.11L248.465 410.017L252.704 409.887L256.943 410.035L262.595 409.822L268.246 409.441L273.898 408.523L276.724 408.444L279.55 408.463L286.615 407.797L288.028 407.293L289.44 406.299L295.092 400.453L296.505 399.131L297.918 397.267L299.331 394.849L302.157 389.119L309.222 372.175L310.635 368.125L312.047 362.796L313.46 356.373L316.286 341.325L317.699 332.607L319.112 322.498L324.764 275.389L327.59 249.472L331.829 207.294L334.654 182.328L336.067 171.448L338.893 153.033L340.306 144.55L341.719 137.773L343.132 134.661L344.545 135.762L345.958 140.317L347.371 148.517L348.784 161.184L350.197 177.779L351.61 197.063L354.436 242.457L357.261 288.86L358.674 308.446L360.087 325.757L361.5 340.832L362.913 353.45L364.326 364.123L365.739 373.579L367.152 381.701L368.565 387.886L369.978 392.207L371.391 395.436L372.804 398.017L374.217 399.854L375.63 400.941L379.868 402.909L382.694 405.132L384.107 405.905L386.933 406.839L391.172 407.82L393.998 408.022L395.411 408.07L396.824 408.301L399.649 409.063L402.475 409.365L405.301 409.483L410.953 410.033L420.844 409.898L427.908 410.049L432.147 409.963L437.799 410.075L446.276 409.911L453.341 410.023L460.406 410.029L464.645 409.922L480.187 410.112L525.401 410.111" stroke="#EFEFEF" stroke-linecap="square"/>
</g>
<mask id="mask5_230_8238" style="mask-type:luminance" maskUnits="userSpaceOnUse" x="76" y="55" width="477" height="356">
<path d="M552.957 55.2959H76.7969V410.112H552.957V55.2959Z" fill="white"/>
</mask>
<g mask="url(#mask5_230_8238)">
<path d="M220.492 410.112L251.33 409.933L263.945 409.515L269.552 409.008L275.159 408.565L279.364 408.148L284.971 407.786L287.774 407.339L290.578 406.529L293.381 405.308L296.185 403.661L298.988 401.98L303.193 400.154L304.595 399.138L305.997 397.567L308.8 393.2L311.603 388.954L314.407 385.11L315.809 382.818L317.21 380.038L318.612 376.723L320.014 372.865L321.415 368.389L322.817 363.188L328.424 339.87L329.826 335.205L332.629 327.284L338.236 312.797L343.843 299.806L345.244 295.198L346.646 289.737L349.45 276.794L350.851 269.097L352.253 260.258L357.86 221.574L359.262 214.957L360.663 210.538L362.065 207.98L363.467 206.635L364.868 206.145L366.27 206.803L367.672 209.274L369.074 213.977L370.475 220.749L371.877 229.036L374.68 248.223L377.484 269.983L384.492 328.472L387.296 347.552L390.099 363.399L391.501 370.203L392.903 376.101L394.304 381.047L395.706 385.191L397.108 388.77L398.509 391.936L399.911 394.675L401.313 396.9L402.715 398.598L405.518 400.996L411.125 405.072L413.928 406.441L418.133 407.988L420.937 408.613L426.544 409.288L437.757 410L447.569 410.066L461.586 409.887L488.219 410.003L493.826 410.058L499.433 410.111" fill="#EFEFEF" fill-opacity="0.4"/>
<path d="M220.492 410.112L251.33 409.933L263.945 409.515L269.552 409.008L275.159 408.565L279.364 408.148L284.971 407.786L287.774 407.339L290.578 406.529L293.381 405.308L296.185 403.661L298.988 401.98L303.193 400.154L304.595 399.138L305.997 397.567L308.8 393.2L311.603 388.954L314.407 385.11L315.809 382.818L317.21 380.038L318.612 376.723L320.014 372.865L321.415 368.389L322.817 363.188L328.424 339.87L329.826 335.205L332.629 327.284L338.236 312.797L343.843 299.806L345.244 295.198L346.646 289.737L349.45 276.794L350.851 269.097L352.253 260.258L357.86 221.574L359.262 214.957L360.663 210.538L362.065 207.98L363.467 206.635L364.868 206.145L366.27 206.803L367.672 209.274L369.074 213.977L370.475 220.749L371.877 229.036L374.68 248.223L377.484 269.983L384.492 328.472L387.296 347.552L390.099 363.399L391.501 370.203L392.903 376.101L394.304 381.047L395.706 385.191L397.108 388.77L398.509 391.936L399.911 394.675L401.313 396.9L402.715 398.598L405.518 400.996L411.125 405.072L413.928 406.441L418.133 407.988L420.937 408.613L426.544 409.288L437.757 410L447.569 410.066L461.586 409.887L488.219 410.003L493.826 410.058L499.433 410.111" stroke="#EFEFEF" stroke-linecap="square"/>
</g>
<mask id="mask6_230_8238" style="mask-type:luminance" maskUnits="userSpaceOnUse" x="76" y="55" width="477" height="356">
<path d="M552.957 55.2959H76.7969V410.112H552.957V55.2959Z" fill="white"/>
</mask>
<g mask="url(#mask6_230_8238)">
<path d="M263.047 410.111L271.687 409.977L279.093 409.857L284.031 410.009L311.187 409.508L313.655 409.101L319.827 407.685L322.296 406.708L328.468 403.671L329.702 402.851L330.936 401.779L332.171 400.38L333.405 398.634L337.108 392.35L338.342 390.097L339.577 387.36L340.811 383.663L342.045 378.707L343.28 372.506L344.514 365.189L345.749 356.679L346.983 346.649L349.452 321.922L351.92 296.457L353.155 285.639L355.623 267.805L358.092 252.705L359.326 245.813L360.561 239.905L361.795 235.64L363.029 233.22L364.264 232.078L365.498 231.145L366.733 229.471L367.967 226.714L371.67 216.047L372.904 213.751L374.139 212.858L375.373 213.277L376.607 214.541L379.076 217.84L380.31 219.623L381.545 221.758L382.779 224.629L384.013 228.494L385.248 233.325L386.482 238.998L387.717 245.562L388.951 253.15L391.42 270.955L396.357 310.161L397.591 318.136L398.826 324.609L403.763 346.606L406.232 358.942L408.701 369.247L411.169 377.397L414.872 388.078L416.107 391.203L417.341 393.829L418.575 395.921L421.044 398.995L425.981 404.41L427.216 405.368L428.45 406.061L430.919 406.909L438.325 408.564L440.794 409.158L443.262 409.482L450.669 409.828L455.606 409.906L460.543 409.965L466.715 409.924L475.356 410.111L508.683 410.111" fill="#EFEFEF" fill-opacity="0.4"/>
<path d="M263.047 410.111L271.687 409.977L279.093 409.857L284.031 410.009L311.187 409.508L313.655 409.101L319.827 407.685L322.296 406.708L328.468 403.671L329.702 402.851L330.936 401.779L332.171 400.38L333.405 398.634L337.108 392.35L338.342 390.097L339.577 387.36L340.811 383.663L342.045 378.707L343.28 372.506L344.514 365.189L345.749 356.679L346.983 346.649L349.452 321.922L351.92 296.457L353.155 285.639L355.623 267.805L358.092 252.705L359.326 245.813L360.561 239.905L361.795 235.64L363.029 233.22L364.264 232.078L365.498 231.145L366.733 229.471L367.967 226.714L371.67 216.047L372.904 213.751L374.139 212.858L375.373 213.277L376.607 214.541L379.076 217.84L380.31 219.623L381.545 221.758L382.779 224.629L384.013 228.494L385.248 233.325L386.482 238.998L387.717 245.562L388.951 253.15L391.42 270.955L396.357 310.161L397.591 318.136L398.826 324.609L403.763 346.606L406.232 358.942L408.701 369.247L411.169 377.397L414.872 388.078L416.107 391.203L417.341 393.829L418.575 395.921L421.044 398.995L425.981 404.41L427.216 405.368L428.45 406.061L430.919 406.909L438.325 408.564L440.794 409.158L443.262 409.482L450.669 409.828L455.606 409.906L460.543 409.965L466.715 409.924L475.356 410.111L508.683 410.111" stroke="#EFEFEF" stroke-linecap="square"/>
</g>
<mask id="mask7_230_8238" style="mask-type:luminance" maskUnits="userSpaceOnUse" x="76" y="55" width="477" height="356">
<path d="M552.957 55.2959H76.7969V410.112H552.957V55.2959Z" fill="white"/>
</mask>
<g mask="url(#mask7_230_8238)">
<path d="M194.781 410.111L203.801 409.978L209.814 409.573L212.82 409.102L215.827 408.308L218.833 407.222L221.84 405.795L224.847 403.923L227.853 401.683L230.86 399.1L233.866 396.12L236.873 392.606L238.376 390.498L241.382 385.417L244.389 379.528L250.402 367.41L251.905 364.826L253.409 362.599L257.918 356.882L259.422 354.519L260.925 351.663L263.931 344.829L268.441 333.698L271.448 325.435L275.958 312.314L277.461 308.587L278.964 305.504L280.467 303.114L281.971 301.316L284.977 298.32L286.48 296.45L289.487 291.637L290.99 289.259L292.494 287.339L293.997 286.005L295.5 285.19L297.003 284.729L300.01 284.302L304.52 284.024L306.023 284.049L307.526 284.296L309.029 284.885L310.533 285.842L312.036 287.1L313.539 288.577L315.043 290.296L316.546 292.416L318.049 295.166L319.552 298.709L321.056 303.041L328.572 327.298L333.082 340.321L339.095 359.503L343.605 373.406L346.611 381.717L349.618 388.738L351.121 391.672L352.624 394.224L354.127 396.436L357.134 400.064L360.14 402.894L363.147 405.034L366.154 406.499L369.16 407.384L372.167 407.869L378.18 408.372L397.722 409.559L429.291 409.739L433.801 409.553L438.31 409.757L444.323 410.03L457.853 409.985L471.382 409.942L486.415 410.084L493.931 410.112" fill="#EFEFEF" fill-opacity="0.4"/>
<path d="M194.781 410.111L203.801 409.978L209.814 409.573L212.82 409.102L215.827 408.308L218.833 407.222L221.84 405.795L224.847 403.923L227.853 401.683L230.86 399.1L233.866 396.12L236.873 392.606L238.376 390.498L241.382 385.417L244.389 379.528L250.402 367.41L251.905 364.826L253.409 362.599L257.918 356.882L259.422 354.519L260.925 351.663L263.931 344.829L268.441 333.698L271.448 325.435L275.958 312.314L277.461 308.587L278.964 305.504L280.467 303.114L281.971 301.316L284.977 298.32L286.48 296.45L289.487 291.637L290.99 289.259L292.494 287.339L293.997 286.005L295.5 285.19L297.003 284.729L300.01 284.302L304.52 284.024L306.023 284.049L307.526 284.296L309.029 284.885L310.533 285.842L312.036 287.1L313.539 288.577L315.043 290.296L316.546 292.416L318.049 295.166L319.552 298.709L321.056 303.041L328.572 327.298L333.082 340.321L339.095 359.503L343.605 373.406L346.611 381.717L349.618 388.738L351.121 391.672L352.624 394.224L354.127 396.436L357.134 400.064L360.14 402.894L363.147 405.034L366.154 406.499L369.16 407.384L372.167 407.869L378.18 408.372L397.722 409.559L429.291 409.739L433.801 409.553L438.31 409.757L444.323 410.03L457.853 409.985L471.382 409.942L486.415 410.084L493.931 410.112" stroke="#EFEFEF" stroke-linecap="square"/>
</g>
<mask id="mask8_230_8238" style="mask-type:luminance" maskUnits="userSpaceOnUse" x="76" y="55" width="477" height="356">
<path d="M552.957 55.2959H76.7969V410.112H552.957V55.2959Z" fill="white"/>
</mask>
<g mask="url(#mask8_230_8238)">
<path d="M259.719 410.111L265.693 409.984L274.056 409.781L278.835 409.886L284.809 410.007L290.783 409.848L294.367 409.621L296.757 409.718L299.146 409.886L301.536 409.806L306.315 409.544L311.094 409.548L313.483 409.305L314.678 409.029L315.873 408.508L317.068 407.682L319.457 405.572L320.652 404.751L321.847 404.319L323.041 404.25L325.431 404.392L326.626 404.208L331.405 402.888L332.6 402.249L333.794 401.163L334.989 399.578L336.184 397.505L337.379 394.941L338.573 391.803L339.768 387.952L340.963 383.274L342.158 377.683L343.352 371.026L344.547 363.147L349.326 328.328L350.521 322.612L351.716 318.664L352.911 316.019L354.105 313.92L355.3 311.374L356.495 307.264L357.69 300.678L358.884 291.305L360.079 279.54L362.469 251.797L364.858 219.251L367.248 178.512L370.832 108.588L372.027 89.1311L373.222 76.0308L374.416 72.1924L375.611 79.341L376.806 96.9469L378.001 122.295L382.78 238.47L383.974 260.359L385.169 276.678L386.364 287.828L387.559 295.55L392.338 320.765L393.533 325.222L397.117 336.842L399.506 346.534L404.286 368.513L405.48 373.167L406.675 377.206L409.065 383.698L411.454 388.732L413.844 392.769L417.428 397.96L421.012 403L422.207 404.225L423.402 404.978L426.986 406.143L429.376 406.742L431.765 407.266L435.349 408.318L444.908 409.551L452.076 409.929L455.66 410.058L464.024 409.876L468.803 410.102L479.556 410.034L497.477 410.111" fill="#EFEFEF" fill-opacity="0.4"/>
<path d="M259.719 410.111L265.693 409.984L274.056 409.781L278.835 409.886L284.809 410.007L290.783 409.848L294.367 409.621L296.757 409.718L299.146 409.886L301.536 409.806L306.315 409.544L311.094 409.548L313.483 409.305L314.678 409.029L315.873 408.508L317.068 407.682L319.457 405.572L320.652 404.751L321.847 404.319L323.041 404.25L325.431 404.392L326.626 404.208L331.405 402.888L332.6 402.249L333.794 401.163L334.989 399.578L336.184 397.505L337.379 394.941L338.573 391.803L339.768 387.952L340.963 383.274L342.158 377.683L343.352 371.026L344.547 363.147L349.326 328.328L350.521 322.612L351.716 318.664L352.911 316.019L354.105 313.92L355.3 311.374L356.495 307.264L357.69 300.678L358.884 291.305L360.079 279.54L362.469 251.797L364.858 219.251L367.248 178.512L370.832 108.588L372.027 89.1311L373.222 76.0308L374.416 72.1924L375.611 79.341L376.806 96.9469L378.001 122.295L382.78 238.47L383.974 260.359L385.169 276.678L386.364 287.828L387.559 295.55L392.338 320.765L393.533 325.222L397.117 336.842L399.506 346.534L404.286 368.513L405.48 373.167L406.675 377.206L409.065 383.698L411.454 388.732L413.844 392.769L417.428 397.96L421.012 403L422.207 404.225L423.402 404.978L426.986 406.143L429.376 406.742L431.765 407.266L435.349 408.318L444.908 409.551L452.076 409.929L455.66 410.058L464.024 409.876L468.803 410.102L479.556 410.034L497.477 410.111" stroke="#EFEFEF" stroke-linecap="square"/>
</g>
<mask id="mask9_230_8238" style="mask-type:luminance" maskUnits="userSpaceOnUse" x="76" y="55" width="477" height="356">
<path d="M552.957 55.2959H76.7969V410.112H552.957V55.2959Z" fill="white"/>
</mask>
<g mask="url(#mask9_230_8238)">
<path d="M225.445 410.111L258.469 409.963L262.973 409.869L268.977 410.014L273.48 409.845L277.984 409.658L282.487 409.789L289.992 409.634L292.995 409.583L298.999 409.073L300.5 408.655L302.001 407.823L303.502 406.457L305.003 404.467L306.504 401.62L308.006 397.395L309.507 391.153L311.008 382.499L312.509 371.379L314.01 357.792L315.511 341.645L320.014 285.921L321.515 270.718L323.016 259.104L324.518 250.968L326.019 245.468L329.021 236.405L330.522 230.438L332.023 223.024L333.524 214.379L336.526 194.631L339.529 173.971L341.03 165.464L342.531 160.287L344.032 159.991L345.533 165.142L347.034 175.006L348.535 188.208L350.036 203.722L353.038 240.336L356.041 280.494L357.542 298.379L359.043 313.116L360.544 324.87L362.045 334.675L365.047 351.463L366.548 358.469L368.049 364.273L369.55 368.98L371.051 372.903L372.553 376.255L374.054 379.019L375.555 381.08L377.056 382.458L381.559 385.48L387.564 390.993L389.065 391.88L392.067 393.185L395.069 394.934L398.071 396.918L404.076 401.689L407.078 402.911L410.08 404.086L416.084 406.659L420.588 407.842L423.59 408.274L428.093 408.525L432.596 408.946L437.1 409.222L443.104 409.762L467.122 409.752L471.625 409.933L477.629 409.998L483.634 410.093L503.148 409.98L512.154 410.085L519.66 410.084L524.163 410.111" fill="#EFEFEF" fill-opacity="0.4"/>
<path d="M225.445 410.111L258.469 409.963L262.973 409.869L268.977 410.014L273.48 409.845L277.984 409.658L282.487 409.789L289.992 409.634L292.995 409.583L298.999 409.073L300.5 408.655L302.001 407.823L303.502 406.457L305.003 404.467L306.504 401.62L308.006 397.395L309.507 391.153L311.008 382.499L312.509 371.379L314.01 357.792L315.511 341.645L320.014 285.921L321.515 270.718L323.016 259.104L324.518 250.968L326.019 245.468L329.021 236.405L330.522 230.438L332.023 223.024L333.524 214.379L336.526 194.631L339.529 173.971L341.03 165.464L342.531 160.287L344.032 159.991L345.533 165.142L347.034 175.006L348.535 188.208L350.036 203.722L353.038 240.336L356.041 280.494L357.542 298.379L359.043 313.116L360.544 324.87L362.045 334.675L365.047 351.463L366.548 358.469L368.049 364.273L369.55 368.98L371.051 372.903L372.553 376.255L374.054 379.019L375.555 381.08L377.056 382.458L381.559 385.48L387.564 390.993L389.065 391.88L392.067 393.185L395.069 394.934L398.071 396.918L404.076 401.689L407.078 402.911L410.08 404.086L416.084 406.659L420.588 407.842L423.59 408.274L428.093 408.525L432.596 408.946L437.1 409.222L443.104 409.762L467.122 409.752L471.625 409.933L477.629 409.998L483.634 410.093L503.148 409.98L512.154 410.085L519.66 410.084L524.163 410.111" stroke="#EFEFEF" stroke-linecap="square"/>
</g>
<mask id="mask10_230_8238" style="mask-type:luminance" maskUnits="userSpaceOnUse" x="76" y="55" width="477" height="356">
<path d="M552.957 55.2959H76.7969V410.112H552.957V55.2959Z" fill="white"/>
</mask>
<g mask="url(#mask10_230_8238)">
<path d="M253.82 410.111L259.214 409.994L263.259 409.903L268.653 410.087L284.834 409.959L288.879 409.89L292.924 409.65L295.621 409.685L298.318 409.384L301.015 409.034L309.105 408.984L310.454 408.624L311.802 408.008L314.499 406.259L318.544 403.512L319.893 402.144L321.241 400.132L323.938 394.924L325.286 391.811L326.635 387.933L327.983 383.235L329.332 377.739L330.68 371.043L332.028 362.539L333.377 352.065L337.422 315.46L338.77 301.146L340.119 284.133L345.513 208.614L346.861 194.373L348.209 183.526L352.255 157.121L353.603 149.378L354.951 145.029L356.3 145.309L357.648 149.67L358.997 156.394L360.345 164.07L361.693 172.615L363.042 182.783L364.39 194.944L368.436 234.995L375.178 295.184L377.874 317.395L379.223 327.241L380.571 335.53L385.965 363.924L387.313 370.314L388.662 375.617L390.01 379.699L392.707 385.54L395.404 391.814L396.752 395.03L398.101 397.737L399.449 399.716L400.798 401.085L404.843 404.298L406.191 404.999L414.282 407.389L416.979 407.958L419.675 408.86L422.372 409.339L426.417 409.598L442.598 409.768L446.644 409.66L453.386 409.858L457.431 409.36L464.173 409.456L466.87 409.614L470.915 409.977L476.309 410.062L483.051 410.007L496.535 410.086L504.625 410.016L512.716 410.07L518.11 410.07L522.155 410.111" fill="#EFEFEF" fill-opacity="0.4"/>
<path d="M253.82 410.111L259.214 409.994L263.259 409.903L268.653 410.087L284.834 409.959L288.879 409.89L292.924 409.65L295.621 409.685L298.318 409.384L301.015 409.034L309.105 408.984L310.454 408.624L311.802 408.008L314.499 406.259L318.544 403.512L319.893 402.144L321.241 400.132L323.938 394.924L325.286 391.811L326.635 387.933L327.983 383.235L329.332 377.739L330.68 371.043L332.028 362.539L333.377 352.065L337.422 315.46L338.77 301.146L340.119 284.133L345.513 208.614L346.861 194.373L348.209 183.526L352.255 157.121L353.603 149.378L354.951 145.029L356.3 145.309L357.648 149.67L358.997 156.394L360.345 164.07L361.693 172.615L363.042 182.783L364.39 194.944L368.436 234.995L375.178 295.184L377.874 317.395L379.223 327.241L380.571 335.53L385.965 363.924L387.313 370.314L388.662 375.617L390.01 379.699L392.707 385.54L395.404 391.814L396.752 395.03L398.101 397.737L399.449 399.716L400.798 401.085L404.843 404.298L406.191 404.999L414.282 407.389L416.979 407.958L419.675 408.86L422.372 409.339L426.417 409.598L442.598 409.768L446.644 409.66L453.386 409.858L457.431 409.36L464.173 409.456L466.87 409.614L470.915 409.977L476.309 410.062L483.051 410.007L496.535 410.086L504.625 410.016L512.716 410.07L518.11 410.07L522.155 410.111" stroke="#EFEFEF" stroke-linecap="square"/>
</g>
<mask id="mask11_230_8238" style="mask-type:luminance" maskUnits="userSpaceOnUse" x="76" y="55" width="477" height="356">
<path d="M552.957 55.2959H76.7969V410.112H552.957V55.2959Z" fill="white"/>
</mask>
<g mask="url(#mask11_230_8238)">
<path d="M220.758 410.111L236.265 409.956L244.018 409.583L251.772 409.539L264.178 407.595L267.279 407.284L270.38 406.422L276.583 404.485L278.134 403.796L279.685 402.916L282.786 400.702L285.888 398.231L288.989 395.257L295.192 388.59L298.293 384.766L301.395 380.365L302.945 377.793L304.496 374.895L307.597 368.022L309.148 364.063L310.699 359.388L312.25 353.572L315.351 339.124L323.104 301.072L324.655 291.431L330.858 249.003L333.959 230.889L337.061 214.171L341.713 186.749L343.264 180.273L344.814 176.591L346.365 175.882L347.916 178.498L349.466 184.613L351.017 193.814L352.568 205.433L354.119 218.882L355.669 233.73L357.22 250.027L360.321 288.085L361.872 307.823L363.423 325.448L364.974 340.284L366.524 352.971L368.075 364.227L369.626 374.087L371.176 382.216L372.727 388.547L374.278 393.413L375.828 397.248L377.379 400.333L378.93 402.755L380.481 404.546L382.031 405.829L383.582 406.794L385.133 407.531L386.683 408.017L389.785 408.391L394.437 408.781L399.089 409.268L408.393 409.373L413.045 409.664L417.698 409.893L433.205 409.894L439.407 409.89L454.915 410.1L473.523 410.047L485.929 410.112L529.348 410.111" fill="#EFEFEF" fill-opacity="0.4"/>
<path d="M220.758 410.111L236.265 409.956L244.018 409.583L251.772 409.539L264.178 407.595L267.279 407.284L270.38 406.422L276.583 404.485L278.134 403.796L279.685 402.916L282.786 400.702L285.888 398.231L288.989 395.257L295.192 388.59L298.293 384.766L301.395 380.365L302.945 377.793L304.496 374.895L307.597 368.022L309.148 364.063L310.699 359.388L312.25 353.572L315.351 339.124L323.104 301.072L324.655 291.431L330.858 249.003L333.959 230.889L337.061 214.171L341.713 186.749L343.264 180.273L344.814 176.591L346.365 175.882L347.916 178.498L349.466 184.613L351.017 193.814L352.568 205.433L354.119 218.882L355.669 233.73L357.22 250.027L360.321 288.085L361.872 307.823L363.423 325.448L364.974 340.284L366.524 352.971L368.075 364.227L369.626 374.087L371.176 382.216L372.727 388.547L374.278 393.413L375.828 397.248L377.379 400.333L378.93 402.755L380.481 404.546L382.031 405.829L383.582 406.794L385.133 407.531L386.683 408.017L389.785 408.391L394.437 408.781L399.089 409.268L408.393 409.373L413.045 409.664L417.698 409.893L433.205 409.894L439.407 409.89L454.915 410.1L473.523 410.047L485.929 410.112L529.348 410.111" stroke="#EFEFEF" stroke-linecap="square"/>
</g>
<mask id="mask12_230_8238" style="mask-type:luminance" maskUnits="userSpaceOnUse" x="76" y="55" width="477" height="356">
<path d="M552.957 55.2959H76.7969V410.112H552.957V55.2959Z" fill="white"/>
</mask>
<g mask="url(#mask12_230_8238)">
<path d="M240.039 410.111L268.232 409.937L278.972 409.242L281.657 408.925L287.027 408.687L295.082 406.479L299.109 405.011L301.794 404.257L303.137 403.645L304.479 402.697L308.507 399.009L312.534 396.213L313.877 394.983L319.247 389.028L320.589 386.678L321.932 383.385L324.617 374.715L329.987 355.745L331.329 349.728L332.672 342.805L334.014 334.877L335.357 325.605L336.699 314.77L339.384 289.965L346.097 226.405L350.124 193.234L351.467 184.749L352.809 178.528L354.152 174.006L355.494 170.949L356.837 169.902L358.179 171.414L359.522 175.403L360.864 181.428L362.207 189.059L368.919 231.831L370.262 242.925L372.947 268.615L375.632 295.033L378.317 318.071L381.002 337.589L383.687 354.95L385.029 362.424L386.372 369.004L387.714 374.621L389.057 379.212L390.399 382.907L394.427 392.157L395.769 394.991L397.112 397.348L399.797 400.933L402.482 404.347L403.824 405.695L405.167 406.502L406.509 406.825L409.194 407.027L411.879 407.63L417.249 409.164L419.934 409.375L425.304 409.518L437.387 410.018L444.099 409.955L448.127 410.048L454.839 409.946L460.209 409.948L469.607 409.963L474.977 410.086L488.402 410.042L497.799 410.055L504.512 410.1L507.197 410.111" fill="#EFEFEF" fill-opacity="0.4"/>
<path d="M240.039 410.111L268.232 409.937L278.972 409.242L281.657 408.925L287.027 408.687L295.082 406.479L299.109 405.011L301.794 404.257L303.137 403.645L304.479 402.697L308.507 399.009L312.534 396.213L313.877 394.983L319.247 389.028L320.589 386.678L321.932 383.385L324.617 374.715L329.987 355.745L331.329 349.728L332.672 342.805L334.014 334.877L335.357 325.605L336.699 314.77L339.384 289.965L346.097 226.405L350.124 193.234L351.467 184.749L352.809 178.528L354.152 174.006L355.494 170.949L356.837 169.902L358.179 171.414L359.522 175.403L360.864 181.428L362.207 189.059L368.919 231.831L370.262 242.925L372.947 268.615L375.632 295.033L378.317 318.071L381.002 337.589L383.687 354.95L385.029 362.424L386.372 369.004L387.714 374.621L389.057 379.212L390.399 382.907L394.427 392.157L395.769 394.991L397.112 397.348L399.797 400.933L402.482 404.347L403.824 405.695L405.167 406.502L406.509 406.825L409.194 407.027L411.879 407.63L417.249 409.164L419.934 409.375L425.304 409.518L437.387 410.018L444.099 409.955L448.127 410.048L454.839 409.946L460.209 409.948L469.607 409.963L474.977 410.086L488.402 410.042L497.799 410.055L504.512 410.1L507.197 410.111" stroke="#EFEFEF" stroke-linecap="square"/>
</g>
<mask id="mask13_230_8238" style="mask-type:luminance" maskUnits="userSpaceOnUse" x="76" y="55" width="477" height="356">
<path d="M552.957 55.2959H76.7969V410.112H552.957V55.2959Z" fill="white"/>
</mask>
<g mask="url(#mask13_230_8238)">
<path d="M260.07 410.111L303.832 409.899L307.583 409.636L312.585 409.554L316.336 409.589L318.837 409.165L322.588 407.998L323.838 407.444L326.339 405.806L328.839 403.775L330.09 402.298L331.34 400.038L332.59 396.566L333.841 391.612L335.091 385.236L336.341 377.5L337.592 368.05L338.842 356.537L340.092 343.162L341.343 327.975L343.844 291.326L346.344 253.31L352.596 167.169L353.846 154.137L356.347 133.252L357.597 124.723L358.848 119.488L360.098 118.921L361.348 122.236L362.599 127.697L363.849 134.378L365.099 142.38L366.35 152.203L367.6 164.077L371.351 205.294L375.102 247.807L377.603 277.946L380.104 303.362L382.604 323.636L386.355 349.095L387.606 356.683L388.856 363.242L391.357 373.78L393.857 382.624L395.108 386.035L396.358 388.502L398.859 393.015L401.359 397.965L403.86 401.668L405.11 403.208L406.361 404.467L407.611 405.383L408.862 405.963L412.613 406.973L415.113 408.072L417.614 408.768L420.115 408.969L425.116 408.976L428.867 409.24L435.119 409.083L437.619 409.309L441.371 409.877L447.622 410.046L465.127 409.734L471.379 410.03L475.13 409.945L480.131 410.11L508.889 410.111" fill="#EFEFEF" fill-opacity="0.4"/>
<path d="M260.07 410.111L303.832 409.899L307.583 409.636L312.585 409.554L316.336 409.589L318.837 409.165L322.588 407.998L323.838 407.444L326.339 405.806L328.839 403.775L330.09 402.298L331.34 400.038L332.59 396.566L333.841 391.612L335.091 385.236L336.341 377.5L337.592 368.05L338.842 356.537L340.092 343.162L341.343 327.975L343.844 291.326L346.344 253.31L352.596 167.169L353.846 154.137L356.347 133.252L357.597 124.723L358.848 119.488L360.098 118.921L361.348 122.236L362.599 127.697L363.849 134.378L365.099 142.38L366.35 152.203L367.6 164.077L371.351 205.294L375.102 247.807L377.603 277.946L380.104 303.362L382.604 323.636L386.355 349.095L387.606 356.683L388.856 363.242L391.357 373.78L393.857 382.624L395.108 386.035L396.358 388.502L398.859 393.015L401.359 397.965L403.86 401.668L405.11 403.208L406.361 404.467L407.611 405.383L408.862 405.963L412.613 406.973L415.113 408.072L417.614 408.768L420.115 408.969L425.116 408.976L428.867 409.24L435.119 409.083L437.619 409.309L441.371 409.877L447.622 410.046L465.127 409.734L471.379 410.03L475.13 409.945L480.131 410.11L508.889 410.111" stroke="#EFEFEF" stroke-linecap="square"/>
</g>
<mask id="mask14_230_8238" style="mask-type:luminance" maskUnits="userSpaceOnUse" x="76" y="55" width="477" height="356">
<path d="M552.957 55.2959H76.7969V410.112H552.957V55.2959Z" fill="white"/>
</mask>
<g mask="url(#mask14_230_8238)">
<path d="M98.4375 410.111L159.439 410.026L163.646 409.791L167.853 409.227L169.957 408.765L172.06 408.138L174.164 407.297L176.267 406.183L178.371 404.733L180.474 402.897L182.578 400.641L184.681 397.939L186.785 394.763L188.888 391.071L190.992 386.817L193.095 381.976L195.199 376.577L199.406 364.563L212.027 327.015L214.131 321.469L216.234 316.544L218.338 312.429L220.441 309.246L222.545 307.015L224.648 305.649L226.752 305L228.855 304.914L230.959 305.269L233.062 305.972L235.166 306.948L239.373 309.478L243.58 312.616L245.683 314.446L247.787 316.51L249.89 318.871L251.994 321.573L256.201 327.811L260.408 334.068L262.511 336.759L264.615 339.035L266.718 340.887L268.822 342.359L273.029 344.623L275.132 345.759L277.236 347.115L279.339 348.773L281.443 350.732L285.65 355.272L294.064 364.713L298.271 369.194L302.478 373.295L308.789 378.781L315.099 383.809L319.306 386.87L323.513 389.516L327.72 391.577L334.031 394.531L338.238 396.578L342.445 398.181L348.755 400.019L355.066 401.512L359.273 402.474L365.583 404.344L369.79 405.545L373.997 406.453L380.308 407.402L388.722 408.381L401.343 409.429L413.964 409.745L422.378 409.876L472.862 410.03L487.587 410.109L517.036 410.111" fill="#7EB0D5" fill-opacity="0.4"/>
<path d="M98.4375 410.111L159.439 410.026L163.646 409.791L167.853 409.227L169.957 408.765L172.06 408.138L174.164 407.297L176.267 406.183L178.371 404.733L180.474 402.897L182.578 400.641L184.681 397.939L186.785 394.763L188.888 391.071L190.992 386.817L193.095 381.976L195.199 376.577L199.406 364.563L212.027 327.015L214.131 321.469L216.234 316.544L218.338 312.429L220.441 309.246L222.545 307.015L224.648 305.649L226.752 305L228.855 304.914L230.959 305.269L233.062 305.972L235.166 306.948L239.373 309.478L243.58 312.616L245.683 314.446L247.787 316.51L249.89 318.871L251.994 321.573L256.201 327.811L260.408 334.068L262.511 336.759L264.615 339.035L266.718 340.887L268.822 342.359L273.029 344.623L275.132 345.759L277.236 347.115L279.339 348.773L281.443 350.732L285.65 355.272L294.064 364.713L298.271 369.194L302.478 373.295L308.789 378.781L315.099 383.809L319.306 386.87L323.513 389.516L327.72 391.577L334.031 394.531L338.238 396.578L342.445 398.181L348.755 400.019L355.066 401.512L359.273 402.474L365.583 404.344L369.79 405.545L373.997 406.453L380.308 407.402L388.722 408.381L401.343 409.429L413.964 409.745L422.378 409.876L472.862 410.03L487.587 410.109L517.036 410.111" stroke="#7EB0D5" stroke-linecap="square"/>
</g>
<path d="M535.061 411.061C535.646 410.475 535.646 409.525 535.061 408.939L525.515 399.393C524.929 398.808 523.979 398.808 523.393 399.393C522.808 399.979 522.808 400.929 523.393 401.515L531.879 410L523.393 418.485C522.808 419.071 522.808 420.021 523.393 420.607C523.979 421.192 524.929 421.192 525.515 420.607L535.061 411.061ZM79 411.5H534V408.5H79V411.5Z" fill="black"/>
</g>
<defs>
<clipPath id="clip0_230_8238">
<rect width="614.4" height="460.8" fill="white"/>
</clipPath>
</defs>
</svg>
