<svg width="615" height="461" viewBox="0 0 615 461" fill="none" xmlns="http://www.w3.org/2000/svg">
<g clip-path="url(#clip0_230_8478)">
<mask id="mask0_230_8478" style="mask-type:luminance" maskUnits="userSpaceOnUse" x="76" y="55" width="477" height="356">
<path d="M552.957 55.2959H76.7969V410.112H552.957V55.2959Z" fill="white"/>
</mask>
<g mask="url(#mask0_230_8478)">
<path d="M202.352 410.112L218.524 409.963L226.61 409.629L231.462 409.132L234.696 408.6L237.931 407.793L241.165 406.567L242.783 405.743L244.4 404.752L247.634 402.255L250.869 399.235L255.72 394.291L258.955 390.678L262.189 386.541L265.424 381.778L268.658 376.39L271.893 370.406L276.745 360.517L279.979 353.364L283.214 345.679L292.917 321.673L297.769 310.789L302.62 300.525L305.855 294.347L309.089 288.926L312.324 284.253L313.941 282.268L315.558 280.632L317.176 279.447L318.793 278.78L320.41 278.62L322.027 278.871L325.262 280.006L331.731 282.685L334.965 284.432L341.434 288.139L344.669 289.937L346.286 291.018L347.903 292.324L349.52 293.888L352.755 297.629L355.989 301.497L359.224 304.897L362.458 308.191L365.693 312.091L368.927 316.643L372.162 321.63L375.396 327.302L378.631 333.757L386.717 350.243L391.569 359.778L394.803 365.461L398.038 370.335L402.889 376.825L410.975 387.249L414.21 391.014L417.444 394.162L419.062 395.435L422.296 397.45L433.617 403.376L436.851 404.565L443.32 406.263L451.406 408.303L454.641 408.83L459.493 409.216L482.134 409.949L490.22 410.068L514.479 410.086L524.182 410.112" fill="#EFEFEF" fill-opacity="0.4"/>
<path d="M202.352 410.112L218.524 409.963L226.61 409.629L231.462 409.132L234.696 408.6L237.931 407.793L241.165 406.567L242.783 405.743L244.4 404.752L247.634 402.255L250.869 399.235L255.72 394.291L258.955 390.678L262.189 386.541L265.424 381.778L268.658 376.39L271.893 370.406L276.745 360.517L279.979 353.364L283.214 345.679L292.917 321.673L297.769 310.789L302.62 300.525L305.855 294.347L309.089 288.926L312.324 284.253L313.941 282.268L315.558 280.632L317.176 279.447L318.793 278.78L320.41 278.62L322.027 278.871L325.262 280.006L331.731 282.685L334.965 284.432L341.434 288.139L344.669 289.937L346.286 291.018L347.903 292.324L349.52 293.888L352.755 297.629L355.989 301.497L359.224 304.897L362.458 308.191L365.693 312.091L368.927 316.643L372.162 321.63L375.396 327.302L378.631 333.757L386.717 350.243L391.569 359.778L394.803 365.461L398.038 370.335L402.889 376.825L410.975 387.249L414.21 391.014L417.444 394.162L419.062 395.435L422.296 397.45L433.617 403.376L436.851 404.565L443.32 406.263L451.406 408.303L454.641 408.83L459.493 409.216L482.134 409.949L490.22 410.068L514.479 410.086L524.182 410.112" stroke="#EFEFEF" stroke-linecap="square"/>
</g>
<mask id="mask1_230_8478" style="mask-type:luminance" maskUnits="userSpaceOnUse" x="76" y="55" width="477" height="356">
<path d="M552.957 55.2959H76.7969V410.112H552.957V55.2959Z" fill="white"/>
</mask>
<g mask="url(#mask1_230_8478)">
<path d="M226.961 410.111L266.725 409.954L284.398 409.41L288.816 409.277L293.234 408.883L296.18 408.43L299.125 407.662L302.07 406.562L305.016 405.251L307.961 403.627L309.434 402.592L310.907 401.341L312.38 399.837L313.852 398.061L315.325 396.01L318.271 391.12L321.216 385.32L324.162 378.622L325.634 374.754L327.107 370.398L330.052 360.265L334.471 343.343L337.416 330.507L340.362 315.292L344.78 291.537L349.198 268.345L355.089 233.076L356.562 226.48L358.034 221.602L359.507 218.123L365.398 207.524L366.871 205.468L368.344 204.629L369.816 205.259L371.289 207.09L374.235 211.727L375.707 213.437L378.653 215.886L380.126 217.801L381.598 220.979L383.071 225.617L384.544 231.457L388.962 250.397L393.38 266.643L397.798 283.34L402.217 301.223L411.053 337.982L413.998 349.145L416.944 358.482L419.889 366.179L422.835 372.503L425.78 377.606L431.671 387.09L433.144 389.063L436.089 392.375L439.035 395.746L443.453 401.151L444.926 402.528L446.399 403.564L447.871 404.32L450.817 405.416L455.235 406.702L459.653 407.558L465.544 408.664L469.962 409.496L472.908 409.718L520.035 410.111" fill="#EFEFEF" fill-opacity="0.4"/>
<path d="M226.961 410.111L266.725 409.954L284.398 409.41L288.816 409.277L293.234 408.883L296.18 408.43L299.125 407.662L302.07 406.562L305.016 405.251L307.961 403.627L309.434 402.592L310.907 401.341L312.38 399.837L313.852 398.061L315.325 396.01L318.271 391.12L321.216 385.32L324.162 378.622L325.634 374.754L327.107 370.398L330.052 360.265L334.471 343.343L337.416 330.507L340.362 315.292L344.78 291.537L349.198 268.345L355.089 233.076L356.562 226.48L358.034 221.602L359.507 218.123L365.398 207.524L366.871 205.468L368.344 204.629L369.816 205.259L371.289 207.09L374.235 211.727L375.707 213.437L378.653 215.886L380.126 217.801L381.598 220.979L383.071 225.617L384.544 231.457L388.962 250.397L393.38 266.643L397.798 283.34L402.217 301.223L411.053 337.982L413.998 349.145L416.944 358.482L419.889 366.179L422.835 372.503L425.78 377.606L431.671 387.09L433.144 389.063L436.089 392.375L439.035 395.746L443.453 401.151L444.926 402.528L446.399 403.564L447.871 404.32L450.817 405.416L455.235 406.702L459.653 407.558L465.544 408.664L469.962 409.496L472.908 409.718L520.035 410.111" stroke="#EFEFEF" stroke-linecap="square"/>
</g>
<mask id="mask2_230_8478" style="mask-type:luminance" maskUnits="userSpaceOnUse" x="76" y="55" width="477" height="356">
<path d="M552.957 55.2959H76.7969V410.112H552.957V55.2959Z" fill="white"/>
</mask>
<g mask="url(#mask2_230_8478)">
<path d="M248.812 410.111L262.437 409.991L266.525 409.706L271.975 409.199L274.7 409.221L281.512 409.551L288.324 409.319L291.049 408.981L296.499 408.084L300.587 407.548L303.312 406.865L314.211 403.064L316.936 401.591L319.661 399.854L321.024 398.763L322.386 397.409L325.111 393.918L327.836 389.747L330.561 384.885L333.286 379.035L336.011 372.169L338.736 363.924L341.461 353.839L342.823 347.865L344.186 341.049L345.548 333.286L348.273 315.382L357.811 249.094L364.623 205.292L367.348 191.235L370.073 179.055L371.435 173.879L372.798 169.649L374.16 166.522L375.523 164.56L376.885 163.844L378.248 164.56L379.61 166.894L380.973 170.785L383.698 181.256L386.423 192.4L387.785 198.758L389.148 206.288L394.597 240.88L397.322 255.327L400.047 268.113L404.135 286.552L406.86 301.264L410.947 325.35L412.31 332.55L413.672 338.928L415.035 344.438L417.76 353.517L424.572 373.773L427.297 380.113L432.747 391.017L434.109 393.49L435.472 395.558L436.834 397.179L438.197 398.44L440.922 400.363L443.647 401.865L449.097 404.494L451.821 405.404L457.271 406.499L461.359 407.48L468.171 408.804L472.259 409.477L476.346 409.773L484.521 409.964L519.945 410.11" fill="#EFEFEF" fill-opacity="0.4"/>
<path d="M248.812 410.111L262.437 409.991L266.525 409.706L271.975 409.199L274.7 409.221L281.512 409.551L288.324 409.319L291.049 408.981L296.499 408.084L300.587 407.548L303.312 406.865L314.211 403.064L316.936 401.591L319.661 399.854L321.024 398.763L322.386 397.409L325.111 393.918L327.836 389.747L330.561 384.885L333.286 379.035L336.011 372.169L338.736 363.924L341.461 353.839L342.823 347.865L344.186 341.049L345.548 333.286L348.273 315.382L357.811 249.094L364.623 205.292L367.348 191.235L370.073 179.055L371.435 173.879L372.798 169.649L374.16 166.522L375.523 164.56L376.885 163.844L378.248 164.56L379.61 166.894L380.973 170.785L383.698 181.256L386.423 192.4L387.785 198.758L389.148 206.288L394.597 240.88L397.322 255.327L400.047 268.113L404.135 286.552L406.86 301.264L410.947 325.35L412.31 332.55L413.672 338.928L415.035 344.438L417.76 353.517L424.572 373.773L427.297 380.113L432.747 391.017L434.109 393.49L435.472 395.558L436.834 397.179L438.197 398.44L440.922 400.363L443.647 401.865L449.097 404.494L451.821 405.404L457.271 406.499L461.359 407.48L468.171 408.804L472.259 409.477L476.346 409.773L484.521 409.964L519.945 410.11" stroke="#EFEFEF" stroke-linecap="square"/>
</g>
<mask id="mask3_230_8478" style="mask-type:luminance" maskUnits="userSpaceOnUse" x="76" y="55" width="477" height="356">
<path d="M552.957 55.2959H76.7969V410.112H552.957V55.2959Z" fill="white"/>
</mask>
<g mask="url(#mask3_230_8478)">
<path d="M261.43 410.11L266.855 409.996L270.923 409.843L281.773 409.989L287.198 409.766L291.266 409.726L299.404 409.058L303.472 409.566L306.185 409.779L308.897 409.737L312.966 409.333L315.678 409.053L321.103 408.778L325.172 408.329L329.24 407.94L330.597 407.644L331.953 407.177L333.309 406.493L340.09 402.183L341.446 401.391L342.803 400.129L344.159 398.052L345.515 395.031L346.871 391.217L349.584 382.282L350.94 377.238L352.296 371.443L353.652 364.542L355.008 356.351L357.721 336.616L361.79 303.317L364.502 279.786L367.214 253.674L371.283 212.499L372.639 200.574L373.995 190.285L375.352 181.529L376.708 174.047L378.064 167.658L379.42 162.212L382.133 153.256L383.489 149.707L384.845 147.398L386.201 146.975L387.558 148.731L388.914 152.427L392.982 166.604L395.695 173.016L397.051 177.332L398.407 183.575L402.476 206.394L405.188 219.597L406.545 227.707L409.257 247.871L416.038 300.747L417.394 310.008L420.107 325.381L422.819 338.968L425.532 351.138L426.888 356.345L428.244 360.905L429.6 364.844L435.025 378.871L437.738 386.366L439.094 389.615L440.45 392.388L441.806 394.719L444.519 398.435L447.231 401.349L448.587 402.443L449.943 403.258L458.081 406.934L460.793 407.802L462.149 408.063L464.862 408.163L467.574 408.145L470.287 408.446L475.712 409.216L482.493 409.538L486.561 409.896L494.699 410L506.904 409.922L515.042 409.856L523.179 410.013L531.316 410.111" fill="#EFEFEF" fill-opacity="0.4"/>
<path d="M261.43 410.11L266.855 409.996L270.923 409.843L281.773 409.989L287.198 409.766L291.266 409.726L299.404 409.058L303.472 409.566L306.185 409.779L308.897 409.737L312.966 409.333L315.678 409.053L321.103 408.778L325.172 408.329L329.24 407.94L330.597 407.644L331.953 407.177L333.309 406.493L340.09 402.183L341.446 401.391L342.803 400.129L344.159 398.052L345.515 395.031L346.871 391.217L349.584 382.282L350.94 377.238L352.296 371.443L353.652 364.542L355.008 356.351L357.721 336.616L361.79 303.317L364.502 279.786L367.214 253.674L371.283 212.499L372.639 200.574L373.995 190.285L375.352 181.529L376.708 174.047L378.064 167.658L379.42 162.212L382.133 153.256L383.489 149.707L384.845 147.398L386.201 146.975L387.558 148.731L388.914 152.427L392.982 166.604L395.695 173.016L397.051 177.332L398.407 183.575L402.476 206.394L405.188 219.597L406.545 227.707L409.257 247.871L416.038 300.747L417.394 310.008L420.107 325.381L422.819 338.968L425.532 351.138L426.888 356.345L428.244 360.905L429.6 364.844L435.025 378.871L437.738 386.366L439.094 389.615L440.45 392.388L441.806 394.719L444.519 398.435L447.231 401.349L448.587 402.443L449.943 403.258L458.081 406.934L460.793 407.802L462.149 408.063L464.862 408.163L467.574 408.145L470.287 408.446L475.712 409.216L482.493 409.538L486.561 409.896L494.699 410L506.904 409.922L515.042 409.856L523.179 410.013L531.316 410.111" stroke="#EFEFEF" stroke-linecap="square"/>
</g>
<mask id="mask4_230_8478" style="mask-type:luminance" maskUnits="userSpaceOnUse" x="76" y="55" width="477" height="356">
<path d="M552.957 55.2959H76.7969V410.112H552.957V55.2959Z" fill="white"/>
</mask>
<g mask="url(#mask4_230_8478)">
<path d="M238.797 410.111L244.324 410.004L248.47 409.85L258.143 409.931L263.671 409.587L266.434 408.984L269.198 408.21L270.58 408.015L271.962 408.025L277.49 408.758L280.253 408.595L285.781 408.013L287.163 407.549L289.926 406.193L292.69 404.422L298.218 400.273L299.6 398.992L300.982 397.455L302.363 395.653L303.745 393.58L305.127 391.21L307.891 385.6L310.655 379.299L313.418 371.993L316.182 363.212L325.855 329.514L328.619 318.145L330.001 311.469L331.383 303.492L332.765 293.902L334.147 282.716L336.91 256.873L343.82 187.183L346.584 155.187L350.729 104.763L352.111 91.1945L353.493 80.8832L354.875 74.5583L356.257 72.1924L357.639 73.0906L359.02 76.797L360.402 83.7316L361.784 94.7617L363.166 110.233L364.548 129.417L370.076 213.859L372.839 251.525L375.603 284.769L378.367 312.801L379.749 324.845L381.131 335.558L382.512 345.059L383.894 353.511L385.276 360.986L386.658 367.434L388.04 372.821L389.422 377.267L392.186 384.384L394.949 390.268L396.331 392.762L397.713 394.853L399.095 396.538L401.859 399.248L404.623 401.711L407.386 403.735L408.768 404.451L410.15 404.923L412.914 405.288L417.059 405.424L418.441 405.647L419.823 406.082L423.969 407.829L426.733 408.4L429.496 408.684L435.024 408.999L440.551 409.524L446.079 409.701L450.225 409.496L454.37 409.306L459.898 409.628L468.189 409.973L475.098 409.986L513.791 410.111" fill="#EFEFEF" fill-opacity="0.4"/>
<path d="M238.797 410.111L244.324 410.004L248.47 409.85L258.143 409.931L263.671 409.587L266.434 408.984L269.198 408.21L270.58 408.015L271.962 408.025L277.49 408.758L280.253 408.595L285.781 408.013L287.163 407.549L289.926 406.193L292.69 404.422L298.218 400.273L299.6 398.992L300.982 397.455L302.363 395.653L303.745 393.58L305.127 391.21L307.891 385.6L310.655 379.299L313.418 371.993L316.182 363.212L325.855 329.514L328.619 318.145L330.001 311.469L331.383 303.492L332.765 293.902L334.147 282.716L336.91 256.873L343.82 187.183L346.584 155.187L350.729 104.763L352.111 91.1945L353.493 80.8832L354.875 74.5583L356.257 72.1924L357.639 73.0906L359.02 76.797L360.402 83.7316L361.784 94.7617L363.166 110.233L364.548 129.417L370.076 213.859L372.839 251.525L375.603 284.769L378.367 312.801L379.749 324.845L381.131 335.558L382.512 345.059L383.894 353.511L385.276 360.986L386.658 367.434L388.04 372.821L389.422 377.267L392.186 384.384L394.949 390.268L396.331 392.762L397.713 394.853L399.095 396.538L401.859 399.248L404.623 401.711L407.386 403.735L408.768 404.451L410.15 404.923L412.914 405.288L417.059 405.424L418.441 405.647L419.823 406.082L423.969 407.829L426.733 408.4L429.496 408.684L435.024 408.999L440.551 409.524L446.079 409.701L450.225 409.496L454.37 409.306L459.898 409.628L468.189 409.973L475.098 409.986L513.791 410.111" stroke="#EFEFEF" stroke-linecap="square"/>
</g>
<mask id="mask5_230_8478" style="mask-type:luminance" maskUnits="userSpaceOnUse" x="76" y="55" width="477" height="356">
<path d="M552.957 55.2959H76.7969V410.112H552.957V55.2959Z" fill="white"/>
</mask>
<g mask="url(#mask5_230_8478)">
<path d="M234.492 410.111L260.008 409.956L265.678 409.679L275.6 409.091L288.358 408.389L294.028 407.905L299.698 407.2L303.951 406.886L305.368 406.595L306.786 406.117L309.621 404.662L313.873 402.255L320.961 399.011L323.796 397.035L325.213 395.743L326.631 394.194L329.466 390.366L332.301 385.789L335.136 380.458L337.971 374.358L340.806 367.284L343.641 358.686L347.894 345.044L349.311 341.287L350.729 338.188L352.146 335.747L353.564 333.878L354.981 332.438L356.399 331.285L359.234 329.533L360.651 328.927L364.904 327.768L366.322 327.005L367.739 325.698L369.157 323.806L370.574 321.441L373.409 315.899L374.827 312.769L376.244 309.251L377.662 305.238L380.497 295.885L383.332 285.579L384.749 280.011L386.167 273.783L387.584 266.502L389.002 257.885L390.419 247.892L393.254 225.032L396.089 201.886L398.924 181.791L400.342 173.2L401.76 165.593L403.177 159.146L404.595 154.292L406.012 151.656L407.43 151.847L408.847 155.195L410.265 161.602L411.682 170.576L413.1 181.427L415.935 206.335L418.77 233.605L425.857 304.766L428.692 328.93L430.11 339.416L431.527 348.761L432.945 356.929L434.362 363.937L435.78 369.885L437.198 374.945L438.615 379.322L441.45 386.695L444.285 392.737L445.703 395.264L447.12 397.432L448.538 399.235L449.955 400.694L451.373 401.861L454.208 403.615L458.46 405.708L461.295 406.882L464.13 407.725L468.383 408.518L474.053 409.407L478.306 409.681L486.811 409.732L491.063 409.788L496.733 409.98L506.656 409.856L513.744 410.099L516.579 410.11" fill="#EFEFEF" fill-opacity="0.4"/>
<path d="M234.492 410.111L260.008 409.956L265.678 409.679L275.6 409.091L288.358 408.389L294.028 407.905L299.698 407.2L303.951 406.886L305.368 406.595L306.786 406.117L309.621 404.662L313.873 402.255L320.961 399.011L323.796 397.035L325.213 395.743L326.631 394.194L329.466 390.366L332.301 385.789L335.136 380.458L337.971 374.358L340.806 367.284L343.641 358.686L347.894 345.044L349.311 341.287L350.729 338.188L352.146 335.747L353.564 333.878L354.981 332.438L356.399 331.285L359.234 329.533L360.651 328.927L364.904 327.768L366.322 327.005L367.739 325.698L369.157 323.806L370.574 321.441L373.409 315.899L374.827 312.769L376.244 309.251L377.662 305.238L380.497 295.885L383.332 285.579L384.749 280.011L386.167 273.783L387.584 266.502L389.002 257.885L390.419 247.892L393.254 225.032L396.089 201.886L398.924 181.791L400.342 173.2L401.76 165.593L403.177 159.146L404.595 154.292L406.012 151.656L407.43 151.847L408.847 155.195L410.265 161.602L411.682 170.576L413.1 181.427L415.935 206.335L418.77 233.605L425.857 304.766L428.692 328.93L430.11 339.416L431.527 348.761L432.945 356.929L434.362 363.937L435.78 369.885L437.198 374.945L438.615 379.322L441.45 386.695L444.285 392.737L445.703 395.264L447.12 397.432L448.538 399.235L449.955 400.694L451.373 401.861L454.208 403.615L458.46 405.708L461.295 406.882L464.13 407.725L468.383 408.518L474.053 409.407L478.306 409.681L486.811 409.732L491.063 409.788L496.733 409.98L506.656 409.856L513.744 410.099L516.579 410.11" stroke="#EFEFEF" stroke-linecap="square"/>
</g>
<mask id="mask6_230_8478" style="mask-type:luminance" maskUnits="userSpaceOnUse" x="76" y="55" width="477" height="356">
<path d="M552.957 55.2959H76.7969V410.112H552.957V55.2959Z" fill="white"/>
</mask>
<g mask="url(#mask6_230_8478)">
<path d="M258.672 410.11L266.46 409.961L274.248 409.726L282.036 409.975L287.229 409.868L295.017 409.989L300.209 409.801L305.401 409.566L314.487 409.628L319.68 409.076L328.766 407.056L331.362 406.342L333.958 405.144L337.852 402.812L340.448 400.907L346.938 395.491L348.236 394.097L350.832 390.55L357.323 380.916L358.621 378.389L359.919 375.08L361.217 370.869L362.515 365.819L363.813 360.012L365.111 353.409L366.409 345.895L367.707 337.383L369.005 327.817L371.601 305.221L374.197 278.272L378.091 233.747L380.687 203.689L381.985 189.94L383.283 178.057L384.581 168.484L385.879 161.207L387.177 155.89L388.475 152.141L389.773 149.651L391.071 148.137L394.965 145.337L396.264 144.019L397.562 142.941L398.86 142.93L400.158 144.672L401.456 148.255L404.052 158.569L406.648 170.505L407.946 177.87L409.244 186.716L411.84 207.679L417.032 251.968L420.926 287.463L422.224 297.92L423.522 306.589L424.82 313.39L430.012 335.368L435.205 361.359L436.503 366.94L437.801 371.848L439.099 376.091L441.695 383.013L444.291 388.764L446.887 393.709L448.185 395.74L450.781 398.997L453.377 401.515L454.675 402.453L458.569 404.532L462.463 406.391L466.357 407.782L468.953 408.455L472.848 409.038L480.636 409.635L484.53 409.804L494.914 409.97L501.404 410.104L516.981 410.11" fill="#EFEFEF" fill-opacity="0.4"/>
<path d="M258.672 410.11L266.46 409.961L274.248 409.726L282.036 409.975L287.229 409.868L295.017 409.989L300.209 409.801L305.401 409.566L314.487 409.628L319.68 409.076L328.766 407.056L331.362 406.342L333.958 405.144L337.852 402.812L340.448 400.907L346.938 395.491L348.236 394.097L350.832 390.55L357.323 380.916L358.621 378.389L359.919 375.08L361.217 370.869L362.515 365.819L363.813 360.012L365.111 353.409L366.409 345.895L367.707 337.383L369.005 327.817L371.601 305.221L374.197 278.272L378.091 233.747L380.687 203.689L381.985 189.94L383.283 178.057L384.581 168.484L385.879 161.207L387.177 155.89L388.475 152.141L389.773 149.651L391.071 148.137L394.965 145.337L396.264 144.019L397.562 142.941L398.86 142.93L400.158 144.672L401.456 148.255L404.052 158.569L406.648 170.505L407.946 177.87L409.244 186.716L411.84 207.679L417.032 251.968L420.926 287.463L422.224 297.92L423.522 306.589L424.82 313.39L430.012 335.368L435.205 361.359L436.503 366.94L437.801 371.848L439.099 376.091L441.695 383.013L444.291 388.764L446.887 393.709L448.185 395.74L450.781 398.997L453.377 401.515L454.675 402.453L458.569 404.532L462.463 406.391L466.357 407.782L468.953 408.455L472.848 409.038L480.636 409.635L484.53 409.804L494.914 409.97L501.404 410.104L516.981 410.11" stroke="#EFEFEF" stroke-linecap="square"/>
</g>
<mask id="mask7_230_8478" style="mask-type:luminance" maskUnits="userSpaceOnUse" x="76" y="55" width="477" height="356">
<path d="M552.957 55.2959H76.7969V410.112H552.957V55.2959Z" fill="white"/>
</mask>
<g mask="url(#mask7_230_8478)">
<path d="M184.242 410.111L198.908 409.974L203.796 409.708L207.055 409.342L210.314 408.736L213.573 407.825L216.832 406.58L220.091 404.972L223.35 402.993L226.609 400.64L229.868 397.745L231.497 395.959L233.127 393.858L234.756 391.407L238.015 385.565L242.904 375.631L246.162 368.524L249.421 360.57L255.939 343.498L264.087 324.133L272.234 302.329L273.864 298.921L275.493 295.959L277.123 293.382L278.752 291.133L280.382 289.182L282.011 287.51L283.641 286.107L285.27 284.965L286.899 284.081L288.529 283.458L290.158 283.083L293.417 282.845L296.676 282.653L299.935 282.031L304.824 280.573L312.971 277.889L314.601 277.823L316.23 278.146L317.86 278.892L319.489 280.019L322.748 282.976L326.007 285.966L329.266 288.406L330.895 289.572L332.525 290.941L334.154 292.703L335.784 294.974L337.413 297.748L340.672 304.302L347.19 318.512L350.449 326.436L365.115 363.919L368.374 371.292L371.633 377.611L374.892 383.045L379.78 390.344L383.039 394.574L386.298 398.048L389.557 400.865L392.816 403.201L396.075 405.05L399.334 406.297L402.593 406.987L415.629 408.63L420.517 408.916L461.254 409.691L467.772 409.669L482.437 410.031L493.844 410.012L508.509 410.111" fill="#EFEFEF" fill-opacity="0.4"/>
<path d="M184.242 410.111L198.908 409.974L203.796 409.708L207.055 409.342L210.314 408.736L213.573 407.825L216.832 406.58L220.091 404.972L223.35 402.993L226.609 400.64L229.868 397.745L231.497 395.959L233.127 393.858L234.756 391.407L238.015 385.565L242.904 375.631L246.162 368.524L249.421 360.57L255.939 343.498L264.087 324.133L272.234 302.329L273.864 298.921L275.493 295.959L277.123 293.382L278.752 291.133L280.382 289.182L282.011 287.51L283.641 286.107L285.27 284.965L286.899 284.081L288.529 283.458L290.158 283.083L293.417 282.845L296.676 282.653L299.935 282.031L304.824 280.573L312.971 277.889L314.601 277.823L316.23 278.146L317.86 278.892L319.489 280.019L322.748 282.976L326.007 285.966L329.266 288.406L330.895 289.572L332.525 290.941L334.154 292.703L335.784 294.974L337.413 297.748L340.672 304.302L347.19 318.512L350.449 326.436L365.115 363.919L368.374 371.292L371.633 377.611L374.892 383.045L379.78 390.344L383.039 394.574L386.298 398.048L389.557 400.865L392.816 403.201L396.075 405.05L399.334 406.297L402.593 406.987L415.629 408.63L420.517 408.916L461.254 409.691L467.772 409.669L482.437 410.031L493.844 410.012L508.509 410.111" stroke="#EFEFEF" stroke-linecap="square"/>
</g>
<mask id="mask8_230_8478" style="mask-type:luminance" maskUnits="userSpaceOnUse" x="76" y="55" width="477" height="356">
<path d="M552.957 55.2959H76.7969V410.112H552.957V55.2959Z" fill="white"/>
</mask>
<g mask="url(#mask8_230_8478)">
<path d="M260.977 410.109L266.113 409.989L271.249 409.76L280.237 409.901L290.509 409.904L295.645 409.886L304.633 410.055L311.053 409.822L317.474 409.496L322.61 409.443L325.178 409.433L326.462 409.272L329.03 408.5L335.45 405.721L338.018 405.402L341.87 405.273L344.438 404.854L347.006 404.038L349.574 402.781L352.142 400.92L354.71 398.391L355.994 396.841L357.278 395.01L358.562 392.82L359.846 390.231L361.13 387.23L362.414 383.794L363.698 379.863L364.983 375.361L367.551 364.591L370.119 352.084L372.687 338.167L376.539 316.443L379.107 304.218L380.391 298.23L381.675 291.419L382.959 283.194L384.243 273.397L389.379 228.358L391.947 205.045L393.231 191.545L395.799 159.621L398.367 125.348L399.651 109.774L400.935 96.4983L402.219 86.4632L403.503 80.4485L404.787 78.7295L406.071 80.9769L407.355 86.5539L408.639 94.9395L409.923 105.941L411.207 119.598L412.491 135.856L415.059 173.768L417.627 211.918L420.196 244.32L421.48 257.763L422.764 269.423L424.048 279.49L425.332 288.223L427.9 302.922L430.468 315.178L433.036 324.91L436.888 338.444L440.74 352.426L443.308 360.776L445.876 367.768L453.58 386.6L454.864 389.207L457.432 393.412L461.284 398.863L463.852 401.667L466.42 403.733L468.988 405.233L474.125 407.266L476.693 408.177L479.261 408.597L483.113 408.948L488.249 409.692L492.101 409.801L516.497 410.111" fill="#EFEFEF" fill-opacity="0.4"/>
<path d="M260.977 410.109L266.113 409.989L271.249 409.76L280.237 409.901L290.509 409.904L295.645 409.886L304.633 410.055L311.053 409.822L317.474 409.496L322.61 409.443L325.178 409.433L326.462 409.272L329.03 408.5L335.45 405.721L338.018 405.402L341.87 405.273L344.438 404.854L347.006 404.038L349.574 402.781L352.142 400.92L354.71 398.391L355.994 396.841L357.278 395.01L358.562 392.82L359.846 390.231L361.13 387.23L362.414 383.794L363.698 379.863L364.983 375.361L367.551 364.591L370.119 352.084L372.687 338.167L376.539 316.443L379.107 304.218L380.391 298.23L381.675 291.419L382.959 283.194L384.243 273.397L389.379 228.358L391.947 205.045L393.231 191.545L395.799 159.621L398.367 125.348L399.651 109.774L400.935 96.4983L402.219 86.4632L403.503 80.4485L404.787 78.7295L406.071 80.9769L407.355 86.5539L408.639 94.9395L409.923 105.941L411.207 119.598L412.491 135.856L415.059 173.768L417.627 211.918L420.196 244.32L421.48 257.763L422.764 269.423L424.048 279.49L425.332 288.223L427.9 302.922L430.468 315.178L433.036 324.91L436.888 338.444L440.74 352.426L443.308 360.776L445.876 367.768L453.58 386.6L454.864 389.207L457.432 393.412L461.284 398.863L463.852 401.667L466.42 403.733L468.988 405.233L474.125 407.266L476.693 408.177L479.261 408.597L483.113 408.948L488.249 409.692L492.101 409.801L516.497 410.111" stroke="#EFEFEF" stroke-linecap="square"/>
</g>
<mask id="mask9_230_8478" style="mask-type:luminance" maskUnits="userSpaceOnUse" x="76" y="55" width="477" height="356">
<path d="M552.957 55.2959H76.7969V410.112H552.957V55.2959Z" fill="white"/>
</mask>
<g mask="url(#mask9_230_8478)">
<path d="M208.117 410.11L267.448 409.86L272.132 409.749L278.378 409.916L287.746 409.687L292.43 409.724L298.675 409.539L303.359 409.375L306.482 409.287L311.166 409.3L315.85 408.941L317.412 408.704L318.973 408.31L320.534 407.742L322.096 406.952L323.657 405.73L325.218 403.664L326.78 400.213L328.341 394.839L329.902 387.134L331.464 376.947L333.025 364.486L339.27 307.849L340.832 296.204L345.516 265.874L347.077 256.161L348.639 247.545L350.2 240.384L354.884 221.104L358.007 205.546L359.568 196.593L361.129 186.523L365.813 153.141L367.375 144.763L368.936 139.514L370.497 137.559L372.059 138.441L373.62 141.534L375.182 146.63L376.743 153.987L378.304 163.71L379.866 175.317L382.988 201.311L389.234 254.267L392.356 279.97L393.918 291.7L395.479 301.902L398.602 319.327L401.724 335.946L403.286 343.641L404.847 350.385L406.409 355.891L407.97 360.165L411.093 366.687L417.338 379.711L420.461 384.904L423.583 389.39L425.145 391.157L426.706 392.451L428.267 393.314L431.39 394.542L432.951 395.39L436.074 397.834L439.197 400.335L440.758 401.395L442.32 402.256L443.881 402.845L450.126 404.188L454.81 405.71L459.494 406.987L465.74 408.183L468.862 408.463L473.546 408.786L478.231 409.337L484.476 409.653L496.967 409.883L511.019 409.971L518.826 410.11" fill="#EFEFEF" fill-opacity="0.4"/>
<path d="M208.117 410.11L267.448 409.86L272.132 409.749L278.378 409.916L287.746 409.687L292.43 409.724L298.675 409.539L303.359 409.375L306.482 409.287L311.166 409.3L315.85 408.941L317.412 408.704L318.973 408.31L320.534 407.742L322.096 406.952L323.657 405.73L325.218 403.664L326.78 400.213L328.341 394.839L329.902 387.134L331.464 376.947L333.025 364.486L339.27 307.849L340.832 296.204L345.516 265.874L347.077 256.161L348.639 247.545L350.2 240.384L354.884 221.104L358.007 205.546L359.568 196.593L361.129 186.523L365.813 153.141L367.375 144.763L368.936 139.514L370.497 137.559L372.059 138.441L373.62 141.534L375.182 146.63L376.743 153.987L378.304 163.71L379.866 175.317L382.988 201.311L389.234 254.267L392.356 279.97L393.918 291.7L395.479 301.902L398.602 319.327L401.724 335.946L403.286 343.641L404.847 350.385L406.409 355.891L407.97 360.165L411.093 366.687L417.338 379.711L420.461 384.904L423.583 389.39L425.145 391.157L426.706 392.451L428.267 393.314L431.39 394.542L432.951 395.39L436.074 397.834L439.197 400.335L440.758 401.395L442.32 402.256L443.881 402.845L450.126 404.188L454.81 405.71L459.494 406.987L465.74 408.183L468.862 408.463L473.546 408.786L478.231 409.337L484.476 409.653L496.967 409.883L511.019 409.971L518.826 410.11" stroke="#EFEFEF" stroke-linecap="square"/>
</g>
<mask id="mask10_230_8478" style="mask-type:luminance" maskUnits="userSpaceOnUse" x="76" y="55" width="477" height="356">
<path d="M552.957 55.2959H76.7969V410.112H552.957V55.2959Z" fill="white"/>
</mask>
<g mask="url(#mask10_230_8478)">
<path d="M250.75 410.111L270.859 409.932L278.902 409.916L288.286 409.952L297.67 409.782L303.033 409.724L311.076 409.08L315.098 408.863L317.779 408.727L320.46 408.176L323.141 407.166L328.504 404.677L335.207 401.023L336.547 400.032L337.888 398.52L339.228 396.365L340.569 393.628L341.909 390.458L343.25 386.9L344.591 382.772L345.931 377.768L347.272 371.74L353.975 337.201L355.315 329.301L356.656 319.463L357.996 307.315L363.359 250.026L366.04 221.463L371.402 161.693L372.743 149.706L374.083 139.291L375.424 130.446L376.765 123.759L378.105 119.834L379.446 118.496L380.786 118.968L382.127 120.759L383.468 123.91L384.808 128.384L386.149 133.774L387.489 139.789L388.83 146.625L390.17 154.677L391.511 164.069L394.192 185.602L399.554 229.323L406.257 280.15L410.279 313.104L411.62 322.585L412.96 330.811L414.301 337.897L416.982 349.752L419.663 359.333L427.707 384.031L429.047 386.83L430.388 388.853L434.41 393.287L435.75 395.362L438.431 400.016L439.772 401.945L441.113 403.321L442.453 404.117L443.794 404.481L446.475 405.024L447.815 405.636L451.837 407.962L453.178 408.406L454.518 408.582L455.859 408.496L461.221 407.49L462.562 407.677L469.265 409.568L471.946 409.7L477.308 409.433L486.692 409.936L505.46 409.916L509.482 409.873L516.185 410.106L517.526 410.11" fill="#EFEFEF" fill-opacity="0.4"/>
<path d="M250.75 410.111L270.859 409.932L278.902 409.916L288.286 409.952L297.67 409.782L303.033 409.724L311.076 409.08L315.098 408.863L317.779 408.727L320.46 408.176L323.141 407.166L328.504 404.677L335.207 401.023L336.547 400.032L337.888 398.52L339.228 396.365L340.569 393.628L341.909 390.458L343.25 386.9L344.591 382.772L345.931 377.768L347.272 371.74L353.975 337.201L355.315 329.301L356.656 319.463L357.996 307.315L363.359 250.026L366.04 221.463L371.402 161.693L372.743 149.706L374.083 139.291L375.424 130.446L376.765 123.759L378.105 119.834L379.446 118.496L380.786 118.968L382.127 120.759L383.468 123.91L384.808 128.384L386.149 133.774L387.489 139.789L388.83 146.625L390.17 154.677L391.511 164.069L394.192 185.602L399.554 229.323L406.257 280.15L410.279 313.104L411.62 322.585L412.96 330.811L414.301 337.897L416.982 349.752L419.663 359.333L427.707 384.031L429.047 386.83L430.388 388.853L434.41 393.287L435.75 395.362L438.431 400.016L439.772 401.945L441.113 403.321L442.453 404.117L443.794 404.481L446.475 405.024L447.815 405.636L451.837 407.962L453.178 408.406L454.518 408.582L455.859 408.496L461.221 407.49L462.562 407.677L469.265 409.568L471.946 409.7L477.308 409.433L486.692 409.936L505.46 409.916L509.482 409.873L516.185 410.106L517.526 410.11" stroke="#EFEFEF" stroke-linecap="square"/>
</g>
<mask id="mask11_230_8478" style="mask-type:luminance" maskUnits="userSpaceOnUse" x="76" y="55" width="477" height="356">
<path d="M552.957 55.2959H76.7969V410.112H552.957V55.2959Z" fill="white"/>
</mask>
<g mask="url(#mask11_230_8478)">
<path d="M215.172 410.111L238.449 409.976L250.864 409.276L253.967 408.868L260.175 407.704L266.382 406.874L269.485 405.974L272.589 404.547L278.796 400.87L283.452 397.886L289.659 393.739L292.763 392.062L298.97 389.407L300.522 388.355L302.073 386.996L303.625 385.357L306.729 381.459L312.936 372.578L316.04 367.829L323.799 355.187L325.351 351.981L326.903 348.113L330.006 339.097L334.662 324.981L337.765 314.036L342.421 296.027L348.628 275.001L351.732 262.066L354.835 248.301L357.939 236.016L361.042 224.06L364.146 210.455L368.801 189.913L370.353 183.834L371.905 178.431L373.457 173.912L375.009 170.534L376.561 168.673L378.112 168.845L379.664 171.585L381.216 177.241L382.768 185.817L384.32 197.006L385.871 210.337L388.975 241.211L393.631 288.537L396.734 316.258L399.838 340.323L402.941 360.521L404.493 369.157L406.045 376.709L407.597 383.069L409.149 388.239L410.701 392.358L412.252 395.631L413.804 398.232L415.356 400.273L416.908 401.841L418.46 403.043L421.563 404.863L426.219 407.158L427.77 407.733L429.322 408.145L432.426 408.533L438.633 408.94L443.289 409.246L452.599 409.263L457.255 409.544L480.532 409.889L488.291 410.099L506.913 410.06L514.672 409.994L523.983 410.11" fill="#EFEFEF" fill-opacity="0.4"/>
<path d="M215.172 410.111L238.449 409.976L250.864 409.276L253.967 408.868L260.175 407.704L266.382 406.874L269.485 405.974L272.589 404.547L278.796 400.87L283.452 397.886L289.659 393.739L292.763 392.062L298.97 389.407L300.522 388.355L302.073 386.996L303.625 385.357L306.729 381.459L312.936 372.578L316.04 367.829L323.799 355.187L325.351 351.981L326.903 348.113L330.006 339.097L334.662 324.981L337.765 314.036L342.421 296.027L348.628 275.001L351.732 262.066L354.835 248.301L357.939 236.016L361.042 224.06L364.146 210.455L368.801 189.913L370.353 183.834L371.905 178.431L373.457 173.912L375.009 170.534L376.561 168.673L378.112 168.845L379.664 171.585L381.216 177.241L382.768 185.817L384.32 197.006L385.871 210.337L388.975 241.211L393.631 288.537L396.734 316.258L399.838 340.323L402.941 360.521L404.493 369.157L406.045 376.709L407.597 383.069L409.149 388.239L410.701 392.358L412.252 395.631L413.804 398.232L415.356 400.273L416.908 401.841L418.46 403.043L421.563 404.863L426.219 407.158L427.77 407.733L429.322 408.145L432.426 408.533L438.633 408.94L443.289 409.246L452.599 409.263L457.255 409.544L480.532 409.889L488.291 410.099L506.913 410.06L514.672 409.994L523.983 410.11" stroke="#EFEFEF" stroke-linecap="square"/>
</g>
<mask id="mask12_230_8478" style="mask-type:luminance" maskUnits="userSpaceOnUse" x="76" y="55" width="477" height="356">
<path d="M552.957 55.2959H76.7969V410.112H552.957V55.2959Z" fill="white"/>
</mask>
<g mask="url(#mask12_230_8478)">
<path d="M237.688 410.111L268.594 409.929L289.667 409.485L292.477 408.999L299.501 407.378L303.715 406.711L306.525 405.907L309.335 404.829L312.144 403.483L316.359 401.079L323.383 396.787L326.193 394.348L329.003 391.514L330.407 389.782L331.812 387.729L334.622 382.792L337.432 376.909L338.836 373.284L340.241 368.939L341.646 363.825L344.456 351.696L347.266 337.42L350.075 320.865L352.885 302.695L355.695 283.038L359.909 250.54L366.933 195.733L368.338 186.987L369.743 179.561L371.148 173.091L372.553 167.384L373.958 162.673L375.362 159.401L376.767 157.901L378.172 158.28L379.577 160.434L380.982 164.02L383.792 173.234L386.601 183.163L388.006 188.825L389.411 195.266L392.221 210.482L399.245 253.009L404.864 281.106L407.674 299.08L411.888 327.691L414.698 344.158L416.103 351.319L417.508 357.595L418.913 362.906L420.318 367.347L423.127 374.566L425.937 380.564L428.747 385.554L431.556 389.884L434.366 393.61L439.985 399.749L442.795 402.659L444.2 403.76L447.01 405.399L449.819 406.722L451.224 407.214L452.629 407.534L463.868 408.773L469.487 409.037L479.321 409.994L487.75 409.95L517.252 410.111" fill="#EFEFEF" fill-opacity="0.4"/>
<path d="M237.688 410.111L268.594 409.929L289.667 409.485L292.477 408.999L299.501 407.378L303.715 406.711L306.525 405.907L309.335 404.829L312.144 403.483L316.359 401.079L323.383 396.787L326.193 394.348L329.003 391.514L330.407 389.782L331.812 387.729L334.622 382.792L337.432 376.909L338.836 373.284L340.241 368.939L341.646 363.825L344.456 351.696L347.266 337.42L350.075 320.865L352.885 302.695L355.695 283.038L359.909 250.54L366.933 195.733L368.338 186.987L369.743 179.561L371.148 173.091L372.553 167.384L373.958 162.673L375.362 159.401L376.767 157.901L378.172 158.28L379.577 160.434L380.982 164.02L383.792 173.234L386.601 183.163L388.006 188.825L389.411 195.266L392.221 210.482L399.245 253.009L404.864 281.106L407.674 299.08L411.888 327.691L414.698 344.158L416.103 351.319L417.508 357.595L418.913 362.906L420.318 367.347L423.127 374.566L425.937 380.564L428.747 385.554L431.556 389.884L434.366 393.61L439.985 399.749L442.795 402.659L444.2 403.76L447.01 405.399L449.819 406.722L451.224 407.214L452.629 407.534L463.868 408.773L469.487 409.037L479.321 409.994L487.75 409.95L517.252 410.111" stroke="#EFEFEF" stroke-linecap="square"/>
</g>
<mask id="mask13_230_8478" style="mask-type:luminance" maskUnits="userSpaceOnUse" x="76" y="55" width="477" height="356">
<path d="M552.957 55.2959H76.7969V410.112H552.957V55.2959Z" fill="white"/>
</mask>
<g mask="url(#mask13_230_8478)">
<path d="M260.047 410.109L265.402 409.957L269.418 409.873L276.111 410.011L281.466 410.111L293.515 409.979L298.869 409.906L305.563 409.961L313.595 409.598L321.627 409.891L332.337 408.723L335.014 408.197L336.353 407.637L340.369 405.489L341.708 404.939L343.047 404.202L344.385 402.991L345.724 401.205L347.063 398.927L348.401 396.159L349.74 392.537L351.079 387.372L352.418 380.176L353.756 371.12L356.434 349.342L359.111 322.962L361.788 291.547L364.466 253.557L367.143 214.037L371.159 160.522L372.498 144.297L373.837 130.894L375.176 120.552L379.192 93.6562L380.53 84.5733L381.869 78.8389L383.208 79.0661L384.546 85.0095L392.579 139.016L393.917 148.937L397.933 184.221L400.611 208.601L405.966 264.876L408.643 288.669L411.321 310.148L412.659 319.034L418.014 348.606L420.691 363.121L422.03 369.207L424.708 379.61L426.046 384.287L427.385 388.242L428.724 391.158L430.062 393.093L432.74 395.863L435.417 399.337L436.756 400.713L439.433 402.398L443.449 404.858L450.143 407.62L452.82 408.113L455.498 408.259L458.175 408.362L466.207 409.41L471.562 409.331L475.578 409.635L483.611 409.93L487.627 410.087L506.369 410.021L511.723 410.11L526.449 410.11" fill="#EFEFEF" fill-opacity="0.4"/>
<path d="M260.047 410.109L265.402 409.957L269.418 409.873L276.111 410.011L281.466 410.111L293.515 409.979L298.869 409.906L305.563 409.961L313.595 409.598L321.627 409.891L332.337 408.723L335.014 408.197L336.353 407.637L340.369 405.489L341.708 404.939L343.047 404.202L344.385 402.991L345.724 401.205L347.063 398.927L348.401 396.159L349.74 392.537L351.079 387.372L352.418 380.176L353.756 371.12L356.434 349.342L359.111 322.962L361.788 291.547L364.466 253.557L367.143 214.037L371.159 160.522L372.498 144.297L373.837 130.894L375.176 120.552L379.192 93.6562L380.53 84.5733L381.869 78.8389L383.208 79.0661L384.546 85.0095L392.579 139.016L393.917 148.937L397.933 184.221L400.611 208.601L405.966 264.876L408.643 288.669L411.321 310.148L412.659 319.034L418.014 348.606L420.691 363.121L422.03 369.207L424.708 379.61L426.046 384.287L427.385 388.242L428.724 391.158L430.062 393.093L432.74 395.863L435.417 399.337L436.756 400.713L439.433 402.398L443.449 404.858L450.143 407.62L452.82 408.113L455.498 408.259L458.175 408.362L466.207 409.41L471.562 409.331L475.578 409.635L483.611 409.93L487.627 410.087L506.369 410.021L511.723 410.11L526.449 410.11" stroke="#EFEFEF" stroke-linecap="square"/>
</g>
<mask id="mask14_230_8478" style="mask-type:luminance" maskUnits="userSpaceOnUse" x="76" y="55" width="477" height="356">
<path d="M552.957 55.2959H76.7969V410.112H552.957V55.2959Z" fill="white"/>
</mask>
<g mask="url(#mask14_230_8478)">
<path d="M98.4375 410.112L154.283 409.975L158.578 409.632L160.726 409.28L162.874 408.732L165.022 407.912L167.17 406.721L169.318 405.047L171.466 402.766L173.614 399.764L175.761 395.945L177.909 391.24L180.057 385.608L182.205 379.039L184.353 371.569L188.649 354.476L197.24 318.078L201.536 300.854L205.832 284.789L207.98 277.643L210.128 271.414L212.276 266.275L214.423 262.268L216.571 259.322L218.719 257.313L220.867 256.146L223.015 255.794L225.163 256.257L227.311 257.506L229.459 259.438L231.607 261.911L233.754 264.803L235.902 268.063L238.05 271.692L242.346 279.978L253.085 302.071L259.529 314.351L278.86 349.75L283.156 356.821L285.304 359.993L287.452 362.895L289.599 365.537L293.895 370.124L296.043 372.105L298.191 373.883L300.339 375.452L302.487 376.818L306.783 379.069L321.818 385.975L326.114 387.597L336.853 390.835L341.149 392.727L345.445 394.762L349.74 396.39L354.036 397.438L360.48 398.434L371.219 399.601L375.515 400.675L384.107 403.316L390.55 404.808L399.142 406.439L403.438 407.006L418.473 408.302L429.212 409.121L435.656 409.414L487.205 410.076L525.867 410.112" fill="#7EB0D5" fill-opacity="0.4"/>
<path d="M98.4375 410.112L154.283 409.975L158.578 409.632L160.726 409.28L162.874 408.732L165.022 407.912L167.17 406.721L169.318 405.047L171.466 402.766L173.614 399.764L175.761 395.945L177.909 391.24L180.057 385.608L182.205 379.039L184.353 371.569L188.649 354.476L197.24 318.078L201.536 300.854L205.832 284.789L207.98 277.643L210.128 271.414L212.276 266.275L214.423 262.268L216.571 259.322L218.719 257.313L220.867 256.146L223.015 255.794L225.163 256.257L227.311 257.506L229.459 259.438L231.607 261.911L233.754 264.803L235.902 268.063L238.05 271.692L242.346 279.978L253.085 302.071L259.529 314.351L278.86 349.75L283.156 356.821L285.304 359.993L287.452 362.895L289.599 365.537L293.895 370.124L296.043 372.105L298.191 373.883L300.339 375.452L302.487 376.818L306.783 379.069L321.818 385.975L326.114 387.597L336.853 390.835L341.149 392.727L345.445 394.762L349.74 396.39L354.036 397.438L360.48 398.434L371.219 399.601L375.515 400.675L384.107 403.316L390.55 404.808L399.142 406.439L403.438 407.006L418.473 408.302L429.212 409.121L435.656 409.414L487.205 410.076L525.867 410.112" stroke="#7EB0D5" stroke-linecap="square"/>
</g>
<path d="M535.061 411.061C535.646 410.475 535.646 409.525 535.061 408.939L525.515 399.393C524.929 398.808 523.979 398.808 523.393 399.393C522.808 399.979 522.808 400.929 523.393 401.515L531.879 410L523.393 418.485C522.808 419.071 522.808 420.021 523.393 420.607C523.979 421.192 524.929 421.192 525.515 420.607L535.061 411.061ZM79 411.5H534V408.5H79V411.5Z" fill="black"/>
</g>
<defs>
<clipPath id="clip0_230_8478">
<rect width="614.4" height="460.8" fill="white"/>
</clipPath>
</defs>
</svg>
