<svg width="615" height="461" viewBox="0 0 615 461" fill="none" xmlns="http://www.w3.org/2000/svg">
<g clip-path="url(#clip0_230_8878)">
<mask id="mask0_230_8878" style="mask-type:luminance" maskUnits="userSpaceOnUse" x="76" y="55" width="477" height="356">
<path d="M552.957 55.2959H76.7969V410.112H552.957V55.2959Z" fill="white"/>
</mask>
<g mask="url(#mask0_230_8878)">
<path d="M245.523 410.111L260.474 409.954L266.225 409.762L277.726 409.912L288.076 409.274L297.277 407.765L300.727 406.995L303.027 406.551L305.327 405.77L309.928 403.529L312.228 402.19L314.528 400.36L319.128 396.118L321.428 393.698L323.729 390.824L326.029 387.196L328.329 382.468L330.629 376.504L332.929 369.343L335.229 361.072L337.53 351.336L339.83 339.646L343.28 319.778L345.58 304.75L347.88 286.863L352.48 248.675L355.931 223.618L358.231 208.335L362.831 179.209L365.131 163.537L366.281 156.538L367.432 150.801L368.582 146.633L369.732 144.128L370.882 143.258L372.032 143.915L373.182 145.853L375.482 151.762L377.782 157.999L378.932 161.527L380.082 165.913L381.232 171.372L383.533 184.628L389.283 220.403L391.583 236.563L399.634 296.328L401.934 311.076L404.234 323.556L409.984 351.57L412.284 361.191L414.585 369.232L416.885 376.178L419.185 382.22L421.485 387.5L423.785 392.003L426.085 395.453L428.386 398.132L430.686 400.469L432.986 402.438L435.286 404.025L437.586 405.32L441.036 406.797L445.637 408.505L447.937 408.911L459.438 409.874L473.238 410.109L474.389 410.111" fill="#EFEFEF" fill-opacity="0.4"/>
<path d="M245.523 410.111L260.474 409.954L266.225 409.762L277.726 409.912L288.076 409.274L297.277 407.765L300.727 406.995L303.027 406.551L305.327 405.77L309.928 403.529L312.228 402.19L314.528 400.36L319.128 396.118L321.428 393.698L323.729 390.824L326.029 387.196L328.329 382.468L330.629 376.504L332.929 369.343L335.229 361.072L337.53 351.336L339.83 339.646L343.28 319.778L345.58 304.75L347.88 286.863L352.48 248.675L355.931 223.618L358.231 208.335L362.831 179.209L365.131 163.537L366.281 156.538L367.432 150.801L368.582 146.633L369.732 144.128L370.882 143.258L372.032 143.915L373.182 145.853L375.482 151.762L377.782 157.999L378.932 161.527L380.082 165.913L381.232 171.372L383.533 184.628L389.283 220.403L391.583 236.563L399.634 296.328L401.934 311.076L404.234 323.556L409.984 351.57L412.284 361.191L414.585 369.232L416.885 376.178L419.185 382.22L421.485 387.5L423.785 392.003L426.085 395.453L428.386 398.132L430.686 400.469L432.986 402.438L435.286 404.025L437.586 405.32L441.036 406.797L445.637 408.505L447.937 408.911L459.438 409.874L473.238 410.109L474.389 410.111" stroke="#EFEFEF" stroke-linecap="square"/>
</g>
<mask id="mask1_230_8878" style="mask-type:luminance" maskUnits="userSpaceOnUse" x="76" y="55" width="477" height="356">
<path d="M552.957 55.2959H76.7969V410.112H552.957V55.2959Z" fill="white"/>
</mask>
<g mask="url(#mask1_230_8878)">
<path d="M268.484 410.111L277.536 409.949L283.571 410.05L287.594 409.982L293.629 409.778L297.652 409.599L308.715 408.287L311.732 407.19L314.75 406.209L316.761 405.558L318.773 404.491L320.784 402.765L322.796 400.406L327.825 393.827L329.836 390.428L331.848 385.958L333.859 380.62L335.871 374.667L337.883 367.877L339.894 359.895L341.906 350.802L343.917 340.174L345.929 327.056L347.94 311.538L349.952 293.739L352.969 262.628L354.981 242.114L356.992 224.889L367.05 151.005L369.061 140.178L370.067 136.029L371.073 133.001L372.079 131.398L373.084 131.454L374.09 133.168L375.096 136.236L379.119 151.267L382.136 159.994L383.142 163.5L385.154 172.329L387.165 183.158L390.183 201.696L393.2 222.391L395.211 238.288L400.24 281.749L402.252 295.147L407.281 325.357L410.298 343.055L413.315 358.532L415.327 367.278L417.338 374.082L419.35 379.314L422.367 385.923L424.379 389.715L426.39 392.863L432.425 400.998L434.436 403.168L436.448 404.728L440.471 407.155L442.483 408.113L444.494 408.761L447.511 409.271L455.558 409.974L465.615 410.097L468.633 410.111" fill="#EFEFEF" fill-opacity="0.4"/>
<path d="M268.484 410.111L277.536 409.949L283.571 410.05L287.594 409.982L293.629 409.778L297.652 409.599L308.715 408.287L311.732 407.19L314.75 406.209L316.761 405.558L318.773 404.491L320.784 402.765L322.796 400.406L327.825 393.827L329.836 390.428L331.848 385.958L333.859 380.62L335.871 374.667L337.883 367.877L339.894 359.895L341.906 350.802L343.917 340.174L345.929 327.056L347.94 311.538L349.952 293.739L352.969 262.628L354.981 242.114L356.992 224.889L367.05 151.005L369.061 140.178L370.067 136.029L371.073 133.001L372.079 131.398L373.084 131.454L374.09 133.168L375.096 136.236L379.119 151.267L382.136 159.994L383.142 163.5L385.154 172.329L387.165 183.158L390.183 201.696L393.2 222.391L395.211 238.288L400.24 281.749L402.252 295.147L407.281 325.357L410.298 343.055L413.315 358.532L415.327 367.278L417.338 374.082L419.35 379.314L422.367 385.923L424.379 389.715L426.39 392.863L432.425 400.998L434.436 403.168L436.448 404.728L440.471 407.155L442.483 408.113L444.494 408.761L447.511 409.271L455.558 409.974L465.615 410.097L468.633 410.111" stroke="#EFEFEF" stroke-linecap="square"/>
</g>
<mask id="mask2_230_8878" style="mask-type:luminance" maskUnits="userSpaceOnUse" x="76" y="55" width="477" height="356">
<path d="M552.957 55.2959H76.7969V410.112H552.957V55.2959Z" fill="white"/>
</mask>
<g mask="url(#mask2_230_8878)">
<path d="M273.492 410.111L298.313 409.942L314.861 409.252L317.225 408.615L323.135 406.453L325.499 405.883L326.681 405.46L327.863 404.81L330.226 402.828L333.772 399.165L336.136 396.154L337.318 394.287L338.5 392.108L339.682 389.527L340.864 386.397L342.046 382.539L343.228 377.817L344.41 372.167L345.592 365.568L346.774 357.982L349.138 339.639L351.502 317.178L353.866 290.98L358.594 233.89L360.958 210.373L363.321 190.881L366.867 164.77L368.049 157.231L369.231 150.739L370.413 145.474L371.595 141.428L372.777 138.389L373.959 136.03L375.141 134.123L376.323 132.733L377.505 132.228L378.687 133.081L379.869 135.598L381.051 139.75L382.233 145.221L384.597 158.445L386.961 172.071L391.689 196.921L394.053 213.645L398.78 250.077L401.144 266.215L403.508 280.055L411.782 321.598L414.146 331.779L417.692 344.971L423.602 365.568L425.966 372.725L427.148 375.757L428.33 378.381L429.512 380.602L431.875 384.17L434.239 387.636L438.967 395.262L441.331 398.384L443.695 400.893L446.059 402.696L448.423 403.891L459.061 407.971L462.607 408.669L467.334 409.184L473.244 409.552L483.882 410.001L508.703 410.111" fill="#EFEFEF" fill-opacity="0.4"/>
<path d="M273.492 410.111L298.313 409.942L314.861 409.252L317.225 408.615L323.135 406.453L325.499 405.883L326.681 405.46L327.863 404.81L330.226 402.828L333.772 399.165L336.136 396.154L337.318 394.287L338.5 392.108L339.682 389.527L340.864 386.397L342.046 382.539L343.228 377.817L344.41 372.167L345.592 365.568L346.774 357.982L349.138 339.639L351.502 317.178L353.866 290.98L358.594 233.89L360.958 210.373L363.321 190.881L366.867 164.77L368.049 157.231L369.231 150.739L370.413 145.474L371.595 141.428L372.777 138.389L373.959 136.03L375.141 134.123L376.323 132.733L377.505 132.228L378.687 133.081L379.869 135.598L381.051 139.75L382.233 145.221L384.597 158.445L386.961 172.071L391.689 196.921L394.053 213.645L398.78 250.077L401.144 266.215L403.508 280.055L411.782 321.598L414.146 331.779L417.692 344.971L423.602 365.568L425.966 372.725L427.148 375.757L428.33 378.381L429.512 380.602L431.875 384.17L434.239 387.636L438.967 395.262L441.331 398.384L443.695 400.893L446.059 402.696L448.423 403.891L459.061 407.971L462.607 408.669L467.334 409.184L473.244 409.552L483.882 410.001L508.703 410.111" stroke="#EFEFEF" stroke-linecap="square"/>
</g>
<mask id="mask3_230_8878" style="mask-type:luminance" maskUnits="userSpaceOnUse" x="76" y="55" width="477" height="356">
<path d="M552.957 55.2959H76.7969V410.112H552.957V55.2959Z" fill="white"/>
</mask>
<g mask="url(#mask3_230_8878)">
<path d="M270.75 410.111L301.786 409.958L309.832 409.278L314.43 409.065L316.729 408.683L319.028 407.91L327.074 404.092L328.224 403.317L329.373 402.338L330.523 401.137L332.822 398.085L335.121 394.279L337.42 389.853L339.719 384.56L340.868 381.354L342.017 377.6L343.167 373.162L344.316 367.906L345.466 361.692L346.615 354.379L347.765 345.889L350.064 325.742L352.363 302.74L354.662 277.473L361.559 196.738L363.858 174.23L366.156 155.294L368.455 138.389L369.605 131.08L370.754 125.004L371.904 120.331L373.053 117.147L374.203 115.658L375.352 116.238L376.502 119.23L377.651 124.621L379.95 139.806L381.1 147.451L382.249 154.087L384.548 164.614L386.847 174.321L389.146 185.452L390.295 192.197L391.445 200.03L393.744 218.444L397.192 247.241L399.491 264.478L402.94 287.873L407.538 316.448L409.837 329.697L410.986 335.2L412.136 339.591L414.434 346L415.584 349.138L416.733 352.866L419.032 362.09L421.331 371.285L422.481 374.917L423.63 377.715L424.78 379.814L428.228 384.946L431.677 390.979L432.826 392.58L433.976 393.829L436.274 395.72L445.47 402.696L450.068 405.253L452.367 406.153L465.011 409.228L468.46 409.308L471.908 409.417L482.254 410.103L499.496 410.111" fill="#EFEFEF" fill-opacity="0.4"/>
<path d="M270.75 410.111L301.786 409.958L309.832 409.278L314.43 409.065L316.729 408.683L319.028 407.91L327.074 404.092L328.224 403.317L329.373 402.338L330.523 401.137L332.822 398.085L335.121 394.279L337.42 389.853L339.719 384.56L340.868 381.354L342.017 377.6L343.167 373.162L344.316 367.906L345.466 361.692L346.615 354.379L347.765 345.889L350.064 325.742L352.363 302.74L354.662 277.473L361.559 196.738L363.858 174.23L366.156 155.294L368.455 138.389L369.605 131.08L370.754 125.004L371.904 120.331L373.053 117.147L374.203 115.658L375.352 116.238L376.502 119.23L377.651 124.621L379.95 139.806L381.1 147.451L382.249 154.087L384.548 164.614L386.847 174.321L389.146 185.452L390.295 192.197L391.445 200.03L393.744 218.444L397.192 247.241L399.491 264.478L402.94 287.873L407.538 316.448L409.837 329.697L410.986 335.2L412.136 339.591L414.434 346L415.584 349.138L416.733 352.866L419.032 362.09L421.331 371.285L422.481 374.917L423.63 377.715L424.78 379.814L428.228 384.946L431.677 390.979L432.826 392.58L433.976 393.829L436.274 395.72L445.47 402.696L450.068 405.253L452.367 406.153L465.011 409.228L468.46 409.308L471.908 409.417L482.254 410.103L499.496 410.111" stroke="#EFEFEF" stroke-linecap="square"/>
</g>
<mask id="mask4_230_8878" style="mask-type:luminance" maskUnits="userSpaceOnUse" x="76" y="55" width="477" height="356">
<path d="M552.957 55.2959H76.7969V410.112H552.957V55.2959Z" fill="white"/>
</mask>
<g mask="url(#mask4_230_8878)">
<path d="M233.516 410.111L292.402 409.937L296.511 409.554L303.358 408.702L306.097 408.786L311.575 409.201L315.683 409.167L318.422 408.887L323.9 407.96L326.639 407.333L329.378 406.334L332.117 404.902L334.855 403.18L337.594 401.092L340.333 398.387L343.072 395.02L344.442 392.983L345.811 390.561L347.181 387.653L348.55 384.215L351.289 375.907L359.506 348.193L360.875 342.854L363.614 330.327L370.461 294.126L373.2 278.592L375.939 259.038L378.678 237.89L381.417 219.512L382.787 211.942L384.156 205.45L386.895 194.568L391.003 178.819L392.373 174.413L393.742 171.142L395.112 169.115L396.481 168.291L397.851 168.676L399.22 170.339L400.589 173.249L403.328 181.416L408.806 198.521L410.176 204.903L411.545 213.105L415.654 242.045L417.023 250.168L423.87 285.742L427.979 309.362L430.718 323.902L433.456 337.22L436.195 348.771L438.934 358.61L441.673 367.515L444.412 375.503L448.52 386.414L449.89 389.629L451.259 392.441L452.629 394.852L455.368 398.791L456.737 400.417L458.107 401.808L459.476 402.953L462.215 404.619L464.954 405.798L469.062 407.135L474.54 408.56L478.649 409.228L484.126 409.679L489.604 409.881L506.038 410.111" fill="#EFEFEF" fill-opacity="0.4"/>
<path d="M233.516 410.111L292.402 409.937L296.511 409.554L303.358 408.702L306.097 408.786L311.575 409.201L315.683 409.167L318.422 408.887L323.9 407.96L326.639 407.333L329.378 406.334L332.117 404.902L334.855 403.18L337.594 401.092L340.333 398.387L343.072 395.02L344.442 392.983L345.811 390.561L347.181 387.653L348.55 384.215L351.289 375.907L359.506 348.193L360.875 342.854L363.614 330.327L370.461 294.126L373.2 278.592L375.939 259.038L378.678 237.89L381.417 219.512L382.787 211.942L384.156 205.45L386.895 194.568L391.003 178.819L392.373 174.413L393.742 171.142L395.112 169.115L396.481 168.291L397.851 168.676L399.22 170.339L400.589 173.249L403.328 181.416L408.806 198.521L410.176 204.903L411.545 213.105L415.654 242.045L417.023 250.168L423.87 285.742L427.979 309.362L430.718 323.902L433.456 337.22L436.195 348.771L438.934 358.61L441.673 367.515L444.412 375.503L448.52 386.414L449.89 389.629L451.259 392.441L452.629 394.852L455.368 398.791L456.737 400.417L458.107 401.808L459.476 402.953L462.215 404.619L464.954 405.798L469.062 407.135L474.54 408.56L478.649 409.228L484.126 409.679L489.604 409.881L506.038 410.111" stroke="#EFEFEF" stroke-linecap="square"/>
</g>
<mask id="mask5_230_8878" style="mask-type:luminance" maskUnits="userSpaceOnUse" x="76" y="55" width="477" height="356">
<path d="M552.957 55.2959H76.7969V410.112H552.957V55.2959Z" fill="white"/>
</mask>
<g mask="url(#mask5_230_8878)">
<path d="M289.625 410.111L297.483 409.966L313.199 409.479L316.566 409.609L319.934 409.329L326.669 408.515L328.914 407.921L331.159 406.984L334.527 405.128L337.895 403.029L340.14 401.16L341.262 399.871L342.385 398.236L343.507 396.207L345.752 391.074L347.998 384.902L350.243 377.339L351.365 372.721L353.61 361.524L355.855 348.009L358.101 332.799L360.346 315.54L362.591 295.313L369.326 228.612L372.694 190.903L376.061 151.491L377.184 139.989L378.306 130.576L379.429 123.874L380.551 120.015L381.674 118.559L382.797 118.672L385.042 120.472L386.164 121.487L387.287 122.831L388.409 124.98L389.532 128.302L390.654 132.86L392.9 144.624L396.267 165.151L398.512 180.925L401.88 208.015L405.248 234.975L408.615 259.687L415.351 307.494L417.596 321.133L420.963 339.546L423.208 350.35L425.453 359.43L427.699 366.891L429.944 373.167L432.189 378.134L437.802 388.285L440.047 391.77L441.169 393.128L443.414 395.236L445.659 397.205L451.272 402.752L452.395 403.461L454.64 404.298L456.885 405.021L461.375 407.062L463.62 407.504L468.11 408.058L473.723 409.092L479.336 409.7L484.949 409.829L493.929 409.795L498.419 409.98L513.012 410.111" fill="#EFEFEF" fill-opacity="0.4"/>
<path d="M289.625 410.111L297.483 409.966L313.199 409.479L316.566 409.609L319.934 409.329L326.669 408.515L328.914 407.921L331.159 406.984L334.527 405.128L337.895 403.029L340.14 401.16L341.262 399.871L342.385 398.236L343.507 396.207L345.752 391.074L347.998 384.902L350.243 377.339L351.365 372.721L353.61 361.524L355.855 348.009L358.101 332.799L360.346 315.54L362.591 295.313L369.326 228.612L372.694 190.903L376.061 151.491L377.184 139.989L378.306 130.576L379.429 123.874L380.551 120.015L381.674 118.559L382.797 118.672L385.042 120.472L386.164 121.487L387.287 122.831L388.409 124.98L389.532 128.302L390.654 132.86L392.9 144.624L396.267 165.151L398.512 180.925L401.88 208.015L405.248 234.975L408.615 259.687L415.351 307.494L417.596 321.133L420.963 339.546L423.208 350.35L425.453 359.43L427.699 366.891L429.944 373.167L432.189 378.134L437.802 388.285L440.047 391.77L441.169 393.128L443.414 395.236L445.659 397.205L451.272 402.752L452.395 403.461L454.64 404.298L456.885 405.021L461.375 407.062L463.62 407.504L468.11 408.058L473.723 409.092L479.336 409.7L484.949 409.829L493.929 409.795L498.419 409.98L513.012 410.111" stroke="#EFEFEF" stroke-linecap="square"/>
</g>
<mask id="mask6_230_8878" style="mask-type:luminance" maskUnits="userSpaceOnUse" x="76" y="55" width="477" height="356">
<path d="M552.957 55.2959H76.7969V410.112H552.957V55.2959Z" fill="white"/>
</mask>
<g mask="url(#mask6_230_8878)">
<path d="M264.734 410.111L292.482 409.966L302.572 409.107L305.095 408.785L307.617 408.241L312.662 406.725L315.185 405.79L317.707 404.454L320.23 402.543L324.014 399.007L326.536 396.092L327.797 394.269L330.32 389.77L334.104 381.683L336.626 375.841L339.149 369.069L341.671 360.645L344.194 350.324L346.716 337.687L349.239 322.717L354.284 291.806L358.068 268.587L364.374 229.191L366.897 215.678L368.158 210.438L369.419 206.426L370.68 203.46L373.203 199.03L375.725 194.579L380.77 185.236L382.032 183.613L383.293 183.041L384.554 183.91L385.815 186.317L387.077 190.048L388.338 194.736L390.86 205.885L398.428 242.606L402.212 258.739L404.734 271.37L408.518 290.704L411.041 302.183L413.563 312.541L416.086 321.74L419.869 334.111L423.653 345.696L429.96 363.905L432.482 371.373L435.005 377.623L437.527 382.447L440.05 386.147L446.356 393.912L448.878 397.377L451.401 400.307L453.924 402.596L456.446 404.456L458.969 405.845L461.491 406.699L467.797 408.027L471.581 408.627L482.933 409.774L487.978 409.986L498.068 409.975L506.896 410.014L515.725 410.111" fill="#EFEFEF" fill-opacity="0.4"/>
<path d="M264.734 410.111L292.482 409.966L302.572 409.107L305.095 408.785L307.617 408.241L312.662 406.725L315.185 405.79L317.707 404.454L320.23 402.543L324.014 399.007L326.536 396.092L327.797 394.269L330.32 389.77L334.104 381.683L336.626 375.841L339.149 369.069L341.671 360.645L344.194 350.324L346.716 337.687L349.239 322.717L354.284 291.806L358.068 268.587L364.374 229.191L366.897 215.678L368.158 210.438L369.419 206.426L370.68 203.46L373.203 199.03L375.725 194.579L380.77 185.236L382.032 183.613L383.293 183.041L384.554 183.91L385.815 186.317L387.077 190.048L388.338 194.736L390.86 205.885L398.428 242.606L402.212 258.739L404.734 271.37L408.518 290.704L411.041 302.183L413.563 312.541L416.086 321.74L419.869 334.111L423.653 345.696L429.96 363.905L432.482 371.373L435.005 377.623L437.527 382.447L440.05 386.147L446.356 393.912L448.878 397.377L451.401 400.307L453.924 402.596L456.446 404.456L458.969 405.845L461.491 406.699L467.797 408.027L471.581 408.627L482.933 409.774L487.978 409.986L498.068 409.975L506.896 410.014L515.725 410.111" stroke="#EFEFEF" stroke-linecap="square"/>
</g>
<mask id="mask7_230_8878" style="mask-type:luminance" maskUnits="userSpaceOnUse" x="76" y="55" width="477" height="356">
<path d="M552.957 55.2959H76.7969V410.112H552.957V55.2959Z" fill="white"/>
</mask>
<g mask="url(#mask7_230_8878)">
<path d="M195.414 410.111L223.052 409.926L228.077 409.803L236.871 409.232L240.639 408.911L246.921 408.234L250.689 407.773L253.202 407.109L256.971 405.473L260.739 404.039L263.252 403.137L265.764 401.854L267.021 400.933L269.533 398.462L274.558 392.497L277.071 389.346L279.583 385.73L282.096 381.286L289.633 366.399L294.658 355.453L295.915 351.835L297.171 347.322L298.427 341.902L308.477 293.5L310.99 278.574L317.271 238.542L319.784 224.693L323.552 204.401L327.321 182.542L328.577 176.321L329.834 171.246L331.09 167.324L332.346 164.317L333.602 161.935L334.859 159.982L336.115 158.364L337.371 157.038L338.627 156.005L339.884 155.353L341.14 155.282L342.396 156.068L343.652 158.005L344.909 161.356L346.165 166.282L347.421 172.767L348.677 180.604L351.19 199.092L353.702 220.035L356.215 243.233L361.24 291.583L363.753 313.34L366.265 332.875L368.778 350.239L371.29 364.929L372.546 371.098L373.803 376.511L375.059 381.231L376.315 385.328L377.571 388.884L380.084 394.736L381.34 397.154L382.596 399.25L383.853 401.017L385.109 402.473L386.365 403.665L388.878 405.476L391.39 406.748L393.903 407.559L400.184 408.919L402.696 409.24L412.747 409.813L417.772 410.053L424.053 410.062L435.359 410.022L445.409 410.111" fill="#EFEFEF" fill-opacity="0.4"/>
<path d="M195.414 410.111L223.052 409.926L228.077 409.803L236.871 409.232L240.639 408.911L246.921 408.234L250.689 407.773L253.202 407.109L256.971 405.473L260.739 404.039L263.252 403.137L265.764 401.854L267.021 400.933L269.533 398.462L274.558 392.497L277.071 389.346L279.583 385.73L282.096 381.286L289.633 366.399L294.658 355.453L295.915 351.835L297.171 347.322L298.427 341.902L308.477 293.5L310.99 278.574L317.271 238.542L319.784 224.693L323.552 204.401L327.321 182.542L328.577 176.321L329.834 171.246L331.09 167.324L332.346 164.317L333.602 161.935L334.859 159.982L336.115 158.364L337.371 157.038L338.627 156.005L339.884 155.353L341.14 155.282L342.396 156.068L343.652 158.005L344.909 161.356L346.165 166.282L347.421 172.767L348.677 180.604L351.19 199.092L353.702 220.035L356.215 243.233L361.24 291.583L363.753 313.34L366.265 332.875L368.778 350.239L371.29 364.929L372.546 371.098L373.803 376.511L375.059 381.231L376.315 385.328L377.571 388.884L380.084 394.736L381.34 397.154L382.596 399.25L383.853 401.017L385.109 402.473L386.365 403.665L388.878 405.476L391.39 406.748L393.903 407.559L400.184 408.919L402.696 409.24L412.747 409.813L417.772 410.053L424.053 410.062L435.359 410.022L445.409 410.111" stroke="#EFEFEF" stroke-linecap="square"/>
</g>
<mask id="mask8_230_8878" style="mask-type:luminance" maskUnits="userSpaceOnUse" x="76" y="55" width="477" height="356">
<path d="M552.957 55.2959H76.7969V410.112H552.957V55.2959Z" fill="white"/>
</mask>
<g mask="url(#mask8_230_8878)">
<path d="M295.133 410.111L302.254 409.949L310.561 409.606L315.309 409.452L317.682 409.039L322.43 407.568L324.803 406.636L327.177 405.249L329.551 403.338L331.924 400.851L333.111 399.208L334.298 397.058L335.485 394.152L336.672 390.236L337.858 385.114L339.045 378.7L340.232 371.065L342.606 353.142L344.979 333.215L347.353 310.73L349.727 283.9L355.661 208.778L358.034 186.177L360.408 167.439L361.595 159.119L362.782 151.851L363.968 145.992L365.155 141.705L366.342 138.835L367.529 136.963L368.716 135.647L369.903 134.651L371.089 133.986L372.276 133.813L373.463 134.335L374.65 135.711L375.837 137.967L377.023 140.983L378.21 144.638L379.397 148.985L380.584 154.205L382.958 167.291L386.518 189.965L388.892 206.586L393.639 241.68L397.199 264.236L400.76 287.033L405.507 318.43L407.881 331.469L410.254 341.909L413.815 354.851L416.188 362.936L418.562 369.565L422.123 377.914L424.496 382.967L428.057 389.619L430.43 393.151L432.804 395.802L438.738 401.933L439.925 402.818L441.112 403.473L443.485 404.336L452.98 407.143L456.54 407.782L470.782 409.452L474.343 409.609L480.277 409.632L487.398 410.054L495.705 410.112L531.31 410.111" fill="#EFEFEF" fill-opacity="0.4"/>
<path d="M295.133 410.111L302.254 409.949L310.561 409.606L315.309 409.452L317.682 409.039L322.43 407.568L324.803 406.636L327.177 405.249L329.551 403.338L331.924 400.851L333.111 399.208L334.298 397.058L335.485 394.152L336.672 390.236L337.858 385.114L339.045 378.7L340.232 371.065L342.606 353.142L344.979 333.215L347.353 310.73L349.727 283.9L355.661 208.778L358.034 186.177L360.408 167.439L361.595 159.119L362.782 151.851L363.968 145.992L365.155 141.705L366.342 138.835L367.529 136.963L368.716 135.647L369.903 134.651L371.089 133.986L372.276 133.813L373.463 134.335L374.65 135.711L375.837 137.967L377.023 140.983L378.21 144.638L379.397 148.985L380.584 154.205L382.958 167.291L386.518 189.965L388.892 206.586L393.639 241.68L397.199 264.236L400.76 287.033L405.507 318.43L407.881 331.469L410.254 341.909L413.815 354.851L416.188 362.936L418.562 369.565L422.123 377.914L424.496 382.967L428.057 389.619L430.43 393.151L432.804 395.802L438.738 401.933L439.925 402.818L441.112 403.473L443.485 404.336L452.98 407.143L456.54 407.782L470.782 409.452L474.343 409.609L480.277 409.632L487.398 410.054L495.705 410.112L531.31 410.111" stroke="#EFEFEF" stroke-linecap="square"/>
</g>
<mask id="mask9_230_8878" style="mask-type:luminance" maskUnits="userSpaceOnUse" x="76" y="55" width="477" height="356">
<path d="M552.957 55.2959H76.7969V410.112H552.957V55.2959Z" fill="white"/>
</mask>
<g mask="url(#mask9_230_8878)">
<path d="M225.289 410.111L289.757 409.882L300.969 409.642L310.779 408.647L314.984 408.585L316.385 408.402L317.787 408.034L319.188 407.461L321.991 405.789L324.794 403.585L327.597 400.836L330.4 397.417L331.801 395.378L333.203 393.059L334.604 390.416L336.006 387.41L337.407 384.014L340.21 376.012L341.612 371.359L343.013 366.162L344.415 360.275L345.816 353.573L348.619 337.84L364.036 243.782L366.838 227.567L368.24 220.561L369.641 214.403L371.043 209.027L372.444 204.39L373.846 200.571L375.247 197.711L376.649 195.872L378.05 194.938L379.452 194.632L382.255 194.566L386.459 194.092L387.861 194.65L389.262 196.083L390.664 198.479L392.065 201.681L394.868 209.349L396.27 213.612L397.671 218.442L399.073 224.099L401.875 237.502L404.678 250.849L407.481 262.134L410.284 273.275L413.087 286.499L417.292 307.51L420.095 319.759L429.905 357.892L431.307 362.972L432.708 367.466L434.11 371.332L436.912 377.701L442.518 388.866L445.321 393.578L446.723 395.46L448.124 397.017L449.526 398.297L452.329 400.31L460.738 405.536L463.541 406.736L469.146 408.494L471.949 409.041L478.957 409.69L484.563 409.975L491.57 410.04L502.782 410.109L504.183 410.111" fill="#EFEFEF" fill-opacity="0.4"/>
<path d="M225.289 410.111L289.757 409.882L300.969 409.642L310.779 408.647L314.984 408.585L316.385 408.402L317.787 408.034L319.188 407.461L321.991 405.789L324.794 403.585L327.597 400.836L330.4 397.417L331.801 395.378L333.203 393.059L334.604 390.416L336.006 387.41L337.407 384.014L340.21 376.012L341.612 371.359L343.013 366.162L344.415 360.275L345.816 353.573L348.619 337.84L364.036 243.782L366.838 227.567L368.24 220.561L369.641 214.403L371.043 209.027L372.444 204.39L373.846 200.571L375.247 197.711L376.649 195.872L378.05 194.938L379.452 194.632L382.255 194.566L386.459 194.092L387.861 194.65L389.262 196.083L390.664 198.479L392.065 201.681L394.868 209.349L396.27 213.612L397.671 218.442L399.073 224.099L401.875 237.502L404.678 250.849L407.481 262.134L410.284 273.275L413.087 286.499L417.292 307.51L420.095 319.759L429.905 357.892L431.307 362.972L432.708 367.466L434.11 371.332L436.912 377.701L442.518 388.866L445.321 393.578L446.723 395.46L448.124 397.017L449.526 398.297L452.329 400.31L460.738 405.536L463.541 406.736L469.146 408.494L471.949 409.041L478.957 409.69L484.563 409.975L491.57 410.04L502.782 410.109L504.183 410.111" stroke="#EFEFEF" stroke-linecap="square"/>
</g>
<mask id="mask10_230_8878" style="mask-type:luminance" maskUnits="userSpaceOnUse" x="76" y="55" width="477" height="356">
<path d="M552.957 55.2959H76.7969V410.112H552.957V55.2959Z" fill="white"/>
</mask>
<g mask="url(#mask10_230_8878)">
<path d="M291.984 410.111L302.645 409.934L306.521 409.807L311.367 409.573L316.212 409.446L319.12 409.088L328.811 406.814L330.749 405.588L338.502 399.153L339.471 397.81L340.44 396.12L341.409 394.08L342.378 391.679L343.348 388.867L344.317 385.537L345.286 381.525L346.255 376.625L347.224 370.629L348.193 363.393L350.131 345.057L352.07 321.956L354.977 281.068L357.884 234.422L360.792 186.04L362.73 159.991L366.606 116.657L368.545 97.0575L369.514 89.5459L370.483 83.8047L371.452 79.4856L372.421 76.1748L373.39 73.7223L374.359 72.2989L375.328 72.1924L376.298 73.572L377.267 76.4217L378.236 80.6229L379.205 86.0086L381.143 99.2036L383.081 114.031L384.051 122.556L385.989 143.667L387.927 166.606L389.865 185.721L392.773 212.88L397.618 261.146L400.525 286.329L403.433 309.063L407.309 336.23L409.248 347.594L411.186 355.932L415.062 369.942L417.97 381.094L418.939 384.094L419.908 386.555L420.877 388.511L422.815 391.49L424.753 394.364L428.63 400.481L430.568 402.686L432.506 404.071L438.321 406.984L441.228 408.148L443.167 408.652L448.981 409.286L456.734 409.952L462.549 410.108L484.839 410.111" fill="#EFEFEF" fill-opacity="0.4"/>
<path d="M291.984 410.111L302.645 409.934L306.521 409.807L311.367 409.573L316.212 409.446L319.12 409.088L328.811 406.814L330.749 405.588L338.502 399.153L339.471 397.81L340.44 396.12L341.409 394.08L342.378 391.679L343.348 388.867L344.317 385.537L345.286 381.525L346.255 376.625L347.224 370.629L348.193 363.393L350.131 345.057L352.07 321.956L354.977 281.068L357.884 234.422L360.792 186.04L362.73 159.991L366.606 116.657L368.545 97.0575L369.514 89.5459L370.483 83.8047L371.452 79.4856L372.421 76.1748L373.39 73.7223L374.359 72.2989L375.328 72.1924L376.298 73.572L377.267 76.4217L378.236 80.6229L379.205 86.0086L381.143 99.2036L383.081 114.031L384.051 122.556L385.989 143.667L387.927 166.606L389.865 185.721L392.773 212.88L397.618 261.146L400.525 286.329L403.433 309.063L407.309 336.23L409.248 347.594L411.186 355.932L415.062 369.942L417.97 381.094L418.939 384.094L419.908 386.555L420.877 388.511L422.815 391.49L424.753 394.364L428.63 400.481L430.568 402.686L432.506 404.071L438.321 406.984L441.228 408.148L443.167 408.652L448.981 409.286L456.734 409.952L462.549 410.108L484.839 410.111" stroke="#EFEFEF" stroke-linecap="square"/>
</g>
<mask id="mask11_230_8878" style="mask-type:luminance" maskUnits="userSpaceOnUse" x="76" y="55" width="477" height="356">
<path d="M552.957 55.2959H76.7969V410.112H552.957V55.2959Z" fill="white"/>
</mask>
<g mask="url(#mask11_230_8878)">
<path d="M250.156 410.11L257.194 409.978L261.886 409.861L274.788 409.937L279.48 409.73L288.864 409.082L293.556 408.782L297.074 408.259L299.42 407.609L304.112 405.936L306.458 405.46L308.804 405.046L311.15 404.258L313.496 402.975L317.015 400.582L320.533 397.77L322.879 395.616L325.225 393.032L326.398 391.374L327.571 389.368L329.917 384.297L332.263 378.185L335.782 367.805L338.128 360.222L340.474 351.646L342.82 341.179L345.165 328.845L348.684 308.374L352.203 285.573L355.722 262.604L358.068 249.196L360.414 237.798L365.106 216.465L370.97 188.422L372.143 184.49L373.316 181.628L374.489 179.699L375.662 178.436L376.835 177.641L378.008 177.322L379.181 177.678L380.354 178.925L381.527 181.119L382.7 184.095L390.911 208.388L392.084 212.425L394.429 222.162L396.775 233.904L401.467 259.807L413.197 326.692L415.543 338.082L417.888 348.21L420.234 356.651L423.753 367.28L427.272 377.273L429.618 383.174L431.964 388.277L434.31 392.452L435.483 394.094L437.829 396.579L442.52 400.9L446.039 404.357L448.385 406.168L450.731 407.408L453.077 408.239L455.423 408.811L457.769 409.133L461.288 409.261L468.325 409.459L483.574 410.11" fill="#EFEFEF" fill-opacity="0.4"/>
<path d="M250.156 410.11L257.194 409.978L261.886 409.861L274.788 409.937L279.48 409.73L288.864 409.082L293.556 408.782L297.074 408.259L299.42 407.609L304.112 405.936L306.458 405.46L308.804 405.046L311.15 404.258L313.496 402.975L317.015 400.582L320.533 397.77L322.879 395.616L325.225 393.032L326.398 391.374L327.571 389.368L329.917 384.297L332.263 378.185L335.782 367.805L338.128 360.222L340.474 351.646L342.82 341.179L345.165 328.845L348.684 308.374L352.203 285.573L355.722 262.604L358.068 249.196L360.414 237.798L365.106 216.465L370.97 188.422L372.143 184.49L373.316 181.628L374.489 179.699L375.662 178.436L376.835 177.641L378.008 177.322L379.181 177.678L380.354 178.925L381.527 181.119L382.7 184.095L390.911 208.388L392.084 212.425L394.429 222.162L396.775 233.904L401.467 259.807L413.197 326.692L415.543 338.082L417.888 348.21L420.234 356.651L423.753 367.28L427.272 377.273L429.618 383.174L431.964 388.277L434.31 392.452L435.483 394.094L437.829 396.579L442.52 400.9L446.039 404.357L448.385 406.168L450.731 407.408L453.077 408.239L455.423 408.811L457.769 409.133L461.288 409.261L468.325 409.459L483.574 410.11" stroke="#EFEFEF" stroke-linecap="square"/>
</g>
<mask id="mask12_230_8878" style="mask-type:luminance" maskUnits="userSpaceOnUse" x="76" y="55" width="477" height="356">
<path d="M552.957 55.2959H76.7969V410.112H552.957V55.2959Z" fill="white"/>
</mask>
<g mask="url(#mask12_230_8878)">
<path d="M249.703 410.111L312.917 409.88L321.767 409.327L325.559 408.89L329.352 408.162L331.881 407.484L333.145 406.981L334.409 406.299L336.938 404.376L339.466 401.797L341.995 398.597L344.524 394.873L345.788 392.619L347.052 389.814L348.316 386.217L349.581 381.671L350.845 376.15L353.373 362.689L355.902 346.932L358.431 328.446L366.016 266.747L371.073 228.316L374.866 198.316L376.13 190.238L377.395 183.759L378.659 178.536L383.716 160.382L384.98 156.517L386.245 154.055L387.509 153.617L388.773 155.304L390.037 158.582L393.83 170.133L395.094 173.875L396.359 178.31L397.623 183.839L400.152 197.427L406.473 233.458L409.001 247.806L411.53 259.008L412.794 264.422L414.059 270.507L416.587 285.005L419.116 300.225L421.644 313.563L424.173 324.797L434.287 365.926L435.551 370.159L436.815 373.671L438.08 376.51L440.608 380.978L445.665 388.784L451.987 397.918L454.515 400.77L457.044 403.058L459.572 404.911L462.101 406.215L465.894 407.509L469.686 408.531L472.215 408.993L476.008 409.325L482.329 409.55L487.386 409.746L496.236 410.053L501.293 410.11" fill="#EFEFEF" fill-opacity="0.4"/>
<path d="M249.703 410.111L312.917 409.88L321.767 409.327L325.559 408.89L329.352 408.162L331.881 407.484L333.145 406.981L334.409 406.299L336.938 404.376L339.466 401.797L341.995 398.597L344.524 394.873L345.788 392.619L347.052 389.814L348.316 386.217L349.581 381.671L350.845 376.15L353.373 362.689L355.902 346.932L358.431 328.446L366.016 266.747L371.073 228.316L374.866 198.316L376.13 190.238L377.395 183.759L378.659 178.536L383.716 160.382L384.98 156.517L386.245 154.055L387.509 153.617L388.773 155.304L390.037 158.582L393.83 170.133L395.094 173.875L396.359 178.31L397.623 183.839L400.152 197.427L406.473 233.458L409.001 247.806L411.53 259.008L412.794 264.422L414.059 270.507L416.587 285.005L419.116 300.225L421.644 313.563L424.173 324.797L434.287 365.926L435.551 370.159L436.815 373.671L438.08 376.51L440.608 380.978L445.665 388.784L451.987 397.918L454.515 400.77L457.044 403.058L459.572 404.911L462.101 406.215L465.894 407.509L469.686 408.531L472.215 408.993L476.008 409.325L482.329 409.55L487.386 409.746L496.236 410.053L501.293 410.11" stroke="#EFEFEF" stroke-linecap="square"/>
</g>
<mask id="mask13_230_8878" style="mask-type:luminance" maskUnits="userSpaceOnUse" x="76" y="55" width="477" height="356">
<path d="M552.957 55.2959H76.7969V410.112H552.957V55.2959Z" fill="white"/>
</mask>
<g mask="url(#mask13_230_8878)">
<path d="M289.125 410.111L298.723 409.957L309.522 409.642L320.32 409.505L325.119 409.209L328.719 408.596L334.718 407.407L340.717 406.444L343.116 405.556L344.316 404.863L346.716 402.931L347.915 401.676L349.115 400.189L350.315 398.424L352.715 393.997L363.513 370.879L364.713 367.761L367.112 360.239L369.512 351.23L375.511 326.797L377.911 316.104L380.31 304.192L386.309 272.615L389.909 256.455L394.708 236.398L397.107 227.672L399.507 220.572L400.707 217.683L401.907 215.224L403.107 213.178L404.306 211.539L405.506 210.31L406.706 209.5L407.906 209.111L409.106 209.114L410.305 209.427L413.905 211.059L415.105 211.654L416.304 212.422L417.504 213.569L418.704 215.294L419.904 217.715L421.104 220.82L423.503 228.428L428.302 244.912L430.702 254.191L435.501 273.729L439.101 287.732L443.9 307.41L446.3 315.698L451.099 330.646L453.498 339.558L457.098 353.702L459.497 361.868L461.897 368.657L464.297 374.247L466.696 378.8L469.096 382.52L471.495 385.624L475.095 390.038L482.294 399.662L484.693 401.807L487.093 403.507L490.692 405.659L494.292 407.443L496.691 408.268L499.091 408.709L509.889 409.56L515.888 409.815L527.886 410.11" fill="#EFEFEF" fill-opacity="0.4"/>
<path d="M289.125 410.111L298.723 409.957L309.522 409.642L320.32 409.505L325.119 409.209L328.719 408.596L334.718 407.407L340.717 406.444L343.116 405.556L344.316 404.863L346.716 402.931L347.915 401.676L349.115 400.189L350.315 398.424L352.715 393.997L363.513 370.879L364.713 367.761L367.112 360.239L369.512 351.23L375.511 326.797L377.911 316.104L380.31 304.192L386.309 272.615L389.909 256.455L394.708 236.398L397.107 227.672L399.507 220.572L400.707 217.683L401.907 215.224L403.107 213.178L404.306 211.539L405.506 210.31L406.706 209.5L407.906 209.111L409.106 209.114L410.305 209.427L413.905 211.059L415.105 211.654L416.304 212.422L417.504 213.569L418.704 215.294L419.904 217.715L421.104 220.82L423.503 228.428L428.302 244.912L430.702 254.191L435.501 273.729L439.101 287.732L443.9 307.41L446.3 315.698L451.099 330.646L453.498 339.558L457.098 353.702L459.497 361.868L461.897 368.657L464.297 374.247L466.696 378.8L469.096 382.52L471.495 385.624L475.095 390.038L482.294 399.662L484.693 401.807L487.093 403.507L490.692 405.659L494.292 407.443L496.691 408.268L499.091 408.709L509.889 409.56L515.888 409.815L527.886 410.11" stroke="#EFEFEF" stroke-linecap="square"/>
</g>
<mask id="mask14_230_8878" style="mask-type:luminance" maskUnits="userSpaceOnUse" x="76" y="55" width="477" height="356">
<path d="M552.957 55.2959H76.7969V410.112H552.957V55.2959Z" fill="white"/>
</mask>
<g mask="url(#mask14_230_8878)">
<path d="M98.4375 410.111L152.412 409.996L157.319 409.643L160.59 409.068L162.225 408.602L163.861 407.976L165.497 407.164L167.132 406.137L168.768 404.866L170.403 403.317L172.039 401.445L173.675 399.198L175.31 396.523L176.946 393.374L178.581 389.718L180.217 385.542L181.853 380.857L185.124 370.108L188.395 357.791L191.666 344.03L201.48 299.848L204.751 287.595L208.022 277.206L211.293 268.409L214.564 261.078L217.836 255.071L222.742 247.141L226.013 242.33L227.649 240.474L229.285 239.225L230.92 238.686L232.556 238.874L234.191 239.743L235.827 241.218L237.463 243.232L239.098 245.725L240.734 248.636L244.005 255.374L248.912 266.568L252.183 274.956L255.454 284.807L263.632 311.432L266.903 320.396L270.174 328.123L275.081 339.172L281.624 354.501L283.259 357.734L284.895 360.542L286.53 362.963L289.801 367.045L301.251 380.069L304.522 382.852L307.793 385.064L311.064 386.932L314.335 388.477L319.242 390.641L327.42 394.83L330.691 395.975L335.598 397.141L353.589 400.836L356.861 401.332L360.132 402.177L365.039 404.095L368.31 405.294L371.581 406.165L379.759 407.706L386.301 408.793L392.844 409.547L397.75 409.865L404.293 409.961L423.92 410.111" fill="#7EB0D5" fill-opacity="0.4"/>
<path d="M98.4375 410.111L152.412 409.996L157.319 409.643L160.59 409.068L162.225 408.602L163.861 407.976L165.497 407.164L167.132 406.137L168.768 404.866L170.403 403.317L172.039 401.445L173.675 399.198L175.31 396.523L176.946 393.374L178.581 389.718L180.217 385.542L181.853 380.857L185.124 370.108L188.395 357.791L191.666 344.03L201.48 299.848L204.751 287.595L208.022 277.206L211.293 268.409L214.564 261.078L217.836 255.071L222.742 247.141L226.013 242.33L227.649 240.474L229.285 239.225L230.92 238.686L232.556 238.874L234.191 239.743L235.827 241.218L237.463 243.232L239.098 245.725L240.734 248.636L244.005 255.374L248.912 266.568L252.183 274.956L255.454 284.807L263.632 311.432L266.903 320.396L270.174 328.123L275.081 339.172L281.624 354.501L283.259 357.734L284.895 360.542L286.53 362.963L289.801 367.045L301.251 380.069L304.522 382.852L307.793 385.064L311.064 386.932L314.335 388.477L319.242 390.641L327.42 394.83L330.691 395.975L335.598 397.141L353.589 400.836L356.861 401.332L360.132 402.177L365.039 404.095L368.31 405.294L371.581 406.165L379.759 407.706L386.301 408.793L392.844 409.547L397.75 409.865L404.293 409.961L423.92 410.111" stroke="#7EB0D5" stroke-linecap="square"/>
</g>
<path d="M535.061 411.061C535.646 410.475 535.646 409.525 535.061 408.939L525.515 399.393C524.929 398.808 523.979 398.808 523.393 399.393C522.808 399.979 522.808 400.929 523.393 401.515L531.879 410L523.393 418.485C522.808 419.071 522.808 420.021 523.393 420.607C523.979 421.192 524.929 421.192 525.515 420.607L535.061 411.061ZM79 411.5H534V408.5H79V411.5Z" fill="black"/>
</g>
<defs>
<clipPath id="clip0_230_8878">
<rect width="614.4" height="460.8" fill="white"/>
</clipPath>
</defs>
</svg>
