<svg width="615" height="461" viewBox="0 0 615 461" fill="none" xmlns="http://www.w3.org/2000/svg">
<g clip-path="url(#clip0_230_10078)">
<mask id="mask0_230_10078" style="mask-type:luminance" maskUnits="userSpaceOnUse" x="76" y="55" width="477" height="356">
<path d="M552.957 55.2959H76.7969V410.112H552.957V55.2959Z" fill="white"/>
</mask>
<g mask="url(#mask0_230_10078)">
<path d="M279.055 410.111L314.754 409.923L319.514 409.856L327.844 410.002L331.413 409.877L343.313 408.635L346.883 408.046L351.643 406.982L354.023 406.14L356.403 404.869L359.973 402.872L365.923 400.363L370.683 397.563L371.873 396.627L373.063 395.458L375.442 392.481L380.202 385.917L384.962 380.12L386.152 378.09L387.342 375.524L389.722 368.972L393.292 357.325L396.862 344.434L399.242 334.681L401.622 323.729L405.192 305.613L408.762 286.074L413.522 259.803L421.851 217.923L426.611 196.821L428.991 187.481L431.371 178.876L432.561 175.049L433.751 171.949L434.941 169.866L436.131 168.871L437.321 168.788L438.511 169.321L439.701 170.206L440.891 171.302L442.081 172.608L443.271 174.269L444.461 176.554L445.651 179.783L446.841 184.193L448.031 189.821L450.411 203.931L452.791 220.447L455.171 239.513L458.741 272.46L462.31 304.564L465.88 333.255L468.26 350.068L470.64 364.552L473.02 376.533L475.4 386.337L476.59 390.46L477.78 394.02L478.97 397.004L480.16 399.456L481.35 401.452L482.54 403.075L483.73 404.389L484.92 405.44L487.3 406.935L489.68 407.962L493.25 409.149L495.63 409.672L498.01 409.956L501.58 410.069L515.859 410.111" fill="#EFEFEF" fill-opacity="0.4"/>
<path d="M279.055 410.111L314.754 409.923L319.514 409.856L327.844 410.002L331.413 409.877L343.313 408.635L346.883 408.046L351.643 406.982L354.023 406.14L356.403 404.869L359.973 402.872L365.923 400.363L370.683 397.563L371.873 396.627L373.063 395.458L375.442 392.481L380.202 385.917L384.962 380.12L386.152 378.09L387.342 375.524L389.722 368.972L393.292 357.325L396.862 344.434L399.242 334.681L401.622 323.729L405.192 305.613L408.762 286.074L413.522 259.803L421.851 217.923L426.611 196.821L428.991 187.481L431.371 178.876L432.561 175.049L433.751 171.949L434.941 169.866L436.131 168.871L437.321 168.788L438.511 169.321L439.701 170.206L440.891 171.302L442.081 172.608L443.271 174.269L444.461 176.554L445.651 179.783L446.841 184.193L448.031 189.821L450.411 203.931L452.791 220.447L455.171 239.513L458.741 272.46L462.31 304.564L465.88 333.255L468.26 350.068L470.64 364.552L473.02 376.533L475.4 386.337L476.59 390.46L477.78 394.02L478.97 397.004L480.16 399.456L481.35 401.452L482.54 403.075L483.73 404.389L484.92 405.44L487.3 406.935L489.68 407.962L493.25 409.149L495.63 409.672L498.01 409.956L501.58 410.069L515.859 410.111" stroke="#EFEFEF" stroke-linecap="square"/>
</g>
<mask id="mask1_230_10078" style="mask-type:luminance" maskUnits="userSpaceOnUse" x="76" y="55" width="477" height="356">
<path d="M552.957 55.2959H76.7969V410.112H552.957V55.2959Z" fill="white"/>
</mask>
<g mask="url(#mask1_230_10078)">
<path d="M270.586 410.111L332.165 409.904L340.026 409.646L343.956 409.117L349.197 408.355L354.438 407.634L357.058 406.941L359.678 405.829L364.919 402.931L367.54 401.273L370.16 399.137L372.78 396.36L375.401 392.934L378.021 388.957L381.952 382.209L385.882 374.707L388.502 368.818L389.813 365.328L392.433 357.107L404.225 316.065L408.155 300.925L412.086 284.142L414.706 273.568L416.016 269.316L417.327 265.801L421.257 256.22L423.877 247.964L426.498 239.487L427.808 235.902L429.118 232.853L431.739 227.787L435.669 221.171L438.289 217.542L439.6 216.183L440.91 215.297L442.22 214.995L443.53 215.301L444.84 216.12L446.151 217.292L448.771 220.255L450.081 222.082L451.391 224.284L452.701 226.993L454.012 230.328L455.322 234.4L456.632 239.275L459.252 251.153L465.803 283.162L469.734 303.051L474.975 330.226L477.595 342.375L482.836 364.751L485.456 374.621L488.076 382.603L490.697 388.847L493.317 393.766L495.938 397.632L498.558 400.687L501.178 403.127L503.799 405.099L506.419 406.68L509.039 407.9L511.66 408.761L514.28 409.284L518.211 409.675L526.072 410.073L531.313 410.111" fill="#EFEFEF" fill-opacity="0.4"/>
<path d="M270.586 410.111L332.165 409.904L340.026 409.646L343.956 409.117L349.197 408.355L354.438 407.634L357.058 406.941L359.678 405.829L364.919 402.931L367.54 401.273L370.16 399.137L372.78 396.36L375.401 392.934L378.021 388.957L381.952 382.209L385.882 374.707L388.502 368.818L389.813 365.328L392.433 357.107L404.225 316.065L408.155 300.925L412.086 284.142L414.706 273.568L416.016 269.316L417.327 265.801L421.257 256.22L423.877 247.964L426.498 239.487L427.808 235.902L429.118 232.853L431.739 227.787L435.669 221.171L438.289 217.542L439.6 216.183L440.91 215.297L442.22 214.995L443.53 215.301L444.84 216.12L446.151 217.292L448.771 220.255L450.081 222.082L451.391 224.284L452.701 226.993L454.012 230.328L455.322 234.4L456.632 239.275L459.252 251.153L465.803 283.162L469.734 303.051L474.975 330.226L477.595 342.375L482.836 364.751L485.456 374.621L488.076 382.603L490.697 388.847L493.317 393.766L495.938 397.632L498.558 400.687L501.178 403.127L503.799 405.099L506.419 406.68L509.039 407.9L511.66 408.761L514.28 409.284L518.211 409.675L526.072 410.073L531.313 410.111" stroke="#EFEFEF" stroke-linecap="square"/>
</g>
<mask id="mask2_230_10078" style="mask-type:luminance" maskUnits="userSpaceOnUse" x="76" y="55" width="477" height="356">
<path d="M552.957 55.2959H76.7969V410.112H552.957V55.2959Z" fill="white"/>
</mask>
<g mask="url(#mask2_230_10078)">
<path d="M221.484 410.111L262.267 409.959L267.21 409.788L274.625 409.837L278.333 409.385L284.512 408.446L286.983 408.351L290.691 408.358L293.163 408.066L295.634 407.313L303.049 404.061L306.757 402.811L309.228 401.382L312.936 398.569L315.407 396.423L317.879 393.649L320.351 389.989L322.822 385.669L325.294 380.867L326.53 378.028L327.766 374.655L330.237 366.288L333.945 353.213L336.417 344.722L338.888 334.627L341.36 322.887L343.832 309.183L350.011 271.837L353.718 250.579L357.426 226.831L363.605 184.791L364.841 177.958L366.077 172.465L367.312 168.52L368.548 166.039L369.784 164.635L371.02 163.8L372.256 163.183L373.491 162.743L374.727 162.728L375.963 163.519L377.199 165.445L378.435 168.64L379.671 173.011L382.142 184.241L384.614 197.378L387.086 212L390.793 235.995L395.736 270.068L399.444 295.226L406.859 341.089L409.331 354.314L411.802 364.792L414.274 373.881L416.746 381.911L417.981 385.234L420.453 390.528L424.161 396.99L426.632 400.789L429.104 403.883L431.576 406.238L432.811 407.132L434.047 407.805L435.283 408.25L437.755 408.629L441.462 409.013L445.17 409.474L452.585 409.883L464.943 410.105L467.415 410.111" fill="#EFEFEF" fill-opacity="0.4"/>
<path d="M221.484 410.111L262.267 409.959L267.21 409.788L274.625 409.837L278.333 409.385L284.512 408.446L286.983 408.351L290.691 408.358L293.163 408.066L295.634 407.313L303.049 404.061L306.757 402.811L309.228 401.382L312.936 398.569L315.407 396.423L317.879 393.649L320.351 389.989L322.822 385.669L325.294 380.867L326.53 378.028L327.766 374.655L330.237 366.288L333.945 353.213L336.417 344.722L338.888 334.627L341.36 322.887L343.832 309.183L350.011 271.837L353.718 250.579L357.426 226.831L363.605 184.791L364.841 177.958L366.077 172.465L367.312 168.52L368.548 166.039L369.784 164.635L371.02 163.8L372.256 163.183L373.491 162.743L374.727 162.728L375.963 163.519L377.199 165.445L378.435 168.64L379.671 173.011L382.142 184.241L384.614 197.378L387.086 212L390.793 235.995L395.736 270.068L399.444 295.226L406.859 341.089L409.331 354.314L411.802 364.792L414.274 373.881L416.746 381.911L417.981 385.234L420.453 390.528L424.161 396.99L426.632 400.789L429.104 403.883L431.576 406.238L432.811 407.132L434.047 407.805L435.283 408.25L437.755 408.629L441.462 409.013L445.17 409.474L452.585 409.883L464.943 410.105L467.415 410.111" stroke="#EFEFEF" stroke-linecap="square"/>
</g>
<mask id="mask3_230_10078" style="mask-type:luminance" maskUnits="userSpaceOnUse" x="76" y="55" width="477" height="356">
<path d="M552.957 55.2959H76.7969V410.112H552.957V55.2959Z" fill="white"/>
</mask>
<g mask="url(#mask3_230_10078)">
<path d="M240.711 410.111L290.542 409.931L296.205 409.494L303 409.325L306.398 408.684L310.928 407.636L313.193 406.596L315.458 405.555L316.59 405.315L318.855 405.418L319.988 405.535L321.12 405.496L322.253 405.167L323.386 404.478L325.651 402.279L327.916 400.088L330.181 398.126L331.313 396.744L332.446 394.913L334.711 390.384L336.976 385.446L338.108 382.604L340.373 375.612L342.638 366.931L344.904 356.355L347.169 344.007L349.434 330.486L351.699 315.053L353.964 295.906L356.229 271.882L359.626 232.266L361.891 209.839L364.157 188.018L368.687 139.182L369.819 130.642L370.952 124.69L372.084 120.678L373.217 117.677L374.349 115.113L375.482 113.098L376.614 112.29L377.747 113.375L378.879 116.522L381.144 126.368L383.409 135.632L385.675 144.446L386.807 150.071L387.94 156.89L390.205 173.76L392.47 195.157L397 244.322L399.265 262.903L402.662 288.042L406.06 313.605L409.458 336.345L411.723 349.984L413.988 360.884L416.253 369.253L421.915 387.238L423.048 390.099L424.18 392.424L425.313 394.301L427.578 397.276L432.108 402.693L433.241 403.725L435.506 405.226L438.903 406.981L441.168 407.926L443.433 408.603L446.831 409.249L450.229 409.533L464.952 410.108L466.084 410.111" fill="#EFEFEF" fill-opacity="0.4"/>
<path d="M240.711 410.111L290.542 409.931L296.205 409.494L303 409.325L306.398 408.684L310.928 407.636L313.193 406.596L315.458 405.555L316.59 405.315L318.855 405.418L319.988 405.535L321.12 405.496L322.253 405.167L323.386 404.478L325.651 402.279L327.916 400.088L330.181 398.126L331.313 396.744L332.446 394.913L334.711 390.384L336.976 385.446L338.108 382.604L340.373 375.612L342.638 366.931L344.904 356.355L347.169 344.007L349.434 330.486L351.699 315.053L353.964 295.906L356.229 271.882L359.626 232.266L361.891 209.839L364.157 188.018L368.687 139.182L369.819 130.642L370.952 124.69L372.084 120.678L373.217 117.677L374.349 115.113L375.482 113.098L376.614 112.29L377.747 113.375L378.879 116.522L381.144 126.368L383.409 135.632L385.675 144.446L386.807 150.071L387.94 156.89L390.205 173.76L392.47 195.157L397 244.322L399.265 262.903L402.662 288.042L406.06 313.605L409.458 336.345L411.723 349.984L413.988 360.884L416.253 369.253L421.915 387.238L423.048 390.099L424.18 392.424L425.313 394.301L427.578 397.276L432.108 402.693L433.241 403.725L435.506 405.226L438.903 406.981L441.168 407.926L443.433 408.603L446.831 409.249L450.229 409.533L464.952 410.108L466.084 410.111" stroke="#EFEFEF" stroke-linecap="square"/>
</g>
<mask id="mask4_230_10078" style="mask-type:luminance" maskUnits="userSpaceOnUse" x="76" y="55" width="477" height="356">
<path d="M552.957 55.2959H76.7969V410.112H552.957V55.2959Z" fill="white"/>
</mask>
<g mask="url(#mask4_230_10078)">
<path d="M158.219 410.111L212.108 409.909L229.195 408.621L231.823 408.289L237.081 407.879L241.024 407.051L246.281 405.798L248.91 404.721L251.539 402.956L258.111 397.634L260.739 395.007L263.368 391.547L265.997 387.445L268.626 382.729L271.254 377.248L273.883 371.244L275.197 367.914L276.512 364.173L277.826 359.913L280.455 350.002L287.027 323.417L289.655 311.347L292.284 297.896L294.913 283.118L298.856 259.029L305.428 218.713L309.371 196.017L312 182.369L314.628 171.18L315.943 166.592L317.257 162.867L318.571 160.307L319.886 159.197L321.2 159.637L322.515 161.466L323.829 164.33L325.143 167.851L326.458 171.832L327.772 176.342L329.086 181.642L330.401 187.994L331.715 195.509L334.344 213.694L342.23 274.882L350.116 331.523L352.745 346.66L355.374 359.264L358.002 369.77L360.631 378.286L361.946 381.897L363.26 385.032L364.574 387.632L365.889 389.706L367.203 391.352L369.832 393.859L375.089 397.819L380.347 402.108L382.975 404.213L385.604 405.972L388.233 407.242L390.862 408.029L397.433 409.42L400.062 409.71L404.005 409.78L409.263 409.801L417.149 410.101L419.778 410.111" fill="#EFEFEF" fill-opacity="0.4"/>
<path d="M158.219 410.111L212.108 409.909L229.195 408.621L231.823 408.289L237.081 407.879L241.024 407.051L246.281 405.798L248.91 404.721L251.539 402.956L258.111 397.634L260.739 395.007L263.368 391.547L265.997 387.445L268.626 382.729L271.254 377.248L273.883 371.244L275.197 367.914L276.512 364.173L277.826 359.913L280.455 350.002L287.027 323.417L289.655 311.347L292.284 297.896L294.913 283.118L298.856 259.029L305.428 218.713L309.371 196.017L312 182.369L314.628 171.18L315.943 166.592L317.257 162.867L318.571 160.307L319.886 159.197L321.2 159.637L322.515 161.466L323.829 164.33L325.143 167.851L326.458 171.832L327.772 176.342L329.086 181.642L330.401 187.994L331.715 195.509L334.344 213.694L342.23 274.882L350.116 331.523L352.745 346.66L355.374 359.264L358.002 369.77L360.631 378.286L361.946 381.897L363.26 385.032L364.574 387.632L365.889 389.706L367.203 391.352L369.832 393.859L375.089 397.819L380.347 402.108L382.975 404.213L385.604 405.972L388.233 407.242L390.862 408.029L397.433 409.42L400.062 409.71L404.005 409.78L409.263 409.801L417.149 410.101L419.778 410.111" stroke="#EFEFEF" stroke-linecap="square"/>
</g>
<mask id="mask5_230_10078" style="mask-type:luminance" maskUnits="userSpaceOnUse" x="76" y="55" width="477" height="356">
<path d="M552.957 55.2959H76.7969V410.112H552.957V55.2959Z" fill="white"/>
</mask>
<g mask="url(#mask5_230_10078)">
<path d="M264.766 410.111L286.732 409.938L294.055 409.333L295.885 409.001L297.716 408.999L302.292 409.553L304.123 409.338L306.869 408.679L310.53 407.582L315.106 406.708L316.937 405.494L319.683 403.428L325.174 400.048L327.92 398.081L328.835 397.261L329.751 396.216L331.581 393.446L335.242 387.053L336.158 385.125L337.073 382.807L337.988 379.982L339.819 372.911L341.649 365.543L343.48 359.524L346.226 351.032L347.141 347.519L348.056 343.286L348.971 338.123L350.802 324.838L354.463 292.753L358.124 259.107L359.955 239.634L362.701 205.41L364.531 183.165L367.277 153.843L371.854 106.98L372.769 99.0392L373.684 92.4494L374.599 87.3501L375.515 83.493L377.345 77.5038L378.261 74.8794L379.176 72.899L380.091 72.1924L381.006 73.2779L381.922 76.3934L382.837 81.5534L383.752 88.697L384.668 97.7499L386.498 120.717L390.159 170.584L395.651 236.673L399.312 283.942L401.143 303.9L402.973 320.978L406.634 351.129L408.465 364.148L410.295 374.14L412.126 381.472L413.956 387.43L415.787 392.642L417.618 396.971L419.448 400.382L421.279 402.974L423.109 404.733L424.94 405.814L431.347 408.514L434.093 409.289L436.839 409.73L440.5 409.976L446.907 410.111" fill="#EFEFEF" fill-opacity="0.4"/>
<path d="M264.766 410.111L286.732 409.938L294.055 409.333L295.885 409.001L297.716 408.999L302.292 409.553L304.123 409.338L306.869 408.679L310.53 407.582L315.106 406.708L316.937 405.494L319.683 403.428L325.174 400.048L327.92 398.081L328.835 397.261L329.751 396.216L331.581 393.446L335.242 387.053L336.158 385.125L337.073 382.807L337.988 379.982L339.819 372.911L341.649 365.543L343.48 359.524L346.226 351.032L347.141 347.519L348.056 343.286L348.971 338.123L350.802 324.838L354.463 292.753L358.124 259.107L359.955 239.634L362.701 205.41L364.531 183.165L367.277 153.843L371.854 106.98L372.769 99.0392L373.684 92.4494L374.599 87.3501L375.515 83.493L377.345 77.5038L378.261 74.8794L379.176 72.899L380.091 72.1924L381.006 73.2779L381.922 76.3934L382.837 81.5534L383.752 88.697L384.668 97.7499L386.498 120.717L390.159 170.584L395.651 236.673L399.312 283.942L401.143 303.9L402.973 320.978L406.634 351.129L408.465 364.148L410.295 374.14L412.126 381.472L413.956 387.43L415.787 392.642L417.618 396.971L419.448 400.382L421.279 402.974L423.109 404.733L424.94 405.814L431.347 408.514L434.093 409.289L436.839 409.73L440.5 409.976L446.907 410.111" stroke="#EFEFEF" stroke-linecap="square"/>
</g>
<mask id="mask6_230_10078" style="mask-type:luminance" maskUnits="userSpaceOnUse" x="76" y="55" width="477" height="356">
<path d="M552.957 55.2959H76.7969V410.112H552.957V55.2959Z" fill="white"/>
</mask>
<g mask="url(#mask6_230_10078)">
<path d="M275.492 410.111L321.535 409.875L325.372 409.406L332.087 408.405L334.964 408.187L337.842 407.569L339.761 406.734L341.679 405.297L345.516 402.124L346.475 401.034L347.434 399.587L348.394 397.754L350.312 392.993L352.231 386.799L354.149 379.451L356.067 371.338L357.986 361.691L359.904 349.372L361.823 334.671L363.741 318.394L366.619 290.785L369.497 263.424L372.374 235.558L374.293 214.196L379.089 157.861L381.967 132.494L384.844 106.572L385.804 99.2423L386.763 93.4492L387.722 89.4622L388.681 87.3655L389.64 87.0908L390.6 88.497L391.559 91.4224L392.518 95.6413L394.437 106.666L396.355 120.084L398.274 136.769L404.029 192.631L407.866 224.795L411.703 259.811L415.54 296.542L417.458 311.157L419.377 322.388L422.254 338.703L428.969 378.502L429.928 382.693L431.847 389.194L434.724 397.289L435.683 399.626L436.643 401.515L437.602 402.906L439.52 404.73L442.398 406.945L444.317 407.979L447.194 408.968L449.113 409.311L455.827 409.765L460.623 409.945L465.42 410.107L466.379 410.111" fill="#EFEFEF" fill-opacity="0.4"/>
<path d="M275.492 410.111L321.535 409.875L325.372 409.406L332.087 408.405L334.964 408.187L337.842 407.569L339.761 406.734L341.679 405.297L345.516 402.124L346.475 401.034L347.434 399.587L348.394 397.754L350.312 392.993L352.231 386.799L354.149 379.451L356.067 371.338L357.986 361.691L359.904 349.372L361.823 334.671L363.741 318.394L366.619 290.785L369.497 263.424L372.374 235.558L374.293 214.196L379.089 157.861L381.967 132.494L384.844 106.572L385.804 99.2423L386.763 93.4492L387.722 89.4622L388.681 87.3655L389.64 87.0908L390.6 88.497L391.559 91.4224L392.518 95.6413L394.437 106.666L396.355 120.084L398.274 136.769L404.029 192.631L407.866 224.795L411.703 259.811L415.54 296.542L417.458 311.157L419.377 322.388L422.254 338.703L428.969 378.502L429.928 382.693L431.847 389.194L434.724 397.289L435.683 399.626L436.643 401.515L437.602 402.906L439.52 404.73L442.398 406.945L444.317 407.979L447.194 408.968L449.113 409.311L455.827 409.765L460.623 409.945L465.42 410.107L466.379 410.111" stroke="#EFEFEF" stroke-linecap="square"/>
</g>
<mask id="mask7_230_10078" style="mask-type:luminance" maskUnits="userSpaceOnUse" x="76" y="55" width="477" height="356">
<path d="M552.957 55.2959H76.7969V410.112H552.957V55.2959Z" fill="white"/>
</mask>
<g mask="url(#mask7_230_10078)">
<path d="M216.727 410.111L246.168 409.901L251.425 409.562L258.785 409.405L267.197 408.183L269.3 407.452L272.454 406.187L274.557 405.837L276.66 405.719L277.711 405.497L279.814 404.567L285.072 401.606L287.175 399.875L289.278 397.552L292.432 393.648L294.535 390.504L296.638 386.941L298.741 382.701L299.792 379.919L300.844 376.478L302.947 367.728L309.255 337.838L311.358 324.43L313.461 307.892L316.616 279.615L321.873 231.003L323.976 212.073L327.13 180.186L331.336 136.211L332.388 127.406L333.439 120.369L334.491 114.922L335.542 110.761L336.593 107.784L337.645 106.105L338.696 105.815L339.748 106.827L340.799 108.978L341.851 112.232L342.902 116.705L343.954 122.491L345.005 129.526L347.108 146.665L352.365 195.771L356.571 226.659L358.674 246.615L361.829 277.418L363.931 295.389L366.034 311.433L368.137 325.681L372.343 351.287L374.446 362.622L376.549 371.528L378.652 378.307L382.858 389.877L384.961 395.141L387.064 399.301L388.115 400.872L390.218 403.257L392.321 405.071L394.424 406.54L396.527 407.613L398.63 408.178L404.939 409.099L408.093 409.429L412.299 409.567L416.505 409.683L422.813 410.087L425.968 410.111" fill="#EFEFEF" fill-opacity="0.4"/>
<path d="M216.727 410.111L246.168 409.901L251.425 409.562L258.785 409.405L267.197 408.183L269.3 407.452L272.454 406.187L274.557 405.837L276.66 405.719L277.711 405.497L279.814 404.567L285.072 401.606L287.175 399.875L289.278 397.552L292.432 393.648L294.535 390.504L296.638 386.941L298.741 382.701L299.792 379.919L300.844 376.478L302.947 367.728L309.255 337.838L311.358 324.43L313.461 307.892L316.616 279.615L321.873 231.003L323.976 212.073L327.13 180.186L331.336 136.211L332.388 127.406L333.439 120.369L334.491 114.922L335.542 110.761L336.593 107.784L337.645 106.105L338.696 105.815L339.748 106.827L340.799 108.978L341.851 112.232L342.902 116.705L343.954 122.491L345.005 129.526L347.108 146.665L352.365 195.771L356.571 226.659L358.674 246.615L361.829 277.418L363.931 295.389L366.034 311.433L368.137 325.681L372.343 351.287L374.446 362.622L376.549 371.528L378.652 378.307L382.858 389.877L384.961 395.141L387.064 399.301L388.115 400.872L390.218 403.257L392.321 405.071L394.424 406.54L396.527 407.613L398.63 408.178L404.939 409.099L408.093 409.429L412.299 409.567L416.505 409.683L422.813 410.087L425.968 410.111" stroke="#EFEFEF" stroke-linecap="square"/>
</g>
<mask id="mask8_230_10078" style="mask-type:luminance" maskUnits="userSpaceOnUse" x="76" y="55" width="477" height="356">
<path d="M552.957 55.2959H76.7969V410.112H552.957V55.2959Z" fill="white"/>
</mask>
<g mask="url(#mask8_230_10078)">
<path d="M252.914 410.111L305.245 409.895L320.706 408.983L326.653 409.259L329.032 408.995L332.6 408.2L336.168 407.161L338.546 406.134L339.736 405.414L342.114 403.431L345.682 399.591L350.44 394.421L351.629 392.77L352.818 390.696L354.008 388.145L356.386 382.001L359.954 371.999L362.333 364.386L364.712 354.894L368.28 337.906L370.658 325.838L373.037 311.575L377.794 279.756L380.173 267.416L382.552 255.539L384.93 241.833L389.688 211.338L392.066 198.649L394.445 187.019L395.634 181.711L396.824 177.088L398.013 173.428L399.202 170.908L400.392 169.511L401.581 169.01L402.77 169.086L403.96 169.509L405.149 170.216L406.338 171.237L407.528 172.576L408.717 174.198L409.906 176.109L411.096 178.43L412.285 181.387L413.474 185.244L414.664 190.197L415.853 196.277L418.232 210.911L421.8 235.102L425.368 261.816L427.747 279.211L430.125 294.561L433.693 314.983L439.64 347.723L442.019 359.881L444.397 370.352L446.776 378.457L449.155 384.908L450.344 387.631L451.533 389.973L453.912 393.64L457.48 397.979L461.048 401.847L463.427 404.025L465.805 405.742L468.184 406.952L471.752 408.205L474.131 408.847L476.509 409.256L483.645 409.974L488.403 410.107L489.592 410.111" fill="#EFEFEF" fill-opacity="0.4"/>
<path d="M252.914 410.111L305.245 409.895L320.706 408.983L326.653 409.259L329.032 408.995L332.6 408.2L336.168 407.161L338.546 406.134L339.736 405.414L342.114 403.431L345.682 399.591L350.44 394.421L351.629 392.77L352.818 390.696L354.008 388.145L356.386 382.001L359.954 371.999L362.333 364.386L364.712 354.894L368.28 337.906L370.658 325.838L373.037 311.575L377.794 279.756L380.173 267.416L382.552 255.539L384.93 241.833L389.688 211.338L392.066 198.649L394.445 187.019L395.634 181.711L396.824 177.088L398.013 173.428L399.202 170.908L400.392 169.511L401.581 169.01L402.77 169.086L403.96 169.509L405.149 170.216L406.338 171.237L407.528 172.576L408.717 174.198L409.906 176.109L411.096 178.43L412.285 181.387L413.474 185.244L414.664 190.197L415.853 196.277L418.232 210.911L421.8 235.102L425.368 261.816L427.747 279.211L430.125 294.561L433.693 314.983L439.64 347.723L442.019 359.881L444.397 370.352L446.776 378.457L449.155 384.908L450.344 387.631L451.533 389.973L453.912 393.64L457.48 397.979L461.048 401.847L463.427 404.025L465.805 405.742L468.184 406.952L471.752 408.205L474.131 408.847L476.509 409.256L483.645 409.974L488.403 410.107L489.592 410.111" stroke="#EFEFEF" stroke-linecap="square"/>
</g>
<mask id="mask9_230_10078" style="mask-type:luminance" maskUnits="userSpaceOnUse" x="76" y="55" width="477" height="356">
<path d="M552.957 55.2959H76.7969V410.112H552.957V55.2959Z" fill="white"/>
</mask>
<g mask="url(#mask9_230_10078)">
<path d="M251.469 410.11L268.082 410.008L281.373 408.824L284.696 408.3L286.911 408.503L290.234 409.155L292.449 409.162L294.664 408.734L299.095 407.518L301.31 406.603L304.633 404.665L309.063 401.522L311.278 399.59L313.493 396.905L315.708 393.471L319.031 388.08L321.246 384.831L322.354 382.807L323.461 380.146L324.569 376.691L325.677 372.41L327.892 361.606L334.537 324.954L336.752 313.798L337.86 307.368L338.967 299.71L341.183 280.492L344.505 246.607L347.828 211.796L352.258 168.21L355.581 133.469L357.796 114.495L358.904 106.645L360.011 99.8938L361.119 94.4911L362.227 90.9053L363.334 89.6064L364.442 90.7788L365.549 94.1646L366.657 99.1366L368.872 111.26L369.98 118.068L371.087 125.858L372.195 135.05L374.41 157.862L376.625 185.294L378.84 213.195L381.055 236.585L389.916 316.508L392.131 331.923L394.346 344.747L397.669 361.062L399.884 371.337L402.099 379.765L404.315 386.476L406.53 392.277L408.745 396.751L410.96 400.309L413.175 403.381L414.283 404.569L415.39 405.468L417.606 406.621L423.143 408.601L425.359 409.191L428.681 409.736L432.004 410.031L436.434 410.019L441.972 410.084L454.156 410.111L471.877 410.11" fill="#EFEFEF" fill-opacity="0.4"/>
<path d="M251.469 410.11L268.082 410.008L281.373 408.824L284.696 408.3L286.911 408.503L290.234 409.155L292.449 409.162L294.664 408.734L299.095 407.518L301.31 406.603L304.633 404.665L309.063 401.522L311.278 399.59L313.493 396.905L315.708 393.471L319.031 388.08L321.246 384.831L322.354 382.807L323.461 380.146L324.569 376.691L325.677 372.41L327.892 361.606L334.537 324.954L336.752 313.798L337.86 307.368L338.967 299.71L341.183 280.492L344.505 246.607L347.828 211.796L352.258 168.21L355.581 133.469L357.796 114.495L358.904 106.645L360.011 99.8938L361.119 94.4911L362.227 90.9053L363.334 89.6064L364.442 90.7788L365.549 94.1646L366.657 99.1366L368.872 111.26L369.98 118.068L371.087 125.858L372.195 135.05L374.41 157.862L376.625 185.294L378.84 213.195L381.055 236.585L389.916 316.508L392.131 331.923L394.346 344.747L397.669 361.062L399.884 371.337L402.099 379.765L404.315 386.476L406.53 392.277L408.745 396.751L410.96 400.309L413.175 403.381L414.283 404.569L415.39 405.468L417.606 406.621L423.143 408.601L425.359 409.191L428.681 409.736L432.004 410.031L436.434 410.019L441.972 410.084L454.156 410.111L471.877 410.11" stroke="#EFEFEF" stroke-linecap="square"/>
</g>
<mask id="mask10_230_10078" style="mask-type:luminance" maskUnits="userSpaceOnUse" x="76" y="55" width="477" height="356">
<path d="M552.957 55.2959H76.7969V410.112H552.957V55.2959Z" fill="white"/>
</mask>
<g mask="url(#mask10_230_10078)">
<path d="M230.594 410.111L266.437 409.91L271.557 409.474L277.702 408.631L283.847 408.914L285.895 408.439L297.16 404.889L301.256 402.897L302.28 402.657L305.352 402.31L306.377 401.722L307.401 400.646L308.425 399.094L310.473 395.113L313.545 388.537L315.593 383.32L317.642 376.813L319.69 369.013L322.762 355.403L327.882 331.551L328.907 325.791L329.931 318.987L330.955 310.894L333.003 290.956L336.075 256.141L339.148 218.203L342.22 179.485L344.268 158.545L348.364 119.583L350.412 100.634L351.437 93.4748L352.461 88.7214L353.485 86.5566L354.509 86.7017L355.533 88.5217L356.557 91.3013L357.581 94.6175L358.605 98.575L359.629 103.673L360.653 110.379L361.678 118.787L363.726 139.605L366.798 176.461L369.87 213.498L371.918 234.065L372.943 242.035L374.991 254.482L377.039 267.125L379.087 283.491L383.183 320.436L384.208 327.959L385.232 334.24L387.28 343.847L391.376 360.576L395.473 379.817L396.497 383.616L397.521 386.685L398.545 389.111L400.593 392.679L404.689 398.797L406.738 401.906L408.786 404.214L410.834 405.819L412.882 406.854L415.954 407.665L420.051 408.717L428.244 409.943L432.34 410.101L434.388 410.111" fill="#EFEFEF" fill-opacity="0.4"/>
<path d="M230.594 410.111L266.437 409.91L271.557 409.474L277.702 408.631L283.847 408.914L285.895 408.439L297.16 404.889L301.256 402.897L302.28 402.657L305.352 402.31L306.377 401.722L307.401 400.646L308.425 399.094L310.473 395.113L313.545 388.537L315.593 383.32L317.642 376.813L319.69 369.013L322.762 355.403L327.882 331.551L328.907 325.791L329.931 318.987L330.955 310.894L333.003 290.956L336.075 256.141L339.148 218.203L342.22 179.485L344.268 158.545L348.364 119.583L350.412 100.634L351.437 93.4748L352.461 88.7214L353.485 86.5566L354.509 86.7017L355.533 88.5217L356.557 91.3013L357.581 94.6175L358.605 98.575L359.629 103.673L360.653 110.379L361.678 118.787L363.726 139.605L366.798 176.461L369.87 213.498L371.918 234.065L372.943 242.035L374.991 254.482L377.039 267.125L379.087 283.491L383.183 320.436L384.208 327.959L385.232 334.24L387.28 343.847L391.376 360.576L395.473 379.817L396.497 383.616L397.521 386.685L398.545 389.111L400.593 392.679L404.689 398.797L406.738 401.906L408.786 404.214L410.834 405.819L412.882 406.854L415.954 407.665L420.051 408.717L428.244 409.943L432.34 410.101L434.388 410.111" stroke="#EFEFEF" stroke-linecap="square"/>
</g>
<mask id="mask11_230_10078" style="mask-type:luminance" maskUnits="userSpaceOnUse" x="76" y="55" width="477" height="356">
<path d="M552.957 55.2959H76.7969V410.112H552.957V55.2959Z" fill="white"/>
</mask>
<g mask="url(#mask11_230_10078)">
<path d="M227.93 410.111L263.231 409.9L275.758 409.651L281.451 409.171L292.839 407.302L297.394 405.457L300.81 403.883L303.088 402.519L305.365 400.781L308.782 398.108L312.198 395.701L313.337 394.725L314.475 393.534L315.614 392.076L317.892 388.509L321.308 382.903L322.447 380.713L323.585 377.999L324.724 374.652L327.002 366.408L330.418 353.233L332.696 344.838L333.834 340.017L334.973 334.343L337.251 320.769L339.528 306.949L342.944 286.967L344.083 278.876L346.361 259.547L350.916 215.136L353.193 194.259L355.471 177.067L357.748 162.622L361.165 143.031L363.442 132.166L364.581 128.074L365.72 125.219L366.858 123.707L367.997 123.496L369.136 124.51L370.275 126.752L371.413 130.307L372.552 135.224L373.691 141.397L375.968 156.699L378.246 175.318L380.523 196.893L382.801 221.016L387.356 272.87L389.634 294.386L391.911 312.299L394.189 327.885L396.466 340.804L401.021 362.995L403.299 372.815L404.437 376.851L406.715 383.47L410.131 392.258L411.27 394.819L412.409 396.986L413.548 398.751L415.825 401.494L418.103 403.78L420.38 405.582L422.658 406.913L424.935 407.976L427.213 408.733L429.49 409.124L435.184 409.576L442.016 409.803L447.71 409.972L453.404 410.108L454.543 410.111" fill="#EFEFEF" fill-opacity="0.4"/>
<path d="M227.93 410.111L263.231 409.9L275.758 409.651L281.451 409.171L292.839 407.302L297.394 405.457L300.81 403.883L303.088 402.519L305.365 400.781L308.782 398.108L312.198 395.701L313.337 394.725L314.475 393.534L315.614 392.076L317.892 388.509L321.308 382.903L322.447 380.713L323.585 377.999L324.724 374.652L327.002 366.408L330.418 353.233L332.696 344.838L333.834 340.017L334.973 334.343L337.251 320.769L339.528 306.949L342.944 286.967L344.083 278.876L346.361 259.547L350.916 215.136L353.193 194.259L355.471 177.067L357.748 162.622L361.165 143.031L363.442 132.166L364.581 128.074L365.72 125.219L366.858 123.707L367.997 123.496L369.136 124.51L370.275 126.752L371.413 130.307L372.552 135.224L373.691 141.397L375.968 156.699L378.246 175.318L380.523 196.893L382.801 221.016L387.356 272.87L389.634 294.386L391.911 312.299L394.189 327.885L396.466 340.804L401.021 362.995L403.299 372.815L404.437 376.851L406.715 383.47L410.131 392.258L411.27 394.819L412.409 396.986L413.548 398.751L415.825 401.494L418.103 403.78L420.38 405.582L422.658 406.913L424.935 407.976L427.213 408.733L429.49 409.124L435.184 409.576L442.016 409.803L447.71 409.972L453.404 410.108L454.543 410.111" stroke="#EFEFEF" stroke-linecap="square"/>
</g>
<mask id="mask12_230_10078" style="mask-type:luminance" maskUnits="userSpaceOnUse" x="76" y="55" width="477" height="356">
<path d="M552.957 55.2959H76.7969V410.112H552.957V55.2959Z" fill="white"/>
</mask>
<g mask="url(#mask12_230_10078)">
<path d="M313.266 410.11L319.101 409.987L325.909 409.62L328.827 409.748L330.772 409.587L335.635 408.855L339.526 408.751L341.471 408.357L349.252 405.769L351.197 404.824L354.115 402.997L361.896 397.611L363.841 395.463L366.759 391.399L368.704 388.384L371.622 383.142L374.54 377.746L376.485 373.316L377.457 370.494L379.403 363.389L382.32 350.458L385.238 336.761L387.183 326.224L389.129 313.67L391.074 298.838L394.964 265.328L403.718 189.765L405.663 176.157L407.608 164.502L408.581 159.886L409.553 156.141L411.498 150.302L413.444 145.537L414.416 143.955L415.389 143.351L416.361 143.856L417.334 145.291L419.279 149.12L420.252 150.625L423.17 153.751L424.142 155.849L425.115 159.27L426.087 164.197L427.06 170.527L429.978 193.791L432.896 215.691L435.813 237.631L439.704 271.16L442.622 295.355L445.539 317.102L448.457 336.313L450.403 347.353L453.32 361.855L455.266 370.24L457.211 377.269L459.156 383.033L461.101 387.989L463.046 392.387L464.992 396.215L467.909 401.14L469.855 403.796L471.8 405.634L473.745 406.856L476.663 408.266L478.608 408.925L481.526 409.542L484.444 409.931L488.334 410.099L495.142 409.998L499.033 409.933L506.813 410.11" fill="#EFEFEF" fill-opacity="0.4"/>
<path d="M313.266 410.11L319.101 409.987L325.909 409.62L328.827 409.748L330.772 409.587L335.635 408.855L339.526 408.751L341.471 408.357L349.252 405.769L351.197 404.824L354.115 402.997L361.896 397.611L363.841 395.463L366.759 391.399L368.704 388.384L371.622 383.142L374.54 377.746L376.485 373.316L377.457 370.494L379.403 363.389L382.32 350.458L385.238 336.761L387.183 326.224L389.129 313.67L391.074 298.838L394.964 265.328L403.718 189.765L405.663 176.157L407.608 164.502L408.581 159.886L409.553 156.141L411.498 150.302L413.444 145.537L414.416 143.955L415.389 143.351L416.361 143.856L417.334 145.291L419.279 149.12L420.252 150.625L423.17 153.751L424.142 155.849L425.115 159.27L426.087 164.197L427.06 170.527L429.978 193.791L432.896 215.691L435.813 237.631L439.704 271.16L442.622 295.355L445.539 317.102L448.457 336.313L450.403 347.353L453.32 361.855L455.266 370.24L457.211 377.269L459.156 383.033L461.101 387.989L463.046 392.387L464.992 396.215L467.909 401.14L469.855 403.796L471.8 405.634L473.745 406.856L476.663 408.266L478.608 408.925L481.526 409.542L484.444 409.931L488.334 410.099L495.142 409.998L499.033 409.933L506.813 410.11" stroke="#EFEFEF" stroke-linecap="square"/>
</g>
<mask id="mask13_230_10078" style="mask-type:luminance" maskUnits="userSpaceOnUse" x="76" y="55" width="477" height="356">
<path d="M552.957 55.2959H76.7969V410.112H552.957V55.2959Z" fill="white"/>
</mask>
<g mask="url(#mask13_230_10078)">
<path d="M209.078 410.111L293.212 409.896L301.768 409.302L310.324 409.412L313.176 408.921L321.732 406.641L323.158 405.993L326.01 404.043L328.862 402.044L331.714 400.144L333.14 398.899L334.566 397.325L335.992 395.419L338.844 390.815L341.696 385.327L344.548 378.943L347.4 371.88L350.252 364.09L351.678 359.494L353.104 353.941L354.53 347.121L357.382 330.233L363.086 293.545L364.512 282.444L368.79 245.309L370.216 234.481L373.068 216.056L377.346 191.945L380.198 176.062L381.624 169.371L383.05 165.107L384.476 163.946L385.902 165.417L387.328 168.025L388.754 170.122L390.18 170.966L391.606 171.115L393.032 171.892L394.458 174.445L395.884 179.159L397.31 185.664L400.162 201.321L408.718 251.862L411.57 269.645L417.275 307.648L420.127 323.75L424.405 345.858L425.831 352.333L427.257 357.971L428.683 362.714L430.109 366.666L437.239 383.679L438.665 386.665L440.091 388.961L441.517 390.599L447.221 395.71L451.499 400.074L454.351 402.442L457.203 404.396L460.055 406.125L461.481 406.821L464.333 407.686L472.889 409.381L487.149 410.054L492.853 410.111" fill="#EFEFEF" fill-opacity="0.4"/>
<path d="M209.078 410.111L293.212 409.896L301.768 409.302L310.324 409.412L313.176 408.921L321.732 406.641L323.158 405.993L326.01 404.043L328.862 402.044L331.714 400.144L333.14 398.899L334.566 397.325L335.992 395.419L338.844 390.815L341.696 385.327L344.548 378.943L347.4 371.88L350.252 364.09L351.678 359.494L353.104 353.941L354.53 347.121L357.382 330.233L363.086 293.545L364.512 282.444L368.79 245.309L370.216 234.481L373.068 216.056L377.346 191.945L380.198 176.062L381.624 169.371L383.05 165.107L384.476 163.946L385.902 165.417L387.328 168.025L388.754 170.122L390.18 170.966L391.606 171.115L393.032 171.892L394.458 174.445L395.884 179.159L397.31 185.664L400.162 201.321L408.718 251.862L411.57 269.645L417.275 307.648L420.127 323.75L424.405 345.858L425.831 352.333L427.257 357.971L428.683 362.714L430.109 366.666L437.239 383.679L438.665 386.665L440.091 388.961L441.517 390.599L447.221 395.71L451.499 400.074L454.351 402.442L457.203 404.396L460.055 406.125L461.481 406.821L464.333 407.686L472.889 409.381L487.149 410.054L492.853 410.111" stroke="#EFEFEF" stroke-linecap="square"/>
</g>
<mask id="mask14_230_10078" style="mask-type:luminance" maskUnits="userSpaceOnUse" x="76" y="55" width="477" height="356">
<path d="M552.957 55.2959H76.7969V410.112H552.957V55.2959Z" fill="white"/>
</mask>
<g mask="url(#mask14_230_10078)">
<path d="M98.4375 410.111L134.061 410.01L137.3 409.813L140.538 409.372L143.777 408.541L145.396 407.93L147.015 407.156L148.635 406.189L150.254 404.991L151.873 403.517L153.492 401.717L155.112 399.541L156.731 396.938L158.35 393.868L159.969 390.298L161.589 386.215L163.208 381.623L166.446 371.041L169.685 358.958L179.401 320.523L182.639 309.043L185.878 298.611L189.116 289.32L192.355 281.272L195.593 274.504L197.212 271.611L198.832 269.062L200.451 266.875L202.07 265.06L203.689 263.617L205.309 262.525L206.928 261.752L208.547 261.265L210.167 261.041L211.786 261.081L213.405 261.406L215.024 262.049L216.644 263.033L218.263 264.361L219.882 266.006L223.121 270.045L226.359 274.812L229.598 280.303L232.836 286.711L237.694 297.658L242.552 308.43L245.79 314.917L250.648 323.783L255.506 331.891L270.079 354.909L273.318 359.184L276.556 362.721L281.414 367.196L286.272 371.836L295.987 381.724L299.226 384.324L302.464 386.351L318.657 394.861L321.896 395.896L326.753 396.84L331.611 397.84L341.327 400.346L349.423 402.499L352.662 403.066L357.519 403.496L363.996 404.058L373.712 405.294L380.189 406.428L393.143 409.143L398.001 409.576L407.716 409.971L417.432 410.106L420.671 410.111" fill="#7EB0D5" fill-opacity="0.4"/>
<path d="M98.4375 410.111L134.061 410.01L137.3 409.813L140.538 409.372L143.777 408.541L145.396 407.93L147.015 407.156L148.635 406.189L150.254 404.991L151.873 403.517L153.492 401.717L155.112 399.541L156.731 396.938L158.35 393.868L159.969 390.298L161.589 386.215L163.208 381.623L166.446 371.041L169.685 358.958L179.401 320.523L182.639 309.043L185.878 298.611L189.116 289.32L192.355 281.272L195.593 274.504L197.212 271.611L198.832 269.062L200.451 266.875L202.07 265.06L203.689 263.617L205.309 262.525L206.928 261.752L208.547 261.265L210.167 261.041L211.786 261.081L213.405 261.406L215.024 262.049L216.644 263.033L218.263 264.361L219.882 266.006L223.121 270.045L226.359 274.812L229.598 280.303L232.836 286.711L237.694 297.658L242.552 308.43L245.79 314.917L250.648 323.783L255.506 331.891L270.079 354.909L273.318 359.184L276.556 362.721L281.414 367.196L286.272 371.836L295.987 381.724L299.226 384.324L302.464 386.351L318.657 394.861L321.896 395.896L326.753 396.84L331.611 397.84L341.327 400.346L349.423 402.499L352.662 403.066L357.519 403.496L363.996 404.058L373.712 405.294L380.189 406.428L393.143 409.143L398.001 409.576L407.716 409.971L417.432 410.106L420.671 410.111" stroke="#7EB0D5" stroke-linecap="square"/>
</g>
<path d="M535.061 411.061C535.646 410.475 535.646 409.525 535.061 408.939L525.515 399.393C524.929 398.808 523.979 398.808 523.393 399.393C522.808 399.979 522.808 400.929 523.393 401.515L531.879 410L523.393 418.485C522.808 419.071 522.808 420.021 523.393 420.607C523.979 421.192 524.929 421.192 525.515 420.607L535.061 411.061ZM79 411.5H534V408.5H79V411.5Z" fill="black"/>
</g>
<defs>
<clipPath id="clip0_230_10078">
<rect width="614.4" height="460.8" fill="white"/>
</clipPath>
</defs>
</svg>
