<svg width="615" height="461" viewBox="0 0 615 461" fill="none" xmlns="http://www.w3.org/2000/svg">
<g clip-path="url(#clip0_230_9838)">
<mask id="mask0_230_9838" style="mask-type:luminance" maskUnits="userSpaceOnUse" x="76" y="55" width="477" height="356">
<path d="M552.957 55.2959H76.7969V410.112H552.957V55.2959Z" fill="white"/>
</mask>
<g mask="url(#mask0_230_9838)">
<path d="M297.711 410.111L309.498 409.929L312.445 409.773L318.338 409.946L323.25 409.757L328.161 409.544L329.143 409.595L333.072 409.02L335.037 408.669L337.001 408.623L337.983 408.389L339.948 407.447L341.912 406.5L343.877 405.678L346.824 403.903L347.806 403.116L348.788 401.918L350.753 398.882L352.717 394.498L354.682 389.763L355.664 386.498L356.646 382.371L357.628 377.588L358.611 372.002L359.593 365.189L361.557 348.093L362.54 339.079L363.522 328.569L364.504 315.12L366.469 281.664L368.433 241.961L370.398 197.044L373.344 127.474L375.309 91.584L376.291 79.0907L377.273 72.7946L378.256 72.1924L379.238 76.0962L380.22 84.0782L381.202 95.6135L382.185 110.07L383.167 127.297L385.131 170.018L388.078 244.55L390.043 284.301L392.007 320.159L393.972 347.913L394.954 359.772L395.936 369.333L396.919 376.038L399.865 390.65L400.847 394.76L401.83 398.001L402.812 400.329L403.794 401.988L406.741 405.79L407.723 406.847L408.706 407.565L409.688 407.868L411.652 408.071L419.51 409.526L421.475 409.48L425.404 409.189L429.333 409.74L431.297 409.799L433.262 409.62L435.226 409.86L437.191 410.017L441.12 409.899L443.084 409.662L445.049 409.831L447.013 409.904L449.96 409.847L453.889 410.004L493.179 410.111" fill="#EFEFEF" fill-opacity="0.4"/>
<path d="M297.711 410.111L309.498 409.929L312.445 409.773L318.338 409.946L323.25 409.757L328.161 409.544L329.143 409.595L333.072 409.02L335.037 408.669L337.001 408.623L337.983 408.389L339.948 407.447L341.912 406.5L343.877 405.678L346.824 403.903L347.806 403.116L348.788 401.918L350.753 398.882L352.717 394.498L354.682 389.763L355.664 386.498L356.646 382.371L357.628 377.588L358.611 372.002L359.593 365.189L361.557 348.093L362.54 339.079L363.522 328.569L364.504 315.12L366.469 281.664L368.433 241.961L370.398 197.044L373.344 127.474L375.309 91.584L376.291 79.0907L377.273 72.7946L378.256 72.1924L379.238 76.0962L380.22 84.0782L381.202 95.6135L382.185 110.07L383.167 127.297L385.131 170.018L388.078 244.55L390.043 284.301L392.007 320.159L393.972 347.913L394.954 359.772L395.936 369.333L396.919 376.038L399.865 390.65L400.847 394.76L401.83 398.001L402.812 400.329L403.794 401.988L406.741 405.79L407.723 406.847L408.706 407.565L409.688 407.868L411.652 408.071L419.51 409.526L421.475 409.48L425.404 409.189L429.333 409.74L431.297 409.799L433.262 409.62L435.226 409.86L437.191 410.017L441.12 409.899L443.084 409.662L445.049 409.831L447.013 409.904L449.96 409.847L453.889 410.004L493.179 410.111" stroke="#EFEFEF" stroke-linecap="square"/>
</g>
<mask id="mask1_230_9838" style="mask-type:luminance" maskUnits="userSpaceOnUse" x="76" y="55" width="477" height="356">
<path d="M552.957 55.2959H76.7969V410.112H552.957V55.2959Z" fill="white"/>
</mask>
<g mask="url(#mask1_230_9838)">
<path d="M294.633 410.111L315.101 409.96L332.338 409.264L342.033 408.223L344.188 407.575L346.342 406.466L348.497 404.96L351.729 402.231L353.883 400.191L356.038 397.807L358.193 394.842L360.347 391.126L362.502 386.598L364.656 381.018L366.811 374.301L368.965 366.653L371.12 358.16L373.274 348.718L375.429 337.712L378.661 318.345L381.893 299.186L385.125 281.705L387.279 271.831L388.356 267.839L389.434 264.626L390.511 262.176L391.588 260.331L394.82 256.095L395.897 254.787L396.975 253.763L398.052 253.264L399.129 253.41L400.207 254.168L401.284 255.449L402.361 257.232L403.438 259.599L404.516 262.67L405.593 266.512L407.748 276.232L414.211 308.971L418.52 328.065L421.752 341.69L423.907 349.447L432.525 376.834L434.68 382.507L436.834 387.211L438.989 390.953L441.143 393.965L443.298 396.395L447.607 400.677L449.762 402.418L452.993 404.417L456.225 406.178L459.457 407.376L462.689 408.209L465.921 408.529L469.153 408.863L473.462 409.408L477.771 409.602L483.157 409.805L487.466 409.93L495.007 409.99L504.703 410.092L509.012 410.111" fill="#EFEFEF" fill-opacity="0.4"/>
<path d="M294.633 410.111L315.101 409.96L332.338 409.264L342.033 408.223L344.188 407.575L346.342 406.466L348.497 404.96L351.729 402.231L353.883 400.191L356.038 397.807L358.193 394.842L360.347 391.126L362.502 386.598L364.656 381.018L366.811 374.301L368.965 366.653L371.12 358.16L373.274 348.718L375.429 337.712L378.661 318.345L381.893 299.186L385.125 281.705L387.279 271.831L388.356 267.839L389.434 264.626L390.511 262.176L391.588 260.331L394.82 256.095L395.897 254.787L396.975 253.763L398.052 253.264L399.129 253.41L400.207 254.168L401.284 255.449L402.361 257.232L403.438 259.599L404.516 262.67L405.593 266.512L407.748 276.232L414.211 308.971L418.52 328.065L421.752 341.69L423.907 349.447L432.525 376.834L434.68 382.507L436.834 387.211L438.989 390.953L441.143 393.965L443.298 396.395L447.607 400.677L449.762 402.418L452.993 404.417L456.225 406.178L459.457 407.376L462.689 408.209L465.921 408.529L469.153 408.863L473.462 409.408L477.771 409.602L483.157 409.805L487.466 409.93L495.007 409.99L504.703 410.092L509.012 410.111" stroke="#EFEFEF" stroke-linecap="square"/>
</g>
<mask id="mask2_230_9838" style="mask-type:luminance" maskUnits="userSpaceOnUse" x="76" y="55" width="477" height="356">
<path d="M552.957 55.2959H76.7969V410.112H552.957V55.2959Z" fill="white"/>
</mask>
<g mask="url(#mask2_230_9838)">
<path d="M263.992 410.111L280.114 409.964L282.595 409.674L285.075 408.939L286.315 408.318L287.556 407.498L290.036 405.363L293.756 401.606L294.997 400.06L296.237 398.159L297.477 395.777L298.717 392.828L299.957 389.299L302.438 380.731L304.918 370.322L307.398 357.897L312.359 330.044L317.32 302.377L324.761 264.235L326.001 259.86L327.241 256.915L328.481 255.273L329.721 254.567L334.682 253.759L335.922 253.768L337.163 254.175L338.403 255.2L339.643 257.161L340.883 260.382L342.123 264.971L344.604 276.87L348.324 295.072L355.765 329.753L358.245 341.192L360.726 350.011L363.206 358.489L366.927 371.624L368.167 375.231L369.407 378.279L371.887 383.062L376.848 391.524L379.328 394.776L383.049 399.283L384.289 400.542L386.77 402.45L389.25 403.962L391.73 405.106L396.691 406.64L400.411 407.569L404.132 408.22L412.813 409.355L416.534 409.369L420.254 409.348L427.695 409.795L435.136 409.761L441.337 409.882L448.778 410.076L458.7 410.089L466.141 410.033L474.822 409.963L482.263 410.056L510.787 410.111" fill="#EFEFEF" fill-opacity="0.4"/>
<path d="M263.992 410.111L280.114 409.964L282.595 409.674L285.075 408.939L286.315 408.318L287.556 407.498L290.036 405.363L293.756 401.606L294.997 400.06L296.237 398.159L297.477 395.777L298.717 392.828L299.957 389.299L302.438 380.731L304.918 370.322L307.398 357.897L312.359 330.044L317.32 302.377L324.761 264.235L326.001 259.86L327.241 256.915L328.481 255.273L329.721 254.567L334.682 253.759L335.922 253.768L337.163 254.175L338.403 255.2L339.643 257.161L340.883 260.382L342.123 264.971L344.604 276.87L348.324 295.072L355.765 329.753L358.245 341.192L360.726 350.011L363.206 358.489L366.927 371.624L368.167 375.231L369.407 378.279L371.887 383.062L376.848 391.524L379.328 394.776L383.049 399.283L384.289 400.542L386.77 402.45L389.25 403.962L391.73 405.106L396.691 406.64L400.411 407.569L404.132 408.22L412.813 409.355L416.534 409.369L420.254 409.348L427.695 409.795L435.136 409.761L441.337 409.882L448.778 410.076L458.7 410.089L466.141 410.033L474.822 409.963L482.263 410.056L510.787 410.111" stroke="#EFEFEF" stroke-linecap="square"/>
</g>
<mask id="mask3_230_9838" style="mask-type:luminance" maskUnits="userSpaceOnUse" x="76" y="55" width="477" height="356">
<path d="M552.957 55.2959H76.7969V410.112H552.957V55.2959Z" fill="white"/>
</mask>
<g mask="url(#mask3_230_9838)">
<path d="M264.758 410.112L282.973 409.991L291.473 409.564L293.902 409.263L296.331 408.704L299.974 407.51L302.403 406.323L304.831 404.519L307.26 402.033L308.474 400.495L309.689 398.702L312.117 394.236L314.546 388.845L319.403 377.366L321.832 370.91L324.261 363.026L326.69 353.543L330.333 338.754L336.404 315.639L338.833 305.444L340.047 301.061L341.262 297.573L342.476 294.997L343.69 293.119L346.119 290.317L348.548 287.851L350.977 285.852L352.191 285.169L353.405 284.757L354.62 284.635L355.834 284.79L358.263 285.689L360.691 287.005L361.906 287.913L363.12 289.182L364.334 290.968L365.549 293.359L366.763 296.318L372.835 312.808L375.263 319.012L380.121 332.799L384.978 346.679L389.836 361.388L392.264 367.303L394.693 372.107L404.408 390.116L406.836 393.587L409.265 396.387L411.694 398.698L414.123 400.568L416.551 402.062L418.98 403.236L421.409 404.144L428.695 406.342L432.338 407.703L434.767 408.335L437.195 408.723L440.838 408.967L454.196 409.442L459.053 409.651L488.198 410.107L506.413 410.112" fill="#EFEFEF" fill-opacity="0.4"/>
<path d="M264.758 410.112L282.973 409.991L291.473 409.564L293.902 409.263L296.331 408.704L299.974 407.51L302.403 406.323L304.831 404.519L307.26 402.033L308.474 400.495L309.689 398.702L312.117 394.236L314.546 388.845L319.403 377.366L321.832 370.91L324.261 363.026L326.69 353.543L330.333 338.754L336.404 315.639L338.833 305.444L340.047 301.061L341.262 297.573L342.476 294.997L343.69 293.119L346.119 290.317L348.548 287.851L350.977 285.852L352.191 285.169L353.405 284.757L354.62 284.635L355.834 284.79L358.263 285.689L360.691 287.005L361.906 287.913L363.12 289.182L364.334 290.968L365.549 293.359L366.763 296.318L372.835 312.808L375.263 319.012L380.121 332.799L384.978 346.679L389.836 361.388L392.264 367.303L394.693 372.107L404.408 390.116L406.836 393.587L409.265 396.387L411.694 398.698L414.123 400.568L416.551 402.062L418.98 403.236L421.409 404.144L428.695 406.342L432.338 407.703L434.767 408.335L437.195 408.723L440.838 408.967L454.196 409.442L459.053 409.651L488.198 410.107L506.413 410.112" stroke="#EFEFEF" stroke-linecap="square"/>
</g>
<mask id="mask4_230_9838" style="mask-type:luminance" maskUnits="userSpaceOnUse" x="76" y="55" width="477" height="356">
<path d="M552.957 55.2959H76.7969V410.112H552.957V55.2959Z" fill="white"/>
</mask>
<g mask="url(#mask4_230_9838)">
<path d="M247.594 410.111L263.52 409.958L275.465 409.607L278.119 409.292L280.774 408.729L283.428 407.822L286.082 406.416L287.41 405.439L288.737 404.223L290.064 402.727L291.391 400.905L292.718 398.672L294.046 395.907L295.373 392.481L296.7 388.325L298.027 383.458L300.682 371.879L303.336 357.963L305.99 341.774L309.972 316.769L316.608 277.897L317.935 270.883L319.262 264.753L320.59 259.856L321.917 256.448L323.244 254.601L324.571 254.19L325.898 254.942L327.226 256.564L328.553 258.91L329.88 262.064L331.207 266.243L332.534 271.54L337.843 296.25L339.17 301.237L340.498 305.561L343.152 312.872L345.806 319.342L348.461 325.005L352.442 332.807L353.769 335.859L360.405 352.684L364.387 360.919L369.696 372.885L373.677 382.088L375.005 384.794L376.332 387.153L378.986 390.977L382.968 396.008L384.295 397.475L385.622 398.641L386.949 399.471L390.931 401.239L393.585 402.9L396.24 404.585L398.894 405.796L402.876 406.942L406.857 407.77L413.493 408.739L425.438 409.525L428.093 409.676L437.383 409.78L445.346 409.887L459.945 409.962L466.581 410.017L475.872 409.93L489.144 410.063L511.706 410.111" fill="#EFEFEF" fill-opacity="0.4"/>
<path d="M247.594 410.111L263.52 409.958L275.465 409.607L278.119 409.292L280.774 408.729L283.428 407.822L286.082 406.416L287.41 405.439L288.737 404.223L290.064 402.727L291.391 400.905L292.718 398.672L294.046 395.907L295.373 392.481L296.7 388.325L298.027 383.458L300.682 371.879L303.336 357.963L305.99 341.774L309.972 316.769L316.608 277.897L317.935 270.883L319.262 264.753L320.59 259.856L321.917 256.448L323.244 254.601L324.571 254.19L325.898 254.942L327.226 256.564L328.553 258.91L329.88 262.064L331.207 266.243L332.534 271.54L337.843 296.25L339.17 301.237L340.498 305.561L343.152 312.872L345.806 319.342L348.461 325.005L352.442 332.807L353.769 335.859L360.405 352.684L364.387 360.919L369.696 372.885L373.677 382.088L375.005 384.794L376.332 387.153L378.986 390.977L382.968 396.008L384.295 397.475L385.622 398.641L386.949 399.471L390.931 401.239L393.585 402.9L396.24 404.585L398.894 405.796L402.876 406.942L406.857 407.77L413.493 408.739L425.438 409.525L428.093 409.676L437.383 409.78L445.346 409.887L459.945 409.962L466.581 410.017L475.872 409.93L489.144 410.063L511.706 410.111" stroke="#EFEFEF" stroke-linecap="square"/>
</g>
<mask id="mask5_230_9838" style="mask-type:luminance" maskUnits="userSpaceOnUse" x="76" y="55" width="477" height="356">
<path d="M552.957 55.2959H76.7969V410.112H552.957V55.2959Z" fill="white"/>
</mask>
<g mask="url(#mask5_230_9838)">
<path d="M283.211 410.111L289.894 409.963L303.26 409.458L305.488 408.971L309.943 407.569L312.171 406.639L315.512 404.694L317.74 403.102L319.968 400.921L323.309 396.933L325.537 393.681L327.765 389.534L328.878 386.987L329.992 383.937L332.22 376.275L335.561 362.908L337.789 352.644L342.244 330.236L343.358 322.991L345.586 304.649L353.383 233.225L354.497 225.046L355.611 218.44L356.724 213.609L357.838 210.528L358.952 209.03L360.066 208.947L361.18 210.219L362.294 212.856L363.407 216.802L364.521 221.896L365.635 228.011L366.749 235.152L368.977 252.272L373.432 288.281L376.773 312.895L380.115 334.689L382.343 346.724L384.57 356.319L386.798 364.419L390.14 375.38L392.367 381.613L393.481 384.08L395.709 388.045L397.936 391.513L400.164 394.37L402.392 396.512L404.619 398.034L406.847 399.439L411.302 402.748L413.53 403.97L417.986 405.929L420.213 406.547L423.555 407.111L426.896 407.84L434.693 408.962L440.262 409.356L444.718 409.671L460.311 410.005L477.019 409.998L488.157 410.112L504.865 410.111" fill="#EFEFEF" fill-opacity="0.4"/>
<path d="M283.211 410.111L289.894 409.963L303.26 409.458L305.488 408.971L309.943 407.569L312.171 406.639L315.512 404.694L317.74 403.102L319.968 400.921L323.309 396.933L325.537 393.681L327.765 389.534L328.878 386.987L329.992 383.937L332.22 376.275L335.561 362.908L337.789 352.644L342.244 330.236L343.358 322.991L345.586 304.649L353.383 233.225L354.497 225.046L355.611 218.44L356.724 213.609L357.838 210.528L358.952 209.03L360.066 208.947L361.18 210.219L362.294 212.856L363.407 216.802L364.521 221.896L365.635 228.011L366.749 235.152L368.977 252.272L373.432 288.281L376.773 312.895L380.115 334.689L382.343 346.724L384.57 356.319L386.798 364.419L390.14 375.38L392.367 381.613L393.481 384.08L395.709 388.045L397.936 391.513L400.164 394.37L402.392 396.512L404.619 398.034L406.847 399.439L411.302 402.748L413.53 403.97L417.986 405.929L420.213 406.547L423.555 407.111L426.896 407.84L434.693 408.962L440.262 409.356L444.718 409.671L460.311 410.005L477.019 409.998L488.157 410.112L504.865 410.111" stroke="#EFEFEF" stroke-linecap="square"/>
</g>
<mask id="mask6_230_9838" style="mask-type:luminance" maskUnits="userSpaceOnUse" x="76" y="55" width="477" height="356">
<path d="M552.957 55.2959H76.7969V410.112H552.957V55.2959Z" fill="white"/>
</mask>
<g mask="url(#mask6_230_9838)">
<path d="M302.914 410.111L308.975 409.977L319.077 409.367L321.098 409.074L327.159 407.671L330.19 406.904L335.241 406.139L337.261 405.198L340.292 403.465L341.302 402.666L342.312 401.606L344.333 398.723L348.373 391.887L350.394 387.839L352.414 383.194L354.435 377.755L356.455 370.886L358.475 362.716L360.496 353.419L362.516 342.192L365.547 321.78L368.578 302.013L375.649 260.112L376.659 255.071L377.669 250.843L379.69 244.312L380.7 241.711L381.71 239.604L382.72 238.143L383.731 237.378L384.741 237.178L386.761 237.524L388.782 237.928L389.792 238.362L390.802 239.42L391.812 241.509L392.823 244.814L393.833 249.202L395.853 260.073L397.874 272.724L401.914 300.637L406.965 336.279L408.986 348.272L411.006 358.962L413.027 368.051L416.057 380.106L418.078 387.299L419.088 390.287L420.098 392.734L421.108 394.652L423.129 397.418L427.17 401.949L429.19 403.661L431.21 404.842L433.231 405.749L435.251 406.381L447.374 408.874L451.415 409.204L454.445 409.449L463.537 409.451L468.588 409.915L473.639 409.857L477.68 409.872L483.741 410.001L496.874 410.051L503.945 410.111" fill="#EFEFEF" fill-opacity="0.4"/>
<path d="M302.914 410.111L308.975 409.977L319.077 409.367L321.098 409.074L327.159 407.671L330.19 406.904L335.241 406.139L337.261 405.198L340.292 403.465L341.302 402.666L342.312 401.606L344.333 398.723L348.373 391.887L350.394 387.839L352.414 383.194L354.435 377.755L356.455 370.886L358.475 362.716L360.496 353.419L362.516 342.192L365.547 321.78L368.578 302.013L375.649 260.112L376.659 255.071L377.669 250.843L379.69 244.312L380.7 241.711L381.71 239.604L382.72 238.143L383.731 237.378L384.741 237.178L386.761 237.524L388.782 237.928L389.792 238.362L390.802 239.42L391.812 241.509L392.823 244.814L393.833 249.202L395.853 260.073L397.874 272.724L401.914 300.637L406.965 336.279L408.986 348.272L411.006 358.962L413.027 368.051L416.057 380.106L418.078 387.299L419.088 390.287L420.098 392.734L421.108 394.652L423.129 397.418L427.17 401.949L429.19 403.661L431.21 404.842L433.231 405.749L435.251 406.381L447.374 408.874L451.415 409.204L454.445 409.449L463.537 409.451L468.588 409.915L473.639 409.857L477.68 409.872L483.741 410.001L496.874 410.051L503.945 410.111" stroke="#EFEFEF" stroke-linecap="square"/>
</g>
<mask id="mask7_230_9838" style="mask-type:luminance" maskUnits="userSpaceOnUse" x="76" y="55" width="477" height="356">
<path d="M552.957 55.2959H76.7969V410.112H552.957V55.2959Z" fill="white"/>
</mask>
<g mask="url(#mask7_230_9838)">
<path d="M267.781 410.112L282.348 409.967L286.321 409.728L290.294 409.133L294.267 408.21L298.239 407L300.888 405.82L303.536 404.184L306.185 402.079L308.834 399.583L311.482 396.722L314.131 393.28L315.455 391.215L316.779 388.86L319.428 383.219L322.076 376.431L324.725 368.683L330.022 351.649L335.319 334.803L337.967 327.786L339.292 324.929L341.94 320.291L345.913 314.004L349.886 307.439L352.534 303.642L353.859 302.04L355.183 300.723L356.507 299.789L357.831 299.333L359.156 299.396L360.48 299.954L361.804 300.935L363.129 302.251L365.777 305.656L368.426 309.857L372.398 316.931L377.695 326.928L384.317 339.965L392.262 356.215L396.235 363.209L398.884 367.496L401.532 371.24L409.478 381.074L413.451 386.409L416.099 389.509L418.748 392.239L421.396 394.515L424.045 396.229L426.693 397.525L434.639 401.173L439.936 403.463L445.233 405.438L449.206 406.48L454.503 407.503L459.8 408.187L466.421 408.776L483.637 409.689L494.231 409.93L531.311 410.112" fill="#EFEFEF" fill-opacity="0.4"/>
<path d="M267.781 410.112L282.348 409.967L286.321 409.728L290.294 409.133L294.267 408.21L298.239 407L300.888 405.82L303.536 404.184L306.185 402.079L308.834 399.583L311.482 396.722L314.131 393.28L315.455 391.215L316.779 388.86L319.428 383.219L322.076 376.431L324.725 368.683L330.022 351.649L335.319 334.803L337.967 327.786L339.292 324.929L341.94 320.291L345.913 314.004L349.886 307.439L352.534 303.642L353.859 302.04L355.183 300.723L356.507 299.789L357.831 299.333L359.156 299.396L360.48 299.954L361.804 300.935L363.129 302.251L365.777 305.656L368.426 309.857L372.398 316.931L377.695 326.928L384.317 339.965L392.262 356.215L396.235 363.209L398.884 367.496L401.532 371.24L409.478 381.074L413.451 386.409L416.099 389.509L418.748 392.239L421.396 394.515L424.045 396.229L426.693 397.525L434.639 401.173L439.936 403.463L445.233 405.438L449.206 406.48L454.503 407.503L459.8 408.187L466.421 408.776L483.637 409.689L494.231 409.93L531.311 410.112" stroke="#EFEFEF" stroke-linecap="square"/>
</g>
<mask id="mask8_230_9838" style="mask-type:luminance" maskUnits="userSpaceOnUse" x="76" y="55" width="477" height="356">
<path d="M552.957 55.2959H76.7969V410.112H552.957V55.2959Z" fill="white"/>
</mask>
<g mask="url(#mask8_230_9838)">
<path d="M293.562 410.111L309.544 409.992L312.54 409.682L314.538 409.756L320.53 409.34L322.528 409.223L324.526 408.924L329.52 409.35L331.517 408.667L337.51 406.796L339.508 406.312L340.507 405.831L341.506 405.037L342.504 403.822L344.502 400.342L346.5 396.421L347.498 393.806L348.497 390.393L349.496 386.241L350.495 381.265L351.494 375.284L352.492 367.976L354.49 349.14L355.489 338.35L356.488 325.841L358.485 295.907L361.482 246.622L363.479 209.742L367.475 125.138L368.473 110.14L369.472 99.1654L370.471 91.8153L371.47 88.1816L372.469 88.3908L373.468 91.9402L374.466 99.2181L375.465 111.139L376.464 127.265L378.462 165.833L384.455 289.003L386.452 321.771L388.45 349.478L389.449 360.303L390.447 368.966L392.445 382.145L393.444 387.487L394.443 391.954L395.441 395.48L396.44 398.148L397.439 399.961L399.437 402.201L402.433 406.523L403.432 407.143L405.43 408.123L407.427 409.161L409.425 409.51L411.422 409.371L413.42 409.119L415.418 409.506L417.415 409.85L422.409 409.724L424.407 410.001L426.405 410.02L432.398 409.807L436.393 409.809L439.389 409.543L441.387 409.697L443.385 409.881L461.363 410.045L468.355 409.912L473.349 410.111L492.326 410.111" fill="#EFEFEF" fill-opacity="0.4"/>
<path d="M293.562 410.111L309.544 409.992L312.54 409.682L314.538 409.756L320.53 409.34L322.528 409.223L324.526 408.924L329.52 409.35L331.517 408.667L337.51 406.796L339.508 406.312L340.507 405.831L341.506 405.037L342.504 403.822L344.502 400.342L346.5 396.421L347.498 393.806L348.497 390.393L349.496 386.241L350.495 381.265L351.494 375.284L352.492 367.976L354.49 349.14L355.489 338.35L356.488 325.841L358.485 295.907L361.482 246.622L363.479 209.742L367.475 125.138L368.473 110.14L369.472 99.1654L370.471 91.8153L371.47 88.1816L372.469 88.3908L373.468 91.9402L374.466 99.2181L375.465 111.139L376.464 127.265L378.462 165.833L384.455 289.003L386.452 321.771L388.45 349.478L389.449 360.303L390.447 368.966L392.445 382.145L393.444 387.487L394.443 391.954L395.441 395.48L396.44 398.148L397.439 399.961L399.437 402.201L402.433 406.523L403.432 407.143L405.43 408.123L407.427 409.161L409.425 409.51L411.422 409.371L413.42 409.119L415.418 409.506L417.415 409.85L422.409 409.724L424.407 410.001L426.405 410.02L432.398 409.807L436.393 409.809L439.389 409.543L441.387 409.697L443.385 409.881L461.363 410.045L468.355 409.912L473.349 410.111L492.326 410.111" stroke="#EFEFEF" stroke-linecap="square"/>
</g>
<mask id="mask9_230_9838" style="mask-type:luminance" maskUnits="userSpaceOnUse" x="76" y="55" width="477" height="356">
<path d="M552.957 55.2959H76.7969V410.112H552.957V55.2959Z" fill="white"/>
</mask>
<g mask="url(#mask9_230_9838)">
<path d="M269.055 410.112L283.25 409.983L287.982 409.644L291.531 409.001L293.897 408.315L296.263 407.192L297.446 406.36L298.628 405.308L299.811 404.025L302.177 400.753L304.543 396.529L306.909 391.255L308.092 388.063L309.275 384.338L310.458 379.967L312.824 369.215L315.19 356.457L318.739 335.446L322.288 314.34L324.653 301.968L327.019 292.041L329.385 283.877L331.751 276.367L332.934 273.115L334.117 270.531L335.3 268.79L336.483 267.918L337.666 267.812L338.849 268.292L340.032 269.18L341.215 270.357L342.398 271.788L344.764 275.333L347.13 279.01L351.861 285.344L353.044 288.065L354.227 291.686L356.593 301.024L360.142 315.65L363.691 328.092L367.24 340.006L369.606 346.555L371.971 351.41L374.337 355.839L376.703 361.115L381.435 372.695L384.984 380.448L387.35 385.244L389.716 389.314L392.082 392.552L394.448 395.078L395.631 396.032L396.813 396.754L399.179 397.716L401.545 398.754L403.911 400.262L407.46 402.622L411.009 404.647L413.375 405.765L415.741 406.598L419.29 407.441L422.838 407.988L429.936 408.687L433.485 409.106L444.132 409.71L448.863 409.776L454.778 409.757L464.242 409.965L473.705 410.02L490.267 410.099L504.462 410.112" fill="#EFEFEF" fill-opacity="0.4"/>
<path d="M269.055 410.112L283.25 409.983L287.982 409.644L291.531 409.001L293.897 408.315L296.263 407.192L297.446 406.36L298.628 405.308L299.811 404.025L302.177 400.753L304.543 396.529L306.909 391.255L308.092 388.063L309.275 384.338L310.458 379.967L312.824 369.215L315.19 356.457L318.739 335.446L322.288 314.34L324.653 301.968L327.019 292.041L329.385 283.877L331.751 276.367L332.934 273.115L334.117 270.531L335.3 268.79L336.483 267.918L337.666 267.812L338.849 268.292L340.032 269.18L341.215 270.357L342.398 271.788L344.764 275.333L347.13 279.01L351.861 285.344L353.044 288.065L354.227 291.686L356.593 301.024L360.142 315.65L363.691 328.092L367.24 340.006L369.606 346.555L371.971 351.41L374.337 355.839L376.703 361.115L381.435 372.695L384.984 380.448L387.35 385.244L389.716 389.314L392.082 392.552L394.448 395.078L395.631 396.032L396.813 396.754L399.179 397.716L401.545 398.754L403.911 400.262L407.46 402.622L411.009 404.647L413.375 405.765L415.741 406.598L419.29 407.441L422.838 407.988L429.936 408.687L433.485 409.106L444.132 409.71L448.863 409.776L454.778 409.757L464.242 409.965L473.705 410.02L490.267 410.099L504.462 410.112" stroke="#EFEFEF" stroke-linecap="square"/>
</g>
<mask id="mask10_230_9838" style="mask-type:luminance" maskUnits="userSpaceOnUse" x="76" y="55" width="477" height="356">
<path d="M552.957 55.2959H76.7969V410.112H552.957V55.2959Z" fill="white"/>
</mask>
<g mask="url(#mask10_230_9838)">
<path d="M268.57 410.111L279.427 409.947L284.252 409.837L287.871 409.5L290.284 409.03L292.697 408.108L295.109 406.738L297.522 405.045L298.728 403.975L299.935 402.645L301.141 400.97L302.347 398.853L303.554 396.18L304.76 392.843L305.966 388.804L308.379 379.163L313.204 358.733L315.617 346.358L318.029 331.408L320.442 314.069L324.061 284.33L327.68 254.117L328.886 245.926L330.093 239.721L331.299 235.742L332.505 233.903L333.712 233.952L334.918 235.553L336.124 238.271L338.537 245.253L340.949 253.125L343.362 262.46L345.775 273.028L351.806 300.967L355.425 316.016L359.044 331.871L361.457 340.666L363.869 347.939L367.488 357.773L371.107 366.277L374.726 374.793L379.552 387.326L380.758 389.779L381.964 391.708L383.171 393.126L384.377 394.112L386.789 395.396L389.202 396.756L392.821 399.284L400.059 404.947L402.472 406.085L404.884 406.738L412.122 407.756L414.535 407.868L418.154 407.911L424.185 408.601L429.011 408.773L433.836 409.301L439.867 409.139L445.899 409.777L484.501 409.958L490.533 409.856L500.183 410.059L508.628 410.112" fill="#EFEFEF" fill-opacity="0.4"/>
<path d="M268.57 410.111L279.427 409.947L284.252 409.837L287.871 409.5L290.284 409.03L292.697 408.108L295.109 406.738L297.522 405.045L298.728 403.975L299.935 402.645L301.141 400.97L302.347 398.853L303.554 396.18L304.76 392.843L305.966 388.804L308.379 379.163L313.204 358.733L315.617 346.358L318.029 331.408L320.442 314.069L324.061 284.33L327.68 254.117L328.886 245.926L330.093 239.721L331.299 235.742L332.505 233.903L333.712 233.952L334.918 235.553L336.124 238.271L338.537 245.253L340.949 253.125L343.362 262.46L345.775 273.028L351.806 300.967L355.425 316.016L359.044 331.871L361.457 340.666L363.869 347.939L367.488 357.773L371.107 366.277L374.726 374.793L379.552 387.326L380.758 389.779L381.964 391.708L383.171 393.126L384.377 394.112L386.789 395.396L389.202 396.756L392.821 399.284L400.059 404.947L402.472 406.085L404.884 406.738L412.122 407.756L414.535 407.868L418.154 407.911L424.185 408.601L429.011 408.773L433.836 409.301L439.867 409.139L445.899 409.777L484.501 409.958L490.533 409.856L500.183 410.059L508.628 410.112" stroke="#EFEFEF" stroke-linecap="square"/>
</g>
<mask id="mask11_230_9838" style="mask-type:luminance" maskUnits="userSpaceOnUse" x="76" y="55" width="477" height="356">
<path d="M552.957 55.2959H76.7969V410.112H552.957V55.2959Z" fill="white"/>
</mask>
<g mask="url(#mask11_230_9838)">
<path d="M267.188 410.111L277.79 409.951L282.503 409.702L286.037 409.29L288.393 408.825L290.749 408.097L293.106 407.092L295.462 405.798L297.818 403.994L298.996 402.788L300.174 401.339L302.53 397.712L304.887 393.11L307.243 387.299L309.599 379.994L311.955 371.429L317.846 348.289L323.736 324.372L326.092 315.996L328.449 308.474L330.805 301.886L335.517 289.78L336.695 287.171L337.873 285.143L339.051 283.856L340.23 283.318L341.408 283.396L342.586 283.888L344.942 285.498L346.12 286.525L347.298 287.757L348.476 289.266L349.654 291.111L350.832 293.321L353.189 298.669L356.723 306.994L359.079 311.636L362.613 318.046L364.97 323.07L367.326 329.173L374.394 349.36L377.929 357.856L380.285 363.026L383.819 369.889L387.353 376.176L390.888 381.842L393.244 385.127L396.778 389.244L405.025 398.401L407.381 400.683L409.737 402.482L412.094 403.694L416.806 405.408L420.34 406.497L425.053 407.525L428.587 408.063L440.368 409.218L448.615 409.635L453.327 409.843L485.136 410.08L501.629 410.111" fill="#EFEFEF" fill-opacity="0.4"/>
<path d="M267.188 410.111L277.79 409.951L282.503 409.702L286.037 409.29L288.393 408.825L290.749 408.097L293.106 407.092L295.462 405.798L297.818 403.994L298.996 402.788L300.174 401.339L302.53 397.712L304.887 393.11L307.243 387.299L309.599 379.994L311.955 371.429L317.846 348.289L323.736 324.372L326.092 315.996L328.449 308.474L330.805 301.886L335.517 289.78L336.695 287.171L337.873 285.143L339.051 283.856L340.23 283.318L341.408 283.396L342.586 283.888L344.942 285.498L346.12 286.525L347.298 287.757L348.476 289.266L349.654 291.111L350.832 293.321L353.189 298.669L356.723 306.994L359.079 311.636L362.613 318.046L364.97 323.07L367.326 329.173L374.394 349.36L377.929 357.856L380.285 363.026L383.819 369.889L387.353 376.176L390.888 381.842L393.244 385.127L396.778 389.244L405.025 398.401L407.381 400.683L409.737 402.482L412.094 403.694L416.806 405.408L420.34 406.497L425.053 407.525L428.587 408.063L440.368 409.218L448.615 409.635L453.327 409.843L485.136 410.08L501.629 410.111" stroke="#EFEFEF" stroke-linecap="square"/>
</g>
<mask id="mask12_230_9838" style="mask-type:luminance" maskUnits="userSpaceOnUse" x="76" y="55" width="477" height="356">
<path d="M552.957 55.2959H76.7969V410.112H552.957V55.2959Z" fill="white"/>
</mask>
<g mask="url(#mask12_230_9838)">
<path d="M304.984 410.11L310.154 409.932L313.256 409.787L317.392 409.362L322.562 409.38L324.63 409.2L327.732 409.142L329.8 408.739L332.902 407.647L334.97 406.592L338.072 404.727L340.14 403.098L342.208 400.847L344.276 398.309L345.31 396.726L346.344 394.552L349.446 386.41L351.514 381.976L352.548 378.811L353.582 374.147L355.65 361.818L357.718 347.673L358.752 338.621L360.82 315.93L363.922 275.116L369.092 204.614L372.194 172.576L373.228 163.314L374.262 155.995L375.296 151.724L376.33 150.832L377.364 152.671L378.398 156.618L379.432 162.792L380.466 171.43L382.534 194.218L392.874 321.138L393.908 331.936L394.942 340.678L397.01 354.845L399.078 367.323L401.146 377.965L402.18 382.332L404.248 389.26L407.35 398.117L408.384 400.116L409.418 401.352L413.554 404.624L417.69 407.333L419.758 408.138L422.86 408.779L424.928 409.085L438.37 409.889L440.438 409.713L477.662 410.03L488.002 410.034L497.308 410.112L510.75 410.111" fill="#EFEFEF" fill-opacity="0.4"/>
<path d="M304.984 410.11L310.154 409.932L313.256 409.787L317.392 409.362L322.562 409.38L324.63 409.2L327.732 409.142L329.8 408.739L332.902 407.647L334.97 406.592L338.072 404.727L340.14 403.098L342.208 400.847L344.276 398.309L345.31 396.726L346.344 394.552L349.446 386.41L351.514 381.976L352.548 378.811L353.582 374.147L355.65 361.818L357.718 347.673L358.752 338.621L360.82 315.93L363.922 275.116L369.092 204.614L372.194 172.576L373.228 163.314L374.262 155.995L375.296 151.724L376.33 150.832L377.364 152.671L378.398 156.618L379.432 162.792L380.466 171.43L382.534 194.218L392.874 321.138L393.908 331.936L394.942 340.678L397.01 354.845L399.078 367.323L401.146 377.965L402.18 382.332L404.248 389.26L407.35 398.117L408.384 400.116L409.418 401.352L413.554 404.624L417.69 407.333L419.758 408.138L422.86 408.779L424.928 409.085L438.37 409.889L440.438 409.713L477.662 410.03L488.002 410.034L497.308 410.112L510.75 410.111" stroke="#EFEFEF" stroke-linecap="square"/>
</g>
<mask id="mask13_230_9838" style="mask-type:luminance" maskUnits="userSpaceOnUse" x="76" y="55" width="477" height="356">
<path d="M552.957 55.2959H76.7969V410.112H552.957V55.2959Z" fill="white"/>
</mask>
<g mask="url(#mask13_230_9838)">
<path d="M276.109 410.111L287.084 409.956L295.864 409.702L299.156 409.146L302.449 408.185L305.741 406.905L309.034 405.336L312.326 403.469L315.619 401.204L317.814 399.328L320.008 397.001L322.203 394.076L324.398 390.541L328.788 382.982L335.373 372.538L337.568 368.079L340.861 360.378L348.543 341.11L352.933 331.971L355.128 327.831L357.323 324.44L361.713 318.448L368.298 308.029L369.395 306.837L370.492 305.922L371.59 305.281L372.687 304.891L373.785 304.714L375.98 304.799L378.175 305.233L380.37 306.005L382.565 307.286L384.76 309.122L386.955 311.45L389.15 314.262L391.345 317.554L394.637 323.211L397.929 329.685L401.222 337.103L408.904 355.465L416.587 371.841L419.879 378.361L424.269 386.255L426.464 389.737L428.659 392.678L430.854 395.062L434.146 398.008L440.731 403.49L442.926 404.754L445.121 405.614L453.901 408.18L457.193 408.775L462.681 409.281L472.558 409.862L476.948 409.903L484.63 409.836L493.41 410.106L494.508 410.109" fill="#EFEFEF" fill-opacity="0.4"/>
<path d="M276.109 410.111L287.084 409.956L295.864 409.702L299.156 409.146L302.449 408.185L305.741 406.905L309.034 405.336L312.326 403.469L315.619 401.204L317.814 399.328L320.008 397.001L322.203 394.076L324.398 390.541L328.788 382.982L335.373 372.538L337.568 368.079L340.861 360.378L348.543 341.11L352.933 331.971L355.128 327.831L357.323 324.44L361.713 318.448L368.298 308.029L369.395 306.837L370.492 305.922L371.59 305.281L372.687 304.891L373.785 304.714L375.98 304.799L378.175 305.233L380.37 306.005L382.565 307.286L384.76 309.122L386.955 311.45L389.15 314.262L391.345 317.554L394.637 323.211L397.929 329.685L401.222 337.103L408.904 355.465L416.587 371.841L419.879 378.361L424.269 386.255L426.464 389.737L428.659 392.678L430.854 395.062L434.146 398.008L440.731 403.49L442.926 404.754L445.121 405.614L453.901 408.18L457.193 408.775L462.681 409.281L472.558 409.862L476.948 409.903L484.63 409.836L493.41 410.106L494.508 410.109" stroke="#EFEFEF" stroke-linecap="square"/>
</g>
<mask id="mask14_230_9838" style="mask-type:luminance" maskUnits="userSpaceOnUse" x="76" y="55" width="477" height="356">
<path d="M552.957 55.2959H76.7969V410.112H552.957V55.2959Z" fill="white"/>
</mask>
<g mask="url(#mask14_230_9838)">
<path d="M98.4375 410.111L214.322 409.938L220.316 409.616L224.312 409.157L228.308 408.317L232.304 407.091L234.302 406.257L236.3 405.154L238.298 403.712L240.296 401.929L242.294 399.854L246.291 395.007L248.289 392.233L250.287 389.113L252.285 385.495L254.283 381.272L258.279 371.339L264.273 354.946L272.265 332.137L278.259 314.784L280.257 309.421L282.255 304.682L284.253 301.014L286.251 298.643L288.249 297.373L290.247 296.847L292.245 296.884L294.243 297.513L296.241 298.84L298.239 300.975L300.237 303.896L308.229 317.948L312.225 325.52L316.221 333.832L324.213 350.823L328.209 358.425L332.205 365.58L334.203 368.945L336.201 371.979L338.199 374.495L340.197 376.507L344.193 380.255L346.191 382.525L352.185 390.052L354.183 392.1L358.179 395.357L362.175 398.744L364.173 400.469L366.171 401.961L368.169 403.096L370.167 403.898L380.157 406.943L384.153 407.72L396.142 409.175L408.13 409.576L414.124 409.838L422.116 409.775L428.11 409.795L434.104 409.916L442.096 409.864L450.088 409.989L496.042 410.111" fill="#7EB0D5" fill-opacity="0.4"/>
<path d="M98.4375 410.111L214.322 409.938L220.316 409.616L224.312 409.157L228.308 408.317L232.304 407.091L234.302 406.257L236.3 405.154L238.298 403.712L240.296 401.929L242.294 399.854L246.291 395.007L248.289 392.233L250.287 389.113L252.285 385.495L254.283 381.272L258.279 371.339L264.273 354.946L272.265 332.137L278.259 314.784L280.257 309.421L282.255 304.682L284.253 301.014L286.251 298.643L288.249 297.373L290.247 296.847L292.245 296.884L294.243 297.513L296.241 298.84L298.239 300.975L300.237 303.896L308.229 317.948L312.225 325.52L316.221 333.832L324.213 350.823L328.209 358.425L332.205 365.58L334.203 368.945L336.201 371.979L338.199 374.495L340.197 376.507L344.193 380.255L346.191 382.525L352.185 390.052L354.183 392.1L358.179 395.357L362.175 398.744L364.173 400.469L366.171 401.961L368.169 403.096L370.167 403.898L380.157 406.943L384.153 407.72L396.142 409.175L408.13 409.576L414.124 409.838L422.116 409.775L428.11 409.795L434.104 409.916L442.096 409.864L450.088 409.989L496.042 410.111" stroke="#7EB0D5" stroke-linecap="square"/>
</g>
<path d="M535.061 411.061C535.646 410.475 535.646 409.525 535.061 408.939L525.515 399.393C524.929 398.808 523.979 398.808 523.393 399.393C522.808 399.979 522.808 400.929 523.393 401.515L531.879 410L523.393 418.485C522.808 419.071 522.808 420.021 523.393 420.607C523.979 421.192 524.929 421.192 525.515 420.607L535.061 411.061ZM79 411.5H534V408.5H79V411.5Z" fill="black"/>
</g>
<defs>
<clipPath id="clip0_230_9838">
<rect width="614.4" height="460.8" fill="white"/>
</clipPath>
</defs>
</svg>
