<svg width="615" height="461" viewBox="0 0 615 461" fill="none" xmlns="http://www.w3.org/2000/svg">
<g clip-path="url(#clip0_230_9598)">
<mask id="mask0_230_9598" style="mask-type:luminance" maskUnits="userSpaceOnUse" x="76" y="55" width="477" height="356">
<path d="M552.957 55.2959H76.7969V410.112H552.957V55.2959Z" fill="white"/>
</mask>
<g mask="url(#mask0_230_9598)">
<path d="M275.133 410.111L300.373 410.066L305.227 410.088L311.052 409.823L313.964 409.952L321.73 409.304L323.672 409.512L334.35 409.229L339.204 409.339L343.087 409.321L346.97 407.967L349.883 407.832L350.853 407.856L351.824 407.614L353.766 406.695L355.707 406.124L357.649 405.005L359.591 403.898L360.561 402.943L361.532 400.991L365.415 389.838L367.357 383.981L368.327 380.208L369.298 375.077L370.269 368.252L371.24 359.981L372.211 349.802L373.181 336.681L375.123 304.664L376.094 284.907L377.065 258.799L379.977 165.446L381.918 116.719L382.889 97.567L383.86 83.0189L384.831 74.2241L385.801 72.1924L386.772 79.7214L387.743 97.5416L389.685 146.54L391.626 206.143L393.568 269.502L394.539 296.7L395.509 318.726L397.451 351.014L398.422 363.866L399.392 374.113L400.363 381.389L401.334 386.567L402.305 390.711L403.275 394.126L404.246 396.729L407.159 402.351L408.129 403.765L409.1 404.523L411.042 405.321L413.954 406.945L418.808 407.879L419.779 407.788L420.75 407.885L423.662 408.927L424.633 408.988L426.574 408.682L427.545 408.75L430.457 409.623L433.37 409.833L442.107 409.71L445.019 409.968L453.756 409.984L468.318 410.111" fill="#EFEFEF" fill-opacity="0.4"/>
<path d="M275.133 410.111L300.373 410.066L305.227 410.088L311.052 409.823L313.964 409.952L321.73 409.304L323.672 409.512L334.35 409.229L339.204 409.339L343.087 409.321L346.97 407.967L349.883 407.832L350.853 407.856L351.824 407.614L353.766 406.695L355.707 406.124L357.649 405.005L359.591 403.898L360.561 402.943L361.532 400.991L365.415 389.838L367.357 383.981L368.327 380.208L369.298 375.077L370.269 368.252L371.24 359.981L372.211 349.802L373.181 336.681L375.123 304.664L376.094 284.907L377.065 258.799L379.977 165.446L381.918 116.719L382.889 97.567L383.86 83.0189L384.831 74.2241L385.801 72.1924L386.772 79.7214L387.743 97.5416L389.685 146.54L391.626 206.143L393.568 269.502L394.539 296.7L395.509 318.726L397.451 351.014L398.422 363.866L399.392 374.113L400.363 381.389L401.334 386.567L402.305 390.711L403.275 394.126L404.246 396.729L407.159 402.351L408.129 403.765L409.1 404.523L411.042 405.321L413.954 406.945L418.808 407.879L419.779 407.788L420.75 407.885L423.662 408.927L424.633 408.988L426.574 408.682L427.545 408.75L430.457 409.623L433.37 409.833L442.107 409.71L445.019 409.968L453.756 409.984L468.318 410.111" stroke="#EFEFEF" stroke-linecap="square"/>
</g>
<mask id="mask1_230_9598" style="mask-type:luminance" maskUnits="userSpaceOnUse" x="76" y="55" width="477" height="356">
<path d="M552.957 55.2959H76.7969V410.112H552.957V55.2959Z" fill="white"/>
</mask>
<g mask="url(#mask1_230_9598)">
<path d="M284.922 410.111L303.674 409.944L309.925 409.705L318.259 409.834L323.468 409.567L331.803 409.512L338.054 409.447L352.639 408.809L355.764 408.176L357.848 407.365L359.931 405.917L364.099 402.51L366.182 400.783L367.224 399.667L368.266 398.249L369.308 396.447L370.349 394.213L371.391 391.508L372.433 388.271L373.475 384.41L374.517 379.849L376.6 368.586L378.684 354.776L380.767 338.562L384.935 303.806L387.018 290.621L390.143 271.897L391.185 266.509L392.227 262.117L393.269 258.848L394.311 256.59L395.352 255.002L396.394 253.752L397.436 252.888L398.478 252.908L399.52 254.362L400.561 257.354L402.645 266.038L407.854 289.803L416.188 330.872L419.314 345.685L421.397 356.452L423.481 365.39L425.565 372.445L427.648 378.176L431.815 387.732L433.899 392.595L435.983 396.444L438.066 399.439L439.108 400.575L441.192 402.15L444.317 404.126L448.484 407.043L450.568 408.027L452.651 408.64L455.777 409.213L457.86 409.323L462.028 409.147L467.237 409.925L473.487 409.945L492.24 410.111" fill="#EFEFEF" fill-opacity="0.4"/>
<path d="M284.922 410.111L303.674 409.944L309.925 409.705L318.259 409.834L323.468 409.567L331.803 409.512L338.054 409.447L352.639 408.809L355.764 408.176L357.848 407.365L359.931 405.917L364.099 402.51L366.182 400.783L367.224 399.667L368.266 398.249L369.308 396.447L370.349 394.213L371.391 391.508L372.433 388.271L373.475 384.41L374.517 379.849L376.6 368.586L378.684 354.776L380.767 338.562L384.935 303.806L387.018 290.621L390.143 271.897L391.185 266.509L392.227 262.117L393.269 258.848L394.311 256.59L395.352 255.002L396.394 253.752L397.436 252.888L398.478 252.908L399.52 254.362L400.561 257.354L402.645 266.038L407.854 289.803L416.188 330.872L419.314 345.685L421.397 356.452L423.481 365.39L425.565 372.445L427.648 378.176L431.815 387.732L433.899 392.595L435.983 396.444L438.066 399.439L439.108 400.575L441.192 402.15L444.317 404.126L448.484 407.043L450.568 408.027L452.651 408.64L455.777 409.213L457.86 409.323L462.028 409.147L467.237 409.925L473.487 409.945L492.24 410.111" stroke="#EFEFEF" stroke-linecap="square"/>
</g>
<mask id="mask2_230_9598" style="mask-type:luminance" maskUnits="userSpaceOnUse" x="76" y="55" width="477" height="356">
<path d="M552.957 55.2959H76.7969V410.112H552.957V55.2959Z" fill="white"/>
</mask>
<g mask="url(#mask2_230_9598)">
<path d="M261.406 410.112L272.485 409.97L277.409 409.648L279.871 409.182L282.333 408.273L284.795 406.797L287.257 404.723L289.719 401.981L290.95 400.3L292.181 398.367L294.643 393.651L297.105 387.828L299.567 381.171L302.029 373.88L310.646 346.915L316.801 329.76L319.263 323.756L321.725 318.67L322.956 316.575L324.187 314.815L325.418 313.38L326.648 312.236L327.879 311.344L329.11 310.683L330.341 310.262L331.572 310.122L332.803 310.317L334.034 310.887L335.265 311.824L337.727 314.478L343.882 322.08L345.113 324.006L347.575 328.753L351.268 336.421L354.961 343.305L357.423 348.686L362.347 360.935L366.04 369.838L368.502 374.766L370.964 378.779L377.119 387.887L379.581 390.888L382.043 393.143L388.198 397.818L391.891 400.358L394.353 401.766L396.815 402.771L404.201 405.001L411.586 406.938L415.279 407.467L421.434 408.115L427.589 409.065L432.513 409.444L441.13 409.578L448.516 409.683L455.902 409.978L479.291 410.112L506.372 410.112" fill="#EFEFEF" fill-opacity="0.4"/>
<path d="M261.406 410.112L272.485 409.97L277.409 409.648L279.871 409.182L282.333 408.273L284.795 406.797L287.257 404.723L289.719 401.981L290.95 400.3L292.181 398.367L294.643 393.651L297.105 387.828L299.567 381.171L302.029 373.88L310.646 346.915L316.801 329.76L319.263 323.756L321.725 318.67L322.956 316.575L324.187 314.815L325.418 313.38L326.648 312.236L327.879 311.344L329.11 310.683L330.341 310.262L331.572 310.122L332.803 310.317L334.034 310.887L335.265 311.824L337.727 314.478L343.882 322.08L345.113 324.006L347.575 328.753L351.268 336.421L354.961 343.305L357.423 348.686L362.347 360.935L366.04 369.838L368.502 374.766L370.964 378.779L377.119 387.887L379.581 390.888L382.043 393.143L388.198 397.818L391.891 400.358L394.353 401.766L396.815 402.771L404.201 405.001L411.586 406.938L415.279 407.467L421.434 408.115L427.589 409.065L432.513 409.444L441.13 409.578L448.516 409.683L455.902 409.978L479.291 410.112L506.372 410.112" stroke="#EFEFEF" stroke-linecap="square"/>
</g>
<mask id="mask3_230_9598" style="mask-type:luminance" maskUnits="userSpaceOnUse" x="76" y="55" width="477" height="356">
<path d="M552.957 55.2959H76.7969V410.112H552.957V55.2959Z" fill="white"/>
</mask>
<g mask="url(#mask3_230_9598)">
<path d="M258.664 410.112L279.455 409.958L285.57 409.671L289.239 409.244L291.685 408.744L294.131 408.008L296.577 406.975L299.023 405.546L301.469 403.593L303.915 401.086L307.585 396.663L311.254 391.666L319.815 378.795L323.484 373.726L325.93 369.843L329.599 363.286L333.268 356.707L335.714 352.883L338.16 349.707L341.829 345.771L345.498 342.214L347.944 340.321L349.167 339.658L350.39 339.219L351.613 338.997L354.059 338.982L356.505 338.969L357.728 338.778L360.174 337.977L363.843 336.497L366.289 335.957L368.735 335.917L371.181 336.258L373.627 336.949L376.073 338.137L378.519 339.905L383.411 344.258L385.857 346.587L388.303 349.365L390.749 352.822L393.195 356.871L398.087 365.835L402.979 374.768L405.425 378.556L409.095 383.384L418.879 395.595L421.325 398.062L423.771 400.089L426.217 401.776L429.886 403.852L433.555 405.444L437.224 406.646L440.893 407.495L447.008 408.494L453.123 409.346L458.015 409.641L470.245 410.013L487.367 410.078L502.043 410.112" fill="#EFEFEF" fill-opacity="0.4"/>
<path d="M258.664 410.112L279.455 409.958L285.57 409.671L289.239 409.244L291.685 408.744L294.131 408.008L296.577 406.975L299.023 405.546L301.469 403.593L303.915 401.086L307.585 396.663L311.254 391.666L319.815 378.795L323.484 373.726L325.93 369.843L329.599 363.286L333.268 356.707L335.714 352.883L338.16 349.707L341.829 345.771L345.498 342.214L347.944 340.321L349.167 339.658L350.39 339.219L351.613 338.997L354.059 338.982L356.505 338.969L357.728 338.778L360.174 337.977L363.843 336.497L366.289 335.957L368.735 335.917L371.181 336.258L373.627 336.949L376.073 338.137L378.519 339.905L383.411 344.258L385.857 346.587L388.303 349.365L390.749 352.822L393.195 356.871L398.087 365.835L402.979 374.768L405.425 378.556L409.095 383.384L418.879 395.595L421.325 398.062L423.771 400.089L426.217 401.776L429.886 403.852L433.555 405.444L437.224 406.646L440.893 407.495L447.008 408.494L453.123 409.346L458.015 409.641L470.245 410.013L487.367 410.078L502.043 410.112" stroke="#EFEFEF" stroke-linecap="square"/>
</g>
<mask id="mask4_230_9598" style="mask-type:luminance" maskUnits="userSpaceOnUse" x="76" y="55" width="477" height="356">
<path d="M552.957 55.2959H76.7969V410.112H552.957V55.2959Z" fill="white"/>
</mask>
<g mask="url(#mask4_230_9598)">
<path d="M247.352 410.112L262.064 409.987L267.414 409.693L271.426 409.137L274.101 408.498L276.776 407.519L279.451 406.015L280.789 404.991L282.126 403.731L283.464 402.184L284.801 400.29L286.139 397.984L287.476 395.2L288.814 391.88L290.151 387.981L291.489 383.475L292.826 378.356L295.501 366.333L298.176 352.205L304.864 313.902L306.201 307.315L307.539 301.571L308.876 296.838L310.214 293.261L311.551 290.963L312.889 290.021L314.226 290.448L315.564 292.165L316.901 295.008L318.239 298.748L320.914 307.936L326.264 328.69L330.276 344.066L332.951 353.217L335.626 360.864L336.964 364.029L338.301 366.742L339.639 369.023L340.976 370.916L342.314 372.493L344.989 375.037L349.001 378.28L353.013 381.145L355.688 382.72L358.363 383.845L359.701 384.171L362.376 384.335L366.388 383.923L370.401 383.64L374.413 383.661L378.426 383.975L383.776 384.658L387.788 385.464L390.463 386.194L393.138 387.264L395.813 388.885L398.488 391.001L409.188 400.263L411.863 401.993L415.876 404.125L419.888 405.896L423.901 407.322L427.913 408.399L431.926 409.13L435.938 409.508L442.625 409.635L458.675 409.932L513.513 410.112" fill="#EFEFEF" fill-opacity="0.4"/>
<path d="M247.352 410.112L262.064 409.987L267.414 409.693L271.426 409.137L274.101 408.498L276.776 407.519L279.451 406.015L280.789 404.991L282.126 403.731L283.464 402.184L284.801 400.29L286.139 397.984L287.476 395.2L288.814 391.88L290.151 387.981L291.489 383.475L292.826 378.356L295.501 366.333L298.176 352.205L304.864 313.902L306.201 307.315L307.539 301.571L308.876 296.838L310.214 293.261L311.551 290.963L312.889 290.021L314.226 290.448L315.564 292.165L316.901 295.008L318.239 298.748L320.914 307.936L326.264 328.69L330.276 344.066L332.951 353.217L335.626 360.864L336.964 364.029L338.301 366.742L339.639 369.023L340.976 370.916L342.314 372.493L344.989 375.037L349.001 378.28L353.013 381.145L355.688 382.72L358.363 383.845L359.701 384.171L362.376 384.335L366.388 383.923L370.401 383.64L374.413 383.661L378.426 383.975L383.776 384.658L387.788 385.464L390.463 386.194L393.138 387.264L395.813 388.885L398.488 391.001L409.188 400.263L411.863 401.993L415.876 404.125L419.888 405.896L423.901 407.322L427.913 408.399L431.926 409.13L435.938 409.508L442.625 409.635L458.675 409.932L513.513 410.112" stroke="#EFEFEF" stroke-linecap="square"/>
</g>
<mask id="mask5_230_9598" style="mask-type:luminance" maskUnits="userSpaceOnUse" x="76" y="55" width="477" height="356">
<path d="M552.957 55.2959H76.7969V410.112H552.957V55.2959Z" fill="white"/>
</mask>
<g mask="url(#mask5_230_9598)">
<path d="M277.289 410.111L285.135 409.953L291.86 409.716L295.223 409.518L307.552 407.772L310.914 407.141L313.156 406.383L315.398 405.329L317.639 404.042L325.485 398.937L327.727 397.51L328.848 396.465L329.969 395.108L332.21 391.631L335.573 386.242L341.177 378.351L343.419 374.335L345.661 369.051L347.902 362.471L351.265 351.295L356.869 331.96L359.111 322.611L363.594 302.534L365.836 294.645L368.077 288.393L369.198 285.958L370.319 284.196L371.44 283.261L372.561 283.173L373.682 283.775L377.044 286.988L378.165 288.129L379.286 289.549L380.407 291.482L381.528 294.073L382.648 297.374L383.769 301.37L386.011 311.106L391.615 337.391L398.34 365.424L400.582 374.169L401.703 377.844L403.944 383.758L406.186 388.435L408.428 392.341L410.669 395.688L412.911 398.64L415.153 401.228L417.395 403.267L419.636 404.641L424.12 406.584L426.361 407.346L430.845 408.447L434.207 409.008L439.811 409.605L445.416 409.864L453.262 410.015L500.337 410.111" fill="#EFEFEF" fill-opacity="0.4"/>
<path d="M277.289 410.111L285.135 409.953L291.86 409.716L295.223 409.518L307.552 407.772L310.914 407.141L313.156 406.383L315.398 405.329L317.639 404.042L325.485 398.937L327.727 397.51L328.848 396.465L329.969 395.108L332.21 391.631L335.573 386.242L341.177 378.351L343.419 374.335L345.661 369.051L347.902 362.471L351.265 351.295L356.869 331.96L359.111 322.611L363.594 302.534L365.836 294.645L368.077 288.393L369.198 285.958L370.319 284.196L371.44 283.261L372.561 283.173L373.682 283.775L377.044 286.988L378.165 288.129L379.286 289.549L380.407 291.482L381.528 294.073L382.648 297.374L383.769 301.37L386.011 311.106L391.615 337.391L398.34 365.424L400.582 374.169L401.703 377.844L403.944 383.758L406.186 388.435L408.428 392.341L410.669 395.688L412.911 398.64L415.153 401.228L417.395 403.267L419.636 404.641L424.12 406.584L426.361 407.346L430.845 408.447L434.207 409.008L439.811 409.605L445.416 409.864L453.262 410.015L500.337 410.111" stroke="#EFEFEF" stroke-linecap="square"/>
</g>
<mask id="mask6_230_9598" style="mask-type:luminance" maskUnits="userSpaceOnUse" x="76" y="55" width="477" height="356">
<path d="M552.957 55.2959H76.7969V410.112H552.957V55.2959Z" fill="white"/>
</mask>
<g mask="url(#mask6_230_9598)">
<path d="M282.148 410.112L296.071 409.964L301.872 409.66L311.153 408.786L313.474 408.26L316.954 407.104L321.595 405.268L325.075 403.451L330.876 400.005L334.357 397.507L342.478 391.022L348.279 387.134L351.76 384.575L358.721 380.021L362.201 376.777L364.522 374.323L366.842 371.254L369.163 367.299L377.284 352.078L379.604 348.591L381.925 345.913L385.405 342.315L387.726 339.141L390.046 335.093L392.366 330.251L395.847 321.907L399.327 313.553L401.648 308.923L403.968 305.401L405.128 304.028L406.289 302.926L407.449 302.168L408.609 301.878L409.769 302.195L410.929 303.236L412.089 305.078L413.25 307.755L414.41 311.266L415.57 315.56L417.89 325.987L422.531 348.436L424.852 358.2L429.492 375.906L431.813 383.838L434.133 390.566L436.453 396.049L438.774 400.322L439.934 401.989L441.094 403.354L442.254 404.454L444.575 406.089L446.895 407.309L449.215 408.241L451.536 408.831L455.016 409.263L460.817 409.68L470.099 409.949L475.9 410.104L513.026 410.112" fill="#EFEFEF" fill-opacity="0.4"/>
<path d="M282.148 410.112L296.071 409.964L301.872 409.66L311.153 408.786L313.474 408.26L316.954 407.104L321.595 405.268L325.075 403.451L330.876 400.005L334.357 397.507L342.478 391.022L348.279 387.134L351.76 384.575L358.721 380.021L362.201 376.777L364.522 374.323L366.842 371.254L369.163 367.299L377.284 352.078L379.604 348.591L381.925 345.913L385.405 342.315L387.726 339.141L390.046 335.093L392.366 330.251L395.847 321.907L399.327 313.553L401.648 308.923L403.968 305.401L405.128 304.028L406.289 302.926L407.449 302.168L408.609 301.878L409.769 302.195L410.929 303.236L412.089 305.078L413.25 307.755L414.41 311.266L415.57 315.56L417.89 325.987L422.531 348.436L424.852 358.2L429.492 375.906L431.813 383.838L434.133 390.566L436.453 396.049L438.774 400.322L439.934 401.989L441.094 403.354L442.254 404.454L444.575 406.089L446.895 407.309L449.215 408.241L451.536 408.831L455.016 409.263L460.817 409.68L470.099 409.949L475.9 410.104L513.026 410.112" stroke="#EFEFEF" stroke-linecap="square"/>
</g>
<mask id="mask7_230_9598" style="mask-type:luminance" maskUnits="userSpaceOnUse" x="76" y="55" width="477" height="356">
<path d="M552.957 55.2959H76.7969V410.112H552.957V55.2959Z" fill="white"/>
</mask>
<g mask="url(#mask7_230_9598)">
<path d="M250.32 410.112L263.029 409.992L272.913 409.559L277.149 409.307L279.973 408.925L282.797 408.266L287.033 406.853L291.27 405.059L294.094 403.514L296.918 401.568L299.742 399.067L301.154 397.533L302.566 395.765L303.978 393.725L305.39 391.378L306.802 388.702L309.626 382.424L313.862 371.677L318.098 361.114L320.923 354.813L323.747 349.226L326.571 344.258L329.395 340.054L330.807 338.368L332.219 337.021L333.631 336.033L335.043 335.408L336.455 335.129L337.867 335.155L340.691 335.804L343.515 336.557L349.163 337.449L350.575 337.985L351.987 338.756L359.048 343.436L363.284 345.932L366.108 348.188L368.932 351.12L373.168 355.88L377.404 359.962L381.64 364.15L387.289 369.994L397.173 379.638L404.233 387.665L407.057 390.326L411.293 393.908L415.529 397.126L421.178 400.871L425.414 403.254L429.65 405.165L432.474 406.131L435.298 406.783L440.946 407.594L455.067 409.239L463.539 409.482L480.483 409.931L531.317 410.112" fill="#EFEFEF" fill-opacity="0.4"/>
<path d="M250.32 410.112L263.029 409.992L272.913 409.559L277.149 409.307L279.973 408.925L282.797 408.266L287.033 406.853L291.27 405.059L294.094 403.514L296.918 401.568L299.742 399.067L301.154 397.533L302.566 395.765L303.978 393.725L305.39 391.378L306.802 388.702L309.626 382.424L313.862 371.677L318.098 361.114L320.923 354.813L323.747 349.226L326.571 344.258L329.395 340.054L330.807 338.368L332.219 337.021L333.631 336.033L335.043 335.408L336.455 335.129L337.867 335.155L340.691 335.804L343.515 336.557L349.163 337.449L350.575 337.985L351.987 338.756L359.048 343.436L363.284 345.932L366.108 348.188L368.932 351.12L373.168 355.88L377.404 359.962L381.64 364.15L387.289 369.994L397.173 379.638L404.233 387.665L407.057 390.326L411.293 393.908L415.529 397.126L421.178 400.871L425.414 403.254L429.65 405.165L432.474 406.131L435.298 406.783L440.946 407.594L455.067 409.239L463.539 409.482L480.483 409.931L531.317 410.112" stroke="#EFEFEF" stroke-linecap="square"/>
</g>
<mask id="mask8_230_9598" style="mask-type:luminance" maskUnits="userSpaceOnUse" x="76" y="55" width="477" height="356">
<path d="M552.957 55.2959H76.7969V410.112H552.957V55.2959Z" fill="white"/>
</mask>
<g mask="url(#mask8_230_9598)">
<path d="M287.914 410.111L306.874 409.897L311.183 409.574L315.493 409.74L318.078 409.133L320.664 409.159L322.387 409.156L327.558 408.529L335.315 408.281L337.038 407.858L340.486 407.535L342.209 407.676L343.071 407.588L346.518 406.572L348.242 406.606L349.104 406.363L349.966 405.818L351.689 404.154L355.137 400.469L355.999 398.788L356.86 396.377L358.584 389.844L360.308 381.197L362.031 369.737L362.893 362.594L363.755 353.845L365.479 330.683L367.202 300.844L369.788 246.564L371.511 211.789L374.097 169.528L375.821 145.904L376.682 137.96L377.544 133.44L378.406 132.772L379.268 135.887L380.13 142.358L380.992 152.117L381.853 165.053L383.577 196.791L387.024 264.527L389.61 307.413L391.334 330.114L393.057 348.035L394.781 361.712L396.505 372.617L398.228 382.344L399.09 386.586L399.952 389.756L400.814 391.765L402.537 394.808L405.123 401.512L405.985 402.804L406.847 403.467L409.432 404.522L411.156 405.9L412.017 406.605L412.879 407.094L415.465 408.103L417.188 408.946L418.912 409.402L420.636 409.551L426.669 409.633L429.254 409.862L432.701 409.871L436.149 409.84L440.458 410.034L455.971 410.013L459.418 410.11" fill="#EFEFEF" fill-opacity="0.4"/>
<path d="M287.914 410.111L306.874 409.897L311.183 409.574L315.493 409.74L318.078 409.133L320.664 409.159L322.387 409.156L327.558 408.529L335.315 408.281L337.038 407.858L340.486 407.535L342.209 407.676L343.071 407.588L346.518 406.572L348.242 406.606L349.104 406.363L349.966 405.818L351.689 404.154L355.137 400.469L355.999 398.788L356.86 396.377L358.584 389.844L360.308 381.197L362.031 369.737L362.893 362.594L363.755 353.845L365.479 330.683L367.202 300.844L369.788 246.564L371.511 211.789L374.097 169.528L375.821 145.904L376.682 137.96L377.544 133.44L378.406 132.772L379.268 135.887L380.13 142.358L380.992 152.117L381.853 165.053L383.577 196.791L387.024 264.527L389.61 307.413L391.334 330.114L393.057 348.035L394.781 361.712L396.505 372.617L398.228 382.344L399.09 386.586L399.952 389.756L400.814 391.765L402.537 394.808L405.123 401.512L405.985 402.804L406.847 403.467L409.432 404.522L411.156 405.9L412.017 406.605L412.879 407.094L415.465 408.103L417.188 408.946L418.912 409.402L420.636 409.551L426.669 409.633L429.254 409.862L432.701 409.871L436.149 409.84L440.458 410.034L455.971 410.013L459.418 410.11" stroke="#EFEFEF" stroke-linecap="square"/>
</g>
<mask id="mask9_230_9598" style="mask-type:luminance" maskUnits="userSpaceOnUse" x="76" y="55" width="477" height="356">
<path d="M552.957 55.2959H76.7969V410.112H552.957V55.2959Z" fill="white"/>
</mask>
<g mask="url(#mask9_230_9598)">
<path d="M254.961 410.111L263.786 409.993L267.568 409.72L271.35 409.184L273.872 408.577L276.393 407.559L277.654 406.812L278.915 405.866L280.175 404.703L282.697 401.759L285.218 398.201L289 392.197L291.522 387.724L295.304 380.249L299.086 371.868L311.693 342.01L314.215 336.6L316.736 332.041L317.997 330.282L319.258 328.914L320.518 327.914L321.779 327.233L323.04 326.822L324.301 326.653L325.561 326.712L326.822 326.984L329.343 328.022L335.647 331.356L338.169 333.07L340.69 335.195L344.472 338.779L346.994 341.638L349.515 345.231L354.558 353.031L357.079 355.988L362.122 361.074L364.644 364.476L369.687 372.232L370.947 373.772L373.469 376.125L378.512 379.961L381.033 382.327L388.597 389.859L392.379 393.131L394.901 394.907L397.422 396.219L404.987 399.524L411.29 402.741L416.333 404.866L418.855 405.639L422.637 406.405L439.026 409.236L444.069 409.538L473.066 410.09L493.237 410.083L505.844 410.111" fill="#EFEFEF" fill-opacity="0.4"/>
<path d="M254.961 410.111L263.786 409.993L267.568 409.72L271.35 409.184L273.872 408.577L276.393 407.559L277.654 406.812L278.915 405.866L280.175 404.703L282.697 401.759L285.218 398.201L289 392.197L291.522 387.724L295.304 380.249L299.086 371.868L311.693 342.01L314.215 336.6L316.736 332.041L317.997 330.282L319.258 328.914L320.518 327.914L321.779 327.233L323.04 326.822L324.301 326.653L325.561 326.712L326.822 326.984L329.343 328.022L335.647 331.356L338.169 333.07L340.69 335.195L344.472 338.779L346.994 341.638L349.515 345.231L354.558 353.031L357.079 355.988L362.122 361.074L364.644 364.476L369.687 372.232L370.947 373.772L373.469 376.125L378.512 379.961L381.033 382.327L388.597 389.859L392.379 393.131L394.901 394.907L397.422 396.219L404.987 399.524L411.29 402.741L416.333 404.866L418.855 405.639L422.637 406.405L439.026 409.236L444.069 409.538L473.066 410.09L493.237 410.083L505.844 410.111" stroke="#EFEFEF" stroke-linecap="square"/>
</g>
<mask id="mask10_230_9598" style="mask-type:luminance" maskUnits="userSpaceOnUse" x="76" y="55" width="477" height="356">
<path d="M552.957 55.2959H76.7969V410.112H552.957V55.2959Z" fill="white"/>
</mask>
<g mask="url(#mask10_230_9598)">
<path d="M256.188 410.111L266.06 409.986L270.997 409.582L273.465 409.155L275.933 408.391L277.168 407.798L278.402 407.018L279.636 406.03L282.104 403.463L284.572 400.316L287.041 396.754L289.509 392.591L291.977 387.438L294.445 380.956L296.914 373.044L299.382 363.996L303.084 349.041L305.552 337.68L308.021 324.483L311.723 303.532L312.957 297.458L314.191 292.254L315.425 288.01L316.66 284.756L317.894 282.513L319.128 281.315L320.362 281.174L321.596 282.045L322.83 283.828L324.064 286.395L325.298 289.64L326.532 293.488L329.001 302.709L335.171 328.048L337.64 336.769L340.108 344.564L345.044 358.83L347.513 365.319L349.981 370.812L352.449 375.241L354.917 378.761L357.386 381.512L359.854 383.758L366.024 388.659L368.493 390.583L370.961 392.113L373.429 393.205L383.302 396.834L385.77 397.323L389.473 397.761L391.941 398.464L395.643 400.159L399.346 401.867L403.048 403.237L407.985 404.728L417.858 407.053L420.326 407.626L424.028 408.023L427.731 408.453L433.901 409.32L443.774 409.802L451.179 409.908L467.222 410.025L499.31 410.11L501.778 410.111" fill="#EFEFEF" fill-opacity="0.4"/>
<path d="M256.188 410.111L266.06 409.986L270.997 409.582L273.465 409.155L275.933 408.391L277.168 407.798L278.402 407.018L279.636 406.03L282.104 403.463L284.572 400.316L287.041 396.754L289.509 392.591L291.977 387.438L294.445 380.956L296.914 373.044L299.382 363.996L303.084 349.041L305.552 337.68L308.021 324.483L311.723 303.532L312.957 297.458L314.191 292.254L315.425 288.01L316.66 284.756L317.894 282.513L319.128 281.315L320.362 281.174L321.596 282.045L322.83 283.828L324.064 286.395L325.298 289.64L326.532 293.488L329.001 302.709L335.171 328.048L337.64 336.769L340.108 344.564L345.044 358.83L347.513 365.319L349.981 370.812L352.449 375.241L354.917 378.761L357.386 381.512L359.854 383.758L366.024 388.659L368.493 390.583L370.961 392.113L373.429 393.205L383.302 396.834L385.77 397.323L389.473 397.761L391.941 398.464L395.643 400.159L399.346 401.867L403.048 403.237L407.985 404.728L417.858 407.053L420.326 407.626L424.028 408.023L427.731 408.453L433.901 409.32L443.774 409.802L451.179 409.908L467.222 410.025L499.31 410.11L501.778 410.111" stroke="#EFEFEF" stroke-linecap="square"/>
</g>
<mask id="mask11_230_9598" style="mask-type:luminance" maskUnits="userSpaceOnUse" x="76" y="55" width="477" height="356">
<path d="M552.957 55.2959H76.7969V410.112H552.957V55.2959Z" fill="white"/>
</mask>
<g mask="url(#mask11_230_9598)">
<path d="M258.852 410.112L269.565 409.96L276.708 409.492L281.469 408.999L283.85 408.555L286.231 407.893L288.611 406.983L290.992 405.756L293.373 404.035L294.563 402.912L295.754 401.574L298.135 398.183L300.515 393.906L304.087 386.459L307.658 378.183L311.229 368.786L317.181 352.578L319.562 346.79L321.943 341.914L323.133 339.923L324.323 338.237L326.704 335.591L330.275 332.479L332.656 330.716L333.847 330.03L335.037 329.548L336.227 329.315L337.418 329.36L338.608 329.683L339.799 330.261L342.179 331.998L344.56 334.226L346.941 336.882L349.322 340.064L355.274 348.85L357.654 351.65L360.035 353.806L371.939 362.707L377.891 366.868L389.795 376.161L394.557 379.78L398.128 382.989L402.889 387.379L406.461 390.237L411.222 393.976L415.984 398.326L418.365 400.386L420.745 402.087L423.126 403.45L426.697 405.166L430.269 406.574L432.649 407.229L438.601 408.348L443.363 409.062L448.125 409.392L460.028 409.875L469.552 410.086L495.74 410.112" fill="#EFEFEF" fill-opacity="0.4"/>
<path d="M258.852 410.112L269.565 409.96L276.708 409.492L281.469 408.999L283.85 408.555L286.231 407.893L288.611 406.983L290.992 405.756L293.373 404.035L294.563 402.912L295.754 401.574L298.135 398.183L300.515 393.906L304.087 386.459L307.658 378.183L311.229 368.786L317.181 352.578L319.562 346.79L321.943 341.914L323.133 339.923L324.323 338.237L326.704 335.591L330.275 332.479L332.656 330.716L333.847 330.03L335.037 329.548L336.227 329.315L337.418 329.36L338.608 329.683L339.799 330.261L342.179 331.998L344.56 334.226L346.941 336.882L349.322 340.064L355.274 348.85L357.654 351.65L360.035 353.806L371.939 362.707L377.891 366.868L389.795 376.161L394.557 379.78L398.128 382.989L402.889 387.379L406.461 390.237L411.222 393.976L415.984 398.326L418.365 400.386L420.745 402.087L423.126 403.45L426.697 405.166L430.269 406.574L432.649 407.229L438.601 408.348L443.363 409.062L448.125 409.392L460.028 409.875L469.552 410.086L495.74 410.112" stroke="#EFEFEF" stroke-linecap="square"/>
</g>
<mask id="mask12_230_9598" style="mask-type:luminance" maskUnits="userSpaceOnUse" x="76" y="55" width="477" height="356">
<path d="M552.957 55.2959H76.7969V410.112H552.957V55.2959Z" fill="white"/>
</mask>
<g mask="url(#mask12_230_9598)">
<path d="M289.859 410.111L296.285 409.973L300.569 409.899L304.852 409.94L313.42 409.651L316.633 409.707L318.775 409.295L321.987 408.409L327.342 407.467L330.555 406.487L332.697 406.283L335.91 406.076L340.193 405.615L342.335 405.046L344.477 404.321L347.69 403.645L348.761 403.113L349.832 402.34L350.903 401.345L353.044 398.806L355.186 395.709L356.257 393.553L357.328 390.666L358.399 387L359.47 382.564L360.541 377.252L361.612 370.892L363.754 355.163L365.896 337.006L369.108 306.57L372.321 274.54L373.392 265.263L374.463 257.594L375.534 251.618L377.676 242.266L378.747 238.103L379.818 235.092L380.889 233.922L381.96 234.486L383.031 236.325L384.101 239.247L385.172 243.229L387.314 253.261L389.456 264.63L391.598 277.464L393.74 291.6L399.095 329.692L401.236 340.122L402.307 345.424L406.591 369.66L408.733 378.709L410.875 386.24L411.946 389.271L414.088 394.035L416.229 397.906L418.371 400.942L420.513 403.567L421.584 404.705L422.655 405.624L424.797 406.87L428.01 408.1L430.152 408.722L432.293 409.129L435.506 409.36L448.357 410.025L454.783 409.9L460.138 410.093L481.556 410.052L493.337 410.097L501.904 410.109L502.975 410.111" fill="#EFEFEF" fill-opacity="0.4"/>
<path d="M289.859 410.111L296.285 409.973L300.569 409.899L304.852 409.94L313.42 409.651L316.633 409.707L318.775 409.295L321.987 408.409L327.342 407.467L330.555 406.487L332.697 406.283L335.91 406.076L340.193 405.615L342.335 405.046L344.477 404.321L347.69 403.645L348.761 403.113L349.832 402.34L350.903 401.345L353.044 398.806L355.186 395.709L356.257 393.553L357.328 390.666L358.399 387L359.47 382.564L360.541 377.252L361.612 370.892L363.754 355.163L365.896 337.006L369.108 306.57L372.321 274.54L373.392 265.263L374.463 257.594L375.534 251.618L377.676 242.266L378.747 238.103L379.818 235.092L380.889 233.922L381.96 234.486L383.031 236.325L384.101 239.247L385.172 243.229L387.314 253.261L389.456 264.63L391.598 277.464L393.74 291.6L399.095 329.692L401.236 340.122L402.307 345.424L406.591 369.66L408.733 378.709L410.875 386.24L411.946 389.271L414.088 394.035L416.229 397.906L418.371 400.942L420.513 403.567L421.584 404.705L422.655 405.624L424.797 406.87L428.01 408.1L430.152 408.722L432.293 409.129L435.506 409.36L448.357 410.025L454.783 409.9L460.138 410.093L481.556 410.052L493.337 410.097L501.904 410.109L502.975 410.111" stroke="#EFEFEF" stroke-linecap="square"/>
</g>
<mask id="mask13_230_9598" style="mask-type:luminance" maskUnits="userSpaceOnUse" x="76" y="55" width="477" height="356">
<path d="M552.957 55.2959H76.7969V410.112H552.957V55.2959Z" fill="white"/>
</mask>
<g mask="url(#mask13_230_9598)">
<path d="M263.875 410.112L278.91 409.991L285.85 409.675L289.319 409.284L292.789 408.552L296.259 407.447L300.885 405.638L304.354 403.951L307.824 401.781L310.137 400.061L312.45 398.072L314.763 395.746L317.076 393.073L324.016 384.537L326.329 382.24L333.268 375.715L337.894 370.726L341.364 366.55L347.147 359.35L349.46 356.965L351.773 355.107L358.712 350.451L363.339 346.728L365.652 345.35L370.278 342.928L373.748 340.536L376.061 339.022L377.217 338.498L378.374 338.211L379.53 338.19L380.687 338.433L381.843 338.912L384.157 340.418L386.47 342.401L389.939 345.867L400.348 356.88L403.818 359.914L408.444 363.87L410.757 366.281L413.07 369.191L422.323 381.858L425.793 385.682L439.671 400.242L441.984 402.246L444.297 403.939L446.61 405.265L448.924 406.262L452.393 407.355L457.019 408.454L460.489 409.019L466.272 409.534L474.368 409.975L483.62 410.086L494.029 410.112" fill="#EFEFEF" fill-opacity="0.4"/>
<path d="M263.875 410.112L278.91 409.991L285.85 409.675L289.319 409.284L292.789 408.552L296.259 407.447L300.885 405.638L304.354 403.951L307.824 401.781L310.137 400.061L312.45 398.072L314.763 395.746L317.076 393.073L324.016 384.537L326.329 382.24L333.268 375.715L337.894 370.726L341.364 366.55L347.147 359.35L349.46 356.965L351.773 355.107L358.712 350.451L363.339 346.728L365.652 345.35L370.278 342.928L373.748 340.536L376.061 339.022L377.217 338.498L378.374 338.211L379.53 338.19L380.687 338.433L381.843 338.912L384.157 340.418L386.47 342.401L389.939 345.867L400.348 356.88L403.818 359.914L408.444 363.87L410.757 366.281L413.07 369.191L422.323 381.858L425.793 385.682L439.671 400.242L441.984 402.246L444.297 403.939L446.61 405.265L448.924 406.262L452.393 407.355L457.019 408.454L460.489 409.019L466.272 409.534L474.368 409.975L483.62 410.086L494.029 410.112" stroke="#EFEFEF" stroke-linecap="square"/>
</g>
<mask id="mask14_230_9598" style="mask-type:luminance" maskUnits="userSpaceOnUse" x="76" y="55" width="477" height="356">
<path d="M552.957 55.2959H76.7969V410.112H552.957V55.2959Z" fill="white"/>
</mask>
<g mask="url(#mask14_230_9598)">
<path d="M98.4375 410.112L212.855 409.949L218.773 409.67L222.718 409.283L226.664 408.468L228.637 407.821L230.609 406.99L232.582 405.963L234.555 404.724L236.527 403.26L238.5 401.565L240.473 399.63L242.446 397.427L244.418 394.906L246.391 392.025L248.364 388.792L252.309 381.53L256.255 373.517L260.2 364.755L266.118 351.429L268.091 347.505L270.064 343.975L272.036 340.841L274.009 338.13L275.982 335.923L277.954 334.325L279.927 333.416L281.9 333.229L283.873 333.732L285.845 334.801L291.763 338.847L297.682 341.784L299.654 343.467L301.627 345.753L307.545 353.528L309.518 355.528L317.409 362.303L323.327 368.366L327.272 371.768L331.218 375.038L335.163 378.708L339.109 382.453L343.054 385.715L346.999 388.244L350.945 390.257L354.89 391.992L364.754 395.827L370.672 398.316L374.617 399.673L396.317 406.04L404.208 407.76L410.126 408.655L416.044 409.269L421.963 409.628L435.772 409.907L447.608 409.962L457.471 409.975L471.28 410.098L491.008 410.112" fill="#7EB0D5" fill-opacity="0.4"/>
<path d="M98.4375 410.112L212.855 409.949L218.773 409.67L222.718 409.283L226.664 408.468L228.637 407.821L230.609 406.99L232.582 405.963L234.555 404.724L236.527 403.26L238.5 401.565L240.473 399.63L242.446 397.427L244.418 394.906L246.391 392.025L248.364 388.792L252.309 381.53L256.255 373.517L260.2 364.755L266.118 351.429L268.091 347.505L270.064 343.975L272.036 340.841L274.009 338.13L275.982 335.923L277.954 334.325L279.927 333.416L281.9 333.229L283.873 333.732L285.845 334.801L291.763 338.847L297.682 341.784L299.654 343.467L301.627 345.753L307.545 353.528L309.518 355.528L317.409 362.303L323.327 368.366L327.272 371.768L331.218 375.038L335.163 378.708L339.109 382.453L343.054 385.715L346.999 388.244L350.945 390.257L354.89 391.992L364.754 395.827L370.672 398.316L374.617 399.673L396.317 406.04L404.208 407.76L410.126 408.655L416.044 409.269L421.963 409.628L435.772 409.907L447.608 409.962L457.471 409.975L471.28 410.098L491.008 410.112" stroke="#7EB0D5" stroke-linecap="square"/>
</g>
<path d="M535.061 411.061C535.646 410.475 535.646 409.525 535.061 408.939L525.515 399.393C524.929 398.808 523.979 398.808 523.393 399.393C522.808 399.979 522.808 400.929 523.393 401.515L531.879 410L523.393 418.485C522.808 419.071 522.808 420.021 523.393 420.607C523.979 421.192 524.929 421.192 525.515 420.607L535.061 411.061ZM79 411.5H534V408.5H79V411.5Z" fill="black"/>
</g>
<defs>
<clipPath id="clip0_230_9598">
<rect width="614.4" height="460.8" fill="white"/>
</clipPath>
</defs>
</svg>
