<svg width="615" height="461" viewBox="0 0 615 461" fill="none" xmlns="http://www.w3.org/2000/svg">
<g clip-path="url(#clip0_230_9118)">
<mask id="mask0_230_9118" style="mask-type:luminance" maskUnits="userSpaceOnUse" x="76" y="55" width="477" height="356">
<path d="M552.957 55.2959H76.7969V410.112H552.957V55.2959Z" fill="white"/>
</mask>
<g mask="url(#mask0_230_9118)">
<path d="M325.883 410.111L352.214 409.854L355.612 409.461L359.859 409.615L361.558 409.096L363.256 408.077L364.955 406.645L366.654 405.038L369.202 403.146L370.052 402.114L371.75 399.29L372.6 397.522L373.449 395.376L374.299 392.726L375.148 389.465L376.847 380.945L378.546 370.057L380.244 357.88L381.094 350.539L381.943 340.786L382.793 327.384L383.642 310.166L385.341 266.721L387.889 187.646L389.588 132.096L390.437 108.289L391.287 90.1467L392.136 78.462L392.985 72.6838L393.835 72.1924L394.684 77.7065L395.534 90.3217L397.232 129.691L403.178 270.42L404.877 297.108L406.576 318.957L408.275 336.989L409.973 350.379L412.522 365.953L414.22 374.736L415.919 381.13L418.467 388.348L420.166 392.975L421.016 394.834L421.865 396.119L424.413 398.909L425.263 399.435L426.962 400.126L427.811 400.935L429.51 403.187L430.359 403.958L436.305 407.222L437.154 407.447L439.703 407.385L441.401 407.901L443.95 408.89L445.648 409.14L448.196 409.119L450.745 409.448L455.841 409.48L464.335 409.968L470.281 409.972L494.914 410.111" fill="#EFEFEF" fill-opacity="0.4"/>
<path d="M325.883 410.111L352.214 409.854L355.612 409.461L359.859 409.615L361.558 409.096L363.256 408.077L364.955 406.645L366.654 405.038L369.202 403.146L370.052 402.114L371.75 399.29L372.6 397.522L373.449 395.376L374.299 392.726L375.148 389.465L376.847 380.945L378.546 370.057L380.244 357.88L381.094 350.539L381.943 340.786L382.793 327.384L383.642 310.166L385.341 266.721L387.889 187.646L389.588 132.096L390.437 108.289L391.287 90.1467L392.136 78.462L392.985 72.6838L393.835 72.1924L394.684 77.7065L395.534 90.3217L397.232 129.691L403.178 270.42L404.877 297.108L406.576 318.957L408.275 336.989L409.973 350.379L412.522 365.953L414.22 374.736L415.919 381.13L418.467 388.348L420.166 392.975L421.016 394.834L421.865 396.119L424.413 398.909L425.263 399.435L426.962 400.126L427.811 400.935L429.51 403.187L430.359 403.958L436.305 407.222L437.154 407.447L439.703 407.385L441.401 407.901L443.95 408.89L445.648 409.14L448.196 409.119L450.745 409.448L455.841 409.48L464.335 409.968L470.281 409.972L494.914 410.111" stroke="#EFEFEF" stroke-linecap="square"/>
</g>
<mask id="mask1_230_9118" style="mask-type:luminance" maskUnits="userSpaceOnUse" x="76" y="55" width="477" height="356">
<path d="M552.957 55.2959H76.7969V410.112H552.957V55.2959Z" fill="white"/>
</mask>
<g mask="url(#mask1_230_9118)">
<path d="M334.906 410.111L342.573 409.948L360.463 409.623L365.575 408.724L374.946 408.397L379.205 407.529L380.909 406.885L383.465 405.488L385.169 404.098L386.021 403.094L386.873 401.808L387.724 400.178L388.576 398.111L389.428 395.495L390.28 392.244L391.984 383.882L393.688 373.341L395.392 360.258L397.095 344.51L398.799 326.497L401.355 295.012L403.059 274.605L404.763 258.615L406.466 246.745L408.17 237.061L409.022 233.08L409.874 230.011L410.726 227.934L411.578 226.655L412.43 225.862L413.282 225.365L414.134 225.199L414.985 225.593L415.837 226.823L416.689 229.019L418.393 235.448L420.097 242.805L420.949 247.22L422.653 258.907L425.208 278.686L426.912 289.411L432.024 317.271L435.431 340.446L437.135 348.559L440.543 362.927L442.246 369.968L443.95 375.892L445.654 380.737L449.914 390.985L451.617 394.802L453.321 397.513L460.136 405.414L461.84 406.583L463.544 407.158L466.952 407.925L468.656 408.336L471.211 408.544L472.915 408.747L478.878 409.877L483.99 410.053L501.88 410.098L504.436 410.111" fill="#EFEFEF" fill-opacity="0.4"/>
<path d="M334.906 410.111L342.573 409.948L360.463 409.623L365.575 408.724L374.946 408.397L379.205 407.529L380.909 406.885L383.465 405.488L385.169 404.098L386.021 403.094L386.873 401.808L387.724 400.178L388.576 398.111L389.428 395.495L390.28 392.244L391.984 383.882L393.688 373.341L395.392 360.258L397.095 344.51L398.799 326.497L401.355 295.012L403.059 274.605L404.763 258.615L406.466 246.745L408.17 237.061L409.022 233.08L409.874 230.011L410.726 227.934L411.578 226.655L412.43 225.862L413.282 225.365L414.134 225.199L414.985 225.593L415.837 226.823L416.689 229.019L418.393 235.448L420.097 242.805L420.949 247.22L422.653 258.907L425.208 278.686L426.912 289.411L432.024 317.271L435.431 340.446L437.135 348.559L440.543 362.927L442.246 369.968L443.95 375.892L445.654 380.737L449.914 390.985L451.617 394.802L453.321 397.513L460.136 405.414L461.84 406.583L463.544 407.158L466.952 407.925L468.656 408.336L471.211 408.544L472.915 408.747L478.878 409.877L483.99 410.053L501.88 410.098L504.436 410.111" stroke="#EFEFEF" stroke-linecap="square"/>
</g>
<mask id="mask2_230_9118" style="mask-type:luminance" maskUnits="userSpaceOnUse" x="76" y="55" width="477" height="356">
<path d="M552.957 55.2959H76.7969V410.112H552.957V55.2959Z" fill="white"/>
</mask>
<g mask="url(#mask2_230_9118)">
<path d="M310.461 410.111L324.501 409.947L327.74 409.711L334.22 408.673L336.38 408.012L338.54 406.81L340.7 404.995L343.94 401.712L346.1 398.971L348.26 395.458L350.42 391.384L352.58 386.52L354.74 380.517L357.98 371.336L360.14 365.274L361.219 361.677L363.379 353.02L370.939 319.862L373.099 310.923L378.499 286.116L381.739 273.347L382.819 269.777L383.899 267.028L384.979 265.188L386.059 264.059L387.139 263.424L388.219 263.3L389.299 263.861L390.379 265.188L391.459 267.156L392.539 269.576L393.619 272.404L394.699 275.772L395.779 279.822L403.338 313.095L407.658 334.101L411.978 355.559L414.138 364.281L417.378 375.555L419.538 381.735L421.698 386.566L423.858 390.704L426.018 394.347L429.258 399.132L431.418 401.759L433.577 403.68L435.737 404.866L445.457 408.465L448.697 409.119L451.937 409.457L470.296 410.007L484.336 410.112L525.375 410.111" fill="#EFEFEF" fill-opacity="0.4"/>
<path d="M310.461 410.111L324.501 409.947L327.74 409.711L334.22 408.673L336.38 408.012L338.54 406.81L340.7 404.995L343.94 401.712L346.1 398.971L348.26 395.458L350.42 391.384L352.58 386.52L354.74 380.517L357.98 371.336L360.14 365.274L361.219 361.677L363.379 353.02L370.939 319.862L373.099 310.923L378.499 286.116L381.739 273.347L382.819 269.777L383.899 267.028L384.979 265.188L386.059 264.059L387.139 263.424L388.219 263.3L389.299 263.861L390.379 265.188L391.459 267.156L392.539 269.576L393.619 272.404L394.699 275.772L395.779 279.822L403.338 313.095L407.658 334.101L411.978 355.559L414.138 364.281L417.378 375.555L419.538 381.735L421.698 386.566L423.858 390.704L426.018 394.347L429.258 399.132L431.418 401.759L433.577 403.68L435.737 404.866L445.457 408.465L448.697 409.119L451.937 409.457L470.296 410.007L484.336 410.112L525.375 410.111" stroke="#EFEFEF" stroke-linecap="square"/>
</g>
<mask id="mask3_230_9118" style="mask-type:luminance" maskUnits="userSpaceOnUse" x="76" y="55" width="477" height="356">
<path d="M552.957 55.2959H76.7969V410.112H552.957V55.2959Z" fill="white"/>
</mask>
<g mask="url(#mask3_230_9118)">
<path d="M322.273 410.111L329.886 409.993L334.644 409.665L337.499 409.26L340.354 408.608L342.257 407.957L344.16 407.02L346.064 405.786L348.919 403.517L351.773 400.796L353.677 398.716L355.58 396.258L357.483 393.153L359.386 389.271L361.29 384.673L363.193 379.29L365.096 372.778L366.999 365.095L372.709 340.777L374.612 334.032L381.273 313.13L383.177 307.838L386.031 300.846L387.935 296.791L389.838 293.626L392.693 289.34L394.596 286.424L395.547 285.425L396.499 284.984L397.451 285.149L398.402 285.827L400.306 287.99L406.015 294.932L407.918 298.386L409.822 303.099L411.725 309.172L416.483 325.643L421.241 339.896L424.096 350.057L429.806 371.65L431.709 377.824L433.612 383.106L435.515 387.702L437.418 391.769L439.322 395.251L441.225 398.126L444.08 401.77L445.983 403.9L447.886 405.553L449.789 406.664L452.644 407.802L454.547 408.353L456.451 408.641L461.209 409.077L465.015 409.641L468.822 409.849L480.241 410.021L488.805 410.042L500.225 410.088L511.644 410.111" fill="#EFEFEF" fill-opacity="0.4"/>
<path d="M322.273 410.111L329.886 409.993L334.644 409.665L337.499 409.26L340.354 408.608L342.257 407.957L344.16 407.02L346.064 405.786L348.919 403.517L351.773 400.796L353.677 398.716L355.58 396.258L357.483 393.153L359.386 389.271L361.29 384.673L363.193 379.29L365.096 372.778L366.999 365.095L372.709 340.777L374.612 334.032L381.273 313.13L383.177 307.838L386.031 300.846L387.935 296.791L389.838 293.626L392.693 289.34L394.596 286.424L395.547 285.425L396.499 284.984L397.451 285.149L398.402 285.827L400.306 287.99L406.015 294.932L407.918 298.386L409.822 303.099L411.725 309.172L416.483 325.643L421.241 339.896L424.096 350.057L429.806 371.65L431.709 377.824L433.612 383.106L435.515 387.702L437.418 391.769L439.322 395.251L441.225 398.126L444.08 401.77L445.983 403.9L447.886 405.553L449.789 406.664L452.644 407.802L454.547 408.353L456.451 408.641L461.209 409.077L465.015 409.641L468.822 409.849L480.241 410.021L488.805 410.042L500.225 410.088L511.644 410.111" stroke="#EFEFEF" stroke-linecap="square"/>
</g>
<mask id="mask4_230_9118" style="mask-type:luminance" maskUnits="userSpaceOnUse" x="76" y="55" width="477" height="356">
<path d="M552.957 55.2959H76.7969V410.112H552.957V55.2959Z" fill="white"/>
</mask>
<g mask="url(#mask4_230_9118)">
<path d="M291.195 410.112L312.915 409.98L317.741 409.731L321.361 409.247L323.775 408.656L326.188 407.771L328.601 406.505L331.014 404.698L333.428 402.186L335.841 398.946L338.254 395.022L340.668 390.249L343.081 384.286L345.494 377.046L349.114 364.726L363.594 314.144L366.007 307.179L368.42 301.512L369.627 299.257L370.834 297.413L372.04 295.982L373.247 294.957L374.453 294.338L375.66 294.137L376.867 294.386L378.073 295.136L379.28 296.445L380.487 298.365L381.693 300.934L382.9 304.166L384.107 308.052L386.52 317.608L388.933 328.986L393.76 352.429L396.173 361.73L397.38 365.457L398.586 368.594L399.793 371.202L401 373.344L402.206 375.078L403.413 376.452L404.62 377.507L405.826 378.279L407.033 378.805L408.239 379.126L410.653 379.353L419.099 379.265L423.926 378.929L427.546 378.759L429.959 379.09L432.372 379.839L435.992 381.375L439.612 383.282L448.059 388.28L450.472 390.333L454.092 394.233L456.505 396.82L458.918 399.026L461.332 400.797L464.952 402.932L469.778 405.484L472.191 406.566L474.605 407.415L478.225 408.297L481.844 408.855L487.878 409.419L496.324 409.896L508.391 410.048L524.077 410.098L531.317 410.112" fill="#EFEFEF" fill-opacity="0.4"/>
<path d="M291.195 410.112L312.915 409.98L317.741 409.731L321.361 409.247L323.775 408.656L326.188 407.771L328.601 406.505L331.014 404.698L333.428 402.186L335.841 398.946L338.254 395.022L340.668 390.249L343.081 384.286L345.494 377.046L349.114 364.726L363.594 314.144L366.007 307.179L368.42 301.512L369.627 299.257L370.834 297.413L372.04 295.982L373.247 294.957L374.453 294.338L375.66 294.137L376.867 294.386L378.073 295.136L379.28 296.445L380.487 298.365L381.693 300.934L382.9 304.166L384.107 308.052L386.52 317.608L388.933 328.986L393.76 352.429L396.173 361.73L397.38 365.457L398.586 368.594L399.793 371.202L401 373.344L402.206 375.078L403.413 376.452L404.62 377.507L405.826 378.279L407.033 378.805L408.239 379.126L410.653 379.353L419.099 379.265L423.926 378.929L427.546 378.759L429.959 379.09L432.372 379.839L435.992 381.375L439.612 383.282L448.059 388.28L450.472 390.333L454.092 394.233L456.505 396.82L458.918 399.026L461.332 400.797L464.952 402.932L469.778 405.484L472.191 406.566L474.605 407.415L478.225 408.297L481.844 408.855L487.878 409.419L496.324 409.896L508.391 410.048L524.077 410.098L531.317 410.112" stroke="#EFEFEF" stroke-linecap="square"/>
</g>
<mask id="mask5_230_9118" style="mask-type:luminance" maskUnits="userSpaceOnUse" x="76" y="55" width="477" height="356">
<path d="M552.957 55.2959H76.7969V410.112H552.957V55.2959Z" fill="white"/>
</mask>
<g mask="url(#mask5_230_9118)">
<path d="M324.344 410.111L335.669 409.945L343.22 409.799L346.051 409.872L348.883 409.617L358.321 408.14L362.096 406.814L371.534 402.996L373.421 402.348L375.309 401.238L380.972 396.786L382.859 394.58L385.691 390.826L387.578 387.693L390.41 381.83L392.297 377.251L394.185 371.381L396.073 364.053L397.96 355.083L401.735 334.891L402.679 328.696L403.623 321.36L405.511 302.583L412.117 226.539L414.005 210.095L414.949 203.987L415.893 199.341L416.836 196.222L417.78 194.904L418.724 195.684L419.668 198.514L420.612 202.88L422.499 214.096L423.443 221.06L424.387 229.58L426.274 251.476L429.106 286.94L430.993 307.42L432.881 325.71L434.769 341.414L436.656 355.157L438.544 366.756L440.431 375.602L442.319 382.775L444.207 388.895L446.094 394.146L447.038 396.188L447.982 397.74L452.701 403.801L453.645 404.744L455.532 405.993L461.195 408.716L463.083 409.253L465.914 409.603L470.633 409.9L477.24 410.002L481.015 410.054L487.621 410.112L512.16 410.111" fill="#EFEFEF" fill-opacity="0.4"/>
<path d="M324.344 410.111L335.669 409.945L343.22 409.799L346.051 409.872L348.883 409.617L358.321 408.14L362.096 406.814L371.534 402.996L373.421 402.348L375.309 401.238L380.972 396.786L382.859 394.58L385.691 390.826L387.578 387.693L390.41 381.83L392.297 377.251L394.185 371.381L396.073 364.053L397.96 355.083L401.735 334.891L402.679 328.696L403.623 321.36L405.511 302.583L412.117 226.539L414.005 210.095L414.949 203.987L415.893 199.341L416.836 196.222L417.78 194.904L418.724 195.684L419.668 198.514L420.612 202.88L422.499 214.096L423.443 221.06L424.387 229.58L426.274 251.476L429.106 286.94L430.993 307.42L432.881 325.71L434.769 341.414L436.656 355.157L438.544 366.756L440.431 375.602L442.319 382.775L444.207 388.895L446.094 394.146L447.038 396.188L447.982 397.74L452.701 403.801L453.645 404.744L455.532 405.993L461.195 408.716L463.083 409.253L465.914 409.603L470.633 409.9L477.24 410.002L481.015 410.054L487.621 410.112L512.16 410.111" stroke="#EFEFEF" stroke-linecap="square"/>
</g>
<mask id="mask6_230_9118" style="mask-type:luminance" maskUnits="userSpaceOnUse" x="76" y="55" width="477" height="356">
<path d="M552.957 55.2959H76.7969V410.112H552.957V55.2959Z" fill="white"/>
</mask>
<g mask="url(#mask6_230_9118)">
<path d="M308.93 410.111L318.797 409.96L326.691 409.402L329.652 409.006L332.612 408.305L335.572 407.205L338.533 405.739L344.453 402.442L346.427 401.7L349.387 400.968L354.321 400.1L356.294 399.307L359.255 397.601L363.202 394.89L367.149 391.714L370.109 388.915L373.069 385.712L378.99 379.072L386.884 371.236L387.871 370.502L388.857 369.981L389.844 369.672L393.791 369.092L394.778 368.696L396.752 367.432L398.725 365.702L400.699 363.547L402.672 360.691L403.659 358.856L404.646 356.656L405.632 354.007L406.619 350.814L407.606 346.973L408.593 342.39L409.579 336.998L411.553 323.774L413.527 307.804L418.46 264.623L419.447 257.513L420.434 251.572L421.421 246.934L422.407 243.608L423.394 241.518L424.381 240.562L425.368 240.67L426.354 241.831L427.341 244.084L428.328 247.478L429.315 252.023L430.301 257.652L432.275 271.538L435.235 296.078L440.169 337.669L442.143 351.974L444.116 364.541L446.09 375.54L448.063 384.823L450.037 392.041L451.024 394.838L452.01 397.146L453.984 400.634L455.957 403.172L457.931 405.12L459.904 406.541L461.878 407.505L463.851 408.16L466.812 408.793L472.732 409.585L477.666 409.956L483.587 410.046L505.295 410.111" fill="#EFEFEF" fill-opacity="0.4"/>
<path d="M308.93 410.111L318.797 409.96L326.691 409.402L329.652 409.006L332.612 408.305L335.572 407.205L338.533 405.739L344.453 402.442L346.427 401.7L349.387 400.968L354.321 400.1L356.294 399.307L359.255 397.601L363.202 394.89L367.149 391.714L370.109 388.915L373.069 385.712L378.99 379.072L386.884 371.236L387.871 370.502L388.857 369.981L389.844 369.672L393.791 369.092L394.778 368.696L396.752 367.432L398.725 365.702L400.699 363.547L402.672 360.691L403.659 358.856L404.646 356.656L405.632 354.007L406.619 350.814L407.606 346.973L408.593 342.39L409.579 336.998L411.553 323.774L413.527 307.804L418.46 264.623L419.447 257.513L420.434 251.572L421.421 246.934L422.407 243.608L423.394 241.518L424.381 240.562L425.368 240.67L426.354 241.831L427.341 244.084L428.328 247.478L429.315 252.023L430.301 257.652L432.275 271.538L435.235 296.078L440.169 337.669L442.143 351.974L444.116 364.541L446.09 375.54L448.063 384.823L450.037 392.041L451.024 394.838L452.01 397.146L453.984 400.634L455.957 403.172L457.931 405.12L459.904 406.541L461.878 407.505L463.851 408.16L466.812 408.793L472.732 409.585L477.666 409.956L483.587 410.046L505.295 410.111" stroke="#EFEFEF" stroke-linecap="square"/>
</g>
<mask id="mask7_230_9118" style="mask-type:luminance" maskUnits="userSpaceOnUse" x="76" y="55" width="477" height="356">
<path d="M552.957 55.2959H76.7969V410.112H552.957V55.2959Z" fill="white"/>
</mask>
<g mask="url(#mask7_230_9118)">
<path d="M307.617 410.111L321.534 409.957L325.815 409.723L329.027 409.29L331.168 408.775L333.309 408.014L335.45 406.979L337.591 405.668L340.802 403.244L342.943 401.317L345.084 398.976L347.225 395.993L349.366 392.27L352.578 385.655L355.789 378.337L357.93 372.768L360.071 366.277L364.353 351.514L367.564 340.842L370.776 330.984L373.987 322.095L376.128 317.172L377.199 315.166L378.269 313.531L379.34 312.301L380.41 311.49L381.481 311.091L382.551 311.075L383.622 311.393L384.692 311.987L386.833 313.782L388.974 316.132L392.186 320.341L394.327 323.587L396.468 327.476L398.609 332.119L400.75 336.93L402.891 340.94L403.961 342.463L405.032 343.681L407.173 345.536L409.314 347.281L414.666 352.287L415.736 352.914L417.877 353.592L421.089 354.281L423.23 355.179L425.371 356.461L427.512 358.046L429.653 359.91L431.794 362.067L433.935 364.576L436.076 367.469L439.287 372.479L443.569 380.063L446.781 385.616L448.922 388.858L452.133 393.086L455.344 396.854L457.485 399.056L460.697 401.846L463.908 404.274L466.049 405.635L468.19 406.648L471.402 407.663L476.754 408.993L479.966 409.511L484.248 409.817L499.235 410.1L520.644 410.111" fill="#EFEFEF" fill-opacity="0.4"/>
<path d="M307.617 410.111L321.534 409.957L325.815 409.723L329.027 409.29L331.168 408.775L333.309 408.014L335.45 406.979L337.591 405.668L340.802 403.244L342.943 401.317L345.084 398.976L347.225 395.993L349.366 392.27L352.578 385.655L355.789 378.337L357.93 372.768L360.071 366.277L364.353 351.514L367.564 340.842L370.776 330.984L373.987 322.095L376.128 317.172L377.199 315.166L378.269 313.531L379.34 312.301L380.41 311.49L381.481 311.091L382.551 311.075L383.622 311.393L384.692 311.987L386.833 313.782L388.974 316.132L392.186 320.341L394.327 323.587L396.468 327.476L398.609 332.119L400.75 336.93L402.891 340.94L403.961 342.463L405.032 343.681L407.173 345.536L409.314 347.281L414.666 352.287L415.736 352.914L417.877 353.592L421.089 354.281L423.23 355.179L425.371 356.461L427.512 358.046L429.653 359.91L431.794 362.067L433.935 364.576L436.076 367.469L439.287 372.479L443.569 380.063L446.781 385.616L448.922 388.858L452.133 393.086L455.344 396.854L457.485 399.056L460.697 401.846L463.908 404.274L466.049 405.635L468.19 406.648L471.402 407.663L476.754 408.993L479.966 409.511L484.248 409.817L499.235 410.1L520.644 410.111" stroke="#EFEFEF" stroke-linecap="square"/>
</g>
<mask id="mask8_230_9118" style="mask-type:luminance" maskUnits="userSpaceOnUse" x="76" y="55" width="477" height="356">
<path d="M552.957 55.2959H76.7969V410.112H552.957V55.2959Z" fill="white"/>
</mask>
<g mask="url(#mask8_230_9118)">
<path d="M335.953 410.11L339.171 409.958L341.585 409.756L349.631 409.789L352.045 409.544L355.263 409.027L357.677 408.688L361.7 407.672L363.309 406.892L364.918 405.775L367.332 403.404L368.941 401.478L371.355 397.573L372.964 394.681L373.769 392.708L375.378 387.293L376.987 380.156L377.792 375.402L378.596 369.355L380.205 353.273L381.815 333.36L383.424 310.538L385.033 284.654L389.056 214.235L390.665 193.232L391.47 186.118L392.274 181.371L393.079 178.253L393.883 175.91L394.688 174.171L395.493 173.653L396.297 175.045L397.102 178.462L397.906 183.479L399.515 196.147L405.952 252.274L408.366 275.729L410.78 299.062L415.607 342.908L418.021 358.9L419.63 367.7L423.653 387.251L425.262 392.223L427.676 398.983L429.285 403.159L430.09 404.555L430.894 405.518L431.699 406.18L433.308 406.925L434.917 407.486L436.526 408.192L438.136 408.496L439.745 408.527L441.354 408.898L442.963 409.336L444.572 409.353L446.181 409.319L454.227 409.955L459.055 409.906L464.687 410.078L470.319 410.064L476.756 409.982L481.583 410.112L496.066 410.111" fill="#EFEFEF" fill-opacity="0.4"/>
<path d="M335.953 410.11L339.171 409.958L341.585 409.756L349.631 409.789L352.045 409.544L355.263 409.027L357.677 408.688L361.7 407.672L363.309 406.892L364.918 405.775L367.332 403.404L368.941 401.478L371.355 397.573L372.964 394.681L373.769 392.708L375.378 387.293L376.987 380.156L377.792 375.402L378.596 369.355L380.205 353.273L381.815 333.36L383.424 310.538L385.033 284.654L389.056 214.235L390.665 193.232L391.47 186.118L392.274 181.371L393.079 178.253L393.883 175.91L394.688 174.171L395.493 173.653L396.297 175.045L397.102 178.462L397.906 183.479L399.515 196.147L405.952 252.274L408.366 275.729L410.78 299.062L415.607 342.908L418.021 358.9L419.63 367.7L423.653 387.251L425.262 392.223L427.676 398.983L429.285 403.159L430.09 404.555L430.894 405.518L431.699 406.18L433.308 406.925L434.917 407.486L436.526 408.192L438.136 408.496L439.745 408.527L441.354 408.898L442.963 409.336L444.572 409.353L446.181 409.319L454.227 409.955L459.055 409.906L464.687 410.078L470.319 410.064L476.756 409.982L481.583 410.112L496.066 410.111" stroke="#EFEFEF" stroke-linecap="square"/>
</g>
<mask id="mask9_230_9118" style="mask-type:luminance" maskUnits="userSpaceOnUse" x="76" y="55" width="477" height="356">
<path d="M552.957 55.2959H76.7969V410.112H552.957V55.2959Z" fill="white"/>
</mask>
<g mask="url(#mask9_230_9118)">
<path d="M299.188 410.112L315.521 409.995L321.646 409.589L325.729 409.063L328.792 408.393L331.854 407.369L334.917 405.905L336.959 404.584L339 402.844L341.042 400.591L343.084 397.732L345.125 394.172L347.167 389.839L349.209 384.665L351.25 378.586L353.292 371.581L355.334 363.635L357.376 354.626L359.417 344.423L366.563 306.344L369.626 292.772L371.667 284.911L373.709 278.63L374.73 276.292L375.751 274.619L376.772 273.707L377.792 273.606L378.813 274.28L379.834 275.59L381.876 279.332L383.917 283.693L385.959 288.71L388.001 294.746L390.043 301.792L393.105 313.935L402.293 352.381L404.334 359.179L405.355 361.705L406.376 363.618L407.397 365.002L408.418 366.005L412.501 369.19L419.647 375.822L421.689 377.312L423.73 379.279L425.772 382.035L429.855 388.168L430.876 389.342L432.918 391.033L435.98 393.06L438.022 395.001L441.085 398.292L443.126 399.942L445.168 401.083L450.272 403.606L454.356 405.726L456.397 406.462L459.46 407.127L463.543 408.067L467.627 409.098L470.689 409.572L474.772 409.773L502.335 410.111" fill="#EFEFEF" fill-opacity="0.4"/>
<path d="M299.188 410.112L315.521 409.995L321.646 409.589L325.729 409.063L328.792 408.393L331.854 407.369L334.917 405.905L336.959 404.584L339 402.844L341.042 400.591L343.084 397.732L345.125 394.172L347.167 389.839L349.209 384.665L351.25 378.586L353.292 371.581L355.334 363.635L357.376 354.626L359.417 344.423L366.563 306.344L369.626 292.772L371.667 284.911L373.709 278.63L374.73 276.292L375.751 274.619L376.772 273.707L377.792 273.606L378.813 274.28L379.834 275.59L381.876 279.332L383.917 283.693L385.959 288.71L388.001 294.746L390.043 301.792L393.105 313.935L402.293 352.381L404.334 359.179L405.355 361.705L406.376 363.618L407.397 365.002L408.418 366.005L412.501 369.19L419.647 375.822L421.689 377.312L423.73 379.279L425.772 382.035L429.855 388.168L430.876 389.342L432.918 391.033L435.98 393.06L438.022 395.001L441.085 398.292L443.126 399.942L445.168 401.083L450.272 403.606L454.356 405.726L456.397 406.462L459.46 407.127L463.543 408.067L467.627 409.098L470.689 409.572L474.772 409.773L502.335 410.111" stroke="#EFEFEF" stroke-linecap="square"/>
</g>
<mask id="mask10_230_9118" style="mask-type:luminance" maskUnits="userSpaceOnUse" x="76" y="55" width="477" height="356">
<path d="M552.957 55.2959H76.7969V410.112H552.957V55.2959Z" fill="white"/>
</mask>
<g mask="url(#mask10_230_9118)">
<path d="M301.555 410.111L316.451 409.957L319.643 409.688L322.835 409.151L326.027 408.275L328.155 407.461L330.283 406.397L332.411 404.847L333.475 403.759L334.539 402.377L335.603 400.644L336.667 398.509L337.731 395.943L339.859 389.524L341.987 381.489L344.115 371.64L346.243 359.38L348.371 344.682L351.563 319.449L354.755 290.987L360.075 241.326L361.139 233.508L362.203 227.07L363.267 222.113L364.331 218.677L365.395 216.764L366.459 216.341L367.523 217.347L368.587 219.746L369.651 223.577L370.715 228.954L371.779 235.993L372.843 244.69L374.971 266.015L378.163 300.35L380.291 320.379L382.419 337.755L384.547 352.711L386.675 364.749L387.739 369.521L388.803 373.486L389.867 376.744L390.931 379.422L391.995 381.638L393.059 383.473L394.123 384.982L396.251 387.225L402.635 392.404L403.699 393.107L404.763 393.59L405.827 393.836L407.955 393.827L410.083 393.701L412.211 393.882L414.34 394.461L421.788 397.284L424.98 397.875L433.492 398.922L435.62 399.893L437.748 401.454L440.94 404.151L442.004 404.794L443.068 405.206L445.196 405.524L447.324 405.798L449.452 406.396L453.708 407.711L455.836 408.107L470.732 409.703L488.82 409.982L507.972 410.089L513.292 410.111" fill="#EFEFEF" fill-opacity="0.4"/>
<path d="M301.555 410.111L316.451 409.957L319.643 409.688L322.835 409.151L326.027 408.275L328.155 407.461L330.283 406.397L332.411 404.847L333.475 403.759L334.539 402.377L335.603 400.644L336.667 398.509L337.731 395.943L339.859 389.524L341.987 381.489L344.115 371.64L346.243 359.38L348.371 344.682L351.563 319.449L354.755 290.987L360.075 241.326L361.139 233.508L362.203 227.07L363.267 222.113L364.331 218.677L365.395 216.764L366.459 216.341L367.523 217.347L368.587 219.746L369.651 223.577L370.715 228.954L371.779 235.993L372.843 244.69L374.971 266.015L378.163 300.35L380.291 320.379L382.419 337.755L384.547 352.711L386.675 364.749L387.739 369.521L388.803 373.486L389.867 376.744L390.931 379.422L391.995 381.638L393.059 383.473L394.123 384.982L396.251 387.225L402.635 392.404L403.699 393.107L404.763 393.59L405.827 393.836L407.955 393.827L410.083 393.701L412.211 393.882L414.34 394.461L421.788 397.284L424.98 397.875L433.492 398.922L435.62 399.893L437.748 401.454L440.94 404.151L442.004 404.794L443.068 405.206L445.196 405.524L447.324 405.798L449.452 406.396L453.708 407.711L455.836 408.107L470.732 409.703L488.82 409.982L507.972 410.089L513.292 410.111" stroke="#EFEFEF" stroke-linecap="square"/>
</g>
<mask id="mask11_230_9118" style="mask-type:luminance" maskUnits="userSpaceOnUse" x="76" y="55" width="477" height="356">
<path d="M552.957 55.2959H76.7969V410.112H552.957V55.2959Z" fill="white"/>
</mask>
<g mask="url(#mask11_230_9118)">
<path d="M308.984 410.112L328.236 409.965L334.315 409.655L337.355 409.194L340.394 408.383L342.421 407.592L344.447 406.46L346.474 404.837L348.5 402.594L350.527 399.507L352.553 395.267L354.58 389.749L356.606 383.122L358.633 375.637L360.659 367.225L362.685 357.303L364.712 345.528L367.752 326.818L369.778 315.971L371.804 306.716L374.844 294.163L376.871 286.715L377.884 283.66L378.897 281.299L379.91 279.795L380.924 279.246L381.937 279.647L382.95 280.875L383.963 282.713L385.99 287.31L389.029 295.106L391.056 301.497L393.082 309.276L397.135 326.177L399.162 333.073L400.175 335.829L401.188 338.122L402.201 339.997L404.228 342.827L407.267 346.486L409.294 349.587L413.347 356.343L415.373 358.963L417.4 361.028L420.439 363.588L427.532 369.386L429.558 371.534L431.585 374.151L434.625 378.63L442.73 391.171L446.783 396.467L449.823 399.923L451.849 401.885L453.876 403.437L455.902 404.581L460.969 406.817L465.021 408.406L468.061 409.166L471.101 409.588L475.154 409.841L497.445 410.055L510.617 410.112" fill="#EFEFEF" fill-opacity="0.4"/>
<path d="M308.984 410.112L328.236 409.965L334.315 409.655L337.355 409.194L340.394 408.383L342.421 407.592L344.447 406.46L346.474 404.837L348.5 402.594L350.527 399.507L352.553 395.267L354.58 389.749L356.606 383.122L358.633 375.637L360.659 367.225L362.685 357.303L364.712 345.528L367.752 326.818L369.778 315.971L371.804 306.716L374.844 294.163L376.871 286.715L377.884 283.66L378.897 281.299L379.91 279.795L380.924 279.246L381.937 279.647L382.95 280.875L383.963 282.713L385.99 287.31L389.029 295.106L391.056 301.497L393.082 309.276L397.135 326.177L399.162 333.073L400.175 335.829L401.188 338.122L402.201 339.997L404.228 342.827L407.267 346.486L409.294 349.587L413.347 356.343L415.373 358.963L417.4 361.028L420.439 363.588L427.532 369.386L429.558 371.534L431.585 374.151L434.625 378.63L442.73 391.171L446.783 396.467L449.823 399.923L451.849 401.885L453.876 403.437L455.902 404.581L460.969 406.817L465.021 408.406L468.061 409.166L471.101 409.588L475.154 409.841L497.445 410.055L510.617 410.112" stroke="#EFEFEF" stroke-linecap="square"/>
</g>
<mask id="mask12_230_9118" style="mask-type:luminance" maskUnits="userSpaceOnUse" x="76" y="55" width="477" height="356">
<path d="M552.957 55.2959H76.7969V410.112H552.957V55.2959Z" fill="white"/>
</mask>
<g mask="url(#mask12_230_9118)">
<path d="M326.93 410.111L339.318 409.999L344.083 409.672L348.848 409.488L351.707 408.98L353.613 408.983L355.519 409.094L358.377 408.769L362.189 408.351L364.095 407.72L366.954 406.302L372.672 402.935L373.625 402.285L374.578 401.356L378.39 396.426L379.343 395.483L380.296 394.299L381.249 392.41L382.202 389.625L386.013 376.086L386.966 371.923L388.872 361.275L390.778 350.908L392.684 340.792L393.637 334.472L394.59 326.964L396.496 308.431L399.355 278.877L406.026 216.016L406.979 209.45L407.932 205.134L409.838 199.226L410.79 196.921L411.743 195.367L412.696 194.826L413.649 195.739L414.602 198.632L415.555 203.577L416.508 210.122L418.414 226.564L420.32 246.745L422.226 270.118L426.991 331.542L428.897 353.474L429.85 362.276L430.803 369.414L432.709 380.69L434.615 389.678L435.568 393.193L437.473 398.56L439.379 402.555L441.285 405.467L442.238 406.566L443.191 407.381L444.144 407.879L447.956 408.958L449.862 409.605L451.768 409.768L488.933 410.112L516.569 410.111" fill="#EFEFEF" fill-opacity="0.4"/>
<path d="M326.93 410.111L339.318 409.999L344.083 409.672L348.848 409.488L351.707 408.98L353.613 408.983L355.519 409.094L358.377 408.769L362.189 408.351L364.095 407.72L366.954 406.302L372.672 402.935L373.625 402.285L374.578 401.356L378.39 396.426L379.343 395.483L380.296 394.299L381.249 392.41L382.202 389.625L386.013 376.086L386.966 371.923L388.872 361.275L390.778 350.908L392.684 340.792L393.637 334.472L394.59 326.964L396.496 308.431L399.355 278.877L406.026 216.016L406.979 209.45L407.932 205.134L409.838 199.226L410.79 196.921L411.743 195.367L412.696 194.826L413.649 195.739L414.602 198.632L415.555 203.577L416.508 210.122L418.414 226.564L420.32 246.745L422.226 270.118L426.991 331.542L428.897 353.474L429.85 362.276L430.803 369.414L432.709 380.69L434.615 389.678L435.568 393.193L437.473 398.56L439.379 402.555L441.285 405.467L442.238 406.566L443.191 407.381L444.144 407.879L447.956 408.958L449.862 409.605L451.768 409.768L488.933 410.112L516.569 410.111" stroke="#EFEFEF" stroke-linecap="square"/>
</g>
<mask id="mask13_230_9118" style="mask-type:luminance" maskUnits="userSpaceOnUse" x="76" y="55" width="477" height="356">
<path d="M552.957 55.2959H76.7969V410.112H552.957V55.2959Z" fill="white"/>
</mask>
<g mask="url(#mask13_230_9118)">
<path d="M312.32 410.111L334.447 409.985L338.295 409.674L342.143 409.067L345.991 408.16L348.877 407.201L351.763 405.863L353.687 404.733L355.611 403.285L357.535 401.335L359.459 398.792L361.383 395.703L364.269 390.401L371.003 377.359L373.889 370.756L381.585 352.432L384.471 346.301L387.357 341.258L389.281 337.759L391.205 333.589L394.091 326.883L396.015 323.164L397.939 320.344L399.863 318.28L401.787 316.903L405.635 314.883L407.559 313.162L412.37 307.614L413.332 307.033L414.294 306.754L415.256 306.715L417.18 307.028L419.104 307.62L420.066 308.084L421.028 308.728L421.99 309.595L422.952 310.72L423.914 312.142L424.876 313.894L426.8 318.411L432.572 333.965L439.306 349.056L441.23 354.267L445.078 366.006L451.812 387.084L453.736 391.724L455.66 395.682L457.584 399.153L459.508 402.107L461.432 404.483L463.356 406.266L465.28 407.479L467.204 408.237L470.09 408.947L473.938 409.632L476.824 409.874L489.33 410.087L503.761 410.111" fill="#EFEFEF" fill-opacity="0.4"/>
<path d="M312.32 410.111L334.447 409.985L338.295 409.674L342.143 409.067L345.991 408.16L348.877 407.201L351.763 405.863L353.687 404.733L355.611 403.285L357.535 401.335L359.459 398.792L361.383 395.703L364.269 390.401L371.003 377.359L373.889 370.756L381.585 352.432L384.471 346.301L387.357 341.258L389.281 337.759L391.205 333.589L394.091 326.883L396.015 323.164L397.939 320.344L399.863 318.28L401.787 316.903L405.635 314.883L407.559 313.162L412.37 307.614L413.332 307.033L414.294 306.754L415.256 306.715L417.18 307.028L419.104 307.62L420.066 308.084L421.028 308.728L421.99 309.595L422.952 310.72L423.914 312.142L424.876 313.894L426.8 318.411L432.572 333.965L439.306 349.056L441.23 354.267L445.078 366.006L451.812 387.084L453.736 391.724L455.66 395.682L457.584 399.153L459.508 402.107L461.432 404.483L463.356 406.266L465.28 407.479L467.204 408.237L470.09 408.947L473.938 409.632L476.824 409.874L489.33 410.087L503.761 410.111" stroke="#EFEFEF" stroke-linecap="square"/>
</g>
<mask id="mask14_230_9118" style="mask-type:luminance" maskUnits="userSpaceOnUse" x="76" y="55" width="477" height="356">
<path d="M552.957 55.2959H76.7969V410.112H552.957V55.2959Z" fill="white"/>
</mask>
<g mask="url(#mask14_230_9118)">
<path d="M98.4375 410.112L274.03 409.958L280.156 409.611L286.281 409.042L290.364 408.412L294.448 407.541L298.532 406.211L302.615 404.247L304.657 403.002L306.699 401.506L308.74 399.706L312.824 395.415L318.949 388.541L320.991 385.774L323.033 382.527L327.116 374.833L333.242 362.736L337.325 354.839L341.409 345.594L343.451 340.919L345.492 336.787L347.534 333.413L349.576 330.752L351.618 328.631L355.701 325.241L359.785 322.122L361.827 320.98L363.868 320.657L365.91 321.26L369.994 323.425L372.036 324.367L374.077 325.718L376.119 328.098L378.161 331.686L384.286 344.923L386.328 348.394L388.37 351.19L392.453 356.089L394.495 358.801L400.62 367.83L402.662 370.46L404.704 372.741L412.871 380.735L418.996 386.633L425.122 392.86L427.163 394.569L429.205 395.973L435.331 399.615L439.414 402.241L443.498 404.323L447.581 405.935L451.665 407.286L455.748 408.322L459.832 408.985L463.915 409.292L480.25 409.956L504.751 410.112" fill="#7EB0D5" fill-opacity="0.4"/>
<path d="M98.4375 410.112L274.03 409.958L280.156 409.611L286.281 409.042L290.364 408.412L294.448 407.541L298.532 406.211L302.615 404.247L304.657 403.002L306.699 401.506L308.74 399.706L312.824 395.415L318.949 388.541L320.991 385.774L323.033 382.527L327.116 374.833L333.242 362.736L337.325 354.839L341.409 345.594L343.451 340.919L345.492 336.787L347.534 333.413L349.576 330.752L351.618 328.631L355.701 325.241L359.785 322.122L361.827 320.98L363.868 320.657L365.91 321.26L369.994 323.425L372.036 324.367L374.077 325.718L376.119 328.098L378.161 331.686L384.286 344.923L386.328 348.394L388.37 351.19L392.453 356.089L394.495 358.801L400.62 367.83L402.662 370.46L404.704 372.741L412.871 380.735L418.996 386.633L425.122 392.86L427.163 394.569L429.205 395.973L435.331 399.615L439.414 402.241L443.498 404.323L447.581 405.935L451.665 407.286L455.748 408.322L459.832 408.985L463.915 409.292L480.25 409.956L504.751 410.112" stroke="#7EB0D5" stroke-linecap="square"/>
</g>
<path d="M535.061 411.061C535.646 410.475 535.646 409.525 535.061 408.939L525.515 399.393C524.929 398.808 523.979 398.808 523.393 399.393C522.808 399.979 522.808 400.929 523.393 401.515L531.879 410L523.393 418.485C522.808 419.071 522.808 420.021 523.393 420.607C523.979 421.192 524.929 421.192 525.515 420.607L535.061 411.061ZM79 411.5H534V408.5H79V411.5Z" fill="black"/>
</g>
<defs>
<clipPath id="clip0_230_9118">
<rect width="614.4" height="460.8" fill="white"/>
</clipPath>
</defs>
</svg>
