<svg width="615" height="461" viewBox="0 0 615 461" fill="none" xmlns="http://www.w3.org/2000/svg">
<g clip-path="url(#clip0_230_9678)">
<mask id="mask0_230_9678" style="mask-type:luminance" maskUnits="userSpaceOnUse" x="76" y="55" width="477" height="356">
<path d="M552.957 55.2959H76.7969V410.112H552.957V55.2959Z" fill="white"/>
</mask>
<g mask="url(#mask0_230_9678)">
<path d="M266.047 410.111L282.06 409.9L284.348 409.442L288.923 409.553L290.067 409.627L296.929 408.976L298.073 408.854L299.217 408.581L300.361 408.053L302.648 406.405L303.792 405.939L306.08 405.183L307.224 404.46L308.367 402.831L309.511 399.695L310.655 395.795L311.799 390.887L312.943 383.418L314.086 373.135L315.23 359.264L316.374 340.492L317.518 316.486L318.662 287.961L320.949 220.233L324.381 115.109L325.524 91.3818L326.668 76.5988L327.812 72.1924L328.956 81.407L330.1 102.124L331.243 132.524L333.531 208.625L335.819 271.638L336.962 299.863L338.106 323.083L339.25 341.02L341.538 369.924L342.681 380.274L343.825 385.509L347.257 396.305L348.4 398.778L351.832 404.442L352.976 405.416L356.407 406.676L358.695 406.953L359.838 407.28L363.27 407.546L367.845 409.101L368.989 409.243L371.276 408.841L372.42 408.909L374.708 409.337L379.283 409.474L381.57 409.326L386.146 409.798L389.577 409.993L397.584 409.758L402.159 410.052L409.022 409.946L413.597 410.031L442.192 410.092L452.486 410.112L493.663 410.111" fill="#EFEFEF" fill-opacity="0.4"/>
<path d="M266.047 410.111L282.06 409.9L284.348 409.442L288.923 409.553L290.067 409.627L296.929 408.976L298.073 408.854L299.217 408.581L300.361 408.053L302.648 406.405L303.792 405.939L306.08 405.183L307.224 404.46L308.367 402.831L309.511 399.695L310.655 395.795L311.799 390.887L312.943 383.418L314.086 373.135L315.23 359.264L316.374 340.492L317.518 316.486L318.662 287.961L320.949 220.233L324.381 115.109L325.524 91.3818L326.668 76.5988L327.812 72.1924L328.956 81.407L330.1 102.124L331.243 132.524L333.531 208.625L335.819 271.638L336.962 299.863L338.106 323.083L339.25 341.02L341.538 369.924L342.681 380.274L343.825 385.509L347.257 396.305L348.4 398.778L351.832 404.442L352.976 405.416L356.407 406.676L358.695 406.953L359.838 407.28L363.27 407.546L367.845 409.101L368.989 409.243L371.276 408.841L372.42 408.909L374.708 409.337L379.283 409.474L381.57 409.326L386.146 409.798L389.577 409.993L397.584 409.758L402.159 410.052L409.022 409.946L413.597 410.031L442.192 410.092L452.486 410.112L493.663 410.111" stroke="#EFEFEF" stroke-linecap="square"/>
</g>
<mask id="mask1_230_9678" style="mask-type:luminance" maskUnits="userSpaceOnUse" x="76" y="55" width="477" height="356">
<path d="M552.957 55.2959H76.7969V410.112H552.957V55.2959Z" fill="white"/>
</mask>
<g mask="url(#mask1_230_9678)">
<path d="M274.688 410.111L280.748 409.984L288.021 409.635L295.294 409.435L300.143 409.192L302.567 409.083L306.204 408.475L312.265 407.156L313.477 406.557L314.689 405.682L315.901 404.524L317.113 403.101L318.325 401.397L319.537 399.324L320.75 396.73L321.962 393.427L323.174 389.223L324.386 383.978L325.598 377.67L328.023 362.491L331.659 336.584L335.296 309.879L337.72 294.685L338.932 288.471L340.144 283.381L341.356 279.555L342.569 276.96L343.781 275.38L344.993 274.592L346.205 274.543L347.417 275.312L348.629 276.965L349.842 279.501L351.054 282.899L352.266 287.102L354.69 297.21L358.327 312.852L360.751 321.759L370.448 355.389L372.873 361.536L376.509 369.401L378.933 374.182L381.358 378.345L383.782 381.892L388.631 388.257L391.055 391.499L397.116 398.388L398.328 399.53L400.752 401.174L404.389 402.931L408.025 404.291L414.086 406.245L418.935 407.463L423.783 408.337L428.632 408.975L435.905 409.435L450.451 409.958L474.694 410.064L507.423 410.071L515.908 410.111" fill="#EFEFEF" fill-opacity="0.4"/>
<path d="M274.688 410.111L280.748 409.984L288.021 409.635L295.294 409.435L300.143 409.192L302.567 409.083L306.204 408.475L312.265 407.156L313.477 406.557L314.689 405.682L315.901 404.524L317.113 403.101L318.325 401.397L319.537 399.324L320.75 396.73L321.962 393.427L323.174 389.223L324.386 383.978L325.598 377.67L328.023 362.491L331.659 336.584L335.296 309.879L337.72 294.685L338.932 288.471L340.144 283.381L341.356 279.555L342.569 276.96L343.781 275.38L344.993 274.592L346.205 274.543L347.417 275.312L348.629 276.965L349.842 279.501L351.054 282.899L352.266 287.102L354.69 297.21L358.327 312.852L360.751 321.759L370.448 355.389L372.873 361.536L376.509 369.401L378.933 374.182L381.358 378.345L383.782 381.892L388.631 388.257L391.055 391.499L397.116 398.388L398.328 399.53L400.752 401.174L404.389 402.931L408.025 404.291L414.086 406.245L418.935 407.463L423.783 408.337L428.632 408.975L435.905 409.435L450.451 409.958L474.694 410.064L507.423 410.071L515.908 410.111" stroke="#EFEFEF" stroke-linecap="square"/>
</g>
<mask id="mask2_230_9678" style="mask-type:luminance" maskUnits="userSpaceOnUse" x="76" y="55" width="477" height="356">
<path d="M552.957 55.2959H76.7969V410.112H552.957V55.2959Z" fill="white"/>
</mask>
<g mask="url(#mask2_230_9678)">
<path d="M244.883 410.112L259.204 409.977L262.069 409.458L263.501 408.941L264.933 408.15L266.365 406.999L267.797 405.429L269.229 403.329L270.661 400.476L272.094 396.698L273.526 392.004L274.958 386.487L276.39 380.226L279.254 365.68L280.687 357.215L283.551 337.354L286.415 316.869L289.279 300.32L292.144 285.068L293.576 279.028L295.008 274.31L296.44 270.502L297.872 267.859L299.304 266.95L300.737 267.817L302.169 269.809L303.601 272.175L305.033 274.941L306.465 278.929L307.897 284.519L315.058 316.262L320.787 344.651L326.515 367.893L327.947 372.753L330.812 380.895L333.676 387.945L335.108 391.081L336.54 393.601L337.972 395.542L340.837 398.451L345.133 402.391L346.565 403.396L347.997 404.066L352.294 405.609L355.158 406.659L359.455 407.647L362.319 408.355L365.183 408.545L368.048 408.749L372.344 409.31L379.505 409.545L386.665 409.629L389.53 409.669L395.258 409.956L411.012 409.885L416.741 410.014L509.83 410.112L529.88 410.112" fill="#EFEFEF" fill-opacity="0.4"/>
<path d="M244.883 410.112L259.204 409.977L262.069 409.458L263.501 408.941L264.933 408.15L266.365 406.999L267.797 405.429L269.229 403.329L270.661 400.476L272.094 396.698L273.526 392.004L274.958 386.487L276.39 380.226L279.254 365.68L280.687 357.215L283.551 337.354L286.415 316.869L289.279 300.32L292.144 285.068L293.576 279.028L295.008 274.31L296.44 270.502L297.872 267.859L299.304 266.95L300.737 267.817L302.169 269.809L303.601 272.175L305.033 274.941L306.465 278.929L307.897 284.519L315.058 316.262L320.787 344.651L326.515 367.893L327.947 372.753L330.812 380.895L333.676 387.945L335.108 391.081L336.54 393.601L337.972 395.542L340.837 398.451L345.133 402.391L346.565 403.396L347.997 404.066L352.294 405.609L355.158 406.659L359.455 407.647L362.319 408.355L365.183 408.545L368.048 408.749L372.344 409.31L379.505 409.545L386.665 409.629L389.53 409.669L395.258 409.956L411.012 409.885L416.741 410.014L509.83 410.112L529.88 410.112" stroke="#EFEFEF" stroke-linecap="square"/>
</g>
<mask id="mask3_230_9678" style="mask-type:luminance" maskUnits="userSpaceOnUse" x="76" y="55" width="477" height="356">
<path d="M552.957 55.2959H76.7969V410.112H552.957V55.2959Z" fill="white"/>
</mask>
<g mask="url(#mask3_230_9678)">
<path d="M248.508 410.112L262.226 409.991L266.342 409.706L269.085 409.207L271.829 408.3L273.201 407.612L274.573 406.689L275.944 405.452L277.316 403.82L278.688 401.738L280.06 399.204L281.432 396.243L282.804 392.877L285.547 384.931L288.291 375.214L291.034 363.74L295.15 346.267L297.894 336.68L303.381 319.546L306.125 310.558L307.496 306.833L308.868 303.913L310.24 301.79L311.612 300.412L312.984 299.712L314.356 299.533L317.099 299.789L318.471 300.098L319.843 300.793L321.215 302.042L322.587 303.801L323.958 305.974L325.33 308.591L326.702 311.742L329.446 319.382L334.933 336.206L340.42 354.427L341.792 358.077L344.536 363.88L347.279 369.469L352.767 382.224L355.51 387.352L358.254 391.547L360.998 394.85L365.113 399.006L367.857 401.219L370.6 402.733L377.46 405.895L382.947 407.435L385.691 407.998L391.178 408.611L400.781 409.287L409.012 409.553L414.499 409.519L422.73 409.635L429.589 409.759L435.076 409.928L447.423 410.001L454.282 410.033L462.513 410.009L483.09 410.108L521.501 410.112" fill="#EFEFEF" fill-opacity="0.4"/>
<path d="M248.508 410.112L262.226 409.991L266.342 409.706L269.085 409.207L271.829 408.3L273.201 407.612L274.573 406.689L275.944 405.452L277.316 403.82L278.688 401.738L280.06 399.204L281.432 396.243L282.804 392.877L285.547 384.931L288.291 375.214L291.034 363.74L295.15 346.267L297.894 336.68L303.381 319.546L306.125 310.558L307.496 306.833L308.868 303.913L310.24 301.79L311.612 300.412L312.984 299.712L314.356 299.533L317.099 299.789L318.471 300.098L319.843 300.793L321.215 302.042L322.587 303.801L323.958 305.974L325.33 308.591L326.702 311.742L329.446 319.382L334.933 336.206L340.42 354.427L341.792 358.077L344.536 363.88L347.279 369.469L352.767 382.224L355.51 387.352L358.254 391.547L360.998 394.85L365.113 399.006L367.857 401.219L370.6 402.733L377.46 405.895L382.947 407.435L385.691 407.998L391.178 408.611L400.781 409.287L409.012 409.553L414.499 409.519L422.73 409.635L429.589 409.759L435.076 409.928L447.423 410.001L454.282 410.033L462.513 410.009L483.09 410.108L521.501 410.112" stroke="#EFEFEF" stroke-linecap="square"/>
</g>
<mask id="mask4_230_9678" style="mask-type:luminance" maskUnits="userSpaceOnUse" x="76" y="55" width="477" height="356">
<path d="M552.957 55.2959H76.7969V410.112H552.957V55.2959Z" fill="white"/>
</mask>
<g mask="url(#mask4_230_9678)">
<path d="M240.375 410.111L249.147 409.997L253.533 409.697L256.457 409.313L259.381 408.624L260.843 408.075L262.305 407.321L263.767 406.306L265.229 404.976L266.691 403.273L268.153 401.121L269.615 398.414L271.077 395.006L272.539 390.724L274.001 385.402L275.463 378.931L276.925 371.288L278.387 362.545L281.311 342.531L284.235 321.562L285.697 311.959L287.159 303.583L288.621 296.802L290.083 291.909L291.545 289.115L293.007 288.479L294.469 289.834L295.931 292.808L297.393 296.939L300.317 307.008L303.241 317.311L306.165 326.412L313.475 347.427L314.937 351.165L316.399 354.492L317.861 357.382L320.785 362.187L322.247 364.246L323.709 366.022L325.171 367.426L326.633 368.464L329.557 369.957L335.405 372.86L338.329 374.733L341.253 376.866L344.177 378.581L347.101 380.147L351.487 383.023L354.411 385.156L357.334 387.83L360.258 391.235L363.182 394.796L364.644 396.337L366.106 397.619L367.568 398.645L370.492 400.161L373.416 401.511L376.34 403.191L379.264 404.986L382.188 406.377L385.112 407.314L388.036 407.913L392.422 408.364L408.504 409.615L464.06 410.03L531.312 410.111" fill="#EFEFEF" fill-opacity="0.4"/>
<path d="M240.375 410.111L249.147 409.997L253.533 409.697L256.457 409.313L259.381 408.624L260.843 408.075L262.305 407.321L263.767 406.306L265.229 404.976L266.691 403.273L268.153 401.121L269.615 398.414L271.077 395.006L272.539 390.724L274.001 385.402L275.463 378.931L276.925 371.288L278.387 362.545L281.311 342.531L284.235 321.562L285.697 311.959L287.159 303.583L288.621 296.802L290.083 291.909L291.545 289.115L293.007 288.479L294.469 289.834L295.931 292.808L297.393 296.939L300.317 307.008L303.241 317.311L306.165 326.412L313.475 347.427L314.937 351.165L316.399 354.492L317.861 357.382L320.785 362.187L322.247 364.246L323.709 366.022L325.171 367.426L326.633 368.464L329.557 369.957L335.405 372.86L338.329 374.733L341.253 376.866L344.177 378.581L347.101 380.147L351.487 383.023L354.411 385.156L357.334 387.83L360.258 391.235L363.182 394.796L364.644 396.337L366.106 397.619L367.568 398.645L370.492 400.161L373.416 401.511L376.34 403.191L379.264 404.986L382.188 406.377L385.112 407.314L388.036 407.913L392.422 408.364L408.504 409.615L464.06 410.03L531.312 410.111" stroke="#EFEFEF" stroke-linecap="square"/>
</g>
<mask id="mask5_230_9678" style="mask-type:luminance" maskUnits="userSpaceOnUse" x="76" y="55" width="477" height="356">
<path d="M552.957 55.2959H76.7969V410.112H552.957V55.2959Z" fill="white"/>
</mask>
<g mask="url(#mask5_230_9678)">
<path d="M259.727 410.112L268.992 410.01L271.64 409.813L278.258 408.81L280.906 408.123L283.553 407.095L284.877 406.438L286.2 405.564L287.524 404.384L290.171 401.246L292.819 397.701L294.143 395.711L295.466 393.302L296.79 390.382L298.114 387.042L299.437 383.222L300.761 378.578L302.085 372.95L304.732 360.096L306.056 353.076L307.379 345.199L308.703 336.194L310.027 326.021L312.674 302.173L315.322 276.078L316.645 265.081L317.969 256.001L319.293 248.212L320.616 241.842L321.94 237.928L323.264 236.804L324.587 237.53L325.911 239.544L327.235 243.615L328.558 250.549L329.882 260.135L332.53 284.363L335.177 308.48L337.824 328.382L339.148 336.541L341.795 350.498L344.443 362.368L347.09 371.505L351.061 383.717L352.385 386.979L353.709 389.457L356.356 393.652L359.003 398.25L360.327 400.013L361.651 401.191L362.974 401.948L366.946 403.623L370.917 406.209L372.24 406.78L373.564 407.076L377.535 407.522L386.801 409.346L389.448 409.681L394.743 409.81L398.714 409.762L402.685 409.71L406.656 409.992L441.072 410.084L449.014 410.058L459.604 410.111L523.141 410.112" fill="#EFEFEF" fill-opacity="0.4"/>
<path d="M259.727 410.112L268.992 410.01L271.64 409.813L278.258 408.81L280.906 408.123L283.553 407.095L284.877 406.438L286.2 405.564L287.524 404.384L290.171 401.246L292.819 397.701L294.143 395.711L295.466 393.302L296.79 390.382L298.114 387.042L299.437 383.222L300.761 378.578L302.085 372.95L304.732 360.096L306.056 353.076L307.379 345.199L308.703 336.194L310.027 326.021L312.674 302.173L315.322 276.078L316.645 265.081L317.969 256.001L319.293 248.212L320.616 241.842L321.94 237.928L323.264 236.804L324.587 237.53L325.911 239.544L327.235 243.615L328.558 250.549L329.882 260.135L332.53 284.363L335.177 308.48L337.824 328.382L339.148 336.541L341.795 350.498L344.443 362.368L347.09 371.505L351.061 383.717L352.385 386.979L353.709 389.457L356.356 393.652L359.003 398.25L360.327 400.013L361.651 401.191L362.974 401.948L366.946 403.623L370.917 406.209L372.24 406.78L373.564 407.076L377.535 407.522L386.801 409.346L389.448 409.681L394.743 409.81L398.714 409.762L402.685 409.71L406.656 409.992L441.072 410.084L449.014 410.058L459.604 410.111L523.141 410.112" stroke="#EFEFEF" stroke-linecap="square"/>
</g>
<mask id="mask6_230_9678" style="mask-type:luminance" maskUnits="userSpaceOnUse" x="76" y="55" width="477" height="356">
<path d="M552.957 55.2959H76.7969V410.112H552.957V55.2959Z" fill="white"/>
</mask>
<g mask="url(#mask6_230_9678)">
<path d="M272.898 410.11L277.634 409.965L280.001 409.637L284.737 408.805L287.104 408.614L288.288 408.392L290.656 407.502L293.024 406.155L295.391 404.199L298.943 400.441L302.494 396.435L303.678 394.754L304.862 392.58L306.046 389.815L309.597 379.764L313.149 369.144L322.619 339.509L326.171 326.786L327.355 323.452L328.539 321.066L329.722 319.075L330.906 316.645L332.09 313.338L334.458 305.033L340.377 283.729L341.561 280.524L342.745 278.004L343.928 276.182L345.112 275.09L346.296 274.787L347.48 275.367L348.664 276.968L349.848 279.724L351.031 283.643L352.215 288.55L354.583 300.554L355.767 307.769L358.134 324.957L360.502 342.15L362.87 356.506L365.237 369.289L367.605 380.153L368.789 384.563L371.157 391.69L373.524 397.449L374.708 399.757L375.892 401.61L377.076 403.033L378.26 404.081L379.443 404.821L381.811 405.787L388.914 408.356L392.466 409L396.017 409.267L412.591 409.616L419.694 409.938L508.481 410.111" fill="#EFEFEF" fill-opacity="0.4"/>
<path d="M272.898 410.11L277.634 409.965L280.001 409.637L284.737 408.805L287.104 408.614L288.288 408.392L290.656 407.502L293.024 406.155L295.391 404.199L298.943 400.441L302.494 396.435L303.678 394.754L304.862 392.58L306.046 389.815L309.597 379.764L313.149 369.144L322.619 339.509L326.171 326.786L327.355 323.452L328.539 321.066L329.722 319.075L330.906 316.645L332.09 313.338L334.458 305.033L340.377 283.729L341.561 280.524L342.745 278.004L343.928 276.182L345.112 275.09L346.296 274.787L347.48 275.367L348.664 276.968L349.848 279.724L351.031 283.643L352.215 288.55L354.583 300.554L355.767 307.769L358.134 324.957L360.502 342.15L362.87 356.506L365.237 369.289L367.605 380.153L368.789 384.563L371.157 391.69L373.524 397.449L374.708 399.757L375.892 401.61L377.076 403.033L378.26 404.081L379.443 404.821L381.811 405.787L388.914 408.356L392.466 409L396.017 409.267L412.591 409.616L419.694 409.938L508.481 410.111" stroke="#EFEFEF" stroke-linecap="square"/>
</g>
<mask id="mask7_230_9678" style="mask-type:luminance" maskUnits="userSpaceOnUse" x="76" y="55" width="477" height="356">
<path d="M552.957 55.2959H76.7969V410.112H552.957V55.2959Z" fill="white"/>
</mask>
<g mask="url(#mask7_230_9678)">
<path d="M243.055 410.112L255.194 409.981L261.938 409.652L264.636 409.353L267.333 408.822L270.031 408.041L272.728 406.999L275.426 405.581L278.124 403.656L280.821 401.195L283.519 398.175L284.868 396.382L286.216 394.329L288.914 389.353L292.96 380.528L295.658 373.971L305.1 348.769L307.797 342.227L310.495 336.629L313.192 332.335L315.89 328.92L318.588 326.055L321.285 323.81L323.983 322.275L325.332 321.759L326.68 321.427L328.029 321.336L329.378 321.578L330.727 322.256L332.076 323.438L333.424 325.123L336.122 329.581L338.82 334.33L341.517 338.368L344.215 342.158L346.912 346.479L350.959 353.629L355.005 361.978L357.703 367.069L360.4 371.17L365.796 378.964L373.888 391.001L376.586 393.931L379.284 396.219L381.981 398.01L384.679 399.232L392.772 401.923L399.516 405.356L402.213 406.146L411.655 408.129L415.701 408.562L431.887 409.587L441.328 409.828L460.212 410.048L475.048 410.041L510.117 410.111L511.466 410.112" fill="#EFEFEF" fill-opacity="0.4"/>
<path d="M243.055 410.112L255.194 409.981L261.938 409.652L264.636 409.353L267.333 408.822L270.031 408.041L272.728 406.999L275.426 405.581L278.124 403.656L280.821 401.195L283.519 398.175L284.868 396.382L286.216 394.329L288.914 389.353L292.96 380.528L295.658 373.971L305.1 348.769L307.797 342.227L310.495 336.629L313.192 332.335L315.89 328.92L318.588 326.055L321.285 323.81L323.983 322.275L325.332 321.759L326.68 321.427L328.029 321.336L329.378 321.578L330.727 322.256L332.076 323.438L333.424 325.123L336.122 329.581L338.82 334.33L341.517 338.368L344.215 342.158L346.912 346.479L350.959 353.629L355.005 361.978L357.703 367.069L360.4 371.17L365.796 378.964L373.888 391.001L376.586 393.931L379.284 396.219L381.981 398.01L384.679 399.232L392.772 401.923L399.516 405.356L402.213 406.146L411.655 408.129L415.701 408.562L431.887 409.587L441.328 409.828L460.212 410.048L475.048 410.041L510.117 410.111L511.466 410.112" stroke="#EFEFEF" stroke-linecap="square"/>
</g>
<mask id="mask8_230_9678" style="mask-type:luminance" maskUnits="userSpaceOnUse" x="76" y="55" width="477" height="356">
<path d="M552.957 55.2959H76.7969V410.112H552.957V55.2959Z" fill="white"/>
</mask>
<g mask="url(#mask8_230_9678)">
<path d="M271.172 410.11L278.51 409.912L282.703 409.72L285.848 409.499L287.944 408.788L288.993 408.741L290.041 408.953L291.089 408.836L292.138 408.426L296.331 407.42L297.379 407.112L299.476 405.898L300.524 405.208L301.572 404.205L304.717 400.308L305.765 398.078L306.814 394.229L307.862 388.322L308.91 379.903L309.958 368.613L311.007 353.371L312.055 332.405L314.152 278.089L315.2 247.336L318.345 138.196L319.393 113.284L320.441 96.7027L321.49 86.2984L322.538 83.4355L323.586 88.9697L324.634 101.888L325.683 120.223L326.731 141.713L327.779 168.641L329.876 228.968L331.972 277.923L334.069 321.646L335.117 341.404L336.166 358.07L337.214 370.561L338.262 380.012L339.31 387.71L340.359 393.229L341.407 396.485L344.552 403.787L345.6 405.351L346.648 406.106L349.793 407.727L351.89 408.781L352.938 408.989L358.18 408.793L359.228 408.565L360.276 408.538L363.421 409.475L376 410.006L378.097 409.76L380.194 409.508L388.58 410.045L394.87 409.842L396.966 409.895L399.063 409.903L403.256 409.983L409.546 409.978L411.642 410.097L421.077 409.836L424.222 410.088L429.463 410.032L432.608 409.993L435.753 410.053L437.849 410.072L440.994 409.974L443.091 410.065L446.236 410.066L449.38 410.018L452.525 410.025L455.67 410.089L458.815 410.051L463.008 410.111L479.781 410.11" fill="#EFEFEF" fill-opacity="0.4"/>
<path d="M271.172 410.11L278.51 409.912L282.703 409.72L285.848 409.499L287.944 408.788L288.993 408.741L290.041 408.953L291.089 408.836L292.138 408.426L296.331 407.42L297.379 407.112L299.476 405.898L300.524 405.208L301.572 404.205L304.717 400.308L305.765 398.078L306.814 394.229L307.862 388.322L308.91 379.903L309.958 368.613L311.007 353.371L312.055 332.405L314.152 278.089L315.2 247.336L318.345 138.196L319.393 113.284L320.441 96.7027L321.49 86.2984L322.538 83.4355L323.586 88.9697L324.634 101.888L325.683 120.223L326.731 141.713L327.779 168.641L329.876 228.968L331.972 277.923L334.069 321.646L335.117 341.404L336.166 358.07L337.214 370.561L338.262 380.012L339.31 387.71L340.359 393.229L341.407 396.485L344.552 403.787L345.6 405.351L346.648 406.106L349.793 407.727L351.89 408.781L352.938 408.989L358.18 408.793L359.228 408.565L360.276 408.538L363.421 409.475L376 410.006L378.097 409.76L380.194 409.508L388.58 410.045L394.87 409.842L396.966 409.895L399.063 409.903L403.256 409.983L409.546 409.978L411.642 410.097L421.077 409.836L424.222 410.088L429.463 410.032L432.608 409.993L435.753 410.053L437.849 410.072L440.994 409.974L443.091 410.065L446.236 410.066L449.38 410.018L452.525 410.025L455.67 410.089L458.815 410.051L463.008 410.111L479.781 410.11" stroke="#EFEFEF" stroke-linecap="square"/>
</g>
<mask id="mask9_230_9678" style="mask-type:luminance" maskUnits="userSpaceOnUse" x="76" y="55" width="477" height="356">
<path d="M552.957 55.2959H76.7969V410.112H552.957V55.2959Z" fill="white"/>
</mask>
<g mask="url(#mask9_230_9678)">
<path d="M248.961 410.112L256.487 409.983L260.25 409.592L262.759 408.902L264.014 408.296L265.268 407.454L266.522 406.356L267.777 405L269.031 403.384L270.286 401.478L271.54 399.217L272.794 396.524L274.049 393.347L275.303 389.659L276.558 385.42L277.812 380.548L279.066 374.936L281.575 361.526L285.338 340.097L287.847 327.805L291.61 311.184L294.119 301.475L295.373 297.854L296.628 295.536L297.882 294.605L299.137 294.801L300.391 295.661L302.9 298.14L304.154 299.734L305.409 301.68L309.172 308.665L311.681 313.343L312.935 315.939L315.444 322.228L319.207 332.539L321.716 338.06L324.224 343.101L326.733 348.961L330.496 358.348L331.751 360.839L334.26 364.728L336.768 368.365L339.277 372.785L343.04 379.905L346.803 386.093L349.312 389.887L351.821 393.106L354.33 395.68L356.839 397.689L359.347 399.255L368.128 403.746L370.637 404.86L373.146 405.642L384.435 408.264L389.453 408.905L393.216 408.967L396.979 409.137L401.997 409.415L409.523 409.729L417.049 409.983L427.084 409.901L433.356 409.968L447.155 410.103L464.716 410.09L484.786 410.101L498.585 410.112" fill="#EFEFEF" fill-opacity="0.4"/>
<path d="M248.961 410.112L256.487 409.983L260.25 409.592L262.759 408.902L264.014 408.296L265.268 407.454L266.522 406.356L267.777 405L269.031 403.384L270.286 401.478L271.54 399.217L272.794 396.524L274.049 393.347L275.303 389.659L276.558 385.42L277.812 380.548L279.066 374.936L281.575 361.526L285.338 340.097L287.847 327.805L291.61 311.184L294.119 301.475L295.373 297.854L296.628 295.536L297.882 294.605L299.137 294.801L300.391 295.661L302.9 298.14L304.154 299.734L305.409 301.68L309.172 308.665L311.681 313.343L312.935 315.939L315.444 322.228L319.207 332.539L321.716 338.06L324.224 343.101L326.733 348.961L330.496 358.348L331.751 360.839L334.26 364.728L336.768 368.365L339.277 372.785L343.04 379.905L346.803 386.093L349.312 389.887L351.821 393.106L354.33 395.68L356.839 397.689L359.347 399.255L368.128 403.746L370.637 404.86L373.146 405.642L384.435 408.264L389.453 408.905L393.216 408.967L396.979 409.137L401.997 409.415L409.523 409.729L417.049 409.983L427.084 409.901L433.356 409.968L447.155 410.103L464.716 410.09L484.786 410.101L498.585 410.112" stroke="#EFEFEF" stroke-linecap="square"/>
</g>
<mask id="mask10_230_9678" style="mask-type:luminance" maskUnits="userSpaceOnUse" x="76" y="55" width="477" height="356">
<path d="M552.957 55.2959H76.7969V410.112H552.957V55.2959Z" fill="white"/>
</mask>
<g mask="url(#mask10_230_9678)">
<path d="M249.023 410.111L255.967 410.007L260.134 409.701L262.911 409.143L264.3 408.579L265.689 407.664L267.078 406.262L268.467 404.26L269.855 401.535L271.244 397.936L272.633 393.314L274.022 387.564L275.411 380.559L276.799 372.002L278.188 361.448L279.577 348.579L282.355 317.041L285.132 283.467L287.91 254.021L289.299 242.428L290.687 234.112L292.076 229.892L293.465 230.018L294.854 234.052L296.243 241.056L299.02 259.373L311.519 344.885L312.908 351.779L314.297 357.311L315.686 361.925L318.463 369.637L321.241 375.846L324.019 381.07L325.407 383.245L326.796 385.035L329.574 387.722L332.351 390.148L337.907 395.431L344.851 399.643L346.239 400.214L350.406 401.445L358.739 405.179L361.516 406.134L364.294 406.705L368.46 407.257L375.404 407.805L379.571 408.398L383.737 408.949L386.515 409.335L389.292 409.408L394.848 409.253L404.569 409.595L408.735 409.605L412.902 409.519L418.457 409.851L425.401 409.878L429.568 409.902L435.123 409.944L442.067 410.065L457.344 410.032L469.843 410.04L489.286 410.111L525.395 410.111" fill="#EFEFEF" fill-opacity="0.4"/>
<path d="M249.023 410.111L255.967 410.007L260.134 409.701L262.911 409.143L264.3 408.579L265.689 407.664L267.078 406.262L268.467 404.26L269.855 401.535L271.244 397.936L272.633 393.314L274.022 387.564L275.411 380.559L276.799 372.002L278.188 361.448L279.577 348.579L282.355 317.041L285.132 283.467L287.91 254.021L289.299 242.428L290.687 234.112L292.076 229.892L293.465 230.018L294.854 234.052L296.243 241.056L299.02 259.373L311.519 344.885L312.908 351.779L314.297 357.311L315.686 361.925L318.463 369.637L321.241 375.846L324.019 381.07L325.407 383.245L326.796 385.035L329.574 387.722L332.351 390.148L337.907 395.431L344.851 399.643L346.239 400.214L350.406 401.445L358.739 405.179L361.516 406.134L364.294 406.705L368.46 407.257L375.404 407.805L379.571 408.398L383.737 408.949L386.515 409.335L389.292 409.408L394.848 409.253L404.569 409.595L408.735 409.605L412.902 409.519L418.457 409.851L425.401 409.878L429.568 409.902L435.123 409.944L442.067 410.065L457.344 410.032L469.843 410.04L489.286 410.111L525.395 410.111" stroke="#EFEFEF" stroke-linecap="square"/>
</g>
<mask id="mask11_230_9678" style="mask-type:luminance" maskUnits="userSpaceOnUse" x="76" y="55" width="477" height="356">
<path d="M552.957 55.2959H76.7969V410.112H552.957V55.2959Z" fill="white"/>
</mask>
<g mask="url(#mask11_230_9678)">
<path d="M245.461 410.112L255.017 409.985L260.478 409.646L263.208 409.207L265.938 408.429L268.668 407.262L270.034 406.421L271.399 405.27L272.764 403.718L274.129 401.746L275.494 399.381L276.859 396.634L278.225 393.46L279.59 389.775L280.955 385.501L282.32 380.583L283.685 375L286.415 362.045L290.511 341.618L293.241 330.208L297.337 315.352L298.702 310.919L300.067 307.269L301.432 304.639L302.797 302.992L304.162 302.132L305.528 301.888L306.893 302.208L308.258 303.122L309.623 304.621L312.353 308.727L315.084 312.829L317.814 316.744L319.179 319.039L320.544 321.733L323.274 328.153L327.37 338.145L334.196 354.106L336.926 360.534L339.656 365.923L343.752 373.013L356.038 392.07L358.768 395.148L361.499 397.629L365.594 400.631L369.69 403.352L372.42 404.677L376.515 406.331L379.246 407.092L384.706 408L388.802 408.364L392.897 408.736L398.358 409.294L405.183 409.583L416.105 409.723L421.565 409.693L431.121 409.904L436.582 409.873L444.773 409.967L503.474 410.068L513.03 410.102L517.126 410.112" fill="#EFEFEF" fill-opacity="0.4"/>
<path d="M245.461 410.112L255.017 409.985L260.478 409.646L263.208 409.207L265.938 408.429L268.668 407.262L270.034 406.421L271.399 405.27L272.764 403.718L274.129 401.746L275.494 399.381L276.859 396.634L278.225 393.46L279.59 389.775L280.955 385.501L282.32 380.583L283.685 375L286.415 362.045L290.511 341.618L293.241 330.208L297.337 315.352L298.702 310.919L300.067 307.269L301.432 304.639L302.797 302.992L304.162 302.132L305.528 301.888L306.893 302.208L308.258 303.122L309.623 304.621L312.353 308.727L315.084 312.829L317.814 316.744L319.179 319.039L320.544 321.733L323.274 328.153L327.37 338.145L334.196 354.106L336.926 360.534L339.656 365.923L343.752 373.013L356.038 392.07L358.768 395.148L361.499 397.629L365.594 400.631L369.69 403.352L372.42 404.677L376.515 406.331L379.246 407.092L384.706 408L388.802 408.364L392.897 408.736L398.358 409.294L405.183 409.583L416.105 409.723L421.565 409.693L431.121 409.904L436.582 409.873L444.773 409.967L503.474 410.068L513.03 410.102L517.126 410.112" stroke="#EFEFEF" stroke-linecap="square"/>
</g>
<mask id="mask12_230_9678" style="mask-type:luminance" maskUnits="userSpaceOnUse" x="76" y="55" width="477" height="356">
<path d="M552.957 55.2959H76.7969V410.112H552.957V55.2959Z" fill="white"/>
</mask>
<g mask="url(#mask12_230_9678)">
<path d="M271.352 410.111L279.104 409.957L286.856 409.474L288.148 409.113L289.44 408.594L290.732 408.266L293.317 408.104L295.901 407.543L297.193 407.084L304.945 402.559L306.237 402.164L307.529 401.384L308.821 399.971L310.113 398.225L311.405 395.581L312.697 391.382L313.989 385.674L315.281 379.196L316.574 371.853L317.866 361.134L319.158 344.731L320.45 323L324.326 245.75L326.91 195.491L328.202 174.897L329.494 160.495L330.786 155.157L332.078 158.663L333.37 167.301L335.954 189.635L337.246 205.337L341.123 269.885L343.707 308.431L344.999 325.027L346.291 338.896L347.583 351.039L350.167 370.076L351.459 378.403L352.751 385.49L354.043 391.241L355.335 395.682L356.627 398.787L357.919 401.057L359.211 402.796L360.503 404.15L361.796 405.277L364.38 406.753L366.964 407.91L370.84 409.266L379.884 409.737L383.76 409.292L387.637 409.735L391.513 409.786L395.389 409.909L401.849 409.922L410.894 410.013L413.478 409.98L421.23 410.021L426.398 409.97L428.982 409.804L432.859 410.008L448.363 410.112L528.471 410.111" fill="#EFEFEF" fill-opacity="0.4"/>
<path d="M271.352 410.111L279.104 409.957L286.856 409.474L288.148 409.113L289.44 408.594L290.732 408.266L293.317 408.104L295.901 407.543L297.193 407.084L304.945 402.559L306.237 402.164L307.529 401.384L308.821 399.971L310.113 398.225L311.405 395.581L312.697 391.382L313.989 385.674L315.281 379.196L316.574 371.853L317.866 361.134L319.158 344.731L320.45 323L324.326 245.75L326.91 195.491L328.202 174.897L329.494 160.495L330.786 155.157L332.078 158.663L333.37 167.301L335.954 189.635L337.246 205.337L341.123 269.885L343.707 308.431L344.999 325.027L346.291 338.896L347.583 351.039L350.167 370.076L351.459 378.403L352.751 385.49L354.043 391.241L355.335 395.682L356.627 398.787L357.919 401.057L359.211 402.796L360.503 404.15L361.796 405.277L364.38 406.753L366.964 407.91L370.84 409.266L379.884 409.737L383.76 409.292L387.637 409.735L391.513 409.786L395.389 409.909L401.849 409.922L410.894 410.013L413.478 409.98L421.23 410.021L426.398 409.97L428.982 409.804L432.859 410.008L448.363 410.112L528.471 410.111" stroke="#EFEFEF" stroke-linecap="square"/>
</g>
<mask id="mask13_230_9678" style="mask-type:luminance" maskUnits="userSpaceOnUse" x="76" y="55" width="477" height="356">
<path d="M552.957 55.2959H76.7969V410.112H552.957V55.2959Z" fill="white"/>
</mask>
<g mask="url(#mask13_230_9678)">
<path d="M252.758 410.111L266.723 409.959L270.531 409.663L273.07 409.215L275.609 408.511L278.148 407.528L281.957 405.748L284.496 404.282L285.766 403.315L288.305 400.758L290.844 397.596L293.383 394.033L295.922 389.899L298.461 385.187L302.27 377.43L304.809 371.438L311.156 355.157L313.695 349.762L316.235 344.588L318.774 338.516L322.582 328.289L323.852 325.587L325.121 323.554L326.391 322.113L330.199 319.064L332.738 317.105L334.008 316.449L335.278 316.184L336.547 316.346L337.817 316.872L340.356 318.535L341.625 319.58L342.895 320.883L344.164 322.564L346.703 326.969L350.512 333.955L354.321 340.509L356.86 345.728L359.399 352.073L361.938 358.599L364.477 364.268L370.825 376.903L373.364 381.283L382.25 394.582L384.789 397.901L386.059 399.267L387.328 400.409L388.598 401.335L391.137 402.69L402.563 407.455L405.102 408L411.45 408.876L416.528 409.329L422.875 409.626L443.188 410.021L453.344 410.051L472.387 410.094L496.508 410.078L505.395 410.111" fill="#EFEFEF" fill-opacity="0.4"/>
<path d="M252.758 410.111L266.723 409.959L270.531 409.663L273.07 409.215L275.609 408.511L278.148 407.528L281.957 405.748L284.496 404.282L285.766 403.315L288.305 400.758L290.844 397.596L293.383 394.033L295.922 389.899L298.461 385.187L302.27 377.43L304.809 371.438L311.156 355.157L313.695 349.762L316.235 344.588L318.774 338.516L322.582 328.289L323.852 325.587L325.121 323.554L326.391 322.113L330.199 319.064L332.738 317.105L334.008 316.449L335.278 316.184L336.547 316.346L337.817 316.872L340.356 318.535L341.625 319.58L342.895 320.883L344.164 322.564L346.703 326.969L350.512 333.955L354.321 340.509L356.86 345.728L359.399 352.073L361.938 358.599L364.477 364.268L370.825 376.903L373.364 381.283L382.25 394.582L384.789 397.901L386.059 399.267L387.328 400.409L388.598 401.335L391.137 402.69L402.563 407.455L405.102 408L411.45 408.876L416.528 409.329L422.875 409.626L443.188 410.021L453.344 410.051L472.387 410.094L496.508 410.078L505.395 410.111" stroke="#EFEFEF" stroke-linecap="square"/>
</g>
<mask id="mask14_230_9678" style="mask-type:luminance" maskUnits="userSpaceOnUse" x="76" y="55" width="477" height="356">
<path d="M552.957 55.2959H76.7969V410.112H552.957V55.2959Z" fill="white"/>
</mask>
<g mask="url(#mask14_230_9678)">
<path d="M98.4375 410.112L204.236 409.959L212.073 409.55L215.991 409.114L217.95 408.711L219.909 408.132L221.869 407.319L223.828 406.194L225.787 404.696L227.746 402.81L229.706 400.568L231.665 398.005L233.624 395.098L235.583 391.758L237.543 387.932L239.502 383.629L241.461 378.827L243.42 373.47L247.339 361.442L251.257 348.215L255.176 334.62L257.135 328.573L259.094 323.468L261.053 319.584L263.012 317.131L264.972 316.073L266.931 316.065L268.89 316.674L272.809 318.591L274.768 319.818L276.727 321.666L278.686 324.547L280.645 328.407L284.564 336.633L288.482 343.182L290.442 346.462L296.319 357.271L300.238 363.577L306.115 372.18L311.993 380.465L313.952 382.854L315.912 384.911L317.871 386.618L321.789 389.274L323.748 390.601L331.585 396.461L339.422 401.323L343.341 403.381L345.3 404.202L349.218 405.386L355.096 406.849L359.014 407.891L362.933 408.599L366.851 409.028L370.77 409.224L378.607 409.435L386.444 409.68L396.24 409.9L404.077 409.96L411.914 410.051L425.628 409.971L437.384 410.033L456.976 410.078L468.731 410.086L480.486 410.08L488.323 410.112" fill="#7EB0D5" fill-opacity="0.4"/>
<path d="M98.4375 410.112L204.236 409.959L212.073 409.55L215.991 409.114L217.95 408.711L219.909 408.132L221.869 407.319L223.828 406.194L225.787 404.696L227.746 402.81L229.706 400.568L231.665 398.005L233.624 395.098L235.583 391.758L237.543 387.932L239.502 383.629L241.461 378.827L243.42 373.47L247.339 361.442L251.257 348.215L255.176 334.62L257.135 328.573L259.094 323.468L261.053 319.584L263.012 317.131L264.972 316.073L266.931 316.065L268.89 316.674L272.809 318.591L274.768 319.818L276.727 321.666L278.686 324.547L280.645 328.407L284.564 336.633L288.482 343.182L290.442 346.462L296.319 357.271L300.238 363.577L306.115 372.18L311.993 380.465L313.952 382.854L315.912 384.911L317.871 386.618L321.789 389.274L323.748 390.601L331.585 396.461L339.422 401.323L343.341 403.381L345.3 404.202L349.218 405.386L355.096 406.849L359.014 407.891L362.933 408.599L366.851 409.028L370.77 409.224L378.607 409.435L386.444 409.68L396.24 409.9L404.077 409.96L411.914 410.051L425.628 409.971L437.384 410.033L456.976 410.078L468.731 410.086L480.486 410.08L488.323 410.112" stroke="#7EB0D5" stroke-linecap="square"/>
</g>
<path d="M535.061 411.061C535.646 410.475 535.646 409.525 535.061 408.939L525.515 399.393C524.929 398.808 523.979 398.808 523.393 399.393C522.808 399.979 522.808 400.929 523.393 401.515L531.879 410L523.393 418.485C522.808 419.071 522.808 420.021 523.393 420.607C523.979 421.192 524.929 421.192 525.515 420.607L535.061 411.061ZM79 411.5H534V408.5H79V411.5Z" fill="black"/>
</g>
<defs>
<clipPath id="clip0_230_9678">
<rect width="614.4" height="460.8" fill="white"/>
</clipPath>
</defs>
</svg>
