<svg width="615" height="461" viewBox="0 0 615 461" fill="none" xmlns="http://www.w3.org/2000/svg">
<g clip-path="url(#clip0_230_9918)">
<mask id="mask0_230_9918" style="mask-type:luminance" maskUnits="userSpaceOnUse" x="76" y="55" width="477" height="356">
<path d="M552.957 55.2959H76.7969V410.112H552.957V55.2959Z" fill="white"/>
</mask>
<g mask="url(#mask0_230_9918)">
<path d="M233.594 410.11L252.544 409.916L256.604 409.677L260.665 409.719L266.079 409.481L268.787 409.055L271.494 409.028L276.908 409.065L278.262 409.003L279.615 408.772L282.322 407.85L286.383 405.985L289.09 404.919L290.444 403.943L291.797 402.45L293.151 400.371L294.504 397.684L297.212 391.748L301.272 383.579L302.626 380.356L303.979 376.628L305.333 372.245L306.687 367.038L308.04 360.808L309.394 353.279L310.747 344.358L312.101 334.24L314.808 310.503L316.162 296.646L318.869 263.777L328.344 147.071L329.697 132.875L331.051 121.825L332.404 115.232L333.758 111.144L335.112 107.578L336.465 105.006L337.819 103.7L339.172 103.396L340.526 106.196L341.879 114.756L343.233 128.938L344.587 147.556L347.294 195.123L350.001 241.474L354.062 305.053L355.415 322.737L356.769 337.135L359.476 360.669L360.829 371.233L362.183 380.409L363.537 387.544L364.89 392.724L366.244 396.486L367.597 399.368L368.951 401.722L370.304 403.58L371.658 404.899L374.365 406.805L377.072 408.236L378.426 408.66L381.133 408.863L383.84 409.033L389.254 409.647L393.315 409.612L397.376 409.677L401.437 409.426L406.851 409.641L409.558 409.839L414.972 409.938L419.033 410.107L425.801 410.019L433.922 409.772L439.337 409.898L443.397 409.8L447.458 410.002L451.519 409.954L458.287 410.111L502.954 410.11" fill="#EFEFEF" fill-opacity="0.4"/>
<path d="M233.594 410.11L252.544 409.916L256.604 409.677L260.665 409.719L266.079 409.481L268.787 409.055L271.494 409.028L276.908 409.065L278.262 409.003L279.615 408.772L282.322 407.85L286.383 405.985L289.09 404.919L290.444 403.943L291.797 402.45L293.151 400.371L294.504 397.684L297.212 391.748L301.272 383.579L302.626 380.356L303.979 376.628L305.333 372.245L306.687 367.038L308.04 360.808L309.394 353.279L310.747 344.358L312.101 334.24L314.808 310.503L316.162 296.646L318.869 263.777L328.344 147.071L329.697 132.875L331.051 121.825L332.404 115.232L333.758 111.144L335.112 107.578L336.465 105.006L337.819 103.7L339.172 103.396L340.526 106.196L341.879 114.756L343.233 128.938L344.587 147.556L347.294 195.123L350.001 241.474L354.062 305.053L355.415 322.737L356.769 337.135L359.476 360.669L360.829 371.233L362.183 380.409L363.537 387.544L364.89 392.724L366.244 396.486L367.597 399.368L368.951 401.722L370.304 403.58L371.658 404.899L374.365 406.805L377.072 408.236L378.426 408.66L381.133 408.863L383.84 409.033L389.254 409.647L393.315 409.612L397.376 409.677L401.437 409.426L406.851 409.641L409.558 409.839L414.972 409.938L419.033 410.107L425.801 410.019L433.922 409.772L439.337 409.898L443.397 409.8L447.458 410.002L451.519 409.954L458.287 410.111L502.954 410.11" stroke="#EFEFEF" stroke-linecap="square"/>
</g>
<mask id="mask1_230_9918" style="mask-type:luminance" maskUnits="userSpaceOnUse" x="76" y="55" width="477" height="356">
<path d="M552.957 55.2959H76.7969V410.112H552.957V55.2959Z" fill="white"/>
</mask>
<g mask="url(#mask1_230_9918)">
<path d="M223.727 410.112L251.853 409.953L260.735 409.668L266.656 409.384L279.979 409.24L284.42 408.834L293.302 407.53L296.263 406.739L300.704 405.118L303.665 403.676L306.625 401.771L309.586 399.268L312.547 396.015L315.507 392.083L318.468 387.574L321.429 382.477L325.87 374.156L327.35 371.007L328.83 367.385L330.311 363.147L333.272 352.972L336.232 342.172L339.193 332.787L342.154 324.254L345.114 314.676L348.075 304.596L351.036 295.885L358.437 277.158L361.398 268.596L362.878 264.971L364.359 262.236L365.839 260.466L367.319 259.481L368.8 258.963L371.76 258.477L373.241 258.552L374.721 259.047L376.201 260.061L377.682 261.595L379.162 263.598L380.642 266.021L382.123 268.827L385.083 275.457L388.044 283.433L391.005 292.895L399.887 323.166L404.328 336.637L411.729 358.066L414.69 365.376L417.651 371.378L420.611 376.424L423.572 380.793L426.533 384.634L435.415 395.452L438.375 398.52L439.856 399.697L441.336 400.584L442.816 401.21L448.738 403.07L456.139 406.486L459.1 407.395L462.061 408.021L466.502 408.561L476.864 409.386L490.187 409.915L499.069 409.988L507.951 409.999L518.314 410.111" fill="#EFEFEF" fill-opacity="0.4"/>
<path d="M223.727 410.112L251.853 409.953L260.735 409.668L266.656 409.384L279.979 409.24L284.42 408.834L293.302 407.53L296.263 406.739L300.704 405.118L303.665 403.676L306.625 401.771L309.586 399.268L312.547 396.015L315.507 392.083L318.468 387.574L321.429 382.477L325.87 374.156L327.35 371.007L328.83 367.385L330.311 363.147L333.272 352.972L336.232 342.172L339.193 332.787L342.154 324.254L345.114 314.676L348.075 304.596L351.036 295.885L358.437 277.158L361.398 268.596L362.878 264.971L364.359 262.236L365.839 260.466L367.319 259.481L368.8 258.963L371.76 258.477L373.241 258.552L374.721 259.047L376.201 260.061L377.682 261.595L379.162 263.598L380.642 266.021L382.123 268.827L385.083 275.457L388.044 283.433L391.005 292.895L399.887 323.166L404.328 336.637L411.729 358.066L414.69 365.376L417.651 371.378L420.611 376.424L423.572 380.793L426.533 384.634L435.415 395.452L438.375 398.52L439.856 399.697L441.336 400.584L442.816 401.21L448.738 403.07L456.139 406.486L459.1 407.395L462.061 408.021L466.502 408.561L476.864 409.386L490.187 409.915L499.069 409.988L507.951 409.999L518.314 410.111" stroke="#EFEFEF" stroke-linecap="square"/>
</g>
<mask id="mask2_230_9918" style="mask-type:luminance" maskUnits="userSpaceOnUse" x="76" y="55" width="477" height="356">
<path d="M552.957 55.2959H76.7969V410.112H552.957V55.2959Z" fill="white"/>
</mask>
<g mask="url(#mask2_230_9918)">
<path d="M202.43 410.111L215.618 409.981L222.212 409.546L223.861 409.307L225.51 408.914L227.158 408.332L228.807 407.529L230.455 406.445L232.104 404.966L233.752 402.91L235.401 400.09L237.049 396.465L238.698 392.185L240.347 387.405L241.995 382.048L243.644 375.796L245.292 368.368L248.589 350.657L253.535 322.536L255.184 312.075L258.481 287.718L263.426 248.796L265.075 238.082L266.724 229.661L268.372 223.266L270.021 218.045L271.669 213.478L273.318 209.854L274.966 207.709L276.615 207.114L278.263 207.755L279.912 209.477L281.561 212.384L283.209 216.441L284.858 221.302L286.506 226.663L288.155 232.617L289.803 239.498L293.1 255.737L298.046 281.105L301.343 299.539L302.992 307.647L309.586 335.448L311.235 342.931L312.883 349.647L314.532 355.503L317.829 365.727L319.477 370.145L321.126 373.969L322.775 377.28L326.072 382.969L332.666 393.458L334.314 395.468L335.963 397.027L339.26 399.616L340.909 400.804L342.557 401.8L345.854 403.214L352.449 405.656L355.746 406.159L359.043 406.554L362.34 407.282L367.286 408.407L370.583 408.724L377.177 409.079L383.771 409.454L395.311 409.481L400.257 409.816L413.445 409.945L418.391 409.746L438.174 409.912L444.768 410.061L453.011 410.089L462.902 410.094L484.333 410.066L494.225 410.059L504.116 410.111L530.493 410.111" fill="#EFEFEF" fill-opacity="0.4"/>
<path d="M202.43 410.111L215.618 409.981L222.212 409.546L223.861 409.307L225.51 408.914L227.158 408.332L228.807 407.529L230.455 406.445L232.104 404.966L233.752 402.91L235.401 400.09L237.049 396.465L238.698 392.185L240.347 387.405L241.995 382.048L243.644 375.796L245.292 368.368L248.589 350.657L253.535 322.536L255.184 312.075L258.481 287.718L263.426 248.796L265.075 238.082L266.724 229.661L268.372 223.266L270.021 218.045L271.669 213.478L273.318 209.854L274.966 207.709L276.615 207.114L278.263 207.755L279.912 209.477L281.561 212.384L283.209 216.441L284.858 221.302L286.506 226.663L288.155 232.617L289.803 239.498L293.1 255.737L298.046 281.105L301.343 299.539L302.992 307.647L309.586 335.448L311.235 342.931L312.883 349.647L314.532 355.503L317.829 365.727L319.477 370.145L321.126 373.969L322.775 377.28L326.072 382.969L332.666 393.458L334.314 395.468L335.963 397.027L339.26 399.616L340.909 400.804L342.557 401.8L345.854 403.214L352.449 405.656L355.746 406.159L359.043 406.554L362.34 407.282L367.286 408.407L370.583 408.724L377.177 409.079L383.771 409.454L395.311 409.481L400.257 409.816L413.445 409.945L418.391 409.746L438.174 409.912L444.768 410.061L453.011 410.089L462.902 410.094L484.333 410.066L494.225 410.059L504.116 410.111L530.493 410.111" stroke="#EFEFEF" stroke-linecap="square"/>
</g>
<mask id="mask3_230_9918" style="mask-type:luminance" maskUnits="userSpaceOnUse" x="76" y="55" width="477" height="356">
<path d="M552.957 55.2959H76.7969V410.112H552.957V55.2959Z" fill="white"/>
</mask>
<g mask="url(#mask3_230_9918)">
<path d="M209.656 410.111L220.408 409.99L231.16 409.472L234.232 409.067L237.304 408.302L240.376 407.041L241.912 406.162L243.448 405.073L244.984 403.747L246.52 402.161L248.056 400.302L249.592 398.154L251.129 395.704L252.665 392.932L254.201 389.822L257.273 382.539L260.345 373.964L263.417 364.526L266.489 354.278L269.561 342.515L272.633 328.939L275.705 314.884L277.241 308.47L278.777 302.842L280.313 298.105L281.849 294.18L284.921 287.852L291.065 276.291L292.601 273.789L294.137 271.681L295.673 269.964L297.209 268.57L298.745 267.46L300.281 266.688L301.817 266.384L303.353 266.671L304.889 267.578L306.425 269.012L309.497 272.796L312.569 277.143L314.105 279.623L315.641 282.468L317.177 285.752L320.249 293.444L324.857 305.626L327.929 312.818L331.001 318.961L334.073 324.897L337.145 331.646L341.753 342.21L344.825 348.254L350.969 359.219L355.577 366.984L360.185 374.283L363.257 378.659L366.329 382.202L369.401 385.074L378.617 393.047L381.689 395.526L386.297 398.803L390.905 401.903L392.441 402.764L393.977 403.451L395.513 403.946L398.585 404.467L403.193 404.942L407.801 405.798L417.017 407.548L421.625 408.131L432.378 409.025L440.058 409.412L455.418 409.77L463.098 409.818L476.922 410.031L495.354 410.092L515.322 410.111" fill="#EFEFEF" fill-opacity="0.4"/>
<path d="M209.656 410.111L220.408 409.99L231.16 409.472L234.232 409.067L237.304 408.302L240.376 407.041L241.912 406.162L243.448 405.073L244.984 403.747L246.52 402.161L248.056 400.302L249.592 398.154L251.129 395.704L252.665 392.932L254.201 389.822L257.273 382.539L260.345 373.964L263.417 364.526L266.489 354.278L269.561 342.515L272.633 328.939L275.705 314.884L277.241 308.47L278.777 302.842L280.313 298.105L281.849 294.18L284.921 287.852L291.065 276.291L292.601 273.789L294.137 271.681L295.673 269.964L297.209 268.57L298.745 267.46L300.281 266.688L301.817 266.384L303.353 266.671L304.889 267.578L306.425 269.012L309.497 272.796L312.569 277.143L314.105 279.623L315.641 282.468L317.177 285.752L320.249 293.444L324.857 305.626L327.929 312.818L331.001 318.961L334.073 324.897L337.145 331.646L341.753 342.21L344.825 348.254L350.969 359.219L355.577 366.984L360.185 374.283L363.257 378.659L366.329 382.202L369.401 385.074L378.617 393.047L381.689 395.526L386.297 398.803L390.905 401.903L392.441 402.764L393.977 403.451L395.513 403.946L398.585 404.467L403.193 404.942L407.801 405.798L417.017 407.548L421.625 408.131L432.378 409.025L440.058 409.412L455.418 409.77L463.098 409.818L476.922 410.031L495.354 410.092L515.322 410.111" stroke="#EFEFEF" stroke-linecap="square"/>
</g>
<mask id="mask4_230_9918" style="mask-type:luminance" maskUnits="userSpaceOnUse" x="76" y="55" width="477" height="356">
<path d="M552.957 55.2959H76.7969V410.112H552.957V55.2959Z" fill="white"/>
</mask>
<g mask="url(#mask4_230_9918)">
<path d="M180.367 410.111L203.173 409.974L208.435 409.755L211.944 409.361L215.452 408.604L218.961 407.41L220.715 406.562L222.47 405.457L224.224 404.024L225.978 402.214L227.732 399.976L229.487 397.229L231.241 393.855L232.995 389.743L234.749 384.841L236.504 379.127L238.258 372.518L240.012 364.796L241.766 355.668L243.521 344.965L247.029 319.872L250.538 293.845L254.046 269.949L255.8 259.283L257.555 249.922L259.309 242.165L261.063 236.141L262.818 231.898L264.572 229.469L266.326 228.824L268.08 229.796L269.835 232.165L271.589 235.803L273.343 240.645L275.097 246.5L282.114 271.997L285.623 283.463L289.131 293.878L297.903 318.446L299.657 322.694L301.411 326.302L306.674 335.993L310.183 344.167L313.691 352.373L317.2 359.259L324.217 371.801L325.971 374.605L327.725 377.071L329.48 379.188L341.759 391.962L345.268 394.864L348.776 397.151L354.039 399.931L359.302 402.528L361.056 403.183L364.565 404.07L369.828 405.374L373.336 406.205L376.845 406.664L385.616 407.205L396.142 408.497L403.159 409.192L410.176 409.633L436.49 409.796L462.804 409.992L475.083 409.987L490.872 410.044L501.397 410.066L525.957 410.104L529.466 410.111" fill="#EFEFEF" fill-opacity="0.4"/>
<path d="M180.367 410.111L203.173 409.974L208.435 409.755L211.944 409.361L215.452 408.604L218.961 407.41L220.715 406.562L222.47 405.457L224.224 404.024L225.978 402.214L227.732 399.976L229.487 397.229L231.241 393.855L232.995 389.743L234.749 384.841L236.504 379.127L238.258 372.518L240.012 364.796L241.766 355.668L243.521 344.965L247.029 319.872L250.538 293.845L254.046 269.949L255.8 259.283L257.555 249.922L259.309 242.165L261.063 236.141L262.818 231.898L264.572 229.469L266.326 228.824L268.08 229.796L269.835 232.165L271.589 235.803L273.343 240.645L275.097 246.5L282.114 271.997L285.623 283.463L289.131 293.878L297.903 318.446L299.657 322.694L301.411 326.302L306.674 335.993L310.183 344.167L313.691 352.373L317.2 359.259L324.217 371.801L325.971 374.605L327.725 377.071L329.48 379.188L341.759 391.962L345.268 394.864L348.776 397.151L354.039 399.931L359.302 402.528L361.056 403.183L364.565 404.07L369.828 405.374L373.336 406.205L376.845 406.664L385.616 407.205L396.142 408.497L403.159 409.192L410.176 409.633L436.49 409.796L462.804 409.992L475.083 409.987L490.872 410.044L501.397 410.066L525.957 410.104L529.466 410.111" stroke="#EFEFEF" stroke-linecap="square"/>
</g>
<mask id="mask5_230_9918" style="mask-type:luminance" maskUnits="userSpaceOnUse" x="76" y="55" width="477" height="356">
<path d="M552.957 55.2959H76.7969V410.112H552.957V55.2959Z" fill="white"/>
</mask>
<g mask="url(#mask5_230_9918)">
<path d="M217.367 410.11L226.601 409.949L231.218 409.838L241.991 408.867L245.069 408.146L246.608 407.55L248.147 406.752L251.225 404.624L254.303 402.061L257.381 399.028L258.92 397.039L260.459 394.457L261.998 391.157L263.537 387.156L265.076 382.522L266.615 377.289L268.154 371.485L269.693 365.081L271.232 357.831L272.771 349.276L274.31 339.047L275.849 327.139L278.927 299.511L286.622 224.065L288.161 210.878L289.7 199.421L291.239 190.358L292.778 184.237L294.317 180.924L295.856 179.474L297.395 178.752L298.934 178.251L300.473 178.487L302.012 180.723L303.551 186.08L305.09 194.654L306.629 205.518L317.402 289.195L320.48 309.446L323.558 326.536L325.097 333.756L326.636 339.891L328.175 345.023L331.253 353.597L334.331 361.226L338.948 372.064L340.487 375.365L342.026 378.133L343.565 380.343L348.182 386.241L351.26 390.82L352.799 392.802L354.338 394.242L355.877 395.137L358.955 396.324L362.033 398.068L368.189 401.824L369.728 402.648L372.806 403.773L375.884 404.877L378.962 405.958L382.04 406.534L386.657 407.177L400.508 408.437L406.664 409.437L409.742 409.637L418.976 409.686L425.132 409.736L434.366 409.946L482.075 410.071L491.309 410.102L512.855 410.051L523.628 410.111" fill="#EFEFEF" fill-opacity="0.4"/>
<path d="M217.367 410.11L226.601 409.949L231.218 409.838L241.991 408.867L245.069 408.146L246.608 407.55L248.147 406.752L251.225 404.624L254.303 402.061L257.381 399.028L258.92 397.039L260.459 394.457L261.998 391.157L263.537 387.156L265.076 382.522L266.615 377.289L268.154 371.485L269.693 365.081L271.232 357.831L272.771 349.276L274.31 339.047L275.849 327.139L278.927 299.511L286.622 224.065L288.161 210.878L289.7 199.421L291.239 190.358L292.778 184.237L294.317 180.924L295.856 179.474L297.395 178.752L298.934 178.251L300.473 178.487L302.012 180.723L303.551 186.08L305.09 194.654L306.629 205.518L317.402 289.195L320.48 309.446L323.558 326.536L325.097 333.756L326.636 339.891L328.175 345.023L331.253 353.597L334.331 361.226L338.948 372.064L340.487 375.365L342.026 378.133L343.565 380.343L348.182 386.241L351.26 390.82L352.799 392.802L354.338 394.242L355.877 395.137L358.955 396.324L362.033 398.068L368.189 401.824L369.728 402.648L372.806 403.773L375.884 404.877L378.962 405.958L382.04 406.534L386.657 407.177L400.508 408.437L406.664 409.437L409.742 409.637L418.976 409.686L425.132 409.736L434.366 409.946L482.075 410.071L491.309 410.102L512.855 410.051L523.628 410.111" stroke="#EFEFEF" stroke-linecap="square"/>
</g>
<mask id="mask6_230_9918" style="mask-type:luminance" maskUnits="userSpaceOnUse" x="76" y="55" width="477" height="356">
<path d="M552.957 55.2959H76.7969V410.112H552.957V55.2959Z" fill="white"/>
</mask>
<g mask="url(#mask6_230_9918)">
<path d="M234.914 410.111L243.035 409.999L256.569 409.346L260.629 408.629L267.396 407.149L270.103 406.085L276.87 402.88L278.224 402.042L279.577 400.909L280.931 399.418L283.637 395.658L289.051 387.848L290.405 385.311L291.758 382.26L294.465 374.952L299.879 359.596L302.585 351.93L303.939 347.407L305.292 342.2L307.999 329.967L316.12 290.083L318.827 277.658L321.533 263.2L324.24 248.223L326.947 234.835L328.301 228.887L329.654 223.716L331.007 219.747L332.361 217.263L333.714 216.132L335.068 215.878L336.421 216.003L337.775 216.285L339.128 216.814L340.481 217.854L341.835 219.691L343.188 222.543L344.542 226.495L345.895 231.46L348.602 243.615L351.309 258.162L354.016 275.254L358.076 301.839L362.136 326.695L364.843 341.89L367.55 355.024L368.903 360.592L370.257 365.409L371.61 369.517L372.964 373.039L374.317 376.112L375.67 378.814L377.024 381.164L379.731 384.938L385.144 391.361L386.498 392.773L387.851 393.925L389.205 394.79L397.325 398.829L400.032 400.142L412.213 405.077L414.92 405.659L423.04 406.579L429.808 408.001L435.221 408.61L444.695 409.467L451.462 409.69L489.358 410.026L497.479 410.07L504.246 410.111" fill="#EFEFEF" fill-opacity="0.4"/>
<path d="M234.914 410.111L243.035 409.999L256.569 409.346L260.629 408.629L267.396 407.149L270.103 406.085L276.87 402.88L278.224 402.042L279.577 400.909L280.931 399.418L283.637 395.658L289.051 387.848L290.405 385.311L291.758 382.26L294.465 374.952L299.879 359.596L302.585 351.93L303.939 347.407L305.292 342.2L307.999 329.967L316.12 290.083L318.827 277.658L321.533 263.2L324.24 248.223L326.947 234.835L328.301 228.887L329.654 223.716L331.007 219.747L332.361 217.263L333.714 216.132L335.068 215.878L336.421 216.003L337.775 216.285L339.128 216.814L340.481 217.854L341.835 219.691L343.188 222.543L344.542 226.495L345.895 231.46L348.602 243.615L351.309 258.162L354.016 275.254L358.076 301.839L362.136 326.695L364.843 341.89L367.55 355.024L368.903 360.592L370.257 365.409L371.61 369.517L372.964 373.039L374.317 376.112L375.67 378.814L377.024 381.164L379.731 384.938L385.144 391.361L386.498 392.773L387.851 393.925L389.205 394.79L397.325 398.829L400.032 400.142L412.213 405.077L414.92 405.659L423.04 406.579L429.808 408.001L435.221 408.61L444.695 409.467L451.462 409.69L489.358 410.026L497.479 410.07L504.246 410.111" stroke="#EFEFEF" stroke-linecap="square"/>
</g>
<mask id="mask7_230_9918" style="mask-type:luminance" maskUnits="userSpaceOnUse" x="76" y="55" width="477" height="356">
<path d="M552.957 55.2959H76.7969V410.112H552.957V55.2959Z" fill="white"/>
</mask>
<g mask="url(#mask7_230_9918)">
<path d="M201.023 410.111L216.665 409.958L222.921 409.653L226.049 409.281L229.177 408.637L232.306 407.686L235.434 406.437L238.562 404.851L241.69 402.821L244.819 400.201L246.383 398.602L247.947 396.768L249.511 394.674L251.075 392.307L254.203 386.731L257.331 379.918L260.46 371.736L263.588 362.403L271.408 338.013L274.537 329.442L277.665 322.055L282.357 311.421L288.614 296.168L290.178 293.202L291.742 290.834L293.306 288.972L296.434 286.069L299.562 283.7L301.126 282.972L302.691 282.81L304.255 283.307L305.819 284.398L308.947 287.504L316.768 295.68L323.024 303.159L326.152 306.853L329.28 311.27L332.409 316.423L337.101 324.744L341.793 333.74L349.614 349.332L352.742 354.695L357.434 362.081L363.691 371.368L369.947 380.537L373.076 384.416L374.64 385.978L377.768 388.486L387.152 394.877L394.973 399.922L398.101 401.522L401.229 402.752L407.486 404.715L412.178 405.896L416.871 406.693L423.127 407.425L441.896 409.007L448.153 409.338L474.743 409.904L512.281 410.111" fill="#EFEFEF" fill-opacity="0.4"/>
<path d="M201.023 410.111L216.665 409.958L222.921 409.653L226.049 409.281L229.177 408.637L232.306 407.686L235.434 406.437L238.562 404.851L241.69 402.821L244.819 400.201L246.383 398.602L247.947 396.768L249.511 394.674L251.075 392.307L254.203 386.731L257.331 379.918L260.46 371.736L263.588 362.403L271.408 338.013L274.537 329.442L277.665 322.055L282.357 311.421L288.614 296.168L290.178 293.202L291.742 290.834L293.306 288.972L296.434 286.069L299.562 283.7L301.126 282.972L302.691 282.81L304.255 283.307L305.819 284.398L308.947 287.504L316.768 295.68L323.024 303.159L326.152 306.853L329.28 311.27L332.409 316.423L337.101 324.744L341.793 333.74L349.614 349.332L352.742 354.695L357.434 362.081L363.691 371.368L369.947 380.537L373.076 384.416L374.64 385.978L377.768 388.486L387.152 394.877L394.973 399.922L398.101 401.522L401.229 402.752L407.486 404.715L412.178 405.896L416.871 406.693L423.127 407.425L441.896 409.007L448.153 409.338L474.743 409.904L512.281 410.111" stroke="#EFEFEF" stroke-linecap="square"/>
</g>
<mask id="mask8_230_9918" style="mask-type:luminance" maskUnits="userSpaceOnUse" x="76" y="55" width="477" height="356">
<path d="M552.957 55.2959H76.7969V410.112H552.957V55.2959Z" fill="white"/>
</mask>
<g mask="url(#mask8_230_9918)">
<path d="M232.648 410.111L241.319 409.943L247.513 409.774L257.422 409.769L263.616 409.07L267.332 408.36L269.809 407.906L273.525 406.728L276.003 406.358L280.958 404.556L282.196 404.188L283.435 403.465L284.674 402.364L285.912 400.96L287.151 399.282L288.39 397.319L289.629 395.008L290.867 392.213L292.106 388.802L294.583 380.557L297.061 371.083L299.538 358.838L302.015 344.774L303.254 336.177L305.732 316.282L308.209 294.892L309.448 282.082L310.686 266.555L313.164 228.836L316.88 170.4L319.357 135.845L321.835 109.279L324.312 85.5587L325.551 76.4612L326.789 72.1924L328.028 74.1222L329.267 81.666L330.505 92.904L331.744 106.227L332.983 121.354L334.222 138.813L336.699 181.16L339.176 227.161L341.654 265.378L344.131 297.35L346.609 323.374L350.325 356.371L351.563 365.371L352.802 372.387L354.041 377.522L357.757 390.408L358.996 394.715L360.234 398.096L361.473 400.592L363.95 404.488L365.189 405.916L366.428 406.837L367.666 407.361L372.621 408.527L377.576 409.267L380.053 409.446L391.202 409.353L393.679 409.361L397.395 409.983L402.35 410.025L406.066 409.949L409.782 409.772L415.976 409.957L422.169 409.725L428.363 409.802L430.84 409.831L434.556 410.079L441.988 409.974L446.943 409.716L451.898 410.081L456.853 410.028L465.523 410.008L479.149 410.111" fill="#EFEFEF" fill-opacity="0.4"/>
<path d="M232.648 410.111L241.319 409.943L247.513 409.774L257.422 409.769L263.616 409.07L267.332 408.36L269.809 407.906L273.525 406.728L276.003 406.358L280.958 404.556L282.196 404.188L283.435 403.465L284.674 402.364L285.912 400.96L287.151 399.282L288.39 397.319L289.629 395.008L290.867 392.213L292.106 388.802L294.583 380.557L297.061 371.083L299.538 358.838L302.015 344.774L303.254 336.177L305.732 316.282L308.209 294.892L309.448 282.082L310.686 266.555L313.164 228.836L316.88 170.4L319.357 135.845L321.835 109.279L324.312 85.5587L325.551 76.4612L326.789 72.1924L328.028 74.1222L329.267 81.666L330.505 92.904L331.744 106.227L332.983 121.354L334.222 138.813L336.699 181.16L339.176 227.161L341.654 265.378L344.131 297.35L346.609 323.374L350.325 356.371L351.563 365.371L352.802 372.387L354.041 377.522L357.757 390.408L358.996 394.715L360.234 398.096L361.473 400.592L363.95 404.488L365.189 405.916L366.428 406.837L367.666 407.361L372.621 408.527L377.576 409.267L380.053 409.446L391.202 409.353L393.679 409.361L397.395 409.983L402.35 410.025L406.066 409.949L409.782 409.772L415.976 409.957L422.169 409.725L428.363 409.802L430.84 409.831L434.556 410.079L441.988 409.974L446.943 409.716L451.898 410.081L456.853 410.028L465.523 410.008L479.149 410.111" stroke="#EFEFEF" stroke-linecap="square"/>
</g>
<mask id="mask9_230_9918" style="mask-type:luminance" maskUnits="userSpaceOnUse" x="76" y="55" width="477" height="356">
<path d="M552.957 55.2959H76.7969V410.112H552.957V55.2959Z" fill="white"/>
</mask>
<g mask="url(#mask9_230_9918)">
<path d="M216.727 410.111L225.282 409.965L229.56 409.543L232.412 408.98L235.264 408.111L238.116 406.925L239.542 406.187L240.967 405.281L242.393 404.097L243.819 402.496L245.245 400.332L246.671 397.474L248.097 393.816L249.523 389.293L250.949 383.889L252.375 377.646L255.227 362.901L258.079 345.358L262.356 315.459L265.208 296.072L268.06 279.081L269.486 271.92L270.912 265.85L272.338 260.804L276.616 248.159L279.468 240.194L280.894 237.233L282.32 235.394L283.745 234.657L285.171 234.743L286.597 235.295L289.449 236.999L290.875 238.154L292.301 239.622L293.727 241.456L295.153 243.665L296.579 246.237L298.005 249.148L299.431 252.398L300.857 256.047L302.283 260.187L305.134 269.864L312.264 295.379L316.542 310.259L320.82 326.503L326.523 348.515L327.949 353.509L329.375 357.956L330.801 361.798L333.653 368.078L337.931 376.136L340.783 380.971L343.635 385.111L349.338 392.584L350.764 394.236L352.19 395.628L353.616 396.739L356.468 398.434L362.172 401.634L365.024 402.742L370.727 404.329L376.431 405.709L379.283 406.137L386.413 406.676L396.394 408.583L429.191 409.966L436.32 409.992L442.024 410.003L452.006 409.977L464.839 410L474.821 410.085L486.228 410.077L497.635 410.106L500.487 410.111" fill="#EFEFEF" fill-opacity="0.4"/>
<path d="M216.727 410.111L225.282 409.965L229.56 409.543L232.412 408.98L235.264 408.111L238.116 406.925L239.542 406.187L240.967 405.281L242.393 404.097L243.819 402.496L245.245 400.332L246.671 397.474L248.097 393.816L249.523 389.293L250.949 383.889L252.375 377.646L255.227 362.901L258.079 345.358L262.356 315.459L265.208 296.072L268.06 279.081L269.486 271.92L270.912 265.85L272.338 260.804L276.616 248.159L279.468 240.194L280.894 237.233L282.32 235.394L283.745 234.657L285.171 234.743L286.597 235.295L289.449 236.999L290.875 238.154L292.301 239.622L293.727 241.456L295.153 243.665L296.579 246.237L298.005 249.148L299.431 252.398L300.857 256.047L302.283 260.187L305.134 269.864L312.264 295.379L316.542 310.259L320.82 326.503L326.523 348.515L327.949 353.509L329.375 357.956L330.801 361.798L333.653 368.078L337.931 376.136L340.783 380.971L343.635 385.111L349.338 392.584L350.764 394.236L352.19 395.628L353.616 396.739L356.468 398.434L362.172 401.634L365.024 402.742L370.727 404.329L376.431 405.709L379.283 406.137L386.413 406.676L396.394 408.583L429.191 409.966L436.32 409.992L442.024 410.003L452.006 409.977L464.839 410L474.821 410.085L486.228 410.077L497.635 410.106L500.487 410.111" stroke="#EFEFEF" stroke-linecap="square"/>
</g>
<mask id="mask10_230_9918" style="mask-type:luminance" maskUnits="userSpaceOnUse" x="76" y="55" width="477" height="356">
<path d="M552.957 55.2959H76.7969V410.112H552.957V55.2959Z" fill="white"/>
</mask>
<g mask="url(#mask10_230_9918)">
<path d="M198.477 410.111L219.445 409.949L227.51 409.66L232.349 409.077L235.574 408.326L238.8 407.053L240.413 406.172L242.026 405.078L243.639 403.733L245.252 402.102L246.865 400.106L248.478 397.592L250.091 394.338L251.704 390.091L253.317 384.61L254.93 377.693L256.543 369.203L258.156 359.139L261.382 335.61L264.608 311.383L269.446 277.276L275.898 226.957L277.511 217.574L279.124 209.978L280.737 203.639L282.35 198.326L283.963 194.252L285.576 191.773L287.189 191.106L288.802 192.362L290.415 195.642L292.028 200.96L293.641 208.077L295.254 216.521L298.479 235.488L308.157 294.459L309.77 302.937L311.383 310.462L314.609 323.621L317.835 335.459L321.061 346.221L325.9 361.488L327.513 366.071L329.126 370.121L332.351 376.917L335.577 382.811L338.803 387.926L342.029 392.244L345.255 395.802L348.481 398.814L350.094 399.976L351.707 400.853L356.546 402.72L361.385 404.446L364.61 405.097L369.449 405.771L372.675 405.88L379.127 405.915L380.74 406.156L388.805 408.017L393.644 408.66L396.869 408.713L401.708 408.556L409.773 408.957L417.838 409.301L425.903 409.506L432.354 409.677L442.032 409.656L446.871 409.986L456.549 410.011L493.647 410.059L503.324 409.978L509.776 409.965L519.454 410.111" fill="#EFEFEF" fill-opacity="0.4"/>
<path d="M198.477 410.111L219.445 409.949L227.51 409.66L232.349 409.077L235.574 408.326L238.8 407.053L240.413 406.172L242.026 405.078L243.639 403.733L245.252 402.102L246.865 400.106L248.478 397.592L250.091 394.338L251.704 390.091L253.317 384.61L254.93 377.693L256.543 369.203L258.156 359.139L261.382 335.61L264.608 311.383L269.446 277.276L275.898 226.957L277.511 217.574L279.124 209.978L280.737 203.639L282.35 198.326L283.963 194.252L285.576 191.773L287.189 191.106L288.802 192.362L290.415 195.642L292.028 200.96L293.641 208.077L295.254 216.521L298.479 235.488L308.157 294.459L309.77 302.937L311.383 310.462L314.609 323.621L317.835 335.459L321.061 346.221L325.9 361.488L327.513 366.071L329.126 370.121L332.351 376.917L335.577 382.811L338.803 387.926L342.029 392.244L345.255 395.802L348.481 398.814L350.094 399.976L351.707 400.853L356.546 402.72L361.385 404.446L364.61 405.097L369.449 405.771L372.675 405.88L379.127 405.915L380.74 406.156L388.805 408.017L393.644 408.66L396.869 408.713L401.708 408.556L409.773 408.957L417.838 409.301L425.903 409.506L432.354 409.677L442.032 409.656L446.871 409.986L456.549 410.011L493.647 410.059L503.324 409.978L509.776 409.965L519.454 410.111" stroke="#EFEFEF" stroke-linecap="square"/>
</g>
<mask id="mask11_230_9918" style="mask-type:luminance" maskUnits="userSpaceOnUse" x="76" y="55" width="477" height="356">
<path d="M552.957 55.2959H76.7969V410.112H552.957V55.2959Z" fill="white"/>
</mask>
<g mask="url(#mask11_230_9918)">
<path d="M199.602 410.111L212.467 409.961L217.291 409.697L220.507 409.21L223.724 408.287L226.94 406.876L228.548 405.96L230.156 404.87L231.764 403.568L233.372 402.005L234.98 400.123L236.589 397.848L238.197 395.108L239.805 391.84L241.413 388.012L243.021 383.632L244.629 378.731L247.845 367.485L251.062 354.247L254.278 338.799L259.102 314.166L260.711 307.055L262.319 300.958L263.927 295.824L265.535 291.442L267.143 287.59L270.359 281.026L273.576 275.591L276.792 270.699L278.4 268.503L280.008 266.671L281.616 265.387L283.224 264.793L284.832 264.947L286.441 265.812L288.049 267.268L289.657 269.145L292.873 273.493L296.089 278.179L297.698 280.883L299.306 284.083L300.914 287.887L304.13 296.908L307.346 305.979L308.954 309.946L312.171 316.791L315.387 323.349L318.603 330.534L323.428 341.586L326.644 348.265L329.86 354.002L333.076 358.787L337.901 365.785L341.117 370.495L347.55 379.249L352.374 386.429L353.982 388.488L355.59 390.222L357.198 391.638L360.415 393.795L368.455 398.233L374.888 401.342L378.104 402.682L382.928 404.196L387.753 405.852L390.969 406.927L394.185 407.539L399.01 407.908L424.74 409.429L434.389 409.657L440.821 409.833L458.511 409.921L464.943 410.008L474.592 410.029L484.241 410.057L497.106 410.082L519.62 410.111" fill="#EFEFEF" fill-opacity="0.4"/>
<path d="M199.602 410.111L212.467 409.961L217.291 409.697L220.507 409.21L223.724 408.287L226.94 406.876L228.548 405.96L230.156 404.87L231.764 403.568L233.372 402.005L234.98 400.123L236.589 397.848L238.197 395.108L239.805 391.84L241.413 388.012L243.021 383.632L244.629 378.731L247.845 367.485L251.062 354.247L254.278 338.799L259.102 314.166L260.711 307.055L262.319 300.958L263.927 295.824L265.535 291.442L267.143 287.59L270.359 281.026L273.576 275.591L276.792 270.699L278.4 268.503L280.008 266.671L281.616 265.387L283.224 264.793L284.832 264.947L286.441 265.812L288.049 267.268L289.657 269.145L292.873 273.493L296.089 278.179L297.698 280.883L299.306 284.083L300.914 287.887L304.13 296.908L307.346 305.979L308.954 309.946L312.171 316.791L315.387 323.349L318.603 330.534L323.428 341.586L326.644 348.265L329.86 354.002L333.076 358.787L337.901 365.785L341.117 370.495L347.55 379.249L352.374 386.429L353.982 388.488L355.59 390.222L357.198 391.638L360.415 393.795L368.455 398.233L374.888 401.342L378.104 402.682L382.928 404.196L387.753 405.852L390.969 406.927L394.185 407.539L399.01 407.908L424.74 409.429L434.389 409.657L440.821 409.833L458.511 409.921L464.943 410.008L474.592 410.029L484.241 410.057L497.106 410.082L519.62 410.111" stroke="#EFEFEF" stroke-linecap="square"/>
</g>
<mask id="mask12_230_9918" style="mask-type:luminance" maskUnits="userSpaceOnUse" x="76" y="55" width="477" height="356">
<path d="M552.957 55.2959H76.7969V410.112H552.957V55.2959Z" fill="white"/>
</mask>
<g mask="url(#mask12_230_9918)">
<path d="M241.711 410.111L247.532 409.993L253.353 409.616L256.264 409.364L262.085 409.262L264.996 408.774L276.638 405.891L278.093 405.119L281.004 402.652L283.915 400.055L285.37 398.527L288.281 394.475L291.191 390.073L292.646 387.07L294.102 382.959L295.557 377.646L298.468 364.622L302.834 343.981L305.744 328.802L307.199 318.984L308.655 306.742L311.565 276.66L314.476 245.363L317.387 219.758L318.842 207.172L320.297 193.027L323.208 162.273L324.663 151.246L326.118 145.56L327.574 143.622L329.029 142.888L330.484 142.396L331.94 143.374L333.395 147.488L334.85 154.824L336.305 164.167L337.761 175.013L339.216 188.072L342.127 220.309L347.948 284.769L349.403 300.12L350.858 313.134L353.769 334.214L356.68 353.585L358.135 361.614L359.59 368.368L362.501 379.945L363.956 385.098L365.411 389.581L366.867 393.199L368.322 395.834L369.777 397.499L374.143 400.639L377.054 403.558L378.509 404.82L379.964 405.833L382.875 407.231L385.786 408.224L388.696 408.726L393.062 409.008L397.428 409.264L406.16 409.917L414.892 409.922L420.713 409.992L423.623 409.976L430.9 409.69L438.176 409.96L442.542 409.905L451.274 410.109L489.112 410.05L497.844 410.112L531.316 410.111" fill="#EFEFEF" fill-opacity="0.4"/>
<path d="M241.711 410.111L247.532 409.993L253.353 409.616L256.264 409.364L262.085 409.262L264.996 408.774L276.638 405.891L278.093 405.119L281.004 402.652L283.915 400.055L285.37 398.527L288.281 394.475L291.191 390.073L292.646 387.07L294.102 382.959L295.557 377.646L298.468 364.622L302.834 343.981L305.744 328.802L307.199 318.984L308.655 306.742L311.565 276.66L314.476 245.363L317.387 219.758L318.842 207.172L320.297 193.027L323.208 162.273L324.663 151.246L326.118 145.56L327.574 143.622L329.029 142.888L330.484 142.396L331.94 143.374L333.395 147.488L334.85 154.824L336.305 164.167L337.761 175.013L339.216 188.072L342.127 220.309L347.948 284.769L349.403 300.12L350.858 313.134L353.769 334.214L356.68 353.585L358.135 361.614L359.59 368.368L362.501 379.945L363.956 385.098L365.411 389.581L366.867 393.199L368.322 395.834L369.777 397.499L374.143 400.639L377.054 403.558L378.509 404.82L379.964 405.833L382.875 407.231L385.786 408.224L388.696 408.726L393.062 409.008L397.428 409.264L406.16 409.917L414.892 409.922L420.713 409.992L423.623 409.976L430.9 409.69L438.176 409.96L442.542 409.905L451.274 410.109L489.112 410.05L497.844 410.112L531.316 410.111" stroke="#EFEFEF" stroke-linecap="square"/>
</g>
<mask id="mask13_230_9918" style="mask-type:luminance" maskUnits="userSpaceOnUse" x="76" y="55" width="477" height="356">
<path d="M552.957 55.2959H76.7969V410.112H552.957V55.2959Z" fill="white"/>
</mask>
<g mask="url(#mask13_230_9918)">
<path d="M208.445 410.111L225.685 409.959L231.954 409.571L238.224 408.999L241.358 408.498L244.493 407.612L247.627 406.22L250.762 404.388L253.896 402.047L257.031 399.089L260.165 395.524L261.733 393.446L263.3 391.104L264.867 388.459L266.435 385.473L268.002 382.106L271.136 374.22L278.973 352.394L282.107 342.605L285.242 332.217L288.376 322.984L291.511 314.385L294.645 304.52L299.347 288.818L300.915 284.606L302.482 281.347L304.049 279.021L305.616 277.38L308.751 274.91L311.886 272.811L313.453 272.085L315.02 271.634L319.722 271.001L321.289 270.942L322.856 271.227L324.424 272.066L325.991 273.529L327.558 275.529L329.126 277.923L330.693 280.63L332.26 283.669L333.827 287.088L336.962 294.88L341.664 306.682L344.798 314.207L347.933 322.514L352.635 335.338L355.769 342.728L362.038 356.74L366.74 367.388L369.875 373.661L373.009 379L377.711 385.995L380.846 390.39L382.413 392.3L383.98 393.943L387.115 396.612L391.817 400.082L394.951 402.159L398.086 403.89L401.22 405.229L404.355 406.178L412.191 407.907L415.326 408.469L420.028 408.943L427.864 409.468L446.671 410.09L460.777 410.061L512.497 410.082L520.333 410.111" fill="#EFEFEF" fill-opacity="0.4"/>
<path d="M208.445 410.111L225.685 409.959L231.954 409.571L238.224 408.999L241.358 408.498L244.493 407.612L247.627 406.22L250.762 404.388L253.896 402.047L257.031 399.089L260.165 395.524L261.733 393.446L263.3 391.104L264.867 388.459L266.435 385.473L268.002 382.106L271.136 374.22L278.973 352.394L282.107 342.605L285.242 332.217L288.376 322.984L291.511 314.385L294.645 304.52L299.347 288.818L300.915 284.606L302.482 281.347L304.049 279.021L305.616 277.38L308.751 274.91L311.886 272.811L313.453 272.085L315.02 271.634L319.722 271.001L321.289 270.942L322.856 271.227L324.424 272.066L325.991 273.529L327.558 275.529L329.126 277.923L330.693 280.63L332.26 283.669L333.827 287.088L336.962 294.88L341.664 306.682L344.798 314.207L347.933 322.514L352.635 335.338L355.769 342.728L362.038 356.74L366.74 367.388L369.875 373.661L373.009 379L377.711 385.995L380.846 390.39L382.413 392.3L383.98 393.943L387.115 396.612L391.817 400.082L394.951 402.159L398.086 403.89L401.22 405.229L404.355 406.178L412.191 407.907L415.326 408.469L420.028 408.943L427.864 409.468L446.671 410.09L460.777 410.061L512.497 410.082L520.333 410.111" stroke="#EFEFEF" stroke-linecap="square"/>
</g>
<mask id="mask14_230_9918" style="mask-type:luminance" maskUnits="userSpaceOnUse" x="76" y="55" width="477" height="356">
<path d="M552.957 55.2959H76.7969V410.112H552.957V55.2959Z" fill="white"/>
</mask>
<g mask="url(#mask14_230_9918)">
<path d="M98.4375 410.111L161.588 409.977L165.535 409.566L167.508 409.068L169.481 408.263L171.455 407.038L173.428 405.235L175.402 402.666L177.375 399.125L179.349 394.39L181.322 388.247L183.296 380.563L185.269 371.299L187.243 360.46L189.216 348.13L199.083 281.699L203.03 258.847L205.003 248.22L206.977 238.589L208.95 230.519L210.924 224.449L212.897 220.536L214.871 218.824L216.844 219.523L218.818 222.876L220.791 228.616L224.738 243.524L228.685 259.79L232.632 276.735L236.579 291.757L242.499 312.762L250.393 338.649L252.366 344.241L254.34 348.832L256.313 352.611L260.26 359.293L264.207 365.485L268.154 370.712L272.101 375.573L276.047 381.084L279.994 386.739L281.968 389.093L283.941 390.922L285.915 392.254L289.862 394.141L293.808 396.063L297.755 398.044L309.596 403.166L313.543 404.392L317.49 405.276L325.384 406.621L329.33 406.979L333.277 407.291L345.118 408.586L349.065 408.937L360.906 409.068L370.773 409.608L384.587 409.591L398.401 409.762L406.295 409.904L428.003 409.91L437.87 409.948L447.737 410.026L459.578 410.004L471.418 410.033L481.286 410.028L491.153 410.111" fill="#7EB0D5" fill-opacity="0.4"/>
<path d="M98.4375 410.111L161.588 409.977L165.535 409.566L167.508 409.068L169.481 408.263L171.455 407.038L173.428 405.235L175.402 402.666L177.375 399.125L179.349 394.39L181.322 388.247L183.296 380.563L185.269 371.299L187.243 360.46L189.216 348.13L199.083 281.699L203.03 258.847L205.003 248.22L206.977 238.589L208.95 230.519L210.924 224.449L212.897 220.536L214.871 218.824L216.844 219.523L218.818 222.876L220.791 228.616L224.738 243.524L228.685 259.79L232.632 276.735L236.579 291.757L242.499 312.762L250.393 338.649L252.366 344.241L254.34 348.832L256.313 352.611L260.26 359.293L264.207 365.485L268.154 370.712L272.101 375.573L276.047 381.084L279.994 386.739L281.968 389.093L283.941 390.922L285.915 392.254L289.862 394.141L293.808 396.063L297.755 398.044L309.596 403.166L313.543 404.392L317.49 405.276L325.384 406.621L329.33 406.979L333.277 407.291L345.118 408.586L349.065 408.937L360.906 409.068L370.773 409.608L384.587 409.591L398.401 409.762L406.295 409.904L428.003 409.91L437.87 409.948L447.737 410.026L459.578 410.004L471.418 410.033L481.286 410.028L491.153 410.111" stroke="#7EB0D5" stroke-linecap="square"/>
</g>
<path d="M535.061 411.061C535.646 410.475 535.646 409.525 535.061 408.939L525.515 399.393C524.929 398.808 523.979 398.808 523.393 399.393C522.808 399.979 522.808 400.929 523.393 401.515L531.879 410L523.393 418.485C522.808 419.071 522.808 420.021 523.393 420.607C523.979 421.192 524.929 421.192 525.515 420.607L535.061 411.061ZM79 411.5H534V408.5H79V411.5Z" fill="black"/>
</g>
<defs>
<clipPath id="clip0_230_9918">
<rect width="614.4" height="460.8" fill="white"/>
</clipPath>
</defs>
</svg>
