<svg width="615" height="461" viewBox="0 0 615 461" fill="none" xmlns="http://www.w3.org/2000/svg">
<g clip-path="url(#clip0_230_9038)">
<mask id="mask0_230_9038" style="mask-type:luminance" maskUnits="userSpaceOnUse" x="76" y="55" width="477" height="356">
<path d="M552.957 55.2959H76.7969V410.112H552.957V55.2959Z" fill="white"/>
</mask>
<g mask="url(#mask0_230_9038)">
<path d="M274.117 410.111L299.592 410.111L312.33 410.029L318.209 409.481L320.168 409.586L321.148 409.431L327.027 407.313L328.007 406.668L328.986 405.711L329.966 404.213L330.946 402.148L331.926 399.592L332.906 396.244L333.886 391.589L335.845 380.578L336.825 375.752L337.805 370.018L338.785 362.303L339.764 352.445L340.744 339.76L343.684 292.205L344.663 274.609L346.623 231.171L348.583 175.092L350.542 113.084L351.522 87.8423L352.502 72.7256L353.482 72.1924L354.462 87.4392L355.441 115.467L358.381 217.936L360.34 270.023L361.32 289.386L362.3 304.041L365.239 340.215L366.219 350.274L367.199 358.68L368.179 365.491L370.138 374.825L372.098 384.393L373.078 388.133L376.017 397.103L376.997 399.007L377.977 399.876L379.937 400.416L381.896 401.738L382.876 402.575L384.836 404.637L385.815 405.368L386.795 405.908L387.775 406.242L390.714 406.473L392.674 407.513L394.634 408.632L395.613 408.995L397.573 409.296L399.533 409.239L402.472 408.984L409.331 409.823L411.29 409.547L413.25 409.25L415.21 409.438L419.129 409.935L425.008 409.996L427.947 410.11L456.362 410.099L464.2 410.045L468.119 410.106L469.099 410.111" fill="#EFEFEF" fill-opacity="0.4"/>
<path d="M274.117 410.111L299.592 410.111L312.33 410.029L318.209 409.481L320.168 409.586L321.148 409.431L327.027 407.313L328.007 406.668L328.986 405.711L329.966 404.213L330.946 402.148L331.926 399.592L332.906 396.244L333.886 391.589L335.845 380.578L336.825 375.752L337.805 370.018L338.785 362.303L339.764 352.445L340.744 339.76L343.684 292.205L344.663 274.609L346.623 231.171L348.583 175.092L350.542 113.084L351.522 87.8423L352.502 72.7256L353.482 72.1924L354.462 87.4392L355.441 115.467L358.381 217.936L360.34 270.023L361.32 289.386L362.3 304.041L365.239 340.215L366.219 350.274L367.199 358.68L368.179 365.491L370.138 374.825L372.098 384.393L373.078 388.133L376.017 397.103L376.997 399.007L377.977 399.876L379.937 400.416L381.896 401.738L382.876 402.575L384.836 404.637L385.815 405.368L386.795 405.908L387.775 406.242L390.714 406.473L392.674 407.513L394.634 408.632L395.613 408.995L397.573 409.296L399.533 409.239L402.472 408.984L409.331 409.823L411.29 409.547L413.25 409.25L415.21 409.438L419.129 409.935L425.008 409.996L427.947 410.11L456.362 410.099L464.2 410.045L468.119 410.106L469.099 410.111" stroke="#EFEFEF" stroke-linecap="square"/>
</g>
<mask id="mask1_230_9038" style="mask-type:luminance" maskUnits="userSpaceOnUse" x="76" y="55" width="477" height="356">
<path d="M552.957 55.2959H76.7969V410.112H552.957V55.2959Z" fill="white"/>
</mask>
<g mask="url(#mask1_230_9038)">
<path d="M288.953 410.111L315.242 409.943L319.449 409.649L324.707 409.278L332.067 408.983L335.222 408.523L337.325 408.488L338.377 408.28L340.48 407.387L342.583 406.312L343.635 405.616L344.686 404.674L346.789 402.093L347.841 400.495L348.893 398.555L349.944 396.069L350.996 392.781L352.047 388.315L353.099 382.231L354.15 374.421L357.305 346.391L359.408 325.04L362.563 289.664L364.666 270.709L366.769 254.435L367.821 247.516L368.872 242.082L369.924 237.89L370.976 234.474L372.027 232.187L373.079 232.078L374.13 234.743L375.182 239.737L381.491 277.386L383.594 292.826L385.698 305.378L393.059 344.453L398.316 367.897L400.42 376.15L401.471 379.292L406.729 392.089L407.781 394.315L408.832 396.126L410.935 398.864L414.09 402.409L416.193 404.379L418.296 405.633L421.451 406.825L427.76 408.758L433.018 409.454L436.173 409.793L441.431 409.897L446.689 409.947L460.359 410.089L466.668 410.06L474.029 410.112L498.215 410.111" fill="#EFEFEF" fill-opacity="0.4"/>
<path d="M288.953 410.111L315.242 409.943L319.449 409.649L324.707 409.278L332.067 408.983L335.222 408.523L337.325 408.488L338.377 408.28L340.48 407.387L342.583 406.312L343.635 405.616L344.686 404.674L346.789 402.093L347.841 400.495L348.893 398.555L349.944 396.069L350.996 392.781L352.047 388.315L353.099 382.231L354.15 374.421L357.305 346.391L359.408 325.04L362.563 289.664L364.666 270.709L366.769 254.435L367.821 247.516L368.872 242.082L369.924 237.89L370.976 234.474L372.027 232.187L373.079 232.078L374.13 234.743L375.182 239.737L381.491 277.386L383.594 292.826L385.698 305.378L393.059 344.453L398.316 367.897L400.42 376.15L401.471 379.292L406.729 392.089L407.781 394.315L408.832 396.126L410.935 398.864L414.09 402.409L416.193 404.379L418.296 405.633L421.451 406.825L427.76 408.758L433.018 409.454L436.173 409.793L441.431 409.897L446.689 409.947L460.359 410.089L466.668 410.06L474.029 410.112L498.215 410.111" stroke="#EFEFEF" stroke-linecap="square"/>
</g>
<mask id="mask2_230_9038" style="mask-type:luminance" maskUnits="userSpaceOnUse" x="76" y="55" width="477" height="356">
<path d="M552.957 55.2959H76.7969V410.112H552.957V55.2959Z" fill="white"/>
</mask>
<g mask="url(#mask2_230_9038)">
<path d="M271.359 410.111L278.979 409.967L285.33 409.607L287.87 409.205L290.41 408.454L292.95 407.286L294.22 406.545L295.49 405.619L296.76 404.393L298.03 402.805L299.3 400.881L301.84 396.164L305.65 387.59L308.19 381.257L310.73 374.135L313.27 365.819L317.08 351.392L322.16 331.802L328.51 309.786L333.59 290.69L334.86 286.898L336.13 284.355L337.4 282.847L339.94 280.973L341.21 280.185L342.48 279.706L343.75 279.931L345.02 281.278L346.29 283.997L347.56 288.096L348.831 293.384L352.641 312.408L360.261 350.489L364.071 367.118L366.611 376.421L367.881 380.199L370.421 386.378L372.961 391.773L375.501 396.228L376.771 397.98L378.041 399.371L384.391 404.804L385.661 405.739L386.931 406.403L388.201 406.78L393.281 407.625L397.091 408.665L399.631 408.99L411.061 409.877L419.952 409.989L521.553 410.105L524.093 410.111" fill="#EFEFEF" fill-opacity="0.4"/>
<path d="M271.359 410.111L278.979 409.967L285.33 409.607L287.87 409.205L290.41 408.454L292.95 407.286L294.22 406.545L295.49 405.619L296.76 404.393L298.03 402.805L299.3 400.881L301.84 396.164L305.65 387.59L308.19 381.257L310.73 374.135L313.27 365.819L317.08 351.392L322.16 331.802L328.51 309.786L333.59 290.69L334.86 286.898L336.13 284.355L337.4 282.847L339.94 280.973L341.21 280.185L342.48 279.706L343.75 279.931L345.02 281.278L346.29 283.997L347.56 288.096L348.831 293.384L352.641 312.408L360.261 350.489L364.071 367.118L366.611 376.421L367.881 380.199L370.421 386.378L372.961 391.773L375.501 396.228L376.771 397.98L378.041 399.371L384.391 404.804L385.661 405.739L386.931 406.403L388.201 406.78L393.281 407.625L397.091 408.665L399.631 408.99L411.061 409.877L419.952 409.989L521.553 410.105L524.093 410.111" stroke="#EFEFEF" stroke-linecap="square"/>
</g>
<mask id="mask3_230_9038" style="mask-type:luminance" maskUnits="userSpaceOnUse" x="76" y="55" width="477" height="356">
<path d="M552.957 55.2959H76.7969V410.112H552.957V55.2959Z" fill="white"/>
</mask>
<g mask="url(#mask3_230_9038)">
<path d="M281.523 410.111L288.301 409.962L293.948 409.494L299.596 408.788L301.855 408.14L302.984 407.555L305.244 405.862L307.503 403.598L310.891 399.473L313.15 396.455L314.28 394.695L316.539 390.353L319.927 382.689L322.186 376.706L323.316 373.094L325.575 364.409L332.352 335.244L334.611 326.624L336.87 319.556L342.518 303.282L343.647 301.17L349.295 292.998L350.425 292.03L351.554 291.993L352.684 292.829L354.943 295.848L358.331 301.024L360.59 305.446L362.849 310.853L366.238 319.964L370.756 332.753L373.015 340.066L375.274 348.807L379.792 367.8L382.051 375.645L384.311 381.991L386.57 387.285L388.829 391.744L391.088 395.395L394.476 400.38L396.735 403.013L398.994 404.841L401.253 406.27L403.512 407.401L405.772 408.023L410.29 408.512L419.326 409.389L426.103 409.728L447.564 410.024L457.73 410.053L475.802 410.107L506.3 410.111" fill="#EFEFEF" fill-opacity="0.4"/>
<path d="M281.523 410.111L288.301 409.962L293.948 409.494L299.596 408.788L301.855 408.14L302.984 407.555L305.244 405.862L307.503 403.598L310.891 399.473L313.15 396.455L314.28 394.695L316.539 390.353L319.927 382.689L322.186 376.706L323.316 373.094L325.575 364.409L332.352 335.244L334.611 326.624L336.87 319.556L342.518 303.282L343.647 301.17L349.295 292.998L350.425 292.03L351.554 291.993L352.684 292.829L354.943 295.848L358.331 301.024L360.59 305.446L362.849 310.853L366.238 319.964L370.756 332.753L373.015 340.066L375.274 348.807L379.792 367.8L382.051 375.645L384.311 381.991L386.57 387.285L388.829 391.744L391.088 395.395L394.476 400.38L396.735 403.013L398.994 404.841L401.253 406.27L403.512 407.401L405.772 408.023L410.29 408.512L419.326 409.389L426.103 409.728L447.564 410.024L457.73 410.053L475.802 410.107L506.3 410.111" stroke="#EFEFEF" stroke-linecap="square"/>
</g>
<mask id="mask4_230_9038" style="mask-type:luminance" maskUnits="userSpaceOnUse" x="76" y="55" width="477" height="356">
<path d="M552.957 55.2959H76.7969V410.112H552.957V55.2959Z" fill="white"/>
</mask>
<g mask="url(#mask4_230_9038)">
<path d="M247.938 410.111L270.721 409.994L274.993 409.727L277.841 409.311L280.689 408.608L283.537 407.535L284.961 406.815L286.385 405.929L287.809 404.827L289.233 403.451L290.657 401.742L292.081 399.651L293.505 397.144L294.929 394.218L297.777 387.253L300.625 379.249L306.321 361.97L312.017 344.704L314.865 337.172L317.713 330.933L319.137 328.304L320.561 326.006L321.984 324.05L323.408 322.437L324.832 321.15L326.256 320.157L327.68 319.445L329.104 319.029L330.528 318.951L331.952 319.244L333.376 319.902L334.8 320.879L336.224 322.11L337.648 323.55L339.072 325.209L340.496 327.148L341.92 329.465L343.344 332.258L344.768 335.589L346.192 339.459L349.04 348.506L353.312 362.944L354.736 367.253L356.16 371.086L357.584 374.391L359.008 377.167L360.432 379.443L361.856 381.26L363.28 382.665L364.704 383.711L366.128 384.45L367.552 384.935L368.976 385.21L371.824 385.3L378.944 385.024L388.912 385.149L391.76 385.813L394.608 386.911L397.455 388.325L400.303 390.03L408.847 395.788L418.815 402.528L421.663 404.178L424.511 405.527L428.783 407.083L433.055 408.26L435.903 408.748L441.599 409.268L450.143 409.797L458.687 409.942L492.862 410.088L522.766 410.095L531.31 410.111" fill="#EFEFEF" fill-opacity="0.4"/>
<path d="M247.938 410.111L270.721 409.994L274.993 409.727L277.841 409.311L280.689 408.608L283.537 407.535L284.961 406.815L286.385 405.929L287.809 404.827L289.233 403.451L290.657 401.742L292.081 399.651L293.505 397.144L294.929 394.218L297.777 387.253L300.625 379.249L306.321 361.97L312.017 344.704L314.865 337.172L317.713 330.933L319.137 328.304L320.561 326.006L321.984 324.05L323.408 322.437L324.832 321.15L326.256 320.157L327.68 319.445L329.104 319.029L330.528 318.951L331.952 319.244L333.376 319.902L334.8 320.879L336.224 322.11L337.648 323.55L339.072 325.209L340.496 327.148L341.92 329.465L343.344 332.258L344.768 335.589L346.192 339.459L349.04 348.506L353.312 362.944L354.736 367.253L356.16 371.086L357.584 374.391L359.008 377.167L360.432 379.443L361.856 381.26L363.28 382.665L364.704 383.711L366.128 384.45L367.552 384.935L368.976 385.21L371.824 385.3L378.944 385.024L388.912 385.149L391.76 385.813L394.608 386.911L397.455 388.325L400.303 390.03L408.847 395.788L418.815 402.528L421.663 404.178L424.511 405.527L428.783 407.083L433.055 408.26L435.903 408.748L441.599 409.268L450.143 409.797L458.687 409.942L492.862 410.088L522.766 410.095L531.31 410.111" stroke="#EFEFEF" stroke-linecap="square"/>
</g>
<mask id="mask5_230_9038" style="mask-type:luminance" maskUnits="userSpaceOnUse" x="76" y="55" width="477" height="356">
<path d="M552.957 55.2959H76.7969V410.112H552.957V55.2959Z" fill="white"/>
</mask>
<g mask="url(#mask5_230_9038)">
<path d="M277.07 410.111L292.277 409.958L295.786 409.747L302.804 409.811L307.483 409.46L310.992 409.141L314.501 408.824L320.35 407.72L322.689 406.891L329.708 404.02L332.047 403.125L333.217 402.279L334.386 401.071L336.726 398.207L337.896 397.032L340.235 395.261L341.405 394.014L343.744 390.7L344.914 389.671L346.084 389.349L347.253 389.21L348.423 388.578L349.593 387.111L350.763 384.831L351.932 381.851L354.272 374.372L356.611 365.861L357.781 360.94L358.951 355.304L361.29 341.702L363.629 324.819L365.969 303.755L369.478 266.628L372.987 228.258L374.157 219.194L375.327 213.345L376.496 210.674L377.666 211.366L378.836 215.647L380.005 222.927L382.345 241.69L383.515 252.926L385.854 281.333L388.193 309.409L390.533 332.088L392.872 351.429L394.042 359.167L396.381 371.686L398.721 382.066L401.06 390.912L402.23 394.455L403.4 397.182L404.57 399.154L406.909 401.955L409.248 404.378L410.418 405.304L412.758 406.623L415.097 407.734L417.436 408.451L423.285 409.154L425.624 409.681L427.964 409.924L432.643 409.877L436.152 409.883L443.17 410.047L460.716 410.111L509.844 410.111" fill="#EFEFEF" fill-opacity="0.4"/>
<path d="M277.07 410.111L292.277 409.958L295.786 409.747L302.804 409.811L307.483 409.46L310.992 409.141L314.501 408.824L320.35 407.72L322.689 406.891L329.708 404.02L332.047 403.125L333.217 402.279L334.386 401.071L336.726 398.207L337.896 397.032L340.235 395.261L341.405 394.014L343.744 390.7L344.914 389.671L346.084 389.349L347.253 389.21L348.423 388.578L349.593 387.111L350.763 384.831L351.932 381.851L354.272 374.372L356.611 365.861L357.781 360.94L358.951 355.304L361.29 341.702L363.629 324.819L365.969 303.755L369.478 266.628L372.987 228.258L374.157 219.194L375.327 213.345L376.496 210.674L377.666 211.366L378.836 215.647L380.005 222.927L382.345 241.69L383.515 252.926L385.854 281.333L388.193 309.409L390.533 332.088L392.872 351.429L394.042 359.167L396.381 371.686L398.721 382.066L401.06 390.912L402.23 394.455L403.4 397.182L404.57 399.154L406.909 401.955L409.248 404.378L410.418 405.304L412.758 406.623L415.097 407.734L417.436 408.451L423.285 409.154L425.624 409.681L427.964 409.924L432.643 409.877L436.152 409.883L443.17 410.047L460.716 410.111L509.844 410.111" stroke="#EFEFEF" stroke-linecap="square"/>
</g>
<mask id="mask6_230_9038" style="mask-type:luminance" maskUnits="userSpaceOnUse" x="76" y="55" width="477" height="356">
<path d="M552.957 55.2959H76.7969V410.112H552.957V55.2959Z" fill="white"/>
</mask>
<g mask="url(#mask6_230_9038)">
<path d="M262.945 410.111L279.443 409.937L282.743 409.729L286.042 409.241L290.442 408.284L292.642 407.649L294.841 406.744L300.341 403.983L304.74 402.461L310.24 400.246L315.739 397.903L319.038 396.183L322.338 394.512L324.538 393.823L327.837 393.229L328.937 392.847L330.037 392.216L331.137 391.3L333.337 388.735L341.036 378.336L343.235 375.325L345.435 371.521L347.635 366.622L349.835 360.717L355.334 344.754L356.434 340.755L357.534 336.046L358.634 330.524L360.833 317.043L367.433 270.859L368.532 264.756L369.632 259.558L370.732 255.498L371.832 252.847L372.932 251.838L374.032 252.605L375.132 255.142L376.231 259.317L377.331 264.917L379.531 279.375L382.831 305.266L387.23 339.734L389.43 355.22L391.63 368.866L393.829 379.83L396.029 388.08L398.229 394.477L399.329 397.094L400.428 399.298L401.528 401.106L403.728 403.832L405.928 405.812L408.128 407.152L410.327 407.948L414.727 408.953L418.026 409.398L425.725 409.767L433.424 409.957L442.223 410.031L449.922 410.047L460.921 410.112L481.819 410.111" fill="#EFEFEF" fill-opacity="0.4"/>
<path d="M262.945 410.111L279.443 409.937L282.743 409.729L286.042 409.241L290.442 408.284L292.642 407.649L294.841 406.744L300.341 403.983L304.74 402.461L310.24 400.246L315.739 397.903L319.038 396.183L322.338 394.512L324.538 393.823L327.837 393.229L328.937 392.847L330.037 392.216L331.137 391.3L333.337 388.735L341.036 378.336L343.235 375.325L345.435 371.521L347.635 366.622L349.835 360.717L355.334 344.754L356.434 340.755L357.534 336.046L358.634 330.524L360.833 317.043L367.433 270.859L368.532 264.756L369.632 259.558L370.732 255.498L371.832 252.847L372.932 251.838L374.032 252.605L375.132 255.142L376.231 259.317L377.331 264.917L379.531 279.375L382.831 305.266L387.23 339.734L389.43 355.22L391.63 368.866L393.829 379.83L396.029 388.08L398.229 394.477L399.329 397.094L400.428 399.298L401.528 401.106L403.728 403.832L405.928 405.812L408.128 407.152L410.327 407.948L414.727 408.953L418.026 409.398L425.725 409.767L433.424 409.957L442.223 410.031L449.922 410.047L460.921 410.112L481.819 410.111" stroke="#EFEFEF" stroke-linecap="square"/>
</g>
<mask id="mask7_230_9038" style="mask-type:luminance" maskUnits="userSpaceOnUse" x="76" y="55" width="477" height="356">
<path d="M552.957 55.2959H76.7969V410.112H552.957V55.2959Z" fill="white"/>
</mask>
<g mask="url(#mask7_230_9038)">
<path d="M264.805 410.111L274.7 409.98L279.647 409.606L283.358 409.01L287.068 408.151L289.542 407.292L292.016 405.972L294.489 404.056L296.963 401.609L299.437 398.731L301.911 395.294L304.384 391.033L306.858 385.74L309.332 379.265L311.806 371.604L321.7 338.602L322.937 335.295L324.174 332.523L325.411 330.385L326.648 328.897L327.885 327.984L329.122 327.505L330.358 327.31L332.832 327.333L335.306 327.724L336.543 328.122L337.78 328.7L340.253 330.393L347.675 336.797L350.148 339.226L352.622 342.31L355.096 346.063L358.806 351.912L361.28 354.962L363.754 357.231L368.701 361.235L371.175 362.758L373.649 363.735L376.122 364.619L377.359 365.236L379.833 366.982L384.781 371.371L387.254 373.796L389.728 376.676L393.439 381.75L398.386 388.683L400.86 391.806L403.333 394.58L405.807 397.005L409.518 400.157L413.228 402.996L415.702 404.659L418.176 406.054L420.65 407.17L423.123 408.004L425.597 408.581L429.308 409.095L435.492 409.486L447.861 410.063L458.992 410.11L510.941 410.112" fill="#EFEFEF" fill-opacity="0.4"/>
<path d="M264.805 410.111L274.7 409.98L279.647 409.606L283.358 409.01L287.068 408.151L289.542 407.292L292.016 405.972L294.489 404.056L296.963 401.609L299.437 398.731L301.911 395.294L304.384 391.033L306.858 385.74L309.332 379.265L311.806 371.604L321.7 338.602L322.937 335.295L324.174 332.523L325.411 330.385L326.648 328.897L327.885 327.984L329.122 327.505L330.358 327.31L332.832 327.333L335.306 327.724L336.543 328.122L337.78 328.7L340.253 330.393L347.675 336.797L350.148 339.226L352.622 342.31L355.096 346.063L358.806 351.912L361.28 354.962L363.754 357.231L368.701 361.235L371.175 362.758L373.649 363.735L376.122 364.619L377.359 365.236L379.833 366.982L384.781 371.371L387.254 373.796L389.728 376.676L393.439 381.75L398.386 388.683L400.86 391.806L403.333 394.58L405.807 397.005L409.518 400.157L413.228 402.996L415.702 404.659L418.176 406.054L420.65 407.17L423.123 408.004L425.597 408.581L429.308 409.095L435.492 409.486L447.861 410.063L458.992 410.11L510.941 410.112" stroke="#EFEFEF" stroke-linecap="square"/>
</g>
<mask id="mask8_230_9038" style="mask-type:luminance" maskUnits="userSpaceOnUse" x="76" y="55" width="477" height="356">
<path d="M552.957 55.2959H76.7969V410.112H552.957V55.2959Z" fill="white"/>
</mask>
<g mask="url(#mask8_230_9038)">
<path d="M290.18 410.111L300.478 409.954L304.439 409.773L308.4 409.968L310.776 409.759L315.529 408.891L319.49 408.682L321.074 408.092L325.035 405.919L326.619 404.916L328.204 403.606L328.996 402.625L329.788 401.267L331.372 397.788L332.957 393.613L333.749 390.597L335.333 381.984L337.71 367.264L338.502 361.28L340.086 345.791L341.671 325.2L343.255 299.036L344.839 267.608L348.008 198.425L348.8 186.74L349.592 179.366L350.384 176.161L351.177 175.851L351.969 176.831L352.761 178.366L353.553 180.727L354.345 184.438L355.137 189.686L358.306 216.481L359.098 224.723L362.267 263.214L363.851 278.65L367.02 313.213L370.189 343.986L371.773 355.164L374.149 368.156L377.318 384.801L378.903 390.812L380.487 395.318L384.448 404.204L385.24 405.367L386.824 406.944L387.616 407.449L388.409 407.708L389.993 407.906L391.577 408.524L393.162 409.148L394.746 409.37L397.915 409.428L400.291 409.573L404.252 409.979L420.887 409.835L423.264 409.818L426.433 409.952L435.939 410.005L441.484 410.078L445.445 410.083L447.821 410.111" fill="#EFEFEF" fill-opacity="0.4"/>
<path d="M290.18 410.111L300.478 409.954L304.439 409.773L308.4 409.968L310.776 409.759L315.529 408.891L319.49 408.682L321.074 408.092L325.035 405.919L326.619 404.916L328.204 403.606L328.996 402.625L329.788 401.267L331.372 397.788L332.957 393.613L333.749 390.597L335.333 381.984L337.71 367.264L338.502 361.28L340.086 345.791L341.671 325.2L343.255 299.036L344.839 267.608L348.008 198.425L348.8 186.74L349.592 179.366L350.384 176.161L351.177 175.851L351.969 176.831L352.761 178.366L353.553 180.727L354.345 184.438L355.137 189.686L358.306 216.481L359.098 224.723L362.267 263.214L363.851 278.65L367.02 313.213L370.189 343.986L371.773 355.164L374.149 368.156L377.318 384.801L378.903 390.812L380.487 395.318L384.448 404.204L385.24 405.367L386.824 406.944L387.616 407.449L388.409 407.708L389.993 407.906L391.577 408.524L393.162 409.148L394.746 409.37L397.915 409.428L400.291 409.573L404.252 409.979L420.887 409.835L423.264 409.818L426.433 409.952L435.939 410.005L441.484 410.078L445.445 410.083L447.821 410.111" stroke="#EFEFEF" stroke-linecap="square"/>
</g>
<mask id="mask9_230_9038" style="mask-type:luminance" maskUnits="userSpaceOnUse" x="76" y="55" width="477" height="356">
<path d="M552.957 55.2959H76.7969V410.112H552.957V55.2959Z" fill="white"/>
</mask>
<g mask="url(#mask9_230_9038)">
<path d="M256.742 410.112L271.053 409.976L275.456 409.705L278.758 409.299L280.96 408.802L283.161 407.94L285.363 406.7L288.666 404.45L290.867 402.592L293.069 400.093L295.27 396.771L297.472 392.454L299.674 386.948L301.875 380.226L304.077 372.48L307.379 359.857L309.581 350.475L311.782 339.46L315.085 321.845L317.286 312.187L319.488 304.816L321.69 298.967L322.79 296.544L323.891 294.547L324.992 293.069L326.093 292.164L327.194 291.832L328.294 292.03L329.395 292.709L330.496 293.836L331.597 295.384L332.698 297.314L334.899 302.064L337.101 307.711L339.302 314.436L341.504 322.391L344.807 334.809L347.008 342.135L350.311 351.764L352.512 357.464L354.714 362.582L356.915 367.054L359.117 370.787L361.319 373.917L364.621 377.992L367.923 381.778L370.125 383.815L373.427 386.027L375.629 387.719L378.931 390.97L382.234 394.094L387.738 398.87L391.04 401.25L393.242 402.577L395.443 403.613L397.645 404.316L402.048 405.572L410.855 408.285L414.157 408.98L417.46 409.294L426.266 409.638L446.08 410.028L475.802 410.112" fill="#EFEFEF" fill-opacity="0.4"/>
<path d="M256.742 410.112L271.053 409.976L275.456 409.705L278.758 409.299L280.96 408.802L283.161 407.94L285.363 406.7L288.666 404.45L290.867 402.592L293.069 400.093L295.27 396.771L297.472 392.454L299.674 386.948L301.875 380.226L304.077 372.48L307.379 359.857L309.581 350.475L311.782 339.46L315.085 321.845L317.286 312.187L319.488 304.816L321.69 298.967L322.79 296.544L323.891 294.547L324.992 293.069L326.093 292.164L327.194 291.832L328.294 292.03L329.395 292.709L330.496 293.836L331.597 295.384L332.698 297.314L334.899 302.064L337.101 307.711L339.302 314.436L341.504 322.391L344.807 334.809L347.008 342.135L350.311 351.764L352.512 357.464L354.714 362.582L356.915 367.054L359.117 370.787L361.319 373.917L364.621 377.992L367.923 381.778L370.125 383.815L373.427 386.027L375.629 387.719L378.931 390.97L382.234 394.094L387.738 398.87L391.04 401.25L393.242 402.577L395.443 403.613L397.645 404.316L402.048 405.572L410.855 408.285L414.157 408.98L417.46 409.294L426.266 409.638L446.08 410.028L475.802 410.112" stroke="#EFEFEF" stroke-linecap="square"/>
</g>
<mask id="mask10_230_9038" style="mask-type:luminance" maskUnits="userSpaceOnUse" x="76" y="55" width="477" height="356">
<path d="M552.957 55.2959H76.7969V410.112H552.957V55.2959Z" fill="white"/>
</mask>
<g mask="url(#mask10_230_9038)">
<path d="M260.391 410.111L274.053 409.982L279.021 409.664L281.505 409.277L283.989 408.699L286.473 407.833L287.715 407.19L288.957 406.349L290.199 405.273L291.442 403.916L292.684 402.242L293.926 400.229L295.168 397.849L296.41 395.024L297.652 391.627L298.894 387.565L301.378 377.614L303.862 366.034L306.346 353.022L307.588 345.545L310.072 327.923L313.798 300.407L317.524 275.162L320.008 257.95L321.25 250.82L322.492 245.259L323.734 241.291L324.977 238.93L326.219 238.389L327.461 240.009L328.703 244.038L329.945 250.47L331.187 259.053L332.429 269.444L334.913 294.281L338.639 333.335L339.881 344.311L341.123 353.891L342.365 362.182L343.607 369.247L344.849 375.056L346.091 379.607L347.333 383.031L348.575 385.553L349.817 387.357L351.059 388.534L352.301 389.164L353.543 389.399L356.027 389.551L357.269 389.855L358.511 390.435L367.206 395.934L368.448 396.402L370.932 396.845L373.416 397.208L375.9 398.02L382.11 400.453L385.836 401.804L392.046 404.918L394.531 405.615L403.225 407.267L408.193 408.518L410.677 408.844L435.518 409.934L451.664 410.031L462.843 410.032L488.925 410.07L497.62 410.078L507.556 410.111" fill="#EFEFEF" fill-opacity="0.4"/>
<path d="M260.391 410.111L274.053 409.982L279.021 409.664L281.505 409.277L283.989 408.699L286.473 407.833L287.715 407.19L288.957 406.349L290.199 405.273L291.442 403.916L292.684 402.242L293.926 400.229L295.168 397.849L296.41 395.024L297.652 391.627L298.894 387.565L301.378 377.614L303.862 366.034L306.346 353.022L307.588 345.545L310.072 327.923L313.798 300.407L317.524 275.162L320.008 257.95L321.25 250.82L322.492 245.259L323.734 241.291L324.977 238.93L326.219 238.389L327.461 240.009L328.703 244.038L329.945 250.47L331.187 259.053L332.429 269.444L334.913 294.281L338.639 333.335L339.881 344.311L341.123 353.891L342.365 362.182L343.607 369.247L344.849 375.056L346.091 379.607L347.333 383.031L348.575 385.553L349.817 387.357L351.059 388.534L352.301 389.164L353.543 389.399L356.027 389.551L357.269 389.855L358.511 390.435L367.206 395.934L368.448 396.402L370.932 396.845L373.416 397.208L375.9 398.02L382.11 400.453L385.836 401.804L392.046 404.918L394.531 405.615L403.225 407.267L408.193 408.518L410.677 408.844L435.518 409.934L451.664 410.031L462.843 410.032L488.925 410.07L497.62 410.078L507.556 410.111" stroke="#EFEFEF" stroke-linecap="square"/>
</g>
<mask id="mask11_230_9038" style="mask-type:luminance" maskUnits="userSpaceOnUse" x="76" y="55" width="477" height="356">
<path d="M552.957 55.2959H76.7969V410.112H552.957V55.2959Z" fill="white"/>
</mask>
<g mask="url(#mask11_230_9038)">
<path d="M258.68 410.112L284.462 409.968L291.828 409.49L294.283 409.05L296.739 408.24L299.194 407.022L302.877 404.822L305.333 403.112L306.56 402.031L307.788 400.685L309.016 398.986L310.243 396.877L311.471 394.344L312.699 391.397L313.927 388.035L316.382 379.951L318.837 370.073L331.114 316.824L333.57 308.345L336.025 300.498L337.253 296.911L338.481 293.906L339.708 291.849L340.936 291.01L342.164 291.44L343.392 292.979L344.619 295.37L345.847 298.378L348.302 305.679L350.758 314.246L358.124 341.467L359.352 345.073L360.579 348.179L361.807 350.791L363.035 352.962L365.49 356.352L375.312 367.743L380.223 372.773L382.678 376.034L386.361 381.308L391.272 387.403L398.638 396.68L401.094 399.59L403.549 401.789L406.005 403.437L408.46 404.68L413.371 406.664L415.826 407.477L421.965 408.955L424.42 409.368L429.331 409.757L436.697 409.999L445.291 410.016L453.885 410.012L463.707 410.082L485.806 410.109L502.994 410.111" fill="#EFEFEF" fill-opacity="0.4"/>
<path d="M258.68 410.112L284.462 409.968L291.828 409.49L294.283 409.05L296.739 408.24L299.194 407.022L302.877 404.822L305.333 403.112L306.56 402.031L307.788 400.685L309.016 398.986L310.243 396.877L311.471 394.344L312.699 391.397L313.927 388.035L316.382 379.951L318.837 370.073L331.114 316.824L333.57 308.345L336.025 300.498L337.253 296.911L338.481 293.906L339.708 291.849L340.936 291.01L342.164 291.44L343.392 292.979L344.619 295.37L345.847 298.378L348.302 305.679L350.758 314.246L358.124 341.467L359.352 345.073L360.579 348.179L361.807 350.791L363.035 352.962L365.49 356.352L375.312 367.743L380.223 372.773L382.678 376.034L386.361 381.308L391.272 387.403L398.638 396.68L401.094 399.59L403.549 401.789L406.005 403.437L408.46 404.68L413.371 406.664L415.826 407.477L421.965 408.955L424.42 409.368L429.331 409.757L436.697 409.999L445.291 410.016L453.885 410.012L463.707 410.082L485.806 410.109L502.994 410.111" stroke="#EFEFEF" stroke-linecap="square"/>
</g>
<mask id="mask12_230_9038" style="mask-type:luminance" maskUnits="userSpaceOnUse" x="76" y="55" width="477" height="356">
<path d="M552.957 55.2959H76.7969V410.112H552.957V55.2959Z" fill="white"/>
</mask>
<g mask="url(#mask12_230_9038)">
<path d="M289.898 410.112L298.911 409.974L311.304 409.362L314.683 408.881L316.937 409.014L319.19 409.185L321.443 408.812L323.696 408.004L324.823 407.451L325.949 406.717L328.203 404.897L331.582 402.758L334.962 399.61L336.089 398.215L337.215 396.165L341.722 385.433L342.848 381.929L345.101 372.779L347.355 362.699L348.481 356.403L349.608 348.89L350.734 340.195L351.861 330.245L355.241 296.828L357.494 279.496L360.874 247.721L362 239.244L363.127 231.956L364.254 226.606L365.38 223.764L366.507 222.786L367.633 222.613L368.76 223.082L369.887 224.7L371.013 228.155L372.14 234.195L374.393 251.847L376.646 271.385L380.026 306.883L383.406 340.538L385.659 359.862L387.912 376.419L389.039 383.769L390.165 389.524L391.292 393.337L394.672 401.029L395.798 403.378L396.925 405.201L398.051 406.447L400.305 408.023L401.431 408.596L402.558 408.946L404.811 409.212L409.317 409.565L412.697 409.879L416.077 410.039L423.963 409.881L427.343 410.093L464.52 410.112L514.09 410.112" fill="#EFEFEF" fill-opacity="0.4"/>
<path d="M289.898 410.112L298.911 409.974L311.304 409.362L314.683 408.881L316.937 409.014L319.19 409.185L321.443 408.812L323.696 408.004L324.823 407.451L325.949 406.717L328.203 404.897L331.582 402.758L334.962 399.61L336.089 398.215L337.215 396.165L341.722 385.433L342.848 381.929L345.101 372.779L347.355 362.699L348.481 356.403L349.608 348.89L350.734 340.195L351.861 330.245L355.241 296.828L357.494 279.496L360.874 247.721L362 239.244L363.127 231.956L364.254 226.606L365.38 223.764L366.507 222.786L367.633 222.613L368.76 223.082L369.887 224.7L371.013 228.155L372.14 234.195L374.393 251.847L376.646 271.385L380.026 306.883L383.406 340.538L385.659 359.862L387.912 376.419L389.039 383.769L390.165 389.524L391.292 393.337L394.672 401.029L395.798 403.378L396.925 405.201L398.051 406.447L400.305 408.023L401.431 408.596L402.558 408.946L404.811 409.212L409.317 409.565L412.697 409.879L416.077 410.039L423.963 409.881L427.343 410.093L464.52 410.112L514.09 410.112" stroke="#EFEFEF" stroke-linecap="square"/>
</g>
<mask id="mask13_230_9038" style="mask-type:luminance" maskUnits="userSpaceOnUse" x="76" y="55" width="477" height="356">
<path d="M552.957 55.2959H76.7969V410.112H552.957V55.2959Z" fill="white"/>
</mask>
<g mask="url(#mask13_230_9038)">
<path d="M273.586 410.111L290.851 410.002L295.168 409.645L300.563 408.822L302.721 408.212L304.88 407.272L307.038 405.923L309.196 404.106L311.354 401.864L313.512 399.193L315.67 395.992L317.829 392.222L321.066 385.757L326.461 374.235L329.699 366.339L341.569 336.499L342.648 334.331L343.727 332.534L345.885 329.838L352.359 323.443L356.676 319.599L358.834 317.428L359.913 316.737L360.992 316.518L362.071 316.737L364.229 317.839L371.783 322.242L372.862 323.096L373.941 324.238L375.02 325.705L377.179 329.33L380.416 335.446L382.574 340.396L386.89 351.94L390.128 361.159L396.602 380.721L398.76 386.409L400.918 391.336L403.077 395.35L405.235 398.674L408.472 402.987L410.63 405.323L412.788 406.994L414.947 408.055L417.105 408.764L420.342 409.449L423.579 409.748L430.054 409.93L439.766 410.024L447.319 410.111L488.325 410.111" fill="#EFEFEF" fill-opacity="0.4"/>
<path d="M273.586 410.111L290.851 410.002L295.168 409.645L300.563 408.822L302.721 408.212L304.88 407.272L307.038 405.923L309.196 404.106L311.354 401.864L313.512 399.193L315.67 395.992L317.829 392.222L321.066 385.757L326.461 374.235L329.699 366.339L341.569 336.499L342.648 334.331L343.727 332.534L345.885 329.838L352.359 323.443L356.676 319.599L358.834 317.428L359.913 316.737L360.992 316.518L362.071 316.737L364.229 317.839L371.783 322.242L372.862 323.096L373.941 324.238L375.02 325.705L377.179 329.33L380.416 335.446L382.574 340.396L386.89 351.94L390.128 361.159L396.602 380.721L398.76 386.409L400.918 391.336L403.077 395.35L405.235 398.674L408.472 402.987L410.63 405.323L412.788 406.994L414.947 408.055L417.105 408.764L420.342 409.449L423.579 409.748L430.054 409.93L439.766 410.024L447.319 410.111L488.325 410.111" stroke="#EFEFEF" stroke-linecap="square"/>
</g>
<mask id="mask14_230_9038" style="mask-type:luminance" maskUnits="userSpaceOnUse" x="76" y="55" width="477" height="356">
<path d="M552.957 55.2959H76.7969V410.112H552.957V55.2959Z" fill="white"/>
</mask>
<g mask="url(#mask14_230_9038)">
<path d="M98.4375 410.112L229.619 409.94L237.336 409.489L241.194 408.982L245.053 408.118L248.911 406.779L252.769 404.875L254.698 403.681L256.627 402.261L258.557 400.563L262.415 396.522L268.202 390.232L270.132 387.753L272.061 384.708L273.99 381.039L279.777 368.978L285.565 358.19L291.352 346.109L293.281 342.614L295.21 339.87L297.14 337.938L299.069 336.604L302.927 334.58L304.856 333.854L306.785 333.567L308.714 333.727L316.431 335.21L318.36 336.095L320.289 337.47L322.218 339.276L324.148 341.406L328.006 346.3L343.439 367.42L349.226 375.662L351.156 377.982L353.085 380.009L356.943 383.421L364.66 389.364L368.518 392.462L372.376 395.178L378.164 398.912L382.022 401.164L385.88 403.007L389.739 404.381L399.384 407.239L403.243 408.188L407.101 408.813L412.888 409.41L418.676 409.713L441.826 409.965L482.338 410.112" fill="#7EB0D5" fill-opacity="0.4"/>
<path d="M98.4375 410.112L229.619 409.94L237.336 409.489L241.194 408.982L245.053 408.118L248.911 406.779L252.769 404.875L254.698 403.681L256.627 402.261L258.557 400.563L262.415 396.522L268.202 390.232L270.132 387.753L272.061 384.708L273.99 381.039L279.777 368.978L285.565 358.19L291.352 346.109L293.281 342.614L295.21 339.87L297.14 337.938L299.069 336.604L302.927 334.58L304.856 333.854L306.785 333.567L308.714 333.727L316.431 335.21L318.36 336.095L320.289 337.47L322.218 339.276L324.148 341.406L328.006 346.3L343.439 367.42L349.226 375.662L351.156 377.982L353.085 380.009L356.943 383.421L364.66 389.364L368.518 392.462L372.376 395.178L378.164 398.912L382.022 401.164L385.88 403.007L389.739 404.381L399.384 407.239L403.243 408.188L407.101 408.813L412.888 409.41L418.676 409.713L441.826 409.965L482.338 410.112" stroke="#7EB0D5" stroke-linecap="square"/>
</g>
<path d="M535.061 411.061C535.646 410.475 535.646 409.525 535.061 408.939L525.515 399.393C524.929 398.808 523.979 398.808 523.393 399.393C522.808 399.979 522.808 400.929 523.393 401.515L531.879 410L523.393 418.485C522.808 419.071 522.808 420.021 523.393 420.607C523.979 421.192 524.929 421.192 525.515 420.607L535.061 411.061ZM79 411.5H534V408.5H79V411.5Z" fill="black"/>
</g>
<defs>
<clipPath id="clip0_230_9038">
<rect width="614.4" height="460.8" fill="white"/>
</clipPath>
</defs>
</svg>
