<svg width="615" height="461" viewBox="0 0 615 461" fill="none" xmlns="http://www.w3.org/2000/svg">
<g clip-path="url(#clip0_230_9358)">
<mask id="mask0_230_9358" style="mask-type:luminance" maskUnits="userSpaceOnUse" x="76" y="55" width="477" height="356">
<path d="M552.957 55.2959H76.7969V410.112H552.957V55.2959Z" fill="white"/>
</mask>
<g mask="url(#mask0_230_9358)">
<path d="M279.328 410.111L306.297 410.089L310.292 410.051L319.282 409.595L322.278 408.884L324.276 409.04L326.274 409.49L327.273 409.5L329.27 408.877L330.269 408.552L331.268 408.462L335.263 408.992L338.26 408.89L339.259 408.727L340.258 408.349L344.253 405.963L348.248 404.47L349.247 403.425L351.245 400.841L354.242 398.037L355.24 396.198L356.239 393.314L358.237 385.479L359.236 380.343L360.235 373.05L361.233 362.727L363.231 336.33L365.229 306.724L367.227 270.228L370.223 214.606L373.22 165.964L374.218 150.746L375.217 138.196L377.215 119.834L378.214 112.26L379.213 107.508L380.212 105.771L381.21 106.354L382.209 109.387L383.208 115.16L384.207 123.242L385.206 133.587L386.205 147.524L387.203 165.979L389.201 210.974L393.197 306.677L395.194 342.611L396.193 357.481L397.192 369.75L398.191 379.114L399.19 385.793L400.188 390.472L401.187 393.83L402.186 396.341L404.184 400.376L405.183 402.075L406.182 403.423L407.18 404.416L408.179 405.002L411.176 405.733L413.173 406.605L419.166 408.152L422.163 408.15L426.158 408.717L429.155 409.312L431.153 409.423L433.15 409.39L435.148 409.631L437.146 409.947L442.14 410.044L445.136 410.05L450.131 410.108L464.115 410.035L468.11 410.092L474.103 410.005L478.098 410.111" fill="#EFEFEF" fill-opacity="0.4"/>
<path d="M279.328 410.111L306.297 410.089L310.292 410.051L319.282 409.595L322.278 408.884L324.276 409.04L326.274 409.49L327.273 409.5L329.27 408.877L330.269 408.552L331.268 408.462L335.263 408.992L338.26 408.89L339.259 408.727L340.258 408.349L344.253 405.963L348.248 404.47L349.247 403.425L351.245 400.841L354.242 398.037L355.24 396.198L356.239 393.314L358.237 385.479L359.236 380.343L360.235 373.05L361.233 362.727L363.231 336.33L365.229 306.724L367.227 270.228L370.223 214.606L373.22 165.964L374.218 150.746L375.217 138.196L377.215 119.834L378.214 112.26L379.213 107.508L380.212 105.771L381.21 106.354L382.209 109.387L383.208 115.16L384.207 123.242L385.206 133.587L386.205 147.524L387.203 165.979L389.201 210.974L393.197 306.677L395.194 342.611L396.193 357.481L397.192 369.75L398.191 379.114L399.19 385.793L400.188 390.472L401.187 393.83L402.186 396.341L404.184 400.376L405.183 402.075L406.182 403.423L407.18 404.416L408.179 405.002L411.176 405.733L413.173 406.605L419.166 408.152L422.163 408.15L426.158 408.717L429.155 409.312L431.153 409.423L433.15 409.39L435.148 409.631L437.146 409.947L442.14 410.044L445.136 410.05L450.131 410.108L464.115 410.035L468.11 410.092L474.103 410.005L478.098 410.111" stroke="#EFEFEF" stroke-linecap="square"/>
</g>
<mask id="mask1_230_9358" style="mask-type:luminance" maskUnits="userSpaceOnUse" x="76" y="55" width="477" height="356">
<path d="M552.957 55.2959H76.7969V410.112H552.957V55.2959Z" fill="white"/>
</mask>
<g mask="url(#mask1_230_9358)">
<path d="M279.844 410.111L305.926 409.897L309.328 409.861L318.4 409.768L328.606 409.51L332.008 408.975L334.276 409.057L336.544 409.251L338.812 409.014L344.483 407.666L349.019 407.506L351.287 407.602L353.555 407.763L355.823 407.641L356.957 407.403L358.091 406.843L359.225 405.896L362.627 402.186L363.761 400.592L364.895 398.513L366.029 395.965L367.163 392.93L368.297 389.139L369.431 384.341L371.699 372.121L372.833 364.777L373.967 356.163L376.235 334.622L378.503 308.958L380.771 277.653L384.173 226.303L386.441 196.635L387.575 186.445L388.709 180.327L389.843 176.755L392.111 171.337L393.245 170.529L394.379 173.039L395.513 179.075L396.647 187.517L398.915 207.362L404.585 259.066L407.987 295.966L409.121 306.352L410.255 315.02L412.523 328.514L414.791 341.602L417.059 355.583L418.193 361.373L422.73 380.425L423.864 383.994L424.998 386.504L427.266 391.058L429.534 396.206L430.668 398.275L431.802 399.88L434.07 402.258L436.338 404.116L438.606 405.44L444.276 407.758L446.544 408.728L447.678 408.924L453.348 409.171L459.018 410.002L462.42 409.979L466.956 409.848L474.894 410.112L505.513 410.111" fill="#EFEFEF" fill-opacity="0.4"/>
<path d="M279.844 410.111L305.926 409.897L309.328 409.861L318.4 409.768L328.606 409.51L332.008 408.975L334.276 409.057L336.544 409.251L338.812 409.014L344.483 407.666L349.019 407.506L351.287 407.602L353.555 407.763L355.823 407.641L356.957 407.403L358.091 406.843L359.225 405.896L362.627 402.186L363.761 400.592L364.895 398.513L366.029 395.965L367.163 392.93L368.297 389.139L369.431 384.341L371.699 372.121L372.833 364.777L373.967 356.163L376.235 334.622L378.503 308.958L380.771 277.653L384.173 226.303L386.441 196.635L387.575 186.445L388.709 180.327L389.843 176.755L392.111 171.337L393.245 170.529L394.379 173.039L395.513 179.075L396.647 187.517L398.915 207.362L404.585 259.066L407.987 295.966L409.121 306.352L410.255 315.02L412.523 328.514L414.791 341.602L417.059 355.583L418.193 361.373L422.73 380.425L423.864 383.994L424.998 386.504L427.266 391.058L429.534 396.206L430.668 398.275L431.802 399.88L434.07 402.258L436.338 404.116L438.606 405.44L444.276 407.758L446.544 408.728L447.678 408.924L453.348 409.171L459.018 410.002L462.42 409.979L466.956 409.848L474.894 410.112L505.513 410.111" stroke="#EFEFEF" stroke-linecap="square"/>
</g>
<mask id="mask2_230_9358" style="mask-type:luminance" maskUnits="userSpaceOnUse" x="76" y="55" width="477" height="356">
<path d="M552.957 55.2959H76.7969V410.112H552.957V55.2959Z" fill="white"/>
</mask>
<g mask="url(#mask2_230_9358)">
<path d="M273.758 410.112L282.665 409.973L289.028 409.524L292.845 409.178L294.118 408.962L295.39 408.586L296.663 407.952L297.935 406.981L299.208 405.648L301.753 402.197L304.298 398.322L305.57 396.165L306.843 393.69L308.115 390.811L310.66 383.861L313.205 375.653L315.75 366.554L319.568 351.522L323.385 335.097L327.203 318.844L331.021 303.968L336.111 282.789L337.383 278.185L338.656 274.187L339.928 271.041L341.201 268.911L342.473 267.701L343.746 267.073L345.018 266.733L346.291 266.681L347.563 267.124L348.836 268.138L352.653 272.362L353.926 274.148L355.198 276.637L356.471 279.945L359.016 288.126L364.106 305.361L366.651 315.242L374.286 346.571L376.831 354.962L380.648 365.564L387.011 382.89L388.283 385.604L389.556 387.749L392.101 391.031L395.918 396.055L398.463 399.263L401.008 401.925L403.553 403.994L406.098 405.708L408.643 406.987L411.188 407.866L413.733 408.557L416.278 409.009L421.368 409.459L431.548 409.993L443.001 410.011L526.986 410.112" fill="#EFEFEF" fill-opacity="0.4"/>
<path d="M273.758 410.112L282.665 409.973L289.028 409.524L292.845 409.178L294.118 408.962L295.39 408.586L296.663 407.952L297.935 406.981L299.208 405.648L301.753 402.197L304.298 398.322L305.57 396.165L306.843 393.69L308.115 390.811L310.66 383.861L313.205 375.653L315.75 366.554L319.568 351.522L323.385 335.097L327.203 318.844L331.021 303.968L336.111 282.789L337.383 278.185L338.656 274.187L339.928 271.041L341.201 268.911L342.473 267.701L343.746 267.073L345.018 266.733L346.291 266.681L347.563 267.124L348.836 268.138L352.653 272.362L353.926 274.148L355.198 276.637L356.471 279.945L359.016 288.126L364.106 305.361L366.651 315.242L374.286 346.571L376.831 354.962L380.648 365.564L387.011 382.89L388.283 385.604L389.556 387.749L392.101 391.031L395.918 396.055L398.463 399.263L401.008 401.925L403.553 403.994L406.098 405.708L408.643 406.987L411.188 407.866L413.733 408.557L416.278 409.009L421.368 409.459L431.548 409.993L443.001 410.011L526.986 410.112" stroke="#EFEFEF" stroke-linecap="square"/>
</g>
<mask id="mask3_230_9358" style="mask-type:luminance" maskUnits="userSpaceOnUse" x="76" y="55" width="477" height="356">
<path d="M552.957 55.2959H76.7969V410.112H552.957V55.2959Z" fill="white"/>
</mask>
<g mask="url(#mask3_230_9358)">
<path d="M274.914 410.111L290.923 409.986L294.618 409.695L297.08 409.235L299.543 408.438L302.006 407.217L304.469 405.532L306.932 403.339L309.395 400.569L311.858 397.252L314.321 393.447L316.784 388.95L319.247 383.545L322.941 374.388L325.404 367.719L327.867 360.114L331.561 347.138L335.256 333.843L340.182 317.852L342.645 310.596L343.876 307.836L345.108 305.855L346.339 304.511L348.802 302.391L351.265 299.637L352.496 298.222L353.728 297.069L354.959 296.295L356.191 295.877L358.654 295.633L362.348 295.393L366.042 295.015L367.274 295.21L368.505 295.813L369.737 296.885L372.2 300.036L374.663 303.37L378.357 307.858L379.589 309.735L380.82 312.136L382.052 315.15L384.514 322.511L388.209 333.616L399.292 365.094L402.986 376.925L405.449 383.817L407.912 389.529L410.375 394.39L412.838 398.35L414.07 399.918L415.301 401.218L417.764 403.157L420.227 404.478L423.921 405.961L428.847 407.62L432.542 408.471L437.467 409.221L441.162 409.535L455.939 410.021L464.56 409.969L496.578 410.112L519.976 410.111" fill="#EFEFEF" fill-opacity="0.4"/>
<path d="M274.914 410.111L290.923 409.986L294.618 409.695L297.08 409.235L299.543 408.438L302.006 407.217L304.469 405.532L306.932 403.339L309.395 400.569L311.858 397.252L314.321 393.447L316.784 388.95L319.247 383.545L322.941 374.388L325.404 367.719L327.867 360.114L331.561 347.138L335.256 333.843L340.182 317.852L342.645 310.596L343.876 307.836L345.108 305.855L346.339 304.511L348.802 302.391L351.265 299.637L352.496 298.222L353.728 297.069L354.959 296.295L356.191 295.877L358.654 295.633L362.348 295.393L366.042 295.015L367.274 295.21L368.505 295.813L369.737 296.885L372.2 300.036L374.663 303.37L378.357 307.858L379.589 309.735L380.82 312.136L382.052 315.15L384.514 322.511L388.209 333.616L399.292 365.094L402.986 376.925L405.449 383.817L407.912 389.529L410.375 394.39L412.838 398.35L414.07 399.918L415.301 401.218L417.764 403.157L420.227 404.478L423.921 405.961L428.847 407.62L432.542 408.471L437.467 409.221L441.162 409.535L455.939 410.021L464.56 409.969L496.578 410.112L519.976 410.111" stroke="#EFEFEF" stroke-linecap="square"/>
</g>
<mask id="mask4_230_9358" style="mask-type:luminance" maskUnits="userSpaceOnUse" x="76" y="55" width="477" height="356">
<path d="M552.957 55.2959H76.7969V410.112H552.957V55.2959Z" fill="white"/>
</mask>
<g mask="url(#mask4_230_9358)">
<path d="M252.508 410.111L263.716 409.997L269.32 409.671L276.325 408.908L279.127 408.365L281.929 407.444L284.731 405.979L286.132 404.971L287.533 403.714L288.934 402.147L290.335 400.208L291.736 397.847L293.137 395.028L294.538 391.733L295.939 387.958L298.741 379.012L301.543 368.374L304.346 356.446L312.752 319.434L315.554 308.264L318.356 297.997L321.158 289.029L322.559 285.305L323.96 282.266L325.361 280.017L326.762 278.626L328.163 278.123L329.564 278.525L330.965 279.839L332.366 282.054L333.767 285.119L335.168 288.933L337.97 298.234L340.772 308.919L347.777 336.764L350.579 346.483L353.381 355.15L356.183 362.735L357.584 366.01L358.985 368.882L360.386 371.34L361.787 373.404L363.188 375.117L364.589 376.523L365.99 377.658L367.391 378.541L368.792 379.182L370.193 379.583L371.594 379.75L372.995 379.693L374.396 379.438L377.198 378.537L380 377.605L382.803 377.121L387.006 377.082L391.209 377.144L392.61 377.33L394.011 377.689L396.813 378.888L406.62 384.034L409.422 386.06L412.224 388.62L423.432 399.795L426.234 401.98L429.036 403.786L431.838 405.334L434.64 406.618L437.442 407.537L440.244 408.098L447.249 408.963L454.254 409.672L459.859 409.878L496.285 410.106L531.311 410.111" fill="#EFEFEF" fill-opacity="0.4"/>
<path d="M252.508 410.111L263.716 409.997L269.32 409.671L276.325 408.908L279.127 408.365L281.929 407.444L284.731 405.979L286.132 404.971L287.533 403.714L288.934 402.147L290.335 400.208L291.736 397.847L293.137 395.028L294.538 391.733L295.939 387.958L298.741 379.012L301.543 368.374L304.346 356.446L312.752 319.434L315.554 308.264L318.356 297.997L321.158 289.029L322.559 285.305L323.96 282.266L325.361 280.017L326.762 278.626L328.163 278.123L329.564 278.525L330.965 279.839L332.366 282.054L333.767 285.119L335.168 288.933L337.97 298.234L340.772 308.919L347.777 336.764L350.579 346.483L353.381 355.15L356.183 362.735L357.584 366.01L358.985 368.882L360.386 371.34L361.787 373.404L363.188 375.117L364.589 376.523L365.99 377.658L367.391 378.541L368.792 379.182L370.193 379.583L371.594 379.75L372.995 379.693L374.396 379.438L377.198 378.537L380 377.605L382.803 377.121L387.006 377.082L391.209 377.144L392.61 377.33L394.011 377.689L396.813 378.888L406.62 384.034L409.422 386.06L412.224 388.62L423.432 399.795L426.234 401.98L429.036 403.786L431.838 405.334L434.64 406.618L437.442 407.537L440.244 408.098L447.249 408.963L454.254 409.672L459.859 409.878L496.285 410.106L531.311 410.111" stroke="#EFEFEF" stroke-linecap="square"/>
</g>
<mask id="mask5_230_9358" style="mask-type:luminance" maskUnits="userSpaceOnUse" x="76" y="55" width="477" height="356">
<path d="M552.957 55.2959H76.7969V410.112H552.957V55.2959Z" fill="white"/>
</mask>
<g mask="url(#mask5_230_9358)">
<path d="M280.641 410.111L289.068 409.961L299.903 409.787L303.515 409.703L307.127 409.364L314.35 408.233L316.758 407.778L321.574 406.363L323.982 405.39L327.594 403.66L330.002 402.745L332.409 401.43L334.817 399.694L337.225 397.434L340.837 393.051L345.653 386.723L348.06 384.695L349.264 383.308L350.468 381.205L352.876 375.516L356.488 366.732L357.692 363.31L358.896 359.42L360.1 354.99L361.304 349.822L362.507 343.668L364.915 328.453L367.323 310.912L370.935 282.015L374.547 250.437L378.158 218.861L379.362 209.305L380.566 201.16L381.77 195.285L382.974 192.134L384.178 191.508L385.382 193.013L386.586 196.633L387.79 202.696L388.994 211.426L390.198 222.653L392.606 250.123L396.217 291.928L398.625 315.677L401.033 335.222L403.441 351.022L405.849 363.632L408.257 373.478L410.664 381.812L411.868 385.356L413.072 388.342L414.276 390.788L415.48 392.795L417.888 396.058L423.908 403.646L425.111 404.752L426.315 405.623L428.723 406.858L432.335 408.238L434.743 408.902L438.355 409.445L443.17 409.747L463.637 410.112L520.222 410.111" fill="#EFEFEF" fill-opacity="0.4"/>
<path d="M280.641 410.111L289.068 409.961L299.903 409.787L303.515 409.703L307.127 409.364L314.35 408.233L316.758 407.778L321.574 406.363L323.982 405.39L327.594 403.66L330.002 402.745L332.409 401.43L334.817 399.694L337.225 397.434L340.837 393.051L345.653 386.723L348.06 384.695L349.264 383.308L350.468 381.205L352.876 375.516L356.488 366.732L357.692 363.31L358.896 359.42L360.1 354.99L361.304 349.822L362.507 343.668L364.915 328.453L367.323 310.912L370.935 282.015L374.547 250.437L378.158 218.861L379.362 209.305L380.566 201.16L381.77 195.285L382.974 192.134L384.178 191.508L385.382 193.013L386.586 196.633L387.79 202.696L388.994 211.426L390.198 222.653L392.606 250.123L396.217 291.928L398.625 315.677L401.033 335.222L403.441 351.022L405.849 363.632L408.257 373.478L410.664 381.812L411.868 385.356L413.072 388.342L414.276 390.788L415.48 392.795L417.888 396.058L423.908 403.646L425.111 404.752L426.315 405.623L428.723 406.858L432.335 408.238L434.743 408.902L438.355 409.445L443.17 409.747L463.637 410.112L520.222 410.111" stroke="#EFEFEF" stroke-linecap="square"/>
</g>
<mask id="mask6_230_9358" style="mask-type:luminance" maskUnits="userSpaceOnUse" x="76" y="55" width="477" height="356">
<path d="M552.957 55.2959H76.7969V410.112H552.957V55.2959Z" fill="white"/>
</mask>
<g mask="url(#mask6_230_9358)">
<path d="M270.227 410.111L277.91 409.994L282.3 409.641L285.593 409.114L288.886 408.219L293.277 406.871L299.862 405.205L303.155 403.813L306.448 402.034L313.034 397.936L315.229 397.161L318.522 396.169L320.717 395.003L322.912 393.326L328.401 388.682L330.596 387.3L334.986 384.811L337.182 383.057L339.377 380.816L342.67 376.824L350.353 367.014L352.548 363.205L356.939 355.045L361.329 347.413L365.72 339.356L367.915 336.258L370.11 333.561L371.208 331.972L372.306 329.972L373.403 327.412L374.501 324.213L375.598 320.375L377.794 311.091L382.184 289.53L384.379 279.41L385.477 275.028L386.575 271.29L387.672 268.315L388.77 266.19L389.867 264.959L390.965 264.626L392.063 265.157L393.16 266.499L394.258 268.59L395.356 271.363L396.453 274.743L398.648 282.995L400.844 292.659L411.82 344.915L415.113 360.551L417.308 369.867L419.503 377.869L421.699 384.656L423.894 390.453L426.089 395.385L428.284 399.457L430.48 402.626L432.675 404.902L434.87 406.431L437.065 407.464L439.261 408.207L442.553 408.978L446.944 409.61L451.334 409.931L457.92 409.968L488.654 410.111" fill="#EFEFEF" fill-opacity="0.4"/>
<path d="M270.227 410.111L277.91 409.994L282.3 409.641L285.593 409.114L288.886 408.219L293.277 406.871L299.862 405.205L303.155 403.813L306.448 402.034L313.034 397.936L315.229 397.161L318.522 396.169L320.717 395.003L322.912 393.326L328.401 388.682L330.596 387.3L334.986 384.811L337.182 383.057L339.377 380.816L342.67 376.824L350.353 367.014L352.548 363.205L356.939 355.045L361.329 347.413L365.72 339.356L367.915 336.258L370.11 333.561L371.208 331.972L372.306 329.972L373.403 327.412L374.501 324.213L375.598 320.375L377.794 311.091L382.184 289.53L384.379 279.41L385.477 275.028L386.575 271.29L387.672 268.315L388.77 266.19L389.867 264.959L390.965 264.626L392.063 265.157L393.16 266.499L394.258 268.59L395.356 271.363L396.453 274.743L398.648 282.995L400.844 292.659L411.82 344.915L415.113 360.551L417.308 369.867L419.503 377.869L421.699 384.656L423.894 390.453L426.089 395.385L428.284 399.457L430.48 402.626L432.675 404.902L434.87 406.431L437.065 407.464L439.261 408.207L442.553 408.978L446.944 409.61L451.334 409.931L457.92 409.968L488.654 410.111" stroke="#EFEFEF" stroke-linecap="square"/>
</g>
<mask id="mask7_230_9358" style="mask-type:luminance" maskUnits="userSpaceOnUse" x="76" y="55" width="477" height="356">
<path d="M552.957 55.2959H76.7969V410.112H552.957V55.2959Z" fill="white"/>
</mask>
<g mask="url(#mask7_230_9358)">
<path d="M256.664 410.11L265.6 409.982L280.919 409.282L284.749 408.519L288.579 407.383L291.132 406.405L293.686 405.06L296.239 403.1L298.792 400.402L301.345 396.986L303.898 392.848L306.452 387.896L309.005 382.039L311.558 375.221L314.111 367.521L317.941 354.93L326.877 324.709L329.43 317.991L331.984 312.779L334.537 308.716L335.813 307.064L337.09 305.707L338.367 304.707L339.643 304.129L340.92 304.023L342.196 304.417L343.473 305.31L344.75 306.677L346.026 308.472L348.579 313.052L353.686 323.199L356.239 327.426L358.792 330.797L360.069 332.118L361.345 333.184L363.899 334.715L366.452 336.059L367.728 336.906L370.282 339.17L372.835 342.056L379.218 349.748L381.771 352.304L385.601 355.937L388.154 358.765L398.367 370.751L400.92 373.458L408.58 381.081L412.409 385.893L417.516 392.357L420.069 395.199L422.622 397.731L425.175 399.886L427.729 401.613L431.558 403.644L435.388 405.263L437.941 406.051L441.771 406.883L448.154 407.947L453.261 408.417L458.367 408.901L464.75 409.571L469.856 409.727L480.069 409.852L487.729 409.929L499.218 409.973L509.431 410.11L510.708 410.111" fill="#EFEFEF" fill-opacity="0.4"/>
<path d="M256.664 410.11L265.6 409.982L280.919 409.282L284.749 408.519L288.579 407.383L291.132 406.405L293.686 405.06L296.239 403.1L298.792 400.402L301.345 396.986L303.898 392.848L306.452 387.896L309.005 382.039L311.558 375.221L314.111 367.521L317.941 354.93L326.877 324.709L329.43 317.991L331.984 312.779L334.537 308.716L335.813 307.064L337.09 305.707L338.367 304.707L339.643 304.129L340.92 304.023L342.196 304.417L343.473 305.31L344.75 306.677L346.026 308.472L348.579 313.052L353.686 323.199L356.239 327.426L358.792 330.797L360.069 332.118L361.345 333.184L363.899 334.715L366.452 336.059L367.728 336.906L370.282 339.17L372.835 342.056L379.218 349.748L381.771 352.304L385.601 355.937L388.154 358.765L398.367 370.751L400.92 373.458L408.58 381.081L412.409 385.893L417.516 392.357L420.069 395.199L422.622 397.731L425.175 399.886L427.729 401.613L431.558 403.644L435.388 405.263L437.941 406.051L441.771 406.883L448.154 407.947L453.261 408.417L458.367 408.901L464.75 409.571L469.856 409.727L480.069 409.852L487.729 409.929L499.218 409.973L509.431 410.11L510.708 410.111" stroke="#EFEFEF" stroke-linecap="square"/>
</g>
<mask id="mask8_230_9358" style="mask-type:luminance" maskUnits="userSpaceOnUse" x="76" y="55" width="477" height="356">
<path d="M552.957 55.2959H76.7969V410.112H552.957V55.2959Z" fill="white"/>
</mask>
<g mask="url(#mask8_230_9358)">
<path d="M288 410.111L300.625 409.92L302.308 409.858L306.516 410.027L310.725 409.72L314.091 409.723L315.775 409.332L317.458 408.98L323.35 408.843L325.033 408.32L326.716 408.206L328.4 408.123L331.766 407.531L333.45 407.447L335.974 406.563L338.499 406.597L341.024 405.614L341.866 405.235L342.708 404.647L344.391 402.94L346.074 400.965L346.916 399.739L347.758 398.144L348.599 396.089L349.441 393.576L350.283 390.446L351.124 386.139L351.966 380.083L353.649 363.5L356.174 333.581L357.858 308.779L363.749 202.095L367.116 139.967L370.482 89.1986L371.324 79.88L372.166 73.931L373.007 72.1924L373.849 75.1871L374.691 82.6991L375.532 94.2663L376.374 109.567L379.741 185.276L383.949 280.823L385.632 308.124L388.157 344.265L389.841 362.978L391.524 376.059L393.207 386.362L394.891 394.084L395.732 397L396.574 399.364L397.415 401.162L398.257 402.471L400.782 405.372L402.465 407.08L404.149 408.068L405.832 408.597L407.515 408.778L410.04 408.476L411.724 408.994L413.407 409.506L420.982 409.741L423.507 409.641L426.874 409.984L431.082 409.809L434.448 409.994L436.132 409.906L438.657 409.552L442.865 410.049L448.757 409.857L452.123 409.937L455.49 410.11" fill="#EFEFEF" fill-opacity="0.4"/>
<path d="M288 410.111L300.625 409.92L302.308 409.858L306.516 410.027L310.725 409.72L314.091 409.723L315.775 409.332L317.458 408.98L323.35 408.843L325.033 408.32L326.716 408.206L328.4 408.123L331.766 407.531L333.45 407.447L335.974 406.563L338.499 406.597L341.024 405.614L341.866 405.235L342.708 404.647L344.391 402.94L346.074 400.965L346.916 399.739L347.758 398.144L348.599 396.089L349.441 393.576L350.283 390.446L351.124 386.139L351.966 380.083L353.649 363.5L356.174 333.581L357.858 308.779L363.749 202.095L367.116 139.967L370.482 89.1986L371.324 79.88L372.166 73.931L373.007 72.1924L373.849 75.1871L374.691 82.6991L375.532 94.2663L376.374 109.567L379.741 185.276L383.949 280.823L385.632 308.124L388.157 344.265L389.841 362.978L391.524 376.059L393.207 386.362L394.891 394.084L395.732 397L396.574 399.364L397.415 401.162L398.257 402.471L400.782 405.372L402.465 407.08L404.149 408.068L405.832 408.597L407.515 408.778L410.04 408.476L411.724 408.994L413.407 409.506L420.982 409.741L423.507 409.641L426.874 409.984L431.082 409.809L434.448 409.994L436.132 409.906L438.657 409.552L442.865 410.049L448.757 409.857L452.123 409.937L455.49 410.11" stroke="#EFEFEF" stroke-linecap="square"/>
</g>
<mask id="mask9_230_9358" style="mask-type:luminance" maskUnits="userSpaceOnUse" x="76" y="55" width="477" height="356">
<path d="M552.957 55.2959H76.7969V410.112H552.957V55.2959Z" fill="white"/>
</mask>
<g mask="url(#mask9_230_9358)">
<path d="M246.789 410.112L267.763 409.975L270.094 409.704L272.424 409.165L274.755 408.341L278.25 406.768L280.581 405.538L282.911 403.961L284.077 402.949L285.242 401.739L287.572 398.666L289.903 394.845L293.398 388.262L295.729 383.166L298.059 377.218L300.39 370.51L303.886 359.539L312.042 333.278L320.199 308.322L322.529 301.633L324.86 295.666L327.19 290.387L329.521 285.696L330.686 283.701L331.851 282.046L333.016 280.772L334.182 279.874L335.347 279.337L336.512 279.166L337.677 279.407L338.843 280.126L340.008 281.371L341.173 283.131L343.504 287.829L346.999 296.203L349.33 302.456L351.66 309.718L353.991 318.295L357.486 333.108L360.982 347.773L363.313 356.084L365.643 362.679L367.973 367.716L370.304 371.641L373.8 376.471L377.295 380.889L379.626 383.342L381.956 385.276L394.774 394.523L405.261 401.003L409.922 403.478L412.252 404.433L415.748 405.467L423.905 407.443L434.392 409.022L440.218 409.452L449.54 409.879L460.027 409.936L472.845 410.095L478.671 410.112" fill="#EFEFEF" fill-opacity="0.4"/>
<path d="M246.789 410.112L267.763 409.975L270.094 409.704L272.424 409.165L274.755 408.341L278.25 406.768L280.581 405.538L282.911 403.961L284.077 402.949L285.242 401.739L287.572 398.666L289.903 394.845L293.398 388.262L295.729 383.166L298.059 377.218L300.39 370.51L303.886 359.539L312.042 333.278L320.199 308.322L322.529 301.633L324.86 295.666L327.19 290.387L329.521 285.696L330.686 283.701L331.851 282.046L333.016 280.772L334.182 279.874L335.347 279.337L336.512 279.166L337.677 279.407L338.843 280.126L340.008 281.371L341.173 283.131L343.504 287.829L346.999 296.203L349.33 302.456L351.66 309.718L353.991 318.295L357.486 333.108L360.982 347.773L363.313 356.084L365.643 362.679L367.973 367.716L370.304 371.641L373.8 376.471L377.295 380.889L379.626 383.342L381.956 385.276L394.774 394.523L405.261 401.003L409.922 403.478L412.252 404.433L415.748 405.467L423.905 407.443L434.392 409.022L440.218 409.452L449.54 409.879L460.027 409.936L472.845 410.095L478.671 410.112" stroke="#EFEFEF" stroke-linecap="square"/>
</g>
<mask id="mask10_230_9358" style="mask-type:luminance" maskUnits="userSpaceOnUse" x="76" y="55" width="477" height="356">
<path d="M552.957 55.2959H76.7969V410.112H552.957V55.2959Z" fill="white"/>
</mask>
<g mask="url(#mask10_230_9358)">
<path d="M258.227 410.111L268.68 409.966L272.601 409.807L275.214 409.476L279.134 408.628L281.748 407.689L283.054 406.982L284.361 406.074L286.974 403.738L289.588 400.946L290.895 399.321L292.201 397.405L293.508 395.072L294.815 392.211L296.122 388.733L297.428 384.579L298.735 379.714L300.042 374.128L302.655 360.852L305.269 345.321L307.882 328.232L310.496 308.44L313.109 284.569L315.722 257.451L320.949 200.215L322.256 189.572L323.563 182.733L324.869 180.468L326.176 182.998L327.483 189.989L328.79 200.618L331.403 228.278L337.937 303.348L339.243 316.493L340.55 328.025L341.857 337.832L343.164 346.048L344.47 352.92L345.777 358.709L347.084 363.63L348.391 367.839L349.697 371.437L351.004 374.499L352.311 377.097L353.617 379.309L356.231 382.897L358.844 385.801L361.458 388.235L364.071 390.183L365.378 390.844L366.685 391.207L369.298 391.247L371.912 391.254L374.525 391.668L377.138 392.283L379.752 393.191L387.592 396.648L390.206 397.552L394.126 399.091L404.58 402.331L411.113 405.222L415.033 406.312L418.954 407.089L422.874 407.733L428.101 408.84L434.634 409.517L438.555 409.623L443.781 409.66L449.008 409.785L456.849 409.931L465.996 409.974L493.437 410.048L518.265 410.111" fill="#EFEFEF" fill-opacity="0.4"/>
<path d="M258.227 410.111L268.68 409.966L272.601 409.807L275.214 409.476L279.134 408.628L281.748 407.689L283.054 406.982L284.361 406.074L286.974 403.738L289.588 400.946L290.895 399.321L292.201 397.405L293.508 395.072L294.815 392.211L296.122 388.733L297.428 384.579L298.735 379.714L300.042 374.128L302.655 360.852L305.269 345.321L307.882 328.232L310.496 308.44L313.109 284.569L315.722 257.451L320.949 200.215L322.256 189.572L323.563 182.733L324.869 180.468L326.176 182.998L327.483 189.989L328.79 200.618L331.403 228.278L337.937 303.348L339.243 316.493L340.55 328.025L341.857 337.832L343.164 346.048L344.47 352.92L345.777 358.709L347.084 363.63L348.391 367.839L349.697 371.437L351.004 374.499L352.311 377.097L353.617 379.309L356.231 382.897L358.844 385.801L361.458 388.235L364.071 390.183L365.378 390.844L366.685 391.207L369.298 391.247L371.912 391.254L374.525 391.668L377.138 392.283L379.752 393.191L387.592 396.648L390.206 397.552L394.126 399.091L404.58 402.331L411.113 405.222L415.033 406.312L418.954 407.089L422.874 407.733L428.101 408.84L434.634 409.517L438.555 409.623L443.781 409.66L449.008 409.785L456.849 409.931L465.996 409.974L493.437 410.048L518.265 410.111" stroke="#EFEFEF" stroke-linecap="square"/>
</g>
<mask id="mask11_230_9358" style="mask-type:luminance" maskUnits="userSpaceOnUse" x="76" y="55" width="477" height="356">
<path d="M552.957 55.2959H76.7969V410.112H552.957V55.2959Z" fill="white"/>
</mask>
<g mask="url(#mask11_230_9358)">
<path d="M264.914 410.112L282.572 409.983L288.879 409.587L292.663 409.034L296.447 408.084L298.969 407.17L301.492 405.784L302.753 404.848L304.015 403.713L305.276 402.338L306.537 400.681L307.799 398.715L309.06 396.432L311.583 390.942L314.105 384.11L315.366 380.046L317.889 370.357L320.412 358.978L325.457 334.62L329.241 314.334L331.763 300.747L334.286 288.922L335.547 283.891L336.809 279.528L338.07 275.941L339.331 273.229L340.593 271.42L341.854 270.464L343.115 270.29L344.377 270.877L345.638 272.262L346.899 274.499L348.16 277.598L349.422 281.496L351.944 291.056L355.728 306.277L358.251 315.136L363.296 331.398L365.819 338.276L367.08 341.002L368.341 343.206L369.603 344.959L372.125 347.657L375.909 351.026L379.693 353.963L382.216 356.489L393.568 370.099L397.352 374.784L399.874 378.241L407.442 389.281L409.965 392.469L412.487 395.276L415.01 397.678L417.532 399.74L421.316 402.371L425.1 404.466L430.146 407.049L432.668 408.005L435.191 408.568L438.975 409.002L450.327 409.869L457.894 409.936L485.643 410.105L514.653 410.111L515.915 410.112" fill="#EFEFEF" fill-opacity="0.4"/>
<path d="M264.914 410.112L282.572 409.983L288.879 409.587L292.663 409.034L296.447 408.084L298.969 407.17L301.492 405.784L302.753 404.848L304.015 403.713L305.276 402.338L306.537 400.681L307.799 398.715L309.06 396.432L311.583 390.942L314.105 384.11L315.366 380.046L317.889 370.357L320.412 358.978L325.457 334.62L329.241 314.334L331.763 300.747L334.286 288.922L335.547 283.891L336.809 279.528L338.07 275.941L339.331 273.229L340.593 271.42L341.854 270.464L343.115 270.29L344.377 270.877L345.638 272.262L346.899 274.499L348.16 277.598L349.422 281.496L351.944 291.056L355.728 306.277L358.251 315.136L363.296 331.398L365.819 338.276L367.08 341.002L368.341 343.206L369.603 344.959L372.125 347.657L375.909 351.026L379.693 353.963L382.216 356.489L393.568 370.099L397.352 374.784L399.874 378.241L407.442 389.281L409.965 392.469L412.487 395.276L415.01 397.678L417.532 399.74L421.316 402.371L425.1 404.466L430.146 407.049L432.668 408.005L435.191 408.568L438.975 409.002L450.327 409.869L457.894 409.936L485.643 410.105L514.653 410.111L515.915 410.112" stroke="#EFEFEF" stroke-linecap="square"/>
</g>
<mask id="mask12_230_9358" style="mask-type:luminance" maskUnits="userSpaceOnUse" x="76" y="55" width="477" height="356">
<path d="M552.957 55.2959H76.7969V410.112H552.957V55.2959Z" fill="white"/>
</mask>
<g mask="url(#mask12_230_9358)">
<path d="M288.828 410.111L301.702 409.993L305.213 409.827L312.235 409.753L314.576 409.279L316.917 408.838L321.598 408.638L327.45 407.358L329.791 407.584L330.961 407.426L334.472 406.194L339.154 405.115L341.494 404.072L343.835 402.705L346.176 401.059L347.346 399.77L348.517 397.802L350.857 392.581L352.028 389.575L353.198 385.831L354.368 380.968L355.539 374.859L356.709 367.484L359.05 349.52L363.731 312.352L366.072 287.877L369.583 245.781L373.094 208.051L375.435 181.709L376.605 170.727L377.776 163.102L378.946 158.621L380.116 155.991L381.287 155.127L382.457 157.26L383.628 163.074L384.798 171.856L385.968 182.602L387.139 195.46L392.99 272.967L397.672 337.899L398.842 350.134L400.013 359.866L401.183 367.669L402.353 374.158L404.694 384.718L407.035 394.051L408.205 397.962L409.376 400.754L410.546 402.526L412.887 405.022L414.057 406.049L415.227 406.695L418.738 407.855L421.079 408.647L425.761 409.551L430.442 409.783L435.124 409.87L440.975 410.024L450.338 410.092L456.19 410.087L464.383 410.066L469.064 410.085L479.597 410.112L521.73 410.111" fill="#EFEFEF" fill-opacity="0.4"/>
<path d="M288.828 410.111L301.702 409.993L305.213 409.827L312.235 409.753L314.576 409.279L316.917 408.838L321.598 408.638L327.45 407.358L329.791 407.584L330.961 407.426L334.472 406.194L339.154 405.115L341.494 404.072L343.835 402.705L346.176 401.059L347.346 399.77L348.517 397.802L350.857 392.581L352.028 389.575L353.198 385.831L354.368 380.968L355.539 374.859L356.709 367.484L359.05 349.52L363.731 312.352L366.072 287.877L369.583 245.781L373.094 208.051L375.435 181.709L376.605 170.727L377.776 163.102L378.946 158.621L380.116 155.991L381.287 155.127L382.457 157.26L383.628 163.074L384.798 171.856L385.968 182.602L387.139 195.46L392.99 272.967L397.672 337.899L398.842 350.134L400.013 359.866L401.183 367.669L402.353 374.158L404.694 384.718L407.035 394.051L408.205 397.962L409.376 400.754L410.546 402.526L412.887 405.022L414.057 406.049L415.227 406.695L418.738 407.855L421.079 408.647L425.761 409.551L430.442 409.783L435.124 409.87L440.975 410.024L450.338 410.092L456.19 410.087L464.383 410.066L469.064 410.085L479.597 410.112L521.73 410.111" stroke="#EFEFEF" stroke-linecap="square"/>
</g>
<mask id="mask13_230_9358" style="mask-type:luminance" maskUnits="userSpaceOnUse" x="76" y="55" width="477" height="356">
<path d="M552.957 55.2959H76.7969V410.112H552.957V55.2959Z" fill="white"/>
</mask>
<g mask="url(#mask13_230_9358)">
<path d="M275.039 410.111L287.2 409.956L294.939 409.6L299.361 409.109L302.678 408.478L304.889 407.803L307.1 406.823L309.311 405.496L311.522 403.845L313.733 401.897L315.944 399.593L318.155 396.838L320.366 393.619L323.683 388.054L333.633 369.812L341.372 354.921L351.322 339.344L354.638 335.154L357.955 330.823L363.483 323.104L369.01 315.854L371.222 312.928L372.327 311.674L373.433 310.65L374.538 309.896L375.644 309.414L376.749 309.189L377.855 309.196L378.96 309.412L380.066 309.822L381.171 310.42L383.383 312.139L385.594 314.485L387.805 317.393L390.016 320.841L396.649 332.1L398.86 335.043L402.177 339.342L404.388 342.701L411.021 353.172L414.338 358.801L418.76 367.203L423.182 375.632L425.393 379.361L436.449 396.337L438.66 399.001L440.871 401.259L444.188 404.122L446.399 405.651L448.61 406.823L450.821 407.681L454.138 408.585L457.454 409.208L461.876 409.68L467.404 409.9L478.459 410.011L490.621 410.104L495.043 410.111" fill="#EFEFEF" fill-opacity="0.4"/>
<path d="M275.039 410.111L287.2 409.956L294.939 409.6L299.361 409.109L302.678 408.478L304.889 407.803L307.1 406.823L309.311 405.496L311.522 403.845L313.733 401.897L315.944 399.593L318.155 396.838L320.366 393.619L323.683 388.054L333.633 369.812L341.372 354.921L351.322 339.344L354.638 335.154L357.955 330.823L363.483 323.104L369.01 315.854L371.222 312.928L372.327 311.674L373.433 310.65L374.538 309.896L375.644 309.414L376.749 309.189L377.855 309.196L378.96 309.412L380.066 309.822L381.171 310.42L383.383 312.139L385.594 314.485L387.805 317.393L390.016 320.841L396.649 332.1L398.86 335.043L402.177 339.342L404.388 342.701L411.021 353.172L414.338 358.801L418.76 367.203L423.182 375.632L425.393 379.361L436.449 396.337L438.66 399.001L440.871 401.259L444.188 404.122L446.399 405.651L448.61 406.823L450.821 407.681L454.138 408.585L457.454 409.208L461.876 409.68L467.404 409.9L478.459 410.011L490.621 410.104L495.043 410.111" stroke="#EFEFEF" stroke-linecap="square"/>
</g>
<mask id="mask14_230_9358" style="mask-type:luminance" maskUnits="userSpaceOnUse" x="76" y="55" width="477" height="356">
<path d="M552.957 55.2959H76.7969V410.112H552.957V55.2959Z" fill="white"/>
</mask>
<g mask="url(#mask14_230_9358)">
<path d="M98.4375 410.111L222.858 409.95L228.783 409.661L232.733 409.186L234.708 408.764L236.683 408.175L238.657 407.407L240.632 406.447L242.607 405.269L244.582 403.844L246.557 402.166L250.507 398.207L254.457 393.652L258.407 388.36L260.382 385.273L262.357 381.762L264.332 377.774L268.281 368.75L274.206 355.196L284.081 332.737L286.056 329.152L288.031 326.176L290.006 323.723L291.981 321.68L293.955 320.03L295.93 318.846L297.905 318.172L299.88 317.929L303.83 318.104L307.78 318.629L309.755 319.171L311.73 320.12L313.705 321.592L315.68 323.548L319.63 328.222L325.554 335.672L329.504 341.466L337.404 354.099L341.354 359.32L347.279 366.618L351.228 371.015L355.178 374.834L365.053 383.672L367.028 385.153L370.978 387.609L374.928 390.077L378.877 392.763L380.852 393.941L384.802 395.72L388.752 397.293L392.702 399.304L398.627 402.641L402.577 404.432L406.526 405.799L412.451 407.316L418.376 408.461L422.326 408.926L430.226 409.413L440.1 409.877L451.95 410.013L491.448 410.111" fill="#7EB0D5" fill-opacity="0.4"/>
<path d="M98.4375 410.111L222.858 409.95L228.783 409.661L232.733 409.186L234.708 408.764L236.683 408.175L238.657 407.407L240.632 406.447L242.607 405.269L244.582 403.844L246.557 402.166L250.507 398.207L254.457 393.652L258.407 388.36L260.382 385.273L262.357 381.762L264.332 377.774L268.281 368.75L274.206 355.196L284.081 332.737L286.056 329.152L288.031 326.176L290.006 323.723L291.981 321.68L293.955 320.03L295.93 318.846L297.905 318.172L299.88 317.929L303.83 318.104L307.78 318.629L309.755 319.171L311.73 320.12L313.705 321.592L315.68 323.548L319.63 328.222L325.554 335.672L329.504 341.466L337.404 354.099L341.354 359.32L347.279 366.618L351.228 371.015L355.178 374.834L365.053 383.672L367.028 385.153L370.978 387.609L374.928 390.077L378.877 392.763L380.852 393.941L384.802 395.72L388.752 397.293L392.702 399.304L398.627 402.641L402.577 404.432L406.526 405.799L412.451 407.316L418.376 408.461L422.326 408.926L430.226 409.413L440.1 409.877L451.95 410.013L491.448 410.111" stroke="#7EB0D5" stroke-linecap="square"/>
</g>
<path d="M535.061 411.061C535.646 410.475 535.646 409.525 535.061 408.939L525.515 399.393C524.929 398.808 523.979 398.808 523.393 399.393C522.808 399.979 522.808 400.929 523.393 401.515L531.879 410L523.393 418.485C522.808 419.071 522.808 420.021 523.393 420.607C523.979 421.192 524.929 421.192 525.515 420.607L535.061 411.061ZM79 411.5H534V408.5H79V411.5Z" fill="black"/>
</g>
<defs>
<clipPath id="clip0_230_9358">
<rect width="614.4" height="460.8" fill="white"/>
</clipPath>
</defs>
</svg>
