<svg width="615" height="461" viewBox="0 0 615 461" fill="none" xmlns="http://www.w3.org/2000/svg">
<g clip-path="url(#clip0_230_9518)">
<mask id="mask0_230_9518" style="mask-type:luminance" maskUnits="userSpaceOnUse" x="76" y="55" width="477" height="356">
<path d="M552.957 55.2959H76.7969V410.112H552.957V55.2959Z" fill="white"/>
</mask>
<g mask="url(#mask0_230_9518)">
<path d="M288.523 410.111L309.773 410.112L324.952 409.972L331.023 409.641L334.059 409.13L336.083 409.149L340.131 409.343L343.166 409.239L345.19 409.508L346.202 409.472L348.226 408.751L349.238 408.463L350.25 408.552L351.262 408.802L352.273 408.835L354.297 408.615L356.321 408.808L360.369 408.459L363.404 407.898L368.464 405.736L369.476 404.699L371.5 401.545L374.535 396.628L375.547 393.025L376.559 387.276L378.583 372.646L379.595 363.742L380.607 351.495L381.619 334.593L384.654 271.535L386.678 226.061L389.714 151.957L391.738 95.8018L392.75 78.6443L393.762 72.1924L394.773 72.7702L395.785 77.7164L396.797 87.7553L397.809 101.994L398.821 118.481L399.833 138.803L401.857 192.73L403.881 252.913L404.892 278.47L406.916 318.966L407.928 336.588L408.94 350.6L409.952 360.424L411.976 374.09L415.012 391.457L416.023 396.055L417.035 398.681L418.047 399.704L419.059 400.486L421.083 402.829L422.095 403.506L423.107 403.78L424.119 404.301L426.142 406.378L427.154 406.943L430.19 407.592L436.262 408.374L438.285 408.982L440.309 409.045L442.333 409.317L445.369 409.781L447.392 409.745L452.452 409.475L455.488 409.725L457.512 409.817L460.547 409.854L464.595 409.941L466.619 409.974L469.654 410.091L474.714 409.945L478.762 410.111L489.893 410.111" fill="#EFEFEF" fill-opacity="0.4"/>
<path d="M288.523 410.111L309.773 410.112L324.952 409.972L331.023 409.641L334.059 409.13L336.083 409.149L340.131 409.343L343.166 409.239L345.19 409.508L346.202 409.472L348.226 408.751L349.238 408.463L350.25 408.552L351.262 408.802L352.273 408.835L354.297 408.615L356.321 408.808L360.369 408.459L363.404 407.898L368.464 405.736L369.476 404.699L371.5 401.545L374.535 396.628L375.547 393.025L376.559 387.276L378.583 372.646L379.595 363.742L380.607 351.495L381.619 334.593L384.654 271.535L386.678 226.061L389.714 151.957L391.738 95.8018L392.75 78.6443L393.762 72.1924L394.773 72.7702L395.785 77.7164L396.797 87.7553L397.809 101.994L398.821 118.481L399.833 138.803L401.857 192.73L403.881 252.913L404.892 278.47L406.916 318.966L407.928 336.588L408.94 350.6L409.952 360.424L411.976 374.09L415.012 391.457L416.023 396.055L417.035 398.681L418.047 399.704L419.059 400.486L421.083 402.829L422.095 403.506L423.107 403.78L424.119 404.301L426.142 406.378L427.154 406.943L430.19 407.592L436.262 408.374L438.285 408.982L440.309 409.045L442.333 409.317L445.369 409.781L447.392 409.745L452.452 409.475L455.488 409.725L457.512 409.817L460.547 409.854L464.595 409.941L466.619 409.974L469.654 410.091L474.714 409.945L478.762 410.111L489.893 410.111" stroke="#EFEFEF" stroke-linecap="square"/>
</g>
<mask id="mask1_230_9518" style="mask-type:luminance" maskUnits="userSpaceOnUse" x="76" y="55" width="477" height="356">
<path d="M552.957 55.2959H76.7969V410.112H552.957V55.2959Z" fill="white"/>
</mask>
<g mask="url(#mask1_230_9518)">
<path d="M309.352 410.111L314.407 409.989L318.452 409.934L325.529 410.087L329.574 409.837L333.618 409.57L343.73 409.369L348.785 408.967L351.819 409.132L357.885 409.084L363.952 409.206L371.03 407.808L374.063 408.09L376.085 407.588L378.108 406.564L383.163 403.135L384.174 401.966L385.185 400.211L386.197 397.857L388.219 391.873L390.241 384.372L392.263 374.393L394.285 361.804L396.308 346.306L398.33 327.818L402.374 286.238L407.43 233.269L408.441 226.6L409.452 221.552L411.474 213.837L412.486 210.911L413.497 209.291L414.508 209.488L415.519 211.467L416.53 214.804L418.552 223.843L420.575 234.279L422.597 246.5L424.619 261.836L433.719 336.706L436.752 354.96L438.775 365.094L440.797 372.861L444.841 387.716L446.864 393.577L447.875 395.744L449.897 398.91L451.919 401.327L455.964 405.546L456.975 406.358L457.986 406.967L460.008 407.689L463.042 408.194L466.075 408.797L469.108 409.355L474.164 409.695L481.242 409.872L495.397 410.106L510.564 410.111" fill="#EFEFEF" fill-opacity="0.4"/>
<path d="M309.352 410.111L314.407 409.989L318.452 409.934L325.529 410.087L329.574 409.837L333.618 409.57L343.73 409.369L348.785 408.967L351.819 409.132L357.885 409.084L363.952 409.206L371.03 407.808L374.063 408.09L376.085 407.588L378.108 406.564L383.163 403.135L384.174 401.966L385.185 400.211L386.197 397.857L388.219 391.873L390.241 384.372L392.263 374.393L394.285 361.804L396.308 346.306L398.33 327.818L402.374 286.238L407.43 233.269L408.441 226.6L409.452 221.552L411.474 213.837L412.486 210.911L413.497 209.291L414.508 209.488L415.519 211.467L416.53 214.804L418.552 223.843L420.575 234.279L422.597 246.5L424.619 261.836L433.719 336.706L436.752 354.96L438.775 365.094L440.797 372.861L444.841 387.716L446.864 393.577L447.875 395.744L449.897 398.91L451.919 401.327L455.964 405.546L456.975 406.358L457.986 406.967L460.008 407.689L463.042 408.194L466.075 408.797L469.108 409.355L474.164 409.695L481.242 409.872L495.397 410.106L510.564 410.111" stroke="#EFEFEF" stroke-linecap="square"/>
</g>
<mask id="mask2_230_9518" style="mask-type:luminance" maskUnits="userSpaceOnUse" x="76" y="55" width="477" height="356">
<path d="M552.957 55.2959H76.7969V410.112H552.957V55.2959Z" fill="white"/>
</mask>
<g mask="url(#mask2_230_9518)">
<path d="M285.188 410.111L293.735 409.985L298.619 409.616L301.061 409.298L303.503 408.595L304.724 408.006L305.945 407.229L307.166 406.243L308.387 405.01L309.608 403.471L310.829 401.57L312.05 399.263L313.271 396.54L315.713 389.903L318.155 381.821L320.597 372.601L324.26 357.688L332.807 321.331L335.249 313.284L338.912 302.808L340.134 299.728L341.355 297.207L342.576 295.367L343.797 294.143L345.018 293.372L346.239 292.959L347.46 292.938L348.681 293.403L349.902 294.38L352.344 297.308L354.786 300.338L357.228 302.948L359.67 304.994L360.891 305.936L362.112 307.1L363.333 308.726L364.554 310.95L365.775 313.739L371.88 330.027L374.322 336.854L380.427 354.777L382.869 360.473L388.974 374.07L391.416 378.423L395.08 384.832L397.522 389.227L398.743 391.133L399.964 392.728L401.185 394.015L403.627 395.989L410.953 401.089L414.616 403.398L417.058 404.409L419.5 404.876L421.942 405.285L426.826 406.566L434.152 408.539L436.594 408.748L441.478 409.044L447.583 409.606L452.468 409.754L457.352 409.79L464.678 409.964L528.171 410.111" fill="#EFEFEF" fill-opacity="0.4"/>
<path d="M285.188 410.111L293.735 409.985L298.619 409.616L301.061 409.298L303.503 408.595L304.724 408.006L305.945 407.229L307.166 406.243L308.387 405.01L309.608 403.471L310.829 401.57L312.05 399.263L313.271 396.54L315.713 389.903L318.155 381.821L320.597 372.601L324.26 357.688L332.807 321.331L335.249 313.284L338.912 302.808L340.134 299.728L341.355 297.207L342.576 295.367L343.797 294.143L345.018 293.372L346.239 292.959L347.46 292.938L348.681 293.403L349.902 294.38L352.344 297.308L354.786 300.338L357.228 302.948L359.67 304.994L360.891 305.936L362.112 307.1L363.333 308.726L364.554 310.95L365.775 313.739L371.88 330.027L374.322 336.854L380.427 354.777L382.869 360.473L388.974 374.07L391.416 378.423L395.08 384.832L397.522 389.227L398.743 391.133L399.964 392.728L401.185 394.015L403.627 395.989L410.953 401.089L414.616 403.398L417.058 404.409L419.5 404.876L421.942 405.285L426.826 406.566L434.152 408.539L436.594 408.748L441.478 409.044L447.583 409.606L452.468 409.754L457.352 409.79L464.678 409.964L528.171 410.111" stroke="#EFEFEF" stroke-linecap="square"/>
</g>
<mask id="mask3_230_9518" style="mask-type:luminance" maskUnits="userSpaceOnUse" x="76" y="55" width="477" height="356">
<path d="M552.957 55.2959H76.7969V410.112H552.957V55.2959Z" fill="white"/>
</mask>
<g mask="url(#mask3_230_9518)">
<path d="M280.789 410.111L300.255 409.964L305.121 409.733L308.771 409.279L311.204 408.74L313.637 407.923L316.07 406.686L317.287 405.842L318.504 404.804L319.72 403.544L322.153 400.313L324.587 396.237L327.02 391.534L330.67 383.649L335.536 372.067L339.186 363.482L342.836 355.592L348.919 343.33L351.352 339.128L353.785 335.883L356.218 333.475L359.868 330.496L361.085 329.656L362.301 328.998L363.518 328.578L364.734 328.407L367.168 328.542L369.601 328.601L370.817 328.384L372.034 327.96L374.467 326.603L378.117 324.322L379.334 323.778L380.55 323.418L381.767 323.267L382.983 323.328L385.416 323.953L387.85 324.686L390.283 324.911L392.716 325.067L393.933 325.56L395.149 326.546L396.366 328.071L397.583 330.078L400.016 334.971L403.665 342.326L409.748 353.21L412.182 358.655L419.481 376.242L421.914 381.137L424.348 385.374L427.997 390.928L431.647 395.872L434.08 398.594L436.514 400.851L440.163 403.725L442.597 405.27L445.03 406.486L447.463 407.383L449.896 407.979L457.196 409.193L460.846 409.514L468.145 409.789L521.676 410.111L522.892 410.111" fill="#EFEFEF" fill-opacity="0.4"/>
<path d="M280.789 410.111L300.255 409.964L305.121 409.733L308.771 409.279L311.204 408.74L313.637 407.923L316.07 406.686L317.287 405.842L318.504 404.804L319.72 403.544L322.153 400.313L324.587 396.237L327.02 391.534L330.67 383.649L335.536 372.067L339.186 363.482L342.836 355.592L348.919 343.33L351.352 339.128L353.785 335.883L356.218 333.475L359.868 330.496L361.085 329.656L362.301 328.998L363.518 328.578L364.734 328.407L367.168 328.542L369.601 328.601L370.817 328.384L372.034 327.96L374.467 326.603L378.117 324.322L379.334 323.778L380.55 323.418L381.767 323.267L382.983 323.328L385.416 323.953L387.85 324.686L390.283 324.911L392.716 325.067L393.933 325.56L395.149 326.546L396.366 328.071L397.583 330.078L400.016 334.971L403.665 342.326L409.748 353.21L412.182 358.655L419.481 376.242L421.914 381.137L424.348 385.374L427.997 390.928L431.647 395.872L434.08 398.594L436.514 400.851L440.163 403.725L442.597 405.27L445.03 406.486L447.463 407.383L449.896 407.979L457.196 409.193L460.846 409.514L468.145 409.789L521.676 410.111L522.892 410.111" stroke="#EFEFEF" stroke-linecap="square"/>
</g>
<mask id="mask4_230_9518" style="mask-type:luminance" maskUnits="userSpaceOnUse" x="76" y="55" width="477" height="356">
<path d="M552.957 55.2959H76.7969V410.112H552.957V55.2959Z" fill="white"/>
</mask>
<g mask="url(#mask4_230_9518)">
<path d="M268.414 410.111L278.983 409.998L282.946 409.749L286.909 409.184L289.551 408.485L292.194 407.371L293.515 406.604L294.836 405.661L296.157 404.507L297.478 403.098L298.799 401.383L300.12 399.305L301.441 396.805L302.762 393.824L304.083 390.31L305.404 386.223L306.726 381.539L309.368 370.411L312.01 357.258L315.973 335.206L321.257 305.419L323.9 292.728L325.221 287.632L326.542 283.652L327.863 280.95L329.184 279.619L330.505 279.673L331.826 281.048L333.147 283.613L334.468 287.19L335.789 291.568L338.432 301.894L347.679 340.747L350.321 350.146L352.963 358.021L355.606 364.444L358.248 369.729L360.89 374.061L362.211 375.864L363.532 377.41L364.853 378.702L366.174 379.758L368.816 381.309L371.459 382.406L374.101 383.267L376.743 383.899L379.385 384.277L384.669 384.653L387.312 384.644L389.954 384.347L393.917 383.501L403.165 381.321L405.807 381.106L408.449 381.327L411.091 382.106L413.733 383.454L416.376 385.246L420.339 388.438L430.907 397.372L434.871 400.287L438.834 402.815L442.797 405.026L445.439 406.259L448.082 407.212L452.045 408.181L456.008 408.816L461.292 409.292L470.54 409.68L489.035 410.08L511.494 410.052L523.383 410.09L531.31 410.111" fill="#EFEFEF" fill-opacity="0.4"/>
<path d="M268.414 410.111L278.983 409.998L282.946 409.749L286.909 409.184L289.551 408.485L292.194 407.371L293.515 406.604L294.836 405.661L296.157 404.507L297.478 403.098L298.799 401.383L300.12 399.305L301.441 396.805L302.762 393.824L304.083 390.31L305.404 386.223L306.726 381.539L309.368 370.411L312.01 357.258L315.973 335.206L321.257 305.419L323.9 292.728L325.221 287.632L326.542 283.652L327.863 280.95L329.184 279.619L330.505 279.673L331.826 281.048L333.147 283.613L334.468 287.19L335.789 291.568L338.432 301.894L347.679 340.747L350.321 350.146L352.963 358.021L355.606 364.444L358.248 369.729L360.89 374.061L362.211 375.864L363.532 377.41L364.853 378.702L366.174 379.758L368.816 381.309L371.459 382.406L374.101 383.267L376.743 383.899L379.385 384.277L384.669 384.653L387.312 384.644L389.954 384.347L393.917 383.501L403.165 381.321L405.807 381.106L408.449 381.327L411.091 382.106L413.733 383.454L416.376 385.246L420.339 388.438L430.907 397.372L434.871 400.287L438.834 402.815L442.797 405.026L445.439 406.259L448.082 407.212L452.045 408.181L456.008 408.816L461.292 409.292L470.54 409.68L489.035 410.08L511.494 410.052L523.383 410.09L531.31 410.111" stroke="#EFEFEF" stroke-linecap="square"/>
</g>
<mask id="mask5_230_9518" style="mask-type:luminance" maskUnits="userSpaceOnUse" x="76" y="55" width="477" height="356">
<path d="M552.957 55.2959H76.7969V410.112H552.957V55.2959Z" fill="white"/>
</mask>
<g mask="url(#mask5_230_9518)">
<path d="M295.656 410.112L305.825 409.981L315.995 409.44L325.034 408.571L327.294 407.887L338.593 403.072L340.853 401.674L344.243 399.136L346.502 396.97L349.892 393.299L354.412 389.263L357.802 385.466L360.061 382.21L364.581 374.448L366.841 370.008L369.101 364.282L371.361 357.29L374.75 345.426L377.01 336.809L379.27 327.002L381.53 315.857L383.79 303.153L386.05 288.859L390.569 259.154L391.699 253.097L392.829 248.459L393.959 245.523L395.089 244.224L396.219 244.207L397.349 245.071L398.479 246.589L399.609 248.782L400.738 251.846L401.868 256.014L402.998 261.422L404.128 268.027L406.388 283.758L409.778 308.199L415.427 346.243L417.687 359.143L419.947 369.016L422.207 376.729L424.467 383.313L426.727 388.964L428.986 393.535L431.246 397.182L433.506 400.296L435.766 402.779L438.026 404.451L440.286 405.585L443.675 406.915L447.065 407.956L450.455 408.7L457.234 409.661L460.624 409.734L466.274 409.852L480.962 410.112L520.51 410.112" fill="#EFEFEF" fill-opacity="0.4"/>
<path d="M295.656 410.112L305.825 409.981L315.995 409.44L325.034 408.571L327.294 407.887L338.593 403.072L340.853 401.674L344.243 399.136L346.502 396.97L349.892 393.299L354.412 389.263L357.802 385.466L360.061 382.21L364.581 374.448L366.841 370.008L369.101 364.282L371.361 357.29L374.75 345.426L377.01 336.809L379.27 327.002L381.53 315.857L383.79 303.153L386.05 288.859L390.569 259.154L391.699 253.097L392.829 248.459L393.959 245.523L395.089 244.224L396.219 244.207L397.349 245.071L398.479 246.589L399.609 248.782L400.738 251.846L401.868 256.014L402.998 261.422L404.128 268.027L406.388 283.758L409.778 308.199L415.427 346.243L417.687 359.143L419.947 369.016L422.207 376.729L424.467 383.313L426.727 388.964L428.986 393.535L431.246 397.182L433.506 400.296L435.766 402.779L438.026 404.451L440.286 405.585L443.675 406.915L447.065 407.956L450.455 408.7L457.234 409.661L460.624 409.734L466.274 409.852L480.962 410.112L520.51 410.112" stroke="#EFEFEF" stroke-linecap="square"/>
</g>
<mask id="mask6_230_9518" style="mask-type:luminance" maskUnits="userSpaceOnUse" x="76" y="55" width="477" height="356">
<path d="M552.957 55.2959H76.7969V410.112H552.957V55.2959Z" fill="white"/>
</mask>
<g mask="url(#mask6_230_9518)">
<path d="M295.484 410.111L308.213 410L312.842 409.709L317.471 409.133L320.942 408.487L323.257 407.868L325.571 406.981L329.042 405.273L331.357 403.944L333.671 402.262L335.986 400.141L341.771 394.485L346.4 390.379L348.714 388.572L355.658 383.808L359.129 381.024L363.758 377.787L366.072 375.539L369.544 371.438L371.858 368.229L374.172 364.403L381.115 352.084L384.587 344.383L386.901 339.316L389.216 334.934L395.001 325.343L396.159 322.904L397.316 319.985L398.473 316.465L400.787 307.633L405.416 287.841L407.73 279.594L408.888 276.449L410.045 274.247L411.202 273.152L412.359 273.23L413.516 274.444L414.673 276.686L415.831 279.819L416.988 283.728L418.145 288.355L419.302 293.708L421.617 306.633L427.402 343.239L429.717 355.301L432.031 366.104L434.345 375.878L436.66 384.425L438.974 391.622L441.289 397.32L442.446 399.589L443.603 401.495L444.76 403.064L445.917 404.328L447.074 405.326L449.389 406.723L451.703 407.668L454.017 408.38L456.332 408.858L459.803 409.2L471.375 409.783L495.676 410.112L525.762 410.111" fill="#EFEFEF" fill-opacity="0.4"/>
<path d="M295.484 410.111L308.213 410L312.842 409.709L317.471 409.133L320.942 408.487L323.257 407.868L325.571 406.981L329.042 405.273L331.357 403.944L333.671 402.262L335.986 400.141L341.771 394.485L346.4 390.379L348.714 388.572L355.658 383.808L359.129 381.024L363.758 377.787L366.072 375.539L369.544 371.438L371.858 368.229L374.172 364.403L381.115 352.084L384.587 344.383L386.901 339.316L389.216 334.934L395.001 325.343L396.159 322.904L397.316 319.985L398.473 316.465L400.787 307.633L405.416 287.841L407.73 279.594L408.888 276.449L410.045 274.247L411.202 273.152L412.359 273.23L413.516 274.444L414.673 276.686L415.831 279.819L416.988 283.728L418.145 288.355L419.302 293.708L421.617 306.633L427.402 343.239L429.717 355.301L432.031 366.104L434.345 375.878L436.66 384.425L438.974 391.622L441.289 397.32L442.446 399.589L443.603 401.495L444.76 403.064L445.917 404.328L447.074 405.326L449.389 406.723L451.703 407.668L454.017 408.38L456.332 408.858L459.803 409.2L471.375 409.783L495.676 410.112L525.762 410.111" stroke="#EFEFEF" stroke-linecap="square"/>
</g>
<mask id="mask7_230_9518" style="mask-type:luminance" maskUnits="userSpaceOnUse" x="76" y="55" width="477" height="356">
<path d="M552.957 55.2959H76.7969V410.112H552.957V55.2959Z" fill="white"/>
</mask>
<g mask="url(#mask7_230_9518)">
<path d="M272.547 410.112L283.877 409.965L288.913 409.629L293.949 409.027L297.726 408.274L300.243 407.468L302.761 406.294L305.279 404.627L307.797 402.385L310.315 399.469L312.833 395.659L315.351 390.779L317.869 384.893L320.386 378.135L322.904 370.591L335.494 331.082L338.012 324.447L339.271 321.864L340.529 319.916L341.788 318.624L343.047 317.93L344.306 317.719L345.565 317.856L348.083 318.733L350.601 320.055L353.119 321.774L355.637 323.928L358.155 326.444L361.931 330.674L366.967 336.304L372.003 341.132L375.78 345.061L380.815 350.61L384.592 354.176L388.369 357.356L390.887 359.181L397.182 363.121L398.441 364.209L399.7 365.518L402.217 368.765L405.994 374.146L408.512 377.173L416.066 385.186L423.619 394.195L426.137 396.58L429.914 399.514L437.468 404.987L439.985 406.225L442.503 407.02L445.021 407.498L451.316 408.184L463.905 409.468L468.941 409.64L479.013 409.727L485.307 409.919L523.075 410.112" fill="#EFEFEF" fill-opacity="0.4"/>
<path d="M272.547 410.112L283.877 409.965L288.913 409.629L293.949 409.027L297.726 408.274L300.243 407.468L302.761 406.294L305.279 404.627L307.797 402.385L310.315 399.469L312.833 395.659L315.351 390.779L317.869 384.893L320.386 378.135L322.904 370.591L335.494 331.082L338.012 324.447L339.271 321.864L340.529 319.916L341.788 318.624L343.047 317.93L344.306 317.719L345.565 317.856L348.083 318.733L350.601 320.055L353.119 321.774L355.637 323.928L358.155 326.444L361.931 330.674L366.967 336.304L372.003 341.132L375.78 345.061L380.815 350.61L384.592 354.176L388.369 357.356L390.887 359.181L397.182 363.121L398.441 364.209L399.7 365.518L402.217 368.765L405.994 374.146L408.512 377.173L416.066 385.186L423.619 394.195L426.137 396.58L429.914 399.514L437.468 404.987L439.985 406.225L442.503 407.02L445.021 407.498L451.316 408.184L463.905 409.468L468.941 409.64L479.013 409.727L485.307 409.919L523.075 410.112" stroke="#EFEFEF" stroke-linecap="square"/>
</g>
<mask id="mask8_230_9518" style="mask-type:luminance" maskUnits="userSpaceOnUse" x="76" y="55" width="477" height="356">
<path d="M552.957 55.2959H76.7969V410.112H552.957V55.2959Z" fill="white"/>
</mask>
<g mask="url(#mask8_230_9518)">
<path d="M308.273 410.111L323.375 409.914L331.765 409.312L333.443 408.894L335.96 408.855L338.477 408.288L340.994 408.883L347.706 408.289L349.384 407.739L351.063 407.159L351.901 407.047L353.579 407.222L356.936 407.619L359.452 407.338L361.969 406.684L363.648 406.046L365.325 404.764L367.004 403.513L367.842 402.949L368.682 402.082L369.521 400.668L370.359 398.636L371.198 395.976L372.038 392.647L373.715 383.991L375.394 372.505L377.071 357.5L377.911 348.171L379.589 324.452L382.106 280.531L383.784 246.633L387.979 155.223L388.818 142.645L389.657 134.259L390.496 129.428L391.335 126.677L392.174 125.015L393.013 124.369L393.852 125.161L394.691 128.015L395.53 133.566L396.369 142.25L397.208 154.257L398.886 186.367L401.403 235.473L403.081 263.094L405.598 297.601L408.115 330.809L409.793 348.503L411.471 362.474L413.149 373.665L414.827 382.251L416.505 389.785L418.183 395.465L419.861 399.526L420.7 400.895L422.378 402.599L426.573 406.301L429.09 407.474L430.768 408.064L432.446 408.574L434.963 409.455L437.48 409.769L443.353 409.742L445.031 409.692L448.387 409.901L450.904 409.92L454.26 409.989L462.65 409.952L475.235 410.111" fill="#EFEFEF" fill-opacity="0.4"/>
<path d="M308.273 410.111L323.375 409.914L331.765 409.312L333.443 408.894L335.96 408.855L338.477 408.288L340.994 408.883L347.706 408.289L349.384 407.739L351.063 407.159L351.901 407.047L353.579 407.222L356.936 407.619L359.452 407.338L361.969 406.684L363.648 406.046L365.325 404.764L367.004 403.513L367.842 402.949L368.682 402.082L369.521 400.668L370.359 398.636L371.198 395.976L372.038 392.647L373.715 383.991L375.394 372.505L377.071 357.5L377.911 348.171L379.589 324.452L382.106 280.531L383.784 246.633L387.979 155.223L388.818 142.645L389.657 134.259L390.496 129.428L391.335 126.677L392.174 125.015L393.013 124.369L393.852 125.161L394.691 128.015L395.53 133.566L396.369 142.25L397.208 154.257L398.886 186.367L401.403 235.473L403.081 263.094L405.598 297.601L408.115 330.809L409.793 348.503L411.471 362.474L413.149 373.665L414.827 382.251L416.505 389.785L418.183 395.465L419.861 399.526L420.7 400.895L422.378 402.599L426.573 406.301L429.09 407.474L430.768 408.064L432.446 408.574L434.963 409.455L437.48 409.769L443.353 409.742L445.031 409.692L448.387 409.901L450.904 409.92L454.26 409.989L462.65 409.952L475.235 410.111" stroke="#EFEFEF" stroke-linecap="square"/>
</g>
<mask id="mask9_230_9518" style="mask-type:luminance" maskUnits="userSpaceOnUse" x="76" y="55" width="477" height="356">
<path d="M552.957 55.2959H76.7969V410.112H552.957V55.2959Z" fill="white"/>
</mask>
<g mask="url(#mask9_230_9518)">
<path d="M275.008 410.111L282.323 410.007L287.199 409.607L290.857 408.989L293.295 408.271L294.514 407.737L295.733 407.025L296.953 406.09L298.172 404.894L299.391 403.422L301.829 399.7L304.267 395.092L306.706 389.534L309.144 382.657L311.582 374.356L317.678 351.229L323.774 328.49L326.212 320.05L328.65 312.65L329.87 309.58L331.089 307.072L332.308 305.203L333.527 303.998L334.746 303.416L335.965 303.358L337.185 303.698L338.404 304.315L340.842 306.086L343.28 308.462L345.719 311.5L351.814 319.886L356.691 325.638L359.129 329.358L362.787 335.757L366.444 342.836L368.882 347.58L371.321 351.756L377.416 361.593L383.512 371.922L387.17 377.385L389.608 380.536L392.046 383.11L394.485 385L407.895 393.388L412.772 396.929L415.21 398.272L422.525 401.755L426.183 403.846L428.621 404.886L431.059 405.512L435.936 406.562L440.812 407.833L444.47 408.389L454.223 409.407L460.319 409.671L496.893 410.11L517.619 410.112" fill="#EFEFEF" fill-opacity="0.4"/>
<path d="M275.008 410.111L282.323 410.007L287.199 409.607L290.857 408.989L293.295 408.271L294.514 407.737L295.733 407.025L296.953 406.09L298.172 404.894L299.391 403.422L301.829 399.7L304.267 395.092L306.706 389.534L309.144 382.657L311.582 374.356L317.678 351.229L323.774 328.49L326.212 320.05L328.65 312.65L329.87 309.58L331.089 307.072L332.308 305.203L333.527 303.998L334.746 303.416L335.965 303.358L337.185 303.698L338.404 304.315L340.842 306.086L343.28 308.462L345.719 311.5L351.814 319.886L356.691 325.638L359.129 329.358L362.787 335.757L366.444 342.836L368.882 347.58L371.321 351.756L377.416 361.593L383.512 371.922L387.17 377.385L389.608 380.536L392.046 383.11L394.485 385L407.895 393.388L412.772 396.929L415.21 398.272L422.525 401.755L426.183 403.846L428.621 404.886L431.059 405.512L435.936 406.562L440.812 407.833L444.47 408.389L454.223 409.407L460.319 409.671L496.893 410.11L517.619 410.112" stroke="#EFEFEF" stroke-linecap="square"/>
</g>
<mask id="mask10_230_9518" style="mask-type:luminance" maskUnits="userSpaceOnUse" x="76" y="55" width="477" height="356">
<path d="M552.957 55.2959H76.7969V410.112H552.957V55.2959Z" fill="white"/>
</mask>
<g mask="url(#mask10_230_9518)">
<path d="M276.727 410.111L286.566 410.01L290.255 409.748L292.715 409.293L295.175 408.397L296.405 407.723L297.635 406.871L298.865 405.823L300.095 404.567L302.555 401.427L305.014 397.464L306.244 395.107L307.474 392.406L308.704 389.289L309.934 385.7L311.164 381.605L312.394 376.966L314.854 365.892L317.313 352.471L319.773 337.263L322.233 320.467L324.693 301.719L329.612 261.187L330.842 252.822L332.072 246.226L333.302 241.634L334.532 239.068L335.762 238.444L336.992 239.662L338.222 242.602L339.452 247.076L340.682 252.811L343.141 266.812L346.831 290.726L350.521 314.621L352.981 328.796L355.44 341.169L357.9 351.827L360.36 360.633L362.82 367.721L365.28 373.491L367.739 378.165L370.199 381.947L372.659 385.08L375.119 387.612L377.579 389.586L380.039 391.08L382.498 392.084L384.958 392.677L388.648 393.462L392.338 394.781L394.797 395.526L397.257 395.784L400.947 395.928L403.407 396.445L407.096 397.821L415.706 401.431L419.395 402.967L426.775 405.353L429.235 406.053L431.694 406.453L435.384 406.916L445.223 408.868L455.063 409.633L459.982 409.818L473.511 409.831L482.121 410.063L493.19 410.042L512.868 410.065L521.477 410.111" fill="#EFEFEF" fill-opacity="0.4"/>
<path d="M276.727 410.111L286.566 410.01L290.255 409.748L292.715 409.293L295.175 408.397L296.405 407.723L297.635 406.871L298.865 405.823L300.095 404.567L302.555 401.427L305.014 397.464L306.244 395.107L307.474 392.406L308.704 389.289L309.934 385.7L311.164 381.605L312.394 376.966L314.854 365.892L317.313 352.471L319.773 337.263L322.233 320.467L324.693 301.719L329.612 261.187L330.842 252.822L332.072 246.226L333.302 241.634L334.532 239.068L335.762 238.444L336.992 239.662L338.222 242.602L339.452 247.076L340.682 252.811L343.141 266.812L346.831 290.726L350.521 314.621L352.981 328.796L355.44 341.169L357.9 351.827L360.36 360.633L362.82 367.721L365.28 373.491L367.739 378.165L370.199 381.947L372.659 385.08L375.119 387.612L377.579 389.586L380.039 391.08L382.498 392.084L384.958 392.677L388.648 393.462L392.338 394.781L394.797 395.526L397.257 395.784L400.947 395.928L403.407 396.445L407.096 397.821L415.706 401.431L419.395 402.967L426.775 405.353L429.235 406.053L431.694 406.453L435.384 406.916L445.223 408.868L455.063 409.633L459.982 409.818L473.511 409.831L482.121 410.063L493.19 410.042L512.868 410.065L521.477 410.111" stroke="#EFEFEF" stroke-linecap="square"/>
</g>
<mask id="mask11_230_9518" style="mask-type:luminance" maskUnits="userSpaceOnUse" x="76" y="55" width="477" height="356">
<path d="M552.957 55.2959H76.7969V410.112H552.957V55.2959Z" fill="white"/>
</mask>
<g mask="url(#mask11_230_9518)">
<path d="M272.352 410.112L292.982 409.989L297.837 409.73L301.477 409.261L305.118 408.452L307.545 407.575L309.973 406.208L312.4 404.165L314.827 401.351L317.254 397.662L318.468 395.413L319.681 392.837L322.108 386.563L324.535 378.786L326.963 369.81L334.244 341.591L337.885 329.405L340.312 322.181L342.739 316.156L343.953 313.703L345.166 311.632L346.38 309.95L347.593 308.691L348.807 307.913L350.021 307.673L351.234 307.986L352.448 308.8L353.661 309.995L356.089 312.972L358.516 316.281L360.943 320.233L363.37 325.104L368.224 335.361L371.865 342.06L375.506 348.314L377.933 352.027L380.36 355.008L382.787 357.325L387.642 361.293L390.069 363.034L392.496 364.51L394.923 365.71L397.35 366.622L400.991 367.82L403.418 368.938L405.845 370.388L408.272 372.09L410.7 374.152L413.127 376.666L425.263 390.542L428.903 394.864L431.33 397.225L433.758 399.098L438.612 402.221L443.466 405.067L445.893 406.198L448.321 407.096L451.961 408.074L455.602 408.718L461.67 409.433L466.524 409.739L483.514 410.1L513.854 410.112" fill="#EFEFEF" fill-opacity="0.4"/>
<path d="M272.352 410.112L292.982 409.989L297.837 409.73L301.477 409.261L305.118 408.452L307.545 407.575L309.973 406.208L312.4 404.165L314.827 401.351L317.254 397.662L318.468 395.413L319.681 392.837L322.108 386.563L324.535 378.786L326.963 369.81L334.244 341.591L337.885 329.405L340.312 322.181L342.739 316.156L343.953 313.703L345.166 311.632L346.38 309.95L347.593 308.691L348.807 307.913L350.021 307.673L351.234 307.986L352.448 308.8L353.661 309.995L356.089 312.972L358.516 316.281L360.943 320.233L363.37 325.104L368.224 335.361L371.865 342.06L375.506 348.314L377.933 352.027L380.36 355.008L382.787 357.325L387.642 361.293L390.069 363.034L392.496 364.51L394.923 365.71L397.35 366.622L400.991 367.82L403.418 368.938L405.845 370.388L408.272 372.09L410.7 374.152L413.127 376.666L425.263 390.542L428.903 394.864L431.33 397.225L433.758 399.098L438.612 402.221L443.466 405.067L445.893 406.198L448.321 407.096L451.961 408.074L455.602 408.718L461.67 409.433L466.524 409.739L483.514 410.1L513.854 410.112" stroke="#EFEFEF" stroke-linecap="square"/>
</g>
<mask id="mask12_230_9518" style="mask-type:luminance" maskUnits="userSpaceOnUse" x="76" y="55" width="477" height="356">
<path d="M552.957 55.2959H76.7969V410.112H552.957V55.2959Z" fill="white"/>
</mask>
<g mask="url(#mask12_230_9518)">
<path d="M309.562 410.111L317.114 409.971L321.428 409.762L326.822 409.958L332.216 409.724L334.373 409.402L336.531 408.648L338.688 407.886L345.16 406.592L348.397 406.594L351.633 406.072L354.869 406.008L361.341 404.906L362.42 404.417L364.577 402.915L365.656 401.901L367.814 399.261L368.892 397.638L369.971 395.716L371.05 393.228L372.128 389.927L374.286 381.182L376.443 370.167L378.601 355.754L380.758 338.231L382.916 317.668L389.388 249.221L391.546 227.3L392.624 219.254L393.703 213.264L394.782 208.989L395.86 205.915L396.939 203.513L398.018 202.034L399.097 202.586L400.175 205.831L401.254 211.183L403.411 224.719L405.569 240.491L408.805 266.591L413.12 304.295L415.277 322.05L417.435 336.953L419.592 351.267L422.829 374.258L423.907 380.212L424.986 384.733L426.065 388.256L428.222 393.89L430.38 398.427L432.537 402.287L433.616 403.863L434.694 405.031L435.773 405.801L437.931 406.751L442.246 408.331L446.56 409.436L449.797 409.762L453.033 409.909L458.426 409.852L515.599 410.087L522.071 410.101L524.229 410.111" fill="#EFEFEF" fill-opacity="0.4"/>
<path d="M309.562 410.111L317.114 409.971L321.428 409.762L326.822 409.958L332.216 409.724L334.373 409.402L336.531 408.648L338.688 407.886L345.16 406.592L348.397 406.594L351.633 406.072L354.869 406.008L361.341 404.906L362.42 404.417L364.577 402.915L365.656 401.901L367.814 399.261L368.892 397.638L369.971 395.716L371.05 393.228L372.128 389.927L374.286 381.182L376.443 370.167L378.601 355.754L380.758 338.231L382.916 317.668L389.388 249.221L391.546 227.3L392.624 219.254L393.703 213.264L394.782 208.989L395.86 205.915L396.939 203.513L398.018 202.034L399.097 202.586L400.175 205.831L401.254 211.183L403.411 224.719L405.569 240.491L408.805 266.591L413.12 304.295L415.277 322.05L417.435 336.953L419.592 351.267L422.829 374.258L423.907 380.212L424.986 384.733L426.065 388.256L428.222 393.89L430.38 398.427L432.537 402.287L433.616 403.863L434.694 405.031L435.773 405.801L437.931 406.751L442.246 408.331L446.56 409.436L449.797 409.762L453.033 409.909L458.426 409.852L515.599 410.087L522.071 410.101L524.229 410.111" stroke="#EFEFEF" stroke-linecap="square"/>
</g>
<mask id="mask13_230_9518" style="mask-type:luminance" maskUnits="userSpaceOnUse" x="76" y="55" width="477" height="356">
<path d="M552.957 55.2959H76.7969V410.112H552.957V55.2959Z" fill="white"/>
</mask>
<g mask="url(#mask13_230_9518)">
<path d="M287.719 410.112L300.686 409.959L307.169 409.585L310.411 409.192L313.653 408.485L315.814 407.749L317.975 406.778L321.217 404.921L323.378 403.422L325.539 401.653L327.7 399.526L329.862 396.981L332.023 394.028L335.265 389.044L342.829 377.112L346.07 371.895L352.554 360.661L354.715 357.945L356.876 356.039L361.199 352.807L364.44 349.714L372.004 341.957L375.246 338.617L378.488 335.77L386.052 329.784L389.294 327.154L391.455 325.942L392.536 325.569L393.616 325.355L394.697 325.299L395.777 325.398L396.858 325.658L397.939 326.095L399.019 326.727L400.1 327.566L402.261 329.829L409.825 339.105L415.228 345.017L418.47 348.973L420.631 352.02L422.792 355.632L427.114 363.878L436.84 382.431L439.001 385.815L442.243 390.181L449.807 399.874L451.968 401.991L454.129 403.661L457.371 405.616L460.613 407.194L463.854 408.388L467.096 409.155L470.338 409.581L474.66 409.804L495.191 410.079L502.755 410.111" fill="#EFEFEF" fill-opacity="0.4"/>
<path d="M287.719 410.112L300.686 409.959L307.169 409.585L310.411 409.192L313.653 408.485L315.814 407.749L317.975 406.778L321.217 404.921L323.378 403.422L325.539 401.653L327.7 399.526L329.862 396.981L332.023 394.028L335.265 389.044L342.829 377.112L346.07 371.895L352.554 360.661L354.715 357.945L356.876 356.039L361.199 352.807L364.44 349.714L372.004 341.957L375.246 338.617L378.488 335.77L386.052 329.784L389.294 327.154L391.455 325.942L392.536 325.569L393.616 325.355L394.697 325.299L395.777 325.398L396.858 325.658L397.939 326.095L399.019 326.727L400.1 327.566L402.261 329.829L409.825 339.105L415.228 345.017L418.47 348.973L420.631 352.02L422.792 355.632L427.114 363.878L436.84 382.431L439.001 385.815L442.243 390.181L449.807 399.874L451.968 401.991L454.129 403.661L457.371 405.616L460.613 407.194L463.854 408.388L467.096 409.155L470.338 409.581L474.66 409.804L495.191 410.079L502.755 410.111" stroke="#EFEFEF" stroke-linecap="square"/>
</g>
<mask id="mask14_230_9518" style="mask-type:luminance" maskUnits="userSpaceOnUse" x="76" y="55" width="477" height="356">
<path d="M552.957 55.2959H76.7969V410.112H552.957V55.2959Z" fill="white"/>
</mask>
<g mask="url(#mask14_230_9518)">
<path d="M98.4375 410.111L237.085 409.939L243.113 409.624L247.132 409.147L249.141 408.725L251.151 408.125L253.16 407.319L255.169 406.3L257.179 405.062L259.188 403.583L261.197 401.821L263.207 399.74L265.216 397.336L267.226 394.632L269.235 391.626L271.244 388.261L273.254 384.444L275.263 380.12L279.282 370.144L287.319 348.836L291.338 339.496L293.348 335.361L295.357 331.689L297.366 328.643L299.376 326.389L301.385 324.994L303.394 324.365L305.404 324.304L307.413 324.611L309.423 325.173L311.432 325.97L313.441 327.034L315.451 328.387L317.46 330.01L321.479 333.878L325.498 338.404L339.563 355.53L343.582 360.84L347.601 365.578L353.629 371.795L357.648 375.729L361.667 379.319L365.685 382.393L369.704 384.909L373.723 387.158L377.742 389.102L395.826 396.577L409.892 401.509L415.92 403.853L421.948 405.834L427.976 407.654L431.995 408.508L436.014 409.012L442.042 409.44L450.079 409.667L498.304 410.111" fill="#7EB0D5" fill-opacity="0.4"/>
<path d="M98.4375 410.111L237.085 409.939L243.113 409.624L247.132 409.147L249.141 408.725L251.151 408.125L253.16 407.319L255.169 406.3L257.179 405.062L259.188 403.583L261.197 401.821L263.207 399.74L265.216 397.336L267.226 394.632L269.235 391.626L271.244 388.261L273.254 384.444L275.263 380.12L279.282 370.144L287.319 348.836L291.338 339.496L293.348 335.361L295.357 331.689L297.366 328.643L299.376 326.389L301.385 324.994L303.394 324.365L305.404 324.304L307.413 324.611L309.423 325.173L311.432 325.97L313.441 327.034L315.451 328.387L317.46 330.01L321.479 333.878L325.498 338.404L339.563 355.53L343.582 360.84L347.601 365.578L353.629 371.795L357.648 375.729L361.667 379.319L365.685 382.393L369.704 384.909L373.723 387.158L377.742 389.102L395.826 396.577L409.892 401.509L415.92 403.853L421.948 405.834L427.976 407.654L431.995 408.508L436.014 409.012L442.042 409.44L450.079 409.667L498.304 410.111" stroke="#7EB0D5" stroke-linecap="square"/>
</g>
<path d="M535.061 411.061C535.646 410.475 535.646 409.525 535.061 408.939L525.515 399.393C524.929 398.808 523.979 398.808 523.393 399.393C522.808 399.979 522.808 400.929 523.393 401.515L531.879 410L523.393 418.485C522.808 419.071 522.808 420.021 523.393 420.607C523.979 421.192 524.929 421.192 525.515 420.607L535.061 411.061ZM79 411.5H534V408.5H79V411.5Z" fill="black"/>
</g>
<defs>
<clipPath id="clip0_230_9518">
<rect width="614.4" height="460.8" fill="white"/>
</clipPath>
</defs>
</svg>
