<svg width="615" height="461" viewBox="0 0 615 461" fill="none" xmlns="http://www.w3.org/2000/svg">
<mask id="mask0_230_9438" style="mask-type:luminance" maskUnits="userSpaceOnUse" x="76" y="55" width="477" height="356">
<path d="M552.957 55.2959H76.7969V410.112H552.957V55.2959Z" fill="white"/>
</mask>
<g mask="url(#mask0_230_9438)">
<path d="M266.922 410.111L283.824 409.862L286.993 409.567L289.105 409.449L293.331 409.946L294.387 409.927L297.556 409.493L300.725 409.812L301.781 409.694L303.894 408.831L306.007 408.443L308.12 407.248L309.176 406.805L311.289 405.63L313.401 404.776L314.458 404.11L315.514 402.863L316.57 400.492L317.627 396.308L318.683 389.638L319.739 380.257L320.796 368.208L321.852 353.665L322.909 335.657L323.965 311.443L329.247 163.172L331.359 104.402L332.416 82.9937L333.472 72.1924L334.528 75.2925L335.585 89.3162L336.641 111.098L337.697 144.057L340.867 268.285L341.923 301.268L342.979 328.807L344.036 349.358L345.092 363.547L346.148 373.976L347.205 382.332L348.261 387.774L349.317 391.171L350.374 393.8L351.43 395.536L352.486 397.635L353.543 400.457L354.599 402.4L355.655 403.266L358.824 404.543L360.937 405.307L363.05 406.374L365.163 406.824L367.275 407.885L368.332 408.126L370.444 407.954L372.557 408.498L375.726 409.267L377.839 409.041L378.895 409.068L381.008 408.898L383.121 409.333L385.233 409.434L387.346 409.715L392.628 409.88L394.74 409.808L398.966 410.064L404.248 409.819L406.36 409.645L409.529 410.085L415.867 410.082L419.037 410.062L432.769 409.988L435.938 410.111L453.896 410.112L477.136 410.111" fill="#EFEFEF" fill-opacity="0.4"/>
<path d="M266.922 410.111L283.824 409.862L286.993 409.567L289.105 409.449L293.331 409.946L294.387 409.927L297.556 409.493L300.725 409.812L301.781 409.694L303.894 408.831L306.007 408.443L308.12 407.248L309.176 406.805L311.289 405.63L313.401 404.776L314.458 404.11L315.514 402.863L316.57 400.492L317.627 396.308L318.683 389.638L319.739 380.257L320.796 368.208L321.852 353.665L322.909 335.657L323.965 311.443L329.247 163.172L331.359 104.402L332.416 82.9937L333.472 72.1924L334.528 75.2925L335.585 89.3162L336.641 111.098L337.697 144.057L340.867 268.285L341.923 301.268L342.979 328.807L344.036 349.358L345.092 363.547L346.148 373.976L347.205 382.332L348.261 387.774L349.317 391.171L350.374 393.8L351.43 395.536L352.486 397.635L353.543 400.457L354.599 402.4L355.655 403.266L358.824 404.543L360.937 405.307L363.05 406.374L365.163 406.824L367.275 407.885L368.332 408.126L370.444 407.954L372.557 408.498L375.726 409.267L377.839 409.041L378.895 409.068L381.008 408.898L383.121 409.333L385.233 409.434L387.346 409.715L392.628 409.88L394.74 409.808L398.966 410.064L404.248 409.819L406.36 409.645L409.529 410.085L415.867 410.082L419.037 410.062L432.769 409.988L435.938 410.111L453.896 410.112L477.136 410.111" stroke="#EFEFEF" stroke-linecap="square"/>
</g>
<mask id="mask1_230_9438" style="mask-type:luminance" maskUnits="userSpaceOnUse" x="76" y="55" width="477" height="356">
<path d="M552.957 55.2959H76.7969V410.112H552.957V55.2959Z" fill="white"/>
</mask>
<g mask="url(#mask1_230_9438)">
<path d="M269.094 410.111L285.262 409.975L289.882 409.867L296.812 409.771L300.276 409.6L303.741 409.366L308.361 409.543L312.98 408.569L315.29 408.53L317.6 408.531L319.91 408.2L322.22 407.707L324.529 407.401L325.684 406.971L326.839 406.025L327.994 404.403L329.149 402.091L330.304 399.157L331.459 395.513L332.614 390.749L333.769 384.39L334.924 376.32L336.079 366.731L338.388 343.675L344.163 278.968L345.318 269.165L346.473 261.412L347.628 255.647L348.783 251.607L349.937 248.839L351.092 247.071L352.247 246.658L353.402 248.03L354.557 250.901L355.712 254.874L356.867 260.201L360.332 280.801L364.951 309.06L367.261 320.274L371.881 346.372L374.191 357.497L375.346 362.488L377.655 370.561L381.12 381.027L382.275 383.745L388.05 394.822L389.204 396.728L392.669 401.305L393.824 402.611L394.979 403.584L396.134 404.235L399.599 405.613L403.063 407.683L404.218 408.132L406.528 408.615L409.993 409.049L415.767 409.32L419.232 409.656L422.697 409.714L426.162 409.987L431.936 410.001L437.711 410.046L443.485 409.984L451.57 410.111L498.921 410.111" fill="#EFEFEF" fill-opacity="0.4"/>
<path d="M269.094 410.111L285.262 409.975L289.882 409.867L296.812 409.771L300.276 409.6L303.741 409.366L308.361 409.543L312.98 408.569L315.29 408.53L317.6 408.531L319.91 408.2L322.22 407.707L324.529 407.401L325.684 406.971L326.839 406.025L327.994 404.403L329.149 402.091L330.304 399.157L331.459 395.513L332.614 390.749L333.769 384.39L334.924 376.32L336.079 366.731L338.388 343.675L344.163 278.968L345.318 269.165L346.473 261.412L347.628 255.647L348.783 251.607L349.937 248.839L351.092 247.071L352.247 246.658L353.402 248.03L354.557 250.901L355.712 254.874L356.867 260.201L360.332 280.801L364.951 309.06L367.261 320.274L371.881 346.372L374.191 357.497L375.346 362.488L377.655 370.561L381.12 381.027L382.275 383.745L388.05 394.822L389.204 396.728L392.669 401.305L393.824 402.611L394.979 403.584L396.134 404.235L399.599 405.613L403.063 407.683L404.218 408.132L406.528 408.615L409.993 409.049L415.767 409.32L419.232 409.656L422.697 409.714L426.162 409.987L431.936 410.001L437.711 410.046L443.485 409.984L451.57 410.111L498.921 410.111" stroke="#EFEFEF" stroke-linecap="square"/>
</g>
<mask id="mask2_230_9438" style="mask-type:luminance" maskUnits="userSpaceOnUse" x="76" y="55" width="477" height="356">
<path d="M552.957 55.2959H76.7969V410.112H552.957V55.2959Z" fill="white"/>
</mask>
<g mask="url(#mask2_230_9438)">
<path d="M258.234 410.111L269.018 409.982L271.714 409.72L273.062 409.376L274.41 408.859L275.758 408.147L277.105 407.172L278.453 405.816L279.801 403.977L281.149 401.622L282.497 398.776L283.845 395.436L285.193 391.568L286.541 387.184L287.889 382.291L289.237 376.792L291.933 364.11L297.324 337.126L301.368 316.671L304.064 304.42L305.412 299.832L306.76 296.391L310.804 288.303L312.152 286.211L313.5 285.516L314.848 286.549L317.543 291.109L318.891 292.853L320.239 294.139L321.587 295.892L322.935 299.003L324.283 303.545L326.979 314.644L329.675 327.169L332.371 340.051L336.414 356.95L339.11 366.898L341.806 374.866L344.502 381.6L348.546 390.66L349.894 393.314L351.242 395.555L352.59 397.352L353.938 398.739L356.633 400.794L360.677 403.721L362.025 404.39L374.157 408.584L376.853 409.012L380.896 409.355L386.288 409.489L391.68 409.901L397.072 409.892L402.463 409.986L409.203 410.039L432.118 410.077L442.901 410.101L460.424 410.067L476.6 410.112L526.473 410.111" fill="#EFEFEF" fill-opacity="0.4"/>
<path d="M258.234 410.111L269.018 409.982L271.714 409.72L273.062 409.376L274.41 408.859L275.758 408.147L277.105 407.172L278.453 405.816L279.801 403.977L281.149 401.622L282.497 398.776L283.845 395.436L285.193 391.568L286.541 387.184L287.889 382.291L289.237 376.792L291.933 364.11L297.324 337.126L301.368 316.671L304.064 304.42L305.412 299.832L306.76 296.391L310.804 288.303L312.152 286.211L313.5 285.516L314.848 286.549L317.543 291.109L318.891 292.853L320.239 294.139L321.587 295.892L322.935 299.003L324.283 303.545L326.979 314.644L329.675 327.169L332.371 340.051L336.414 356.95L339.11 366.898L341.806 374.866L344.502 381.6L348.546 390.66L349.894 393.314L351.242 395.555L352.59 397.352L353.938 398.739L356.633 400.794L360.677 403.721L362.025 404.39L374.157 408.584L376.853 409.012L380.896 409.355L386.288 409.489L391.68 409.901L397.072 409.892L402.463 409.986L409.203 410.039L432.118 410.077L442.901 410.101L460.424 410.067L476.6 410.112L526.473 410.111" stroke="#EFEFEF" stroke-linecap="square"/>
</g>
<mask id="mask3_230_9438" style="mask-type:luminance" maskUnits="userSpaceOnUse" x="76" y="55" width="477" height="356">
<path d="M552.957 55.2959H76.7969V410.112H552.957V55.2959Z" fill="white"/>
</mask>
<g mask="url(#mask3_230_9438)">
<path d="M262.758 410.111L274.167 409.98L276.703 409.826L279.238 409.35L280.506 408.888L281.774 408.224L283.042 407.343L285.577 404.982L286.845 403.514L288.113 401.793L289.38 399.721L290.648 397.216L293.184 391.082L296.987 380.889L303.325 362.765L307.129 353.058L309.664 345.199L312.2 336.541L313.467 332.751L314.735 329.658L316.003 327.194L317.271 325.172L318.538 323.503L319.806 322.203L321.074 321.247L323.609 319.688L327.412 316.925L328.68 316.389L331.216 315.791L332.483 315.283L336.287 313.243L337.554 313.089L338.822 313.574L340.09 314.872L341.358 316.991L342.625 319.764L345.161 326.551L347.696 334.608L351.5 347.21L354.035 354.537L366.712 388.433L369.248 393.162L371.783 397.01L374.319 400.203L376.854 402.742L379.39 404.676L381.925 405.936L386.996 407.621L389.532 408.297L392.067 408.561L395.87 408.923L399.674 409.366L406.012 409.549L412.351 409.586L418.69 409.936L438.974 410.03L459.257 410.095L479.541 410.112L515.038 410.111" fill="#EFEFEF" fill-opacity="0.4"/>
<path d="M262.758 410.111L274.167 409.98L276.703 409.826L279.238 409.35L280.506 408.888L281.774 408.224L283.042 407.343L285.577 404.982L286.845 403.514L288.113 401.793L289.38 399.721L290.648 397.216L293.184 391.082L296.987 380.889L303.325 362.765L307.129 353.058L309.664 345.199L312.2 336.541L313.467 332.751L314.735 329.658L316.003 327.194L317.271 325.172L318.538 323.503L319.806 322.203L321.074 321.247L323.609 319.688L327.412 316.925L328.68 316.389L331.216 315.791L332.483 315.283L336.287 313.243L337.554 313.089L338.822 313.574L340.09 314.872L341.358 316.991L342.625 319.764L345.161 326.551L347.696 334.608L351.5 347.21L354.035 354.537L366.712 388.433L369.248 393.162L371.783 397.01L374.319 400.203L376.854 402.742L379.39 404.676L381.925 405.936L386.996 407.621L389.532 408.297L392.067 408.561L395.87 408.923L399.674 409.366L406.012 409.549L412.351 409.586L418.69 409.936L438.974 410.03L459.257 410.095L479.541 410.112L515.038 410.111" stroke="#EFEFEF" stroke-linecap="square"/>
</g>
<mask id="mask4_230_9438" style="mask-type:luminance" maskUnits="userSpaceOnUse" x="76" y="55" width="477" height="356">
<path d="M552.957 55.2959H76.7969V410.112H552.957V55.2959Z" fill="white"/>
</mask>
<g mask="url(#mask4_230_9438)">
<path d="M250.203 410.111L258.679 409.978L261.504 409.749L264.329 409.232L265.742 408.793L267.155 408.196L268.567 407.42L269.98 406.433L271.392 405.183L272.805 403.584L274.218 401.527L275.63 398.892L277.043 395.57L278.455 391.476L279.868 386.566L281.281 380.837L284.106 367.217L288.344 343.787L291.169 328.444L293.994 315.241L295.407 309.938L296.819 305.697L298.232 302.624L299.645 300.795L301.057 300.243L302.47 300.941L303.882 302.804L305.295 305.706L306.708 309.473L309.533 318.6L315.183 337.467L318.009 346.347L320.834 354.197L323.659 360.896L325.072 363.772L326.484 366.202L327.897 368.135L329.31 369.649L334.96 374.78L336.373 375.867L337.785 376.617L339.198 376.972L340.61 376.976L344.848 376.309L346.261 376.369L347.674 376.692L350.499 377.919L353.324 379.525L356.149 381.595L358.974 384.302L363.212 388.463L375.926 399.536L378.751 401.415L387.227 406.292L390.052 407.35L394.29 408.246L398.528 408.908L402.766 409.215L409.829 409.511L416.892 409.84L426.78 409.927L453.62 410.049L517.187 410.093L531.314 410.112" fill="#EFEFEF" fill-opacity="0.4"/>
<path d="M250.203 410.111L258.679 409.978L261.504 409.749L264.329 409.232L265.742 408.793L267.155 408.196L268.567 407.42L269.98 406.433L271.392 405.183L272.805 403.584L274.218 401.527L275.63 398.892L277.043 395.57L278.455 391.476L279.868 386.566L281.281 380.837L284.106 367.217L288.344 343.787L291.169 328.444L293.994 315.241L295.407 309.938L296.819 305.697L298.232 302.624L299.645 300.795L301.057 300.243L302.47 300.941L303.882 302.804L305.295 305.706L306.708 309.473L309.533 318.6L315.183 337.467L318.009 346.347L320.834 354.197L323.659 360.896L325.072 363.772L326.484 366.202L327.897 368.135L329.31 369.649L334.96 374.78L336.373 375.867L337.785 376.617L339.198 376.972L340.61 376.976L344.848 376.309L346.261 376.369L347.674 376.692L350.499 377.919L353.324 379.525L356.149 381.595L358.974 384.302L363.212 388.463L375.926 399.536L378.751 401.415L387.227 406.292L390.052 407.35L394.29 408.246L398.528 408.908L402.766 409.215L409.829 409.511L416.892 409.84L426.78 409.927L453.62 410.049L517.187 410.093L531.314 410.112" stroke="#EFEFEF" stroke-linecap="square"/>
</g>
<mask id="mask5_230_9438" style="mask-type:luminance" maskUnits="userSpaceOnUse" x="76" y="55" width="477" height="356">
<path d="M552.957 55.2959H76.7969V410.112H552.957V55.2959Z" fill="white"/>
</mask>
<g mask="url(#mask5_230_9438)">
<path d="M266.945 410.111L275.606 409.979L286.74 409.154L290.452 408.554L292.926 407.569L296.638 406.097L297.875 405.301L300.349 403.29L304.061 400.901L305.298 399.488L306.535 397.502L311.484 388.133L313.959 384.58L315.196 382.093L316.433 378.515L318.907 369.31L321.382 359.277L322.619 352.299L323.856 342.973L326.331 320.368L330.042 284.154L333.754 243.777L334.991 232.681L336.228 225.345L337.465 222.41L338.702 223.372L339.94 227.66L341.177 234.876L342.414 244.471L343.651 256.105L349.837 321.034L351.074 331.575L352.312 339.979L356.023 358.836L358.497 371.231L359.735 376.328L360.972 380.752L362.209 384.606L363.446 387.899L364.683 390.651L367.158 395.163L369.632 398.958L372.107 401.826L373.344 402.934L378.293 406.427L379.53 407.088L380.767 407.537L383.241 407.936L385.716 408.251L389.427 409.316L391.902 409.421L395.613 409.365L400.562 409.759L405.511 409.893L410.46 410.089L431.492 409.971L438.915 410.112L513.146 410.111" fill="#EFEFEF" fill-opacity="0.4"/>
<path d="M266.945 410.111L275.606 409.979L286.74 409.154L290.452 408.554L292.926 407.569L296.638 406.097L297.875 405.301L300.349 403.29L304.061 400.901L305.298 399.488L306.535 397.502L311.484 388.133L313.959 384.58L315.196 382.093L316.433 378.515L318.907 369.31L321.382 359.277L322.619 352.299L323.856 342.973L326.331 320.368L330.042 284.154L333.754 243.777L334.991 232.681L336.228 225.345L337.465 222.41L338.702 223.372L339.94 227.66L341.177 234.876L342.414 244.471L343.651 256.105L349.837 321.034L351.074 331.575L352.312 339.979L356.023 358.836L358.497 371.231L359.735 376.328L360.972 380.752L362.209 384.606L363.446 387.899L364.683 390.651L367.158 395.163L369.632 398.958L372.107 401.826L373.344 402.934L378.293 406.427L379.53 407.088L380.767 407.537L383.241 407.936L385.716 408.251L389.427 409.316L391.902 409.421L395.613 409.365L400.562 409.759L405.511 409.893L410.46 410.089L431.492 409.971L438.915 410.112L513.146 410.111" stroke="#EFEFEF" stroke-linecap="square"/>
</g>
<mask id="mask6_230_9438" style="mask-type:luminance" maskUnits="userSpaceOnUse" x="76" y="55" width="477" height="356">
<path d="M552.957 55.2959H76.7969V410.112H552.957V55.2959Z" fill="white"/>
</mask>
<g mask="url(#mask6_230_9438)">
<path d="M267.766 410.11L272.969 409.965L276.092 409.566L280.255 408.786L282.336 408.124L284.418 407.062L287.54 404.85L290.663 402.686L294.826 399.925L296.907 398.213L300.029 395.114L305.233 389.824L307.315 387.154L314.6 376.523L316.682 372.279L318.763 367.664L319.804 365.692L320.845 364.138L321.886 363.04L322.926 362.355L323.967 361.994L326.049 361.823L328.13 361.724L330.212 361.181L332.293 360.058L333.334 359.23L334.375 358.157L335.416 356.774L336.456 355.032L338.538 350.545L340.619 345.08L342.701 338.33L343.742 334.097L345.823 323.466L348.946 303.782L351.027 291.038L353.109 280.712L354.149 276.838L355.19 274.089L356.231 272.729L357.272 272.984L358.313 274.95L359.353 278.544L360.394 283.553L362.476 296.747L365.598 320.491L368.72 343.853L370.802 357.995L372.883 370.578L374.965 381.374L377.046 389.986L378.087 393.373L379.128 396.194L380.169 398.529L381.209 400.46L382.25 402.055L384.332 404.451L386.413 406.078L388.495 407.135L390.576 407.768L396.821 409.123L399.943 409.362L404.106 409.538L409.31 409.855L471.756 410.106L474.879 410.112" fill="#EFEFEF" fill-opacity="0.4"/>
<path d="M267.766 410.11L272.969 409.965L276.092 409.566L280.255 408.786L282.336 408.124L284.418 407.062L287.54 404.85L290.663 402.686L294.826 399.925L296.907 398.213L300.029 395.114L305.233 389.824L307.315 387.154L314.6 376.523L316.682 372.279L318.763 367.664L319.804 365.692L320.845 364.138L321.886 363.04L322.926 362.355L323.967 361.994L326.049 361.823L328.13 361.724L330.212 361.181L332.293 360.058L333.334 359.23L334.375 358.157L335.416 356.774L336.456 355.032L338.538 350.545L340.619 345.08L342.701 338.33L343.742 334.097L345.823 323.466L348.946 303.782L351.027 291.038L353.109 280.712L354.149 276.838L355.19 274.089L356.231 272.729L357.272 272.984L358.313 274.95L359.353 278.544L360.394 283.553L362.476 296.747L365.598 320.491L368.72 343.853L370.802 357.995L372.883 370.578L374.965 381.374L377.046 389.986L378.087 393.373L379.128 396.194L380.169 398.529L381.209 400.46L382.25 402.055L384.332 404.451L386.413 406.078L388.495 407.135L390.576 407.768L396.821 409.123L399.943 409.362L404.106 409.538L409.31 409.855L471.756 410.106L474.879 410.112" stroke="#EFEFEF" stroke-linecap="square"/>
</g>
<mask id="mask7_230_9438" style="mask-type:luminance" maskUnits="userSpaceOnUse" x="76" y="55" width="477" height="356">
<path d="M552.957 55.2959H76.7969V410.112H552.957V55.2959Z" fill="white"/>
</mask>
<g mask="url(#mask7_230_9438)">
<path d="M252.359 410.112L263.301 410L266.948 409.742L271.811 409.088L274.243 408.437L276.674 407.292L279.106 405.64L280.322 404.59L281.537 403.294L282.753 401.652L283.969 399.581L285.185 397.06L287.616 390.877L291.263 380.071L294.911 368.253L299.774 351.832L308.284 326.27L309.5 323.757L310.715 321.886L311.931 320.513L313.147 319.452L314.363 318.61L315.578 318.062L316.794 317.978L318.01 318.471L319.226 319.489L322.873 323.706L327.736 329.488L330.168 332.327L333.815 336.345L335.031 338.068L337.462 342.278L341.109 348.829L343.541 352.507L352.051 363.998L354.483 368.309L358.13 375.229L360.561 378.931L362.993 382.576L370.287 394.404L372.719 397.301L375.15 399.504L378.798 402.131L382.445 404.563L384.876 405.851L387.308 406.652L393.387 407.877L397.034 408.474L400.681 408.825L420.133 409.845L427.428 409.817L434.722 410.023L446.88 410.058L479.705 410.103L494.294 410.112" fill="#EFEFEF" fill-opacity="0.4"/>
<path d="M252.359 410.112L263.301 410L266.948 409.742L271.811 409.088L274.243 408.437L276.674 407.292L279.106 405.64L280.322 404.59L281.537 403.294L282.753 401.652L283.969 399.581L285.185 397.06L287.616 390.877L291.263 380.071L294.911 368.253L299.774 351.832L308.284 326.27L309.5 323.757L310.715 321.886L311.931 320.513L313.147 319.452L314.363 318.61L315.578 318.062L316.794 317.978L318.01 318.471L319.226 319.489L322.873 323.706L327.736 329.488L330.168 332.327L333.815 336.345L335.031 338.068L337.462 342.278L341.109 348.829L343.541 352.507L352.051 363.998L354.483 368.309L358.13 375.229L360.561 378.931L362.993 382.576L370.287 394.404L372.719 397.301L375.15 399.504L378.798 402.131L382.445 404.563L384.876 405.851L387.308 406.652L393.387 407.877L397.034 408.474L400.681 408.825L420.133 409.845L427.428 409.817L434.722 410.023L446.88 410.058L479.705 410.103L494.294 410.112" stroke="#EFEFEF" stroke-linecap="square"/>
</g>
<mask id="mask8_230_9438" style="mask-type:luminance" maskUnits="userSpaceOnUse" x="76" y="55" width="477" height="356">
<path d="M552.957 55.2959H76.7969V410.112H552.957V55.2959Z" fill="white"/>
</mask>
<g mask="url(#mask8_230_9438)">
<path d="M279.484 410.11L282.077 409.943L283.805 409.772L289.854 409.74L296.766 409.037L298.495 408.806L300.223 408.254L301.951 408.089L303.679 407.892L305.407 407.534L306.272 407.037L307.136 406.363L308 406.154L309.728 406.928L310.592 406.844L311.456 406.381L312.32 405.448L313.184 403.812L314.913 399.224L315.777 396.261L316.641 392.102L318.369 380.55L319.233 373.441L320.097 364.295L320.961 352.223L321.825 336.95L322.689 318.152L324.418 271.647L327.874 168.184L328.738 148.245L330.466 119.61L331.331 108.515L332.195 102.451L333.059 105.014L333.923 116.203L335.651 149.333L342.564 306.25L344.292 334.765L346.02 357.374L347.748 374.795L348.613 381.478L349.477 386.903L350.341 391.301L351.205 394.796L352.069 397.287L353.797 400.679L355.525 403.181L357.254 405.615L358.118 406.477L358.982 406.927L361.574 407.816L363.302 408.643L365.03 408.813L366.759 408.86L369.351 408.657L371.079 409.121L372.807 409.642L376.264 409.779L380.584 409.845L384.041 409.94L387.497 409.697L390.089 409.779L391.818 409.719L397.866 409.982L403.051 410.044L409.1 409.989L411.692 409.94L416.877 410.094L420.333 409.888L422.925 410.099L425.518 409.984L428.11 409.836L434.159 410.071L436.751 409.955L440.207 410.111L446.256 410.008L447.984 409.96L451.441 410.11" fill="#EFEFEF" fill-opacity="0.4"/>
<path d="M279.484 410.11L282.077 409.943L283.805 409.772L289.854 409.74L296.766 409.037L298.495 408.806L300.223 408.254L301.951 408.089L303.679 407.892L305.407 407.534L306.272 407.037L307.136 406.363L308 406.154L309.728 406.928L310.592 406.844L311.456 406.381L312.32 405.448L313.184 403.812L314.913 399.224L315.777 396.261L316.641 392.102L318.369 380.55L319.233 373.441L320.097 364.295L320.961 352.223L321.825 336.95L322.689 318.152L324.418 271.647L327.874 168.184L328.738 148.245L330.466 119.61L331.331 108.515L332.195 102.451L333.059 105.014L333.923 116.203L335.651 149.333L342.564 306.25L344.292 334.765L346.02 357.374L347.748 374.795L348.613 381.478L349.477 386.903L350.341 391.301L351.205 394.796L352.069 397.287L353.797 400.679L355.525 403.181L357.254 405.615L358.118 406.477L358.982 406.927L361.574 407.816L363.302 408.643L365.03 408.813L366.759 408.86L369.351 408.657L371.079 409.121L372.807 409.642L376.264 409.779L380.584 409.845L384.041 409.94L387.497 409.697L390.089 409.779L391.818 409.719L397.866 409.982L403.051 410.044L409.1 409.989L411.692 409.94L416.877 410.094L420.333 409.888L422.925 410.099L425.518 409.984L428.11 409.836L434.159 410.071L436.751 409.955L440.207 410.111L446.256 410.008L447.984 409.96L451.441 410.11" stroke="#EFEFEF" stroke-linecap="square"/>
</g>
<mask id="mask9_230_9438" style="mask-type:luminance" maskUnits="userSpaceOnUse" x="76" y="55" width="477" height="356">
<path d="M552.957 55.2959H76.7969V410.112H552.957V55.2959Z" fill="white"/>
</mask>
<g mask="url(#mask9_230_9438)">
<path d="M247.898 410.111L259.18 409.958L262.565 409.713L264.821 409.271L267.078 408.334L268.206 407.611L269.334 406.689L270.462 405.541L271.59 404.135L272.718 402.448L274.975 398.273L277.231 393.29L279.488 387.758L281.744 381.638L284 374.523L287.385 361.987L289.641 353.932L293.026 343.232L297.538 330.056L303.179 313.723L304.308 311.438L305.436 309.867L306.564 309.051L307.692 308.96L308.82 309.509L309.948 310.571L312.205 313.585L314.461 316.669L316.718 318.998L318.974 320.923L320.102 322.073L321.23 323.505L323.487 327.251L327.999 336.014L330.256 340.744L332.512 346.173L334.768 352.596L338.153 362.899L340.409 368.614L342.666 373.392L344.922 377.535L347.178 380.981L350.563 385.461L353.948 389.522L359.588 395.76L360.717 396.664L362.973 397.927L366.358 399.525L368.614 401.052L371.998 403.564L374.255 404.923L376.511 405.989L378.768 406.707L381.024 407.09L386.665 407.895L393.434 408.891L397.947 409.418L403.588 409.603L438.561 410.097L456.612 410.097L472.407 410.111" fill="#EFEFEF" fill-opacity="0.4"/>
<path d="M247.898 410.111L259.18 409.958L262.565 409.713L264.821 409.271L267.078 408.334L268.206 407.611L269.334 406.689L270.462 405.541L271.59 404.135L272.718 402.448L274.975 398.273L277.231 393.29L279.488 387.758L281.744 381.638L284 374.523L287.385 361.987L289.641 353.932L293.026 343.232L297.538 330.056L303.179 313.723L304.308 311.438L305.436 309.867L306.564 309.051L307.692 308.96L308.82 309.509L309.948 310.571L312.205 313.585L314.461 316.669L316.718 318.998L318.974 320.923L320.102 322.073L321.23 323.505L323.487 327.251L327.999 336.014L330.256 340.744L332.512 346.173L334.768 352.596L338.153 362.899L340.409 368.614L342.666 373.392L344.922 377.535L347.178 380.981L350.563 385.461L353.948 389.522L359.588 395.76L360.717 396.664L362.973 397.927L366.358 399.525L368.614 401.052L371.998 403.564L374.255 404.923L376.511 405.989L378.768 406.707L381.024 407.09L386.665 407.895L393.434 408.891L397.947 409.418L403.588 409.603L438.561 410.097L456.612 410.097L472.407 410.111" stroke="#EFEFEF" stroke-linecap="square"/>
</g>
<mask id="mask10_230_9438" style="mask-type:luminance" maskUnits="userSpaceOnUse" x="76" y="55" width="477" height="356">
<path d="M552.957 55.2959H76.7969V410.112H552.957V55.2959Z" fill="white"/>
</mask>
<g mask="url(#mask10_230_9438)">
<path d="M247.523 410.111L259.524 409.963L262.191 409.797L263.525 409.601L264.858 409.249L266.191 408.672L267.525 407.809L268.858 406.61L270.192 405.024L271.525 402.98L272.859 400.367L274.192 397.015L275.525 392.681L276.859 387.058L278.192 379.799L279.526 370.57L280.859 359.104L282.192 345.273L283.526 329.18L288.86 257.891L290.193 245.063L291.526 236.453L292.86 232.278L294.193 232.457L295.527 236.783L296.86 244.767L298.194 255.424L302.194 290.448L304.861 309.74L307.528 326.591L310.194 341.334L312.861 353.369L315.528 363.532L318.195 372.267L319.528 375.827L320.862 378.735L322.195 381.069L323.529 382.993L324.862 384.635L326.195 386.034L328.862 388.192L331.529 390.158L335.529 393.211L336.863 393.958L339.53 394.96L343.53 395.97L347.53 397.312L352.864 398.256L358.198 400.286L360.865 401.207L367.532 404.107L371.532 405.195L375.532 406.406L379.532 407.15L384.866 407.804L391.533 408.635L396.867 409.225L402.201 409.566L427.536 409.932L512.875 410.111" fill="#EFEFEF" fill-opacity="0.4"/>
<path d="M247.523 410.111L259.524 409.963L262.191 409.797L263.525 409.601L264.858 409.249L266.191 408.672L267.525 407.809L268.858 406.61L270.192 405.024L271.525 402.98L272.859 400.367L274.192 397.015L275.525 392.681L276.859 387.058L278.192 379.799L279.526 370.57L280.859 359.104L282.192 345.273L283.526 329.18L288.86 257.891L290.193 245.063L291.526 236.453L292.86 232.278L294.193 232.457L295.527 236.783L296.86 244.767L298.194 255.424L302.194 290.448L304.861 309.74L307.528 326.591L310.194 341.334L312.861 353.369L315.528 363.532L318.195 372.267L319.528 375.827L320.862 378.735L322.195 381.069L323.529 382.993L324.862 384.635L326.195 386.034L328.862 388.192L331.529 390.158L335.529 393.211L336.863 393.958L339.53 394.96L343.53 395.97L347.53 397.312L352.864 398.256L358.198 400.286L360.865 401.207L367.532 404.107L371.532 405.195L375.532 406.406L379.532 407.15L384.866 407.804L391.533 408.635L396.867 409.225L402.201 409.566L427.536 409.932L512.875 410.111" stroke="#EFEFEF" stroke-linecap="square"/>
</g>
<mask id="mask11_230_9438" style="mask-type:luminance" maskUnits="userSpaceOnUse" x="76" y="55" width="477" height="356">
<path d="M552.957 55.2959H76.7969V410.112H552.957V55.2959Z" fill="white"/>
</mask>
<g mask="url(#mask11_230_9438)">
<path d="M253.984 410.112L269 409.987L272.754 409.67L276.508 408.988L279.011 408.244L280.263 407.666L281.514 406.896L282.765 405.915L284.017 404.693L285.268 403.162L286.519 401.199L287.771 398.666L289.022 395.467L290.273 391.59L292.776 382.06L295.279 370.877L299.033 352.458L304.038 327.067L306.541 316.098L307.792 311.432L309.043 307.7L310.295 305.156L311.546 303.832L312.797 303.523L314.049 303.908L315.3 304.728L316.551 305.916L317.803 307.557L319.054 309.72L321.557 315.145L327.813 329.599L332.819 342.063L334.07 344.484L340.327 354.574L342.83 358.354L346.584 363.345L347.835 364.756L350.338 366.871L351.589 367.881L352.84 369.15L354.092 370.751L356.594 374.604L361.6 382.517L369.108 393.086L372.862 398.873L374.113 400.403L375.364 401.637L376.616 402.609L379.118 404.036L382.872 405.651L385.375 406.486L392.883 408.352L396.637 408.983L401.643 409.512L405.397 409.608L409.151 409.614L419.161 410.015L467.964 410.078L503.001 410.112" fill="#EFEFEF" fill-opacity="0.4"/>
<path d="M253.984 410.112L269 409.987L272.754 409.67L276.508 408.988L279.011 408.244L280.263 407.666L281.514 406.896L282.765 405.915L284.017 404.693L285.268 403.162L286.519 401.199L287.771 398.666L289.022 395.467L290.273 391.59L292.776 382.06L295.279 370.877L299.033 352.458L304.038 327.067L306.541 316.098L307.792 311.432L309.043 307.7L310.295 305.156L311.546 303.832L312.797 303.523L314.049 303.908L315.3 304.728L316.551 305.916L317.803 307.557L319.054 309.72L321.557 315.145L327.813 329.599L332.819 342.063L334.07 344.484L340.327 354.574L342.83 358.354L346.584 363.345L347.835 364.756L350.338 366.871L351.589 367.881L352.84 369.15L354.092 370.751L356.594 374.604L361.6 382.517L369.108 393.086L372.862 398.873L374.113 400.403L375.364 401.637L376.616 402.609L379.118 404.036L382.872 405.651L385.375 406.486L392.883 408.352L396.637 408.983L401.643 409.512L405.397 409.608L409.151 409.614L419.161 410.015L467.964 410.078L503.001 410.112" stroke="#EFEFEF" stroke-linecap="square"/>
</g>
<mask id="mask12_230_9438" style="mask-type:luminance" maskUnits="userSpaceOnUse" x="76" y="55" width="477" height="356">
<path d="M552.957 55.2959H76.7969V410.112H552.957V55.2959Z" fill="white"/>
</mask>
<g mask="url(#mask12_230_9438)">
<path d="M273.836 410.111L284.816 410.019L295.796 408.767L299.456 408.027L300.676 407.965L301.896 408.177L303.116 408.207L306.776 407.125L307.996 406.667L309.216 405.889L314.096 401.324L315.316 399.876L316.536 398.106L317.756 395.246L318.976 390.377L320.196 383.732L321.416 375.921L322.636 366.579L323.856 355.126L326.296 327.105L328.736 292.454L332.396 237.305L333.616 224.332L336.056 203.539L337.275 195.302L338.495 191.452L339.715 191.957L340.935 196.749L342.155 204.464L343.375 214.597L344.595 229.343L347.035 268.068L348.255 284.252L350.695 310.638L353.135 335.935L354.355 349.396L355.575 360.885L358.015 378.993L359.235 386.197L360.455 391.451L361.675 395.308L362.895 398.311L364.115 400.666L365.335 402.46L370.215 407.14L372.655 408.476L373.875 408.801L378.755 409.167L381.195 409.715L386.075 409.845L389.735 409.757L393.395 409.763L397.055 409.967L405.595 409.908L408.035 410.047L417.795 409.951L423.895 410.075L428.775 410.042L448.295 410.112L516.614 410.111" fill="#EFEFEF" fill-opacity="0.4"/>
<path d="M273.836 410.111L284.816 410.019L295.796 408.767L299.456 408.027L300.676 407.965L301.896 408.177L303.116 408.207L306.776 407.125L307.996 406.667L309.216 405.889L314.096 401.324L315.316 399.876L316.536 398.106L317.756 395.246L318.976 390.377L320.196 383.732L321.416 375.921L322.636 366.579L323.856 355.126L326.296 327.105L328.736 292.454L332.396 237.305L333.616 224.332L336.056 203.539L337.275 195.302L338.495 191.452L339.715 191.957L340.935 196.749L342.155 204.464L343.375 214.597L344.595 229.343L347.035 268.068L348.255 284.252L350.695 310.638L353.135 335.935L354.355 349.396L355.575 360.885L358.015 378.993L359.235 386.197L360.455 391.451L361.675 395.308L362.895 398.311L364.115 400.666L365.335 402.46L370.215 407.14L372.655 408.476L373.875 408.801L378.755 409.167L381.195 409.715L386.075 409.845L389.735 409.757L393.395 409.763L397.055 409.967L405.595 409.908L408.035 410.047L417.795 409.951L423.895 410.075L428.775 410.042L448.295 410.112L516.614 410.111" stroke="#EFEFEF" stroke-linecap="square"/>
</g>
<mask id="mask13_230_9438" style="mask-type:luminance" maskUnits="userSpaceOnUse" x="76" y="55" width="477" height="356">
<path d="M552.957 55.2959H76.7969V410.112H552.957V55.2959Z" fill="white"/>
</mask>
<g mask="url(#mask13_230_9438)">
<path d="M261.992 410.112L274.273 409.986L278.738 409.772L282.088 409.394L285.437 408.713L287.67 407.905L289.902 406.713L292.135 405.095L294.368 403L297.717 399.188L299.95 396.186L302.183 392.508L305.532 385.964L311.114 374.298L313.347 369.261L318.929 355.738L321.162 351.797L323.395 347.91L328.977 337.215L331.21 333.375L335.675 324.635L336.792 322.959L337.908 321.653L340.141 319.791L342.374 318.5L344.607 317.744L346.84 317.366L347.956 317.493L349.072 318.106L350.189 319.368L351.305 321.266L356.887 333.067L359.12 336.7L361.353 340.006L362.469 341.9L363.586 344.128L365.819 349.544L376.983 379.195L379.215 384.386L381.448 389.063L384.798 395.23L387.03 398.865L389.263 402.001L391.496 404.385L393.729 405.948L395.962 406.929L400.427 408.328L403.777 409.168L407.126 409.63L410.475 409.701L416.057 409.779L429.454 410.084L461.83 410.088L484.158 410.112" fill="#EFEFEF" fill-opacity="0.4"/>
<path d="M261.992 410.112L274.273 409.986L278.738 409.772L282.088 409.394L285.437 408.713L287.67 407.905L289.902 406.713L292.135 405.095L294.368 403L297.717 399.188L299.95 396.186L302.183 392.508L305.532 385.964L311.114 374.298L313.347 369.261L318.929 355.738L321.162 351.797L323.395 347.91L328.977 337.215L331.21 333.375L335.675 324.635L336.792 322.959L337.908 321.653L340.141 319.791L342.374 318.5L344.607 317.744L346.84 317.366L347.956 317.493L349.072 318.106L350.189 319.368L351.305 321.266L356.887 333.067L359.12 336.7L361.353 340.006L362.469 341.9L363.586 344.128L365.819 349.544L376.983 379.195L379.215 384.386L381.448 389.063L384.798 395.23L387.03 398.865L389.263 402.001L391.496 404.385L393.729 405.948L395.962 406.929L400.427 408.328L403.777 409.168L407.126 409.63L410.475 409.701L416.057 409.779L429.454 410.084L461.83 410.088L484.158 410.112" stroke="#EFEFEF" stroke-linecap="square"/>
</g>
<mask id="mask14_230_9438" style="mask-type:luminance" maskUnits="userSpaceOnUse" x="76" y="55" width="477" height="356">
<path d="M552.957 55.2959H76.7969V410.112H552.957V55.2959Z" fill="white"/>
</mask>
<g mask="url(#mask14_230_9438)">
<path d="M98.4375 410.112L221.641 409.973L227.416 409.61L231.266 409.017L233.191 408.473L235.116 407.689L237.041 406.629L238.966 405.268L240.891 403.586L242.816 401.588L244.741 399.317L246.666 396.805L248.591 393.985L250.516 390.713L252.442 386.872L254.367 382.456L258.217 372.237L267.842 344.602L269.767 340.13L271.692 336.485L273.617 333.744L275.542 331.891L277.467 330.835L279.392 330.384L281.317 330.282L283.242 330.348L285.167 330.566L287.092 331.059L289.018 332.026L290.943 333.629L294.793 338.184L302.493 347.291L308.268 355.637L314.043 363.427L319.818 371.853L323.668 376.745L327.518 380.834L331.369 384.321L335.219 387.233L342.919 392.588L346.769 395.1L352.544 399.231L356.394 401.454L360.244 403.412L364.094 405.035L369.87 406.894L375.645 408.46L379.495 409.104L385.27 409.625L391.045 409.748L400.67 409.821L414.146 409.958L423.771 409.953L439.171 410.082L464.197 410.097L481.523 410.112" fill="#7EB0D5" fill-opacity="0.4"/>
<path d="M98.4375 410.112L221.641 409.973L227.416 409.61L231.266 409.017L233.191 408.473L235.116 407.689L237.041 406.629L238.966 405.268L240.891 403.586L242.816 401.588L244.741 399.317L246.666 396.805L248.591 393.985L250.516 390.713L252.442 386.872L254.367 382.456L258.217 372.237L267.842 344.602L269.767 340.13L271.692 336.485L273.617 333.744L275.542 331.891L277.467 330.835L279.392 330.384L281.317 330.282L283.242 330.348L285.167 330.566L287.092 331.059L289.018 332.026L290.943 333.629L294.793 338.184L302.493 347.291L308.268 355.637L314.043 363.427L319.818 371.853L323.668 376.745L327.518 380.834L331.369 384.321L335.219 387.233L342.919 392.588L346.769 395.1L352.544 399.231L356.394 401.454L360.244 403.412L364.094 405.035L369.87 406.894L375.645 408.46L379.495 409.104L385.27 409.625L391.045 409.748L400.67 409.821L414.146 409.958L423.771 409.953L439.171 410.082L464.197 410.097L481.523 410.112" stroke="#7EB0D5" stroke-linecap="square"/>
</g>
<path d="M535.061 411.061C535.646 410.475 535.646 409.525 535.061 408.939L525.515 399.393C524.929 398.808 523.979 398.808 523.393 399.393C522.808 399.979 522.808 400.929 523.393 401.515L531.879 410L523.393 418.485C522.808 419.071 522.808 420.021 523.393 420.607C523.979 421.192 524.929 421.192 525.515 420.607L535.061 411.061ZM79 411.5H534V408.5H79V411.5Z" fill="black"/>
</svg>
