<svg width="615" height="461" viewBox="0 0 615 461" fill="none" xmlns="http://www.w3.org/2000/svg">
<g clip-path="url(#clip0_230_9198)">
<mask id="mask0_230_9198" style="mask-type:luminance" maskUnits="userSpaceOnUse" x="76" y="55" width="477" height="356">
<path d="M552.957 55.2959H76.7969V410.112H552.957V55.2959Z" fill="white"/>
</mask>
<g mask="url(#mask0_230_9198)">
<path d="M330.414 410.111L333.672 409.962L336.116 409.969L343.446 410.009L345.89 409.879L348.333 409.631L352.406 409.758L358.107 408.265L362.18 406.635L362.994 406.715L364.623 407.34L365.438 407.35L367.067 406.715L369.51 405.545L370.325 404.913L371.139 403.93L373.583 400.021L374.397 398.3L375.212 395.613L376.026 391.75L377.655 381.373L378.47 374.782L379.284 366.723L380.913 346.186L381.728 333.461L382.542 318.02L384.171 278.308L389.058 141.483L390.687 106.64L391.502 92.5246L392.316 81.1778L393.131 74.0032L393.945 72.1924L394.76 75.4553L395.574 82.7827L396.389 93.8147L397.203 108.944L398.832 149.393L402.09 238.422L403.719 274.51L405.349 307.347L406.163 321.601L406.978 333.076L408.607 349.54L410.236 362.198L411.865 371.964L413.494 379.817L415.937 388.794L417.566 393.513L420.01 398.867L420.824 400.095L421.639 400.703L423.268 400.99L424.082 401.399L427.34 404.144L428.969 405.176L429.784 405.445L431.413 405.762L433.856 407.268L439.558 408.253L442.816 408.273L446.074 409.105L448.517 409.362L451.775 409.847L455.848 409.637L460.735 409.846L477.839 410.112L492.5 410.111" fill="#EFEFEF" fill-opacity="0.4"/>
<path d="M330.414 410.111L333.672 409.962L336.116 409.969L343.446 410.009L345.89 409.879L348.333 409.631L352.406 409.758L358.107 408.265L362.18 406.635L362.994 406.715L364.623 407.34L365.438 407.35L367.067 406.715L369.51 405.545L370.325 404.913L371.139 403.93L373.583 400.021L374.397 398.3L375.212 395.613L376.026 391.75L377.655 381.373L378.47 374.782L379.284 366.723L380.913 346.186L381.728 333.461L382.542 318.02L384.171 278.308L389.058 141.483L390.687 106.64L391.502 92.5246L392.316 81.1778L393.131 74.0032L393.945 72.1924L394.76 75.4553L395.574 82.7827L396.389 93.8147L397.203 108.944L398.832 149.393L402.09 238.422L403.719 274.51L405.349 307.347L406.163 321.601L406.978 333.076L408.607 349.54L410.236 362.198L411.865 371.964L413.494 379.817L415.937 388.794L417.566 393.513L420.01 398.867L420.824 400.095L421.639 400.703L423.268 400.99L424.082 401.399L427.34 404.144L428.969 405.176L429.784 405.445L431.413 405.762L433.856 407.268L439.558 408.253L442.816 408.273L446.074 409.105L448.517 409.362L451.775 409.847L455.848 409.637L460.735 409.846L477.839 410.112L492.5 410.111" stroke="#EFEFEF" stroke-linecap="square"/>
</g>
<mask id="mask1_230_9198" style="mask-type:luminance" maskUnits="userSpaceOnUse" x="76" y="55" width="477" height="356">
<path d="M552.957 55.2959H76.7969V410.112H552.957V55.2959Z" fill="white"/>
</mask>
<g mask="url(#mask1_230_9198)">
<path d="M326.75 410.111L350.553 409.912L356.046 409.5L359.708 408.93L361.539 408.556L363.37 408.556L367.948 408.963L369.779 408.883L374.356 408.184L377.103 407.467L378.934 407.175L379.849 406.837L381.68 405.612L383.511 403.805L384.427 402.519L385.342 400.804L386.258 398.563L387.173 395.739L388.089 392.282L389.004 388.088L389.92 382.963L390.835 376.65L391.751 368.94L393.582 349.524L396.328 315.593L399.075 276.015L400.906 251.141L402.737 231.098L403.652 223.083L404.568 216.612L405.483 211.692L406.399 208.292L407.314 206.469L408.23 206.189L409.145 207.065L410.976 209.946L411.892 211.769L412.807 214.716L413.723 219.517L415.554 233.698L417.385 247.867L422.878 286.159L426.54 314.55L428.371 325.891L431.117 338.909L437.526 369.959L439.357 376.936L441.188 382.436L443.019 386.684L448.512 398.088L449.428 399.665L450.343 400.94L452.174 402.711L456.752 406.075L458.583 406.795L468.653 409.684L476.893 410.064L508.935 410.111" fill="#EFEFEF" fill-opacity="0.4"/>
<path d="M326.75 410.111L350.553 409.912L356.046 409.5L359.708 408.93L361.539 408.556L363.37 408.556L367.948 408.963L369.779 408.883L374.356 408.184L377.103 407.467L378.934 407.175L379.849 406.837L381.68 405.612L383.511 403.805L384.427 402.519L385.342 400.804L386.258 398.563L387.173 395.739L388.089 392.282L389.004 388.088L389.92 382.963L390.835 376.65L391.751 368.94L393.582 349.524L396.328 315.593L399.075 276.015L400.906 251.141L402.737 231.098L403.652 223.083L404.568 216.612L405.483 211.692L406.399 208.292L407.314 206.469L408.23 206.189L409.145 207.065L410.976 209.946L411.892 211.769L412.807 214.716L413.723 219.517L415.554 233.698L417.385 247.867L422.878 286.159L426.54 314.55L428.371 325.891L431.117 338.909L437.526 369.959L439.357 376.936L441.188 382.436L443.019 386.684L448.512 398.088L449.428 399.665L450.343 400.94L452.174 402.711L456.752 406.075L458.583 406.795L468.653 409.684L476.893 410.064L508.935 410.111" stroke="#EFEFEF" stroke-linecap="square"/>
</g>
<mask id="mask2_230_9198" style="mask-type:luminance" maskUnits="userSpaceOnUse" x="76" y="55" width="477" height="356">
<path d="M552.957 55.2959H76.7969V410.112H552.957V55.2959Z" fill="white"/>
</mask>
<g mask="url(#mask2_230_9198)">
<path d="M319.953 410.112L332.461 409.976L335.588 409.761L337.673 409.349L343.927 407.556L344.969 407.061L346.012 406.381L347.054 405.498L349.139 403.118L351.223 399.839L353.308 395.624L355.393 390.563L357.477 384.62L359.562 377.755L361.647 369.794L363.731 359.666L365.816 347.608L367.901 333.775L372.07 304.066L374.155 292.669L377.282 276.689L378.324 272.157L382.493 257.592L383.536 254.099L384.578 251.8L385.62 251.188L386.663 252.174L387.705 254.232L389.79 258.953L392.917 265.032L393.959 268.043L396.044 276.107L401.255 298.994L406.467 324.915L412.721 357.96L415.848 371.986L416.89 376.095L417.933 379.554L418.975 382.353L421.06 386.852L424.187 392.969L426.271 395.977L428.356 398.618L431.483 402.911L433.568 405.004L435.652 406.379L437.737 407.059L440.864 407.733L446.076 409.232L449.203 409.58L462.753 410.05L474.219 410.06L485.685 410.079L497.15 410.112L527.378 410.112" fill="#EFEFEF" fill-opacity="0.4"/>
<path d="M319.953 410.112L332.461 409.976L335.588 409.761L337.673 409.349L343.927 407.556L344.969 407.061L346.012 406.381L347.054 405.498L349.139 403.118L351.223 399.839L353.308 395.624L355.393 390.563L357.477 384.62L359.562 377.755L361.647 369.794L363.731 359.666L365.816 347.608L367.901 333.775L372.07 304.066L374.155 292.669L377.282 276.689L378.324 272.157L382.493 257.592L383.536 254.099L384.578 251.8L385.62 251.188L386.663 252.174L387.705 254.232L389.79 258.953L392.917 265.032L393.959 268.043L396.044 276.107L401.255 298.994L406.467 324.915L412.721 357.96L415.848 371.986L416.89 376.095L417.933 379.554L418.975 382.353L421.06 386.852L424.187 392.969L426.271 395.977L428.356 398.618L431.483 402.911L433.568 405.004L435.652 406.379L437.737 407.059L440.864 407.733L446.076 409.232L449.203 409.58L462.753 410.05L474.219 410.06L485.685 410.079L497.15 410.112L527.378 410.112" stroke="#EFEFEF" stroke-linecap="square"/>
</g>
<mask id="mask3_230_9198" style="mask-type:luminance" maskUnits="userSpaceOnUse" x="76" y="55" width="477" height="356">
<path d="M552.957 55.2959H76.7969V410.112H552.957V55.2959Z" fill="white"/>
</mask>
<g mask="url(#mask3_230_9198)">
<path d="M324.961 410.111L330.742 409.983L334.596 409.549L340.377 408.628L343.268 407.747L348.086 405.902L349.049 405.297L350.013 404.484L350.976 403.42L351.94 402.087L353.867 398.632L355.794 394.313L358.685 386.747L361.575 378.123L364.466 368.241L367.356 357.128L369.283 348.737L373.137 330.903L375.065 323.747L376.992 318.065L379.882 309.655L382.773 300.956L383.736 298.864L384.7 297.451L385.663 296.638L388.554 295.135L389.517 294.222L391.445 291.627L396.262 284.129L397.226 283.412L398.189 283.253L399.153 283.71L400.116 284.803L401.08 286.504L403.007 291.257L405.897 298.831L407.825 302.944L411.679 310.868L413.606 316.044L415.533 322.969L418.423 335.684L421.314 348.266L423.241 355.348L425.168 361.098L429.022 371.573L431.913 380.846L433.84 386.963L435.767 391.987L437.694 395.84L440.585 400.595L442.512 403.215L444.439 405.096L446.366 406.221L448.293 406.864L451.183 407.749L455.038 409.14L456.965 409.455L459.855 409.527L464.673 409.631L471.418 409.901L504.178 410.1L516.703 410.112" fill="#EFEFEF" fill-opacity="0.4"/>
<path d="M324.961 410.111L330.742 409.983L334.596 409.549L340.377 408.628L343.268 407.747L348.086 405.902L349.049 405.297L350.013 404.484L350.976 403.42L351.94 402.087L353.867 398.632L355.794 394.313L358.685 386.747L361.575 378.123L364.466 368.241L367.356 357.128L369.283 348.737L373.137 330.903L375.065 323.747L376.992 318.065L379.882 309.655L382.773 300.956L383.736 298.864L384.7 297.451L385.663 296.638L388.554 295.135L389.517 294.222L391.445 291.627L396.262 284.129L397.226 283.412L398.189 283.253L399.153 283.71L400.116 284.803L401.08 286.504L403.007 291.257L405.897 298.831L407.825 302.944L411.679 310.868L413.606 316.044L415.533 322.969L418.423 335.684L421.314 348.266L423.241 355.348L425.168 361.098L429.022 371.573L431.913 380.846L433.84 386.963L435.767 391.987L437.694 395.84L440.585 400.595L442.512 403.215L444.439 405.096L446.366 406.221L448.293 406.864L451.183 407.749L455.038 409.14L456.965 409.455L459.855 409.527L464.673 409.631L471.418 409.901L504.178 410.1L516.703 410.112" stroke="#EFEFEF" stroke-linecap="square"/>
</g>
<mask id="mask4_230_9198" style="mask-type:luminance" maskUnits="userSpaceOnUse" x="76" y="55" width="477" height="356">
<path d="M552.957 55.2959H76.7969V410.112H552.957V55.2959Z" fill="white"/>
</mask>
<g mask="url(#mask4_230_9198)">
<path d="M305.305 410.111L323.476 409.975L328.019 409.7L330.291 409.361L332.562 408.723L334.834 407.718L337.105 406.386L339.377 404.749L341.648 402.629L342.784 401.273L343.92 399.658L346.191 395.577L348.463 390.394L350.734 384.009L353.006 375.929L355.277 365.875L357.549 354.346L360.956 335.199L363.227 320.696L368.906 282.666L370.042 276.697L371.177 271.764L372.313 267.957L373.449 265.325L374.585 263.907L375.72 263.738L376.856 264.85L377.992 267.246L379.128 270.883L380.263 275.666L381.399 281.449L383.671 295.261L388.214 324.518L390.485 336.094L392.756 345.21L395.028 352.531L397.299 358.273L398.435 360.51L399.571 362.305L400.707 363.674L401.842 364.663L402.978 365.34L404.114 365.78L406.385 366.23L409.792 366.747L412.064 367.417L415.471 368.545L418.878 369.262L421.15 369.698L423.421 370.509L425.693 371.891L434.779 378.815L437.05 381.288L439.322 384.431L443.865 391.397L446.136 394.17L448.408 396.33L457.493 403.894L459.765 405.362L462.036 406.492L464.308 407.338L467.715 408.262L471.122 408.905L475.665 409.381L484.751 409.923L509.737 410.038L531.316 410.111" fill="#EFEFEF" fill-opacity="0.4"/>
<path d="M305.305 410.111L323.476 409.975L328.019 409.7L330.291 409.361L332.562 408.723L334.834 407.718L337.105 406.386L339.377 404.749L341.648 402.629L342.784 401.273L343.92 399.658L346.191 395.577L348.463 390.394L350.734 384.009L353.006 375.929L355.277 365.875L357.549 354.346L360.956 335.199L363.227 320.696L368.906 282.666L370.042 276.697L371.177 271.764L372.313 267.957L373.449 265.325L374.585 263.907L375.72 263.738L376.856 264.85L377.992 267.246L379.128 270.883L380.263 275.666L381.399 281.449L383.671 295.261L388.214 324.518L390.485 336.094L392.756 345.21L395.028 352.531L397.299 358.273L398.435 360.51L399.571 362.305L400.707 363.674L401.842 364.663L402.978 365.34L404.114 365.78L406.385 366.23L409.792 366.747L412.064 367.417L415.471 368.545L418.878 369.262L421.15 369.698L423.421 370.509L425.693 371.891L434.779 378.815L437.05 381.288L439.322 384.431L443.865 391.397L446.136 394.17L448.408 396.33L457.493 403.894L459.765 405.362L462.036 406.492L464.308 407.338L467.715 408.262L471.122 408.905L475.665 409.381L484.751 409.923L509.737 410.038L531.316 410.111" stroke="#EFEFEF" stroke-linecap="square"/>
</g>
<mask id="mask5_230_9198" style="mask-type:luminance" maskUnits="userSpaceOnUse" x="76" y="55" width="477" height="356">
<path d="M552.957 55.2959H76.7969V410.112H552.957V55.2959Z" fill="white"/>
</mask>
<g mask="url(#mask5_230_9198)">
<path d="M322.125 410.111L339.767 409.969L351.529 409.05L353.489 408.373L357.409 406.341L358.389 406L360.35 405.794L362.31 405.61L364.27 404.895L366.23 403.926L371.131 400.599L372.111 399.732L373.091 398.499L378.972 389.133L379.952 387.189L380.932 384.645L382.892 377.987L385.833 367.489L387.793 360.412L388.773 355.876L389.753 350.093L390.733 342.91L392.693 325.682L394.654 306.656L396.614 285.037L402.495 211.479L403.475 202.458L404.455 195.601L405.435 190.317L406.415 186.079L407.395 183.243L408.375 182.798L409.355 185.292L410.336 190.249L411.316 196.799L412.296 204.641L413.276 214.077L415.236 237.268L420.137 296.571L422.097 318.015L424.057 336.617L426.017 353.161L426.998 360.369L427.978 366.357L428.958 371.015L431.898 381.731L433.858 388.61L434.839 391.469L435.819 393.807L436.799 395.688L438.759 398.568L440.719 401.175L443.66 405.329L444.64 406.245L446.6 407.518L448.56 408.467L450.52 408.863L454.441 409.185L458.361 409.844L461.302 409.777L463.262 409.832L467.182 410.101L485.805 410.112L517.168 410.111" fill="#EFEFEF" fill-opacity="0.4"/>
<path d="M322.125 410.111L339.767 409.969L351.529 409.05L353.489 408.373L357.409 406.341L358.389 406L360.35 405.794L362.31 405.61L364.27 404.895L366.23 403.926L371.131 400.599L372.111 399.732L373.091 398.499L378.972 389.133L379.952 387.189L380.932 384.645L382.892 377.987L385.833 367.489L387.793 360.412L388.773 355.876L389.753 350.093L390.733 342.91L392.693 325.682L394.654 306.656L396.614 285.037L402.495 211.479L403.475 202.458L404.455 195.601L405.435 190.317L406.415 186.079L407.395 183.243L408.375 182.798L409.355 185.292L410.336 190.249L411.316 196.799L412.296 204.641L413.276 214.077L415.236 237.268L420.137 296.571L422.097 318.015L424.057 336.617L426.017 353.161L426.998 360.369L427.978 366.357L428.958 371.015L431.898 381.731L433.858 388.61L434.839 391.469L435.819 393.807L436.799 395.688L438.759 398.568L440.719 401.175L443.66 405.329L444.64 406.245L446.6 407.518L448.56 408.467L450.52 408.863L454.441 409.185L458.361 409.844L461.302 409.777L463.262 409.832L467.182 410.101L485.805 410.112L517.168 410.111" stroke="#EFEFEF" stroke-linecap="square"/>
</g>
<mask id="mask6_230_9198" style="mask-type:luminance" maskUnits="userSpaceOnUse" x="76" y="55" width="477" height="356">
<path d="M552.957 55.2959H76.7969V410.112H552.957V55.2959Z" fill="white"/>
</mask>
<g mask="url(#mask6_230_9198)">
<path d="M317.266 410.111L324.502 409.982L328.12 409.614L331.738 408.929L334.451 408.157L337.165 407.084L339.878 405.723L342.592 404.087L346.21 401.749L348.019 400.888L350.732 400.057L352.541 399.437L354.35 398.418L356.159 396.89L358.873 393.948L362.491 389.588L365.204 385.744L368.822 380.642L376.058 371.475L376.963 370.789L377.867 370.301L379.676 369.839L381.485 369.904L383.294 370.386L386.008 371.656L389.626 373.399L391.435 373.957L392.339 374.067L393.244 374.024L394.148 373.805L395.053 373.397L395.957 372.795L396.862 371.998L398.671 369.792L400.48 366.709L402.289 362.617L404.098 357.346L405.907 350.75L407.716 342.729L409.525 333.209L411.334 322.149L414.047 302.918L418.57 268.915L420.379 257.968L421.283 253.706L422.188 250.409L423.092 248.146L423.997 246.95L424.901 246.818L425.806 247.726L426.71 249.632L427.615 252.476L428.519 256.181L430.328 265.736L432.137 277.312L434.851 296.792L439.373 332.23L442.087 352.741L443.896 364.754L445.705 374.97L447.514 383.381L449.323 390.139L451.132 395.352L452.941 399.154L454.75 401.853L456.559 403.849L458.367 405.427L460.176 406.692L461.985 407.667L463.794 408.385L466.508 409.101L469.221 409.508L473.744 409.8L481.884 410.089L497.261 410.111" fill="#EFEFEF" fill-opacity="0.4"/>
<path d="M317.266 410.111L324.502 409.982L328.12 409.614L331.738 408.929L334.451 408.157L337.165 407.084L339.878 405.723L342.592 404.087L346.21 401.749L348.019 400.888L350.732 400.057L352.541 399.437L354.35 398.418L356.159 396.89L358.873 393.948L362.491 389.588L365.204 385.744L368.822 380.642L376.058 371.475L376.963 370.789L377.867 370.301L379.676 369.839L381.485 369.904L383.294 370.386L386.008 371.656L389.626 373.399L391.435 373.957L392.339 374.067L393.244 374.024L394.148 373.805L395.053 373.397L395.957 372.795L396.862 371.998L398.671 369.792L400.48 366.709L402.289 362.617L404.098 357.346L405.907 350.75L407.716 342.729L409.525 333.209L411.334 322.149L414.047 302.918L418.57 268.915L420.379 257.968L421.283 253.706L422.188 250.409L423.092 248.146L423.997 246.95L424.901 246.818L425.806 247.726L426.71 249.632L427.615 252.476L428.519 256.181L430.328 265.736L432.137 277.312L434.851 296.792L439.373 332.23L442.087 352.741L443.896 364.754L445.705 374.97L447.514 383.381L449.323 390.139L451.132 395.352L452.941 399.154L454.75 401.853L456.559 403.849L458.367 405.427L460.176 406.692L461.985 407.667L463.794 408.385L466.508 409.101L469.221 409.508L473.744 409.8L481.884 410.089L497.261 410.111" stroke="#EFEFEF" stroke-linecap="square"/>
</g>
<mask id="mask7_230_9198" style="mask-type:luminance" maskUnits="userSpaceOnUse" x="76" y="55" width="477" height="356">
<path d="M552.957 55.2959H76.7969V410.112H552.957V55.2959Z" fill="white"/>
</mask>
<g mask="url(#mask7_230_9198)">
<path d="M324.039 410.112L332.737 409.984L336.602 409.645L339.501 409.126L341.434 408.572L343.367 407.777L345.3 406.683L347.232 405.266L349.165 403.519L351.098 401.376L353.031 398.657L354.964 395.133L356.896 390.649L358.829 385.169L360.762 378.734L363.661 367.624L367.527 351.163L372.359 330.007L374.291 322.718L376.224 317.066L377.19 314.909L379.123 311.674L381.056 309.445L382.022 308.646L382.989 308.075L383.955 307.747L384.922 307.655L385.888 307.765L387.821 308.387L389.754 309.393L391.686 310.958L393.619 313.12L396.518 316.401L401.35 321.228L405.216 325.46L408.115 328.487L410.048 330.938L415.846 339.144L417.779 341.266L421.644 344.978L423.577 347.488L426.476 352.292L433.241 364.157L436.14 369.994L440.006 377.773L442.905 382.715L449.67 393.185L453.535 398.609L455.468 400.862L457.401 402.622L459.334 403.947L462.233 405.467L465.132 406.626L468.031 407.475L471.897 408.307L478.661 409.413L482.527 409.688L497.023 410.016L506.687 410.023L516.351 410.112" fill="#EFEFEF" fill-opacity="0.4"/>
<path d="M324.039 410.112L332.737 409.984L336.602 409.645L339.501 409.126L341.434 408.572L343.367 407.777L345.3 406.683L347.232 405.266L349.165 403.519L351.098 401.376L353.031 398.657L354.964 395.133L356.896 390.649L358.829 385.169L360.762 378.734L363.661 367.624L367.527 351.163L372.359 330.007L374.291 322.718L376.224 317.066L377.19 314.909L379.123 311.674L381.056 309.445L382.022 308.646L382.989 308.075L383.955 307.747L384.922 307.655L385.888 307.765L387.821 308.387L389.754 309.393L391.686 310.958L393.619 313.12L396.518 316.401L401.35 321.228L405.216 325.46L408.115 328.487L410.048 330.938L415.846 339.144L417.779 341.266L421.644 344.978L423.577 347.488L426.476 352.292L433.241 364.157L436.14 369.994L440.006 377.773L442.905 382.715L449.67 393.185L453.535 398.609L455.468 400.862L457.401 402.622L459.334 403.947L462.233 405.467L465.132 406.626L468.031 407.475L471.897 408.307L478.661 409.413L482.527 409.688L497.023 410.016L506.687 410.023L516.351 410.112" stroke="#EFEFEF" stroke-linecap="square"/>
</g>
<mask id="mask8_230_9198" style="mask-type:luminance" maskUnits="userSpaceOnUse" x="76" y="55" width="477" height="356">
<path d="M552.957 55.2959H76.7969V410.112H552.957V55.2959Z" fill="white"/>
</mask>
<g mask="url(#mask8_230_9198)">
<path d="M328.734 410.111L342.003 409.951L346.15 409.561L349.467 409.637L358.589 408.162L360.247 407.144L361.906 405.885L362.735 405.454L364.394 405.28L366.053 404.935L367.711 404.374L368.54 403.671L369.37 402.347L371.028 399.143L371.858 397.848L372.687 396.214L373.516 393.615L374.345 389.986L376.004 380.774L376.833 374.752L377.663 367.236L378.492 358.158L379.321 347.203L380.15 333.709L381.809 298.98L383.468 256.41L386.785 166.001L388.443 130.08L389.273 118.669L390.102 111.899L390.931 108.629L391.761 107.737L392.59 108.646L393.419 111.627L394.248 117.098L395.078 124.994L395.907 135.595L396.736 149.625L399.224 199.063L405.029 297.727L406.688 317.303L410.834 357.151L412.493 370.355L414.151 381.311L415.81 388.912L417.469 395.433L418.298 398.129L419.127 400.199L420.786 403.075L422.444 405.075L424.103 406.743L424.932 407.406L425.762 407.805L427.42 408.02L429.908 408.427L431.567 408.687L434.884 408.736L437.372 409.548L439.03 409.673L440.689 409.528L442.347 409.302L444.006 409.398L447.323 409.834L450.64 409.959L453.128 409.739L456.445 409.832L465.568 409.941L468.055 409.841L473.031 410.056L476.348 410.075L482.153 410.112L493.763 410.111" fill="#EFEFEF" fill-opacity="0.4"/>
<path d="M328.734 410.111L342.003 409.951L346.15 409.561L349.467 409.637L358.589 408.162L360.247 407.144L361.906 405.885L362.735 405.454L364.394 405.28L366.053 404.935L367.711 404.374L368.54 403.671L369.37 402.347L371.028 399.143L371.858 397.848L372.687 396.214L373.516 393.615L374.345 389.986L376.004 380.774L376.833 374.752L377.663 367.236L378.492 358.158L379.321 347.203L380.15 333.709L381.809 298.98L383.468 256.41L386.785 166.001L388.443 130.08L389.273 118.669L390.102 111.899L390.931 108.629L391.761 107.737L392.59 108.646L393.419 111.627L394.248 117.098L395.078 124.994L395.907 135.595L396.736 149.625L399.224 199.063L405.029 297.727L406.688 317.303L410.834 357.151L412.493 370.355L414.151 381.311L415.81 388.912L417.469 395.433L418.298 398.129L419.127 400.199L420.786 403.075L422.444 405.075L424.103 406.743L424.932 407.406L425.762 407.805L427.42 408.02L429.908 408.427L431.567 408.687L434.884 408.736L437.372 409.548L439.03 409.673L440.689 409.528L442.347 409.302L444.006 409.398L447.323 409.834L450.64 409.959L453.128 409.739L456.445 409.832L465.568 409.941L468.055 409.841L473.031 410.056L476.348 410.075L482.153 410.112L493.763 410.111" stroke="#EFEFEF" stroke-linecap="square"/>
</g>
<mask id="mask9_230_9198" style="mask-type:luminance" maskUnits="userSpaceOnUse" x="76" y="55" width="477" height="356">
<path d="M552.957 55.2959H76.7969V410.112H552.957V55.2959Z" fill="white"/>
</mask>
<g mask="url(#mask9_230_9198)">
<path d="M312.281 410.112L324.991 409.981L329.531 409.542L333.162 408.98L335.886 408.198L338.609 407.044L340.425 406.014L342.241 404.622L344.056 402.742L345.872 400.369L349.503 394.945L351.319 391.708L352.227 389.639L353.135 387.136L354.951 380.731L356.766 372.802L359.49 359.362L362.214 344.127L365.845 320.742L368.569 304.024L371.292 289.377L373.108 281.136L374.924 274.798L375.831 272.42L376.739 270.541L377.647 269.103L378.555 268.029L379.463 267.241L380.371 266.674L381.279 266.296L382.186 266.109L383.094 266.142L384.002 266.446L384.91 267.097L385.818 268.193L386.726 269.837L387.634 272.101L388.541 274.986L390.357 282.255L393.081 295.248L395.804 310.183L398.528 325.561L400.344 334.613L402.159 342.258L403.975 348.351L405.791 353.092L407.606 357.002L409.422 360.357L414.869 369.375L417.593 374.535L419.409 377.077L422.132 379.851L425.764 383.632L430.303 388.819L433.934 393.259L435.75 394.98L437.566 396.259L442.105 399.157L445.737 401.959L448.46 403.956L450.276 404.905L452.999 405.843L458.447 407.574L462.078 408.655L464.802 409.057L474.788 409.605L491.13 410.109L492.945 410.112" fill="#EFEFEF" fill-opacity="0.4"/>
<path d="M312.281 410.112L324.991 409.981L329.531 409.542L333.162 408.98L335.886 408.198L338.609 407.044L340.425 406.014L342.241 404.622L344.056 402.742L345.872 400.369L349.503 394.945L351.319 391.708L352.227 389.639L353.135 387.136L354.951 380.731L356.766 372.802L359.49 359.362L362.214 344.127L365.845 320.742L368.569 304.024L371.292 289.377L373.108 281.136L374.924 274.798L375.831 272.42L376.739 270.541L377.647 269.103L378.555 268.029L379.463 267.241L380.371 266.674L381.279 266.296L382.186 266.109L383.094 266.142L384.002 266.446L384.91 267.097L385.818 268.193L386.726 269.837L387.634 272.101L388.541 274.986L390.357 282.255L393.081 295.248L395.804 310.183L398.528 325.561L400.344 334.613L402.159 342.258L403.975 348.351L405.791 353.092L407.606 357.002L409.422 360.357L414.869 369.375L417.593 374.535L419.409 377.077L422.132 379.851L425.764 383.632L430.303 388.819L433.934 393.259L435.75 394.98L437.566 396.259L442.105 399.157L445.737 401.959L448.46 403.956L450.276 404.905L452.999 405.843L458.447 407.574L462.078 408.655L464.802 409.057L474.788 409.605L491.13 410.109L492.945 410.112" stroke="#EFEFEF" stroke-linecap="square"/>
</g>
<mask id="mask10_230_9198" style="mask-type:luminance" maskUnits="userSpaceOnUse" x="76" y="55" width="477" height="356">
<path d="M552.957 55.2959H76.7969V410.112H552.957V55.2959Z" fill="white"/>
</mask>
<g mask="url(#mask10_230_9198)">
<path d="M308.711 410.112L322.559 409.95L325.755 409.61L327.885 409.049L330.016 408.107L332.146 406.668L333.211 405.653L334.277 404.322L335.342 402.553L336.407 400.207L337.472 397.146L338.538 393.261L339.603 388.476L340.668 382.745L341.733 376.038L343.864 359.625L345.994 339.211L348.125 314.929L351.321 272.87L353.451 245.414L354.516 233.665L355.581 223.972L356.647 216.682L357.712 211.933L358.777 209.649L359.842 209.584L360.908 211.378L361.973 214.629L363.038 218.976L364.103 224.176L366.234 236.938L368.364 253.055L375.821 315.75L377.951 330.216L380.082 342.869L382.212 353.877L384.343 363.303L386.473 371.189L388.604 377.436L390.734 382.197L392.865 385.943L394.995 388.774L396.061 389.771L397.126 390.502L402.452 393.341L404.583 394.611L406.713 395.375L408.843 395.702L412.039 395.924L415.235 395.776L418.431 395.703L420.561 395.98L424.822 396.899L429.083 397.222L430.148 397.565L432.279 398.724L435.474 400.718L437.605 401.671L445.062 404.3L449.323 406.281L452.518 407.4L455.714 408.183L464.236 409.622L467.432 409.631L471.693 409.559L481.28 409.918L487.671 409.939L495.128 410.021L520.694 410.112" fill="#EFEFEF" fill-opacity="0.4"/>
<path d="M308.711 410.112L322.559 409.95L325.755 409.61L327.885 409.049L330.016 408.107L332.146 406.668L333.211 405.653L334.277 404.322L335.342 402.553L336.407 400.207L337.472 397.146L338.538 393.261L339.603 388.476L340.668 382.745L341.733 376.038L343.864 359.625L345.994 339.211L348.125 314.929L351.321 272.87L353.451 245.414L354.516 233.665L355.581 223.972L356.647 216.682L357.712 211.933L358.777 209.649L359.842 209.584L360.908 211.378L361.973 214.629L363.038 218.976L364.103 224.176L366.234 236.938L368.364 253.055L375.821 315.75L377.951 330.216L380.082 342.869L382.212 353.877L384.343 363.303L386.473 371.189L388.604 377.436L390.734 382.197L392.865 385.943L394.995 388.774L396.061 389.771L397.126 390.502L402.452 393.341L404.583 394.611L406.713 395.375L408.843 395.702L412.039 395.924L415.235 395.776L418.431 395.703L420.561 395.98L424.822 396.899L429.083 397.222L430.148 397.565L432.279 398.724L435.474 400.718L437.605 401.671L445.062 404.3L449.323 406.281L452.518 407.4L455.714 408.183L464.236 409.622L467.432 409.631L471.693 409.559L481.28 409.918L487.671 409.939L495.128 410.021L520.694 410.112" stroke="#EFEFEF" stroke-linecap="square"/>
</g>
<mask id="mask11_230_9198" style="mask-type:luminance" maskUnits="userSpaceOnUse" x="76" y="55" width="477" height="356">
<path d="M552.957 55.2959H76.7969V410.112H552.957V55.2959Z" fill="white"/>
</mask>
<g mask="url(#mask11_230_9198)">
<path d="M324.148 410.111L335.579 409.956L340.342 409.645L343.2 409.135L345.105 408.478L347.01 407.435L348.916 405.822L349.868 404.702L350.821 403.296L351.773 401.542L352.726 399.378L353.678 396.765L355.584 390.18L357.489 382.062L359.394 372.73L361.299 362.029L363.204 349.636L366.062 328.566L369.872 300.393L371.778 288.075L373.683 278.378L374.635 274.88L375.588 272.372L376.54 270.829L377.493 270.173L378.446 270.3L379.398 271.096L380.351 272.45L381.303 274.255L383.208 278.909L385.114 284.72L387.019 291.611L393.687 317.614L395.592 323.091L398.45 329.934L402.26 337.985L405.118 343.644L407.023 346.925L408.928 349.415L410.833 351.154L413.691 353.455L415.596 355.395L417.501 357.757L422.264 364.117L426.075 368.568L427.98 371.666L433.695 382.707L441.316 394.688L443.221 397.039L447.984 402.054L449.889 403.938L451.794 405.407L453.7 406.37L459.415 408.382L462.273 409.191L465.131 409.602L469.893 409.78L491.803 410.097L513.712 410.111" fill="#EFEFEF" fill-opacity="0.4"/>
<path d="M324.148 410.111L335.579 409.956L340.342 409.645L343.2 409.135L345.105 408.478L347.01 407.435L348.916 405.822L349.868 404.702L350.821 403.296L351.773 401.542L352.726 399.378L353.678 396.765L355.584 390.18L357.489 382.062L359.394 372.73L361.299 362.029L363.204 349.636L366.062 328.566L369.872 300.393L371.778 288.075L373.683 278.378L374.635 274.88L375.588 272.372L376.54 270.829L377.493 270.173L378.446 270.3L379.398 271.096L380.351 272.45L381.303 274.255L383.208 278.909L385.114 284.72L387.019 291.611L393.687 317.614L395.592 323.091L398.45 329.934L402.26 337.985L405.118 343.644L407.023 346.925L408.928 349.415L410.833 351.154L413.691 353.455L415.596 355.395L417.501 357.757L422.264 364.117L426.075 368.568L427.98 371.666L433.695 382.707L441.316 394.688L443.221 397.039L447.984 402.054L449.889 403.938L451.794 405.407L453.7 406.37L459.415 408.382L462.273 409.191L465.131 409.602L469.893 409.78L491.803 410.097L513.712 410.111" stroke="#EFEFEF" stroke-linecap="square"/>
</g>
<mask id="mask12_230_9198" style="mask-type:luminance" maskUnits="userSpaceOnUse" x="76" y="55" width="477" height="356">
<path d="M552.957 55.2959H76.7969V410.112H552.957V55.2959Z" fill="white"/>
</mask>
<g mask="url(#mask12_230_9198)">
<path d="M331.047 410.111L334.833 409.992L338.619 409.813L349.031 409.751L350.924 409.365L352.817 408.717L353.764 408.543L356.603 408.655L359.443 408.7L360.389 408.522L363.229 407.507L366.068 406.796L367.962 406.013L369.855 404.757L371.748 403.153L372.694 401.98L376.48 396.222L377.427 394.33L378.373 392.094L379.32 389.389L380.266 385.811L381.213 381.068L383.106 368.753L386.892 341.633L388.785 324.352L390.678 302.203L392.571 274.986L394.464 247.509L396.357 224.925L398.25 205.988L399.197 197.736L400.144 190.813L401.09 185.777L403.93 175.919L404.876 171.991L405.823 169.693L406.769 170.791L407.716 175.814L408.662 183.879L412.448 222.883L413.395 235.106L415.288 265.536L418.128 315.147L420.021 340.828L420.967 350.592L422.86 365.827L424.753 378.825L425.7 384.467L426.646 389.139L427.593 392.723L429.486 398.137L431.379 402.752L432.326 404.413L433.272 405.602L434.219 406.381L436.112 407.35L438.005 408.113L441.791 409.179L442.737 409.453L444.63 409.547L446.524 409.559L449.363 409.72L454.096 409.921L456.935 410.051L463.561 410.042L468.294 410.074L472.08 410.069L478.706 410.111L517.513 410.096L519.406 410.111" fill="#EFEFEF" fill-opacity="0.4"/>
<path d="M331.047 410.111L334.833 409.992L338.619 409.813L349.031 409.751L350.924 409.365L352.817 408.717L353.764 408.543L356.603 408.655L359.443 408.7L360.389 408.522L363.229 407.507L366.068 406.796L367.962 406.013L369.855 404.757L371.748 403.153L372.694 401.98L376.48 396.222L377.427 394.33L378.373 392.094L379.32 389.389L380.266 385.811L381.213 381.068L383.106 368.753L386.892 341.633L388.785 324.352L390.678 302.203L392.571 274.986L394.464 247.509L396.357 224.925L398.25 205.988L399.197 197.736L400.144 190.813L401.09 185.777L403.93 175.919L404.876 171.991L405.823 169.693L406.769 170.791L407.716 175.814L408.662 183.879L412.448 222.883L413.395 235.106L415.288 265.536L418.128 315.147L420.021 340.828L420.967 350.592L422.86 365.827L424.753 378.825L425.7 384.467L426.646 389.139L427.593 392.723L429.486 398.137L431.379 402.752L432.326 404.413L433.272 405.602L434.219 406.381L436.112 407.35L438.005 408.113L441.791 409.179L442.737 409.453L444.63 409.547L446.524 409.559L449.363 409.72L454.096 409.921L456.935 410.051L463.561 410.042L468.294 410.074L472.08 410.069L478.706 410.111L517.513 410.096L519.406 410.111" stroke="#EFEFEF" stroke-linecap="square"/>
</g>
<mask id="mask13_230_9198" style="mask-type:luminance" maskUnits="userSpaceOnUse" x="76" y="55" width="477" height="356">
<path d="M552.957 55.2959H76.7969V410.112H552.957V55.2959Z" fill="white"/>
</mask>
<g mask="url(#mask13_230_9198)">
<path d="M321.188 410.111L336.749 409.958L342.242 409.745L346.819 409.248L350.481 408.683L352.311 408.184L354.142 407.438L356.889 405.925L358.719 404.653L360.55 403.082L362.381 401.147L364.212 398.804L366.043 396.025L367.873 392.823L369.704 389.203L372.45 382.965L376.112 373.569L379.774 364.115L382.52 357.712L386.182 350.121L389.843 342.564L392.589 335.887L398.997 319.466L400.828 315.428L402.659 312.253L407.236 305.538L409.067 302.675L409.982 301.49L410.898 300.59L411.813 300.016L412.729 299.755L414.559 299.85L416.39 299.936L417.306 299.731L420.052 298.671L420.967 298.678L421.883 299.124L422.798 300.095L423.713 301.597L425.544 305.795L428.29 312.528L431.037 318.616L432.868 323.489L435.614 331.894L438.36 341.07L444.768 363.527L453.007 388.051L454.837 392.789L456.668 396.928L458.499 400.435L460.33 403.22L462.161 405.283L463.991 406.727L465.822 407.709L468.569 408.695L471.315 409.337L474.976 409.791L479.553 410.006L503.354 410.111" fill="#EFEFEF" fill-opacity="0.4"/>
<path d="M321.188 410.111L336.749 409.958L342.242 409.745L346.819 409.248L350.481 408.683L352.311 408.184L354.142 407.438L356.889 405.925L358.719 404.653L360.55 403.082L362.381 401.147L364.212 398.804L366.043 396.025L367.873 392.823L369.704 389.203L372.45 382.965L376.112 373.569L379.774 364.115L382.52 357.712L386.182 350.121L389.843 342.564L392.589 335.887L398.997 319.466L400.828 315.428L402.659 312.253L407.236 305.538L409.067 302.675L409.982 301.49L410.898 300.59L411.813 300.016L412.729 299.755L414.559 299.85L416.39 299.936L417.306 299.731L420.052 298.671L420.967 298.678L421.883 299.124L422.798 300.095L423.713 301.597L425.544 305.795L428.29 312.528L431.037 318.616L432.868 323.489L435.614 331.894L438.36 341.07L444.768 363.527L453.007 388.051L454.837 392.789L456.668 396.928L458.499 400.435L460.33 403.22L462.161 405.283L463.991 406.727L465.822 407.709L468.569 408.695L471.315 409.337L474.976 409.791L479.553 410.006L503.354 410.111" stroke="#EFEFEF" stroke-linecap="square"/>
</g>
<mask id="mask14_230_9198" style="mask-type:luminance" maskUnits="userSpaceOnUse" x="76" y="55" width="477" height="356">
<path d="M552.957 55.2959H76.7969V410.112H552.957V55.2959Z" fill="white"/>
</mask>
<g mask="url(#mask14_230_9198)">
<path d="M98.4375 410.111L291.725 409.871L297.828 409.484L305.967 408.455L308.001 407.998L310.036 407.349L312.071 406.486L314.105 405.387L316.14 404.033L318.174 402.395L320.209 400.426L322.244 398.104L324.278 395.472L326.313 392.567L328.347 389.296L330.382 385.476L332.417 381.022L344.624 351.629L346.659 346.021L348.693 339.542L352.763 325.605L354.797 319.631L356.832 315.029L358.866 311.725L360.901 309.257L362.936 307.228L364.97 305.689L367.005 305.027L369.039 305.514L371.074 307.151L373.109 309.791L375.143 313.195L377.178 317.105L381.247 325.975L385.316 334.869L389.385 342.358L393.455 349.045L399.558 357.83L403.628 363.731L411.766 376.414L413.801 378.685L417.87 382.556L421.939 387.034L423.974 388.966L428.043 392.142L432.112 396.131L434.147 398.069L438.216 401.288L442.285 404.123L444.32 405.219L448.389 406.792L452.458 407.99L456.527 408.778L460.596 409.231L472.804 409.928L503.323 410.111" fill="#7EB0D5" fill-opacity="0.4"/>
<path d="M98.4375 410.111L291.725 409.871L297.828 409.484L305.967 408.455L308.001 407.998L310.036 407.349L312.071 406.486L314.105 405.387L316.14 404.033L318.174 402.395L320.209 400.426L322.244 398.104L324.278 395.472L326.313 392.567L328.347 389.296L330.382 385.476L332.417 381.022L344.624 351.629L346.659 346.021L348.693 339.542L352.763 325.605L354.797 319.631L356.832 315.029L358.866 311.725L360.901 309.257L362.936 307.228L364.97 305.689L367.005 305.027L369.039 305.514L371.074 307.151L373.109 309.791L375.143 313.195L377.178 317.105L381.247 325.975L385.316 334.869L389.385 342.358L393.455 349.045L399.558 357.83L403.628 363.731L411.766 376.414L413.801 378.685L417.87 382.556L421.939 387.034L423.974 388.966L428.043 392.142L432.112 396.131L434.147 398.069L438.216 401.288L442.285 404.123L444.32 405.219L448.389 406.792L452.458 407.99L456.527 408.778L460.596 409.231L472.804 409.928L503.323 410.111" stroke="#7EB0D5" stroke-linecap="square"/>
</g>
<path d="M535.061 411.061C535.646 410.475 535.646 409.525 535.061 408.939L525.515 399.393C524.929 398.808 523.979 398.808 523.393 399.393C522.808 399.979 522.808 400.929 523.393 401.515L531.879 410L523.393 418.485C522.808 419.071 522.808 420.021 523.393 420.607C523.979 421.192 524.929 421.192 525.515 420.607L535.061 411.061ZM79 411.5H534V408.5H79V411.5Z" fill="black"/>
</g>
<defs>
<clipPath id="clip0_230_9198">
<rect width="614.4" height="460.8" fill="white"/>
</clipPath>
</defs>
</svg>
