<svg width="615" height="461" viewBox="0 0 615 461" fill="none" xmlns="http://www.w3.org/2000/svg">
<g clip-path="url(#clip0_230_9278)">
<mask id="mask0_230_9278" style="mask-type:luminance" maskUnits="userSpaceOnUse" x="76" y="55" width="477" height="356">
<path d="M552.957 55.2959H76.7969V410.112H552.957V55.2959Z" fill="white"/>
</mask>
<g mask="url(#mask0_230_9278)">
<path d="M333.234 410.111L356.188 409.855L358.738 409.742L362.138 409.7L366.389 409.248L368.939 409.074L374.04 408.303L375.74 407.962L379.141 408.35L381.691 408.765L382.541 408.634L383.391 408.159L387.642 404.595L391.042 402.48L391.892 401.565L392.742 400.237L393.593 398.308L394.443 395.672L396.143 388.735L396.993 384.608L397.843 379.633L399.543 366.131L401.244 352.431L402.094 345.751L402.944 337.191L404.644 314.373L408.044 263.527L409.745 235L412.295 185.176L414.845 133.121L416.546 105.917L417.396 96.7478L418.246 90.6672L421.646 73.5958L422.496 72.1924L423.347 77.9374L424.197 92.1669L425.897 137.053L429.297 236.673L430.998 279.917L432.698 315.285L434.398 342.867L435.248 354.19L436.098 363.356L436.948 370.527L438.649 381.481L440.349 390.572L441.199 394.025L442.049 396.357L442.899 397.777L448 403.551L449.7 403.957L450.55 404.449L453.101 406.959L453.951 407.202L455.651 407.062L456.501 407.271L459.901 409.179L460.752 409.198L463.302 408.558L465.002 408.741L467.553 409.165L470.953 409.519L475.204 409.364L477.754 409.7L480.304 409.878L486.255 409.961L487.955 409.923L493.056 410.112L502.407 410.111" fill="#EFEFEF" fill-opacity="0.4"/>
<path d="M333.234 410.111L356.188 409.855L358.738 409.742L362.138 409.7L366.389 409.248L368.939 409.074L374.04 408.303L375.74 407.962L379.141 408.35L381.691 408.765L382.541 408.634L383.391 408.159L387.642 404.595L391.042 402.48L391.892 401.565L392.742 400.237L393.593 398.308L394.443 395.672L396.143 388.735L396.993 384.608L397.843 379.633L399.543 366.131L401.244 352.431L402.094 345.751L402.944 337.191L404.644 314.373L408.044 263.527L409.745 235L412.295 185.176L414.845 133.121L416.546 105.917L417.396 96.7478L418.246 90.6672L421.646 73.5958L422.496 72.1924L423.347 77.9374L424.197 92.1669L425.897 137.053L429.297 236.673L430.998 279.917L432.698 315.285L434.398 342.867L435.248 354.19L436.098 363.356L436.948 370.527L438.649 381.481L440.349 390.572L441.199 394.025L442.049 396.357L442.899 397.777L448 403.551L449.7 403.957L450.55 404.449L453.101 406.959L453.951 407.202L455.651 407.062L456.501 407.271L459.901 409.179L460.752 409.198L463.302 408.558L465.002 408.741L467.553 409.165L470.953 409.519L475.204 409.364L477.754 409.7L480.304 409.878L486.255 409.961L487.955 409.923L493.056 410.112L502.407 410.111" stroke="#EFEFEF" stroke-linecap="square"/>
</g>
<mask id="mask1_230_9278" style="mask-type:luminance" maskUnits="userSpaceOnUse" x="76" y="55" width="477" height="356">
<path d="M552.957 55.2959H76.7969V410.112H552.957V55.2959Z" fill="white"/>
</mask>
<g mask="url(#mask1_230_9278)">
<path d="M329.391 410.111L350.655 409.923L354.199 409.854L358.629 409.939L374.577 408.99L378.121 408.573L383.437 408.172L385.209 408.02L386.981 407.787L391.411 407.686L393.183 407.164L395.841 406.315L398.499 405.911L400.271 405.232L402.043 404.341L402.929 403.759L403.815 402.978L405.587 400.782L406.473 399.429L407.359 397.799L408.245 395.603L409.131 392.518L410.017 388.406L411.789 377.834L414.447 359.289L416.219 344.605L417.991 326.106L419.763 302.777L421.535 274.784L425.079 215.981L426.851 192.772L427.737 184.179L428.623 177.651L429.509 172.893L430.395 169.67L431.281 167.811L432.167 167.028L433.053 166.938L433.939 167.36L434.825 168.568L435.711 171.148L436.597 175.482L438.369 187.995L440.141 202.393L441.913 219.122L445.457 255.708L449.001 294.922L450.773 310.325L452.545 323.249L455.203 340.157L458.747 360.558L460.519 369.038L462.291 375.597L464.063 381.257L465.835 386.18L469.379 394.76L471.151 398.492L472.923 401.598L474.695 403.994L475.581 404.835L476.467 405.422L480.897 407.604L482.669 408.467L484.441 409.002L486.213 409.305L497.731 409.972L503.933 410.102L505.705 410.111" fill="#EFEFEF" fill-opacity="0.4"/>
<path d="M329.391 410.111L350.655 409.923L354.199 409.854L358.629 409.939L374.577 408.99L378.121 408.573L383.437 408.172L385.209 408.02L386.981 407.787L391.411 407.686L393.183 407.164L395.841 406.315L398.499 405.911L400.271 405.232L402.043 404.341L402.929 403.759L403.815 402.978L405.587 400.782L406.473 399.429L407.359 397.799L408.245 395.603L409.131 392.518L410.017 388.406L411.789 377.834L414.447 359.289L416.219 344.605L417.991 326.106L419.763 302.777L421.535 274.784L425.079 215.981L426.851 192.772L427.737 184.179L428.623 177.651L429.509 172.893L430.395 169.67L431.281 167.811L432.167 167.028L433.053 166.938L433.939 167.36L434.825 168.568L435.711 171.148L436.597 175.482L438.369 187.995L440.141 202.393L441.913 219.122L445.457 255.708L449.001 294.922L450.773 310.325L452.545 323.249L455.203 340.157L458.747 360.558L460.519 369.038L462.291 375.597L464.063 381.257L465.835 386.18L469.379 394.76L471.151 398.492L472.923 401.598L474.695 403.994L475.581 404.835L476.467 405.422L480.897 407.604L482.669 408.467L484.441 409.002L486.213 409.305L497.731 409.972L503.933 410.102L505.705 410.111" stroke="#EFEFEF" stroke-linecap="square"/>
</g>
<mask id="mask2_230_9278" style="mask-type:luminance" maskUnits="userSpaceOnUse" x="76" y="55" width="477" height="356">
<path d="M552.957 55.2959H76.7969V410.112H552.957V55.2959Z" fill="white"/>
</mask>
<g mask="url(#mask2_230_9278)">
<path d="M315.891 410.111L331.113 409.995L340.067 409.282L342.753 408.736L344.544 408.02L346.334 406.831L348.125 405.062L349.916 402.793L352.602 398.757L354.393 395.51L356.184 391.438L357.975 386.336L359.765 380.298L362.452 370.094L366.929 351.951L369.615 339.746L372.301 325.416L378.569 291.287L381.255 277.701L383.046 270.443L383.941 267.627L384.837 265.35L386.628 262.026L388.418 259.695L389.314 258.835L390.209 258.217L391.105 257.865L392 257.778L392.895 257.944L393.791 258.361L394.686 259.062L395.582 260.112L396.477 261.584L397.372 263.529L399.163 268.776L404.536 287.552L406.327 292.16L409.013 298.454L410.804 303.659L412.594 310.397L415.281 322.714L417.967 334.528L422.444 351.91L424.235 357.889L426.025 362.566L428.712 368.828L436.77 389.338L438.561 392.849L440.352 395.443L442.143 397.237L447.515 401.667L450.201 403.437L453.783 405.354L457.365 406.949L460.946 408.169L463.632 408.799L468.109 409.33L473.482 409.815L494.076 410.111" fill="#EFEFEF" fill-opacity="0.4"/>
<path d="M315.891 410.111L331.113 409.995L340.067 409.282L342.753 408.736L344.544 408.02L346.334 406.831L348.125 405.062L349.916 402.793L352.602 398.757L354.393 395.51L356.184 391.438L357.975 386.336L359.765 380.298L362.452 370.094L366.929 351.951L369.615 339.746L372.301 325.416L378.569 291.287L381.255 277.701L383.046 270.443L383.941 267.627L384.837 265.35L386.628 262.026L388.418 259.695L389.314 258.835L390.209 258.217L391.105 257.865L392 257.778L392.895 257.944L393.791 258.361L394.686 259.062L395.582 260.112L396.477 261.584L397.372 263.529L399.163 268.776L404.536 287.552L406.327 292.16L409.013 298.454L410.804 303.659L412.594 310.397L415.281 322.714L417.967 334.528L422.444 351.91L424.235 357.889L426.025 362.566L428.712 368.828L436.77 389.338L438.561 392.849L440.352 395.443L442.143 397.237L447.515 401.667L450.201 403.437L453.783 405.354L457.365 406.949L460.946 408.169L463.632 408.799L468.109 409.33L473.482 409.815L494.076 410.111" stroke="#EFEFEF" stroke-linecap="square"/>
</g>
<mask id="mask3_230_9278" style="mask-type:luminance" maskUnits="userSpaceOnUse" x="76" y="55" width="477" height="356">
<path d="M552.957 55.2959H76.7969V410.112H552.957V55.2959Z" fill="white"/>
</mask>
<g mask="url(#mask3_230_9278)">
<path d="M332.539 410.111L339.445 409.995L342.898 409.664L345.488 409.18L348.078 408.414L349.804 407.659L351.531 406.609L353.257 405.191L354.984 403.374L356.71 401.165L358.437 398.56L360.163 395.517L361.89 392.013L364.48 385.948L366.206 381.32L367.933 376.064L369.659 370.051L372.249 359.763L380.018 327.105L381.745 321.534L383.471 317.243L385.198 313.837L387.787 309.425L389.514 306.908L392.104 303.796L394.693 301.001L396.42 299.655L397.283 299.252L399.01 298.89L401.599 298.811L403.326 298.991L405.053 299.492L408.506 300.669L411.959 301.322L413.685 301.51L415.412 301.343L418.001 300.611L418.865 300.561L419.728 300.772L420.591 301.287L421.454 302.093L423.181 304.29L425.771 308.096L427.497 311.025L429.224 314.677L430.95 319.161L433.54 327.046L436.993 337.785L443.899 357.91L452.532 384.96L454.258 389.311L455.985 392.977L457.711 395.961L459.438 398.415L462.027 401.522L463.754 403.296L465.48 404.749L467.207 405.843L469.797 407.038L473.25 408.329L475.839 408.998L479.292 409.494L484.472 409.888L490.515 410.066L504.327 410.112" fill="#EFEFEF" fill-opacity="0.4"/>
<path d="M332.539 410.111L339.445 409.995L342.898 409.664L345.488 409.18L348.078 408.414L349.804 407.659L351.531 406.609L353.257 405.191L354.984 403.374L356.71 401.165L358.437 398.56L360.163 395.517L361.89 392.013L364.48 385.948L366.206 381.32L367.933 376.064L369.659 370.051L372.249 359.763L380.018 327.105L381.745 321.534L383.471 317.243L385.198 313.837L387.787 309.425L389.514 306.908L392.104 303.796L394.693 301.001L396.42 299.655L397.283 299.252L399.01 298.89L401.599 298.811L403.326 298.991L405.053 299.492L408.506 300.669L411.959 301.322L413.685 301.51L415.412 301.343L418.001 300.611L418.865 300.561L419.728 300.772L420.591 301.287L421.454 302.093L423.181 304.29L425.771 308.096L427.497 311.025L429.224 314.677L430.95 319.161L433.54 327.046L436.993 337.785L443.899 357.91L452.532 384.96L454.258 389.311L455.985 392.977L457.711 395.961L459.438 398.415L462.027 401.522L463.754 403.296L465.48 404.749L467.207 405.843L469.797 407.038L473.25 408.329L475.839 408.998L479.292 409.494L484.472 409.888L490.515 410.066L504.327 410.112" stroke="#EFEFEF" stroke-linecap="square"/>
</g>
<mask id="mask4_230_9278" style="mask-type:luminance" maskUnits="userSpaceOnUse" x="76" y="55" width="477" height="356">
<path d="M552.957 55.2959H76.7969V410.112H552.957V55.2959Z" fill="white"/>
</mask>
<g mask="url(#mask4_230_9278)">
<path d="M297.945 410.111L318.938 409.982L322.253 409.741L325.567 409.266L328.882 408.57L332.197 407.546L334.406 406.535L336.616 405.115L338.826 403.117L339.931 401.827L341.036 400.293L342.141 398.471L343.246 396.321L344.35 393.808L346.56 387.631L348.77 379.995L350.98 371.181L354.294 356.387L357.609 339.892L360.924 321.29L368.658 275.339L370.868 265.149L371.973 260.936L373.077 257.354L374.182 254.453L375.287 252.314L376.392 251.052L377.497 250.798L378.602 251.674L379.707 253.766L380.812 257.096L381.917 261.62L383.021 267.224L385.231 280.994L388.546 305.068L391.861 328.748L394.07 342.278L396.28 353.187L397.385 357.622L398.49 361.423L399.595 364.648L400.7 367.365L401.804 369.637L402.909 371.52L404.014 373.059L405.119 374.289L406.224 375.244L407.329 375.965L409.539 376.891L412.853 377.704L416.168 378.2L418.378 378.154L420.588 377.731L423.902 376.61L427.217 375.484L429.427 375.074L431.636 375.005L436.056 375.139L441.58 374.857L443.79 375.253L446 376.211L448.21 377.579L452.629 380.771L454.839 382.663L457.049 384.915L460.363 388.837L465.888 395.475L469.202 398.901L471.412 400.848L473.622 402.512L476.937 404.531L480.251 406.146L483.566 407.487L486.881 408.443L490.195 408.984L496.825 409.61L504.559 409.94L513.398 410.104L517.817 410.111" fill="#EFEFEF" fill-opacity="0.4"/>
<path d="M297.945 410.111L318.938 409.982L322.253 409.741L325.567 409.266L328.882 408.57L332.197 407.546L334.406 406.535L336.616 405.115L338.826 403.117L339.931 401.827L341.036 400.293L342.141 398.471L343.246 396.321L344.35 393.808L346.56 387.631L348.77 379.995L350.98 371.181L354.294 356.387L357.609 339.892L360.924 321.29L368.658 275.339L370.868 265.149L371.973 260.936L373.077 257.354L374.182 254.453L375.287 252.314L376.392 251.052L377.497 250.798L378.602 251.674L379.707 253.766L380.812 257.096L381.917 261.62L383.021 267.224L385.231 280.994L388.546 305.068L391.861 328.748L394.07 342.278L396.28 353.187L397.385 357.622L398.49 361.423L399.595 364.648L400.7 367.365L401.804 369.637L402.909 371.52L404.014 373.059L405.119 374.289L406.224 375.244L407.329 375.965L409.539 376.891L412.853 377.704L416.168 378.2L418.378 378.154L420.588 377.731L423.902 376.61L427.217 375.484L429.427 375.074L431.636 375.005L436.056 375.139L441.58 374.857L443.79 375.253L446 376.211L448.21 377.579L452.629 380.771L454.839 382.663L457.049 384.915L460.363 388.837L465.888 395.475L469.202 398.901L471.412 400.848L473.622 402.512L476.937 404.531L480.251 406.146L483.566 407.487L486.881 408.443L490.195 408.984L496.825 409.61L504.559 409.94L513.398 410.104L517.817 410.111" stroke="#EFEFEF" stroke-linecap="square"/>
</g>
<mask id="mask5_230_9278" style="mask-type:luminance" maskUnits="userSpaceOnUse" x="76" y="55" width="477" height="356">
<path d="M552.957 55.2959H76.7969V410.112H552.957V55.2959Z" fill="white"/>
</mask>
<g mask="url(#mask5_230_9278)">
<path d="M326.406 410.111L338.483 409.955L344.521 409.747L348.834 409.581L354.872 409.485L357.46 409.233L360.911 408.53L363.498 407.799L366.949 406.487L372.124 405.224L375.575 403.51L379.025 402.021L380.751 401.102L381.613 400.41L383.338 398.461L385.926 395.082L387.651 393.416L389.377 392.455L391.964 391.489L392.827 390.988L393.69 390.3L395.415 388.325L398.003 384.503L402.316 378.02L404.041 375.846L404.904 374.542L405.766 372.874L406.629 370.762L408.354 365.337L410.942 355.433L413.53 344.119L415.255 335.565L416.98 325.267L418.705 312.507L421.293 290.281L425.606 250.578L430.782 200.643L431.644 194.618L432.507 189.9L433.37 186.371L434.232 183.895L435.095 182.486L435.958 182.317L436.82 183.597L437.683 186.391L438.545 190.558L440.271 201.931L441.996 216.328L443.721 234.168L445.446 255.568L448.897 300.114L450.622 319.606L452.347 336.7L454.072 351.167L455.798 362.792L457.523 371.74L459.248 378.976L461.836 388.305L463.561 393.201L465.286 396.973L467.011 400.037L468.737 402.494L470.462 404.386L473.05 406.677L474.775 407.877L476.5 408.721L478.225 409.269L480.813 409.693L486.851 410.038L498.065 410.111" fill="#EFEFEF" fill-opacity="0.4"/>
<path d="M326.406 410.111L338.483 409.955L344.521 409.747L348.834 409.581L354.872 409.485L357.46 409.233L360.911 408.53L363.498 407.799L366.949 406.487L372.124 405.224L375.575 403.51L379.025 402.021L380.751 401.102L381.613 400.41L383.338 398.461L385.926 395.082L387.651 393.416L389.377 392.455L391.964 391.489L392.827 390.988L393.69 390.3L395.415 388.325L398.003 384.503L402.316 378.02L404.041 375.846L404.904 374.542L405.766 372.874L406.629 370.762L408.354 365.337L410.942 355.433L413.53 344.119L415.255 335.565L416.98 325.267L418.705 312.507L421.293 290.281L425.606 250.578L430.782 200.643L431.644 194.618L432.507 189.9L433.37 186.371L434.232 183.895L435.095 182.486L435.958 182.317L436.82 183.597L437.683 186.391L438.545 190.558L440.271 201.931L441.996 216.328L443.721 234.168L445.446 255.568L448.897 300.114L450.622 319.606L452.347 336.7L454.072 351.167L455.798 362.792L457.523 371.74L459.248 378.976L461.836 388.305L463.561 393.201L465.286 396.973L467.011 400.037L468.737 402.494L470.462 404.386L473.05 406.677L474.775 407.877L476.5 408.721L478.225 409.269L480.813 409.693L486.851 410.038L498.065 410.111" stroke="#EFEFEF" stroke-linecap="square"/>
</g>
<mask id="mask6_230_9278" style="mask-type:luminance" maskUnits="userSpaceOnUse" x="76" y="55" width="477" height="356">
<path d="M552.957 55.2959H76.7969V410.112H552.957V55.2959Z" fill="white"/>
</mask>
<g mask="url(#mask6_230_9278)">
<path d="M312.375 410.111L323.9 409.984L328.701 409.642L332.543 409.031L337.345 407.94L341.186 406.798L344.067 405.575L350.79 402.282L354.632 400.915L357.513 399.86L359.433 398.935L362.315 397.171L365.196 395.391L368.077 394.034L375.76 391.004L379.601 388.908L383.443 386.489L386.324 384.267L394.007 377.83L395.928 375.593L400.73 369.071L403.611 364.815L410.333 353.82L412.254 351.679L415.135 348.781L417.056 346.353L418.977 343.263L420.898 339.607L422.818 335.503L424.739 330.798L426.66 324.972L428.581 317.379L430.501 307.74L433.383 290.557L436.264 273.317L438.184 263.611L439.145 259.634L440.105 256.357L441.066 253.837L442.026 252.105L442.986 251.167L443.947 251.007L444.907 251.6L445.867 252.912L446.828 254.905L447.788 257.538L448.749 260.761L450.669 268.754L452.59 278.483L454.511 289.664L457.392 308.457L463.154 347.032L466.035 364.125L467.956 374.021L469.877 382.489L471.798 389.456L473.718 394.963L475.639 399.178L477.56 402.37L479.481 404.787L481.401 406.584L483.322 407.851L485.243 408.683L487.164 409.2L490.045 409.63L494.847 409.974L501.569 410.107L503.49 410.111" fill="#EFEFEF" fill-opacity="0.4"/>
<path d="M312.375 410.111L323.9 409.984L328.701 409.642L332.543 409.031L337.345 407.94L341.186 406.798L344.067 405.575L350.79 402.282L354.632 400.915L357.513 399.86L359.433 398.935L362.315 397.171L365.196 395.391L368.077 394.034L375.76 391.004L379.601 388.908L383.443 386.489L386.324 384.267L394.007 377.83L395.928 375.593L400.73 369.071L403.611 364.815L410.333 353.82L412.254 351.679L415.135 348.781L417.056 346.353L418.977 343.263L420.898 339.607L422.818 335.503L424.739 330.798L426.66 324.972L428.581 317.379L430.501 307.74L433.383 290.557L436.264 273.317L438.184 263.611L439.145 259.634L440.105 256.357L441.066 253.837L442.026 252.105L442.986 251.167L443.947 251.007L444.907 251.6L445.867 252.912L446.828 254.905L447.788 257.538L448.749 260.761L450.669 268.754L452.59 278.483L454.511 289.664L457.392 308.457L463.154 347.032L466.035 364.125L467.956 374.021L469.877 382.489L471.798 389.456L473.718 394.963L475.639 399.178L477.56 402.37L479.481 404.787L481.401 406.584L483.322 407.851L485.243 408.683L487.164 409.2L490.045 409.63L494.847 409.974L501.569 410.107L503.49 410.111" stroke="#EFEFEF" stroke-linecap="square"/>
</g>
<mask id="mask7_230_9278" style="mask-type:luminance" maskUnits="userSpaceOnUse" x="76" y="55" width="477" height="356">
<path d="M552.957 55.2959H76.7969V410.112H552.957V55.2959Z" fill="white"/>
</mask>
<g mask="url(#mask7_230_9278)">
<path d="M311.367 410.111L322.42 409.975L331.262 409.452L335.683 409.071L337.893 408.711L340.104 408.114L342.314 407.161L344.525 405.748L346.735 403.834L348.945 401.445L351.156 398.589L353.366 395.157L355.577 390.888L357.787 385.453L359.998 378.603L362.208 370.233L364.419 360.369L367.735 343.355L373.261 313.958L375.471 303.696L377.682 295.3L378.787 292.028L379.892 289.479L380.998 287.717L382.103 286.788L383.208 286.711L384.313 287.468L385.419 288.989L386.524 291.146L388.734 296.621L392.05 305.02L398.681 320.344L401.997 328.58L404.208 333.189L406.418 336.785L408.629 339.536L410.839 341.673L413.05 343.393L418.576 347.098L420.786 348.158L422.997 348.637L426.313 348.855L427.418 349.082L428.523 349.473L430.734 350.705L437.365 355.329L439.575 357.14L441.786 359.245L443.996 361.621L446.207 364.345L448.417 367.506L464.996 393.104L467.207 395.828L469.417 398.218L471.628 400.295L473.838 402.063L477.154 404.216L480.469 405.936L483.785 407.247L487.101 408.138L491.522 408.917L497.048 409.524L503.68 409.946L509.206 409.973L518.048 409.989L531.311 410.111" fill="#EFEFEF" fill-opacity="0.4"/>
<path d="M311.367 410.111L322.42 409.975L331.262 409.452L335.683 409.071L337.893 408.711L340.104 408.114L342.314 407.161L344.525 405.748L346.735 403.834L348.945 401.445L351.156 398.589L353.366 395.157L355.577 390.888L357.787 385.453L359.998 378.603L362.208 370.233L364.419 360.369L367.735 343.355L373.261 313.958L375.471 303.696L377.682 295.3L378.787 292.028L379.892 289.479L380.998 287.717L382.103 286.788L383.208 286.711L384.313 287.468L385.419 288.989L386.524 291.146L388.734 296.621L392.05 305.02L398.681 320.344L401.997 328.58L404.208 333.189L406.418 336.785L408.629 339.536L410.839 341.673L413.05 343.393L418.576 347.098L420.786 348.158L422.997 348.637L426.313 348.855L427.418 349.082L428.523 349.473L430.734 350.705L437.365 355.329L439.575 357.14L441.786 359.245L443.996 361.621L446.207 364.345L448.417 367.506L464.996 393.104L467.207 395.828L469.417 398.218L471.628 400.295L473.838 402.063L477.154 404.216L480.469 405.936L483.785 407.247L487.101 408.138L491.522 408.917L497.048 409.524L503.68 409.946L509.206 409.973L518.048 409.989L531.311 410.111" stroke="#EFEFEF" stroke-linecap="square"/>
</g>
<mask id="mask8_230_9278" style="mask-type:luminance" maskUnits="userSpaceOnUse" x="76" y="55" width="477" height="356">
<path d="M552.957 55.2959H76.7969V410.112H552.957V55.2959Z" fill="white"/>
</mask>
<g mask="url(#mask8_230_9278)">
<path d="M337.266 410.111L350.492 409.927L357.106 409.77L358.759 409.904L360.412 409.681L364.546 408.609L367.025 408.586L369.505 408.327L371.159 408.471L372.812 408.597L373.639 408.368L375.292 407.329L376.945 406.318L378.599 405.693L380.252 405.41L381.905 405.416L383.559 405.091L385.212 404.513L386.039 404.005L386.865 403.277L387.692 402.307L388.519 401.025L390.172 397.551L391.825 393.561L393.479 388.199L395.959 379.066L396.785 375.193L397.612 370.264L399.265 357.732L400.092 350.181L400.919 341.234L402.572 318.619L406.705 254.558L408.359 224.597L410.012 189.641L412.492 135.532L414.145 107.233L414.972 95.4741L415.799 85.9647L416.625 79.8174L417.452 78.1143L418.279 81.2432L419.105 88.5418L419.932 98.8577L421.585 126.018L423.239 160.433L425.719 214.872L427.372 244.297L432.332 319.03L433.985 338.3L435.639 352.546L437.292 364.4L439.772 379.498L441.425 387.458L443.079 393.877L443.905 396.284L444.732 397.945L446.385 400.476L448.865 405.072L449.692 405.893L451.345 406.767L453.825 407.886L455.478 408.34L459.612 409.074L461.265 409.52L463.745 409.74L486.065 410.031L489.372 410.079L494.332 410.094L499.292 410.073L501.772 410.111" fill="#EFEFEF" fill-opacity="0.4"/>
<path d="M337.266 410.111L350.492 409.927L357.106 409.77L358.759 409.904L360.412 409.681L364.546 408.609L367.025 408.586L369.505 408.327L371.159 408.471L372.812 408.597L373.639 408.368L375.292 407.329L376.945 406.318L378.599 405.693L380.252 405.41L381.905 405.416L383.559 405.091L385.212 404.513L386.039 404.005L386.865 403.277L387.692 402.307L388.519 401.025L390.172 397.551L391.825 393.561L393.479 388.199L395.959 379.066L396.785 375.193L397.612 370.264L399.265 357.732L400.092 350.181L400.919 341.234L402.572 318.619L406.705 254.558L408.359 224.597L410.012 189.641L412.492 135.532L414.145 107.233L414.972 95.4741L415.799 85.9647L416.625 79.8174L417.452 78.1143L418.279 81.2432L419.105 88.5418L419.932 98.8577L421.585 126.018L423.239 160.433L425.719 214.872L427.372 244.297L432.332 319.03L433.985 338.3L435.639 352.546L437.292 364.4L439.772 379.498L441.425 387.458L443.079 393.877L443.905 396.284L444.732 397.945L446.385 400.476L448.865 405.072L449.692 405.893L451.345 406.767L453.825 407.886L455.478 408.34L459.612 409.074L461.265 409.52L463.745 409.74L486.065 410.031L489.372 410.079L494.332 410.094L499.292 410.073L501.772 410.111" stroke="#EFEFEF" stroke-linecap="square"/>
</g>
<mask id="mask9_230_9278" style="mask-type:luminance" maskUnits="userSpaceOnUse" x="76" y="55" width="477" height="356">
<path d="M552.957 55.2959H76.7969V410.112H552.957V55.2959Z" fill="white"/>
</mask>
<g mask="url(#mask9_230_9278)">
<path d="M302.898 410.112L313.262 409.993L318.443 409.68L322.588 409.095L325.697 408.346L328.806 407.324L331.915 405.939L333.988 404.707L336.06 403.14L338.133 401.09L340.206 398.383L342.278 394.979L344.351 390.927L346.423 386.22L348.496 380.835L350.569 374.812L352.641 368.045L354.714 360.131L356.787 350.702L359.895 334.203L365.077 306.007L369.222 284.79L371.295 275.212L373.367 267.438L374.404 264.486L375.44 262.22L376.476 260.637L377.513 259.704L378.549 259.38L379.585 259.624L380.622 260.394L381.658 261.638L382.694 263.289L384.767 267.504L386.839 272.661L388.912 278.991L390.985 286.933L393.057 296.4L401.348 337.262L403.42 344.854L404.457 347.845L406.529 352.544L408.602 356.258L414.82 366.315L416.892 369.351L418.965 371.872L422.074 374.96L425.183 377.662L427.256 379.071L430.364 381.008L432.437 382.754L436.582 386.602L438.655 387.884L442.8 389.945L444.873 391.328L447.982 393.931L451.091 396.557L454.2 398.626L461.454 402.802L465.599 404.812L468.708 406.007L472.853 407.208L478.035 408.444L482.18 409.131L486.325 409.52L494.616 409.904L509.124 410.111" fill="#EFEFEF" fill-opacity="0.4"/>
<path d="M302.898 410.112L313.262 409.993L318.443 409.68L322.588 409.095L325.697 408.346L328.806 407.324L331.915 405.939L333.988 404.707L336.06 403.14L338.133 401.09L340.206 398.383L342.278 394.979L344.351 390.927L346.423 386.22L348.496 380.835L350.569 374.812L352.641 368.045L354.714 360.131L356.787 350.702L359.895 334.203L365.077 306.007L369.222 284.79L371.295 275.212L373.367 267.438L374.404 264.486L375.44 262.22L376.476 260.637L377.513 259.704L378.549 259.38L379.585 259.624L380.622 260.394L381.658 261.638L382.694 263.289L384.767 267.504L386.839 272.661L388.912 278.991L390.985 286.933L393.057 296.4L401.348 337.262L403.42 344.854L404.457 347.845L406.529 352.544L408.602 356.258L414.82 366.315L416.892 369.351L418.965 371.872L422.074 374.96L425.183 377.662L427.256 379.071L430.364 381.008L432.437 382.754L436.582 386.602L438.655 387.884L442.8 389.945L444.873 391.328L447.982 393.931L451.091 396.557L454.2 398.626L461.454 402.802L465.599 404.812L468.708 406.007L472.853 407.208L478.035 408.444L482.18 409.131L486.325 409.52L494.616 409.904L509.124 410.111" stroke="#EFEFEF" stroke-linecap="square"/>
</g>
<mask id="mask10_230_9278" style="mask-type:luminance" maskUnits="userSpaceOnUse" x="76" y="55" width="477" height="356">
<path d="M552.957 55.2959H76.7969V410.112H552.957V55.2959Z" fill="white"/>
</mask>
<g mask="url(#mask10_230_9278)">
<path d="M310.297 410.111L319.861 409.964L325.174 409.72L327.3 409.353L329.425 408.723L334.738 406.639L336.864 405.532L337.926 404.743L338.989 403.742L341.114 401.094L343.24 397.553L344.302 395.326L345.365 392.667L346.428 389.475L347.49 385.666L348.553 381.182L350.679 370.055L352.804 355.796L354.929 338.058L357.055 317.097L359.18 293.421L361.305 266.337L363.431 235.203L366.619 187.069L367.681 173.418L368.744 162.133L369.807 153.747L370.869 148.668L371.932 147.187L372.995 149.461L374.057 155.487L375.12 165.059L376.183 177.761L378.308 209.855L381.496 261.983L383.621 291.9L385.747 316.298L387.872 335.741L389.998 350.714L391.06 356.603L392.123 361.542L394.248 369.293L396.374 375.468L398.499 380.688L400.624 384.749L401.687 386.317L403.812 388.688L405.938 390.244L408.063 391.189L416.564 393.902L424.003 394.979L428.254 395.29L430.379 395.159L433.567 394.716L435.693 394.806L437.818 395.289L442.069 396.597L447.382 398.506L450.57 399.084L452.695 399.55L454.821 400.498L456.946 401.894L460.134 404.084L462.259 405.22L464.385 406.048L468.635 407.299L473.949 408.573L477.137 409.179L480.325 409.461L487.764 409.79L493.077 410.012L502.641 410.073L511.143 410.067L521.769 410.112" fill="#EFEFEF" fill-opacity="0.4"/>
<path d="M310.297 410.111L319.861 409.964L325.174 409.72L327.3 409.353L329.425 408.723L334.738 406.639L336.864 405.532L337.926 404.743L338.989 403.742L341.114 401.094L343.24 397.553L344.302 395.326L345.365 392.667L346.428 389.475L347.49 385.666L348.553 381.182L350.679 370.055L352.804 355.796L354.929 338.058L357.055 317.097L359.18 293.421L361.305 266.337L363.431 235.203L366.619 187.069L367.681 173.418L368.744 162.133L369.807 153.747L370.869 148.668L371.932 147.187L372.995 149.461L374.057 155.487L375.12 165.059L376.183 177.761L378.308 209.855L381.496 261.983L383.621 291.9L385.747 316.298L387.872 335.741L389.998 350.714L391.06 356.603L392.123 361.542L394.248 369.293L396.374 375.468L398.499 380.688L400.624 384.749L401.687 386.317L403.812 388.688L405.938 390.244L408.063 391.189L416.564 393.902L424.003 394.979L428.254 395.29L430.379 395.159L433.567 394.716L435.693 394.806L437.818 395.289L442.069 396.597L447.382 398.506L450.57 399.084L452.695 399.55L454.821 400.498L456.946 401.894L460.134 404.084L462.259 405.22L464.385 406.048L468.635 407.299L473.949 408.573L477.137 409.179L480.325 409.461L487.764 409.79L493.077 410.012L502.641 410.073L511.143 410.067L521.769 410.112" stroke="#EFEFEF" stroke-linecap="square"/>
</g>
<mask id="mask11_230_9278" style="mask-type:luminance" maskUnits="userSpaceOnUse" x="76" y="55" width="477" height="356">
<path d="M552.957 55.2959H76.7969V410.112H552.957V55.2959Z" fill="white"/>
</mask>
<g mask="url(#mask11_230_9278)">
<path d="M314.141 410.112L333.646 409.986L337.547 409.686L342.423 408.956L345.349 408.305L347.3 407.527L349.25 406.257L351.201 404.363L353.151 401.754L355.102 398.333L357.052 393.947L359.003 388.329L360.953 381.098L362.904 371.95L364.854 360.945L367.78 342.045L376.558 283.085L378.508 274.082L379.483 270.658L380.459 267.89L381.434 265.708L382.409 264.061L383.384 262.938L384.36 262.367L385.335 262.405L386.31 263.113L387.285 264.539L388.261 266.701L389.236 269.574L391.187 277.121L394.112 290.879L397.038 304.441L399.964 316.34L402.89 326.576L404.84 332.551L406.791 337.714L408.741 341.808L410.692 344.715L412.642 346.721L415.568 349.386L420.444 354.354L422.395 355.623L425.321 356.92L429.222 358.385L432.148 359.223L433.123 359.676L434.098 360.337L435.073 361.247L437.024 363.72L439.95 367.826L441.9 369.951L446.777 374.217L448.727 376.586L450.678 379.495L457.505 390.677L459.455 393.121L462.381 396.167L467.257 400.773L470.183 403.182L473.109 405.223L476.035 406.781L478.96 407.907L481.886 408.709L484.812 409.177L490.664 409.665L497.49 410.019L507.243 410.111L508.218 410.112" fill="#EFEFEF" fill-opacity="0.4"/>
<path d="M314.141 410.112L333.646 409.986L337.547 409.686L342.423 408.956L345.349 408.305L347.3 407.527L349.25 406.257L351.201 404.363L353.151 401.754L355.102 398.333L357.052 393.947L359.003 388.329L360.953 381.098L362.904 371.95L364.854 360.945L367.78 342.045L376.558 283.085L378.508 274.082L379.483 270.658L380.459 267.89L381.434 265.708L382.409 264.061L383.384 262.938L384.36 262.367L385.335 262.405L386.31 263.113L387.285 264.539L388.261 266.701L389.236 269.574L391.187 277.121L394.112 290.879L397.038 304.441L399.964 316.34L402.89 326.576L404.84 332.551L406.791 337.714L408.741 341.808L410.692 344.715L412.642 346.721L415.568 349.386L420.444 354.354L422.395 355.623L425.321 356.92L429.222 358.385L432.148 359.223L433.123 359.676L434.098 360.337L435.073 361.247L437.024 363.72L439.95 367.826L441.9 369.951L446.777 374.217L448.727 376.586L450.678 379.495L457.505 390.677L459.455 393.121L462.381 396.167L467.257 400.773L470.183 403.182L473.109 405.223L476.035 406.781L478.96 407.907L481.886 408.709L484.812 409.177L490.664 409.665L497.49 410.019L507.243 410.111L508.218 410.112" stroke="#EFEFEF" stroke-linecap="square"/>
</g>
<mask id="mask12_230_9278" style="mask-type:luminance" maskUnits="userSpaceOnUse" x="76" y="55" width="477" height="356">
<path d="M552.957 55.2959H76.7969V410.112H552.957V55.2959Z" fill="white"/>
</mask>
<g mask="url(#mask12_230_9278)">
<path d="M338.984 410.111L350.002 409.956L352.205 409.808L357.346 409.256L359.55 409.001L363.957 408.408L365.426 408.329L369.098 408.493L372.036 407.848L377.177 406.843L380.85 405.417L384.522 404.573L385.991 403.807L387.46 402.423L388.929 400.378L391.133 397.034L394.07 393.413L394.805 392.051L395.539 390.262L397.008 385.447L399.212 376.489L404.353 353.547L405.822 344.679L407.291 333.374L410.229 307.828L412.432 285.945L417.574 229.982L419.043 216.396L420.512 206.203L422.715 194.296L424.184 187.55L424.919 185.25L425.653 183.837L426.388 183.146L427.122 182.904L427.857 182.922L428.591 183.206L429.326 183.928L430.06 185.299L430.794 187.484L431.529 190.584L432.263 194.655L433.732 205.676L435.201 219.926L440.343 275.333L442.546 297.555L446.219 336.297L448.422 355.057L450.625 371.688L452.094 380.649L453.563 388.099L455.032 393.942L455.767 396.108L457.236 399.178L460.174 403.748L461.643 405.624L463.112 406.987L465.315 408.485L466.784 409.151L468.253 409.521L470.456 409.695L485.146 410.111" fill="#EFEFEF" fill-opacity="0.4"/>
<path d="M338.984 410.111L350.002 409.956L352.205 409.808L357.346 409.256L359.55 409.001L363.957 408.408L365.426 408.329L369.098 408.493L372.036 407.848L377.177 406.843L380.85 405.417L384.522 404.573L385.991 403.807L387.46 402.423L388.929 400.378L391.133 397.034L394.07 393.413L394.805 392.051L395.539 390.262L397.008 385.447L399.212 376.489L404.353 353.547L405.822 344.679L407.291 333.374L410.229 307.828L412.432 285.945L417.574 229.982L419.043 216.396L420.512 206.203L422.715 194.296L424.184 187.55L424.919 185.25L425.653 183.837L426.388 183.146L427.122 182.904L427.857 182.922L428.591 183.206L429.326 183.928L430.06 185.299L430.794 187.484L431.529 190.584L432.263 194.655L433.732 205.676L435.201 219.926L440.343 275.333L442.546 297.555L446.219 336.297L448.422 355.057L450.625 371.688L452.094 380.649L453.563 388.099L455.032 393.942L455.767 396.108L457.236 399.178L460.174 403.748L461.643 405.624L463.112 406.987L465.315 408.485L466.784 409.151L468.253 409.521L470.456 409.695L485.146 410.111" stroke="#EFEFEF" stroke-linecap="square"/>
</g>
<mask id="mask13_230_9278" style="mask-type:luminance" maskUnits="userSpaceOnUse" x="76" y="55" width="477" height="356">
<path d="M552.957 55.2959H76.7969V410.112H552.957V55.2959Z" fill="white"/>
</mask>
<g mask="url(#mask13_230_9278)">
<path d="M320.359 410.112L340.371 409.975L344.183 409.691L347.042 409.133L349.9 408.257L352.759 407.058L355.618 405.433L357.524 404.052L359.43 402.366L361.336 400.285L363.241 397.766L366.1 393.322L369.912 386.687L373.724 379.332L383.253 360.089L385.159 356.827L387.065 353.996L388.971 351.566L391.829 348.492L395.641 344.797L397.547 342.458L399.453 339.558L403.265 333.379L406.123 329.408L411.841 321.738L414.7 317.021L417.559 312.203L418.512 310.907L419.464 309.865L420.417 309.092L421.37 308.57L423.276 308.069L427.088 307.761L428.994 307.768L430.9 308.216L432.806 309.29L434.711 310.956L436.617 313.119L438.523 315.714L443.288 322.65L447.1 327.595L449.005 330.666L450.911 334.32L457.582 348.338L460.441 355.172L468.064 374.793L476.64 394.139L478.546 397.682L480.452 400.492L482.358 402.678L484.264 404.446L487.123 406.581L489.029 407.668L490.934 408.473L493.793 409.25L496.652 409.696L500.464 409.99L507.134 410.108L509.993 410.112" fill="#EFEFEF" fill-opacity="0.4"/>
<path d="M320.359 410.112L340.371 409.975L344.183 409.691L347.042 409.133L349.9 408.257L352.759 407.058L355.618 405.433L357.524 404.052L359.43 402.366L361.336 400.285L363.241 397.766L366.1 393.322L369.912 386.687L373.724 379.332L383.253 360.089L385.159 356.827L387.065 353.996L388.971 351.566L391.829 348.492L395.641 344.797L397.547 342.458L399.453 339.558L403.265 333.379L406.123 329.408L411.841 321.738L414.7 317.021L417.559 312.203L418.512 310.907L419.464 309.865L420.417 309.092L421.37 308.57L423.276 308.069L427.088 307.761L428.994 307.768L430.9 308.216L432.806 309.29L434.711 310.956L436.617 313.119L438.523 315.714L443.288 322.65L447.1 327.595L449.005 330.666L450.911 334.32L457.582 348.338L460.441 355.172L468.064 374.793L476.64 394.139L478.546 397.682L480.452 400.492L482.358 402.678L484.264 404.446L487.123 406.581L489.029 407.668L490.934 408.473L493.793 409.25L496.652 409.696L500.464 409.99L507.134 410.108L509.993 410.112" stroke="#EFEFEF" stroke-linecap="square"/>
</g>
<mask id="mask14_230_9278" style="mask-type:luminance" maskUnits="userSpaceOnUse" x="76" y="55" width="477" height="356">
<path d="M552.957 55.2959H76.7969V410.112H552.957V55.2959Z" fill="white"/>
</mask>
<g mask="url(#mask14_230_9278)">
<path d="M98.4375 410.112L272.627 409.95L280.922 409.542L285.069 409.057L289.217 408.089L291.29 407.361L293.364 406.451L295.438 405.345L297.511 404.035L301.659 400.874L305.806 397.305L309.953 393.264L312.027 390.873L314.101 388.133L316.174 384.975L318.248 381.34L320.322 377.213L324.469 367.809L330.69 353.274L341.059 330.177L343.132 326.446L345.206 323.328L347.28 320.692L349.353 318.383L351.427 316.36L353.501 314.715L355.575 313.56L357.648 312.92L359.722 312.75L361.796 313.013L363.869 313.703L365.943 314.83L368.017 316.416L370.09 318.504L372.164 321.12L374.238 324.21L380.459 334.705L384.606 341.878L392.901 357.046L394.975 360.183L397.048 362.721L399.122 364.682L401.196 366.222L405.343 368.962L407.417 370.516L411.564 374.203L419.859 382.449L421.932 384.051L426.08 386.571L450.964 400.702L459.259 405.074L461.332 405.943L465.48 407.159L473.775 408.824L477.922 409.375L484.143 409.697L496.585 410.02L511.101 410.112" fill="#7EB0D5" fill-opacity="0.4"/>
<path d="M98.4375 410.112L272.627 409.95L280.922 409.542L285.069 409.057L289.217 408.089L291.29 407.361L293.364 406.451L295.438 405.345L297.511 404.035L301.659 400.874L305.806 397.305L309.953 393.264L312.027 390.873L314.101 388.133L316.174 384.975L318.248 381.34L320.322 377.213L324.469 367.809L330.69 353.274L341.059 330.177L343.132 326.446L345.206 323.328L347.28 320.692L349.353 318.383L351.427 316.36L353.501 314.715L355.575 313.56L357.648 312.92L359.722 312.75L361.796 313.013L363.869 313.703L365.943 314.83L368.017 316.416L370.09 318.504L372.164 321.12L374.238 324.21L380.459 334.705L384.606 341.878L392.901 357.046L394.975 360.183L397.048 362.721L399.122 364.682L401.196 366.222L405.343 368.962L407.417 370.516L411.564 374.203L419.859 382.449L421.932 384.051L426.08 386.571L450.964 400.702L459.259 405.074L461.332 405.943L465.48 407.159L473.775 408.824L477.922 409.375L484.143 409.697L496.585 410.02L511.101 410.112" stroke="#7EB0D5" stroke-linecap="square"/>
</g>
<path d="M535.061 411.061C535.646 410.475 535.646 409.525 535.061 408.939L525.515 399.393C524.929 398.808 523.979 398.808 523.393 399.393C522.808 399.979 522.808 400.929 523.393 401.515L531.879 410L523.393 418.485C522.808 419.071 522.808 420.021 523.393 420.607C523.979 421.192 524.929 421.192 525.515 420.607L535.061 411.061ZM79 411.5H534V408.5H79V411.5Z" fill="black"/>
</g>
<defs>
<clipPath id="clip0_230_9278">
<rect width="614.4" height="460.8" fill="white"/>
</clipPath>
</defs>
</svg>
