<svg width="615" height="461" viewBox="0 0 615 461" fill="none" xmlns="http://www.w3.org/2000/svg">
<g clip-path="url(#clip0_230_9998)">
<mask id="mask0_230_9998" style="mask-type:luminance" maskUnits="userSpaceOnUse" x="76" y="55" width="477" height="356">
<path d="M552.957 55.2959H76.7969V410.112H552.957V55.2959Z" fill="white"/>
</mask>
<g mask="url(#mask0_230_9998)">
<path d="M311.188 410.111L317.059 409.966L322.197 409.917L327.334 410.075L333.206 410.062L336.141 410.045L338.343 409.796L343.481 408.988L346.417 408.562L348.618 408.264L351.554 408.146L353.022 407.68L355.958 406.024L359.627 403.896L361.095 402.753L362.563 401.263L364.031 399.063L365.499 396.005L367.701 391.125L370.636 385.457L372.838 379.937L376.508 370.723L377.976 366.772L378.71 364.257L380.178 357.549L382.379 344.49L384.581 330.12L386.049 318.883L388.251 298.384L394.856 230.323L396.324 212.766L399.994 161.732L401.462 146.743L404.398 119.986L405.132 114.427L405.865 110.074L408.801 96.6961L410.269 88.2968L411.003 85.2697L411.737 83.8506L412.471 84.2874L413.205 86.6223L413.939 90.8414L414.673 96.9039L416.141 113.594L419.076 150.502L421.278 178.018L422.746 200.07L427.15 271.103L430.819 319.33L433.021 344.481L435.223 365.939L436.691 377.095L438.159 385.922L439.627 393.308L441.094 399.179L442.562 403.237L444.03 405.862L445.498 407.527L446.966 408.444L449.168 409.105L452.837 409.931L455.773 410.102L457.241 410.111" fill="#EFEFEF" fill-opacity="0.4"/>
<path d="M311.188 410.111L317.059 409.966L322.197 409.917L327.334 410.075L333.206 410.062L336.141 410.045L338.343 409.796L343.481 408.988L346.417 408.562L348.618 408.264L351.554 408.146L353.022 407.68L355.958 406.024L359.627 403.896L361.095 402.753L362.563 401.263L364.031 399.063L365.499 396.005L367.701 391.125L370.636 385.457L372.838 379.937L376.508 370.723L377.976 366.772L378.71 364.257L380.178 357.549L382.379 344.49L384.581 330.12L386.049 318.883L388.251 298.384L394.856 230.323L396.324 212.766L399.994 161.732L401.462 146.743L404.398 119.986L405.132 114.427L405.865 110.074L408.801 96.6961L410.269 88.2968L411.003 85.2697L411.737 83.8506L412.471 84.2874L413.205 86.6223L413.939 90.8414L414.673 96.9039L416.141 113.594L419.076 150.502L421.278 178.018L422.746 200.07L427.15 271.103L430.819 319.33L433.021 344.481L435.223 365.939L436.691 377.095L438.159 385.922L439.627 393.308L441.094 399.179L442.562 403.237L444.03 405.862L445.498 407.527L446.966 408.444L449.168 409.105L452.837 409.931L455.773 410.102L457.241 410.111" stroke="#EFEFEF" stroke-linecap="square"/>
</g>
<mask id="mask1_230_9998" style="mask-type:luminance" maskUnits="userSpaceOnUse" x="76" y="55" width="477" height="356">
<path d="M552.957 55.2959H76.7969V410.112H552.957V55.2959Z" fill="white"/>
</mask>
<g mask="url(#mask1_230_9998)">
<path d="M307.469 410.111L336.328 409.943L343.775 409.261L349.361 408.301L352.154 407.606L354.016 406.76L355.877 405.473L358.67 403.01L360.532 400.855L361.463 399.386L362.394 397.533L363.325 395.259L365.187 389.619L370.772 370.399L372.634 362.89L374.496 353.642L376.358 342.76L386.598 277.52L389.391 259.246L391.253 249.175L396.839 222.036L398.7 214.624L404.286 195.29L405.217 192.8L406.148 191.203L407.079 190.661L408.01 191.134L408.941 192.386L412.665 199.003L414.526 201.763L415.457 203.375L416.388 205.376L417.319 207.929L418.25 211.174L419.181 215.203L421.043 225.481L426.629 259.944L442.454 350.067L444.316 358.817L446.178 366.306L448.971 376.259L451.764 384.924L453.626 389.757L455.488 393.818L457.349 397.196L459.211 399.875L461.073 401.858L462.935 403.295L464.797 404.297L469.452 406.306L473.175 408.148L475.037 408.794L477.83 409.412L480.623 409.752L486.208 409.977L492.725 410.11" fill="#EFEFEF" fill-opacity="0.4"/>
<path d="M307.469 410.111L336.328 409.943L343.775 409.261L349.361 408.301L352.154 407.606L354.016 406.76L355.877 405.473L358.67 403.01L360.532 400.855L361.463 399.386L362.394 397.533L363.325 395.259L365.187 389.619L370.772 370.399L372.634 362.89L374.496 353.642L376.358 342.76L386.598 277.52L389.391 259.246L391.253 249.175L396.839 222.036L398.7 214.624L404.286 195.29L405.217 192.8L406.148 191.203L407.079 190.661L408.01 191.134L408.941 192.386L412.665 199.003L414.526 201.763L415.457 203.375L416.388 205.376L417.319 207.929L418.25 211.174L419.181 215.203L421.043 225.481L426.629 259.944L442.454 350.067L444.316 358.817L446.178 366.306L448.971 376.259L451.764 384.924L453.626 389.757L455.488 393.818L457.349 397.196L459.211 399.875L461.073 401.858L462.935 403.295L464.797 404.297L469.452 406.306L473.175 408.148L475.037 408.794L477.83 409.412L480.623 409.752L486.208 409.977L492.725 410.11" stroke="#EFEFEF" stroke-linecap="square"/>
</g>
<mask id="mask2_230_9998" style="mask-type:luminance" maskUnits="userSpaceOnUse" x="76" y="55" width="477" height="356">
<path d="M552.957 55.2959H76.7969V410.112H552.957V55.2959Z" fill="white"/>
</mask>
<g mask="url(#mask2_230_9998)">
<path d="M259.039 410.111L284.517 409.925L290.887 409.662L295.134 409.554L299.38 409.412L301.503 409.136L303.626 408.528L309.996 406.033L313.181 405.147L315.304 403.997L317.427 402.414L319.55 400.506L321.674 397.93L323.797 394.448L325.92 390.177L334.413 371.587L336.536 365.477L338.659 358.282L340.782 350.3L343.967 336.969L346.09 326.959L348.214 315.062L351.398 293.908L358.83 243.94L362.014 220.385L364.138 208.203L366.261 199.201L368.384 191.769L370.507 185.483L371.569 183.281L372.63 182.114L373.692 182.15L374.754 183.314L375.815 185.298L379 192.839L381.123 198.553L383.246 205.588L385.37 213.837L386.431 218.535L387.493 223.916L388.554 230.262L390.678 246.188L393.862 273.149L395.986 288.359L399.17 307.429L404.478 338.024L408.725 359.739L410.848 369.766L412.971 378.575L414.033 382.278L415.094 385.395L416.156 387.915L417.218 389.923L419.341 393.068L422.526 397.667L424.649 400.796L426.772 403.351L428.895 405.176L431.018 406.515L433.142 407.572L435.265 408.377L438.45 409.188L441.635 409.701L444.819 409.952L452.251 410.108L470.298 410.111" fill="#EFEFEF" fill-opacity="0.4"/>
<path d="M259.039 410.111L284.517 409.925L290.887 409.662L295.134 409.554L299.38 409.412L301.503 409.136L303.626 408.528L309.996 406.033L313.181 405.147L315.304 403.997L317.427 402.414L319.55 400.506L321.674 397.93L323.797 394.448L325.92 390.177L334.413 371.587L336.536 365.477L338.659 358.282L340.782 350.3L343.967 336.969L346.09 326.959L348.214 315.062L351.398 293.908L358.83 243.94L362.014 220.385L364.138 208.203L366.261 199.201L368.384 191.769L370.507 185.483L371.569 183.281L372.63 182.114L373.692 182.15L374.754 183.314L375.815 185.298L379 192.839L381.123 198.553L383.246 205.588L385.37 213.837L386.431 218.535L387.493 223.916L388.554 230.262L390.678 246.188L393.862 273.149L395.986 288.359L399.17 307.429L404.478 338.024L408.725 359.739L410.848 369.766L412.971 378.575L414.033 382.278L415.094 385.395L416.156 387.915L417.218 389.923L419.341 393.068L422.526 397.667L424.649 400.796L426.772 403.351L428.895 405.176L431.018 406.515L433.142 407.572L435.265 408.377L438.45 409.188L441.635 409.701L444.819 409.952L452.251 410.108L470.298 410.111" stroke="#EFEFEF" stroke-linecap="square"/>
</g>
<mask id="mask3_230_9998" style="mask-type:luminance" maskUnits="userSpaceOnUse" x="76" y="55" width="477" height="356">
<path d="M552.957 55.2959H76.7969V410.112H552.957V55.2959Z" fill="white"/>
</mask>
<g mask="url(#mask3_230_9998)">
<path d="M282.477 410.111L297.734 409.959L302.819 409.796L314.008 409.73L317.059 409.251L323.162 407.882L326.214 406.673L329.265 405.554L332.316 404.615L334.351 403.485L336.385 401.848L338.419 399.725L339.436 398.351L340.454 396.66L341.471 394.591L343.505 389.271L345.539 382.728L349.608 368.465L351.642 359.934L353.676 349.163L355.711 335.991L357.745 320.377L359.779 302.246L362.831 270.821L366.899 227.945L368.934 209.712L370.968 194.24L373.002 181.156L375.036 170.415L377.071 161.874L378.088 158.353L379.105 155.428L380.122 153.3L381.139 152.225L382.156 152.449L383.173 154.185L384.191 157.596L385.208 162.776L386.225 169.664L388.259 187.022L390.293 204.819L392.328 219.763L399.448 265.743L401.482 276.15L405.551 294.394L407.585 306.279L410.636 326.242L411.653 331.806L412.671 336.449L414.705 343.792L417.756 354.417L419.791 361.326L421.825 366.753L426.91 378.563L429.962 385.858L431.996 389.915L434.03 393.057L440.133 401.342L442.168 403.425L443.185 404.216L444.202 404.803L445.219 405.185L447.253 405.514L450.305 405.887L452.339 406.427L458.442 408.357L461.493 408.983L465.562 409.44L473.699 409.947L484.887 410.111" fill="#EFEFEF" fill-opacity="0.4"/>
<path d="M282.477 410.111L297.734 409.959L302.819 409.796L314.008 409.73L317.059 409.251L323.162 407.882L326.214 406.673L329.265 405.554L332.316 404.615L334.351 403.485L336.385 401.848L338.419 399.725L339.436 398.351L340.454 396.66L341.471 394.591L343.505 389.271L345.539 382.728L349.608 368.465L351.642 359.934L353.676 349.163L355.711 335.991L357.745 320.377L359.779 302.246L362.831 270.821L366.899 227.945L368.934 209.712L370.968 194.24L373.002 181.156L375.036 170.415L377.071 161.874L378.088 158.353L379.105 155.428L380.122 153.3L381.139 152.225L382.156 152.449L383.173 154.185L384.191 157.596L385.208 162.776L386.225 169.664L388.259 187.022L390.293 204.819L392.328 219.763L399.448 265.743L401.482 276.15L405.551 294.394L407.585 306.279L410.636 326.242L411.653 331.806L412.671 336.449L414.705 343.792L417.756 354.417L419.791 361.326L421.825 366.753L426.91 378.563L429.962 385.858L431.996 389.915L434.03 393.057L440.133 401.342L442.168 403.425L443.185 404.216L444.202 404.803L445.219 405.185L447.253 405.514L450.305 405.887L452.339 406.427L458.442 408.357L461.493 408.983L465.562 409.44L473.699 409.947L484.887 410.111" stroke="#EFEFEF" stroke-linecap="square"/>
</g>
<mask id="mask4_230_9998" style="mask-type:luminance" maskUnits="userSpaceOnUse" x="76" y="55" width="477" height="356">
<path d="M552.957 55.2959H76.7969V410.112H552.957V55.2959Z" fill="white"/>
</mask>
<g mask="url(#mask4_230_9998)">
<path d="M221.219 410.111L259.608 409.909L267.909 409.163L269.984 408.846L275.171 407.779L280.359 406.755L282.434 406.21L284.509 405.402L286.584 404.397L288.66 403.007L290.735 400.874L292.81 398.016L294.885 394.527L297.997 389.229L300.073 385.903L301.11 383.79L302.148 381.167L304.223 374.447L306.298 366.182L308.373 356.443L310.448 344.88L312.523 331.315L315.636 308.143L318.749 282.601L324.974 229.185L329.124 200.089L332.237 177.456L334.312 165.109L335.349 160.17L336.387 156.322L337.424 153.717L338.462 152.314L339.5 151.864L340.537 152.06L341.575 152.706L342.612 153.79L343.65 155.446L344.687 157.895L345.725 161.383L346.762 166.122L347.8 172.241L348.837 179.782L350.913 198.642L355.063 240.415L358.175 268.417L361.288 294.054L363.363 309.399L365.438 322.682L368.551 340.575L370.626 351.043L376.851 379.209L378.926 385.965L381.002 391.363L383.077 396.133L384.114 398.042L385.152 399.536L387.227 401.64L389.302 403.327L391.377 404.573L393.452 405.173L395.527 405.707L397.602 406.603L401.753 408.602L403.828 409.197L405.903 409.42L412.128 409.746L418.353 409.979L427.691 410.111" fill="#EFEFEF" fill-opacity="0.4"/>
<path d="M221.219 410.111L259.608 409.909L267.909 409.163L269.984 408.846L275.171 407.779L280.359 406.755L282.434 406.21L284.509 405.402L286.584 404.397L288.66 403.007L290.735 400.874L292.81 398.016L294.885 394.527L297.997 389.229L300.073 385.903L301.11 383.79L302.148 381.167L304.223 374.447L306.298 366.182L308.373 356.443L310.448 344.88L312.523 331.315L315.636 308.143L318.749 282.601L324.974 229.185L329.124 200.089L332.237 177.456L334.312 165.109L335.349 160.17L336.387 156.322L337.424 153.717L338.462 152.314L339.5 151.864L340.537 152.06L341.575 152.706L342.612 153.79L343.65 155.446L344.687 157.895L345.725 161.383L346.762 166.122L347.8 172.241L348.837 179.782L350.913 198.642L355.063 240.415L358.175 268.417L361.288 294.054L363.363 309.399L365.438 322.682L368.551 340.575L370.626 351.043L376.851 379.209L378.926 385.965L381.002 391.363L383.077 396.133L384.114 398.042L385.152 399.536L387.227 401.64L389.302 403.327L391.377 404.573L393.452 405.173L395.527 405.707L397.602 406.603L401.753 408.602L403.828 409.197L405.903 409.42L412.128 409.746L418.353 409.979L427.691 410.111" stroke="#EFEFEF" stroke-linecap="square"/>
</g>
<mask id="mask5_230_9998" style="mask-type:luminance" maskUnits="userSpaceOnUse" x="76" y="55" width="477" height="356">
<path d="M552.957 55.2959H76.7969V410.112H552.957V55.2959Z" fill="white"/>
</mask>
<g mask="url(#mask5_230_9998)">
<path d="M297.594 410.111L312.513 409.922L321.63 409.329L324.116 409.156L328.26 409.145L329.918 408.873L336.549 406.972L338.206 406.083L341.522 403.889L344.837 402.102L345.666 401.431L346.495 400.558L348.152 398.113L349.81 394.762L353.125 387.278L354.783 383.702L356.441 378.931L358.098 372.778L359.756 365.316L361.413 356.408L363.071 345.339L364.729 330.848L367.215 304.318L369.702 275.529L372.188 242.55L374.675 203.846L377.161 164.947L381.305 107.719L382.134 97.6983L382.963 89.6496L383.792 83.9167L384.621 80.2547L385.449 77.9666L387.936 73.1498L388.765 72.1924L389.594 72.5156L390.422 74.9313L391.251 80.024L392.08 87.7632L394.567 117.923L396.224 139.359L397.882 165.902L400.368 209.066L402.855 244.555L406.17 287.697L408.657 315.086L410.314 331.208L411.972 344.023L414.458 359.501L416.945 373.96L418.603 381.628L420.26 387.323L421.918 391.728L425.233 399.559L426.891 402.575L427.72 403.639L429.377 405.059L431.864 406.409L433.521 407.001L443.467 409.297L446.783 409.603L460.873 410.102L462.53 410.111" fill="#EFEFEF" fill-opacity="0.4"/>
<path d="M297.594 410.111L312.513 409.922L321.63 409.329L324.116 409.156L328.26 409.145L329.918 408.873L336.549 406.972L338.206 406.083L341.522 403.889L344.837 402.102L345.666 401.431L346.495 400.558L348.152 398.113L349.81 394.762L353.125 387.278L354.783 383.702L356.441 378.931L358.098 372.778L359.756 365.316L361.413 356.408L363.071 345.339L364.729 330.848L367.215 304.318L369.702 275.529L372.188 242.55L374.675 203.846L377.161 164.947L381.305 107.719L382.134 97.6983L382.963 89.6496L383.792 83.9167L384.621 80.2547L385.449 77.9666L387.936 73.1498L388.765 72.1924L389.594 72.5156L390.422 74.9313L391.251 80.024L392.08 87.7632L394.567 117.923L396.224 139.359L397.882 165.902L400.368 209.066L402.855 244.555L406.17 287.697L408.657 315.086L410.314 331.208L411.972 344.023L414.458 359.501L416.945 373.96L418.603 381.628L420.26 387.323L421.918 391.728L425.233 399.559L426.891 402.575L427.72 403.639L429.377 405.059L431.864 406.409L433.521 407.001L443.467 409.297L446.783 409.603L460.873 410.102L462.53 410.111" stroke="#EFEFEF" stroke-linecap="square"/>
</g>
<mask id="mask6_230_9998" style="mask-type:luminance" maskUnits="userSpaceOnUse" x="76" y="55" width="477" height="356">
<path d="M552.957 55.2959H76.7969V410.112H552.957V55.2959Z" fill="white"/>
</mask>
<g mask="url(#mask6_230_9998)">
<path d="M311.312 410.111L327.376 409.939L334.873 409.517L339.156 408.973L347.724 407.505L349.865 406.477L352.007 404.866L354.149 402.752L356.291 400.202L358.433 396.973L360.574 392.828L362.716 387.709L364.858 381.667L368.071 371.565L370.213 364.017L371.284 359.551L373.425 348.561L377.709 324.348L379.851 312.683L381.993 298.225L388.418 250.641L390.56 237.109L393.773 219.767L396.985 203.548L399.127 193.88L401.269 185.661L403.411 179.062L404.482 176.565L405.553 174.74L406.624 173.634L407.695 173.266L408.766 173.703L409.836 175.097L410.907 177.624L411.978 181.396L413.049 186.431L414.12 192.687L416.262 208.385L420.546 243.167L425.9 281.429L428.042 294.716L431.255 312.654L436.609 346.78L438.751 357.035L440.893 365.497L443.035 372.569L445.177 378.013L447.318 382.019L449.46 385.699L454.815 396.172L455.886 397.662L456.957 398.879L459.098 400.669L461.24 401.799L465.524 403.547L473.02 407.294L475.162 407.896L478.375 408.371L482.659 408.62L488.013 408.788L491.226 409.195L496.58 409.968L499.793 410.045L510.502 409.874L521.211 410.097L524.424 410.111" fill="#EFEFEF" fill-opacity="0.4"/>
<path d="M311.312 410.111L327.376 409.939L334.873 409.517L339.156 408.973L347.724 407.505L349.865 406.477L352.007 404.866L354.149 402.752L356.291 400.202L358.433 396.973L360.574 392.828L362.716 387.709L364.858 381.667L368.071 371.565L370.213 364.017L371.284 359.551L373.425 348.561L377.709 324.348L379.851 312.683L381.993 298.225L388.418 250.641L390.56 237.109L393.773 219.767L396.985 203.548L399.127 193.88L401.269 185.661L403.411 179.062L404.482 176.565L405.553 174.74L406.624 173.634L407.695 173.266L408.766 173.703L409.836 175.097L410.907 177.624L411.978 181.396L413.049 186.431L414.12 192.687L416.262 208.385L420.546 243.167L425.9 281.429L428.042 294.716L431.255 312.654L436.609 346.78L438.751 357.035L440.893 365.497L443.035 372.569L445.177 378.013L447.318 382.019L449.46 385.699L454.815 396.172L455.886 397.662L456.957 398.879L459.098 400.669L461.24 401.799L465.524 403.547L473.02 407.294L475.162 407.896L478.375 408.371L482.659 408.62L488.013 408.788L491.226 409.195L496.58 409.968L499.793 410.045L510.502 409.874L521.211 410.097L524.424 410.111" stroke="#EFEFEF" stroke-linecap="square"/>
</g>
<mask id="mask7_230_9998" style="mask-type:luminance" maskUnits="userSpaceOnUse" x="76" y="55" width="477" height="356">
<path d="M552.957 55.2959H76.7969V410.112H552.957V55.2959Z" fill="white"/>
</mask>
<g mask="url(#mask7_230_9998)">
<path d="M252.25 410.111L287.849 409.925L292.596 409.527L303.275 408.097L305.648 407.43L308.022 406.47L310.395 405.272L312.768 403.77L315.142 401.75L317.515 399.026L319.888 395.475L322.261 391.101L324.635 386.091L327.008 380.437L329.381 373.776L331.754 365.707L334.128 356.194L338.874 335.192L342.434 318.444L351.927 271.962L355.487 257.304L359.047 243.832L361.42 236.56L363.793 230.923L364.98 228.597L366.167 226.635L367.353 225.173L368.54 224.387L369.727 224.401L370.913 225.203L372.1 226.619L376.846 233.803L378.033 235.961L379.22 238.709L380.406 242.174L382.78 250.678L395.833 299.432L398.206 307.742L404.139 329.757L407.699 340.764L410.072 347.456L412.445 353.299L416.005 361.428L418.379 367.548L421.939 377.001L424.312 382.397L426.685 386.975L429.058 390.788L431.432 393.676L433.805 395.777L438.551 399.619L443.298 403.72L446.858 406.289L449.231 407.603L451.604 408.375L453.978 408.727L467.031 409.815L474.15 410.001L488.39 410.111" fill="#EFEFEF" fill-opacity="0.4"/>
<path d="M252.25 410.111L287.849 409.925L292.596 409.527L303.275 408.097L305.648 407.43L308.022 406.47L310.395 405.272L312.768 403.77L315.142 401.75L317.515 399.026L319.888 395.475L322.261 391.101L324.635 386.091L327.008 380.437L329.381 373.776L331.754 365.707L334.128 356.194L338.874 335.192L342.434 318.444L351.927 271.962L355.487 257.304L359.047 243.832L361.42 236.56L363.793 230.923L364.98 228.597L366.167 226.635L367.353 225.173L368.54 224.387L369.727 224.401L370.913 225.203L372.1 226.619L376.846 233.803L378.033 235.961L379.22 238.709L380.406 242.174L382.78 250.678L395.833 299.432L398.206 307.742L404.139 329.757L407.699 340.764L410.072 347.456L412.445 353.299L416.005 361.428L418.379 367.548L421.939 377.001L424.312 382.397L426.685 386.975L429.058 390.788L431.432 393.676L433.805 395.777L438.551 399.619L443.298 403.72L446.858 406.289L449.231 407.603L451.604 408.375L453.978 408.727L467.031 409.815L474.15 410.001L488.39 410.111" stroke="#EFEFEF" stroke-linecap="square"/>
</g>
<mask id="mask8_230_9998" style="mask-type:luminance" maskUnits="userSpaceOnUse" x="76" y="55" width="477" height="356">
<path d="M552.957 55.2959H76.7969V410.112H552.957V55.2959Z" fill="white"/>
</mask>
<g mask="url(#mask8_230_9998)">
<path d="M303.086 410.111L321.323 409.96L326.08 409.649L334.01 409.713L337.974 409.461L341.146 409.397L343.525 409.057L345.903 408.621L348.282 408.6L349.868 408.56L351.454 408.227L355.418 406.972L357.004 406.67L357.797 406.32L359.383 405.042L365.726 398.315L367.312 395.657L368.898 392.289L370.484 388.23L372.862 381.182L375.241 373.023L376.827 366.525L378.413 358.193L379.999 347.448L385.549 305.209L387.135 289.416L389.514 260.623L395.064 191.404L396.65 177.113L399.029 156.294L402.993 116.1L403.786 110.428L404.579 106.174L406.165 100.483L407.751 96.0864L408.544 94.8184L409.337 95.1323L410.129 97.5166L410.922 101.811L414.887 130.263L416.473 143.617L418.059 161.152L423.609 233.372L427.574 290.729L429.952 320.373L432.331 346.228L433.917 361.377L435.503 374.275L437.089 384.246L438.674 391.314L440.26 396.563L441.846 400.687L443.432 403.542L445.018 405.32L446.604 406.558L448.982 407.968L450.568 408.686L452.154 409.157L456.912 409.919L459.29 410.089L460.876 410.109" fill="#EFEFEF" fill-opacity="0.4"/>
<path d="M303.086 410.111L321.323 409.96L326.08 409.649L334.01 409.713L337.974 409.461L341.146 409.397L343.525 409.057L345.903 408.621L348.282 408.6L349.868 408.56L351.454 408.227L355.418 406.972L357.004 406.67L357.797 406.32L359.383 405.042L365.726 398.315L367.312 395.657L368.898 392.289L370.484 388.23L372.862 381.182L375.241 373.023L376.827 366.525L378.413 358.193L379.999 347.448L385.549 305.209L387.135 289.416L389.514 260.623L395.064 191.404L396.65 177.113L399.029 156.294L402.993 116.1L403.786 110.428L404.579 106.174L406.165 100.483L407.751 96.0864L408.544 94.8184L409.337 95.1323L410.129 97.5166L410.922 101.811L414.887 130.263L416.473 143.617L418.059 161.152L423.609 233.372L427.574 290.729L429.952 320.373L432.331 346.228L433.917 361.377L435.503 374.275L437.089 384.246L438.674 391.314L440.26 396.563L441.846 400.687L443.432 403.542L445.018 405.32L446.604 406.558L448.982 407.968L450.568 408.686L452.154 409.157L456.912 409.919L459.29 410.089L460.876 410.109" stroke="#EFEFEF" stroke-linecap="square"/>
</g>
<mask id="mask9_230_9998" style="mask-type:luminance" maskUnits="userSpaceOnUse" x="76" y="55" width="477" height="356">
<path d="M552.957 55.2959H76.7969V410.112H552.957V55.2959Z" fill="white"/>
</mask>
<g mask="url(#mask9_230_9998)">
<path d="M283.039 410.111L289.277 409.971L294.267 409.889L298.01 409.737L303.001 409.458L307.991 409.163L310.486 408.731L312.981 407.818L321.715 403.465L322.962 402.49L324.21 401.251L326.705 398.072L329.2 394.303L331.695 389.631L337.933 376.217L339.181 372.634L340.429 367.891L341.676 361.87L344.171 347.031L346.667 329.957L349.162 310.523L352.904 278.215L359.142 219.589L361.638 199.398L364.133 182.516L365.38 175.502L366.628 169.503L367.876 164.833L369.123 161.667L370.371 159.885L371.618 159.33L372.866 159.995L374.114 161.834L379.104 172.22L380.352 174.772L381.599 178.546L382.847 184.185L384.094 191.712L386.59 210.43L392.828 261.343L399.066 315.321L402.808 341.768L405.304 358.019L406.551 365.102L407.799 371.222L409.046 376.368L410.294 380.589L411.542 383.953L412.789 386.602L417.78 395.213L419.027 397.251L420.275 398.906L421.522 400.166L425.265 403.112L427.76 404.97L429.008 405.73L430.256 406.282L432.751 406.849L436.493 407.191L438.989 407.482L445.227 408.848L453.96 409.421L461.445 409.239L470.179 410.001L475.169 410.1L488.893 410.105L518.835 410.094L527.568 410.086L531.311 410.111" fill="#EFEFEF" fill-opacity="0.4"/>
<path d="M283.039 410.111L289.277 409.971L294.267 409.889L298.01 409.737L303.001 409.458L307.991 409.163L310.486 408.731L312.981 407.818L321.715 403.465L322.962 402.49L324.21 401.251L326.705 398.072L329.2 394.303L331.695 389.631L337.933 376.217L339.181 372.634L340.429 367.891L341.676 361.87L344.171 347.031L346.667 329.957L349.162 310.523L352.904 278.215L359.142 219.589L361.638 199.398L364.133 182.516L365.38 175.502L366.628 169.503L367.876 164.833L369.123 161.667L370.371 159.885L371.618 159.33L372.866 159.995L374.114 161.834L379.104 172.22L380.352 174.772L381.599 178.546L382.847 184.185L384.094 191.712L386.59 210.43L392.828 261.343L399.066 315.321L402.808 341.768L405.304 358.019L406.551 365.102L407.799 371.222L409.046 376.368L410.294 380.589L411.542 383.953L412.789 386.602L417.78 395.213L419.027 397.251L420.275 398.906L421.522 400.166L425.265 403.112L427.76 404.97L429.008 405.73L430.256 406.282L432.751 406.849L436.493 407.191L438.989 407.482L445.227 408.848L453.96 409.421L461.445 409.239L470.179 410.001L475.169 410.1L488.893 410.105L518.835 410.094L527.568 410.086L531.311 410.111" stroke="#EFEFEF" stroke-linecap="square"/>
</g>
<mask id="mask10_230_9998" style="mask-type:luminance" maskUnits="userSpaceOnUse" x="76" y="55" width="477" height="356">
<path d="M552.957 55.2959H76.7969V410.112H552.957V55.2959Z" fill="white"/>
</mask>
<g mask="url(#mask10_230_9998)">
<path d="M247.422 410.111L293.968 409.927L303.768 409.473L307.442 409.286L311.117 409.171L313.567 408.806L318.466 407.545L320.916 406.821L322.141 406.305L324.591 404.788L329.491 401.253L331.94 399.402L333.165 398.154L334.39 396.635L336.84 392.933L339.29 388.568L342.965 381.218L345.414 375.331L346.639 371.753L349.089 363.197L351.539 353.296L353.989 342.346L356.439 329.345L358.888 313.54L362.563 286.342L369.913 228.81L371.137 221.387L372.362 215.539L373.587 211.255L374.812 208.227L376.037 205.974L379.712 200.409L380.937 198.994L382.162 198.301L383.386 198.63L384.611 200.05L385.836 202.322L389.511 210.022L390.736 212.421L391.961 215.27L393.186 219.026L394.411 223.908L396.86 236.398L401.76 263.096L406.66 287.528L411.559 310.581L416.459 332.563L418.909 343.599L421.359 353.083L425.033 365.091L427.483 372.649L429.933 379.278L432.383 384.533L434.833 388.533L443.407 400.408L444.632 401.752L445.857 402.843L447.082 403.682L449.531 404.886L454.431 407.05L456.881 407.792L461.781 408.871L465.455 409.339L476.479 409.92L483.829 409.993L491.178 410.111" fill="#EFEFEF" fill-opacity="0.4"/>
<path d="M247.422 410.111L293.968 409.927L303.768 409.473L307.442 409.286L311.117 409.171L313.567 408.806L318.466 407.545L320.916 406.821L322.141 406.305L324.591 404.788L329.491 401.253L331.94 399.402L333.165 398.154L334.39 396.635L336.84 392.933L339.29 388.568L342.965 381.218L345.414 375.331L346.639 371.753L349.089 363.197L351.539 353.296L353.989 342.346L356.439 329.345L358.888 313.54L362.563 286.342L369.913 228.81L371.137 221.387L372.362 215.539L373.587 211.255L374.812 208.227L376.037 205.974L379.712 200.409L380.937 198.994L382.162 198.301L383.386 198.63L384.611 200.05L385.836 202.322L389.511 210.022L390.736 212.421L391.961 215.27L393.186 219.026L394.411 223.908L396.86 236.398L401.76 263.096L406.66 287.528L411.559 310.581L416.459 332.563L418.909 343.599L421.359 353.083L425.033 365.091L427.483 372.649L429.933 379.278L432.383 384.533L434.833 388.533L443.407 400.408L444.632 401.752L445.857 402.843L447.082 403.682L449.531 404.886L454.431 407.05L456.881 407.792L461.781 408.871L465.455 409.339L476.479 409.92L483.829 409.993L491.178 410.111" stroke="#EFEFEF" stroke-linecap="square"/>
</g>
<mask id="mask11_230_9998" style="mask-type:luminance" maskUnits="userSpaceOnUse" x="76" y="55" width="477" height="356">
<path d="M552.957 55.2959H76.7969V410.112H552.957V55.2959Z" fill="white"/>
</mask>
<g mask="url(#mask11_230_9998)">
<path d="M269.953 410.111L282.857 409.992L288.813 409.72L292.783 409.706L296.754 409.406L300.724 408.802L304.694 408.249L306.68 407.94L308.665 407.374L310.65 406.551L312.635 405.508L314.621 404.089L316.606 402.157L321.569 396.674L326.532 391.976L327.524 390.308L328.517 388.144L330.502 382.626L336.458 364.775L338.443 357.073L342.414 340.073L344.399 330.291L346.384 317.613L349.362 294.018L355.317 245.825L357.303 229.394L359.288 209.226L362.266 175.83L363.258 166.449L364.251 158.702L365.244 152.665L366.236 148.254L367.229 145.329L368.221 143.765L369.214 143.438L370.207 144.164L371.199 145.675L373.184 150.012L374.177 152.79L375.17 156.42L376.162 161.419L377.155 168.107L379.14 185.69L382.118 213.731L392.044 298.12L398 341.146L399.985 352.098L401.97 360.88L403.955 368.542L405.94 374.8L407.926 379.613L413.881 392.607L415.867 395.87L417.852 398.301L420.83 401.108L423.807 403.704L425.793 405.129L427.778 406.254L429.763 407.12L432.741 407.986L436.711 408.696L441.674 409.371L461.527 410.011L467.482 410.111" fill="#EFEFEF" fill-opacity="0.4"/>
<path d="M269.953 410.111L282.857 409.992L288.813 409.72L292.783 409.706L296.754 409.406L300.724 408.802L304.694 408.249L306.68 407.94L308.665 407.374L310.65 406.551L312.635 405.508L314.621 404.089L316.606 402.157L321.569 396.674L326.532 391.976L327.524 390.308L328.517 388.144L330.502 382.626L336.458 364.775L338.443 357.073L342.414 340.073L344.399 330.291L346.384 317.613L349.362 294.018L355.317 245.825L357.303 229.394L359.288 209.226L362.266 175.83L363.258 166.449L364.251 158.702L365.244 152.665L366.236 148.254L367.229 145.329L368.221 143.765L369.214 143.438L370.207 144.164L371.199 145.675L373.184 150.012L374.177 152.79L375.17 156.42L376.162 161.419L377.155 168.107L379.14 185.69L382.118 213.731L392.044 298.12L398 341.146L399.985 352.098L401.97 360.88L403.955 368.542L405.94 374.8L407.926 379.613L413.881 392.607L415.867 395.87L417.852 398.301L420.83 401.108L423.807 403.704L425.793 405.129L427.778 406.254L429.763 407.12L432.741 407.986L436.711 408.696L441.674 409.371L461.527 410.011L467.482 410.111" stroke="#EFEFEF" stroke-linecap="square"/>
</g>
<mask id="mask12_230_9998" style="mask-type:luminance" maskUnits="userSpaceOnUse" x="76" y="55" width="477" height="356">
<path d="M552.957 55.2959H76.7969V410.112H552.957V55.2959Z" fill="white"/>
</mask>
<g mask="url(#mask12_230_9998)">
<path d="M315.414 410.111L332.136 409.97L339.177 409.671L341.817 409.527L352.379 407.941L354.139 407.336L356.779 405.846L361.18 403.278L362.94 401.796L364.7 399.898L366.46 397.234L370.861 389.305L372.621 387.344L374.381 385.48L375.262 384.139L376.142 382.334L377.022 380.014L378.782 374.052L382.302 360.203L384.063 352.274L385.823 341.954L387.583 328.838L394.624 270.361L399.025 228.908L402.545 200.862L408.706 154.299L410.466 143.853L411.346 139.868L412.226 136.839L413.106 134.791L413.986 133.709L414.866 133.57L415.747 134.348L416.627 136.014L417.507 138.571L418.387 142.091L419.267 146.692L420.147 152.428L421.907 166.642L425.428 198.87L438.629 324.063L441.27 343.605L443.03 354.995L444.79 364.942L446.55 373.583L448.311 381.034L450.071 386.907L451.831 391.05L453.591 394.11L457.992 400.777L459.752 403.193L461.512 405.192L463.273 406.667L465.033 407.703L466.793 408.413L469.433 409.061L472.074 409.351L488.796 410.105L490.556 410.111" fill="#EFEFEF" fill-opacity="0.4"/>
<path d="M315.414 410.111L332.136 409.97L339.177 409.671L341.817 409.527L352.379 407.941L354.139 407.336L356.779 405.846L361.18 403.278L362.94 401.796L364.7 399.898L366.46 397.234L370.861 389.305L372.621 387.344L374.381 385.48L375.262 384.139L376.142 382.334L377.022 380.014L378.782 374.052L382.302 360.203L384.063 352.274L385.823 341.954L387.583 328.838L394.624 270.361L399.025 228.908L402.545 200.862L408.706 154.299L410.466 143.853L411.346 139.868L412.226 136.839L413.106 134.791L413.986 133.709L414.866 133.57L415.747 134.348L416.627 136.014L417.507 138.571L418.387 142.091L419.267 146.692L420.147 152.428L421.907 166.642L425.428 198.87L438.629 324.063L441.27 343.605L443.03 354.995L444.79 364.942L446.55 373.583L448.311 381.034L450.071 386.907L451.831 391.05L453.591 394.11L457.992 400.777L459.752 403.193L461.512 405.192L463.273 406.667L465.033 407.703L466.793 408.413L469.433 409.061L472.074 409.351L488.796 410.105L490.556 410.111" stroke="#EFEFEF" stroke-linecap="square"/>
</g>
<mask id="mask13_230_9998" style="mask-type:luminance" maskUnits="userSpaceOnUse" x="76" y="55" width="477" height="356">
<path d="M552.957 55.2959H76.7969V410.112H552.957V55.2959Z" fill="white"/>
</mask>
<g mask="url(#mask13_230_9998)">
<path d="M261.188 410.111L305.953 409.96L318.052 409.154L321.681 408.94L324.101 408.499L326.521 407.809L328.941 406.908L331.36 405.684L339.83 400.423L341.039 399.348L342.249 397.864L343.459 395.919L344.669 393.522L347.089 387.584L349.509 380.489L351.928 372.424L354.348 362.822L355.558 357.046L357.978 343.109L360.398 326.453L366.447 280.957L368.867 266.944L372.496 248.03L376.126 227.602L377.336 222.136L378.546 217.96L379.756 215.091L380.965 213.352L382.175 212.491L383.385 212.278L384.595 212.542L385.805 213.154L387.015 214.015L389.435 216.26L391.854 219.093L394.274 222.597L395.484 224.854L396.694 227.704L397.904 231.28L400.323 240.202L402.743 249.261L406.373 261.408L407.583 266.235L410.002 277.737L414.842 302.749L417.262 313.612L419.682 323.029L430.57 362.429L432.99 368.897L437.83 379.559L440.249 384.75L442.669 389.123L445.089 392.599L448.719 397.11L451.138 399.661L453.558 401.621L455.978 403.077L458.398 404.135L471.706 408.522L475.336 409.203L480.175 409.601L486.225 409.798L494.694 410.026L501.953 410.111" fill="#EFEFEF" fill-opacity="0.4"/>
<path d="M261.188 410.111L305.953 409.96L318.052 409.154L321.681 408.94L324.101 408.499L326.521 407.809L328.941 406.908L331.36 405.684L339.83 400.423L341.039 399.348L342.249 397.864L343.459 395.919L344.669 393.522L347.089 387.584L349.509 380.489L351.928 372.424L354.348 362.822L355.558 357.046L357.978 343.109L360.398 326.453L366.447 280.957L368.867 266.944L372.496 248.03L376.126 227.602L377.336 222.136L378.546 217.96L379.756 215.091L380.965 213.352L382.175 212.491L383.385 212.278L384.595 212.542L385.805 213.154L387.015 214.015L389.435 216.26L391.854 219.093L394.274 222.597L395.484 224.854L396.694 227.704L397.904 231.28L400.323 240.202L402.743 249.261L406.373 261.408L407.583 266.235L410.002 277.737L414.842 302.749L417.262 313.612L419.682 323.029L430.57 362.429L432.99 368.897L437.83 379.559L440.249 384.75L442.669 389.123L445.089 392.599L448.719 397.11L451.138 399.661L453.558 401.621L455.978 403.077L458.398 404.135L471.706 408.522L475.336 409.203L480.175 409.601L486.225 409.798L494.694 410.026L501.953 410.111" stroke="#EFEFEF" stroke-linecap="square"/>
</g>
<mask id="mask14_230_9998" style="mask-type:luminance" maskUnits="userSpaceOnUse" x="76" y="55" width="477" height="356">
<path d="M552.957 55.2959H76.7969V410.112H552.957V55.2959Z" fill="white"/>
</mask>
<g mask="url(#mask14_230_9998)">
<path d="M98.4375 410.111L190.331 409.923L193.613 409.549L196.895 408.878L200.177 407.914L203.459 406.58L205.1 405.679L206.741 404.568L208.382 403.235L211.664 400.006L214.946 396.05L216.587 393.668L218.228 390.948L221.51 384.66L226.433 374.405L228.074 370.662L229.715 366.46L231.356 361.643L234.637 350.3L239.56 332.563L242.842 322.162L246.124 312.948L254.329 291.41L257.611 282.75L259.252 279.184L260.893 276.399L262.534 274.367L265.816 271.54L270.739 267.283L272.38 266.251L274.021 265.864L275.662 266.244L277.302 267.337L278.943 268.977L282.225 273.114L290.43 284.138L293.712 289.363L296.994 295.603L298.635 299.166L300.276 303.091L303.558 312.059L308.481 326.313L311.763 334.418L316.686 344.922L321.608 354.677L329.813 369.685L333.095 374.98L336.377 379.53L339.659 383.425L342.941 386.947L346.223 390.092L349.505 392.653L352.787 394.7L356.069 396.336L360.992 398.26L369.196 401.235L382.324 406.996L387.247 408.432L390.529 409.102L393.811 409.474L402.016 409.938L408.58 410.053L424.989 410.111" fill="#7EB0D5" fill-opacity="0.4"/>
<path d="M98.4375 410.111L190.331 409.923L193.613 409.549L196.895 408.878L200.177 407.914L203.459 406.58L205.1 405.679L206.741 404.568L208.382 403.235L211.664 400.006L214.946 396.05L216.587 393.668L218.228 390.948L221.51 384.66L226.433 374.405L228.074 370.662L229.715 366.46L231.356 361.643L234.637 350.3L239.56 332.563L242.842 322.162L246.124 312.948L254.329 291.41L257.611 282.75L259.252 279.184L260.893 276.399L262.534 274.367L265.816 271.54L270.739 267.283L272.38 266.251L274.021 265.864L275.662 266.244L277.302 267.337L278.943 268.977L282.225 273.114L290.43 284.138L293.712 289.363L296.994 295.603L298.635 299.166L300.276 303.091L303.558 312.059L308.481 326.313L311.763 334.418L316.686 344.922L321.608 354.677L329.813 369.685L333.095 374.98L336.377 379.53L339.659 383.425L342.941 386.947L346.223 390.092L349.505 392.653L352.787 394.7L356.069 396.336L360.992 398.26L369.196 401.235L382.324 406.996L387.247 408.432L390.529 409.102L393.811 409.474L402.016 409.938L408.58 410.053L424.989 410.111" stroke="#7EB0D5" stroke-linecap="square"/>
</g>
<path d="M535.061 411.061C535.646 410.475 535.646 409.525 535.061 408.939L525.515 399.393C524.929 398.808 523.979 398.808 523.393 399.393C522.808 399.979 522.808 400.929 523.393 401.515L531.879 410L523.393 418.485C522.808 419.071 522.808 420.021 523.393 420.607C523.979 421.192 524.929 421.192 525.515 420.607L535.061 411.061ZM79 411.5H534V408.5H79V411.5Z" fill="black"/>
</g>
<defs>
<clipPath id="clip0_230_9998">
<rect width="614.4" height="460.8" fill="white"/>
</clipPath>
</defs>
</svg>
