<svg width="615" height="461" viewBox="0 0 615 461" fill="none" xmlns="http://www.w3.org/2000/svg">
<g clip-path="url(#clip0_230_10958)">
<mask id="mask0_230_10958" style="mask-type:luminance" maskUnits="userSpaceOnUse" x="76" y="55" width="477" height="356">
<path d="M552.957 55.2959H76.7969V410.112H552.957V55.2959Z" fill="white"/>
</mask>
<g mask="url(#mask0_230_10958)">
<path d="M322.82 410.111L332.685 409.953L342.55 409.08L344.343 408.757L347.931 407.944L349.724 407.61L352.414 406.704L356.002 405.479L357.795 404.264L362.279 400.334L363.176 399.066L364.97 395.462L366.763 390.719L367.66 387.684L369.454 380.163L372.144 367.633L373.938 358.057L375.731 346.557L377.525 333.035L379.318 317.66L381.112 299.335L383.802 267.313L385.596 244.239L387.389 217.676L390.08 175.595L391.873 153.599L393.667 136.187L394.564 129.408L395.461 124.37L396.357 121.202L397.254 119.761L398.151 119.8L399.048 121.275L399.945 124.517L400.841 130.06L401.738 138.208L403.532 160.984L409.809 250.762L414.293 304.777L416.087 323.753L417.88 339.126L419.674 350.741L422.364 365.507L424.158 373.798L425.952 380.118L427.745 384.971L431.332 393.7L432.229 395.327L433.126 396.424L434.919 397.671L436.713 398.943L441.197 402.74L442.991 403.336L443.887 403.63L444.784 404.14L447.475 406.271L448.371 406.709L450.165 407.152L454.649 407.905L457.339 408.067L459.133 408.442L462.72 409.526L464.514 409.712L473.482 409.758L478.862 410.006L493.211 410.047L498.592 410.089L501.282 410.111" fill="#EFEFEF" fill-opacity="0.4"/>
<path d="M322.82 410.111L332.685 409.953L342.55 409.08L344.343 408.757L347.931 407.944L349.724 407.61L352.414 406.704L356.002 405.479L357.795 404.264L362.279 400.334L363.176 399.066L364.97 395.462L366.763 390.719L367.66 387.684L369.454 380.163L372.144 367.633L373.938 358.057L375.731 346.557L377.525 333.035L379.318 317.66L381.112 299.335L383.802 267.313L385.596 244.239L387.389 217.676L390.08 175.595L391.873 153.599L393.667 136.187L394.564 129.408L395.461 124.37L396.357 121.202L397.254 119.761L398.151 119.8L399.048 121.275L399.945 124.517L400.841 130.06L401.738 138.208L403.532 160.984L409.809 250.762L414.293 304.777L416.087 323.753L417.88 339.126L419.674 350.741L422.364 365.507L424.158 373.798L425.952 380.118L427.745 384.971L431.332 393.7L432.229 395.327L433.126 396.424L434.919 397.671L436.713 398.943L441.197 402.74L442.991 403.336L443.887 403.63L444.784 404.14L447.475 406.271L448.371 406.709L450.165 407.152L454.649 407.905L457.339 408.067L459.133 408.442L462.72 409.526L464.514 409.712L473.482 409.758L478.862 410.006L493.211 410.047L498.592 410.089L501.282 410.111" stroke="#EFEFEF" stroke-linecap="square"/>
</g>
<mask id="mask1_230_10958" style="mask-type:luminance" maskUnits="userSpaceOnUse" x="76" y="55" width="477" height="356">
<path d="M552.957 55.2959H76.7969V410.112H552.957V55.2959Z" fill="white"/>
</mask>
<g mask="url(#mask1_230_10958)">
<path d="M331.195 410.111L339.268 409.956L341.959 409.68L349.135 408.481L351.826 407.936L354.517 407.824L357.208 407.65L359.002 407.242L360.796 406.602L363.487 405.254L366.178 403.537L367.973 402.03L369.767 399.962L371.561 397.228L374.252 392.352L376.943 386.911L378.737 382.707L380.531 377.905L382.325 372.06L383.222 368.491L384.119 364.308L385.913 353.727L387.707 340.654L391.295 311.896L393.986 290.484L395.78 279.136L400.265 254.333L402.059 242.815L403.853 229.733L406.544 209.629L407.441 204.457L408.338 200.627L409.235 198.191L410.132 197.018L411.029 196.835L413.72 198.195L414.617 198.143L416.411 197.421L417.308 197.554L418.205 198.623L419.102 200.977L419.999 204.799L420.896 210.042L422.69 223.324L424.484 236.778L428.072 261.986L430.763 284.502L435.248 322.864L437.939 343.462L440.63 361.549L442.424 372.136L444.218 380.875L446.012 387.43L447.806 392.251L449.6 395.802L451.394 398.503L454.085 401.839L455.879 403.552L458.57 405.459L461.261 407.198L463.055 407.951L464.849 408.186L469.334 408.384L473.819 409.153L476.51 409.531L479.201 409.626L484.583 409.617L489.068 409.926L509.699 410.111" fill="#EFEFEF" fill-opacity="0.4"/>
<path d="M331.195 410.111L339.268 409.956L341.959 409.68L349.135 408.481L351.826 407.936L354.517 407.824L357.208 407.65L359.002 407.242L360.796 406.602L363.487 405.254L366.178 403.537L367.973 402.03L369.767 399.962L371.561 397.228L374.252 392.352L376.943 386.911L378.737 382.707L380.531 377.905L382.325 372.06L383.222 368.491L384.119 364.308L385.913 353.727L387.707 340.654L391.295 311.896L393.986 290.484L395.78 279.136L400.265 254.333L402.059 242.815L403.853 229.733L406.544 209.629L407.441 204.457L408.338 200.627L409.235 198.191L410.132 197.018L411.029 196.835L413.72 198.195L414.617 198.143L416.411 197.421L417.308 197.554L418.205 198.623L419.102 200.977L419.999 204.799L420.896 210.042L422.69 223.324L424.484 236.778L428.072 261.986L430.763 284.502L435.248 322.864L437.939 343.462L440.63 361.549L442.424 372.136L444.218 380.875L446.012 387.43L447.806 392.251L449.6 395.802L451.394 398.503L454.085 401.839L455.879 403.552L458.57 405.459L461.261 407.198L463.055 407.951L464.849 408.186L469.334 408.384L473.819 409.153L476.51 409.531L479.201 409.626L484.583 409.617L489.068 409.926L509.699 410.111" stroke="#EFEFEF" stroke-linecap="square"/>
</g>
<mask id="mask2_230_10958" style="mask-type:luminance" maskUnits="userSpaceOnUse" x="76" y="55" width="477" height="356">
<path d="M552.957 55.2959H76.7969V410.112H552.957V55.2959Z" fill="white"/>
</mask>
<g mask="url(#mask2_230_10958)">
<path d="M306.727 410.111L316.884 409.961L331.555 409.247L333.812 408.759L336.069 407.912L338.326 406.722L340.584 405.164L346.226 400.764L347.355 399.666L348.484 398.346L349.612 396.741L350.741 394.794L351.869 392.456L352.998 389.693L355.255 382.908L357.512 374.597L359.769 364.534L362.026 352.66L366.541 326.998L371.055 299.273L374.441 278.498L377.826 259.633L380.083 248.045L381.212 243.327L382.341 239.828L383.469 237.582L384.598 236.248L386.855 234.186L389.112 231.719L390.241 231.146L391.369 231.559L392.498 232.994L393.626 235.169L398.14 245.47L399.269 248.419L400.398 251.929L401.526 256.16L403.783 266.654L411.683 308.012L417.326 333.014L421.84 352.722L424.097 360.904L426.355 367.975L428.612 374.083L429.74 376.592L431.997 380.54L435.383 385.836L439.897 393.243L443.283 398.076L445.54 400.631L446.669 401.595L448.926 402.929L454.569 405.431L456.826 406.344L463.597 408.269L466.983 408.684L470.369 409.123L473.754 409.675L477.14 409.843L531.311 410.111" fill="#EFEFEF" fill-opacity="0.4"/>
<path d="M306.727 410.111L316.884 409.961L331.555 409.247L333.812 408.759L336.069 407.912L338.326 406.722L340.584 405.164L346.226 400.764L347.355 399.666L348.484 398.346L349.612 396.741L350.741 394.794L351.869 392.456L352.998 389.693L355.255 382.908L357.512 374.597L359.769 364.534L362.026 352.66L366.541 326.998L371.055 299.273L374.441 278.498L377.826 259.633L380.083 248.045L381.212 243.327L382.341 239.828L383.469 237.582L384.598 236.248L386.855 234.186L389.112 231.719L390.241 231.146L391.369 231.559L392.498 232.994L393.626 235.169L398.14 245.47L399.269 248.419L400.398 251.929L401.526 256.16L403.783 266.654L411.683 308.012L417.326 333.014L421.84 352.722L424.097 360.904L426.355 367.975L428.612 374.083L429.74 376.592L431.997 380.54L435.383 385.836L439.897 393.243L443.283 398.076L445.54 400.631L446.669 401.595L448.926 402.929L454.569 405.431L456.826 406.344L463.597 408.269L466.983 408.684L470.369 409.123L473.754 409.675L477.14 409.843L531.311 410.111" stroke="#EFEFEF" stroke-linecap="square"/>
</g>
<mask id="mask3_230_10958" style="mask-type:luminance" maskUnits="userSpaceOnUse" x="76" y="55" width="477" height="356">
<path d="M552.957 55.2959H76.7969V410.112H552.957V55.2959Z" fill="white"/>
</mask>
<g mask="url(#mask3_230_10958)">
<path d="M325.531 410.11L329.378 409.967L333.224 409.649L344.764 409.123L347.649 408.486L350.534 408.427L352.457 408.191L354.38 407.524L356.304 406.607L358.227 405.382L360.15 403.813L362.073 401.876L363.997 399.326L364.958 397.632L365.92 395.374L366.882 392.414L369.766 382.472L371.69 376.637L372.651 372.82L374.575 363.329L376.498 352.466L378.421 338.205L382.268 303.755L387.076 256.122L389.961 223.514L394.769 164.988L396.692 147.374L397.654 139.626L398.616 134.119L399.577 131.714L400.539 131.65L402.462 133.221L403.424 135.177L404.385 139.257L406.309 152.133L408.232 167.284L409.194 176.993L411.117 200.554L413.04 227.377L417.848 302.969L419.772 328.355L421.695 348.461L423.618 364.459L425.541 377.692L427.465 387.956L428.426 391.929L429.388 395.06L430.35 397.38L432.273 400.526L435.158 404.297L437.081 406.178L439.004 407.466L440.928 408.389L441.889 408.643L443.812 408.742L445.736 408.8L451.505 409.537L454.39 409.909L468.815 410.055L473.623 409.921L484.201 410.111L516.897 410.11" fill="#EFEFEF" fill-opacity="0.4"/>
<path d="M325.531 410.11L329.378 409.967L333.224 409.649L344.764 409.123L347.649 408.486L350.534 408.427L352.457 408.191L354.38 407.524L356.304 406.607L358.227 405.382L360.15 403.813L362.073 401.876L363.997 399.326L364.958 397.632L365.92 395.374L366.882 392.414L369.766 382.472L371.69 376.637L372.651 372.82L374.575 363.329L376.498 352.466L378.421 338.205L382.268 303.755L387.076 256.122L389.961 223.514L394.769 164.988L396.692 147.374L397.654 139.626L398.616 134.119L399.577 131.714L400.539 131.65L402.462 133.221L403.424 135.177L404.385 139.257L406.309 152.133L408.232 167.284L409.194 176.993L411.117 200.554L413.04 227.377L417.848 302.969L419.772 328.355L421.695 348.461L423.618 364.459L425.541 377.692L427.465 387.956L428.426 391.929L429.388 395.06L430.35 397.38L432.273 400.526L435.158 404.297L437.081 406.178L439.004 407.466L440.928 408.389L441.889 408.643L443.812 408.742L445.736 408.8L451.505 409.537L454.39 409.909L468.815 410.055L473.623 409.921L484.201 410.111L516.897 410.11" stroke="#EFEFEF" stroke-linecap="square"/>
</g>
<mask id="mask4_230_10958" style="mask-type:luminance" maskUnits="userSpaceOnUse" x="76" y="55" width="477" height="356">
<path d="M552.957 55.2959H76.7969V410.112H552.957V55.2959Z" fill="white"/>
</mask>
<g mask="url(#mask4_230_10958)">
<path d="M284.367 410.111L326.863 409.926L331.458 409.483L337.2 408.803L339.497 408.141L352.131 402.909L353.28 402.182L354.428 401.158L355.577 399.759L356.726 397.955L357.874 395.745L360.171 390.262L363.617 380.493L365.914 373.028L367.062 368.441L368.211 363.023L370.508 350.185L373.954 329.256L376.251 313.116L381.994 268.901L386.588 234.013L388.885 216.55L390.033 209.484L391.182 204.604L392.33 201.933L393.479 200.769L394.628 200.275L395.776 199.998L396.925 199.893L398.073 200.071L399.222 200.721L400.37 202.241L401.519 205.175L402.667 209.777L404.964 222.409L407.262 237.452L411.856 272.374L415.301 294.073L418.747 317.565L421.044 331.536L423.341 344.025L425.638 354.311L427.935 363.211L431.381 375.144L433.678 382.106L435.975 387.625L438.272 392.233L440.569 396.013L441.718 397.407L442.866 398.469L448.609 402.821L450.906 404.612L452.055 405.186L453.203 405.511L456.649 406.019L458.946 406.953L461.243 408.074L463.54 408.802L465.837 409.045L470.432 409.293L475.026 409.66L489.957 409.988L494.551 409.934L500.294 410.098L512.928 410.111" fill="#EFEFEF" fill-opacity="0.4"/>
<path d="M284.367 410.111L326.863 409.926L331.458 409.483L337.2 408.803L339.497 408.141L352.131 402.909L353.28 402.182L354.428 401.158L355.577 399.759L356.726 397.955L357.874 395.745L360.171 390.262L363.617 380.493L365.914 373.028L367.062 368.441L368.211 363.023L370.508 350.185L373.954 329.256L376.251 313.116L381.994 268.901L386.588 234.013L388.885 216.55L390.033 209.484L391.182 204.604L392.33 201.933L393.479 200.769L394.628 200.275L395.776 199.998L396.925 199.893L398.073 200.071L399.222 200.721L400.37 202.241L401.519 205.175L402.667 209.777L404.964 222.409L407.262 237.452L411.856 272.374L415.301 294.073L418.747 317.565L421.044 331.536L423.341 344.025L425.638 354.311L427.935 363.211L431.381 375.144L433.678 382.106L435.975 387.625L438.272 392.233L440.569 396.013L441.718 397.407L442.866 398.469L448.609 402.821L450.906 404.612L452.055 405.186L453.203 405.511L456.649 406.019L458.946 406.953L461.243 408.074L463.54 408.802L465.837 409.045L470.432 409.293L475.026 409.66L489.957 409.988L494.551 409.934L500.294 410.098L512.928 410.111" stroke="#EFEFEF" stroke-linecap="square"/>
</g>
<mask id="mask5_230_10958" style="mask-type:luminance" maskUnits="userSpaceOnUse" x="76" y="55" width="477" height="356">
<path d="M552.957 55.2959H76.7969V410.112H552.957V55.2959Z" fill="white"/>
</mask>
<g mask="url(#mask5_230_10958)">
<path d="M304.914 410.111L320.842 409.961L332.522 409.029L335.707 408.926L337.831 408.399L344.202 406.157L346.325 404.906L351.635 401.048L353.758 399.767L354.82 398.798L355.882 397.348L356.944 395.393L359.067 390.617L361.191 385.423L363.315 379.264L364.377 375.599L365.438 371.347L366.5 366.224L367.562 359.942L368.624 352.352L370.747 333.322L372.871 309.923L377.118 261.488L382.428 207.836L384.551 188.673L385.613 181.661L386.675 177.146L387.737 174.966L388.799 174.404L389.86 174.661L390.922 175.359L391.984 176.725L393.046 179.317L394.108 183.493L395.17 189.073L398.355 208.913L400.479 223.546L402.602 240.726L404.726 258.229L413.221 320.005L414.282 325.555L418.53 344.627L421.715 363.619L422.777 368.739L423.839 372.717L424.901 375.75L431.272 390.548L432.334 392.27L434.457 394.614L436.581 397.078L438.705 399.837L440.828 401.956L442.952 403.402L446.137 405.329L449.323 407.48L450.385 407.97L452.508 408.512L458.879 409.486L463.127 409.813L465.25 409.931L474.807 409.933L480.116 409.929L484.363 409.714L493.92 409.979L498.167 410.006L502.414 410.08L510.909 410.046L516.218 410.111" fill="#EFEFEF" fill-opacity="0.4"/>
<path d="M304.914 410.111L320.842 409.961L332.522 409.029L335.707 408.926L337.831 408.399L344.202 406.157L346.325 404.906L351.635 401.048L353.758 399.767L354.82 398.798L355.882 397.348L356.944 395.393L359.067 390.617L361.191 385.423L363.315 379.264L364.377 375.599L365.438 371.347L366.5 366.224L367.562 359.942L368.624 352.352L370.747 333.322L372.871 309.923L377.118 261.488L382.428 207.836L384.551 188.673L385.613 181.661L386.675 177.146L387.737 174.966L388.799 174.404L389.86 174.661L390.922 175.359L391.984 176.725L393.046 179.317L394.108 183.493L395.17 189.073L398.355 208.913L400.479 223.546L402.602 240.726L404.726 258.229L413.221 320.005L414.282 325.555L418.53 344.627L421.715 363.619L422.777 368.739L423.839 372.717L424.901 375.75L431.272 390.548L432.334 392.27L434.457 394.614L436.581 397.078L438.705 399.837L440.828 401.956L442.952 403.402L446.137 405.329L449.323 407.48L450.385 407.97L452.508 408.512L458.879 409.486L463.127 409.813L465.25 409.931L474.807 409.933L480.116 409.929L484.363 409.714L493.92 409.979L498.167 410.006L502.414 410.08L510.909 410.046L516.218 410.111" stroke="#EFEFEF" stroke-linecap="square"/>
</g>
<mask id="mask6_230_10958" style="mask-type:luminance" maskUnits="userSpaceOnUse" x="76" y="55" width="477" height="356">
<path d="M552.957 55.2959H76.7969V410.112H552.957V55.2959Z" fill="white"/>
</mask>
<g mask="url(#mask6_230_10958)">
<path d="M286.391 410.11L294.941 409.951L304.561 409.706L308.836 409.159L314.18 408.404L316.318 407.715L318.455 406.556L320.593 404.879L322.73 402.542L324.868 399.393L327.006 395.4L329.143 390.582L331.281 384.96L334.487 375.314L336.625 367.905L338.763 359.039L340.9 348.741L345.176 326.11L349.451 302.8L359.07 255.187L360.139 250.476L361.208 246.475L362.277 243.365L363.346 241.225L364.414 240.014L365.483 239.593L366.552 239.775L367.621 240.368L369.758 242.113L371.896 244.019L372.965 245.138L374.034 246.6L375.103 248.602L376.171 251.289L377.24 254.706L379.378 263.452L384.722 288.313L386.86 296.184L390.066 307.737L395.41 329.049L399.685 347.829L401.823 355.24L403.961 360.939L407.167 368.081L411.442 376.715L414.649 382.807L416.786 386.367L421.062 392.735L423.199 395.516L425.337 397.792L428.544 400.651L430.681 402.234L432.819 403.574L434.956 404.66L440.301 406.768L442.438 407.413L445.645 407.959L458.47 409.394L467.021 409.59L474.503 409.819L479.847 410.07L484.122 409.973L488.397 409.833L499.086 410.111" fill="#EFEFEF" fill-opacity="0.4"/>
<path d="M286.391 410.11L294.941 409.951L304.561 409.706L308.836 409.159L314.18 408.404L316.318 407.715L318.455 406.556L320.593 404.879L322.73 402.542L324.868 399.393L327.006 395.4L329.143 390.582L331.281 384.96L334.487 375.314L336.625 367.905L338.763 359.039L340.9 348.741L345.176 326.11L349.451 302.8L359.07 255.187L360.139 250.476L361.208 246.475L362.277 243.365L363.346 241.225L364.414 240.014L365.483 239.593L366.552 239.775L367.621 240.368L369.758 242.113L371.896 244.019L372.965 245.138L374.034 246.6L375.103 248.602L376.171 251.289L377.24 254.706L379.378 263.452L384.722 288.313L386.86 296.184L390.066 307.737L395.41 329.049L399.685 347.829L401.823 355.24L403.961 360.939L407.167 368.081L411.442 376.715L414.649 382.807L416.786 386.367L421.062 392.735L423.199 395.516L425.337 397.792L428.544 400.651L430.681 402.234L432.819 403.574L434.956 404.66L440.301 406.768L442.438 407.413L445.645 407.959L458.47 409.394L467.021 409.59L474.503 409.819L479.847 410.07L484.122 409.973L488.397 409.833L499.086 410.111" stroke="#EFEFEF" stroke-linecap="square"/>
</g>
<mask id="mask7_230_10958" style="mask-type:luminance" maskUnits="userSpaceOnUse" x="76" y="55" width="477" height="356">
<path d="M552.957 55.2959H76.7969V410.112H552.957V55.2959Z" fill="white"/>
</mask>
<g mask="url(#mask7_230_10958)">
<path d="M310.188 410.111L338.57 409.916L340.597 409.332L342.625 408.693L344.652 408.306L345.666 408.212L347.693 408.465L349.72 408.747L350.734 408.635L352.761 407.925L354.789 407.091L359.857 405.876L367.966 402.357L369.994 401.005L371.007 399.935L372.021 398.424L374.048 394.448L376.076 389.573L382.158 373.662L383.171 370.384L384.185 366.457L385.199 361.588L387.226 348.98L390.267 327.056L391.281 317.972L395.335 275.038L397.363 251.483L401.417 198.601L404.458 156.884L406.485 134.326L407.499 125.594L408.513 119.756L409.526 117.686L410.54 119.158L411.554 122.795L413.581 131.845L414.595 138.05L415.608 147.052L418.649 183.885L420.677 209.325L422.704 243.26L424.731 277.593L426.759 303.978L429.8 337.109L431.827 357.492L432.841 366.223L433.854 373.49L434.868 379.283L435.882 383.858L437.909 390.881L439.936 396.57L440.95 398.838L441.964 400.647L442.977 402.025L445.005 403.924L450.073 408.002L452.1 408.955L454.128 409.476L456.155 409.618L460.21 409.417L470.346 410.065L474.401 410.009L478.456 409.924L489.606 410.033L493.661 409.975L498.729 410.073L505.825 410.012L511.906 410.111" fill="#EFEFEF" fill-opacity="0.4"/>
<path d="M310.188 410.111L338.57 409.916L340.597 409.332L342.625 408.693L344.652 408.306L345.666 408.212L347.693 408.465L349.72 408.747L350.734 408.635L352.761 407.925L354.789 407.091L359.857 405.876L367.966 402.357L369.994 401.005L371.007 399.935L372.021 398.424L374.048 394.448L376.076 389.573L382.158 373.662L383.171 370.384L384.185 366.457L385.199 361.588L387.226 348.98L390.267 327.056L391.281 317.972L395.335 275.038L397.363 251.483L401.417 198.601L404.458 156.884L406.485 134.326L407.499 125.594L408.513 119.756L409.526 117.686L410.54 119.158L411.554 122.795L413.581 131.845L414.595 138.05L415.608 147.052L418.649 183.885L420.677 209.325L422.704 243.26L424.731 277.593L426.759 303.978L429.8 337.109L431.827 357.492L432.841 366.223L433.854 373.49L434.868 379.283L435.882 383.858L437.909 390.881L439.936 396.57L440.95 398.838L441.964 400.647L442.977 402.025L445.005 403.924L450.073 408.002L452.1 408.955L454.128 409.476L456.155 409.618L460.21 409.417L470.346 410.065L474.401 410.009L478.456 409.924L489.606 410.033L493.661 409.975L498.729 410.073L505.825 410.012L511.906 410.111" stroke="#EFEFEF" stroke-linecap="square"/>
</g>
<mask id="mask8_230_10958" style="mask-type:luminance" maskUnits="userSpaceOnUse" x="76" y="55" width="477" height="356">
<path d="M552.957 55.2959H76.7969V410.112H552.957V55.2959Z" fill="white"/>
</mask>
<g mask="url(#mask8_230_10958)">
<path d="M295.102 410.111L313.126 409.952L321.011 409.486L324.391 409.033L326.644 408.408L328.897 407.412L332.276 405.393L335.656 402.993L337.909 400.85L339.035 399.457L341.288 395.891L343.541 391.386L345.794 386.175L349.174 377.473L352.553 367.945L354.806 360.853L357.059 352.744L359.312 343.39L363.818 323.529L371.704 291.322L372.83 287.677L373.957 284.739L379.589 272.799L380.716 270.696L381.842 269.062L382.969 267.877L386.348 265.015L388.601 262.7L389.728 261.781L390.854 261.286L391.981 261.319L393.107 261.862L394.234 262.791L396.487 265.176L398.74 267.906L399.866 269.596L400.993 271.672L402.119 274.231L403.246 277.31L405.499 284.821L412.258 309.411L414.511 317.704L417.891 331.622L422.396 350.705L424.649 358.545L426.903 364.966L430.282 373.337L433.662 380.633L437.041 387.07L439.294 390.649L441.547 393.54L444.927 397.252L450.559 403.034L452.812 404.743L455.065 405.859L458.445 406.906L465.204 408.588L468.583 409.043L475.342 409.493L484.354 409.802L491.113 409.903L498.999 410.105L519.276 410.111" fill="#EFEFEF" fill-opacity="0.4"/>
<path d="M295.102 410.111L313.126 409.952L321.011 409.486L324.391 409.033L326.644 408.408L328.897 407.412L332.276 405.393L335.656 402.993L337.909 400.85L339.035 399.457L341.288 395.891L343.541 391.386L345.794 386.175L349.174 377.473L352.553 367.945L354.806 360.853L357.059 352.744L359.312 343.39L363.818 323.529L371.704 291.322L372.83 287.677L373.957 284.739L379.589 272.799L380.716 270.696L381.842 269.062L382.969 267.877L386.348 265.015L388.601 262.7L389.728 261.781L390.854 261.286L391.981 261.319L393.107 261.862L394.234 262.791L396.487 265.176L398.74 267.906L399.866 269.596L400.993 271.672L402.119 274.231L403.246 277.31L405.499 284.821L412.258 309.411L414.511 317.704L417.891 331.622L422.396 350.705L424.649 358.545L426.903 364.966L430.282 373.337L433.662 380.633L437.041 387.07L439.294 390.649L441.547 393.54L444.927 397.252L450.559 403.034L452.812 404.743L455.065 405.859L458.445 406.906L465.204 408.588L468.583 409.043L475.342 409.493L484.354 409.802L491.113 409.903L498.999 410.105L519.276 410.111" stroke="#EFEFEF" stroke-linecap="square"/>
</g>
<mask id="mask9_230_10958" style="mask-type:luminance" maskUnits="userSpaceOnUse" x="76" y="55" width="477" height="356">
<path d="M552.957 55.2959H76.7969V410.112H552.957V55.2959Z" fill="white"/>
</mask>
<g mask="url(#mask9_230_10958)">
<path d="M293.344 410.111L301.87 409.948L306.134 410.004L309.331 410.045L312.528 409.819L321.055 408.744L323.187 407.774L328.516 404.662L329.582 403.818L330.647 402.711L331.713 401.273L332.779 399.479L334.911 394.857L337.042 389.05L339.174 382.247L340.24 378.225L342.371 368.406L344.503 356.527L346.635 341.708L348.766 323.423L351.964 294.827L356.227 258.61L360.49 218.816L361.556 210.977L362.622 204.418L363.688 199.327L364.753 195.797L365.819 193.584L367.951 190.841L370.083 188.38L371.148 187.91L372.214 188.487L373.28 190.18L374.346 192.82L375.412 196.241L376.477 200.444L377.543 205.526L379.675 218.012L381.807 232.244L382.872 240.418L385.004 260.054L387.136 280.353L389.267 297.048L395.662 341.286L397.794 352.39L402.057 371.704L404.189 380.763L405.254 384.137L407.386 389.127L409.518 393.397L411.649 396.806L413.781 399.354L416.978 402.72L421.242 406.415L422.308 407.025L424.439 407.601L427.637 408.176L432.966 409.312L436.163 409.535L440.426 409.566L445.755 409.33L447.887 409.534L451.085 409.983L453.216 410.034L459.611 409.905L463.874 410.07L484.125 410.066L505.441 410.111" fill="#EFEFEF" fill-opacity="0.4"/>
<path d="M293.344 410.111L301.87 409.948L306.134 410.004L309.331 410.045L312.528 409.819L321.055 408.744L323.187 407.774L328.516 404.662L329.582 403.818L330.647 402.711L331.713 401.273L332.779 399.479L334.911 394.857L337.042 389.05L339.174 382.247L340.24 378.225L342.371 368.406L344.503 356.527L346.635 341.708L348.766 323.423L351.964 294.827L356.227 258.61L360.49 218.816L361.556 210.977L362.622 204.418L363.688 199.327L364.753 195.797L365.819 193.584L367.951 190.841L370.083 188.38L371.148 187.91L372.214 188.487L373.28 190.18L374.346 192.82L375.412 196.241L376.477 200.444L377.543 205.526L379.675 218.012L381.807 232.244L382.872 240.418L385.004 260.054L387.136 280.353L389.267 297.048L395.662 341.286L397.794 352.39L402.057 371.704L404.189 380.763L405.254 384.137L407.386 389.127L409.518 393.397L411.649 396.806L413.781 399.354L416.978 402.72L421.242 406.415L422.308 407.025L424.439 407.601L427.637 408.176L432.966 409.312L436.163 409.535L440.426 409.566L445.755 409.33L447.887 409.534L451.085 409.983L453.216 410.034L459.611 409.905L463.874 410.07L484.125 410.066L505.441 410.111" stroke="#EFEFEF" stroke-linecap="square"/>
</g>
<mask id="mask10_230_10958" style="mask-type:luminance" maskUnits="userSpaceOnUse" x="76" y="55" width="477" height="356">
<path d="M552.957 55.2959H76.7969V410.112H552.957V55.2959Z" fill="white"/>
</mask>
<g mask="url(#mask10_230_10958)">
<path d="M321.648 410.111L325.381 409.973L328.18 409.813L331.913 409.865L334.712 409.672L341.244 408.078L343.11 407.33L344.977 406.755L346.843 405.754L349.642 404.26L351.509 403.203L353.375 401.406L354.308 400.199L355.241 398.605L357.108 394.118L360.84 384.668L362.706 376.977L363.639 372.513L364.573 367.284L365.506 360.718L367.372 344.041L369.238 325.226L371.104 303.887L372.971 278.725L374.837 246.895L380.436 142.533L382.302 118.819L386.035 77.2108L386.968 72.1924L387.901 72.6403L388.834 77.3924L389.767 84.6303L390.7 93.5065L391.633 104.462L392.567 118.186L394.433 152.136L401.898 292.198L403.764 314.899L407.497 356.099L409.363 371.455L410.296 377.386L411.229 382.209L413.095 389.718L414.962 395.611L415.895 397.768L416.828 399.428L418.694 401.837L421.494 405.497L422.427 406.182L425.226 406.861L427.092 407.919L428.959 408.375L432.691 409.17L434.558 409.371L436.424 409.649L438.29 409.553L440.156 409.298L442.023 409.503L443.889 409.833L445.755 409.677L447.621 409.474L454.153 409.978L473.749 410.029L478.415 409.979L483.08 410.112L507.342 410.111" fill="#EFEFEF" fill-opacity="0.4"/>
<path d="M321.648 410.111L325.381 409.973L328.18 409.813L331.913 409.865L334.712 409.672L341.244 408.078L343.11 407.33L344.977 406.755L346.843 405.754L349.642 404.26L351.509 403.203L353.375 401.406L354.308 400.199L355.241 398.605L357.108 394.118L360.84 384.668L362.706 376.977L363.639 372.513L364.573 367.284L365.506 360.718L367.372 344.041L369.238 325.226L371.104 303.887L372.971 278.725L374.837 246.895L380.436 142.533L382.302 118.819L386.035 77.2108L386.968 72.1924L387.901 72.6403L388.834 77.3924L389.767 84.6303L390.7 93.5065L391.633 104.462L392.567 118.186L394.433 152.136L401.898 292.198L403.764 314.899L407.497 356.099L409.363 371.455L410.296 377.386L411.229 382.209L413.095 389.718L414.962 395.611L415.895 397.768L416.828 399.428L418.694 401.837L421.494 405.497L422.427 406.182L425.226 406.861L427.092 407.919L428.959 408.375L432.691 409.17L434.558 409.371L436.424 409.649L438.29 409.553L440.156 409.298L442.023 409.503L443.889 409.833L445.755 409.677L447.621 409.474L454.153 409.978L473.749 410.029L478.415 409.979L483.08 410.112L507.342 410.111" stroke="#EFEFEF" stroke-linecap="square"/>
</g>
<mask id="mask11_230_10958" style="mask-type:luminance" maskUnits="userSpaceOnUse" x="76" y="55" width="477" height="356">
<path d="M552.957 55.2959H76.7969V410.112H552.957V55.2959Z" fill="white"/>
</mask>
<g mask="url(#mask11_230_10958)">
<path d="M313.938 410.111L324.332 409.979L332.648 409.614L334.727 409.234L337.845 408.217L343.042 406.324L348.239 404.807L350.318 403.596L352.397 401.755L354.476 399.312L356.555 396.155L358.634 392.21L361.752 385.912L367.989 374.392L370.068 369.485L372.147 363.931L375.265 354.619L377.344 347.756L380.462 336.232L383.581 325.062L387.738 311.748L389.817 303.787L396.054 277.144L398.133 267.612L401.251 252.746L402.291 248.626L403.33 245.271L404.37 242.675L405.409 240.724L406.449 239.297L407.488 238.345L408.527 237.918L409.567 238.109L410.606 238.976L411.646 240.474L413.725 244.676L416.843 251.699L418.922 257.243L421.001 264.526L423.08 273.735L425.159 284.909L428.277 304.504L430.356 317.143L432.435 327.862L437.632 351.107L439.711 359.791L441.79 366.933L444.908 375.543L449.066 386.547L451.145 390.895L453.224 394.356L455.303 397.326L457.382 399.815L459.461 401.681L462.579 403.758L466.737 406.263L468.816 407.2L471.934 408.167L475.052 408.748L479.21 409.132L488.565 409.567L495.841 409.875L505.196 409.964L512.472 409.983L520.788 410.111" fill="#EFEFEF" fill-opacity="0.4"/>
<path d="M313.938 410.111L324.332 409.979L332.648 409.614L334.727 409.234L337.845 408.217L343.042 406.324L348.239 404.807L350.318 403.596L352.397 401.755L354.476 399.312L356.555 396.155L358.634 392.21L361.752 385.912L367.989 374.392L370.068 369.485L372.147 363.931L375.265 354.619L377.344 347.756L380.462 336.232L383.581 325.062L387.738 311.748L389.817 303.787L396.054 277.144L398.133 267.612L401.251 252.746L402.291 248.626L403.33 245.271L404.37 242.675L405.409 240.724L406.449 239.297L407.488 238.345L408.527 237.918L409.567 238.109L410.606 238.976L411.646 240.474L413.725 244.676L416.843 251.699L418.922 257.243L421.001 264.526L423.08 273.735L425.159 284.909L428.277 304.504L430.356 317.143L432.435 327.862L437.632 351.107L439.711 359.791L441.79 366.933L444.908 375.543L449.066 386.547L451.145 390.895L453.224 394.356L455.303 397.326L457.382 399.815L459.461 401.681L462.579 403.758L466.737 406.263L468.816 407.2L471.934 408.167L475.052 408.748L479.21 409.132L488.565 409.567L495.841 409.875L505.196 409.964L512.472 409.983L520.788 410.111" stroke="#EFEFEF" stroke-linecap="square"/>
</g>
<mask id="mask12_230_10958" style="mask-type:luminance" maskUnits="userSpaceOnUse" x="76" y="55" width="477" height="356">
<path d="M552.957 55.2959H76.7969V410.112H552.957V55.2959Z" fill="white"/>
</mask>
<g mask="url(#mask12_230_10958)">
<path d="M302.625 410.111L318.358 409.969L325.701 409.12L327.798 408.586L330.945 407.342L333.043 406.318L334.092 405.648L335.141 404.778L337.238 402.44L339.336 399.718L340.385 398.163L341.434 396.34L342.483 394.161L343.532 391.489L344.581 388.093L345.63 383.787L347.727 373.176L350.874 356.096L351.923 349.343L354.021 332.726L361.363 264.989L368.705 201.907L370.803 188.03L371.852 182.24L372.901 177.306L373.95 173.488L374.999 171.156L376.048 170.712L377.096 172.38L378.145 175.934L380.243 185.991L382.341 197.506L383.39 204.436L384.439 212.602L386.536 232.136L388.634 252.735L390.732 270.322L399.123 331.125L401.221 343.573L403.319 354.727L406.465 369.3L408.563 377.69L409.612 381.017L410.661 383.654L413.808 390.27L415.905 395.142L416.954 397.169L418.003 398.754L420.101 401.031L422.199 402.775L425.346 404.931L426.394 405.489L428.492 406.124L430.59 406.619L433.737 407.52L436.883 407.88L444.226 408.762L452.617 409.942L455.763 409.935L461.008 409.726L470.448 410.077L481.986 409.963L499.817 410.094L511.355 410.111" fill="#EFEFEF" fill-opacity="0.4"/>
<path d="M302.625 410.111L318.358 409.969L325.701 409.12L327.798 408.586L330.945 407.342L333.043 406.318L334.092 405.648L335.141 404.778L337.238 402.44L339.336 399.718L340.385 398.163L341.434 396.34L342.483 394.161L343.532 391.489L344.581 388.093L345.63 383.787L347.727 373.176L350.874 356.096L351.923 349.343L354.021 332.726L361.363 264.989L368.705 201.907L370.803 188.03L371.852 182.24L372.901 177.306L373.95 173.488L374.999 171.156L376.048 170.712L377.096 172.38L378.145 175.934L380.243 185.991L382.341 197.506L383.39 204.436L384.439 212.602L386.536 232.136L388.634 252.735L390.732 270.322L399.123 331.125L401.221 343.573L403.319 354.727L406.465 369.3L408.563 377.69L409.612 381.017L410.661 383.654L413.808 390.27L415.905 395.142L416.954 397.169L418.003 398.754L420.101 401.031L422.199 402.775L425.346 404.931L426.394 405.489L428.492 406.124L430.59 406.619L433.737 407.52L436.883 407.88L444.226 408.762L452.617 409.942L455.763 409.935L461.008 409.726L470.448 410.077L481.986 409.963L499.817 410.094L511.355 410.111" stroke="#EFEFEF" stroke-linecap="square"/>
</g>
<mask id="mask13_230_10958" style="mask-type:luminance" maskUnits="userSpaceOnUse" x="76" y="55" width="477" height="356">
<path d="M552.957 55.2959H76.7969V410.112H552.957V55.2959Z" fill="white"/>
</mask>
<g mask="url(#mask13_230_10958)">
<path d="M299.266 410.111L305.686 409.974L316.386 409.33L319.596 408.606L322.806 407.672L324.946 406.788L327.086 405.395L329.226 403.314L331.366 400.571L333.506 397.188L335.647 393.141L337.787 388.407L339.927 382.876L342.067 376.539L344.207 369.415L346.347 361.049L348.487 350.729L350.627 338.503L359.187 287.507L362.397 269.852L364.537 259.202L366.677 249.913L368.817 242.671L370.957 237.196L372.027 235.176L373.097 233.832L374.167 233.285L375.238 233.502L376.308 234.273L378.448 236.457L379.518 237.738L380.588 239.371L381.658 241.527L383.798 247.032L387.008 255.553L388.078 258.967L389.148 263.165L391.288 273.893L394.498 291.713L396.638 302.072L406.268 343.63L408.408 351.528L410.548 357.456L413.758 365.147L420.179 381.701L422.319 386.19L424.459 390.066L426.599 393.111L428.739 395.379L431.949 398.121L434.089 399.613L442.649 404.657L444.789 405.593L447.999 406.546L452.279 407.58L458.7 408.662L461.91 408.916L467.26 409.318L473.68 409.92L477.96 409.871L482.24 409.886L490.8 410.093L507.921 410.094L512.201 410.112" fill="#EFEFEF" fill-opacity="0.4"/>
<path d="M299.266 410.111L305.686 409.974L316.386 409.33L319.596 408.606L322.806 407.672L324.946 406.788L327.086 405.395L329.226 403.314L331.366 400.571L333.506 397.188L335.647 393.141L337.787 388.407L339.927 382.876L342.067 376.539L344.207 369.415L346.347 361.049L348.487 350.729L350.627 338.503L359.187 287.507L362.397 269.852L364.537 259.202L366.677 249.913L368.817 242.671L370.957 237.196L372.027 235.176L373.097 233.832L374.167 233.285L375.238 233.502L376.308 234.273L378.448 236.457L379.518 237.738L380.588 239.371L381.658 241.527L383.798 247.032L387.008 255.553L388.078 258.967L389.148 263.165L391.288 273.893L394.498 291.713L396.638 302.072L406.268 343.63L408.408 351.528L410.548 357.456L413.758 365.147L420.179 381.701L422.319 386.19L424.459 390.066L426.599 393.111L428.739 395.379L431.949 398.121L434.089 399.613L442.649 404.657L444.789 405.593L447.999 406.546L452.279 407.58L458.7 408.662L461.91 408.916L467.26 409.318L473.68 409.92L477.96 409.871L482.24 409.886L490.8 410.093L507.921 410.094L512.201 410.112" stroke="#EFEFEF" stroke-linecap="square"/>
</g>
<mask id="mask14_230_10958" style="mask-type:luminance" maskUnits="userSpaceOnUse" x="76" y="55" width="477" height="356">
<path d="M552.957 55.2959H76.7969V410.112H552.957V55.2959Z" fill="white"/>
</mask>
<g mask="url(#mask14_230_10958)">
<path d="M98.4375 410.111L150.86 410.112L287.158 410.052L293.449 409.815L297.643 409.78L301.837 409.15L308.127 408.272L310.224 407.479L312.321 406.38L314.418 404.987L316.515 402.712L320.709 396.003L322.806 392.292L324.903 387.841L327 382.781L329.096 376.905L331.193 369.05L333.29 358.991L335.387 347.381L339.581 320.83L341.678 306.589L347.969 258.901L352.162 231.2L354.259 220.205L356.356 212.326L358.453 205.558L360.55 200.397L362.647 198.859L364.744 200.679L366.841 206.173L368.938 215.772L371.034 227.78L373.131 241.081L375.228 256.509L381.519 307.721L383.616 322.883L385.713 336.638L387.81 349.067L389.907 359.888L392.003 368.624L394.1 375.499L396.197 381.348L398.294 386.375L400.391 390.19L408.779 401.259L410.876 403.109L412.972 404.393L415.069 405.351L417.166 406.03L429.748 408.96L433.941 409.335L438.135 409.392L444.426 409.221L450.717 409.784L454.91 409.897L515.721 410.111" fill="#7EB0D5" fill-opacity="0.4"/>
<path d="M98.4375 410.111L150.86 410.112L287.158 410.052L293.449 409.815L297.643 409.78L301.837 409.15L308.127 408.272L310.224 407.479L312.321 406.38L314.418 404.987L316.515 402.712L320.709 396.003L322.806 392.292L324.903 387.841L327 382.781L329.096 376.905L331.193 369.05L333.29 358.991L335.387 347.381L339.581 320.83L341.678 306.589L347.969 258.901L352.162 231.2L354.259 220.205L356.356 212.326L358.453 205.558L360.55 200.397L362.647 198.859L364.744 200.679L366.841 206.173L368.938 215.772L371.034 227.78L373.131 241.081L375.228 256.509L381.519 307.721L383.616 322.883L385.713 336.638L387.81 349.067L389.907 359.888L392.003 368.624L394.1 375.499L396.197 381.348L398.294 386.375L400.391 390.19L408.779 401.259L410.876 403.109L412.972 404.393L415.069 405.351L417.166 406.03L429.748 408.96L433.941 409.335L438.135 409.392L444.426 409.221L450.717 409.784L454.91 409.897L515.721 410.111" stroke="#7EB0D5" stroke-linecap="square"/>
</g>
<path d="M535.061 411.061C535.646 410.475 535.646 409.525 535.061 408.939L525.515 399.393C524.929 398.808 523.979 398.808 523.393 399.393C522.808 399.979 522.808 400.929 523.393 401.515L531.879 410L523.393 418.485C522.808 419.071 522.808 420.021 523.393 420.607C523.979 421.192 524.929 421.192 525.515 420.607L535.061 411.061ZM79 411.5H534V408.5H79V411.5Z" fill="black"/>
</g>
<defs>
<clipPath id="clip0_230_10958">
<rect width="614.4" height="460.8" fill="white"/>
</clipPath>
</defs>
</svg>
