<svg width="615" height="461" viewBox="0 0 615 461" fill="none" xmlns="http://www.w3.org/2000/svg">
<mask id="mask0_230_10238" style="mask-type:luminance" maskUnits="userSpaceOnUse" x="76" y="55" width="477" height="356">
<path d="M552.957 55.2959H76.7969V410.112H552.957V55.2959Z" fill="white"/>
</mask>
<g mask="url(#mask0_230_10238)">
<path d="M370.773 410.11L388.75 409.994L395.491 409.172L397.738 409.102L399.985 408.586L402.981 407.611L404.479 406.706L405.977 405.285L407.475 403.437L408.224 402.129L408.973 400.383L410.471 395.411L411.969 389.112L413.467 381.535L414.965 371.054L416.463 357.288L418.71 332.859L420.208 313.473L422.455 276.954L425.451 228.425L429.945 159.144L431.443 141.116L432.942 126.54L433.691 121.802L434.44 119.225L435.189 118.323L435.938 118.475L436.687 119.717L437.436 122.759L438.185 128.153L439.683 144.358L446.424 228.374L449.42 272.441L452.416 313.687L453.914 330.642L455.412 342.83L457.659 356.334L460.655 373.385L462.153 380.726L463.651 386.669L465.149 390.761L467.396 395.333L468.894 398.433L470.392 401.709L471.141 402.963L471.89 403.804L473.388 404.727L474.886 405.693L477.882 407.792L480.129 409.102L480.878 409.29L482.376 409.252L483.874 409.189L498.106 410.11L519.827 410.11" fill="#EFEFEF" fill-opacity="0.4"/>
<path d="M370.773 410.11L388.75 409.994L395.491 409.172L397.738 409.102L399.985 408.586L402.981 407.611L404.479 406.706L405.977 405.285L407.475 403.437L408.224 402.129L408.973 400.383L410.471 395.411L411.969 389.112L413.467 381.535L414.965 371.054L416.463 357.288L418.71 332.859L420.208 313.473L422.455 276.954L425.451 228.425L429.945 159.144L431.443 141.116L432.942 126.54L433.691 121.802L434.44 119.225L435.189 118.323L435.938 118.475L436.687 119.717L437.436 122.759L438.185 128.153L439.683 144.358L446.424 228.374L449.42 272.441L452.416 313.687L453.914 330.642L455.412 342.83L457.659 356.334L460.655 373.385L462.153 380.726L463.651 386.669L465.149 390.761L467.396 395.333L468.894 398.433L470.392 401.709L471.141 402.963L471.89 403.804L473.388 404.727L474.886 405.693L477.882 407.792L480.129 409.102L480.878 409.29L482.376 409.252L483.874 409.189L498.106 410.11L519.827 410.11" stroke="#EFEFEF" stroke-linecap="square"/>
</g>
<mask id="mask1_230_10238" style="mask-type:luminance" maskUnits="userSpaceOnUse" x="76" y="55" width="477" height="356">
<path d="M552.957 55.2959H76.7969V410.112H552.957V55.2959Z" fill="white"/>
</mask>
<g mask="url(#mask1_230_10238)">
<path d="M361.789 410.111L387.219 409.936L389.603 409.551L391.987 408.777L393.576 407.982L395.166 406.911L396.755 405.404L397.55 404.379L398.344 403.088L399.139 401.467L399.934 399.46L401.523 394.175L403.112 387.285L407.086 368.421L409.47 359.265L411.059 354.067L411.854 352.074L412.648 350.635L413.443 349.737L414.238 349.264L415.827 348.952L419.006 348.822L422.185 348.795L423.774 348.54L426.158 347.719L427.747 346.913L428.542 346.3L429.337 345.401L430.131 344.079L430.926 342.203L431.721 339.66L432.515 336.37L434.105 327.509L435.694 316.108L437.283 302.671L438.873 286.674L441.257 257.885L445.23 208.694L446.82 191.403L447.614 184.357L448.409 178.802L449.204 174.869L449.998 172.515L450.793 171.575L451.588 171.845L452.382 173.165L453.177 175.475L453.972 178.836L454.766 183.398L455.561 189.33L457.15 205.454L459.534 236.765L462.713 278.357L465.097 304.986L468.276 336.409L470.66 356.121L472.249 367.227L473.839 376.733L475.428 384.425L477.017 390.349L478.607 394.816L480.196 398.213L481.785 400.873L483.375 403.016L484.964 404.784L486.554 406.25L488.143 407.396L489.732 408.192L491.322 408.674L496.09 409.483L499.268 409.866L504.036 410.036L510.394 410.07L517.546 410.102L519.93 410.111" fill="#EFEFEF" fill-opacity="0.4"/>
<path d="M361.789 410.111L387.219 409.936L389.603 409.551L391.987 408.777L393.576 407.982L395.166 406.911L396.755 405.404L397.55 404.379L398.344 403.088L399.139 401.467L399.934 399.46L401.523 394.175L403.112 387.285L407.086 368.421L409.47 359.265L411.059 354.067L411.854 352.074L412.648 350.635L413.443 349.737L414.238 349.264L415.827 348.952L419.006 348.822L422.185 348.795L423.774 348.54L426.158 347.719L427.747 346.913L428.542 346.3L429.337 345.401L430.131 344.079L430.926 342.203L431.721 339.66L432.515 336.37L434.105 327.509L435.694 316.108L437.283 302.671L438.873 286.674L441.257 257.885L445.23 208.694L446.82 191.403L447.614 184.357L448.409 178.802L449.204 174.869L449.998 172.515L450.793 171.575L451.588 171.845L452.382 173.165L453.177 175.475L453.972 178.836L454.766 183.398L455.561 189.33L457.15 205.454L459.534 236.765L462.713 278.357L465.097 304.986L468.276 336.409L470.66 356.121L472.249 367.227L473.839 376.733L475.428 384.425L477.017 390.349L478.607 394.816L480.196 398.213L481.785 400.873L483.375 403.016L484.964 404.784L486.554 406.25L488.143 407.396L489.732 408.192L491.322 408.674L496.09 409.483L499.268 409.866L504.036 410.036L510.394 410.07L517.546 410.102L519.93 410.111" stroke="#EFEFEF" stroke-linecap="square"/>
</g>
<mask id="mask2_230_10238" style="mask-type:luminance" maskUnits="userSpaceOnUse" x="76" y="55" width="477" height="356">
<path d="M552.957 55.2959H76.7969V410.112H552.957V55.2959Z" fill="white"/>
</mask>
<g mask="url(#mask2_230_10238)">
<path d="M377.258 410.111L383.183 409.962L386.145 409.925L390.589 410.014L396.514 409.53L403.92 408.093L406.142 407.057L408.364 405.664L413.548 401.494L415.03 399.664L416.511 396.866L417.251 394.946L417.992 392.516L418.733 389.457L420.214 381.395L422.436 366.31L424.658 349.411L427.62 323.822L429.842 302.564L433.545 263.274L436.508 231.643L437.989 218.501L440.951 196.252L442.433 187.269L443.173 183.986L443.914 181.687L444.654 180.466L445.395 180.399L446.136 181.495L446.876 183.61L449.098 192.618L450.579 198.701L452.061 206.499L453.542 216.901L456.504 241.221L459.467 264.911L463.17 294.305L467.614 328.474L469.095 337.852L473.539 362.588L475.02 369.445L476.501 375.234L478.723 382.239L481.686 390.587L483.167 393.925L484.648 396.623L486.87 400.075L489.092 403.002L490.573 404.43L492.054 405.433L493.535 406.128L496.498 407.041L498.72 407.931L501.682 409.266L503.164 409.627L505.385 409.8L510.57 409.837L515.014 410.076L524.642 410.111" fill="#EFEFEF" fill-opacity="0.4"/>
<path d="M377.258 410.111L383.183 409.962L386.145 409.925L390.589 410.014L396.514 409.53L403.92 408.093L406.142 407.057L408.364 405.664L413.548 401.494L415.03 399.664L416.511 396.866L417.251 394.946L417.992 392.516L418.733 389.457L420.214 381.395L422.436 366.31L424.658 349.411L427.62 323.822L429.842 302.564L433.545 263.274L436.508 231.643L437.989 218.501L440.951 196.252L442.433 187.269L443.173 183.986L443.914 181.687L444.654 180.466L445.395 180.399L446.136 181.495L446.876 183.61L449.098 192.618L450.579 198.701L452.061 206.499L453.542 216.901L456.504 241.221L459.467 264.911L463.17 294.305L467.614 328.474L469.095 337.852L473.539 362.588L475.02 369.445L476.501 375.234L478.723 382.239L481.686 390.587L483.167 393.925L484.648 396.623L486.87 400.075L489.092 403.002L490.573 404.43L492.054 405.433L493.535 406.128L496.498 407.041L498.72 407.931L501.682 409.266L503.164 409.627L505.385 409.8L510.57 409.837L515.014 410.076L524.642 410.111" stroke="#EFEFEF" stroke-linecap="square"/>
</g>
<mask id="mask3_230_10238" style="mask-type:luminance" maskUnits="userSpaceOnUse" x="76" y="55" width="477" height="356">
<path d="M552.957 55.2959H76.7969V410.112H552.957V55.2959Z" fill="white"/>
</mask>
<g mask="url(#mask3_230_10238)">
<path d="M372.133 410.111L381.583 409.943L384.283 409.791L387.658 409.719L389.683 409.515L391.708 408.869L393.733 408.092L395.758 407.11L398.458 406.522L399.808 405.455L404.533 400.757L405.208 399.707L406.558 396.673L407.233 394.674L407.908 392.19L409.258 385.493L410.608 376.374L411.958 363.83L415.333 327.006L416.683 308.52L421.409 233.857L422.759 213.177L424.109 187.099L425.459 159.698L426.134 148.734L427.484 133.548L428.834 119.366L430.859 93.799L431.534 87.1346L432.209 81.9977L432.884 78.4737L433.559 76.5333L434.234 76.0596L434.909 77.019L435.584 79.5357L436.259 83.9113L436.934 90.6025L437.609 99.9344L438.959 125.637L440.309 158.731L443.009 230.489L447.059 327.285L448.409 348.858L449.759 362.948L451.784 377.437L453.134 386.537L454.484 393.459L455.834 398.081L457.184 402.021L457.859 403.579L458.534 404.606L459.209 405.136L461.234 406.104L463.934 408.035L465.959 409.05L467.309 409.253L474.059 409.167L478.784 409.709L480.809 409.836L482.834 409.865L484.859 409.852L488.235 410.013L497.01 409.587L501.06 410.022L503.76 410.045L506.46 410.111" fill="#EFEFEF" fill-opacity="0.4"/>
<path d="M372.133 410.111L381.583 409.943L384.283 409.791L387.658 409.719L389.683 409.515L391.708 408.869L393.733 408.092L395.758 407.11L398.458 406.522L399.808 405.455L404.533 400.757L405.208 399.707L406.558 396.673L407.233 394.674L407.908 392.19L409.258 385.493L410.608 376.374L411.958 363.83L415.333 327.006L416.683 308.52L421.409 233.857L422.759 213.177L424.109 187.099L425.459 159.698L426.134 148.734L427.484 133.548L428.834 119.366L430.859 93.799L431.534 87.1346L432.209 81.9977L432.884 78.4737L433.559 76.5333L434.234 76.0596L434.909 77.019L435.584 79.5357L436.259 83.9113L436.934 90.6025L437.609 99.9344L438.959 125.637L440.309 158.731L443.009 230.489L447.059 327.285L448.409 348.858L449.759 362.948L451.784 377.437L453.134 386.537L454.484 393.459L455.834 398.081L457.184 402.021L457.859 403.579L458.534 404.606L459.209 405.136L461.234 406.104L463.934 408.035L465.959 409.05L467.309 409.253L474.059 409.167L478.784 409.709L480.809 409.836L482.834 409.865L484.859 409.852L488.235 410.013L497.01 409.587L501.06 410.022L503.76 410.045L506.46 410.111" stroke="#EFEFEF" stroke-linecap="square"/>
</g>
<mask id="mask4_230_10238" style="mask-type:luminance" maskUnits="userSpaceOnUse" x="76" y="55" width="477" height="356">
<path d="M552.957 55.2959H76.7969V410.112H552.957V55.2959Z" fill="white"/>
</mask>
<g mask="url(#mask4_230_10238)">
<path d="M375.609 410.111L387.873 409.965L396.529 409.257L398.693 408.796L400.857 408.028L403.021 406.982L405.185 405.494L408.792 402.817L409.513 401.819L410.235 400.529L411.678 396.989L413.12 391.887L414.563 384.722L416.006 374.922L417.448 361.941L418.891 345.495L420.334 325.699L423.219 280.172L426.105 232.142L428.269 195.355L429.712 175.764L431.154 160.614L432.597 147.494L433.318 142.223L434.04 138.606L434.761 137.008L435.483 137.385L436.204 139.399L436.925 142.605L438.368 150.896L439.811 160.37L440.532 166.101L441.975 181.243L445.582 225.867L447.024 239.824L454.238 302.231L459.287 337.563L460.73 347.601L462.173 355.554L465.78 372.601L467.222 377.928L472.272 392.201L473.715 395.349L475.157 397.517L478.043 400.876L481.65 404.955L483.814 406.824L485.257 407.74L486.699 408.355L488.142 408.717L490.306 408.903L493.192 409.001L500.405 409.795L506.176 409.966L512.668 410.035L517.718 410.105L519.161 410.111" fill="#EFEFEF" fill-opacity="0.4"/>
<path d="M375.609 410.111L387.873 409.965L396.529 409.257L398.693 408.796L400.857 408.028L403.021 406.982L405.185 405.494L408.792 402.817L409.513 401.819L410.235 400.529L411.678 396.989L413.12 391.887L414.563 384.722L416.006 374.922L417.448 361.941L418.891 345.495L420.334 325.699L423.219 280.172L426.105 232.142L428.269 195.355L429.712 175.764L431.154 160.614L432.597 147.494L433.318 142.223L434.04 138.606L434.761 137.008L435.483 137.385L436.204 139.399L436.925 142.605L438.368 150.896L439.811 160.37L440.532 166.101L441.975 181.243L445.582 225.867L447.024 239.824L454.238 302.231L459.287 337.563L460.73 347.601L462.173 355.554L465.78 372.601L467.222 377.928L472.272 392.201L473.715 395.349L475.157 397.517L478.043 400.876L481.65 404.955L483.814 406.824L485.257 407.74L486.699 408.355L488.142 408.717L490.306 408.903L493.192 409.001L500.405 409.795L506.176 409.966L512.668 410.035L517.718 410.105L519.161 410.111" stroke="#EFEFEF" stroke-linecap="square"/>
</g>
<mask id="mask5_230_10238" style="mask-type:luminance" maskUnits="userSpaceOnUse" x="76" y="55" width="477" height="356">
<path d="M552.957 55.2959H76.7969V410.112H552.957V55.2959Z" fill="white"/>
</mask>
<g mask="url(#mask5_230_10238)">
<path d="M372.578 410.111L379.375 409.972L390.704 409.386L392.215 408.895L393.725 408.044L396.746 405.852L398.257 404.431L399.012 403.298L399.767 401.678L400.522 399.439L401.278 396.466L402.033 392.628L402.788 387.745L403.543 381.556L404.299 373.708L405.054 363.826L406.564 337.408L409.585 276.39L411.096 254.462L412.606 238.407L414.872 216.072L418.648 173.816L420.914 153.236L422.425 142.516L423.935 134.658L424.69 132.349L425.446 131.825L426.201 133.575L426.956 137.802L427.711 144.397L429.222 163.217L433.753 228.951L436.019 257.747L439.04 290.833L442.061 320.749L443.572 333.326L445.837 348.822L448.103 362.406L449.614 368.864L450.369 371.099L451.879 374.211L453.39 377.014L454.9 380.621L456.411 384.387L457.921 387.227L459.432 388.995L461.698 391.164L463.208 393.307L465.474 396.592L467.74 398.961L469.25 400.215L470.761 400.966L473.026 401.857L478.313 405.204L480.579 406.717L482.845 407.764L485.11 408.55L488.131 408.949L491.908 409.36L497.95 409.815L502.481 409.788L508.523 409.851L516.076 410.003L522.873 410.111" fill="#EFEFEF" fill-opacity="0.4"/>
<path d="M372.578 410.111L379.375 409.972L390.704 409.386L392.215 408.895L393.725 408.044L396.746 405.852L398.257 404.431L399.012 403.298L399.767 401.678L400.522 399.439L401.278 396.466L402.033 392.628L402.788 387.745L403.543 381.556L404.299 373.708L405.054 363.826L406.564 337.408L409.585 276.39L411.096 254.462L412.606 238.407L414.872 216.072L418.648 173.816L420.914 153.236L422.425 142.516L423.935 134.658L424.69 132.349L425.446 131.825L426.201 133.575L426.956 137.802L427.711 144.397L429.222 163.217L433.753 228.951L436.019 257.747L439.04 290.833L442.061 320.749L443.572 333.326L445.837 348.822L448.103 362.406L449.614 368.864L450.369 371.099L451.879 374.211L453.39 377.014L454.9 380.621L456.411 384.387L457.921 387.227L459.432 388.995L461.698 391.164L463.208 393.307L465.474 396.592L467.74 398.961L469.25 400.215L470.761 400.966L473.026 401.857L478.313 405.204L480.579 406.717L482.845 407.764L485.11 408.55L488.131 408.949L491.908 409.36L497.95 409.815L502.481 409.788L508.523 409.851L516.076 410.003L522.873 410.111" stroke="#EFEFEF" stroke-linecap="square"/>
</g>
<mask id="mask6_230_10238" style="mask-type:luminance" maskUnits="userSpaceOnUse" x="76" y="55" width="477" height="356">
<path d="M552.957 55.2959H76.7969V410.112H552.957V55.2959Z" fill="white"/>
</mask>
<g mask="url(#mask6_230_10238)">
<path d="M372.445 410.111L379.07 409.961L383.487 409.624L386.432 409.422L388.64 409.311L390.112 409.035L392.321 408.245L393.793 407.507L395.265 406.475L396.737 404.961L398.946 401.894L401.154 398.468L402.626 395.712L404.099 392.109L405.571 387.593L407.779 379.441L409.988 369.749L411.46 362.04L412.932 352.775L414.404 341.774L416.613 322.913L421.03 283.711L423.238 268.161L425.446 252.972L429.127 224.439L429.863 220.615L430.599 217.867L431.335 215.99L432.808 213.64L434.28 211.829L435.016 211.077L435.752 210.582L436.488 210.501L437.224 210.98L437.96 212.112L438.697 213.895L440.169 218.838L443.849 232.653L445.322 240.544L446.794 250.536L449.002 267.473L451.947 291.008L453.419 300.811L460.78 342.874L462.989 352.846L468.142 374.369L469.614 379.309L471.086 382.981L473.294 387.218L476.239 392.311L481.392 400.163L482.864 401.875L485.072 403.856L487.281 405.301L490.225 406.634L495.378 408.711L497.587 409.192L506.42 409.844L518.934 410.111" fill="#EFEFEF" fill-opacity="0.4"/>
<path d="M372.445 410.111L379.07 409.961L383.487 409.624L386.432 409.422L388.64 409.311L390.112 409.035L392.321 408.245L393.793 407.507L395.265 406.475L396.737 404.961L398.946 401.894L401.154 398.468L402.626 395.712L404.099 392.109L405.571 387.593L407.779 379.441L409.988 369.749L411.46 362.04L412.932 352.775L414.404 341.774L416.613 322.913L421.03 283.711L423.238 268.161L425.446 252.972L429.127 224.439L429.863 220.615L430.599 217.867L431.335 215.99L432.808 213.64L434.28 211.829L435.016 211.077L435.752 210.582L436.488 210.501L437.224 210.98L437.96 212.112L438.697 213.895L440.169 218.838L443.849 232.653L445.322 240.544L446.794 250.536L449.002 267.473L451.947 291.008L453.419 300.811L460.78 342.874L462.989 352.846L468.142 374.369L469.614 379.309L471.086 382.981L473.294 387.218L476.239 392.311L481.392 400.163L482.864 401.875L485.072 403.856L487.281 405.301L490.225 406.634L495.378 408.711L497.587 409.192L506.42 409.844L518.934 410.111" stroke="#EFEFEF" stroke-linecap="square"/>
</g>
<mask id="mask7_230_10238" style="mask-type:luminance" maskUnits="userSpaceOnUse" x="76" y="55" width="477" height="356">
<path d="M552.957 55.2959H76.7969V410.112H552.957V55.2959Z" fill="white"/>
</mask>
<g mask="url(#mask7_230_10238)">
<path d="M381.883 410.111L389.724 409.941L392.576 409.538L395.427 409.024L397.566 408.902L398.992 408.882L400.417 408.527L401.843 407.654L404.695 405.021L406.12 403.495L407.546 401.129L408.972 398.606L411.11 395.47L411.823 394.095L413.249 390.106L416.1 380.442L416.813 377.075L418.239 367.867L420.378 352.135L421.803 338.651L423.229 320.054L425.368 286.475L428.932 224.673L431.784 168.408L433.209 141.196L433.922 129.941L434.635 121.06L435.348 114.51L436.774 105.845L437.487 102.792L438.199 100.868L438.912 100.613L439.625 102.236L440.338 105.482L441.051 110.004L441.764 115.828L442.477 123.37L443.902 144.238L446.041 179.195L449.605 228.628L455.308 318.401L456.734 335.355L458.16 349.261L461.011 373.03L462.437 382.562L463.863 389.796L465.288 395.016L466.714 398.35L468.853 401.746L470.278 403.668L472.417 405.89L473.843 407.034L475.269 407.821L477.407 408.642L479.546 409.067L485.249 409.904L487.387 409.912L490.239 409.91L493.803 410.036L497.367 410.071L503.07 410.112L523.744 410.111" fill="#EFEFEF" fill-opacity="0.4"/>
<path d="M381.883 410.111L389.724 409.941L392.576 409.538L395.427 409.024L397.566 408.902L398.992 408.882L400.417 408.527L401.843 407.654L404.695 405.021L406.12 403.495L407.546 401.129L408.972 398.606L411.11 395.47L411.823 394.095L413.249 390.106L416.1 380.442L416.813 377.075L418.239 367.867L420.378 352.135L421.803 338.651L423.229 320.054L425.368 286.475L428.932 224.673L431.784 168.408L433.209 141.196L433.922 129.941L434.635 121.06L435.348 114.51L436.774 105.845L437.487 102.792L438.199 100.868L438.912 100.613L439.625 102.236L440.338 105.482L441.051 110.004L441.764 115.828L442.477 123.37L443.902 144.238L446.041 179.195L449.605 228.628L455.308 318.401L456.734 335.355L458.16 349.261L461.011 373.03L462.437 382.562L463.863 389.796L465.288 395.016L466.714 398.35L468.853 401.746L470.278 403.668L472.417 405.89L473.843 407.034L475.269 407.821L477.407 408.642L479.546 409.067L485.249 409.904L487.387 409.912L490.239 409.91L493.803 410.036L497.367 410.071L503.07 410.112L523.744 410.111" stroke="#EFEFEF" stroke-linecap="square"/>
</g>
<mask id="mask8_230_10238" style="mask-type:luminance" maskUnits="userSpaceOnUse" x="76" y="55" width="477" height="356">
<path d="M552.957 55.2959H76.7969V410.112H552.957V55.2959Z" fill="white"/>
</mask>
<g mask="url(#mask8_230_10238)">
<path d="M375.75 410.111L388.222 409.95L391.686 409.478L399.308 407.717L400.693 406.983L402.079 405.783L408.315 399.199L409.701 397.036L411.086 394.369L412.472 391.032L413.858 386.95L415.244 382.087L418.015 370.638L420.094 361.568L421.479 353.697L422.865 343.526L425.637 319.788L428.408 293.49L431.18 263.711L434.644 225.019L436.03 212.779L437.415 202.559L438.801 194.442L439.494 191.453L440.187 189.165L441.573 185.938L442.958 183.631L443.651 182.931L444.344 182.714L445.037 183.069L445.73 184.025L446.423 185.582L447.116 187.759L447.808 190.593L449.194 198.274L451.273 213.288L456.816 255.972L458.894 276.829L461.666 306.361L463.745 324.518L466.516 344.752L469.287 362.745L470.673 370.033L472.059 375.911L474.138 383.472L476.216 390.011L477.602 393.617L479.681 398.017L481.759 401.67L483.145 403.697L484.531 405.147L486.609 406.612L489.381 408.304L490.766 408.829L492.845 409.256L495.617 409.483L507.395 410.026L513.631 410.111" fill="#EFEFEF" fill-opacity="0.4"/>
<path d="M375.75 410.111L388.222 409.95L391.686 409.478L399.308 407.717L400.693 406.983L402.079 405.783L408.315 399.199L409.701 397.036L411.086 394.369L412.472 391.032L413.858 386.95L415.244 382.087L418.015 370.638L420.094 361.568L421.479 353.697L422.865 343.526L425.637 319.788L428.408 293.49L431.18 263.711L434.644 225.019L436.03 212.779L437.415 202.559L438.801 194.442L439.494 191.453L440.187 189.165L441.573 185.938L442.958 183.631L443.651 182.931L444.344 182.714L445.037 183.069L445.73 184.025L446.423 185.582L447.116 187.759L447.808 190.593L449.194 198.274L451.273 213.288L456.816 255.972L458.894 276.829L461.666 306.361L463.745 324.518L466.516 344.752L469.287 362.745L470.673 370.033L472.059 375.911L474.138 383.472L476.216 390.011L477.602 393.617L479.681 398.017L481.759 401.67L483.145 403.697L484.531 405.147L486.609 406.612L489.381 408.304L490.766 408.829L492.845 409.256L495.617 409.483L507.395 410.026L513.631 410.111" stroke="#EFEFEF" stroke-linecap="square"/>
</g>
<mask id="mask9_230_10238" style="mask-type:luminance" maskUnits="userSpaceOnUse" x="76" y="55" width="477" height="356">
<path d="M552.957 55.2959H76.7969V410.112H552.957V55.2959Z" fill="white"/>
</mask>
<g mask="url(#mask9_230_10238)">
<path d="M374.273 410.11L390.913 409.909L393.686 409.789L396.46 409.7L399.926 409.307L403.393 409.058L405.473 408.791L409.633 407.723L411.019 406.998L411.712 406.382L413.099 404.496L414.486 401.737L415.872 397.993L416.566 395.529L417.259 392.464L417.952 388.639L419.339 378.263L420.726 363.978L422.112 346.199L424.885 305.242L431.125 207.837L431.819 200.469L432.512 194.804L433.899 187.17L435.979 177.089L437.365 170.436L438.058 167.817L438.752 165.922L439.445 164.999L440.138 165.226L440.832 166.433L442.218 169.211L442.912 169.746L443.605 170.033L444.298 170.986L444.992 173.444L445.685 177.722L447.072 190.373L450.538 225.317L452.618 243.196L456.085 270.983L460.245 308.392L466.484 355.771L467.871 363.863L470.644 377.864L472.031 383.706L474.111 390.805L475.498 394.717L476.884 397.977L478.271 400.472L479.657 402.136L484.511 406.358L485.897 406.946L487.977 407.602L492.137 409.614L493.524 409.885L494.91 409.9L498.377 409.748L505.31 410.043L509.47 410.08L512.243 410.111" fill="#EFEFEF" fill-opacity="0.4"/>
<path d="M374.273 410.11L390.913 409.909L393.686 409.789L396.46 409.7L399.926 409.307L403.393 409.058L405.473 408.791L409.633 407.723L411.019 406.998L411.712 406.382L413.099 404.496L414.486 401.737L415.872 397.993L416.566 395.529L417.259 392.464L417.952 388.639L419.339 378.263L420.726 363.978L422.112 346.199L424.885 305.242L431.125 207.837L431.819 200.469L432.512 194.804L433.899 187.17L435.979 177.089L437.365 170.436L438.058 167.817L438.752 165.922L439.445 164.999L440.138 165.226L440.832 166.433L442.218 169.211L442.912 169.746L443.605 170.033L444.298 170.986L444.992 173.444L445.685 177.722L447.072 190.373L450.538 225.317L452.618 243.196L456.085 270.983L460.245 308.392L466.484 355.771L467.871 363.863L470.644 377.864L472.031 383.706L474.111 390.805L475.498 394.717L476.884 397.977L478.271 400.472L479.657 402.136L484.511 406.358L485.897 406.946L487.977 407.602L492.137 409.614L493.524 409.885L494.91 409.9L498.377 409.748L505.31 410.043L509.47 410.08L512.243 410.111" stroke="#EFEFEF" stroke-linecap="square"/>
</g>
<mask id="mask10_230_10238" style="mask-type:luminance" maskUnits="userSpaceOnUse" x="76" y="55" width="477" height="356">
<path d="M552.957 55.2959H76.7969V410.112H552.957V55.2959Z" fill="white"/>
</mask>
<g mask="url(#mask10_230_10238)">
<path d="M381.109 410.11L383.745 409.969L386.38 409.689L389.016 409.797L391.651 409.266L398.899 407.573L399.558 407.132L400.876 405.651L402.852 402.861L404.17 400.371L405.488 396.783L408.123 388.959L408.782 386.022L409.441 381.96L410.1 376.534L411.418 361.726L412.736 342.589L414.053 318.229L415.371 285.763L416.689 242.787L419.324 148.407L420.642 115.915L421.96 94.439L423.278 79.5315L423.937 74.8455L424.595 72.5104L425.254 72.1924L425.913 73.1114L426.572 74.8677L427.231 77.9304L427.89 83.168L429.208 100.131L432.502 148.663L437.773 239.709L439.091 258.574L441.726 289.304L443.044 303.655L448.974 357.724L453.586 387.004L454.904 392.232L456.222 396.318L457.539 399.529L458.857 401.516L462.151 405.063L462.81 405.452L463.469 405.623L465.446 405.612L466.105 405.875L467.423 407.061L468.74 408.255L469.399 408.533L470.717 408.56L472.035 408.675L474.011 409.143L480.6 409.422L484.553 409.599L489.166 409.731L492.46 410.008L499.049 409.996L505.638 410.08L509.591 410.056L512.226 410.111" fill="#EFEFEF" fill-opacity="0.4"/>
<path d="M381.109 410.11L383.745 409.969L386.38 409.689L389.016 409.797L391.651 409.266L398.899 407.573L399.558 407.132L400.876 405.651L402.852 402.861L404.17 400.371L405.488 396.783L408.123 388.959L408.782 386.022L409.441 381.96L410.1 376.534L411.418 361.726L412.736 342.589L414.053 318.229L415.371 285.763L416.689 242.787L419.324 148.407L420.642 115.915L421.96 94.439L423.278 79.5315L423.937 74.8455L424.595 72.5104L425.254 72.1924L425.913 73.1114L426.572 74.8677L427.231 77.9304L427.89 83.168L429.208 100.131L432.502 148.663L437.773 239.709L439.091 258.574L441.726 289.304L443.044 303.655L448.974 357.724L453.586 387.004L454.904 392.232L456.222 396.318L457.539 399.529L458.857 401.516L462.151 405.063L462.81 405.452L463.469 405.623L465.446 405.612L466.105 405.875L467.423 407.061L468.74 408.255L469.399 408.533L470.717 408.56L472.035 408.675L474.011 409.143L480.6 409.422L484.553 409.599L489.166 409.731L492.46 410.008L499.049 409.996L505.638 410.08L509.591 410.056L512.226 410.111" stroke="#EFEFEF" stroke-linecap="square"/>
</g>
<mask id="mask11_230_10238" style="mask-type:luminance" maskUnits="userSpaceOnUse" x="76" y="55" width="477" height="356">
<path d="M552.957 55.2959H76.7969V410.112H552.957V55.2959Z" fill="white"/>
</mask>
<g mask="url(#mask11_230_10238)">
<path d="M373.352 410.111L386.09 409.942L388.92 409.564L391.751 409.149L396.705 408.72L398.12 408.278L399.536 407.455L400.951 406.163L403.782 403.176L405.905 401.087L406.612 400.04L408.028 397.063L410.151 391.257L411.566 386.928L412.274 384.317L412.981 381.125L414.397 372.443L415.812 361.16L422.889 298.736L425.012 275.226L427.842 243.886L430.673 214.211L432.089 204.209L433.504 197.406L436.335 185.854L437.042 183.608L437.75 181.968L438.458 181.132L439.165 181.186L439.873 182.026L441.288 184.924L443.411 189.71L444.119 191.743L444.827 194.309L445.534 197.564L446.242 201.637L447.657 212.576L449.073 226.969L451.903 257.944L458.98 325.29L460.396 336.395L462.519 350.311L466.057 371.615L467.472 378.283L468.888 383.474L471.011 389.994L472.426 393.243L474.549 396.776L478.795 403.301L480.21 405.148L481.626 406.464L483.041 407.119L487.287 408.178L489.41 408.789L493.656 409.477L498.61 409.88L502.148 409.847L507.102 409.944L514.179 410.111" fill="#EFEFEF" fill-opacity="0.4"/>
<path d="M373.352 410.111L386.09 409.942L388.92 409.564L391.751 409.149L396.705 408.72L398.12 408.278L399.536 407.455L400.951 406.163L403.782 403.176L405.905 401.087L406.612 400.04L408.028 397.063L410.151 391.257L411.566 386.928L412.274 384.317L412.981 381.125L414.397 372.443L415.812 361.16L422.889 298.736L425.012 275.226L427.842 243.886L430.673 214.211L432.089 204.209L433.504 197.406L436.335 185.854L437.042 183.608L437.75 181.968L438.458 181.132L439.165 181.186L439.873 182.026L441.288 184.924L443.411 189.71L444.119 191.743L444.827 194.309L445.534 197.564L446.242 201.637L447.657 212.576L449.073 226.969L451.903 257.944L458.98 325.29L460.396 336.395L462.519 350.311L466.057 371.615L467.472 378.283L468.888 383.474L471.011 389.994L472.426 393.243L474.549 396.776L478.795 403.301L480.21 405.148L481.626 406.464L483.041 407.119L487.287 408.178L489.41 408.789L493.656 409.477L498.61 409.88L502.148 409.847L507.102 409.944L514.179 410.111" stroke="#EFEFEF" stroke-linecap="square"/>
</g>
<mask id="mask12_230_10238" style="mask-type:luminance" maskUnits="userSpaceOnUse" x="76" y="55" width="477" height="356">
<path d="M552.957 55.2959H76.7969V410.112H552.957V55.2959Z" fill="white"/>
</mask>
<g mask="url(#mask12_230_10238)">
<path d="M371.227 410.11L389.557 409.917L398.324 409.105L402.309 408.19L403.106 407.717L403.903 406.983L405.497 404.961L407.888 401.366L410.279 397.058L411.076 395.31L411.873 392.948L412.67 389.632L414.264 380.396L416.655 364.294L418.249 350.043L421.437 314.515L423.031 291.885L425.422 246.825L428.61 191.225L431.001 152.373L432.595 132.127L434.189 118.335L434.986 113.214L435.783 109.834L436.58 108.967L437.377 110.642L438.174 114.159L438.97 118.895L439.767 124.827L441.361 140.706L442.955 160.679L446.94 219.266L450.925 282.548L453.316 314.731L454.91 332.74L456.504 346.999L458.895 364.512L461.286 378.516L462.88 386.366L464.474 392.362L466.068 396.922L467.662 400.07L469.256 402.667L470.85 404.542L472.444 405.777L474.835 407.231L476.429 407.848L481.211 409.178L483.602 409.069L485.196 409.156L490.775 409.934L497.151 409.95L499.542 410.078L509.105 410.037L514.684 410.112L529.827 410.11" fill="#EFEFEF" fill-opacity="0.4"/>
<path d="M371.227 410.11L389.557 409.917L398.324 409.105L402.309 408.19L403.106 407.717L403.903 406.983L405.497 404.961L407.888 401.366L410.279 397.058L411.076 395.31L411.873 392.948L412.67 389.632L414.264 380.396L416.655 364.294L418.249 350.043L421.437 314.515L423.031 291.885L425.422 246.825L428.61 191.225L431.001 152.373L432.595 132.127L434.189 118.335L434.986 113.214L435.783 109.834L436.58 108.967L437.377 110.642L438.174 114.159L438.97 118.895L439.767 124.827L441.361 140.706L442.955 160.679L446.94 219.266L450.925 282.548L453.316 314.731L454.91 332.74L456.504 346.999L458.895 364.512L461.286 378.516L462.88 386.366L464.474 392.362L466.068 396.922L467.662 400.07L469.256 402.667L470.85 404.542L472.444 405.777L474.835 407.231L476.429 407.848L481.211 409.178L483.602 409.069L485.196 409.156L490.775 409.934L497.151 409.95L499.542 410.078L509.105 410.037L514.684 410.112L529.827 410.11" stroke="#EFEFEF" stroke-linecap="square"/>
</g>
<mask id="mask13_230_10238" style="mask-type:luminance" maskUnits="userSpaceOnUse" x="76" y="55" width="477" height="356">
<path d="M552.957 55.2959H76.7969V410.112H552.957V55.2959Z" fill="white"/>
</mask>
<g mask="url(#mask13_230_10238)">
<path d="M360.242 410.111L381.921 409.925L384.422 409.579L389.425 408.34L391.926 407.661L393.594 406.876L395.261 405.684L396.929 404.241L398.596 402.419L400.264 400L401.932 396.947L403.599 393.287L405.267 389.054L406.101 386.527L406.934 383.479L407.768 379.753L409.436 370.372L415.272 332.701L416.94 320.186L418.607 303.912L421.109 277.716L426.945 221.674L430.28 196.094L431.114 190.756L431.948 186.481L432.782 183.433L433.615 181.717L434.449 181.431L435.283 182.594L436.117 185.036L437.784 192.051L441.953 210.392L443.621 220.384L445.288 231.605L446.956 245.161L453.626 307.253L455.294 319.571L457.795 335.419L461.13 354.441L465.299 375.82L466.967 382.441L468.635 387.458L471.136 393.928L472.804 397.306L474.471 399.62L479.474 405.387L481.141 406.734L482.809 407.584L486.144 408.909L487.812 409.241L492.814 409.707L517.828 410.068L522.831 410.08L526.166 410.111" fill="#EFEFEF" fill-opacity="0.4"/>
<path d="M360.242 410.111L381.921 409.925L384.422 409.579L389.425 408.34L391.926 407.661L393.594 406.876L395.261 405.684L396.929 404.241L398.596 402.419L400.264 400L401.932 396.947L403.599 393.287L405.267 389.054L406.101 386.527L406.934 383.479L407.768 379.753L409.436 370.372L415.272 332.701L416.94 320.186L418.607 303.912L421.109 277.716L426.945 221.674L430.28 196.094L431.114 190.756L431.948 186.481L432.782 183.433L433.615 181.717L434.449 181.431L435.283 182.594L436.117 185.036L437.784 192.051L441.953 210.392L443.621 220.384L445.288 231.605L446.956 245.161L453.626 307.253L455.294 319.571L457.795 335.419L461.13 354.441L465.299 375.82L466.967 382.441L468.635 387.458L471.136 393.928L472.804 397.306L474.471 399.62L479.474 405.387L481.141 406.734L482.809 407.584L486.144 408.909L487.812 409.241L492.814 409.707L517.828 410.068L522.831 410.08L526.166 410.111" stroke="#EFEFEF" stroke-linecap="square"/>
</g>
<mask id="mask14_230_10238" style="mask-type:luminance" maskUnits="userSpaceOnUse" x="76" y="55" width="477" height="356">
<path d="M552.957 55.2959H76.7969V410.112H552.957V55.2959Z" fill="white"/>
</mask>
<g mask="url(#mask14_230_10238)">
<path d="M98.4375 410.111L120.19 410.112L379.043 410.015L383.394 409.829L385.569 409.921L387.744 409.742L389.92 409.333L392.095 409.115L394.27 408.681L398.621 406.543L400.796 404.691L402.971 402.02L405.146 399.093L407.322 395.707L409.497 391.151L411.672 383.685L413.847 374.836L416.023 364.756L418.198 348.124L420.373 323.989L424.723 268.517L429.074 220.644L431.249 194.028L433.424 173.139L435.6 156.9L437.775 146.213L439.95 148.953L442.125 163.19L444.301 184.589L448.651 238.28L453.002 294.143L455.177 315.822L457.352 331.703L463.878 372.842L466.053 380.878L468.228 385.994L470.404 391.753L472.579 397.014L474.754 400.316L479.104 403.682L481.28 405.27L485.63 407.32L487.805 408.574L489.981 408.94L492.156 408.995L496.506 409.537L498.682 409.898L516.084 409.857L520.434 410.098L531.31 410.111" fill="#7EB0D5" fill-opacity="0.4"/>
<path d="M98.4375 410.111L120.19 410.112L379.043 410.015L383.394 409.829L385.569 409.921L387.744 409.742L389.92 409.333L392.095 409.115L394.27 408.681L398.621 406.543L400.796 404.691L402.971 402.02L405.146 399.093L407.322 395.707L409.497 391.151L411.672 383.685L413.847 374.836L416.023 364.756L418.198 348.124L420.373 323.989L424.723 268.517L429.074 220.644L431.249 194.028L433.424 173.139L435.6 156.9L437.775 146.213L439.95 148.953L442.125 163.19L444.301 184.589L448.651 238.28L453.002 294.143L455.177 315.822L457.352 331.703L463.878 372.842L466.053 380.878L468.228 385.994L470.404 391.753L472.579 397.014L474.754 400.316L479.104 403.682L481.28 405.27L485.63 407.32L487.805 408.574L489.981 408.94L492.156 408.995L496.506 409.537L498.682 409.898L516.084 409.857L520.434 410.098L531.31 410.111" stroke="#7EB0D5" stroke-linecap="square"/>
</g>
<path d="M535.061 411.061C535.646 410.475 535.646 409.525 535.061 408.939L525.515 399.393C524.929 398.808 523.979 398.808 523.393 399.393C522.808 399.979 522.808 400.929 523.393 401.515L531.879 410L523.393 418.485C522.808 419.071 522.808 420.021 523.393 420.607C523.979 421.192 524.929 421.192 525.515 420.607L535.061 411.061ZM79 411.5H534V408.5H79V411.5Z" fill="black"/>
</svg>
