<svg width="615" height="461" viewBox="0 0 615 461" fill="none" xmlns="http://www.w3.org/2000/svg">
<g clip-path="url(#clip0_230_10798)">
<mask id="mask0_230_10798" style="mask-type:luminance" maskUnits="userSpaceOnUse" x="76" y="55" width="477" height="356">
<path d="M552.957 55.2959H76.7969V410.112H552.957V55.2959Z" fill="white"/>
</mask>
<g mask="url(#mask0_230_10798)">
<path d="M305.57 410.111L324.157 409.93L327.436 409.533L329.623 409.009L332.903 407.813L333.996 407.209L335.09 406.215L338.37 401.96L339.463 399.86L340.556 396.436L342.743 387.204L343.836 381.532L344.929 373.966L346.023 363.767L347.116 350.568L351.489 286.462L352.583 267.885L356.956 181.34L359.142 147.514L360.236 134.333L361.329 128.048L362.422 130.524L363.516 139.109L365.702 161.128L366.796 174.815L368.982 211.774L373.355 287.354L374.449 303.319L375.542 316.779L376.635 328.218L377.729 338.067L378.822 346.482L379.915 353.724L381.009 359.734L383.195 368.319L385.382 376.211L387.568 382.721L391.942 395.068L393.035 397.226L394.128 398.73L395.222 399.937L396.315 400.911L397.408 401.527L398.501 401.961L399.595 402.679L401.781 404.874L402.875 405.549L403.968 405.774L406.155 405.641L407.248 405.844L408.341 406.403L410.528 407.771L412.714 408.439L414.901 408.889L417.088 408.793L418.181 408.755L419.274 408.921L422.554 409.743L425.834 409.856L431.301 409.911L433.487 409.832L436.767 409.808L438.954 409.699L444.42 409.997L447.7 410.103L455.353 410.094L466.287 410.108L477.22 410.112L523.138 410.111" fill="#EFEFEF" fill-opacity="0.4"/>
<path d="M305.57 410.111L324.157 409.93L327.436 409.533L329.623 409.009L332.903 407.813L333.996 407.209L335.09 406.215L338.37 401.96L339.463 399.86L340.556 396.436L342.743 387.204L343.836 381.532L344.929 373.966L346.023 363.767L347.116 350.568L351.489 286.462L352.583 267.885L356.956 181.34L359.142 147.514L360.236 134.333L361.329 128.048L362.422 130.524L363.516 139.109L365.702 161.128L366.796 174.815L368.982 211.774L373.355 287.354L374.449 303.319L375.542 316.779L376.635 328.218L377.729 338.067L378.822 346.482L379.915 353.724L381.009 359.734L383.195 368.319L385.382 376.211L387.568 382.721L391.942 395.068L393.035 397.226L394.128 398.73L395.222 399.937L396.315 400.911L397.408 401.527L398.501 401.961L399.595 402.679L401.781 404.874L402.875 405.549L403.968 405.774L406.155 405.641L407.248 405.844L408.341 406.403L410.528 407.771L412.714 408.439L414.901 408.889L417.088 408.793L418.181 408.755L419.274 408.921L422.554 409.743L425.834 409.856L431.301 409.911L433.487 409.832L436.767 409.808L438.954 409.699L444.42 409.997L447.7 410.103L455.353 410.094L466.287 410.108L477.22 410.112L523.138 410.111" stroke="#EFEFEF" stroke-linecap="square"/>
</g>
<mask id="mask1_230_10798" style="mask-type:luminance" maskUnits="userSpaceOnUse" x="76" y="55" width="477" height="356">
<path d="M552.957 55.2959H76.7969V410.112H552.957V55.2959Z" fill="white"/>
</mask>
<g mask="url(#mask1_230_10798)">
<path d="M319.516 410.11L323.189 410.012L328.699 409.431L335.127 407.873L337.881 406.555L339.718 405.45L340.636 404.66L341.555 403.588L342.473 402.155L343.391 400.318L345.228 395.509L348.901 384.275L349.819 380.714L351.656 371.261L355.329 348.987L357.165 335.797L359.92 315.465L362.675 296L365.43 275.963L367.267 265.432L369.103 256.112L372.776 234.402L373.695 230.399L374.613 227.084L375.531 224.401L376.449 222.372L377.368 220.952L378.286 220.132L379.204 220.065L380.123 220.944L381.041 222.771L381.959 225.392L382.877 228.758L383.796 233.036L384.714 238.384L386.551 251.995L388.387 268.973L394.815 335.495L397.57 358.295L399.407 371.377L401.243 381.774L403.08 389.626L404.916 395.58L405.835 398L406.753 399.972L407.671 401.453L409.508 403.405L412.263 405.614L414.099 406.631L418.691 408.725L420.527 408.882L429.71 409.365L431.547 409.611L453.586 410.044L460.014 409.988L502.255 410.111" fill="#EFEFEF" fill-opacity="0.4"/>
<path d="M319.516 410.11L323.189 410.012L328.699 409.431L335.127 407.873L337.881 406.555L339.718 405.45L340.636 404.66L341.555 403.588L342.473 402.155L343.391 400.318L345.228 395.509L348.901 384.275L349.819 380.714L351.656 371.261L355.329 348.987L357.165 335.797L359.92 315.465L362.675 296L365.43 275.963L367.267 265.432L369.103 256.112L372.776 234.402L373.695 230.399L374.613 227.084L375.531 224.401L376.449 222.372L377.368 220.952L378.286 220.132L379.204 220.065L380.123 220.944L381.041 222.771L381.959 225.392L382.877 228.758L383.796 233.036L384.714 238.384L386.551 251.995L388.387 268.973L394.815 335.495L397.57 358.295L399.407 371.377L401.243 381.774L403.08 389.626L404.916 395.58L405.835 398L406.753 399.972L407.671 401.453L409.508 403.405L412.263 405.614L414.099 406.631L418.691 408.725L420.527 408.882L429.71 409.365L431.547 409.611L453.586 410.044L460.014 409.988L502.255 410.111" stroke="#EFEFEF" stroke-linecap="square"/>
</g>
<mask id="mask2_230_10798" style="mask-type:luminance" maskUnits="userSpaceOnUse" x="76" y="55" width="477" height="356">
<path d="M552.957 55.2959H76.7969V410.112H552.957V55.2959Z" fill="white"/>
</mask>
<g mask="url(#mask2_230_10798)">
<path d="M290.719 410.112L310.939 409.957L316.26 409.705L319.452 409.311L324.773 408.302L326.902 407.339L329.03 405.77L333.287 401.889L334.351 400.647L335.416 399.073L336.48 397.08L337.544 394.647L339.672 388.525L341.801 380.697L343.929 370.774L346.058 358.875L349.25 339.402L351.379 324.88L354.571 301.663L356.7 288.752L358.828 278.387L360.957 270.239L362.021 267.147L363.085 264.703L364.149 262.788L365.213 261.309L366.278 260.331L367.342 260.08L368.406 260.792L369.47 262.509L370.534 265.03L372.663 271.387L374.791 278.755L379.048 295.088L389.69 337.034L393.947 351.628L398.204 365.573L400.332 371.597L402.461 376.596L404.589 380.829L405.653 382.619L406.718 384.109L408.846 386.337L410.974 388.661L415.231 394.53L417.36 396.735L420.552 399.568L422.681 400.999L424.809 402.369L429.066 405.554L431.194 406.57L435.451 407.954L438.644 408.729L441.836 409.139L458.864 409.996L473.763 409.898L491.854 410.047L497.175 410.059L502.496 410.111" fill="#EFEFEF" fill-opacity="0.4"/>
<path d="M290.719 410.112L310.939 409.957L316.26 409.705L319.452 409.311L324.773 408.302L326.902 407.339L329.03 405.77L333.287 401.889L334.351 400.647L335.416 399.073L336.48 397.08L337.544 394.647L339.672 388.525L341.801 380.697L343.929 370.774L346.058 358.875L349.25 339.402L351.379 324.88L354.571 301.663L356.7 288.752L358.828 278.387L360.957 270.239L362.021 267.147L363.085 264.703L364.149 262.788L365.213 261.309L366.278 260.331L367.342 260.08L368.406 260.792L369.47 262.509L370.534 265.03L372.663 271.387L374.791 278.755L379.048 295.088L389.69 337.034L393.947 351.628L398.204 365.573L400.332 371.597L402.461 376.596L404.589 380.829L405.653 382.619L406.718 384.109L408.846 386.337L410.974 388.661L415.231 394.53L417.36 396.735L420.552 399.568L422.681 400.999L424.809 402.369L429.066 405.554L431.194 406.57L435.451 407.954L438.644 408.729L441.836 409.139L458.864 409.996L473.763 409.898L491.854 410.047L497.175 410.059L502.496 410.111" stroke="#EFEFEF" stroke-linecap="square"/>
</g>
<mask id="mask3_230_10798" style="mask-type:luminance" maskUnits="userSpaceOnUse" x="76" y="55" width="477" height="356">
<path d="M552.957 55.2959H76.7969V410.112H552.957V55.2959Z" fill="white"/>
</mask>
<g mask="url(#mask3_230_10798)">
<path d="M318.602 410.11L325.061 409.951L326.907 409.551L330.598 407.968L331.521 407.468L332.444 406.78L333.367 405.84L335.212 403.067L337.058 400.412L337.981 398.601L338.903 395.863L343.517 378.342L344.44 373.862L345.363 367.58L347.209 350.155L349.977 322.662L351.823 299.002L353.668 269.33L356.437 217.346L359.205 161.848L360.128 147.989L361.974 127.26L362.897 118.426L363.819 113.189L364.742 114.059L365.665 120.598L366.588 130.189L367.511 141.364L368.433 154.581L370.279 186.951L373.97 259.437L375.816 295.569L378.584 342.394L380.43 366.972L381.353 376.541L382.276 384.241L383.198 389.863L384.121 393.571L385.967 398.669L387.812 403.041L388.735 404.783L389.658 406.126L390.581 406.946L391.504 407.251L393.349 407.246L394.272 407.586L396.118 408.901L397.041 409.344L398.886 409.696L401.655 409.676L404.423 409.643L409.037 409.716L410.883 409.672L415.497 409.971L424.725 409.715L426.571 409.524L434.876 409.95L438.567 409.953L441.336 409.975L445.95 409.915L452.409 410.03L455.178 409.93L460.715 410.093L465.329 410.02L502.241 410.11" fill="#EFEFEF" fill-opacity="0.4"/>
<path d="M318.602 410.11L325.061 409.951L326.907 409.551L330.598 407.968L331.521 407.468L332.444 406.78L333.367 405.84L335.212 403.067L337.058 400.412L337.981 398.601L338.903 395.863L343.517 378.342L344.44 373.862L345.363 367.58L347.209 350.155L349.977 322.662L351.823 299.002L353.668 269.33L356.437 217.346L359.205 161.848L360.128 147.989L361.974 127.26L362.897 118.426L363.819 113.189L364.742 114.059L365.665 120.598L366.588 130.189L367.511 141.364L368.433 154.581L370.279 186.951L373.97 259.437L375.816 295.569L378.584 342.394L380.43 366.972L381.353 376.541L382.276 384.241L383.198 389.863L384.121 393.571L385.967 398.669L387.812 403.041L388.735 404.783L389.658 406.126L390.581 406.946L391.504 407.251L393.349 407.246L394.272 407.586L396.118 408.901L397.041 409.344L398.886 409.696L401.655 409.676L404.423 409.643L409.037 409.716L410.883 409.672L415.497 409.971L424.725 409.715L426.571 409.524L434.876 409.95L438.567 409.953L441.336 409.975L445.95 409.915L452.409 410.03L455.178 409.93L460.715 410.093L465.329 410.02L502.241 410.11" stroke="#EFEFEF" stroke-linecap="square"/>
</g>
<mask id="mask4_230_10798" style="mask-type:luminance" maskUnits="userSpaceOnUse" x="76" y="55" width="477" height="356">
<path d="M552.957 55.2959H76.7969V410.112H552.957V55.2959Z" fill="white"/>
</mask>
<g mask="url(#mask4_230_10798)">
<path d="M294.844 410.111L315.91 409.913L323.283 409.489L326.443 408.709L331.709 407.023L332.762 406.381L333.816 405.459L334.869 404.266L336.976 401.255L339.082 397.804L340.136 395.623L341.189 392.578L342.242 388.28L343.295 382.557L344.349 375.35L345.402 366.653L347.509 345.964L350.668 311.806L359.095 216.726L360.148 206.761L361.201 199.664L362.255 194.92L363.308 191.538L364.361 189.325L365.415 188.996L366.468 191.232L367.521 196.082L368.575 203.352L369.628 212.937L371.734 236.551L375.948 283.837L378.054 302.862L381.214 328.049L382.267 335.122L383.321 341.042L384.374 345.735L386.481 353.58L388.587 362.899L390.694 371.762L391.747 374.928L394.907 382.12L398.067 390.93L399.12 393.179L400.174 394.951L401.227 396.275L403.333 398.154L408.6 402.749L410.706 404.728L411.76 405.411L413.866 406.313L417.026 407.347L420.186 408.07L422.293 408.611L424.399 408.728L426.506 408.771L431.772 409.185L433.879 409.226L440.199 409.918L504.45 410.111" fill="#EFEFEF" fill-opacity="0.4"/>
<path d="M294.844 410.111L315.91 409.913L323.283 409.489L326.443 408.709L331.709 407.023L332.762 406.381L333.816 405.459L334.869 404.266L336.976 401.255L339.082 397.804L340.136 395.623L341.189 392.578L342.242 388.28L343.295 382.557L344.349 375.35L345.402 366.653L347.509 345.964L350.668 311.806L359.095 216.726L360.148 206.761L361.201 199.664L362.255 194.92L363.308 191.538L364.361 189.325L365.415 188.996L366.468 191.232L367.521 196.082L368.575 203.352L369.628 212.937L371.734 236.551L375.948 283.837L378.054 302.862L381.214 328.049L382.267 335.122L383.321 341.042L384.374 345.735L386.481 353.58L388.587 362.899L390.694 371.762L391.747 374.928L394.907 382.12L398.067 390.93L399.12 393.179L400.174 394.951L401.227 396.275L403.333 398.154L408.6 402.749L410.706 404.728L411.76 405.411L413.866 406.313L417.026 407.347L420.186 408.07L422.293 408.611L424.399 408.728L426.506 408.771L431.772 409.185L433.879 409.226L440.199 409.918L504.45 410.111" stroke="#EFEFEF" stroke-linecap="square"/>
</g>
<mask id="mask5_230_10798" style="mask-type:luminance" maskUnits="userSpaceOnUse" x="76" y="55" width="477" height="356">
<path d="M552.957 55.2959H76.7969V410.112H552.957V55.2959Z" fill="white"/>
</mask>
<g mask="url(#mask5_230_10798)">
<path d="M299.289 410.111L315.612 409.944L317.944 409.811L328.438 408.449L329.604 408.066L330.769 407.293L331.935 405.961L333.101 403.967L334.267 401.317L335.433 397.761L336.599 392.573L337.765 385.058L338.931 374.98L340.097 362.325L341.263 347.033L342.429 329.053L344.761 286.333L347.093 242.284L348.259 223.133L349.425 206.781L350.591 194.039L351.756 185.81L352.922 181.736L354.088 180.243L355.254 180.312L356.42 182.28L357.586 186.634L358.752 192.884L359.918 200.351L361.084 209.101L363.416 230.343L369.246 286.771L375.075 334.197L377.407 348.208L382.071 373.058L383.237 378.08L384.403 382.293L386.735 389.141L387.901 391.82L389.067 393.901L391.398 397.096L397.228 403.904L398.394 404.834L399.56 405.426L403.058 406.569L405.39 407.841L406.556 408.116L413.551 408.642L417.049 409.094L421.713 409.335L425.211 409.27L429.875 409.547L432.206 409.521L436.87 409.721L450.861 409.724L460.189 410.109L469.517 410.007L474.18 409.954L483.508 410.064L487.006 409.974L489.338 409.877L498.665 410.042L521.984 410.104L531.311 410.111" fill="#EFEFEF" fill-opacity="0.4"/>
<path d="M299.289 410.111L315.612 409.944L317.944 409.811L328.438 408.449L329.604 408.066L330.769 407.293L331.935 405.961L333.101 403.967L334.267 401.317L335.433 397.761L336.599 392.573L337.765 385.058L338.931 374.98L340.097 362.325L341.263 347.033L342.429 329.053L344.761 286.333L347.093 242.284L348.259 223.133L349.425 206.781L350.591 194.039L351.756 185.81L352.922 181.736L354.088 180.243L355.254 180.312L356.42 182.28L357.586 186.634L358.752 192.884L359.918 200.351L361.084 209.101L363.416 230.343L369.246 286.771L375.075 334.197L377.407 348.208L382.071 373.058L383.237 378.08L384.403 382.293L386.735 389.141L387.901 391.82L389.067 393.901L391.398 397.096L397.228 403.904L398.394 404.834L399.56 405.426L403.058 406.569L405.39 407.841L406.556 408.116L413.551 408.642L417.049 409.094L421.713 409.335L425.211 409.27L429.875 409.547L432.206 409.521L436.87 409.721L450.861 409.724L460.189 410.109L469.517 410.007L474.18 409.954L483.508 410.064L487.006 409.974L489.338 409.877L498.665 410.042L521.984 410.104L531.311 410.111" stroke="#EFEFEF" stroke-linecap="square"/>
</g>
<mask id="mask6_230_10798" style="mask-type:luminance" maskUnits="userSpaceOnUse" x="76" y="55" width="477" height="356">
<path d="M552.957 55.2959H76.7969V410.112H552.957V55.2959Z" fill="white"/>
</mask>
<g mask="url(#mask6_230_10798)">
<path d="M281.016 410.111L300.236 409.956L306.242 409.399L309.846 408.881L312.248 408.108L318.254 405.363L319.456 404.448L320.657 403.231L321.858 401.628L323.059 399.526L324.261 396.817L325.462 393.498L327.864 385.713L330.267 376.695L331.468 371.225L332.669 364.741L333.871 356.948L336.273 337.452L339.877 306.601L343.481 278.522L345.883 262.608L347.084 256.281L348.286 250.978L349.487 246.44L350.688 242.681L351.889 240.124L353.091 239.173L354.292 239.819L355.493 241.739L356.695 244.594L357.896 248.176L359.097 252.415L360.298 257.323L362.701 269.15L365.103 283.213L372.311 328.281L374.713 340.642L377.116 351.219L379.518 360.088L381.921 368.122L384.323 374.83L387.927 383.141L390.33 388.171L392.732 392.339L395.135 395.662L398.738 400.346L399.94 401.655L401.141 402.671L403.543 404.175L407.147 406.105L409.55 407.075L411.952 407.736L416.757 408.724L419.16 409.34L421.562 409.534L427.568 409.102L435.977 409.823L438.38 409.834L443.185 409.683L449.191 409.857L453.996 409.673L462.405 409.929L470.813 410.02L475.618 410.07L481.625 410.05L488.832 410.088L497.241 410.108L520.065 410.111" fill="#EFEFEF" fill-opacity="0.4"/>
<path d="M281.016 410.111L300.236 409.956L306.242 409.399L309.846 408.881L312.248 408.108L318.254 405.363L319.456 404.448L320.657 403.231L321.858 401.628L323.059 399.526L324.261 396.817L325.462 393.498L327.864 385.713L330.267 376.695L331.468 371.225L332.669 364.741L333.871 356.948L336.273 337.452L339.877 306.601L343.481 278.522L345.883 262.608L347.084 256.281L348.286 250.978L349.487 246.44L350.688 242.681L351.889 240.124L353.091 239.173L354.292 239.819L355.493 241.739L356.695 244.594L357.896 248.176L359.097 252.415L360.298 257.323L362.701 269.15L365.103 283.213L372.311 328.281L374.713 340.642L377.116 351.219L379.518 360.088L381.921 368.122L384.323 374.83L387.927 383.141L390.33 388.171L392.732 392.339L395.135 395.662L398.738 400.346L399.94 401.655L401.141 402.671L403.543 404.175L407.147 406.105L409.55 407.075L411.952 407.736L416.757 408.724L419.16 409.34L421.562 409.534L427.568 409.102L435.977 409.823L438.38 409.834L443.185 409.683L449.191 409.857L453.996 409.673L462.405 409.929L470.813 410.02L475.618 410.07L481.625 410.05L488.832 410.088L497.241 410.108L520.065 410.111" stroke="#EFEFEF" stroke-linecap="square"/>
</g>
<mask id="mask7_230_10798" style="mask-type:luminance" maskUnits="userSpaceOnUse" x="76" y="55" width="477" height="356">
<path d="M552.957 55.2959H76.7969V410.112H552.957V55.2959Z" fill="white"/>
</mask>
<g mask="url(#mask7_230_10798)">
<path d="M308.352 410.111L327.34 409.984L332.924 408.96L337.392 406.526L338.509 405.988L339.626 405.203L344.094 401.194L345.211 399.455L346.328 396.429L347.445 392.093L349.678 382.291L350.795 377.828L351.912 372.726L354.146 359.213L355.263 351.393L356.38 341.118L358.614 312.131L360.848 280.307L361.965 260.552L364.199 213.653L366.433 165.933L367.55 148.616L369.783 124.663L370.9 115.358L372.017 114.086L373.134 120.989L374.251 131.347L375.368 143.599L376.485 158.265L377.602 177.274L379.836 229.531L380.953 256.319L383.187 299.204L385.421 334.804L387.654 362.172L388.771 373.091L389.888 381.601L391.005 387.797L392.122 392.114L394.356 399.118L395.473 402.015L396.59 403.978L397.707 405.248L398.824 406.158L401.058 407.385L404.409 408.537L406.642 409.46L407.759 409.611L412.227 409.479L414.461 409.96L415.578 410.023L418.929 409.782L422.28 410.001L424.514 409.962L426.747 409.717L431.215 410.025L434.566 409.868L437.917 409.951L441.268 409.975L450.203 409.996L452.437 409.81L461.373 410.112L530.623 410.111" fill="#EFEFEF" fill-opacity="0.4"/>
<path d="M308.352 410.111L327.34 409.984L332.924 408.96L337.392 406.526L338.509 405.988L339.626 405.203L344.094 401.194L345.211 399.455L346.328 396.429L347.445 392.093L349.678 382.291L350.795 377.828L351.912 372.726L354.146 359.213L355.263 351.393L356.38 341.118L358.614 312.131L360.848 280.307L361.965 260.552L364.199 213.653L366.433 165.933L367.55 148.616L369.783 124.663L370.9 115.358L372.017 114.086L373.134 120.989L374.251 131.347L375.368 143.599L376.485 158.265L377.602 177.274L379.836 229.531L380.953 256.319L383.187 299.204L385.421 334.804L387.654 362.172L388.771 373.091L389.888 381.601L391.005 387.797L392.122 392.114L394.356 399.118L395.473 402.015L396.59 403.978L397.707 405.248L398.824 406.158L401.058 407.385L404.409 408.537L406.642 409.46L407.759 409.611L412.227 409.479L414.461 409.96L415.578 410.023L418.929 409.782L422.28 410.001L424.514 409.962L426.747 409.717L431.215 410.025L434.566 409.868L437.917 409.951L441.268 409.975L450.203 409.996L452.437 409.81L461.373 410.112L530.623 410.111" stroke="#EFEFEF" stroke-linecap="square"/>
</g>
<mask id="mask8_230_10798" style="mask-type:luminance" maskUnits="userSpaceOnUse" x="76" y="55" width="477" height="356">
<path d="M552.957 55.2959H76.7969V410.112H552.957V55.2959Z" fill="white"/>
</mask>
<g mask="url(#mask8_230_10798)">
<path d="M287.258 410.112L307.169 409.949L311.594 409.656L319.337 409.006L321.549 408.308L322.655 407.704L324.868 405.996L327.08 403.797L329.292 400.954L331.505 397.281L332.611 395.024L333.717 392.399L335.93 386.048L338.142 378.638L340.354 370.475L342.567 361.079L344.779 349.428L346.991 335.397L349.204 321.005L351.416 308.515L353.628 298.255L355.841 289.801L358.053 282.482L360.265 276.311L361.372 273.975L362.478 272.255L363.584 271.107L364.69 270.42L365.796 270.113L366.902 270.211L368.009 270.813L369.115 271.987L370.221 273.668L373.539 279.969L375.752 284.688L376.858 287.499L377.964 290.766L380.177 298.815L382.389 308.512L385.707 323.751L387.92 332.728L392.344 349.823L395.663 363.357L396.769 367.137L398.982 373.239L404.512 386.488L407.831 392.856L410.043 396.679L411.149 398.292L412.256 399.599L413.362 400.601L419.999 405.29L422.211 406.37L426.636 407.77L428.848 408.222L437.698 409.019L442.122 409.363L446.547 409.876L457.609 410.028L470.883 410.023L486.369 410.067L506.281 410.11L507.387 410.112" fill="#EFEFEF" fill-opacity="0.4"/>
<path d="M287.258 410.112L307.169 409.949L311.594 409.656L319.337 409.006L321.549 408.308L322.655 407.704L324.868 405.996L327.08 403.797L329.292 400.954L331.505 397.281L332.611 395.024L333.717 392.399L335.93 386.048L338.142 378.638L340.354 370.475L342.567 361.079L344.779 349.428L346.991 335.397L349.204 321.005L351.416 308.515L353.628 298.255L355.841 289.801L358.053 282.482L360.265 276.311L361.372 273.975L362.478 272.255L363.584 271.107L364.69 270.42L365.796 270.113L366.902 270.211L368.009 270.813L369.115 271.987L370.221 273.668L373.539 279.969L375.752 284.688L376.858 287.499L377.964 290.766L380.177 298.815L382.389 308.512L385.707 323.751L387.92 332.728L392.344 349.823L395.663 363.357L396.769 367.137L398.982 373.239L404.512 386.488L407.831 392.856L410.043 396.679L411.149 398.292L412.256 399.599L413.362 400.601L419.999 405.29L422.211 406.37L426.636 407.77L428.848 408.222L437.698 409.019L442.122 409.363L446.547 409.876L457.609 410.028L470.883 410.023L486.369 410.067L506.281 410.11L507.387 410.112" stroke="#EFEFEF" stroke-linecap="square"/>
</g>
<mask id="mask9_230_10798" style="mask-type:luminance" maskUnits="userSpaceOnUse" x="76" y="55" width="477" height="356">
<path d="M552.957 55.2959H76.7969V410.112H552.957V55.2959Z" fill="white"/>
</mask>
<g mask="url(#mask9_230_10798)">
<path d="M292.539 410.111L304.114 409.924L307.008 409.852L310.867 409.888L314.725 409.794L317.619 409.299L322.442 409.355L324.371 409.047L325.336 408.747L326.3 408.243L327.265 407.463L328.23 406.36L329.194 404.913L330.159 403.101L331.124 400.886L332.088 398.218L333.053 395L334.017 391.053L334.982 386.129L335.947 379.991L336.911 372.539L338.84 354.104L339.805 342.953L340.77 329.852L342.699 297.357L344.628 264.34L348.487 208.731L349.451 198.409L351.38 182.263L352.345 176.72L353.31 174.084L354.274 174.254L358.133 181.071L359.097 183.494L360.062 187.823L361.026 195.43L361.991 206.569L364.885 244.38L371.637 323.474L373.566 342.504L375.496 357.312L377.425 370.115L378.389 375.714L379.354 380.258L381.283 387.09L383.213 393.541L384.177 396.177L385.142 398.161L386.106 399.694L387.071 400.949L388.036 401.944L394.788 407.148L395.752 407.7L396.717 408.024L399.611 408.318L401.54 408.58L405.399 409.444L408.292 409.69L412.151 409.734L415.045 409.841L417.939 409.89L420.832 409.893L430.478 409.886L433.372 409.978L436.266 409.801L439.16 409.919L442.054 409.852L444.948 409.955L448.806 409.852L456.523 410.057L460.381 410.085L468.098 410.093L478.709 409.948L484.497 410.111" fill="#EFEFEF" fill-opacity="0.4"/>
<path d="M292.539 410.111L304.114 409.924L307.008 409.852L310.867 409.888L314.725 409.794L317.619 409.299L322.442 409.355L324.371 409.047L325.336 408.747L326.3 408.243L327.265 407.463L328.23 406.36L329.194 404.913L330.159 403.101L331.124 400.886L332.088 398.218L333.053 395L334.017 391.053L334.982 386.129L335.947 379.991L336.911 372.539L338.84 354.104L339.805 342.953L340.77 329.852L342.699 297.357L344.628 264.34L348.487 208.731L349.451 198.409L351.38 182.263L352.345 176.72L353.31 174.084L354.274 174.254L358.133 181.071L359.097 183.494L360.062 187.823L361.026 195.43L361.991 206.569L364.885 244.38L371.637 323.474L373.566 342.504L375.496 357.312L377.425 370.115L378.389 375.714L379.354 380.258L381.283 387.09L383.213 393.541L384.177 396.177L385.142 398.161L386.106 399.694L387.071 400.949L388.036 401.944L394.788 407.148L395.752 407.7L396.717 408.024L399.611 408.318L401.54 408.58L405.399 409.444L408.292 409.69L412.151 409.734L415.045 409.841L417.939 409.89L420.832 409.893L430.478 409.886L433.372 409.978L436.266 409.801L439.16 409.919L442.054 409.852L444.948 409.955L448.806 409.852L456.523 410.057L460.381 410.085L468.098 410.093L478.709 409.948L484.497 410.111" stroke="#EFEFEF" stroke-linecap="square"/>
</g>
<mask id="mask10_230_10798" style="mask-type:luminance" maskUnits="userSpaceOnUse" x="76" y="55" width="477" height="356">
<path d="M552.957 55.2959H76.7969V410.112H552.957V55.2959Z" fill="white"/>
</mask>
<g mask="url(#mask10_230_10798)">
<path d="M307.914 410.111L318.83 409.917L320.815 409.756L324.785 409.046L326.77 408.907L327.762 408.5L328.754 407.695L330.739 405.336L331.732 403.867L332.724 401.716L335.701 393.288L336.694 389.356L338.678 378.475L339.671 372.395L340.663 365.197L341.655 355.19L342.648 341.415L343.64 324.043L348.602 217.985L351.579 138.067L353.564 97.8569L354.557 81.548L355.549 72.1924L356.541 73.7079L357.534 83.7612L358.526 98.3269L360.511 135.402L361.503 157.683L366.465 282.734L368.45 319.211L369.443 335.693L370.435 348.457L373.412 374.325L374.405 382.171L375.397 387.214L378.374 396.794L379.366 399.633L380.359 401.861L381.351 403.603L382.344 404.902L383.336 405.557L384.328 405.724L385.321 406.053L387.306 407.288L390.283 408.844L396.237 409.537L399.214 409.416L401.199 409.657L403.184 409.904L406.161 409.634L411.123 409.946L414.1 409.918L416.085 409.918L418.07 409.928L421.047 409.898L428.986 409.994L430.971 409.911L434.941 410.1L442.88 409.982L444.865 410.066L447.842 410.047L450.819 410.066L453.796 409.845L457.766 410.077L460.743 410.042L464.712 410.112L505.401 410.111" fill="#EFEFEF" fill-opacity="0.4"/>
<path d="M307.914 410.111L318.83 409.917L320.815 409.756L324.785 409.046L326.77 408.907L327.762 408.5L328.754 407.695L330.739 405.336L331.732 403.867L332.724 401.716L335.701 393.288L336.694 389.356L338.678 378.475L339.671 372.395L340.663 365.197L341.655 355.19L342.648 341.415L343.64 324.043L348.602 217.985L351.579 138.067L353.564 97.8569L354.557 81.548L355.549 72.1924L356.541 73.7079L357.534 83.7612L358.526 98.3269L360.511 135.402L361.503 157.683L366.465 282.734L368.45 319.211L369.443 335.693L370.435 348.457L373.412 374.325L374.405 382.171L375.397 387.214L378.374 396.794L379.366 399.633L380.359 401.861L381.351 403.603L382.344 404.902L383.336 405.557L384.328 405.724L385.321 406.053L387.306 407.288L390.283 408.844L396.237 409.537L399.214 409.416L401.199 409.657L403.184 409.904L406.161 409.634L411.123 409.946L414.1 409.918L416.085 409.918L418.07 409.928L421.047 409.898L428.986 409.994L430.971 409.911L434.941 410.1L442.88 409.982L444.865 410.066L447.842 410.047L450.819 410.066L453.796 409.845L457.766 410.077L460.743 410.042L464.712 410.112L505.401 410.111" stroke="#EFEFEF" stroke-linecap="square"/>
</g>
<mask id="mask11_230_10798" style="mask-type:luminance" maskUnits="userSpaceOnUse" x="76" y="55" width="477" height="356">
<path d="M552.957 55.2959H76.7969V410.112H552.957V55.2959Z" fill="white"/>
</mask>
<g mask="url(#mask11_230_10798)">
<path d="M303.914 410.112L310.335 409.976L315.687 409.537L321.038 408.79L324.248 407.834L326.389 406.905L328.529 405.552L330.67 403.819L332.81 401.565L334.951 398.569L340.302 390.588L341.372 388.21L343.512 382.078L346.723 372.427L348.864 365.94L349.934 362.034L352.074 352.363L354.215 340.87L356.355 328.096L359.566 306.723L362.777 284.777L364.917 271.722L367.057 260.677L369.198 251.781L370.268 248.059L371.338 244.939L372.409 242.75L373.479 241.811L374.549 242.19L375.619 243.74L376.69 246.292L377.76 249.718L379.9 258.573L382.041 269.898L389.532 317.345L391.673 330.85L393.813 342.653L398.094 363.158L400.235 372.681L402.375 379.984L404.515 385.856L406.656 390.793L407.726 392.753L409.867 395.738L415.218 402.139L416.288 403.023L418.428 404.163L423.78 406.373L425.92 406.856L429.131 407.467L432.341 408.213L438.763 409.012L441.973 409.217L448.395 409.388L453.746 409.749L460.167 409.8L465.518 410.007L516.889 410.112" fill="#EFEFEF" fill-opacity="0.4"/>
<path d="M303.914 410.112L310.335 409.976L315.687 409.537L321.038 408.79L324.248 407.834L326.389 406.905L328.529 405.552L330.67 403.819L332.81 401.565L334.951 398.569L340.302 390.588L341.372 388.21L343.512 382.078L346.723 372.427L348.864 365.94L349.934 362.034L352.074 352.363L354.215 340.87L356.355 328.096L359.566 306.723L362.777 284.777L364.917 271.722L367.057 260.677L369.198 251.781L370.268 248.059L371.338 244.939L372.409 242.75L373.479 241.811L374.549 242.19L375.619 243.74L376.69 246.292L377.76 249.718L379.9 258.573L382.041 269.898L389.532 317.345L391.673 330.85L393.813 342.653L398.094 363.158L400.235 372.681L402.375 379.984L404.515 385.856L406.656 390.793L407.726 392.753L409.867 395.738L415.218 402.139L416.288 403.023L418.428 404.163L423.78 406.373L425.92 406.856L429.131 407.467L432.341 408.213L438.763 409.012L441.973 409.217L448.395 409.388L453.746 409.749L460.167 409.8L465.518 410.007L516.889 410.112" stroke="#EFEFEF" stroke-linecap="square"/>
</g>
<mask id="mask12_230_10798" style="mask-type:luminance" maskUnits="userSpaceOnUse" x="76" y="55" width="477" height="356">
<path d="M552.957 55.2959H76.7969V410.112H552.957V55.2959Z" fill="white"/>
</mask>
<g mask="url(#mask12_230_10798)">
<path d="M306.102 410.11L317.417 409.905L323.075 409.229L324.207 409.226L325.338 408.998L326.47 408.448L327.602 407.582L328.733 406.394L329.865 404.81L330.996 402.747L332.128 400.299L333.26 397.447L334.391 393.642L335.523 388.066L336.654 380.186L338.917 359.141L341.181 336.667L342.312 323.852L344.575 293.295L346.839 256.562L349.102 216.66L350.233 200.869L351.365 188.875L353.628 169.024L354.76 160.875L355.891 156.122L357.023 155.768L358.154 160.296L359.286 169.249L360.418 180.99L362.681 209.242L369.47 298.485L371.733 323.903L372.865 335.176L373.997 344.889L375.128 352.67L380.786 384.279L381.918 388.634L383.049 391.382L389.839 402.846L390.97 404.092L392.102 404.88L401.154 408.621L402.286 408.974L403.418 409.124L411.339 409.162L414.733 409.481L416.997 409.497L420.391 409.908L424.918 409.8L428.312 409.914L431.707 409.691L436.234 410.064L441.891 409.922L447.549 409.998L452.076 409.76L455.47 410.085L463.391 410.112L531.286 410.111" fill="#EFEFEF" fill-opacity="0.4"/>
<path d="M306.102 410.11L317.417 409.905L323.075 409.229L324.207 409.226L325.338 408.998L326.47 408.448L327.602 407.582L328.733 406.394L329.865 404.81L330.996 402.747L332.128 400.299L333.26 397.447L334.391 393.642L335.523 388.066L336.654 380.186L338.917 359.141L341.181 336.667L342.312 323.852L344.575 293.295L346.839 256.562L349.102 216.66L350.233 200.869L351.365 188.875L353.628 169.024L354.76 160.875L355.891 156.122L357.023 155.768L358.154 160.296L359.286 169.249L360.418 180.99L362.681 209.242L369.47 298.485L371.733 323.903L372.865 335.176L373.997 344.889L375.128 352.67L380.786 384.279L381.918 388.634L383.049 391.382L389.839 402.846L390.97 404.092L392.102 404.88L401.154 408.621L402.286 408.974L403.418 409.124L411.339 409.162L414.733 409.481L416.997 409.497L420.391 409.908L424.918 409.8L428.312 409.914L431.707 409.691L436.234 410.064L441.891 409.922L447.549 409.998L452.076 409.76L455.47 410.085L463.391 410.112L531.286 410.111" stroke="#EFEFEF" stroke-linecap="square"/>
</g>
<mask id="mask13_230_10798" style="mask-type:luminance" maskUnits="userSpaceOnUse" x="76" y="55" width="477" height="356">
<path d="M552.957 55.2959H76.7969V410.112H552.957V55.2959Z" fill="white"/>
</mask>
<g mask="url(#mask13_230_10798)">
<path d="M292.141 410.111L306.166 409.944L313.179 409.368L314.348 409.076L317.854 407.582L320.192 406.523L321.361 405.801L322.529 404.854L323.698 403.601L324.867 401.932L326.036 399.788L327.205 397.197L328.373 394.127L329.542 390.388L330.711 385.784L333.049 374.185L334.217 367.37L335.386 359.649L336.555 350.654L338.893 328.569L341.23 305.494L344.737 275.815L347.074 257.826L349.412 243.324L351.75 231.368L352.918 226.969L354.087 224.491L355.256 224.391L356.425 226.835L357.594 231.546L364.606 268.734L368.113 288.908L370.45 303.45L373.957 326.92L376.294 340.202L378.632 351.681L380.97 361.359L383.307 368.72L385.645 374.824L390.32 385.882L392.658 390.827L393.826 392.88L394.995 394.482L398.502 398.369L400.839 401.346L402.008 402.458L403.177 403.26L405.514 404.319L410.19 406.026L414.865 407.808L417.202 408.219L424.215 409.089L426.553 409.593L428.89 409.619L433.566 409.338L442.916 409.395L461.617 409.933L470.967 410.048L476.811 410.101L492.006 410.06L506.031 410.112L524.732 410.111" fill="#EFEFEF" fill-opacity="0.4"/>
<path d="M292.141 410.111L306.166 409.944L313.179 409.368L314.348 409.076L317.854 407.582L320.192 406.523L321.361 405.801L322.529 404.854L323.698 403.601L324.867 401.932L326.036 399.788L327.205 397.197L328.373 394.127L329.542 390.388L330.711 385.784L333.049 374.185L334.217 367.37L335.386 359.649L336.555 350.654L338.893 328.569L341.23 305.494L344.737 275.815L347.074 257.826L349.412 243.324L351.75 231.368L352.918 226.969L354.087 224.491L355.256 224.391L356.425 226.835L357.594 231.546L364.606 268.734L368.113 288.908L370.45 303.45L373.957 326.92L376.294 340.202L378.632 351.681L380.97 361.359L383.307 368.72L385.645 374.824L390.32 385.882L392.658 390.827L393.826 392.88L394.995 394.482L398.502 398.369L400.839 401.346L402.008 402.458L403.177 403.26L405.514 404.319L410.19 406.026L414.865 407.808L417.202 408.219L424.215 409.089L426.553 409.593L428.89 409.619L433.566 409.338L442.916 409.395L461.617 409.933L470.967 410.048L476.811 410.101L492.006 410.06L506.031 410.112L524.732 410.111" stroke="#EFEFEF" stroke-linecap="square"/>
</g>
<mask id="mask14_230_10798" style="mask-type:luminance" maskUnits="userSpaceOnUse" x="76" y="55" width="477" height="356">
<path d="M552.957 55.2959H76.7969V410.112H552.957V55.2959Z" fill="white"/>
</mask>
<g mask="url(#mask14_230_10798)">
<path d="M98.4375 410.111L133.145 410.112L291.5 409.974L304.516 409.104L306.685 408.651L313.193 406.354L315.362 405.372L317.531 403.884L319.701 400.667L324.039 392.716L326.208 386.892L328.378 378.351L330.547 367.051L332.716 352.413L334.885 335.965L337.055 316.423L343.562 243.235L345.731 221.691L347.901 208.052L350.07 203.778L352.239 203.841L354.408 208.785L356.578 222.129L358.747 241.101L363.085 283.406L365.255 303.225L367.424 321.113L369.593 337.621L371.762 351.691L376.101 373.596L378.27 382.793L380.439 388.946L382.609 392.057L384.778 394.838L389.116 401.673L391.286 403.886L393.455 405.262L395.624 406.234L397.793 406.887L402.132 407.785L406.47 409.189L408.64 409.376L410.809 409.183L412.978 409.143L417.317 409.389L421.655 409.709L423.824 409.915L425.994 409.946L430.332 409.783L432.501 409.899L436.84 409.805L441.178 409.804L443.348 409.737L454.194 410.021L458.532 409.917L465.04 410.037L482.394 410.054L491.071 410.079L504.086 410.112L530.117 410.111" fill="#7EB0D5" fill-opacity="0.4"/>
<path d="M98.4375 410.111L133.145 410.112L291.5 409.974L304.516 409.104L306.685 408.651L313.193 406.354L315.362 405.372L317.531 403.884L319.701 400.667L324.039 392.716L326.208 386.892L328.378 378.351L330.547 367.051L332.716 352.413L334.885 335.965L337.055 316.423L343.562 243.235L345.731 221.691L347.901 208.052L350.07 203.778L352.239 203.841L354.408 208.785L356.578 222.129L358.747 241.101L363.085 283.406L365.255 303.225L367.424 321.113L369.593 337.621L371.762 351.691L376.101 373.596L378.27 382.793L380.439 388.946L382.609 392.057L384.778 394.838L389.116 401.673L391.286 403.886L393.455 405.262L395.624 406.234L397.793 406.887L402.132 407.785L406.47 409.189L408.64 409.376L410.809 409.183L412.978 409.143L417.317 409.389L421.655 409.709L423.824 409.915L425.994 409.946L430.332 409.783L432.501 409.899L436.84 409.805L441.178 409.804L443.348 409.737L454.194 410.021L458.532 409.917L465.04 410.037L482.394 410.054L491.071 410.079L504.086 410.112L530.117 410.111" stroke="#7EB0D5" stroke-linecap="square"/>
</g>
<path d="M535.061 411.061C535.646 410.475 535.646 409.525 535.061 408.939L525.515 399.393C524.929 398.808 523.979 398.808 523.393 399.393C522.808 399.979 522.808 400.929 523.393 401.515L531.879 410L523.393 418.485C522.808 419.071 522.808 420.021 523.393 420.607C523.979 421.192 524.929 421.192 525.515 420.607L535.061 411.061ZM79 411.5H534V408.5H79V411.5Z" fill="black"/>
</g>
<defs>
<clipPath id="clip0_230_10798">
<rect width="614.4" height="460.8" fill="white"/>
</clipPath>
</defs>
</svg>
