<svg width="615" height="461" viewBox="0 0 615 461" fill="none" xmlns="http://www.w3.org/2000/svg">
<g clip-path="url(#clip0_230_10398)">
<mask id="mask0_230_10398" style="mask-type:luminance" maskUnits="userSpaceOnUse" x="76" y="55" width="477" height="356">
<path d="M552.957 55.2959H76.7969V410.112H552.957V55.2959Z" fill="white"/>
</mask>
<g mask="url(#mask0_230_10398)">
<path d="M387.43 410.11L391.601 409.953L393.984 409.954L397.559 410.085L402.326 409.787L405.901 409.616L408.88 409.657L410.072 409.383L413.647 408.145L416.626 407.261L417.818 406.638L419.009 405.554L420.201 403.912L422.584 399.857L423.776 397.325L424.968 393.344L426.159 387.689L427.351 380.719L428.543 372.386L430.33 357.042L431.522 344.473L432.713 328.965L434.501 300.65L439.864 212.499L441.055 192.565L444.63 125.196L445.822 113.028L447.014 105.348L448.205 99.4798L448.801 97.7421L449.397 97.3213L449.993 98.3343L450.589 100.595L451.78 107.57L452.972 116.531L455.355 137L456.547 149.304L457.739 167.432L461.314 233.521L463.697 270.309L466.08 298.66L469.06 334.082L470.847 351.188L472.635 365.217L473.826 372.391L475.614 381.407L477.401 388.66L479.189 394.617L480.381 397.567L481.572 399.435L483.956 402.184L486.339 405.609L487.531 406.614L489.318 407.473L493.489 409.12L495.277 409.272L497.66 409.421L501.831 409.947L505.406 410.108L506.002 410.11" fill="#EFEFEF" fill-opacity="0.4"/>
<path d="M387.43 410.11L391.601 409.953L393.984 409.954L397.559 410.085L402.326 409.787L405.901 409.616L408.88 409.657L410.072 409.383L413.647 408.145L416.626 407.261L417.818 406.638L419.009 405.554L420.201 403.912L422.584 399.857L423.776 397.325L424.968 393.344L426.159 387.689L427.351 380.719L428.543 372.386L430.33 357.042L431.522 344.473L432.713 328.965L434.501 300.65L439.864 212.499L441.055 192.565L444.63 125.196L445.822 113.028L447.014 105.348L448.205 99.4798L448.801 97.7421L449.397 97.3213L449.993 98.3343L450.589 100.595L451.78 107.57L452.972 116.531L455.355 137L456.547 149.304L457.739 167.432L461.314 233.521L463.697 270.309L466.08 298.66L469.06 334.082L470.847 351.188L472.635 365.217L473.826 372.391L475.614 381.407L477.401 388.66L479.189 394.617L480.381 397.567L481.572 399.435L483.956 402.184L486.339 405.609L487.531 406.614L489.318 407.473L493.489 409.12L495.277 409.272L497.66 409.421L501.831 409.947L505.406 410.108L506.002 410.11" stroke="#EFEFEF" stroke-linecap="square"/>
</g>
<mask id="mask1_230_10398" style="mask-type:luminance" maskUnits="userSpaceOnUse" x="76" y="55" width="477" height="356">
<path d="M552.957 55.2959H76.7969V410.112H552.957V55.2959Z" fill="white"/>
</mask>
<g mask="url(#mask1_230_10398)">
<path d="M378.766 410.111L398.379 409.945L402.582 409.712L406.085 409.133L408.886 408.458L410.988 407.583L413.089 406.514L414.49 405.502L415.891 403.965L417.292 401.835L418.693 398.999L420.094 395.08L421.495 389.79L423.597 379.775L427.099 362.353L429.901 349.938L431.302 344.768L432.703 340.815L433.403 339.379L434.104 338.321L434.804 337.626L435.505 337.251L436.205 337.123L437.606 337.261L439.708 337.544L441.109 337.526L442.51 337.273L443.911 336.761L445.312 335.875L446.012 335.181L446.713 334.226L447.413 332.929L448.114 331.21L448.814 328.998L450.215 322.957L451.616 314.942L453.718 300.602L455.819 284.461L457.22 271.878L458.621 256.854L460.722 230.093L463.524 194.496L464.925 179.581L466.326 166.92L467.727 157.276L468.428 154.094L469.128 152.265L469.829 151.876L470.529 152.902L471.23 155.233L471.93 158.728L473.331 168.731L474.732 182.362L476.133 199.473L478.235 230.813L482.437 297.635L484.539 325.218L485.94 340.232L488.041 358.695L490.143 374.041L491.544 382.282L492.945 388.544L494.346 393.235L495.747 397.012L497.148 400.095L498.549 402.388L499.95 403.953L502.051 405.58L505.553 407.824L507.655 408.757L510.457 409.556L513.259 409.986L516.761 410.107L518.162 410.111" fill="#EFEFEF" fill-opacity="0.4"/>
<path d="M378.766 410.111L398.379 409.945L402.582 409.712L406.085 409.133L408.886 408.458L410.988 407.583L413.089 406.514L414.49 405.502L415.891 403.965L417.292 401.835L418.693 398.999L420.094 395.08L421.495 389.79L423.597 379.775L427.099 362.353L429.901 349.938L431.302 344.768L432.703 340.815L433.403 339.379L434.104 338.321L434.804 337.626L435.505 337.251L436.205 337.123L437.606 337.261L439.708 337.544L441.109 337.526L442.51 337.273L443.911 336.761L445.312 335.875L446.012 335.181L446.713 334.226L447.413 332.929L448.114 331.21L448.814 328.998L450.215 322.957L451.616 314.942L453.718 300.602L455.819 284.461L457.22 271.878L458.621 256.854L460.722 230.093L463.524 194.496L464.925 179.581L466.326 166.92L467.727 157.276L468.428 154.094L469.128 152.265L469.829 151.876L470.529 152.902L471.23 155.233L471.93 158.728L473.331 168.731L474.732 182.362L476.133 199.473L478.235 230.813L482.437 297.635L484.539 325.218L485.94 340.232L488.041 358.695L490.143 374.041L491.544 382.282L492.945 388.544L494.346 393.235L495.747 397.012L497.148 400.095L498.549 402.388L499.95 403.953L502.051 405.58L505.553 407.824L507.655 408.757L510.457 409.556L513.259 409.986L516.761 410.107L518.162 410.111" stroke="#EFEFEF" stroke-linecap="square"/>
</g>
<mask id="mask2_230_10398" style="mask-type:luminance" maskUnits="userSpaceOnUse" x="76" y="55" width="477" height="356">
<path d="M552.957 55.2959H76.7969V410.112H552.957V55.2959Z" fill="white"/>
</mask>
<g mask="url(#mask2_230_10398)">
<path d="M388.328 410.111L406.291 409.966L412.039 409.384L414.195 408.683L417.069 407.765L418.506 407.345L419.943 406.557L423.536 403.699L426.41 402.46L427.129 401.782L427.847 400.767L428.566 399.388L430.003 395.684L431.44 390.991L432.877 385.048L434.314 377.335L436.469 362.959L438.625 345.966L440.78 326.147L442.218 310.992L443.655 293.224L447.247 245.391L453.714 172.588L454.432 166.895L455.151 162.402L456.588 155.994L458.025 151.394L458.744 149.888L459.462 149.247L460.181 149.673L460.899 151.245L461.618 153.928L462.336 157.616L463.773 167.522L465.21 180.272L467.366 203.307L472.396 259.143L473.833 271.013L475.988 287.257L478.144 307.845L479.581 321.543L481.018 332.717L482.455 340.899L484.611 351.635L487.485 367.39L488.922 373.212L491.796 382.594L496.825 398.051L498.262 401.491L499.7 403.996L501.137 405.528L502.574 406.417L504.729 407.204L507.603 408.362L509.759 409L514.07 409.811L517.663 409.856L531.315 410.111" fill="#EFEFEF" fill-opacity="0.4"/>
<path d="M388.328 410.111L406.291 409.966L412.039 409.384L414.195 408.683L417.069 407.765L418.506 407.345L419.943 406.557L423.536 403.699L426.41 402.46L427.129 401.782L427.847 400.767L428.566 399.388L430.003 395.684L431.44 390.991L432.877 385.048L434.314 377.335L436.469 362.959L438.625 345.966L440.78 326.147L442.218 310.992L443.655 293.224L447.247 245.391L453.714 172.588L454.432 166.895L455.151 162.402L456.588 155.994L458.025 151.394L458.744 149.888L459.462 149.247L460.181 149.673L460.899 151.245L461.618 153.928L462.336 157.616L463.773 167.522L465.21 180.272L467.366 203.307L472.396 259.143L473.833 271.013L475.988 287.257L478.144 307.845L479.581 321.543L481.018 332.717L482.455 340.899L484.611 351.635L487.485 367.39L488.922 373.212L491.796 382.594L496.825 398.051L498.262 401.491L499.7 403.996L501.137 405.528L502.574 406.417L504.729 407.204L507.603 408.362L509.759 409L514.07 409.811L517.663 409.856L531.315 410.111" stroke="#EFEFEF" stroke-linecap="square"/>
</g>
<mask id="mask3_230_10398" style="mask-type:luminance" maskUnits="userSpaceOnUse" x="76" y="55" width="477" height="356">
<path d="M552.957 55.2959H76.7969V410.112H552.957V55.2959Z" fill="white"/>
</mask>
<g mask="url(#mask3_230_10398)">
<path d="M386.633 410.111L391.262 409.964L393.245 409.776L400.519 408.463L402.503 407.436L403.825 406.759L405.148 406.512L406.47 406.455L407.132 406.231L407.793 405.778L409.115 404.367L412.422 400.367L416.389 394.015L417.05 392.302L418.373 387.464L423.002 366.278L424.324 357.247L427.631 329.951L428.953 318.187L430.276 303.651L431.598 285.31L434.243 243.575L437.549 188.428L440.856 136.04L442.839 101.563L443.501 92.5647L444.162 86.3646L444.823 82.6517L447.468 73.0946L448.129 72.1924L448.791 72.9356L449.452 75.084L450.113 78.4321L450.774 83.2075L451.436 89.9713L452.097 99.3222L452.758 111.637L454.081 144.536L458.709 275.651L460.032 305.408L461.354 329.644L462.677 348.202L463.999 361.989L465.322 373.051L466.645 382.136L467.967 388.519L470.612 397.924L471.934 401.896L472.596 403.237L473.257 404.141L475.241 405.821L477.886 407.799L479.208 408.566L480.531 408.892L483.837 408.782L488.466 409.665L497.062 410L499.707 410.065L504.997 409.987L518.222 410.111" fill="#EFEFEF" fill-opacity="0.4"/>
<path d="M386.633 410.111L391.262 409.964L393.245 409.776L400.519 408.463L402.503 407.436L403.825 406.759L405.148 406.512L406.47 406.455L407.132 406.231L407.793 405.778L409.115 404.367L412.422 400.367L416.389 394.015L417.05 392.302L418.373 387.464L423.002 366.278L424.324 357.247L427.631 329.951L428.953 318.187L430.276 303.651L431.598 285.31L434.243 243.575L437.549 188.428L440.856 136.04L442.839 101.563L443.501 92.5647L444.162 86.3646L444.823 82.6517L447.468 73.0946L448.129 72.1924L448.791 72.9356L449.452 75.084L450.113 78.4321L450.774 83.2075L451.436 89.9713L452.097 99.3222L452.758 111.637L454.081 144.536L458.709 275.651L460.032 305.408L461.354 329.644L462.677 348.202L463.999 361.989L465.322 373.051L466.645 382.136L467.967 388.519L470.612 397.924L471.934 401.896L472.596 403.237L473.257 404.141L475.241 405.821L477.886 407.799L479.208 408.566L480.531 408.892L483.837 408.782L488.466 409.665L497.062 410L499.707 410.065L504.997 409.987L518.222 410.111" stroke="#EFEFEF" stroke-linecap="square"/>
</g>
<mask id="mask4_230_10398" style="mask-type:luminance" maskUnits="userSpaceOnUse" x="76" y="55" width="477" height="356">
<path d="M552.957 55.2959H76.7969V410.112H552.957V55.2959Z" fill="white"/>
</mask>
<g mask="url(#mask4_230_10398)">
<path d="M394.297 410.111L401.174 409.941L407.427 409.679L410.553 408.874L413.679 408.668L414.93 408.207L417.431 407.12L419.932 406.377L421.182 405.713L423.058 404.207L424.933 402.383L426.184 400.499L427.434 397.691L429.31 392.464L430.561 388.039L431.811 381.704L433.061 373.164L434.937 357.449L436.188 343.596L437.438 325.243L439.314 291.108L441.189 250.478L444.941 164.741L446.191 142.799L447.442 125.852L449.318 105.249L450.568 94.9187L451.193 91.51L451.818 89.4929L452.444 88.9639L453.069 90.0379L453.694 92.8315L454.319 97.3666L455.57 110.928L456.82 128.657L458.696 160.901L461.197 204.477L463.698 241.822L464.948 257.646L466.199 270.566L468.075 286.415L475.577 339.425L479.954 365.251L481.83 374.462L483.08 379.299L484.331 382.839L489.333 394.584L490.583 396.638L494.334 401.435L496.21 404.274L497.461 405.761L498.711 406.908L499.962 407.752L501.212 408.204L503.713 408.724L505.589 409.305L506.839 409.411L509.34 409.469L511.841 409.654L514.342 409.801L517.468 410.093L518.719 410.11" fill="#EFEFEF" fill-opacity="0.4"/>
<path d="M394.297 410.111L401.174 409.941L407.427 409.679L410.553 408.874L413.679 408.668L414.93 408.207L417.431 407.12L419.932 406.377L421.182 405.713L423.058 404.207L424.933 402.383L426.184 400.499L427.434 397.691L429.31 392.464L430.561 388.039L431.811 381.704L433.061 373.164L434.937 357.449L436.188 343.596L437.438 325.243L439.314 291.108L441.189 250.478L444.941 164.741L446.191 142.799L447.442 125.852L449.318 105.249L450.568 94.9187L451.193 91.51L451.818 89.4929L452.444 88.9639L453.069 90.0379L453.694 92.8315L454.319 97.3666L455.57 110.928L456.82 128.657L458.696 160.901L461.197 204.477L463.698 241.822L464.948 257.646L466.199 270.566L468.075 286.415L475.577 339.425L479.954 365.251L481.83 374.462L483.08 379.299L484.331 382.839L489.333 394.584L490.583 396.638L494.334 401.435L496.21 404.274L497.461 405.761L498.711 406.908L499.962 407.752L501.212 408.204L503.713 408.724L505.589 409.305L506.839 409.411L509.34 409.469L511.841 409.654L514.342 409.801L517.468 410.093L518.719 410.11" stroke="#EFEFEF" stroke-linecap="square"/>
</g>
<mask id="mask5_230_10398" style="mask-type:luminance" maskUnits="userSpaceOnUse" x="76" y="55" width="477" height="356">
<path d="M552.957 55.2959H76.7969V410.112H552.957V55.2959Z" fill="white"/>
</mask>
<g mask="url(#mask5_230_10398)">
<path d="M385.641 410.111L394.254 409.953L397.843 409.64L400.714 409.714L405.021 409.336L407.174 409.24L408.61 408.941L410.045 408.259L411.481 406.93L417.223 399.731L417.941 398.268L418.659 396.151L419.377 393.169L420.094 389.224L421.53 378.473L422.965 363.744L424.401 344.412L425.837 319.425L427.272 287.956L430.143 222.16L431.579 196.949L433.014 176.088L434.45 158.621L435.886 145.93L439.474 121.111L440.192 117.717L440.91 115.678L441.628 114.854L442.346 115.014L443.063 116.044L443.781 117.952L444.499 120.733L445.217 124.323L445.935 128.73L446.652 134.184L447.37 141.074L448.806 159.864L457.419 294.892L458.855 312.491L460.29 327.47L461.726 340.052L463.161 350.455L464.597 358.88L466.032 365.657L467.468 370.966L469.621 377.376L471.057 381.027L472.493 384.017L473.928 386.344L475.364 388.071L477.517 390.374L478.953 392.494L482.542 399.174L483.259 400.009L484.695 401.041L486.848 402.269L489.002 403.852L490.437 404.324L491.873 404.572L492.59 404.901L496.897 407.809L499.051 408.654L500.486 408.937L504.075 409.356L507.664 409.951L511.253 410.106L522.02 410.034L525.609 410.074L528.48 410.111" fill="#EFEFEF" fill-opacity="0.4"/>
<path d="M385.641 410.111L394.254 409.953L397.843 409.64L400.714 409.714L405.021 409.336L407.174 409.24L408.61 408.941L410.045 408.259L411.481 406.93L417.223 399.731L417.941 398.268L418.659 396.151L419.377 393.169L420.094 389.224L421.53 378.473L422.965 363.744L424.401 344.412L425.837 319.425L427.272 287.956L430.143 222.16L431.579 196.949L433.014 176.088L434.45 158.621L435.886 145.93L439.474 121.111L440.192 117.717L440.91 115.678L441.628 114.854L442.346 115.014L443.063 116.044L443.781 117.952L444.499 120.733L445.217 124.323L445.935 128.73L446.652 134.184L447.37 141.074L448.806 159.864L457.419 294.892L458.855 312.491L460.29 327.47L461.726 340.052L463.161 350.455L464.597 358.88L466.032 365.657L467.468 370.966L469.621 377.376L471.057 381.027L472.493 384.017L473.928 386.344L475.364 388.071L477.517 390.374L478.953 392.494L482.542 399.174L483.259 400.009L484.695 401.041L486.848 402.269L489.002 403.852L490.437 404.324L491.873 404.572L492.59 404.901L496.897 407.809L499.051 408.654L500.486 408.937L504.075 409.356L507.664 409.951L511.253 410.106L522.02 410.034L525.609 410.074L528.48 410.111" stroke="#EFEFEF" stroke-linecap="square"/>
</g>
<mask id="mask6_230_10398" style="mask-type:luminance" maskUnits="userSpaceOnUse" x="76" y="55" width="477" height="356">
<path d="M552.957 55.2959H76.7969V410.112H552.957V55.2959Z" fill="white"/>
</mask>
<g mask="url(#mask6_230_10398)">
<path d="M380.008 410.111L390.679 409.971L398.504 409.514L401.349 408.991L404.195 408.209L405.618 407.6L407.04 406.661L408.463 405.234L409.886 403.297L416.288 393.188L417.711 389.745L419.134 384.694L420.557 378.064L422.691 366.368L424.825 353.489L426.248 343.73L427.67 332.434L429.805 312.996L433.362 277.715L436.207 249.662L438.341 232.201L441.187 212.672L442.609 204.186L444.032 198.014L444.744 195.972L445.455 194.587L446.166 193.788L446.878 193.468L447.589 193.485L449.012 193.975L449.723 194.356L450.435 194.969L451.146 196.04L451.857 197.812L452.569 200.48L453.28 204.133L454.703 213.977L456.837 229.991L458.26 238.274L459.683 245.89L461.105 255.295L463.24 273.289L464.662 285.137L466.085 294.935L470.353 320.7L473.199 339.958L474.622 348.176L476.044 355.129L477.467 360.821L479.601 367.863L485.292 385.653L486.715 389.191L488.849 393.539L490.984 397.131L492.406 398.957L494.54 400.934L500.231 405.812L502.366 407.002L507.345 409.225L508.768 409.577L510.902 409.786L520.862 410.109L521.573 410.111" fill="#EFEFEF" fill-opacity="0.4"/>
<path d="M380.008 410.111L390.679 409.971L398.504 409.514L401.349 408.991L404.195 408.209L405.618 407.6L407.04 406.661L408.463 405.234L409.886 403.297L416.288 393.188L417.711 389.745L419.134 384.694L420.557 378.064L422.691 366.368L424.825 353.489L426.248 343.73L427.67 332.434L429.805 312.996L433.362 277.715L436.207 249.662L438.341 232.201L441.187 212.672L442.609 204.186L444.032 198.014L444.744 195.972L445.455 194.587L446.166 193.788L446.878 193.468L447.589 193.485L449.012 193.975L449.723 194.356L450.435 194.969L451.146 196.04L451.857 197.812L452.569 200.48L453.28 204.133L454.703 213.977L456.837 229.991L458.26 238.274L459.683 245.89L461.105 255.295L463.24 273.289L464.662 285.137L466.085 294.935L470.353 320.7L473.199 339.958L474.622 348.176L476.044 355.129L477.467 360.821L479.601 367.863L485.292 385.653L486.715 389.191L488.849 393.539L490.984 397.131L492.406 398.957L494.54 400.934L500.231 405.812L502.366 407.002L507.345 409.225L508.768 409.577L510.902 409.786L520.862 410.109L521.573 410.111" stroke="#EFEFEF" stroke-linecap="square"/>
</g>
<mask id="mask7_230_10398" style="mask-type:luminance" maskUnits="userSpaceOnUse" x="76" y="55" width="477" height="356">
<path d="M552.957 55.2959H76.7969V410.112H552.957V55.2959Z" fill="white"/>
</mask>
<g mask="url(#mask7_230_10398)">
<path d="M388.305 410.111L396.256 409.959L402.372 409.691L405.43 409.773L407.265 409.478L409.1 408.948L414.604 406.539L416.439 405.588L417.662 404.661L418.885 403.326L420.72 400.621L423.778 395.324L425.613 391.492L427.448 386.747L429.283 381.197L430.506 376.431L431.729 369.978L432.953 361.389L434.787 347.475L437.234 330.874L438.457 318.241L440.292 294.089L442.127 265.626L443.962 230.279L447.02 170.585L448.243 152.452L448.855 146.104L450.078 137.818L453.136 122.088L453.748 120.759L454.359 121.142L454.971 123.197L456.194 130.233L457.417 137.237L460.475 151.608L461.698 161.598L465.98 205.211L467.203 222.042L469.649 263.078L471.484 292.501L473.931 326.663L475.766 349.277L477.6 367.96L478.824 378.057L480.047 386.035L481.27 391.899L482.493 396.134L484.328 401.177L485.551 404.053L486.775 406.075L487.998 407.173L489.221 407.712L492.279 408.703L494.114 409.306L496.561 409.57L503.288 410.047L506.958 410.057L510.016 410.111" fill="#EFEFEF" fill-opacity="0.4"/>
<path d="M388.305 410.111L396.256 409.959L402.372 409.691L405.43 409.773L407.265 409.478L409.1 408.948L414.604 406.539L416.439 405.588L417.662 404.661L418.885 403.326L420.72 400.621L423.778 395.324L425.613 391.492L427.448 386.747L429.283 381.197L430.506 376.431L431.729 369.978L432.953 361.389L434.787 347.475L437.234 330.874L438.457 318.241L440.292 294.089L442.127 265.626L443.962 230.279L447.02 170.585L448.243 152.452L448.855 146.104L450.078 137.818L453.136 122.088L453.748 120.759L454.359 121.142L454.971 123.197L456.194 130.233L457.417 137.237L460.475 151.608L461.698 161.598L465.98 205.211L467.203 222.042L469.649 263.078L471.484 292.501L473.931 326.663L475.766 349.277L477.6 367.96L478.824 378.057L480.047 386.035L481.27 391.899L482.493 396.134L484.328 401.177L485.551 404.053L486.775 406.075L487.998 407.173L489.221 407.712L492.279 408.703L494.114 409.306L496.561 409.57L503.288 410.047L506.958 410.057L510.016 410.111" stroke="#EFEFEF" stroke-linecap="square"/>
</g>
<mask id="mask8_230_10398" style="mask-type:luminance" maskUnits="userSpaceOnUse" x="76" y="55" width="477" height="356">
<path d="M552.957 55.2959H76.7969V410.112H552.957V55.2959Z" fill="white"/>
</mask>
<g mask="url(#mask8_230_10398)">
<path d="M380.617 410.11L398.388 409.903L401.122 409.684L407.957 408.587L409.324 407.915L411.374 406.296L413.424 404.76L415.475 403.296L416.842 401.796L422.31 394.18L422.993 392.853L423.677 391.132L425.044 386.479L428.461 372.276L429.828 365.95L431.879 354.524L433.929 341.074L435.979 325.589L440.08 290.819L443.498 260.63L445.548 242.786L450.333 205.877L451.7 197.653L452.383 194.814L453.067 192.857L453.75 191.671L454.434 191.084L455.117 190.901L457.167 190.902L457.851 190.553L459.901 188.594L460.585 188.549L461.268 189.409L461.952 191.422L462.635 194.644L464.002 203.936L466.053 219.526L470.154 247.172L471.521 260.104L475.622 301.212L478.356 323.787L481.773 349.568L483.823 363.136L485.19 370.473L487.241 379.149L490.658 392.314L492.025 396.163L493.392 398.703L496.81 403.247L498.86 405.867L500.227 407.097L501.594 407.934L503.645 408.8L505.695 409.254L511.846 409.993L515.947 410.109L516.631 410.111" fill="#EFEFEF" fill-opacity="0.4"/>
<path d="M380.617 410.11L398.388 409.903L401.122 409.684L407.957 408.587L409.324 407.915L411.374 406.296L413.424 404.76L415.475 403.296L416.842 401.796L422.31 394.18L422.993 392.853L423.677 391.132L425.044 386.479L428.461 372.276L429.828 365.95L431.879 354.524L433.929 341.074L435.979 325.589L440.08 290.819L443.498 260.63L445.548 242.786L450.333 205.877L451.7 197.653L452.383 194.814L453.067 192.857L453.75 191.671L454.434 191.084L455.117 190.901L457.167 190.902L457.851 190.553L459.901 188.594L460.585 188.549L461.268 189.409L461.952 191.422L462.635 194.644L464.002 203.936L466.053 219.526L470.154 247.172L471.521 260.104L475.622 301.212L478.356 323.787L481.773 349.568L483.823 363.136L485.19 370.473L487.241 379.149L490.658 392.314L492.025 396.163L493.392 398.703L496.81 403.247L498.86 405.867L500.227 407.097L501.594 407.934L503.645 408.8L505.695 409.254L511.846 409.993L515.947 410.109L516.631 410.111" stroke="#EFEFEF" stroke-linecap="square"/>
</g>
<mask id="mask9_230_10398" style="mask-type:luminance" maskUnits="userSpaceOnUse" x="76" y="55" width="477" height="356">
<path d="M552.957 55.2959H76.7969V410.112H552.957V55.2959Z" fill="white"/>
</mask>
<g mask="url(#mask9_230_10398)">
<path d="M373.258 410.111L405.506 409.889L409.904 409.431L412.103 409.289L416.5 409.282L417.966 409.041L425.295 406.946L426.028 406.836L426.761 406.551L427.494 405.857L428.227 404.602L428.96 402.774L430.426 397.892L432.624 389.136L433.357 385.209L434.09 380.088L434.823 373.535L436.289 356.714L438.488 325.957L439.953 301.941L441.419 273.941L445.084 192.901L447.283 148.443L448.749 126.364L450.214 110.5L451.68 98.1413L452.413 94.808L453.146 94.6787L453.879 98.0026L454.612 104.168L458.276 143.881L462.674 196.674L465.606 227.565L467.804 249.545L472.202 300.046L476.599 338.293L478.065 348.118L483.196 376.357L486.127 388.45L487.593 393.355L489.059 396.578L490.525 398.807L494.19 403.614L495.655 405.164L497.121 406.272L499.32 407.409L502.252 408.804L503.718 409.099L506.649 409.343L508.848 409.242L510.314 409.53L512.513 409.952L519.109 410.111" fill="#EFEFEF" fill-opacity="0.4"/>
<path d="M373.258 410.111L405.506 409.889L409.904 409.431L412.103 409.289L416.5 409.282L417.966 409.041L425.295 406.946L426.028 406.836L426.761 406.551L427.494 405.857L428.227 404.602L428.96 402.774L430.426 397.892L432.624 389.136L433.357 385.209L434.09 380.088L434.823 373.535L436.289 356.714L438.488 325.957L439.953 301.941L441.419 273.941L445.084 192.901L447.283 148.443L448.749 126.364L450.214 110.5L451.68 98.1413L452.413 94.808L453.146 94.6787L453.879 98.0026L454.612 104.168L458.276 143.881L462.674 196.674L465.606 227.565L467.804 249.545L472.202 300.046L476.599 338.293L478.065 348.118L483.196 376.357L486.127 388.45L487.593 393.355L489.059 396.578L490.525 398.807L494.19 403.614L495.655 405.164L497.121 406.272L499.32 407.409L502.252 408.804L503.718 409.099L506.649 409.343L508.848 409.242L510.314 409.53L512.513 409.952L519.109 410.111" stroke="#EFEFEF" stroke-linecap="square"/>
</g>
<mask id="mask10_230_10398" style="mask-type:luminance" maskUnits="userSpaceOnUse" x="76" y="55" width="477" height="356">
<path d="M552.957 55.2959H76.7969V410.112H552.957V55.2959Z" fill="white"/>
</mask>
<g mask="url(#mask10_230_10398)">
<path d="M389.797 410.111L393.247 409.985L401.298 409.261L406.473 409.188L407.623 408.717L408.198 408.263L409.349 406.77L411.649 402.567L412.799 400.059L413.949 396.774L415.099 392.572L416.249 387.145L417.399 379.888L418.549 369.924L419.699 356.284L420.849 338.785L422.575 306.685L426.025 232.867L430.05 149.588L431.2 129.198L432.35 115.021L432.925 110.364L433.501 106.966L434.076 104.591L434.651 103.254L435.226 103.215L435.801 104.773L436.376 107.986L437.526 117.769L440.976 150.771L442.701 168.524L446.727 203.567L456.503 304.689L463.978 372.648L465.128 380.196L466.278 386.109L467.428 390.918L468.579 394.671L469.729 397.511L471.454 401.029L472.604 402.827L473.754 404.087L474.904 404.952L478.929 407.08L484.105 409.068L485.255 409.166L488.13 409.124L492.156 409.767L495.606 409.638L498.481 409.643L504.232 410.11" fill="#EFEFEF" fill-opacity="0.4"/>
<path d="M389.797 410.111L393.247 409.985L401.298 409.261L406.473 409.188L407.623 408.717L408.198 408.263L409.349 406.77L411.649 402.567L412.799 400.059L413.949 396.774L415.099 392.572L416.249 387.145L417.399 379.888L418.549 369.924L419.699 356.284L420.849 338.785L422.575 306.685L426.025 232.867L430.05 149.588L431.2 129.198L432.35 115.021L432.925 110.364L433.501 106.966L434.076 104.591L434.651 103.254L435.226 103.215L435.801 104.773L436.376 107.986L437.526 117.769L440.976 150.771L442.701 168.524L446.727 203.567L456.503 304.689L463.978 372.648L465.128 380.196L466.278 386.109L467.428 390.918L468.579 394.671L469.729 397.511L471.454 401.029L472.604 402.827L473.754 404.087L474.904 404.952L478.929 407.08L484.105 409.068L485.255 409.166L488.13 409.124L492.156 409.767L495.606 409.638L498.481 409.643L504.232 410.11" stroke="#EFEFEF" stroke-linecap="square"/>
</g>
<mask id="mask11_230_10398" style="mask-type:luminance" maskUnits="userSpaceOnUse" x="76" y="55" width="477" height="356">
<path d="M552.957 55.2959H76.7969V410.112H552.957V55.2959Z" fill="white"/>
</mask>
<g mask="url(#mask11_230_10398)">
<path d="M388.523 410.11L393 409.972L399.396 409.408L401.315 408.845L407.071 406.527L408.35 405.376L410.269 402.973L411.548 401.005L412.828 398.329L414.107 394.584L416.025 387.578L418.584 377.125L419.863 370.62L421.142 362.846L422.421 353.827L423.7 343.257L430.736 277.246L433.934 243.095L436.492 221.737L438.411 207.748L439.69 200.533L440.969 195.52L441.609 193.895L442.888 191.862L444.167 189.934L446.725 185.202L447.365 184.617L448.004 184.365L448.644 184.423L449.284 184.814L449.923 185.623L450.563 186.956L451.202 188.883L452.482 194.465L453.761 201.787L455.04 210.394L456.319 220.539L458.238 238.751L463.994 296.093L468.471 335.278L470.39 348.893L472.309 359.486L474.227 367.946L476.146 374.929L479.983 387.589L481.902 392.527L484.461 398.132L485.74 400.365L487.019 401.928L490.856 405.428L492.775 406.911L494.694 407.884L497.892 409.005L499.811 409.365L512.602 410.072L515.8 410.111" fill="#EFEFEF" fill-opacity="0.4"/>
<path d="M388.523 410.11L393 409.972L399.396 409.408L401.315 408.845L407.071 406.527L408.35 405.376L410.269 402.973L411.548 401.005L412.828 398.329L414.107 394.584L416.025 387.578L418.584 377.125L419.863 370.62L421.142 362.846L422.421 353.827L423.7 343.257L430.736 277.246L433.934 243.095L436.492 221.737L438.411 207.748L439.69 200.533L440.969 195.52L441.609 193.895L442.888 191.862L444.167 189.934L446.725 185.202L447.365 184.617L448.004 184.365L448.644 184.423L449.284 184.814L449.923 185.623L450.563 186.956L451.202 188.883L452.482 194.465L453.761 201.787L455.04 210.394L456.319 220.539L458.238 238.751L463.994 296.093L468.471 335.278L470.39 348.893L472.309 359.486L474.227 367.946L476.146 374.929L479.983 387.589L481.902 392.527L484.461 398.132L485.74 400.365L487.019 401.928L490.856 405.428L492.775 406.911L494.694 407.884L497.892 409.005L499.811 409.365L512.602 410.072L515.8 410.111" stroke="#EFEFEF" stroke-linecap="square"/>
</g>
<mask id="mask12_230_10398" style="mask-type:luminance" maskUnits="userSpaceOnUse" x="76" y="55" width="477" height="356">
<path d="M552.957 55.2959H76.7969V410.112H552.957V55.2959Z" fill="white"/>
</mask>
<g mask="url(#mask12_230_10398)">
<path d="M387.297 410.111L407.023 409.949L408.256 409.782L410.105 409.143L416.886 406.296L417.502 405.765L418.735 404.131L421.201 400.409L422.433 398.456L423.666 395.548L424.899 391.482L426.132 386.296L427.981 376.782L430.447 362.926L431.68 352.897L433.529 332.636L436.611 296.994L438.461 270.005L444.009 183.978L447.707 137.02L448.94 127.117L450.173 119.913L450.789 117.166L451.406 115.459L452.022 115.138L452.639 116.236L453.255 118.472L454.488 124.848L455.721 132.801L456.954 143.227L458.187 156.822L461.269 196.4L465.584 257.372L472.364 342.548L473.597 354.684L474.83 363.743L476.063 370.402L477.912 378.161L480.995 390.477L482.227 393.937L484.077 397.79L486.542 402.398L487.775 403.996L489.625 405.588L491.474 406.891L493.323 407.833L495.789 408.757L499.487 409.623L501.337 409.837L507.501 410.077L509.967 410.111" fill="#EFEFEF" fill-opacity="0.4"/>
<path d="M387.297 410.111L407.023 409.949L408.256 409.782L410.105 409.143L416.886 406.296L417.502 405.765L418.735 404.131L421.201 400.409L422.433 398.456L423.666 395.548L424.899 391.482L426.132 386.296L427.981 376.782L430.447 362.926L431.68 352.897L433.529 332.636L436.611 296.994L438.461 270.005L444.009 183.978L447.707 137.02L448.94 127.117L450.173 119.913L450.789 117.166L451.406 115.459L452.022 115.138L452.639 116.236L453.255 118.472L454.488 124.848L455.721 132.801L456.954 143.227L458.187 156.822L461.269 196.4L465.584 257.372L472.364 342.548L473.597 354.684L474.83 363.743L476.063 370.402L477.912 378.161L480.995 390.477L482.227 393.937L484.077 397.79L486.542 402.398L487.775 403.996L489.625 405.588L491.474 406.891L493.323 407.833L495.789 408.757L499.487 409.623L501.337 409.837L507.501 410.077L509.967 410.111" stroke="#EFEFEF" stroke-linecap="square"/>
</g>
<mask id="mask13_230_10398" style="mask-type:luminance" maskUnits="userSpaceOnUse" x="76" y="55" width="477" height="356">
<path d="M552.957 55.2959H76.7969V410.112H552.957V55.2959Z" fill="white"/>
</mask>
<g mask="url(#mask13_230_10398)">
<path d="M373.289 410.111L388.583 409.949L397.621 409.175L399.011 408.839L400.401 408.277L405.963 405.517L408.049 404.506L409.439 403.428L410.829 401.776L412.22 399.383L413.61 396.15L419.172 381.041L420.562 376.079L421.952 369.509L423.343 361.224L425.428 346.18L427.514 328.627L430.295 301.792L436.551 240.982L437.942 229.291L440.027 215.055L443.503 192.524L444.894 186.147L446.284 181.884L447.674 178.869L448.37 178.013L449.065 177.898L449.76 178.702L450.455 180.443L451.15 182.979L452.541 189.581L453.931 197.418L456.017 211.426L458.797 232.831L462.273 261.779L464.359 279.485L466.444 294.147L468.53 308.409L473.396 344.531L475.482 356.201L477.567 365.69L481.739 382.335L483.824 390.166L485.215 394.316L486.605 397.331L487.995 399.603L489.386 401.42L490.776 402.752L494.252 405.538L496.338 407.303L497.728 408.182L499.118 408.801L501.204 409.346L504.68 409.852L508.851 410.088L511.632 410.111" fill="#EFEFEF" fill-opacity="0.4"/>
<path d="M373.289 410.111L388.583 409.949L397.621 409.175L399.011 408.839L400.401 408.277L405.963 405.517L408.049 404.506L409.439 403.428L410.829 401.776L412.22 399.383L413.61 396.15L419.172 381.041L420.562 376.079L421.952 369.509L423.343 361.224L425.428 346.18L427.514 328.627L430.295 301.792L436.551 240.982L437.942 229.291L440.027 215.055L443.503 192.524L444.894 186.147L446.284 181.884L447.674 178.869L448.37 178.013L449.065 177.898L449.76 178.702L450.455 180.443L451.15 182.979L452.541 189.581L453.931 197.418L456.017 211.426L458.797 232.831L462.273 261.779L464.359 279.485L466.444 294.147L468.53 308.409L473.396 344.531L475.482 356.201L477.567 365.69L481.739 382.335L483.824 390.166L485.215 394.316L486.605 397.331L487.995 399.603L489.386 401.42L490.776 402.752L494.252 405.538L496.338 407.303L497.728 408.182L499.118 408.801L501.204 409.346L504.68 409.852L508.851 410.088L511.632 410.111" stroke="#EFEFEF" stroke-linecap="square"/>
</g>
<mask id="mask14_230_10398" style="mask-type:luminance" maskUnits="userSpaceOnUse" x="76" y="55" width="477" height="356">
<path d="M552.957 55.2959H76.7969V410.112H552.957V55.2959Z" fill="white"/>
</mask>
<g mask="url(#mask14_230_10398)">
<path d="M98.4375 410.111L117.628 410.112L390.567 410.026L394.831 409.742L399.096 409.339L401.228 409.195L405.493 408.262L407.625 407.466L409.758 406.392L411.89 404.735L416.155 399.403L418.287 397.612L420.419 394.852L422.552 390.509L424.684 383.678L426.816 373.49L428.949 359.353L431.081 340.788L433.213 318.263L437.478 264.222L439.61 234.948L443.875 171.242L446.007 143.564L448.14 124.72L450.272 116.927L452.404 117.908L454.537 138.282L458.801 194.509L463.066 262.107L465.198 287.667L469.463 330.75L471.595 346.792L473.728 358.163L475.86 368.597L477.992 377.89L480.125 385.312L482.257 391.18L484.389 395.182L486.522 397.243L490.786 403.277L492.919 405.325L495.051 406.784L497.183 407.9L501.448 408.462L503.58 409.175L505.712 409.68L512.11 409.795L514.242 409.997L522.771 410.111" fill="#7EB0D5" fill-opacity="0.4"/>
<path d="M98.4375 410.111L117.628 410.112L390.567 410.026L394.831 409.742L399.096 409.339L401.228 409.195L405.493 408.262L407.625 407.466L409.758 406.392L411.89 404.735L416.155 399.403L418.287 397.612L420.419 394.852L422.552 390.509L424.684 383.678L426.816 373.49L428.949 359.353L431.081 340.788L433.213 318.263L437.478 264.222L439.61 234.948L443.875 171.242L446.007 143.564L448.14 124.72L450.272 116.927L452.404 117.908L454.537 138.282L458.801 194.509L463.066 262.107L465.198 287.667L469.463 330.75L471.595 346.792L473.728 358.163L475.86 368.597L477.992 377.89L480.125 385.312L482.257 391.18L484.389 395.182L486.522 397.243L490.786 403.277L492.919 405.325L495.051 406.784L497.183 407.9L501.448 408.462L503.58 409.175L505.712 409.68L512.11 409.795L514.242 409.997L522.771 410.111" stroke="#7EB0D5" stroke-linecap="square"/>
</g>
<path d="M535.061 411.061C535.646 410.475 535.646 409.525 535.061 408.939L525.515 399.393C524.929 398.808 523.979 398.808 523.393 399.393C522.808 399.979 522.808 400.929 523.393 401.515L531.879 410L523.393 418.485C522.808 419.071 522.808 420.021 523.393 420.607C523.979 421.192 524.929 421.192 525.515 420.607L535.061 411.061ZM79 411.5H534V408.5H79V411.5Z" fill="black"/>
</g>
<defs>
<clipPath id="clip0_230_10398">
<rect width="614.4" height="460.8" fill="white"/>
</clipPath>
</defs>
</svg>
