<svg width="615" height="461" viewBox="0 0 615 461" fill="none" xmlns="http://www.w3.org/2000/svg">
<g clip-path="url(#clip0_230_10638)">
<mask id="mask0_230_10638" style="mask-type:luminance" maskUnits="userSpaceOnUse" x="76" y="55" width="477" height="356">
<path d="M552.957 55.2959H76.7969V410.112H552.957V55.2959Z" fill="white"/>
</mask>
<g mask="url(#mask0_230_10638)">
<path d="M376.867 410.11L379.753 410.014L386.246 409.265L388.411 408.663L389.854 407.873L392.018 406.423L392.74 405.75L393.461 404.815L394.183 403.558L395.626 400.191L397.069 396.108L398.512 391.151L399.955 384.719L401.398 376.62L402.84 366.14L404.283 351.706L407.169 316.178L408.612 296.931L410.777 262.411L412.941 228.925L414.384 207.321L415.827 179.829L417.27 151.423L418.713 130.999L420.156 115.814L420.877 109.343L421.599 104.541L422.32 102.356L423.042 103.153L423.763 106.428L425.206 116.384L427.371 133L428.814 145.748L430.257 161.78L431.7 182.771L435.307 240.042L437.471 267.582L441.8 318.949L444.686 349.17L446.129 359.605L447.572 366.779L451.18 381.78L454.065 392.065L455.508 396.365L456.23 397.873L457.673 399.894L459.837 402.5L462.002 405.57L462.723 406.236L463.445 406.57L464.888 406.632L466.331 406.745L469.216 407.511L471.381 408.027L480.76 409.607L482.925 409.405L484.368 409.363L487.253 409.822L490.139 410.066L493.747 409.951L496.633 410.008L500.962 410.111L520.441 410.11" fill="#EFEFEF" fill-opacity="0.4"/>
<path d="M376.867 410.11L379.753 410.014L386.246 409.265L388.411 408.663L389.854 407.873L392.018 406.423L392.74 405.75L393.461 404.815L394.183 403.558L395.626 400.191L397.069 396.108L398.512 391.151L399.955 384.719L401.398 376.62L402.84 366.14L404.283 351.706L407.169 316.178L408.612 296.931L410.777 262.411L412.941 228.925L414.384 207.321L415.827 179.829L417.27 151.423L418.713 130.999L420.156 115.814L420.877 109.343L421.599 104.541L422.32 102.356L423.042 103.153L423.763 106.428L425.206 116.384L427.371 133L428.814 145.748L430.257 161.78L431.7 182.771L435.307 240.042L437.471 267.582L441.8 318.949L444.686 349.17L446.129 359.605L447.572 366.779L451.18 381.78L454.065 392.065L455.508 396.365L456.23 397.873L457.673 399.894L459.837 402.5L462.002 405.57L462.723 406.236L463.445 406.57L464.888 406.632L466.331 406.745L469.216 407.511L471.381 408.027L480.76 409.607L482.925 409.405L484.368 409.363L487.253 409.822L490.139 410.066L493.747 409.951L496.633 410.008L500.962 410.111L520.441 410.11" stroke="#EFEFEF" stroke-linecap="square"/>
</g>
<mask id="mask1_230_10638" style="mask-type:luminance" maskUnits="userSpaceOnUse" x="76" y="55" width="477" height="356">
<path d="M552.957 55.2959H76.7969V410.112H552.957V55.2959Z" fill="white"/>
</mask>
<g mask="url(#mask1_230_10638)">
<path d="M368.391 410.111L381.539 409.941L384.461 409.627L388.113 408.842L390.304 408.29L391.765 407.592L393.226 406.471L396.148 404.073L397.609 402.884L399.07 401.268L400.531 398.842L401.992 395.316L404.183 388.385L407.105 378.452L408.566 372.385L410.027 364.449L413.679 341.923L415.14 336.18L416.601 332.222L418.062 328.362L419.523 323.187L421.714 314.833L423.175 310.683L424.636 306.846L426.097 302.108L427.558 296.23L429.019 289.361L430.48 281.36L431.941 271.814L433.402 260.407L435.593 240.742L437.784 218.083L440.706 184.623L442.167 170.951L443.628 160.301L445.089 152.737L445.819 150.176L446.55 148.551L447.28 148.052L448.011 148.921L448.741 151.391L449.472 155.6L450.202 161.525L451.663 177.64L453.124 197.626L454.585 220.697L459.698 309.217L461.159 328.907L463.35 353.994L464.811 367.994L466.272 379.199L467.733 387.693L469.194 393.941L470.655 398.387L472.116 401.555L473.577 403.857L475.038 405.415L476.499 406.38L480.882 408.524L482.342 408.88L495.491 410.028L498.413 409.898L501.334 409.788L513.752 410.111" fill="#EFEFEF" fill-opacity="0.4"/>
<path d="M368.391 410.111L381.539 409.941L384.461 409.627L388.113 408.842L390.304 408.29L391.765 407.592L393.226 406.471L396.148 404.073L397.609 402.884L399.07 401.268L400.531 398.842L401.992 395.316L404.183 388.385L407.105 378.452L408.566 372.385L410.027 364.449L413.679 341.923L415.14 336.18L416.601 332.222L418.062 328.362L419.523 323.187L421.714 314.833L423.175 310.683L424.636 306.846L426.097 302.108L427.558 296.23L429.019 289.361L430.48 281.36L431.941 271.814L433.402 260.407L435.593 240.742L437.784 218.083L440.706 184.623L442.167 170.951L443.628 160.301L445.089 152.737L445.819 150.176L446.55 148.551L447.28 148.052L448.011 148.921L448.741 151.391L449.472 155.6L450.202 161.525L451.663 177.64L453.124 197.626L454.585 220.697L459.698 309.217L461.159 328.907L463.35 353.994L464.811 367.994L466.272 379.199L467.733 387.693L469.194 393.941L470.655 398.387L472.116 401.555L473.577 403.857L475.038 405.415L476.499 406.38L480.882 408.524L482.342 408.88L495.491 410.028L498.413 409.898L501.334 409.788L513.752 410.111" stroke="#EFEFEF" stroke-linecap="square"/>
</g>
<mask id="mask2_230_10638" style="mask-type:luminance" maskUnits="userSpaceOnUse" x="76" y="55" width="477" height="356">
<path d="M552.957 55.2959H76.7969V410.112H552.957V55.2959Z" fill="white"/>
</mask>
<g mask="url(#mask2_230_10638)">
<path d="M355.422 410.111L372.748 409.962L376.213 409.562L384.876 408.295L387.475 407.723L389.207 407.262L392.672 406.769L393.539 406.153L394.405 405.156L396.138 402.388L397.87 398.744L399.603 393.641L402.202 384.109L403.934 376.486L404.8 371.782L405.667 366.17L407.399 352.006L409.132 335.045L410.864 315.627L412.597 292.946L417.795 220.779L419.527 199.535L421.26 182.923L424.725 158.489L425.591 152.857L426.458 148.388L427.324 145.521L428.19 144.437L429.057 145.062L429.923 147.132L430.789 150.418L431.655 154.968L432.522 161.076L433.388 168.973L435.121 189.052L437.719 220.098L439.452 236.161L442.051 258.422L443.783 276.535L447.249 314.111L448.981 330.247L450.714 344.271L452.446 356.27L454.179 366.051L455.912 373.763L458.51 383.982L460.243 389.327L461.109 391.175L462.842 393.722L465.441 397.389L468.04 401.112L469.772 403.259L471.505 404.985L473.237 406.187L474.97 407.023L478.435 408.186L481.034 408.884L483.633 409.211L487.098 409.233L490.563 409.212L496.627 409.984L507.023 410.011L527.814 410.111" fill="#EFEFEF" fill-opacity="0.4"/>
<path d="M355.422 410.111L372.748 409.962L376.213 409.562L384.876 408.295L387.475 407.723L389.207 407.262L392.672 406.769L393.539 406.153L394.405 405.156L396.138 402.388L397.87 398.744L399.603 393.641L402.202 384.109L403.934 376.486L404.8 371.782L405.667 366.17L407.399 352.006L409.132 335.045L410.864 315.627L412.597 292.946L417.795 220.779L419.527 199.535L421.26 182.923L424.725 158.489L425.591 152.857L426.458 148.388L427.324 145.521L428.19 144.437L429.057 145.062L429.923 147.132L430.789 150.418L431.655 154.968L432.522 161.076L433.388 168.973L435.121 189.052L437.719 220.098L439.452 236.161L442.051 258.422L443.783 276.535L447.249 314.111L448.981 330.247L450.714 344.271L452.446 356.27L454.179 366.051L455.912 373.763L458.51 383.982L460.243 389.327L461.109 391.175L462.842 393.722L465.441 397.389L468.04 401.112L469.772 403.259L471.505 404.985L473.237 406.187L474.97 407.023L478.435 408.186L481.034 408.884L483.633 409.211L487.098 409.233L490.563 409.212L496.627 409.984L507.023 410.011L527.814 410.111" stroke="#EFEFEF" stroke-linecap="square"/>
</g>
<mask id="mask3_230_10638" style="mask-type:luminance" maskUnits="userSpaceOnUse" x="76" y="55" width="477" height="356">
<path d="M552.957 55.2959H76.7969V410.112H552.957V55.2959Z" fill="white"/>
</mask>
<g mask="url(#mask3_230_10638)">
<path d="M372.961 410.111L377.583 409.955L380.224 409.697L384.186 408.875L385.506 408.302L390.128 405.271L391.449 403.806L392.769 401.705L394.09 398.678L396.731 391.116L398.052 386.665L399.372 381.056L402.013 367.683L403.334 359.935L404.655 349.746L406.635 331.305L407.956 317.283L410.597 284.321L419.181 176.957L421.162 156.369L423.143 140.198L425.123 126.172L425.784 122.735L426.444 120.426L427.104 119.305L427.765 119.342L428.425 120.558L429.085 123.036L429.745 126.807L431.066 137.493L433.707 163.533L435.028 180.477L436.348 202.822L438.329 237.901L442.951 308.792L444.932 335.785L446.253 351.678L447.573 364.639L448.894 374.705L450.214 382.722L451.535 388.743L454.176 398.628L455.497 402.028L456.817 404.238L458.138 405.912L459.458 406.952L460.779 407.358L462.76 407.756L464.08 408.269L466.721 409.509L468.042 409.806L470.683 409.991L473.985 409.837L477.286 409.792L482.568 409.764L485.209 409.873L494.453 409.76L500.396 410.019L504.358 410.111" fill="#EFEFEF" fill-opacity="0.4"/>
<path d="M372.961 410.111L377.583 409.955L380.224 409.697L384.186 408.875L385.506 408.302L390.128 405.271L391.449 403.806L392.769 401.705L394.09 398.678L396.731 391.116L398.052 386.665L399.372 381.056L402.013 367.683L403.334 359.935L404.655 349.746L406.635 331.305L407.956 317.283L410.597 284.321L419.181 176.957L421.162 156.369L423.143 140.198L425.123 126.172L425.784 122.735L426.444 120.426L427.104 119.305L427.765 119.342L428.425 120.558L429.085 123.036L429.745 126.807L431.066 137.493L433.707 163.533L435.028 180.477L436.348 202.822L438.329 237.901L442.951 308.792L444.932 335.785L446.253 351.678L447.573 364.639L448.894 374.705L450.214 382.722L451.535 388.743L454.176 398.628L455.497 402.028L456.817 404.238L458.138 405.912L459.458 406.952L460.779 407.358L462.76 407.756L464.08 408.269L466.721 409.509L468.042 409.806L470.683 409.991L473.985 409.837L477.286 409.792L482.568 409.764L485.209 409.873L494.453 409.76L500.396 410.019L504.358 410.111" stroke="#EFEFEF" stroke-linecap="square"/>
</g>
<mask id="mask4_230_10638" style="mask-type:luminance" maskUnits="userSpaceOnUse" x="76" y="55" width="477" height="356">
<path d="M552.957 55.2959H76.7969V410.112H552.957V55.2959Z" fill="white"/>
</mask>
<g mask="url(#mask4_230_10638)">
<path d="M363.414 410.111L367.307 409.987L370.422 409.878L377.43 409.846L385.996 409.115L389.889 407.827L392.225 407.553L395.34 406.875L396.897 406.546L397.676 406.221L398.455 405.704L400.012 404.051L401.57 401.804L403.127 398.797L404.684 395.4L405.463 394.094L407.799 391.266L408.578 389.47L409.356 386.707L410.135 382.905L410.914 378.069L412.471 365.141L414.029 348.249L416.365 318.791L418.701 285.228L422.594 220.938L424.151 191.782L428.045 108.635L428.824 96.0539L429.602 85.9732L430.381 78.6149L431.16 74.0436L431.938 72.1924L432.717 73.0102L433.496 76.5334L434.274 82.7646L435.053 91.5028L436.61 114.797L438.168 143.467L443.619 253.281L445.176 273.838L448.291 308.366L449.848 322.738L452.184 340.248L453.741 350.371L456.077 363.513L457.635 371.089L458.414 374.077L459.192 376.337L461.528 381.397L465.422 392.065L467.758 397.085L469.315 399.766L471.651 402.989L472.43 403.834L473.209 404.424L476.323 405.815L477.881 406.783L479.438 407.215L480.995 407.592L486.446 409.541L488.004 409.677L491.897 409.697L496.569 409.994L500.462 409.924L503.577 409.935L509.807 410.029L518.372 410.111" fill="#EFEFEF" fill-opacity="0.4"/>
<path d="M363.414 410.111L367.307 409.987L370.422 409.878L377.43 409.846L385.996 409.115L389.889 407.827L392.225 407.553L395.34 406.875L396.897 406.546L397.676 406.221L398.455 405.704L400.012 404.051L401.57 401.804L403.127 398.797L404.684 395.4L405.463 394.094L407.799 391.266L408.578 389.47L409.356 386.707L410.135 382.905L410.914 378.069L412.471 365.141L414.029 348.249L416.365 318.791L418.701 285.228L422.594 220.938L424.151 191.782L428.045 108.635L428.824 96.0539L429.602 85.9732L430.381 78.6149L431.16 74.0436L431.938 72.1924L432.717 73.0102L433.496 76.5334L434.274 82.7646L435.053 91.5028L436.61 114.797L438.168 143.467L443.619 253.281L445.176 273.838L448.291 308.366L449.848 322.738L452.184 340.248L453.741 350.371L456.077 363.513L457.635 371.089L458.414 374.077L459.192 376.337L461.528 381.397L465.422 392.065L467.758 397.085L469.315 399.766L471.651 402.989L472.43 403.834L473.209 404.424L476.323 405.815L477.881 406.783L479.438 407.215L480.995 407.592L486.446 409.541L488.004 409.677L491.897 409.697L496.569 409.994L500.462 409.924L503.577 409.935L509.807 410.029L518.372 410.111" stroke="#EFEFEF" stroke-linecap="square"/>
</g>
<mask id="mask5_230_10638" style="mask-type:luminance" maskUnits="userSpaceOnUse" x="76" y="55" width="477" height="356">
<path d="M552.957 55.2959H76.7969V410.112H552.957V55.2959Z" fill="white"/>
</mask>
<g mask="url(#mask5_230_10638)">
<path d="M353.648 410.111L374.01 409.901L383.748 409.599L386.404 409.455L388.174 409.493L389.06 409.337L390.83 408.614L395.257 406.309L396.142 405.755L397.027 404.923L397.912 403.554L398.798 401.454L399.683 398.538L400.568 394.737L401.453 389.854L402.339 383.557L403.224 375.602L404.995 355.383L406.765 331.419L408.536 302.67L410.306 268.177L415.618 153.89L417.388 126.343L419.159 104.777L420.044 96.542L420.93 90.3857L421.815 87.3193L422.7 88.1163L423.585 92.3627L424.471 98.759L425.356 106.431L426.241 115.6L427.127 126.825L428.897 154.319L435.094 258.313L436.865 280.223L440.406 318.703L442.176 334.374L443.947 346.565L445.717 356.008L448.373 367.502L451.029 378.541L451.914 381.554L452.8 383.635L453.685 384.891L455.455 386.978L456.341 388.577L458.111 392.363L458.997 393.868L459.882 394.882L461.652 396.236L462.538 397.153L464.308 399.373L465.194 400.158L466.964 400.909L467.849 401.299L468.735 401.899L472.276 405.051L474.046 405.534L474.932 405.756L477.587 406.889L479.358 407.051L481.129 407.235L484.67 408.073L488.211 409.164L493.522 409.802L500.605 409.799L503.261 409.732L511.228 409.986L513.884 409.932L518.31 409.981L526.278 410.037L529.819 410.111" fill="#EFEFEF" fill-opacity="0.4"/>
<path d="M353.648 410.111L374.01 409.901L383.748 409.599L386.404 409.455L388.174 409.493L389.06 409.337L390.83 408.614L395.257 406.309L396.142 405.755L397.027 404.923L397.912 403.554L398.798 401.454L399.683 398.538L400.568 394.737L401.453 389.854L402.339 383.557L403.224 375.602L404.995 355.383L406.765 331.419L408.536 302.67L410.306 268.177L415.618 153.89L417.388 126.343L419.159 104.777L420.044 96.542L420.93 90.3857L421.815 87.3193L422.7 88.1163L423.585 92.3627L424.471 98.759L425.356 106.431L426.241 115.6L427.127 126.825L428.897 154.319L435.094 258.313L436.865 280.223L440.406 318.703L442.176 334.374L443.947 346.565L445.717 356.008L448.373 367.502L451.029 378.541L451.914 381.554L452.8 383.635L453.685 384.891L455.455 386.978L456.341 388.577L458.111 392.363L458.997 393.868L459.882 394.882L461.652 396.236L462.538 397.153L464.308 399.373L465.194 400.158L466.964 400.909L467.849 401.299L468.735 401.899L472.276 405.051L474.046 405.534L474.932 405.756L477.587 406.889L479.358 407.051L481.129 407.235L484.67 408.073L488.211 409.164L493.522 409.802L500.605 409.799L503.261 409.732L511.228 409.986L513.884 409.932L518.31 409.981L526.278 410.037L529.819 410.111" stroke="#EFEFEF" stroke-linecap="square"/>
</g>
<mask id="mask6_230_10638" style="mask-type:luminance" maskUnits="userSpaceOnUse" x="76" y="55" width="477" height="356">
<path d="M552.957 55.2959H76.7969V410.112H552.957V55.2959Z" fill="white"/>
</mask>
<g mask="url(#mask6_230_10638)">
<path d="M342.469 410.111L359.101 409.981L368.342 409.154L372.038 408.628L376.658 407.838L378.506 406.932L380.354 405.544L383.126 403.007L385.898 399.83L388.671 396.306L390.519 393.458L392.367 389.853L394.215 385.002L396.063 378.608L398.835 367.321L400.683 359.26L402.531 349.957L404.379 338.809L406.227 325.72L408.075 310.581L410.847 284.646L414.544 248.842L416.392 233.72L418.24 220.575L420.088 209.106L421.936 199.946L422.86 196.384L423.784 193.59L424.708 191.668L425.632 190.744L426.556 190.978L427.48 192.533L428.404 195.5L429.328 199.797L431.176 210.946L433.948 227.716L436.72 244.16L438.569 257.004L440.417 271.963L444.113 302.647L445.961 315.457L452.429 355.26L453.353 359.482L455.201 365.904L460.745 382.519L462.593 386.391L464.442 390.2L467.214 396.256L469.062 399.473L470.91 401.859L471.834 402.695L473.682 403.781L475.53 404.726L479.226 406.868L481.998 407.925L483.846 408.371L494.011 409.542L496.783 409.68L506.947 409.691L520.808 410.049L526.352 410.111" fill="#EFEFEF" fill-opacity="0.4"/>
<path d="M342.469 410.111L359.101 409.981L368.342 409.154L372.038 408.628L376.658 407.838L378.506 406.932L380.354 405.544L383.126 403.007L385.898 399.83L388.671 396.306L390.519 393.458L392.367 389.853L394.215 385.002L396.063 378.608L398.835 367.321L400.683 359.26L402.531 349.957L404.379 338.809L406.227 325.72L408.075 310.581L410.847 284.646L414.544 248.842L416.392 233.72L418.24 220.575L420.088 209.106L421.936 199.946L422.86 196.384L423.784 193.59L424.708 191.668L425.632 190.744L426.556 190.978L427.48 192.533L428.404 195.5L429.328 199.797L431.176 210.946L433.948 227.716L436.72 244.16L438.569 257.004L440.417 271.963L444.113 302.647L445.961 315.457L452.429 355.26L453.353 359.482L455.201 365.904L460.745 382.519L462.593 386.391L464.442 390.2L467.214 396.256L469.062 399.473L470.91 401.859L471.834 402.695L473.682 403.781L475.53 404.726L479.226 406.868L481.998 407.925L483.846 408.371L494.011 409.542L496.783 409.68L506.947 409.691L520.808 410.049L526.352 410.111" stroke="#EFEFEF" stroke-linecap="square"/>
</g>
<mask id="mask7_230_10638" style="mask-type:luminance" maskUnits="userSpaceOnUse" x="76" y="55" width="477" height="356">
<path d="M552.957 55.2959H76.7969V410.112H552.957V55.2959Z" fill="white"/>
</mask>
<g mask="url(#mask7_230_10638)">
<path d="M372.875 410.111L378.304 409.942L383.732 409.928L386.059 409.982L387.61 409.716L389.936 408.771L391.487 407.953L393.038 406.854L400.018 400.93L402.344 397.698L403.12 396.407L403.896 394.748L405.447 390.204L407.773 382.038L409.324 374.86L410.875 365.65L415.528 335.202L417.079 320.387L418.63 300.982L420.957 267.01L426.385 184.526L427.936 166.179L430.263 143.666L431.038 137.781L431.814 133.117L432.59 129.626L433.365 127.286L434.141 126.238L434.916 126.641L435.692 128.403L436.467 131.139L438.018 138.338L439.569 148.297L441.12 161.683L442.671 179.316L445.773 221.685L448.1 257.278L451.202 305.719L452.753 327.588L454.304 344.821L455.855 356.348L458.181 371.542L460.508 386.809L461.284 390.697L462.059 393.808L462.835 396.263L464.386 399.82L465.937 402.419L467.488 404.406L469.039 405.673L473.692 408.335L475.243 408.998L476.794 409.281L482.222 409.838L487.651 409.375L493.08 409.943L496.182 410.016L500.835 410.001L507.039 410.112L520.223 409.998L522.549 409.919L527.202 410.11" fill="#EFEFEF" fill-opacity="0.4"/>
<path d="M372.875 410.111L378.304 409.942L383.732 409.928L386.059 409.982L387.61 409.716L389.936 408.771L391.487 407.953L393.038 406.854L400.018 400.93L402.344 397.698L403.12 396.407L403.896 394.748L405.447 390.204L407.773 382.038L409.324 374.86L410.875 365.65L415.528 335.202L417.079 320.387L418.63 300.982L420.957 267.01L426.385 184.526L427.936 166.179L430.263 143.666L431.038 137.781L431.814 133.117L432.59 129.626L433.365 127.286L434.141 126.238L434.916 126.641L435.692 128.403L436.467 131.139L438.018 138.338L439.569 148.297L441.12 161.683L442.671 179.316L445.773 221.685L448.1 257.278L451.202 305.719L452.753 327.588L454.304 344.821L455.855 356.348L458.181 371.542L460.508 386.809L461.284 390.697L462.059 393.808L462.835 396.263L464.386 399.82L465.937 402.419L467.488 404.406L469.039 405.673L473.692 408.335L475.243 408.998L476.794 409.281L482.222 409.838L487.651 409.375L493.08 409.943L496.182 410.016L500.835 410.001L507.039 410.112L520.223 409.998L522.549 409.919L527.202 410.11" stroke="#EFEFEF" stroke-linecap="square"/>
</g>
<mask id="mask8_230_10638" style="mask-type:luminance" maskUnits="userSpaceOnUse" x="76" y="55" width="477" height="356">
<path d="M552.957 55.2959H76.7969V410.112H552.957V55.2959Z" fill="white"/>
</mask>
<g mask="url(#mask8_230_10638)">
<path d="M336.859 410.111L362.089 409.939L365.693 409.52L373.803 407.986L376.506 406.919L379.209 405.752L382.813 404.441L384.615 403.448L385.517 402.748L386.418 401.841L387.319 400.688L389.121 397.59L390.923 393.468L392.725 388.508L396.329 377.328L398.131 371.325L399.933 363.801L401.736 353.716L404.439 334.973L407.142 315.013L408.944 299.79L417.955 217.637L418.856 211.348L419.757 206.25L420.658 202.253L421.559 199.199L422.46 196.94L423.361 195.375L424.262 194.462L425.163 194.209L426.064 194.667L426.965 195.888L427.866 197.862L428.767 200.503L430.569 207.41L432.371 216.38L435.075 232.419L438.679 254.662L440.481 267.714L443.184 291.645L444.986 306.515L446.788 318.59L450.393 340.393L452.195 349.117L459.403 378.596L461.205 384.767L463.909 392.446L465.711 396.667L466.612 398.225L468.414 400.415L471.117 402.838L473.82 404.775L477.424 407.246L479.227 407.963L484.633 409.315L488.237 409.648L492.742 409.626L497.248 409.783L502.654 409.945L509.862 410.038L516.17 410.111" fill="#EFEFEF" fill-opacity="0.4"/>
<path d="M336.859 410.111L362.089 409.939L365.693 409.52L373.803 407.986L376.506 406.919L379.209 405.752L382.813 404.441L384.615 403.448L385.517 402.748L386.418 401.841L387.319 400.688L389.121 397.59L390.923 393.468L392.725 388.508L396.329 377.328L398.131 371.325L399.933 363.801L401.736 353.716L404.439 334.973L407.142 315.013L408.944 299.79L417.955 217.637L418.856 211.348L419.757 206.25L420.658 202.253L421.559 199.199L422.46 196.94L423.361 195.375L424.262 194.462L425.163 194.209L426.064 194.667L426.965 195.888L427.866 197.862L428.767 200.503L430.569 207.41L432.371 216.38L435.075 232.419L438.679 254.662L440.481 267.714L443.184 291.645L444.986 306.515L446.788 318.59L450.393 340.393L452.195 349.117L459.403 378.596L461.205 384.767L463.909 392.446L465.711 396.667L466.612 398.225L468.414 400.415L471.117 402.838L473.82 404.775L477.424 407.246L479.227 407.963L484.633 409.315L488.237 409.648L492.742 409.626L497.248 409.783L502.654 409.945L509.862 410.038L516.17 410.111" stroke="#EFEFEF" stroke-linecap="square"/>
</g>
<mask id="mask9_230_10638" style="mask-type:luminance" maskUnits="userSpaceOnUse" x="76" y="55" width="477" height="356">
<path d="M552.957 55.2959H76.7969V410.112H552.957V55.2959Z" fill="white"/>
</mask>
<g mask="url(#mask9_230_10638)">
<path d="M347.312 410.111L373.154 409.923L376.287 409.677L382.551 410.073L384.901 409.809L387.25 409.25L389.599 408.56L391.165 408.418L392.732 408.284L393.515 408.002L395.081 406.915L397.43 404.717L398.213 403.659L398.996 402.245L400.562 398.34L403.695 388.871L404.478 385.661L405.261 381.375L406.827 369.437L408.393 353.877L409.959 333.433L411.526 307.873L413.875 262.39L420.14 138.299L420.923 126.177L421.706 117.121L422.489 110.901L423.272 106.659L424.055 103.554L424.838 101.319L425.621 100.217L426.404 100.587L427.187 102.532L427.97 105.987L428.754 110.902L429.537 117.26L431.103 133.558L435.018 179.497L436.584 203.666L439.717 258.879L441.283 280.973L443.632 308.136L445.981 331.186L448.331 349.59L449.897 360.216L453.812 380.645L455.379 387.383L456.162 389.813L456.945 391.696L457.728 393.099L460.077 396.262L461.643 399.295L463.209 402.344L463.992 403.476L465.559 405.008L467.125 405.953L469.474 406.732L471.823 407.692L474.956 408.98L476.522 409.317L478.088 409.294L479.654 409.243L482.787 409.453L486.702 409.194L491.401 409.708L494.533 409.798L497.665 409.896L503.147 410.11" fill="#EFEFEF" fill-opacity="0.4"/>
<path d="M347.312 410.111L373.154 409.923L376.287 409.677L382.551 410.073L384.901 409.809L387.25 409.25L389.599 408.56L391.165 408.418L392.732 408.284L393.515 408.002L395.081 406.915L397.43 404.717L398.213 403.659L398.996 402.245L400.562 398.34L403.695 388.871L404.478 385.661L405.261 381.375L406.827 369.437L408.393 353.877L409.959 333.433L411.526 307.873L413.875 262.39L420.14 138.299L420.923 126.177L421.706 117.121L422.489 110.901L423.272 106.659L424.055 103.554L424.838 101.319L425.621 100.217L426.404 100.587L427.187 102.532L427.97 105.987L428.754 110.902L429.537 117.26L431.103 133.558L435.018 179.497L436.584 203.666L439.717 258.879L441.283 280.973L443.632 308.136L445.981 331.186L448.331 349.59L449.897 360.216L453.812 380.645L455.379 387.383L456.162 389.813L456.945 391.696L457.728 393.099L460.077 396.262L461.643 399.295L463.209 402.344L463.992 403.476L465.559 405.008L467.125 405.953L469.474 406.732L471.823 407.692L474.956 408.98L476.522 409.317L478.088 409.294L479.654 409.243L482.787 409.453L486.702 409.194L491.401 409.708L494.533 409.798L497.665 409.896L503.147 410.11" stroke="#EFEFEF" stroke-linecap="square"/>
</g>
<mask id="mask10_230_10638" style="mask-type:luminance" maskUnits="userSpaceOnUse" x="76" y="55" width="477" height="356">
<path d="M552.957 55.2959H76.7969V410.112H552.957V55.2959Z" fill="white"/>
</mask>
<g mask="url(#mask10_230_10638)">
<path d="M360.133 410.111L372.714 409.95L376.069 409.655L377.747 409.308L379.424 408.57L380.263 407.958L381.102 407.091L381.941 405.897L382.779 404.344L383.618 402.417L384.457 400.079L385.296 397.268L386.134 393.902L386.973 389.858L387.812 384.95L388.651 378.984L389.489 371.777L390.328 363.105L392.006 340.659L393.683 312.799L396.199 265.975L399.554 202.459L402.071 159.13L402.909 147.198L403.748 137.876L404.587 131.147L406.264 121.735L407.103 117.428L407.942 114.081L408.781 113.373L409.619 116.399L410.458 122.85L412.136 140.954L421.362 244.38L423.878 269.953L427.233 300.962L429.75 326.441L430.588 332.547L433.105 347.097L436.46 370.241L438.137 378.648L438.976 381.782L439.815 384.192L441.492 387.611L443.17 391.284L445.686 397.751L446.525 399.316L448.202 401.583L449.88 403.246L454.074 406.692L455.751 407.556L459.945 408.866L461.622 408.929L463.3 408.88L471.687 409.771L473.365 409.681L475.881 409.423L477.559 409.575L480.075 409.896L482.591 409.799L486.785 409.606L493.495 409.941L516.142 410.111L527.045 410.111" fill="#EFEFEF" fill-opacity="0.4"/>
<path d="M360.133 410.111L372.714 409.95L376.069 409.655L377.747 409.308L379.424 408.57L380.263 407.958L381.102 407.091L381.941 405.897L382.779 404.344L383.618 402.417L384.457 400.079L385.296 397.268L386.134 393.902L386.973 389.858L387.812 384.95L388.651 378.984L389.489 371.777L390.328 363.105L392.006 340.659L393.683 312.799L396.199 265.975L399.554 202.459L402.071 159.13L402.909 147.198L403.748 137.876L404.587 131.147L406.264 121.735L407.103 117.428L407.942 114.081L408.781 113.373L409.619 116.399L410.458 122.85L412.136 140.954L421.362 244.38L423.878 269.953L427.233 300.962L429.75 326.441L430.588 332.547L433.105 347.097L436.46 370.241L438.137 378.648L438.976 381.782L439.815 384.192L441.492 387.611L443.17 391.284L445.686 397.751L446.525 399.316L448.202 401.583L449.88 403.246L454.074 406.692L455.751 407.556L459.945 408.866L461.622 408.929L463.3 408.88L471.687 409.771L473.365 409.681L475.881 409.423L477.559 409.575L480.075 409.896L482.591 409.799L486.785 409.606L493.495 409.941L516.142 410.111L527.045 410.111" stroke="#EFEFEF" stroke-linecap="square"/>
</g>
<mask id="mask11_230_10638" style="mask-type:luminance" maskUnits="userSpaceOnUse" x="76" y="55" width="477" height="356">
<path d="M552.957 55.2959H76.7969V410.112H552.957V55.2959Z" fill="white"/>
</mask>
<g mask="url(#mask11_230_10638)">
<path d="M361.109 410.111L369.183 409.954L372.413 409.745L374.835 409.273L378.064 408.263L380.487 407.256L382.909 405.99L384.523 404.885L386.138 403.313L387.753 401.023L389.368 398.066L391.79 392.823L393.405 388.462L395.019 383.134L397.442 373.942L399.056 367.057L400.671 359.102L403.093 345.436L405.515 330.572L407.938 313.359L410.36 293.241L415.204 252.184L418.433 225.832L420.048 215.696L421.663 208.551L424.085 200.634L425.7 196.072L426.507 194.464L427.315 193.666L428.122 193.847L428.929 195.029L429.737 197.111L430.544 199.93L432.159 207.195L433.774 215.986L435.388 226.008L437.811 243.553L441.848 274.313L445.884 302.615L449.114 323.44L452.344 345.92L453.958 355.597L455.573 363.794L457.995 373.701L461.225 385.656L462.839 390.6L464.454 394.736L466.069 398.213L467.684 401.049L469.299 403.126L470.106 403.833L471.721 404.645L477.372 406.228L479.794 407.387L481.409 408.095L483.024 408.37L486.254 408.568L493.52 409.617L496.749 409.823L521.778 410.111" fill="#EFEFEF" fill-opacity="0.4"/>
<path d="M361.109 410.111L369.183 409.954L372.413 409.745L374.835 409.273L378.064 408.263L380.487 407.256L382.909 405.99L384.523 404.885L386.138 403.313L387.753 401.023L389.368 398.066L391.79 392.823L393.405 388.462L395.019 383.134L397.442 373.942L399.056 367.057L400.671 359.102L403.093 345.436L405.515 330.572L407.938 313.359L410.36 293.241L415.204 252.184L418.433 225.832L420.048 215.696L421.663 208.551L424.085 200.634L425.7 196.072L426.507 194.464L427.315 193.666L428.122 193.847L428.929 195.029L429.737 197.111L430.544 199.93L432.159 207.195L433.774 215.986L435.388 226.008L437.811 243.553L441.848 274.313L445.884 302.615L449.114 323.44L452.344 345.92L453.958 355.597L455.573 363.794L457.995 373.701L461.225 385.656L462.839 390.6L464.454 394.736L466.069 398.213L467.684 401.049L469.299 403.126L470.106 403.833L471.721 404.645L477.372 406.228L479.794 407.387L481.409 408.095L483.024 408.37L486.254 408.568L493.52 409.617L496.749 409.823L521.778 410.111" stroke="#EFEFEF" stroke-linecap="square"/>
</g>
<mask id="mask12_230_10638" style="mask-type:luminance" maskUnits="userSpaceOnUse" x="76" y="55" width="477" height="356">
<path d="M552.957 55.2959H76.7969V410.112H552.957V55.2959Z" fill="white"/>
</mask>
<g mask="url(#mask12_230_10638)">
<path d="M368.969 410.11L372.203 409.959L374.629 409.686L380.29 409.578L384.333 409.287L385.95 408.663L388.376 407.311L389.993 406.148L391.61 404.572L394.845 401.109L395.653 399.772L396.462 397.937L397.271 395.556L398.888 389.228L400.505 380.667L402.122 370.051L403.74 357.842L405.357 341.734L407.783 310.633L409.4 287.242L411.017 259.086L415.869 166.98L417.486 139.241L419.104 116.196L419.912 107.066L420.721 100.232L421.529 96.3964L422.338 96.0303L423.147 99.0146L423.955 104.618L425.573 119.969L427.19 137.458L428.807 157.899L436.085 258.624L438.511 290.135L440.128 310.104L441.745 325.551L444.171 344.101L445.788 354.892L447.405 363.561L449.831 374.538L452.257 383.666L453.874 388.229L456.3 393.676L457.918 396.593L460.343 400.202L461.961 402.3L463.578 403.981L466.004 406.079L467.621 407.114L469.238 407.63L475.707 408.68L479.75 409.139L481.368 409.408L483.794 409.406L487.028 409.527L491.071 409.791L493.497 409.936L496.732 409.979L500.775 410.098L508.052 410.103L522.608 410.067L526.651 410.058L529.885 410.111" fill="#EFEFEF" fill-opacity="0.4"/>
<path d="M368.969 410.11L372.203 409.959L374.629 409.686L380.29 409.578L384.333 409.287L385.95 408.663L388.376 407.311L389.993 406.148L391.61 404.572L394.845 401.109L395.653 399.772L396.462 397.937L397.271 395.556L398.888 389.228L400.505 380.667L402.122 370.051L403.74 357.842L405.357 341.734L407.783 310.633L409.4 287.242L411.017 259.086L415.869 166.98L417.486 139.241L419.104 116.196L419.912 107.066L420.721 100.232L421.529 96.3964L422.338 96.0303L423.147 99.0146L423.955 104.618L425.573 119.969L427.19 137.458L428.807 157.899L436.085 258.624L438.511 290.135L440.128 310.104L441.745 325.551L444.171 344.101L445.788 354.892L447.405 363.561L449.831 374.538L452.257 383.666L453.874 388.229L456.3 393.676L457.918 396.593L460.343 400.202L461.961 402.3L463.578 403.981L466.004 406.079L467.621 407.114L469.238 407.63L475.707 408.68L479.75 409.139L481.368 409.408L483.794 409.406L487.028 409.527L491.071 409.791L493.497 409.936L496.732 409.979L500.775 410.098L508.052 410.103L522.608 410.067L526.651 410.058L529.885 410.111" stroke="#EFEFEF" stroke-linecap="square"/>
</g>
<mask id="mask13_230_10638" style="mask-type:luminance" maskUnits="userSpaceOnUse" x="76" y="55" width="477" height="356">
<path d="M552.957 55.2959H76.7969V410.112H552.957V55.2959Z" fill="white"/>
</mask>
<g mask="url(#mask13_230_10638)">
<path d="M346.047 410.111L354.27 409.973L359.752 409.893L365.234 410.026L367.975 409.69L370.716 409.032L375.284 407.782L378.025 407.296L379.852 406.652L381.679 405.586L383.507 404.106L386.248 401.53L387.161 400.448L388.075 399.046L388.989 397.217L390.816 392.32L393.557 383.479L395.384 376.974L397.212 369.247L399.039 359.538L400.866 347.818L403.607 328.262L406.348 306.525L409.089 282.435L413.657 239.214L415.485 226.468L417.312 217.086L419.139 209.431L420.967 202.644L421.88 199.683L422.794 197.272L423.708 195.58L424.621 194.635L425.535 194.387L426.449 194.855L427.362 196.187L428.276 198.548L429.19 201.966L430.103 206.313L431.931 217.26L433.758 231.067L436.499 253.31L439.24 272.21L443.808 301.258L447.463 329.345L449.29 340.136L451.117 348.364L453.858 358.815L457.513 372.334L460.254 382.273L462.081 387.295L463.909 391.201L466.649 396.232L468.477 398.781L472.131 402.701L473.959 404.388L475.786 405.5L480.354 407.285L483.095 408.175L485.836 408.711L493.146 409.553L498.627 409.93L504.109 410.033L527.864 410.111" fill="#EFEFEF" fill-opacity="0.4"/>
<path d="M346.047 410.111L354.27 409.973L359.752 409.893L365.234 410.026L367.975 409.69L370.716 409.032L375.284 407.782L378.025 407.296L379.852 406.652L381.679 405.586L383.507 404.106L386.248 401.53L387.161 400.448L388.075 399.046L388.989 397.217L390.816 392.32L393.557 383.479L395.384 376.974L397.212 369.247L399.039 359.538L400.866 347.818L403.607 328.262L406.348 306.525L409.089 282.435L413.657 239.214L415.485 226.468L417.312 217.086L419.139 209.431L420.967 202.644L421.88 199.683L422.794 197.272L423.708 195.58L424.621 194.635L425.535 194.387L426.449 194.855L427.362 196.187L428.276 198.548L429.19 201.966L430.103 206.313L431.931 217.26L433.758 231.067L436.499 253.31L439.24 272.21L443.808 301.258L447.463 329.345L449.29 340.136L451.117 348.364L453.858 358.815L457.513 372.334L460.254 382.273L462.081 387.295L463.909 391.201L466.649 396.232L468.477 398.781L472.131 402.701L473.959 404.388L475.786 405.5L480.354 407.285L483.095 408.175L485.836 408.711L493.146 409.553L498.627 409.93L504.109 410.033L527.864 410.111" stroke="#EFEFEF" stroke-linecap="square"/>
</g>
<mask id="mask14_230_10638" style="mask-type:luminance" maskUnits="userSpaceOnUse" x="76" y="55" width="477" height="356">
<path d="M552.957 55.2959H76.7969V410.112H552.957V55.2959Z" fill="white"/>
</mask>
<g mask="url(#mask14_230_10638)">
<path d="M98.4375 410.111L137.592 410.112L339.889 409.984L344.24 409.874L348.59 409.732L357.291 408.94L361.642 408.108L370.342 406.789L372.518 405.218L374.693 402.429L376.868 400.026L379.043 398.731L381.219 397.244L383.394 394.855L385.569 392.018L387.744 388.473L389.92 383.573L396.445 365.483L398.621 357.74L400.796 346.257L402.971 330.655L407.322 295.657L409.497 274.208L413.847 223.529L416.023 202.703L418.198 185.146L420.373 173.188L422.548 171.126L424.723 178.809L426.899 190.175L429.074 203.02L431.249 219.696L437.775 279.278L444.301 330L448.651 359.409L450.826 371.756L453.002 379.826L459.527 397.271L461.703 401.164L463.878 403.191L468.228 405.539L476.929 408.819L479.104 409.093L487.805 409.339L496.506 409.952L500.857 410.057L505.207 409.948L516.084 409.963L531.31 410.111" fill="#7EB0D5" fill-opacity="0.4"/>
<path d="M98.4375 410.111L137.592 410.112L339.889 409.984L344.24 409.874L348.59 409.732L357.291 408.94L361.642 408.108L370.342 406.789L372.518 405.218L374.693 402.429L376.868 400.026L379.043 398.731L381.219 397.244L383.394 394.855L385.569 392.018L387.744 388.473L389.92 383.573L396.445 365.483L398.621 357.74L400.796 346.257L402.971 330.655L407.322 295.657L409.497 274.208L413.847 223.529L416.023 202.703L418.198 185.146L420.373 173.188L422.548 171.126L424.723 178.809L426.899 190.175L429.074 203.02L431.249 219.696L437.775 279.278L444.301 330L448.651 359.409L450.826 371.756L453.002 379.826L459.527 397.271L461.703 401.164L463.878 403.191L468.228 405.539L476.929 408.819L479.104 409.093L487.805 409.339L496.506 409.952L500.857 410.057L505.207 409.948L516.084 409.963L531.31 410.111" stroke="#7EB0D5" stroke-linecap="square"/>
</g>
<path d="M535.061 411.061C535.646 410.475 535.646 409.525 535.061 408.939L525.515 399.393C524.929 398.808 523.979 398.808 523.393 399.393C522.808 399.979 522.808 400.929 523.393 401.515L531.879 410L523.393 418.485C522.808 419.071 522.808 420.021 523.393 420.607C523.979 421.192 524.929 421.192 525.515 420.607L535.061 411.061ZM79 411.5H534V408.5H79V411.5Z" fill="black"/>
</g>
<defs>
<clipPath id="clip0_230_10638">
<rect width="614.4" height="460.8" fill="white"/>
</clipPath>
</defs>
</svg>
