<svg width="615" height="461" viewBox="0 0 615 461" fill="none" xmlns="http://www.w3.org/2000/svg">
<g clip-path="url(#clip0_230_10718)">
<mask id="mask0_230_10718" style="mask-type:luminance" maskUnits="userSpaceOnUse" x="76" y="55" width="477" height="356">
<path d="M552.957 55.2959H76.7969V410.112H552.957V55.2959Z" fill="white"/>
</mask>
<g mask="url(#mask0_230_10718)">
<path d="M349.391 410.111L361.22 409.962L365.952 409.619L369.107 409.484L371.473 409.316L373.05 408.873L375.416 407.875L376.994 407.052L378.571 405.893L380.148 404.068L381.725 401.333L387.246 389.998L388.823 385.859L389.612 383.213L390.401 379.949L391.978 371.208L394.344 354.089L398.287 323.556L399.865 308.633L402.23 282.237L404.596 251.993L410.117 179.069L411.694 162.855L413.272 149.783L414.06 144.28L414.849 139.896L415.638 137.093L416.426 135.973L417.215 136.107L418.792 137.606L419.581 138.52L420.37 139.992L421.158 142.588L421.947 146.74L422.736 152.613L424.313 169.006L430.622 246.36L435.354 295.469L438.509 326.116L440.086 339.026L441.663 350.059L443.241 359.271L446.395 374.699L447.972 381.438L449.55 386.616L451.127 390.442L452.704 393.107L455.859 397.178L459.802 403.458L460.591 404.292L461.38 404.877L462.957 405.478L464.534 405.922L466.9 407.029L470.055 408.422L471.632 408.855L473.998 409.129L478.73 409.565L482.673 409.894L486.616 409.944L489.771 409.984L494.503 410.11L506.333 410.111" fill="#EFEFEF" fill-opacity="0.4"/>
<path d="M349.391 410.111L361.22 409.962L365.952 409.619L369.107 409.484L371.473 409.316L373.05 408.873L375.416 407.875L376.994 407.052L378.571 405.893L380.148 404.068L381.725 401.333L387.246 389.998L388.823 385.859L389.612 383.213L390.401 379.949L391.978 371.208L394.344 354.089L398.287 323.556L399.865 308.633L402.23 282.237L404.596 251.993L410.117 179.069L411.694 162.855L413.272 149.783L414.06 144.28L414.849 139.896L415.638 137.093L416.426 135.973L417.215 136.107L418.792 137.606L419.581 138.52L420.37 139.992L421.158 142.588L421.947 146.74L422.736 152.613L424.313 169.006L430.622 246.36L435.354 295.469L438.509 326.116L440.086 339.026L441.663 350.059L443.241 359.271L446.395 374.699L447.972 381.438L449.55 386.616L451.127 390.442L452.704 393.107L455.859 397.178L459.802 403.458L460.591 404.292L461.38 404.877L462.957 405.478L464.534 405.922L466.9 407.029L470.055 408.422L471.632 408.855L473.998 409.129L478.73 409.565L482.673 409.894L486.616 409.944L489.771 409.984L494.503 410.11L506.333 410.111" stroke="#EFEFEF" stroke-linecap="square"/>
</g>
<mask id="mask1_230_10718" style="mask-type:luminance" maskUnits="userSpaceOnUse" x="76" y="55" width="477" height="356">
<path d="M552.957 55.2959H76.7969V410.112H552.957V55.2959Z" fill="white"/>
</mask>
<g mask="url(#mask1_230_10718)">
<path d="M340.133 410.111L357.056 409.948L369.748 409.377L371.44 408.98L373.979 408.008L379.056 405.406L380.748 404.46L382.44 403.181L384.133 401.279L385.825 398.653L388.363 393.906L390.902 388.658L392.594 384.443L394.286 379.127L395.979 372.578L404.44 336.813L406.133 331.249L407.825 326.824L411.209 319.417L413.748 314.377L415.44 311.814L417.133 309.948L418.825 308.209L419.671 307.052L420.517 305.51L421.363 303.47L422.209 300.854L423.056 297.619L424.748 289.312L426.44 278.938L428.979 261.054L432.363 237.009L434.902 221.288L437.44 207.911L439.132 200.717L439.979 197.943L440.825 195.888L441.671 194.666L442.517 194.366L443.363 195.051L444.209 196.766L445.055 199.531L445.902 203.323L447.594 213.516L450.132 232.463L451.825 246.808L453.517 263.283L459.44 325.413L461.978 347.765L464.517 366.899L466.209 377.194L467.902 385.195L469.594 391.369L471.286 396.356L472.978 400.408L474.671 403.454L476.363 405.471L478.055 406.628L479.748 407.241L489.055 409.519L491.594 409.782L495.825 409.784L500.901 409.885L506.824 410.105L508.517 410.11" fill="#EFEFEF" fill-opacity="0.4"/>
<path d="M340.133 410.111L357.056 409.948L369.748 409.377L371.44 408.98L373.979 408.008L379.056 405.406L380.748 404.46L382.44 403.181L384.133 401.279L385.825 398.653L388.363 393.906L390.902 388.658L392.594 384.443L394.286 379.127L395.979 372.578L404.44 336.813L406.133 331.249L407.825 326.824L411.209 319.417L413.748 314.377L415.44 311.814L417.133 309.948L418.825 308.209L419.671 307.052L420.517 305.51L421.363 303.47L422.209 300.854L423.056 297.619L424.748 289.312L426.44 278.938L428.979 261.054L432.363 237.009L434.902 221.288L437.44 207.911L439.132 200.717L439.979 197.943L440.825 195.888L441.671 194.666L442.517 194.366L443.363 195.051L444.209 196.766L445.055 199.531L445.902 203.323L447.594 213.516L450.132 232.463L451.825 246.808L453.517 263.283L459.44 325.413L461.978 347.765L464.517 366.899L466.209 377.194L467.902 385.195L469.594 391.369L471.286 396.356L472.978 400.408L474.671 403.454L476.363 405.471L478.055 406.628L479.748 407.241L489.055 409.519L491.594 409.782L495.825 409.784L500.901 409.885L506.824 410.105L508.517 410.11" stroke="#EFEFEF" stroke-linecap="square"/>
</g>
<mask id="mask2_230_10718" style="mask-type:luminance" maskUnits="userSpaceOnUse" x="76" y="55" width="477" height="356">
<path d="M552.957 55.2959H76.7969V410.112H552.957V55.2959Z" fill="white"/>
</mask>
<g mask="url(#mask2_230_10718)">
<path d="M326.977 410.111L350.594 409.981L353.674 409.604L357.781 408.935L361.889 408.352L364.969 407.611L367.023 406.805L369.076 405.632L371.13 404.021L376.264 399.549L377.291 398.421L378.318 397.062L379.345 395.379L380.372 393.249L381.398 390.541L382.425 387.182L384.479 378.895L390.64 351.268L392.693 341.645L394.747 330.842L396.801 318.619L397.828 311.569L399.881 294.177L403.989 254.825L408.096 222.069L410.15 206.589L411.176 200.126L412.203 194.815L413.23 190.616L414.257 187.484L415.284 185.494L416.31 184.729L417.337 185.089L418.364 186.291L419.391 188.126L420.418 190.663L421.445 194.148L422.471 198.69L424.525 210.103L426.579 223.234L428.632 238.158L431.713 263.98L433.767 281.325L435.82 296.555L438.901 316.294L446.088 360.191L447.115 364.957L448.142 368.928L450.196 375.193L455.33 388.244L457.384 392.725L459.437 396.121L463.545 402.403L464.571 403.485L466.625 405.051L468.679 406.242L470.732 407.072L473.813 407.856L477.92 408.611L492.296 409.781L498.457 410.062L531.315 410.111" fill="#EFEFEF" fill-opacity="0.4"/>
<path d="M326.977 410.111L350.594 409.981L353.674 409.604L357.781 408.935L361.889 408.352L364.969 407.611L367.023 406.805L369.076 405.632L371.13 404.021L376.264 399.549L377.291 398.421L378.318 397.062L379.345 395.379L380.372 393.249L381.398 390.541L382.425 387.182L384.479 378.895L390.64 351.268L392.693 341.645L394.747 330.842L396.801 318.619L397.828 311.569L399.881 294.177L403.989 254.825L408.096 222.069L410.15 206.589L411.176 200.126L412.203 194.815L413.23 190.616L414.257 187.484L415.284 185.494L416.31 184.729L417.337 185.089L418.364 186.291L419.391 188.126L420.418 190.663L421.445 194.148L422.471 198.69L424.525 210.103L426.579 223.234L428.632 238.158L431.713 263.98L433.767 281.325L435.82 296.555L438.901 316.294L446.088 360.191L447.115 364.957L448.142 368.928L450.196 375.193L455.33 388.244L457.384 392.725L459.437 396.121L463.545 402.403L464.571 403.485L466.625 405.051L468.679 406.242L470.732 407.072L473.813 407.856L477.92 408.611L492.296 409.781L498.457 410.062L531.315 410.111" stroke="#EFEFEF" stroke-linecap="square"/>
</g>
<mask id="mask3_230_10718" style="mask-type:luminance" maskUnits="userSpaceOnUse" x="76" y="55" width="477" height="356">
<path d="M552.957 55.2959H76.7969V410.112H552.957V55.2959Z" fill="white"/>
</mask>
<g mask="url(#mask3_230_10718)">
<path d="M349.266 410.11L353.063 409.991L359.897 409.351L365.213 407.879L365.973 407.35L367.491 405.737L372.048 399.5L373.567 396.542L375.085 392.644L377.364 386.115L379.642 378.524L381.92 370.027L383.439 363.192L384.958 354.28L387.236 337.575L389.514 318.244L391.792 295.009L394.071 271.51L398.627 229.181L400.905 204.161L402.424 191.474L403.184 187.378L403.943 184.754L404.702 183.185L405.462 182.014L406.221 180.562L406.981 178.401L409.259 169.731L410.018 168.135L410.778 168.029L411.537 169.496L412.297 172.359L413.815 180.908L416.853 201.491L420.65 228.297L423.688 246.404L425.206 258.304L430.522 306.183L435.079 339.431L436.598 349.125L438.876 361.248L443.432 384.292L444.951 389.812L446.47 394.256L447.989 397.868L449.507 400.747L451.026 403.086L452.545 404.998L454.064 406.389L455.583 407.225L457.102 407.618L459.38 407.974L460.899 408.513L463.177 409.377L464.696 409.664L466.974 409.709L471.53 409.397L477.606 409.879L481.403 409.903L485.2 409.982L495.831 410.052L500.388 410.111" fill="#EFEFEF" fill-opacity="0.4"/>
<path d="M349.266 410.11L353.063 409.991L359.897 409.351L365.213 407.879L365.973 407.35L367.491 405.737L372.048 399.5L373.567 396.542L375.085 392.644L377.364 386.115L379.642 378.524L381.92 370.027L383.439 363.192L384.958 354.28L387.236 337.575L389.514 318.244L391.792 295.009L394.071 271.51L398.627 229.181L400.905 204.161L402.424 191.474L403.184 187.378L403.943 184.754L404.702 183.185L405.462 182.014L406.221 180.562L406.981 178.401L409.259 169.731L410.018 168.135L410.778 168.029L411.537 169.496L412.297 172.359L413.815 180.908L416.853 201.491L420.65 228.297L423.688 246.404L425.206 258.304L430.522 306.183L435.079 339.431L436.598 349.125L438.876 361.248L443.432 384.292L444.951 389.812L446.47 394.256L447.989 397.868L449.507 400.747L451.026 403.086L452.545 404.998L454.064 406.389L455.583 407.225L457.102 407.618L459.38 407.974L460.899 408.513L463.177 409.377L464.696 409.664L466.974 409.709L471.53 409.397L477.606 409.879L481.403 409.903L485.2 409.982L495.831 410.052L500.388 410.111" stroke="#EFEFEF" stroke-linecap="square"/>
</g>
<mask id="mask4_230_10718" style="mask-type:luminance" maskUnits="userSpaceOnUse" x="76" y="55" width="477" height="356">
<path d="M552.957 55.2959H76.7969V410.112H552.957V55.2959Z" fill="white"/>
</mask>
<g mask="url(#mask4_230_10718)">
<path d="M334.203 410.111L353.961 409.919L364.31 409.602L369.014 409.11L371.837 408.852L374.659 408.188L380.304 406.594L382.186 405.655L388.772 401.406L390.653 399.601L394.417 395.261L395.358 393.929L396.298 392.312L397.239 390.348L399.121 385.322L401.003 378.84L402.884 371.019L404.766 362.262L406.648 352.295L408.529 340.345L412.293 313.379L414.174 298.791L419.819 251.806L422.642 232.787L424.524 222.216L427.346 207.307L429.228 194.814L431.109 182.039L432.05 176.815L432.991 172.879L433.932 170.451L434.873 169.601L435.814 170.157L436.755 171.683L438.636 175.799L439.577 178.305L440.518 181.811L441.459 187.063L442.4 194.478L444.281 214.65L447.104 250.13L450.867 298.344L452.749 316.97L454.63 331.561L456.512 343.193L458.394 352.574L461.216 364.392L463.098 371.099L465.92 379.577L468.743 387.521L470.625 391.98L473.447 397.34L475.329 400.54L477.211 403.071L478.151 403.963L480.033 405.206L481.915 406.153L483.796 406.783L486.619 407.473L490.382 408.724L493.205 409.292L496.027 409.66L500.732 409.826L507.317 409.962L515.785 410.011L521.43 410.111" fill="#EFEFEF" fill-opacity="0.4"/>
<path d="M334.203 410.111L353.961 409.919L364.31 409.602L369.014 409.11L371.837 408.852L374.659 408.188L380.304 406.594L382.186 405.655L388.772 401.406L390.653 399.601L394.417 395.261L395.358 393.929L396.298 392.312L397.239 390.348L399.121 385.322L401.003 378.84L402.884 371.019L404.766 362.262L406.648 352.295L408.529 340.345L412.293 313.379L414.174 298.791L419.819 251.806L422.642 232.787L424.524 222.216L427.346 207.307L429.228 194.814L431.109 182.039L432.05 176.815L432.991 172.879L433.932 170.451L434.873 169.601L435.814 170.157L436.755 171.683L438.636 175.799L439.577 178.305L440.518 181.811L441.459 187.063L442.4 194.478L444.281 214.65L447.104 250.13L450.867 298.344L452.749 316.97L454.63 331.561L456.512 343.193L458.394 352.574L461.216 364.392L463.098 371.099L465.92 379.577L468.743 387.521L470.625 391.98L473.447 397.34L475.329 400.54L477.211 403.071L478.151 403.963L480.033 405.206L481.915 406.153L483.796 406.783L486.619 407.473L490.382 408.724L493.205 409.292L496.027 409.66L500.732 409.826L507.317 409.962L515.785 410.011L521.43 410.111" stroke="#EFEFEF" stroke-linecap="square"/>
</g>
<mask id="mask5_230_10718" style="mask-type:luminance" maskUnits="userSpaceOnUse" x="76" y="55" width="477" height="356">
<path d="M552.957 55.2959H76.7969V410.112H552.957V55.2959Z" fill="white"/>
</mask>
<g mask="url(#mask5_230_10718)">
<path d="M333.68 410.111L350.609 409.948L355.312 409.805L360.015 409.754L367.539 409.064L372.242 407.83L374.123 407.374L376.004 406.296L379.766 403.547L380.707 402.54L382.588 399.684L386.35 393.018L387.291 390.931L389.172 385.582L390.112 382.226L391.053 378.222L391.993 373.327L392.934 367.317L393.874 360.021L394.815 351.325L396.696 329.923L399.518 291.932L404.22 222.652L406.102 196.214L407.042 185.202L407.983 176.169L408.923 169.021L409.864 163.553L410.804 159.73L411.745 157.672L412.685 157.37L413.626 158.392L415.507 161.34L416.447 162.509L417.388 164.026L418.329 166.634L419.269 170.685L421.15 181.794L423.031 192.327L425.853 204.369L426.793 210.332L427.734 218.331L429.615 239.399L432.437 272.479L434.318 289.142L437.139 311.46L439.961 335.3L441.842 347.829L443.723 357.97L445.604 366.672L447.485 373.387L450.307 381.573L454.069 391.943L455.95 396.04L457.831 399.1L458.772 400.264L459.712 401.12L460.653 401.645L463.475 402.502L465.356 403.829L467.237 405.268L470.058 406.847L471.94 407.719L473.821 408.163L477.583 408.714L480.404 409.176L485.107 409.422L487.929 409.678L492.631 409.798L495.453 410.025L498.275 409.922L501.096 409.809L520.848 410.111" fill="#EFEFEF" fill-opacity="0.4"/>
<path d="M333.68 410.111L350.609 409.948L355.312 409.805L360.015 409.754L367.539 409.064L372.242 407.83L374.123 407.374L376.004 406.296L379.766 403.547L380.707 402.54L382.588 399.684L386.35 393.018L387.291 390.931L389.172 385.582L390.112 382.226L391.053 378.222L391.993 373.327L392.934 367.317L393.874 360.021L394.815 351.325L396.696 329.923L399.518 291.932L404.22 222.652L406.102 196.214L407.042 185.202L407.983 176.169L408.923 169.021L409.864 163.553L410.804 159.73L411.745 157.672L412.685 157.37L413.626 158.392L415.507 161.34L416.447 162.509L417.388 164.026L418.329 166.634L419.269 170.685L421.15 181.794L423.031 192.327L425.853 204.369L426.793 210.332L427.734 218.331L429.615 239.399L432.437 272.479L434.318 289.142L437.139 311.46L439.961 335.3L441.842 347.829L443.723 357.97L445.604 366.672L447.485 373.387L450.307 381.573L454.069 391.943L455.95 396.04L457.831 399.1L458.772 400.264L459.712 401.12L460.653 401.645L463.475 402.502L465.356 403.829L467.237 405.268L470.058 406.847L471.94 407.719L473.821 408.163L477.583 408.714L480.404 409.176L485.107 409.422L487.929 409.678L492.631 409.798L495.453 410.025L498.275 409.922L501.096 409.809L520.848 410.111" stroke="#EFEFEF" stroke-linecap="square"/>
</g>
<mask id="mask6_230_10718" style="mask-type:luminance" maskUnits="userSpaceOnUse" x="76" y="55" width="477" height="356">
<path d="M552.957 55.2959H76.7969V410.112H552.957V55.2959Z" fill="white"/>
</mask>
<g mask="url(#mask6_230_10718)">
<path d="M307.773 410.111L336.882 409.959L341.04 409.586L346.238 409.047L348.317 408.398L351.436 407.17L353.515 406.767L355.594 406.449L357.673 405.81L359.752 404.824L361.831 403.417L363.911 401.44L365.99 398.935L368.069 395.918L370.148 392.307L372.227 388.11L374.306 383.291L377.425 375.172L379.504 369.032L380.544 365.317L382.623 356.237L387.821 331.095L389.9 321.412L391.979 309.848L394.058 295.46L398.217 264.288L400.296 251.403L403.414 234.893L405.494 225.755L407.573 218.852L409.652 213.354L410.692 211.171L411.731 209.678L412.771 209.126L413.81 209.647L414.85 211.256L415.889 213.894L416.929 217.453L419.008 226.532L423.166 247.341L426.285 264.737L428.364 277.601L431.483 299.434L434.602 320.8L436.681 332.449L439.8 346.818L444.998 370.153L447.077 377.401L449.156 383.15L451.235 387.87L453.314 391.878L456.433 397.085L458.512 400.125L460.591 402.629L461.631 403.584L462.67 404.315L464.75 405.231L467.868 406.245L474.106 408.774L476.185 409.052L483.462 409.419L489.699 409.873L498.016 409.94L511.531 410.086L514.649 410.11" fill="#EFEFEF" fill-opacity="0.4"/>
<path d="M307.773 410.111L336.882 409.959L341.04 409.586L346.238 409.047L348.317 408.398L351.436 407.17L353.515 406.767L355.594 406.449L357.673 405.81L359.752 404.824L361.831 403.417L363.911 401.44L365.99 398.935L368.069 395.918L370.148 392.307L372.227 388.11L374.306 383.291L377.425 375.172L379.504 369.032L380.544 365.317L382.623 356.237L387.821 331.095L389.9 321.412L391.979 309.848L394.058 295.46L398.217 264.288L400.296 251.403L403.414 234.893L405.494 225.755L407.573 218.852L409.652 213.354L410.692 211.171L411.731 209.678L412.771 209.126L413.81 209.647L414.85 211.256L415.889 213.894L416.929 217.453L419.008 226.532L423.166 247.341L426.285 264.737L428.364 277.601L431.483 299.434L434.602 320.8L436.681 332.449L439.8 346.818L444.998 370.153L447.077 377.401L449.156 383.15L451.235 387.87L453.314 391.878L456.433 397.085L458.512 400.125L460.591 402.629L461.631 403.584L462.67 404.315L464.75 405.231L467.868 406.245L474.106 408.774L476.185 409.052L483.462 409.419L489.699 409.873L498.016 409.94L511.531 410.086L514.649 410.11" stroke="#EFEFEF" stroke-linecap="square"/>
</g>
<mask id="mask7_230_10718" style="mask-type:luminance" maskUnits="userSpaceOnUse" x="76" y="55" width="477" height="356">
<path d="M552.957 55.2959H76.7969V410.112H552.957V55.2959Z" fill="white"/>
</mask>
<g mask="url(#mask7_230_10718)">
<path d="M344.836 410.111L350.956 409.946L361.448 409.751L364.071 409.493L370.191 408.404L372.814 407.479L375.437 406.039L377.185 404.896L378.934 403.246L381.557 399.925L383.305 397.457L385.054 394.072L392.049 377.714L393.797 371.892L395.546 363.936L398.169 349.561L399.917 338.788L403.415 313.715L405.163 298.964L406.912 280.515L409.535 251.565L411.283 235.295L414.781 206.097L417.403 182.313L419.152 169.958L420.901 160.972L424.398 144.262L425.272 142.142L426.146 141.985L427.021 143.846L427.895 147.71L428.769 153.412L431.392 175.605L433.141 191.794L434.89 212.298L436.638 238.461L439.261 280.032L441.01 302.588L444.507 341.069L446.256 358.102L448.004 371.004L449.753 380.803L451.501 388.414L453.25 393.887L454.999 398.144L456.747 401.85L458.496 404.672L460.244 406.473L461.993 407.667L463.742 408.355L465.49 408.628L468.988 409.086L471.61 409.548L475.108 409.674L481.228 409.745L484.725 409.795L488.222 409.921L495.217 410.025L499.588 410.112L518.823 410.111" fill="#EFEFEF" fill-opacity="0.4"/>
<path d="M344.836 410.111L350.956 409.946L361.448 409.751L364.071 409.493L370.191 408.404L372.814 407.479L375.437 406.039L377.185 404.896L378.934 403.246L381.557 399.925L383.305 397.457L385.054 394.072L392.049 377.714L393.797 371.892L395.546 363.936L398.169 349.561L399.917 338.788L403.415 313.715L405.163 298.964L406.912 280.515L409.535 251.565L411.283 235.295L414.781 206.097L417.403 182.313L419.152 169.958L420.901 160.972L424.398 144.262L425.272 142.142L426.146 141.985L427.021 143.846L427.895 147.71L428.769 153.412L431.392 175.605L433.141 191.794L434.89 212.298L436.638 238.461L439.261 280.032L441.01 302.588L444.507 341.069L446.256 358.102L448.004 371.004L449.753 380.803L451.501 388.414L453.25 393.887L454.999 398.144L456.747 401.85L458.496 404.672L460.244 406.473L461.993 407.667L463.742 408.355L465.49 408.628L468.988 409.086L471.61 409.548L475.108 409.674L481.228 409.745L484.725 409.795L488.222 409.921L495.217 410.025L499.588 410.112L518.823 410.111" stroke="#EFEFEF" stroke-linecap="square"/>
</g>
<mask id="mask8_230_10718" style="mask-type:luminance" maskUnits="userSpaceOnUse" x="76" y="55" width="477" height="356">
<path d="M552.957 55.2959H76.7969V410.112H552.957V55.2959Z" fill="white"/>
</mask>
<g mask="url(#mask8_230_10718)">
<path d="M312.422 410.111L345.824 409.913L349.873 409.603L352.91 409.065L358.983 407.319L361.007 406.462L366.068 403.858L368.093 402.391L370.117 400.296L372.142 397.578L374.166 394.464L376.19 390.803L377.203 388.542L379.227 382.967L382.264 373.886L384.288 368.184L385.3 364.954L386.312 361.147L387.325 356.626L389.349 345.543L391.373 332.545L395.422 303.455L399.471 275.462L403.52 248.871L406.556 230.464L407.569 225.584L408.581 221.642L409.593 218.505L411.617 213.692L412.63 211.763L413.642 210.226L414.654 209.247L415.666 208.976L416.678 209.49L417.691 210.81L418.703 212.94L419.715 215.892L420.727 219.633L422.752 228.868L425.788 244.697L428.825 262.518L437.935 318.383L442.996 344.032L445.02 353.518L447.044 361.153L452.105 377.2L454.13 382.8L456.154 387.108L461.215 396.181L463.239 399.062L465.264 401.222L467.288 402.903L470.325 404.997L473.361 406.778L475.386 407.669L477.41 408.258L480.447 408.764L485.508 409.299L494.618 409.955L513.849 410.111" fill="#EFEFEF" fill-opacity="0.4"/>
<path d="M312.422 410.111L345.824 409.913L349.873 409.603L352.91 409.065L358.983 407.319L361.007 406.462L366.068 403.858L368.093 402.391L370.117 400.296L372.142 397.578L374.166 394.464L376.19 390.803L377.203 388.542L379.227 382.967L382.264 373.886L384.288 368.184L385.3 364.954L386.312 361.147L387.325 356.626L389.349 345.543L391.373 332.545L395.422 303.455L399.471 275.462L403.52 248.871L406.556 230.464L407.569 225.584L408.581 221.642L409.593 218.505L411.617 213.692L412.63 211.763L413.642 210.226L414.654 209.247L415.666 208.976L416.678 209.49L417.691 210.81L418.703 212.94L419.715 215.892L420.727 219.633L422.752 228.868L425.788 244.697L428.825 262.518L437.935 318.383L442.996 344.032L445.02 353.518L447.044 361.153L452.105 377.2L454.13 382.8L456.154 387.108L461.215 396.181L463.239 399.062L465.264 401.222L467.288 402.903L470.325 404.997L473.361 406.778L475.386 407.669L477.41 408.258L480.447 408.764L485.508 409.299L494.618 409.955L513.849 410.111" stroke="#EFEFEF" stroke-linecap="square"/>
</g>
<mask id="mask9_230_10718" style="mask-type:luminance" maskUnits="userSpaceOnUse" x="76" y="55" width="477" height="356">
<path d="M552.957 55.2959H76.7969V410.112H552.957V55.2959Z" fill="white"/>
</mask>
<g mask="url(#mask9_230_10718)">
<path d="M316.57 410.11L351.037 410.069L354.866 410.014L363.483 409.235L369.227 407.805L370.185 407.382L371.142 406.74L373.057 404.825L374.972 402.45L376.887 399.368L378.801 395.242L380.716 390.237L383.588 381.783L384.546 378.359L385.503 374.194L386.461 369.146L388.375 356.621L390.29 341.556L395.077 299.559L396.992 279.483L399.864 246.421L403.694 199.678L405.609 180.885L406.566 173.614L407.523 167.682L408.481 162.83L409.438 158.997L410.396 156.539L411.353 155.915L412.31 157.014L413.268 158.862L414.225 160.182L415.183 160.406L416.14 160.179L417.097 160.93L418.055 163.932L419.012 169.562L420.927 185.659L423.799 212.836L425.714 235.379L428.586 270.325L430.501 290.707L434.331 326.158L436.245 343.229L437.203 350.087L438.16 355.365L440.075 363.071L441.99 370.721L444.862 382.403L446.777 388.385L448.692 393.101L451.564 398.972L453.479 402.167L454.436 403.346L456.351 404.952L459.223 406.524L461.138 407.351L463.053 407.877L464.967 408.07L467.84 408.291L470.712 409.032L472.627 409.466L474.541 409.573L479.328 409.673L486.988 409.942L496.562 410.013L507.093 410.111" fill="#EFEFEF" fill-opacity="0.4"/>
<path d="M316.57 410.11L351.037 410.069L354.866 410.014L363.483 409.235L369.227 407.805L370.185 407.382L371.142 406.74L373.057 404.825L374.972 402.45L376.887 399.368L378.801 395.242L380.716 390.237L383.588 381.783L384.546 378.359L385.503 374.194L386.461 369.146L388.375 356.621L390.29 341.556L395.077 299.559L396.992 279.483L399.864 246.421L403.694 199.678L405.609 180.885L406.566 173.614L407.523 167.682L408.481 162.83L409.438 158.997L410.396 156.539L411.353 155.915L412.31 157.014L413.268 158.862L414.225 160.182L415.183 160.406L416.14 160.179L417.097 160.93L418.055 163.932L419.012 169.562L420.927 185.659L423.799 212.836L425.714 235.379L428.586 270.325L430.501 290.707L434.331 326.158L436.245 343.229L437.203 350.087L438.16 355.365L440.075 363.071L441.99 370.721L444.862 382.403L446.777 388.385L448.692 393.101L451.564 398.972L453.479 402.167L454.436 403.346L456.351 404.952L459.223 406.524L461.138 407.351L463.053 407.877L464.967 408.07L467.84 408.291L470.712 409.032L472.627 409.466L474.541 409.573L479.328 409.673L486.988 409.942L496.562 410.013L507.093 410.111" stroke="#EFEFEF" stroke-linecap="square"/>
</g>
<mask id="mask10_230_10718" style="mask-type:luminance" maskUnits="userSpaceOnUse" x="76" y="55" width="477" height="356">
<path d="M552.957 55.2959H76.7969V410.112H552.957V55.2959Z" fill="white"/>
</mask>
<g mask="url(#mask10_230_10718)">
<path d="M335.367 410.111L346.068 409.941L348.743 409.935L351.418 409.813L355.877 409.282L357.66 408.72L359.443 407.686L363.01 405.355L363.902 404.273L364.794 402.771L365.685 400.873L367.469 395.961L368.36 392.836L369.252 389.088L370.144 384.578L371.927 373.003L373.711 357.868L375.494 338.251L376.386 325.884L378.169 294.973L381.736 222.005L385.303 146.451L387.086 117.397L388.87 94.4927L389.761 85.0533L390.653 77.8291L391.545 73.5817L392.437 72.1924L393.328 72.8044L394.22 75.0165L395.112 79.6042L396.003 87.6913L396.895 99.4569L398.679 129.895L406.704 274.29L408.487 297.672L410.271 315.105L413.838 343.645L415.621 355.487L417.404 365.399L419.188 372.997L421.863 382.249L422.755 384.682L423.646 386.48L425.43 389.39L428.105 395.277L428.997 396.581L433.455 400.79L435.239 403.1L437.022 405.401L437.914 406.077L442.372 407.693L443.264 407.805L445.939 407.615L449.506 408.637L453.073 409.021L455.748 409.449L459.315 409.582L461.098 409.731L465.557 409.685L467.34 409.748L471.799 409.488L478.932 409.953L481.608 409.936L486.066 410.095L492.308 410.085L501.225 410.112L512.817 410.111" fill="#EFEFEF" fill-opacity="0.4"/>
<path d="M335.367 410.111L346.068 409.941L348.743 409.935L351.418 409.813L355.877 409.282L357.66 408.72L359.443 407.686L363.01 405.355L363.902 404.273L364.794 402.771L365.685 400.873L367.469 395.961L368.36 392.836L369.252 389.088L370.144 384.578L371.927 373.003L373.711 357.868L375.494 338.251L376.386 325.884L378.169 294.973L381.736 222.005L385.303 146.451L387.086 117.397L388.87 94.4927L389.761 85.0533L390.653 77.8291L391.545 73.5817L392.437 72.1924L393.328 72.8044L394.22 75.0165L395.112 79.6042L396.003 87.6913L396.895 99.4569L398.679 129.895L406.704 274.29L408.487 297.672L410.271 315.105L413.838 343.645L415.621 355.487L417.404 365.399L419.188 372.997L421.863 382.249L422.755 384.682L423.646 386.48L425.43 389.39L428.105 395.277L428.997 396.581L433.455 400.79L435.239 403.1L437.022 405.401L437.914 406.077L442.372 407.693L443.264 407.805L445.939 407.615L449.506 408.637L453.073 409.021L455.748 409.449L459.315 409.582L461.098 409.731L465.557 409.685L467.34 409.748L471.799 409.488L478.932 409.953L481.608 409.936L486.066 410.095L492.308 410.085L501.225 410.112L512.817 410.111" stroke="#EFEFEF" stroke-linecap="square"/>
</g>
<mask id="mask11_230_10718" style="mask-type:luminance" maskUnits="userSpaceOnUse" x="76" y="55" width="477" height="356">
<path d="M552.957 55.2959H76.7969V410.112H552.957V55.2959Z" fill="white"/>
</mask>
<g mask="url(#mask11_230_10718)">
<path d="M341.18 410.11L347.368 409.952L355.324 409.331L357.976 408.624L364.165 406.635L365.933 405.52L367.701 403.833L369.469 401.645L372.121 397.81L373.889 394.754L375.657 390.858L377.425 386.098L380.077 377.967L381.845 371.507L383.614 363.717L385.382 354.745L387.15 344.632L388.918 332.982L391.57 312.847L395.106 285.448L397.758 267.227L401.294 245.844L403.946 230.873L404.83 226.814L405.715 223.526L406.599 220.978L411.019 210.609L411.903 208.289L412.787 206.422L413.671 205.47L414.555 205.858L415.439 207.847L416.323 211.406L418.091 221.592L419.859 232.155L421.627 241.009L425.163 257.351L426.931 266.731L430.468 287.868L434.004 308.354L439.308 336.205L441.076 344.119L447.264 369.035L449.032 374.994L450.8 380.006L452.569 383.997L454.337 387.184L456.989 391.015L459.641 394.878L462.293 398.711L464.945 401.849L466.713 403.501L468.481 404.559L471.133 405.426L472.901 406.075L478.206 408.444L479.974 408.753L491.466 409.579L495.886 409.529L505.611 409.965L510.031 409.945L517.103 410.11" fill="#EFEFEF" fill-opacity="0.4"/>
<path d="M341.18 410.11L347.368 409.952L355.324 409.331L357.976 408.624L364.165 406.635L365.933 405.52L367.701 403.833L369.469 401.645L372.121 397.81L373.889 394.754L375.657 390.858L377.425 386.098L380.077 377.967L381.845 371.507L383.614 363.717L385.382 354.745L387.15 344.632L388.918 332.982L391.57 312.847L395.106 285.448L397.758 267.227L401.294 245.844L403.946 230.873L404.83 226.814L405.715 223.526L406.599 220.978L411.019 210.609L411.903 208.289L412.787 206.422L413.671 205.47L414.555 205.858L415.439 207.847L416.323 211.406L418.091 221.592L419.859 232.155L421.627 241.009L425.163 257.351L426.931 266.731L430.468 287.868L434.004 308.354L439.308 336.205L441.076 344.119L447.264 369.035L449.032 374.994L450.8 380.006L452.569 383.997L454.337 387.184L456.989 391.015L459.641 394.878L462.293 398.711L464.945 401.849L466.713 403.501L468.481 404.559L471.133 405.426L472.901 406.075L478.206 408.444L479.974 408.753L491.466 409.579L495.886 409.529L505.611 409.965L510.031 409.945L517.103 410.11" stroke="#EFEFEF" stroke-linecap="square"/>
</g>
<mask id="mask12_230_10718" style="mask-type:luminance" maskUnits="userSpaceOnUse" x="76" y="55" width="477" height="356">
<path d="M552.957 55.2959H76.7969V410.112H552.957V55.2959Z" fill="white"/>
</mask>
<g mask="url(#mask12_230_10718)">
<path d="M340.984 410.109L345.381 409.948L348.019 409.856L353.296 410.041L358.572 409.828L362.09 409.799L365.607 409.41L368.245 408.764L372.642 407.285L374.401 406.314L378.798 403.228L379.677 402.465L380.557 401.503L382.315 398.87L384.074 395.315L385.833 391.071L387.592 386.285L389.35 380.577L391.109 373.288L392.868 364.153L394.627 353.734L396.385 341.255L398.144 325.751L400.782 298.453L405.179 246.612L412.214 162.992L413.094 154.818L413.973 148.11L414.853 142.651L415.732 138.232L416.611 135.064L417.491 133.723L418.37 134.641L419.249 137.669L420.129 142.19L421.888 153.555L423.646 167.042L425.405 183.826L427.164 205.55L429.802 239.524L435.078 298.376L436.837 314.897L438.596 328.037L441.234 345.327L442.993 355.292L445.631 368.698L447.39 376.23L449.148 381.524L451.787 387.844L453.545 391.543L455.304 394.496L459.701 401.046L461.46 403.045L462.339 403.689L464.098 404.45L465.857 405.147L468.495 406.593L470.254 407.561L472.012 408.212L474.651 408.707L478.168 409.143L483.444 409.598L486.082 409.872L489.6 409.872L493.997 409.958L498.394 410.026L512.464 410.06L515.981 410.11" fill="#EFEFEF" fill-opacity="0.4"/>
<path d="M340.984 410.109L345.381 409.948L348.019 409.856L353.296 410.041L358.572 409.828L362.09 409.799L365.607 409.41L368.245 408.764L372.642 407.285L374.401 406.314L378.798 403.228L379.677 402.465L380.557 401.503L382.315 398.87L384.074 395.315L385.833 391.071L387.592 386.285L389.35 380.577L391.109 373.288L392.868 364.153L394.627 353.734L396.385 341.255L398.144 325.751L400.782 298.453L405.179 246.612L412.214 162.992L413.094 154.818L413.973 148.11L414.853 142.651L415.732 138.232L416.611 135.064L417.491 133.723L418.37 134.641L419.249 137.669L420.129 142.19L421.888 153.555L423.646 167.042L425.405 183.826L427.164 205.55L429.802 239.524L435.078 298.376L436.837 314.897L438.596 328.037L441.234 345.327L442.993 355.292L445.631 368.698L447.39 376.23L449.148 381.524L451.787 387.844L453.545 391.543L455.304 394.496L459.701 401.046L461.46 403.045L462.339 403.689L464.098 404.45L465.857 405.147L468.495 406.593L470.254 407.561L472.012 408.212L474.651 408.707L478.168 409.143L483.444 409.598L486.082 409.872L489.6 409.872L493.997 409.958L498.394 410.026L512.464 410.06L515.981 410.11" stroke="#EFEFEF" stroke-linecap="square"/>
</g>
<mask id="mask13_230_10718" style="mask-type:luminance" maskUnits="userSpaceOnUse" x="76" y="55" width="477" height="356">
<path d="M552.957 55.2959H76.7969V410.112H552.957V55.2959Z" fill="white"/>
</mask>
<g mask="url(#mask13_230_10718)">
<path d="M324.594 410.111L333.539 409.98L349.443 409.312L354.413 408.55L358.389 407.572L360.377 406.875L362.365 405.734L364.352 403.903L366.34 401.507L370.316 396.104L372.304 392.815L374.292 388.813L376.28 383.995L379.262 375.569L381.25 369.253L383.238 361.512L385.226 351.714L388.208 334.407L393.178 303.379L401.129 253.681L403.117 243.001L405.105 234.298L408.087 222.707L409.081 219.548L410.075 217.162L411.069 215.734L412.063 215.3L413.057 215.762L414.051 216.966L415.045 218.756L417.033 223.527L420.015 231.927L422.003 238.217L423.991 245.668L425.978 254.335L427.966 264L429.954 274.732L432.936 292.736L435.918 310.867L438.9 327.142L441.882 341.29L446.852 362.523L448.84 370.037L450.828 376.258L452.816 381.136L454.804 385.197L458.779 392.374L461.761 397.597L462.755 399.026L463.749 400.182L465.737 401.794L468.719 403.462L476.671 407.544L479.653 408.476L483.629 409.421L486.611 409.788L491.58 409.992L506.49 410.076L515.436 410.042L522.393 410.111" fill="#EFEFEF" fill-opacity="0.4"/>
<path d="M324.594 410.111L333.539 409.98L349.443 409.312L354.413 408.55L358.389 407.572L360.377 406.875L362.365 405.734L364.352 403.903L366.34 401.507L370.316 396.104L372.304 392.815L374.292 388.813L376.28 383.995L379.262 375.569L381.25 369.253L383.238 361.512L385.226 351.714L388.208 334.407L393.178 303.379L401.129 253.681L403.117 243.001L405.105 234.298L408.087 222.707L409.081 219.548L410.075 217.162L411.069 215.734L412.063 215.3L413.057 215.762L414.051 216.966L415.045 218.756L417.033 223.527L420.015 231.927L422.003 238.217L423.991 245.668L425.978 254.335L427.966 264L429.954 274.732L432.936 292.736L435.918 310.867L438.9 327.142L441.882 341.29L446.852 362.523L448.84 370.037L450.828 376.258L452.816 381.136L454.804 385.197L458.779 392.374L461.761 397.597L462.755 399.026L463.749 400.182L465.737 401.794L468.719 403.462L476.671 407.544L479.653 408.476L483.629 409.421L486.611 409.788L491.58 409.992L506.49 410.076L515.436 410.042L522.393 410.111" stroke="#EFEFEF" stroke-linecap="square"/>
</g>
<mask id="mask14_230_10718" style="mask-type:luminance" maskUnits="userSpaceOnUse" x="76" y="55" width="477" height="356">
<path d="M552.957 55.2959H76.7969V410.112H552.957V55.2959Z" fill="white"/>
</mask>
<g mask="url(#mask14_230_10718)">
<path d="M98.4375 410.111L158.152 410.112L315.969 409.99L322.367 409.666L326.632 409.658L330.897 409.761L333.03 409.627L335.163 409.296L341.561 407.662L343.693 407.034L345.826 406.158L347.959 404.921L350.091 403.424L356.489 399.431L360.755 395.488L362.887 393.16L365.02 390.043L367.153 386.192L369.285 381.581L371.418 375.857L375.683 362.579L377.816 356.282L379.949 349.072L382.081 340.019L388.479 307.473L390.612 295.943L392.745 283.478L394.877 269.58L399.143 238.631L401.275 226.854L403.408 219.194L405.54 213.286L407.673 207.831L409.806 204.117L411.938 203.342L414.071 206.729L416.204 216.075L418.336 230.304L431.132 328.225L433.265 342.282L435.398 353.491L437.53 363.336L439.663 372.123L441.796 379.304L443.928 385.132L446.061 390.276L448.194 394.672L450.326 398.058L452.459 400.644L454.592 402.739L456.724 404.501L458.857 405.911L460.99 406.925L465.255 408.223L467.388 408.723L469.52 409.027L475.918 409.07L482.316 409.731L486.582 409.805L492.98 409.819L497.245 409.995L516.439 410.011L522.837 410.111" fill="#7EB0D5" fill-opacity="0.4"/>
<path d="M98.4375 410.111L158.152 410.112L315.969 409.99L322.367 409.666L326.632 409.658L330.897 409.761L333.03 409.627L335.163 409.296L341.561 407.662L343.693 407.034L345.826 406.158L347.959 404.921L350.091 403.424L356.489 399.431L360.755 395.488L362.887 393.16L365.02 390.043L367.153 386.192L369.285 381.581L371.418 375.857L375.683 362.579L377.816 356.282L379.949 349.072L382.081 340.019L388.479 307.473L390.612 295.943L392.745 283.478L394.877 269.58L399.143 238.631L401.275 226.854L403.408 219.194L405.54 213.286L407.673 207.831L409.806 204.117L411.938 203.342L414.071 206.729L416.204 216.075L418.336 230.304L431.132 328.225L433.265 342.282L435.398 353.491L437.53 363.336L439.663 372.123L441.796 379.304L443.928 385.132L446.061 390.276L448.194 394.672L450.326 398.058L452.459 400.644L454.592 402.739L456.724 404.501L458.857 405.911L460.99 406.925L465.255 408.223L467.388 408.723L469.52 409.027L475.918 409.07L482.316 409.731L486.582 409.805L492.98 409.819L497.245 409.995L516.439 410.011L522.837 410.111" stroke="#7EB0D5" stroke-linecap="square"/>
</g>
<path d="M535.061 411.061C535.646 410.475 535.646 409.525 535.061 408.939L525.515 399.393C524.929 398.808 523.979 398.808 523.393 399.393C522.808 399.979 522.808 400.929 523.393 401.515L531.879 410L523.393 418.485C522.808 419.071 522.808 420.021 523.393 420.607C523.979 421.192 524.929 421.192 525.515 420.607L535.061 411.061ZM79 411.5H534V408.5H79V411.5Z" fill="black"/>
</g>
<defs>
<clipPath id="clip0_230_10718">
<rect width="614.4" height="460.8" fill="white"/>
</clipPath>
</defs>
</svg>
