<svg width="615" height="461" viewBox="0 0 615 461" fill="none" xmlns="http://www.w3.org/2000/svg">
<g clip-path="url(#clip0_230_11118)">
<mask id="mask0_230_11118" style="mask-type:luminance" maskUnits="userSpaceOnUse" x="76" y="55" width="477" height="356">
<path d="M552.957 55.2959H76.7969V410.112H552.957V55.2959Z" fill="white"/>
</mask>
<g mask="url(#mask0_230_11118)">
<path d="M231.312 410.111L238.746 410.002L242.463 409.707L248.658 409.127L256.092 408.954L258.57 408.531L261.048 407.809L264.765 406.296L273.438 402.534L278.394 401.06L280.872 399.701L290.784 392.645L293.262 390.364L295.74 387.504L300.696 381.595L303.174 378.786L304.413 377.192L305.652 375.267L306.891 372.841L308.13 369.784L309.369 366.047L311.847 356.867L316.803 337.21L320.52 324.626L325.476 308.257L326.715 303.463L327.954 298.02L330.432 284.863L340.344 225.197L342.822 211.885L345.3 200.807L347.778 191.694L352.734 175.023L355.212 167.547L357.69 161.077L358.929 158.291L360.168 155.943L361.407 154.225L362.646 153.349L363.885 153.452L365.124 154.529L366.363 156.402L368.841 161.444L371.319 167.164L372.558 170.455L373.797 174.298L375.036 178.821L377.514 189.847L379.992 202.81L383.709 224.518L389.904 263.385L394.86 294.206L397.338 308.062L401.055 326.892L404.772 344.462L407.25 354.867L409.728 363.711L412.206 371.161L414.684 377.683L417.162 383.578L419.64 388.857L422.118 393.407L424.596 397.157L427.074 400.098L428.313 401.253L430.791 402.962L434.508 404.677L440.703 407.271L443.181 407.939L446.898 408.626L453.093 409.35L458.048 409.693L475.394 410.106L477.872 410.111" fill="#EFEFEF" fill-opacity="0.4"/>
<path d="M231.312 410.111L238.746 410.002L242.463 409.707L248.658 409.127L256.092 408.954L258.57 408.531L261.048 407.809L264.765 406.296L273.438 402.534L278.394 401.06L280.872 399.701L290.784 392.645L293.262 390.364L295.74 387.504L300.696 381.595L303.174 378.786L304.413 377.192L305.652 375.267L306.891 372.841L308.13 369.784L309.369 366.047L311.847 356.867L316.803 337.21L320.52 324.626L325.476 308.257L326.715 303.463L327.954 298.02L330.432 284.863L340.344 225.197L342.822 211.885L345.3 200.807L347.778 191.694L352.734 175.023L355.212 167.547L357.69 161.077L358.929 158.291L360.168 155.943L361.407 154.225L362.646 153.349L363.885 153.452L365.124 154.529L366.363 156.402L368.841 161.444L371.319 167.164L372.558 170.455L373.797 174.298L375.036 178.821L377.514 189.847L379.992 202.81L383.709 224.518L389.904 263.385L394.86 294.206L397.338 308.062L401.055 326.892L404.772 344.462L407.25 354.867L409.728 363.711L412.206 371.161L414.684 377.683L417.162 383.578L419.64 388.857L422.118 393.407L424.596 397.157L427.074 400.098L428.313 401.253L430.791 402.962L434.508 404.677L440.703 407.271L443.181 407.939L446.898 408.626L453.093 409.35L458.048 409.693L475.394 410.106L477.872 410.111" stroke="#EFEFEF" stroke-linecap="square"/>
</g>
<mask id="mask1_230_11118" style="mask-type:luminance" maskUnits="userSpaceOnUse" x="76" y="55" width="477" height="356">
<path d="M552.957 55.2959H76.7969V410.112H552.957V55.2959Z" fill="white"/>
</mask>
<g mask="url(#mask1_230_11118)">
<path d="M230.102 410.111L239.793 409.964L250.869 409.421L255.023 409.004L259.177 408.259L266.099 406.731L268.868 405.831L271.637 404.485L278.56 400.359L281.329 398.455L282.714 397.238L285.483 394.146L295.174 381.819L297.943 377.23L300.713 371.793L303.482 365.98L304.866 362.769L306.251 359.121L307.635 354.901L310.404 344.796L314.558 327.401L317.327 314.763L320.096 300.551L324.249 277.217L328.403 251.988L340.864 173.445L342.248 166.543L343.633 160.914L345.017 156.363L346.402 152.574L347.786 149.295L349.171 146.473L350.556 144.267L351.94 142.924L353.325 142.599L354.709 143.263L356.094 144.752L357.478 146.888L358.863 149.56L360.247 152.74L361.632 156.454L363.016 160.75L364.401 165.679L365.785 171.264L368.554 184.231L371.323 198.951L374.092 214.924L378.246 241.231L382.4 268.59L385.169 285.033L389.322 306.894L394.86 335.17L397.629 347.456L400.399 357.578L403.168 366.246L407.321 378.435L408.706 382.125L410.09 385.371L411.475 388.048L412.859 390.138L414.244 391.743L417.013 394.218L423.936 399.909L428.089 402.533L430.858 404.016L433.627 405.07L437.781 406.112L441.934 406.933L448.857 408.087L453.011 408.736L457.164 408.96L462.702 409.083L472.394 409.858L484.855 409.94L494.546 409.934L504.238 410.109L505.623 410.111" fill="#EFEFEF" fill-opacity="0.4"/>
<path d="M230.102 410.111L239.793 409.964L250.869 409.421L255.023 409.004L259.177 408.259L266.099 406.731L268.868 405.831L271.637 404.485L278.56 400.359L281.329 398.455L282.714 397.238L285.483 394.146L295.174 381.819L297.943 377.23L300.713 371.793L303.482 365.98L304.866 362.769L306.251 359.121L307.635 354.901L310.404 344.796L314.558 327.401L317.327 314.763L320.096 300.551L324.249 277.217L328.403 251.988L340.864 173.445L342.248 166.543L343.633 160.914L345.017 156.363L346.402 152.574L347.786 149.295L349.171 146.473L350.556 144.267L351.94 142.924L353.325 142.599L354.709 143.263L356.094 144.752L357.478 146.888L358.863 149.56L360.247 152.74L361.632 156.454L363.016 160.75L364.401 165.679L365.785 171.264L368.554 184.231L371.323 198.951L374.092 214.924L378.246 241.231L382.4 268.59L385.169 285.033L389.322 306.894L394.86 335.17L397.629 347.456L400.399 357.578L403.168 366.246L407.321 378.435L408.706 382.125L410.09 385.371L411.475 388.048L412.859 390.138L414.244 391.743L417.013 394.218L423.936 399.909L428.089 402.533L430.858 404.016L433.627 405.07L437.781 406.112L441.934 406.933L448.857 408.087L453.011 408.736L457.164 408.96L462.702 409.083L472.394 409.858L484.855 409.94L494.546 409.934L504.238 410.109L505.623 410.111" stroke="#EFEFEF" stroke-linecap="square"/>
</g>
<mask id="mask2_230_11118" style="mask-type:luminance" maskUnits="userSpaceOnUse" x="76" y="55" width="477" height="356">
<path d="M552.957 55.2959H76.7969V410.112H552.957V55.2959Z" fill="white"/>
</mask>
<g mask="url(#mask2_230_11118)">
<path d="M209.297 410.111L227.741 409.953L237.673 409.772L240.51 409.517L243.348 409.004L246.186 408.236L249.023 407.229L251.861 405.889L254.698 404.087L257.536 401.826L260.374 399.171L263.211 396.132L266.049 392.697L268.886 388.686L270.305 386.321L271.724 383.639L274.562 377.301L277.399 369.919L280.237 361.713L283.074 352.529L285.912 342.033L288.75 329.825L291.587 315.638L301.519 262.19L304.356 249.586L308.613 232.987L311.45 221.588L314.288 209.854L315.707 204.647L317.125 200.352L318.544 197.124L319.963 194.887L321.382 193.397L322.801 192.354L325.638 190.798L327.057 190.241L328.476 190.011L329.895 190.304L331.313 191.277L332.732 192.999L334.151 195.429L335.57 198.433L342.664 215.603L345.501 222.886L354.014 247.114L356.852 255.027L359.689 264.613L363.946 281.292L366.783 292.269L369.621 302.167L372.459 310.954L376.715 323.728L383.809 346.311L386.647 353.8L389.484 359.989L392.322 365.16L402.253 381.718L405.091 385.412L407.928 388.434L413.604 394.37L416.441 397.271L419.279 399.741L422.116 401.764L424.954 403.488L427.792 404.93L430.629 405.98L433.467 406.639L446.236 408.665L451.911 409.281L460.424 409.885L466.099 410.002L480.287 409.953L490.219 410.109L491.638 410.11" fill="#EFEFEF" fill-opacity="0.4"/>
<path d="M209.297 410.111L227.741 409.953L237.673 409.772L240.51 409.517L243.348 409.004L246.186 408.236L249.023 407.229L251.861 405.889L254.698 404.087L257.536 401.826L260.374 399.171L263.211 396.132L266.049 392.697L268.886 388.686L270.305 386.321L271.724 383.639L274.562 377.301L277.399 369.919L280.237 361.713L283.074 352.529L285.912 342.033L288.75 329.825L291.587 315.638L301.519 262.19L304.356 249.586L308.613 232.987L311.45 221.588L314.288 209.854L315.707 204.647L317.125 200.352L318.544 197.124L319.963 194.887L321.382 193.397L322.801 192.354L325.638 190.798L327.057 190.241L328.476 190.011L329.895 190.304L331.313 191.277L332.732 192.999L334.151 195.429L335.57 198.433L342.664 215.603L345.501 222.886L354.014 247.114L356.852 255.027L359.689 264.613L363.946 281.292L366.783 292.269L369.621 302.167L372.459 310.954L376.715 323.728L383.809 346.311L386.647 353.8L389.484 359.989L392.322 365.16L402.253 381.718L405.091 385.412L407.928 388.434L413.604 394.37L416.441 397.271L419.279 399.741L422.116 401.764L424.954 403.488L427.792 404.93L430.629 405.98L433.467 406.639L446.236 408.665L451.911 409.281L460.424 409.885L466.099 410.002L480.287 409.953L490.219 410.109L491.638 410.11" stroke="#EFEFEF" stroke-linecap="square"/>
</g>
<mask id="mask3_230_11118" style="mask-type:luminance" maskUnits="userSpaceOnUse" x="76" y="55" width="477" height="356">
<path d="M552.957 55.2959H76.7969V410.112H552.957V55.2959Z" fill="white"/>
</mask>
<g mask="url(#mask3_230_11118)">
<path d="M234.352 410.11L240.869 409.972L251.731 409.084L254.99 408.466L258.249 407.792L261.507 407.473L263.68 407.258L265.852 406.779L268.025 406.023L271.283 404.553L276.714 401.843L279.973 400.808L282.146 400.042L284.318 398.977L287.577 396.984L293.008 393.219L295.18 391.392L297.353 388.981L299.525 385.789L306.042 374.644L307.129 372.495L308.215 369.986L310.387 363.711L313.646 352.245L320.163 328.421L322.336 319.198L325.595 303.44L328.853 285.997L333.198 260.51L339.715 221.313L344.06 193.51L346.233 181.907L348.405 172.353L353.836 150.589L356.009 143.487L357.095 140.625L358.181 138.193L359.268 136.15L360.354 134.497L361.44 133.283L362.526 132.595L363.612 132.522L364.699 133.125L365.785 134.419L366.871 136.385L367.957 138.983L369.044 142.163L371.216 149.994L374.475 163.819L377.733 178.931L379.906 191.248L382.078 206.105L385.337 231.259L388.596 258.529L392.941 295.483L395.113 310.944L397.285 324.206L400.544 341.97L403.803 358.249L405.975 368.248L408.148 377.025L410.32 384.168L412.493 389.876L414.665 394.593L416.838 398.493L419.01 401.52L421.182 403.672L423.355 405.166L425.527 406.31L427.7 407.206L429.872 407.817L437.476 409.254L441.821 409.805L446.166 410.062L450.511 410.11" fill="#EFEFEF" fill-opacity="0.4"/>
<path d="M234.352 410.11L240.869 409.972L251.731 409.084L254.99 408.466L258.249 407.792L261.507 407.473L263.68 407.258L265.852 406.779L268.025 406.023L271.283 404.553L276.714 401.843L279.973 400.808L282.146 400.042L284.318 398.977L287.577 396.984L293.008 393.219L295.18 391.392L297.353 388.981L299.525 385.789L306.042 374.644L307.129 372.495L308.215 369.986L310.387 363.711L313.646 352.245L320.163 328.421L322.336 319.198L325.595 303.44L328.853 285.997L333.198 260.51L339.715 221.313L344.06 193.51L346.233 181.907L348.405 172.353L353.836 150.589L356.009 143.487L357.095 140.625L358.181 138.193L359.268 136.15L360.354 134.497L361.44 133.283L362.526 132.595L363.612 132.522L364.699 133.125L365.785 134.419L366.871 136.385L367.957 138.983L369.044 142.163L371.216 149.994L374.475 163.819L377.733 178.931L379.906 191.248L382.078 206.105L385.337 231.259L388.596 258.529L392.941 295.483L395.113 310.944L397.285 324.206L400.544 341.97L403.803 358.249L405.975 368.248L408.148 377.025L410.32 384.168L412.493 389.876L414.665 394.593L416.838 398.493L419.01 401.52L421.182 403.672L423.355 405.166L425.527 406.31L427.7 407.206L429.872 407.817L437.476 409.254L441.821 409.805L446.166 410.062L450.511 410.11" stroke="#EFEFEF" stroke-linecap="square"/>
</g>
<mask id="mask4_230_11118" style="mask-type:luminance" maskUnits="userSpaceOnUse" x="76" y="55" width="477" height="356">
<path d="M552.957 55.2959H76.7969V410.112H552.957V55.2959Z" fill="white"/>
</mask>
<g mask="url(#mask4_230_11118)">
<path d="M213.508 410.111L229.478 409.952L234.269 409.53L237.463 409.299L245.448 409.247L248.642 408.556L258.224 406.134L259.821 405.454L261.418 404.519L263.015 403.294L264.612 401.784L267.806 398.105L272.597 391.826L274.194 389.395L275.791 386.623L283.776 370.985L285.373 367.693L286.97 363.954L288.567 359.547L290.164 354.357L293.358 341.971L296.552 328L299.746 312.779L307.731 272.445L315.716 228.135L318.91 207.809L325.298 163.361L326.895 153.61L328.492 144.847L330.089 137.326L331.686 131.355L333.283 127.02L334.88 124.008L336.477 121.836L338.074 120.37L339.671 120.1L341.268 121.831L342.865 126.032L344.462 132.445L346.059 140.324L349.252 158.237L352.446 178.358L362.028 242.165L370.013 301.009L373.207 320.947L374.804 329.702L376.401 337.42L377.998 344.095L384.386 367.212L387.58 378.328L389.177 382.84L390.774 386.542L392.371 389.564L393.968 392.04L395.565 394.049L397.162 395.656L400.356 398.101L405.147 401.352L408.341 403.134L414.729 406.435L416.326 407.044L417.923 407.479L421.117 407.905L425.908 407.911L429.102 407.997L433.893 408.631L438.684 409.2L448.266 409.89L515.34 410.078L524.922 410.066L531.31 410.111" fill="#EFEFEF" fill-opacity="0.4"/>
<path d="M213.508 410.111L229.478 409.952L234.269 409.53L237.463 409.299L245.448 409.247L248.642 408.556L258.224 406.134L259.821 405.454L261.418 404.519L263.015 403.294L264.612 401.784L267.806 398.105L272.597 391.826L274.194 389.395L275.791 386.623L283.776 370.985L285.373 367.693L286.97 363.954L288.567 359.547L290.164 354.357L293.358 341.971L296.552 328L299.746 312.779L307.731 272.445L315.716 228.135L318.91 207.809L325.298 163.361L326.895 153.61L328.492 144.847L330.089 137.326L331.686 131.355L333.283 127.02L334.88 124.008L336.477 121.836L338.074 120.37L339.671 120.1L341.268 121.831L342.865 126.032L344.462 132.445L346.059 140.324L349.252 158.237L352.446 178.358L362.028 242.165L370.013 301.009L373.207 320.947L374.804 329.702L376.401 337.42L377.998 344.095L384.386 367.212L387.58 378.328L389.177 382.84L390.774 386.542L392.371 389.564L393.968 392.04L395.565 394.049L397.162 395.656L400.356 398.101L405.147 401.352L408.341 403.134L414.729 406.435L416.326 407.044L417.923 407.479L421.117 407.905L425.908 407.911L429.102 407.997L433.893 408.631L438.684 409.2L448.266 409.89L515.34 410.078L524.922 410.066L531.31 410.111" stroke="#EFEFEF" stroke-linecap="square"/>
</g>
<mask id="mask5_230_11118" style="mask-type:luminance" maskUnits="userSpaceOnUse" x="76" y="55" width="477" height="356">
<path d="M552.957 55.2959H76.7969V410.112H552.957V55.2959Z" fill="white"/>
</mask>
<g mask="url(#mask5_230_11118)">
<path d="M220.367 410.11L228.389 409.96L232.4 409.597L236.411 408.889L251.117 405.283L253.791 404.185L256.465 402.658L257.802 401.597L259.139 400.262L260.476 398.63L263.15 394.61L268.498 385.967L271.172 382.387L275.183 377.355L277.857 373.392L280.531 368.737L283.205 363.516L285.879 357.715L288.553 351.293L292.563 340.732L296.574 329.075L299.248 320.537L301.922 311.123L308.607 285.709L311.281 277.255L313.955 269.05L315.292 264.227L316.629 258.514L317.966 251.792L320.64 235.932L323.314 219.476L324.651 212.104L325.988 205.676L327.325 200.273L328.662 195.841L329.999 192.239L331.335 189.295L332.672 186.862L334.009 184.852L335.346 183.247L336.683 182.074L338.02 181.378L339.357 181.187L340.694 181.488L342.031 182.226L343.368 183.304L346.042 186.015L348.716 189.028L350.053 190.764L351.39 192.857L352.727 195.475L354.064 198.754L355.401 202.779L356.738 207.579L358.075 213.127L360.749 225.991L366.097 253.25L371.445 278.268L374.118 289.643L376.792 299.699L380.803 314.328L384.814 329.516L387.488 338.583L391.499 350.472L399.521 372.964L402.195 379.08L404.869 383.973L407.543 388.006L410.217 391.437L412.89 394.263L416.901 397.762L422.249 402.07L424.923 403.795L427.597 405.082L430.271 406.021L434.282 407.017L443.641 408.786L447.652 409.307L453 409.644L463.695 410.081L486.424 410.111" fill="#EFEFEF" fill-opacity="0.4"/>
<path d="M220.367 410.11L228.389 409.96L232.4 409.597L236.411 408.889L251.117 405.283L253.791 404.185L256.465 402.658L257.802 401.597L259.139 400.262L260.476 398.63L263.15 394.61L268.498 385.967L271.172 382.387L275.183 377.355L277.857 373.392L280.531 368.737L283.205 363.516L285.879 357.715L288.553 351.293L292.563 340.732L296.574 329.075L299.248 320.537L301.922 311.123L308.607 285.709L311.281 277.255L313.955 269.05L315.292 264.227L316.629 258.514L317.966 251.792L320.64 235.932L323.314 219.476L324.651 212.104L325.988 205.676L327.325 200.273L328.662 195.841L329.999 192.239L331.335 189.295L332.672 186.862L334.009 184.852L335.346 183.247L336.683 182.074L338.02 181.378L339.357 181.187L340.694 181.488L342.031 182.226L343.368 183.304L346.042 186.015L348.716 189.028L350.053 190.764L351.39 192.857L352.727 195.475L354.064 198.754L355.401 202.779L356.738 207.579L358.075 213.127L360.749 225.991L366.097 253.25L371.445 278.268L374.118 289.643L376.792 299.699L380.803 314.328L384.814 329.516L387.488 338.583L391.499 350.472L399.521 372.964L402.195 379.08L404.869 383.973L407.543 388.006L410.217 391.437L412.89 394.263L416.901 397.762L422.249 402.07L424.923 403.795L427.597 405.082L430.271 406.021L434.282 407.017L443.641 408.786L447.652 409.307L453 409.644L463.695 410.081L486.424 410.111" stroke="#EFEFEF" stroke-linecap="square"/>
</g>
<mask id="mask6_230_11118" style="mask-type:luminance" maskUnits="userSpaceOnUse" x="76" y="55" width="477" height="356">
<path d="M552.957 55.2959H76.7969V410.112H552.957V55.2959Z" fill="white"/>
</mask>
<g mask="url(#mask6_230_11118)">
<path d="M199.18 410.109L206.165 409.952L213.15 409.491L215.478 409.054L217.807 408.256L220.135 407.105L222.464 405.682L224.792 404.014L227.12 401.924L228.285 400.614L229.449 399.076L230.613 397.283L231.777 395.206L232.941 392.807L234.106 390.037L235.27 386.847L237.598 379.09L239.927 369.557L243.419 353.107L246.912 335.518L249.24 322.323L252.733 300.004L256.225 275.654L260.882 240.379L264.375 212.202L267.867 183.299L269.032 174.89L270.196 167.711L271.36 161.991L272.524 157.787L273.688 154.965L274.853 153.207L277.181 151.161L278.345 150.108L280.674 147.239L281.838 145.726L283.002 144.586L284.166 144.17L285.33 144.736L286.495 146.371L287.659 148.979L289.987 156.093L293.48 167.546L300.465 189.204L302.793 196.843L303.958 201.243L305.122 206.492L306.286 212.798L308.614 227.977L312.107 251.037L315.6 270.949L319.092 289.313L321.421 300.031L327.242 324.722L329.57 333.425L338.884 364.902L342.376 375.541L344.705 381.528L347.033 386.148L349.361 389.641L351.69 392.547L354.018 395.029L356.347 397.004L362.168 401.053L364.496 402.474L366.824 403.512L372.645 405.412L378.466 407.212L385.452 408.872L388.944 409.447L392.437 409.712L397.093 409.777L402.914 409.805L411.064 410.011L430.855 410.111" fill="#EFEFEF" fill-opacity="0.4"/>
<path d="M199.18 410.109L206.165 409.952L213.15 409.491L215.478 409.054L217.807 408.256L220.135 407.105L222.464 405.682L224.792 404.014L227.12 401.924L228.285 400.614L229.449 399.076L230.613 397.283L231.777 395.206L232.941 392.807L234.106 390.037L235.27 386.847L237.598 379.09L239.927 369.557L243.419 353.107L246.912 335.518L249.24 322.323L252.733 300.004L256.225 275.654L260.882 240.379L264.375 212.202L267.867 183.299L269.032 174.89L270.196 167.711L271.36 161.991L272.524 157.787L273.688 154.965L274.853 153.207L277.181 151.161L278.345 150.108L280.674 147.239L281.838 145.726L283.002 144.586L284.166 144.17L285.33 144.736L286.495 146.371L287.659 148.979L289.987 156.093L293.48 167.546L300.465 189.204L302.793 196.843L303.958 201.243L305.122 206.492L306.286 212.798L308.614 227.977L312.107 251.037L315.6 270.949L319.092 289.313L321.421 300.031L327.242 324.722L329.57 333.425L338.884 364.902L342.376 375.541L344.705 381.528L347.033 386.148L349.361 389.641L351.69 392.547L354.018 395.029L356.347 397.004L362.168 401.053L364.496 402.474L366.824 403.512L372.645 405.412L378.466 407.212L385.452 408.872L388.944 409.447L392.437 409.712L397.093 409.777L402.914 409.805L411.064 410.011L430.855 410.111" stroke="#EFEFEF" stroke-linecap="square"/>
</g>
<mask id="mask7_230_11118" style="mask-type:luminance" maskUnits="userSpaceOnUse" x="76" y="55" width="477" height="356">
<path d="M552.957 55.2959H76.7969V410.112H552.957V55.2959Z" fill="white"/>
</mask>
<g mask="url(#mask7_230_11118)">
<path d="M220.93 410.111L231.001 409.96L251.145 409.083L254.922 408.482L262.476 406.772L264.994 405.898L273.806 402.308L276.324 400.565L278.842 398.507L280.101 397.662L281.36 397.061L283.878 396.461L286.396 395.905L287.655 395.409L290.173 393.908L292.691 391.776L295.209 388.958L297.727 385.569L300.245 381.748L301.504 379.558L302.763 377.07L305.28 371.091L309.057 360.662L314.093 346.143L317.87 334.253L320.388 325.54L324.165 311.07L329.201 290.596L331.719 278.793L334.237 265.159L339.273 237.212L343.049 218.728L346.826 200.256L349.344 187.647L350.603 181.93L351.862 176.967L353.121 172.82L355.639 166.246L360.675 154.556L361.934 152.205L363.193 150.519L364.452 149.665L365.711 149.714L366.97 150.644L368.229 152.393L369.488 154.906L370.747 158.163L372.006 162.147L374.524 171.919L379.559 194.027L382.077 206.811L384.595 222.686L392.149 275.112L397.185 307.38L399.703 322.212L402.221 335.604L404.739 347.643L407.257 358.326L409.775 367.616L412.293 375.577L414.811 382.356L417.328 388.145L419.846 393.067L422.364 397.157L424.882 400.432L427.4 402.908L429.918 404.647L432.436 405.854L436.213 407.27L438.731 408.055L441.249 408.608L445.026 409.097L451.321 409.567L462.651 410.02L471.464 410.111" fill="#EFEFEF" fill-opacity="0.4"/>
<path d="M220.93 410.111L231.001 409.96L251.145 409.083L254.922 408.482L262.476 406.772L264.994 405.898L273.806 402.308L276.324 400.565L278.842 398.507L280.101 397.662L281.36 397.061L283.878 396.461L286.396 395.905L287.655 395.409L290.173 393.908L292.691 391.776L295.209 388.958L297.727 385.569L300.245 381.748L301.504 379.558L302.763 377.07L305.28 371.091L309.057 360.662L314.093 346.143L317.87 334.253L320.388 325.54L324.165 311.07L329.201 290.596L331.719 278.793L334.237 265.159L339.273 237.212L343.049 218.728L346.826 200.256L349.344 187.647L350.603 181.93L351.862 176.967L353.121 172.82L355.639 166.246L360.675 154.556L361.934 152.205L363.193 150.519L364.452 149.665L365.711 149.714L366.97 150.644L368.229 152.393L369.488 154.906L370.747 158.163L372.006 162.147L374.524 171.919L379.559 194.027L382.077 206.811L384.595 222.686L392.149 275.112L397.185 307.38L399.703 322.212L402.221 335.604L404.739 347.643L407.257 358.326L409.775 367.616L412.293 375.577L414.811 382.356L417.328 388.145L419.846 393.067L422.364 397.157L424.882 400.432L427.4 402.908L429.918 404.647L432.436 405.854L436.213 407.27L438.731 408.055L441.249 408.608L445.026 409.097L451.321 409.567L462.651 410.02L471.464 410.111" stroke="#EFEFEF" stroke-linecap="square"/>
</g>
<mask id="mask8_230_11118" style="mask-type:luminance" maskUnits="userSpaceOnUse" x="76" y="55" width="477" height="356">
<path d="M552.957 55.2959H76.7969V410.112H552.957V55.2959Z" fill="white"/>
</mask>
<g mask="url(#mask8_230_11118)">
<path d="M216.516 410.111L226.458 409.976L232.139 409.581L237.82 408.885L243.501 407.897L246.342 407.137L249.182 405.968L252.023 404.255L254.864 402.019L257.704 399.392L260.545 396.416L263.385 392.898L266.226 388.574L269.066 383.429L271.907 377.672L274.748 371.4L277.588 364.557L281.849 353.241L286.11 340.731L293.211 318.255L304.574 281.855L307.414 274.321L313.096 260.69L317.356 251.16L324.458 236.671L327.298 231.692L328.719 229.694L330.139 228.073L331.559 226.809L332.98 225.848L335.82 224.556L338.661 223.73L340.081 223.475L341.501 223.401L342.922 223.608L344.342 224.194L345.762 225.229L347.183 226.738L348.603 228.691L351.443 233.602L357.125 244.901L361.385 253.705L365.646 263.237L368.487 270.288L371.327 278.095L374.168 286.684L378.429 300.687L382.69 314.462L385.53 322.581L389.791 333.394L403.994 367.894L406.835 373.503L409.675 378.238L412.516 382.282L415.357 385.827L418.197 388.979L421.038 391.789L425.299 395.47L428.139 397.597L430.98 399.455L433.82 401.048L438.081 402.977L448.023 406.946L450.864 407.735L456.545 408.876L460.806 409.479L465.067 409.7L476.429 409.732L483.531 409.836L496.313 410.105L499.154 410.111" fill="#EFEFEF" fill-opacity="0.4"/>
<path d="M216.516 410.111L226.458 409.976L232.139 409.581L237.82 408.885L243.501 407.897L246.342 407.137L249.182 405.968L252.023 404.255L254.864 402.019L257.704 399.392L260.545 396.416L263.385 392.898L266.226 388.574L269.066 383.429L271.907 377.672L274.748 371.4L277.588 364.557L281.849 353.241L286.11 340.731L293.211 318.255L304.574 281.855L307.414 274.321L313.096 260.69L317.356 251.16L324.458 236.671L327.298 231.692L328.719 229.694L330.139 228.073L331.559 226.809L332.98 225.848L335.82 224.556L338.661 223.73L340.081 223.475L341.501 223.401L342.922 223.608L344.342 224.194L345.762 225.229L347.183 226.738L348.603 228.691L351.443 233.602L357.125 244.901L361.385 253.705L365.646 263.237L368.487 270.288L371.327 278.095L374.168 286.684L378.429 300.687L382.69 314.462L385.53 322.581L389.791 333.394L403.994 367.894L406.835 373.503L409.675 378.238L412.516 382.282L415.357 385.827L418.197 388.979L421.038 391.789L425.299 395.47L428.139 397.597L430.98 399.455L433.82 401.048L438.081 402.977L448.023 406.946L450.864 407.735L456.545 408.876L460.806 409.479L465.067 409.7L476.429 409.732L483.531 409.836L496.313 410.105L499.154 410.111" stroke="#EFEFEF" stroke-linecap="square"/>
</g>
<mask id="mask9_230_11118" style="mask-type:luminance" maskUnits="userSpaceOnUse" x="76" y="55" width="477" height="356">
<path d="M552.957 55.2959H76.7969V410.112H552.957V55.2959Z" fill="white"/>
</mask>
<g mask="url(#mask9_230_11118)">
<path d="M197.156 410.111L208.773 409.974L221.841 409.428L224.745 409.002L229.101 407.955L233.457 406.576L236.361 405.432L239.265 403.975L242.17 402.09L245.074 399.606L246.526 398.066L249.43 394.292L252.334 389.666L255.238 384.404L258.142 378.606L261.046 372.268L265.402 361.913L269.758 350.746L275.567 334.899L288.635 298.566L291.539 289.093L298.799 264.086L301.703 255.848L304.607 249.133L307.511 243.546L310.416 238.697L313.32 234.455L316.224 230.792L319.128 227.717L320.58 226.457L322.032 225.439L323.484 224.699L324.936 224.257L326.388 224.111L327.84 224.246L329.292 224.637L330.744 225.259L333.648 227.061L336.552 229.358L339.456 232.197L340.908 234.024L342.36 236.254L343.813 238.916L346.717 245.227L352.525 258.285L355.429 264.929L358.333 272.673L361.237 281.772L368.497 306.027L371.401 314.548L377.209 330.345L381.566 341.486L387.374 355.356L391.73 365.129L394.634 371.094L397.538 376.375L400.442 380.941L403.346 384.929L406.25 388.489L409.154 391.658L412.059 394.409L416.415 397.985L422.223 402.463L425.127 404.265L428.031 405.593L430.935 406.558L435.291 407.607L441.099 408.613L448.36 409.553L454.168 409.929L462.88 410.045L478.852 410.072L486.113 410.111" fill="#EFEFEF" fill-opacity="0.4"/>
<path d="M197.156 410.111L208.773 409.974L221.841 409.428L224.745 409.002L229.101 407.955L233.457 406.576L236.361 405.432L239.265 403.975L242.17 402.09L245.074 399.606L246.526 398.066L249.43 394.292L252.334 389.666L255.238 384.404L258.142 378.606L261.046 372.268L265.402 361.913L269.758 350.746L275.567 334.899L288.635 298.566L291.539 289.093L298.799 264.086L301.703 255.848L304.607 249.133L307.511 243.546L310.416 238.697L313.32 234.455L316.224 230.792L319.128 227.717L320.58 226.457L322.032 225.439L323.484 224.699L324.936 224.257L326.388 224.111L327.84 224.246L329.292 224.637L330.744 225.259L333.648 227.061L336.552 229.358L339.456 232.197L340.908 234.024L342.36 236.254L343.813 238.916L346.717 245.227L352.525 258.285L355.429 264.929L358.333 272.673L361.237 281.772L368.497 306.027L371.401 314.548L377.209 330.345L381.566 341.486L387.374 355.356L391.73 365.129L394.634 371.094L397.538 376.375L400.442 380.941L403.346 384.929L406.25 388.489L409.154 391.658L412.059 394.409L416.415 397.985L422.223 402.463L425.127 404.265L428.031 405.593L430.935 406.558L435.291 407.607L441.099 408.613L448.36 409.553L454.168 409.929L462.88 410.045L478.852 410.072L486.113 410.111" stroke="#EFEFEF" stroke-linecap="square"/>
</g>
<mask id="mask10_230_11118" style="mask-type:luminance" maskUnits="userSpaceOnUse" x="76" y="55" width="477" height="356">
<path d="M552.957 55.2959H76.7969V410.112H552.957V55.2959Z" fill="white"/>
</mask>
<g mask="url(#mask10_230_11118)">
<path d="M222.188 410.111L238.371 409.946L243.428 409.453L246.463 408.93L250.509 408.105L253.543 407.926L256.577 407.637L259.612 406.947L262.646 406.029L264.669 405.113L266.692 403.699L270.738 399.996L272.761 397.905L274.784 395.197L277.818 390.741L279.841 388.377L281.864 386.161L283.887 383.466L285.91 380.158L287.933 375.932L289.956 370.339L292.99 361.207L296.025 352.821L298.048 345.799L300.071 337.171L302.094 327.258L305.128 310.402L309.174 286.199L311.197 272.33L314.231 248.572L318.277 214.694L321.311 186.477L325.357 147.654L327.38 132.109L332.438 98.7556L334.461 84.4798L335.472 78.7946L336.483 74.7979L337.495 72.6623L338.506 72.1924L339.518 72.9308L340.529 74.3675L342.552 78.1991L343.564 80.6745L344.575 83.8374L345.587 87.877L346.598 92.8081L348.621 104.813L350.644 119.449L352.667 137.715L361.77 231.841L367.839 302.378L369.862 320.128L371.885 334.542L374.919 353.558L377.954 371L379.977 380.882L382 388.719L384.022 394.782L385.034 397.247L386.045 399.321L387.057 400.986L388.068 402.266L390.091 404L397.172 408.581L399.194 409.365L401.217 409.812L404.252 410.021L423.47 410.111" fill="#EFEFEF" fill-opacity="0.4"/>
<path d="M222.188 410.111L238.371 409.946L243.428 409.453L246.463 408.93L250.509 408.105L253.543 407.926L256.577 407.637L259.612 406.947L262.646 406.029L264.669 405.113L266.692 403.699L270.738 399.996L272.761 397.905L274.784 395.197L277.818 390.741L279.841 388.377L281.864 386.161L283.887 383.466L285.91 380.158L287.933 375.932L289.956 370.339L292.99 361.207L296.025 352.821L298.048 345.799L300.071 337.171L302.094 327.258L305.128 310.402L309.174 286.199L311.197 272.33L314.231 248.572L318.277 214.694L321.311 186.477L325.357 147.654L327.38 132.109L332.438 98.7556L334.461 84.4798L335.472 78.7946L336.483 74.7979L337.495 72.6623L338.506 72.1924L339.518 72.9308L340.529 74.3675L342.552 78.1991L343.564 80.6745L344.575 83.8374L345.587 87.877L346.598 92.8081L348.621 104.813L350.644 119.449L352.667 137.715L361.77 231.841L367.839 302.378L369.862 320.128L371.885 334.542L374.919 353.558L377.954 371L379.977 380.882L382 388.719L384.022 394.782L385.034 397.247L386.045 399.321L387.057 400.986L388.068 402.266L390.091 404L397.172 408.581L399.194 409.365L401.217 409.812L404.252 410.021L423.47 410.111" stroke="#EFEFEF" stroke-linecap="square"/>
</g>
<mask id="mask11_230_11118" style="mask-type:luminance" maskUnits="userSpaceOnUse" x="76" y="55" width="477" height="356">
<path d="M552.957 55.2959H76.7969V410.112H552.957V55.2959Z" fill="white"/>
</mask>
<g mask="url(#mask11_230_11118)">
<path d="M218.68 410.111L230.024 409.952L242.628 409.415L247.67 408.788L253.972 407.589L256.493 406.968L259.014 406.091L262.795 404.331L266.577 402.305L267.837 401.433L269.098 400.366L270.358 399.072L272.879 395.901L277.921 389.147L281.702 384.397L284.223 380.681L286.744 376.177L289.265 370.876L291.786 364.901L294.307 358.333L296.828 351.063L299.348 342.823L301.869 333.387L304.39 322.79L309.432 300.725L311.953 291.612L314.474 284.298L316.995 277.224L319.516 268.737L325.818 244.711L328.339 236.683L332.12 225.183L334.641 216.491L338.422 202.966L339.683 199.057L340.943 195.67L342.204 192.838L343.464 190.558L344.725 188.836L345.985 187.719L347.246 187.281L348.506 187.573L349.766 188.561L351.027 190.087L356.069 197.142L357.329 198.851L358.59 200.879L359.85 203.441L361.111 206.617L363.631 214.371L367.413 226.492L371.194 238.092L373.715 246.825L376.236 257.079L380.017 274.829L382.538 286.43L385.059 296.7L393.882 330.357L397.664 345.065L400.184 353.882L402.705 361.476L406.487 371.265L410.268 380.465L412.789 385.936L415.31 390.351L417.831 393.659L420.352 396.101L422.873 397.966L434.217 405.175L436.737 406.396L439.258 407.323L441.779 407.997L445.561 408.611L450.602 408.99L455.644 409.332L463.207 410.02L469.509 410.11" fill="#EFEFEF" fill-opacity="0.4"/>
<path d="M218.68 410.111L230.024 409.952L242.628 409.415L247.67 408.788L253.972 407.589L256.493 406.968L259.014 406.091L262.795 404.331L266.577 402.305L267.837 401.433L269.098 400.366L270.358 399.072L272.879 395.901L277.921 389.147L281.702 384.397L284.223 380.681L286.744 376.177L289.265 370.876L291.786 364.901L294.307 358.333L296.828 351.063L299.348 342.823L301.869 333.387L304.39 322.79L309.432 300.725L311.953 291.612L314.474 284.298L316.995 277.224L319.516 268.737L325.818 244.711L328.339 236.683L332.12 225.183L334.641 216.491L338.422 202.966L339.683 199.057L340.943 195.67L342.204 192.838L343.464 190.558L344.725 188.836L345.985 187.719L347.246 187.281L348.506 187.573L349.766 188.561L351.027 190.087L356.069 197.142L357.329 198.851L358.59 200.879L359.85 203.441L361.111 206.617L363.631 214.371L367.413 226.492L371.194 238.092L373.715 246.825L376.236 257.079L380.017 274.829L382.538 286.43L385.059 296.7L393.882 330.357L397.664 345.065L400.184 353.882L402.705 361.476L406.487 371.265L410.268 380.465L412.789 385.936L415.31 390.351L417.831 393.659L420.352 396.101L422.873 397.966L434.217 405.175L436.737 406.396L439.258 407.323L441.779 407.997L445.561 408.611L450.602 408.99L455.644 409.332L463.207 410.02L469.509 410.11" stroke="#EFEFEF" stroke-linecap="square"/>
</g>
<mask id="mask12_230_11118" style="mask-type:luminance" maskUnits="userSpaceOnUse" x="76" y="55" width="477" height="356">
<path d="M552.957 55.2959H76.7969V410.112H552.957V55.2959Z" fill="white"/>
</mask>
<g mask="url(#mask12_230_11118)">
<path d="M211.117 410.11L221.953 409.978L230.08 409.552L232.79 409.195L235.499 408.573L238.208 407.634L242.271 405.748L246.335 403.452L249.044 401.576L251.753 399.285L254.462 396.568L257.171 393.458L259.88 389.842L262.589 385.504L265.298 380.409L270.716 369.141L277.489 355.27L282.907 344.461L285.616 338.529L289.679 328.657L293.743 318.716L296.452 312.77L303.225 298.782L305.934 291.568L308.643 283.053L311.352 274.417L312.706 270.551L314.061 267.157L315.415 264.248L318.124 259.509L323.542 250.917L327.606 243.589L331.67 236.015L334.379 231.788L335.733 230.135L337.088 228.809L338.442 227.777L339.797 226.986L341.151 226.393L342.506 225.976L343.86 225.755L345.215 225.789L346.569 226.171L347.924 227.005L349.278 228.377L350.633 230.319L351.987 232.786L354.696 238.723L357.406 244.724L360.115 249.795L366.887 260.782L368.242 263.439L369.596 266.426L372.305 273.504L375.014 281.838L380.432 299.342L383.141 307.328L389.914 326.291L392.623 334.981L396.687 348.507L399.396 356.513L402.105 363.145L404.814 368.596L408.877 375.643L414.295 385.062L418.359 392.08L421.068 396.019L423.777 399.067L426.486 401.271L429.195 402.844L431.904 404.035L437.322 406.008L442.74 407.8L446.804 408.848L449.513 409.3L453.577 409.646L461.704 409.9L480.667 410.111" fill="#EFEFEF" fill-opacity="0.4"/>
<path d="M211.117 410.11L221.953 409.978L230.08 409.552L232.79 409.195L235.499 408.573L238.208 407.634L242.271 405.748L246.335 403.452L249.044 401.576L251.753 399.285L254.462 396.568L257.171 393.458L259.88 389.842L262.589 385.504L265.298 380.409L270.716 369.141L277.489 355.27L282.907 344.461L285.616 338.529L289.679 328.657L293.743 318.716L296.452 312.77L303.225 298.782L305.934 291.568L308.643 283.053L311.352 274.417L312.706 270.551L314.061 267.157L315.415 264.248L318.124 259.509L323.542 250.917L327.606 243.589L331.67 236.015L334.379 231.788L335.733 230.135L337.088 228.809L338.442 227.777L339.797 226.986L341.151 226.393L342.506 225.976L343.86 225.755L345.215 225.789L346.569 226.171L347.924 227.005L349.278 228.377L350.633 230.319L351.987 232.786L354.696 238.723L357.406 244.724L360.115 249.795L366.887 260.782L368.242 263.439L369.596 266.426L372.305 273.504L375.014 281.838L380.432 299.342L383.141 307.328L389.914 326.291L392.623 334.981L396.687 348.507L399.396 356.513L402.105 363.145L404.814 368.596L408.877 375.643L414.295 385.062L418.359 392.08L421.068 396.019L423.777 399.067L426.486 401.271L429.195 402.844L431.904 404.035L437.322 406.008L442.74 407.8L446.804 408.848L449.513 409.3L453.577 409.646L461.704 409.9L480.667 410.111" stroke="#EFEFEF" stroke-linecap="square"/>
</g>
<mask id="mask13_230_11118" style="mask-type:luminance" maskUnits="userSpaceOnUse" x="76" y="55" width="477" height="356">
<path d="M552.957 55.2959H76.7969V410.112H552.957V55.2959Z" fill="white"/>
</mask>
<g mask="url(#mask13_230_11118)">
<path d="M203.008 410.11L212.52 409.984L226.108 409.479L230.184 408.962L232.902 408.322L235.62 407.348L238.337 405.96L241.055 404.087L243.773 401.697L246.49 398.817L249.208 395.423L250.567 393.452L251.926 391.21L253.284 388.608L254.643 385.568L256.002 382.034L258.72 373.554L261.437 363.788L265.514 347.888L268.231 336.096L277.743 291.839L283.179 265.31L285.896 253.844L295.408 217.785L298.126 208.721L300.843 200.854L302.202 197.474L303.561 194.543L304.92 192.11L306.279 190.205L307.637 188.837L308.996 188.01L310.355 187.721L311.714 187.966L313.073 188.737L314.432 190.009L315.79 191.742L317.149 193.867L319.867 198.982L322.585 204.843L325.302 211.365L328.02 218.719L332.096 231.002L337.532 247.141L340.249 255.344L342.967 264.484L348.402 284.671L353.838 304.669L356.555 313.598L359.273 321.291L363.349 331.507L367.426 341.565L370.143 349.165L375.579 365.267L378.296 371.807L381.014 376.933L383.732 380.933L386.449 384.15L398.679 396.904L401.396 399.172L404.114 401.028L406.832 402.545L410.908 404.366L414.985 405.895L417.702 406.662L421.779 407.424L435.367 409.559L442.161 409.883L450.314 409.99L463.903 410.021L473.414 410.111" fill="#EFEFEF" fill-opacity="0.4"/>
<path d="M203.008 410.11L212.52 409.984L226.108 409.479L230.184 408.962L232.902 408.322L235.62 407.348L238.337 405.96L241.055 404.087L243.773 401.697L246.49 398.817L249.208 395.423L250.567 393.452L251.926 391.21L253.284 388.608L254.643 385.568L256.002 382.034L258.72 373.554L261.437 363.788L265.514 347.888L268.231 336.096L277.743 291.839L283.179 265.31L285.896 253.844L295.408 217.785L298.126 208.721L300.843 200.854L302.202 197.474L303.561 194.543L304.92 192.11L306.279 190.205L307.637 188.837L308.996 188.01L310.355 187.721L311.714 187.966L313.073 188.737L314.432 190.009L315.79 191.742L317.149 193.867L319.867 198.982L322.585 204.843L325.302 211.365L328.02 218.719L332.096 231.002L337.532 247.141L340.249 255.344L342.967 264.484L348.402 284.671L353.838 304.669L356.555 313.598L359.273 321.291L363.349 331.507L367.426 341.565L370.143 349.165L375.579 365.267L378.296 371.807L381.014 376.933L383.732 380.933L386.449 384.15L398.679 396.904L401.396 399.172L404.114 401.028L406.832 402.545L410.908 404.366L414.985 405.895L417.702 406.662L421.779 407.424L435.367 409.559L442.161 409.883L450.314 409.99L463.903 410.021L473.414 410.111" stroke="#EFEFEF" stroke-linecap="square"/>
</g>
<mask id="mask14_230_11118" style="mask-type:luminance" maskUnits="userSpaceOnUse" x="76" y="55" width="477" height="356">
<path d="M552.957 55.2959H76.7969V410.112H552.957V55.2959Z" fill="white"/>
</mask>
<g mask="url(#mask14_230_11118)">
<path d="M98.4375 410.111L165.076 410.112L194.331 409.998L205.709 409.577L208.959 409.262L215.46 408.215L217.086 407.724L218.711 406.985L220.336 405.969L221.962 404.689L223.587 403.167L225.212 401.408L226.838 399.408L230.088 394.688L231.714 391.944L233.339 388.827L234.964 385.112L236.59 380.525L238.215 374.915L241.466 361.267L244.716 345.742L246.342 336.774L247.967 326.577L251.218 303.486L252.843 290.961L254.468 277.139L257.719 244.507L259.344 227.762L260.969 212.618L264.22 186.697L267.471 163.842L269.096 154.295L275.597 120.481L277.223 113.586L278.848 108.675L280.473 106.147L282.099 106.099L283.724 108.145L285.349 111.562L286.975 115.833L288.6 120.946L290.225 127.132L291.851 134.439L295.101 151.364L298.352 170.477L301.602 192.33L304.853 218.306L308.104 244.795L311.354 266.538L316.23 298.022L319.481 318.878L321.106 327.607L322.732 334.764L327.608 353.446L330.858 366.5L332.483 372.374L334.109 377.481L335.734 381.619L337.359 384.707L338.985 386.926L343.861 392.292L347.111 396.072L350.362 399.263L351.987 400.489L353.613 401.359L355.238 401.89L358.489 402.629L360.114 403.267L363.365 405.311L364.99 406.348L366.615 407.124L368.24 407.594L377.992 409.059L382.868 409.514L387.744 409.738L392.62 409.89L397.496 410.089L407.248 410.077L415.375 410.047L421.876 410.111" fill="#7EB0D5" fill-opacity="0.4"/>
<path d="M98.4375 410.111L165.076 410.112L194.331 409.998L205.709 409.577L208.959 409.262L215.46 408.215L217.086 407.724L218.711 406.985L220.336 405.969L221.962 404.689L223.587 403.167L225.212 401.408L226.838 399.408L230.088 394.688L231.714 391.944L233.339 388.827L234.964 385.112L236.59 380.525L238.215 374.915L241.466 361.267L244.716 345.742L246.342 336.774L247.967 326.577L251.218 303.486L252.843 290.961L254.468 277.139L257.719 244.507L259.344 227.762L260.969 212.618L264.22 186.697L267.471 163.842L269.096 154.295L275.597 120.481L277.223 113.586L278.848 108.675L280.473 106.147L282.099 106.099L283.724 108.145L285.349 111.562L286.975 115.833L288.6 120.946L290.225 127.132L291.851 134.439L295.101 151.364L298.352 170.477L301.602 192.33L304.853 218.306L308.104 244.795L311.354 266.538L316.23 298.022L319.481 318.878L321.106 327.607L322.732 334.764L327.608 353.446L330.858 366.5L332.483 372.374L334.109 377.481L335.734 381.619L337.359 384.707L338.985 386.926L343.861 392.292L347.111 396.072L350.362 399.263L351.987 400.489L353.613 401.359L355.238 401.89L358.489 402.629L360.114 403.267L363.365 405.311L364.99 406.348L366.615 407.124L368.24 407.594L377.992 409.059L382.868 409.514L387.744 409.738L392.62 409.89L397.496 410.089L407.248 410.077L415.375 410.047L421.876 410.111" stroke="#7EB0D5" stroke-linecap="square"/>
</g>
<path d="M535.061 411.061C535.646 410.475 535.646 409.525 535.061 408.939L525.515 399.393C524.929 398.808 523.979 398.808 523.393 399.393C522.808 399.979 522.808 400.929 523.393 401.515L531.879 410L523.393 418.485C522.808 419.071 522.808 420.021 523.393 420.607C523.979 421.192 524.929 421.192 525.515 420.607L535.061 411.061ZM79 411.5H534V408.5H79V411.5Z" fill="black"/>
</g>
<defs>
<clipPath id="clip0_230_11118">
<rect width="614.4" height="460.8" fill="white"/>
</clipPath>
</defs>
</svg>
