<svg width="615" height="461" viewBox="0 0 615 461" fill="none" xmlns="http://www.w3.org/2000/svg">
<g clip-path="url(#clip0_230_11198)">
<mask id="mask0_230_11198" style="mask-type:luminance" maskUnits="userSpaceOnUse" x="76" y="55" width="477" height="356">
<path d="M552.957 55.2959H76.7969V410.112H552.957V55.2959Z" fill="white"/>
</mask>
<g mask="url(#mask0_230_11198)">
<path d="M146.133 410.11L158.883 409.951L166.851 409.856L174.82 409.821L179.601 409.538L184.382 408.959L189.163 408.104L193.944 406.923L197.132 405.831L200.319 404.367L205.1 401.598L209.881 398.803L221.037 392.767L227.412 388.917L230.6 387.407L235.381 385.246L238.568 383.427L241.756 381.081L243.349 379.644L246.537 376.173L249.724 371.985L252.912 367.155L256.099 361.645L259.286 355.503L262.474 348.82L265.661 341.561L268.849 333.676L273.63 320.787L276.817 311.434L281.598 296.329L289.567 270.092L294.348 254.036L297.535 244.145L305.504 221.147L308.691 212.407L311.879 204.785L313.473 201.538L315.066 198.691L316.66 196.247L318.254 194.217L319.847 192.625L321.441 191.491L323.035 190.814L324.629 190.553L326.222 190.635L327.816 190.982L329.41 191.552L331.003 192.368L332.597 193.523L334.191 195.147L335.785 197.366L337.378 200.249L338.972 203.778L342.159 212.258L348.534 230.055L351.722 238.742L354.909 248.349L358.097 259.232L361.284 271.263L364.471 284.325L372.44 318.416L375.627 330.649L378.815 341.59L385.19 361.729L388.377 371.276L391.565 379.501L393.158 382.944L394.752 385.962L397.939 391.019L401.127 395.201L404.314 398.654L407.502 401.35L410.689 403.459L413.876 405.232L417.064 406.734L420.251 407.892L423.439 408.691L426.626 409.214L431.407 409.68L437.782 409.963L448.938 410.034L463.282 410.111" fill="#EFEFEF" fill-opacity="0.4"/>
<path d="M146.133 410.11L158.883 409.951L166.851 409.856L174.82 409.821L179.601 409.538L184.382 408.959L189.163 408.104L193.944 406.923L197.132 405.831L200.319 404.367L205.1 401.598L209.881 398.803L221.037 392.767L227.412 388.917L230.6 387.407L235.381 385.246L238.568 383.427L241.756 381.081L243.349 379.644L246.537 376.173L249.724 371.985L252.912 367.155L256.099 361.645L259.286 355.503L262.474 348.82L265.661 341.561L268.849 333.676L273.63 320.787L276.817 311.434L281.598 296.329L289.567 270.092L294.348 254.036L297.535 244.145L305.504 221.147L308.691 212.407L311.879 204.785L313.473 201.538L315.066 198.691L316.66 196.247L318.254 194.217L319.847 192.625L321.441 191.491L323.035 190.814L324.629 190.553L326.222 190.635L327.816 190.982L329.41 191.552L331.003 192.368L332.597 193.523L334.191 195.147L335.785 197.366L337.378 200.249L338.972 203.778L342.159 212.258L348.534 230.055L351.722 238.742L354.909 248.349L358.097 259.232L361.284 271.263L364.471 284.325L372.44 318.416L375.627 330.649L378.815 341.59L385.19 361.729L388.377 371.276L391.565 379.501L393.158 382.944L394.752 385.962L397.939 391.019L401.127 395.201L404.314 398.654L407.502 401.35L410.689 403.459L413.876 405.232L417.064 406.734L420.251 407.892L423.439 408.691L426.626 409.214L431.407 409.68L437.782 409.963L448.938 410.034L463.282 410.111" stroke="#EFEFEF" stroke-linecap="square"/>
</g>
<mask id="mask1_230_11198" style="mask-type:luminance" maskUnits="userSpaceOnUse" x="76" y="55" width="477" height="356">
<path d="M552.957 55.2959H76.7969V410.112H552.957V55.2959Z" fill="white"/>
</mask>
<g mask="url(#mask1_230_11198)">
<path d="M149.969 410.111L163.28 409.97L181.582 409.408L186.574 408.808L196.557 407.164L199.885 406.513L203.213 405.549L206.54 404.217L209.868 402.573L213.196 400.599L221.515 395.149L228.171 392.023L229.835 390.896L231.499 389.484L234.826 385.968L239.818 379.94L243.146 375.546L246.473 370.604L251.465 362.491L254.793 356.496L256.457 353.074L259.784 345.157L263.112 336.201L268.104 321.83L271.431 311.191L274.759 299.243L279.751 279.42L286.406 252.982L289.734 239.59L298.053 204.661L299.717 199.064L301.381 194.402L303.045 190.756L304.709 188.095L306.373 186.264L308.037 185.039L309.701 184.214L311.364 183.649L314.692 182.979L319.684 182.424L321.348 182.611L323.012 183.431L324.675 185.244L326.339 188.324L328.003 192.726L329.667 198.239L334.659 216.596L336.323 221.771L337.986 226.183L344.642 241.591L346.306 246.292L349.634 257.154L354.625 275.411L362.945 306.8L366.272 319.46L369.6 331.042L374.592 346.734L379.583 361.941L382.911 371.167L386.239 379.022L387.903 382.343L389.566 385.254L391.23 387.796L394.558 392.074L397.886 395.782L401.214 399.118L404.541 401.858L407.869 403.9L411.197 405.416L414.525 406.489L417.852 407.14L437.819 409.766L442.81 410.038L449.466 410.017L462.777 409.906L481.08 410.111" fill="#EFEFEF" fill-opacity="0.4"/>
<path d="M149.969 410.111L163.28 409.97L181.582 409.408L186.574 408.808L196.557 407.164L199.885 406.513L203.213 405.549L206.54 404.217L209.868 402.573L213.196 400.599L221.515 395.149L228.171 392.023L229.835 390.896L231.499 389.484L234.826 385.968L239.818 379.94L243.146 375.546L246.473 370.604L251.465 362.491L254.793 356.496L256.457 353.074L259.784 345.157L263.112 336.201L268.104 321.83L271.431 311.191L274.759 299.243L279.751 279.42L286.406 252.982L289.734 239.59L298.053 204.661L299.717 199.064L301.381 194.402L303.045 190.756L304.709 188.095L306.373 186.264L308.037 185.039L309.701 184.214L311.364 183.649L314.692 182.979L319.684 182.424L321.348 182.611L323.012 183.431L324.675 185.244L326.339 188.324L328.003 192.726L329.667 198.239L334.659 216.596L336.323 221.771L337.986 226.183L344.642 241.591L346.306 246.292L349.634 257.154L354.625 275.411L362.945 306.8L366.272 319.46L369.6 331.042L374.592 346.734L379.583 361.941L382.911 371.167L386.239 379.022L387.903 382.343L389.566 385.254L391.23 387.796L394.558 392.074L397.886 395.782L401.214 399.118L404.541 401.858L407.869 403.9L411.197 405.416L414.525 406.489L417.852 407.14L437.819 409.766L442.81 410.038L449.466 410.017L462.777 409.906L481.08 410.111" stroke="#EFEFEF" stroke-linecap="square"/>
</g>
<mask id="mask2_230_11198" style="mask-type:luminance" maskUnits="userSpaceOnUse" x="76" y="55" width="477" height="356">
<path d="M552.957 55.2959H76.7969V410.112H552.957V55.2959Z" fill="white"/>
</mask>
<g mask="url(#mask2_230_11198)">
<path d="M143.055 410.111L160.364 409.98L165.085 409.779L169.806 409.267L174.526 408.461L179.247 407.408L182.394 406.473L185.542 405.176L187.115 404.324L188.689 403.301L191.836 400.709L194.983 397.479L198.13 393.785L201.277 389.604L204.425 384.701L207.572 378.943L210.719 372.494L215.44 362.168L218.587 354.922L221.734 346.949L224.881 337.853L235.896 303.832L240.617 289.326L245.338 273.429L253.206 246.838L257.927 231.721L259.5 227.23L261.074 223.298L262.647 220.076L264.221 217.634L265.794 215.929L267.368 214.805L273.662 211.602L276.81 209.568L278.383 208.957L279.957 208.945L281.53 209.681L283.104 211.179L284.678 213.327L287.825 218.761L290.972 224.363L294.119 229.271L300.413 238.273L303.561 243.71L313.002 262.046L316.149 268.674L319.296 276.435L324.017 288.702L327.164 296.133L333.459 310.72L339.753 325.531L346.047 339.514L349.195 346.042L352.342 351.956L358.636 362.823L364.93 373.222L369.651 380.323L372.798 384.514L375.946 388.165L380.666 392.929L385.387 397.381L388.534 399.986L391.681 401.966L394.829 403.307L399.549 404.742L408.991 407.432L413.712 408.369L420.006 409.345L424.727 409.745L431.021 409.81L440.463 409.928L453.051 410.107L456.199 410.111" fill="#EFEFEF" fill-opacity="0.4"/>
<path d="M143.055 410.111L160.364 409.98L165.085 409.779L169.806 409.267L174.526 408.461L179.247 407.408L182.394 406.473L185.542 405.176L187.115 404.324L188.689 403.301L191.836 400.709L194.983 397.479L198.13 393.785L201.277 389.604L204.425 384.701L207.572 378.943L210.719 372.494L215.44 362.168L218.587 354.922L221.734 346.949L224.881 337.853L235.896 303.832L240.617 289.326L245.338 273.429L253.206 246.838L257.927 231.721L259.5 227.23L261.074 223.298L262.647 220.076L264.221 217.634L265.794 215.929L267.368 214.805L273.662 211.602L276.81 209.568L278.383 208.957L279.957 208.945L281.53 209.681L283.104 211.179L284.678 213.327L287.825 218.761L290.972 224.363L294.119 229.271L300.413 238.273L303.561 243.71L313.002 262.046L316.149 268.674L319.296 276.435L324.017 288.702L327.164 296.133L333.459 310.72L339.753 325.531L346.047 339.514L349.195 346.042L352.342 351.956L358.636 362.823L364.93 373.222L369.651 380.323L372.798 384.514L375.946 388.165L380.666 392.929L385.387 397.381L388.534 399.986L391.681 401.966L394.829 403.307L399.549 404.742L408.991 407.432L413.712 408.369L420.006 409.345L424.727 409.745L431.021 409.81L440.463 409.928L453.051 410.107L456.199 410.111" stroke="#EFEFEF" stroke-linecap="square"/>
</g>
<mask id="mask3_230_11198" style="mask-type:luminance" maskUnits="userSpaceOnUse" x="76" y="55" width="477" height="356">
<path d="M552.957 55.2959H76.7969V410.112H552.957V55.2959Z" fill="white"/>
</mask>
<g mask="url(#mask3_230_11198)">
<path d="M152.594 410.109L160.308 409.985L173.164 409.474L177.021 409.267L179.592 408.913L183.449 408.017L188.591 406.377L192.448 404.894L195.019 403.667L197.591 402.189L201.448 399.569L204.019 397.547L206.59 395.155L209.161 392.302L215.589 384.27L224.589 372.821L227.16 368.953L228.446 366.642L229.731 363.978L232.303 357.526L238.731 339.618L242.588 330.359L245.159 323.1L247.73 314.507L250.301 305.73L252.873 298.138L255.444 291.854L258.015 285.732L260.586 278.692L270.871 247.679L276.014 233.917L279.871 224.537L283.728 216.299L286.299 211.388L290.156 204.776L294.013 198.11L296.584 193.157L300.441 185.027L303.012 179.6L305.583 174.939L306.869 173.132L308.154 171.77L309.44 170.91L310.726 170.595L312.011 170.865L313.297 171.751L314.583 173.268L315.868 175.409L317.154 178.144L318.439 181.424L319.725 185.203L322.296 194.123L324.868 204.761L327.439 216.945L337.724 269.681L340.295 283.786L349.294 336.172L351.866 348.59L354.437 359.715L357.008 369.682L359.579 378.323L362.151 385.453L364.722 391.144L367.293 395.653L369.865 399.182L372.436 401.833L375.007 403.742L377.578 405.121L381.435 406.651L386.578 408.243L390.434 409.118L394.291 409.663L399.434 410.006L407.148 410.109L408.433 410.111" fill="#EFEFEF" fill-opacity="0.4"/>
<path d="M152.594 410.109L160.308 409.985L173.164 409.474L177.021 409.267L179.592 408.913L183.449 408.017L188.591 406.377L192.448 404.894L195.019 403.667L197.591 402.189L201.448 399.569L204.019 397.547L206.59 395.155L209.161 392.302L215.589 384.27L224.589 372.821L227.16 368.953L228.446 366.642L229.731 363.978L232.303 357.526L238.731 339.618L242.588 330.359L245.159 323.1L247.73 314.507L250.301 305.73L252.873 298.138L255.444 291.854L258.015 285.732L260.586 278.692L270.871 247.679L276.014 233.917L279.871 224.537L283.728 216.299L286.299 211.388L290.156 204.776L294.013 198.11L296.584 193.157L300.441 185.027L303.012 179.6L305.583 174.939L306.869 173.132L308.154 171.77L309.44 170.91L310.726 170.595L312.011 170.865L313.297 171.751L314.583 173.268L315.868 175.409L317.154 178.144L318.439 181.424L319.725 185.203L322.296 194.123L324.868 204.761L327.439 216.945L337.724 269.681L340.295 283.786L349.294 336.172L351.866 348.59L354.437 359.715L357.008 369.682L359.579 378.323L362.151 385.453L364.722 391.144L367.293 395.653L369.865 399.182L372.436 401.833L375.007 403.742L377.578 405.121L381.435 406.651L386.578 408.243L390.434 409.118L394.291 409.663L399.434 410.006L407.148 410.109L408.433 410.111" stroke="#EFEFEF" stroke-linecap="square"/>
</g>
<mask id="mask4_230_11198" style="mask-type:luminance" maskUnits="userSpaceOnUse" x="76" y="55" width="477" height="356">
<path d="M552.957 55.2959H76.7969V410.112H552.957V55.2959Z" fill="white"/>
</mask>
<g mask="url(#mask4_230_11198)">
<path d="M151.266 410.111L160.815 409.987L174.183 409.341L178.003 408.974L181.822 408.308L185.642 407.257L189.462 405.818L193.281 404.025L197.101 401.879L200.92 399.407L204.74 396.526L208.56 393.056L212.379 388.967L214.289 386.6L216.199 383.936L220.018 377.865L223.838 371.799L227.658 366.505L233.387 358.842L237.207 353.123L239.116 349.967L241.026 346.519L242.936 342.692L244.846 338.437L248.665 328.781L252.485 317.902L256.305 305.467L260.124 291.356L271.583 247.344L275.403 233.858L277.312 227.787L279.222 222.263L281.132 217.282L286.861 203.657L288.771 198.44L294.501 181.093L296.41 176.839L298.32 174.331L300.23 173.638L302.14 174.459L304.05 176.322L305.959 178.8L307.869 181.646L309.779 184.811L311.689 188.361L313.599 192.396L315.508 197.001L317.418 202.233L319.328 208.078L325.057 227.535L330.787 247.352L332.696 254.85L336.516 271.585L340.336 288.482L344.155 303.669L347.975 316.922L351.795 328.43L363.253 361.158L365.163 365.922L367.073 370.282L370.893 377.894L374.712 384.335L378.532 389.738L382.351 394.209L386.171 397.956L388.081 399.546L389.99 400.916L391.9 402.057L395.72 403.775L403.359 406.397L407.179 407.478L410.998 408.293L414.818 408.844L420.547 409.304L433.916 409.949L441.555 410.101L483.571 410.112L531.316 410.111" fill="#EFEFEF" fill-opacity="0.4"/>
<path d="M151.266 410.111L160.815 409.987L174.183 409.341L178.003 408.974L181.822 408.308L185.642 407.257L189.462 405.818L193.281 404.025L197.101 401.879L200.92 399.407L204.74 396.526L208.56 393.056L212.379 388.967L214.289 386.6L216.199 383.936L220.018 377.865L223.838 371.799L227.658 366.505L233.387 358.842L237.207 353.123L239.116 349.967L241.026 346.519L242.936 342.692L244.846 338.437L248.665 328.781L252.485 317.902L256.305 305.467L260.124 291.356L271.583 247.344L275.403 233.858L277.312 227.787L279.222 222.263L281.132 217.282L286.861 203.657L288.771 198.44L294.501 181.093L296.41 176.839L298.32 174.331L300.23 173.638L302.14 174.459L304.05 176.322L305.959 178.8L307.869 181.646L309.779 184.811L311.689 188.361L313.599 192.396L315.508 197.001L317.418 202.233L319.328 208.078L325.057 227.535L330.787 247.352L332.696 254.85L336.516 271.585L340.336 288.482L344.155 303.669L347.975 316.922L351.795 328.43L363.253 361.158L365.163 365.922L367.073 370.282L370.893 377.894L374.712 384.335L378.532 389.738L382.351 394.209L386.171 397.956L388.081 399.546L389.99 400.916L391.9 402.057L395.72 403.775L403.359 406.397L407.179 407.478L410.998 408.293L414.818 408.844L420.547 409.304L433.916 409.949L441.555 410.101L483.571 410.112L531.316 410.111" stroke="#EFEFEF" stroke-linecap="square"/>
</g>
<mask id="mask5_230_11198" style="mask-type:luminance" maskUnits="userSpaceOnUse" x="76" y="55" width="477" height="356">
<path d="M552.957 55.2959H76.7969V410.112H552.957V55.2959Z" fill="white"/>
</mask>
<g mask="url(#mask5_230_11198)">
<path d="M138.773 410.11L151.143 409.966L158.211 409.529L163.512 408.883L168.813 407.891L174.114 406.553L177.648 405.439L181.182 404L182.949 403.082L184.716 401.99L186.483 400.699L188.25 399.196L190.018 397.474L191.785 395.53L193.552 393.357L195.319 390.943L198.853 385.34L202.387 378.796L207.688 368.533L211.222 362.537L214.756 357.468L220.057 350.361L223.591 344.967L227.125 338.71L232.426 328.271L237.728 317.849L246.563 300.901L251.864 289.542L255.398 282.126L258.932 275.489L262.466 269.491L266 263.906L267.767 261.365L269.534 259.1L271.301 257.177L273.068 255.612L274.835 254.37L278.369 252.51L283.671 249.91L287.205 247.702L294.273 242.828L296.04 242.018L297.807 241.615L299.574 241.721L301.341 242.389L303.108 243.614L304.875 245.331L306.642 247.426L319.011 263.519L322.545 268.039L326.079 273.145L329.614 278.885L333.148 285.155L336.682 291.982L347.284 313.705L356.119 329.837L364.954 347.164L368.488 353.106L373.79 361.046L382.625 373.639L389.693 383.167L393.227 387.59L396.761 391.535L398.528 393.234L400.295 394.707L402.062 395.946L405.596 397.821L423.267 405.177L426.801 406.236L430.335 407.079L433.869 407.689L439.17 408.196L451.539 409.088L460.374 409.606L472.744 409.969L488.647 410.11L490.414 410.111" fill="#EFEFEF" fill-opacity="0.4"/>
<path d="M138.773 410.11L151.143 409.966L158.211 409.529L163.512 408.883L168.813 407.891L174.114 406.553L177.648 405.439L181.182 404L182.949 403.082L184.716 401.99L186.483 400.699L188.25 399.196L190.018 397.474L191.785 395.53L193.552 393.357L195.319 390.943L198.853 385.34L202.387 378.796L207.688 368.533L211.222 362.537L214.756 357.468L220.057 350.361L223.591 344.967L227.125 338.71L232.426 328.271L237.728 317.849L246.563 300.901L251.864 289.542L255.398 282.126L258.932 275.489L262.466 269.491L266 263.906L267.767 261.365L269.534 259.1L271.301 257.177L273.068 255.612L274.835 254.37L278.369 252.51L283.671 249.91L287.205 247.702L294.273 242.828L296.04 242.018L297.807 241.615L299.574 241.721L301.341 242.389L303.108 243.614L304.875 245.331L306.642 247.426L319.011 263.519L322.545 268.039L326.079 273.145L329.614 278.885L333.148 285.155L336.682 291.982L347.284 313.705L356.119 329.837L364.954 347.164L368.488 353.106L373.79 361.046L382.625 373.639L389.693 383.167L393.227 387.59L396.761 391.535L398.528 393.234L400.295 394.707L402.062 395.946L405.596 397.821L423.267 405.177L426.801 406.236L430.335 407.079L433.869 407.689L439.17 408.196L451.539 409.088L460.374 409.606L472.744 409.969L488.647 410.11L490.414 410.111" stroke="#EFEFEF" stroke-linecap="square"/>
</g>
<mask id="mask6_230_11198" style="mask-type:luminance" maskUnits="userSpaceOnUse" x="76" y="55" width="477" height="356">
<path d="M552.957 55.2959H76.7969V410.112H552.957V55.2959Z" fill="white"/>
</mask>
<g mask="url(#mask6_230_11198)">
<path d="M136.75 410.11L142.49 409.996L145.934 409.676L150.526 408.918L152.822 408.294L153.97 407.803L155.118 407.117L156.266 406.19L157.414 405.004L159.709 401.95L162.005 398.271L164.301 394.052L166.597 389.045L168.893 382.772L170.041 378.94L172.337 369.593L174.633 358.221L176.929 345.318L179.225 331.039L182.669 307.738L186.113 282.516L188.409 263.242L190.705 241.049L194.149 203.413L198.741 153.376L202.184 118.159L203.332 107.808L204.48 98.8147L205.628 91.423L206.776 85.6395L207.924 81.253L209.072 77.948L210.22 75.4485L211.368 73.6217L212.516 72.4949L213.664 72.1924L214.812 72.8399L215.96 74.4834L217.108 77.0504L218.256 80.3563L220.552 88.1866L223.996 100.722L225.144 105.41L226.292 110.814L227.44 117.193L229.736 132.952L234.328 167.227L236.624 181.389L240.068 199.889L242.364 212.299L244.659 226.05L253.843 284.938L256.139 296.918L263.027 330.202L265.323 341.876L267.619 351.67L268.767 355.492L269.915 358.597L271.063 361.115L276.803 371.984L280.247 379.607L281.395 381.752L282.543 383.545L284.839 386.281L287.134 388.749L289.43 391.689L292.874 396.436L295.17 399.088L297.466 401.212L299.762 402.871L302.058 404.057L304.354 404.887L307.798 405.804L322.722 408.795L326.166 409.249L328.462 409.251L333.053 409.038L336.497 409.297L342.237 409.77L346.829 409.945L365.197 410.111" fill="#EFEFEF" fill-opacity="0.4"/>
<path d="M136.75 410.11L142.49 409.996L145.934 409.676L150.526 408.918L152.822 408.294L153.97 407.803L155.118 407.117L156.266 406.19L157.414 405.004L159.709 401.95L162.005 398.271L164.301 394.052L166.597 389.045L168.893 382.772L170.041 378.94L172.337 369.593L174.633 358.221L176.929 345.318L179.225 331.039L182.669 307.738L186.113 282.516L188.409 263.242L190.705 241.049L194.149 203.413L198.741 153.376L202.184 118.159L203.332 107.808L204.48 98.8147L205.628 91.423L206.776 85.6395L207.924 81.253L209.072 77.948L210.22 75.4485L211.368 73.6217L212.516 72.4949L213.664 72.1924L214.812 72.8399L215.96 74.4834L217.108 77.0504L218.256 80.3563L220.552 88.1866L223.996 100.722L225.144 105.41L226.292 110.814L227.44 117.193L229.736 132.952L234.328 167.227L236.624 181.389L240.068 199.889L242.364 212.299L244.659 226.05L253.843 284.938L256.139 296.918L263.027 330.202L265.323 341.876L267.619 351.67L268.767 355.492L269.915 358.597L271.063 361.115L276.803 371.984L280.247 379.607L281.395 381.752L282.543 383.545L284.839 386.281L287.134 388.749L289.43 391.689L292.874 396.436L295.17 399.088L297.466 401.212L299.762 402.871L302.058 404.057L304.354 404.887L307.798 405.804L322.722 408.795L326.166 409.249L328.462 409.251L333.053 409.038L336.497 409.297L342.237 409.77L346.829 409.945L365.197 410.111" stroke="#EFEFEF" stroke-linecap="square"/>
</g>
<mask id="mask7_230_11198" style="mask-type:luminance" maskUnits="userSpaceOnUse" x="76" y="55" width="477" height="356">
<path d="M552.957 55.2959H76.7969V410.112H552.957V55.2959Z" fill="white"/>
</mask>
<g mask="url(#mask7_230_11198)">
<path d="M155.406 410.11L165.597 409.945L172.877 409.454L177.244 408.866L181.612 407.938L187.435 406.403L191.803 404.901L196.17 403.028L199.082 401.463L201.994 399.56L210.729 393.455L215.096 390.524L218.008 388.287L220.92 385.691L225.287 381.333L229.655 376.646L232.567 373.043L235.478 368.651L238.39 363.336L241.302 357.328L244.213 350.86L247.125 343.841L250.037 336.13L254.404 323.5L260.228 306.18L263.14 298.337L267.507 286.99L270.419 278.316L273.331 268.509L282.066 238.07L284.977 228.953L287.889 220.74L290.801 213.255L293.712 206.457L296.624 200.473L299.536 195.166L302.448 190.378L303.903 188.255L305.359 186.395L306.815 184.85L308.271 183.647L309.727 182.798L311.183 182.312L312.639 182.205L314.094 182.504L315.55 183.238L317.006 184.434L318.462 186.118L319.918 188.319L321.374 191.067L322.83 194.379L324.285 198.229L327.197 207.141L338.844 245.212L341.756 256.377L344.667 268.447L347.579 281.451L351.947 302.668L356.314 324.232L359.226 337.338L362.138 348.813L365.049 358.56L367.961 366.791L370.873 374.066L375.24 384.149L378.152 390.067L381.064 394.955L383.976 398.816L386.887 401.785L389.799 403.985L392.711 405.582L395.622 406.776L399.99 408.131L404.357 409.125L408.725 409.749L413.093 410.024L420.372 410.097L445.121 410.111" fill="#EFEFEF" fill-opacity="0.4"/>
<path d="M155.406 410.11L165.597 409.945L172.877 409.454L177.244 408.866L181.612 407.938L187.435 406.403L191.803 404.901L196.17 403.028L199.082 401.463L201.994 399.56L210.729 393.455L215.096 390.524L218.008 388.287L220.92 385.691L225.287 381.333L229.655 376.646L232.567 373.043L235.478 368.651L238.39 363.336L241.302 357.328L244.213 350.86L247.125 343.841L250.037 336.13L254.404 323.5L260.228 306.18L263.14 298.337L267.507 286.99L270.419 278.316L273.331 268.509L282.066 238.07L284.977 228.953L287.889 220.74L290.801 213.255L293.712 206.457L296.624 200.473L299.536 195.166L302.448 190.378L303.903 188.255L305.359 186.395L306.815 184.85L308.271 183.647L309.727 182.798L311.183 182.312L312.639 182.205L314.094 182.504L315.55 183.238L317.006 184.434L318.462 186.118L319.918 188.319L321.374 191.067L322.83 194.379L324.285 198.229L327.197 207.141L338.844 245.212L341.756 256.377L344.667 268.447L347.579 281.451L351.947 302.668L356.314 324.232L359.226 337.338L362.138 348.813L365.049 358.56L367.961 366.791L370.873 374.066L375.24 384.149L378.152 390.067L381.064 394.955L383.976 398.816L386.887 401.785L389.799 403.985L392.711 405.582L395.622 406.776L399.99 408.131L404.357 409.125L408.725 409.749L413.093 410.024L420.372 410.097L445.121 410.111" stroke="#EFEFEF" stroke-linecap="square"/>
</g>
<mask id="mask8_230_11198" style="mask-type:luminance" maskUnits="userSpaceOnUse" x="76" y="55" width="477" height="356">
<path d="M552.957 55.2959H76.7969V410.112H552.957V55.2959Z" fill="white"/>
</mask>
<g mask="url(#mask8_230_11198)">
<path d="M134.578 410.111L154.133 409.971L163.91 409.676L168.798 409.252L173.687 408.449L176.946 407.648L180.205 406.606L183.464 405.239L185.094 404.371L186.723 403.335L188.353 402.098L189.983 400.637L191.612 398.944L194.871 394.901L198.13 390.145L203.019 382.18L207.907 373.536L211.167 367.15L214.426 360.071L219.314 348.608L224.203 336.49L227.462 327.302L230.721 316.864L235.61 300.915L237.239 296.286L238.869 292.19L242.128 285.335L247.016 275.862L256.794 255.47L260.053 249.765L263.312 244.726L266.571 240.384L271.46 234.083L274.719 229.04L277.978 223.802L279.607 221.598L281.237 219.958L282.866 219.046L284.496 218.956L286.125 219.703L287.755 221.221L289.385 223.365L292.644 228.67L295.903 233.803L297.532 235.908L299.162 237.661L302.421 240.454L305.68 243.232L307.31 244.962L308.939 247.045L310.569 249.527L312.198 252.412L313.828 255.677L317.087 263.201L320.346 271.799L326.864 289.755L330.123 297.578L338.271 315.878L343.159 327.11L346.419 333.812L352.937 346.772L356.196 354.055L361.084 365.233L364.343 371.796L365.973 374.625L367.603 377.13L369.232 379.324L370.862 381.234L374.121 384.37L377.38 386.941L392.046 397.78L396.934 400.725L401.823 403.281L405.082 404.607L408.341 405.576L413.23 406.575L421.377 407.776L434.414 409.522L440.932 409.813L453.968 410.098L458.857 410.11" fill="#EFEFEF" fill-opacity="0.4"/>
<path d="M134.578 410.111L154.133 409.971L163.91 409.676L168.798 409.252L173.687 408.449L176.946 407.648L180.205 406.606L183.464 405.239L185.094 404.371L186.723 403.335L188.353 402.098L189.983 400.637L191.612 398.944L194.871 394.901L198.13 390.145L203.019 382.18L207.907 373.536L211.167 367.15L214.426 360.071L219.314 348.608L224.203 336.49L227.462 327.302L230.721 316.864L235.61 300.915L237.239 296.286L238.869 292.19L242.128 285.335L247.016 275.862L256.794 255.47L260.053 249.765L263.312 244.726L266.571 240.384L271.46 234.083L274.719 229.04L277.978 223.802L279.607 221.598L281.237 219.958L282.866 219.046L284.496 218.956L286.125 219.703L287.755 221.221L289.385 223.365L292.644 228.67L295.903 233.803L297.532 235.908L299.162 237.661L302.421 240.454L305.68 243.232L307.31 244.962L308.939 247.045L310.569 249.527L312.198 252.412L313.828 255.677L317.087 263.201L320.346 271.799L326.864 289.755L330.123 297.578L338.271 315.878L343.159 327.11L346.419 333.812L352.937 346.772L356.196 354.055L361.084 365.233L364.343 371.796L365.973 374.625L367.603 377.13L369.232 379.324L370.862 381.234L374.121 384.37L377.38 386.941L392.046 397.78L396.934 400.725L401.823 403.281L405.082 404.607L408.341 405.576L413.23 406.575L421.377 407.776L434.414 409.522L440.932 409.813L453.968 410.098L458.857 410.11" stroke="#EFEFEF" stroke-linecap="square"/>
</g>
<mask id="mask9_230_11198" style="mask-type:luminance" maskUnits="userSpaceOnUse" x="76" y="55" width="477" height="356">
<path d="M552.957 55.2959H76.7969V410.112H552.957V55.2959Z" fill="white"/>
</mask>
<g mask="url(#mask9_230_11198)">
<path d="M123.25 410.111L138.704 409.988L146.43 409.6L150.294 409.202L154.157 408.564L158.021 407.549L161.884 406L163.816 404.985L165.747 403.797L169.611 400.883L173.474 397.229L177.337 392.823L181.201 387.763L202.45 358.31L208.245 351.154L215.971 342.346L221.766 336.049L227.562 330.332L231.425 326.557L235.288 322.298L239.152 317.372L246.879 307.031L252.674 300.151L266.195 284.723L270.059 280.806L273.922 277.178L277.786 273.899L281.649 271.06L285.512 268.678L289.376 266.768L291.308 266.03L293.239 265.476L295.171 265.132L297.103 265.016L299.034 265.129L300.966 265.469L302.898 266.031L304.829 266.824L306.761 267.866L308.693 269.181L310.624 270.784L312.556 272.669L316.42 277.11L326.078 289.113L335.736 300.623L339.6 305.892L345.395 314.624L351.19 323.286L355.053 328.555L366.644 343.707L380.165 362.213L384.029 367.119L387.892 371.529L391.756 375.286L395.619 378.427L399.482 381.133L414.936 391.373L422.663 396.661L426.526 398.996L430.39 400.998L434.253 402.644L438.116 403.98L443.911 405.598L451.638 407.398L457.433 408.433L463.228 409.075L470.955 409.52L484.477 409.917L501.862 410.104L507.657 410.111" fill="#EFEFEF" fill-opacity="0.4"/>
<path d="M123.25 410.111L138.704 409.988L146.43 409.6L150.294 409.202L154.157 408.564L158.021 407.549L161.884 406L163.816 404.985L165.747 403.797L169.611 400.883L173.474 397.229L177.337 392.823L181.201 387.763L202.45 358.31L208.245 351.154L215.971 342.346L221.766 336.049L227.562 330.332L231.425 326.557L235.288 322.298L239.152 317.372L246.879 307.031L252.674 300.151L266.195 284.723L270.059 280.806L273.922 277.178L277.786 273.899L281.649 271.06L285.512 268.678L289.376 266.768L291.308 266.03L293.239 265.476L295.171 265.132L297.103 265.016L299.034 265.129L300.966 265.469L302.898 266.031L304.829 266.824L306.761 267.866L308.693 269.181L310.624 270.784L312.556 272.669L316.42 277.11L326.078 289.113L335.736 300.623L339.6 305.892L345.395 314.624L351.19 323.286L355.053 328.555L366.644 343.707L380.165 362.213L384.029 367.119L387.892 371.529L391.756 375.286L395.619 378.427L399.482 381.133L414.936 391.373L422.663 396.661L426.526 398.996L430.39 400.998L434.253 402.644L438.116 403.98L443.911 405.598L451.638 407.398L457.433 408.433L463.228 409.075L470.955 409.52L484.477 409.917L501.862 410.104L507.657 410.111" stroke="#EFEFEF" stroke-linecap="square"/>
</g>
<mask id="mask10_230_11198" style="mask-type:luminance" maskUnits="userSpaceOnUse" x="76" y="55" width="477" height="356">
<path d="M552.957 55.2959H76.7969V410.112H552.957V55.2959Z" fill="white"/>
</mask>
<g mask="url(#mask10_230_11198)">
<path d="M154.672 410.111L170.198 409.956L175.844 409.67L181.49 409.005L187.136 408.06L192.782 406.751L199.839 404.834L202.662 403.728L205.485 402.207L211.131 398.89L215.365 397.018L219.6 395.11L222.423 393.514L233.715 386.584L239.36 383.527L242.183 381.53L245.006 379.143L250.652 373.845L253.475 370.907L256.298 367.466L259.121 363.268L261.944 358.117L264.767 352.02L274.647 328.724L277.47 321.613L280.293 313.828L284.528 301.107L292.997 274.045L297.231 259.859L301.465 244.688L309.934 213.803L312.757 204.406L315.58 195.816L318.403 188.328L319.815 185.202L321.226 182.623L322.638 180.648L324.049 179.263L325.461 178.374L326.872 177.826L331.106 176.8L332.518 176.502L333.929 176.355L335.341 176.525L336.752 177.167L338.164 178.388L339.575 180.218L340.987 182.612L342.398 185.474L345.221 192.193L348.044 199.831L350.867 208.447L353.69 218.499L356.513 230.484L359.336 244.536L363.57 268.332L370.628 308.602L373.451 323.229L376.274 336.477L380.508 354.356L383.331 365.387L386.154 375.366L388.977 383.765L390.388 387.304L391.8 390.426L393.211 393.17L396.034 397.719L398.857 401.279L401.68 404.02L404.503 406.022L407.326 407.411L410.149 408.354L412.972 408.986L417.207 409.548L422.852 409.921L429.91 410.092L435.556 410.111" fill="#EFEFEF" fill-opacity="0.4"/>
<path d="M154.672 410.111L170.198 409.956L175.844 409.67L181.49 409.005L187.136 408.06L192.782 406.751L199.839 404.834L202.662 403.728L205.485 402.207L211.131 398.89L215.365 397.018L219.6 395.11L222.423 393.514L233.715 386.584L239.36 383.527L242.183 381.53L245.006 379.143L250.652 373.845L253.475 370.907L256.298 367.466L259.121 363.268L261.944 358.117L264.767 352.02L274.647 328.724L277.47 321.613L280.293 313.828L284.528 301.107L292.997 274.045L297.231 259.859L301.465 244.688L309.934 213.803L312.757 204.406L315.58 195.816L318.403 188.328L319.815 185.202L321.226 182.623L322.638 180.648L324.049 179.263L325.461 178.374L326.872 177.826L331.106 176.8L332.518 176.502L333.929 176.355L335.341 176.525L336.752 177.167L338.164 178.388L339.575 180.218L340.987 182.612L342.398 185.474L345.221 192.193L348.044 199.831L350.867 208.447L353.69 218.499L356.513 230.484L359.336 244.536L363.57 268.332L370.628 308.602L373.451 323.229L376.274 336.477L380.508 354.356L383.331 365.387L386.154 375.366L388.977 383.765L390.388 387.304L391.8 390.426L393.211 393.17L396.034 397.719L398.857 401.279L401.68 404.02L404.503 406.022L407.326 407.411L410.149 408.354L412.972 408.986L417.207 409.548L422.852 409.921L429.91 410.092L435.556 410.111" stroke="#EFEFEF" stroke-linecap="square"/>
</g>
<mask id="mask11_230_11198" style="mask-type:luminance" maskUnits="userSpaceOnUse" x="76" y="55" width="477" height="356">
<path d="M552.957 55.2959H76.7969V410.112H552.957V55.2959Z" fill="white"/>
</mask>
<g mask="url(#mask11_230_11198)">
<path d="M138.352 410.111L159.808 409.975L171.362 409.651L182.916 409.131L187.867 408.52L191.168 407.821L194.469 406.849L197.771 405.6L202.722 403.308L207.674 400.619L210.975 398.453L227.48 386.161L230.781 382.625L234.082 378.316L237.383 373.242L240.684 367.472L245.636 358.471L248.937 353.094L255.539 343.287L257.189 340.521L258.84 337.463L260.491 334.061L263.792 326.146L267.093 316.952L275.345 292.951L280.297 279.799L283.598 271.733L285.248 268.121L286.899 264.914L288.55 262.159L290.2 259.818L295.152 253.649L296.802 251.199L298.453 248.357L305.055 235.535L306.705 232.885L308.356 230.65L310.006 228.798L311.657 227.266L313.307 225.992L314.958 224.938L316.608 224.081L318.259 223.411L319.91 222.912L323.211 222.372L324.861 222.319L326.512 222.425L328.162 222.718L329.813 223.243L331.463 224.046L333.114 225.163L334.764 226.614L336.415 228.393L338.065 230.48L339.716 232.861L341.366 235.539L343.017 238.538L344.667 241.881L347.968 249.569L352.92 262.645L359.522 281.003L364.474 295.891L371.076 316.051L374.377 325.355L377.678 333.873L394.183 373.839L395.834 377.322L397.484 380.455L399.135 383.239L400.785 385.707L404.086 389.888L407.387 393.398L410.689 396.486L413.99 399.192L417.291 401.448L420.592 403.246L423.893 404.706L428.844 406.507L432.145 407.456L437.097 408.51L442.049 409.203L447 409.579L458.554 410.047L466.806 410.11" fill="#EFEFEF" fill-opacity="0.4"/>
<path d="M138.352 410.111L159.808 409.975L171.362 409.651L182.916 409.131L187.867 408.52L191.168 407.821L194.469 406.849L197.771 405.6L202.722 403.308L207.674 400.619L210.975 398.453L227.48 386.161L230.781 382.625L234.082 378.316L237.383 373.242L240.684 367.472L245.636 358.471L248.937 353.094L255.539 343.287L257.189 340.521L258.84 337.463L260.491 334.061L263.792 326.146L267.093 316.952L275.345 292.951L280.297 279.799L283.598 271.733L285.248 268.121L286.899 264.914L288.55 262.159L290.2 259.818L295.152 253.649L296.802 251.199L298.453 248.357L305.055 235.535L306.705 232.885L308.356 230.65L310.006 228.798L311.657 227.266L313.307 225.992L314.958 224.938L316.608 224.081L318.259 223.411L319.91 222.912L323.211 222.372L324.861 222.319L326.512 222.425L328.162 222.718L329.813 223.243L331.463 224.046L333.114 225.163L334.764 226.614L336.415 228.393L338.065 230.48L339.716 232.861L341.366 235.539L343.017 238.538L344.667 241.881L347.968 249.569L352.92 262.645L359.522 281.003L364.474 295.891L371.076 316.051L374.377 325.355L377.678 333.873L394.183 373.839L395.834 377.322L397.484 380.455L399.135 383.239L400.785 385.707L404.086 389.888L407.387 393.398L410.689 396.486L413.99 399.192L417.291 401.448L420.592 403.246L423.893 404.706L428.844 406.507L432.145 407.456L437.097 408.51L442.049 409.203L447 409.579L458.554 410.047L466.806 410.11" stroke="#EFEFEF" stroke-linecap="square"/>
</g>
<mask id="mask12_230_11198" style="mask-type:luminance" maskUnits="userSpaceOnUse" x="76" y="55" width="477" height="356">
<path d="M552.957 55.2959H76.7969V410.112H552.957V55.2959Z" fill="white"/>
</mask>
<g mask="url(#mask12_230_11198)">
<path d="M145.82 410.11L154.894 410L159.431 409.68L162.455 409.23L165.48 408.521L168.504 407.539L173.041 405.657L176.065 404.17L179.09 402.382L182.114 400.095L185.139 397.192L188.163 393.735L191.188 389.872L194.212 385.645L197.237 380.889L200.261 375.326L203.286 368.823L207.822 357.926L212.359 347.142L221.433 326.928L230.506 306.846L233.531 301.081L236.555 296.227L242.604 287.585L244.116 285.008L245.629 282.078L248.653 275.161L257.727 252.326L262.263 242.31L265.288 236.298L266.8 233.708L268.312 231.505L269.824 229.732L271.337 228.382L272.849 227.406L274.361 226.728L277.386 225.964L280.41 225.692L283.435 225.867L286.459 226.532L289.484 227.728L290.996 228.591L292.508 229.693L294.02 231.075L295.533 232.742L298.557 236.741L309.143 251.868L312.167 257.383L315.192 263.84L321.241 277.883L324.265 285.57L327.29 294.222L334.851 316.939L337.876 324.813L342.412 335.389L348.461 348.428L352.998 357.623L357.535 366.262L360.559 371.608L363.584 376.533L368.12 383.243L372.657 389.282L375.682 392.771L378.706 395.651L381.731 397.857L384.755 399.459L389.292 401.215L393.829 402.973L399.878 405.525L402.902 406.495L407.439 407.466L416.512 408.87L421.049 409.319L428.61 409.687L440.708 410.084L446.757 410.11" fill="#EFEFEF" fill-opacity="0.4"/>
<path d="M145.82 410.11L154.894 410L159.431 409.68L162.455 409.23L165.48 408.521L168.504 407.539L173.041 405.657L176.065 404.17L179.09 402.382L182.114 400.095L185.139 397.192L188.163 393.735L191.188 389.872L194.212 385.645L197.237 380.889L200.261 375.326L203.286 368.823L207.822 357.926L212.359 347.142L221.433 326.928L230.506 306.846L233.531 301.081L236.555 296.227L242.604 287.585L244.116 285.008L245.629 282.078L248.653 275.161L257.727 252.326L262.263 242.31L265.288 236.298L266.8 233.708L268.312 231.505L269.824 229.732L271.337 228.382L272.849 227.406L274.361 226.728L277.386 225.964L280.41 225.692L283.435 225.867L286.459 226.532L289.484 227.728L290.996 228.591L292.508 229.693L294.02 231.075L295.533 232.742L298.557 236.741L309.143 251.868L312.167 257.383L315.192 263.84L321.241 277.883L324.265 285.57L327.29 294.222L334.851 316.939L337.876 324.813L342.412 335.389L348.461 348.428L352.998 357.623L357.535 366.262L360.559 371.608L363.584 376.533L368.12 383.243L372.657 389.282L375.682 392.771L378.706 395.651L381.731 397.857L384.755 399.459L389.292 401.215L393.829 402.973L399.878 405.525L402.902 406.495L407.439 407.466L416.512 408.87L421.049 409.319L428.61 409.687L440.708 410.084L446.757 410.11" stroke="#EFEFEF" stroke-linecap="square"/>
</g>
<mask id="mask13_230_11198" style="mask-type:luminance" maskUnits="userSpaceOnUse" x="76" y="55" width="477" height="356">
<path d="M552.957 55.2959H76.7969V410.112H552.957V55.2959Z" fill="white"/>
</mask>
<g mask="url(#mask13_230_11198)">
<path d="M134.406 410.111L146.62 409.957L155.78 409.555L160.361 408.956L163.414 408.298L166.467 407.364L169.521 406.079L172.574 404.292L174.101 403.108L175.628 401.662L177.154 399.905L178.681 397.802L180.208 395.323L181.735 392.441L183.261 389.126L184.788 385.334L186.315 381.012L187.842 376.105L189.368 370.578L192.422 357.763L195.475 343.138L198.529 327.186L201.582 309.685L204.635 290.312L212.269 239.532L215.322 221.224L218.376 204.653L221.429 190.28L222.956 184.167L224.483 178.827L226.01 174.198L227.536 170.174L229.063 166.658L230.59 163.597L232.116 160.984L233.643 158.841L235.17 157.227L236.697 156.245L238.223 156.018L239.75 156.612L241.277 157.964L242.803 159.865L250.437 170.826L253.491 176.094L255.017 179.138L256.544 182.572L258.071 186.571L259.597 191.313L261.124 196.855L264.178 209.613L267.231 222.375L274.865 252.061L279.445 270.807L282.498 281.802L287.078 296.518L296.239 325.424L299.292 333.421L303.872 343.948L308.452 353.991L311.506 359.937L320.666 375.971L323.72 380.807L326.773 384.876L331.353 390.148L334.407 393.38L337.46 396.118L340.514 398.152L346.621 401.514L351.201 404.307L354.254 405.709L357.308 406.582L363.414 407.632L369.521 408.561L374.102 408.954L395.476 409.964L416.85 410.078L436.697 410.109L438.224 410.111" fill="#EFEFEF" fill-opacity="0.4"/>
<path d="M134.406 410.111L146.62 409.957L155.78 409.555L160.361 408.956L163.414 408.298L166.467 407.364L169.521 406.079L172.574 404.292L174.101 403.108L175.628 401.662L177.154 399.905L178.681 397.802L180.208 395.323L181.735 392.441L183.261 389.126L184.788 385.334L186.315 381.012L187.842 376.105L189.368 370.578L192.422 357.763L195.475 343.138L198.529 327.186L201.582 309.685L204.635 290.312L212.269 239.532L215.322 221.224L218.376 204.653L221.429 190.28L222.956 184.167L224.483 178.827L226.01 174.198L227.536 170.174L229.063 166.658L230.59 163.597L232.116 160.984L233.643 158.841L235.17 157.227L236.697 156.245L238.223 156.018L239.75 156.612L241.277 157.964L242.803 159.865L250.437 170.826L253.491 176.094L255.017 179.138L256.544 182.572L258.071 186.571L259.597 191.313L261.124 196.855L264.178 209.613L267.231 222.375L274.865 252.061L279.445 270.807L282.498 281.802L287.078 296.518L296.239 325.424L299.292 333.421L303.872 343.948L308.452 353.991L311.506 359.937L320.666 375.971L323.72 380.807L326.773 384.876L331.353 390.148L334.407 393.38L337.46 396.118L340.514 398.152L346.621 401.514L351.201 404.307L354.254 405.709L357.308 406.582L363.414 407.632L369.521 408.561L374.102 408.954L395.476 409.964L416.85 410.078L436.697 410.109L438.224 410.111" stroke="#EFEFEF" stroke-linecap="square"/>
</g>
<mask id="mask14_230_11198" style="mask-type:luminance" maskUnits="userSpaceOnUse" x="76" y="55" width="477" height="356">
<path d="M552.957 55.2959H76.7969V410.112H552.957V55.2959Z" fill="white"/>
</mask>
<g mask="url(#mask14_230_11198)">
<path d="M98.4375 410.111L141.479 409.926L144.923 409.483L146.644 409.063L148.366 408.457L150.088 407.635L151.809 406.569L153.531 405.234L155.253 403.59L156.974 401.562L158.696 399.031L160.418 395.839L162.139 391.821L163.861 386.854L165.583 380.909L167.304 374.072L170.748 358.478L174.191 341.426L177.634 323.037L181.078 302.811L186.243 269.71L189.686 247.842L191.408 237.87L193.129 228.925L194.851 221.117L196.573 214.372L198.294 208.468L201.738 198.127L205.181 188.877L206.903 184.89L208.624 181.636L210.346 179.298L212.068 177.918L213.789 177.386L215.511 177.502L217.233 178.09L218.954 179.098L220.676 180.616L222.398 182.779L224.119 185.614L229.284 195.594L231.006 198.403L236.171 205.957L237.893 208.959L241.336 215.896L244.779 223.634L248.223 232.431L251.666 242.591L270.604 302.48L277.491 323.204L280.934 333.255L282.656 337.88L284.378 342.067L286.099 345.793L289.543 352.234L296.43 364.068L299.873 369.395L303.316 373.848L313.646 385.817L317.09 389.302L320.533 392.355L323.976 395.044L327.42 397.309L330.863 399.14L336.028 401.394L341.193 403.38L346.358 404.998L349.801 405.873L353.245 406.502L367.018 408.424L372.183 409.053L380.791 409.555L389.4 409.948L398.008 409.948L410.06 410.006L441.05 410.111" fill="#7EB0D5" fill-opacity="0.4"/>
<path d="M98.4375 410.111L141.479 409.926L144.923 409.483L146.644 409.063L148.366 408.457L150.088 407.635L151.809 406.569L153.531 405.234L155.253 403.59L156.974 401.562L158.696 399.031L160.418 395.839L162.139 391.821L163.861 386.854L165.583 380.909L167.304 374.072L170.748 358.478L174.191 341.426L177.634 323.037L181.078 302.811L186.243 269.71L189.686 247.842L191.408 237.87L193.129 228.925L194.851 221.117L196.573 214.372L198.294 208.468L201.738 198.127L205.181 188.877L206.903 184.89L208.624 181.636L210.346 179.298L212.068 177.918L213.789 177.386L215.511 177.502L217.233 178.09L218.954 179.098L220.676 180.616L222.398 182.779L224.119 185.614L229.284 195.594L231.006 198.403L236.171 205.957L237.893 208.959L241.336 215.896L244.779 223.634L248.223 232.431L251.666 242.591L270.604 302.48L277.491 323.204L280.934 333.255L282.656 337.88L284.378 342.067L286.099 345.793L289.543 352.234L296.43 364.068L299.873 369.395L303.316 373.848L313.646 385.817L317.09 389.302L320.533 392.355L323.976 395.044L327.42 397.309L330.863 399.14L336.028 401.394L341.193 403.38L346.358 404.998L349.801 405.873L353.245 406.502L367.018 408.424L372.183 409.053L380.791 409.555L389.4 409.948L398.008 409.948L410.06 410.006L441.05 410.111" stroke="#7EB0D5" stroke-linecap="square"/>
</g>
<path d="M535.061 411.061C535.646 410.475 535.646 409.525 535.061 408.939L525.515 399.393C524.929 398.808 523.979 398.808 523.393 399.393C522.808 399.979 522.808 400.929 523.393 401.515L531.879 410L523.393 418.485C522.808 419.071 522.808 420.021 523.393 420.607C523.979 421.192 524.929 421.192 525.515 420.607L535.061 411.061ZM79 411.5H534V408.5H79V411.5Z" fill="black"/>
</g>
<defs>
<clipPath id="clip0_230_11198">
<rect width="614.4" height="460.8" fill="white"/>
</clipPath>
</defs>
</svg>
