<svg width="615" height="461" viewBox="0 0 615 461" fill="none" xmlns="http://www.w3.org/2000/svg">
<mask id="mask0_230_11038" style="mask-type:luminance" maskUnits="userSpaceOnUse" x="76" y="55" width="477" height="356">
<path d="M552.957 55.2959H76.7969V410.112H552.957V55.2959Z" fill="white"/>
</mask>
<g mask="url(#mask0_230_11038)">
<path d="M265.891 410.11L272.098 409.979L278.306 409.757L284.513 409.72L300.652 408.485L304.377 407.694L306.86 407.112L309.343 406.974L311.826 407.007L314.309 406.521L321.758 404.267L327.965 401.496L330.448 400.108L332.931 398.276L334.173 397.046L335.414 395.522L337.897 391.77L340.38 387.977L342.863 384.368L344.105 382.27L345.346 379.789L346.588 376.858L347.829 373.457L350.312 365.309L352.795 355.666L356.52 339.202L359.003 327.088L360.244 320.165L361.486 312.324L363.969 293.631L367.693 262.904L370.176 245.51L372.659 228.359L375.142 208.432L377.625 188.208L380.108 170.719L381.35 163.39L382.591 157.098L383.833 151.893L385.074 147.849L386.316 145.058L387.557 143.543L388.799 143.213L390.04 143.961L391.281 145.773L392.523 148.683L393.764 152.708L395.006 157.919L396.247 164.52L397.489 172.759L398.73 182.754L401.213 207.254L404.938 246.255L412.387 313.845L413.628 324.281L414.87 333.342L416.111 341.082L418.594 353.985L422.319 371.161L424.802 381.652L427.285 390.175L428.526 393.64L429.768 396.557L431.009 398.857L432.251 400.521L433.492 401.66L435.975 403.192L440.941 405.923L445.907 407.831L448.39 408.627L450.873 409.117L454.598 409.57L462.047 409.937L485.635 410.112L512.948 410.111" fill="#EFEFEF" fill-opacity="0.4"/>
<path d="M265.891 410.11L272.098 409.979L278.306 409.757L284.513 409.72L300.652 408.485L304.377 407.694L306.86 407.112L309.343 406.974L311.826 407.007L314.309 406.521L321.758 404.267L327.965 401.496L330.448 400.108L332.931 398.276L334.173 397.046L335.414 395.522L337.897 391.77L340.38 387.977L342.863 384.368L344.105 382.27L345.346 379.789L346.588 376.858L347.829 373.457L350.312 365.309L352.795 355.666L356.52 339.202L359.003 327.088L360.244 320.165L361.486 312.324L363.969 293.631L367.693 262.904L370.176 245.51L372.659 228.359L375.142 208.432L377.625 188.208L380.108 170.719L381.35 163.39L382.591 157.098L383.833 151.893L385.074 147.849L386.316 145.058L387.557 143.543L388.799 143.213L390.04 143.961L391.281 145.773L392.523 148.683L393.764 152.708L395.006 157.919L396.247 164.52L397.489 172.759L398.73 182.754L401.213 207.254L404.938 246.255L412.387 313.845L413.628 324.281L414.87 333.342L416.111 341.082L418.594 353.985L422.319 371.161L424.802 381.652L427.285 390.175L428.526 393.64L429.768 396.557L431.009 398.857L432.251 400.521L433.492 401.66L435.975 403.192L440.941 405.923L445.907 407.831L448.39 408.627L450.873 409.117L454.598 409.57L462.047 409.937L485.635 410.112L512.948 410.111" stroke="#EFEFEF" stroke-linecap="square"/>
</g>
<mask id="mask1_230_11038" style="mask-type:luminance" maskUnits="userSpaceOnUse" x="76" y="55" width="477" height="356">
<path d="M552.957 55.2959H76.7969V410.112H552.957V55.2959Z" fill="white"/>
</mask>
<g mask="url(#mask1_230_11038)">
<path d="M272.094 410.11L279.316 409.96L286.539 409.692L291.354 409.281L298.577 408.497L308.207 407.093L311.818 407.159L314.226 406.66L317.837 405.706L321.448 404.981L323.856 403.96L329.875 400.498L333.486 399.215L334.69 398.35L335.893 397.072L338.301 393.553L341.912 387.68L344.32 384.36L349.135 378.783L350.339 376.806L351.542 374.36L352.746 371.442L353.95 368.074L355.154 364.245L357.561 355.005L363.58 328.615L365.988 318.208L367.191 311.975L369.599 296.762L372.006 279.049L374.414 259.518L376.821 237.272L380.433 202.36L382.84 182.419L385.248 166.701L387.655 154.152L388.859 149.137L390.063 145.273L391.267 142.688L392.47 141.343L393.674 141.124L394.878 141.943L396.082 143.782L397.286 146.671L398.489 150.659L399.693 155.789L400.897 162.126L402.101 169.766L403.304 178.781L405.712 200.285L410.527 247.734L416.546 310.365L418.953 330.679L421.361 347.467L423.768 361.355L426.176 373.272L428.583 383.417L429.787 387.571L430.991 390.989L432.195 393.665L433.399 395.7L434.602 397.281L437.01 399.823L439.417 402.035L441.825 403.874L444.232 405.388L446.64 406.507L449.048 407.135L458.678 408.778L462.289 409.178L465.9 409.637L482.753 410.11L511.643 410.111" fill="#EFEFEF" fill-opacity="0.4"/>
<path d="M272.094 410.11L279.316 409.96L286.539 409.692L291.354 409.281L298.577 408.497L308.207 407.093L311.818 407.159L314.226 406.66L317.837 405.706L321.448 404.981L323.856 403.96L329.875 400.498L333.486 399.215L334.69 398.35L335.893 397.072L338.301 393.553L341.912 387.68L344.32 384.36L349.135 378.783L350.339 376.806L351.542 374.36L352.746 371.442L353.95 368.074L355.154 364.245L357.561 355.005L363.58 328.615L365.988 318.208L367.191 311.975L369.599 296.762L372.006 279.049L374.414 259.518L376.821 237.272L380.433 202.36L382.84 182.419L385.248 166.701L387.655 154.152L388.859 149.137L390.063 145.273L391.267 142.688L392.47 141.343L393.674 141.124L394.878 141.943L396.082 143.782L397.286 146.671L398.489 150.659L399.693 155.789L400.897 162.126L402.101 169.766L403.304 178.781L405.712 200.285L410.527 247.734L416.546 310.365L418.953 330.679L421.361 347.467L423.768 361.355L426.176 373.272L428.583 383.417L429.787 387.571L430.991 390.989L432.195 393.665L433.399 395.7L434.602 397.281L437.01 399.823L439.417 402.035L441.825 403.874L444.232 405.388L446.64 406.507L449.048 407.135L458.678 408.778L462.289 409.178L465.9 409.637L482.753 410.11L511.643 410.111" stroke="#EFEFEF" stroke-linecap="square"/>
</g>
<mask id="mask2_230_11038" style="mask-type:luminance" maskUnits="userSpaceOnUse" x="76" y="55" width="477" height="356">
<path d="M552.957 55.2959H76.7969V410.112H552.957V55.2959Z" fill="white"/>
</mask>
<g mask="url(#mask2_230_11038)">
<path d="M252.141 410.111L267.572 409.947L273.184 409.793L278.795 409.184L287.213 408.002L290.019 407.299L295.63 405.652L299.839 404.729L301.242 404.196L302.645 403.452L305.45 401.392L308.256 398.848L311.062 396.03L313.868 392.818L316.673 388.982L319.479 384.427L322.285 379.43L323.688 376.721L325.091 373.654L326.494 370.077L332.105 354.373L334.911 347.733L336.314 343.636L337.717 338.554L339.12 332.486L341.925 318.379L346.134 296.598L348.94 283.504L355.954 252.179L360.163 231.754L361.566 225.859L362.969 220.973L364.372 217.248L365.774 214.646L367.177 212.965L368.58 211.98L369.983 211.605L371.386 211.963L372.789 213.265L374.192 215.594L375.595 218.767L379.803 229.406L384.012 238.779L385.415 242.81L386.818 247.727L395.235 281.796L398.041 294.556L403.652 321.548L406.458 333.09L410.667 348.52L414.876 362.944L417.681 371.419L420.487 378.748L423.293 384.959L426.099 390.446L427.502 392.889L428.904 394.983L430.307 396.643L431.71 397.898L434.516 399.738L438.725 402.518L442.933 405.297L445.739 406.651L448.545 407.638L451.351 408.368L454.156 408.767L468.185 409.728L482.214 409.947L494.84 409.856L501.855 410.076L514.481 410.095L528.509 410.106L531.315 410.111" fill="#EFEFEF" fill-opacity="0.4"/>
<path d="M252.141 410.111L267.572 409.947L273.184 409.793L278.795 409.184L287.213 408.002L290.019 407.299L295.63 405.652L299.839 404.729L301.242 404.196L302.645 403.452L305.45 401.392L308.256 398.848L311.062 396.03L313.868 392.818L316.673 388.982L319.479 384.427L322.285 379.43L323.688 376.721L325.091 373.654L326.494 370.077L332.105 354.373L334.911 347.733L336.314 343.636L337.717 338.554L339.12 332.486L341.925 318.379L346.134 296.598L348.94 283.504L355.954 252.179L360.163 231.754L361.566 225.859L362.969 220.973L364.372 217.248L365.774 214.646L367.177 212.965L368.58 211.98L369.983 211.605L371.386 211.963L372.789 213.265L374.192 215.594L375.595 218.767L379.803 229.406L384.012 238.779L385.415 242.81L386.818 247.727L395.235 281.796L398.041 294.556L403.652 321.548L406.458 333.09L410.667 348.52L414.876 362.944L417.681 371.419L420.487 378.748L423.293 384.959L426.099 390.446L427.502 392.889L428.904 394.983L430.307 396.643L431.71 397.898L434.516 399.738L438.725 402.518L442.933 405.297L445.739 406.651L448.545 407.638L451.351 408.368L454.156 408.767L468.185 409.728L482.214 409.947L494.84 409.856L501.855 410.076L514.481 410.095L528.509 410.106L531.315 410.111" stroke="#EFEFEF" stroke-linecap="square"/>
</g>
<mask id="mask3_230_11038" style="mask-type:luminance" maskUnits="userSpaceOnUse" x="76" y="55" width="477" height="356">
<path d="M552.957 55.2959H76.7969V410.112H552.957V55.2959Z" fill="white"/>
</mask>
<g mask="url(#mask3_230_11038)">
<path d="M260.711 410.111L271.169 409.961L292.087 409.338L297.897 408.826L301.383 408.201L303.707 408.185L307.193 408.385L310.68 408.179L313.004 407.764L315.328 407.022L318.814 405.781L321.138 405.487L323.462 405.218L329.273 403.394L335.083 401.029L336.245 400.251L337.407 399.13L339.731 396.327L340.893 394.74L342.055 392.862L343.217 390.58L347.866 380.425L349.028 378.074L350.19 375.316L351.352 371.918L357.162 351.537L358.324 347.023L359.486 341.588L361.81 327.903L367.621 290.325L369.945 270.337L373.431 237.402L376.917 208.659L380.403 182.482L382.728 164.373L385.052 142.101L387.376 120.714L388.538 112.985L389.7 107.77L390.862 104.79L392.024 103.558L393.186 103.78L394.348 105.544L395.51 109.113L396.672 114.588L397.834 121.843L398.996 130.811L400.159 141.756L401.321 155.132L403.645 188.965L407.131 243.631L409.455 276.126L411.779 304.807L414.103 327.936L416.427 347.118L418.752 363.492L419.914 370.207L422.238 381.105L424.562 389.996L425.724 393.73L426.886 396.885L428.048 399.449L429.21 401.5L431.534 404.587L432.696 405.78L433.858 406.727L435.02 407.41L437.345 408.261L441.993 409.677L444.317 409.9L464.072 410.098L480.341 410.083L487.313 410.064L491.962 410.111" fill="#EFEFEF" fill-opacity="0.4"/>
<path d="M260.711 410.111L271.169 409.961L292.087 409.338L297.897 408.826L301.383 408.201L303.707 408.185L307.193 408.385L310.68 408.179L313.004 407.764L315.328 407.022L318.814 405.781L321.138 405.487L323.462 405.218L329.273 403.394L335.083 401.029L336.245 400.251L337.407 399.13L339.731 396.327L340.893 394.74L342.055 392.862L343.217 390.58L347.866 380.425L349.028 378.074L350.19 375.316L351.352 371.918L357.162 351.537L358.324 347.023L359.486 341.588L361.81 327.903L367.621 290.325L369.945 270.337L373.431 237.402L376.917 208.659L380.403 182.482L382.728 164.373L385.052 142.101L387.376 120.714L388.538 112.985L389.7 107.77L390.862 104.79L392.024 103.558L393.186 103.78L394.348 105.544L395.51 109.113L396.672 114.588L397.834 121.843L398.996 130.811L400.159 141.756L401.321 155.132L403.645 188.965L407.131 243.631L409.455 276.126L411.779 304.807L414.103 327.936L416.427 347.118L418.752 363.492L419.914 370.207L422.238 381.105L424.562 389.996L425.724 393.73L426.886 396.885L428.048 399.449L429.21 401.5L431.534 404.587L432.696 405.78L433.858 406.727L435.02 407.41L437.345 408.261L441.993 409.677L444.317 409.9L464.072 410.098L480.341 410.083L487.313 410.064L491.962 410.111" stroke="#EFEFEF" stroke-linecap="square"/>
</g>
<mask id="mask4_230_11038" style="mask-type:luminance" maskUnits="userSpaceOnUse" x="76" y="55" width="477" height="356">
<path d="M552.957 55.2959H76.7969V410.112H552.957V55.2959Z" fill="white"/>
</mask>
<g mask="url(#mask4_230_11038)">
<path d="M236.711 410.111L270.494 409.94L278.94 409.806L283.163 409.67L288.793 408.981L291.608 408.496L294.424 407.771L300.054 406.172L305.685 404.945L311.315 403.056L315.538 402.054L318.353 400.832L326.799 396.384L328.207 395.335L329.614 394.055L331.022 392.528L332.43 390.746L335.245 386.498L340.875 376.981L343.691 371.74L346.506 366.047L349.321 359.704L352.136 352.209L360.582 328.336L361.99 323.683L363.397 318.45L364.805 312.51L367.62 298.752L370.436 284.536L373.251 272.171L376.066 260.423L377.474 253.641L380.289 237.65L383.104 221.16L384.512 213.822L385.919 207.303L387.327 201.618L388.735 196.775L390.142 192.765L391.55 189.525L392.958 186.974L394.365 185.109L395.773 184.059L397.18 184.041L398.588 185.275L399.996 187.883L401.403 191.822L402.811 196.893L404.219 202.872L405.626 209.671L407.034 217.384L408.441 226.169L411.257 246.95L416.887 291.817L419.702 310.632L423.925 335.707L428.148 358.731L430.963 372.4L432.371 378.277L433.779 383.336L435.186 387.584L436.594 391.133L438.002 394.139L439.409 396.737L442.225 401.01L443.632 402.753L445.04 404.252L446.447 405.513L447.855 406.537L449.263 407.337L452.078 408.417L454.893 409.092L457.708 409.508L461.931 409.681L467.562 409.779L476.008 410.097L498.53 410.107L516.829 410.111" fill="#EFEFEF" fill-opacity="0.4"/>
<path d="M236.711 410.111L270.494 409.94L278.94 409.806L283.163 409.67L288.793 408.981L291.608 408.496L294.424 407.771L300.054 406.172L305.685 404.945L311.315 403.056L315.538 402.054L318.353 400.832L326.799 396.384L328.207 395.335L329.614 394.055L331.022 392.528L332.43 390.746L335.245 386.498L340.875 376.981L343.691 371.74L346.506 366.047L349.321 359.704L352.136 352.209L360.582 328.336L361.99 323.683L363.397 318.45L364.805 312.51L367.62 298.752L370.436 284.536L373.251 272.171L376.066 260.423L377.474 253.641L380.289 237.65L383.104 221.16L384.512 213.822L385.919 207.303L387.327 201.618L388.735 196.775L390.142 192.765L391.55 189.525L392.958 186.974L394.365 185.109L395.773 184.059L397.18 184.041L398.588 185.275L399.996 187.883L401.403 191.822L402.811 196.893L404.219 202.872L405.626 209.671L407.034 217.384L408.441 226.169L411.257 246.95L416.887 291.817L419.702 310.632L423.925 335.707L428.148 358.731L430.963 372.4L432.371 378.277L433.779 383.336L435.186 387.584L436.594 391.133L438.002 394.139L439.409 396.737L442.225 401.01L443.632 402.753L445.04 404.252L446.447 405.513L447.855 406.537L449.263 407.337L452.078 408.417L454.893 409.092L457.708 409.508L461.931 409.681L467.562 409.779L476.008 410.097L498.53 410.107L516.829 410.111" stroke="#EFEFEF" stroke-linecap="square"/>
</g>
<mask id="mask5_230_11038" style="mask-type:luminance" maskUnits="userSpaceOnUse" x="76" y="55" width="477" height="356">
<path d="M552.957 55.2959H76.7969V410.112H552.957V55.2959Z" fill="white"/>
</mask>
<g mask="url(#mask5_230_11038)">
<path d="M251.227 410.111L259.179 409.986L267.132 409.748L271.108 409.622L276.409 408.997L284.362 407.927L288.338 407.091L292.314 405.866L298.941 403.679L301.592 402.373L306.894 399.38L310.87 397.647L313.521 396.176L320.148 392.154L325.45 389.559L326.775 388.532L329.426 385.879L332.077 383.24L334.728 381.245L337.378 379.41L338.704 378.267L340.029 376.809L341.355 374.974L346.656 366.586L350.633 361.033L351.958 358.787L353.283 356.221L354.609 353.275L355.934 349.874L357.26 345.939L358.585 341.406L361.236 330.549L363.887 317.66L366.538 302.563L369.188 284.685L371.839 264.506L374.49 241.811L382.442 167.65L383.768 158.106L385.093 150.142L386.419 143.993L387.744 139.833L389.07 137.717L390.395 137.596L391.72 139.396L393.046 143.068L394.371 148.556L395.697 155.783L397.022 164.675L398.347 175.171L400.998 200.252L407.625 268.957L410.276 293.263L412.927 315.64L415.578 335.273L418.229 351.211L420.879 364.806L423.53 376.905L424.856 382.135L426.181 386.661L427.507 390.458L428.832 393.589L430.157 396.169L431.483 398.326L434.134 401.752L436.784 404.299L439.435 406.236L442.086 407.748L444.737 408.712L447.388 409.181L452.689 409.652L464.618 410.011L475.221 409.969L484.499 410.002L493.777 410.008L503.055 410.047L514.984 410.111" fill="#EFEFEF" fill-opacity="0.4"/>
<path d="M251.227 410.111L259.179 409.986L267.132 409.748L271.108 409.622L276.409 408.997L284.362 407.927L288.338 407.091L292.314 405.866L298.941 403.679L301.592 402.373L306.894 399.38L310.87 397.647L313.521 396.176L320.148 392.154L325.45 389.559L326.775 388.532L329.426 385.879L332.077 383.24L334.728 381.245L337.378 379.41L338.704 378.267L340.029 376.809L341.355 374.974L346.656 366.586L350.633 361.033L351.958 358.787L353.283 356.221L354.609 353.275L355.934 349.874L357.26 345.939L358.585 341.406L361.236 330.549L363.887 317.66L366.538 302.563L369.188 284.685L371.839 264.506L374.49 241.811L382.442 167.65L383.768 158.106L385.093 150.142L386.419 143.993L387.744 139.833L389.07 137.717L390.395 137.596L391.72 139.396L393.046 143.068L394.371 148.556L395.697 155.783L397.022 164.675L398.347 175.171L400.998 200.252L407.625 268.957L410.276 293.263L412.927 315.64L415.578 335.273L418.229 351.211L420.879 364.806L423.53 376.905L424.856 382.135L426.181 386.661L427.507 390.458L428.832 393.589L430.157 396.169L431.483 398.326L434.134 401.752L436.784 404.299L439.435 406.236L442.086 407.748L444.737 408.712L447.388 409.181L452.689 409.652L464.618 410.011L475.221 409.969L484.499 410.002L493.777 410.008L503.055 410.047L514.984 410.111" stroke="#EFEFEF" stroke-linecap="square"/>
</g>
<mask id="mask6_230_11038" style="mask-type:luminance" maskUnits="userSpaceOnUse" x="76" y="55" width="477" height="356">
<path d="M552.957 55.2959H76.7969V410.112H552.957V55.2959Z" fill="white"/>
</mask>
<g mask="url(#mask6_230_11038)">
<path d="M219.508 410.112L242.573 409.979L246.898 409.76L251.223 409.239L261.314 407.519L262.755 406.844L264.197 405.843L265.638 404.524L268.521 401.299L271.405 397.828L272.846 395.855L274.288 393.497L275.729 390.656L277.171 387.354L278.612 383.645L280.054 379.505L281.496 374.811L282.937 369.47L287.262 351.128L293.028 326.358L307.444 257.646L308.886 252.297L314.652 233.105L317.535 222.369L318.977 217.808L320.418 214.385L321.86 212.271L323.301 211.421L324.743 211.7L326.185 212.913L327.626 214.747L330.509 218.969L331.951 221.34L333.392 224.293L334.834 228.002L337.717 237.037L340.6 247.296L347.808 274.661L350.691 285.208L353.574 297.174L356.458 311.125L360.782 332.427L363.666 344.989L367.99 362.075L369.432 367.203L370.873 371.619L372.315 375.169L373.757 377.954L379.523 387.337L382.406 392.437L383.848 394.624L385.289 396.431L386.731 397.876L388.172 399.025L391.055 400.744L399.705 405.115L402.588 406.012L409.796 407.817L421.329 409.549L425.653 409.755L429.978 409.707L435.744 409.564L448.719 409.983L466.018 410.044L480.433 410.028L506.382 410.112" fill="#EFEFEF" fill-opacity="0.4"/>
<path d="M219.508 410.112L242.573 409.979L246.898 409.76L251.223 409.239L261.314 407.519L262.755 406.844L264.197 405.843L265.638 404.524L268.521 401.299L271.405 397.828L272.846 395.855L274.288 393.497L275.729 390.656L277.171 387.354L278.612 383.645L280.054 379.505L281.496 374.811L282.937 369.47L287.262 351.128L293.028 326.358L307.444 257.646L308.886 252.297L314.652 233.105L317.535 222.369L318.977 217.808L320.418 214.385L321.86 212.271L323.301 211.421L324.743 211.7L326.185 212.913L327.626 214.747L330.509 218.969L331.951 221.34L333.392 224.293L334.834 228.002L337.717 237.037L340.6 247.296L347.808 274.661L350.691 285.208L353.574 297.174L356.458 311.125L360.782 332.427L363.666 344.989L367.99 362.075L369.432 367.203L370.873 371.619L372.315 375.169L373.757 377.954L379.523 387.337L382.406 392.437L383.848 394.624L385.289 396.431L386.731 397.876L388.172 399.025L391.055 400.744L399.705 405.115L402.588 406.012L409.796 407.817L421.329 409.549L425.653 409.755L429.978 409.707L435.744 409.564L448.719 409.983L466.018 410.044L480.433 410.028L506.382 410.112" stroke="#EFEFEF" stroke-linecap="square"/>
</g>
<mask id="mask7_230_11038" style="mask-type:luminance" maskUnits="userSpaceOnUse" x="76" y="55" width="477" height="356">
<path d="M552.957 55.2959H76.7969V410.112H552.957V55.2959Z" fill="white"/>
</mask>
<g mask="url(#mask7_230_11038)">
<path d="M260.961 410.111L271.673 409.97L282.384 409.624L290.418 408.992L295.774 408.319L298.452 408.285L302.469 408.385L305.147 408.148L307.825 407.494L311.842 406.334L318.536 405.467L322.553 405.157L323.892 404.71L327.909 402.842L330.587 402.405L333.265 401.895L335.943 400.929L338.621 399.519L339.96 398.525L343.977 394.933L346.655 393.235L347.994 392.382L349.333 391.167L350.672 389.45L353.35 384.936L356.027 379.62L357.366 376.388L360.044 368.7L362.722 360.202L364.061 355.425L366.739 343.994L374.773 305.685L376.112 298.078L377.451 289.583L380.129 269.383L388.163 202.135L390.841 180.878L392.18 171.813L393.518 164.742L394.857 159.504L398.874 147.222L400.213 143.714L401.552 141.305L402.891 140.598L404.23 142.123L405.569 146.054L406.908 151.977L408.247 159.21L409.586 167.39L410.925 176.605L412.264 187.022L414.942 211.407L417.62 240.06L422.976 300.047L425.654 327.146L426.993 339.113L428.332 349.621L429.671 358.703L432.348 373.807L435.026 386.363L436.365 391.575L437.704 395.83L439.043 399.084L440.382 401.503L441.721 403.351L443.06 404.835L444.399 406.033L445.738 406.962L448.416 408.214L451.094 409.052L453.772 409.521L460.467 409.943L468.501 410.077L476.534 410.042L484.568 410.102L512.686 410.101L526.076 410.108L527.415 410.111" fill="#EFEFEF" fill-opacity="0.4"/>
<path d="M260.961 410.111L271.673 409.97L282.384 409.624L290.418 408.992L295.774 408.319L298.452 408.285L302.469 408.385L305.147 408.148L307.825 407.494L311.842 406.334L318.536 405.467L322.553 405.157L323.892 404.71L327.909 402.842L330.587 402.405L333.265 401.895L335.943 400.929L338.621 399.519L339.96 398.525L343.977 394.933L346.655 393.235L347.994 392.382L349.333 391.167L350.672 389.45L353.35 384.936L356.027 379.62L357.366 376.388L360.044 368.7L362.722 360.202L364.061 355.425L366.739 343.994L374.773 305.685L376.112 298.078L377.451 289.583L380.129 269.383L388.163 202.135L390.841 180.878L392.18 171.813L393.518 164.742L394.857 159.504L398.874 147.222L400.213 143.714L401.552 141.305L402.891 140.598L404.23 142.123L405.569 146.054L406.908 151.977L408.247 159.21L409.586 167.39L410.925 176.605L412.264 187.022L414.942 211.407L417.62 240.06L422.976 300.047L425.654 327.146L426.993 339.113L428.332 349.621L429.671 358.703L432.348 373.807L435.026 386.363L436.365 391.575L437.704 395.83L439.043 399.084L440.382 401.503L441.721 403.351L443.06 404.835L444.399 406.033L445.738 406.962L448.416 408.214L451.094 409.052L453.772 409.521L460.467 409.943L468.501 410.077L476.534 410.042L484.568 410.102L512.686 410.101L526.076 410.108L527.415 410.111" stroke="#EFEFEF" stroke-linecap="square"/>
</g>
<mask id="mask8_230_11038" style="mask-type:luminance" maskUnits="userSpaceOnUse" x="76" y="55" width="477" height="356">
<path d="M552.957 55.2959H76.7969V410.112H552.957V55.2959Z" fill="white"/>
</mask>
<g mask="url(#mask8_230_11038)">
<path d="M242.273 410.111L261.203 409.999L265.259 409.692L272.019 408.694L274.723 408.193L277.428 407.393L280.132 406.229L282.836 404.737L285.54 402.851L288.244 400.447L289.596 398.97L290.948 397.248L293.653 393.058L300.413 381.42L301.765 378.707L304.469 372.279L307.173 364.666L309.878 355.736L312.582 345.339L315.286 333.621L319.342 315.438L330.159 271.802L335.567 254.482L339.623 239.777L340.975 235.699L342.327 232.263L343.68 229.329L345.032 226.773L346.384 224.592L347.736 222.872L349.088 221.689L350.44 221.073L351.792 221.03L353.144 221.565L354.496 222.666L355.848 224.279L357.2 226.311L359.905 231.327L362.609 237.453L365.313 244.795L368.017 253.769L372.073 269.533L376.13 285.607L378.834 297.877L385.594 332.084L388.298 342.158L395.059 364.821L396.411 368.754L397.763 372.209L400.467 378.029L407.227 390.922L409.932 395.713L412.636 399.74L413.988 401.382L415.34 402.753L416.692 403.84L418.044 404.649L420.748 405.646L426.156 406.909L430.213 407.583L435.621 408.438L442.382 409.585L446.438 409.942L451.846 410.059L468.071 410.112L511.338 410.111" fill="#EFEFEF" fill-opacity="0.4"/>
<path d="M242.273 410.111L261.203 409.999L265.259 409.692L272.019 408.694L274.723 408.193L277.428 407.393L280.132 406.229L282.836 404.737L285.54 402.851L288.244 400.447L289.596 398.97L290.948 397.248L293.653 393.058L300.413 381.42L301.765 378.707L304.469 372.279L307.173 364.666L309.878 355.736L312.582 345.339L315.286 333.621L319.342 315.438L330.159 271.802L335.567 254.482L339.623 239.777L340.975 235.699L342.327 232.263L343.68 229.329L345.032 226.773L346.384 224.592L347.736 222.872L349.088 221.689L350.44 221.073L351.792 221.03L353.144 221.565L354.496 222.666L355.848 224.279L357.2 226.311L359.905 231.327L362.609 237.453L365.313 244.795L368.017 253.769L372.073 269.533L376.13 285.607L378.834 297.877L385.594 332.084L388.298 342.158L395.059 364.821L396.411 368.754L397.763 372.209L400.467 378.029L407.227 390.922L409.932 395.713L412.636 399.74L413.988 401.382L415.34 402.753L416.692 403.84L418.044 404.649L420.748 405.646L426.156 406.909L430.213 407.583L435.621 408.438L442.382 409.585L446.438 409.942L451.846 410.059L468.071 410.112L511.338 410.111" stroke="#EFEFEF" stroke-linecap="square"/>
</g>
<mask id="mask9_230_11038" style="mask-type:luminance" maskUnits="userSpaceOnUse" x="76" y="55" width="477" height="356">
<path d="M552.957 55.2959H76.7969V410.112H552.957V55.2959Z" fill="white"/>
</mask>
<g mask="url(#mask9_230_11038)">
<path d="M242.047 410.111L251.501 409.954L258.592 409.693L262.138 409.67L265.683 409.253L272.774 408.062L277.501 406.973L282.229 405.498L284.592 404.517L285.774 403.862L286.956 403.034L289.32 400.783L292.865 396.913L298.774 391.505L301.138 388.599L303.501 385.319L304.683 383.277L305.865 380.702L307.047 377.481L312.956 358.867L315.32 352.223L316.501 348.079L318.865 337.745L328.32 291.287L334.229 257.839L337.774 240.819L344.865 208.001L349.592 188.324L350.774 183.947L351.956 180.438L353.138 178.104L354.32 176.994L355.501 176.91L356.683 177.58L357.865 178.854L359.047 180.781L360.229 183.519L361.41 187.197L362.592 191.833L364.956 203.475L370.865 236.876L373.229 251.434L375.592 268.053L377.956 287.531L381.501 317.4L383.865 333.714L387.41 354.574L389.774 367.119L392.138 377.507L393.319 381.636L394.501 385.107L396.865 390.726L399.229 395.547L401.592 399.821L403.956 403.32L406.319 405.917L407.501 406.882L409.865 408.253L412.229 409.059L414.592 409.53L418.138 409.935L422.865 410.101L432.319 410.031L442.956 409.833L452.41 410.003L461.865 410.001L474.865 410.105L477.228 410.111" fill="#EFEFEF" fill-opacity="0.4"/>
<path d="M242.047 410.111L251.501 409.954L258.592 409.693L262.138 409.67L265.683 409.253L272.774 408.062L277.501 406.973L282.229 405.498L284.592 404.517L285.774 403.862L286.956 403.034L289.32 400.783L292.865 396.913L298.774 391.505L301.138 388.599L303.501 385.319L304.683 383.277L305.865 380.702L307.047 377.481L312.956 358.867L315.32 352.223L316.501 348.079L318.865 337.745L328.32 291.287L334.229 257.839L337.774 240.819L344.865 208.001L349.592 188.324L350.774 183.947L351.956 180.438L353.138 178.104L354.32 176.994L355.501 176.91L356.683 177.58L357.865 178.854L359.047 180.781L360.229 183.519L361.41 187.197L362.592 191.833L364.956 203.475L370.865 236.876L373.229 251.434L375.592 268.053L377.956 287.531L381.501 317.4L383.865 333.714L387.41 354.574L389.774 367.119L392.138 377.507L393.319 381.636L394.501 385.107L396.865 390.726L399.229 395.547L401.592 399.821L403.956 403.32L406.319 405.917L407.501 406.882L409.865 408.253L412.229 409.059L414.592 409.53L418.138 409.935L422.865 410.101L432.319 410.031L442.956 409.833L452.41 410.003L461.865 410.001L474.865 410.105L477.228 410.111" stroke="#EFEFEF" stroke-linecap="square"/>
</g>
<mask id="mask10_230_11038" style="mask-type:luminance" maskUnits="userSpaceOnUse" x="76" y="55" width="477" height="356">
<path d="M552.957 55.2959H76.7969V410.112H552.957V55.2959Z" fill="white"/>
</mask>
<g mask="url(#mask10_230_11038)">
<path d="M252.383 410.111L265.837 409.964L279.292 408.816L281.738 408.731L289.077 407.808L291.523 407.693L293.969 407.11L296.415 406.088L300.085 404.263L301.308 403.479L302.531 402.501L304.977 399.973L307.423 397.429L308.647 396.659L309.87 396.332L312.316 396.035L313.539 395.404L314.762 394.247L322.101 384.824L324.547 381.117L326.993 377.256L329.44 373.482L330.663 370.662L331.886 366.66L333.109 361.515L335.555 349.443L338.002 336.55L340.448 322.222L342.894 305.897L344.117 296.207L346.563 273.137L349.01 247.168L351.456 218.509L357.572 139.866L360.018 115.989L362.464 93.803L363.687 84.1316L364.91 76.5243L366.133 72.1946L367.357 72.1924L368.58 76.6357L369.803 84.653L371.026 95.1774L372.249 107.641L373.472 121.994L375.918 156.561L379.588 213.546L385.703 297.596L386.927 312.837L388.15 326.204L389.373 337.661L391.819 356.916L394.265 373.069L395.488 379.746L396.712 385.52L397.935 390.458L399.158 394.539L400.381 397.775L401.604 400.29L402.827 402.262L404.05 403.846L405.273 405.135L406.497 406.171L407.72 406.98L410.166 408.096L412.612 408.844L415.058 409.198L419.951 409.577L424.843 409.931L429.736 410.105L461.537 410.112L495.785 410.111" fill="#EFEFEF" fill-opacity="0.4"/>
<path d="M252.383 410.111L265.837 409.964L279.292 408.816L281.738 408.731L289.077 407.808L291.523 407.693L293.969 407.11L296.415 406.088L300.085 404.263L301.308 403.479L302.531 402.501L304.977 399.973L307.423 397.429L308.647 396.659L309.87 396.332L312.316 396.035L313.539 395.404L314.762 394.247L322.101 384.824L324.547 381.117L326.993 377.256L329.44 373.482L330.663 370.662L331.886 366.66L333.109 361.515L335.555 349.443L338.002 336.55L340.448 322.222L342.894 305.897L344.117 296.207L346.563 273.137L349.01 247.168L351.456 218.509L357.572 139.866L360.018 115.989L362.464 93.803L363.687 84.1316L364.91 76.5243L366.133 72.1946L367.357 72.1924L368.58 76.6357L369.803 84.653L371.026 95.1774L372.249 107.641L373.472 121.994L375.918 156.561L379.588 213.546L385.703 297.596L386.927 312.837L388.15 326.204L389.373 337.661L391.819 356.916L394.265 373.069L395.488 379.746L396.712 385.52L397.935 390.458L399.158 394.539L400.381 397.775L401.604 400.29L402.827 402.262L404.05 403.846L405.273 405.135L406.497 406.171L407.72 406.98L410.166 408.096L412.612 408.844L415.058 409.198L419.951 409.577L424.843 409.931L429.736 410.105L461.537 410.112L495.785 410.111" stroke="#EFEFEF" stroke-linecap="square"/>
</g>
<mask id="mask11_230_11038" style="mask-type:luminance" maskUnits="userSpaceOnUse" x="76" y="55" width="477" height="356">
<path d="M552.957 55.2959H76.7969V410.112H552.957V55.2959Z" fill="white"/>
</mask>
<g mask="url(#mask11_230_11038)">
<path d="M250.922 410.111L261.965 409.977L268.867 409.603L274.388 409.337L282.67 409.12L285.431 408.821L288.192 408.275L300.615 404.81L301.996 404.18L304.757 402.419L311.658 397.093L314.419 394.521L317.18 391.288L319.941 387.541L328.223 375.237L329.603 373.043L330.984 370.521L332.364 367.539L333.744 364.05L336.505 355.841L340.646 342.681L343.407 334.839L350.309 316.548L354.45 305.347L357.211 298.067L359.972 289.904L364.113 276.978L366.873 269.364L369.634 262.98L372.395 257.918L376.536 251.688L379.297 247.654L380.677 245.832L382.058 244.301L383.438 243.143L384.818 242.387L386.199 242.032L387.579 242.082L388.959 242.573L390.34 243.578L391.72 245.168L393.101 247.378L394.481 250.17L397.242 257.013L401.383 268.658L404.144 277.461L406.904 287.542L417.947 329.901L424.849 354.447L427.61 363.061L430.371 370.697L433.131 377.56L435.892 383.548L438.653 388.456L441.414 392.403L444.174 395.758L446.935 398.711L449.696 401.196L452.457 403.198L455.217 404.833L457.978 406.194L460.739 407.31L463.5 408.147L466.26 408.649L470.402 408.957L477.303 409.408L482.825 409.796L493.868 410.039L525.617 410.111" fill="#EFEFEF" fill-opacity="0.4"/>
<path d="M250.922 410.111L261.965 409.977L268.867 409.603L274.388 409.337L282.67 409.12L285.431 408.821L288.192 408.275L300.615 404.81L301.996 404.18L304.757 402.419L311.658 397.093L314.419 394.521L317.18 391.288L319.941 387.541L328.223 375.237L329.603 373.043L330.984 370.521L332.364 367.539L333.744 364.05L336.505 355.841L340.646 342.681L343.407 334.839L350.309 316.548L354.45 305.347L357.211 298.067L359.972 289.904L364.113 276.978L366.873 269.364L369.634 262.98L372.395 257.918L376.536 251.688L379.297 247.654L380.677 245.832L382.058 244.301L383.438 243.143L384.818 242.387L386.199 242.032L387.579 242.082L388.959 242.573L390.34 243.578L391.72 245.168L393.101 247.378L394.481 250.17L397.242 257.013L401.383 268.658L404.144 277.461L406.904 287.542L417.947 329.901L424.849 354.447L427.61 363.061L430.371 370.697L433.131 377.56L435.892 383.548L438.653 388.456L441.414 392.403L444.174 395.758L446.935 398.711L449.696 401.196L452.457 403.198L455.217 404.833L457.978 406.194L460.739 407.31L463.5 408.147L466.26 408.649L470.402 408.957L477.303 409.408L482.825 409.796L493.868 410.039L525.617 410.111" stroke="#EFEFEF" stroke-linecap="square"/>
</g>
<mask id="mask12_230_11038" style="mask-type:luminance" maskUnits="userSpaceOnUse" x="76" y="55" width="477" height="356">
<path d="M552.957 55.2959H76.7969V410.112H552.957V55.2959Z" fill="white"/>
</mask>
<g mask="url(#mask12_230_11038)">
<path d="M244.609 410.111L258.935 409.975L266.098 409.614L273.26 409.255L276.126 409.06L278.991 408.434L281.856 407.359L289.019 404.009L293.316 402.562L294.749 401.829L296.181 400.866L299.046 398.366L301.912 395.274L304.777 391.524L313.372 378.866L314.805 376.415L316.237 373.36L319.102 365.74L320.535 361.925L321.967 358.6L324.832 352.911L326.265 349.557L327.698 345.329L329.13 340.26L331.995 328.572L334.86 315.395L340.591 287.464L346.321 261.506L352.051 233.738L353.484 227.948L354.916 223.058L356.349 219.075L357.781 215.987L359.214 213.707L363.511 208.161L364.944 206.068L366.377 204.532L367.809 204.3L369.242 205.857L370.674 209.211L376.404 227.493L379.27 233.431L380.702 236.985L382.135 241.818L383.567 248.229L385 256.18L387.865 275.142L392.163 303.835L395.028 320.883L397.893 336.406L400.758 350.55L403.623 363.628L406.488 375.484L407.921 380.556L409.353 384.866L410.786 388.458L412.218 391.507L415.083 396.641L417.949 400.771L419.381 402.429L420.814 403.824L422.246 404.972L423.679 405.893L426.544 407.216L430.842 408.659L433.707 409.302L436.572 409.51L443.735 409.726L449.465 410.008L460.925 409.981L468.088 410.07L483.846 410.102L513.93 410.093L525.39 410.095L529.688 410.111" fill="#EFEFEF" fill-opacity="0.4"/>
<path d="M244.609 410.111L258.935 409.975L266.098 409.614L273.26 409.255L276.126 409.06L278.991 408.434L281.856 407.359L289.019 404.009L293.316 402.562L294.749 401.829L296.181 400.866L299.046 398.366L301.912 395.274L304.777 391.524L313.372 378.866L314.805 376.415L316.237 373.36L319.102 365.74L320.535 361.925L321.967 358.6L324.832 352.911L326.265 349.557L327.698 345.329L329.13 340.26L331.995 328.572L334.86 315.395L340.591 287.464L346.321 261.506L352.051 233.738L353.484 227.948L354.916 223.058L356.349 219.075L357.781 215.987L359.214 213.707L363.511 208.161L364.944 206.068L366.377 204.532L367.809 204.3L369.242 205.857L370.674 209.211L376.404 227.493L379.27 233.431L380.702 236.985L382.135 241.818L383.567 248.229L385 256.18L387.865 275.142L392.163 303.835L395.028 320.883L397.893 336.406L400.758 350.55L403.623 363.628L406.488 375.484L407.921 380.556L409.353 384.866L410.786 388.458L412.218 391.507L415.083 396.641L417.949 400.771L419.381 402.429L420.814 403.824L422.246 404.972L423.679 405.893L426.544 407.216L430.842 408.659L433.707 409.302L436.572 409.51L443.735 409.726L449.465 410.008L460.925 409.981L468.088 410.07L483.846 410.102L513.93 410.093L525.39 410.095L529.688 410.111" stroke="#EFEFEF" stroke-linecap="square"/>
</g>
<mask id="mask13_230_11038" style="mask-type:luminance" maskUnits="userSpaceOnUse" x="76" y="55" width="477" height="356">
<path d="M552.957 55.2959H76.7969V410.112H552.957V55.2959Z" fill="white"/>
</mask>
<g mask="url(#mask13_230_11038)">
<path d="M238 410.112L248.891 409.987L252.976 409.717L259.783 409.061L263.867 408.672L266.59 408.082L269.313 407.178L274.758 404.788L277.481 403.461L278.843 402.594L280.204 401.5L282.927 398.628L287.011 393.36L291.095 387.553L293.818 383.038L295.18 380.322L296.541 377.161L297.903 373.494L299.264 369.306L301.987 359.523L321.047 283.706L327.854 258.976L330.577 250.243L333.3 242.829L336.022 236.632L338.745 231.379L342.829 224.021L344.191 222.053L345.552 220.845L346.914 220.7L348.275 221.744L349.637 223.86L352.359 229.93L355.082 236.153L357.805 242.269L359.167 245.871L361.889 254.602L367.335 274.2L368.696 279.873L371.419 293.197L375.504 314.889L378.226 327.313L379.588 332.523L380.949 337.046L382.311 340.948L389.118 358.388L393.202 370.366L395.925 377.123L398.648 383.017L401.371 388.359L404.093 392.916L406.816 396.559L409.539 399.352L412.262 401.414L414.985 402.897L417.708 403.875L432.683 407.624L436.768 408.328L443.575 409.101L450.382 409.679L459.912 409.953L466.719 409.947L473.526 410.024L483.056 410.112L508.923 410.112" fill="#EFEFEF" fill-opacity="0.4"/>
<path d="M238 410.112L248.891 409.987L252.976 409.717L259.783 409.061L263.867 408.672L266.59 408.082L269.313 407.178L274.758 404.788L277.481 403.461L278.843 402.594L280.204 401.5L282.927 398.628L287.011 393.36L291.095 387.553L293.818 383.038L295.18 380.322L296.541 377.161L297.903 373.494L299.264 369.306L301.987 359.523L321.047 283.706L327.854 258.976L330.577 250.243L333.3 242.829L336.022 236.632L338.745 231.379L342.829 224.021L344.191 222.053L345.552 220.845L346.914 220.7L348.275 221.744L349.637 223.86L352.359 229.93L355.082 236.153L357.805 242.269L359.167 245.871L361.889 254.602L367.335 274.2L368.696 279.873L371.419 293.197L375.504 314.889L378.226 327.313L379.588 332.523L380.949 337.046L382.311 340.948L389.118 358.388L393.202 370.366L395.925 377.123L398.648 383.017L401.371 388.359L404.093 392.916L406.816 396.559L409.539 399.352L412.262 401.414L414.985 402.897L417.708 403.875L432.683 407.624L436.768 408.328L443.575 409.101L450.382 409.679L459.912 409.953L466.719 409.947L473.526 410.024L483.056 410.112L508.923 410.112" stroke="#EFEFEF" stroke-linecap="square"/>
</g>
<mask id="mask14_230_11038" style="mask-type:luminance" maskUnits="userSpaceOnUse" x="76" y="55" width="477" height="356">
<path d="M552.957 55.2959H76.7969V410.112H552.957V55.2959Z" fill="white"/>
</mask>
<g mask="url(#mask14_230_11038)">
<path d="M98.4375 410.111L186.2 410.112L226.87 409.973L246.135 409.6L248.275 409.29L250.416 408.675L252.556 407.743L254.697 406.577L256.837 405.186L258.978 403.451L261.118 401.305L263.259 398.845L265.399 396.159L267.54 393.047L269.681 389.136L271.821 384.349L276.102 373.396L278.243 367.511L280.383 361.042L282.524 353.363L284.664 343.977L293.226 301.229L301.789 265.277L306.07 245.718L308.21 236.744L310.351 229.697L312.491 224.728L314.632 220.921L316.772 217.604L318.913 214.956L321.054 213.351L323.194 212.984L325.335 214.284L327.475 217.882L329.616 223.74L331.756 230.616L333.897 236.93L338.178 247.647L340.318 254.495L342.459 263.791L348.881 296.96L355.302 326.927L359.583 345.08L361.724 353.361L363.864 360.744L368.145 373.515L370.286 379.225L372.426 384.323L374.567 388.724L376.707 392.507L378.848 395.774L380.989 398.58L383.129 400.976L385.27 403.007L387.41 404.695L389.551 406.067L391.691 407.147L393.832 407.96L395.972 408.499L398.113 408.753L404.534 409.079L408.816 409.407L430.221 409.827L447.345 409.917L455.907 410.036L502.999 410.033L509.421 409.976L524.405 410.111" fill="#7EB0D5" fill-opacity="0.4"/>
<path d="M98.4375 410.111L186.2 410.112L226.87 409.973L246.135 409.6L248.275 409.29L250.416 408.675L252.556 407.743L254.697 406.577L256.837 405.186L258.978 403.451L261.118 401.305L263.259 398.845L265.399 396.159L267.54 393.047L269.681 389.136L271.821 384.349L276.102 373.396L278.243 367.511L280.383 361.042L282.524 353.363L284.664 343.977L293.226 301.229L301.789 265.277L306.07 245.718L308.21 236.744L310.351 229.697L312.491 224.728L314.632 220.921L316.772 217.604L318.913 214.956L321.054 213.351L323.194 212.984L325.335 214.284L327.475 217.882L329.616 223.74L331.756 230.616L333.897 236.93L338.178 247.647L340.318 254.495L342.459 263.791L348.881 296.96L355.302 326.927L359.583 345.08L361.724 353.361L363.864 360.744L368.145 373.515L370.286 379.225L372.426 384.323L374.567 388.724L376.707 392.507L378.848 395.774L380.989 398.58L383.129 400.976L385.27 403.007L387.41 404.695L389.551 406.067L391.691 407.147L393.832 407.96L395.972 408.499L398.113 408.753L404.534 409.079L408.816 409.407L430.221 409.827L447.345 409.917L455.907 410.036L502.999 410.033L509.421 409.976L524.405 410.111" stroke="#7EB0D5" stroke-linecap="square"/>
</g>
<path d="M535.061 411.061C535.646 410.475 535.646 409.525 535.061 408.939L525.515 399.393C524.929 398.808 523.979 398.808 523.393 399.393C522.808 399.979 522.808 400.929 523.393 401.515L531.879 410L523.393 418.485C522.808 419.071 522.808 420.021 523.393 420.607C523.979 421.192 524.929 421.192 525.515 420.607L535.061 411.061ZM79 411.5H534V408.5H79V411.5Z" fill="black"/>
</svg>
