<svg width="615" height="461" viewBox="0 0 615 461" fill="none" xmlns="http://www.w3.org/2000/svg">
<g clip-path="url(#clip0_230_10158)">
<mask id="mask0_230_10158" style="mask-type:luminance" maskUnits="userSpaceOnUse" x="76" y="55" width="477" height="356">
<path d="M552.957 55.2959H76.7969V410.112H552.957V55.2959Z" fill="white"/>
</mask>
<g mask="url(#mask0_230_10158)">
<path d="M338.641 410.111L354.735 410L360.1 409.449L361.888 409.327L362.782 409.054L364.571 408.025L366.359 406.811L367.253 405.983L369.936 402.578L370.83 401.399L371.724 399.958L372.618 397.786L373.512 394.424L374.406 389.733L375.3 383.824L376.195 376.696L377.983 358.891L382.454 308.707L383.348 296.052L385.136 264.312L387.818 216.207L389.607 191.078L390.501 182.621L392.289 171.222L393.183 166.858L394.077 164.281L394.972 163.453L395.866 163.867L396.76 166.153L397.654 171.135L399.442 186.119L400.336 194.707L402.125 216.476L405.701 267.074L407.49 291.537L409.278 312.871L411.066 331.667L412.854 348.069L414.643 361.528L416.431 371.198L418.219 378.874L421.796 391.965L422.69 394.746L423.584 396.981L425.372 400.152L428.949 405.228L430.737 406.735L431.631 407.218L433.42 407.693L435.208 408.037L438.785 409.21L440.573 409.054L442.361 408.979L447.726 409.721L451.303 409.766L453.985 409.942L461.138 409.975L475.444 410.058L479.021 410.081L484.386 410.074L487.962 410.065L494.221 410.112L516.575 410.111" fill="#EFEFEF" fill-opacity="0.4"/>
<path d="M338.641 410.111L354.735 410L360.1 409.449L361.888 409.327L362.782 409.054L364.571 408.025L366.359 406.811L367.253 405.983L369.936 402.578L370.83 401.399L371.724 399.958L372.618 397.786L373.512 394.424L374.406 389.733L375.3 383.824L376.195 376.696L377.983 358.891L382.454 308.707L383.348 296.052L385.136 264.312L387.818 216.207L389.607 191.078L390.501 182.621L392.289 171.222L393.183 166.858L394.077 164.281L394.972 163.453L395.866 163.867L396.76 166.153L397.654 171.135L399.442 186.119L400.336 194.707L402.125 216.476L405.701 267.074L407.49 291.537L409.278 312.871L411.066 331.667L412.854 348.069L414.643 361.528L416.431 371.198L418.219 378.874L421.796 391.965L422.69 394.746L423.584 396.981L425.372 400.152L428.949 405.228L430.737 406.735L431.631 407.218L433.42 407.693L435.208 408.037L438.785 409.21L440.573 409.054L442.361 408.979L447.726 409.721L451.303 409.766L453.985 409.942L461.138 409.975L475.444 410.058L479.021 410.081L484.386 410.074L487.962 410.065L494.221 410.112L516.575 410.111" stroke="#EFEFEF" stroke-linecap="square"/>
</g>
<mask id="mask1_230_10158" style="mask-type:luminance" maskUnits="userSpaceOnUse" x="76" y="55" width="477" height="356">
<path d="M552.957 55.2959H76.7969V410.112H552.957V55.2959Z" fill="white"/>
</mask>
<g mask="url(#mask1_230_10158)">
<path d="M328.023 410.111L353.272 409.93L358.321 409.461L360.005 408.823L361.688 407.882L362.529 407.217L363.371 406.361L364.213 405.28L365.054 403.869L365.896 401.913L366.737 399.224L368.421 391.785L370.104 382.466L374.312 355.795L375.995 348.056L377.678 341.149L378.52 336.883L382.728 311.386L384.411 302.454L385.253 296.712L386.094 289.562L387.778 271.723L390.302 244.949L392.827 218.041L394.511 199.432L395.352 191.785L396.194 186.371L397.035 183.553L397.877 183.052L398.719 184.287L399.56 186.98L400.402 191.218L402.085 203.515L403.768 217.63L404.61 225.93L406.293 248.014L408.818 284.484L411.343 316.222L413.867 343.994L415.551 359.074L416.392 364.777L418.076 373.309L423.125 395.952L423.967 398.507L424.808 400.33L426.492 402.678L428.175 404.494L429.858 405.773L434.066 407.826L435.749 408.452L437.432 408.68L440.799 408.853L445.849 409.54L455.106 409.985L458.473 409.994L471.938 410.064L476.146 410.089L487.929 410.088L492.979 410.087L495.504 410.111" fill="#EFEFEF" fill-opacity="0.4"/>
<path d="M328.023 410.111L353.272 409.93L358.321 409.461L360.005 408.823L361.688 407.882L362.529 407.217L363.371 406.361L364.213 405.28L365.054 403.869L365.896 401.913L366.737 399.224L368.421 391.785L370.104 382.466L374.312 355.795L375.995 348.056L377.678 341.149L378.52 336.883L382.728 311.386L384.411 302.454L385.253 296.712L386.094 289.562L387.778 271.723L390.302 244.949L392.827 218.041L394.511 199.432L395.352 191.785L396.194 186.371L397.035 183.553L397.877 183.052L398.719 184.287L399.56 186.98L400.402 191.218L402.085 203.515L403.768 217.63L404.61 225.93L406.293 248.014L408.818 284.484L411.343 316.222L413.867 343.994L415.551 359.074L416.392 364.777L418.076 373.309L423.125 395.952L423.967 398.507L424.808 400.33L426.492 402.678L428.175 404.494L429.858 405.773L434.066 407.826L435.749 408.452L437.432 408.68L440.799 408.853L445.849 409.54L455.106 409.985L458.473 409.994L471.938 410.064L476.146 410.089L487.929 410.088L492.979 410.087L495.504 410.111" stroke="#EFEFEF" stroke-linecap="square"/>
</g>
<mask id="mask2_230_10158" style="mask-type:luminance" maskUnits="userSpaceOnUse" x="76" y="55" width="477" height="356">
<path d="M552.957 55.2959H76.7969V410.112H552.957V55.2959Z" fill="white"/>
</mask>
<g mask="url(#mask2_230_10158)">
<path d="M326.156 410.111L346.353 409.94L351.621 409.654L355.134 409.704L357.768 409.387L362.158 408.508L363.914 407.848L365.671 406.889L367.427 405.651L370.939 402.456L372.695 400.667L374.452 398.14L377.964 392.545L379.72 389.502L380.598 387.655L381.477 385.387L382.355 382.405L383.233 378.522L386.745 359.38L388.501 348.534L391.136 328.07L393.77 305.819L395.526 286.402L399.917 228.122L400.795 219.79L401.673 213.086L402.551 207.68L403.429 203.363L404.307 200.217L405.185 198.562L406.063 198.695L406.941 200.501L408.698 206.489L409.576 209.817L410.454 213.897L411.332 219.45L413.088 235.027L416.6 270.671L420.113 310.34L421.869 324.774L423.625 335.77L428.894 364.969L430.65 373.308L433.284 383.714L435.041 389.699L436.797 394.264L438.553 397.9L440.309 400.664L441.187 401.59L442.943 402.88L446.456 405.336L448.212 406.524L449.968 407.424L451.724 408.11L454.359 408.744L457.871 409.395L461.384 409.542L464.018 409.695L467.53 410.015L497.386 410.076L500.898 410.111" fill="#EFEFEF" fill-opacity="0.4"/>
<path d="M326.156 410.111L346.353 409.94L351.621 409.654L355.134 409.704L357.768 409.387L362.158 408.508L363.914 407.848L365.671 406.889L367.427 405.651L370.939 402.456L372.695 400.667L374.452 398.14L377.964 392.545L379.72 389.502L380.598 387.655L381.477 385.387L382.355 382.405L383.233 378.522L386.745 359.38L388.501 348.534L391.136 328.07L393.77 305.819L395.526 286.402L399.917 228.122L400.795 219.79L401.673 213.086L402.551 207.68L403.429 203.363L404.307 200.217L405.185 198.562L406.063 198.695L406.941 200.501L408.698 206.489L409.576 209.817L410.454 213.897L411.332 219.45L413.088 235.027L416.6 270.671L420.113 310.34L421.869 324.774L423.625 335.77L428.894 364.969L430.65 373.308L433.284 383.714L435.041 389.699L436.797 394.264L438.553 397.9L440.309 400.664L441.187 401.59L442.943 402.88L446.456 405.336L448.212 406.524L449.968 407.424L451.724 408.11L454.359 408.744L457.871 409.395L461.384 409.542L464.018 409.695L467.53 410.015L497.386 410.076L500.898 410.111" stroke="#EFEFEF" stroke-linecap="square"/>
</g>
<mask id="mask3_230_10158" style="mask-type:luminance" maskUnits="userSpaceOnUse" x="76" y="55" width="477" height="356">
<path d="M552.957 55.2959H76.7969V410.112H552.957V55.2959Z" fill="white"/>
</mask>
<g mask="url(#mask3_230_10158)">
<path d="M341.109 410.111L343.523 410.017L346.741 409.658L348.35 409.554L350.763 408.619L353.981 408.747L355.59 408.437L358.004 408.4L358.808 408.014L360.417 406.616L361.222 406.28L362.831 406.233L363.635 405.953L364.44 405.223L365.244 404L368.462 398.279L369.267 397.179L370.071 396.451L370.876 395.418L371.68 393.392L373.289 387.301L374.094 383.428L374.898 378.255L376.507 363.997L378.116 345.605L380.529 315.524L381.334 305.899L382.138 293.399L383.747 259.349L390.183 117.359L391.792 92.75L392.597 83.8561L393.401 78.0514L394.206 76.8799L395.01 80.4802L395.815 87.7205L396.619 99.2046L397.424 116.606L399.837 186.924L403.055 284.64L404.664 322.103L406.273 349.619L407.882 370.046L408.687 377.962L409.491 384.05L410.296 388.381L411.905 394.842L412.709 397.693L413.514 399.686L415.123 402.115L416.732 405.601L417.536 406.603L420.754 407.619L422.363 407.919L423.972 408.751L425.581 409.487L426.385 409.61L427.994 409.412L429.603 409.208L433.626 409.695L436.039 409.632L448.911 409.897L450.52 409.725L454.543 409.892L457.761 409.777L460.174 410.077L472.241 410.066L475.459 410.089L478.677 410.041L481.895 410.092L487.527 409.972L499.594 410.088L501.203 410.111" fill="#EFEFEF" fill-opacity="0.4"/>
<path d="M341.109 410.111L343.523 410.017L346.741 409.658L348.35 409.554L350.763 408.619L353.981 408.747L355.59 408.437L358.004 408.4L358.808 408.014L360.417 406.616L361.222 406.28L362.831 406.233L363.635 405.953L364.44 405.223L365.244 404L368.462 398.279L369.267 397.179L370.071 396.451L370.876 395.418L371.68 393.392L373.289 387.301L374.094 383.428L374.898 378.255L376.507 363.997L378.116 345.605L380.529 315.524L381.334 305.899L382.138 293.399L383.747 259.349L390.183 117.359L391.792 92.75L392.597 83.8561L393.401 78.0514L394.206 76.8799L395.01 80.4802L395.815 87.7205L396.619 99.2046L397.424 116.606L399.837 186.924L403.055 284.64L404.664 322.103L406.273 349.619L407.882 370.046L408.687 377.962L409.491 384.05L410.296 388.381L411.905 394.842L412.709 397.693L413.514 399.686L415.123 402.115L416.732 405.601L417.536 406.603L420.754 407.619L422.363 407.919L423.972 408.751L425.581 409.487L426.385 409.61L427.994 409.412L429.603 409.208L433.626 409.695L436.039 409.632L448.911 409.897L450.52 409.725L454.543 409.892L457.761 409.777L460.174 410.077L472.241 410.066L475.459 410.089L478.677 410.041L481.895 410.092L487.527 409.972L499.594 410.088L501.203 410.111" stroke="#EFEFEF" stroke-linecap="square"/>
</g>
<mask id="mask4_230_10158" style="mask-type:luminance" maskUnits="userSpaceOnUse" x="76" y="55" width="477" height="356">
<path d="M552.957 55.2959H76.7969V410.112H552.957V55.2959Z" fill="white"/>
</mask>
<g mask="url(#mask4_230_10158)">
<path d="M343.719 410.111L346.949 409.977L350.179 409.664L352.602 409.79L354.217 409.576L355.832 409.247L360.678 408.782L363.1 408.366L364.715 407.848L367.138 406.615L369.561 404.995L372.791 402.764L373.599 401.687L374.406 400.108L376.021 395.796L377.636 390.489L378.444 387.231L379.251 383.325L380.059 378.506L380.867 372.236L381.674 363.7L382.482 352.323L384.097 322.801L385.712 288.782L388.135 229.517L390.557 169.809L391.365 154.647L392.172 143.206L392.98 135.09L393.788 129.724L394.595 127.36L395.403 128.904L396.21 134.679L397.018 143.774L399.44 177.93L403.478 238.466L405.093 254.104L406.709 269.908L409.131 294.07L413.169 328.325L417.207 355.891L418.822 366.68L420.437 375.534L422.052 382.477L426.09 396.764L426.898 398.869L427.705 400.427L428.513 401.545L430.128 403.085L431.743 404.057L433.358 404.812L436.588 407.079L440.626 408.594L442.241 408.82L443.856 408.988L446.279 409.558L450.317 409.82L455.162 409.856L457.585 410.013L491.502 410.03L504.423 410.111" fill="#EFEFEF" fill-opacity="0.4"/>
<path d="M343.719 410.111L346.949 409.977L350.179 409.664L352.602 409.79L354.217 409.576L355.832 409.247L360.678 408.782L363.1 408.366L364.715 407.848L367.138 406.615L369.561 404.995L372.791 402.764L373.599 401.687L374.406 400.108L376.021 395.796L377.636 390.489L378.444 387.231L379.251 383.325L380.059 378.506L380.867 372.236L381.674 363.7L382.482 352.323L384.097 322.801L385.712 288.782L388.135 229.517L390.557 169.809L391.365 154.647L392.172 143.206L392.98 135.09L393.788 129.724L394.595 127.36L395.403 128.904L396.21 134.679L397.018 143.774L399.44 177.93L403.478 238.466L405.093 254.104L406.709 269.908L409.131 294.07L413.169 328.325L417.207 355.891L418.822 366.68L420.437 375.534L422.052 382.477L426.09 396.764L426.898 398.869L427.705 400.427L428.513 401.545L430.128 403.085L431.743 404.057L433.358 404.812L436.588 407.079L440.626 408.594L442.241 408.82L443.856 408.988L446.279 409.558L450.317 409.82L455.162 409.856L457.585 410.013L491.502 410.03L504.423 410.111" stroke="#EFEFEF" stroke-linecap="square"/>
</g>
<mask id="mask5_230_10158" style="mask-type:luminance" maskUnits="userSpaceOnUse" x="76" y="55" width="477" height="356">
<path d="M552.957 55.2959H76.7969V410.112H552.957V55.2959Z" fill="white"/>
</mask>
<g mask="url(#mask5_230_10158)">
<path d="M330.406 410.111L343.599 409.947L346.426 409.791L350.195 409.746L352.08 409.394L353.964 408.808L356.791 407.726L359.618 406.974L360.561 406.567L361.503 405.934L362.445 404.994L364.33 402.358L368.099 396.707L369.984 392.663L370.926 390.038L371.869 386.636L373.753 377.849L374.696 372.44L375.638 365.667L376.58 356.681L377.523 344.119L378.465 326.48L382.234 236.065L383.176 221.687L386.003 186.465L388.83 144.916L389.773 135.105L390.715 128.858L391.657 127.34L392.6 131.432L393.542 140.962L394.484 154.781L396.369 189.029L399.196 241.194L401.081 268.954L403.908 306.526L405.792 325.793L410.504 365.674L411.446 372.498L412.389 378.022L413.331 382.161L414.273 385.299L416.158 390.121L418.042 393.909L418.985 395.313L419.927 396.209L421.812 397.432L422.754 398.492L424.639 400.97L426.523 402.59L431.235 406.228L433.12 407.041L435.004 407.51L437.831 407.825L439.716 408.595L441.601 409.351L443.485 409.667L445.37 409.557L448.197 409.195L450.081 409.31L451.966 409.476L457.62 409.59L461.389 409.935L473.64 409.741L476.467 410.052L483.063 409.973L491.544 409.915L500.025 409.98L507.563 410.024L512.275 410.043L517.929 410.111" fill="#EFEFEF" fill-opacity="0.4"/>
<path d="M330.406 410.111L343.599 409.947L346.426 409.791L350.195 409.746L352.08 409.394L353.964 408.808L356.791 407.726L359.618 406.974L360.561 406.567L361.503 405.934L362.445 404.994L364.33 402.358L368.099 396.707L369.984 392.663L370.926 390.038L371.869 386.636L373.753 377.849L374.696 372.44L375.638 365.667L376.58 356.681L377.523 344.119L378.465 326.48L382.234 236.065L383.176 221.687L386.003 186.465L388.83 144.916L389.773 135.105L390.715 128.858L391.657 127.34L392.6 131.432L393.542 140.962L394.484 154.781L396.369 189.029L399.196 241.194L401.081 268.954L403.908 306.526L405.792 325.793L410.504 365.674L411.446 372.498L412.389 378.022L413.331 382.161L414.273 385.299L416.158 390.121L418.042 393.909L418.985 395.313L419.927 396.209L421.812 397.432L422.754 398.492L424.639 400.97L426.523 402.59L431.235 406.228L433.12 407.041L435.004 407.51L437.831 407.825L439.716 408.595L441.601 409.351L443.485 409.667L445.37 409.557L448.197 409.195L450.081 409.31L451.966 409.476L457.62 409.59L461.389 409.935L473.64 409.741L476.467 410.052L483.063 409.973L491.544 409.915L500.025 409.98L507.563 410.024L512.275 410.043L517.929 410.111" stroke="#EFEFEF" stroke-linecap="square"/>
</g>
<mask id="mask6_230_10158" style="mask-type:luminance" maskUnits="userSpaceOnUse" x="76" y="55" width="477" height="356">
<path d="M552.957 55.2959H76.7969V410.112H552.957V55.2959Z" fill="white"/>
</mask>
<g mask="url(#mask6_230_10158)">
<path d="M321.141 410.111L334.991 409.921L343.895 409.536L345.873 408.999L348.841 407.982L350.82 407.611L352.799 407.311L353.788 406.981L355.766 405.837L357.745 404.313L359.724 402.489L362.692 399.216L364.67 396.467L366.649 392.834L370.606 384.409L371.595 382.043L372.585 379.28L373.574 375.993L375.553 367.905L379.51 349.724L381.488 339.424L384.456 321.323L389.403 290.026L394.349 263.022L395.339 258.378L396.328 254.611L397.317 251.669L398.307 249.367L399.296 247.663L400.285 246.748L401.275 246.858L402.264 248.032L403.253 250.088L404.243 252.804L405.232 256.083L407.211 264.339L409.189 274.386L411.168 285.584L413.146 298.364L417.104 325.061L419.082 335.784L421.061 344.701L428.975 376.179L430.954 382.682L432.933 387.696L434.911 391.623L436.89 394.634L440.847 399.67L442.826 401.966L444.804 403.816L447.772 406.057L449.751 407.112L452.719 407.979L456.676 408.994L459.644 409.356L462.612 409.413L469.537 409.409L474.484 409.828L486.355 409.914L490.313 409.935L494.27 410.037L502.184 410L516.035 410.107L518.013 410.111" fill="#EFEFEF" fill-opacity="0.4"/>
<path d="M321.141 410.111L334.991 409.921L343.895 409.536L345.873 408.999L348.841 407.982L350.82 407.611L352.799 407.311L353.788 406.981L355.766 405.837L357.745 404.313L359.724 402.489L362.692 399.216L364.67 396.467L366.649 392.834L370.606 384.409L371.595 382.043L372.585 379.28L373.574 375.993L375.553 367.905L379.51 349.724L381.488 339.424L384.456 321.323L389.403 290.026L394.349 263.022L395.339 258.378L396.328 254.611L397.317 251.669L398.307 249.367L399.296 247.663L400.285 246.748L401.275 246.858L402.264 248.032L403.253 250.088L404.243 252.804L405.232 256.083L407.211 264.339L409.189 274.386L411.168 285.584L413.146 298.364L417.104 325.061L419.082 335.784L421.061 344.701L428.975 376.179L430.954 382.682L432.933 387.696L434.911 391.623L436.89 394.634L440.847 399.67L442.826 401.966L444.804 403.816L447.772 406.057L449.751 407.112L452.719 407.979L456.676 408.994L459.644 409.356L462.612 409.413L469.537 409.409L474.484 409.828L486.355 409.914L490.313 409.935L494.27 410.037L502.184 410L516.035 410.107L518.013 410.111" stroke="#EFEFEF" stroke-linecap="square"/>
</g>
<mask id="mask7_230_10158" style="mask-type:luminance" maskUnits="userSpaceOnUse" x="76" y="55" width="477" height="356">
<path d="M552.957 55.2959H76.7969V410.112H552.957V55.2959Z" fill="white"/>
</mask>
<g mask="url(#mask7_230_10158)">
<path d="M337.922 410.111L347.149 409.972L350.84 409.636L358.222 408.423L360.068 407.798L361.913 407.388L362.836 407.009L363.759 406.291L364.682 405.14L366.527 402.239L369.295 398.858L370.218 396.904L372.986 388.8L374.832 382.348L375.755 378.218L377.6 367.618L379.446 355.949L380.368 349.32L382.214 332.683L384.059 311.985L385.905 289.005L387.75 261.691L390.519 216.272L392.364 192.42L394.21 173.773L395.132 167.507L396.055 163.94L396.978 162.545L397.901 162.903L398.823 165.56L399.746 171.366L400.669 180.135L404.36 223.088L412.665 328.609L414.51 346.471L416.356 360.982L418.201 372.653L420.969 388.4L421.892 392.315L423.738 398.053L425.583 402.474L426.506 403.96L427.429 405.032L429.274 406.529L431.12 407.432L434.811 409.066L436.656 409.286L439.424 409.45L442.193 409.724L444.961 409.955L446.806 410.054L455.111 410.003L457.879 410.002L462.493 410.016L469.875 410.046L474.489 410.032L484.639 410.111L521.549 410.111" fill="#EFEFEF" fill-opacity="0.4"/>
<path d="M337.922 410.111L347.149 409.972L350.84 409.636L358.222 408.423L360.068 407.798L361.913 407.388L362.836 407.009L363.759 406.291L364.682 405.14L366.527 402.239L369.295 398.858L370.218 396.904L372.986 388.8L374.832 382.348L375.755 378.218L377.6 367.618L379.446 355.949L380.368 349.32L382.214 332.683L384.059 311.985L385.905 289.005L387.75 261.691L390.519 216.272L392.364 192.42L394.21 173.773L395.132 167.507L396.055 163.94L396.978 162.545L397.901 162.903L398.823 165.56L399.746 171.366L400.669 180.135L404.36 223.088L412.665 328.609L414.51 346.471L416.356 360.982L418.201 372.653L420.969 388.4L421.892 392.315L423.738 398.053L425.583 402.474L426.506 403.96L427.429 405.032L429.274 406.529L431.12 407.432L434.811 409.066L436.656 409.286L439.424 409.45L442.193 409.724L444.961 409.955L446.806 410.054L455.111 410.003L457.879 410.002L462.493 410.016L469.875 410.046L474.489 410.032L484.639 410.111L521.549 410.111" stroke="#EFEFEF" stroke-linecap="square"/>
</g>
<mask id="mask8_230_10158" style="mask-type:luminance" maskUnits="userSpaceOnUse" x="76" y="55" width="477" height="356">
<path d="M552.957 55.2959H76.7969V410.112H552.957V55.2959Z" fill="white"/>
</mask>
<g mask="url(#mask8_230_10158)">
<path d="M324.734 410.111L335.11 409.98L344.622 409.369L354.133 407.072L354.998 406.623L356.727 405.22L360.186 401.79L363.644 399.441L364.509 398.46L365.374 397.164L367.103 393.808L368.832 389.772L370.562 385.054L372.291 379.79L374.02 373.559L375.75 365.579L377.479 355.751L380.073 338.237L383.532 312.677L392.178 244.288L394.772 229.061L395.637 224.536L396.502 221.076L397.366 219.371L398.231 219.623L399.096 221.397L403.419 234L404.284 237.799L405.148 242.612L406.878 255.077L408.607 270.811L412.93 312.202L415.524 333.056L417.254 344.872L418.983 354.869L421.577 367.88L424.171 378.953L425.9 385.155L427.629 390.026L430.223 396.089L431.953 399.134L433.682 401.1L437.141 404.185L440.599 406.861L442.329 407.871L444.058 408.406L450.975 409.302L457.028 409.777L474.321 410.083L482.103 409.945L492.479 410.067L496.803 410.111" fill="#EFEFEF" fill-opacity="0.4"/>
<path d="M324.734 410.111L335.11 409.98L344.622 409.369L354.133 407.072L354.998 406.623L356.727 405.22L360.186 401.79L363.644 399.441L364.509 398.46L365.374 397.164L367.103 393.808L368.832 389.772L370.562 385.054L372.291 379.79L374.02 373.559L375.75 365.579L377.479 355.751L380.073 338.237L383.532 312.677L392.178 244.288L394.772 229.061L395.637 224.536L396.502 221.076L397.366 219.371L398.231 219.623L399.096 221.397L403.419 234L404.284 237.799L405.148 242.612L406.878 255.077L408.607 270.811L412.93 312.202L415.524 333.056L417.254 344.872L418.983 354.869L421.577 367.88L424.171 378.953L425.9 385.155L427.629 390.026L430.223 396.089L431.953 399.134L433.682 401.1L437.141 404.185L440.599 406.861L442.329 407.871L444.058 408.406L450.975 409.302L457.028 409.777L474.321 410.083L482.103 409.945L492.479 410.067L496.803 410.111" stroke="#EFEFEF" stroke-linecap="square"/>
</g>
<mask id="mask9_230_10158" style="mask-type:luminance" maskUnits="userSpaceOnUse" x="76" y="55" width="477" height="356">
<path d="M552.957 55.2959H76.7969V410.112H552.957V55.2959Z" fill="white"/>
</mask>
<g mask="url(#mask9_230_10158)">
<path d="M328.898 410.111L344.989 409.914L349.012 409.807L355.448 410.091L358.667 409.883L361.08 409.699L362.689 409.655L364.299 409.225L365.908 408.678L367.517 408.671L368.321 408.685L369.126 408.483L372.344 406.877L373.953 406.357L374.758 405.832L375.562 405.008L376.367 403.853L377.171 402.382L377.976 400.589L378.78 398.382L379.585 395.541L380.389 391.692L381.194 386.416L381.999 379.517L383.608 361.81L385.217 340.454L387.63 302.633L394.067 193.013L394.871 183.756L395.676 177.247L396.48 173.329L397.285 171.144L399.699 166.283L400.503 166.893L401.308 170.1L402.112 175.4L403.721 188.623L405.33 204.313L407.744 229.019L409.353 245.142L412.571 281.491L414.18 301.767L415.789 317.378L420.617 357.372L422.226 368.675L423.835 377.516L425.444 384.698L427.053 390.674L428.662 395.211L430.271 398.771L431.076 400.044L435.099 404.975L436.708 406.338L439.121 407.872L440.73 408.625L442.34 408.955L445.558 409.039L453.603 409.88L455.212 409.979L460.844 409.947L464.062 409.93L467.28 409.849L476.13 410.073L481.762 409.995L488.199 410.107L489.003 410.111" fill="#EFEFEF" fill-opacity="0.4"/>
<path d="M328.898 410.111L344.989 409.914L349.012 409.807L355.448 410.091L358.667 409.883L361.08 409.699L362.689 409.655L364.299 409.225L365.908 408.678L367.517 408.671L368.321 408.685L369.126 408.483L372.344 406.877L373.953 406.357L374.758 405.832L375.562 405.008L376.367 403.853L377.171 402.382L377.976 400.589L378.78 398.382L379.585 395.541L380.389 391.692L381.194 386.416L381.999 379.517L383.608 361.81L385.217 340.454L387.63 302.633L394.067 193.013L394.871 183.756L395.676 177.247L396.48 173.329L397.285 171.144L399.699 166.283L400.503 166.893L401.308 170.1L402.112 175.4L403.721 188.623L405.33 204.313L407.744 229.019L409.353 245.142L412.571 281.491L414.18 301.767L415.789 317.378L420.617 357.372L422.226 368.675L423.835 377.516L425.444 384.698L427.053 390.674L428.662 395.211L430.271 398.771L431.076 400.044L435.099 404.975L436.708 406.338L439.121 407.872L440.73 408.625L442.34 408.955L445.558 409.039L453.603 409.88L455.212 409.979L460.844 409.947L464.062 409.93L467.28 409.849L476.13 410.073L481.762 409.995L488.199 410.107L489.003 410.111" stroke="#EFEFEF" stroke-linecap="square"/>
</g>
<mask id="mask10_230_10158" style="mask-type:luminance" maskUnits="userSpaceOnUse" x="76" y="55" width="477" height="356">
<path d="M552.957 55.2959H76.7969V410.112H552.957V55.2959Z" fill="white"/>
</mask>
<g mask="url(#mask10_230_10158)">
<path d="M336.711 410.111L339.248 410.001L342.631 409.368L346.86 410.007L354.471 409.379L357.854 409.426L360.392 408.679L363.775 408.599L364.62 407.995L366.312 406.149L367.158 405.058L368.003 403.634L369.695 399.961L370.54 397.927L371.386 395.426L373.078 388.711L373.923 384.554L374.769 379.559L375.615 373.289L376.461 364.762L377.306 353.129L378.998 322.54L380.689 284.682L381.535 259.607L383.227 191.865L384.918 122.437L385.764 96.8101L386.61 79.6833L387.455 72.1924L388.301 73.2763L389.147 79.7444L389.993 89.1019L391.684 112.466L393.375 142.093L400.987 281.714L402.679 308.944L405.216 340.472L406.907 358.568L408.599 371.682L411.136 388.813L411.982 393.238L412.827 396.151L413.673 397.936L416.21 401.402L417.902 404.686L418.748 405.679L420.439 406.287L422.976 408.138L425.514 408.753L429.742 409.378L433.125 409.332L434.817 409.651L436.508 409.579L438.2 409.439L439.891 409.59L441.583 409.868L445.811 409.956L447.503 410.08L460.189 409.845L466.109 410.102L471.184 410.097L475.412 410.042L477.949 410.06L480.487 410.058L483.024 410.045L486.407 410.097L490.636 409.988L494.018 410.112L505.013 410.111" fill="#EFEFEF" fill-opacity="0.4"/>
<path d="M336.711 410.111L339.248 410.001L342.631 409.368L346.86 410.007L354.471 409.379L357.854 409.426L360.392 408.679L363.775 408.599L364.62 407.995L366.312 406.149L367.158 405.058L368.003 403.634L369.695 399.961L370.54 397.927L371.386 395.426L373.078 388.711L373.923 384.554L374.769 379.559L375.615 373.289L376.461 364.762L377.306 353.129L378.998 322.54L380.689 284.682L381.535 259.607L383.227 191.865L384.918 122.437L385.764 96.8101L386.61 79.6833L387.455 72.1924L388.301 73.2763L389.147 79.7444L389.993 89.1019L391.684 112.466L393.375 142.093L400.987 281.714L402.679 308.944L405.216 340.472L406.907 358.568L408.599 371.682L411.136 388.813L411.982 393.238L412.827 396.151L413.673 397.936L416.21 401.402L417.902 404.686L418.748 405.679L420.439 406.287L422.976 408.138L425.514 408.753L429.742 409.378L433.125 409.332L434.817 409.651L436.508 409.579L438.2 409.439L439.891 409.59L441.583 409.868L445.811 409.956L447.503 410.08L460.189 409.845L466.109 410.102L471.184 410.097L475.412 410.042L477.949 410.06L480.487 410.058L483.024 410.045L486.407 410.097L490.636 409.988L494.018 410.112L505.013 410.111" stroke="#EFEFEF" stroke-linecap="square"/>
</g>
<mask id="mask11_230_10158" style="mask-type:luminance" maskUnits="userSpaceOnUse" x="76" y="55" width="477" height="356">
<path d="M552.957 55.2959H76.7969V410.112H552.957V55.2959Z" fill="white"/>
</mask>
<g mask="url(#mask11_230_10158)">
<path d="M328.227 410.111L343.488 409.938L347.079 409.753L354.261 408.922L356.954 408.476L358.749 407.771L364.136 404.442L365.034 403.53L366.829 401.157L368.624 398.238L369.522 396.318L370.42 393.975L372.215 387.986L374.011 379.981L375.806 371.198L378.5 359.958L379.397 355.111L381.193 342.75L383.886 321.384L386.579 297.571L391.068 256.13L392.863 238.338L393.761 231.998L394.659 227.998L395.556 225.776L396.454 224.473L398.25 222.648L399.147 222.099L400.045 222.005L400.943 222.382L401.84 223.15L402.738 224.414L403.636 226.579L404.534 230.07L405.431 234.962L407.227 247.599L411.716 282.722L413.511 300.436L415.306 319.106L417.102 334.369L418.897 345.123L421.591 359.692L424.284 375.051L426.079 382.803L428.772 392.086L430.568 396.977L431.466 398.797L433.261 401.445L435.057 403.415L436.852 405.025L437.75 405.594L439.545 406.165L441.341 406.57L444.932 407.95L448.523 408.542L450.318 408.949L453.011 409.037L455.704 409.291L460.193 409.916L462.886 409.951L465.579 409.944L469.17 410.007L472.761 410.033L478.148 410.111L506.875 410.111" fill="#EFEFEF" fill-opacity="0.4"/>
<path d="M328.227 410.111L343.488 409.938L347.079 409.753L354.261 408.922L356.954 408.476L358.749 407.771L364.136 404.442L365.034 403.53L366.829 401.157L368.624 398.238L369.522 396.318L370.42 393.975L372.215 387.986L374.011 379.981L375.806 371.198L378.5 359.958L379.397 355.111L381.193 342.75L383.886 321.384L386.579 297.571L391.068 256.13L392.863 238.338L393.761 231.998L394.659 227.998L395.556 225.776L396.454 224.473L398.25 222.648L399.147 222.099L400.045 222.005L400.943 222.382L401.84 223.15L402.738 224.414L403.636 226.579L404.534 230.07L405.431 234.962L407.227 247.599L411.716 282.722L413.511 300.436L415.306 319.106L417.102 334.369L418.897 345.123L421.591 359.692L424.284 375.051L426.079 382.803L428.772 392.086L430.568 396.977L431.466 398.797L433.261 401.445L435.057 403.415L436.852 405.025L437.75 405.594L439.545 406.165L441.341 406.57L444.932 407.95L448.523 408.542L450.318 408.949L453.011 409.037L455.704 409.291L460.193 409.916L462.886 409.951L465.579 409.944L469.17 410.007L472.761 410.033L478.148 410.111L506.875 410.111" stroke="#EFEFEF" stroke-linecap="square"/>
</g>
<mask id="mask12_230_10158" style="mask-type:luminance" maskUnits="userSpaceOnUse" x="76" y="55" width="477" height="356">
<path d="M552.957 55.2959H76.7969V410.112H552.957V55.2959Z" fill="white"/>
</mask>
<g mask="url(#mask12_230_10158)">
<path d="M339.656 410.111L343.464 409.999L346.319 409.896L349.174 409.902L352.03 409.753L353.934 409.697L356.789 409.151L357.741 409.073L358.693 408.84L360.596 407.655L362.5 406.524L365.356 405.083L367.259 403.534L369.163 401.937L370.115 400.656L371.066 398.631L372.018 395.932L372.97 392.376L374.874 382.339L376.777 372.795L377.729 368.341L378.681 362.687L379.633 354.905L380.585 344.68L382.488 318.386L384.392 292.947L385.344 280.473L386.296 265.012L388.199 228.315L389.151 212.915L391.055 190.308L393.91 161.413L394.862 154.814L395.814 151.493L396.766 152.399L397.718 157.219L399.621 171.607L400.573 180.023L401.525 190.892L403.428 220.835L405.332 252.022L409.139 304.147L411.995 337.871L412.947 347.48L414.85 362.404L416.754 375.499L417.706 380.909L418.658 384.69L424.369 400.025L425.32 402.241L426.272 404.022L427.224 405.274L428.176 406.035L430.08 406.858L431.983 407.549L433.887 407.897L435.791 408.272L437.694 408.956L439.598 409.315L442.453 409.522L451.02 409.741L452.923 409.916L457.683 409.877L460.538 409.931L462.442 409.868L467.201 410.111L474.815 410.017L477.671 409.993L481.478 410.11L513.84 410.112L529.069 410.111" fill="#EFEFEF" fill-opacity="0.4"/>
<path d="M339.656 410.111L343.464 409.999L346.319 409.896L349.174 409.902L352.03 409.753L353.934 409.697L356.789 409.151L357.741 409.073L358.693 408.84L360.596 407.655L362.5 406.524L365.356 405.083L367.259 403.534L369.163 401.937L370.115 400.656L371.066 398.631L372.018 395.932L372.97 392.376L374.874 382.339L376.777 372.795L377.729 368.341L378.681 362.687L379.633 354.905L380.585 344.68L382.488 318.386L384.392 292.947L385.344 280.473L386.296 265.012L388.199 228.315L389.151 212.915L391.055 190.308L393.91 161.413L394.862 154.814L395.814 151.493L396.766 152.399L397.718 157.219L399.621 171.607L400.573 180.023L401.525 190.892L403.428 220.835L405.332 252.022L409.139 304.147L411.995 337.871L412.947 347.48L414.85 362.404L416.754 375.499L417.706 380.909L418.658 384.69L424.369 400.025L425.32 402.241L426.272 404.022L427.224 405.274L428.176 406.035L430.08 406.858L431.983 407.549L433.887 407.897L435.791 408.272L437.694 408.956L439.598 409.315L442.453 409.522L451.02 409.741L452.923 409.916L457.683 409.877L460.538 409.931L462.442 409.868L467.201 410.111L474.815 410.017L477.671 409.993L481.478 410.11L513.84 410.112L529.069 410.111" stroke="#EFEFEF" stroke-linecap="square"/>
</g>
<mask id="mask13_230_10158" style="mask-type:luminance" maskUnits="userSpaceOnUse" x="76" y="55" width="477" height="356">
<path d="M552.957 55.2959H76.7969V410.112H552.957V55.2959Z" fill="white"/>
</mask>
<g mask="url(#mask13_230_10158)">
<path d="M324.82 410.111L335.612 409.964L342.479 409.285L347.384 408.45L350.328 407.977L353.271 407.145L354.252 406.667L355.233 405.975L357.195 403.977L360.138 400.708L363.081 397.735L364.062 396.516L365.043 394.988L366.024 393.098L367.987 388.216L369.949 381.761L371.911 373.498L373.873 363.975L375.835 352.928L379.759 326.619L381.721 312.653L383.683 295.244L386.627 267.305L390.551 234.546L391.532 228.474L392.513 224.351L393.494 222.054L394.475 221.16L395.456 221.327L396.437 222.317L397.418 223.883L398.399 225.956L399.38 228.861L400.361 233.096L401.342 238.865L407.229 280.01L409.191 294.495L413.115 327.191L415.077 339.805L417.039 350.618L419.001 360.212L420.963 368.613L423.906 379.422L425.869 385.844L427.831 391.091L429.793 395.289L431.755 398.41L433.717 400.775L436.66 403.805L438.622 405.441L440.584 406.697L442.546 407.538L446.471 408.79L448.433 408.862L450.395 408.842L456.281 409.281L459.224 409.436L464.13 409.834L468.054 410.033L479.826 409.989L486.694 410.067L491.599 410.032L496.504 410.054L519.068 410.109L520.049 410.111" fill="#EFEFEF" fill-opacity="0.4"/>
<path d="M324.82 410.111L335.612 409.964L342.479 409.285L347.384 408.45L350.328 407.977L353.271 407.145L354.252 406.667L355.233 405.975L357.195 403.977L360.138 400.708L363.081 397.735L364.062 396.516L365.043 394.988L366.024 393.098L367.987 388.216L369.949 381.761L371.911 373.498L373.873 363.975L375.835 352.928L379.759 326.619L381.721 312.653L383.683 295.244L386.627 267.305L390.551 234.546L391.532 228.474L392.513 224.351L393.494 222.054L394.475 221.16L395.456 221.327L396.437 222.317L397.418 223.883L398.399 225.956L399.38 228.861L400.361 233.096L401.342 238.865L407.229 280.01L409.191 294.495L413.115 327.191L415.077 339.805L417.039 350.618L419.001 360.212L420.963 368.613L423.906 379.422L425.869 385.844L427.831 391.091L429.793 395.289L431.755 398.41L433.717 400.775L436.66 403.805L438.622 405.441L440.584 406.697L442.546 407.538L446.471 408.79L448.433 408.862L450.395 408.842L456.281 409.281L459.224 409.436L464.13 409.834L468.054 410.033L479.826 409.989L486.694 410.067L491.599 410.032L496.504 410.054L519.068 410.109L520.049 410.111" stroke="#EFEFEF" stroke-linecap="square"/>
</g>
<mask id="mask14_230_10158" style="mask-type:luminance" maskUnits="userSpaceOnUse" x="76" y="55" width="477" height="356">
<path d="M552.957 55.2959H76.7969V410.112H552.957V55.2959Z" fill="white"/>
</mask>
<g mask="url(#mask14_230_10158)">
<path d="M98.4375 410.111L128.891 410.112L329.013 409.983L339.889 409.512L344.24 409.186L350.765 407.986L352.941 407.435L355.116 406.314L361.642 402.482L363.817 400.843L368.167 395.693L370.342 393.25L372.518 389.299L374.693 383.985L376.868 377.99L379.043 370.449L383.394 353.773L385.569 343.058L387.744 328.252L389.92 309.914L392.095 285.573L396.445 231.565L398.621 209.713L400.796 196.566L402.971 193.869L405.146 197.442L407.322 208.155L409.497 227.443L411.672 252.491L416.023 306.952L418.198 329.873L420.373 349.153L422.548 364.879L424.723 377.193L426.899 387.31L429.074 394.533L431.249 399.043L433.424 401.827L437.775 405.879L439.95 407.049L446.476 408.695L448.651 409.095L453.002 409.484L468.228 409.956L472.579 410.011L476.929 409.971L481.28 410.021L487.805 410.029L531.31 410.111" fill="#7EB0D5" fill-opacity="0.4"/>
<path d="M98.4375 410.111L128.891 410.112L329.013 409.983L339.889 409.512L344.24 409.186L350.765 407.986L352.941 407.435L355.116 406.314L361.642 402.482L363.817 400.843L368.167 395.693L370.342 393.25L372.518 389.299L374.693 383.985L376.868 377.99L379.043 370.449L383.394 353.773L385.569 343.058L387.744 328.252L389.92 309.914L392.095 285.573L396.445 231.565L398.621 209.713L400.796 196.566L402.971 193.869L405.146 197.442L407.322 208.155L409.497 227.443L411.672 252.491L416.023 306.952L418.198 329.873L420.373 349.153L422.548 364.879L424.723 377.193L426.899 387.31L429.074 394.533L431.249 399.043L433.424 401.827L437.775 405.879L439.95 407.049L446.476 408.695L448.651 409.095L453.002 409.484L468.228 409.956L472.579 410.011L476.929 409.971L481.28 410.021L487.805 410.029L531.31 410.111" stroke="#7EB0D5" stroke-linecap="square"/>
</g>
<path d="M535.061 411.061C535.646 410.475 535.646 409.525 535.061 408.939L525.515 399.393C524.929 398.808 523.979 398.808 523.393 399.393C522.808 399.979 522.808 400.929 523.393 401.515L531.879 410L523.393 418.485C522.808 419.071 522.808 420.021 523.393 420.607C523.979 421.192 524.929 421.192 525.515 420.607L535.061 411.061ZM79 411.5H534V408.5H79V411.5Z" fill="black"/>
</g>
<defs>
<clipPath id="clip0_230_10158">
<rect width="614.4" height="460.8" fill="white"/>
</clipPath>
</defs>
</svg>
