<svg width="615" height="461" viewBox="0 0 615 461" fill="none" xmlns="http://www.w3.org/2000/svg">
<g clip-path="url(#clip0_230_10478)">
<mask id="mask0_230_10478" style="mask-type:luminance" maskUnits="userSpaceOnUse" x="76" y="55" width="477" height="356">
<path d="M552.957 55.2959H76.7969V410.112H552.957V55.2959Z" fill="white"/>
</mask>
<g mask="url(#mask0_230_10478)">
<path d="M342.281 410.111L356.653 409.952L358.449 409.631L361.144 408.747L362.042 408.24L362.94 407.499L364.737 405.447L365.635 404.201L366.533 402.669L368.33 398.476L370.126 393.371L371.024 390.332L371.922 386.537L372.821 381.446L373.719 374.832L375.515 358.751L378.21 331.196L380.006 311.084L381.803 286.964L386.294 212.977L389.887 153.635L391.683 133.344L394.378 103.418L395.276 98.6689L396.174 100.501L397.072 108.379L398.869 132.64L400.665 160.371L406.953 270.663L409.648 308.599L412.342 341.283L414.139 358.58L415.935 370.504L417.731 379.268L418.63 382.36L422.223 392.642L424.019 397.622L424.917 399.434L426.714 402.054L427.612 403.049L428.51 403.8L430.306 404.647L432.103 405.573L435.696 407.964L437.492 408.708L440.187 409.033L444.678 409.582L450.067 409.862L457.253 410L459.948 409.967L463.54 410.023L471.624 410.032L475.217 410.112L480.607 409.975L483.301 409.986L486.894 410.11L515.637 410.026L519.23 410.093L521.026 410.111" fill="#EFEFEF" fill-opacity="0.4"/>
<path d="M342.281 410.111L356.653 409.952L358.449 409.631L361.144 408.747L362.042 408.24L362.94 407.499L364.737 405.447L365.635 404.201L366.533 402.669L368.33 398.476L370.126 393.371L371.024 390.332L371.922 386.537L372.821 381.446L373.719 374.832L375.515 358.751L378.21 331.196L380.006 311.084L381.803 286.964L386.294 212.977L389.887 153.635L391.683 133.344L394.378 103.418L395.276 98.6689L396.174 100.501L397.072 108.379L398.869 132.64L400.665 160.371L406.953 270.663L409.648 308.599L412.342 341.283L414.139 358.58L415.935 370.504L417.731 379.268L418.63 382.36L422.223 392.642L424.019 397.622L424.917 399.434L426.714 402.054L427.612 403.049L428.51 403.8L430.306 404.647L432.103 405.573L435.696 407.964L437.492 408.708L440.187 409.033L444.678 409.582L450.067 409.862L457.253 410L459.948 409.967L463.54 410.023L471.624 410.032L475.217 410.112L480.607 409.975L483.301 409.986L486.894 410.11L515.637 410.026L519.23 410.093L521.026 410.111" stroke="#EFEFEF" stroke-linecap="square"/>
</g>
<mask id="mask1_230_10478" style="mask-type:luminance" maskUnits="userSpaceOnUse" x="76" y="55" width="477" height="356">
<path d="M552.957 55.2959H76.7969V410.112H552.957V55.2959Z" fill="white"/>
</mask>
<g mask="url(#mask1_230_10478)">
<path d="M334.25 410.111L350.507 409.959L356.197 409.397L358.636 408.795L361.074 407.842L362.7 406.833L363.513 406.098L364.326 405.152L365.138 403.939L365.951 402.375L366.764 400.361L367.577 397.824L369.203 391.154L370.828 382.49L373.267 368.111L374.893 360.917L376.518 356.13L378.144 352.089L379.77 346.999L381.395 341.854L382.208 340.105L383.021 338.966L384.647 337.211L385.46 336.021L387.085 332.915L388.711 329.031L390.337 323.778L391.963 317.264L392.775 313.359L393.588 308.628L395.214 295.94L397.653 271.82L399.278 253.519L400.904 231.02L404.155 179.157L405.781 159.988L406.594 153.282L407.407 148.529L408.22 145.701L409.032 144.761L409.845 145.681L410.658 148.44L411.471 153.03L412.284 159.499L413.097 167.955L414.722 190.763L417.161 234.52L419.6 278.799L421.225 303.723L423.664 335.352L425.289 353.32L426.915 367.824L428.541 378.28L430.167 385.622L431.792 391.309L433.418 395.846L435.044 399.515L436.669 402.434L438.295 404.609L439.921 406.153L441.547 407.074L443.172 407.537L445.611 408.132L448.049 408.844L449.675 409.023L452.926 409.164L457.804 409.865L463.494 410.081L472.435 410.111L496.008 410.111" fill="#EFEFEF" fill-opacity="0.4"/>
<path d="M334.25 410.111L350.507 409.959L356.197 409.397L358.636 408.795L361.074 407.842L362.7 406.833L363.513 406.098L364.326 405.152L365.138 403.939L365.951 402.375L366.764 400.361L367.577 397.824L369.203 391.154L370.828 382.49L373.267 368.111L374.893 360.917L376.518 356.13L378.144 352.089L379.77 346.999L381.395 341.854L382.208 340.105L383.021 338.966L384.647 337.211L385.46 336.021L387.085 332.915L388.711 329.031L390.337 323.778L391.963 317.264L392.775 313.359L393.588 308.628L395.214 295.94L397.653 271.82L399.278 253.519L400.904 231.02L404.155 179.157L405.781 159.988L406.594 153.282L407.407 148.529L408.22 145.701L409.032 144.761L409.845 145.681L410.658 148.44L411.471 153.03L412.284 159.499L413.097 167.955L414.722 190.763L417.161 234.52L419.6 278.799L421.225 303.723L423.664 335.352L425.289 353.32L426.915 367.824L428.541 378.28L430.167 385.622L431.792 391.309L433.418 395.846L435.044 399.515L436.669 402.434L438.295 404.609L439.921 406.153L441.547 407.074L443.172 407.537L445.611 408.132L448.049 408.844L449.675 409.023L452.926 409.164L457.804 409.865L463.494 410.081L472.435 410.111L496.008 410.111" stroke="#EFEFEF" stroke-linecap="square"/>
</g>
<mask id="mask2_230_10478" style="mask-type:luminance" maskUnits="userSpaceOnUse" x="76" y="55" width="477" height="356">
<path d="M552.957 55.2959H76.7969V410.112H552.957V55.2959Z" fill="white"/>
</mask>
<g mask="url(#mask2_230_10478)">
<path d="M336.797 410.111L349.329 409.987L355.178 409.378L360.191 408.189L364.369 407.915L366.04 407.453L367.711 406.748L369.382 405.745L371.888 403.869L373.559 402.217L375.23 400.042L377.737 396.292L379.408 393.148L381.079 388.684L382.75 382.645L384.421 374.903L386.092 365.905L387.763 355.477L389.434 342.436L391.105 326.874L393.611 300.215L395.282 279.02L400.295 210.732L401.966 192.686L402.802 186.793L403.637 183.435L404.473 182.056L405.308 181.714L406.979 181.59L407.815 181.92L408.65 183.145L409.486 185.495L411.157 192.426L412.828 200.939L413.663 206.338L415.334 220.171L419.512 257.909L422.018 280.096L427.867 325.402L429.538 336.303L432.88 355.954L435.386 370.903L437.057 378.644L438.728 384.114L441.235 390.045L445.412 399.579L446.248 401.058L447.083 402.21L447.919 403.04L449.59 404.042L452.097 405.289L457.945 408.794L459.616 409.167L465.465 409.553L468.807 409.852L476.326 409.952L483.01 409.954L488.023 410.035L495.543 409.989L503.062 410.111" fill="#EFEFEF" fill-opacity="0.4"/>
<path d="M336.797 410.111L349.329 409.987L355.178 409.378L360.191 408.189L364.369 407.915L366.04 407.453L367.711 406.748L369.382 405.745L371.888 403.869L373.559 402.217L375.23 400.042L377.737 396.292L379.408 393.148L381.079 388.684L382.75 382.645L384.421 374.903L386.092 365.905L387.763 355.477L389.434 342.436L391.105 326.874L393.611 300.215L395.282 279.02L400.295 210.732L401.966 192.686L402.802 186.793L403.637 183.435L404.473 182.056L405.308 181.714L406.979 181.59L407.815 181.92L408.65 183.145L409.486 185.495L411.157 192.426L412.828 200.939L413.663 206.338L415.334 220.171L419.512 257.909L422.018 280.096L427.867 325.402L429.538 336.303L432.88 355.954L435.386 370.903L437.057 378.644L438.728 384.114L441.235 390.045L445.412 399.579L446.248 401.058L447.083 402.21L447.919 403.04L449.59 404.042L452.097 405.289L457.945 408.794L459.616 409.167L465.465 409.553L468.807 409.852L476.326 409.952L483.01 409.954L488.023 410.035L495.543 409.989L503.062 410.111" stroke="#EFEFEF" stroke-linecap="square"/>
</g>
<mask id="mask3_230_10478" style="mask-type:luminance" maskUnits="userSpaceOnUse" x="76" y="55" width="477" height="356">
<path d="M552.957 55.2959H76.7969V410.112H552.957V55.2959Z" fill="white"/>
</mask>
<g mask="url(#mask3_230_10478)">
<path d="M344.383 410.111L347.405 409.989L350.426 409.512L353.448 408.555L354.959 407.783L356.47 406.737L357.226 405.909L360.247 401.495L361.758 399.511L362.514 398.151L363.269 396.367L364.025 393.98L365.536 387.376L367.046 378.818L369.313 363.587L370.824 350.423L373.09 324.156L376.867 279.361L379.134 242.681L380.645 216.088L382.911 167.719L385.933 100.256L386.688 88.3268L387.444 80.5796L388.199 76.6612L389.71 73.3397L390.465 72.1924L391.221 72.9374L391.976 76.8105L392.732 84.0726L393.487 94.5365L394.998 122.773L396.509 158.621L400.286 261.578L402.553 312.345L404.064 338.718L405.575 357.91L407.085 372.891L408.596 384.797L410.107 393.95L410.863 397.226L411.618 399.679L413.129 402.959L414.64 405.309L415.395 406.095L416.151 406.534L417.662 406.748L419.173 407.034L424.461 408.704L426.727 409.267L428.238 409.496L432.015 409.337L434.282 409.555L438.059 409.474L441.081 409.802L445.614 409.966L447.88 410.006L451.657 409.813L465.255 409.888L468.277 409.955L471.299 409.968L490.941 409.994L494.718 410.111" fill="#EFEFEF" fill-opacity="0.4"/>
<path d="M344.383 410.111L347.405 409.989L350.426 409.512L353.448 408.555L354.959 407.783L356.47 406.737L357.226 405.909L360.247 401.495L361.758 399.511L362.514 398.151L363.269 396.367L364.025 393.98L365.536 387.376L367.046 378.818L369.313 363.587L370.824 350.423L373.09 324.156L376.867 279.361L379.134 242.681L380.645 216.088L382.911 167.719L385.933 100.256L386.688 88.3268L387.444 80.5796L388.199 76.6612L389.71 73.3397L390.465 72.1924L391.221 72.9374L391.976 76.8105L392.732 84.0726L393.487 94.5365L394.998 122.773L396.509 158.621L400.286 261.578L402.553 312.345L404.064 338.718L405.575 357.91L407.085 372.891L408.596 384.797L410.107 393.95L410.863 397.226L411.618 399.679L413.129 402.959L414.64 405.309L415.395 406.095L416.151 406.534L417.662 406.748L419.173 407.034L424.461 408.704L426.727 409.267L428.238 409.496L432.015 409.337L434.282 409.555L438.059 409.474L441.081 409.802L445.614 409.966L447.88 410.006L451.657 409.813L465.255 409.888L468.277 409.955L471.299 409.968L490.941 409.994L494.718 410.111" stroke="#EFEFEF" stroke-linecap="square"/>
</g>
<mask id="mask4_230_10478" style="mask-type:luminance" maskUnits="userSpaceOnUse" x="76" y="55" width="477" height="356">
<path d="M552.957 55.2959H76.7969V410.112H552.957V55.2959Z" fill="white"/>
</mask>
<g mask="url(#mask4_230_10478)">
<path d="M342.133 410.111L350.091 409.973L355.662 409.554L358.845 409.117L360.437 408.899L362.824 408.859L364.416 408.423L367.599 407.294L369.191 406.858L373.966 404.779L374.761 404.14L376.353 402.117L377.945 399.504L379.536 396.182L384.311 384.967L385.107 381.802L385.903 377.742L387.494 367.297L389.086 354.712L390.678 339.56L392.269 319.11L393.861 292.709L397.84 221.653L400.228 186.774L401.819 165.584L403.411 148.782L404.207 142.85L405.002 138.409L405.798 135.475L406.594 134.348L407.39 135.194L408.186 137.68L409.777 145.29L411.369 155.413L412.961 169.227L414.552 186.742L416.94 216.117L418.531 239.551L422.51 301.193L424.102 321.305L425.694 337.655L427.285 350.303L428.877 360.533L431.264 372.858L432.856 379.876L434.448 385.266L436.039 389.347L437.631 392.088L439.223 394.637L442.406 401.436L443.202 402.477L447.977 406.563L449.568 407.316L451.956 407.967L455.139 408.737L457.526 409.241L461.506 409.406L463.893 409.713L467.872 409.915L470.26 410.088L473.443 409.983L475.83 409.963L480.605 410.112L500.501 410.111" fill="#EFEFEF" fill-opacity="0.4"/>
<path d="M342.133 410.111L350.091 409.973L355.662 409.554L358.845 409.117L360.437 408.899L362.824 408.859L364.416 408.423L367.599 407.294L369.191 406.858L373.966 404.779L374.761 404.14L376.353 402.117L377.945 399.504L379.536 396.182L384.311 384.967L385.107 381.802L385.903 377.742L387.494 367.297L389.086 354.712L390.678 339.56L392.269 319.11L393.861 292.709L397.84 221.653L400.228 186.774L401.819 165.584L403.411 148.782L404.207 142.85L405.002 138.409L405.798 135.475L406.594 134.348L407.39 135.194L408.186 137.68L409.777 145.29L411.369 155.413L412.961 169.227L414.552 186.742L416.94 216.117L418.531 239.551L422.51 301.193L424.102 321.305L425.694 337.655L427.285 350.303L428.877 360.533L431.264 372.858L432.856 379.876L434.448 385.266L436.039 389.347L437.631 392.088L439.223 394.637L442.406 401.436L443.202 402.477L447.977 406.563L449.568 407.316L451.956 407.967L455.139 408.737L457.526 409.241L461.506 409.406L463.893 409.713L467.872 409.915L470.26 410.088L473.443 409.983L475.83 409.963L480.605 410.112L500.501 410.111" stroke="#EFEFEF" stroke-linecap="square"/>
</g>
<mask id="mask5_230_10478" style="mask-type:luminance" maskUnits="userSpaceOnUse" x="76" y="55" width="477" height="356">
<path d="M552.957 55.2959H76.7969V410.112H552.957V55.2959Z" fill="white"/>
</mask>
<g mask="url(#mask5_230_10478)">
<path d="M332.781 410.11L353.896 409.901L359.654 409.435L361.574 408.796L365.412 406.587L366.372 406.229L367.332 405.621L368.292 404.568L369.251 403.04L370.211 401.044L371.171 398.565L372.131 395.579L373.09 391.963L374.05 387.391L375.01 381.397L375.97 373.406L376.929 362.65L377.889 348.437L378.849 330.648L380.768 286.758L382.688 241.44L383.648 221.931L384.607 205.505L385.567 193.098L386.527 184.913L389.406 169.154L391.326 154.127L394.205 129.282L395.165 123.039L396.124 119.473L397.084 119.631L398.044 123.948L399.003 132.155L399.963 143.672L401.883 173.773L403.802 210.469L406.681 267.006L409.561 315.662L410.52 329.645L411.48 340.761L412.44 349.019L413.4 355.291L415.319 365.293L417.239 373.405L419.158 379.402L422.037 386.895L423.957 390.661L425.876 393.149L427.796 395.895L428.755 397.333L429.715 398.383L435.474 402.291L437.393 403.203L439.313 404.834L441.232 406.537L443.152 407.801L444.111 408.235L446.031 408.573L448.91 408.675L450.83 408.673L454.669 409.193L457.548 409.189L465.226 409.844L469.065 409.826L475.783 409.501L480.582 409.78L482.501 409.721L486.34 409.991L489.219 409.96L493.058 410.088L498.817 410.018L500.736 410.025L504.575 409.701L510.334 410.11L523.77 410.11" fill="#EFEFEF" fill-opacity="0.4"/>
<path d="M332.781 410.11L353.896 409.901L359.654 409.435L361.574 408.796L365.412 406.587L366.372 406.229L367.332 405.621L368.292 404.568L369.251 403.04L370.211 401.044L371.171 398.565L372.131 395.579L373.09 391.963L374.05 387.391L375.01 381.397L375.97 373.406L376.929 362.65L377.889 348.437L378.849 330.648L380.768 286.758L382.688 241.44L383.648 221.931L384.607 205.505L385.567 193.098L386.527 184.913L389.406 169.154L391.326 154.127L394.205 129.282L395.165 123.039L396.124 119.473L397.084 119.631L398.044 123.948L399.003 132.155L399.963 143.672L401.883 173.773L403.802 210.469L406.681 267.006L409.561 315.662L410.52 329.645L411.48 340.761L412.44 349.019L413.4 355.291L415.319 365.293L417.239 373.405L419.158 379.402L422.037 386.895L423.957 390.661L425.876 393.149L427.796 395.895L428.755 397.333L429.715 398.383L435.474 402.291L437.393 403.203L439.313 404.834L441.232 406.537L443.152 407.801L444.111 408.235L446.031 408.573L448.91 408.675L450.83 408.673L454.669 409.193L457.548 409.189L465.226 409.844L469.065 409.826L475.783 409.501L480.582 409.78L482.501 409.721L486.34 409.991L489.219 409.96L493.058 410.088L498.817 410.018L500.736 410.025L504.575 409.701L510.334 410.11L523.77 410.11" stroke="#EFEFEF" stroke-linecap="square"/>
</g>
<mask id="mask6_230_10478" style="mask-type:luminance" maskUnits="userSpaceOnUse" x="76" y="55" width="477" height="356">
<path d="M552.957 55.2959H76.7969V410.112H552.957V55.2959Z" fill="white"/>
</mask>
<g mask="url(#mask6_230_10478)">
<path d="M321.195 410.111L332.074 409.945L336.029 409.962L338.996 409.875L342.952 409.722L344.93 409.585L352.841 408.192L356.797 406.548L357.786 406.009L358.775 405.276L360.753 403.215L363.72 399.357L365.698 396.123L366.686 394.016L368.664 388.754L373.609 374.668L374.598 370.705L377.565 356.223L379.543 346.058L381.521 333.391L383.498 317.82L386.465 292.209L388.443 271.944L391.41 239.683L392.399 231.35L393.388 224.761L395.366 214.934L399.321 197.933L400.31 195.568L401.299 195.224L402.288 196.606L403.277 199.007L404.266 202.078L405.255 206.103L406.244 211.53L407.233 218.427L409.211 235L413.167 271.397L416.133 298.747L419.1 322.362L421.078 335.717L424.045 352.241L427.012 367.198L428.99 375.766L430.967 382.85L432.945 388.548L434.923 393.512L436.901 397.444L438.879 400.415L440.857 403.06L441.846 404.151L443.824 405.703L446.79 407.391L448.768 408.147L452.724 409.097L454.702 409.334L458.658 409.395L487.337 409.973L491.293 410.093L501.182 410.094L517.994 410.111" fill="#EFEFEF" fill-opacity="0.4"/>
<path d="M321.195 410.111L332.074 409.945L336.029 409.962L338.996 409.875L342.952 409.722L344.93 409.585L352.841 408.192L356.797 406.548L357.786 406.009L358.775 405.276L360.753 403.215L363.72 399.357L365.698 396.123L366.686 394.016L368.664 388.754L373.609 374.668L374.598 370.705L377.565 356.223L379.543 346.058L381.521 333.391L383.498 317.82L386.465 292.209L388.443 271.944L391.41 239.683L392.399 231.35L393.388 224.761L395.366 214.934L399.321 197.933L400.31 195.568L401.299 195.224L402.288 196.606L403.277 199.007L404.266 202.078L405.255 206.103L406.244 211.53L407.233 218.427L409.211 235L413.167 271.397L416.133 298.747L419.1 322.362L421.078 335.717L424.045 352.241L427.012 367.198L428.99 375.766L430.967 382.85L432.945 388.548L434.923 393.512L436.901 397.444L438.879 400.415L440.857 403.06L441.846 404.151L443.824 405.703L446.79 407.391L448.768 408.147L452.724 409.097L454.702 409.334L458.658 409.395L487.337 409.973L491.293 410.093L501.182 410.094L517.994 410.111" stroke="#EFEFEF" stroke-linecap="square"/>
</g>
<mask id="mask7_230_10478" style="mask-type:luminance" maskUnits="userSpaceOnUse" x="76" y="55" width="477" height="356">
<path d="M552.957 55.2959H76.7969V410.112H552.957V55.2959Z" fill="white"/>
</mask>
<g mask="url(#mask7_230_10478)">
<path d="M341.852 410.111L348.278 409.968L351.032 409.849L354.705 409.93L358.377 409.319L359.295 408.939L362.049 407.181L363.885 406.667L364.803 406.013L365.721 404.813L370.312 397.018L371.23 394.83L372.148 391.94L373.984 384.098L375.82 375.945L377.656 368.213L378.575 363.257L379.493 357.066L380.411 349.402L385.001 302.929L385.919 290.53L390.509 215.973L392.346 186.287L394.182 161.892L396.018 142.263L396.936 134.442L398.772 123.251L399.69 118.149L400.608 114.468L401.526 114.86L402.444 120.106L405.199 144.843L406.117 156.066L407.035 170.632L408.871 206.881L411.625 264.667L413.461 297.101L416.215 340.285L418.052 363.759L418.97 373.207L419.888 380.734L420.806 386.448L422.642 394.856L423.56 398.309L424.478 401.118L425.396 403.163L426.314 404.573L428.15 406.423L429.069 407.071L429.987 407.487L432.741 408.315L434.577 408.952L436.413 409.311L442.84 409.801L444.676 409.831L447.43 409.554L454.775 410.018L457.529 410.03L462.119 409.922L465.791 410.101L478.644 409.952L481.399 410.045L485.071 410.077L491.498 410.112L524.548 410.111" fill="#EFEFEF" fill-opacity="0.4"/>
<path d="M341.852 410.111L348.278 409.968L351.032 409.849L354.705 409.93L358.377 409.319L359.295 408.939L362.049 407.181L363.885 406.667L364.803 406.013L365.721 404.813L370.312 397.018L371.23 394.83L372.148 391.94L373.984 384.098L375.82 375.945L377.656 368.213L378.575 363.257L379.493 357.066L380.411 349.402L385.001 302.929L385.919 290.53L390.509 215.973L392.346 186.287L394.182 161.892L396.018 142.263L396.936 134.442L398.772 123.251L399.69 118.149L400.608 114.468L401.526 114.86L402.444 120.106L405.199 144.843L406.117 156.066L407.035 170.632L408.871 206.881L411.625 264.667L413.461 297.101L416.215 340.285L418.052 363.759L418.97 373.207L419.888 380.734L420.806 386.448L422.642 394.856L423.56 398.309L424.478 401.118L425.396 403.163L426.314 404.573L428.15 406.423L429.069 407.071L429.987 407.487L432.741 408.315L434.577 408.952L436.413 409.311L442.84 409.801L444.676 409.831L447.43 409.554L454.775 410.018L457.529 410.03L462.119 409.922L465.791 410.101L478.644 409.952L481.399 410.045L485.071 410.077L491.498 410.112L524.548 410.111" stroke="#EFEFEF" stroke-linecap="square"/>
</g>
<mask id="mask8_230_10478" style="mask-type:luminance" maskUnits="userSpaceOnUse" x="76" y="55" width="477" height="356">
<path d="M552.957 55.2959H76.7969V410.112H552.957V55.2959Z" fill="white"/>
</mask>
<g mask="url(#mask8_230_10478)">
<path d="M316.523 410.111L340.959 409.928L343.779 409.639L348.478 408.748L351.297 408.168L353.177 407.534L355.057 406.611L356.937 405.293L358.816 403.433L363.515 397.687L364.455 396.708L365.395 395.435L366.335 393.719L367.275 391.54L369.154 386.059L371.974 376.367L372.914 372.385L373.854 367.637L375.733 356.023L378.553 336.071L381.372 313.848L383.252 296.542L386.072 269.037L393.59 204.179L394.53 198.528L395.47 194.09L396.41 190.564L397.35 187.685L398.289 185.521L399.229 184.489L400.169 185.042L401.109 187.382L402.049 191.463L402.989 197.092L404.868 211.433L407.688 235.004L409.568 253.88L412.387 285.02L414.267 301.407L420.846 348.27L423.665 365.892L425.545 375.454L427.424 382.675L430.244 392.257L431.184 394.807L432.124 396.807L433.063 398.324L434.943 400.564L440.582 406.351L442.462 407.634L444.342 408.322L446.221 408.593L449.041 408.823L452.8 409.411L455.62 409.675L458.439 410.029L461.259 410.018L465.958 409.797L473.477 409.948L479.116 410.019L497.912 410.035L503.551 410.111" fill="#EFEFEF" fill-opacity="0.4"/>
<path d="M316.523 410.111L340.959 409.928L343.779 409.639L348.478 408.748L351.297 408.168L353.177 407.534L355.057 406.611L356.937 405.293L358.816 403.433L363.515 397.687L364.455 396.708L365.395 395.435L366.335 393.719L367.275 391.54L369.154 386.059L371.974 376.367L372.914 372.385L373.854 367.637L375.733 356.023L378.553 336.071L381.372 313.848L383.252 296.542L386.072 269.037L393.59 204.179L394.53 198.528L395.47 194.09L396.41 190.564L397.35 187.685L398.289 185.521L399.229 184.489L400.169 185.042L401.109 187.382L402.049 191.463L402.989 197.092L404.868 211.433L407.688 235.004L409.568 253.88L412.387 285.02L414.267 301.407L420.846 348.27L423.665 365.892L425.545 375.454L427.424 382.675L430.244 392.257L431.184 394.807L432.124 396.807L433.063 398.324L434.943 400.564L440.582 406.351L442.462 407.634L444.342 408.322L446.221 408.593L449.041 408.823L452.8 409.411L455.62 409.675L458.439 410.029L461.259 410.018L465.958 409.797L473.477 409.948L479.116 410.019L497.912 410.035L503.551 410.111" stroke="#EFEFEF" stroke-linecap="square"/>
</g>
<mask id="mask9_230_10478" style="mask-type:luminance" maskUnits="userSpaceOnUse" x="76" y="55" width="477" height="356">
<path d="M552.957 55.2959H76.7969V410.112H552.957V55.2959Z" fill="white"/>
</mask>
<g mask="url(#mask9_230_10478)">
<path d="M334.836 410.111L341.59 409.947L344.123 409.962L347.5 410.105L350.877 409.958L354.254 409.709L360.163 409.55L362.696 409.307L366.073 409.029L369.45 408.615L370.294 408.236L372.827 406.432L373.671 405.616L374.516 404.408L376.204 400.85L377.892 396.352L378.737 393.301L379.581 389.448L380.425 384.655L381.269 378.665L382.958 362.715L384.646 342.243L386.335 316.498L388.868 272.978L390.556 236.417L393.933 155.964L394.777 142.217L396.466 121.79L398.154 102.926L398.999 95.6199L399.843 92.6758L400.687 95.5882L401.531 103.839L407.441 183.353L409.974 222.356L412.507 258.155L415.884 310.913L416.728 321.377L417.572 329.724L418.416 336.05L421.793 357.03L424.326 374.002L426.015 382.03L427.703 387.935L430.236 394.832L431.924 398.776L432.769 400.14L435.301 403.006L436.99 404.881L438.678 406.161L442.055 408.157L444.588 408.846L447.121 409.242L449.653 409.424L455.563 409.203L457.252 409.527L458.94 409.85L469.071 409.989L472.448 409.72L475.825 409.88L478.358 409.743L481.735 410.039L485.956 410.087L494.399 410.108L502.841 410.111" fill="#EFEFEF" fill-opacity="0.4"/>
<path d="M334.836 410.111L341.59 409.947L344.123 409.962L347.5 410.105L350.877 409.958L354.254 409.709L360.163 409.55L362.696 409.307L366.073 409.029L369.45 408.615L370.294 408.236L372.827 406.432L373.671 405.616L374.516 404.408L376.204 400.85L377.892 396.352L378.737 393.301L379.581 389.448L380.425 384.655L381.269 378.665L382.958 362.715L384.646 342.243L386.335 316.498L388.868 272.978L390.556 236.417L393.933 155.964L394.777 142.217L396.466 121.79L398.154 102.926L398.999 95.6199L399.843 92.6758L400.687 95.5882L401.531 103.839L407.441 183.353L409.974 222.356L412.507 258.155L415.884 310.913L416.728 321.377L417.572 329.724L418.416 336.05L421.793 357.03L424.326 374.002L426.015 382.03L427.703 387.935L430.236 394.832L431.924 398.776L432.769 400.14L435.301 403.006L436.99 404.881L438.678 406.161L442.055 408.157L444.588 408.846L447.121 409.242L449.653 409.424L455.563 409.203L457.252 409.527L458.94 409.85L469.071 409.989L472.448 409.72L475.825 409.88L478.358 409.743L481.735 410.039L485.956 410.087L494.399 410.108L502.841 410.111" stroke="#EFEFEF" stroke-linecap="square"/>
</g>
<mask id="mask10_230_10478" style="mask-type:luminance" maskUnits="userSpaceOnUse" x="76" y="55" width="477" height="356">
<path d="M552.957 55.2959H76.7969V410.112H552.957V55.2959Z" fill="white"/>
</mask>
<g mask="url(#mask10_230_10478)">
<path d="M337.109 410.111L348.539 409.918L350.298 409.606L352.935 408.844L353.815 408.413L355.573 406.985L357.332 405.225L358.211 404.011L359.09 402.083L359.969 399.095L360.848 394.882L361.728 389.436L362.607 382.808L363.486 374.932L364.365 365.526L365.245 354.189L367.003 325.098L370.52 256.374L372.278 216.534L374.037 173.047L374.916 156.301L375.795 143.74L377.554 125.443L378.433 118.901L379.312 115.032L380.191 114.192L381.071 116.262L381.95 121.238L382.829 129.15L385.467 161.195L389.863 214.538L391.621 237.761L392.501 247.407L396.017 279.723L400.414 328.826L401.293 335.866L408.327 382.138L409.206 387.054L410.085 390.742L410.964 393.365L412.723 396.992L416.24 403.431L417.119 404.68L417.998 405.534L419.757 406.399L423.273 407.889L425.911 408.47L429.428 408.831L431.186 409.144L432.945 409.651L433.824 409.771L435.583 409.508L437.341 409.068L439.099 409.085L442.616 409.736L448.771 409.985L452.288 409.968L455.805 410.11L461.959 409.973L464.597 409.844L467.235 409.941L470.752 409.951L476.027 410.041L483.94 409.887L488.336 410.109L512.075 410.111" fill="#EFEFEF" fill-opacity="0.4"/>
<path d="M337.109 410.111L348.539 409.918L350.298 409.606L352.935 408.844L353.815 408.413L355.573 406.985L357.332 405.225L358.211 404.011L359.09 402.083L359.969 399.095L360.848 394.882L361.728 389.436L362.607 382.808L363.486 374.932L364.365 365.526L365.245 354.189L367.003 325.098L370.52 256.374L372.278 216.534L374.037 173.047L374.916 156.301L375.795 143.74L377.554 125.443L378.433 118.901L379.312 115.032L380.191 114.192L381.071 116.262L381.95 121.238L382.829 129.15L385.467 161.195L389.863 214.538L391.621 237.761L392.501 247.407L396.017 279.723L400.414 328.826L401.293 335.866L408.327 382.138L409.206 387.054L410.085 390.742L410.964 393.365L412.723 396.992L416.24 403.431L417.119 404.68L417.998 405.534L419.757 406.399L423.273 407.889L425.911 408.47L429.428 408.831L431.186 409.144L432.945 409.651L433.824 409.771L435.583 409.508L437.341 409.068L439.099 409.085L442.616 409.736L448.771 409.985L452.288 409.968L455.805 410.11L461.959 409.973L464.597 409.844L467.235 409.941L470.752 409.951L476.027 410.041L483.94 409.887L488.336 410.109L512.075 410.111" stroke="#EFEFEF" stroke-linecap="square"/>
</g>
<mask id="mask11_230_10478" style="mask-type:luminance" maskUnits="userSpaceOnUse" x="76" y="55" width="477" height="356">
<path d="M552.957 55.2959H76.7969V410.112H552.957V55.2959Z" fill="white"/>
</mask>
<g mask="url(#mask11_230_10478)">
<path d="M331.031 410.111L344.895 409.946L348.592 409.391L350.44 408.846L351.364 408.308L355.061 405.566L356.91 404.409L357.834 403.625L358.758 402.625L359.682 401.369L361.531 398.028L363.379 393.649L364.304 390.994L365.228 387.881L367.076 380.067L368.925 370.574L370.773 359.12L372.622 344.529L374.47 327.147L376.319 307.449L381.864 242.942L386.485 198.408L387.409 192.81L388.334 188.983L389.258 186.509L390.182 185.078L391.106 184.647L392.031 185.316L392.955 187.086L393.879 189.734L395.728 196.334L396.652 200.11L397.576 204.594L398.5 210.157L400.349 224.716L402.197 242.872L404.97 272.975L406.818 289.127L414.212 344.661L416.061 355.782L417.909 365.637L419.758 374.364L421.606 381.597L422.53 384.398L423.455 386.648L425.303 390.169L432.697 402.942L433.621 403.972L434.545 404.68L436.394 405.437L440.091 406.404L442.863 407.479L445.636 408.192L460.424 409.764L468.742 409.862L471.515 409.978L477.06 410.036L493.696 410.112L514.954 410.111" fill="#EFEFEF" fill-opacity="0.4"/>
<path d="M331.031 410.111L344.895 409.946L348.592 409.391L350.44 408.846L351.364 408.308L355.061 405.566L356.91 404.409L357.834 403.625L358.758 402.625L359.682 401.369L361.531 398.028L363.379 393.649L364.304 390.994L365.228 387.881L367.076 380.067L368.925 370.574L370.773 359.12L372.622 344.529L374.47 327.147L376.319 307.449L381.864 242.942L386.485 198.408L387.409 192.81L388.334 188.983L389.258 186.509L390.182 185.078L391.106 184.647L392.031 185.316L392.955 187.086L393.879 189.734L395.728 196.334L396.652 200.11L397.576 204.594L398.5 210.157L400.349 224.716L402.197 242.872L404.97 272.975L406.818 289.127L414.212 344.661L416.061 355.782L417.909 365.637L419.758 374.364L421.606 381.597L422.53 384.398L423.455 386.648L425.303 390.169L432.697 402.942L433.621 403.972L434.545 404.68L436.394 405.437L440.091 406.404L442.863 407.479L445.636 408.192L460.424 409.764L468.742 409.862L471.515 409.978L477.06 410.036L493.696 410.112L514.954 410.111" stroke="#EFEFEF" stroke-linecap="square"/>
</g>
<mask id="mask12_230_10478" style="mask-type:luminance" maskUnits="userSpaceOnUse" x="76" y="55" width="477" height="356">
<path d="M552.957 55.2959H76.7969V410.112H552.957V55.2959Z" fill="white"/>
</mask>
<g mask="url(#mask12_230_10478)">
<path d="M334.297 410.111L354.858 409.881L362.691 409.377L363.67 409.087L365.629 408.099L367.587 406.889L368.566 406.043L370.524 403.759L371.503 402.343L373.462 398.808L375.42 394.763L376.399 392.082L377.378 388.619L378.357 384.397L379.336 379.297L380.315 373.092L383.253 350.37L385.211 333.79L386.19 322.57L388.148 293.433L390.107 258.452L394.023 181.67L395.981 150.763L397.939 126.905L399.898 109.182L400.877 104.036L401.856 104.46L402.835 111.002L404.793 132.359L405.772 144.455L406.751 158.498L408.71 192.382L411.647 245.994L413.605 275.873L416.543 312.924L418.501 334.616L420.459 353.259L421.438 361.062L423.396 372.988L425.355 382.85L426.334 386.605L429.271 395.045L430.25 397.617L431.229 399.584L432.209 400.864L434.167 402.731L438.083 407.399L439.062 408.126L440.041 408.551L443.958 409.292L445.916 409.429L449.833 409.367L451.791 409.551L454.728 409.572L456.686 409.722L459.624 409.607L462.561 409.944L495.851 410.075L499.768 410.046L523.266 410.04L526.204 410.058L529.141 410.111" fill="#EFEFEF" fill-opacity="0.4"/>
<path d="M334.297 410.111L354.858 409.881L362.691 409.377L363.67 409.087L365.629 408.099L367.587 406.889L368.566 406.043L370.524 403.759L371.503 402.343L373.462 398.808L375.42 394.763L376.399 392.082L377.378 388.619L378.357 384.397L379.336 379.297L380.315 373.092L383.253 350.37L385.211 333.79L386.19 322.57L388.148 293.433L390.107 258.452L394.023 181.67L395.981 150.763L397.939 126.905L399.898 109.182L400.877 104.036L401.856 104.46L402.835 111.002L404.793 132.359L405.772 144.455L406.751 158.498L408.71 192.382L411.647 245.994L413.605 275.873L416.543 312.924L418.501 334.616L420.459 353.259L421.438 361.062L423.396 372.988L425.355 382.85L426.334 386.605L429.271 395.045L430.25 397.617L431.229 399.584L432.209 400.864L434.167 402.731L438.083 407.399L439.062 408.126L440.041 408.551L443.958 409.292L445.916 409.429L449.833 409.367L451.791 409.551L454.728 409.572L456.686 409.722L459.624 409.607L462.561 409.944L495.851 410.075L499.768 410.046L523.266 410.04L526.204 410.058L529.141 410.111" stroke="#EFEFEF" stroke-linecap="square"/>
</g>
<mask id="mask13_230_10478" style="mask-type:luminance" maskUnits="userSpaceOnUse" x="76" y="55" width="477" height="356">
<path d="M552.957 55.2959H76.7969V410.112H552.957V55.2959Z" fill="white"/>
</mask>
<g mask="url(#mask13_230_10478)">
<path d="M329.32 410.111L335.151 409.967L343.896 409.452L349.726 408.685L356.528 406.702L357.5 406.318L358.472 405.76L359.443 404.976L360.415 403.95L361.387 402.658L362.358 401.041L364.302 396.846L366.245 392.541L368.189 388.658L369.16 386.289L370.132 383.311L371.104 379.609L373.047 370.188L376.934 348.539L378.877 334.18L381.793 307.113L386.651 263.12L391.51 210.954L393.453 194.963L394.425 189.171L395.396 185.255L396.368 182.86L397.34 181.357L398.312 180.522L399.283 180.766L400.255 182.627L401.227 186.203L402.198 191.208L403.17 197.395L405.113 212.797L411.915 273.15L415.802 313.628L417.746 330.89L419.689 345.586L421.633 358.169L423.576 368.442L425.519 376.617L428.434 387.4L429.406 390.307L430.378 392.675L432.321 396.259L435.236 400.799L436.208 402.014L438.152 403.74L441.067 405.646L443.01 406.626L444.953 407.352L449.812 408.692L451.755 409.227L453.699 409.332L458.557 409.306L465.359 409.549L474.105 409.872L477.02 409.805L480.907 409.915L484.794 409.832L490.624 410.109L522.69 410.111" fill="#EFEFEF" fill-opacity="0.4"/>
<path d="M329.32 410.111L335.151 409.967L343.896 409.452L349.726 408.685L356.528 406.702L357.5 406.318L358.472 405.76L359.443 404.976L360.415 403.95L361.387 402.658L362.358 401.041L364.302 396.846L366.245 392.541L368.189 388.658L369.16 386.289L370.132 383.311L371.104 379.609L373.047 370.188L376.934 348.539L378.877 334.18L381.793 307.113L386.651 263.12L391.51 210.954L393.453 194.963L394.425 189.171L395.396 185.255L396.368 182.86L397.34 181.357L398.312 180.522L399.283 180.766L400.255 182.627L401.227 186.203L402.198 191.208L403.17 197.395L405.113 212.797L411.915 273.15L415.802 313.628L417.746 330.89L419.689 345.586L421.633 358.169L423.576 368.442L425.519 376.617L428.434 387.4L429.406 390.307L430.378 392.675L432.321 396.259L435.236 400.799L436.208 402.014L438.152 403.74L441.067 405.646L443.01 406.626L444.953 407.352L449.812 408.692L451.755 409.227L453.699 409.332L458.557 409.306L465.359 409.549L474.105 409.872L477.02 409.805L480.907 409.915L484.794 409.832L490.624 410.109L522.69 410.111" stroke="#EFEFEF" stroke-linecap="square"/>
</g>
<mask id="mask14_230_10478" style="mask-type:luminance" maskUnits="userSpaceOnUse" x="76" y="55" width="477" height="356">
<path d="M552.957 55.2959H76.7969V410.112H552.957V55.2959Z" fill="white"/>
</mask>
<g mask="url(#mask14_230_10478)">
<path d="M98.4375 410.111L128.891 410.112L326.838 410.077L331.188 409.705L333.363 409.506L337.714 409.589L348.59 408.731L350.765 407.857L359.466 402.803L361.642 401.038L363.817 398.621L365.992 394.744L370.342 386.319L374.693 377.868L376.868 371.538L379.043 361.287L383.394 336.271L385.569 322.316L387.744 303.974L389.92 284.119L392.095 260.511L394.27 229.644L396.445 203.126L398.621 183.766L400.796 171.056L402.971 170.829L405.146 179.876L407.322 194.481L409.497 214.767L413.847 259.912L422.548 342.392L424.723 358.48L426.899 370.533L429.074 379.991L431.249 387.467L433.424 393.504L435.6 397.768L439.95 403.923L442.125 405.731L444.301 406.207L446.476 407.072L448.651 408.099L457.352 409.524L461.703 409.692L468.228 409.734L472.579 410.072L479.104 410.021L498.682 410.017L505.207 410.032L531.31 410.111" fill="#7EB0D5" fill-opacity="0.4"/>
<path d="M98.4375 410.111L128.891 410.112L326.838 410.077L331.188 409.705L333.363 409.506L337.714 409.589L348.59 408.731L350.765 407.857L359.466 402.803L361.642 401.038L363.817 398.621L365.992 394.744L370.342 386.319L374.693 377.868L376.868 371.538L379.043 361.287L383.394 336.271L385.569 322.316L387.744 303.974L389.92 284.119L392.095 260.511L394.27 229.644L396.445 203.126L398.621 183.766L400.796 171.056L402.971 170.829L405.146 179.876L407.322 194.481L409.497 214.767L413.847 259.912L422.548 342.392L424.723 358.48L426.899 370.533L429.074 379.991L431.249 387.467L433.424 393.504L435.6 397.768L439.95 403.923L442.125 405.731L444.301 406.207L446.476 407.072L448.651 408.099L457.352 409.524L461.703 409.692L468.228 409.734L472.579 410.072L479.104 410.021L498.682 410.017L505.207 410.032L531.31 410.111" stroke="#7EB0D5" stroke-linecap="square"/>
</g>
<path d="M535.061 411.061C535.646 410.475 535.646 409.525 535.061 408.939L525.515 399.393C524.929 398.808 523.979 398.808 523.393 399.393C522.808 399.979 522.808 400.929 523.393 401.515L531.879 410L523.393 418.485C522.808 419.071 522.808 420.021 523.393 420.607C523.979 421.192 524.929 421.192 525.515 420.607L535.061 411.061ZM79 411.5H534V408.5H79V411.5Z" fill="black"/>
</g>
<defs>
<clipPath id="clip0_230_10478">
<rect width="614.4" height="460.8" fill="white"/>
</clipPath>
</defs>
</svg>
