<svg width="615" height="461" viewBox="0 0 615 461" fill="none" xmlns="http://www.w3.org/2000/svg">
<g clip-path="url(#clip0_230_10558)">
<mask id="mask0_230_10558" style="mask-type:luminance" maskUnits="userSpaceOnUse" x="76" y="55" width="477" height="356">
<path d="M552.957 55.2959H76.7969V410.112H552.957V55.2959Z" fill="white"/>
</mask>
<g mask="url(#mask0_230_10558)">
<path d="M324.469 410.111L327.324 410.011L333.034 409.354L333.986 408.998L334.938 408.433L335.889 407.592L336.841 406.475L337.793 405.11L338.744 403.406L339.696 401.186L340.648 398.257L341.6 394.355L342.551 389.226L343.503 382.806L345.406 366.931L346.358 357.47L347.31 345.961L348.261 331.447L351.117 278.609L353.02 237.983L354.923 192.789L355.875 173.56L356.827 159.212L357.779 148.078L358.73 139.111L359.682 134.146L360.634 134.268L361.585 137.895L362.537 143.03L363.489 149.754L364.441 160.235L365.392 176.214L368.247 233.758L373.958 322.851L374.909 333.989L376.813 348.785L379.668 371.466L380.62 377.29L381.571 381.96L383.475 389.021L384.426 391.549L388.233 398.595L389.185 399.998L391.088 402.135L392.992 404.648L393.944 405.593L394.895 406.218L397.75 407.193L399.654 407.976L401.557 408.753L404.412 408.763L406.316 409.361L407.268 409.491L412.026 409.481L414.881 409.935L416.785 409.897L419.64 409.8L427.253 409.985L430.109 409.847L435.819 410.092L441.529 410.066L445.336 409.991L461.515 410.104L470.08 410.047L474.839 410.112L513.859 410.111" fill="#EFEFEF" fill-opacity="0.4"/>
<path d="M324.469 410.111L327.324 410.011L333.034 409.354L333.986 408.998L334.938 408.433L335.889 407.592L336.841 406.475L337.793 405.11L338.744 403.406L339.696 401.186L340.648 398.257L341.6 394.355L342.551 389.226L343.503 382.806L345.406 366.931L346.358 357.47L347.31 345.961L348.261 331.447L351.117 278.609L353.02 237.983L354.923 192.789L355.875 173.56L356.827 159.212L357.779 148.078L358.73 139.111L359.682 134.146L360.634 134.268L361.585 137.895L362.537 143.03L363.489 149.754L364.441 160.235L365.392 176.214L368.247 233.758L373.958 322.851L374.909 333.989L376.813 348.785L379.668 371.466L380.62 377.29L381.571 381.96L383.475 389.021L384.426 391.549L388.233 398.595L389.185 399.998L391.088 402.135L392.992 404.648L393.944 405.593L394.895 406.218L397.75 407.193L399.654 407.976L401.557 408.753L404.412 408.763L406.316 409.361L407.268 409.491L412.026 409.481L414.881 409.935L416.785 409.897L419.64 409.8L427.253 409.985L430.109 409.847L435.819 410.092L441.529 410.066L445.336 409.991L461.515 410.104L470.08 410.047L474.839 410.112L513.859 410.111" stroke="#EFEFEF" stroke-linecap="square"/>
</g>
<mask id="mask1_230_10558" style="mask-type:luminance" maskUnits="userSpaceOnUse" x="76" y="55" width="477" height="356">
<path d="M552.957 55.2959H76.7969V410.112H552.957V55.2959Z" fill="white"/>
</mask>
<g mask="url(#mask1_230_10558)">
<path d="M320.18 410.11L324.167 409.944L328.951 409.167L332.938 408.48L333.735 407.986L334.532 407.21L335.33 406.129L336.127 404.719L336.924 402.942L338.519 398.192L340.114 391.965L342.506 380.879L344.898 369.542L346.493 363.755L348.087 359.468L350.48 353.803L352.074 350.829L352.872 349.839L353.669 349.315L354.466 349.283L355.264 349.639L356.858 350.65L357.656 350.908L358.453 350.863L359.251 350.461L360.048 349.622L360.845 348.234L361.643 346.207L362.44 343.509L364.035 336.208L365.629 326.278L367.224 313.032L368.819 295.727L374.4 226.81L375.995 209.782L377.59 196.157L378.387 191.129L379.185 187.438L379.982 185.297L380.779 185.058L381.577 187.135L382.374 191.874L383.171 199.424L383.969 209.693L385.564 236.759L388.753 296.233L391.145 332.852L392.74 353.796L394.335 370.503L395.929 382.839L397.524 391.394L399.119 396.949L400.713 400.808L402.308 403.585L403.903 405.413L405.498 406.57L407.89 407.744L411.079 408.886L412.674 409.15L418.256 409.339L422.242 409.78L424.634 409.824L428.621 409.742L437.392 409.997L457.326 410.105L474.868 410.068L478.855 410.111" fill="#EFEFEF" fill-opacity="0.4"/>
<path d="M320.18 410.11L324.167 409.944L328.951 409.167L332.938 408.48L333.735 407.986L334.532 407.21L335.33 406.129L336.127 404.719L336.924 402.942L338.519 398.192L340.114 391.965L342.506 380.879L344.898 369.542L346.493 363.755L348.087 359.468L350.48 353.803L352.074 350.829L352.872 349.839L353.669 349.315L354.466 349.283L355.264 349.639L356.858 350.65L357.656 350.908L358.453 350.863L359.251 350.461L360.048 349.622L360.845 348.234L361.643 346.207L362.44 343.509L364.035 336.208L365.629 326.278L367.224 313.032L368.819 295.727L374.4 226.81L375.995 209.782L377.59 196.157L378.387 191.129L379.185 187.438L379.982 185.297L380.779 185.058L381.577 187.135L382.374 191.874L383.171 199.424L383.969 209.693L385.564 236.759L388.753 296.233L391.145 332.852L392.74 353.796L394.335 370.503L395.929 382.839L397.524 391.394L399.119 396.949L400.713 400.808L402.308 403.585L403.903 405.413L405.498 406.57L407.89 407.744L411.079 408.886L412.674 409.15L418.256 409.339L422.242 409.78L424.634 409.824L428.621 409.742L437.392 409.997L457.326 410.105L474.868 410.068L478.855 410.111" stroke="#EFEFEF" stroke-linecap="square"/>
</g>
<mask id="mask2_230_10558" style="mask-type:luminance" maskUnits="userSpaceOnUse" x="76" y="55" width="477" height="356">
<path d="M552.957 55.2959H76.7969V410.112H552.957V55.2959Z" fill="white"/>
</mask>
<g mask="url(#mask2_230_10558)">
<path d="M316.156 410.111L329.441 409.956L331.212 409.683L332.983 408.915L335.64 407.207L336.526 406.898L339.182 406.438L340.068 405.841L340.954 404.781L341.839 403.212L342.725 401.079L343.611 398.306L345.382 390.95L347.153 381.556L348.924 368.985L350.695 352.636L352.467 332.521L358.666 256.326L360.437 237.382L361.323 229.503L362.209 223.441L363.094 219.234L364.865 213.777L365.751 211.826L366.637 211.195L367.522 212.583L368.408 215.777L370.179 224.278L371.95 234.6L374.607 254.631L379.035 287.85L384.349 327.606L387.006 347.665L388.777 358.522L390.548 366.577L393.205 376.614L394.977 382.381L396.748 387.069L398.519 390.212L399.405 391.734L401.176 395.71L402.947 399.492L403.833 400.712L405.604 402.234L408.261 404.261L410.032 405.054L411.803 405.876L414.46 407.408L416.232 407.954L418.888 408.307L421.545 408.559L428.63 409.663L431.287 409.819L435.715 409.921L439.258 410.009L450.771 409.99L459.627 410.097L468.483 410.062L472.026 409.953L474.683 409.97L479.111 410.111L492.395 410.111" fill="#EFEFEF" fill-opacity="0.4"/>
<path d="M316.156 410.111L329.441 409.956L331.212 409.683L332.983 408.915L335.64 407.207L336.526 406.898L339.182 406.438L340.068 405.841L340.954 404.781L341.839 403.212L342.725 401.079L343.611 398.306L345.382 390.95L347.153 381.556L348.924 368.985L350.695 352.636L352.467 332.521L358.666 256.326L360.437 237.382L361.323 229.503L362.209 223.441L363.094 219.234L364.865 213.777L365.751 211.826L366.637 211.195L367.522 212.583L368.408 215.777L370.179 224.278L371.95 234.6L374.607 254.631L379.035 287.85L384.349 327.606L387.006 347.665L388.777 358.522L390.548 366.577L393.205 376.614L394.977 382.381L396.748 387.069L398.519 390.212L399.405 391.734L401.176 395.71L402.947 399.492L403.833 400.712L405.604 402.234L408.261 404.261L410.032 405.054L411.803 405.876L414.46 407.408L416.232 407.954L418.888 408.307L421.545 408.559L428.63 409.663L431.287 409.819L435.715 409.921L439.258 410.009L450.771 409.99L459.627 410.097L468.483 410.062L472.026 409.953L474.683 409.97L479.111 410.111L492.395 410.111" stroke="#EFEFEF" stroke-linecap="square"/>
</g>
<mask id="mask3_230_10558" style="mask-type:luminance" maskUnits="userSpaceOnUse" x="76" y="55" width="477" height="356">
<path d="M552.957 55.2959H76.7969V410.112H552.957V55.2959Z" fill="white"/>
</mask>
<g mask="url(#mask3_230_10558)">
<path d="M320.453 410.111L327.921 409.944L329.581 409.763L331.24 409.362L332.9 409.377L333.73 409.18L334.559 408.705L336.219 407.232L337.049 406.255L339.538 402.268L340.368 400.832L341.198 398.97L342.857 393.366L343.687 390.176L344.517 386.105L345.346 380.579L346.176 373.665L347.836 355.809L349.495 333.696L351.985 292.479L353.644 260.417L356.134 204.113L358.623 142.783L361.112 88.3451L361.942 76.9572L362.772 72.1924L363.602 72.2497L364.431 75.7072L365.261 82.6599L366.091 92.7976L366.921 107.683L367.75 130.269L369.41 192.464L371.07 258.158L372.729 309.637L374.389 347.811L375.218 362.603L376.048 374.521L376.878 383.401L378.538 395.588L379.367 399.988L380.197 402.793L381.027 404.19L383.516 406.112L386.006 407.673L387.665 408.901L388.495 409.159L389.325 409.082L390.155 408.829L390.984 408.736L393.474 409.326L397.622 409.568L400.112 409.678L401.771 409.72L403.431 409.844L407.58 409.823L412.559 409.987L415.048 409.777L425.835 409.896L428.324 409.838L430.814 409.947L432.473 409.934L434.963 410.052L440.771 409.91L442.431 410.072L447.409 409.949L458.196 410.023L460.686 410.085L465.664 410.073L469.813 409.836L473.132 410.109L485.579 410.111" fill="#EFEFEF" fill-opacity="0.4"/>
<path d="M320.453 410.111L327.921 409.944L329.581 409.763L331.24 409.362L332.9 409.377L333.73 409.18L334.559 408.705L336.219 407.232L337.049 406.255L339.538 402.268L340.368 400.832L341.198 398.97L342.857 393.366L343.687 390.176L344.517 386.105L345.346 380.579L346.176 373.665L347.836 355.809L349.495 333.696L351.985 292.479L353.644 260.417L356.134 204.113L358.623 142.783L361.112 88.3451L361.942 76.9572L362.772 72.1924L363.602 72.2497L364.431 75.7072L365.261 82.6599L366.091 92.7976L366.921 107.683L367.75 130.269L369.41 192.464L371.07 258.158L372.729 309.637L374.389 347.811L375.218 362.603L376.048 374.521L376.878 383.401L378.538 395.588L379.367 399.988L380.197 402.793L381.027 404.19L383.516 406.112L386.006 407.673L387.665 408.901L388.495 409.159L389.325 409.082L390.155 408.829L390.984 408.736L393.474 409.326L397.622 409.568L400.112 409.678L401.771 409.72L403.431 409.844L407.58 409.823L412.559 409.987L415.048 409.777L425.835 409.896L428.324 409.838L430.814 409.947L432.473 409.934L434.963 410.052L440.771 409.91L442.431 410.072L447.409 409.949L458.196 410.023L460.686 410.085L465.664 410.073L469.813 409.836L473.132 410.109L485.579 410.111" stroke="#EFEFEF" stroke-linecap="square"/>
</g>
<mask id="mask4_230_10558" style="mask-type:luminance" maskUnits="userSpaceOnUse" x="76" y="55" width="477" height="356">
<path d="M552.957 55.2959H76.7969V410.112H552.957V55.2959Z" fill="white"/>
</mask>
<g mask="url(#mask4_230_10558)">
<path d="M317.852 410.111L327.231 409.971L328.937 409.676L331.495 408.923L333.2 408.06L334.906 407.008L336.611 406.552L338.316 406.128L340.875 405.145L341.727 404.413L342.58 402.992L343.433 400.619L344.285 397.272L345.991 388.532L347.696 377.418L349.402 362.831L353.665 321.079L355.37 300.178L357.076 275.695L358.781 246.634L362.192 178.207L363.045 166.075L363.897 158.434L364.75 155.238L365.603 155.62L366.456 158.608L367.308 163.786L368.161 171.41L369.014 181.845L374.983 270.883L376.688 290.681L379.246 313.668L381.804 336.041L382.657 341.927L385.215 355.683L386.92 363.428L390.331 374.658L392.037 380.8L393.742 385.579L396.3 391.744L398.006 394.906L401.416 400.622L402.269 401.253L403.974 402.007L408.238 404.781L409.943 405.61L413.354 407.657L414.207 407.815L416.765 407.839L418.47 408.292L421.028 409.025L424.439 409.756L428.703 409.899L432.966 409.897L437.23 410.077L440.641 409.815L443.199 409.861L450.873 410.096L487.539 410.111" fill="#EFEFEF" fill-opacity="0.4"/>
<path d="M317.852 410.111L327.231 409.971L328.937 409.676L331.495 408.923L333.2 408.06L334.906 407.008L336.611 406.552L338.316 406.128L340.875 405.145L341.727 404.413L342.58 402.992L343.433 400.619L344.285 397.272L345.991 388.532L347.696 377.418L349.402 362.831L353.665 321.079L355.37 300.178L357.076 275.695L358.781 246.634L362.192 178.207L363.045 166.075L363.897 158.434L364.75 155.238L365.603 155.62L366.456 158.608L367.308 163.786L368.161 171.41L369.014 181.845L374.983 270.883L376.688 290.681L379.246 313.668L381.804 336.041L382.657 341.927L385.215 355.683L386.92 363.428L390.331 374.658L392.037 380.8L393.742 385.579L396.3 391.744L398.006 394.906L401.416 400.622L402.269 401.253L403.974 402.007L408.238 404.781L409.943 405.61L413.354 407.657L414.207 407.815L416.765 407.839L418.47 408.292L421.028 409.025L424.439 409.756L428.703 409.899L432.966 409.897L437.23 410.077L440.641 409.815L443.199 409.861L450.873 410.096L487.539 410.111" stroke="#EFEFEF" stroke-linecap="square"/>
</g>
<mask id="mask5_230_10558" style="mask-type:luminance" maskUnits="userSpaceOnUse" x="76" y="55" width="477" height="356">
<path d="M552.957 55.2959H76.7969V410.112H552.957V55.2959Z" fill="white"/>
</mask>
<g mask="url(#mask5_230_10558)">
<path d="M316.641 410.111L323.761 409.942L326.812 409.787L328.847 409.477L329.864 409.058L330.881 408.172L331.898 406.409L332.915 403.235L333.933 398.09L334.95 390.518L335.967 380.336L338.001 353.501L340.036 321.266L347.156 202.019L348.173 189.212L349.19 178.435L350.207 169.366L351.225 162.051L352.242 157.542L353.259 157.602L354.276 163.331L355.293 173.98L357.328 201.773L359.362 232.478L362.414 281.241L364.448 306.559L366.482 327.259L368.517 345.91L369.534 353.935L370.551 360.44L371.568 365.387L372.585 369.098L373.603 371.937L375.637 376.206L377.671 380.69L379.706 385.581L380.723 387.359L381.74 388.433L384.791 390.211L385.809 391.525L387.843 394.717L388.86 395.885L389.877 396.656L392.929 398.351L396.998 401.284L400.049 404.268L402.083 405.56L404.118 406.338L406.152 406.708L408.186 406.997L410.221 407.662L413.272 408.648L415.307 408.944L419.375 409.254L422.427 409.603L425.478 409.519L428.53 409.614L432.599 409.826L438.702 409.753L441.753 409.78L445.822 409.779L449.891 409.945L455.994 409.825L459.045 409.822L466.165 410.041L472.269 409.928L475.32 410.066L483.457 410.033L519.059 410.112" fill="#EFEFEF" fill-opacity="0.4"/>
<path d="M316.641 410.111L323.761 409.942L326.812 409.787L328.847 409.477L329.864 409.058L330.881 408.172L331.898 406.409L332.915 403.235L333.933 398.09L334.95 390.518L335.967 380.336L338.001 353.501L340.036 321.266L347.156 202.019L348.173 189.212L349.19 178.435L350.207 169.366L351.225 162.051L352.242 157.542L353.259 157.602L354.276 163.331L355.293 173.98L357.328 201.773L359.362 232.478L362.414 281.241L364.448 306.559L366.482 327.259L368.517 345.91L369.534 353.935L370.551 360.44L371.568 365.387L372.585 369.098L373.603 371.937L375.637 376.206L377.671 380.69L379.706 385.581L380.723 387.359L381.74 388.433L384.791 390.211L385.809 391.525L387.843 394.717L388.86 395.885L389.877 396.656L392.929 398.351L396.998 401.284L400.049 404.268L402.083 405.56L404.118 406.338L406.152 406.708L408.186 406.997L410.221 407.662L413.272 408.648L415.307 408.944L419.375 409.254L422.427 409.603L425.478 409.519L428.53 409.614L432.599 409.826L438.702 409.753L441.753 409.78L445.822 409.779L449.891 409.945L455.994 409.825L459.045 409.822L466.165 410.041L472.269 409.928L475.32 410.066L483.457 410.033L519.059 410.112" stroke="#EFEFEF" stroke-linecap="square"/>
</g>
<mask id="mask6_230_10558" style="mask-type:luminance" maskUnits="userSpaceOnUse" x="76" y="55" width="477" height="356">
<path d="M552.957 55.2959H76.7969V410.112H552.957V55.2959Z" fill="white"/>
</mask>
<g mask="url(#mask6_230_10558)">
<path d="M309.016 410.111L319.835 409.972L325.736 409.499L326.72 409.387L327.703 409.107L329.671 408.027L331.638 406.602L332.621 405.567L333.605 404.054L334.588 401.972L336.556 396.345L338.523 389.471L340.49 381.379L341.473 376.299L343.441 363.372L345.408 347.075L347.375 327.84L353.276 267.455L355.243 249.581L357.211 234.657L358.194 228.471L359.178 223.608L360.161 220.646L361.145 219.825L362.128 221.01L363.112 223.915L365.079 232.542L367.046 241.272L368.03 246.317L369.997 259.266L373.931 289.089L377.866 322.088L379.833 335.484L382.783 353.748L383.767 358.924L385.734 366.997L387.701 373.54L389.668 378.743L391.636 383.665L394.586 392.036L396.553 395.761L400.488 402.084L401.471 403.264L402.455 404.178L404.422 405.446L408.356 407.385L410.323 408.106L414.258 408.863L417.208 409.174L420.159 409.429L423.11 409.761L433.929 409.871L436.88 409.813L446.715 409.886L457.535 409.758L465.403 409.985L469.338 409.912L480.157 410.031L493.927 410.1L501.795 410.066L504.746 410.111" fill="#EFEFEF" fill-opacity="0.4"/>
<path d="M309.016 410.111L319.835 409.972L325.736 409.499L326.72 409.387L327.703 409.107L329.671 408.027L331.638 406.602L332.621 405.567L333.605 404.054L334.588 401.972L336.556 396.345L338.523 389.471L340.49 381.379L341.473 376.299L343.441 363.372L345.408 347.075L347.375 327.84L353.276 267.455L355.243 249.581L357.211 234.657L358.194 228.471L359.178 223.608L360.161 220.646L361.145 219.825L362.128 221.01L363.112 223.915L365.079 232.542L367.046 241.272L368.03 246.317L369.997 259.266L373.931 289.089L377.866 322.088L379.833 335.484L382.783 353.748L383.767 358.924L385.734 366.997L387.701 373.54L389.668 378.743L391.636 383.665L394.586 392.036L396.553 395.761L400.488 402.084L401.471 403.264L402.455 404.178L404.422 405.446L408.356 407.385L410.323 408.106L414.258 408.863L417.208 409.174L420.159 409.429L423.11 409.761L433.929 409.871L436.88 409.813L446.715 409.886L457.535 409.758L465.403 409.985L469.338 409.912L480.157 410.031L493.927 410.1L501.795 410.066L504.746 410.111" stroke="#EFEFEF" stroke-linecap="square"/>
</g>
<mask id="mask7_230_10558" style="mask-type:luminance" maskUnits="userSpaceOnUse" x="76" y="55" width="477" height="356">
<path d="M552.957 55.2959H76.7969V410.112H552.957V55.2959Z" fill="white"/>
</mask>
<g mask="url(#mask7_230_10558)">
<path d="M328.289 410.111L331.153 409.957L334.018 409.586L335.927 408.829L340.701 407.819L341.656 407.324L342.61 406.076L343.565 404.3L344.52 402.848L346.429 400.693L347.384 398.733L349.294 392.977L351.203 386.289L352.158 381.846L353.113 376.159L354.067 368.613L355.022 358.678L355.977 346.614L356.932 332.318L357.887 313.891L359.796 262.656L361.706 210.921L365.525 110.756L366.479 97.2038L367.434 92.2021L368.389 92.5164L369.344 96.795L370.298 105.789L371.253 118.414L372.208 135.242L376.027 221.137L379.846 309.003L380.801 325.041L383.665 361.474L384.62 371.608L385.574 379.612L386.529 385.297L388.439 392.835L390.348 400.227L391.303 403.171L392.258 405.189L393.212 406.467L394.167 406.988L396.077 407.309L400.851 409.174L403.715 409.644L405.624 409.711L407.534 409.583L414.217 409.886L416.127 409.757L419.946 409.991L443.815 410.053L447.634 410.112L456.226 409.967L458.136 409.971L460.045 410.066L462.91 409.936L465.774 410.109L495.371 410.081L498.236 410.045L502.055 410.112L518.286 410.111" fill="#EFEFEF" fill-opacity="0.4"/>
<path d="M328.289 410.111L331.153 409.957L334.018 409.586L335.927 408.829L340.701 407.819L341.656 407.324L342.61 406.076L343.565 404.3L344.52 402.848L346.429 400.693L347.384 398.733L349.294 392.977L351.203 386.289L352.158 381.846L353.113 376.159L354.067 368.613L355.022 358.678L355.977 346.614L356.932 332.318L357.887 313.891L359.796 262.656L361.706 210.921L365.525 110.756L366.479 97.2038L367.434 92.2021L368.389 92.5164L369.344 96.795L370.298 105.789L371.253 118.414L372.208 135.242L376.027 221.137L379.846 309.003L380.801 325.041L383.665 361.474L384.62 371.608L385.574 379.612L386.529 385.297L388.439 392.835L390.348 400.227L391.303 403.171L392.258 405.189L393.212 406.467L394.167 406.988L396.077 407.309L400.851 409.174L403.715 409.644L405.624 409.711L407.534 409.583L414.217 409.886L416.127 409.757L419.946 409.991L443.815 410.053L447.634 410.112L456.226 409.967L458.136 409.971L460.045 410.066L462.91 409.936L465.774 410.109L495.371 410.081L498.236 410.045L502.055 410.112L518.286 410.111" stroke="#EFEFEF" stroke-linecap="square"/>
</g>
<mask id="mask8_230_10558" style="mask-type:luminance" maskUnits="userSpaceOnUse" x="76" y="55" width="477" height="356">
<path d="M552.957 55.2959H76.7969V410.112H552.957V55.2959Z" fill="white"/>
</mask>
<g mask="url(#mask8_230_10558)">
<path d="M307.633 410.112L324.348 409.942L327.134 409.577L329.92 408.883L331.777 408.014L333.635 406.751L335.492 404.927L336.421 403.678L338.278 400.418L341.064 394.265L342.921 389.916L343.85 387.317L344.778 383.947L345.707 379.461L346.636 373.767L348.493 359.794L351.279 336.293L354.065 309.406L356.851 279.657L359.637 249.499L361.494 233.746L363.351 222.08L364.28 217.672L365.209 214.893L366.137 214.283L367.066 215.659L368.923 220.591L369.852 223.327L370.78 227.141L371.709 232.63L374.495 253.769L377.281 276.38L380.995 306.835L384.71 334.737L387.496 351.551L390.282 367.886L392.139 376.614L393.996 383.709L395.854 389.265L398.64 395.822L400.497 399.487L402.354 402.154L403.283 403.069L405.14 404.288L406.997 405.497L409.783 407.609L411.641 408.409L414.426 409.001L423.713 409.953L427.427 410.059L432.999 409.98L439.5 409.958L443.214 409.904L452.501 410.057L462.716 410.009L467.359 410.102L480.36 410.058L485.932 410.058L492.432 410.112" fill="#EFEFEF" fill-opacity="0.4"/>
<path d="M307.633 410.112L324.348 409.942L327.134 409.577L329.92 408.883L331.777 408.014L333.635 406.751L335.492 404.927L336.421 403.678L338.278 400.418L341.064 394.265L342.921 389.916L343.85 387.317L344.778 383.947L345.707 379.461L346.636 373.767L348.493 359.794L351.279 336.293L354.065 309.406L356.851 279.657L359.637 249.499L361.494 233.746L363.351 222.08L364.28 217.672L365.209 214.893L366.137 214.283L367.066 215.659L368.923 220.591L369.852 223.327L370.78 227.141L371.709 232.63L374.495 253.769L377.281 276.38L380.995 306.835L384.71 334.737L387.496 351.551L390.282 367.886L392.139 376.614L393.996 383.709L395.854 389.265L398.64 395.822L400.497 399.487L402.354 402.154L403.283 403.069L405.14 404.288L406.997 405.497L409.783 407.609L411.641 408.409L414.426 409.001L423.713 409.953L427.427 410.059L432.999 409.98L439.5 409.958L443.214 409.904L452.501 410.057L462.716 410.009L467.359 410.102L480.36 410.058L485.932 410.058L492.432 410.112" stroke="#EFEFEF" stroke-linecap="square"/>
</g>
<mask id="mask9_230_10558" style="mask-type:luminance" maskUnits="userSpaceOnUse" x="76" y="55" width="477" height="356">
<path d="M552.957 55.2959H76.7969V410.112H552.957V55.2959Z" fill="white"/>
</mask>
<g mask="url(#mask9_230_10558)">
<path d="M314.477 410.111L318.854 409.961L322.355 409.925L325.857 410.033L333.736 409.755L334.611 409.61L335.487 409.198L338.988 406.295L339.864 405.33L340.739 403.665L341.615 400.901L342.49 396.536L343.365 389.88L344.241 380.343L345.116 367.843L346.867 335.431L352.995 204.694L353.87 187.906L354.746 173.975L355.621 163.891L356.497 157.272L357.372 153.513L358.248 152.825L359.123 155.625L359.998 161.184L361.749 174.685L362.625 182.67L364.375 203.661L368.753 258.726L371.379 287.764L375.756 332.616L377.507 346.415L381.008 368.996L381.884 373.306L382.759 376.177L384.51 380.303L386.261 386.723L388.012 392.619L389.763 396.702L391.513 399.66L393.264 401.732L399.392 406.735L402.894 408.621L404.645 408.721L405.52 408.795L408.146 409.392L413.399 409.417L416.025 409.67L420.402 409.694L423.029 409.731L425.655 409.506L430.907 409.91L434.409 410.004L488.685 410.111" fill="#EFEFEF" fill-opacity="0.4"/>
<path d="M314.477 410.111L318.854 409.961L322.355 409.925L325.857 410.033L333.736 409.755L334.611 409.61L335.487 409.198L338.988 406.295L339.864 405.33L340.739 403.665L341.615 400.901L342.49 396.536L343.365 389.88L344.241 380.343L345.116 367.843L346.867 335.431L352.995 204.694L353.87 187.906L354.746 173.975L355.621 163.891L356.497 157.272L357.372 153.513L358.248 152.825L359.123 155.625L359.998 161.184L361.749 174.685L362.625 182.67L364.375 203.661L368.753 258.726L371.379 287.764L375.756 332.616L377.507 346.415L381.008 368.996L381.884 373.306L382.759 376.177L384.51 380.303L386.261 386.723L388.012 392.619L389.763 396.702L391.513 399.66L393.264 401.732L399.392 406.735L402.894 408.621L404.645 408.721L405.52 408.795L408.146 409.392L413.399 409.417L416.025 409.67L420.402 409.694L423.029 409.731L425.655 409.506L430.907 409.91L434.409 410.004L488.685 410.111" stroke="#EFEFEF" stroke-linecap="square"/>
</g>
<mask id="mask10_230_10558" style="mask-type:luminance" maskUnits="userSpaceOnUse" x="76" y="55" width="477" height="356">
<path d="M552.957 55.2959H76.7969V410.112H552.957V55.2959Z" fill="white"/>
</mask>
<g mask="url(#mask10_230_10558)">
<path d="M323.086 410.111L325.82 409.977L329.466 409.347L330.378 408.785L331.289 407.825L332.2 406.538L333.112 404.813L334.023 402.376L334.935 399.218L335.846 395.283L336.758 390.013L337.669 383.03L338.581 374.209L339.492 362.904L340.404 348.426L341.315 330.424L343.138 284.545L347.695 159.596L348.607 144.241L349.518 134.5L350.43 128.368L351.341 123.756L352.252 121.696L353.164 125.476L354.075 135.986L355.898 161.229L356.81 173.114L359.544 217.545L365.924 298.826L370.481 362.643L371.393 373.041L372.304 380.219L373.216 385.164L375.039 392.63L375.95 395.693L376.862 398.169L377.773 400.105L379.596 402.85L381.419 405.392L382.33 406.454L383.242 407.234L384.153 407.711L385.065 407.993L386.888 408.093L388.711 408.291L391.445 409.151L393.268 409.229L396.914 409.163L399.648 409.256L402.382 409.807L408.763 409.905L411.497 409.974L414.231 409.77L417.877 409.843L419.7 409.736L424.257 410.11L427.903 410.028L429.726 409.927L434.283 410.111L455.247 410.11L470.741 410.025L473.476 409.989L478.944 410.112L504.465 410.111" fill="#EFEFEF" fill-opacity="0.4"/>
<path d="M323.086 410.111L325.82 409.977L329.466 409.347L330.378 408.785L331.289 407.825L332.2 406.538L333.112 404.813L334.023 402.376L334.935 399.218L335.846 395.283L336.758 390.013L337.669 383.03L338.581 374.209L339.492 362.904L340.404 348.426L341.315 330.424L343.138 284.545L347.695 159.596L348.607 144.241L349.518 134.5L350.43 128.368L351.341 123.756L352.252 121.696L353.164 125.476L354.075 135.986L355.898 161.229L356.81 173.114L359.544 217.545L365.924 298.826L370.481 362.643L371.393 373.041L372.304 380.219L373.216 385.164L375.039 392.63L375.95 395.693L376.862 398.169L377.773 400.105L379.596 402.85L381.419 405.392L382.33 406.454L383.242 407.234L384.153 407.711L385.065 407.993L386.888 408.093L388.711 408.291L391.445 409.151L393.268 409.229L396.914 409.163L399.648 409.256L402.382 409.807L408.763 409.905L411.497 409.974L414.231 409.77L417.877 409.843L419.7 409.736L424.257 410.11L427.903 410.028L429.726 409.927L434.283 410.111L455.247 410.11L470.741 410.025L473.476 409.989L478.944 410.112L504.465 410.111" stroke="#EFEFEF" stroke-linecap="square"/>
</g>
<mask id="mask11_230_10558" style="mask-type:luminance" maskUnits="userSpaceOnUse" x="76" y="55" width="477" height="356">
<path d="M552.957 55.2959H76.7969V410.112H552.957V55.2959Z" fill="white"/>
</mask>
<g mask="url(#mask11_230_10558)">
<path d="M318.375 410.111L328.534 410.016L331.305 409.669L333.152 409.218L334.999 408.339L335.923 407.626L337.77 405.523L340.54 401.476L341.464 399.956L342.387 398.121L344.235 393.086L346.082 387.149L347.005 383.6L347.929 379.226L348.852 373.872L350.699 360.26L355.317 321.129L358.088 289.636L363.629 227.09L364.553 219.701L365.476 213.908L366.4 209.997L367.324 207.807L368.247 206.772L369.171 206.517L370.094 207.155L371.018 208.971L371.941 212.148L372.865 216.822L373.788 223.003L375.636 238.228L377.483 255.073L381.177 292.416L387.642 348.056L389.489 360.218L392.26 374.766L394.107 382.57L395.954 388.395L399.648 398.74L400.572 400.643L401.495 402.029L402.419 402.993L404.266 404.246L408.884 406.501L410.731 407.417L416.272 408.773L419.043 409.154L421.813 409.093L425.508 409.09L428.278 409.416L431.049 409.739L448.597 409.956L453.214 410.063L460.603 410.094L469.838 410.065L474.456 410.098L490.157 410.111L502.163 410.111" fill="#EFEFEF" fill-opacity="0.4"/>
<path d="M318.375 410.111L328.534 410.016L331.305 409.669L333.152 409.218L334.999 408.339L335.923 407.626L337.77 405.523L340.54 401.476L341.464 399.956L342.387 398.121L344.235 393.086L346.082 387.149L347.005 383.6L347.929 379.226L348.852 373.872L350.699 360.26L355.317 321.129L358.088 289.636L363.629 227.09L364.553 219.701L365.476 213.908L366.4 209.997L367.324 207.807L368.247 206.772L369.171 206.517L370.094 207.155L371.018 208.971L371.941 212.148L372.865 216.822L373.788 223.003L375.636 238.228L377.483 255.073L381.177 292.416L387.642 348.056L389.489 360.218L392.26 374.766L394.107 382.57L395.954 388.395L399.648 398.74L400.572 400.643L401.495 402.029L402.419 402.993L404.266 404.246L408.884 406.501L410.731 407.417L416.272 408.773L419.043 409.154L421.813 409.093L425.508 409.09L428.278 409.416L431.049 409.739L448.597 409.956L453.214 410.063L460.603 410.094L469.838 410.065L474.456 410.098L490.157 410.111L502.163 410.111" stroke="#EFEFEF" stroke-linecap="square"/>
</g>
<mask id="mask12_230_10558" style="mask-type:luminance" maskUnits="userSpaceOnUse" x="76" y="55" width="477" height="356">
<path d="M552.957 55.2959H76.7969V410.112H552.957V55.2959Z" fill="white"/>
</mask>
<g mask="url(#mask12_230_10558)">
<path d="M320.609 410.111L324.779 409.964L327.906 409.931L329.991 409.897L331.034 409.693L333.119 408.694L337.288 406.523L338.331 405.608L339.373 404.091L340.416 401.608L341.458 398.222L342.5 394.072L343.543 388.797L344.585 381.723L345.628 372.574L346.67 360.835L347.713 345.497L349.797 308.183L350.84 286.69L357.094 141.878L358.137 129.243L359.179 125.828L360.222 129.833L362.307 145.725L363.349 156.234L364.391 170.967L367.519 223.117L369.604 257.857L371.688 291.997L373.773 318.615L374.816 328.916L376.901 345.21L380.028 369.276L381.07 374.718L384.198 386.36L387.325 395.967L388.367 398.185L390.452 401.165L392.537 403.877L393.58 404.906L394.622 405.592L396.707 406.615L399.834 408.667L401.919 409.403L402.961 409.51L406.089 409.216L412.343 409.686L416.513 409.501L419.64 409.799L423.81 409.765L427.98 409.939L430.065 410.098L435.277 410.025L440.489 409.752L444.659 409.989L447.786 409.921L449.871 409.943L452.998 410.088L460.295 410.027L465.507 410.061L468.635 410.071L476.974 410.111H528.053" fill="#EFEFEF" fill-opacity="0.4"/>
<path d="M320.609 410.111L324.779 409.964L327.906 409.931L329.991 409.897L331.034 409.693L333.119 408.694L337.288 406.523L338.331 405.608L339.373 404.091L340.416 401.608L341.458 398.222L342.5 394.072L343.543 388.797L344.585 381.723L345.628 372.574L346.67 360.835L347.713 345.497L349.797 308.183L350.84 286.69L357.094 141.878L358.137 129.243L359.179 125.828L360.222 129.833L362.307 145.725L363.349 156.234L364.391 170.967L367.519 223.117L369.604 257.857L371.688 291.997L373.773 318.615L374.816 328.916L376.901 345.21L380.028 369.276L381.07 374.718L384.198 386.36L387.325 395.967L388.367 398.185L390.452 401.165L392.537 403.877L393.58 404.906L394.622 405.592L396.707 406.615L399.834 408.667L401.919 409.403L402.961 409.51L406.089 409.216L412.343 409.686L416.513 409.501L419.64 409.799L423.81 409.765L427.98 409.939L430.065 410.098L435.277 410.025L440.489 409.752L444.659 409.989L447.786 409.921L449.871 409.943L452.998 410.088L460.295 410.027L465.507 410.061L468.635 410.071L476.974 410.111H528.053" stroke="#EFEFEF" stroke-linecap="square"/>
</g>
<mask id="mask13_230_10558" style="mask-type:luminance" maskUnits="userSpaceOnUse" x="76" y="55" width="477" height="356">
<path d="M552.957 55.2959H76.7969V410.112H552.957V55.2959Z" fill="white"/>
</mask>
<g mask="url(#mask13_230_10558)">
<path d="M309.109 410.111L318.644 409.945L325.001 409.582L327.12 408.784L329.239 407.561L330.298 406.802L331.358 405.85L332.417 404.606L333.477 402.958L334.536 400.796L336.655 395.132L337.715 391.784L338.774 387.699L339.833 382.409L341.952 368.455L345.131 343.838L347.25 325.436L349.368 304.533L352.547 271.72L354.666 253.512L356.785 238.904L358.904 226.008L359.963 221.469L361.022 218.807L362.082 218.116L363.141 219.422L364.201 222.432L365.26 226.587L366.32 231.533L367.379 237.273L369.498 251.276L372.676 276.87L379.033 327.991L381.152 341.682L383.271 353.46L386.449 368.784L388.568 377.28L390.687 384.44L392.806 390.665L393.865 393.114L394.925 395.081L397.044 398.149L399.163 400.653L401.281 402.318L403.4 404.051L405.519 406.06L406.579 406.789L407.638 407.201L415.054 408.546L418.233 408.93L423.53 409.63L425.649 409.673L430.946 409.493L436.243 409.632L439.422 409.663L442.6 409.841L447.897 409.829L452.135 410.001L458.492 409.826L462.73 409.991L468.027 410.052L487.097 410.112L519.94 410.111" fill="#EFEFEF" fill-opacity="0.4"/>
<path d="M309.109 410.111L318.644 409.945L325.001 409.582L327.12 408.784L329.239 407.561L330.298 406.802L331.358 405.85L332.417 404.606L333.477 402.958L334.536 400.796L336.655 395.132L337.715 391.784L338.774 387.699L339.833 382.409L341.952 368.455L345.131 343.838L347.25 325.436L349.368 304.533L352.547 271.72L354.666 253.512L356.785 238.904L358.904 226.008L359.963 221.469L361.022 218.807L362.082 218.116L363.141 219.422L364.201 222.432L365.26 226.587L366.32 231.533L367.379 237.273L369.498 251.276L372.676 276.87L379.033 327.991L381.152 341.682L383.271 353.46L386.449 368.784L388.568 377.28L390.687 384.44L392.806 390.665L393.865 393.114L394.925 395.081L397.044 398.149L399.163 400.653L401.281 402.318L403.4 404.051L405.519 406.06L406.579 406.789L407.638 407.201L415.054 408.546L418.233 408.93L423.53 409.63L425.649 409.673L430.946 409.493L436.243 409.632L439.422 409.663L442.6 409.841L447.897 409.829L452.135 410.001L458.492 409.826L462.73 409.991L468.027 410.052L487.097 410.112L519.94 410.111" stroke="#EFEFEF" stroke-linecap="square"/>
</g>
<mask id="mask14_230_10558" style="mask-type:luminance" maskUnits="userSpaceOnUse" x="76" y="55" width="477" height="356">
<path d="M552.957 55.2959H76.7969V410.112H552.957V55.2959Z" fill="white"/>
</mask>
<g mask="url(#mask14_230_10558)">
<path d="M98.4375 410.111L128.891 410.112L309.436 409.979L313.786 409.794L315.961 409.611L318.137 409.245L322.487 408.231L324.662 407.805L326.838 407.163L329.013 405.903L331.188 403.641L333.363 400.219L335.539 395.948L337.714 390.624L339.889 381.038L342.064 366.771L344.24 346.864L346.415 324.368L348.59 300.189L350.765 271.066L352.941 243.941L355.116 226.77L357.291 218.78L359.466 215.474L361.642 219.364L363.817 230.795L365.992 243.242L368.167 257.072L372.518 293.427L374.693 307.228L379.043 339.759L381.219 352.65L385.569 372.134L387.744 380.094L389.92 386.774L392.095 392.564L394.27 397.43L396.445 401.229L398.621 402.998L400.796 403.619L402.971 404.784L405.146 406.253L407.322 407.384L409.497 408.281L424.723 409.67L431.249 409.693L435.6 409.835L439.95 409.744L444.301 409.951L468.228 410.013L472.579 410.009L476.929 410.078L485.63 410.02L492.156 410.103L500.857 410.106L513.908 410.061L522.609 410.092L529.135 410.101L531.31 410.111" fill="#7EB0D5" fill-opacity="0.4"/>
<path d="M98.4375 410.111L128.891 410.112L309.436 409.979L313.786 409.794L315.961 409.611L318.137 409.245L322.487 408.231L324.662 407.805L326.838 407.163L329.013 405.903L331.188 403.641L333.363 400.219L335.539 395.948L337.714 390.624L339.889 381.038L342.064 366.771L344.24 346.864L346.415 324.368L348.59 300.189L350.765 271.066L352.941 243.941L355.116 226.77L357.291 218.78L359.466 215.474L361.642 219.364L363.817 230.795L365.992 243.242L368.167 257.072L372.518 293.427L374.693 307.228L379.043 339.759L381.219 352.65L385.569 372.134L387.744 380.094L389.92 386.774L392.095 392.564L394.27 397.43L396.445 401.229L398.621 402.998L400.796 403.619L402.971 404.784L405.146 406.253L407.322 407.384L409.497 408.281L424.723 409.67L431.249 409.693L435.6 409.835L439.95 409.744L444.301 409.951L468.228 410.013L472.579 410.009L476.929 410.078L485.63 410.02L492.156 410.103L500.857 410.106L513.908 410.061L522.609 410.092L529.135 410.101L531.31 410.111" stroke="#7EB0D5" stroke-linecap="square"/>
</g>
<path d="M535.061 411.061C535.646 410.475 535.646 409.525 535.061 408.939L525.515 399.393C524.929 398.808 523.979 398.808 523.393 399.393C522.808 399.979 522.808 400.929 523.393 401.515L531.879 410L523.393 418.485C522.808 419.071 522.808 420.021 523.393 420.607C523.979 421.192 524.929 421.192 525.515 420.607L535.061 411.061ZM79 411.5H534V408.5H79V411.5Z" fill="black"/>
</g>
<defs>
<clipPath id="clip0_230_10558">
<rect width="614.4" height="460.8" fill="white"/>
</clipPath>
</defs>
</svg>
