<svg width="615" height="461" viewBox="0 0 615 461" fill="none" xmlns="http://www.w3.org/2000/svg">
<g clip-path="url(#clip0_230_10318)">
<mask id="mask0_230_10318" style="mask-type:luminance" maskUnits="userSpaceOnUse" x="76" y="55" width="477" height="356">
<path d="M552.957 55.2959H76.7969V410.112H552.957V55.2959Z" fill="white"/>
</mask>
<g mask="url(#mask0_230_10318)">
<path d="M362.602 410.111L375.474 409.922L378.692 409.769L380.301 409.657L386.737 408.376L388.346 407.716L389.15 407.616L391.564 407.989L392.368 407.867L393.173 407.512L394.782 406.416L396.391 404.99L397.195 403.945L398.804 401.162L399.609 399.464L400.413 397.392L401.218 394.796L402.827 388.012L403.632 383.719L405.241 372.581L407.654 352.033L409.263 333.47L411.677 297.855L414.09 260.194L417.308 202.289L419.722 160.041L421.331 140.795L422.94 125.176L423.744 118.795L424.549 114.78L425.353 113.621L426.158 114.9L426.962 117.846L427.767 122.025L428.571 127.736L429.376 135.754L430.18 146.406L431.789 172.857L435.812 243.464L438.225 280.632L441.443 324.555L443.052 341.968L444.661 354.539L446.27 363.945L447.879 371.964L450.293 382.256L452.707 391.765L453.511 394.383L454.316 396.33L455.12 397.594L457.534 400.264L460.752 404.671L462.361 406.115L464.774 407.6L466.383 408.381L469.601 409.397L471.21 409.581L476.842 409.444L480.864 409.977L500.173 410.112L522.699 410.111" fill="#EFEFEF" fill-opacity="0.4"/>
<path d="M362.602 410.111L375.474 409.922L378.692 409.769L380.301 409.657L386.737 408.376L388.346 407.716L389.15 407.616L391.564 407.989L392.368 407.867L393.173 407.512L394.782 406.416L396.391 404.99L397.195 403.945L398.804 401.162L399.609 399.464L400.413 397.392L401.218 394.796L402.827 388.012L403.632 383.719L405.241 372.581L407.654 352.033L409.263 333.47L411.677 297.855L414.09 260.194L417.308 202.289L419.722 160.041L421.331 140.795L422.94 125.176L423.744 118.795L424.549 114.78L425.353 113.621L426.158 114.9L426.962 117.846L427.767 122.025L428.571 127.736L429.376 135.754L430.18 146.406L431.789 172.857L435.812 243.464L438.225 280.632L441.443 324.555L443.052 341.968L444.661 354.539L446.27 363.945L447.879 371.964L450.293 382.256L452.707 391.765L453.511 394.383L454.316 396.33L455.12 397.594L457.534 400.264L460.752 404.671L462.361 406.115L464.774 407.6L466.383 408.381L469.601 409.397L471.21 409.581L476.842 409.444L480.864 409.977L500.173 410.112L522.699 410.111" stroke="#EFEFEF" stroke-linecap="square"/>
</g>
<mask id="mask1_230_10318" style="mask-type:luminance" maskUnits="userSpaceOnUse" x="76" y="55" width="477" height="356">
<path d="M552.957 55.2959H76.7969V410.112H552.957V55.2959Z" fill="white"/>
</mask>
<g mask="url(#mask1_230_10318)">
<path d="M358.266 410.111L366.908 409.956L373.389 409.66L376.99 409.234L379.151 408.64L381.311 407.609L382.752 406.641L384.192 405.369L385.632 403.637L387.073 401.242L388.513 398.035L389.954 393.99L391.394 389.173L393.554 380.631L397.155 365.222L398.596 360.486L400.036 357.237L400.756 356.157L401.476 355.4L402.197 354.921L402.917 354.676L404.357 354.701L405.798 355.183L407.238 356.033L408.678 357.353L410.119 359.207L415.16 366.742L416.6 368.03L418.041 368.76L420.921 369.592L422.362 369.691L423.082 369.456L423.802 368.929L424.522 368.056L425.242 366.799L425.963 365.134L427.403 360.52L428.843 354.166L430.284 346.146L431.724 336.592L433.164 325.552L434.605 312.926L436.045 298.446L438.206 272.831L442.527 216.998L443.967 201.67L445.407 189.472L446.128 184.779L446.848 181.188L447.568 178.851L448.288 177.918L449.008 178.503L449.729 180.651L450.449 184.314L451.169 189.353L452.609 202.695L454.77 227.523L458.371 273.606L461.972 319.104L464.132 342.271L466.293 361.47L467.733 371.769L469.173 379.901L470.614 386.095L472.054 390.881L473.494 394.778L474.935 398.063L476.375 400.788L477.816 402.929L479.256 404.511L480.696 405.651L482.857 406.866L487.898 409.083L490.059 409.688L492.219 409.927L498.701 410.1L501.582 410.111" fill="#EFEFEF" fill-opacity="0.4"/>
<path d="M358.266 410.111L366.908 409.956L373.389 409.66L376.99 409.234L379.151 408.64L381.311 407.609L382.752 406.641L384.192 405.369L385.632 403.637L387.073 401.242L388.513 398.035L389.954 393.99L391.394 389.173L393.554 380.631L397.155 365.222L398.596 360.486L400.036 357.237L400.756 356.157L401.476 355.4L402.197 354.921L402.917 354.676L404.357 354.701L405.798 355.183L407.238 356.033L408.678 357.353L410.119 359.207L415.16 366.742L416.6 368.03L418.041 368.76L420.921 369.592L422.362 369.691L423.082 369.456L423.802 368.929L424.522 368.056L425.242 366.799L425.963 365.134L427.403 360.52L428.843 354.166L430.284 346.146L431.724 336.592L433.164 325.552L434.605 312.926L436.045 298.446L438.206 272.831L442.527 216.998L443.967 201.67L445.407 189.472L446.128 184.779L446.848 181.188L447.568 178.851L448.288 177.918L449.008 178.503L449.729 180.651L450.449 184.314L451.169 189.353L452.609 202.695L454.77 227.523L458.371 273.606L461.972 319.104L464.132 342.271L466.293 361.47L467.733 371.769L469.173 379.901L470.614 386.095L472.054 390.881L473.494 394.778L474.935 398.063L476.375 400.788L477.816 402.929L479.256 404.511L480.696 405.651L482.857 406.866L487.898 409.083L490.059 409.688L492.219 409.927L498.701 410.1L501.582 410.111" stroke="#EFEFEF" stroke-linecap="square"/>
</g>
<mask id="mask2_230_10318" style="mask-type:luminance" maskUnits="userSpaceOnUse" x="76" y="55" width="477" height="356">
<path d="M552.957 55.2959H76.7969V410.112H552.957V55.2959Z" fill="white"/>
</mask>
<g mask="url(#mask2_230_10318)">
<path d="M373.031 410.111L378.548 409.99L383.277 409.579L388.006 408.998L391.947 408.981L394.311 408.559L395.887 407.981L397.464 406.959L399.04 405.382L400.616 403.053L402.192 399.75L406.921 387.999L407.709 385.452L408.497 382.324L410.074 374.235L413.226 354.546L414.803 343.58L416.379 330.335L421.108 286.128L425.048 252.791L426.625 243.111L428.201 235.803L430.565 226.402L432.142 221.19L432.93 219.419L433.718 218.391L434.506 218.069L435.294 218.281L436.87 219.519L437.659 220.399L438.447 221.56L439.235 223.142L440.023 225.254L440.811 227.969L441.599 231.34L443.176 240.104L447.116 265.73L450.269 282.843L451.845 293.548L454.209 310.679L455.786 319.78L458.938 336.103L461.303 348.892L463.667 359.589L466.032 368.724L469.184 379.256L470.76 383.871L473.125 389.661L475.489 394.697L477.066 397.594L478.642 400.047L480.218 402.024L481.794 403.59L483.371 404.812L488.099 407.613L489.676 408.435L491.252 408.929L493.616 409.241L499.133 409.686L503.862 409.549L509.379 410.053L529.871 410.111" fill="#EFEFEF" fill-opacity="0.4"/>
<path d="M373.031 410.111L378.548 409.99L383.277 409.579L388.006 408.998L391.947 408.981L394.311 408.559L395.887 407.981L397.464 406.959L399.04 405.382L400.616 403.053L402.192 399.75L406.921 387.999L407.709 385.452L408.497 382.324L410.074 374.235L413.226 354.546L414.803 343.58L416.379 330.335L421.108 286.128L425.048 252.791L426.625 243.111L428.201 235.803L430.565 226.402L432.142 221.19L432.93 219.419L433.718 218.391L434.506 218.069L435.294 218.281L436.87 219.519L437.659 220.399L438.447 221.56L439.235 223.142L440.023 225.254L440.811 227.969L441.599 231.34L443.176 240.104L447.116 265.73L450.269 282.843L451.845 293.548L454.209 310.679L455.786 319.78L458.938 336.103L461.303 348.892L463.667 359.589L466.032 368.724L469.184 379.256L470.76 383.871L473.125 389.661L475.489 394.697L477.066 397.594L478.642 400.047L480.218 402.024L481.794 403.59L483.371 404.812L488.099 407.613L489.676 408.435L491.252 408.929L493.616 409.241L499.133 409.686L503.862 409.549L509.379 410.053L529.871 410.111" stroke="#EFEFEF" stroke-linecap="square"/>
</g>
<mask id="mask3_230_10318" style="mask-type:luminance" maskUnits="userSpaceOnUse" x="76" y="55" width="477" height="356">
<path d="M552.957 55.2959H76.7969V410.112H552.957V55.2959Z" fill="white"/>
</mask>
<g mask="url(#mask3_230_10318)">
<path d="M361.727 410.111L373.091 409.972L378.063 409.33L379.484 409.393L384.456 408.783L385.166 408.519L385.876 408.016L388.007 405.85L389.428 405.322L390.138 404.712L390.848 403.454L392.979 398.524L395.11 394.686L395.82 392.862L396.531 390.079L397.241 385.996L397.951 380.438L399.372 365.593L400.792 347.975L402.923 316.17L405.054 282.286L406.475 253.853L409.316 191.5L410.736 167.754L411.447 159.012L412.867 145.147L413.578 136.371L416.419 94.5699L417.129 86.9315L417.839 80.9925L418.55 76.6515L419.26 73.6293L419.97 72.1924L420.68 73.3547L421.391 77.7678L422.101 84.9605L422.811 94.1826L423.522 105.511L424.232 119.756L425.652 158.265L428.494 244.43L430.624 302.51L432.045 332.527L433.466 354.343L434.886 369.496L436.307 381.525L437.017 386.104L438.438 392.382L441.279 401.724L441.989 403.455L442.699 404.691L443.41 405.439L447.671 408.034L448.382 408.083L451.223 407.68L454.064 408.524L456.195 409.043L457.615 409.092L459.746 408.815L464.718 409.577L466.139 409.966L468.27 410.101L478.214 409.769L479.634 409.754L482.475 409.905L485.317 409.669L491.709 409.985L503.074 410.111" fill="#EFEFEF" fill-opacity="0.4"/>
<path d="M361.727 410.111L373.091 409.972L378.063 409.33L379.484 409.393L384.456 408.783L385.166 408.519L385.876 408.016L388.007 405.85L389.428 405.322L390.138 404.712L390.848 403.454L392.979 398.524L395.11 394.686L395.82 392.862L396.531 390.079L397.241 385.996L397.951 380.438L399.372 365.593L400.792 347.975L402.923 316.17L405.054 282.286L406.475 253.853L409.316 191.5L410.736 167.754L411.447 159.012L412.867 145.147L413.578 136.371L416.419 94.5699L417.129 86.9315L417.839 80.9925L418.55 76.6515L419.26 73.6293L419.97 72.1924L420.68 73.3547L421.391 77.7678L422.101 84.9605L422.811 94.1826L423.522 105.511L424.232 119.756L425.652 158.265L428.494 244.43L430.624 302.51L432.045 332.527L433.466 354.343L434.886 369.496L436.307 381.525L437.017 386.104L438.438 392.382L441.279 401.724L441.989 403.455L442.699 404.691L443.41 405.439L447.671 408.034L448.382 408.083L451.223 407.68L454.064 408.524L456.195 409.043L457.615 409.092L459.746 408.815L464.718 409.577L466.139 409.966L468.27 410.101L478.214 409.769L479.634 409.754L482.475 409.905L485.317 409.669L491.709 409.985L503.074 410.111" stroke="#EFEFEF" stroke-linecap="square"/>
</g>
<mask id="mask4_230_10318" style="mask-type:luminance" maskUnits="userSpaceOnUse" x="76" y="55" width="477" height="356">
<path d="M552.957 55.2959H76.7969V410.112H552.957V55.2959Z" fill="white"/>
</mask>
<g mask="url(#mask4_230_10318)">
<path d="M370.633 410.111L377.003 409.969L379.835 409.658L382.666 408.836L384.79 408.368L386.913 407.996L388.329 407.501L393.284 405.069L394.7 404.059L396.115 402.376L397.531 399.836L398.947 396.306L400.363 391.553L401.778 385.308L403.194 377.292L404.61 367.228L406.025 354.923L408.149 332.526L414.52 260.859L418.767 215.688L420.89 196.793L422.306 186.292L423.722 177.893L424.429 175.154L425.137 173.839L425.845 174.136L426.553 176.022L427.261 179.283L428.677 188.734L430.092 200.658L431.508 214.641L436.463 267.534L438.586 283.695L441.418 302.333L443.541 314.187L444.957 320.749L447.081 329.077L449.204 337.263L451.328 346.939L454.867 363.891L456.283 369.022L457.698 373.119L459.822 378.135L463.361 385.856L465.485 390.937L466.901 393.444L468.316 395.195L472.563 399.719L476.81 405.135L478.226 406.058L481.765 407.461L483.889 408.129L488.844 409.246L493.799 409.686L503.001 410.021L511.495 410.111" fill="#EFEFEF" fill-opacity="0.4"/>
<path d="M370.633 410.111L377.003 409.969L379.835 409.658L382.666 408.836L384.79 408.368L386.913 407.996L388.329 407.501L393.284 405.069L394.7 404.059L396.115 402.376L397.531 399.836L398.947 396.306L400.363 391.553L401.778 385.308L403.194 377.292L404.61 367.228L406.025 354.923L408.149 332.526L414.52 260.859L418.767 215.688L420.89 196.793L422.306 186.292L423.722 177.893L424.429 175.154L425.137 173.839L425.845 174.136L426.553 176.022L427.261 179.283L428.677 188.734L430.092 200.658L431.508 214.641L436.463 267.534L438.586 283.695L441.418 302.333L443.541 314.187L444.957 320.749L447.081 329.077L449.204 337.263L451.328 346.939L454.867 363.891L456.283 369.022L457.698 373.119L459.822 378.135L463.361 385.856L465.485 390.937L466.901 393.444L468.316 395.195L472.563 399.719L476.81 405.135L478.226 406.058L481.765 407.461L483.889 408.129L488.844 409.246L493.799 409.686L503.001 410.021L511.495 410.111" stroke="#EFEFEF" stroke-linecap="square"/>
</g>
<mask id="mask5_230_10318" style="mask-type:luminance" maskUnits="userSpaceOnUse" x="76" y="55" width="477" height="356">
<path d="M552.957 55.2959H76.7969V410.112H552.957V55.2959Z" fill="white"/>
</mask>
<g mask="url(#mask5_230_10318)">
<path d="M364.773 410.111L369.608 409.999L376.86 409.408L378.472 408.846L380.083 407.755L380.889 406.913L381.695 405.76L382.501 404.154L383.306 401.907L384.112 398.798L384.918 394.578L385.724 388.991L386.529 381.805L387.335 372.863L388.947 349.819L392.976 282.496L394.587 263.726L396.199 250.915L399.422 228.829L401.839 211.894L404.257 197.747L408.285 176.471L409.091 173.539L409.897 171.815L410.703 171.552L411.509 172.879L412.314 175.845L413.12 180.481L413.926 186.833L414.732 194.92L416.343 215.746L420.372 274.857L421.984 294.109L424.401 318.962L426.818 340.194L428.43 352.305L430.041 362.336L431.653 369.967L433.264 375.401L434.876 379.101L436.488 381.54L439.711 385.096L441.322 386.632L442.128 387.173L443.74 387.765L445.351 388.204L446.963 388.987L450.186 390.737L451.797 391.247L454.215 391.641L455.021 391.94L456.632 393.022L462.273 397.747L466.301 400.64L470.33 404.506L471.942 405.379L474.359 406.1L480 407.763L483.223 408.77L486.446 409.347L488.863 409.499L492.086 409.669L496.115 410.024L499.338 409.905L502.561 409.803L517.065 410.054L525.123 410.111" fill="#EFEFEF" fill-opacity="0.4"/>
<path d="M364.773 410.111L369.608 409.999L376.86 409.408L378.472 408.846L380.083 407.755L380.889 406.913L381.695 405.76L382.501 404.154L383.306 401.907L384.112 398.798L384.918 394.578L385.724 388.991L386.529 381.805L387.335 372.863L388.947 349.819L392.976 282.496L394.587 263.726L396.199 250.915L399.422 228.829L401.839 211.894L404.257 197.747L408.285 176.471L409.091 173.539L409.897 171.815L410.703 171.552L411.509 172.879L412.314 175.845L413.12 180.481L413.926 186.833L414.732 194.92L416.343 215.746L420.372 274.857L421.984 294.109L424.401 318.962L426.818 340.194L428.43 352.305L430.041 362.336L431.653 369.967L433.264 375.401L434.876 379.101L436.488 381.54L439.711 385.096L441.322 386.632L442.128 387.173L443.74 387.765L445.351 388.204L446.963 388.987L450.186 390.737L451.797 391.247L454.215 391.641L455.021 391.94L456.632 393.022L462.273 397.747L466.301 400.64L470.33 404.506L471.942 405.379L474.359 406.1L480 407.763L483.223 408.77L486.446 409.347L488.863 409.499L492.086 409.669L496.115 410.024L499.338 409.905L502.561 409.803L517.065 410.054L525.123 410.111" stroke="#EFEFEF" stroke-linecap="square"/>
</g>
<mask id="mask6_230_10318" style="mask-type:luminance" maskUnits="userSpaceOnUse" x="76" y="55" width="477" height="356">
<path d="M552.957 55.2959H76.7969V410.112H552.957V55.2959Z" fill="white"/>
</mask>
<g mask="url(#mask6_230_10318)">
<path d="M363.203 410.111L378.834 409.958L381.96 409.681L383.523 409.273L385.086 408.565L386.649 407.577L388.212 406.308L389.775 404.536L391.338 401.965L392.901 398.436L394.464 393.72L396.027 387.559L397.59 379.749L399.153 369.838L400.716 357.549L403.061 335.704L406.187 302.779L409.313 268.752L410.876 254.358L412.439 242.626L414.002 232.865L415.565 224.583L416.347 221.228L417.128 218.606L417.91 216.796L418.691 215.784L419.473 215.515L420.254 215.952L421.036 217.08L421.817 218.853L423.38 223.895L424.943 230.242L428.851 248.094L431.977 259.755L433.54 267.445L437.448 288.055L441.355 305.646L442.918 314.823L446.044 335.03L447.607 343.253L449.17 350.019L451.515 358.696L456.986 376.948L459.33 383.881L462.456 391.962L464.019 395.468L465.582 398.271L467.146 400.289L469.49 402.361L471.053 403.862L473.398 406.282L474.961 407.309L476.524 407.878L478.868 408.365L483.557 408.903L486.684 409.443L491.373 409.839L503.096 409.976L512.474 409.971L518.726 410.111" fill="#EFEFEF" fill-opacity="0.4"/>
<path d="M363.203 410.111L378.834 409.958L381.96 409.681L383.523 409.273L385.086 408.565L386.649 407.577L388.212 406.308L389.775 404.536L391.338 401.965L392.901 398.436L394.464 393.72L396.027 387.559L397.59 379.749L399.153 369.838L400.716 357.549L403.061 335.704L406.187 302.779L409.313 268.752L410.876 254.358L412.439 242.626L414.002 232.865L415.565 224.583L416.347 221.228L417.128 218.606L417.91 216.796L418.691 215.784L419.473 215.515L420.254 215.952L421.036 217.08L421.817 218.853L423.38 223.895L424.943 230.242L428.851 248.094L431.977 259.755L433.54 267.445L437.448 288.055L441.355 305.646L442.918 314.823L446.044 335.03L447.607 343.253L449.17 350.019L451.515 358.696L456.986 376.948L459.33 383.881L462.456 391.962L464.019 395.468L465.582 398.271L467.146 400.289L469.49 402.361L471.053 403.862L473.398 406.282L474.961 407.309L476.524 407.878L478.868 408.365L483.557 408.903L486.684 409.443L491.373 409.839L503.096 409.976L512.474 409.971L518.726 410.111" stroke="#EFEFEF" stroke-linecap="square"/>
</g>
<mask id="mask7_230_10318" style="mask-type:luminance" maskUnits="userSpaceOnUse" x="76" y="55" width="477" height="356">
<path d="M552.957 55.2959H76.7969V410.112H552.957V55.2959Z" fill="white"/>
</mask>
<g mask="url(#mask7_230_10318)">
<path d="M376.508 410.111L379.479 409.978L384.679 409.318L386.907 408.903L388.393 408.775L390.621 408.837L391.364 408.666L392.85 407.86L395.821 405.635L398.049 404.202L398.792 403.588L399.535 402.727L401.02 400.074L403.992 394.084L405.477 389.737L407.706 381.583L408.448 378.181L409.191 373.722L409.934 367.699L410.677 359.914L412.162 339.759L413.648 314.861L415.876 270.333L418.848 210.302L421.819 159.27L422.562 148.458L423.305 139.839L424.047 133.487L424.79 129.2L425.533 126.879L426.276 126.276L427.019 126.479L427.761 125.965L428.504 123.505L429.99 115.47L430.733 114.137L431.475 116.039L432.218 120.04L432.961 124.932L433.704 130.83L434.447 138.537L435.932 159.559L437.418 186.622L438.903 221.273L441.132 275.427L443.36 319.018L444.846 341.279L447.074 368.549L448.56 381.961L449.303 386.548L450.788 393.422L452.274 399.18L453.017 401.252L453.76 402.555L455.988 405.016L457.474 407.25L458.216 407.823L459.702 408.013L461.188 408.329L462.673 408.516L464.159 408.557L467.13 409.551L473.072 409.749L475.301 409.678L482.729 410.047L486.443 409.926L495.357 410.112L524.326 410.111" fill="#EFEFEF" fill-opacity="0.4"/>
<path d="M376.508 410.111L379.479 409.978L384.679 409.318L386.907 408.903L388.393 408.775L390.621 408.837L391.364 408.666L392.85 407.86L395.821 405.635L398.049 404.202L398.792 403.588L399.535 402.727L401.02 400.074L403.992 394.084L405.477 389.737L407.706 381.583L408.448 378.181L409.191 373.722L409.934 367.699L410.677 359.914L412.162 339.759L413.648 314.861L415.876 270.333L418.848 210.302L421.819 159.27L422.562 148.458L423.305 139.839L424.047 133.487L424.79 129.2L425.533 126.879L426.276 126.276L427.019 126.479L427.761 125.965L428.504 123.505L429.99 115.47L430.733 114.137L431.475 116.039L432.218 120.04L432.961 124.932L433.704 130.83L434.447 138.537L435.932 159.559L437.418 186.622L438.903 221.273L441.132 275.427L443.36 319.018L444.846 341.279L447.074 368.549L448.56 381.961L449.303 386.548L450.788 393.422L452.274 399.18L453.017 401.252L453.76 402.555L455.988 405.016L457.474 407.25L458.216 407.823L459.702 408.013L461.188 408.329L462.673 408.516L464.159 408.557L467.13 409.551L473.072 409.749L475.301 409.678L482.729 410.047L486.443 409.926L495.357 410.112L524.326 410.111" stroke="#EFEFEF" stroke-linecap="square"/>
</g>
<mask id="mask8_230_10318" style="mask-type:luminance" maskUnits="userSpaceOnUse" x="76" y="55" width="477" height="356">
<path d="M552.957 55.2959H76.7969V410.112H552.957V55.2959Z" fill="white"/>
</mask>
<g mask="url(#mask8_230_10318)">
<path d="M362.195 410.111L370.442 409.949L375.69 409.955L382.437 409.961L386.186 409.694L389.185 409.257L392.183 408.48L394.433 407.49L397.431 406.073L398.931 405.376L399.68 404.857L400.43 404.14L401.93 402.041L403.429 399.14L404.928 395.372L406.428 390.619L410.926 374.453L412.425 367.515L415.424 351.551L416.924 342.249L419.173 325.633L424.421 283.794L426.67 269.402L431.168 237.624L432.667 231.23L434.167 225.095L435.666 216.363L437.166 207.812L437.915 205.493L438.665 205.042L439.415 206.292L441.664 213.741L442.414 215.26L443.163 215.908L444.663 216.313L445.412 217.333L446.162 219.546L446.912 223.046L448.411 232.891L450.66 250.209L452.16 263.413L458.157 322.011L460.406 340.284L461.906 350.608L463.405 359.12L469.403 389.521L470.902 394.444L472.402 397.794L474.651 401.921L476.15 404.167L477.65 405.826L479.149 407.001L480.648 407.791L483.647 408.861L486.646 409.581L489.645 409.961L493.393 410.057L504.639 410.01L511.386 410.111" fill="#EFEFEF" fill-opacity="0.4"/>
<path d="M362.195 410.111L370.442 409.949L375.69 409.955L382.437 409.961L386.186 409.694L389.185 409.257L392.183 408.48L394.433 407.49L397.431 406.073L398.931 405.376L399.68 404.857L400.43 404.14L401.93 402.041L403.429 399.14L404.928 395.372L406.428 390.619L410.926 374.453L412.425 367.515L415.424 351.551L416.924 342.249L419.173 325.633L424.421 283.794L426.67 269.402L431.168 237.624L432.667 231.23L434.167 225.095L435.666 216.363L437.166 207.812L437.915 205.493L438.665 205.042L439.415 206.292L441.664 213.741L442.414 215.26L443.163 215.908L444.663 216.313L445.412 217.333L446.162 219.546L446.912 223.046L448.411 232.891L450.66 250.209L452.16 263.413L458.157 322.011L460.406 340.284L461.906 350.608L463.405 359.12L469.403 389.521L470.902 394.444L472.402 397.794L474.651 401.921L476.15 404.167L477.65 405.826L479.149 407.001L480.648 407.791L483.647 408.861L486.646 409.581L489.645 409.961L493.393 410.057L504.639 410.01L511.386 410.111" stroke="#EFEFEF" stroke-linecap="square"/>
</g>
<mask id="mask9_230_10318" style="mask-type:luminance" maskUnits="userSpaceOnUse" x="76" y="55" width="477" height="356">
<path d="M552.957 55.2959H76.7969V410.112H552.957V55.2959Z" fill="white"/>
</mask>
<g mask="url(#mask9_230_10318)">
<path d="M367.375 410.111L381.239 409.948L384.887 409.579L387.806 409.265L390.725 408.974L393.643 408.551L395.832 408.273L397.292 407.694L398.751 406.763L400.21 405.309L400.94 404.193L401.67 402.687L402.399 400.715L403.129 398.217L403.859 395.118L404.588 391.303L405.318 386.631L406.777 374.399L408.237 358.969L410.426 332.633L411.885 312.329L416.263 245.638L417.722 228.616L419.182 215.742L420.641 206.693L422.83 196.324L423.56 193.491L424.29 191.511L425.019 190.713L425.749 191.097L426.479 192.339L427.938 195.872L433.046 209.872L433.775 213.308L435.235 223.074L438.883 251.243L443.261 281.973L446.909 311.499L449.098 325.714L451.287 337.79L454.936 355.817L457.855 368.94L459.314 373.996L461.503 381.336L464.422 392.334L465.881 396.289L467.34 398.862L469.529 401.69L470.989 403.278L473.178 405.005L476.096 407.066L477.556 407.563L480.474 407.909L484.853 409.135L487.042 409.483L500.176 410.112L512.58 410.111" fill="#EFEFEF" fill-opacity="0.4"/>
<path d="M367.375 410.111L381.239 409.948L384.887 409.579L387.806 409.265L390.725 408.974L393.643 408.551L395.832 408.273L397.292 407.694L398.751 406.763L400.21 405.309L400.94 404.193L401.67 402.687L402.399 400.715L403.129 398.217L403.859 395.118L404.588 391.303L405.318 386.631L406.777 374.399L408.237 358.969L410.426 332.633L411.885 312.329L416.263 245.638L417.722 228.616L419.182 215.742L420.641 206.693L422.83 196.324L423.56 193.491L424.29 191.511L425.019 190.713L425.749 191.097L426.479 192.339L427.938 195.872L433.046 209.872L433.775 213.308L435.235 223.074L438.883 251.243L443.261 281.973L446.909 311.499L449.098 325.714L451.287 337.79L454.936 355.817L457.855 368.94L459.314 373.996L461.503 381.336L464.422 392.334L465.881 396.289L467.34 398.862L469.529 401.69L470.989 403.278L473.178 405.005L476.096 407.066L477.556 407.563L480.474 407.909L484.853 409.135L487.042 409.483L500.176 410.112L512.58 410.111" stroke="#EFEFEF" stroke-linecap="square"/>
</g>
<mask id="mask10_230_10318" style="mask-type:luminance" maskUnits="userSpaceOnUse" x="76" y="55" width="477" height="356">
<path d="M552.957 55.2959H76.7969V410.112H552.957V55.2959Z" fill="white"/>
</mask>
<g mask="url(#mask10_230_10318)">
<path d="M370.258 410.109L373.107 409.964L375.244 409.787L377.381 409.671L380.943 408.871L383.08 408.03L384.505 407.266L385.929 406.05L387.354 404.464L388.779 402.521L390.203 399.92L390.916 398.003L391.628 395.332L392.34 391.727L393.765 381.652L395.19 367.897L396.614 349.232L398.039 325.229L400.176 283.102L403.026 222.385L404.45 199.044L405.875 180.75L412.286 109.494L412.998 105.748L413.711 105.035L414.423 107.468L415.135 112.544L415.848 119.559L417.272 137.87L418.697 161.619L420.834 205.706L422.259 234.408L423.683 257.535L425.108 275.629L426.533 289.265L429.382 313.36L433.656 357.202L435.793 372.928L437.218 380.724L438.643 385.46L442.917 397.092L443.629 398.074L449.328 403.489L452.889 405.341L455.026 406.866L456.451 407.526L459.3 408.287L464.287 409.332L468.561 409.263L471.41 408.936L472.835 409.25L474.26 409.623L476.397 409.734L492.068 410.053L496.342 410.112L512.014 410.111" fill="#EFEFEF" fill-opacity="0.4"/>
<path d="M370.258 410.109L373.107 409.964L375.244 409.787L377.381 409.671L380.943 408.871L383.08 408.03L384.505 407.266L385.929 406.05L387.354 404.464L388.779 402.521L390.203 399.92L390.916 398.003L391.628 395.332L392.34 391.727L393.765 381.652L395.19 367.897L396.614 349.232L398.039 325.229L400.176 283.102L403.026 222.385L404.45 199.044L405.875 180.75L412.286 109.494L412.998 105.748L413.711 105.035L414.423 107.468L415.135 112.544L415.848 119.559L417.272 137.87L418.697 161.619L420.834 205.706L422.259 234.408L423.683 257.535L425.108 275.629L426.533 289.265L429.382 313.36L433.656 357.202L435.793 372.928L437.218 380.724L438.643 385.46L442.917 397.092L443.629 398.074L449.328 403.489L452.889 405.341L455.026 406.866L456.451 407.526L459.3 408.287L464.287 409.332L468.561 409.263L471.41 408.936L472.835 409.25L474.26 409.623L476.397 409.734L492.068 410.053L496.342 410.112L512.014 410.111" stroke="#EFEFEF" stroke-linecap="square"/>
</g>
<mask id="mask11_230_10318" style="mask-type:luminance" maskUnits="userSpaceOnUse" x="76" y="55" width="477" height="356">
<path d="M552.957 55.2959H76.7969V410.112H552.957V55.2959Z" fill="white"/>
</mask>
<g mask="url(#mask11_230_10318)">
<path d="M357.008 410.111L381.381 409.924L386.255 409.406L390.317 408.484L393.567 407.464L395.192 406.58L396.004 405.862L396.817 404.887L397.629 403.617L398.441 401.998L399.254 399.941L400.066 397.345L400.879 394.121L402.504 385.631L404.128 374.411L405.753 360.289L409.003 326.526L411.44 298.025L415.502 248.596L417.127 231.211L422.002 190.226L422.814 184.943L423.627 181.395L424.439 179.544L425.251 178.962L426.064 179.058L426.876 179.428L427.689 180.079L428.501 181.398L429.314 183.875L430.126 187.756L431.751 198.814L433.376 212.461L435.001 229.182L437.438 255.126L443.937 312.841L445.562 325.354L447.187 335.786L448.812 343.544L450.437 351.152L452.874 364.214L456.124 378.403L457.748 384.612L459.373 389.069L460.998 392.36L462.623 394.865L468.31 402.746L469.935 405.201L470.747 406.21L471.56 406.968L472.372 407.471L473.997 407.914L478.871 408.521L484.558 409.677L492.683 409.978L497.557 410.111L510.556 410.001L513.806 410.009L518.68 410.111" fill="#EFEFEF" fill-opacity="0.4"/>
<path d="M357.008 410.111L381.381 409.924L386.255 409.406L390.317 408.484L393.567 407.464L395.192 406.58L396.004 405.862L396.817 404.887L397.629 403.617L398.441 401.998L399.254 399.941L400.066 397.345L400.879 394.121L402.504 385.631L404.128 374.411L405.753 360.289L409.003 326.526L411.44 298.025L415.502 248.596L417.127 231.211L422.002 190.226L422.814 184.943L423.627 181.395L424.439 179.544L425.251 178.962L426.064 179.058L426.876 179.428L427.689 180.079L428.501 181.398L429.314 183.875L430.126 187.756L431.751 198.814L433.376 212.461L435.001 229.182L437.438 255.126L443.937 312.841L445.562 325.354L447.187 335.786L448.812 343.544L450.437 351.152L452.874 364.214L456.124 378.403L457.748 384.612L459.373 389.069L460.998 392.36L462.623 394.865L468.31 402.746L469.935 405.201L470.747 406.21L471.56 406.968L472.372 407.471L473.997 407.914L478.871 408.521L484.558 409.677L492.683 409.978L497.557 410.111L510.556 410.001L513.806 410.009L518.68 410.111" stroke="#EFEFEF" stroke-linecap="square"/>
</g>
<mask id="mask12_230_10318" style="mask-type:luminance" maskUnits="userSpaceOnUse" x="76" y="55" width="477" height="356">
<path d="M552.957 55.2959H76.7969V410.112H552.957V55.2959Z" fill="white"/>
</mask>
<g mask="url(#mask12_230_10318)">
<path d="M363.453 410.111L380.186 409.936L384.37 409.42L387.716 408.643L390.226 408.342L391.9 407.75L393.573 406.73L395.246 405.087L396.92 402.598L399.43 397.818L400.266 395.951L401.103 393.462L401.939 390.055L403.613 381.113L405.286 371.143L406.959 358.71L409.469 336.227L411.143 319.437L412.816 299.283L414.489 274.433L417.836 220.412L421.183 170.848L422.019 160.559L422.856 152.307L423.693 146.136L424.529 141.579L425.366 138.321L426.203 136.772L427.039 137.694L427.876 141.163L431.223 161.974L432.059 168.476L432.896 177.004L434.569 199.044L441.263 288.621L445.446 339.02L447.119 354.096L449.629 373.727L450.466 379.024L451.302 383.148L452.139 386.232L453.812 390.983L455.486 395.011L459.669 402.98L461.342 404.651L464.689 407.569L466.362 408.142L468.872 408.911L470.546 409.367L473.056 409.556L475.566 409.497L478.076 409.392L483.932 409.984L488.952 410.019L494.809 410.111L508.195 409.987L511.542 410.018L516.562 410.112L529.949 410.111" fill="#EFEFEF" fill-opacity="0.4"/>
<path d="M363.453 410.111L380.186 409.936L384.37 409.42L387.716 408.643L390.226 408.342L391.9 407.75L393.573 406.73L395.246 405.087L396.92 402.598L399.43 397.818L400.266 395.951L401.103 393.462L401.939 390.055L403.613 381.113L405.286 371.143L406.959 358.71L409.469 336.227L411.143 319.437L412.816 299.283L414.489 274.433L417.836 220.412L421.183 170.848L422.019 160.559L422.856 152.307L423.693 146.136L424.529 141.579L425.366 138.321L426.203 136.772L427.039 137.694L427.876 141.163L431.223 161.974L432.059 168.476L432.896 177.004L434.569 199.044L441.263 288.621L445.446 339.02L447.119 354.096L449.629 373.727L450.466 379.024L451.302 383.148L452.139 386.232L453.812 390.983L455.486 395.011L459.669 402.98L461.342 404.651L464.689 407.569L466.362 408.142L468.872 408.911L470.546 409.367L473.056 409.556L475.566 409.497L478.076 409.392L483.932 409.984L488.952 410.019L494.809 410.111L508.195 409.987L511.542 410.018L516.562 410.112L529.949 410.111" stroke="#EFEFEF" stroke-linecap="square"/>
</g>
<mask id="mask13_230_10318" style="mask-type:luminance" maskUnits="userSpaceOnUse" x="76" y="55" width="477" height="356">
<path d="M552.957 55.2959H76.7969V410.112H552.957V55.2959Z" fill="white"/>
</mask>
<g mask="url(#mask13_230_10318)">
<path d="M361.609 410.111L367.435 409.969L372.429 409.736L375.758 409.682L379.087 409.189L380.752 408.718L382.417 407.884L385.746 405.637L387.41 404.1L389.075 401.934L390.739 399.266L392.404 395.731L394.068 390.813L395.733 384.55L397.398 377.07L399.062 368.473L401.559 353.576L406.553 320.565L408.217 308.276L410.714 285.542L414.043 256.418L417.372 227.967L418.205 222.111L419.037 217.49L419.869 214.241L420.702 212.185L421.534 210.949L423.198 209.503L424.863 208.246L425.695 207.809L426.528 207.773L427.36 208.353L428.192 209.695L429.024 211.832L430.689 217.983L432.354 226.007L434.018 236.472L439.012 273.239L441.509 293.195L444.006 314.586L445.67 326.371L453.161 371.617L454.825 379.087L456.49 385.306L458.154 390.287L459.819 394.057L463.148 400.183L464.813 402.669L467.31 405.529L468.974 406.989L470.639 407.845L472.303 408.201L482.291 409.483L484.788 409.844L487.284 409.852L490.614 409.71L501.433 410.099L517.247 410.1L526.402 410.109L527.234 410.111" fill="#EFEFEF" fill-opacity="0.4"/>
<path d="M361.609 410.111L367.435 409.969L372.429 409.736L375.758 409.682L379.087 409.189L380.752 408.718L382.417 407.884L385.746 405.637L387.41 404.1L389.075 401.934L390.739 399.266L392.404 395.731L394.068 390.813L395.733 384.55L397.398 377.07L399.062 368.473L401.559 353.576L406.553 320.565L408.217 308.276L410.714 285.542L414.043 256.418L417.372 227.967L418.205 222.111L419.037 217.49L419.869 214.241L420.702 212.185L421.534 210.949L423.198 209.503L424.863 208.246L425.695 207.809L426.528 207.773L427.36 208.353L428.192 209.695L429.024 211.832L430.689 217.983L432.354 226.007L434.018 236.472L439.012 273.239L441.509 293.195L444.006 314.586L445.67 326.371L453.161 371.617L454.825 379.087L456.49 385.306L458.154 390.287L459.819 394.057L463.148 400.183L464.813 402.669L467.31 405.529L468.974 406.989L470.639 407.845L472.303 408.201L482.291 409.483L484.788 409.844L487.284 409.852L490.614 409.71L501.433 410.099L517.247 410.1L526.402 410.109L527.234 410.111" stroke="#EFEFEF" stroke-linecap="square"/>
</g>
<mask id="mask14_230_10318" style="mask-type:luminance" maskUnits="userSpaceOnUse" x="76" y="55" width="477" height="356">
<path d="M552.957 55.2959H76.7969V410.112H552.957V55.2959Z" fill="white"/>
</mask>
<g mask="url(#mask14_230_10318)">
<path d="M98.4375 410.111L128.891 410.112L379.043 410.027L383.394 409.804L385.569 409.505L389.92 408.239L392.095 407.102L394.27 404.681L396.445 400.488L398.621 394.223L400.796 386.301L402.971 375.26L405.146 359.401L407.322 340.471L409.497 318.973L416.023 237.851L418.198 208.631L420.373 181.972L422.548 170.557L424.723 173.377L426.899 183.097L429.074 197.896L431.249 217.162L435.6 263.874L437.775 284.036L439.95 297.673L444.301 319.29L446.476 331.635L448.651 342.776L455.177 369.725L457.352 375.502L459.527 380.671L463.878 392.038L466.053 396.13L468.228 398.741L470.404 400.807L472.579 403.082L474.754 404.921L476.929 406.104L481.28 407.653L485.63 408.924L489.981 409.578L494.331 409.72L507.383 410.095L518.259 409.959L526.96 410.062L531.31 410.111" fill="#7EB0D5" fill-opacity="0.4"/>
<path d="M98.4375 410.111L128.891 410.112L379.043 410.027L383.394 409.804L385.569 409.505L389.92 408.239L392.095 407.102L394.27 404.681L396.445 400.488L398.621 394.223L400.796 386.301L402.971 375.26L405.146 359.401L407.322 340.471L409.497 318.973L416.023 237.851L418.198 208.631L420.373 181.972L422.548 170.557L424.723 173.377L426.899 183.097L429.074 197.896L431.249 217.162L435.6 263.874L437.775 284.036L439.95 297.673L444.301 319.29L446.476 331.635L448.651 342.776L455.177 369.725L457.352 375.502L459.527 380.671L463.878 392.038L466.053 396.13L468.228 398.741L470.404 400.807L472.579 403.082L474.754 404.921L476.929 406.104L481.28 407.653L485.63 408.924L489.981 409.578L494.331 409.72L507.383 410.095L518.259 409.959L526.96 410.062L531.31 410.111" stroke="#7EB0D5" stroke-linecap="square"/>
</g>
<path d="M535.061 411.061C535.646 410.475 535.646 409.525 535.061 408.939L525.515 399.393C524.929 398.808 523.979 398.808 523.393 399.393C522.808 399.979 522.808 400.929 523.393 401.515L531.879 410L523.393 418.485C522.808 419.071 522.808 420.021 523.393 420.607C523.979 421.192 524.929 421.192 525.515 420.607L535.061 411.061ZM79 411.5H534V408.5H79V411.5Z" fill="black"/>
</g>
<defs>
<clipPath id="clip0_230_10318">
<rect width="614.4" height="460.8" fill="white"/>
</clipPath>
</defs>
</svg>
