<svg width="615" height="461" viewBox="0 0 615 461" fill="none" xmlns="http://www.w3.org/2000/svg">
<mask id="mask0_230_11838" style="mask-type:luminance" maskUnits="userSpaceOnUse" x="76" y="55" width="477" height="356">
<path d="M552.957 55.2959H76.7969V410.112H552.957V55.2959Z" fill="white"/>
</mask>
<g mask="url(#mask0_230_11838)">
<path d="M276.07 410.112L294.471 409.966L299.378 409.648L306.738 408.744L311.644 407.842L314.098 407.2L316.551 406.204L319.005 404.701L321.458 402.749L323.911 400.411L326.365 397.568L328.818 394.077L331.272 389.778L333.725 384.519L336.178 378.439L338.632 371.738L342.312 360.724L345.992 349.332L348.445 340.59L350.899 330.015L354.579 313.365L357.032 303.76L360.712 291.351L365.619 276.009L366.846 272.868L368.073 270.352L369.299 268.554L370.526 267.475L371.753 267.029L372.979 267.051L375.433 267.732L377.886 268.625L379.113 269.228L380.339 270.031L381.566 271.068L382.793 272.361L384.02 273.945L385.246 275.87L386.473 278.172L388.926 283.824L391.38 290.403L393.833 297.557L396.287 305.387L406.1 338.61L409.78 349.472L413.46 358.89L419.594 374.533L422.047 379.351L428.181 389.562L430.634 393.075L433.087 395.738L435.541 397.622L441.674 401.696L444.128 403.393L446.581 404.689L449.034 405.55L453.941 406.773L462.528 408.402L471.115 409.533L476.022 409.882L482.155 409.973L490.742 410.019L504.236 410.026L520.183 410.112" fill="#EFEFEF" fill-opacity="0.4"/>
<path d="M276.07 410.112L294.471 409.966L299.378 409.648L306.738 408.744L311.644 407.842L314.098 407.2L316.551 406.204L319.005 404.701L321.458 402.749L323.911 400.411L326.365 397.568L328.818 394.077L331.272 389.778L333.725 384.519L336.178 378.439L338.632 371.738L342.312 360.724L345.992 349.332L348.445 340.59L350.899 330.015L354.579 313.365L357.032 303.76L360.712 291.351L365.619 276.009L366.846 272.868L368.073 270.352L369.299 268.554L370.526 267.475L371.753 267.029L372.979 267.051L375.433 267.732L377.886 268.625L379.113 269.228L380.339 270.031L381.566 271.068L382.793 272.361L384.02 273.945L385.246 275.87L386.473 278.172L388.926 283.824L391.38 290.403L393.833 297.557L396.287 305.387L406.1 338.61L409.78 349.472L413.46 358.89L419.594 374.533L422.047 379.351L428.181 389.562L430.634 393.075L433.087 395.738L435.541 397.622L441.674 401.696L444.128 403.393L446.581 404.689L449.034 405.55L453.941 406.773L462.528 408.402L471.115 409.533L476.022 409.882L482.155 409.973L490.742 410.019L504.236 410.026L520.183 410.112" stroke="#EFEFEF" stroke-linecap="square"/>
</g>
<mask id="mask1_230_11838" style="mask-type:luminance" maskUnits="userSpaceOnUse" x="76" y="55" width="477" height="356">
<path d="M552.957 55.2959H76.7969V410.112H552.957V55.2959Z" fill="white"/>
</mask>
<g mask="url(#mask1_230_11838)">
<path d="M293.305 410.111L299.285 410.02L302.873 409.679L305.265 409.201L307.657 408.39L308.853 407.791L310.049 407.016L311.245 406.027L312.441 404.782L313.637 403.219L314.833 401.255L316.029 398.793L317.225 395.731L318.421 391.993L319.617 387.541L320.813 382.38L323.205 370.111L325.597 355.714L332.773 310.141L336.361 291.282L338.753 279.534L341.145 269.375L342.341 265.33L343.537 262.011L344.733 259.342L345.929 257.263L347.125 255.775L348.321 254.908L349.517 254.646L350.713 254.904L351.909 255.574L353.105 256.625L354.301 258.142L355.497 260.286L356.694 263.189L357.89 266.859L360.282 275.761L362.674 284.844L365.066 292.764L368.654 303.871L374.634 323.339L377.026 328.993L380.614 335.917L384.202 342.543L386.594 346.491L388.986 349.739L393.77 355.353L396.162 359.413L399.75 365.89L402.142 369.364L410.514 380.573L414.102 384.77L417.69 389.047L422.474 394.589L426.062 398.667L428.454 400.89L430.846 402.748L433.238 404.308L435.631 405.561L438.023 406.468L440.415 407.056L454.767 409.437L459.551 409.726L475.099 410.006L510.979 410.025L525.332 410.09L531.312 410.112" fill="#EFEFEF" fill-opacity="0.4"/>
<path d="M293.305 410.111L299.285 410.02L302.873 409.679L305.265 409.201L307.657 408.39L308.853 407.791L310.049 407.016L311.245 406.027L312.441 404.782L313.637 403.219L314.833 401.255L316.029 398.793L317.225 395.731L318.421 391.993L319.617 387.541L320.813 382.38L323.205 370.111L325.597 355.714L332.773 310.141L336.361 291.282L338.753 279.534L341.145 269.375L342.341 265.33L343.537 262.011L344.733 259.342L345.929 257.263L347.125 255.775L348.321 254.908L349.517 254.646L350.713 254.904L351.909 255.574L353.105 256.625L354.301 258.142L355.497 260.286L356.694 263.189L357.89 266.859L360.282 275.761L362.674 284.844L365.066 292.764L368.654 303.871L374.634 323.339L377.026 328.993L380.614 335.917L384.202 342.543L386.594 346.491L388.986 349.739L393.77 355.353L396.162 359.413L399.75 365.89L402.142 369.364L410.514 380.573L414.102 384.77L417.69 389.047L422.474 394.589L426.062 398.667L428.454 400.89L430.846 402.748L433.238 404.308L435.631 405.561L438.023 406.468L440.415 407.056L454.767 409.437L459.551 409.726L475.099 410.006L510.979 410.025L525.332 410.09L531.312 410.112" stroke="#EFEFEF" stroke-linecap="square"/>
</g>
<mask id="mask2_230_11838" style="mask-type:luminance" maskUnits="userSpaceOnUse" x="76" y="55" width="477" height="356">
<path d="M552.957 55.2959H76.7969V410.112H552.957V55.2959Z" fill="white"/>
</mask>
<g mask="url(#mask2_230_11838)">
<path d="M313.633 410.111L320.713 409.969L329.817 409.449L331.84 409.171L332.851 408.839L333.863 408.321L335.886 406.724L337.909 404.526L341.955 399.357L343.978 396.244L344.99 394.141L346.001 391.482L347.013 388.202L349.036 379.995L355.105 352.166L357.128 340.729L360.162 320.189L363.197 300.418L367.243 274.695L371.289 248.792L372.3 243.363L373.312 238.758L374.323 235.028L375.335 232.105L376.346 229.848L377.358 228.105L378.369 226.766L379.381 225.8L380.392 225.263L381.404 225.238L382.415 225.762L383.427 226.788L384.438 228.223L386.461 231.864L388.484 235.473L390.507 238.957L391.519 241.532L392.53 245.125L394.554 254.861L400.623 287.995L405.68 317.871L409.726 339.713L412.761 356.027L414.784 364.858L416.807 372.27L419.841 382.042L421.864 387.576L423.887 391.836L425.91 394.802L430.968 400.894L432.991 403.301L435.014 405.129L437.037 406.428L439.06 407.312L442.094 408.202L445.129 408.872L448.163 409.253L453.221 409.618L461.313 409.835L464.348 409.964L483.566 410.106L505.819 410.054L513.912 410.11L514.923 410.111" fill="#EFEFEF" fill-opacity="0.4"/>
<path d="M313.633 410.111L320.713 409.969L329.817 409.449L331.84 409.171L332.851 408.839L333.863 408.321L335.886 406.724L337.909 404.526L341.955 399.357L343.978 396.244L344.99 394.141L346.001 391.482L347.013 388.202L349.036 379.995L355.105 352.166L357.128 340.729L360.162 320.189L363.197 300.418L367.243 274.695L371.289 248.792L372.3 243.363L373.312 238.758L374.323 235.028L375.335 232.105L376.346 229.848L377.358 228.105L378.369 226.766L379.381 225.8L380.392 225.263L381.404 225.238L382.415 225.762L383.427 226.788L384.438 228.223L386.461 231.864L388.484 235.473L390.507 238.957L391.519 241.532L392.53 245.125L394.554 254.861L400.623 287.995L405.68 317.871L409.726 339.713L412.761 356.027L414.784 364.858L416.807 372.27L419.841 382.042L421.864 387.576L423.887 391.836L425.91 394.802L430.968 400.894L432.991 403.301L435.014 405.129L437.037 406.428L439.06 407.312L442.094 408.202L445.129 408.872L448.163 409.253L453.221 409.618L461.313 409.835L464.348 409.964L483.566 410.106L505.819 410.054L513.912 410.11L514.923 410.111" stroke="#EFEFEF" stroke-linecap="square"/>
</g>
<mask id="mask3_230_11838" style="mask-type:luminance" maskUnits="userSpaceOnUse" x="76" y="55" width="477" height="356">
<path d="M552.957 55.2959H76.7969V410.112H552.957V55.2959Z" fill="white"/>
</mask>
<g mask="url(#mask3_230_11838)">
<path d="M326.383 410.111L337.26 409.955L347.149 409.67L356.048 409.017L363.959 407.971L367.914 406.938L371.87 405.625L374.836 404.248L377.803 402.459L381.758 399.926L387.691 396.573L389.669 394.926L391.647 392.66L393.624 389.731L395.602 386.197L397.58 382.028L399.558 377.098L401.535 371.421L404.502 361.776L410.435 341.106L411.424 338.491L412.413 336.369L413.401 334.757L414.39 333.618L415.379 332.878L416.368 332.45L417.357 332.265L418.346 332.29L419.334 332.538L420.323 333.042L421.312 333.832L423.29 336.185L425.268 338.88L426.256 339.947L427.245 340.594L428.234 340.685L429.223 340.137L430.212 338.928L431.201 337.078L432.189 334.631L433.178 331.641L435.156 324.266L437.134 315.524L440.1 300.969L449 255.053L450.978 246.653L452.955 239.885L453.944 237.25L454.933 235.181L455.922 233.742L456.911 233.017L457.9 233.095L458.888 234.06L459.877 235.968L460.866 238.839L461.855 242.651L462.844 247.339L464.821 258.942L466.799 272.777L469.766 296.271L475.699 345.585L477.676 359.985L479.654 372.288L481.632 382.235L483.61 389.981L485.587 395.805L486.576 398.07L487.565 399.952L489.543 402.785L491.52 404.772L493.498 406.273L495.476 407.435L497.453 408.268L499.431 408.803L502.398 409.278L506.353 409.601L519.208 410.099L523.163 410.112" fill="#EFEFEF" fill-opacity="0.4"/>
<path d="M326.383 410.111L337.26 409.955L347.149 409.67L356.048 409.017L363.959 407.971L367.914 406.938L371.87 405.625L374.836 404.248L377.803 402.459L381.758 399.926L387.691 396.573L389.669 394.926L391.647 392.66L393.624 389.731L395.602 386.197L397.58 382.028L399.558 377.098L401.535 371.421L404.502 361.776L410.435 341.106L411.424 338.491L412.413 336.369L413.401 334.757L414.39 333.618L415.379 332.878L416.368 332.45L417.357 332.265L418.346 332.29L419.334 332.538L420.323 333.042L421.312 333.832L423.29 336.185L425.268 338.88L426.256 339.947L427.245 340.594L428.234 340.685L429.223 340.137L430.212 338.928L431.201 337.078L432.189 334.631L433.178 331.641L435.156 324.266L437.134 315.524L440.1 300.969L449 255.053L450.978 246.653L452.955 239.885L453.944 237.25L454.933 235.181L455.922 233.742L456.911 233.017L457.9 233.095L458.888 234.06L459.877 235.968L460.866 238.839L461.855 242.651L462.844 247.339L464.821 258.942L466.799 272.777L469.766 296.271L475.699 345.585L477.676 359.985L479.654 372.288L481.632 382.235L483.61 389.981L485.587 395.805L486.576 398.07L487.565 399.952L489.543 402.785L491.52 404.772L493.498 406.273L495.476 407.435L497.453 408.268L499.431 408.803L502.398 409.278L506.353 409.601L519.208 410.099L523.163 410.112" stroke="#EFEFEF" stroke-linecap="square"/>
</g>
<mask id="mask4_230_11838" style="mask-type:luminance" maskUnits="userSpaceOnUse" x="76" y="55" width="477" height="356">
<path d="M552.957 55.2959H76.7969V410.112H552.957V55.2959Z" fill="white"/>
</mask>
<g mask="url(#mask4_230_11838)">
<path d="M289.078 410.112L305.588 409.99L308.89 409.751L311.092 409.404L313.293 408.756L314.394 408.246L315.495 407.567L316.595 406.687L317.696 405.582L318.797 404.232L319.897 402.623L322.099 398.577L324.3 393.358L326.501 386.942L328.703 379.423L332.005 366.781L337.508 345.58L340.81 333.721L343.012 326.799L346.314 317.879L352.918 300.497L355.119 295.85L357.32 291.787L359.522 288.268L361.723 285.56L363.925 283.59L366.126 282.023L367.227 281.429L368.327 281.066L369.428 281.008L370.529 281.273L371.629 281.813L373.831 283.358L376.032 285.212L377.133 286.348L378.233 287.729L379.334 289.401L381.536 293.545L384.838 300.858L388.14 308.913L396.945 331.491L402.448 344.948L406.851 355.968L409.053 360.503L411.254 364.184L415.657 371.214L418.959 376.675L421.16 379.855L423.361 382.617L427.764 387.47L432.167 392.074L435.469 395.018L439.872 398.483L443.174 400.76L446.476 402.63L451.979 405.35L456.382 407.246L458.583 407.922L461.885 408.568L470.691 409.782L475.094 409.977L508.114 410.112" fill="#EFEFEF" fill-opacity="0.4"/>
<path d="M289.078 410.112L305.588 409.99L308.89 409.751L311.092 409.404L313.293 408.756L314.394 408.246L315.495 407.567L316.595 406.687L317.696 405.582L318.797 404.232L319.897 402.623L322.099 398.577L324.3 393.358L326.501 386.942L328.703 379.423L332.005 366.781L337.508 345.58L340.81 333.721L343.012 326.799L346.314 317.879L352.918 300.497L355.119 295.85L357.32 291.787L359.522 288.268L361.723 285.56L363.925 283.59L366.126 282.023L367.227 281.429L368.327 281.066L369.428 281.008L370.529 281.273L371.629 281.813L373.831 283.358L376.032 285.212L377.133 286.348L378.233 287.729L379.334 289.401L381.536 293.545L384.838 300.858L388.14 308.913L396.945 331.491L402.448 344.948L406.851 355.968L409.053 360.503L411.254 364.184L415.657 371.214L418.959 376.675L421.16 379.855L423.361 382.617L427.764 387.47L432.167 392.074L435.469 395.018L439.872 398.483L443.174 400.76L446.476 402.63L451.979 405.35L456.382 407.246L458.583 407.922L461.885 408.568L470.691 409.782L475.094 409.977L508.114 410.112" stroke="#EFEFEF" stroke-linecap="square"/>
</g>
<mask id="mask5_230_11838" style="mask-type:luminance" maskUnits="userSpaceOnUse" x="76" y="55" width="477" height="356">
<path d="M552.957 55.2959H76.7969V410.112H552.957V55.2959Z" fill="white"/>
</mask>
<g mask="url(#mask5_230_11838)">
<path d="M332.242 410.111L336.171 409.994L342.456 409.611L346.385 409.637L354.242 408.43L355.813 408.256L357.384 408.156L361.313 407.322L363.67 407.365L365.241 406.809L367.598 405.695L369.955 404.818L370.741 404.265L372.312 402.592L373.884 400.921L375.455 399.546L376.241 398.627L377.027 397.334L377.812 395.607L379.384 391.045L382.526 380.638L383.312 377.473L384.098 373.45L385.669 362.573L387.241 348.958L388.812 332.144L391.955 291.042L394.312 259.416L395.883 234.479L399.812 167.647L401.383 145.912L402.169 137.585L402.954 131.435L403.74 127.376L404.526 124.755L406.097 120.797L406.883 119.375L407.669 119.275L408.454 121.187L409.24 125.252L410.026 131.127L412.383 153.725L417.097 200.063L418.668 222.142L421.025 258.257L422.597 276.844L424.954 302.365L428.882 346.938L430.454 361.144L432.025 371.487L433.596 379.106L435.168 385.581L436.739 390.958L438.311 395.165L439.882 398.615L441.453 401.489L442.239 402.534L443.025 403.271L450.882 408.403L452.453 408.929L458.739 409.805L463.453 409.991L468.167 409.816L471.31 409.904L485.452 410.03L488.595 410.11" fill="#EFEFEF" fill-opacity="0.4"/>
<path d="M332.242 410.111L336.171 409.994L342.456 409.611L346.385 409.637L354.242 408.43L355.813 408.256L357.384 408.156L361.313 407.322L363.67 407.365L365.241 406.809L367.598 405.695L369.955 404.818L370.741 404.265L372.312 402.592L373.884 400.921L375.455 399.546L376.241 398.627L377.027 397.334L377.812 395.607L379.384 391.045L382.526 380.638L383.312 377.473L384.098 373.45L385.669 362.573L387.241 348.958L388.812 332.144L391.955 291.042L394.312 259.416L395.883 234.479L399.812 167.647L401.383 145.912L402.169 137.585L402.954 131.435L403.74 127.376L404.526 124.755L406.097 120.797L406.883 119.375L407.669 119.275L408.454 121.187L409.24 125.252L410.026 131.127L412.383 153.725L417.097 200.063L418.668 222.142L421.025 258.257L422.597 276.844L424.954 302.365L428.882 346.938L430.454 361.144L432.025 371.487L433.596 379.106L435.168 385.581L436.739 390.958L438.311 395.165L439.882 398.615L441.453 401.489L442.239 402.534L443.025 403.271L450.882 408.403L452.453 408.929L458.739 409.805L463.453 409.991L468.167 409.816L471.31 409.904L485.452 410.03L488.595 410.11" stroke="#EFEFEF" stroke-linecap="square"/>
</g>
<mask id="mask6_230_11838" style="mask-type:luminance" maskUnits="userSpaceOnUse" x="76" y="55" width="477" height="356">
<path d="M552.957 55.2959H76.7969V410.112H552.957V55.2959Z" fill="white"/>
</mask>
<g mask="url(#mask6_230_11838)">
<path d="M304.32 410.11L312.675 409.948L318.942 409.642L329.385 408.601L331.474 407.757L333.563 406.4L336.696 403.758L340.873 400.024L341.918 398.821L342.962 397.354L344.007 395.567L345.051 393.436L347.14 388.165L349.228 381.605L351.317 373.685L353.406 364.372L356.539 348.349L358.628 336.502L360.717 323.375L364.894 295.569L366.983 284.648L369.072 276.78L375.338 257.299L376.382 254.872L377.427 253.194L378.471 252.307L379.515 252.141L380.56 252.559L381.604 253.4L385.782 257.79L387.87 259.268L388.915 259.976L389.959 260.91L391.003 262.282L392.048 264.266L393.092 266.94L395.181 274.079L400.403 293.921L404.58 308.9L407.713 321.432L410.847 334.451L412.935 341.849L413.98 344.85L416.068 349.6L421.29 359.828L426.512 371.221L428.601 375.236L430.69 378.788L432.778 381.806L435.912 385.515L442.178 392.454L445.311 395.045L451.577 399.788L458.888 404.681L460.977 405.94L463.065 406.903L465.154 407.545L469.332 408.328L474.553 409.043L480.82 409.627L494.397 410.004L506.929 410.071L512.151 410.11" fill="#EFEFEF" fill-opacity="0.4"/>
<path d="M304.32 410.11L312.675 409.948L318.942 409.642L329.385 408.601L331.474 407.757L333.563 406.4L336.696 403.758L340.873 400.024L341.918 398.821L342.962 397.354L344.007 395.567L345.051 393.436L347.14 388.165L349.228 381.605L351.317 373.685L353.406 364.372L356.539 348.349L358.628 336.502L360.717 323.375L364.894 295.569L366.983 284.648L369.072 276.78L375.338 257.299L376.382 254.872L377.427 253.194L378.471 252.307L379.515 252.141L380.56 252.559L381.604 253.4L385.782 257.79L387.87 259.268L388.915 259.976L389.959 260.91L391.003 262.282L392.048 264.266L393.092 266.94L395.181 274.079L400.403 293.921L404.58 308.9L407.713 321.432L410.847 334.451L412.935 341.849L413.98 344.85L416.068 349.6L421.29 359.828L426.512 371.221L428.601 375.236L430.69 378.788L432.778 381.806L435.912 385.515L442.178 392.454L445.311 395.045L451.577 399.788L458.888 404.681L460.977 405.94L463.065 406.903L465.154 407.545L469.332 408.328L474.553 409.043L480.82 409.627L494.397 410.004L506.929 410.071L512.151 410.11" stroke="#EFEFEF" stroke-linecap="square"/>
</g>
<mask id="mask7_230_11838" style="mask-type:luminance" maskUnits="userSpaceOnUse" x="76" y="55" width="477" height="356">
<path d="M552.957 55.2959H76.7969V410.112H552.957V55.2959Z" fill="white"/>
</mask>
<g mask="url(#mask7_230_11838)">
<path d="M319.641 410.111L326.621 409.952L331.607 409.477L335.596 408.891L337.591 408.331L339.585 407.38L340.582 406.689L341.58 405.808L342.577 404.704L343.574 403.355L345.569 399.898L347.563 395.431L349.558 389.822L351.552 382.691L353.546 373.579L355.541 362.155L357.535 348.287L360.527 323.94L366.51 272.064L369.502 245.615L371.497 231.475L373.491 221.251L375.486 213.447L376.483 210.24L377.48 207.588L378.477 205.518L379.474 203.97L380.472 202.884L381.469 202.309L382.466 202.455L383.463 203.635L384.461 206.126L385.458 210.044L386.455 215.285L388.45 228.448L393.436 265.214L398.422 303.533L400.416 316.526L402.411 327.824L404.405 337.672L406.4 345.817L408.394 352.301L412.383 363.692L414.377 368.667L416.372 372.742L419.364 377.884L422.355 382.202L424.35 384.648L426.344 386.708L428.339 388.304L430.333 389.45L433.325 390.966L439.308 394.762L442.3 396.829L445.292 398.886L448.283 400.48L453.269 402.997L458.256 405.55L461.247 406.839L463.242 407.409L466.233 407.878L476.206 409.041L481.192 409.074L496.15 409.985L507.12 410.066L517.092 410.11L518.089 410.111" fill="#EFEFEF" fill-opacity="0.4"/>
<path d="M319.641 410.111L326.621 409.952L331.607 409.477L335.596 408.891L337.591 408.331L339.585 407.38L340.582 406.689L341.58 405.808L342.577 404.704L343.574 403.355L345.569 399.898L347.563 395.431L349.558 389.822L351.552 382.691L353.546 373.579L355.541 362.155L357.535 348.287L360.527 323.94L366.51 272.064L369.502 245.615L371.497 231.475L373.491 221.251L375.486 213.447L376.483 210.24L377.48 207.588L378.477 205.518L379.474 203.97L380.472 202.884L381.469 202.309L382.466 202.455L383.463 203.635L384.461 206.126L385.458 210.044L386.455 215.285L388.45 228.448L393.436 265.214L398.422 303.533L400.416 316.526L402.411 327.824L404.405 337.672L406.4 345.817L408.394 352.301L412.383 363.692L414.377 368.667L416.372 372.742L419.364 377.884L422.355 382.202L424.35 384.648L426.344 386.708L428.339 388.304L430.333 389.45L433.325 390.966L439.308 394.762L442.3 396.829L445.292 398.886L448.283 400.48L453.269 402.997L458.256 405.55L461.247 406.839L463.242 407.409L466.233 407.878L476.206 409.041L481.192 409.074L496.15 409.985L507.12 410.066L517.092 410.11L518.089 410.111" stroke="#EFEFEF" stroke-linecap="square"/>
</g>
<mask id="mask8_230_11838" style="mask-type:luminance" maskUnits="userSpaceOnUse" x="76" y="55" width="477" height="356">
<path d="M552.957 55.2959H76.7969V410.112H552.957V55.2959Z" fill="white"/>
</mask>
<g mask="url(#mask8_230_11838)">
<path d="M304.586 410.111L310.918 409.998L314.084 409.688L320.416 408.603L322.526 408.11L324.637 407.271L326.747 406.033L329.913 403.724L332.024 401.615L333.079 400.21L335.19 396.583L337.3 391.93L339.411 386.216L341.522 379.336L343.632 371.292L345.743 362.227L347.854 352.26L349.964 341.095L352.075 328.461L359.462 281.918L360.517 277.184L361.573 273.321L363.683 267.429L366.849 260.064L368.96 255.984L370.015 254.453L371.07 253.352L372.126 252.748L373.181 252.709L374.236 253.264L375.292 254.373L377.402 257.695L380.568 262.986L382.679 266.46L383.734 268.544L385.845 273.742L387.955 280.094L390.066 287.392L397.453 314.949L401.674 327.888L404.84 336.595L409.061 347.412L415.393 365.32L418.559 372.466L421.725 378.995L423.836 382.832L427.002 387.846L431.223 394.077L433.333 396.769L435.444 399.044L437.555 401.009L439.665 402.6L441.776 403.662L447.052 405.681L450.218 407.087L453.384 408.008L457.606 408.884L460.771 409.284L468.159 409.78L513.537 410.111L514.592 410.112" fill="#EFEFEF" fill-opacity="0.4"/>
<path d="M304.586 410.111L310.918 409.998L314.084 409.688L320.416 408.603L322.526 408.11L324.637 407.271L326.747 406.033L329.913 403.724L332.024 401.615L333.079 400.21L335.19 396.583L337.3 391.93L339.411 386.216L341.522 379.336L343.632 371.292L345.743 362.227L347.854 352.26L349.964 341.095L352.075 328.461L359.462 281.918L360.517 277.184L361.573 273.321L363.683 267.429L366.849 260.064L368.96 255.984L370.015 254.453L371.07 253.352L372.126 252.748L373.181 252.709L374.236 253.264L375.292 254.373L377.402 257.695L380.568 262.986L382.679 266.46L383.734 268.544L385.845 273.742L387.955 280.094L390.066 287.392L397.453 314.949L401.674 327.888L404.84 336.595L409.061 347.412L415.393 365.32L418.559 372.466L421.725 378.995L423.836 382.832L427.002 387.846L431.223 394.077L433.333 396.769L435.444 399.044L437.555 401.009L439.665 402.6L441.776 403.662L447.052 405.681L450.218 407.087L453.384 408.008L457.606 408.884L460.771 409.284L468.159 409.78L513.537 410.111L514.592 410.112" stroke="#EFEFEF" stroke-linecap="square"/>
</g>
<mask id="mask9_230_11838" style="mask-type:luminance" maskUnits="userSpaceOnUse" x="76" y="55" width="477" height="356">
<path d="M552.957 55.2959H76.7969V410.112H552.957V55.2959Z" fill="white"/>
</mask>
<g mask="url(#mask9_230_11838)">
<path d="M312.766 410.111L326.101 409.956L330.204 409.936L334.308 410.059L346.617 409.656L349.695 409.201L357.901 407.165L363.03 405.636L365.082 404.478L366.108 403.647L367.133 402.596L369.185 399.797L371.237 396.308L373.288 392.084L374.314 389.46L376.366 382.98L378.417 375.242L383.546 353.792L386.624 339.838L388.675 328.249L392.779 301.123L397.908 266.608L400.985 250.082L404.062 233.262L408.166 210.834L409.191 206.108L410.217 202.377L411.243 200.111L412.269 199.608L413.295 200.74L415.346 205.089L416.372 206.749L418.424 209.148L419.449 211.232L420.475 214.383L421.501 218.492L422.527 223.554L423.553 229.85L424.578 237.665L426.63 257.373L429.708 288.925L431.759 306.205L439.966 367.416L442.017 379.781L443.043 384.663L444.069 388.731L446.12 395.047L448.172 399.768L449.198 401.589L450.224 403.07L452.275 405.234L454.327 406.786L456.379 408.003L458.43 408.711L461.508 409.158L466.637 409.648L470.74 409.756L477.92 409.93L482.024 410.032L500.488 410.095L508.695 410.047L515.875 410.109L516.901 410.111" fill="#EFEFEF" fill-opacity="0.4"/>
<path d="M312.766 410.111L326.101 409.956L330.204 409.936L334.308 410.059L346.617 409.656L349.695 409.201L357.901 407.165L363.03 405.636L365.082 404.478L366.108 403.647L367.133 402.596L369.185 399.797L371.237 396.308L373.288 392.084L374.314 389.46L376.366 382.98L378.417 375.242L383.546 353.792L386.624 339.838L388.675 328.249L392.779 301.123L397.908 266.608L400.985 250.082L404.062 233.262L408.166 210.834L409.191 206.108L410.217 202.377L411.243 200.111L412.269 199.608L413.295 200.74L415.346 205.089L416.372 206.749L418.424 209.148L419.449 211.232L420.475 214.383L421.501 218.492L422.527 223.554L423.553 229.85L424.578 237.665L426.63 257.373L429.708 288.925L431.759 306.205L439.966 367.416L442.017 379.781L443.043 384.663L444.069 388.731L446.12 395.047L448.172 399.768L449.198 401.589L450.224 403.07L452.275 405.234L454.327 406.786L456.379 408.003L458.43 408.711L461.508 409.158L466.637 409.648L470.74 409.756L477.92 409.93L482.024 410.032L500.488 410.095L508.695 410.047L515.875 410.109L516.901 410.111" stroke="#EFEFEF" stroke-linecap="square"/>
</g>
<mask id="mask10_230_11838" style="mask-type:luminance" maskUnits="userSpaceOnUse" x="76" y="55" width="477" height="356">
<path d="M552.957 55.2959H76.7969V410.112H552.957V55.2959Z" fill="white"/>
</mask>
<g mask="url(#mask10_230_11838)">
<path d="M273.523 410.111L298.658 409.98L305.84 409.562L308.234 409.268L310.628 408.729L313.021 407.931L315.415 406.904L317.809 405.595L320.203 403.975L326.187 399.38L328.581 397.027L329.778 395.513L332.172 391.716L334.566 387.207L336.96 382.267L339.353 376.587L341.747 369.815L345.338 358.253L356.11 322.261L358.504 313.558L364.488 290.152L365.685 286.172L366.882 282.726L368.079 279.887L369.276 277.676L370.473 276.056L371.67 274.937L372.867 274.204L374.064 273.759L375.261 273.554L376.458 273.588L377.654 273.859L382.442 275.612L384.836 276.042L386.033 276.449L387.23 277.256L388.427 278.643L389.624 280.697L390.82 283.36L396.805 299.047L399.199 305.659L401.593 313.37L407.577 333.96L411.168 344.846L417.152 361.708L419.546 367.705L423.137 375.735L426.728 383.143L429.121 387.131L431.515 390.135L436.303 395.366L439.894 399.727L441.091 400.962L442.287 401.983L444.681 403.437L447.075 404.449L450.666 405.632L457.847 407.754L461.438 408.826L463.832 409.298L466.226 409.482L481.785 409.803L490.164 410.084L511.708 410.111" fill="#EFEFEF" fill-opacity="0.4"/>
<path d="M273.523 410.111L298.658 409.98L305.84 409.562L308.234 409.268L310.628 408.729L313.021 407.931L315.415 406.904L317.809 405.595L320.203 403.975L326.187 399.38L328.581 397.027L329.778 395.513L332.172 391.716L334.566 387.207L336.96 382.267L339.353 376.587L341.747 369.815L345.338 358.253L356.11 322.261L358.504 313.558L364.488 290.152L365.685 286.172L366.882 282.726L368.079 279.887L369.276 277.676L370.473 276.056L371.67 274.937L372.867 274.204L374.064 273.759L375.261 273.554L376.458 273.588L377.654 273.859L382.442 275.612L384.836 276.042L386.033 276.449L387.23 277.256L388.427 278.643L389.624 280.697L390.82 283.36L396.805 299.047L399.199 305.659L401.593 313.37L407.577 333.96L411.168 344.846L417.152 361.708L419.546 367.705L423.137 375.735L426.728 383.143L429.121 387.131L431.515 390.135L436.303 395.366L439.894 399.727L441.091 400.962L442.287 401.983L444.681 403.437L447.075 404.449L450.666 405.632L457.847 407.754L461.438 408.826L463.832 409.298L466.226 409.482L481.785 409.803L490.164 410.084L511.708 410.111" stroke="#EFEFEF" stroke-linecap="square"/>
</g>
<mask id="mask11_230_11838" style="mask-type:luminance" maskUnits="userSpaceOnUse" x="76" y="55" width="477" height="356">
<path d="M552.957 55.2959H76.7969V410.112H552.957V55.2959Z" fill="white"/>
</mask>
<g mask="url(#mask11_230_11838)">
<path d="M289.633 410.111L302.363 410.021L304.678 409.796L308.15 409.257L312.779 408.979L313.936 408.66L315.093 408.147L317.408 406.604L319.723 404.641L320.88 403.473L322.037 402.025L323.195 400.155L324.352 397.769L325.509 394.816L326.667 391.237L327.824 386.952L328.981 381.904L331.296 369.6L333.61 354.78L335.925 337.755L338.24 318.659L344.026 268.513L346.341 252.105L347.498 245.403L348.655 239.644L349.813 234.727L350.97 230.613L352.127 227.31L353.284 224.816L354.442 223.078L355.599 221.996L356.756 221.447L357.914 221.327L359.071 221.591L360.228 222.289L361.386 223.561L362.543 225.606L363.7 228.621L364.858 232.721L366.015 237.874L368.329 250.443L376.431 297.433L378.745 308.745L379.902 313.477L382.217 321.146L384.532 328.11L386.846 336.558L389.161 345.6L391.475 353.357L394.947 363.273L399.577 376.025L401.891 381.36L404.206 385.382L406.52 388.571L409.992 392.948L412.307 395.483L414.622 397.465L418.093 400.26L421.565 403.072L423.88 404.476L428.509 406.841L430.824 407.645L433.138 408.072L436.61 408.283L438.925 408.519L443.554 409.318L453.97 409.766L457.442 409.782L469.015 410.075L504.891 410.109L519.936 410.111" fill="#EFEFEF" fill-opacity="0.4"/>
<path d="M289.633 410.111L302.363 410.021L304.678 409.796L308.15 409.257L312.779 408.979L313.936 408.66L315.093 408.147L317.408 406.604L319.723 404.641L320.88 403.473L322.037 402.025L323.195 400.155L324.352 397.769L325.509 394.816L326.667 391.237L327.824 386.952L328.981 381.904L331.296 369.6L333.61 354.78L335.925 337.755L338.24 318.659L344.026 268.513L346.341 252.105L347.498 245.403L348.655 239.644L349.813 234.727L350.97 230.613L352.127 227.31L353.284 224.816L354.442 223.078L355.599 221.996L356.756 221.447L357.914 221.327L359.071 221.591L360.228 222.289L361.386 223.561L362.543 225.606L363.7 228.621L364.858 232.721L366.015 237.874L368.329 250.443L376.431 297.433L378.745 308.745L379.902 313.477L382.217 321.146L384.532 328.11L386.846 336.558L389.161 345.6L391.475 353.357L394.947 363.273L399.577 376.025L401.891 381.36L404.206 385.382L406.52 388.571L409.992 392.948L412.307 395.483L414.622 397.465L418.093 400.26L421.565 403.072L423.88 404.476L428.509 406.841L430.824 407.645L433.138 408.072L436.61 408.283L438.925 408.519L443.554 409.318L453.97 409.766L457.442 409.782L469.015 410.075L504.891 410.109L519.936 410.111" stroke="#EFEFEF" stroke-linecap="square"/>
</g>
<mask id="mask12_230_11838" style="mask-type:luminance" maskUnits="userSpaceOnUse" x="76" y="55" width="477" height="356">
<path d="M552.957 55.2959H76.7969V410.112H552.957V55.2959Z" fill="white"/>
</mask>
<g mask="url(#mask12_230_11838)">
<path d="M317.359 410.11L321.23 409.933L324.133 409.947L341.551 409.801L344.454 409.538L347.357 409.601L349.293 409.086L351.228 408.049L355.099 405.552L356.066 404.487L357.034 402.641L358.002 399.855L362.84 382.008L363.808 377.102L364.776 370.578L365.743 362.135L366.711 351.716L368.646 325.707L371.549 278.696L375.42 213.93L377.355 180.225L380.258 126.36L381.226 111.02L382.194 98.0466L383.161 87.7605L384.129 80.0561L385.097 74.6882L386.064 72.1924L387.032 73.269L388 77.7395L388.967 85.1503L389.935 95.2088L390.903 107.88L391.871 124.11L393.806 168.298L395.741 213.461L397.677 250.264L402.515 326.884L403.483 338.486L404.45 347.946L405.418 355.428L407.353 367.441L409.289 377.738L411.224 385.545L412.192 388.691L413.159 391.267L415.095 395.231L417.03 398.106L420.901 403.331L423.804 406.524L424.772 407.24L425.739 407.632L427.675 407.824L429.61 407.661L430.578 407.52L431.545 407.583L434.448 408.326L437.351 408.102L444.125 409.072L449.931 409.608L451.866 409.605L453.802 409.581L461.543 409.957L463.479 409.91L467.349 410.072L471.22 410.037L475.091 410.1L480.897 410.078L487.671 410.112L509.927 410.111" fill="#EFEFEF" fill-opacity="0.4"/>
<path d="M317.359 410.11L321.23 409.933L324.133 409.947L341.551 409.801L344.454 409.538L347.357 409.601L349.293 409.086L351.228 408.049L355.099 405.552L356.066 404.487L357.034 402.641L358.002 399.855L362.84 382.008L363.808 377.102L364.776 370.578L365.743 362.135L366.711 351.716L368.646 325.707L371.549 278.696L375.42 213.93L377.355 180.225L380.258 126.36L381.226 111.02L382.194 98.0466L383.161 87.7605L384.129 80.0561L385.097 74.6882L386.064 72.1924L387.032 73.269L388 77.7395L388.967 85.1503L389.935 95.2088L390.903 107.88L391.871 124.11L393.806 168.298L395.741 213.461L397.677 250.264L402.515 326.884L403.483 338.486L404.45 347.946L405.418 355.428L407.353 367.441L409.289 377.738L411.224 385.545L412.192 388.691L413.159 391.267L415.095 395.231L417.03 398.106L420.901 403.331L423.804 406.524L424.772 407.24L425.739 407.632L427.675 407.824L429.61 407.661L430.578 407.52L431.545 407.583L434.448 408.326L437.351 408.102L444.125 409.072L449.931 409.608L451.866 409.605L453.802 409.581L461.543 409.957L463.479 409.91L467.349 410.072L471.22 410.037L475.091 410.1L480.897 410.078L487.671 410.112L509.927 410.111" stroke="#EFEFEF" stroke-linecap="square"/>
</g>
<mask id="mask13_230_11838" style="mask-type:luminance" maskUnits="userSpaceOnUse" x="76" y="55" width="477" height="356">
<path d="M552.957 55.2959H76.7969V410.112H552.957V55.2959Z" fill="white"/>
</mask>
<g mask="url(#mask13_230_11838)">
<path d="M309.828 410.111L336.113 409.958L341.589 409.762L347.065 409.676L350.351 409.341L356.922 408.154L359.113 407.046L361.303 405.522L362.398 404.555L363.493 403.385L364.589 401.97L365.684 400.255L366.779 398.134L367.874 395.458L368.969 392.094L370.065 387.979L371.16 383.093L372.255 377.407L374.445 363.617L381.017 315.779L383.207 297.713L387.588 257.9L389.778 242.047L391.969 228.544L394.159 216.817L395.254 211.918L396.35 208.116L397.445 205.707L398.54 204.712L399.635 204.978L400.731 206.387L401.826 208.857L402.921 212.18L406.207 224.181L408.397 233.773L418.254 285.632L427.016 337.004L429.206 346.949L432.492 359.11L435.777 370.41L437.968 376.826L441.253 385.295L443.444 389.947L446.729 395.493L448.92 398.788L450.015 399.993L452.205 401.655L458.777 406.198L460.967 407.079L463.157 407.625L467.538 408.473L470.824 409.172L474.11 409.515L488.347 410.001L494.919 409.972L527.775 410.111" fill="#EFEFEF" fill-opacity="0.4"/>
<path d="M309.828 410.111L336.113 409.958L341.589 409.762L347.065 409.676L350.351 409.341L356.922 408.154L359.113 407.046L361.303 405.522L362.398 404.555L363.493 403.385L364.589 401.97L365.684 400.255L366.779 398.134L367.874 395.458L368.969 392.094L370.065 387.979L371.16 383.093L372.255 377.407L374.445 363.617L381.017 315.779L383.207 297.713L387.588 257.9L389.778 242.047L391.969 228.544L394.159 216.817L395.254 211.918L396.35 208.116L397.445 205.707L398.54 204.712L399.635 204.978L400.731 206.387L401.826 208.857L402.921 212.18L406.207 224.181L408.397 233.773L418.254 285.632L427.016 337.004L429.206 346.949L432.492 359.11L435.777 370.41L437.968 376.826L441.253 385.295L443.444 389.947L446.729 395.493L448.92 398.788L450.015 399.993L452.205 401.655L458.777 406.198L460.967 407.079L463.157 407.625L467.538 408.473L470.824 409.172L474.11 409.515L488.347 410.001L494.919 409.972L527.775 410.111" stroke="#EFEFEF" stroke-linecap="square"/>
</g>
<mask id="mask14_230_11838" style="mask-type:luminance" maskUnits="userSpaceOnUse" x="76" y="55" width="477" height="356">
<path d="M552.957 55.2959H76.7969V410.112H552.957V55.2959Z" fill="white"/>
</mask>
<g mask="url(#mask14_230_11838)">
<path d="M98.4375 410.111L239.181 410.112L275.433 410.003L286.095 409.578L290.36 409.032L292.493 408.479L294.625 407.659L296.758 406.52L298.89 405.032L301.023 403.147L303.155 400.74L305.288 397.613L307.42 393.538L309.553 388.316L311.685 381.883L313.818 374.428L318.083 357.681L320.215 348.167L328.745 306.096L330.877 297.739L335.142 283.176L339.407 269.148L341.54 263.6L343.672 260.322L345.805 259.173L347.937 259.409L350.07 260.823L352.202 263.829L354.335 268.525L358.6 280.485L362.865 292.778L367.129 304.451L369.262 310.935L371.394 318.356L375.659 334.176L377.792 341.356L379.924 347.581L384.189 358.157L388.454 367.596L392.719 376.068L394.852 379.852L396.984 383.132L399.117 385.837L401.249 387.938L403.382 389.49L405.514 390.839L407.646 392.462L414.044 398.584L416.176 400.148L418.309 401.269L420.441 402.034L424.706 403.179L426.839 403.587L433.236 404.265L435.369 404.741L441.766 406.715L446.031 407.618L450.296 408.162L456.693 408.685L463.091 409.445L467.356 409.691L484.416 410.042L492.946 410.026L505.74 410.102L522.8 410.111" fill="#7EB0D5" fill-opacity="0.4"/>
<path d="M98.4375 410.111L239.181 410.112L275.433 410.003L286.095 409.578L290.36 409.032L292.493 408.479L294.625 407.659L296.758 406.52L298.89 405.032L301.023 403.147L303.155 400.74L305.288 397.613L307.42 393.538L309.553 388.316L311.685 381.883L313.818 374.428L318.083 357.681L320.215 348.167L328.745 306.096L330.877 297.739L335.142 283.176L339.407 269.148L341.54 263.6L343.672 260.322L345.805 259.173L347.937 259.409L350.07 260.823L352.202 263.829L354.335 268.525L358.6 280.485L362.865 292.778L367.129 304.451L369.262 310.935L371.394 318.356L375.659 334.176L377.792 341.356L379.924 347.581L384.189 358.157L388.454 367.596L392.719 376.068L394.852 379.852L396.984 383.132L399.117 385.837L401.249 387.938L403.382 389.49L405.514 390.839L407.646 392.462L414.044 398.584L416.176 400.148L418.309 401.269L420.441 402.034L424.706 403.179L426.839 403.587L433.236 404.265L435.369 404.741L441.766 406.715L446.031 407.618L450.296 408.162L456.693 408.685L463.091 409.445L467.356 409.691L484.416 410.042L492.946 410.026L505.74 410.102L522.8 410.111" stroke="#7EB0D5" stroke-linecap="square"/>
</g>
<path d="M535.061 411.061C535.646 410.475 535.646 409.525 535.061 408.939L525.515 399.393C524.929 398.808 523.979 398.808 523.393 399.393C522.808 399.979 522.808 400.929 523.393 401.515L531.879 410L523.393 418.485C522.808 419.071 522.808 420.021 523.393 420.607C523.979 421.192 524.929 421.192 525.515 420.607L535.061 411.061ZM79 411.5H534V408.5H79V411.5Z" fill="black"/>
</svg>
