<svg width="615" height="461" viewBox="0 0 615 461" fill="none" xmlns="http://www.w3.org/2000/svg">
<g clip-path="url(#clip0_230_11998)">
<mask id="mask0_230_11998" style="mask-type:luminance" maskUnits="userSpaceOnUse" x="76" y="55" width="477" height="356">
<path d="M552.957 55.2959H76.7969V410.112H552.957V55.2959Z" fill="white"/>
</mask>
<g mask="url(#mask0_230_11998)">
<path d="M267.234 410.111L276.023 409.96L284.812 409.598L289.834 408.824L296.112 407.64L298.623 406.914L302.39 405.396L304.901 404.238L306.156 403.509L307.412 402.562L308.667 401.319L309.923 399.764L312.434 395.989L319.967 383.994L322.478 379.09L324.989 372.889L327.5 365.296L330.012 356.234L332.523 345.537L336.289 327.374L340.056 309.346L342.567 298.435L345.078 288.911L350.1 271.034L351.356 267.484L352.611 264.793L353.867 262.983L355.122 261.941L356.378 261.487L357.634 261.449L358.889 261.699L360.145 262.18L361.4 262.923L362.656 264.043L363.911 265.733L365.167 268.205L366.422 271.581L368.933 280.413L371.444 289.435L377.722 309.678L380.233 319.571L385.255 339.96L390.278 357.875L392.789 365.883L395.3 372.449L397.811 377.977L400.322 382.896L402.833 387.318L405.344 391.296L406.6 393.006L407.855 394.44L409.111 395.582L411.622 397.222L414.133 398.687L416.644 400.487L420.411 403.273L422.922 404.65L425.433 405.551L430.455 406.766L434.222 407.489L437.988 407.822L441.755 408.117L446.777 408.629L453.055 409.071L458.077 409.463L474.399 409.861L480.677 409.783L493.232 410.021L517.087 410.111" fill="#EFEFEF" fill-opacity="0.4"/>
<path d="M267.234 410.111L276.023 409.96L284.812 409.598L289.834 408.824L296.112 407.64L298.623 406.914L302.39 405.396L304.901 404.238L306.156 403.509L307.412 402.562L308.667 401.319L309.923 399.764L312.434 395.989L319.967 383.994L322.478 379.09L324.989 372.889L327.5 365.296L330.012 356.234L332.523 345.537L336.289 327.374L340.056 309.346L342.567 298.435L345.078 288.911L350.1 271.034L351.356 267.484L352.611 264.793L353.867 262.983L355.122 261.941L356.378 261.487L357.634 261.449L358.889 261.699L360.145 262.18L361.4 262.923L362.656 264.043L363.911 265.733L365.167 268.205L366.422 271.581L368.933 280.413L371.444 289.435L377.722 309.678L380.233 319.571L385.255 339.96L390.278 357.875L392.789 365.883L395.3 372.449L397.811 377.977L400.322 382.896L402.833 387.318L405.344 391.296L406.6 393.006L407.855 394.44L409.111 395.582L411.622 397.222L414.133 398.687L416.644 400.487L420.411 403.273L422.922 404.65L425.433 405.551L430.455 406.766L434.222 407.489L437.988 407.822L441.755 408.117L446.777 408.629L453.055 409.071L458.077 409.463L474.399 409.861L480.677 409.783L493.232 410.021L517.087 410.111" stroke="#EFEFEF" stroke-linecap="square"/>
</g>
<mask id="mask1_230_11998" style="mask-type:luminance" maskUnits="userSpaceOnUse" x="76" y="55" width="477" height="356">
<path d="M552.957 55.2959H76.7969V410.112H552.957V55.2959Z" fill="white"/>
</mask>
<g mask="url(#mask1_230_11998)">
<path d="M273.414 410.111L282.281 410.009L286.081 409.717L288.615 409.15L289.882 408.638L291.148 407.89L292.415 406.825L293.682 405.37L294.949 403.488L296.215 401.2L298.749 395.67L300.016 392.451L301.282 388.779L302.549 384.465L303.816 379.371L306.349 367.018L325.35 264.938L326.617 260.458L327.884 257.688L329.15 256.576L330.417 256.787L331.684 257.871L334.217 261.164L336.751 264.832L339.284 269.053L341.818 274.075L344.351 280.157L346.885 287.683L349.418 295.506L351.952 302.376L355.752 311.788L358.285 319.246L367.152 348.102L373.486 367.522L376.02 373.622L378.553 378.437L382.353 384.876L384.887 388.627L389.954 395.352L392.487 398.072L395.021 400.07L401.354 403.932L403.888 405.28L406.421 406.194L410.221 407.007L415.288 407.935L425.422 408.948L429.222 409.135L434.289 409.508L439.356 409.53L444.423 409.565L457.091 409.973L463.424 409.9L468.491 409.788L481.159 409.968L488.759 409.965L495.093 410.035L502.693 409.991L512.827 409.991L525.494 410.111" fill="#EFEFEF" fill-opacity="0.4"/>
<path d="M273.414 410.111L282.281 410.009L286.081 409.717L288.615 409.15L289.882 408.638L291.148 407.89L292.415 406.825L293.682 405.37L294.949 403.488L296.215 401.2L298.749 395.67L300.016 392.451L301.282 388.779L302.549 384.465L303.816 379.371L306.349 367.018L325.35 264.938L326.617 260.458L327.884 257.688L329.15 256.576L330.417 256.787L331.684 257.871L334.217 261.164L336.751 264.832L339.284 269.053L341.818 274.075L344.351 280.157L346.885 287.683L349.418 295.506L351.952 302.376L355.752 311.788L358.285 319.246L367.152 348.102L373.486 367.522L376.02 373.622L378.553 378.437L382.353 384.876L384.887 388.627L389.954 395.352L392.487 398.072L395.021 400.07L401.354 403.932L403.888 405.28L406.421 406.194L410.221 407.007L415.288 407.935L425.422 408.948L429.222 409.135L434.289 409.508L439.356 409.53L444.423 409.565L457.091 409.973L463.424 409.9L468.491 409.788L481.159 409.968L488.759 409.965L495.093 410.035L502.693 409.991L512.827 409.991L525.494 410.111" stroke="#EFEFEF" stroke-linecap="square"/>
</g>
<mask id="mask2_230_11998" style="mask-type:luminance" maskUnits="userSpaceOnUse" x="76" y="55" width="477" height="356">
<path d="M552.957 55.2959H76.7969V410.112H552.957V55.2959Z" fill="white"/>
</mask>
<g mask="url(#mask2_230_11998)">
<path d="M291.867 410.112L302.933 409.966L307.359 409.615L311.786 408.876L315.106 408.11L317.319 407.289L318.425 406.658L320.639 404.864L322.852 402.47L325.065 399.452L327.278 395.864L329.491 391.934L331.705 387.246L333.918 381.276L336.131 374.166L338.344 365.291L342.77 344.453L343.877 338.846L344.984 332.432L347.197 316.984L349.41 301.303L351.623 288.248L354.943 270.598L356.05 265.65L358.263 257.895L360.476 250.364L362.689 241.824L363.796 238.29L364.902 235.961L366.009 234.904L367.116 234.748L370.435 235.516L371.542 236.157L372.649 237.544L373.755 239.952L374.862 243.413L375.968 247.782L378.182 258.516L381.501 277.363L384.821 297.14L390.354 331.595L393.674 349.987L395.887 360.444L398.1 369.269L400.313 376.863L402.527 383.479L404.74 389.164L406.953 393.81L409.166 397.494L411.379 400.459L413.593 402.907L414.699 403.833L415.806 404.505L418.019 405.291L420.232 405.975L423.552 407.283L425.765 407.74L429.085 408.238L433.511 409.145L435.724 409.304L440.151 409.498L444.577 409.69L456.75 409.975L463.389 410.111L512.079 410.112" fill="#EFEFEF" fill-opacity="0.4"/>
<path d="M291.867 410.112L302.933 409.966L307.359 409.615L311.786 408.876L315.106 408.11L317.319 407.289L318.425 406.658L320.639 404.864L322.852 402.47L325.065 399.452L327.278 395.864L329.491 391.934L331.705 387.246L333.918 381.276L336.131 374.166L338.344 365.291L342.77 344.453L343.877 338.846L344.984 332.432L347.197 316.984L349.41 301.303L351.623 288.248L354.943 270.598L356.05 265.65L358.263 257.895L360.476 250.364L362.689 241.824L363.796 238.29L364.902 235.961L366.009 234.904L367.116 234.748L370.435 235.516L371.542 236.157L372.649 237.544L373.755 239.952L374.862 243.413L375.968 247.782L378.182 258.516L381.501 277.363L384.821 297.14L390.354 331.595L393.674 349.987L395.887 360.444L398.1 369.269L400.313 376.863L402.527 383.479L404.74 389.164L406.953 393.81L409.166 397.494L411.379 400.459L413.593 402.907L414.699 403.833L415.806 404.505L418.019 405.291L420.232 405.975L423.552 407.283L425.765 407.74L429.085 408.238L433.511 409.145L435.724 409.304L440.151 409.498L444.577 409.69L456.75 409.975L463.389 410.111L512.079 410.112" stroke="#EFEFEF" stroke-linecap="square"/>
</g>
<mask id="mask3_230_11998" style="mask-type:luminance" maskUnits="userSpaceOnUse" x="76" y="55" width="477" height="356">
<path d="M552.957 55.2959H76.7969V410.112H552.957V55.2959Z" fill="white"/>
</mask>
<g mask="url(#mask3_230_11998)">
<path d="M314.273 410.111L323.794 409.963L333.315 409.533L335.431 409.366L338.605 409.479L340.721 409.5L344.952 409.04L355.531 407.768L357.647 407.189L359.763 406.112L363.994 403.24L366.11 402.14L367.168 401.401L368.226 400.379L370.342 397.653L372.457 394.901L374.573 392.307L376.689 389.153L378.805 385.476L379.863 383.408L380.921 380.948L381.978 377.874L383.036 374.078L385.152 364.513L388.326 347.28L391.5 330.744L395.731 309.832L397.847 301.453L399.963 294.833L402.078 288.907L403.136 285.477L404.194 281.351L406.31 270.903L410.542 247.561L414.773 226.375L415.831 221.908L416.889 218.465L417.947 216.311L419.005 215.457L420.063 215.712L421.12 216.896L422.178 219.057L423.236 222.469L424.294 227.416L425.352 233.961L427.468 250.544L433.815 304.898L436.989 334.409L439.105 350.012L441.22 362.682L443.336 373.418L445.452 382.511L447.568 389.896L448.626 392.859L449.684 395.322L450.741 397.339L452.857 400.432L454.973 402.812L457.089 404.656L459.205 405.845L465.552 407.97L468.726 408.768L471.899 409.294L474.015 409.447L480.362 409.523L485.652 409.858L501.52 410.052L507.868 410.083L516.331 410.021L524.794 410.111" fill="#EFEFEF" fill-opacity="0.4"/>
<path d="M314.273 410.111L323.794 409.963L333.315 409.533L335.431 409.366L338.605 409.479L340.721 409.5L344.952 409.04L355.531 407.768L357.647 407.189L359.763 406.112L363.994 403.24L366.11 402.14L367.168 401.401L368.226 400.379L370.342 397.653L372.457 394.901L374.573 392.307L376.689 389.153L378.805 385.476L379.863 383.408L380.921 380.948L381.978 377.874L383.036 374.078L385.152 364.513L388.326 347.28L391.5 330.744L395.731 309.832L397.847 301.453L399.963 294.833L402.078 288.907L403.136 285.477L404.194 281.351L406.31 270.903L410.542 247.561L414.773 226.375L415.831 221.908L416.889 218.465L417.947 216.311L419.005 215.457L420.063 215.712L421.12 216.896L422.178 219.057L423.236 222.469L424.294 227.416L425.352 233.961L427.468 250.544L433.815 304.898L436.989 334.409L439.105 350.012L441.22 362.682L443.336 373.418L445.452 382.511L447.568 389.896L448.626 392.859L449.684 395.322L450.741 397.339L452.857 400.432L454.973 402.812L457.089 404.656L459.205 405.845L465.552 407.97L468.726 408.768L471.899 409.294L474.015 409.447L480.362 409.523L485.652 409.858L501.52 410.052L507.868 410.083L516.331 410.021L524.794 410.111" stroke="#EFEFEF" stroke-linecap="square"/>
</g>
<mask id="mask4_230_11998" style="mask-type:luminance" maskUnits="userSpaceOnUse" x="76" y="55" width="477" height="356">
<path d="M552.957 55.2959H76.7969V410.112H552.957V55.2959Z" fill="white"/>
</mask>
<g mask="url(#mask4_230_11998)">
<path d="M279.008 410.111L285.1 410.01L289.973 409.596L292.41 409.183L294.847 408.438L297.283 407.153L299.72 405.223L302.157 402.706L304.594 399.649L307.03 395.852L308.249 393.52L309.467 390.789L310.686 387.584L311.904 383.863L314.341 374.922L316.777 364.448L319.214 352.805L321.651 339.67L325.306 319.551L327.743 308.821L335.053 280.615L336.271 277.082L337.49 274.19L339.926 269.665L341.145 267.79L342.363 266.24L343.582 265.239L344.8 265.025L346.018 265.723L347.237 267.25L348.455 269.364L350.892 274.419L353.329 280.454L355.765 288.21L359.42 301.055L361.857 308.064L366.731 320.304L374.041 340.332L383.788 364.182L387.443 371.691L389.88 376.104L392.317 379.753L395.972 384.225L398.408 387.304L402.064 392.149L404.5 394.627L406.937 396.365L417.902 402.898L421.557 404.624L425.213 405.901L428.868 406.791L436.178 408.148L438.615 408.568L442.27 408.79L445.925 409.064L450.798 409.492L465.419 409.986L521.464 410.112" fill="#EFEFEF" fill-opacity="0.4"/>
<path d="M279.008 410.111L285.1 410.01L289.973 409.596L292.41 409.183L294.847 408.438L297.283 407.153L299.72 405.223L302.157 402.706L304.594 399.649L307.03 395.852L308.249 393.52L309.467 390.789L310.686 387.584L311.904 383.863L314.341 374.922L316.777 364.448L319.214 352.805L321.651 339.67L325.306 319.551L327.743 308.821L335.053 280.615L336.271 277.082L337.49 274.19L339.926 269.665L341.145 267.79L342.363 266.24L343.582 265.239L344.8 265.025L346.018 265.723L347.237 267.25L348.455 269.364L350.892 274.419L353.329 280.454L355.765 288.21L359.42 301.055L361.857 308.064L366.731 320.304L374.041 340.332L383.788 364.182L387.443 371.691L389.88 376.104L392.317 379.753L395.972 384.225L398.408 387.304L402.064 392.149L404.5 394.627L406.937 396.365L417.902 402.898L421.557 404.624L425.213 405.901L428.868 406.791L436.178 408.148L438.615 408.568L442.27 408.79L445.925 409.064L450.798 409.492L465.419 409.986L521.464 410.112" stroke="#EFEFEF" stroke-linecap="square"/>
</g>
<mask id="mask5_230_11998" style="mask-type:luminance" maskUnits="userSpaceOnUse" x="76" y="55" width="477" height="356">
<path d="M552.957 55.2959H76.7969V410.112H552.957V55.2959Z" fill="white"/>
</mask>
<g mask="url(#mask5_230_11998)">
<path d="M309.422 410.111L318.152 409.933L321.425 409.95L323.608 410.046L331.246 409.541L333.429 409.034L338.885 408.967L341.067 409.324L342.158 409.189L343.25 408.689L346.523 406.476L347.614 406.096L350.888 405.756L353.07 405L354.162 404.303L355.253 403.043L356.344 401.32L357.435 399.288L359.618 393.93L361.8 388.063L362.891 384.316L365.074 374.984L366.165 369.453L367.256 363.057L368.347 355.465L370.53 336.431L371.621 325.538L372.712 313.135L373.804 298.249L375.986 260.886L382.533 143.274L384.716 112.385L386.898 83.756L387.989 74.132L389.081 72.1924L390.172 79.6835L391.263 93.5784L393.445 126.594L394.537 147.706L399.993 275.632L402.175 314.989L403.266 331.584L404.358 345.572L405.449 356.848L406.54 365.669L409.814 386.484L410.905 392.27L411.996 396.775L413.087 400.063L414.179 402.113L415.27 403.217L416.361 404.052L419.635 407.472L420.726 408.017L423.999 408.749L431.638 409.672L438.185 409.319L442.55 409.802L443.641 409.91L448.006 409.784L450.189 409.68L452.371 409.539L455.645 409.684L457.827 409.735L461.101 410.077L474.195 409.998L486.199 410.083L490.564 410.05L493.837 410.057L499.293 410.112L526.574 410.111" fill="#EFEFEF" fill-opacity="0.4"/>
<path d="M309.422 410.111L318.152 409.933L321.425 409.95L323.608 410.046L331.246 409.541L333.429 409.034L338.885 408.967L341.067 409.324L342.158 409.189L343.25 408.689L346.523 406.476L347.614 406.096L350.888 405.756L353.07 405L354.162 404.303L355.253 403.043L356.344 401.32L357.435 399.288L359.618 393.93L361.8 388.063L362.891 384.316L365.074 374.984L366.165 369.453L367.256 363.057L368.347 355.465L370.53 336.431L371.621 325.538L372.712 313.135L373.804 298.249L375.986 260.886L382.533 143.274L384.716 112.385L386.898 83.756L387.989 74.132L389.081 72.1924L390.172 79.6835L391.263 93.5784L393.445 126.594L394.537 147.706L399.993 275.632L402.175 314.989L403.266 331.584L404.358 345.572L405.449 356.848L406.54 365.669L409.814 386.484L410.905 392.27L411.996 396.775L413.087 400.063L414.179 402.113L415.27 403.217L416.361 404.052L419.635 407.472L420.726 408.017L423.999 408.749L431.638 409.672L438.185 409.319L442.55 409.802L443.641 409.91L448.006 409.784L450.189 409.68L452.371 409.539L455.645 409.684L457.827 409.735L461.101 410.077L474.195 409.998L486.199 410.083L490.564 410.05L493.837 410.057L499.293 410.112L526.574 410.111" stroke="#EFEFEF" stroke-linecap="square"/>
</g>
<mask id="mask6_230_11998" style="mask-type:luminance" maskUnits="userSpaceOnUse" x="76" y="55" width="477" height="356">
<path d="M552.957 55.2959H76.7969V410.112H552.957V55.2959Z" fill="white"/>
</mask>
<g mask="url(#mask6_230_11998)">
<path d="M295.32 410.111L301.147 410.011L305.808 409.596L310.47 408.963L313.966 408.213L317.462 407.149L319.793 405.993L322.123 404.246L324.454 401.912L326.785 399.091L327.95 397.416L329.116 395.447L330.281 393.096L331.446 390.321L333.777 383.648L336.108 376.008L338.438 367.497L340.769 357.42L347.761 323.829L351.257 309.678L354.753 293.43L357.084 283.234L359.415 274.794L361.745 267.578L362.911 264.508L364.076 261.991L365.241 260.127L366.407 258.904L367.572 258.211L368.737 257.894L369.903 257.826L371.068 257.965L372.234 258.372L373.399 259.176L374.564 260.507L375.73 262.443L376.895 265.032L378.06 268.321L379.226 272.346L381.556 282.222L383.887 292.628L386.218 301.879L389.714 315.457L395.541 339.155L397.871 346.852L401.367 356.407L406.029 368.526L408.359 373.514L410.69 377.765L415.352 385.334L417.682 388.673L421.178 392.988L423.509 395.595L425.84 397.855L428.17 399.805L430.501 401.454L433.997 403.417L436.328 404.548L438.659 405.308L444.485 406.548L449.147 407.958L453.808 409.013L457.304 409.315L475.95 409.868L486.438 409.989L499.257 410.043L527.225 410.112" fill="#EFEFEF" fill-opacity="0.4"/>
<path d="M295.32 410.111L301.147 410.011L305.808 409.596L310.47 408.963L313.966 408.213L317.462 407.149L319.793 405.993L322.123 404.246L324.454 401.912L326.785 399.091L327.95 397.416L329.116 395.447L330.281 393.096L331.446 390.321L333.777 383.648L336.108 376.008L338.438 367.497L340.769 357.42L347.761 323.829L351.257 309.678L354.753 293.43L357.084 283.234L359.415 274.794L361.745 267.578L362.911 264.508L364.076 261.991L365.241 260.127L366.407 258.904L367.572 258.211L368.737 257.894L369.903 257.826L371.068 257.965L372.234 258.372L373.399 259.176L374.564 260.507L375.73 262.443L376.895 265.032L378.06 268.321L379.226 272.346L381.556 282.222L383.887 292.628L386.218 301.879L389.714 315.457L395.541 339.155L397.871 346.852L401.367 356.407L406.029 368.526L408.359 373.514L410.69 377.765L415.352 385.334L417.682 388.673L421.178 392.988L423.509 395.595L425.84 397.855L428.17 399.805L430.501 401.454L433.997 403.417L436.328 404.548L438.659 405.308L444.485 406.548L449.147 407.958L453.808 409.013L457.304 409.315L475.95 409.868L486.438 409.989L499.257 410.043L527.225 410.112" stroke="#EFEFEF" stroke-linecap="square"/>
</g>
<mask id="mask7_230_11998" style="mask-type:luminance" maskUnits="userSpaceOnUse" x="76" y="55" width="477" height="356">
<path d="M552.957 55.2959H76.7969V410.112H552.957V55.2959Z" fill="white"/>
</mask>
<g mask="url(#mask7_230_11998)">
<path d="M291.055 410.111L309.72 409.937L316.719 409.764L320.219 409.393L323.718 408.636L327.218 407.442L329.551 406.494L330.718 405.897L331.884 405.118L333.051 404.078L334.217 402.711L335.384 400.989L337.717 396.672L341.217 389.394L342.383 386.698L343.55 383.518L344.716 379.626L345.883 374.93L348.216 363.38L350.549 349.4L352.882 332.541L355.215 312.272L357.549 288.187L362.215 235.225L363.381 224L364.548 214.569L365.715 207.271L366.881 202.224L368.048 199.28L369.214 198.141L370.381 198.514L371.547 200.16L372.714 202.917L373.88 206.712L375.047 211.471L377.38 223.075L379.713 236.929L382.046 253.918L386.713 290.086L389.046 306.274L391.379 320.446L396.045 347.295L397.212 352.994L398.378 357.841L400.711 365.869L403.044 372.7L405.378 378.416L407.711 383.163L410.044 386.697L414.71 393.015L417.043 395.298L420.543 398.132L422.876 399.555L425.209 400.91L428.709 403.398L429.875 403.881L434.542 404.826L439.208 406.486L442.708 407.325L447.374 408.063L455.54 409.017L459.039 409.459L470.705 409.874L482.371 409.908L488.203 409.872L491.703 409.893L497.536 410.022L503.369 409.926L509.201 410.07L518.534 410.077L523.2 410.111" fill="#EFEFEF" fill-opacity="0.4"/>
<path d="M291.055 410.111L309.72 409.937L316.719 409.764L320.219 409.393L323.718 408.636L327.218 407.442L329.551 406.494L330.718 405.897L331.884 405.118L333.051 404.078L334.217 402.711L335.384 400.989L337.717 396.672L341.217 389.394L342.383 386.698L343.55 383.518L344.716 379.626L345.883 374.93L348.216 363.38L350.549 349.4L352.882 332.541L355.215 312.272L357.549 288.187L362.215 235.225L363.381 224L364.548 214.569L365.715 207.271L366.881 202.224L368.048 199.28L369.214 198.141L370.381 198.514L371.547 200.16L372.714 202.917L373.88 206.712L375.047 211.471L377.38 223.075L379.713 236.929L382.046 253.918L386.713 290.086L389.046 306.274L391.379 320.446L396.045 347.295L397.212 352.994L398.378 357.841L400.711 365.869L403.044 372.7L405.378 378.416L407.711 383.163L410.044 386.697L414.71 393.015L417.043 395.298L420.543 398.132L422.876 399.555L425.209 400.91L428.709 403.398L429.875 403.881L434.542 404.826L439.208 406.486L442.708 407.325L447.374 408.063L455.54 409.017L459.039 409.459L470.705 409.874L482.371 409.908L488.203 409.872L491.703 409.893L497.536 410.022L503.369 409.926L509.201 410.07L518.534 410.077L523.2 410.111" stroke="#EFEFEF" stroke-linecap="square"/>
</g>
<mask id="mask8_230_11998" style="mask-type:luminance" maskUnits="userSpaceOnUse" x="76" y="55" width="477" height="356">
<path d="M552.957 55.2959H76.7969V410.112H552.957V55.2959Z" fill="white"/>
</mask>
<g mask="url(#mask8_230_11998)">
<path d="M286.141 410.112L296.228 409.954L301.832 409.68L305.195 409.279L308.557 408.59L314.162 407.188L316.403 406.19L318.645 404.656L319.766 403.649L320.887 402.431L323.128 399.283L325.37 395.394L327.612 390.803L328.733 387.921L329.853 384.387L330.974 380.112L333.216 369.886L336.578 354.157L339.941 338.665L342.183 326.628L344.424 312.008L347.787 288.208L350.028 275.621L353.391 260.418L355.633 251.618L356.753 248.161L357.874 245.426L358.995 243.341L360.116 241.83L361.237 240.882L362.358 240.551L363.479 240.925L364.599 242.086L365.72 244.079L366.841 246.892L367.962 250.425L370.204 258.796L373.566 272.032L375.808 282.149L380.291 304.895L382.533 314.447L385.895 328.695L390.379 348.388L392.62 356.968L394.862 364.502L397.104 370.777L400.466 378.694L402.708 383.761L404.95 388.023L407.191 391.101L415.037 399.841L417.279 402.119L419.52 403.89L421.762 405.072L424.004 405.816L426.246 406.235L429.608 406.759L436.333 408.509L439.696 408.889L445.3 409.102L463.233 409.727L472.2 409.8L481.167 410.053L509.188 410.112" fill="#EFEFEF" fill-opacity="0.4"/>
<path d="M286.141 410.112L296.228 409.954L301.832 409.68L305.195 409.279L308.557 408.59L314.162 407.188L316.403 406.19L318.645 404.656L319.766 403.649L320.887 402.431L323.128 399.283L325.37 395.394L327.612 390.803L328.733 387.921L329.853 384.387L330.974 380.112L333.216 369.886L336.578 354.157L339.941 338.665L342.183 326.628L344.424 312.008L347.787 288.208L350.028 275.621L353.391 260.418L355.633 251.618L356.753 248.161L357.874 245.426L358.995 243.341L360.116 241.83L361.237 240.882L362.358 240.551L363.479 240.925L364.599 242.086L365.72 244.079L366.841 246.892L367.962 250.425L370.204 258.796L373.566 272.032L375.808 282.149L380.291 304.895L382.533 314.447L385.895 328.695L390.379 348.388L392.62 356.968L394.862 364.502L397.104 370.777L400.466 378.694L402.708 383.761L404.95 388.023L407.191 391.101L415.037 399.841L417.279 402.119L419.52 403.89L421.762 405.072L424.004 405.816L426.246 406.235L429.608 406.759L436.333 408.509L439.696 408.889L445.3 409.102L463.233 409.727L472.2 409.8L481.167 410.053L509.188 410.112" stroke="#EFEFEF" stroke-linecap="square"/>
</g>
<mask id="mask9_230_11998" style="mask-type:luminance" maskUnits="userSpaceOnUse" x="76" y="55" width="477" height="356">
<path d="M552.957 55.2959H76.7969V410.112H552.957V55.2959Z" fill="white"/>
</mask>
<g mask="url(#mask9_230_11998)">
<path d="M305.836 410.111L324.241 409.931L328.572 409.721L338.316 408.616L340.482 408.558L342.647 408.064L344.812 407.131L346.978 405.925L348.06 405.051L350.226 402.587L352.391 399.709L354.556 396.315L357.804 390.721L358.887 388.221L359.97 384.842L362.135 375.738L366.466 355.677L368.631 343.349L369.714 335.99L371.879 318.264L375.127 289.442L380.541 235.436L382.706 219.333L385.954 197.092L387.037 190.657L388.119 186.082L389.202 183.752L390.285 183.111L391.367 182.998L393.533 182.384L394.615 183.548L395.698 187.213L396.781 193.635L397.863 202.394L400.029 224.107L403.277 257.382L405.442 278.367L407.608 304.458L409.773 329.919L410.856 339.678L413.021 355.711L416.269 377.896L417.352 383.574L418.434 387.921L419.517 391.283L421.682 396.79L423.848 401.49L424.93 403.207L426.013 404.424L427.096 405.278L429.261 406.476L433.592 408.534L435.757 409.04L437.922 409.224L441.17 409.326L445.501 409.664L449.832 409.627L454.163 409.931L460.659 409.849L463.907 409.719L468.237 409.778L472.568 410.041L521.289 410.111" fill="#EFEFEF" fill-opacity="0.4"/>
<path d="M305.836 410.111L324.241 409.931L328.572 409.721L338.316 408.616L340.482 408.558L342.647 408.064L344.812 407.131L346.978 405.925L348.06 405.051L350.226 402.587L352.391 399.709L354.556 396.315L357.804 390.721L358.887 388.221L359.97 384.842L362.135 375.738L366.466 355.677L368.631 343.349L369.714 335.99L371.879 318.264L375.127 289.442L380.541 235.436L382.706 219.333L385.954 197.092L387.037 190.657L388.119 186.082L389.202 183.752L390.285 183.111L391.367 182.998L393.533 182.384L394.615 183.548L395.698 187.213L396.781 193.635L397.863 202.394L400.029 224.107L403.277 257.382L405.442 278.367L407.608 304.458L409.773 329.919L410.856 339.678L413.021 355.711L416.269 377.896L417.352 383.574L418.434 387.921L419.517 391.283L421.682 396.79L423.848 401.49L424.93 403.207L426.013 404.424L427.096 405.278L429.261 406.476L433.592 408.534L435.757 409.04L437.922 409.224L441.17 409.326L445.501 409.664L449.832 409.627L454.163 409.931L460.659 409.849L463.907 409.719L468.237 409.778L472.568 410.041L521.289 410.111" stroke="#EFEFEF" stroke-linecap="square"/>
</g>
<mask id="mask10_230_11998" style="mask-type:luminance" maskUnits="userSpaceOnUse" x="76" y="55" width="477" height="356">
<path d="M552.957 55.2959H76.7969V410.112H552.957V55.2959Z" fill="white"/>
</mask>
<g mask="url(#mask10_230_11998)">
<path d="M271.641 410.112L284.64 409.99L289.367 409.635L295.276 409.109L298.821 408.731L302.366 408.006L305.911 407.019L308.275 406.115L310.638 404.838L313.002 403.121L320.092 397.08L321.274 395.915L322.456 394.534L323.638 392.866L326.001 388.633L330.728 378.524L333.092 373.078L335.455 366.917L339 357.41L342.546 348.297L343.727 344.737L346.091 336.216L352 312.477L354.363 304.177L356.727 297.332L359.09 292.173L363.817 283.571L364.999 281.857L366.181 280.69L367.362 280.205L368.544 280.418L369.726 281.23L370.908 282.466L375.635 288.096L379.18 291.798L381.543 294.927L382.725 296.845L383.907 299.056L386.27 304.484L388.634 311.133L395.724 332.965L398.088 338.85L400.451 344.468L402.815 351.063L409.905 372.825L411.087 375.67L412.269 378.122L414.632 382.06L419.359 388.576L421.723 391.616L424.086 394.191L426.45 396.289L431.177 399.939L435.904 403.28L438.267 404.691L440.631 405.799L442.994 406.566L446.54 407.281L451.267 407.931L458.357 408.875L463.084 409.335L472.538 409.824L487.901 410.059L506.809 410.112" fill="#EFEFEF" fill-opacity="0.4"/>
<path d="M271.641 410.112L284.64 409.99L289.367 409.635L295.276 409.109L298.821 408.731L302.366 408.006L305.911 407.019L308.275 406.115L310.638 404.838L313.002 403.121L320.092 397.08L321.274 395.915L322.456 394.534L323.638 392.866L326.001 388.633L330.728 378.524L333.092 373.078L335.455 366.917L339 357.41L342.546 348.297L343.727 344.737L346.091 336.216L352 312.477L354.363 304.177L356.727 297.332L359.09 292.173L363.817 283.571L364.999 281.857L366.181 280.69L367.362 280.205L368.544 280.418L369.726 281.23L370.908 282.466L375.635 288.096L379.18 291.798L381.543 294.927L382.725 296.845L383.907 299.056L386.27 304.484L388.634 311.133L395.724 332.965L398.088 338.85L400.451 344.468L402.815 351.063L409.905 372.825L411.087 375.67L412.269 378.122L414.632 382.06L419.359 388.576L421.723 391.616L424.086 394.191L426.45 396.289L431.177 399.939L435.904 403.28L438.267 404.691L440.631 405.799L442.994 406.566L446.54 407.281L451.267 407.931L458.357 408.875L463.084 409.335L472.538 409.824L487.901 410.059L506.809 410.112" stroke="#EFEFEF" stroke-linecap="square"/>
</g>
<mask id="mask11_230_11998" style="mask-type:luminance" maskUnits="userSpaceOnUse" x="76" y="55" width="477" height="356">
<path d="M552.957 55.2959H76.7969V410.112H552.957V55.2959Z" fill="white"/>
</mask>
<g mask="url(#mask11_230_11998)">
<path d="M284.039 410.111L290.983 410.009L294.454 409.67L296.769 409.114L300.24 407.887L303.712 406.336L304.869 405.603L306.027 404.618L307.184 403.288L308.341 401.53L309.498 399.275L310.656 396.503L312.97 389.624L315.285 381.053L317.599 370.176L322.228 345.271L324.543 331.365L328.014 309.833L336.115 264.178L338.429 253.503L339.587 249.382L340.744 246.287L341.901 244.151L343.058 242.669L345.373 240.455L346.53 239.664L347.687 239.314L348.845 239.516L350.002 240.267L351.159 241.549L352.316 243.393L353.474 245.894L354.631 249.192L355.788 253.388L358.103 263.853L361.574 279.787L365.046 295.728L367.36 307.24L369.675 319.985L373.147 339.636L375.461 350.205L378.933 362.877L382.405 374.816L384.719 381.875L385.876 384.787L388.191 389.519L390.505 393.645L392.82 397.139L395.134 399.755L398.606 403.08L400.92 404.707L403.235 405.752L409.021 407.722L411.336 408.406L413.65 408.721L418.279 409.01L422.908 409.667L425.222 409.712L431.009 409.559L437.952 409.798L443.738 409.587L447.21 409.579L454.154 409.921L468.04 409.989L476.141 410.055L507.387 410.053L514.33 410.111" fill="#EFEFEF" fill-opacity="0.4"/>
<path d="M284.039 410.111L290.983 410.009L294.454 409.67L296.769 409.114L300.24 407.887L303.712 406.336L304.869 405.603L306.027 404.618L307.184 403.288L308.341 401.53L309.498 399.275L310.656 396.503L312.97 389.624L315.285 381.053L317.599 370.176L322.228 345.271L324.543 331.365L328.014 309.833L336.115 264.178L338.429 253.503L339.587 249.382L340.744 246.287L341.901 244.151L343.058 242.669L345.373 240.455L346.53 239.664L347.687 239.314L348.845 239.516L350.002 240.267L351.159 241.549L352.316 243.393L353.474 245.894L354.631 249.192L355.788 253.388L358.103 263.853L361.574 279.787L365.046 295.728L367.36 307.24L369.675 319.985L373.147 339.636L375.461 350.205L378.933 362.877L382.405 374.816L384.719 381.875L385.876 384.787L388.191 389.519L390.505 393.645L392.82 397.139L395.134 399.755L398.606 403.08L400.92 404.707L403.235 405.752L409.021 407.722L411.336 408.406L413.65 408.721L418.279 409.01L422.908 409.667L425.222 409.712L431.009 409.559L437.952 409.798L443.738 409.587L447.21 409.579L454.154 409.921L468.04 409.989L476.141 410.055L507.387 410.053L514.33 410.111" stroke="#EFEFEF" stroke-linecap="square"/>
</g>
<mask id="mask12_230_11998" style="mask-type:luminance" maskUnits="userSpaceOnUse" x="76" y="55" width="477" height="356">
<path d="M552.957 55.2959H76.7969V410.112H552.957V55.2959Z" fill="white"/>
</mask>
<g mask="url(#mask12_230_11998)">
<path d="M303.414 410.111L307.483 409.972L310.534 409.716L316.638 409.725L318.672 409.362L320.706 408.761L324.775 407.128L326.81 406.584L327.827 405.986L328.844 405.02L330.878 402.33L331.896 400.748L332.913 398.855L333.93 396.45L335.964 390.158L339.016 380.689L340.033 376.071L341.05 369.531L342.068 361.225L344.102 341.535L346.136 320.113L348.171 293.831L350.205 263.826L352.239 228.977L354.274 191.516L356.308 161.649L358.343 137.507L359.36 128.332L360.377 122.012L361.394 119.078L362.411 119.503L363.429 122.38L364.446 126.348L365.463 130.988L366.48 137.783L367.497 148.856L368.515 164.545L371.566 217.618L377.669 308.962L379.704 333.86L380.721 343.701L381.738 351.679L383.773 364.299L386.824 379.889L388.859 388.75L389.876 392.624L390.893 395.808L391.91 398.076L392.927 399.554L394.962 401.475L399.031 405.033L400.048 405.55L404.117 406.946L406.151 408.19L407.168 408.479L410.22 408.883L412.254 409.265L424.46 409.356L428.529 409.68L431.581 409.551L434.632 409.94L437.684 409.82L443.787 409.609L450.908 409.753L453.959 410.066L458.028 410.099L464.131 410.086L471.251 410.083L476.337 410.056L491.595 410.054L497.699 410.093L502.785 410.067L505.836 410.111" fill="#EFEFEF" fill-opacity="0.4"/>
<path d="M303.414 410.111L307.483 409.972L310.534 409.716L316.638 409.725L318.672 409.362L320.706 408.761L324.775 407.128L326.81 406.584L327.827 405.986L328.844 405.02L330.878 402.33L331.896 400.748L332.913 398.855L333.93 396.45L335.964 390.158L339.016 380.689L340.033 376.071L341.05 369.531L342.068 361.225L344.102 341.535L346.136 320.113L348.171 293.831L350.205 263.826L352.239 228.977L354.274 191.516L356.308 161.649L358.343 137.507L359.36 128.332L360.377 122.012L361.394 119.078L362.411 119.503L363.429 122.38L364.446 126.348L365.463 130.988L366.48 137.783L367.497 148.856L368.515 164.545L371.566 217.618L377.669 308.962L379.704 333.86L380.721 343.701L381.738 351.679L383.773 364.299L386.824 379.889L388.859 388.75L389.876 392.624L390.893 395.808L391.91 398.076L392.927 399.554L394.962 401.475L399.031 405.033L400.048 405.55L404.117 406.946L406.151 408.19L407.168 408.479L410.22 408.883L412.254 409.265L424.46 409.356L428.529 409.68L431.581 409.551L434.632 409.94L437.684 409.82L443.787 409.609L450.908 409.753L453.959 410.066L458.028 410.099L464.131 410.086L471.251 410.083L476.337 410.056L491.595 410.054L497.699 410.093L502.785 410.067L505.836 410.111" stroke="#EFEFEF" stroke-linecap="square"/>
</g>
<mask id="mask13_230_11998" style="mask-type:luminance" maskUnits="userSpaceOnUse" x="76" y="55" width="477" height="356">
<path d="M552.957 55.2959H76.7969V410.112H552.957V55.2959Z" fill="white"/>
</mask>
<g mask="url(#mask13_230_11998)">
<path d="M312.359 410.111L320.061 409.971L325.562 409.925L331.064 409.812L336.565 409.458L339.866 408.945L343.166 408.139L348.668 406.329L350.868 405.254L353.069 403.562L355.269 401.155L356.369 399.588L357.47 397.704L358.57 395.462L359.67 392.842L361.871 386.446L364.071 378.735L368.472 361.766L369.573 356.695L370.673 350.799L372.873 336.451L377.274 305.311L383.876 261.102L384.976 254.981L386.076 249.919L387.177 245.888L389.377 239.663L391.578 234.479L392.678 232.75L393.778 232.108L394.878 232.691L395.979 234.327L397.079 236.671L399.279 242.291L401.48 248.333L402.58 251.641L403.68 255.421L404.781 259.955L405.881 265.469L408.081 279.263L411.382 301.587L413.583 314.404L415.783 325.325L420.184 345.206L422.385 353.97L424.585 361.247L426.786 367.112L430.086 375.018L432.287 379.62L437.788 389.533L439.989 393.273L441.089 394.855L442.189 396.171L443.289 397.221L445.49 398.789L450.991 402.151L455.392 404.514L457.593 405.348L460.894 406.217L464.194 407.006L469.696 408.752L472.996 409.125L477.397 409.249L481.798 409.32L490.6 410.046L512.605 410.104L531.31 410.111" fill="#EFEFEF" fill-opacity="0.4"/>
<path d="M312.359 410.111L320.061 409.971L325.562 409.925L331.064 409.812L336.565 409.458L339.866 408.945L343.166 408.139L348.668 406.329L350.868 405.254L353.069 403.562L355.269 401.155L356.369 399.588L357.47 397.704L358.57 395.462L359.67 392.842L361.871 386.446L364.071 378.735L368.472 361.766L369.573 356.695L370.673 350.799L372.873 336.451L377.274 305.311L383.876 261.102L384.976 254.981L386.076 249.919L387.177 245.888L389.377 239.663L391.578 234.479L392.678 232.75L393.778 232.108L394.878 232.691L395.979 234.327L397.079 236.671L399.279 242.291L401.48 248.333L402.58 251.641L403.68 255.421L404.781 259.955L405.881 265.469L408.081 279.263L411.382 301.587L413.583 314.404L415.783 325.325L420.184 345.206L422.385 353.97L424.585 361.247L426.786 367.112L430.086 375.018L432.287 379.62L437.788 389.533L439.989 393.273L441.089 394.855L442.189 396.171L443.289 397.221L445.49 398.789L450.991 402.151L455.392 404.514L457.593 405.348L460.894 406.217L464.194 407.006L469.696 408.752L472.996 409.125L477.397 409.249L481.798 409.32L490.6 410.046L512.605 410.104L531.31 410.111" stroke="#EFEFEF" stroke-linecap="square"/>
</g>
<mask id="mask14_230_11998" style="mask-type:luminance" maskUnits="userSpaceOnUse" x="76" y="55" width="477" height="356">
<path d="M552.957 55.2959H76.7969V410.112H552.957V55.2959Z" fill="white"/>
</mask>
<g mask="url(#mask14_230_11998)">
<path d="M98.4375 410.111L237.379 410.112L258.754 410.014L263.029 409.659L269.442 408.74L271.579 408.286L273.717 407.528L275.854 406.404L277.992 404.874L280.13 402.844L282.267 400.29L284.405 397.349L286.542 394.116L288.68 390.458L290.817 386.175L292.955 381.259L295.092 375.799L297.23 369.769L299.368 363.104L303.643 348.275L310.055 324.938L312.193 317.625L314.33 311.166L316.468 305.845L320.743 297.018L322.881 292.948L325.018 289.323L327.156 286.272L329.293 283.743L331.431 281.614L333.568 280.041L335.706 279.431L337.844 279.84L339.981 281.013L342.119 283.248L344.256 287.459L346.394 293.937L350.669 309.151L352.806 315.894L357.082 328.456L363.494 348.367L372.044 372.449L374.182 377.207L376.32 381.18L380.595 388.317L382.732 391.43L384.87 394.055L387.007 396.209L389.145 397.967L393.42 400.759L395.558 401.912L406.245 406.584L408.383 407.359L410.52 407.866L416.933 408.604L421.208 408.968L431.896 409.422L444.721 409.531L451.134 409.898L470.372 410.049L483.197 409.927L489.61 410.001L500.298 410.081L521.673 410.109L523.811 410.111" fill="#7EB0D5" fill-opacity="0.4"/>
<path d="M98.4375 410.111L237.379 410.112L258.754 410.014L263.029 409.659L269.442 408.74L271.579 408.286L273.717 407.528L275.854 406.404L277.992 404.874L280.13 402.844L282.267 400.29L284.405 397.349L286.542 394.116L288.68 390.458L290.817 386.175L292.955 381.259L295.092 375.799L297.23 369.769L299.368 363.104L303.643 348.275L310.055 324.938L312.193 317.625L314.33 311.166L316.468 305.845L320.743 297.018L322.881 292.948L325.018 289.323L327.156 286.272L329.293 283.743L331.431 281.614L333.568 280.041L335.706 279.431L337.844 279.84L339.981 281.013L342.119 283.248L344.256 287.459L346.394 293.937L350.669 309.151L352.806 315.894L357.082 328.456L363.494 348.367L372.044 372.449L374.182 377.207L376.32 381.18L380.595 388.317L382.732 391.43L384.87 394.055L387.007 396.209L389.145 397.967L393.42 400.759L395.558 401.912L406.245 406.584L408.383 407.359L410.52 407.866L416.933 408.604L421.208 408.968L431.896 409.422L444.721 409.531L451.134 409.898L470.372 410.049L483.197 409.927L489.61 410.001L500.298 410.081L521.673 410.109L523.811 410.111" stroke="#7EB0D5" stroke-linecap="square"/>
</g>
<path d="M535.061 411.061C535.646 410.475 535.646 409.525 535.061 408.939L525.515 399.393C524.929 398.808 523.979 398.808 523.393 399.393C522.808 399.979 522.808 400.929 523.393 401.515L531.879 410L523.393 418.485C522.808 419.071 522.808 420.021 523.393 420.607C523.979 421.192 524.929 421.192 525.515 420.607L535.061 411.061ZM79 411.5H534V408.5H79V411.5Z" fill="black"/>
</g>
<defs>
<clipPath id="clip0_230_11998">
<rect width="614.4" height="460.8" fill="white"/>
</clipPath>
</defs>
</svg>
