<svg width="615" height="461" viewBox="0 0 615 461" fill="none" xmlns="http://www.w3.org/2000/svg">
<g clip-path="url(#clip0_230_11438)">
<mask id="mask0_230_11438" style="mask-type:luminance" maskUnits="userSpaceOnUse" x="76" y="55" width="477" height="356">
<path d="M552.957 55.2959H76.7969V410.112H552.957V55.2959Z" fill="white"/>
</mask>
<g mask="url(#mask0_230_11438)">
<path d="M349.648 410.111L360.612 409.95L369.045 409.233L370.731 408.686L372.418 407.608L374.948 405.174L376.635 403.616L380.008 400.717L380.851 399.656L382.538 396.798L384.224 393.148L385.911 388.902L387.598 383.952L390.128 375.21L392.657 364.962L396.874 346.756L398.561 340.302L400.247 332.541L407.837 293.152L409.524 286.121L410.367 283.539L412.054 279.59L417.114 268.657L417.957 267.364L418.8 266.613L419.644 266.521L420.487 267.05L421.33 268.025L423.017 270.731L423.86 272.502L424.703 274.712L426.39 280.591L428.077 288.109L429.763 297.252L435.667 332.638L438.196 344.691L441.57 359.94L444.943 375.81L446.63 382.137L448.316 387.218L450.003 391.424L451.689 394.871L455.063 400.816L456.749 403.325L458.436 405.141L460.123 406.434L461.809 407.401L463.496 408.136L465.183 408.636L468.556 409.168L472.772 409.552L490.482 410.055L503.132 410.111L517.468 410.111" fill="#EFEFEF" fill-opacity="0.4"/>
<path d="M349.648 410.111L360.612 409.95L369.045 409.233L370.731 408.686L372.418 407.608L374.948 405.174L376.635 403.616L380.008 400.717L380.851 399.656L382.538 396.798L384.224 393.148L385.911 388.902L387.598 383.952L390.128 375.21L392.657 364.962L396.874 346.756L398.561 340.302L400.247 332.541L407.837 293.152L409.524 286.121L410.367 283.539L412.054 279.59L417.114 268.657L417.957 267.364L418.8 266.613L419.644 266.521L420.487 267.05L421.33 268.025L423.017 270.731L423.86 272.502L424.703 274.712L426.39 280.591L428.077 288.109L429.763 297.252L435.667 332.638L438.196 344.691L441.57 359.94L444.943 375.81L446.63 382.137L448.316 387.218L450.003 391.424L451.689 394.871L455.063 400.816L456.749 403.325L458.436 405.141L460.123 406.434L461.809 407.401L463.496 408.136L465.183 408.636L468.556 409.168L472.772 409.552L490.482 410.055L503.132 410.111L517.468 410.111" stroke="#EFEFEF" stroke-linecap="square"/>
</g>
<mask id="mask1_230_11438" style="mask-type:luminance" maskUnits="userSpaceOnUse" x="76" y="55" width="477" height="356">
<path d="M552.957 55.2959H76.7969V410.112H552.957V55.2959Z" fill="white"/>
</mask>
<g mask="url(#mask1_230_11438)">
<path d="M329.109 410.112L339.27 409.975L344.351 409.536L348.416 408.976L351.464 408.226L353.496 407.377L355.528 406.102L357.561 404.286L359.593 401.798L361.625 398.517L363.657 394.522L370.77 379.213L373.818 371.597L378.899 358.486L380.931 354.072L382.963 350.623L383.979 349.304L384.996 348.241L386.012 347.405L388.044 346.289L390.076 345.687L393.124 344.977L395.157 344.257L398.205 342.852L400.237 341.702L402.269 340.271L404.302 338.448L406.334 336.211L410.398 331.564L412.431 329.729L414.463 328.305L416.495 327.225L418.527 326.55L419.543 326.479L420.56 326.675L421.576 327.186L422.592 328.019L424.624 330.441L432.753 342.019L434.785 345.359L436.817 349.218L442.914 361.633L447.995 370.969L454.091 383.405L457.14 388.43L463.236 397.452L465.268 400.066L467.301 402.167L469.333 403.748L472.381 405.519L475.43 406.976L478.478 408.114L481.526 408.878L484.575 409.34L489.655 409.75L495.752 409.921L525.219 410.097L531.316 410.112" fill="#EFEFEF" fill-opacity="0.4"/>
<path d="M329.109 410.112L339.27 409.975L344.351 409.536L348.416 408.976L351.464 408.226L353.496 407.377L355.528 406.102L357.561 404.286L359.593 401.798L361.625 398.517L363.657 394.522L370.77 379.213L373.818 371.597L378.899 358.486L380.931 354.072L382.963 350.623L383.979 349.304L384.996 348.241L386.012 347.405L388.044 346.289L390.076 345.687L393.124 344.977L395.157 344.257L398.205 342.852L400.237 341.702L402.269 340.271L404.302 338.448L406.334 336.211L410.398 331.564L412.431 329.729L414.463 328.305L416.495 327.225L418.527 326.55L419.543 326.479L420.56 326.675L421.576 327.186L422.592 328.019L424.624 330.441L432.753 342.019L434.785 345.359L436.817 349.218L442.914 361.633L447.995 370.969L454.091 383.405L457.14 388.43L463.236 397.452L465.268 400.066L467.301 402.167L469.333 403.748L472.381 405.519L475.43 406.976L478.478 408.114L481.526 408.878L484.575 409.34L489.655 409.75L495.752 409.921L525.219 410.097L531.316 410.112" stroke="#EFEFEF" stroke-linecap="square"/>
</g>
<mask id="mask2_230_11438" style="mask-type:luminance" maskUnits="userSpaceOnUse" x="76" y="55" width="477" height="356">
<path d="M552.957 55.2959H76.7969V410.112H552.957V55.2959Z" fill="white"/>
</mask>
<g mask="url(#mask2_230_11438)">
<path d="M359.953 410.111L363.96 409.971L367.967 409.694L372.775 409.494L375.98 409.123L377.583 408.588L379.186 407.537L382.391 404.708L383.994 403.036L385.597 400.622L388.001 396.505L389.603 393.869L390.405 392.151L392.008 387.559L394.412 379.382L396.014 372.752L398.418 360.035L400.823 346.19L403.227 329.482L407.233 298.672L410.439 271.637L412.843 251.647L413.644 246.096L414.446 241.776L415.247 238.786L416.85 234.993L418.452 231.44L419.254 230.37L420.055 230.365L420.857 231.418L422.459 235.203L424.062 239.845L424.863 243.387L425.665 248.48L427.267 262.683L429.672 285.277L436.082 339.97L438.486 356.997L440.891 372.77L442.493 381.613L444.096 388.287L445.699 392.809L447.301 396.145L448.904 398.993L450.507 401.16L455.315 406.698L456.918 407.581L460.123 409.05L461.726 409.429L464.13 409.52L467.335 409.41L470.541 409.818L473.746 410.042L480.157 410.112L519.424 410.111" fill="#EFEFEF" fill-opacity="0.4"/>
<path d="M359.953 410.111L363.96 409.971L367.967 409.694L372.775 409.494L375.98 409.123L377.583 408.588L379.186 407.537L382.391 404.708L383.994 403.036L385.597 400.622L388.001 396.505L389.603 393.869L390.405 392.151L392.008 387.559L394.412 379.382L396.014 372.752L398.418 360.035L400.823 346.19L403.227 329.482L407.233 298.672L410.439 271.637L412.843 251.647L413.644 246.096L414.446 241.776L415.247 238.786L416.85 234.993L418.452 231.44L419.254 230.37L420.055 230.365L420.857 231.418L422.459 235.203L424.062 239.845L424.863 243.387L425.665 248.48L427.267 262.683L429.672 285.277L436.082 339.97L438.486 356.997L440.891 372.77L442.493 381.613L444.096 388.287L445.699 392.809L447.301 396.145L448.904 398.993L450.507 401.16L455.315 406.698L456.918 407.581L460.123 409.05L461.726 409.429L464.13 409.52L467.335 409.41L470.541 409.818L473.746 410.042L480.157 410.112L519.424 410.111" stroke="#EFEFEF" stroke-linecap="square"/>
</g>
<mask id="mask3_230_11438" style="mask-type:luminance" maskUnits="userSpaceOnUse" x="76" y="55" width="477" height="356">
<path d="M552.957 55.2959H76.7969V410.112H552.957V55.2959Z" fill="white"/>
</mask>
<g mask="url(#mask3_230_11438)">
<path d="M351.398 410.112L364.408 409.959L368.744 409.705L378.863 408.649L380.308 408.161L382.476 407.034L385.367 405.048L386.813 403.733L388.258 401.807L389.704 399.046L391.149 395.416L393.318 388.603L396.209 379.126L399.822 368.569L401.268 364.928L401.991 363.516L402.713 362.442L403.436 361.702L404.159 361.252L404.882 361.031L406.327 361.092L407.773 361.729L409.218 362.934L410.664 364.585L413.555 368.197L414.277 368.869L415 369.321L415.723 369.504L416.446 369.398L417.168 369.007L417.891 368.358L419.337 366.389L420.782 363.556L422.227 359.585L423.673 353.935L425.118 346.062L426.564 335.862L428.732 317.718L433.069 281.134L435.237 264.991L436.682 256.128L438.128 249.525L438.851 247.212L439.573 245.575L440.296 244.59L441.019 244.221L441.742 244.44L442.464 245.247L443.187 246.674L443.91 248.78L444.633 251.628L445.355 255.258L446.801 264.765L448.969 282.937L454.028 330.078L456.196 349.467L457.642 360.44L459.81 374.049L461.978 385.311L463.424 391.378L464.869 396.129L466.315 399.634L467.76 402.121L469.206 403.918L470.651 405.307L472.82 406.928L474.988 408.13L477.156 408.885L480.047 409.401L485.106 410.011L491.611 410.098L495.225 410.112" fill="#EFEFEF" fill-opacity="0.4"/>
<path d="M351.398 410.112L364.408 409.959L368.744 409.705L378.863 408.649L380.308 408.161L382.476 407.034L385.367 405.048L386.813 403.733L388.258 401.807L389.704 399.046L391.149 395.416L393.318 388.603L396.209 379.126L399.822 368.569L401.268 364.928L401.991 363.516L402.713 362.442L403.436 361.702L404.159 361.252L404.882 361.031L406.327 361.092L407.773 361.729L409.218 362.934L410.664 364.585L413.555 368.197L414.277 368.869L415 369.321L415.723 369.504L416.446 369.398L417.168 369.007L417.891 368.358L419.337 366.389L420.782 363.556L422.227 359.585L423.673 353.935L425.118 346.062L426.564 335.862L428.732 317.718L433.069 281.134L435.237 264.991L436.682 256.128L438.128 249.525L438.851 247.212L439.573 245.575L440.296 244.59L441.019 244.221L441.742 244.44L442.464 245.247L443.187 246.674L443.91 248.78L444.633 251.628L445.355 255.258L446.801 264.765L448.969 282.937L454.028 330.078L456.196 349.467L457.642 360.44L459.81 374.049L461.978 385.311L463.424 391.378L464.869 396.129L466.315 399.634L467.76 402.121L469.206 403.918L470.651 405.307L472.82 406.928L474.988 408.13L477.156 408.885L480.047 409.401L485.106 410.011L491.611 410.098L495.225 410.112" stroke="#EFEFEF" stroke-linecap="square"/>
</g>
<mask id="mask4_230_11438" style="mask-type:luminance" maskUnits="userSpaceOnUse" x="76" y="55" width="477" height="356">
<path d="M552.957 55.2959H76.7969V410.112H552.957V55.2959Z" fill="white"/>
</mask>
<g mask="url(#mask4_230_11438)">
<path d="M333.844 410.111L342.702 409.976L347.131 409.622L349.788 409.12L352.445 408.357L355.103 407.287L356.874 406.288L358.646 405.007L362.189 401.9L371.047 394.027L373.704 392.141L376.362 390.549L379.019 389.358L383.448 387.571L388.763 385.215L391.42 383.534L395.849 380.349L397.621 378.747L399.392 376.75L401.164 374.253L402.935 371.153L404.707 367.41L406.478 363.056L408.25 358.103L410.022 352.519L412.679 342.974L416.222 328.709L420.651 310.913L423.309 301.659L425.08 296.47L426.852 292.227L427.737 290.611L428.623 289.445L429.509 288.791L430.395 288.646L431.281 288.945L432.166 289.573L433.938 291.418L434.824 292.596L435.71 294.043L436.595 295.875L437.481 298.174L439.253 304.149L441.91 315.221L445.453 331.47L449.882 352.333L451.654 359.412L454.311 368.634L458.74 382.971L460.512 387.82L462.283 391.809L464.055 395.088L466.712 399.159L468.484 401.422L470.255 403.281L472.027 404.708L473.799 405.747L476.456 406.809L482.656 408.691L485.314 409.126L495.057 409.839L502.144 410.059L510.116 410.111" fill="#EFEFEF" fill-opacity="0.4"/>
<path d="M333.844 410.111L342.702 409.976L347.131 409.622L349.788 409.12L352.445 408.357L355.103 407.287L356.874 406.288L358.646 405.007L362.189 401.9L371.047 394.027L373.704 392.141L376.362 390.549L379.019 389.358L383.448 387.571L388.763 385.215L391.42 383.534L395.849 380.349L397.621 378.747L399.392 376.75L401.164 374.253L402.935 371.153L404.707 367.41L406.478 363.056L408.25 358.103L410.022 352.519L412.679 342.974L416.222 328.709L420.651 310.913L423.309 301.659L425.08 296.47L426.852 292.227L427.737 290.611L428.623 289.445L429.509 288.791L430.395 288.646L431.281 288.945L432.166 289.573L433.938 291.418L434.824 292.596L435.71 294.043L436.595 295.875L437.481 298.174L439.253 304.149L441.91 315.221L445.453 331.47L449.882 352.333L451.654 359.412L454.311 368.634L458.74 382.971L460.512 387.82L462.283 391.809L464.055 395.088L466.712 399.159L468.484 401.422L470.255 403.281L472.027 404.708L473.799 405.747L476.456 406.809L482.656 408.691L485.314 409.126L495.057 409.839L502.144 410.059L510.116 410.111" stroke="#EFEFEF" stroke-linecap="square"/>
</g>
<mask id="mask5_230_11438" style="mask-type:luminance" maskUnits="userSpaceOnUse" x="76" y="55" width="477" height="356">
<path d="M552.957 55.2959H76.7969V410.112H552.957V55.2959Z" fill="white"/>
</mask>
<g mask="url(#mask5_230_11438)">
<path d="M357.844 410.111L370.953 409.986L373.023 409.572L377.162 409.507L379.232 409.925L380.612 409.861L381.992 409.322L383.372 408.76L384.752 408.656L386.821 408.582L390.271 407.624L391.651 407.049L393.721 405.796L396.481 403.876L397.171 402.653L399.241 397.587L399.93 395.411L400.62 392.423L402 383.918L403.38 373.037L404.76 356.783L406.14 335.066L407.52 305.078L409.59 246.732L410.97 202.466L413.039 130.74L414.419 97.0973L415.109 84.6633L415.799 76.0869L416.489 72.1924L417.179 72.6124L417.869 76.7121L418.559 84.4832L419.249 96.1674L420.629 128.224L422.699 187.373L425.458 266.782L426.838 297.878L428.218 323.119L429.598 339.594L430.978 352.495L433.048 368.064L434.428 377.909L435.118 381.886L435.808 384.794L441.327 402.281L442.707 404.077L445.467 406.688L447.537 408.485L448.227 408.772L450.297 408.839L451.676 409.298L453.056 409.324L454.436 409.316L456.506 409.723L457.886 409.877L462.026 409.818L470.995 409.75L475.135 409.851L476.514 409.815L478.584 410.012L486.864 410.092L490.313 410.068L493.073 410.061L495.143 410.111" fill="#EFEFEF" fill-opacity="0.4"/>
<path d="M357.844 410.111L370.953 409.986L373.023 409.572L377.162 409.507L379.232 409.925L380.612 409.861L381.992 409.322L383.372 408.76L384.752 408.656L386.821 408.582L390.271 407.624L391.651 407.049L393.721 405.796L396.481 403.876L397.171 402.653L399.241 397.587L399.93 395.411L400.62 392.423L402 383.918L403.38 373.037L404.76 356.783L406.14 335.066L407.52 305.078L409.59 246.732L410.97 202.466L413.039 130.74L414.419 97.0973L415.109 84.6633L415.799 76.0869L416.489 72.1924L417.179 72.6124L417.869 76.7121L418.559 84.4832L419.249 96.1674L420.629 128.224L422.699 187.373L425.458 266.782L426.838 297.878L428.218 323.119L429.598 339.594L430.978 352.495L433.048 368.064L434.428 377.909L435.118 381.886L435.808 384.794L441.327 402.281L442.707 404.077L445.467 406.688L447.537 408.485L448.227 408.772L450.297 408.839L451.676 409.298L453.056 409.324L454.436 409.316L456.506 409.723L457.886 409.877L462.026 409.818L470.995 409.75L475.135 409.851L476.514 409.815L478.584 410.012L486.864 410.092L490.313 410.068L493.073 410.061L495.143 410.111" stroke="#EFEFEF" stroke-linecap="square"/>
</g>
<mask id="mask6_230_11438" style="mask-type:luminance" maskUnits="userSpaceOnUse" x="76" y="55" width="477" height="356">
<path d="M552.957 55.2959H76.7969V410.112H552.957V55.2959Z" fill="white"/>
</mask>
<g mask="url(#mask6_230_11438)">
<path d="M336.789 410.112L356.854 409.958L359.362 409.788L361.035 409.46L362.707 408.862L365.215 407.584L367.723 405.99L373.575 401.325L375.247 399.466L376.919 396.843L379.428 392.834L381.1 390.878L383.608 388.304L385.28 386.051L386.952 383.161L388.624 379.513L390.296 374.839L391.968 369.106L394.477 358.921L400.329 333.128L402.837 320.768L408.689 289.983L411.198 279.612L412.87 273.974L413.706 271.823L414.542 270.192L415.378 269.079L416.214 268.477L417.05 268.402L417.886 268.884L418.722 269.934L419.558 271.523L421.23 275.989L423.738 284.372L426.247 293.884L428.755 305.186L431.263 318.126L436.279 344.539L438.787 356.068L440.459 362.639L442.131 368.351L443.804 373.272L445.476 377.316L450.492 387.57L452.164 390.598L455.508 395.632L458.016 399.307L459.689 401.325L461.361 402.847L463.033 403.977L464.705 404.812L474.737 408.745L477.246 409.196L482.262 409.503L489.786 409.834L503.163 410.112" fill="#EFEFEF" fill-opacity="0.4"/>
<path d="M336.789 410.112L356.854 409.958L359.362 409.788L361.035 409.46L362.707 408.862L365.215 407.584L367.723 405.99L373.575 401.325L375.247 399.466L376.919 396.843L379.428 392.834L381.1 390.878L383.608 388.304L385.28 386.051L386.952 383.161L388.624 379.513L390.296 374.839L391.968 369.106L394.477 358.921L400.329 333.128L402.837 320.768L408.689 289.983L411.198 279.612L412.87 273.974L413.706 271.823L414.542 270.192L415.378 269.079L416.214 268.477L417.05 268.402L417.886 268.884L418.722 269.934L419.558 271.523L421.23 275.989L423.738 284.372L426.247 293.884L428.755 305.186L431.263 318.126L436.279 344.539L438.787 356.068L440.459 362.639L442.131 368.351L443.804 373.272L445.476 377.316L450.492 387.57L452.164 390.598L455.508 395.632L458.016 399.307L459.689 401.325L461.361 402.847L463.033 403.977L464.705 404.812L474.737 408.745L477.246 409.196L482.262 409.503L489.786 409.834L503.163 410.112" stroke="#EFEFEF" stroke-linecap="square"/>
</g>
<mask id="mask7_230_11438" style="mask-type:luminance" maskUnits="userSpaceOnUse" x="76" y="55" width="477" height="356">
<path d="M552.957 55.2959H76.7969V410.112H552.957V55.2959Z" fill="white"/>
</mask>
<g mask="url(#mask7_230_11438)">
<path d="M340.992 410.111L350.13 409.955L352.871 409.63L355.613 408.971L357.44 408.292L359.268 407.247L361.096 405.622L362.009 404.521L362.923 403.176L363.837 401.536L364.751 399.546L365.664 397.152L366.578 394.304L368.406 387.056L370.233 377.414L372.061 365.152L373.889 350.409L376.63 324.655L380.285 288.827L382.113 273.915L383.026 267.846L383.94 262.864L384.854 259.086L385.768 256.619L386.682 255.523L387.595 255.778L388.509 257.269L389.423 259.808L390.337 263.164L392.164 271.325L394.906 283.824L396.733 290.655L404.044 313.659L409.526 330.454L411.354 337.198L413.181 345.164L417.75 366.666L419.578 373.428L421.405 378.667L423.233 382.785L425.061 386.308L426.888 389.27L427.802 390.398L428.716 391.219L429.63 391.733L430.543 391.984L432.371 392.032L434.199 392.038L436.026 392.363L437.854 392.991L439.681 393.876L441.509 395.083L443.336 396.39L445.164 397.272L449.733 398.423L451.56 399.557L455.216 402.143L457.043 403.09L464.354 406.09L469.836 408.175L472.578 408.968L476.233 409.485L479.888 409.78L490.853 409.888L519.181 410.1L522.836 410.111" fill="#EFEFEF" fill-opacity="0.4"/>
<path d="M340.992 410.111L350.13 409.955L352.871 409.63L355.613 408.971L357.44 408.292L359.268 407.247L361.096 405.622L362.009 404.521L362.923 403.176L363.837 401.536L364.751 399.546L365.664 397.152L366.578 394.304L368.406 387.056L370.233 377.414L372.061 365.152L373.889 350.409L376.63 324.655L380.285 288.827L382.113 273.915L383.026 267.846L383.94 262.864L384.854 259.086L385.768 256.619L386.682 255.523L387.595 255.778L388.509 257.269L389.423 259.808L390.337 263.164L392.164 271.325L394.906 283.824L396.733 290.655L404.044 313.659L409.526 330.454L411.354 337.198L413.181 345.164L417.75 366.666L419.578 373.428L421.405 378.667L423.233 382.785L425.061 386.308L426.888 389.27L427.802 390.398L428.716 391.219L429.63 391.733L430.543 391.984L432.371 392.032L434.199 392.038L436.026 392.363L437.854 392.991L439.681 393.876L441.509 395.083L443.336 396.39L445.164 397.272L449.733 398.423L451.56 399.557L455.216 402.143L457.043 403.09L464.354 406.09L469.836 408.175L472.578 408.968L476.233 409.485L479.888 409.78L490.853 409.888L519.181 410.1L522.836 410.111" stroke="#EFEFEF" stroke-linecap="square"/>
</g>
<mask id="mask8_230_11438" style="mask-type:luminance" maskUnits="userSpaceOnUse" x="76" y="55" width="477" height="356">
<path d="M552.957 55.2959H76.7969V410.112H552.957V55.2959Z" fill="white"/>
</mask>
<g mask="url(#mask8_230_11438)">
<path d="M356 410.112L363.145 409.958L366.32 409.557L369.495 408.911L371.083 408.353L372.671 407.478L374.258 406.273L375.846 404.721L377.434 402.666L379.022 399.856L380.609 396.131L382.197 391.537L383.785 386.238L385.372 380.144L386.96 372.846L388.548 364.201L394.105 331.884L395.692 324.633L397.28 318.475L404.425 293.817L406.012 289.619L407.6 286.853L409.188 284.952L409.982 284.248L410.775 283.75L411.569 283.508L412.363 283.558L413.157 283.928L413.951 284.634L414.745 285.685L416.332 288.731L417.92 292.654L421.095 301.606L422.683 306.729L424.271 312.695L427.446 325.166L429.034 329.711L433.797 341.365L436.178 347.672L437.766 352.736L440.941 363.93L442.529 368.546L449.674 386.551L452.055 391.406L454.437 395.327L457.612 399.718L459.994 402.537L462.375 404.729L464.757 406.445L466.345 407.297L468.726 408.142L471.901 408.864L476.665 409.614L481.428 409.879L486.191 409.999L513.975 410.112" fill="#EFEFEF" fill-opacity="0.4"/>
<path d="M356 410.112L363.145 409.958L366.32 409.557L369.495 408.911L371.083 408.353L372.671 407.478L374.258 406.273L375.846 404.721L377.434 402.666L379.022 399.856L380.609 396.131L382.197 391.537L383.785 386.238L385.372 380.144L386.96 372.846L388.548 364.201L394.105 331.884L395.692 324.633L397.28 318.475L404.425 293.817L406.012 289.619L407.6 286.853L409.188 284.952L409.982 284.248L410.775 283.75L411.569 283.508L412.363 283.558L413.157 283.928L413.951 284.634L414.745 285.685L416.332 288.731L417.92 292.654L421.095 301.606L422.683 306.729L424.271 312.695L427.446 325.166L429.034 329.711L433.797 341.365L436.178 347.672L437.766 352.736L440.941 363.93L442.529 368.546L449.674 386.551L452.055 391.406L454.437 395.327L457.612 399.718L459.994 402.537L462.375 404.729L464.757 406.445L466.345 407.297L468.726 408.142L471.901 408.864L476.665 409.614L481.428 409.879L486.191 409.999L513.975 410.112" stroke="#EFEFEF" stroke-linecap="square"/>
</g>
<mask id="mask9_230_11438" style="mask-type:luminance" maskUnits="userSpaceOnUse" x="76" y="55" width="477" height="356">
<path d="M552.957 55.2959H76.7969V410.112H552.957V55.2959Z" fill="white"/>
</mask>
<g mask="url(#mask9_230_11438)">
<path d="M361.305 410.11L376.357 409.883L382.695 409.33L385.864 408.932L389.033 408.369L390.617 407.597L392.994 406.368L394.579 406.176L395.371 405.842L396.163 405.049L399.332 400.488L400.916 396.955L402.501 392.229L404.085 385.378L406.462 373.346L408.047 365.996L408.839 360.586L410.423 344.818L412.008 324.676L414.384 286.418L416.761 244.394L419.138 198.766L419.93 185.533L420.722 175.077L421.515 167.542L422.307 162.094L423.891 154.455L424.684 152.06L425.476 152.057L426.268 155.769L427.852 167.983L428.645 172.167L429.437 177.293L430.229 185.909L431.021 197.916L432.606 229.502L434.983 283.625L436.567 312.575L438.152 335.8L439.736 355.076L442.113 380.44L442.905 386.964L443.697 391.954L444.489 395.583L445.282 398.139L447.658 403.767L448.451 405.396L449.243 406.411L450.035 406.807L451.62 407.188L454.788 408.62L456.373 409.175L457.957 409.437L460.334 409.488L463.503 409.978L466.672 409.911L468.256 409.858L469.841 409.771L473.01 409.922L486.478 410.112L518.96 410.111" fill="#EFEFEF" fill-opacity="0.4"/>
<path d="M361.305 410.11L376.357 409.883L382.695 409.33L385.864 408.932L389.033 408.369L390.617 407.597L392.994 406.368L394.579 406.176L395.371 405.842L396.163 405.049L399.332 400.488L400.916 396.955L402.501 392.229L404.085 385.378L406.462 373.346L408.047 365.996L408.839 360.586L410.423 344.818L412.008 324.676L414.384 286.418L416.761 244.394L419.138 198.766L419.93 185.533L420.722 175.077L421.515 167.542L422.307 162.094L423.891 154.455L424.684 152.06L425.476 152.057L426.268 155.769L427.852 167.983L428.645 172.167L429.437 177.293L430.229 185.909L431.021 197.916L432.606 229.502L434.983 283.625L436.567 312.575L438.152 335.8L439.736 355.076L442.113 380.44L442.905 386.964L443.697 391.954L444.489 395.583L445.282 398.139L447.658 403.767L448.451 405.396L449.243 406.411L450.035 406.807L451.62 407.188L454.788 408.62L456.373 409.175L457.957 409.437L460.334 409.488L463.503 409.978L466.672 409.911L468.256 409.858L469.841 409.771L473.01 409.922L486.478 410.112L518.96 410.111" stroke="#EFEFEF" stroke-linecap="square"/>
</g>
<mask id="mask10_230_11438" style="mask-type:luminance" maskUnits="userSpaceOnUse" x="76" y="55" width="477" height="356">
<path d="M552.957 55.2959H76.7969V410.112H552.957V55.2959Z" fill="white"/>
</mask>
<g mask="url(#mask10_230_11438)">
<path d="M349.5 410.111L365.912 409.948L376.072 409.247L377.635 408.957L384.669 406.843L386.232 406.024L387.795 404.87L390.139 402.747L392.484 400.136L397.173 394.029L398.736 391.251L400.299 387.69L401.862 383.46L404.207 376.133L408.115 362.923L409.678 356.285L412.022 344.18L414.367 332.621L416.711 321.577L420.619 301.221L424.527 285.02L425.308 282.041L426.09 279.661L426.871 278.032L427.653 277.072L429.997 275.28L432.342 272.383L433.124 271.944L433.905 272.12L434.687 272.93L435.468 274.258L437.031 277.725L438.594 281.732L440.157 287.121L444.065 303.61L446.41 311.652L447.973 319.233L451.88 341.255L457.351 367.44L459.696 377.234L462.04 385.522L464.385 392.37L465.948 396.128L467.511 399.064L469.074 401.144L472.2 404.262L474.545 406.396L476.108 407.519L478.452 408.732L480.797 409.522L482.36 409.783L484.704 409.85L488.612 409.888L494.083 410.097L505.024 410.111" fill="#EFEFEF" fill-opacity="0.4"/>
<path d="M349.5 410.111L365.912 409.948L376.072 409.247L377.635 408.957L384.669 406.843L386.232 406.024L387.795 404.87L390.139 402.747L392.484 400.136L397.173 394.029L398.736 391.251L400.299 387.69L401.862 383.46L404.207 376.133L408.115 362.923L409.678 356.285L412.022 344.18L414.367 332.621L416.711 321.577L420.619 301.221L424.527 285.02L425.308 282.041L426.09 279.661L426.871 278.032L427.653 277.072L429.997 275.28L432.342 272.383L433.124 271.944L433.905 272.12L434.687 272.93L435.468 274.258L437.031 277.725L438.594 281.732L440.157 287.121L444.065 303.61L446.41 311.652L447.973 319.233L451.88 341.255L457.351 367.44L459.696 377.234L462.04 385.522L464.385 392.37L465.948 396.128L467.511 399.064L469.074 401.144L472.2 404.262L474.545 406.396L476.108 407.519L478.452 408.732L480.797 409.522L482.36 409.783L484.704 409.85L488.612 409.888L494.083 410.097L505.024 410.111" stroke="#EFEFEF" stroke-linecap="square"/>
</g>
<mask id="mask11_230_11438" style="mask-type:luminance" maskUnits="userSpaceOnUse" x="76" y="55" width="477" height="356">
<path d="M552.957 55.2959H76.7969V410.112H552.957V55.2959Z" fill="white"/>
</mask>
<g mask="url(#mask11_230_11438)">
<path d="M346.07 410.111L351.754 409.982L358.25 409.371L360.685 408.894L362.309 408.239L363.933 407.264L366.369 405.353L368.805 403.001L370.429 401.031L372.053 398.584L373.677 395.599L376.112 390.338L380.172 380.623L383.42 372.086L385.856 364.946L393.975 338.988L398.035 323.72L402.907 305.55L405.342 297.724L406.966 293.503L408.59 290.185L410.214 287.596L411.838 285.477L413.462 283.829L414.274 283.268L415.086 282.923L415.898 282.801L416.71 282.891L417.522 283.189L418.334 283.711L419.146 284.504L419.958 285.635L420.769 287.169L421.581 289.157L422.393 291.633L424.017 298.106L425.641 306.502L430.513 334.054L432.137 341.016L435.384 354.126L439.444 371.466L441.068 376.903L442.692 381.151L444.316 384.563L446.752 388.955L450 394.184L452.435 397.398L454.871 400.007L458.931 403.912L461.367 405.769L462.991 406.736L464.615 407.445L466.238 407.862L477.606 409.569L484.913 409.952L493.845 410.067L501.152 410.071L507.648 410.112" fill="#EFEFEF" fill-opacity="0.4"/>
<path d="M346.07 410.111L351.754 409.982L358.25 409.371L360.685 408.894L362.309 408.239L363.933 407.264L366.369 405.353L368.805 403.001L370.429 401.031L372.053 398.584L373.677 395.599L376.112 390.338L380.172 380.623L383.42 372.086L385.856 364.946L393.975 338.988L398.035 323.72L402.907 305.55L405.342 297.724L406.966 293.503L408.59 290.185L410.214 287.596L411.838 285.477L413.462 283.829L414.274 283.268L415.086 282.923L415.898 282.801L416.71 282.891L417.522 283.189L418.334 283.711L419.146 284.504L419.958 285.635L420.769 287.169L421.581 289.157L422.393 291.633L424.017 298.106L425.641 306.502L430.513 334.054L432.137 341.016L435.384 354.126L439.444 371.466L441.068 376.903L442.692 381.151L444.316 384.563L446.752 388.955L450 394.184L452.435 397.398L454.871 400.007L458.931 403.912L461.367 405.769L462.991 406.736L464.615 407.445L466.238 407.862L477.606 409.569L484.913 409.952L493.845 410.067L501.152 410.071L507.648 410.112" stroke="#EFEFEF" stroke-linecap="square"/>
</g>
<mask id="mask12_230_11438" style="mask-type:luminance" maskUnits="userSpaceOnUse" x="76" y="55" width="477" height="356">
<path d="M552.957 55.2959H76.7969V410.112H552.957V55.2959Z" fill="white"/>
</mask>
<g mask="url(#mask12_230_11438)">
<path d="M356.375 410.11L359.217 409.94L360.638 409.838L364.19 410.02L372.006 409.842L378.4 409.604L381.242 409.594L383.374 409.339L384.795 409.197L386.926 409.206L388.347 408.655L389.768 407.855L391.189 407.559L391.899 407.421L392.61 407.036L394.741 404.919L395.452 404.127L396.162 403.107L396.873 401.727L398.294 398.006L399.715 393.44L401.136 387.426L403.267 376.402L403.978 371.961L404.688 365.776L405.399 356.953L406.109 345.107L407.53 314.135L410.372 243.271L413.214 157.389L415.346 106.953L416.056 95.2663L416.767 87.8918L417.477 84.5488L418.188 85.2808L418.898 90.4427L419.609 99.8493L421.03 126.551L422.451 158.943L424.582 217.46L426.713 277.046L428.134 310.703L429.555 335.523L430.976 353.833L432.397 366.99L434.529 380.436L435.95 387.31L437.371 391.612L438.792 395.13L440.213 397.626L441.634 399.483L443.055 400.555L445.186 402.165L445.897 402.804L448.739 406.098L449.449 406.258L450.87 406.114L451.581 406.21L459.396 409.302L460.106 409.37L461.527 409.167L462.948 409.355L465.08 409.822L467.211 409.872L475.027 409.867L480 410.048L482.842 410.109L485.684 409.962L487.816 409.916L492.079 410.09L495.631 410.066L497.762 410.11" fill="#EFEFEF" fill-opacity="0.4"/>
<path d="M356.375 410.11L359.217 409.94L360.638 409.838L364.19 410.02L372.006 409.842L378.4 409.604L381.242 409.594L383.374 409.339L384.795 409.197L386.926 409.206L388.347 408.655L389.768 407.855L391.189 407.559L391.899 407.421L392.61 407.036L394.741 404.919L395.452 404.127L396.162 403.107L396.873 401.727L398.294 398.006L399.715 393.44L401.136 387.426L403.267 376.402L403.978 371.961L404.688 365.776L405.399 356.953L406.109 345.107L407.53 314.135L410.372 243.271L413.214 157.389L415.346 106.953L416.056 95.2663L416.767 87.8918L417.477 84.5488L418.188 85.2808L418.898 90.4427L419.609 99.8493L421.03 126.551L422.451 158.943L424.582 217.46L426.713 277.046L428.134 310.703L429.555 335.523L430.976 353.833L432.397 366.99L434.529 380.436L435.95 387.31L437.371 391.612L438.792 395.13L440.213 397.626L441.634 399.483L443.055 400.555L445.186 402.165L445.897 402.804L448.739 406.098L449.449 406.258L450.87 406.114L451.581 406.21L459.396 409.302L460.106 409.37L461.527 409.167L462.948 409.355L465.08 409.822L467.211 409.872L475.027 409.867L480 410.048L482.842 410.109L485.684 409.962L487.816 409.916L492.079 410.09L495.631 410.066L497.762 410.11" stroke="#EFEFEF" stroke-linecap="square"/>
</g>
<mask id="mask13_230_11438" style="mask-type:luminance" maskUnits="userSpaceOnUse" x="76" y="55" width="477" height="356">
<path d="M552.957 55.2959H76.7969V410.112H552.957V55.2959Z" fill="white"/>
</mask>
<g mask="url(#mask13_230_11438)">
<path d="M361.992 410.111L382.335 409.921L386.103 409.622L387.61 409.512L389.87 409.001L391.377 408.659L392.884 408.617L395.144 408.706L396.651 408.374L399.665 407.199L401.172 406.874L401.925 406.472L402.679 405.752L404.186 403.445L406.446 399.163L407.2 397.321L407.953 394.896L408.707 391.655L409.46 387.404L410.213 382.027L411.72 368.052L413.227 350.455L414.734 329.048L417.748 280.461L421.515 214.588L422.269 205.288L423.022 198.146L423.776 193.174L424.529 190.405L425.283 189.76L426.036 190.888L426.789 193.174L428.296 199.021L429.05 202.408L429.803 206.479L431.31 217.043L432.817 229.839L434.324 244.931L438.845 294.987L444.872 340.403L451.654 375.392L453.16 380.765L454.667 384.332L456.174 387.427L459.942 396.64L462.955 402.276L464.462 404.348L465.969 405.579L467.476 406.264L469.736 407.066L472.75 408.488L474.257 408.899L481.038 409.849L490.833 410.106L511.93 410.111" fill="#EFEFEF" fill-opacity="0.4"/>
<path d="M361.992 410.111L382.335 409.921L386.103 409.622L387.61 409.512L389.87 409.001L391.377 408.659L392.884 408.617L395.144 408.706L396.651 408.374L399.665 407.199L401.172 406.874L401.925 406.472L402.679 405.752L404.186 403.445L406.446 399.163L407.2 397.321L407.953 394.896L408.707 391.655L409.46 387.404L410.213 382.027L411.72 368.052L413.227 350.455L414.734 329.048L417.748 280.461L421.515 214.588L422.269 205.288L423.022 198.146L423.776 193.174L424.529 190.405L425.283 189.76L426.036 190.888L426.789 193.174L428.296 199.021L429.05 202.408L429.803 206.479L431.31 217.043L432.817 229.839L434.324 244.931L438.845 294.987L444.872 340.403L451.654 375.392L453.16 380.765L454.667 384.332L456.174 387.427L459.942 396.64L462.955 402.276L464.462 404.348L465.969 405.579L467.476 406.264L469.736 407.066L472.75 408.488L474.257 408.899L481.038 409.849L490.833 410.106L511.93 410.111" stroke="#EFEFEF" stroke-linecap="square"/>
</g>
<mask id="mask14_230_11438" style="mask-type:luminance" maskUnits="userSpaceOnUse" x="76" y="55" width="477" height="356">
<path d="M552.957 55.2959H76.7969V410.112H552.957V55.2959Z" fill="white"/>
</mask>
<g mask="url(#mask14_230_11438)">
<path d="M98.4375 410.111L156.628 410.112L344.131 410.028L348.442 409.818L357.063 409.001L361.373 408.286L363.528 407.455L365.684 405.981L367.839 403.771L369.994 400.855L372.149 397.602L374.304 393.648L376.46 388.777L378.615 383.122L380.77 376.26L382.925 368.843L385.08 360.507L387.236 349.707L391.546 322.083L393.701 310.382L395.857 301.984L398.012 294.773L400.167 286.916L402.322 280.666L404.477 278.105L406.633 277.959L408.788 278.498L410.943 279.993L413.098 282.761L415.253 287.73L419.564 304.267L421.719 310.41L423.874 317.625L430.34 349.979L434.65 369.359L436.806 377.543L438.961 383.968L443.271 394.507L445.426 398.528L447.582 401.391L449.737 403.768L451.892 405.442L456.202 407.601L458.358 408.504L460.513 409.088L462.668 409.366L469.134 409.701L473.444 409.954L482.065 410.091L497.151 410.013L510.083 410.112L527.324 410.111" fill="#7EB0D5" fill-opacity="0.4"/>
<path d="M98.4375 410.111L156.628 410.112L344.131 410.028L348.442 409.818L357.063 409.001L361.373 408.286L363.528 407.455L365.684 405.981L367.839 403.771L369.994 400.855L372.149 397.602L374.304 393.648L376.46 388.777L378.615 383.122L380.77 376.26L382.925 368.843L385.08 360.507L387.236 349.707L391.546 322.083L393.701 310.382L395.857 301.984L398.012 294.773L400.167 286.916L402.322 280.666L404.477 278.105L406.633 277.959L408.788 278.498L410.943 279.993L413.098 282.761L415.253 287.73L419.564 304.267L421.719 310.41L423.874 317.625L430.34 349.979L434.65 369.359L436.806 377.543L438.961 383.968L443.271 394.507L445.426 398.528L447.582 401.391L449.737 403.768L451.892 405.442L456.202 407.601L458.358 408.504L460.513 409.088L462.668 409.366L469.134 409.701L473.444 409.954L482.065 410.091L497.151 410.013L510.083 410.112L527.324 410.111" stroke="#7EB0D5" stroke-linecap="square"/>
</g>
<path d="M535.061 411.061C535.646 410.475 535.646 409.525 535.061 408.939L525.515 399.393C524.929 398.808 523.979 398.808 523.393 399.393C522.808 399.979 522.808 400.929 523.393 401.515L531.879 410L523.393 418.485C522.808 419.071 522.808 420.021 523.393 420.607C523.979 421.192 524.929 421.192 525.515 420.607L535.061 411.061ZM79 411.5H534V408.5H79V411.5Z" fill="black"/>
</g>
<defs>
<clipPath id="clip0_230_11438">
<rect width="614.4" height="460.8" fill="white"/>
</clipPath>
</defs>
</svg>
