<svg width="615" height="461" viewBox="0 0 615 461" fill="none" xmlns="http://www.w3.org/2000/svg">
<g clip-path="url(#clip0_230_11678)">
<mask id="mask0_230_11678" style="mask-type:luminance" maskUnits="userSpaceOnUse" x="76" y="55" width="477" height="356">
<path d="M552.957 55.2959H76.7969V410.112H552.957V55.2959Z" fill="white"/>
</mask>
<g mask="url(#mask0_230_11678)">
<path d="M292.438 410.111L298.054 409.978L302.547 409.53L304.794 409.169L307.041 408.55L310.411 407.21L311.534 406.585L312.657 405.681L313.781 404.365L314.904 402.554L316.027 400.182L317.151 397.164L318.274 393.428L320.521 384.018L325.014 362.855L327.26 350.495L331.754 324.242L332.877 318.627L338.494 295.289L339.617 291.366L344.11 279.016L345.234 276.941L346.357 275.734L349.727 273.452L350.85 273.602L351.974 275.21L353.097 278.462L354.22 282.994L358.713 304.407L366.577 344.182L371.07 365.853L373.317 374.971L375.563 382.061L377.81 387.639L380.057 392.34L382.303 396.335L384.55 399.819L385.673 401.26L386.797 402.427L387.92 403.31L389.043 403.934L394.66 406.205L396.906 407.398L399.153 408.242L401.4 408.672L407.016 408.942L409.263 409.363L411.51 409.476L414.88 409.506L418.25 409.728L422.743 409.816L426.113 409.828L429.483 409.838L432.853 409.911L438.469 409.848L442.963 410.009L451.949 409.996L456.442 410.071L466.552 410.106L504.745 410.107L515.979 410.111" fill="#EFEFEF" fill-opacity="0.4"/>
<path d="M292.438 410.111L298.054 409.978L302.547 409.53L304.794 409.169L307.041 408.55L310.411 407.21L311.534 406.585L312.657 405.681L313.781 404.365L314.904 402.554L316.027 400.182L317.151 397.164L318.274 393.428L320.521 384.018L325.014 362.855L327.26 350.495L331.754 324.242L332.877 318.627L338.494 295.289L339.617 291.366L344.11 279.016L345.234 276.941L346.357 275.734L349.727 273.452L350.85 273.602L351.974 275.21L353.097 278.462L354.22 282.994L358.713 304.407L366.577 344.182L371.07 365.853L373.317 374.971L375.563 382.061L377.81 387.639L380.057 392.34L382.303 396.335L384.55 399.819L385.673 401.26L386.797 402.427L387.92 403.31L389.043 403.934L394.66 406.205L396.906 407.398L399.153 408.242L401.4 408.672L407.016 408.942L409.263 409.363L411.51 409.476L414.88 409.506L418.25 409.728L422.743 409.816L426.113 409.828L429.483 409.838L432.853 409.911L438.469 409.848L442.963 410.009L451.949 409.996L456.442 410.071L466.552 410.106L504.745 410.107L515.979 410.111" stroke="#EFEFEF" stroke-linecap="square"/>
</g>
<mask id="mask1_230_11678" style="mask-type:luminance" maskUnits="userSpaceOnUse" x="76" y="55" width="477" height="356">
<path d="M552.957 55.2959H76.7969V410.112H552.957V55.2959Z" fill="white"/>
</mask>
<g mask="url(#mask1_230_11678)">
<path d="M283.008 410.111L289.247 409.953L291.742 409.562L292.99 409.193L294.238 408.656L295.486 407.897L296.733 406.852L297.981 405.435L299.229 403.549L300.477 401.103L301.724 398.048L302.972 394.405L305.468 385.669L307.963 375.413L315.45 342.417L317.945 334.173L319.193 330.833L321.689 325.364L322.937 323.096L324.184 321.169L325.432 319.695L326.68 318.799L327.928 318.557L329.175 318.971L330.423 319.959L331.671 321.372L335.414 326.332L336.662 327.684L337.91 328.684L339.158 329.311L342.901 330.415L344.149 331.16L345.396 332.199L347.892 334.892L350.388 338.282L355.379 346.151L356.626 347.774L357.874 349.116L359.122 350.181L364.113 353.589L365.361 355.017L366.609 356.983L367.856 359.502L374.095 373.85L377.839 380.888L380.334 384.971L385.325 392.292L387.821 395.473L390.316 398.09L392.812 400.303L396.555 403.215L400.299 405.869L402.794 407.359L405.29 408.354L407.785 408.844L414.024 409.396L425.254 409.844L435.236 409.88L441.475 410.028L531.315 410.112" fill="#EFEFEF" fill-opacity="0.4"/>
<path d="M283.008 410.111L289.247 409.953L291.742 409.562L292.99 409.193L294.238 408.656L295.486 407.897L296.733 406.852L297.981 405.435L299.229 403.549L300.477 401.103L301.724 398.048L302.972 394.405L305.468 385.669L307.963 375.413L315.45 342.417L317.945 334.173L319.193 330.833L321.689 325.364L322.937 323.096L324.184 321.169L325.432 319.695L326.68 318.799L327.928 318.557L329.175 318.971L330.423 319.959L331.671 321.372L335.414 326.332L336.662 327.684L337.91 328.684L339.158 329.311L342.901 330.415L344.149 331.16L345.396 332.199L347.892 334.892L350.388 338.282L355.379 346.151L356.626 347.774L357.874 349.116L359.122 350.181L364.113 353.589L365.361 355.017L366.609 356.983L367.856 359.502L374.095 373.85L377.839 380.888L380.334 384.971L385.325 392.292L387.821 395.473L390.316 398.09L392.812 400.303L396.555 403.215L400.299 405.869L402.794 407.359L405.29 408.354L407.785 408.844L414.024 409.396L425.254 409.844L435.236 409.88L441.475 410.028L531.315 410.112" stroke="#EFEFEF" stroke-linecap="square"/>
</g>
<mask id="mask2_230_11678" style="mask-type:luminance" maskUnits="userSpaceOnUse" x="76" y="55" width="477" height="356">
<path d="M552.957 55.2959H76.7969V410.112H552.957V55.2959Z" fill="white"/>
</mask>
<g mask="url(#mask2_230_11678)">
<path d="M306.047 410.11L312.298 409.941L314.382 409.745L318.549 408.894L319.591 408.368L320.633 407.539L321.675 406.338L323.759 403.098L324.801 401.114L325.843 398.228L326.885 394.287L328.968 384.532L330.01 378.336L331.052 371.008L332.094 362.479L333.136 352.475L335.22 328.249L343.555 215.038L344.597 206.393L345.638 201.514L346.68 198.817L347.722 197.887L348.764 200.039L349.806 205.873L350.848 214.068L352.932 234.414L355.015 257.232L356.057 265.972L358.141 281.585L360.225 303.84L363.35 339.855L364.392 349.118L366.476 364.025L368.56 376.983L369.602 382.465L370.644 386.573L375.853 400.097L376.895 401.984L377.937 403.429L378.979 404.574L381.062 406.118L383.146 407.026L385.23 407.823L386.272 408.292L387.314 408.566L389.397 408.806L392.523 409.439L401.9 409.8L406.068 410.002L408.151 409.983L411.277 409.883L418.57 410.04L426.905 409.947L431.073 410.044L435.24 410.019L447.743 410.068L455.036 410.112L513.381 410.111" fill="#EFEFEF" fill-opacity="0.4"/>
<path d="M306.047 410.11L312.298 409.941L314.382 409.745L318.549 408.894L319.591 408.368L320.633 407.539L321.675 406.338L323.759 403.098L324.801 401.114L325.843 398.228L326.885 394.287L328.968 384.532L330.01 378.336L331.052 371.008L332.094 362.479L333.136 352.475L335.22 328.249L343.555 215.038L344.597 206.393L345.638 201.514L346.68 198.817L347.722 197.887L348.764 200.039L349.806 205.873L350.848 214.068L352.932 234.414L355.015 257.232L356.057 265.972L358.141 281.585L360.225 303.84L363.35 339.855L364.392 349.118L366.476 364.025L368.56 376.983L369.602 382.465L370.644 386.573L375.853 400.097L376.895 401.984L377.937 403.429L378.979 404.574L381.062 406.118L383.146 407.026L385.23 407.823L386.272 408.292L387.314 408.566L389.397 408.806L392.523 409.439L401.9 409.8L406.068 410.002L408.151 409.983L411.277 409.883L418.57 410.04L426.905 409.947L431.073 410.044L435.24 410.019L447.743 410.068L455.036 410.112L513.381 410.111" stroke="#EFEFEF" stroke-linecap="square"/>
</g>
<mask id="mask3_230_11678" style="mask-type:luminance" maskUnits="userSpaceOnUse" x="76" y="55" width="477" height="356">
<path d="M552.957 55.2959H76.7969V410.112H552.957V55.2959Z" fill="white"/>
</mask>
<g mask="url(#mask3_230_11678)">
<path d="M306.148 410.111L312.018 409.953L319.565 409.341L321.242 409.012L323.757 408.149L331.304 405.137L332.981 404.264L334.658 403.018L336.335 401.196L338.012 398.548L339.689 394.685L341.366 389.538L343.043 383.197L344.72 375.259L348.074 357.655L349.751 351.417L350.59 349.109L351.428 347.299L352.267 346.149L353.105 345.903L353.944 346.637L354.782 348.142L357.298 353.657L358.136 354.93L358.975 355.54L359.814 355.294L360.652 354.137L361.491 352.191L362.329 349.644L364.006 343.012L365.683 333.681L367.36 321.635L369.037 307.518L370.714 290.966L376.584 226.878L377.422 220.176L378.261 215.466L379.099 213.05L379.938 212.94L380.776 215.051L381.615 219.425L382.454 226.243L383.292 235.6L384.969 260.501L388.323 314.602L390 337.32L391.677 356.838L393.354 373.456L395.031 386.158L395.87 390.742L396.708 394.29L397.547 397.061L399.224 401.205L400.901 404.238L402.578 406.279L404.255 407.52L405.932 408.285L407.609 408.692L410.963 409.012L415.156 409.351L419.348 409.846L427.733 410.019L456.243 410.085L473.013 410.111" fill="#EFEFEF" fill-opacity="0.4"/>
<path d="M306.148 410.111L312.018 409.953L319.565 409.341L321.242 409.012L323.757 408.149L331.304 405.137L332.981 404.264L334.658 403.018L336.335 401.196L338.012 398.548L339.689 394.685L341.366 389.538L343.043 383.197L344.72 375.259L348.074 357.655L349.751 351.417L350.59 349.109L351.428 347.299L352.267 346.149L353.105 345.903L353.944 346.637L354.782 348.142L357.298 353.657L358.136 354.93L358.975 355.54L359.814 355.294L360.652 354.137L361.491 352.191L362.329 349.644L364.006 343.012L365.683 333.681L367.36 321.635L369.037 307.518L370.714 290.966L376.584 226.878L377.422 220.176L378.261 215.466L379.099 213.05L379.938 212.94L380.776 215.051L381.615 219.425L382.454 226.243L383.292 235.6L384.969 260.501L388.323 314.602L390 337.32L391.677 356.838L393.354 373.456L395.031 386.158L395.87 390.742L396.708 394.29L397.547 397.061L399.224 401.205L400.901 404.238L402.578 406.279L404.255 407.52L405.932 408.285L407.609 408.692L410.963 409.012L415.156 409.351L419.348 409.846L427.733 410.019L456.243 410.085L473.013 410.111" stroke="#EFEFEF" stroke-linecap="square"/>
</g>
<mask id="mask4_230_11678" style="mask-type:luminance" maskUnits="userSpaceOnUse" x="76" y="55" width="477" height="356">
<path d="M552.957 55.2959H76.7969V410.112H552.957V55.2959Z" fill="white"/>
</mask>
<g mask="url(#mask4_230_11678)">
<path d="M289.32 410.111L294.238 409.961L296.205 409.636L298.171 408.993L300.138 407.98L302.105 406.551L304.072 404.489L305.056 403.111L307.023 399.573L308.99 395.178L316.857 376.118L318.824 372.052L319.808 370.382L320.791 369.031L322.758 367.05L323.741 366.107L324.725 364.936L325.708 363.422L330.626 354.356L332.593 351.031L333.576 348.795L335.543 342.88L343.411 315.815L347.345 304.249L349.312 299.722L350.295 298.049L351.278 296.693L352.262 295.592L353.245 294.786L354.229 294.431L355.212 294.71L356.196 295.72L357.179 297.408L359.146 302.086L362.096 310.288L364.063 316.758L366.03 324.424L368.981 337.217L373.898 360.21L375.865 367.433L377.832 373.664L380.782 381.874L382.749 386.573L384.716 390.491L390.617 400.474L392.584 403.315L393.567 404.316L395.534 405.615L398.485 406.908L401.435 407.918L404.385 408.674L408.319 409.286L413.237 409.721L423.071 410.023L447.658 410.101L465.36 410.111L485.029 410.111" fill="#EFEFEF" fill-opacity="0.4"/>
<path d="M289.32 410.111L294.238 409.961L296.205 409.636L298.171 408.993L300.138 407.98L302.105 406.551L304.072 404.489L305.056 403.111L307.023 399.573L308.99 395.178L316.857 376.118L318.824 372.052L319.808 370.382L320.791 369.031L322.758 367.05L323.741 366.107L324.725 364.936L325.708 363.422L330.626 354.356L332.593 351.031L333.576 348.795L335.543 342.88L343.411 315.815L347.345 304.249L349.312 299.722L350.295 298.049L351.278 296.693L352.262 295.592L353.245 294.786L354.229 294.431L355.212 294.71L356.196 295.72L357.179 297.408L359.146 302.086L362.096 310.288L364.063 316.758L366.03 324.424L368.981 337.217L373.898 360.21L375.865 367.433L377.832 373.664L380.782 381.874L382.749 386.573L384.716 390.491L390.617 400.474L392.584 403.315L393.567 404.316L395.534 405.615L398.485 406.908L401.435 407.918L404.385 408.674L408.319 409.286L413.237 409.721L423.071 410.023L447.658 410.101L465.36 410.111L485.029 410.111" stroke="#EFEFEF" stroke-linecap="square"/>
</g>
<mask id="mask5_230_11678" style="mask-type:luminance" maskUnits="userSpaceOnUse" x="76" y="55" width="477" height="356">
<path d="M552.957 55.2959H76.7969V410.112H552.957V55.2959Z" fill="white"/>
</mask>
<g mask="url(#mask5_230_11678)">
<path d="M309.906 410.11L317.084 409.843L320.274 409.249L321.869 408.879L324.262 408.918L325.059 408.71L325.857 408.702L327.452 409.053L329.047 408.817L330.642 408.287L332.237 407.67L333.035 407.657L333.832 407.847L334.63 407.834L335.427 407.08L337.022 404.518L338.617 403.365L339.415 401.939L341.807 396.135L342.605 393.589L343.403 390.325L344.2 386.002L344.998 380.169L345.795 371.902L346.593 360.215L348.985 313.948L349.783 297.558L350.58 276.965L352.175 219.556L354.568 132.396L355.366 106.976L356.163 87.0387L356.961 75.5357L357.758 72.1924L358.556 75.4602L359.353 84.2634L360.151 98.1038L361.746 136.92L364.138 203.786L366.531 276.23L368.126 310.666L370.519 349.41L371.316 360.435L372.114 369.191L372.911 375.567L374.506 384.203L376.899 395.171L378.494 400.284L380.887 405.356L381.684 406.758L382.482 407.657L383.279 408.075L384.874 408.476L387.267 409.34L391.254 409.575L404.015 409.862L407.205 409.77L408.8 409.407L409.598 409.475L411.99 410.02L416.775 410.028L418.37 409.922L423.156 410.042L427.941 409.861L429.536 410.077L432.726 410.092L435.916 410.064L438.309 410.033L447.879 409.911L451.867 410.081L459.842 410.112L468.615 410.111" fill="#EFEFEF" fill-opacity="0.4"/>
<path d="M309.906 410.11L317.084 409.843L320.274 409.249L321.869 408.879L324.262 408.918L325.059 408.71L325.857 408.702L327.452 409.053L329.047 408.817L330.642 408.287L332.237 407.67L333.035 407.657L333.832 407.847L334.63 407.834L335.427 407.08L337.022 404.518L338.617 403.365L339.415 401.939L341.807 396.135L342.605 393.589L343.403 390.325L344.2 386.002L344.998 380.169L345.795 371.902L346.593 360.215L348.985 313.948L349.783 297.558L350.58 276.965L352.175 219.556L354.568 132.396L355.366 106.976L356.163 87.0387L356.961 75.5357L357.758 72.1924L358.556 75.4602L359.353 84.2634L360.151 98.1038L361.746 136.92L364.138 203.786L366.531 276.23L368.126 310.666L370.519 349.41L371.316 360.435L372.114 369.191L372.911 375.567L374.506 384.203L376.899 395.171L378.494 400.284L380.887 405.356L381.684 406.758L382.482 407.657L383.279 408.075L384.874 408.476L387.267 409.34L391.254 409.575L404.015 409.862L407.205 409.77L408.8 409.407L409.598 409.475L411.99 410.02L416.775 410.028L418.37 409.922L423.156 410.042L427.941 409.861L429.536 410.077L432.726 410.092L435.916 410.064L438.309 410.033L447.879 409.911L451.867 410.081L459.842 410.112L468.615 410.111" stroke="#EFEFEF" stroke-linecap="square"/>
</g>
<mask id="mask6_230_11678" style="mask-type:luminance" maskUnits="userSpaceOnUse" x="76" y="55" width="477" height="356">
<path d="M552.957 55.2959H76.7969V410.112H552.957V55.2959Z" fill="white"/>
</mask>
<g mask="url(#mask6_230_11678)">
<path d="M295.805 410.111L302.168 409.977L303.986 409.729L305.804 409.201L307.622 408.35L309.44 407.124L310.349 406.282L311.258 405.218L312.167 403.892L313.076 402.275L313.985 400.324L314.894 397.963L315.803 395.088L316.712 391.605L318.53 382.655L320.348 371.01L322.166 356.835L324.893 335.159L325.802 329.287L326.711 324.425L328.529 317.198L331.257 308.428L332.166 305.831L333.075 303.742L333.984 302.277L334.893 301.363L337.62 299.608L338.529 298.533L339.438 296.964L341.256 292.64L343.074 287.962L343.983 285.944L344.892 284.368L345.801 283.415L346.71 283.234L347.619 283.894L348.528 285.33L350.346 289.587L353.073 296.634L354.891 302.77L357.618 314.326L360.345 327.031L367.617 363.131L369.435 370.172L371.254 375.76L373.072 379.884L374.89 382.763L377.617 386.678L383.071 394.859L384.889 396.973L387.616 399.467L394.888 405.225L398.524 407.256L400.342 408.032L402.16 408.465L410.341 409.19L413.978 409.395L419.432 410L423.977 409.95L429.431 410.003L435.794 410.076L443.066 410.036L465.792 410.101L476.7 410.111" fill="#EFEFEF" fill-opacity="0.4"/>
<path d="M295.805 410.111L302.168 409.977L303.986 409.729L305.804 409.201L307.622 408.35L309.44 407.124L310.349 406.282L311.258 405.218L312.167 403.892L313.076 402.275L313.985 400.324L314.894 397.963L315.803 395.088L316.712 391.605L318.53 382.655L320.348 371.01L322.166 356.835L324.893 335.159L325.802 329.287L326.711 324.425L328.529 317.198L331.257 308.428L332.166 305.831L333.075 303.742L333.984 302.277L334.893 301.363L337.62 299.608L338.529 298.533L339.438 296.964L341.256 292.64L343.074 287.962L343.983 285.944L344.892 284.368L345.801 283.415L346.71 283.234L347.619 283.894L348.528 285.33L350.346 289.587L353.073 296.634L354.891 302.77L357.618 314.326L360.345 327.031L367.617 363.131L369.435 370.172L371.254 375.76L373.072 379.884L374.89 382.763L377.617 386.678L383.071 394.859L384.889 396.973L387.616 399.467L394.888 405.225L398.524 407.256L400.342 408.032L402.16 408.465L410.341 409.19L413.978 409.395L419.432 410L423.977 409.95L429.431 410.003L435.794 410.076L443.066 410.036L465.792 410.101L476.7 410.111" stroke="#EFEFEF" stroke-linecap="square"/>
</g>
<mask id="mask7_230_11678" style="mask-type:luminance" maskUnits="userSpaceOnUse" x="76" y="55" width="477" height="356">
<path d="M552.957 55.2959H76.7969V410.112H552.957V55.2959Z" fill="white"/>
</mask>
<g mask="url(#mask7_230_11678)">
<path d="M290.398 410.112L299.345 409.985L301.581 409.745L302.699 409.472L303.818 409.041L304.936 408.409L306.054 407.524L307.172 406.317L308.291 404.694L309.409 402.536L310.527 399.697L311.645 396.015L312.764 391.322L313.882 385.452L315 378.25L316.118 369.586L317.237 359.366L319.473 334.192L321.71 303.587L323.946 271.635L325.064 257.888L326.183 247.301L327.301 240.492L328.419 237.305L329.537 237.088L330.656 239.059L331.774 242.54L332.892 247.124L334.01 252.721L336.247 266.726L339.602 289.131L345.193 323.399L347.43 334.406L350.784 348.273L353.021 356.868L355.257 364.015L357.494 369.738L359.73 374.027L361.967 378.05L364.203 382.646L365.322 384.623L366.44 386.195L368.677 388.546L373.15 392.506L375.386 393.841L377.623 395.186L380.977 397.847L385.45 400.811L387.687 402.476L389.923 403.721L394.396 405.467L396.633 406.562L398.869 407.309L402.224 407.976L411.17 409.136L414.525 409.362L417.88 409.629L441.363 409.981L454.782 410.035L461.492 410.106L483.857 410.082L495.04 410.083L510.695 410.107L512.932 410.112" fill="#EFEFEF" fill-opacity="0.4"/>
<path d="M290.398 410.112L299.345 409.985L301.581 409.745L302.699 409.472L303.818 409.041L304.936 408.409L306.054 407.524L307.172 406.317L308.291 404.694L309.409 402.536L310.527 399.697L311.645 396.015L312.764 391.322L313.882 385.452L315 378.25L316.118 369.586L317.237 359.366L319.473 334.192L321.71 303.587L323.946 271.635L325.064 257.888L326.183 247.301L327.301 240.492L328.419 237.305L329.537 237.088L330.656 239.059L331.774 242.54L332.892 247.124L334.01 252.721L336.247 266.726L339.602 289.131L345.193 323.399L347.43 334.406L350.784 348.273L353.021 356.868L355.257 364.015L357.494 369.738L359.73 374.027L361.967 378.05L364.203 382.646L365.322 384.623L366.44 386.195L368.677 388.546L373.15 392.506L375.386 393.841L377.623 395.186L380.977 397.847L385.45 400.811L387.687 402.476L389.923 403.721L394.396 405.467L396.633 406.562L398.869 407.309L402.224 407.976L411.17 409.136L414.525 409.362L417.88 409.629L441.363 409.981L454.782 410.035L461.492 410.106L483.857 410.082L495.04 410.083L510.695 410.107L512.932 410.112" stroke="#EFEFEF" stroke-linecap="square"/>
</g>
<mask id="mask8_230_11678" style="mask-type:luminance" maskUnits="userSpaceOnUse" x="76" y="55" width="477" height="356">
<path d="M552.957 55.2959H76.7969V410.112H552.957V55.2959Z" fill="white"/>
</mask>
<g mask="url(#mask8_230_11678)">
<path d="M297.008 410.111L303.234 409.967L305.309 409.756L307.385 409.199L308.422 408.661L309.46 407.896L310.497 406.869L311.535 405.546L312.573 403.911L314.648 399.742L315.686 397.136L316.724 393.968L317.761 389.974L318.799 384.904L319.837 378.626L321.912 363.124L323.987 347.185L326.063 333.399L329.176 314.333L331.251 303.12L333.326 293.731L334.364 289.938L335.402 286.979L336.439 284.982L337.477 283.878L338.515 283.381L340.59 283.1L341.628 283.25L342.665 283.703L343.703 284.419L344.741 285.331L345.778 286.548L346.816 288.345L347.854 290.897L349.929 297.482L354.08 311.505L359.268 332.436L366.532 354.542L371.72 373.44L373.795 379.406L375.871 384.648L377.946 389.237L380.021 393.192L382.097 396.49L384.172 399.226L386.247 401.563L388.323 403.314L393.511 406.872L395.586 407.815L398.699 408.821L400.775 409.221L403.888 409.492L412.189 409.665L416.34 409.77L420.49 409.901L436.055 409.996L440.206 410.079L450.583 410.032L467.185 410.097L482.75 410.066L503.504 410.111" fill="#EFEFEF" fill-opacity="0.4"/>
<path d="M297.008 410.111L303.234 409.967L305.309 409.756L307.385 409.199L308.422 408.661L309.46 407.896L310.497 406.869L311.535 405.546L312.573 403.911L314.648 399.742L315.686 397.136L316.724 393.968L317.761 389.974L318.799 384.904L319.837 378.626L321.912 363.124L323.987 347.185L326.063 333.399L329.176 314.333L331.251 303.12L333.326 293.731L334.364 289.938L335.402 286.979L336.439 284.982L337.477 283.878L338.515 283.381L340.59 283.1L341.628 283.25L342.665 283.703L343.703 284.419L344.741 285.331L345.778 286.548L346.816 288.345L347.854 290.897L349.929 297.482L354.08 311.505L359.268 332.436L366.532 354.542L371.72 373.44L373.795 379.406L375.871 384.648L377.946 389.237L380.021 393.192L382.097 396.49L384.172 399.226L386.247 401.563L388.323 403.314L393.511 406.872L395.586 407.815L398.699 408.821L400.775 409.221L403.888 409.492L412.189 409.665L416.34 409.77L420.49 409.901L436.055 409.996L440.206 410.079L450.583 410.032L467.185 410.097L482.75 410.066L503.504 410.111" stroke="#EFEFEF" stroke-linecap="square"/>
</g>
<mask id="mask9_230_11678" style="mask-type:luminance" maskUnits="userSpaceOnUse" x="76" y="55" width="477" height="356">
<path d="M552.957 55.2959H76.7969V410.112H552.957V55.2959Z" fill="white"/>
</mask>
<g mask="url(#mask9_230_11678)">
<path d="M310.461 410.111L313.555 410.002L317.68 409.749L319.743 409.818L320.774 409.531L322.836 408.591L323.868 408.474L325.93 408.696L327.993 408.533L330.055 407.595L331.087 407.142L332.118 406.446L335.212 402.99L336.243 402.061L337.274 400.59L338.306 398.251L339.337 395.095L341.399 387.318L342.431 382.922L343.462 376.953L346.556 355.66L347.587 346.753L349.65 322.901L350.681 309.416L352.744 277.202L357.9 188.366L358.931 173.002L359.963 161.985L360.994 155.664L362.025 154.253L363.056 157.867L364.088 165.566L365.119 175.725L366.15 188.86L368.213 224.081L370.275 267.781L371.307 289.96L373.369 323.31L375.432 354.374L376.463 366.721L377.494 377.228L378.526 386.147L379.557 393.197L380.588 398.235L381.62 401.52L382.651 403.557L383.682 404.916L385.745 406.811L388.839 408.781L389.87 409.174L391.932 409.208L393.995 409.269L397.089 409.722L400.183 409.747L402.245 409.96L405.339 409.912L411.527 409.778L414.621 410.098L418.746 410.027L421.84 409.864L424.934 409.947L426.996 409.928L430.09 410.104L451.747 410.098L465.154 410.112L515.687 410.111" fill="#EFEFEF" fill-opacity="0.4"/>
<path d="M310.461 410.111L313.555 410.002L317.68 409.749L319.743 409.818L320.774 409.531L322.836 408.591L323.868 408.474L325.93 408.696L327.993 408.533L330.055 407.595L331.087 407.142L332.118 406.446L335.212 402.99L336.243 402.061L337.274 400.59L338.306 398.251L339.337 395.095L341.399 387.318L342.431 382.922L343.462 376.953L346.556 355.66L347.587 346.753L349.65 322.901L350.681 309.416L352.744 277.202L357.9 188.366L358.931 173.002L359.963 161.985L360.994 155.664L362.025 154.253L363.056 157.867L364.088 165.566L365.119 175.725L366.15 188.86L368.213 224.081L370.275 267.781L371.307 289.96L373.369 323.31L375.432 354.374L376.463 366.721L377.494 377.228L378.526 386.147L379.557 393.197L380.588 398.235L381.62 401.52L382.651 403.557L383.682 404.916L385.745 406.811L388.839 408.781L389.87 409.174L391.932 409.208L393.995 409.269L397.089 409.722L400.183 409.747L402.245 409.96L405.339 409.912L411.527 409.778L414.621 410.098L418.746 410.027L421.84 409.864L424.934 409.947L426.996 409.928L430.09 410.104L451.747 410.098L465.154 410.112L515.687 410.111" stroke="#EFEFEF" stroke-linecap="square"/>
</g>
<mask id="mask10_230_11678" style="mask-type:luminance" maskUnits="userSpaceOnUse" x="76" y="55" width="477" height="356">
<path d="M552.957 55.2959H76.7969V410.112H552.957V55.2959Z" fill="white"/>
</mask>
<g mask="url(#mask10_230_11678)">
<path d="M292.609 410.112L300.328 409.955L307.082 409.581L309.011 409.235L310.941 408.581L313.836 407.108L316.73 405.414L318.66 403.898L319.624 402.861L320.589 401.576L322.519 398.296L324.449 394.324L326.378 389.613L328.308 383.646L330.238 376.088L333.132 362.644L337.956 339.016L341.815 319.153L343.745 310.873L345.675 303.816L348.569 293.897L352.429 279.205L353.393 276.633L354.358 275.278L355.323 275.283L356.288 276.476L358.217 280.561L361.112 286.89L363.042 292.307L364.971 298.838L366.901 307.066L371.725 330.348L375.584 347.25L380.408 370.204L382.338 377.486L383.303 380.23L385.233 384.457L387.162 388.544L390.057 395.393L391.022 397.239L392.951 399.968L394.881 402.001L398.74 405.424L400.67 406.906L402.599 407.909L404.529 408.486L410.318 409.629L412.248 409.754L422.861 409.769L427.685 410.029L434.439 410.036L442.157 410.053L477.856 410.065L484.61 410.112" fill="#EFEFEF" fill-opacity="0.4"/>
<path d="M292.609 410.112L300.328 409.955L307.082 409.581L309.011 409.235L310.941 408.581L313.836 407.108L316.73 405.414L318.66 403.898L319.624 402.861L320.589 401.576L322.519 398.296L324.449 394.324L326.378 389.613L328.308 383.646L330.238 376.088L333.132 362.644L337.956 339.016L341.815 319.153L343.745 310.873L345.675 303.816L348.569 293.897L352.429 279.205L353.393 276.633L354.358 275.278L355.323 275.283L356.288 276.476L358.217 280.561L361.112 286.89L363.042 292.307L364.971 298.838L366.901 307.066L371.725 330.348L375.584 347.25L380.408 370.204L382.338 377.486L383.303 380.23L385.233 384.457L387.162 388.544L390.057 395.393L391.022 397.239L392.951 399.968L394.881 402.001L398.74 405.424L400.67 406.906L402.599 407.909L404.529 408.486L410.318 409.629L412.248 409.754L422.861 409.769L427.685 410.029L434.439 410.036L442.157 410.053L477.856 410.065L484.61 410.112" stroke="#EFEFEF" stroke-linecap="square"/>
</g>
<mask id="mask11_230_11678" style="mask-type:luminance" maskUnits="userSpaceOnUse" x="76" y="55" width="477" height="356">
<path d="M552.957 55.2959H76.7969V410.112H552.957V55.2959Z" fill="white"/>
</mask>
<g mask="url(#mask11_230_11678)">
<path d="M288.188 410.111L295.178 409.991L298.174 409.757L300.172 409.273L302.169 408.39L303.168 407.77L304.166 406.938L305.165 405.781L306.164 404.208L307.163 402.179L308.161 399.667L309.16 396.624L310.159 392.988L312.156 383.983L314.153 373.011L316.151 359.878L319.147 337.29L323.142 305.056L324.14 298.884L326.138 288.97L328.135 280.903L330.132 274.887L332.13 270.301L333.128 268.414L334.127 267.043L335.126 266.386L336.124 266.464L337.123 267.267L338.122 268.937L339.121 271.662L341.118 279.636L343.115 287.637L346.111 298.319L347.11 303.029L349.107 315.264L351.105 327.702L352.103 332.344L356.098 347.17L360.093 365.32L362.09 372.48L364.088 378.834L366.085 384.166L369.081 390.553L372.077 396.265L374.075 399.39L376.072 401.964L377.071 402.964L378.069 403.725L380.067 404.734L382.064 405.738L385.06 407.517L387.058 408.269L390.054 409.035L392.051 409.326L395.047 409.359L398.043 409.351L407.031 409.885L426.006 409.937L438.989 409.879L441.985 409.926L445.98 410.083L470.947 410.065L485.928 410.11L486.926 410.111" fill="#EFEFEF" fill-opacity="0.4"/>
<path d="M288.188 410.111L295.178 409.991L298.174 409.757L300.172 409.273L302.169 408.39L303.168 407.77L304.166 406.938L305.165 405.781L306.164 404.208L307.163 402.179L308.161 399.667L309.16 396.624L310.159 392.988L312.156 383.983L314.153 373.011L316.151 359.878L319.147 337.29L323.142 305.056L324.14 298.884L326.138 288.97L328.135 280.903L330.132 274.887L332.13 270.301L333.128 268.414L334.127 267.043L335.126 266.386L336.124 266.464L337.123 267.267L338.122 268.937L339.121 271.662L341.118 279.636L343.115 287.637L346.111 298.319L347.11 303.029L349.107 315.264L351.105 327.702L352.103 332.344L356.098 347.17L360.093 365.32L362.09 372.48L364.088 378.834L366.085 384.166L369.081 390.553L372.077 396.265L374.075 399.39L376.072 401.964L377.071 402.964L378.069 403.725L380.067 404.734L382.064 405.738L385.06 407.517L387.058 408.269L390.054 409.035L392.051 409.326L395.047 409.359L398.043 409.351L407.031 409.885L426.006 409.937L438.989 409.879L441.985 409.926L445.98 410.083L470.947 410.065L485.928 410.11L486.926 410.111" stroke="#EFEFEF" stroke-linecap="square"/>
</g>
<mask id="mask12_230_11678" style="mask-type:luminance" maskUnits="userSpaceOnUse" x="76" y="55" width="477" height="356">
<path d="M552.957 55.2959H76.7969V410.112H552.957V55.2959Z" fill="white"/>
</mask>
<g mask="url(#mask12_230_11678)">
<path d="M300.102 410.111L318.998 409.897L319.942 409.608L321.832 408.308L322.777 408.084L324.666 408.359L326.556 407.982L327.501 407.736L329.39 407.738L330.335 407.385L331.28 406.282L333.169 402.678L335.059 398.776L336.004 395.879L336.949 391.482L337.893 385.25L338.838 377.306L339.783 368.026L340.728 357.108L342.617 328.194L343.562 310.402L345.452 265.725L351.121 102.549L352.065 83.493L353.01 76.1992L353.955 80.9602L354.9 93.0482L355.845 111.045L356.789 137.01L360.569 260.305L362.458 309.683L363.403 327.917L365.293 356.95L366.237 367.652L368.127 383.663L369.072 389.78L370.017 393.951L370.961 396.934L371.906 399.286L373.796 402.722L374.741 403.937L375.685 404.439L376.63 404.4L377.575 404.748L379.465 406.897L380.409 407.263L381.354 407.115L382.299 407.154L383.244 407.411L385.133 407.498L387.968 408.615L392.692 409.264L394.581 409.451L396.471 409.71L410.643 409.885L412.533 410.003L414.422 409.965L417.257 410.053L419.146 409.927L421.981 410.036L424.815 410.092L427.649 410.002L429.539 409.962L432.373 410.111L439.932 409.982L441.821 409.924L447.49 410.035L449.38 409.903L457.883 410.112L488.116 410.111" fill="#EFEFEF" fill-opacity="0.4"/>
<path d="M300.102 410.111L318.998 409.897L319.942 409.608L321.832 408.308L322.777 408.084L324.666 408.359L326.556 407.982L327.501 407.736L329.39 407.738L330.335 407.385L331.28 406.282L333.169 402.678L335.059 398.776L336.004 395.879L336.949 391.482L337.893 385.25L338.838 377.306L339.783 368.026L340.728 357.108L342.617 328.194L343.562 310.402L345.452 265.725L351.121 102.549L352.065 83.493L353.01 76.1992L353.955 80.9602L354.9 93.0482L355.845 111.045L356.789 137.01L360.569 260.305L362.458 309.683L363.403 327.917L365.293 356.95L366.237 367.652L368.127 383.663L369.072 389.78L370.017 393.951L370.961 396.934L371.906 399.286L373.796 402.722L374.741 403.937L375.685 404.439L376.63 404.4L377.575 404.748L379.465 406.897L380.409 407.263L381.354 407.115L382.299 407.154L383.244 407.411L385.133 407.498L387.968 408.615L392.692 409.264L394.581 409.451L396.471 409.71L410.643 409.885L412.533 410.003L414.422 409.965L417.257 410.053L419.146 409.927L421.981 410.036L424.815 410.092L427.649 410.002L429.539 409.962L432.373 410.111L439.932 409.982L441.821 409.924L447.49 410.035L449.38 409.903L457.883 410.112L488.116 410.111" stroke="#EFEFEF" stroke-linecap="square"/>
</g>
<mask id="mask13_230_11678" style="mask-type:luminance" maskUnits="userSpaceOnUse" x="76" y="55" width="477" height="356">
<path d="M552.957 55.2959H76.7969V410.112H552.957V55.2959Z" fill="white"/>
</mask>
<g mask="url(#mask13_230_11678)">
<path d="M304.617 410.111L316.553 409.941L320.532 409.724L323.516 409.688L328.489 409.528L336.446 408.614L338.436 407.662L340.425 406.238L341.419 405.153L342.414 403.526L343.409 401.188L345.398 394.801L346.393 390.955L347.387 386.221L348.382 380.006L349.377 372.117L350.371 362.672L352.361 339.296L358.329 259.659L361.313 228.195L362.307 219.219L363.302 212.282L364.297 208.121L365.291 207.377L366.286 210.046L367.281 215.267L368.275 222.156L371.259 247.215L373.249 266.162L375.238 285.319L382.2 342.94L384.19 354.97L387.174 369.39L389.163 377.836L390.158 381.415L391.152 384.164L392.147 385.957L393.142 387.211L394.136 388.719L395.131 390.966L397.12 396.079L398.115 397.969L400.104 400.884L402.094 403.317L403.088 404.219L408.062 407.431L409.056 407.905L411.046 408.232L414.029 408.562L419.003 409.336L421.987 409.389L427.955 409.917L430.939 410.014L438.896 410.062L445.859 410.02L450.832 409.99L459.784 410.112L502.554 410.111" fill="#EFEFEF" fill-opacity="0.4"/>
<path d="M304.617 410.111L316.553 409.941L320.532 409.724L323.516 409.688L328.489 409.528L336.446 408.614L338.436 407.662L340.425 406.238L341.419 405.153L342.414 403.526L343.409 401.188L345.398 394.801L346.393 390.955L347.387 386.221L348.382 380.006L349.377 372.117L350.371 362.672L352.361 339.296L358.329 259.659L361.313 228.195L362.307 219.219L363.302 212.282L364.297 208.121L365.291 207.377L366.286 210.046L367.281 215.267L368.275 222.156L371.259 247.215L373.249 266.162L375.238 285.319L382.2 342.94L384.19 354.97L387.174 369.39L389.163 377.836L390.158 381.415L391.152 384.164L392.147 385.957L393.142 387.211L394.136 388.719L395.131 390.966L397.12 396.079L398.115 397.969L400.104 400.884L402.094 403.317L403.088 404.219L408.062 407.431L409.056 407.905L411.046 408.232L414.029 408.562L419.003 409.336L421.987 409.389L427.955 409.917L430.939 410.014L438.896 410.062L445.859 410.02L450.832 409.99L459.784 410.112L502.554 410.111" stroke="#EFEFEF" stroke-linecap="square"/>
</g>
<mask id="mask14_230_11678" style="mask-type:luminance" maskUnits="userSpaceOnUse" x="76" y="55" width="477" height="356">
<path d="M552.957 55.2959H76.7969V410.112H552.957V55.2959Z" fill="white"/>
</mask>
<g mask="url(#mask14_230_11678)">
<path d="M98.4375 410.112L152.289 410.112L281.533 410.036L285.841 409.685L287.995 409.315L290.149 408.752L292.303 407.874L294.457 406.543L296.611 404.634L298.765 402.174L300.919 398.669L303.074 393.399L305.228 387.398L307.382 380.945L309.536 371.827L311.69 360.1L313.844 346.43L318.152 312.916L320.306 295.67L322.46 281.436L324.614 271.76L326.768 265.336L328.922 262.941L331.076 264.085L333.23 267.117L335.384 274.455L350.463 353.892L352.617 363.443L354.771 371.066L356.925 377.332L359.079 382.4L363.387 390.822L365.541 394.192L372.004 402.05L374.158 403.756L376.312 404.633L384.928 407.32L387.082 407.656L391.39 408.682L397.852 409.473L404.314 409.829L458.166 410.104L473.245 410.071L527.096 410.112" fill="#7EB0D5" fill-opacity="0.4"/>
<path d="M98.4375 410.112L152.289 410.112L281.533 410.036L285.841 409.685L287.995 409.315L290.149 408.752L292.303 407.874L294.457 406.543L296.611 404.634L298.765 402.174L300.919 398.669L303.074 393.399L305.228 387.398L307.382 380.945L309.536 371.827L311.69 360.1L313.844 346.43L318.152 312.916L320.306 295.67L322.46 281.436L324.614 271.76L326.768 265.336L328.922 262.941L331.076 264.085L333.23 267.117L335.384 274.455L350.463 353.892L352.617 363.443L354.771 371.066L356.925 377.332L359.079 382.4L363.387 390.822L365.541 394.192L372.004 402.05L374.158 403.756L376.312 404.633L384.928 407.32L387.082 407.656L391.39 408.682L397.852 409.473L404.314 409.829L458.166 410.104L473.245 410.071L527.096 410.112" stroke="#7EB0D5" stroke-linecap="square"/>
</g>
<path d="M535.061 411.061C535.646 410.475 535.646 409.525 535.061 408.939L525.515 399.393C524.929 398.808 523.979 398.808 523.393 399.393C522.808 399.979 522.808 400.929 523.393 401.515L531.879 410L523.393 418.485C522.808 419.071 522.808 420.021 523.393 420.607C523.979 421.192 524.929 421.192 525.515 420.607L535.061 411.061ZM79 411.5H534V408.5H79V411.5Z" fill="black"/>
</g>
<defs>
<clipPath id="clip0_230_11678">
<rect width="614.4" height="460.8" fill="white"/>
</clipPath>
</defs>
</svg>
