<svg width="615" height="461" viewBox="0 0 615 461" fill="none" xmlns="http://www.w3.org/2000/svg">
<g clip-path="url(#clip0_230_11598)">
<mask id="mask0_230_11598" style="mask-type:luminance" maskUnits="userSpaceOnUse" x="76" y="55" width="477" height="356">
<path d="M552.957 55.2959H76.7969V410.112H552.957V55.2959Z" fill="white"/>
</mask>
<g mask="url(#mask0_230_11598)">
<path d="M305.227 410.111L310.62 409.983L316.014 409.564L320.329 408.833L322.486 408.235L326.801 406.527L327.88 405.964L328.959 405.191L330.037 404.122L331.116 402.717L332.195 400.978L333.274 398.907L334.352 396.477L335.431 393.632L337.588 386.652L339.746 378.144L340.825 373.087L342.982 360.822L350.533 313.907L352.691 302.396L357.006 281.359L360.242 266.981L362.399 258.561L363.478 255.675L364.557 254.048L365.635 253.543L366.714 253.828L371.029 256.801L372.108 257.793L373.187 259.34L374.265 261.623L375.344 264.703L376.423 268.55L378.58 277.877L382.895 298.043L386.131 316.787L389.367 334.538L392.604 350.691L394.761 359.681L401.233 383.34L402.312 386.243L404.47 390.699L407.706 396.245L409.863 399.308L412.021 401.868L414.178 403.848L416.336 405.148L418.493 405.866L420.651 406.532L424.965 408.124L428.202 408.643L433.595 409.242L443.304 409.73L458.406 409.897L472.43 410.031L479.981 410.112L519.894 410.111" fill="#EFEFEF" fill-opacity="0.4"/>
<path d="M305.227 410.111L310.62 409.983L316.014 409.564L320.329 408.833L322.486 408.235L326.801 406.527L327.88 405.964L328.959 405.191L330.037 404.122L331.116 402.717L332.195 400.978L333.274 398.907L334.352 396.477L335.431 393.632L337.588 386.652L339.746 378.144L340.825 373.087L342.982 360.822L350.533 313.907L352.691 302.396L357.006 281.359L360.242 266.981L362.399 258.561L363.478 255.675L364.557 254.048L365.635 253.543L366.714 253.828L371.029 256.801L372.108 257.793L373.187 259.34L374.265 261.623L375.344 264.703L376.423 268.55L378.58 277.877L382.895 298.043L386.131 316.787L389.367 334.538L392.604 350.691L394.761 359.681L401.233 383.34L402.312 386.243L404.47 390.699L407.706 396.245L409.863 399.308L412.021 401.868L414.178 403.848L416.336 405.148L418.493 405.866L420.651 406.532L424.965 408.124L428.202 408.643L433.595 409.242L443.304 409.73L458.406 409.897L472.43 410.031L479.981 410.112L519.894 410.111" stroke="#EFEFEF" stroke-linecap="square"/>
</g>
<mask id="mask1_230_11598" style="mask-type:luminance" maskUnits="userSpaceOnUse" x="76" y="55" width="477" height="356">
<path d="M552.957 55.2959H76.7969V410.112H552.957V55.2959Z" fill="white"/>
</mask>
<g mask="url(#mask1_230_11598)">
<path d="M298.25 410.111L305.277 409.969L308.791 409.525L311.133 408.898L312.304 408.416L313.475 407.763L314.646 406.877L315.818 405.69L316.989 404.139L318.16 402.173L319.331 399.759L320.502 396.878L321.674 393.516L322.845 389.657L325.187 380.398L327.529 369.198L335.728 326.697L336.899 322.017L338.07 318.074L339.241 314.958L340.412 312.722L341.584 311.362L342.755 310.809L343.926 310.942L345.097 311.629L346.268 312.756L347.439 314.255L348.611 316.087L350.953 320.547L355.638 330.19L357.98 334.333L359.151 336.078L360.322 337.52L361.494 338.61L362.665 339.322L363.836 339.657L365.007 339.628L366.178 339.251L367.349 338.556L369.692 336.496L372.034 334.41L373.205 333.685L374.377 333.24L375.548 333.034L377.89 333.013L381.404 333.308L383.746 333.897L386.088 335.073L388.431 336.82L391.944 340.024L394.287 342.582L395.458 344.138L396.629 345.953L398.971 350.412L402.485 358.468L407.169 369.305L410.683 376.552L414.197 383.19L417.71 389.222L421.224 394.631L423.566 397.78L425.908 400.419L428.251 402.539L430.593 404.188L432.935 405.442L436.449 406.875L439.962 408.046L443.476 408.865L446.99 409.325L452.845 409.74L461.044 409.976L471.584 410.042L486.81 410.062L507.891 410.075L520.774 410.071L531.314 410.112" fill="#EFEFEF" fill-opacity="0.4"/>
<path d="M298.25 410.111L305.277 409.969L308.791 409.525L311.133 408.898L312.304 408.416L313.475 407.763L314.646 406.877L315.818 405.69L316.989 404.139L318.16 402.173L319.331 399.759L320.502 396.878L321.674 393.516L322.845 389.657L325.187 380.398L327.529 369.198L335.728 326.697L336.899 322.017L338.07 318.074L339.241 314.958L340.412 312.722L341.584 311.362L342.755 310.809L343.926 310.942L345.097 311.629L346.268 312.756L347.439 314.255L348.611 316.087L350.953 320.547L355.638 330.19L357.98 334.333L359.151 336.078L360.322 337.52L361.494 338.61L362.665 339.322L363.836 339.657L365.007 339.628L366.178 339.251L367.349 338.556L369.692 336.496L372.034 334.41L373.205 333.685L374.377 333.24L375.548 333.034L377.89 333.013L381.404 333.308L383.746 333.897L386.088 335.073L388.431 336.82L391.944 340.024L394.287 342.582L395.458 344.138L396.629 345.953L398.971 350.412L402.485 358.468L407.169 369.305L410.683 376.552L414.197 383.19L417.71 389.222L421.224 394.631L423.566 397.78L425.908 400.419L428.251 402.539L430.593 404.188L432.935 405.442L436.449 406.875L439.962 408.046L443.476 408.865L446.99 409.325L452.845 409.74L461.044 409.976L471.584 410.042L486.81 410.062L507.891 410.075L520.774 410.071L531.314 410.112" stroke="#EFEFEF" stroke-linecap="square"/>
</g>
<mask id="mask2_230_11598" style="mask-type:luminance" maskUnits="userSpaceOnUse" x="76" y="55" width="477" height="356">
<path d="M552.957 55.2959H76.7969V410.112H552.957V55.2959Z" fill="white"/>
</mask>
<g mask="url(#mask2_230_11598)">
<path d="M318.812 410.111L326.916 409.991L328.941 409.831L330.967 409.38L334.006 408.437L336.032 407.422L337.045 406.65L338.057 405.66L339.07 404.404L340.083 402.811L341.096 400.801L342.109 398.328L344.135 392.285L346.161 385.469L348.186 377.382L350.212 367.177L352.238 354.445L354.264 338.426L359.328 294.429L362.367 270.634L363.38 264.446L364.393 259.582L366.418 252.102L368.444 244.607L371.483 232.18L372.496 228.793L373.509 226.423L374.521 225.45L375.534 226.226L376.547 228.88L377.56 233.152L379.586 244.499L381.612 257.488L384.65 279.59L387.689 301.337L392.753 332.814L394.779 343.623L398.831 362.434L400.857 369.847L402.882 375.937L405.921 384.261L407.947 390.358L408.96 393.033L409.973 395.222L410.986 396.932L413.011 399.495L417.063 403.886L419.089 405.754L421.114 407.095L423.14 408.058L425.166 408.754L428.205 409.388L430.23 409.609L439.346 409.807L445.424 409.926L456.566 410.047L465.682 410.101L487.965 410.111L520.378 410.111" fill="#EFEFEF" fill-opacity="0.4"/>
<path d="M318.812 410.111L326.916 409.991L328.941 409.831L330.967 409.38L334.006 408.437L336.032 407.422L337.045 406.65L338.057 405.66L339.07 404.404L340.083 402.811L341.096 400.801L342.109 398.328L344.135 392.285L346.161 385.469L348.186 377.382L350.212 367.177L352.238 354.445L354.264 338.426L359.328 294.429L362.367 270.634L363.38 264.446L364.393 259.582L366.418 252.102L368.444 244.607L371.483 232.18L372.496 228.793L373.509 226.423L374.521 225.45L375.534 226.226L376.547 228.88L377.56 233.152L379.586 244.499L381.612 257.488L384.65 279.59L387.689 301.337L392.753 332.814L394.779 343.623L398.831 362.434L400.857 369.847L402.882 375.937L405.921 384.261L407.947 390.358L408.96 393.033L409.973 395.222L410.986 396.932L413.011 399.495L417.063 403.886L419.089 405.754L421.114 407.095L423.14 408.058L425.166 408.754L428.205 409.388L430.23 409.609L439.346 409.807L445.424 409.926L456.566 410.047L465.682 410.101L487.965 410.111L520.378 410.111" stroke="#EFEFEF" stroke-linecap="square"/>
</g>
<mask id="mask3_230_11598" style="mask-type:luminance" maskUnits="userSpaceOnUse" x="76" y="55" width="477" height="356">
<path d="M552.957 55.2959H76.7969V410.112H552.957V55.2959Z" fill="white"/>
</mask>
<g mask="url(#mask3_230_11598)">
<path d="M324.07 410.111L329.74 409.97L339.459 409.403L342.699 408.905L344.318 408.463L346.748 407.459L349.988 405.956L351.608 404.893L355.657 401.876L358.087 400.425L358.897 399.744L360.517 397.768L362.137 395.138L363.757 392.182L365.376 388.56L366.996 383.894L368.616 378.387L370.236 371.784L371.856 363.82L376.715 338.659L377.525 335.261L378.335 332.53L379.145 330.584L379.955 329.392L380.765 328.755L381.575 328.318L382.385 327.629L383.195 326.28L384.005 324.062L385.624 317.436L387.244 309.241L388.864 299.618L392.104 277.711L393.724 265.073L395.344 249.678L397.773 225.293L399.393 211.638L401.013 200.588L401.823 196.199L402.633 192.956L403.443 191.265L404.253 191.475L405.063 193.745L405.873 197.969L406.682 203.842L408.302 219.447L409.922 239.784L416.401 333L418.021 351.333L419.641 366.624L421.261 379.112L422.881 388.433L424.501 394.763L426.121 399.443L427.74 403.157L428.55 404.515L429.36 405.505L430.98 406.751L434.22 408.584L435.84 409.099L438.269 409.483L443.939 409.917L447.988 410.019L455.278 409.92L465.807 410.112L485.245 410.111" fill="#EFEFEF" fill-opacity="0.4"/>
<path d="M324.07 410.111L329.74 409.97L339.459 409.403L342.699 408.905L344.318 408.463L346.748 407.459L349.988 405.956L351.608 404.893L355.657 401.876L358.087 400.425L358.897 399.744L360.517 397.768L362.137 395.138L363.757 392.182L365.376 388.56L366.996 383.894L368.616 378.387L370.236 371.784L371.856 363.82L376.715 338.659L377.525 335.261L378.335 332.53L379.145 330.584L379.955 329.392L380.765 328.755L381.575 328.318L382.385 327.629L383.195 326.28L384.005 324.062L385.624 317.436L387.244 309.241L388.864 299.618L392.104 277.711L393.724 265.073L395.344 249.678L397.773 225.293L399.393 211.638L401.013 200.588L401.823 196.199L402.633 192.956L403.443 191.265L404.253 191.475L405.063 193.745L405.873 197.969L406.682 203.842L408.302 219.447L409.922 239.784L416.401 333L418.021 351.333L419.641 366.624L421.261 379.112L422.881 388.433L424.501 394.763L426.121 399.443L427.74 403.157L428.55 404.515L429.36 405.505L430.98 406.751L434.22 408.584L435.84 409.099L438.269 409.483L443.939 409.917L447.988 410.019L455.278 409.92L465.807 410.112L485.245 410.111" stroke="#EFEFEF" stroke-linecap="square"/>
</g>
<mask id="mask4_230_11598" style="mask-type:luminance" maskUnits="userSpaceOnUse" x="76" y="55" width="477" height="356">
<path d="M552.957 55.2959H76.7969V410.112H552.957V55.2959Z" fill="white"/>
</mask>
<g mask="url(#mask4_230_11598)">
<path d="M301.812 410.112L309.66 409.97L312.602 409.652L314.564 409.243L316.526 408.595L318.488 407.581L320.45 405.979L321.43 404.874L323.392 401.956L325.354 398.125L327.316 393.585L333.201 379.289L335.163 375.653L337.125 372.694L339.087 370.27L341.048 368.401L343.01 367.074L353.8 361.282L355.762 359.779L357.724 357.58L359.685 354.696L362.628 349.619L364.59 345.832L366.552 341.255L368.513 335.466L374.399 316.171L377.341 308.036L379.303 303.578L380.284 301.938L381.265 300.78L382.246 300.083L383.227 299.75L385.189 299.639L389.112 299.785L390.093 300.097L391.074 300.656L392.055 301.484L394.017 303.831L397.94 309.567L399.902 312.79L400.883 314.761L401.864 317.095L403.826 322.963L405.787 330.142L414.616 364.62L417.558 374.483L420.501 383.316L422.463 388.485L424.424 392.734L426.386 395.988L428.348 398.564L431.291 401.852L433.253 403.652L435.214 405.049L437.176 406.124L440.119 407.364L443.061 408.304L446.004 408.958L450.909 409.649L454.832 409.927L463.66 410.067L497.011 410.112" fill="#EFEFEF" fill-opacity="0.4"/>
<path d="M301.812 410.112L309.66 409.97L312.602 409.652L314.564 409.243L316.526 408.595L318.488 407.581L320.45 405.979L321.43 404.874L323.392 401.956L325.354 398.125L327.316 393.585L333.201 379.289L335.163 375.653L337.125 372.694L339.087 370.27L341.048 368.401L343.01 367.074L353.8 361.282L355.762 359.779L357.724 357.58L359.685 354.696L362.628 349.619L364.59 345.832L366.552 341.255L368.513 335.466L374.399 316.171L377.341 308.036L379.303 303.578L380.284 301.938L381.265 300.78L382.246 300.083L383.227 299.75L385.189 299.639L389.112 299.785L390.093 300.097L391.074 300.656L392.055 301.484L394.017 303.831L397.94 309.567L399.902 312.79L400.883 314.761L401.864 317.095L403.826 322.963L405.787 330.142L414.616 364.62L417.558 374.483L420.501 383.316L422.463 388.485L424.424 392.734L426.386 395.988L428.348 398.564L431.291 401.852L433.253 403.652L435.214 405.049L437.176 406.124L440.119 407.364L443.061 408.304L446.004 408.958L450.909 409.649L454.832 409.927L463.66 410.067L497.011 410.112" stroke="#EFEFEF" stroke-linecap="square"/>
</g>
<mask id="mask5_230_11598" style="mask-type:luminance" maskUnits="userSpaceOnUse" x="76" y="55" width="477" height="356">
<path d="M552.957 55.2959H76.7969V410.112H552.957V55.2959Z" fill="white"/>
</mask>
<g mask="url(#mask5_230_11598)">
<path d="M325.25 410.11L335.508 409.921L338.664 409.682L342.61 409.163L344.977 409.082L346.555 408.896L349.712 408.128L351.29 407.897L352.079 407.48L353.657 406.162L354.446 405.172L355.235 403.727L356.813 399.636L357.602 397.085L358.391 393.939L359.97 385.433L361.548 374.351L363.126 361.237L364.704 344.06L366.282 322.454L367.86 293.507L375.751 131.682L376.54 121.206L377.329 114.219L378.118 110.096L379.697 105.695L380.486 104.345L381.275 106.064L382.064 113.368L382.853 126.151L388.377 236.249L391.533 294.294L393.111 318.104L394.689 336.67L396.267 353.089L397.846 366.175L399.424 376.874L401.002 385.157L402.58 390.852L404.158 395.379L406.525 400.784L408.104 403.717L408.893 404.538L415.205 407.759L417.573 408.484L419.94 409.54L420.729 409.581L423.096 409.301L426.252 409.798L429.409 409.655L432.565 410.027L437.3 409.94L450.714 410.058L454.659 409.827L458.605 410.08L464.917 409.955L482.277 410.11" fill="#EFEFEF" fill-opacity="0.4"/>
<path d="M325.25 410.11L335.508 409.921L338.664 409.682L342.61 409.163L344.977 409.082L346.555 408.896L349.712 408.128L351.29 407.897L352.079 407.48L353.657 406.162L354.446 405.172L355.235 403.727L356.813 399.636L357.602 397.085L358.391 393.939L359.97 385.433L361.548 374.351L363.126 361.237L364.704 344.06L366.282 322.454L367.86 293.507L375.751 131.682L376.54 121.206L377.329 114.219L378.118 110.096L379.697 105.695L380.486 104.345L381.275 106.064L382.064 113.368L382.853 126.151L388.377 236.249L391.533 294.294L393.111 318.104L394.689 336.67L396.267 353.089L397.846 366.175L399.424 376.874L401.002 385.157L402.58 390.852L404.158 395.379L406.525 400.784L408.104 403.717L408.893 404.538L415.205 407.759L417.573 408.484L419.94 409.54L420.729 409.581L423.096 409.301L426.252 409.798L429.409 409.655L432.565 410.027L437.3 409.94L450.714 410.058L454.659 409.827L458.605 410.08L464.917 409.955L482.277 410.11" stroke="#EFEFEF" stroke-linecap="square"/>
</g>
<mask id="mask6_230_11598" style="mask-type:luminance" maskUnits="userSpaceOnUse" x="76" y="55" width="477" height="356">
<path d="M552.957 55.2959H76.7969V410.112H552.957V55.2959Z" fill="white"/>
</mask>
<g mask="url(#mask6_230_11598)">
<path d="M310.883 410.112L320.923 409.958L323.661 409.692L325.486 409.235L327.311 408.282L329.137 406.628L330.962 404.176L331.875 402.571L332.788 400.614L333.7 398.208L334.613 395.283L336.439 387.885L338.264 378.87L340.089 368.569L341.915 356.86L345.566 332.449L347.391 322.93L349.216 315.754L351.042 310.237L352.867 305.896L354.693 302.437L357.431 298.21L360.169 294.256L361.994 290.831L363.82 286.896L364.732 285.232L365.645 284.014L366.558 283.263L367.47 282.871L369.296 282.564L371.121 282.45L372.947 282.65L377.51 283.775L379.336 283.945L380.248 284.467L381.161 285.65L382.074 287.666L382.986 290.511L384.812 297.865L390.288 321.582L395.764 350.196L397.59 357.174L402.153 372.096L404.891 380.662L406.717 385.152L408.542 388.534L410.367 391.229L413.106 394.641L415.844 397.593L418.582 400.05L421.32 401.959L425.883 404.758L429.534 407.362L431.36 408.208L433.185 408.631L436.836 408.93L440.487 409.308L445.05 409.879L449.614 410.072L492.511 410.112" fill="#EFEFEF" fill-opacity="0.4"/>
<path d="M310.883 410.112L320.923 409.958L323.661 409.692L325.486 409.235L327.311 408.282L329.137 406.628L330.962 404.176L331.875 402.571L332.788 400.614L333.7 398.208L334.613 395.283L336.439 387.885L338.264 378.87L340.089 368.569L341.915 356.86L345.566 332.449L347.391 322.93L349.216 315.754L351.042 310.237L352.867 305.896L354.693 302.437L357.431 298.21L360.169 294.256L361.994 290.831L363.82 286.896L364.732 285.232L365.645 284.014L366.558 283.263L367.47 282.871L369.296 282.564L371.121 282.45L372.947 282.65L377.51 283.775L379.336 283.945L380.248 284.467L381.161 285.65L382.074 287.666L382.986 290.511L384.812 297.865L390.288 321.582L395.764 350.196L397.59 357.174L402.153 372.096L404.891 380.662L406.717 385.152L408.542 388.534L410.367 391.229L413.106 394.641L415.844 397.593L418.582 400.05L421.32 401.959L425.883 404.758L429.534 407.362L431.36 408.208L433.185 408.631L436.836 408.93L440.487 409.308L445.05 409.879L449.614 410.072L492.511 410.112" stroke="#EFEFEF" stroke-linecap="square"/>
</g>
<mask id="mask7_230_11598" style="mask-type:luminance" maskUnits="userSpaceOnUse" x="76" y="55" width="477" height="356">
<path d="M552.957 55.2959H76.7969V410.112H552.957V55.2959Z" fill="white"/>
</mask>
<g mask="url(#mask7_230_11598)">
<path d="M311.789 410.111L319.053 409.973L322.166 409.657L324.241 409.004L325.279 408.42L326.316 407.605L327.354 406.513L328.392 405.086L329.429 403.242L330.467 400.861L331.505 397.773L332.542 393.785L333.58 388.719L334.618 382.472L335.655 375.018L336.693 366.35L337.731 356.375L338.768 344.862L339.806 331.484L341.881 298.273L347.07 202.799L348.107 189.15L349.145 178.933L350.183 172.588L351.22 170.618L352.258 173.483L353.296 181.298L354.334 193.531L356.409 225.841L358.484 258.134L359.522 271.694L360.56 283.071L361.597 292.299L362.635 299.651L364.71 310.71L367.823 324.534L369.899 332.574L370.936 335.786L373.012 340.663L375.087 344.92L379.238 354.193L382.351 359.62L384.426 362.981L386.501 365.625L388.577 368.25L389.614 369.967L391.69 374.266L394.803 381.197L396.878 384.781L398.953 387.443L402.066 391.245L405.179 395.162L408.292 398.427L410.368 400.295L412.443 401.716L415.556 403.223L421.782 405.951L430.083 408.377L436.309 409.319L439.422 409.711L442.535 409.696L447.724 409.631L459.138 409.861L465.364 409.919L472.628 410.103L499.607 410.066L511.022 410.059L518.285 410.112" fill="#EFEFEF" fill-opacity="0.4"/>
<path d="M311.789 410.111L319.053 409.973L322.166 409.657L324.241 409.004L325.279 408.42L326.316 407.605L327.354 406.513L328.392 405.086L329.429 403.242L330.467 400.861L331.505 397.773L332.542 393.785L333.58 388.719L334.618 382.472L335.655 375.018L336.693 366.35L337.731 356.375L338.768 344.862L339.806 331.484L341.881 298.273L347.07 202.799L348.107 189.15L349.145 178.933L350.183 172.588L351.22 170.618L352.258 173.483L353.296 181.298L354.334 193.531L356.409 225.841L358.484 258.134L359.522 271.694L360.56 283.071L361.597 292.299L362.635 299.651L364.71 310.71L367.823 324.534L369.899 332.574L370.936 335.786L373.012 340.663L375.087 344.92L379.238 354.193L382.351 359.62L384.426 362.981L386.501 365.625L388.577 368.25L389.614 369.967L391.69 374.266L394.803 381.197L396.878 384.781L398.953 387.443L402.066 391.245L405.179 395.162L408.292 398.427L410.368 400.295L412.443 401.716L415.556 403.223L421.782 405.951L430.083 408.377L436.309 409.319L439.422 409.711L442.535 409.696L447.724 409.631L459.138 409.861L465.364 409.919L472.628 410.103L499.607 410.066L511.022 410.059L518.285 410.112" stroke="#EFEFEF" stroke-linecap="square"/>
</g>
<mask id="mask8_230_11598" style="mask-type:luminance" maskUnits="userSpaceOnUse" x="76" y="55" width="477" height="356">
<path d="M552.957 55.2959H76.7969V410.112H552.957V55.2959Z" fill="white"/>
</mask>
<g mask="url(#mask8_230_11598)">
<path d="M312.641 410.112L319.779 409.967L322.839 409.657L324.878 409.175L325.898 408.758L326.918 408.177L327.938 407.405L328.957 406.424L329.977 405.219L330.997 403.77L332.017 402.028L333.037 399.883L334.056 397.182L335.076 393.786L336.096 389.642L338.136 379.37L340.175 366.977L342.215 352.565L346.294 321.584L348.334 308.436L350.373 297.811L352.413 289.599L354.452 283.317L355.472 280.867L356.492 278.937L357.512 277.502L358.532 276.469L359.551 275.761L360.571 275.372L361.591 275.318L363.631 275.912L365.67 276.857L367.71 278.39L371.789 281.899L372.809 283.411L373.829 285.464L377.908 295.34L379.948 301.477L394.225 351.737L397.284 359.996L398.304 363.277L400.344 371.221L402.383 379.336L403.403 382.741L404.423 385.597L406.462 390.074L408.502 393.628L411.561 398.093L413.601 400.655L415.641 402.734L417.68 404.35L419.72 405.583L422.779 406.96L425.839 408.01L428.898 408.713L432.977 409.374L437.056 409.691L440.116 409.738L445.215 409.718L457.452 409.964L463.571 409.954L473.769 410.007L515.581 410.112" fill="#EFEFEF" fill-opacity="0.4"/>
<path d="M312.641 410.112L319.779 409.967L322.839 409.657L324.878 409.175L325.898 408.758L326.918 408.177L327.938 407.405L328.957 406.424L329.977 405.219L330.997 403.77L332.017 402.028L333.037 399.883L334.056 397.182L335.076 393.786L336.096 389.642L338.136 379.37L340.175 366.977L342.215 352.565L346.294 321.584L348.334 308.436L350.373 297.811L352.413 289.599L354.452 283.317L355.472 280.867L356.492 278.937L357.512 277.502L358.532 276.469L359.551 275.761L360.571 275.372L361.591 275.318L363.631 275.912L365.67 276.857L367.71 278.39L371.789 281.899L372.809 283.411L373.829 285.464L377.908 295.34L379.948 301.477L394.225 351.737L397.284 359.996L398.304 363.277L400.344 371.221L402.383 379.336L403.403 382.741L404.423 385.597L406.462 390.074L408.502 393.628L411.561 398.093L413.601 400.655L415.641 402.734L417.68 404.35L419.72 405.583L422.779 406.96L425.839 408.01L428.898 408.713L432.977 409.374L437.056 409.691L440.116 409.738L445.215 409.718L457.452 409.964L463.571 409.954L473.769 410.007L515.581 410.112" stroke="#EFEFEF" stroke-linecap="square"/>
</g>
<mask id="mask9_230_11598" style="mask-type:luminance" maskUnits="userSpaceOnUse" x="76" y="55" width="477" height="356">
<path d="M552.957 55.2959H76.7969V410.112H552.957V55.2959Z" fill="white"/>
</mask>
<g mask="url(#mask9_230_11598)">
<path d="M326.859 410.111L330.767 410.004L333.698 409.844L338.584 409.812L341.515 409.585L344.446 408.969L346.4 408.454L348.354 407.654L349.331 407.088L350.308 406.307L353.239 403.394L354.216 402.563L355.193 401.439L356.17 399.698L358.124 394.753L360.078 389.546L361.055 386.362L364.963 370.837L366.917 362.071L368.871 352.141L370.825 339.795L372.779 323.995L374.733 304.454L376.687 284.479L378.641 269.02L380.595 255.222L382.549 239.002L384.503 222.736L385.48 215.934L386.457 210.354L387.434 205.895L389.388 198.89L390.365 196.319L391.342 195.426L392.319 197.046L393.296 200.899L395.251 210.826L396.228 216.521L397.205 223.741L399.159 243.055L404.044 297.494L406.975 326.707L409.906 360.676L410.883 369.716L411.86 376.771L413.814 387.872L415.768 396.815L416.745 400.257L417.722 402.874L418.699 404.676L419.676 405.866L421.63 407.442L423.584 408.665L425.538 409.338L427.492 409.52L431.4 409.705L437.262 409.879L452.895 409.917L455.826 409.926L460.711 410.08L466.573 410.099L484.159 410.112L521.286 410.111" fill="#EFEFEF" fill-opacity="0.4"/>
<path d="M326.859 410.111L330.767 410.004L333.698 409.844L338.584 409.812L341.515 409.585L344.446 408.969L346.4 408.454L348.354 407.654L349.331 407.088L350.308 406.307L353.239 403.394L354.216 402.563L355.193 401.439L356.17 399.698L358.124 394.753L360.078 389.546L361.055 386.362L364.963 370.837L366.917 362.071L368.871 352.141L370.825 339.795L372.779 323.995L374.733 304.454L376.687 284.479L378.641 269.02L380.595 255.222L382.549 239.002L384.503 222.736L385.48 215.934L386.457 210.354L387.434 205.895L389.388 198.89L390.365 196.319L391.342 195.426L392.319 197.046L393.296 200.899L395.251 210.826L396.228 216.521L397.205 223.741L399.159 243.055L404.044 297.494L406.975 326.707L409.906 360.676L410.883 369.716L411.86 376.771L413.814 387.872L415.768 396.815L416.745 400.257L417.722 402.874L418.699 404.676L419.676 405.866L421.63 407.442L423.584 408.665L425.538 409.338L427.492 409.52L431.4 409.705L437.262 409.879L452.895 409.917L455.826 409.926L460.711 410.08L466.573 410.099L484.159 410.112L521.286 410.111" stroke="#EFEFEF" stroke-linecap="square"/>
</g>
<mask id="mask10_230_11598" style="mask-type:luminance" maskUnits="userSpaceOnUse" x="76" y="55" width="477" height="356">
<path d="M552.957 55.2959H76.7969V410.112H552.957V55.2959Z" fill="white"/>
</mask>
<g mask="url(#mask10_230_11598)">
<path d="M306.656 410.112L315.164 409.956L318.944 409.529L323.671 408.839L326.507 408.182L329.342 407.739L330.287 407.424L331.233 406.929L333.123 405.415L336.904 401.847L338.795 400.168L340.685 397.946L341.63 396.441L342.576 394.588L344.466 389.857L352.028 368.051L354.864 358.627L356.755 351.059L358.645 341.554L363.371 316.369L369.043 287.404L371.879 270.729L373.769 261.322L374.714 257.348L375.66 254.05L376.605 251.579L377.55 249.959L378.495 249.064L379.441 248.71L380.386 248.782L381.331 249.294L382.276 250.325L383.222 251.916L384.167 254.013L386.057 259.291L387.948 265.705L389.838 273.289L391.729 282.857L393.619 295.212L395.51 308.035L397.4 318.888L400.236 334.338L404.017 355.913L405.908 364.62L407.798 371.885L411.579 384.74L414.415 393.683L416.305 398.16L417.25 399.833L419.141 402.337L421.031 404.151L422.922 405.515L425.758 407.029L427.648 407.817L430.484 408.598L434.265 409.266L438.046 409.767L440.882 409.771L443.717 409.824L448.444 410.065L491.925 410.1L494.761 410.112" fill="#EFEFEF" fill-opacity="0.4"/>
<path d="M306.656 410.112L315.164 409.956L318.944 409.529L323.671 408.839L326.507 408.182L329.342 407.739L330.287 407.424L331.233 406.929L333.123 405.415L336.904 401.847L338.795 400.168L340.685 397.946L341.63 396.441L342.576 394.588L344.466 389.857L352.028 368.051L354.864 358.627L356.755 351.059L358.645 341.554L363.371 316.369L369.043 287.404L371.879 270.729L373.769 261.322L374.714 257.348L375.66 254.05L376.605 251.579L377.55 249.959L378.495 249.064L379.441 248.71L380.386 248.782L381.331 249.294L382.276 250.325L383.222 251.916L384.167 254.013L386.057 259.291L387.948 265.705L389.838 273.289L391.729 282.857L393.619 295.212L395.51 308.035L397.4 318.888L400.236 334.338L404.017 355.913L405.908 364.62L407.798 371.885L411.579 384.74L414.415 393.683L416.305 398.16L417.25 399.833L419.141 402.337L421.031 404.151L422.922 405.515L425.758 407.029L427.648 407.817L430.484 408.598L434.265 409.266L438.046 409.767L440.882 409.771L443.717 409.824L448.444 410.065L491.925 410.1L494.761 410.112" stroke="#EFEFEF" stroke-linecap="square"/>
</g>
<mask id="mask11_230_11598" style="mask-type:luminance" maskUnits="userSpaceOnUse" x="76" y="55" width="477" height="356">
<path d="M552.957 55.2959H76.7969V410.112H552.957V55.2959Z" fill="white"/>
</mask>
<g mask="url(#mask11_230_11598)">
<path d="M307.094 410.111L312.003 410.002L315.931 409.591L317.894 409.237L319.858 408.544L321.822 407.332L322.804 406.468L323.786 405.363L324.767 403.966L326.731 400.256L328.695 395.46L330.659 389.324L332.622 381.261L334.586 371.453L338.514 351.207L342.441 333.168L346.369 312.7L347.351 308.807L348.333 305.686L356.188 284.815L357.169 282.965L358.151 281.563L360.115 279.649L363.061 277.175L366.006 274.304L366.988 273.872L367.97 274.118L368.952 275.19L369.934 277.023L372.879 283.915L375.825 289.686L377.789 294.689L380.734 303.099L382.698 309.871L384.662 318.659L391.535 352.398L393.499 361.103L395.463 368.04L400.372 382.342L403.318 390.009L405.281 394.389L407.245 397.852L409.209 400.194L416.082 406.575L418.046 407.543L421.973 408.715L424.919 409.388L427.864 409.614L449.466 409.909L456.339 409.851L460.266 409.977L465.176 410.108L502.487 410.111" fill="#EFEFEF" fill-opacity="0.4"/>
<path d="M307.094 410.111L312.003 410.002L315.931 409.591L317.894 409.237L319.858 408.544L321.822 407.332L322.804 406.468L323.786 405.363L324.767 403.966L326.731 400.256L328.695 395.46L330.659 389.324L332.622 381.261L334.586 371.453L338.514 351.207L342.441 333.168L346.369 312.7L347.351 308.807L348.333 305.686L356.188 284.815L357.169 282.965L358.151 281.563L360.115 279.649L363.061 277.175L366.006 274.304L366.988 273.872L367.97 274.118L368.952 275.19L369.934 277.023L372.879 283.915L375.825 289.686L377.789 294.689L380.734 303.099L382.698 309.871L384.662 318.659L391.535 352.398L393.499 361.103L395.463 368.04L400.372 382.342L403.318 390.009L405.281 394.389L407.245 397.852L409.209 400.194L416.082 406.575L418.046 407.543L421.973 408.715L424.919 409.388L427.864 409.614L449.466 409.909L456.339 409.851L460.266 409.977L465.176 410.108L502.487 410.111" stroke="#EFEFEF" stroke-linecap="square"/>
</g>
<mask id="mask12_230_11598" style="mask-type:luminance" maskUnits="userSpaceOnUse" x="76" y="55" width="477" height="356">
<path d="M552.957 55.2959H76.7969V410.112H552.957V55.2959Z" fill="white"/>
</mask>
<g mask="url(#mask12_230_11598)">
<path d="M314.781 410.111L334.598 410.094L338.2 410.082L340.903 409.784L344.506 409.217L346.307 408.688L348.109 407.75L349.009 407.215L350.811 406.682L352.612 406.17L353.513 405.824L354.414 405.186L355.315 404.045L356.215 402.318L357.116 399.63L359.818 388.79L360.719 386.073L361.62 382.21L362.52 376.279L363.421 368.004L364.322 357.156L366.123 329.642L367.925 299.443L368.826 281.501L370.627 236.307L373.329 161.589L375.131 111.238L376.032 94.7294L376.932 85.0882L378.734 74.8775L379.635 72.1924L380.535 76.4346L381.436 87.1972L382.337 99.9312L383.237 115.014L385.039 155.591L389.543 270.719L392.245 331.717L393.146 346.535L394.947 367.757L395.848 376.05L396.749 382.8L397.649 388.059L398.55 392.055L400.352 397.824L401.252 400.191L402.153 401.826L403.054 402.602L404.855 402.876L405.756 403.383L408.458 405.732L410.26 406.65L412.962 407.689L415.664 407.907L418.366 408.749L420.168 409.055L421.969 409.274L423.771 409.605L427.374 409.71L432.778 409.624L435.48 409.911L438.183 409.98L442.686 410.027L445.388 409.865L451.694 410.112L458.9 409.964L462.503 409.844L465.205 410.006L467.907 410.112L494.028 410.111" fill="#EFEFEF" fill-opacity="0.4"/>
<path d="M314.781 410.111L334.598 410.094L338.2 410.082L340.903 409.784L344.506 409.217L346.307 408.688L348.109 407.75L349.009 407.215L350.811 406.682L352.612 406.17L353.513 405.824L354.414 405.186L355.315 404.045L356.215 402.318L357.116 399.63L359.818 388.79L360.719 386.073L361.62 382.21L362.52 376.279L363.421 368.004L364.322 357.156L366.123 329.642L367.925 299.443L368.826 281.501L370.627 236.307L373.329 161.589L375.131 111.238L376.032 94.7294L376.932 85.0882L378.734 74.8775L379.635 72.1924L380.535 76.4346L381.436 87.1972L382.337 99.9312L383.237 115.014L385.039 155.591L389.543 270.719L392.245 331.717L393.146 346.535L394.947 367.757L395.848 376.05L396.749 382.8L397.649 388.059L398.55 392.055L400.352 397.824L401.252 400.191L402.153 401.826L403.054 402.602L404.855 402.876L405.756 403.383L408.458 405.732L410.26 406.65L412.962 407.689L415.664 407.907L418.366 408.749L420.168 409.055L421.969 409.274L423.771 409.605L427.374 409.71L432.778 409.624L435.48 409.911L438.183 409.98L442.686 410.027L445.388 409.865L451.694 410.112L458.9 409.964L462.503 409.844L465.205 410.006L467.907 410.112L494.028 410.111" stroke="#EFEFEF" stroke-linecap="square"/>
</g>
<mask id="mask13_230_11598" style="mask-type:luminance" maskUnits="userSpaceOnUse" x="76" y="55" width="477" height="356">
<path d="M552.957 55.2959H76.7969V410.112H552.957V55.2959Z" fill="white"/>
</mask>
<g mask="url(#mask13_230_11598)">
<path d="M320.344 410.111L334.572 409.939L337.418 409.763L341.212 409.935L344.057 409.734L346.903 409.209L350.697 408.427L352.594 407.894L357.337 405.345L358.286 404.608L359.234 403.533L360.183 402.019L361.131 400.027L363.028 394.734L364.926 388.091L366.823 379.94L367.771 374.634L368.72 368.063L370.617 351.794L372.514 333.521L374.411 312.546L377.257 279.609L379.154 259.448L382.948 216.138L383.897 209.087L385.794 198.79L386.742 194.194L387.691 190.478L388.639 188.549L389.588 188.616L390.536 190.226L391.485 193.027L392.433 197.207L393.382 203.182L394.331 211.051L396.228 231.175L399.073 263.984L401.919 291.899L403.816 307.402L406.662 328.251L409.507 350.305L411.404 362.355L412.353 367.091L414.25 374.394L418.044 388.154L418.993 390.665L420.89 394.287L423.736 399.442L425.633 402.644L426.581 403.668L428.478 404.829L432.273 407.16L436.067 408.453L437.964 408.86L444.604 409.445L451.244 410.006L455.986 410.04L483.494 410.112L509.105 410.111" fill="#EFEFEF" fill-opacity="0.4"/>
<path d="M320.344 410.111L334.572 409.939L337.418 409.763L341.212 409.935L344.057 409.734L346.903 409.209L350.697 408.427L352.594 407.894L357.337 405.345L358.286 404.608L359.234 403.533L360.183 402.019L361.131 400.027L363.028 394.734L364.926 388.091L366.823 379.94L367.771 374.634L368.72 368.063L370.617 351.794L372.514 333.521L374.411 312.546L377.257 279.609L379.154 259.448L382.948 216.138L383.897 209.087L385.794 198.79L386.742 194.194L387.691 190.478L388.639 188.549L389.588 188.616L390.536 190.226L391.485 193.027L392.433 197.207L393.382 203.182L394.331 211.051L396.228 231.175L399.073 263.984L401.919 291.899L403.816 307.402L406.662 328.251L409.507 350.305L411.404 362.355L412.353 367.091L414.25 374.394L418.044 388.154L418.993 390.665L420.89 394.287L423.736 399.442L425.633 402.644L426.581 403.668L428.478 404.829L432.273 407.16L436.067 408.453L437.964 408.86L444.604 409.445L451.244 410.006L455.986 410.04L483.494 410.112L509.105 410.111" stroke="#EFEFEF" stroke-linecap="square"/>
</g>
<mask id="mask14_230_11598" style="mask-type:luminance" maskUnits="userSpaceOnUse" x="76" y="55" width="477" height="356">
<path d="M552.957 55.2959H76.7969V410.112H552.957V55.2959Z" fill="white"/>
</mask>
<g mask="url(#mask14_230_11598)">
<path d="M98.4375 410.111L165.292 410.112L292.531 410.031L296.844 409.771L301.157 409.2L303.314 408.712L305.47 407.863L307.627 406.601L309.783 404.936L311.94 402.81L314.097 400.144L316.253 396.636L318.41 392.087L320.566 386.755L322.723 380.221L324.88 372.193L327.036 363.319L329.193 353.025L331.349 340.6L335.663 312.172L339.976 281.784L342.132 268.53L344.289 257.823L346.446 250.074L348.602 247.052L350.759 249.799L352.915 255.575L355.072 260.85L357.228 266.808L359.385 276.29L365.855 312.026L370.168 333.357L372.325 342.384L374.481 349.626L378.794 361.713L385.264 379.408L387.421 384.092L389.577 387.885L393.891 394.081L396.047 396.793L400.36 400.826L402.517 402.566L406.83 405.355L408.987 406.622L411.143 407.507L417.613 408.924L419.77 409.112L426.239 409.321L432.709 409.932L447.805 410.044L495.25 410.087L512.503 410.111L527.599 410.111" fill="#7EB0D5" fill-opacity="0.4"/>
<path d="M98.4375 410.111L165.292 410.112L292.531 410.031L296.844 409.771L301.157 409.2L303.314 408.712L305.47 407.863L307.627 406.601L309.783 404.936L311.94 402.81L314.097 400.144L316.253 396.636L318.41 392.087L320.566 386.755L322.723 380.221L324.88 372.193L327.036 363.319L329.193 353.025L331.349 340.6L335.663 312.172L339.976 281.784L342.132 268.53L344.289 257.823L346.446 250.074L348.602 247.052L350.759 249.799L352.915 255.575L355.072 260.85L357.228 266.808L359.385 276.29L365.855 312.026L370.168 333.357L372.325 342.384L374.481 349.626L378.794 361.713L385.264 379.408L387.421 384.092L389.577 387.885L393.891 394.081L396.047 396.793L400.36 400.826L402.517 402.566L406.83 405.355L408.987 406.622L411.143 407.507L417.613 408.924L419.77 409.112L426.239 409.321L432.709 409.932L447.805 410.044L495.25 410.087L512.503 410.111L527.599 410.111" stroke="#7EB0D5" stroke-linecap="square"/>
</g>
<path d="M535.061 411.061C535.646 410.475 535.646 409.525 535.061 408.939L525.515 399.393C524.929 398.808 523.979 398.808 523.393 399.393C522.808 399.979 522.808 400.929 523.393 401.515L531.879 410L523.393 418.485C522.808 419.071 522.808 420.021 523.393 420.607C523.979 421.192 524.929 421.192 525.515 420.607L535.061 411.061ZM79 411.5H534V408.5H79V411.5Z" fill="black"/>
</g>
<defs>
<clipPath id="clip0_230_11598">
<rect width="614.4" height="460.8" fill="white"/>
</clipPath>
</defs>
</svg>
