<svg width="615" height="461" viewBox="0 0 615 461" fill="none" xmlns="http://www.w3.org/2000/svg">
<g clip-path="url(#clip0_230_12318)">
<mask id="mask0_230_12318" style="mask-type:luminance" maskUnits="userSpaceOnUse" x="76" y="55" width="477" height="356">
<path d="M552.957 55.2959H76.7969V410.112H552.957V55.2959Z" fill="white"/>
</mask>
<g mask="url(#mask0_230_12318)">
<path d="M160.961 410.11L175.297 410.008L177.904 409.729L183.117 408.924L185.724 408.79L187.027 408.565L188.33 408.136L190.937 406.812L194.847 404.703L198.757 402.791L200.06 401.833L201.363 400.557L205.273 395.938L206.577 394.218L207.88 392.086L209.183 389.363L210.487 386.065L213.093 378.276L217.003 365.046L218.307 359.924L219.61 353.945L222.216 339.802L224.823 324.632L226.126 316.16L228.733 296.141L231.34 272.612L235.25 232.555L245.676 125.749L248.283 100.565L249.586 90.1585L250.889 82.5313L252.193 78.0488L253.496 76.1963L254.799 76.2729L256.102 78.1498L257.406 82.116L258.709 88.1288L263.922 118.179L265.226 126.39L266.529 136.354L267.832 148.625L270.439 178.364L274.349 223.302L278.259 265.273L280.865 289.032L283.472 309.188L286.079 326.745L288.685 342.014L291.292 354.815L293.898 365.831L296.505 375.151L297.808 378.993L300.415 385.328L305.628 395.891L306.931 398.387L308.235 400.447L309.538 401.88L310.841 402.699L314.751 404.167L317.358 405.767L318.661 406.339L330.391 409.408L334.301 409.598L357.761 409.9L369.49 410.111L420.319 410.11" fill="#EFEFEF" fill-opacity="0.4"/>
<path d="M160.961 410.11L175.297 410.008L177.904 409.729L183.117 408.924L185.724 408.79L187.027 408.565L188.33 408.136L190.937 406.812L194.847 404.703L198.757 402.791L200.06 401.833L201.363 400.557L205.273 395.938L206.577 394.218L207.88 392.086L209.183 389.363L210.487 386.065L213.093 378.276L217.003 365.046L218.307 359.924L219.61 353.945L222.216 339.802L224.823 324.632L226.126 316.16L228.733 296.141L231.34 272.612L235.25 232.555L245.676 125.749L248.283 100.565L249.586 90.1585L250.889 82.5313L252.193 78.0488L253.496 76.1963L254.799 76.2729L256.102 78.1498L257.406 82.116L258.709 88.1288L263.922 118.179L265.226 126.39L266.529 136.354L267.832 148.625L270.439 178.364L274.349 223.302L278.259 265.273L280.865 289.032L283.472 309.188L286.079 326.745L288.685 342.014L291.292 354.815L293.898 365.831L296.505 375.151L297.808 378.993L300.415 385.328L305.628 395.891L306.931 398.387L308.235 400.447L309.538 401.88L310.841 402.699L314.751 404.167L317.358 405.767L318.661 406.339L330.391 409.408L334.301 409.598L357.761 409.9L369.49 410.111L420.319 410.11" stroke="#EFEFEF" stroke-linecap="square"/>
</g>
<mask id="mask1_230_12318" style="mask-type:luminance" maskUnits="userSpaceOnUse" x="76" y="55" width="477" height="356">
<path d="M552.957 55.2959H76.7969V410.112H552.957V55.2959Z" fill="white"/>
</mask>
<g mask="url(#mask1_230_12318)">
<path d="M186.016 410.111L200.952 409.98L206.926 409.714L214.394 409.065L218.875 408.357L221.862 407.637L224.849 406.525L226.343 405.711L227.837 404.684L229.33 403.445L232.318 400.405L235.305 396.607L236.798 394.321L238.292 391.688L239.786 388.655L241.279 385.198L242.773 381.313L244.266 376.997L245.76 372.223L247.254 366.929L248.747 361.025L250.241 354.4L251.734 346.954L254.722 329.5L259.203 299.255L266.671 249.331L269.658 229.938L271.151 221.337L272.645 213.947L274.139 207.862L275.632 202.945L277.126 198.968L278.619 195.779L280.113 193.377L281.607 191.874L283.1 191.377L284.594 191.893L286.087 193.296L287.581 195.375L290.568 200.722L293.556 206.937L296.543 214.076L299.53 222.35L302.517 231.656L305.504 241.87L312.972 268.408L320.441 292.939L323.428 304.601L326.415 316.843L327.909 322.475L329.402 327.508L330.896 331.905L332.389 335.744L335.377 342.341L341.351 354.325L344.338 359.761L347.325 364.59L350.313 368.921L351.806 370.787L353.3 372.37L354.794 373.675L360.768 378.191L362.262 379.701L365.249 383.331L371.223 391.148L374.21 394.283L375.704 395.506L378.691 397.353L386.159 401.219L389.147 402.859L392.134 404.111L393.627 404.478L396.615 404.692L399.602 404.65L402.589 404.975L405.576 405.796L413.044 408.19L416.032 408.869L419.019 409.271L423.5 409.472L433.955 409.735L444.41 410.009L454.865 410.042L483.244 410.111" fill="#EFEFEF" fill-opacity="0.4"/>
<path d="M186.016 410.111L200.952 409.98L206.926 409.714L214.394 409.065L218.875 408.357L221.862 407.637L224.849 406.525L226.343 405.711L227.837 404.684L229.33 403.445L232.318 400.405L235.305 396.607L236.798 394.321L238.292 391.688L239.786 388.655L241.279 385.198L242.773 381.313L244.266 376.997L245.76 372.223L247.254 366.929L248.747 361.025L250.241 354.4L251.734 346.954L254.722 329.5L259.203 299.255L266.671 249.331L269.658 229.938L271.151 221.337L272.645 213.947L274.139 207.862L275.632 202.945L277.126 198.968L278.619 195.779L280.113 193.377L281.607 191.874L283.1 191.377L284.594 191.893L286.087 193.296L287.581 195.375L290.568 200.722L293.556 206.937L296.543 214.076L299.53 222.35L302.517 231.656L305.504 241.87L312.972 268.408L320.441 292.939L323.428 304.601L326.415 316.843L327.909 322.475L329.402 327.508L330.896 331.905L332.389 335.744L335.377 342.341L341.351 354.325L344.338 359.761L347.325 364.59L350.313 368.921L351.806 370.787L353.3 372.37L354.794 373.675L360.768 378.191L362.262 379.701L365.249 383.331L371.223 391.148L374.21 394.283L375.704 395.506L378.691 397.353L386.159 401.219L389.147 402.859L392.134 404.111L393.627 404.478L396.615 404.692L399.602 404.65L402.589 404.975L405.576 405.796L413.044 408.19L416.032 408.869L419.019 409.271L423.5 409.472L433.955 409.735L444.41 410.009L454.865 410.042L483.244 410.111" stroke="#EFEFEF" stroke-linecap="square"/>
</g>
<mask id="mask2_230_12318" style="mask-type:luminance" maskUnits="userSpaceOnUse" x="76" y="55" width="477" height="356">
<path d="M552.957 55.2959H76.7969V410.112H552.957V55.2959Z" fill="white"/>
</mask>
<g mask="url(#mask2_230_12318)">
<path d="M187.477 410.111L200.035 409.965L212.594 409.49L218.873 409.149L221.385 408.77L227.664 407.302L231.431 406.405L233.943 405.505L236.455 404.161L238.967 402.349L241.478 400.037L243.99 397.2L249.013 391.115L252.781 386.637L254.037 384.8L255.293 382.667L257.804 377.543L262.828 366.38L266.595 358.653L267.851 355.624L269.107 352.132L271.619 343.9L274.13 335.267L276.642 327.632L279.154 320.546L280.41 316.652L282.921 307.36L285.433 296.303L295.48 249.528L297.992 239.573L300.503 230.782L303.015 222.912L305.527 216.168L306.783 213.363L308.038 210.991L309.294 209.067L310.55 207.577L311.806 206.478L313.062 205.689L315.574 204.632L318.085 203.897L319.341 203.805L320.597 204.131L321.853 205.084L323.109 206.828L324.365 209.448L325.62 212.919L328.132 221.771L331.9 236.036L341.946 270.353L346.97 286.031L349.482 295.76L351.993 307.271L355.761 324.866L358.273 334.968L360.784 343.368L364.552 354.076L369.575 368.245L373.343 378.708L375.854 384.49L378.366 389.038L380.878 392.698L384.645 397.366L387.157 400.094L389.669 402.433L392.181 404.387L394.692 406.009L397.204 407.245L399.716 408.032L402.227 408.465L412.274 409.546L417.298 409.841L427.344 410.032L437.391 410.111" fill="#EFEFEF" fill-opacity="0.4"/>
<path d="M187.477 410.111L200.035 409.965L212.594 409.49L218.873 409.149L221.385 408.77L227.664 407.302L231.431 406.405L233.943 405.505L236.455 404.161L238.967 402.349L241.478 400.037L243.99 397.2L249.013 391.115L252.781 386.637L254.037 384.8L255.293 382.667L257.804 377.543L262.828 366.38L266.595 358.653L267.851 355.624L269.107 352.132L271.619 343.9L274.13 335.267L276.642 327.632L279.154 320.546L280.41 316.652L282.921 307.36L285.433 296.303L295.48 249.528L297.992 239.573L300.503 230.782L303.015 222.912L305.527 216.168L306.783 213.363L308.038 210.991L309.294 209.067L310.55 207.577L311.806 206.478L313.062 205.689L315.574 204.632L318.085 203.897L319.341 203.805L320.597 204.131L321.853 205.084L323.109 206.828L324.365 209.448L325.62 212.919L328.132 221.771L331.9 236.036L341.946 270.353L346.97 286.031L349.482 295.76L351.993 307.271L355.761 324.866L358.273 334.968L360.784 343.368L364.552 354.076L369.575 368.245L373.343 378.708L375.854 384.49L378.366 389.038L380.878 392.698L384.645 397.366L387.157 400.094L389.669 402.433L392.181 404.387L394.692 406.009L397.204 407.245L399.716 408.032L402.227 408.465L412.274 409.546L417.298 409.841L427.344 410.032L437.391 410.111" stroke="#EFEFEF" stroke-linecap="square"/>
</g>
<mask id="mask3_230_12318" style="mask-type:luminance" maskUnits="userSpaceOnUse" x="76" y="55" width="477" height="356">
<path d="M552.957 55.2959H76.7969V410.112H552.957V55.2959Z" fill="white"/>
</mask>
<g mask="url(#mask3_230_12318)">
<path d="M199.414 410.112L226.591 409.97L238.669 409.476L246.218 408.973L250.748 408.475L253.767 407.841L256.787 406.711L261.316 404.499L262.826 403.961L264.336 403.637L267.356 403.485L270.375 403.302L271.885 402.972L274.905 401.801L277.924 400.197L280.944 398.211L283.964 395.803L290.003 390.901L293.022 388.483L296.042 385.604L297.552 383.817L299.062 381.734L302.081 376.822L306.611 368.712L309.63 362.554L311.14 358.966L314.16 350.645L317.179 340.767L320.199 329.151L326.238 304.152L329.258 293.166L338.317 262.649L341.336 254.146L344.356 247.211L348.886 238.076L351.905 232.891L353.415 230.791L354.925 229.029L357.944 226.262L360.964 224.142L362.474 223.361L363.984 222.899L365.493 222.889L367.003 223.424L368.513 224.529L370.023 226.163L371.533 228.264L373.042 230.79L374.552 233.732L376.062 237.097L379.082 245.011L383.611 258.536L388.141 272.882L392.67 288.881L400.219 316.089L415.317 366.672L416.827 370.813L418.337 374.506L419.847 377.765L422.866 383.206L425.886 387.767L430.415 393.949L433.435 397.36L434.945 398.692L436.455 399.77L439.474 401.419L444.004 403.857L448.533 406.394L451.553 407.618L454.572 408.453L457.592 408.999L460.612 409.3L466.651 409.467L474.2 409.796L480.239 409.916L492.318 410.077L499.867 410.112" fill="#EFEFEF" fill-opacity="0.4"/>
<path d="M199.414 410.112L226.591 409.97L238.669 409.476L246.218 408.973L250.748 408.475L253.767 407.841L256.787 406.711L261.316 404.499L262.826 403.961L264.336 403.637L267.356 403.485L270.375 403.302L271.885 402.972L274.905 401.801L277.924 400.197L280.944 398.211L283.964 395.803L290.003 390.901L293.022 388.483L296.042 385.604L297.552 383.817L299.062 381.734L302.081 376.822L306.611 368.712L309.63 362.554L311.14 358.966L314.16 350.645L317.179 340.767L320.199 329.151L326.238 304.152L329.258 293.166L338.317 262.649L341.336 254.146L344.356 247.211L348.886 238.076L351.905 232.891L353.415 230.791L354.925 229.029L357.944 226.262L360.964 224.142L362.474 223.361L363.984 222.899L365.493 222.889L367.003 223.424L368.513 224.529L370.023 226.163L371.533 228.264L373.042 230.79L374.552 233.732L376.062 237.097L379.082 245.011L383.611 258.536L388.141 272.882L392.67 288.881L400.219 316.089L415.317 366.672L416.827 370.813L418.337 374.506L419.847 377.765L422.866 383.206L425.886 387.767L430.415 393.949L433.435 397.36L434.945 398.692L436.455 399.77L439.474 401.419L444.004 403.857L448.533 406.394L451.553 407.618L454.572 408.453L457.592 408.999L460.612 409.3L466.651 409.467L474.2 409.796L480.239 409.916L492.318 410.077L499.867 410.112" stroke="#EFEFEF" stroke-linecap="square"/>
</g>
<mask id="mask4_230_12318" style="mask-type:luminance" maskUnits="userSpaceOnUse" x="76" y="55" width="477" height="356">
<path d="M552.957 55.2959H76.7969V410.112H552.957V55.2959Z" fill="white"/>
</mask>
<g mask="url(#mask4_230_12318)">
<path d="M186.984 410.111L201.056 409.959L207.452 409.722L212.569 409.168L217.686 408.446L220.245 407.829L222.803 406.903L229.2 404.074L231.758 402.675L233.037 401.771L234.317 400.68L235.596 399.384L238.154 396.15L240.713 392.079L243.271 387.115L245.83 381.083L248.388 373.829L250.947 365.401L254.785 351.256L258.622 335.798L261.181 324.448L273.973 264.889L276.532 254.03L279.09 244.361L281.649 236.153L282.928 232.628L284.207 229.569L285.487 227.043L286.766 225.059L288.045 223.533L294.441 217.535L295.721 216.488L297 215.775L298.279 215.533L299.558 215.833L300.838 216.668L302.117 217.969L303.396 219.631L305.955 223.636L308.513 228.16L311.072 233.094L313.63 238.685L316.189 245.404L318.747 253.452L322.585 267.079L326.423 280.682L330.26 293.122L334.098 304.274L336.656 310.972L348.17 339.665L353.287 353.1L355.845 358.967L358.404 364.12L366.079 378.275L368.638 382.724L371.196 386.56L373.755 389.682L380.151 396.403L382.709 398.932L385.268 400.923L387.826 402.26L392.943 404.121L403.177 407.755L405.736 408.341L408.294 408.682L412.132 408.894L422.366 409.224L431.321 409.948L438.996 410.104L441.555 410.11" fill="#EFEFEF" fill-opacity="0.4"/>
<path d="M186.984 410.111L201.056 409.959L207.452 409.722L212.569 409.168L217.686 408.446L220.245 407.829L222.803 406.903L229.2 404.074L231.758 402.675L233.037 401.771L234.317 400.68L235.596 399.384L238.154 396.15L240.713 392.079L243.271 387.115L245.83 381.083L248.388 373.829L250.947 365.401L254.785 351.256L258.622 335.798L261.181 324.448L273.973 264.889L276.532 254.03L279.09 244.361L281.649 236.153L282.928 232.628L284.207 229.569L285.487 227.043L286.766 225.059L288.045 223.533L294.441 217.535L295.721 216.488L297 215.775L298.279 215.533L299.558 215.833L300.838 216.668L302.117 217.969L303.396 219.631L305.955 223.636L308.513 228.16L311.072 233.094L313.63 238.685L316.189 245.404L318.747 253.452L322.585 267.079L326.423 280.682L330.26 293.122L334.098 304.274L336.656 310.972L348.17 339.665L353.287 353.1L355.845 358.967L358.404 364.12L366.079 378.275L368.638 382.724L371.196 386.56L373.755 389.682L380.151 396.403L382.709 398.932L385.268 400.923L387.826 402.26L392.943 404.121L403.177 407.755L405.736 408.341L408.294 408.682L412.132 408.894L422.366 409.224L431.321 409.948L438.996 410.104L441.555 410.11" stroke="#EFEFEF" stroke-linecap="square"/>
</g>
<mask id="mask5_230_12318" style="mask-type:luminance" maskUnits="userSpaceOnUse" x="76" y="55" width="477" height="356">
<path d="M552.957 55.2959H76.7969V410.112H552.957V55.2959Z" fill="white"/>
</mask>
<g mask="url(#mask5_230_12318)">
<path d="M190.102 410.111L219.211 409.939L223.689 409.597L229.287 408.969L236.005 408.549L239.364 407.966L241.603 407.28L243.842 406.138L247.201 404.09L248.32 403.608L250.56 403.088L252.799 402.596L253.918 402.044L255.038 401.151L256.158 399.876L257.277 398.228L259.516 394.049L262.875 386.714L265.114 381.36L267.353 375.086L269.593 367.561L272.951 354.679L276.31 340.672L278.549 329.946L280.789 317.759L286.387 285.901L288.626 274.704L290.865 264.911L295.343 246.388L302.061 216.437L304.3 209.036L306.539 203.545L308.778 198.771L311.018 193.07L313.257 186.589L314.376 183.88L315.496 181.989L316.616 180.958L318.855 180.078L319.974 179.217L321.094 177.658L323.333 173.3L324.453 171.646L325.572 171.198L326.692 172.336L327.812 175.073L328.931 179.094L331.17 189.106L339.007 226.083L341.247 239.603L346.845 277.199L352.443 311.426L356.921 340.046L359.16 352.05L361.399 362.564L364.758 376.609L366.997 384.431L368.117 387.661L369.236 390.398L370.356 392.664L371.476 394.523L373.715 397.39L378.193 401.983L381.552 405.069L383.791 406.653L386.03 407.705L388.27 408.287L393.868 409.089L398.346 409.627L403.944 409.939L411.781 410.108L412.901 410.11" fill="#EFEFEF" fill-opacity="0.4"/>
<path d="M190.102 410.111L219.211 409.939L223.689 409.597L229.287 408.969L236.005 408.549L239.364 407.966L241.603 407.28L243.842 406.138L247.201 404.09L248.32 403.608L250.56 403.088L252.799 402.596L253.918 402.044L255.038 401.151L256.158 399.876L257.277 398.228L259.516 394.049L262.875 386.714L265.114 381.36L267.353 375.086L269.593 367.561L272.951 354.679L276.31 340.672L278.549 329.946L280.789 317.759L286.387 285.901L288.626 274.704L290.865 264.911L295.343 246.388L302.061 216.437L304.3 209.036L306.539 203.545L308.778 198.771L311.018 193.07L313.257 186.589L314.376 183.88L315.496 181.989L316.616 180.958L318.855 180.078L319.974 179.217L321.094 177.658L323.333 173.3L324.453 171.646L325.572 171.198L326.692 172.336L327.812 175.073L328.931 179.094L331.17 189.106L339.007 226.083L341.247 239.603L346.845 277.199L352.443 311.426L356.921 340.046L359.16 352.05L361.399 362.564L364.758 376.609L366.997 384.431L368.117 387.661L369.236 390.398L370.356 392.664L371.476 394.523L373.715 397.39L378.193 401.983L381.552 405.069L383.791 406.653L386.03 407.705L388.27 408.287L393.868 409.089L398.346 409.627L403.944 409.939L411.781 410.108L412.901 410.11" stroke="#EFEFEF" stroke-linecap="square"/>
</g>
<mask id="mask6_230_12318" style="mask-type:luminance" maskUnits="userSpaceOnUse" x="76" y="55" width="477" height="356">
<path d="M552.957 55.2959H76.7969V410.112H552.957V55.2959Z" fill="white"/>
</mask>
<g mask="url(#mask6_230_12318)">
<path d="M197.336 410.111L212.372 409.964L224.066 409.547L229.078 409.164L232.42 408.677L237.432 407.528L242.444 406.091L245.785 404.676L249.126 402.676L252.468 400.029L255.809 396.627L259.15 392.626L264.162 385.978L277.527 366.972L279.198 364.387L280.869 361.407L282.539 357.971L285.881 350.032L292.563 333.522L297.575 321.587L300.917 312.835L309.27 289.308L312.611 278.938L317.623 262.305L319.294 257.377L320.965 253.053L322.635 249.344L324.306 246.158L327.647 240.761L330.989 235.977L332.659 233.831L334.33 231.958L336 230.448L337.671 229.392L339.342 228.913L341.012 229.164L342.683 230.271L344.354 232.234L346.024 234.87L352.707 246.502L354.378 249.359L356.048 252.525L357.719 256.151L359.39 260.309L361.06 265.016L364.402 275.996L371.084 300.34L374.426 310.901L379.438 325.22L384.45 338.639L394.473 364.062L397.815 371.387L401.156 377.676L404.497 383.083L409.509 390.33L412.851 394.705L416.192 398.356L417.863 399.834L419.533 401.085L422.875 403.025L426.216 404.392L429.557 405.304L449.605 409.316L454.617 409.72L461.3 409.965L478.006 410.111L529.797 410.111" fill="#EFEFEF" fill-opacity="0.4"/>
<path d="M197.336 410.111L212.372 409.964L224.066 409.547L229.078 409.164L232.42 408.677L237.432 407.528L242.444 406.091L245.785 404.676L249.126 402.676L252.468 400.029L255.809 396.627L259.15 392.626L264.162 385.978L277.527 366.972L279.198 364.387L280.869 361.407L282.539 357.971L285.881 350.032L292.563 333.522L297.575 321.587L300.917 312.835L309.27 289.308L312.611 278.938L317.623 262.305L319.294 257.377L320.965 253.053L322.635 249.344L324.306 246.158L327.647 240.761L330.989 235.977L332.659 233.831L334.33 231.958L336 230.448L337.671 229.392L339.342 228.913L341.012 229.164L342.683 230.271L344.354 232.234L346.024 234.87L352.707 246.502L354.378 249.359L356.048 252.525L357.719 256.151L359.39 260.309L361.06 265.016L364.402 275.996L371.084 300.34L374.426 310.901L379.438 325.22L384.45 338.639L394.473 364.062L397.815 371.387L401.156 377.676L404.497 383.083L409.509 390.33L412.851 394.705L416.192 398.356L417.863 399.834L419.533 401.085L422.875 403.025L426.216 404.392L429.557 405.304L449.605 409.316L454.617 409.72L461.3 409.965L478.006 410.111L529.797 410.111" stroke="#EFEFEF" stroke-linecap="square"/>
</g>
<mask id="mask7_230_12318" style="mask-type:luminance" maskUnits="userSpaceOnUse" x="76" y="55" width="477" height="356">
<path d="M552.957 55.2959H76.7969V410.112H552.957V55.2959Z" fill="white"/>
</mask>
<g mask="url(#mask7_230_12318)">
<path d="M198.516 410.111L213.567 409.953L221.929 409.537L226.946 409.009L231.963 408.087L235.307 407.174L238.652 405.868L241.997 404.006L245.342 401.564L248.686 398.689L252.031 395.51L255.376 392.007L258.72 388.133L263.738 381.792L273.772 368.627L277.116 364.938L285.478 356.733L288.823 352.63L292.168 347.862L295.512 342.589L298.857 336.891L302.202 330.72L308.891 317.972L310.564 315.196L312.236 312.718L315.581 308.57L320.598 303.366L325.615 298.083L335.649 286.971L338.994 284.187L347.355 278.331L350.7 276.241L352.372 275.424L354.045 274.819L355.717 274.462L357.389 274.394L359.062 274.657L360.734 275.287L362.407 276.293L364.079 277.654L365.751 279.318L369.096 283.305L372.441 287.892L375.785 293.001L380.802 301.45L395.854 327.213L407.56 346.93L417.594 365.065L422.611 373.368L425.956 378.552L429.301 383.287L432.645 387.38L435.99 390.845L439.335 393.908L442.68 396.675L446.024 398.98L449.369 400.698L459.403 404.709L462.748 405.986L466.093 406.971L469.437 407.634L474.454 408.274L482.816 409.07L489.506 409.428L511.246 410.051L531.315 410.112" fill="#EFEFEF" fill-opacity="0.4"/>
<path d="M198.516 410.111L213.567 409.953L221.929 409.537L226.946 409.009L231.963 408.087L235.307 407.174L238.652 405.868L241.997 404.006L245.342 401.564L248.686 398.689L252.031 395.51L255.376 392.007L258.72 388.133L263.738 381.792L273.772 368.627L277.116 364.938L285.478 356.733L288.823 352.63L292.168 347.862L295.512 342.589L298.857 336.891L302.202 330.72L308.891 317.972L310.564 315.196L312.236 312.718L315.581 308.57L320.598 303.366L325.615 298.083L335.649 286.971L338.994 284.187L347.355 278.331L350.7 276.241L352.372 275.424L354.045 274.819L355.717 274.462L357.389 274.394L359.062 274.657L360.734 275.287L362.407 276.293L364.079 277.654L365.751 279.318L369.096 283.305L372.441 287.892L375.785 293.001L380.802 301.45L395.854 327.213L407.56 346.93L417.594 365.065L422.611 373.368L425.956 378.552L429.301 383.287L432.645 387.38L435.99 390.845L439.335 393.908L442.68 396.675L446.024 398.98L449.369 400.698L459.403 404.709L462.748 405.986L466.093 406.971L469.437 407.634L474.454 408.274L482.816 409.07L489.506 409.428L511.246 410.051L531.315 410.112" stroke="#EFEFEF" stroke-linecap="square"/>
</g>
<mask id="mask8_230_12318" style="mask-type:luminance" maskUnits="userSpaceOnUse" x="76" y="55" width="477" height="356">
<path d="M552.957 55.2959H76.7969V410.112H552.957V55.2959Z" fill="white"/>
</mask>
<g mask="url(#mask8_230_12318)">
<path d="M178.312 410.111L191.445 409.973L203.384 409.267L205.772 408.599L214.129 405.069L215.323 404.384L216.517 403.482L217.711 402.346L218.904 400.982L220.098 399.387L221.292 397.525L222.486 395.336L223.68 392.78L226.068 386.633L228.456 379.387L230.843 371.101L232.037 366.237L233.231 360.467L234.425 353.476L235.619 345.165L238.007 325.419L240.394 303.019L243.976 265.381L247.558 225.011L249.945 192.608L252.333 159.575L254.721 132.703L257.109 111.323L259.496 93.7463L260.69 86.3082L261.884 80.0671L263.078 75.5025L264.272 72.9092L265.466 72.1924L266.66 73.1485L267.854 75.8221L269.047 80.3978L270.241 86.8169L271.435 94.7202L273.823 113.893L276.211 137.296L283.374 212.669L285.762 235.802L288.15 255.488L291.731 282.246L295.313 310.466L297.701 327.075L300.088 340.954L302.476 352.568L304.864 362.049L306.058 365.778L308.446 371.942L312.027 380.573L314.415 385.594L321.578 398.83L322.772 400.296L323.966 401.434L325.16 402.311L326.354 402.966L333.517 405.951L335.905 406.911L338.293 407.435L344.262 408.255L350.231 408.909L355.007 409.597L362.17 410.028L368.14 410.112L415.895 410.111" fill="#EFEFEF" fill-opacity="0.4"/>
<path d="M178.312 410.111L191.445 409.973L203.384 409.267L205.772 408.599L214.129 405.069L215.323 404.384L216.517 403.482L217.711 402.346L218.904 400.982L220.098 399.387L221.292 397.525L222.486 395.336L223.68 392.78L226.068 386.633L228.456 379.387L230.843 371.101L232.037 366.237L233.231 360.467L234.425 353.476L235.619 345.165L238.007 325.419L240.394 303.019L243.976 265.381L247.558 225.011L249.945 192.608L252.333 159.575L254.721 132.703L257.109 111.323L259.496 93.7463L260.69 86.3082L261.884 80.0671L263.078 75.5025L264.272 72.9092L265.466 72.1924L266.66 73.1485L267.854 75.8221L269.047 80.3978L270.241 86.8169L271.435 94.7202L273.823 113.893L276.211 137.296L283.374 212.669L285.762 235.802L288.15 255.488L291.731 282.246L295.313 310.466L297.701 327.075L300.088 340.954L302.476 352.568L304.864 362.049L306.058 365.778L308.446 371.942L312.027 380.573L314.415 385.594L321.578 398.83L322.772 400.296L323.966 401.434L325.16 402.311L326.354 402.966L333.517 405.951L335.905 406.911L338.293 407.435L344.262 408.255L350.231 408.909L355.007 409.597L362.17 410.028L368.14 410.112L415.895 410.111" stroke="#EFEFEF" stroke-linecap="square"/>
</g>
<mask id="mask9_230_12318" style="mask-type:luminance" maskUnits="userSpaceOnUse" x="76" y="55" width="477" height="356">
<path d="M552.957 55.2959H76.7969V410.112H552.957V55.2959Z" fill="white"/>
</mask>
<g mask="url(#mask9_230_12318)">
<path d="M202.977 410.111L213.007 409.951L231.815 409.191L238.084 408.364L243.099 407.543L245.607 406.869L248.114 405.766L250.622 404.14L253.13 402.001L256.891 398.137L260.653 394.242L266.922 388.06L269.43 384.983L273.191 379.506L278.206 371.922L280.714 367.575L283.222 362.496L285.729 356.689L289.491 346.943L291.999 339.875L294.506 332.01L298.268 318.613L304.537 294.959L318.329 242.097L320.837 234.531L323.344 228.243L325.852 222.961L328.36 218.447L330.867 214.753L333.375 211.893L338.39 206.808L340.898 204.196L342.152 203.308L343.406 203.029L344.659 203.562L345.913 204.985L347.167 207.247L348.421 210.205L350.929 217.615L353.436 226.489L355.944 236.598L359.705 253.323L364.721 277.338L373.498 320.482L379.767 349.738L382.274 360.009L384.782 368.54L386.036 372.075L387.29 375.138L389.797 380.081L393.559 385.997L396.067 390.06L401.082 398.758L402.336 400.595L403.59 402.144L404.843 403.387L406.097 404.345L407.351 405.067L409.859 406.058L416.128 407.819L419.889 408.651L423.651 409.154L431.174 409.772L437.443 409.982L452.489 410.111" fill="#EFEFEF" fill-opacity="0.4"/>
<path d="M202.977 410.111L213.007 409.951L231.815 409.191L238.084 408.364L243.099 407.543L245.607 406.869L248.114 405.766L250.622 404.14L253.13 402.001L256.891 398.137L260.653 394.242L266.922 388.06L269.43 384.983L273.191 379.506L278.206 371.922L280.714 367.575L283.222 362.496L285.729 356.689L289.491 346.943L291.999 339.875L294.506 332.01L298.268 318.613L304.537 294.959L318.329 242.097L320.837 234.531L323.344 228.243L325.852 222.961L328.36 218.447L330.867 214.753L333.375 211.893L338.39 206.808L340.898 204.196L342.152 203.308L343.406 203.029L344.659 203.562L345.913 204.985L347.167 207.247L348.421 210.205L350.929 217.615L353.436 226.489L355.944 236.598L359.705 253.323L364.721 277.338L373.498 320.482L379.767 349.738L382.274 360.009L384.782 368.54L386.036 372.075L387.29 375.138L389.797 380.081L393.559 385.997L396.067 390.06L401.082 398.758L402.336 400.595L403.59 402.144L404.843 403.387L406.097 404.345L407.351 405.067L409.859 406.058L416.128 407.819L419.889 408.651L423.651 409.154L431.174 409.772L437.443 409.982L452.489 410.111" stroke="#EFEFEF" stroke-linecap="square"/>
</g>
<mask id="mask10_230_12318" style="mask-type:luminance" maskUnits="userSpaceOnUse" x="76" y="55" width="477" height="356">
<path d="M552.957 55.2959H76.7969V410.112H552.957V55.2959Z" fill="white"/>
</mask>
<g mask="url(#mask10_230_12318)">
<path d="M166.328 410.111L174.405 409.972L180.174 409.897L187.098 410.013L191.713 409.802L195.175 409.419L198.636 408.705L202.098 407.589L205.56 406.087L209.021 404.343L211.329 402.962L213.637 401.148L215.944 398.698L218.252 395.552L220.56 391.741L222.867 387.264L225.175 381.906L227.483 375.273L229.791 367.313L232.098 358.367L234.406 348.359L236.714 336.614L239.022 322.491L241.329 305.868L244.791 277.526L251.714 218.301L254.022 202.875L256.33 189.814L258.637 178.678L259.791 174.156L260.945 170.466L262.099 167.514L264.407 162.9L266.714 159.169L267.868 157.931L269.022 157.438L270.176 157.844L271.33 159.15L272.484 161.245L273.637 163.976L274.791 167.218L277.099 175.02L279.407 184.366L282.868 200.149L285.176 212.023L293.253 256.663L299.023 285.079L302.484 300.108L312.869 343.448L315.177 350.779L317.484 356.722L323.254 369.963L325.561 374.712L329.023 380.827L332.485 386.312L334.792 389.326L337.1 391.752L341.715 395.894L347.485 400.864L349.793 402.579L352.1 403.869L354.408 404.721L361.331 406.851L364.793 407.832L369.408 408.63L374.024 409.143L380.947 409.517L395.947 410.111" fill="#EFEFEF" fill-opacity="0.4"/>
<path d="M166.328 410.111L174.405 409.972L180.174 409.897L187.098 410.013L191.713 409.802L195.175 409.419L198.636 408.705L202.098 407.589L205.56 406.087L209.021 404.343L211.329 402.962L213.637 401.148L215.944 398.698L218.252 395.552L220.56 391.741L222.867 387.264L225.175 381.906L227.483 375.273L229.791 367.313L232.098 358.367L234.406 348.359L236.714 336.614L239.022 322.491L241.329 305.868L244.791 277.526L251.714 218.301L254.022 202.875L256.33 189.814L258.637 178.678L259.791 174.156L260.945 170.466L262.099 167.514L264.407 162.9L266.714 159.169L267.868 157.931L269.022 157.438L270.176 157.844L271.33 159.15L272.484 161.245L273.637 163.976L274.791 167.218L277.099 175.02L279.407 184.366L282.868 200.149L285.176 212.023L293.253 256.663L299.023 285.079L302.484 300.108L312.869 343.448L315.177 350.779L317.484 356.722L323.254 369.963L325.561 374.712L329.023 380.827L332.485 386.312L334.792 389.326L337.1 391.752L341.715 395.894L347.485 400.864L349.793 402.579L352.1 403.869L354.408 404.721L361.331 406.851L364.793 407.832L369.408 408.63L374.024 409.143L380.947 409.517L395.947 410.111" stroke="#EFEFEF" stroke-linecap="square"/>
</g>
<mask id="mask11_230_12318" style="mask-type:luminance" maskUnits="userSpaceOnUse" x="76" y="55" width="477" height="356">
<path d="M552.957 55.2959H76.7969V410.112H552.957V55.2959Z" fill="white"/>
</mask>
<g mask="url(#mask11_230_12318)">
<path d="M188.758 410.111L215.811 409.952L222.575 409.692L225.956 409.347L229.338 408.755L232.72 407.84L236.101 406.537L239.483 404.835L244.556 401.73L249.628 398.319L253.01 395.807L256.392 392.843L259.773 389.213L263.155 384.892L271.609 373.226L274.991 369.153L288.518 353.761L296.972 343.094L300.353 338.493L303.735 333.448L315.571 314.913L320.644 307.105L327.407 296.397L329.098 294.112L330.789 292.152L332.479 290.553L334.17 289.303L335.861 288.34L346.006 283.589L349.388 281.949L351.079 281.362L352.77 280.99L354.46 280.847L356.151 280.927L357.842 281.221L359.533 281.72L361.224 282.421L362.915 283.32L366.296 285.643L369.678 288.453L373.06 291.556L376.441 295.054L379.823 299.239L383.205 304.262L386.586 309.983L400.113 334.314L406.877 346.639L410.258 351.997L413.64 356.485L417.022 360.326L422.094 365.865L425.476 369.93L433.93 380.624L437.312 384.096L440.693 386.959L447.457 391.953L452.529 395.377L455.911 397.35L464.365 401.719L469.438 404.189L472.819 405.498L476.201 406.435L481.274 407.388L493.11 409.22L498.182 409.594L513.4 409.994L525.236 410.11" fill="#EFEFEF" fill-opacity="0.4"/>
<path d="M188.758 410.111L215.811 409.952L222.575 409.692L225.956 409.347L229.338 408.755L232.72 407.84L236.101 406.537L239.483 404.835L244.556 401.73L249.628 398.319L253.01 395.807L256.392 392.843L259.773 389.213L263.155 384.892L271.609 373.226L274.991 369.153L288.518 353.761L296.972 343.094L300.353 338.493L303.735 333.448L315.571 314.913L320.644 307.105L327.407 296.397L329.098 294.112L330.789 292.152L332.479 290.553L334.17 289.303L335.861 288.34L346.006 283.589L349.388 281.949L351.079 281.362L352.77 280.99L354.46 280.847L356.151 280.927L357.842 281.221L359.533 281.72L361.224 282.421L362.915 283.32L366.296 285.643L369.678 288.453L373.06 291.556L376.441 295.054L379.823 299.239L383.205 304.262L386.586 309.983L400.113 334.314L406.877 346.639L410.258 351.997L413.64 356.485L417.022 360.326L422.094 365.865L425.476 369.93L433.93 380.624L437.312 384.096L440.693 386.959L447.457 391.953L452.529 395.377L455.911 397.35L464.365 401.719L469.438 404.189L472.819 405.498L476.201 406.435L481.274 407.388L493.11 409.22L498.182 409.594L513.4 409.994L525.236 410.11" stroke="#EFEFEF" stroke-linecap="square"/>
</g>
<mask id="mask12_230_12318" style="mask-type:luminance" maskUnits="userSpaceOnUse" x="76" y="55" width="477" height="356">
<path d="M552.957 55.2959H76.7969V410.112H552.957V55.2959Z" fill="white"/>
</mask>
<g mask="url(#mask12_230_12318)">
<path d="M198.516 410.111L212.878 409.948L221.716 409.744L225.03 409.298L230.554 408.408L233.868 407.908L237.183 406.993L246.021 403.917L248.23 402.785L250.44 401.336L252.65 399.498L254.859 397.135L257.069 394.13L259.278 390.536L263.697 382.537L267.012 376.119L269.221 371.365L272.536 363.361L275.85 355.561L281.374 344.179L283.583 338.161L286.898 327.638L290.212 316.402L292.421 307.613L294.631 297.125L300.155 268.907L303.469 254.397L305.679 245.733L308.993 234.113L312.307 222.158L316.727 205.209L317.831 201.706L318.936 198.787L320.041 196.521L321.146 194.909L322.25 193.878L323.355 193.286L325.565 192.755L327.774 192.269L329.984 191.447L332.193 190.509L333.298 190.341L334.403 190.693L335.508 191.797L336.612 193.775L337.717 196.593L339.927 204.016L343.241 217.2L345.451 227.191L347.66 238.358L350.975 256.822L354.289 277.235L358.708 304.75L362.022 323.023L366.441 345.428L369.756 360.489L371.965 369.311L374.175 377.168L376.384 383.917L378.594 389.344L380.803 393.576L383.013 397.039L385.223 400.012L387.432 402.503L389.642 404.494L391.851 406.096L394.061 407.414L396.27 408.416L398.48 409.049L401.794 409.502L408.423 409.937L415.051 410.101L418.366 410.11" fill="#EFEFEF" fill-opacity="0.4"/>
<path d="M198.516 410.111L212.878 409.948L221.716 409.744L225.03 409.298L230.554 408.408L233.868 407.908L237.183 406.993L246.021 403.917L248.23 402.785L250.44 401.336L252.65 399.498L254.859 397.135L257.069 394.13L259.278 390.536L263.697 382.537L267.012 376.119L269.221 371.365L272.536 363.361L275.85 355.561L281.374 344.179L283.583 338.161L286.898 327.638L290.212 316.402L292.421 307.613L294.631 297.125L300.155 268.907L303.469 254.397L305.679 245.733L308.993 234.113L312.307 222.158L316.727 205.209L317.831 201.706L318.936 198.787L320.041 196.521L321.146 194.909L322.25 193.878L323.355 193.286L325.565 192.755L327.774 192.269L329.984 191.447L332.193 190.509L333.298 190.341L334.403 190.693L335.508 191.797L336.612 193.775L337.717 196.593L339.927 204.016L343.241 217.2L345.451 227.191L347.66 238.358L350.975 256.822L354.289 277.235L358.708 304.75L362.022 323.023L366.441 345.428L369.756 360.489L371.965 369.311L374.175 377.168L376.384 383.917L378.594 389.344L380.803 393.576L383.013 397.039L385.223 400.012L387.432 402.503L389.642 404.494L391.851 406.096L394.061 407.414L396.27 408.416L398.48 409.049L401.794 409.502L408.423 409.937L415.051 410.101L418.366 410.11" stroke="#EFEFEF" stroke-linecap="square"/>
</g>
<mask id="mask13_230_12318" style="mask-type:luminance" maskUnits="userSpaceOnUse" x="76" y="55" width="477" height="356">
<path d="M552.957 55.2959H76.7969V410.112H552.957V55.2959Z" fill="white"/>
</mask>
<g mask="url(#mask13_230_12318)">
<path d="M197.289 410.11L206.413 409.965L212.93 409.839L225.963 409.904L231.177 409.562L238.997 408.656L241.604 408.063L244.211 407.071L246.817 405.658L253.334 401.478L255.941 399.656L258.548 397.429L261.155 394.606L263.761 391.081L266.368 386.784L268.975 381.815L283.312 352.679L285.919 346.405L288.526 338.99L291.132 330.54L298.953 303.842L302.863 292.183L308.076 277.891L310.683 271.491L313.29 265.746L317.2 257.927L326.324 240.309L327.627 238.413L328.93 236.893L330.234 235.751L331.537 234.953L332.84 234.448L334.144 234.189L335.447 234.148L336.751 234.314L338.054 234.68L340.661 235.914L344.571 238.36L347.178 240.399L348.481 241.778L349.784 243.529L351.088 245.715L352.391 248.351L354.998 254.789L357.605 262.247L370.638 301.984L374.548 315.433L378.459 329.039L381.065 337.05L383.672 344.084L388.886 357.594L394.099 371.329L396.706 377.125L399.313 382.117L403.223 388.75L405.83 392.753L408.436 396.307L411.043 399.295L413.65 401.713L416.257 403.66L418.863 405.211L421.47 406.366L424.077 407.142L427.987 407.83L443.628 409.847L450.144 410.078L456.661 410.111" fill="#EFEFEF" fill-opacity="0.4"/>
<path d="M197.289 410.11L206.413 409.965L212.93 409.839L225.963 409.904L231.177 409.562L238.997 408.656L241.604 408.063L244.211 407.071L246.817 405.658L253.334 401.478L255.941 399.656L258.548 397.429L261.155 394.606L263.761 391.081L266.368 386.784L268.975 381.815L283.312 352.679L285.919 346.405L288.526 338.99L291.132 330.54L298.953 303.842L302.863 292.183L308.076 277.891L310.683 271.491L313.29 265.746L317.2 257.927L326.324 240.309L327.627 238.413L328.93 236.893L330.234 235.751L331.537 234.953L332.84 234.448L334.144 234.189L335.447 234.148L336.751 234.314L338.054 234.68L340.661 235.914L344.571 238.36L347.178 240.399L348.481 241.778L349.784 243.529L351.088 245.715L352.391 248.351L354.998 254.789L357.605 262.247L370.638 301.984L374.548 315.433L378.459 329.039L381.065 337.05L383.672 344.084L388.886 357.594L394.099 371.329L396.706 377.125L399.313 382.117L403.223 388.75L405.83 392.753L408.436 396.307L411.043 399.295L413.65 401.713L416.257 403.66L418.863 405.211L421.47 406.366L424.077 407.142L427.987 407.83L443.628 409.847L450.144 410.078L456.661 410.111" stroke="#EFEFEF" stroke-linecap="square"/>
</g>
<mask id="mask14_230_12318" style="mask-type:luminance" maskUnits="userSpaceOnUse" x="76" y="55" width="477" height="356">
<path d="M552.957 55.2959H76.7969V410.112H552.957V55.2959Z" fill="white"/>
</mask>
<g mask="url(#mask14_230_12318)">
<path d="M98.4375 410.111L148.498 409.892L154.756 409.276L156.32 409.018L157.885 408.61L159.449 408.018L161.014 407.248L162.578 406.303L164.142 405.149L165.707 403.734L167.271 402.028L168.836 399.971L170.4 397.415L171.964 394.156L173.529 390.102L175.093 385.362L178.222 374.522L181.351 362.158L184.48 348.123L186.044 340.418L187.608 331.915L189.173 322.08L190.737 310.625L195.43 273.202L200.124 239.662L201.688 226.605L206.381 184.736L207.946 173.265L211.074 153.47L212.639 145.032L214.203 138.342L215.768 133.876L217.332 131.933L218.896 132.603L220.461 135.391L223.59 143.291L225.154 147.535L226.718 152.781L228.283 159.872L229.847 168.849L234.54 198.184L240.798 235.282L245.491 264.847L250.184 294.841L251.749 304.004L253.313 312.275L254.878 319.578L258.006 332.051L261.135 343.324L264.264 353.321L267.393 362.764L270.522 372.801L272.086 377.279L273.65 381.016L275.215 384.072L278.344 388.984L281.472 393.08L286.166 398.885L287.73 400.524L290.859 403.046L293.988 405.315L295.552 406.254L297.116 406.879L298.681 407.201L303.374 407.74L309.632 408.855L319.018 409.525L326.84 409.945L337.791 409.947L344.048 410.107L394.109 410.097L405.06 410.082L409.753 410.111" fill="#7EB0D5" fill-opacity="0.4"/>
<path d="M98.4375 410.111L148.498 409.892L154.756 409.276L156.32 409.018L157.885 408.61L159.449 408.018L161.014 407.248L162.578 406.303L164.142 405.149L165.707 403.734L167.271 402.028L168.836 399.971L170.4 397.415L171.964 394.156L173.529 390.102L175.093 385.362L178.222 374.522L181.351 362.158L184.48 348.123L186.044 340.418L187.608 331.915L189.173 322.08L190.737 310.625L195.43 273.202L200.124 239.662L201.688 226.605L206.381 184.736L207.946 173.265L211.074 153.47L212.639 145.032L214.203 138.342L215.768 133.876L217.332 131.933L218.896 132.603L220.461 135.391L223.59 143.291L225.154 147.535L226.718 152.781L228.283 159.872L229.847 168.849L234.54 198.184L240.798 235.282L245.491 264.847L250.184 294.841L251.749 304.004L253.313 312.275L254.878 319.578L258.006 332.051L261.135 343.324L264.264 353.321L267.393 362.764L270.522 372.801L272.086 377.279L273.65 381.016L275.215 384.072L278.344 388.984L281.472 393.08L286.166 398.885L287.73 400.524L290.859 403.046L293.988 405.315L295.552 406.254L297.116 406.879L298.681 407.201L303.374 407.74L309.632 408.855L319.018 409.525L326.84 409.945L337.791 409.947L344.048 410.107L394.109 410.097L405.06 410.082L409.753 410.111" stroke="#7EB0D5" stroke-linecap="square"/>
</g>
<path d="M535.061 411.061C535.646 410.475 535.646 409.525 535.061 408.939L525.515 399.393C524.929 398.808 523.979 398.808 523.393 399.393C522.808 399.979 522.808 400.929 523.393 401.515L531.879 410L523.393 418.485C522.808 419.071 522.808 420.021 523.393 420.607C523.979 421.192 524.929 421.192 525.515 420.607L535.061 411.061ZM79 411.5H534V408.5H79V411.5Z" fill="black"/>
</g>
<defs>
<clipPath id="clip0_230_12318">
<rect width="614.4" height="460.8" fill="white"/>
</clipPath>
</defs>
</svg>
