<svg width="615" height="461" viewBox="0 0 615 461" fill="none" xmlns="http://www.w3.org/2000/svg">
<g clip-path="url(#clip0_230_11918)">
<mask id="mask0_230_11918" style="mask-type:luminance" maskUnits="userSpaceOnUse" x="76" y="55" width="477" height="356">
<path d="M552.957 55.2959H76.7969V410.112H552.957V55.2959Z" fill="white"/>
</mask>
<g mask="url(#mask0_230_11918)">
<path d="M265.242 410.111L271.619 409.981L277.995 409.451L284.372 408.462L286.923 407.76L289.473 406.691L292.024 405.158L293.299 404.089L294.575 402.734L297.125 399.212L299.676 394.869L300.951 392.181L302.227 388.933L303.502 385.077L306.052 375.734L308.603 364.225L311.154 350.258L313.704 335.581L322.632 289.347L323.907 284.45L325.182 280.616L327.733 274.727L329.008 272.18L330.284 270.079L331.559 268.867L332.834 268.935L334.11 270.392L335.385 273.001L336.66 276.346L339.211 284.315L340.486 289.037L343.037 300.03L345.587 312.049L348.138 325.356L350.689 338.892L351.964 344.482L354.515 353.298L360.891 374.458L363.442 380.907L365.993 386.593L367.268 389.012L368.543 391.086L371.094 394.443L373.645 397.181L376.195 399.459L381.296 403.641L382.572 404.427L385.122 405.403L388.948 406.298L392.774 406.745L397.876 408.14L402.977 408.858L406.803 409.361L411.904 409.539L420.831 409.43L423.382 409.581L433.585 409.685L438.686 409.888L445.063 409.927L450.164 409.949L456.54 409.939L519.031 410.111" fill="#EFEFEF" fill-opacity="0.4"/>
<path d="M265.242 410.111L271.619 409.981L277.995 409.451L284.372 408.462L286.923 407.76L289.473 406.691L292.024 405.158L293.299 404.089L294.575 402.734L297.125 399.212L299.676 394.869L300.951 392.181L302.227 388.933L303.502 385.077L306.052 375.734L308.603 364.225L311.154 350.258L313.704 335.581L322.632 289.347L323.907 284.45L325.182 280.616L327.733 274.727L329.008 272.18L330.284 270.079L331.559 268.867L332.834 268.935L334.11 270.392L335.385 273.001L336.66 276.346L339.211 284.315L340.486 289.037L343.037 300.03L345.587 312.049L348.138 325.356L350.689 338.892L351.964 344.482L354.515 353.298L360.891 374.458L363.442 380.907L365.993 386.593L367.268 389.012L368.543 391.086L371.094 394.443L373.645 397.181L376.195 399.459L381.296 403.641L382.572 404.427L385.122 405.403L388.948 406.298L392.774 406.745L397.876 408.14L402.977 408.858L406.803 409.361L411.904 409.539L420.831 409.43L423.382 409.581L433.585 409.685L438.686 409.888L445.063 409.927L450.164 409.949L456.54 409.939L519.031 410.111" stroke="#EFEFEF" stroke-linecap="square"/>
</g>
<mask id="mask1_230_11918" style="mask-type:luminance" maskUnits="userSpaceOnUse" x="76" y="55" width="477" height="356">
<path d="M552.957 55.2959H76.7969V410.112H552.957V55.2959Z" fill="white"/>
</mask>
<g mask="url(#mask1_230_11918)">
<path d="M254.758 410.111L261.706 410.006L264.486 409.759L265.876 409.504L267.265 409.092L268.655 408.443L270.045 407.459L271.435 406.033L272.824 404.048L274.214 401.388L275.604 397.945L276.993 393.632L278.383 388.409L279.773 382.317L282.552 368.237L286.722 346.66L289.501 333.799L292.28 322.022L293.67 316.865L295.06 312.528L296.45 309.167L297.839 306.799L299.229 305.363L300.619 304.785L302.009 304.995L303.398 305.882L304.788 307.262L310.347 314.039L311.737 315.94L313.126 318.135L315.906 323.475L320.075 332.905L322.854 338.958L325.634 344.003L327.024 346.078L328.413 347.851L329.803 349.34L332.583 351.707L335.362 354.063L336.752 355.547L339.531 359.177L342.311 362.906L345.09 365.943L347.87 368.68L349.259 370.23L350.649 372.016L353.429 376.384L358.987 385.963L361.767 389.867L364.546 393.207L367.326 395.976L370.105 398.241L375.664 402.126L379.833 405.008L381.223 405.787L382.613 406.388L385.392 407.132L390.951 407.955L403.459 409.474L410.407 409.818L442.371 409.998L449.32 410.018L485.453 410.028L500.74 410.112L531.314 410.111" fill="#EFEFEF" fill-opacity="0.4"/>
<path d="M254.758 410.111L261.706 410.006L264.486 409.759L265.876 409.504L267.265 409.092L268.655 408.443L270.045 407.459L271.435 406.033L272.824 404.048L274.214 401.388L275.604 397.945L276.993 393.632L278.383 388.409L279.773 382.317L282.552 368.237L286.722 346.66L289.501 333.799L292.28 322.022L293.67 316.865L295.06 312.528L296.45 309.167L297.839 306.799L299.229 305.363L300.619 304.785L302.009 304.995L303.398 305.882L304.788 307.262L310.347 314.039L311.737 315.94L313.126 318.135L315.906 323.475L320.075 332.905L322.854 338.958L325.634 344.003L327.024 346.078L328.413 347.851L329.803 349.34L332.583 351.707L335.362 354.063L336.752 355.547L339.531 359.177L342.311 362.906L345.09 365.943L347.87 368.68L349.259 370.23L350.649 372.016L353.429 376.384L358.987 385.963L361.767 389.867L364.546 393.207L367.326 395.976L370.105 398.241L375.664 402.126L379.833 405.008L381.223 405.787L382.613 406.388L385.392 407.132L390.951 407.955L403.459 409.474L410.407 409.818L442.371 409.998L449.32 410.018L485.453 410.028L500.74 410.112L531.314 410.111" stroke="#EFEFEF" stroke-linecap="square"/>
</g>
<mask id="mask2_230_11918" style="mask-type:luminance" maskUnits="userSpaceOnUse" x="76" y="55" width="477" height="356">
<path d="M552.957 55.2959H76.7969V410.112H552.957V55.2959Z" fill="white"/>
</mask>
<g mask="url(#mask2_230_11918)">
<path d="M280.109 410.111L288.57 409.941L290.987 409.731L292.196 409.413L293.404 408.927L294.613 408.261L295.822 407.389L298.239 405.005L299.448 403.528L300.656 401.779L301.865 399.609L304.282 394.115L306.699 387.897L307.908 384.065L310.325 374.571L312.743 363.532L315.16 350.426L318.786 329.929L321.203 316.299L328.455 269.266L329.664 263.453L330.872 258.862L332.081 255.153L333.289 252.128L334.498 249.536L335.707 247.443L336.915 246.708L338.124 248.305L339.333 252.316L340.541 257.99L344.167 278.338L346.584 293.133L350.21 319.451L352.628 332.342L355.045 345.504L357.462 360.609L358.671 367.233L359.88 372.591L361.088 376.893L363.505 384.058L365.923 390.05L369.549 397.155L370.757 399.349L371.966 401.077L373.175 402.229L375.592 403.754L378.009 405.001L380.426 406.039L384.052 407.975L386.47 408.471L394.93 409.426L409.434 409.968L414.268 409.982L419.103 410.092L431.189 410.061L450.527 410.078L460.197 410.055L467.448 410.112L520.628 410.111" fill="#EFEFEF" fill-opacity="0.4"/>
<path d="M280.109 410.111L288.57 409.941L290.987 409.731L292.196 409.413L293.404 408.927L294.613 408.261L295.822 407.389L298.239 405.005L299.448 403.528L300.656 401.779L301.865 399.609L304.282 394.115L306.699 387.897L307.908 384.065L310.325 374.571L312.743 363.532L315.16 350.426L318.786 329.929L321.203 316.299L328.455 269.266L329.664 263.453L330.872 258.862L332.081 255.153L333.289 252.128L334.498 249.536L335.707 247.443L336.915 246.708L338.124 248.305L339.333 252.316L340.541 257.99L344.167 278.338L346.584 293.133L350.21 319.451L352.628 332.342L355.045 345.504L357.462 360.609L358.671 367.233L359.88 372.591L361.088 376.893L363.505 384.058L365.923 390.05L369.549 397.155L370.757 399.349L371.966 401.077L373.175 402.229L375.592 403.754L378.009 405.001L380.426 406.039L384.052 407.975L386.47 408.471L394.93 409.426L409.434 409.968L414.268 409.982L419.103 410.092L431.189 410.061L450.527 410.078L460.197 410.055L467.448 410.112L520.628 410.111" stroke="#EFEFEF" stroke-linecap="square"/>
</g>
<mask id="mask3_230_11918" style="mask-type:luminance" maskUnits="userSpaceOnUse" x="76" y="55" width="477" height="356">
<path d="M552.957 55.2959H76.7969V410.112H552.957V55.2959Z" fill="white"/>
</mask>
<g mask="url(#mask3_230_11918)">
<path d="M280.578 410.111L299.915 409.966L307.877 409.708L312.427 409.554L320.389 408.757L321.527 408.426L328.351 405.22L330.626 403.574L335.176 399.716L336.314 398.334L337.451 396.596L338.589 394.442L339.726 391.766L340.863 388.389L342.001 384.17L344.276 373.902L348.826 352.687L351.101 339.497L352.238 332.607L353.375 326.639L354.513 322.396L355.65 320.142L356.788 319.403L357.925 319.126L359.063 318.251L360.2 316.327L361.338 313.598L363.613 306.974L364.75 302.803L365.887 297.748L367.025 291.76L369.3 277.055L371.575 262.128L372.712 256.459L373.85 252.238L374.987 249.176L376.125 247.091L377.262 246.147L378.4 246.633L379.537 248.672L380.674 252.353L381.812 257.94L382.949 265.632L385.224 285.892L390.912 342.018L393.186 360.461L395.461 375.456L396.599 381.555L397.736 386.545L398.874 390.525L400.011 393.769L402.286 399.028L403.424 401.223L404.561 403.09L405.699 404.586L406.836 405.711L407.973 406.505L409.111 407.016L411.386 407.509L423.898 409.579L426.173 409.654L430.723 409.653L435.272 409.883L452.334 410.04L458.022 410.071L467.121 410.111L506.932 410.111" fill="#EFEFEF" fill-opacity="0.4"/>
<path d="M280.578 410.111L299.915 409.966L307.877 409.708L312.427 409.554L320.389 408.757L321.527 408.426L328.351 405.22L330.626 403.574L335.176 399.716L336.314 398.334L337.451 396.596L338.589 394.442L339.726 391.766L340.863 388.389L342.001 384.17L344.276 373.902L348.826 352.687L351.101 339.497L352.238 332.607L353.375 326.639L354.513 322.396L355.65 320.142L356.788 319.403L357.925 319.126L359.063 318.251L360.2 316.327L361.338 313.598L363.613 306.974L364.75 302.803L365.887 297.748L367.025 291.76L369.3 277.055L371.575 262.128L372.712 256.459L373.85 252.238L374.987 249.176L376.125 247.091L377.262 246.147L378.4 246.633L379.537 248.672L380.674 252.353L381.812 257.94L382.949 265.632L385.224 285.892L390.912 342.018L393.186 360.461L395.461 375.456L396.599 381.555L397.736 386.545L398.874 390.525L400.011 393.769L402.286 399.028L403.424 401.223L404.561 403.09L405.699 404.586L406.836 405.711L407.973 406.505L409.111 407.016L411.386 407.509L423.898 409.579L426.173 409.654L430.723 409.653L435.272 409.883L452.334 410.04L458.022 410.071L467.121 410.111L506.932 410.111" stroke="#EFEFEF" stroke-linecap="square"/>
</g>
<mask id="mask4_230_11918" style="mask-type:luminance" maskUnits="userSpaceOnUse" x="76" y="55" width="477" height="356">
<path d="M552.957 55.2959H76.7969V410.112H552.957V55.2959Z" fill="white"/>
</mask>
<g mask="url(#mask4_230_11918)">
<path d="M256.328 410.111L266.55 410.003L269.106 409.791L271.661 409.24L272.939 408.76L274.217 408.09L275.494 407.178L276.772 405.977L278.05 404.458L279.328 402.612L280.605 400.43L281.883 397.884L283.161 394.944L285.717 387.929L289.55 375.667L297.216 350.037L301.05 338.698L303.605 332.127L308.716 320.587L311.272 315.273L312.549 313.13L313.827 311.505L315.105 310.479L316.383 310.064L317.66 310.176L320.216 311.214L324.049 312.903L325.327 313.823L326.605 315.142L329.16 318.587L331.716 322.301L332.993 324.438L334.271 326.98L336.827 333.091L339.382 339.23L341.938 344.586L349.604 359.524L352.16 363.884L354.715 368.112L361.104 379.487L364.937 384.6L371.326 393.199L373.882 395.874L378.993 400.466L381.548 402.5L384.104 404.065L387.937 405.807L390.492 406.735L393.048 407.389L395.604 407.732L399.437 408.126L405.826 409.154L417.325 409.902L423.714 409.861L437.769 409.932L453.103 410.091L472.269 410.111L510.602 410.111" fill="#EFEFEF" fill-opacity="0.4"/>
<path d="M256.328 410.111L266.55 410.003L269.106 409.791L271.661 409.24L272.939 408.76L274.217 408.09L275.494 407.178L276.772 405.977L278.05 404.458L279.328 402.612L280.605 400.43L281.883 397.884L283.161 394.944L285.717 387.929L289.55 375.667L297.216 350.037L301.05 338.698L303.605 332.127L308.716 320.587L311.272 315.273L312.549 313.13L313.827 311.505L315.105 310.479L316.383 310.064L317.66 310.176L320.216 311.214L324.049 312.903L325.327 313.823L326.605 315.142L329.16 318.587L331.716 322.301L332.993 324.438L334.271 326.98L336.827 333.091L339.382 339.23L341.938 344.586L349.604 359.524L352.16 363.884L354.715 368.112L361.104 379.487L364.937 384.6L371.326 393.199L373.882 395.874L378.993 400.466L381.548 402.5L384.104 404.065L387.937 405.807L390.492 406.735L393.048 407.389L395.604 407.732L399.437 408.126L405.826 409.154L417.325 409.902L423.714 409.861L437.769 409.932L453.103 410.091L472.269 410.111L510.602 410.111" stroke="#EFEFEF" stroke-linecap="square"/>
</g>
<mask id="mask5_230_11918" style="mask-type:luminance" maskUnits="userSpaceOnUse" x="76" y="55" width="477" height="356">
<path d="M552.957 55.2959H76.7969V410.112H552.957V55.2959Z" fill="white"/>
</mask>
<g mask="url(#mask5_230_11918)">
<path d="M285.172 410.111L301.868 409.867L304.998 409.581L307.086 409.452L309.173 409.321L312.303 409.336L314.39 409.231L315.434 409.364L316.477 409.323L317.521 408.884L318.564 408.268L319.608 407.889L321.695 407.654L322.738 407.316L324.825 406.237L326.912 404.879L328.999 403.986L331.086 402.294L332.13 401.039L333.173 398.895L334.217 396.312L335.26 393.187L336.304 389.054L337.347 383.778L339.434 369.931L340.478 362.229L341.521 353.057L342.565 340.056L344.652 306.859L345.695 286.674L347.782 236.069L351.956 116.962L353 96.3056L354.043 80.5139L355.087 72.1924L356.13 75.0075L357.174 87.4544L358.217 104.019L359.261 123.299L360.304 147.841L362.391 216.67L365.522 315.985L366.565 342.56L367.609 362.065L368.652 375.466L369.696 385.668L370.739 393.47L371.783 398.932L372.826 402.381L373.87 404.369L374.913 405.844L375.957 406.963L378.044 408.163L379.087 408.659L380.131 408.863L382.218 408.823L385.348 409.607L386.392 409.747L387.435 409.667L388.479 409.388L389.522 409.349L391.61 409.788L394.74 409.624L398.914 409.754L402.045 409.646L404.132 409.929L406.219 409.783L409.349 409.917L411.436 409.869L413.523 409.841L415.61 409.783L418.741 410.036L426.045 409.876L428.132 410.071L434.393 409.888L436.48 410.05L439.611 409.944L442.741 409.996L492.83 410.111" fill="#EFEFEF" fill-opacity="0.4"/>
<path d="M285.172 410.111L301.868 409.867L304.998 409.581L307.086 409.452L309.173 409.321L312.303 409.336L314.39 409.231L315.434 409.364L316.477 409.323L317.521 408.884L318.564 408.268L319.608 407.889L321.695 407.654L322.738 407.316L324.825 406.237L326.912 404.879L328.999 403.986L331.086 402.294L332.13 401.039L333.173 398.895L334.217 396.312L335.26 393.187L336.304 389.054L337.347 383.778L339.434 369.931L340.478 362.229L341.521 353.057L342.565 340.056L344.652 306.859L345.695 286.674L347.782 236.069L351.956 116.962L353 96.3056L354.043 80.5139L355.087 72.1924L356.13 75.0075L357.174 87.4544L358.217 104.019L359.261 123.299L360.304 147.841L362.391 216.67L365.522 315.985L366.565 342.56L367.609 362.065L368.652 375.466L369.696 385.668L370.739 393.47L371.783 398.932L372.826 402.381L373.87 404.369L374.913 405.844L375.957 406.963L378.044 408.163L379.087 408.659L380.131 408.863L382.218 408.823L385.348 409.607L386.392 409.747L387.435 409.667L388.479 409.388L389.522 409.349L391.61 409.788L394.74 409.624L398.914 409.754L402.045 409.646L404.132 409.929L406.219 409.783L409.349 409.917L411.436 409.869L413.523 409.841L415.61 409.783L418.741 410.036L426.045 409.876L428.132 410.071L434.393 409.888L436.48 410.05L439.611 409.944L442.741 409.996L492.83 410.111" stroke="#EFEFEF" stroke-linecap="square"/>
</g>
<mask id="mask6_230_11918" style="mask-type:luminance" maskUnits="userSpaceOnUse" x="76" y="55" width="477" height="356">
<path d="M552.957 55.2959H76.7969V410.112H552.957V55.2959Z" fill="white"/>
</mask>
<g mask="url(#mask6_230_11918)">
<path d="M270.336 410.111L277.277 410L281.905 409.663L285.376 408.942L287.689 408.26L290.003 407.277L292.317 405.992L294.631 404.288L295.788 403.074L296.945 401.486L298.101 399.472L299.258 397.023L300.415 394.142L302.729 387.054L305.043 378.227L307.357 367.939L311.984 345.54L314.298 333.432L317.769 313.08L320.083 299.792L322.396 288.152L323.553 283.107L324.71 278.831L325.867 275.577L327.024 273.411L328.181 272.101L329.338 271.266L330.495 270.699L331.651 270.593L332.808 271.462L333.965 273.802L335.122 277.736L337.436 288.528L339.75 298.76L344.377 316.185L350.162 339.917L352.476 348.217L354.789 354.566L358.26 363.287L362.888 375.959L365.201 380.975L366.358 382.913L368.672 385.935L373.3 391.335L375.614 394.151L377.927 396.399L384.869 401.633L389.496 404.559L391.81 405.685L394.124 406.344L398.751 407.436L402.222 408.438L404.536 408.75L410.32 409.213L414.948 409.647L418.419 409.675L424.203 409.611L446.184 410.065L455.439 410.088L469.322 410.054L485.519 410.11L500.558 410.111" fill="#EFEFEF" fill-opacity="0.4"/>
<path d="M270.336 410.111L277.277 410L281.905 409.663L285.376 408.942L287.689 408.26L290.003 407.277L292.317 405.992L294.631 404.288L295.788 403.074L296.945 401.486L298.101 399.472L299.258 397.023L300.415 394.142L302.729 387.054L305.043 378.227L307.357 367.939L311.984 345.54L314.298 333.432L317.769 313.08L320.083 299.792L322.396 288.152L323.553 283.107L324.71 278.831L325.867 275.577L327.024 273.411L328.181 272.101L329.338 271.266L330.495 270.699L331.651 270.593L332.808 271.462L333.965 273.802L335.122 277.736L337.436 288.528L339.75 298.76L344.377 316.185L350.162 339.917L352.476 348.217L354.789 354.566L358.26 363.287L362.888 375.959L365.201 380.975L366.358 382.913L368.672 385.935L373.3 391.335L375.614 394.151L377.927 396.399L384.869 401.633L389.496 404.559L391.81 405.685L394.124 406.344L398.751 407.436L402.222 408.438L404.536 408.75L410.32 409.213L414.948 409.647L418.419 409.675L424.203 409.611L446.184 410.065L455.439 410.088L469.322 410.054L485.519 410.11L500.558 410.111" stroke="#EFEFEF" stroke-linecap="square"/>
</g>
<mask id="mask7_230_11918" style="mask-type:luminance" maskUnits="userSpaceOnUse" x="76" y="55" width="477" height="356">
<path d="M552.957 55.2959H76.7969V410.112H552.957V55.2959Z" fill="white"/>
</mask>
<g mask="url(#mask7_230_11918)">
<path d="M275.32 410.112L284.139 409.979L287.919 409.818L296.738 408.81L297.998 408.302L300.518 406.753L301.778 405.755L303.038 404.54L305.557 401.417L306.817 399.543L308.077 397.316L309.337 394.466L310.597 390.661L311.857 385.599L313.117 379.113L314.377 371.163L315.636 361.738L316.896 350.786L318.156 338.179L319.416 323.704L321.936 289.453L324.456 253.925L325.716 238.905L326.975 227.093L328.235 218.938L329.495 214.272L330.755 212.499L332.015 213.207L333.275 216.418L334.535 222.092L335.795 229.724L338.314 248.633L340.834 271.404L344.614 306.201L347.134 326.371L349.653 343.293L350.913 350.517L352.173 356.715L353.433 361.898L355.953 370.695L357.213 374.788L358.472 378.375L359.732 381.247L363.512 388.227L364.772 390.228L366.032 391.73L367.292 392.76L372.331 395.931L377.371 399.465L379.89 401.371L384.93 404.319L386.19 404.889L387.45 405.178L389.969 405.403L392.489 406.163L395.009 406.941L401.308 408.432L403.828 408.781L412.647 409.126L418.947 409.236L426.506 409.691L431.546 409.728L436.585 409.889L442.884 409.994L454.223 410.094L466.822 409.979L479.421 410.04L485.72 409.977L492.02 410.11L526.037 410.112" fill="#EFEFEF" fill-opacity="0.4"/>
<path d="M275.32 410.112L284.139 409.979L287.919 409.818L296.738 408.81L297.998 408.302L300.518 406.753L301.778 405.755L303.038 404.54L305.557 401.417L306.817 399.543L308.077 397.316L309.337 394.466L310.597 390.661L311.857 385.599L313.117 379.113L314.377 371.163L315.636 361.738L316.896 350.786L318.156 338.179L319.416 323.704L321.936 289.453L324.456 253.925L325.716 238.905L326.975 227.093L328.235 218.938L329.495 214.272L330.755 212.499L332.015 213.207L333.275 216.418L334.535 222.092L335.795 229.724L338.314 248.633L340.834 271.404L344.614 306.201L347.134 326.371L349.653 343.293L350.913 350.517L352.173 356.715L353.433 361.898L355.953 370.695L357.213 374.788L358.472 378.375L359.732 381.247L363.512 388.227L364.772 390.228L366.032 391.73L367.292 392.76L372.331 395.931L377.371 399.465L379.89 401.371L384.93 404.319L386.19 404.889L387.45 405.178L389.969 405.403L392.489 406.163L395.009 406.941L401.308 408.432L403.828 408.781L412.647 409.126L418.947 409.236L426.506 409.691L431.546 409.728L436.585 409.889L442.884 409.994L454.223 410.094L466.822 409.979L479.421 410.04L485.72 409.977L492.02 410.11L526.037 410.112" stroke="#EFEFEF" stroke-linecap="square"/>
</g>
<mask id="mask8_230_11918" style="mask-type:luminance" maskUnits="userSpaceOnUse" x="76" y="55" width="477" height="356">
<path d="M552.957 55.2959H76.7969V410.112H552.957V55.2959Z" fill="white"/>
</mask>
<g mask="url(#mask8_230_11918)">
<path d="M279.32 410.11L284.068 410.009L288.816 409.55L291.19 409.065L293.564 408.263L295.938 407.241L297.125 406.586L298.312 405.703L299.499 404.497L300.685 402.927L301.872 400.965L303.059 398.561L304.246 395.673L305.433 392.312L307.807 384.226L310.181 374.142L311.368 368.213L312.555 361.465L313.742 353.685L316.116 335.194L318.49 315.543L320.864 298.668L323.238 285.403L324.425 279.997L325.611 275.422L326.798 271.536L327.985 268.225L329.172 265.654L330.359 264.089L331.546 263.527L332.733 263.753L333.92 264.75L335.107 266.793L336.294 270.033L338.668 278.74L341.042 288.947L345.79 312.557L351.724 335.11L354.098 344.56L361.22 370.22L363.594 375.961L368.342 386.734L371.903 393.228L373.09 395.202L374.277 396.847L375.464 398.089L383.772 404.767L386.146 406.007L388.52 406.81L392.081 407.544L405.137 409.377L417.007 409.692L443.12 409.955L449.055 410.042L457.363 410.001L472.794 410.108L515.524 410.111" fill="#EFEFEF" fill-opacity="0.4"/>
<path d="M279.32 410.11L284.068 410.009L288.816 409.55L291.19 409.065L293.564 408.263L295.938 407.241L297.125 406.586L298.312 405.703L299.499 404.497L300.685 402.927L301.872 400.965L303.059 398.561L304.246 395.673L305.433 392.312L307.807 384.226L310.181 374.142L311.368 368.213L312.555 361.465L313.742 353.685L316.116 335.194L318.49 315.543L320.864 298.668L323.238 285.403L324.425 279.997L325.611 275.422L326.798 271.536L327.985 268.225L329.172 265.654L330.359 264.089L331.546 263.527L332.733 263.753L333.92 264.75L335.107 266.793L336.294 270.033L338.668 278.74L341.042 288.947L345.79 312.557L351.724 335.11L354.098 344.56L361.22 370.22L363.594 375.961L368.342 386.734L371.903 393.228L373.09 395.202L374.277 396.847L375.464 398.089L383.772 404.767L386.146 406.007L388.52 406.81L392.081 407.544L405.137 409.377L417.007 409.692L443.12 409.955L449.055 410.042L457.363 410.001L472.794 410.108L515.524 410.111" stroke="#EFEFEF" stroke-linecap="square"/>
</g>
<mask id="mask9_230_11918" style="mask-type:luminance" maskUnits="userSpaceOnUse" x="76" y="55" width="477" height="356">
<path d="M552.957 55.2959H76.7969V410.112H552.957V55.2959Z" fill="white"/>
</mask>
<g mask="url(#mask9_230_11918)">
<path d="M294.258 410.111L301.284 410.014L305.969 409.35L309.482 409.549L311.825 409.353L314.167 408.801L317.68 408.537L318.851 407.998L321.193 406.593L323.536 405.678L324.707 404.925L327.049 402.555L328.22 400.847L334.076 389.367L335.247 385.341L336.418 379.693L337.589 372.311L341.102 345.626L342.273 335.284L344.616 311.534L345.787 297.098L348.129 257.896L351.642 196.857L353.985 159.608L355.156 148.655L356.327 147.085L357.498 149.603L358.669 151.175L359.84 155.352L361.011 166.701L362.182 185.072L363.354 208.371L365.696 263.938L366.867 291.925L368.038 314.954L369.209 332.033L371.551 360.163L372.722 372.191L373.894 382.121L375.065 390.336L376.236 396.227L377.407 399.593L379.749 403.889L380.92 405.629L382.091 406.462L383.262 406.715L384.434 407.175L386.776 408.828L387.947 409.182L392.631 409.012L394.974 409.546L398.487 409.685L403.171 409.843L406.685 409.625L409.027 409.795L411.369 409.666L425.423 410.033L428.936 409.892L437.134 409.833L439.476 409.883L441.818 410.088L444.16 410.04L446.503 409.905L455.872 410.112L527.309 410.111" fill="#EFEFEF" fill-opacity="0.4"/>
<path d="M294.258 410.111L301.284 410.014L305.969 409.35L309.482 409.549L311.825 409.353L314.167 408.801L317.68 408.537L318.851 407.998L321.193 406.593L323.536 405.678L324.707 404.925L327.049 402.555L328.22 400.847L334.076 389.367L335.247 385.341L336.418 379.693L337.589 372.311L341.102 345.626L342.273 335.284L344.616 311.534L345.787 297.098L348.129 257.896L351.642 196.857L353.985 159.608L355.156 148.655L356.327 147.085L357.498 149.603L358.669 151.175L359.84 155.352L361.011 166.701L362.182 185.072L363.354 208.371L365.696 263.938L366.867 291.925L368.038 314.954L369.209 332.033L371.551 360.163L372.722 372.191L373.894 382.121L375.065 390.336L376.236 396.227L377.407 399.593L379.749 403.889L380.92 405.629L382.091 406.462L383.262 406.715L384.434 407.175L386.776 408.828L387.947 409.182L392.631 409.012L394.974 409.546L398.487 409.685L403.171 409.843L406.685 409.625L409.027 409.795L411.369 409.666L425.423 410.033L428.936 409.892L437.134 409.833L439.476 409.883L441.818 410.088L444.16 410.04L446.503 409.905L455.872 410.112L527.309 410.111" stroke="#EFEFEF" stroke-linecap="square"/>
</g>
<mask id="mask10_230_11918" style="mask-type:luminance" maskUnits="userSpaceOnUse" x="76" y="55" width="477" height="356">
<path d="M552.957 55.2959H76.7969V410.112H552.957V55.2959Z" fill="white"/>
</mask>
<g mask="url(#mask10_230_11918)">
<path d="M270.695 410.111L277.731 409.963L287.113 409.224L290.631 408.511L295.322 407.303L297.667 406.429L300.012 405.097L302.358 403.108L304.703 400.515L307.049 397.338L309.394 393.63L311.739 389.566L312.912 387.239L314.085 384.486L315.257 381.17L317.603 373.208L319.948 365.336L323.466 354.328L325.812 345.371L329.33 331.117L332.848 318.302L336.366 306.397L337.538 302.947L338.711 300.005L339.884 297.624L341.056 295.774L342.229 294.399L343.402 293.453L344.574 292.886L345.747 292.614L346.92 292.556L348.093 292.711L349.265 293.184L350.438 294.11L351.611 295.594L352.783 297.705L353.956 300.485L356.301 307.696L359.819 319.01L365.683 336.798L368.028 344.234L373.892 363.878L376.237 369.945L380.928 381.166L384.446 388.641L386.791 392.753L387.964 394.351L390.309 396.827L395 401.056L397.345 402.834L399.691 404.305L403.209 406.139L405.554 407.085L407.899 407.65L413.763 408.388L424.317 409.517L429.008 409.637L433.698 409.715L444.253 410.103L504.06 410.112" fill="#EFEFEF" fill-opacity="0.4"/>
<path d="M270.695 410.111L277.731 409.963L287.113 409.224L290.631 408.511L295.322 407.303L297.667 406.429L300.012 405.097L302.358 403.108L304.703 400.515L307.049 397.338L309.394 393.63L311.739 389.566L312.912 387.239L314.085 384.486L315.257 381.17L317.603 373.208L319.948 365.336L323.466 354.328L325.812 345.371L329.33 331.117L332.848 318.302L336.366 306.397L337.538 302.947L338.711 300.005L339.884 297.624L341.056 295.774L342.229 294.399L343.402 293.453L344.574 292.886L345.747 292.614L346.92 292.556L348.093 292.711L349.265 293.184L350.438 294.11L351.611 295.594L352.783 297.705L353.956 300.485L356.301 307.696L359.819 319.01L365.683 336.798L368.028 344.234L373.892 363.878L376.237 369.945L380.928 381.166L384.446 388.641L386.791 392.753L387.964 394.351L390.309 396.827L395 401.056L397.345 402.834L399.691 404.305L403.209 406.139L405.554 407.085L407.899 407.65L413.763 408.388L424.317 409.517L429.008 409.637L433.698 409.715L444.253 410.103L504.06 410.112" stroke="#EFEFEF" stroke-linecap="square"/>
</g>
<mask id="mask11_230_11918" style="mask-type:luminance" maskUnits="userSpaceOnUse" x="76" y="55" width="477" height="356">
<path d="M552.957 55.2959H76.7969V410.112H552.957V55.2959Z" fill="white"/>
</mask>
<g mask="url(#mask11_230_11918)">
<path d="M265.188 410.111L273.067 409.956L276.444 409.575L278.695 409.04L280.946 408.106L283.197 406.944L284.323 406.218L285.449 405.243L286.574 403.885L287.7 402.039L288.825 399.694L291.077 394.07L293.328 387.778L295.579 379.827L297.83 370.141L300.081 358.55L307.961 313.252L310.212 299.813L312.463 285.467L313.589 279.141L314.714 273.875L315.84 269.865L316.966 267.073L319.217 263.394L321.468 259.617L322.594 258.153L323.719 257.707L324.845 258.634L325.971 260.939L327.096 264.281L329.347 272.469L330.473 277.412L331.599 283.524L338.352 327.07L340.604 339.776L342.855 350.441L345.106 358.846L347.357 366.549L351.86 383.425L352.985 386.614L354.111 389.117L355.237 391.085L357.488 394.13L363.116 401.114L364.241 402.229L365.367 403.114L367.618 404.256L369.869 405.54L372.121 407.04L373.246 407.577L375.498 408.202L378.874 408.68L392.382 409.57L400.261 409.807L403.638 409.963L419.396 409.896L428.401 409.96L432.904 409.856L440.783 410.056L446.411 410.021L452.039 410.045L459.918 410.064L465.547 410.01L472.3 410.079L484.682 410.072L489.184 410.111" fill="#EFEFEF" fill-opacity="0.4"/>
<path d="M265.188 410.111L273.067 409.956L276.444 409.575L278.695 409.04L280.946 408.106L283.197 406.944L284.323 406.218L285.449 405.243L286.574 403.885L287.7 402.039L288.825 399.694L291.077 394.07L293.328 387.778L295.579 379.827L297.83 370.141L300.081 358.55L307.961 313.252L310.212 299.813L312.463 285.467L313.589 279.141L314.714 273.875L315.84 269.865L316.966 267.073L319.217 263.394L321.468 259.617L322.594 258.153L323.719 257.707L324.845 258.634L325.971 260.939L327.096 264.281L329.347 272.469L330.473 277.412L331.599 283.524L338.352 327.07L340.604 339.776L342.855 350.441L345.106 358.846L347.357 366.549L351.86 383.425L352.985 386.614L354.111 389.117L355.237 391.085L357.488 394.13L363.116 401.114L364.241 402.229L365.367 403.114L367.618 404.256L369.869 405.54L372.121 407.04L373.246 407.577L375.498 408.202L378.874 408.68L392.382 409.57L400.261 409.807L403.638 409.963L419.396 409.896L428.401 409.96L432.904 409.856L440.783 410.056L446.411 410.021L452.039 410.045L459.918 410.064L465.547 410.01L472.3 410.079L484.682 410.072L489.184 410.111" stroke="#EFEFEF" stroke-linecap="square"/>
</g>
<mask id="mask12_230_11918" style="mask-type:luminance" maskUnits="userSpaceOnUse" x="76" y="55" width="477" height="356">
<path d="M552.957 55.2959H76.7969V410.112H552.957V55.2959Z" fill="white"/>
</mask>
<g mask="url(#mask12_230_11918)">
<path d="M280.953 410.11L298.028 409.898L303.363 409.302L304.431 409.07L306.565 408.143L307.632 407.625L308.699 407.353L311.901 407.822L312.968 407.44L314.035 406.433L315.102 404.616L317.236 399.443L318.304 395.932L319.371 390.874L320.438 383.977L321.505 375.361L322.572 365.148L323.639 353.201L324.707 338.762L326.841 303.458L330.042 245.099L332.177 208.852L334.311 176.332L335.378 163.061L336.445 156.222L337.512 154.812L338.58 155.322L339.647 156.742L340.714 160.835L341.781 168.891L342.848 180.843L344.983 209.083L346.05 225.267L348.184 263.827L350.318 304.208L352.453 334.814L354.587 358.883L355.654 369.022L356.721 377.25L357.788 383.613L358.856 388.944L359.923 393.429L360.99 396.808L362.057 399.318L363.124 401.19L364.191 402.444L369.527 406.962L371.662 407.93L373.796 408.44L376.997 408.828L388.736 409.54L395.139 409.502L398.34 409.81L406.878 409.945L410.079 409.945L415.415 410.008L417.549 409.837L419.684 409.69L422.885 410.017L429.288 409.989L436.758 410.055L439.96 409.945L449.564 410.027L487.982 410.053L491.183 410.082L493.317 410.111" fill="#EFEFEF" fill-opacity="0.4"/>
<path d="M280.953 410.11L298.028 409.898L303.363 409.302L304.431 409.07L306.565 408.143L307.632 407.625L308.699 407.353L311.901 407.822L312.968 407.44L314.035 406.433L315.102 404.616L317.236 399.443L318.304 395.932L319.371 390.874L320.438 383.977L321.505 375.361L322.572 365.148L323.639 353.201L324.707 338.762L326.841 303.458L330.042 245.099L332.177 208.852L334.311 176.332L335.378 163.061L336.445 156.222L337.512 154.812L338.58 155.322L339.647 156.742L340.714 160.835L341.781 168.891L342.848 180.843L344.983 209.083L346.05 225.267L348.184 263.827L350.318 304.208L352.453 334.814L354.587 358.883L355.654 369.022L356.721 377.25L357.788 383.613L358.856 388.944L359.923 393.429L360.99 396.808L362.057 399.318L363.124 401.19L364.191 402.444L369.527 406.962L371.662 407.93L373.796 408.44L376.997 408.828L388.736 409.54L395.139 409.502L398.34 409.81L406.878 409.945L410.079 409.945L415.415 410.008L417.549 409.837L419.684 409.69L422.885 410.017L429.288 409.989L436.758 410.055L439.96 409.945L449.564 410.027L487.982 410.053L491.183 410.082L493.317 410.111" stroke="#EFEFEF" stroke-linecap="square"/>
</g>
<mask id="mask13_230_11918" style="mask-type:luminance" maskUnits="userSpaceOnUse" x="76" y="55" width="477" height="356">
<path d="M552.957 55.2959H76.7969V410.112H552.957V55.2959Z" fill="white"/>
</mask>
<g mask="url(#mask13_230_11918)">
<path d="M288.336 410.111L303.28 409.978L311.328 409.683L315.926 409.669L319.375 409.303L325.123 408.381L326.272 408.097L327.422 407.635L328.571 406.93L329.721 405.976L330.87 404.784L332.02 403.314L333.17 401.459L334.319 399.124L335.469 396.27L336.618 392.902L337.768 389.003L338.918 384.503L340.067 379.301L341.217 373.28L342.366 366.306L343.516 358.259L345.815 339.12L350.413 297.507L352.713 280.966L355.012 267.767L357.311 255.703L358.46 250.576L359.61 246.688L360.76 244.349L361.909 243.771L363.059 245.135L364.208 248.429L365.358 253.279L367.657 265.74L369.956 281.134L373.405 305.228L375.704 318.984L378.003 331.058L380.303 341.915L382.602 351.062L386.05 362.435L389.499 373.104L390.649 375.922L391.798 378.082L396.397 385.235L398.696 388.69L402.145 392.78L405.593 397.623L406.743 398.679L409.042 400.113L413.64 402.931L415.94 404.514L417.089 405.107L418.239 405.433L420.538 405.467L422.837 405.459L423.987 405.652L425.136 406.02L427.435 407.186L429.735 408.313L432.034 408.833L435.482 408.973L438.931 408.991L442.38 409.406L445.829 409.8L449.277 409.87L457.325 409.951L464.222 410.082L509.056 410.066L517.103 410.111" fill="#EFEFEF" fill-opacity="0.4"/>
<path d="M288.336 410.111L303.28 409.978L311.328 409.683L315.926 409.669L319.375 409.303L325.123 408.381L326.272 408.097L327.422 407.635L328.571 406.93L329.721 405.976L330.87 404.784L332.02 403.314L333.17 401.459L334.319 399.124L335.469 396.27L336.618 392.902L337.768 389.003L338.918 384.503L340.067 379.301L341.217 373.28L342.366 366.306L343.516 358.259L345.815 339.12L350.413 297.507L352.713 280.966L355.012 267.767L357.311 255.703L358.46 250.576L359.61 246.688L360.76 244.349L361.909 243.771L363.059 245.135L364.208 248.429L365.358 253.279L367.657 265.74L369.956 281.134L373.405 305.228L375.704 318.984L378.003 331.058L380.303 341.915L382.602 351.062L386.05 362.435L389.499 373.104L390.649 375.922L391.798 378.082L396.397 385.235L398.696 388.69L402.145 392.78L405.593 397.623L406.743 398.679L409.042 400.113L413.64 402.931L415.94 404.514L417.089 405.107L418.239 405.433L420.538 405.467L422.837 405.459L423.987 405.652L425.136 406.02L427.435 407.186L429.735 408.313L432.034 408.833L435.482 408.973L438.931 408.991L442.38 409.406L445.829 409.8L449.277 409.87L457.325 409.951L464.222 410.082L509.056 410.066L517.103 410.111" stroke="#EFEFEF" stroke-linecap="square"/>
</g>
<mask id="mask14_230_11918" style="mask-type:luminance" maskUnits="userSpaceOnUse" x="76" y="55" width="477" height="356">
<path d="M552.957 55.2959H76.7969V410.112H552.957V55.2959Z" fill="white"/>
</mask>
<g mask="url(#mask14_230_11918)">
<path d="M98.4375 410.111L187.383 410.112L254.635 410.04L258.973 409.759L263.312 409.088L265.482 408.38L267.651 407.246L269.82 405.702L271.99 403.742L274.159 401.267L276.329 398.001L278.498 393.465L280.667 387.442L282.837 380.369L285.006 372.624L287.176 363.907L289.345 354.03L295.853 321.38L298.023 312.257L300.192 304.085L302.362 296.664L304.531 290.482L306.7 285.371L308.87 281.558L311.039 279.31L313.209 278.981L315.378 281.03L317.547 285.427L319.717 291.966L321.886 300.5L326.225 319.043L330.564 336.139L334.903 355.354L337.072 364.267L339.241 371.824L341.411 377.773L343.58 382.393L347.919 390.064L350.088 393.146L352.258 395.447L358.766 401.342L360.935 402.895L363.105 404.066L367.444 405.596L376.121 407.872L380.46 408.553L389.138 409.415L397.815 409.796L404.324 409.94L419.509 409.748L423.848 409.882L428.187 410.057L519.302 410.088L530.149 410.111" fill="#7EB0D5" fill-opacity="0.4"/>
<path d="M98.4375 410.111L187.383 410.112L254.635 410.04L258.973 409.759L263.312 409.088L265.482 408.38L267.651 407.246L269.82 405.702L271.99 403.742L274.159 401.267L276.329 398.001L278.498 393.465L280.667 387.442L282.837 380.369L285.006 372.624L287.176 363.907L289.345 354.03L295.853 321.38L298.023 312.257L300.192 304.085L302.362 296.664L304.531 290.482L306.7 285.371L308.87 281.558L311.039 279.31L313.209 278.981L315.378 281.03L317.547 285.427L319.717 291.966L321.886 300.5L326.225 319.043L330.564 336.139L334.903 355.354L337.072 364.267L339.241 371.824L341.411 377.773L343.58 382.393L347.919 390.064L350.088 393.146L352.258 395.447L358.766 401.342L360.935 402.895L363.105 404.066L367.444 405.596L376.121 407.872L380.46 408.553L389.138 409.415L397.815 409.796L404.324 409.94L419.509 409.748L423.848 409.882L428.187 410.057L519.302 410.088L530.149 410.111" stroke="#7EB0D5" stroke-linecap="square"/>
</g>
<path d="M535.061 411.061C535.646 410.475 535.646 409.525 535.061 408.939L525.515 399.393C524.929 398.808 523.979 398.808 523.393 399.393C522.808 399.979 522.808 400.929 523.393 401.515L531.879 410L523.393 418.485C522.808 419.071 522.808 420.021 523.393 420.607C523.979 421.192 524.929 421.192 525.515 420.607L535.061 411.061ZM79 411.5H534V408.5H79V411.5Z" fill="black"/>
</g>
<defs>
<clipPath id="clip0_230_11918">
<rect width="614.4" height="460.8" fill="white"/>
</clipPath>
</defs>
</svg>
