<svg width="615" height="461" viewBox="0 0 615 461" fill="none" xmlns="http://www.w3.org/2000/svg">
<g clip-path="url(#clip0_230_12158)">
<mask id="mask0_230_12158" style="mask-type:luminance" maskUnits="userSpaceOnUse" x="76" y="55" width="477" height="356">
<path d="M552.957 55.2959H76.7969V410.112H552.957V55.2959Z" fill="white"/>
</mask>
<g mask="url(#mask0_230_12158)">
<path d="M204.258 410.111L225.784 409.965L230.397 409.738L235.009 409.181L242.697 407.941L244.235 407.404L245.772 406.586L248.848 404.459L250.385 403.252L251.923 401.804L253.46 399.998L258.073 393.49L259.611 391.154L261.148 388.306L262.686 384.618L264.223 380.016L267.299 368.764L270.374 355.81L271.911 348.558L273.449 340.411L276.524 321.178L281.137 291.16L285.749 262.893L288.825 245.76L290.362 238.526L291.9 232.498L293.437 227.583L294.975 223.545L296.513 220.253L298.05 217.75L299.588 216.278L301.125 216.262L302.663 218.04L304.2 221.515L305.738 226.269L307.276 232.111L308.813 239.34L310.351 248.331L316.501 289.502L319.576 304.652L322.651 319.972L325.727 335.62L327.264 342.424L330.339 354.148L333.414 364.554L334.952 368.935L336.49 372.549L339.565 378.368L345.715 389.589L347.253 391.683L348.79 393.386L356.478 400.586L358.016 401.487L359.553 402.044L364.166 403.298L367.241 404.635L370.316 406.144L371.854 406.684L374.929 407.255L381.079 407.972L394.918 408.882L401.068 408.785L410.293 409.469L428.744 409.672L442.583 409.886L448.733 410.071L467.184 409.954L473.334 410.053L488.71 410.073L499.473 410.058L510.236 410.111" fill="#EFEFEF" fill-opacity="0.4"/>
<path d="M204.258 410.111L225.784 409.965L230.397 409.738L235.009 409.181L242.697 407.941L244.235 407.404L245.772 406.586L248.848 404.459L250.385 403.252L251.923 401.804L253.46 399.998L258.073 393.49L259.611 391.154L261.148 388.306L262.686 384.618L264.223 380.016L267.299 368.764L270.374 355.81L271.911 348.558L273.449 340.411L276.524 321.178L281.137 291.16L285.749 262.893L288.825 245.76L290.362 238.526L291.9 232.498L293.437 227.583L294.975 223.545L296.513 220.253L298.05 217.75L299.588 216.278L301.125 216.262L302.663 218.04L304.2 221.515L305.738 226.269L307.276 232.111L308.813 239.34L310.351 248.331L316.501 289.502L319.576 304.652L322.651 319.972L325.727 335.62L327.264 342.424L330.339 354.148L333.414 364.554L334.952 368.935L336.49 372.549L339.565 378.368L345.715 389.589L347.253 391.683L348.79 393.386L356.478 400.586L358.016 401.487L359.553 402.044L364.166 403.298L367.241 404.635L370.316 406.144L371.854 406.684L374.929 407.255L381.079 407.972L394.918 408.882L401.068 408.785L410.293 409.469L428.744 409.672L442.583 409.886L448.733 410.071L467.184 409.954L473.334 410.053L488.71 410.073L499.473 410.058L510.236 410.111" stroke="#EFEFEF" stroke-linecap="square"/>
</g>
<mask id="mask1_230_12158" style="mask-type:luminance" maskUnits="userSpaceOnUse" x="76" y="55" width="477" height="356">
<path d="M552.957 55.2959H76.7969V410.112H552.957V55.2959Z" fill="white"/>
</mask>
<g mask="url(#mask1_230_12158)">
<path d="M226.562 410.111L240.173 409.953L244.71 409.738L246.223 409.492L247.735 409.066L249.247 408.392L250.76 407.393L252.272 405.98L253.784 404.044L255.297 401.444L256.809 398.002L258.321 393.527L259.834 387.844L261.346 380.812L262.858 372.313L264.371 362.263L265.883 350.665L268.908 323.614L274.957 264.539L276.469 251.573L277.981 240.69L279.494 232.512L281.006 227.403L282.518 225.421L284.031 226.326L285.543 229.617L287.055 234.622L290.08 247.016L293.105 259.07L294.617 264.16L296.129 268.537L303.691 288.077L306.716 297.186L309.74 307.627L312.765 318.196L314.277 322.643L315.79 326.376L318.814 332.547L324.864 344.002L329.4 351.877L333.937 359.159L336.962 364.928L339.987 370.928L341.499 373.439L344.524 377.56L349.061 383.769L352.085 387.619L355.11 390.605L359.647 394.248L362.672 396.253L376.283 404.044L377.795 404.703L379.307 405.173L382.332 405.562L385.356 405.82L388.381 406.522L392.918 407.758L395.943 408.124L400.48 408.543L406.529 409.271L411.066 409.285L414.091 409.36L423.165 409.906L429.214 409.959L442.825 409.821L468.534 409.926L474.584 409.84L488.194 410.107L510.879 410.013L518.441 410.033L527.515 410.111" fill="#EFEFEF" fill-opacity="0.4"/>
<path d="M226.562 410.111L240.173 409.953L244.71 409.738L246.223 409.492L247.735 409.066L249.247 408.392L250.76 407.393L252.272 405.98L253.784 404.044L255.297 401.444L256.809 398.002L258.321 393.527L259.834 387.844L261.346 380.812L262.858 372.313L264.371 362.263L265.883 350.665L268.908 323.614L274.957 264.539L276.469 251.573L277.981 240.69L279.494 232.512L281.006 227.403L282.518 225.421L284.031 226.326L285.543 229.617L287.055 234.622L290.08 247.016L293.105 259.07L294.617 264.16L296.129 268.537L303.691 288.077L306.716 297.186L309.74 307.627L312.765 318.196L314.277 322.643L315.79 326.376L318.814 332.547L324.864 344.002L329.4 351.877L333.937 359.159L336.962 364.928L339.987 370.928L341.499 373.439L344.524 377.56L349.061 383.769L352.085 387.619L355.11 390.605L359.647 394.248L362.672 396.253L376.283 404.044L377.795 404.703L379.307 405.173L382.332 405.562L385.356 405.82L388.381 406.522L392.918 407.758L395.943 408.124L400.48 408.543L406.529 409.271L411.066 409.285L414.091 409.36L423.165 409.906L429.214 409.959L442.825 409.821L468.534 409.926L474.584 409.84L488.194 410.107L510.879 410.013L518.441 410.033L527.515 410.111" stroke="#EFEFEF" stroke-linecap="square"/>
</g>
<mask id="mask2_230_12158" style="mask-type:luminance" maskUnits="userSpaceOnUse" x="76" y="55" width="477" height="356">
<path d="M552.957 55.2959H76.7969V410.112H552.957V55.2959Z" fill="white"/>
</mask>
<g mask="url(#mask2_230_12158)">
<path d="M240.766 410.11L246.393 409.984L252.02 409.756L254.834 409.596L257.647 409.095L260.461 408.361L261.868 407.821L264.681 406.249L267.495 404.211L268.902 402.822L270.308 400.866L271.715 398.194L273.122 394.837L274.529 390.854L275.936 386.148L277.342 380.501L278.749 373.771L281.563 357.737L285.783 331.583L288.597 310.904L295.631 254.387L297.038 243.905L298.444 234.668L299.851 227.415L301.258 222.398L302.665 219.149L304.072 216.791L305.478 214.743L306.885 213.186L308.292 212.779L309.699 213.924L311.106 216.305L315.326 224.393L316.733 228.175L318.14 234.002L319.546 241.793L322.36 258.789L332.207 310.532L336.428 332.257L340.648 354.575L342.055 360.977L343.462 366.287L344.869 370.549L347.682 377.33L351.903 386.781L353.309 389.45L354.716 391.769L356.123 393.791L357.53 395.497L360.343 398.052L365.971 402.807L367.377 403.557L370.191 404.332L373.005 405.039L380.039 407.379L388.479 408.894L391.293 409.254L396.92 409.464L415.209 409.733L420.836 410.007L440.531 410.006L448.972 410.112L520.718 410.111" fill="#EFEFEF" fill-opacity="0.4"/>
<path d="M240.766 410.11L246.393 409.984L252.02 409.756L254.834 409.596L257.647 409.095L260.461 408.361L261.868 407.821L264.681 406.249L267.495 404.211L268.902 402.822L270.308 400.866L271.715 398.194L273.122 394.837L274.529 390.854L275.936 386.148L277.342 380.501L278.749 373.771L281.563 357.737L285.783 331.583L288.597 310.904L295.631 254.387L297.038 243.905L298.444 234.668L299.851 227.415L301.258 222.398L302.665 219.149L304.072 216.791L305.478 214.743L306.885 213.186L308.292 212.779L309.699 213.924L311.106 216.305L315.326 224.393L316.733 228.175L318.14 234.002L319.546 241.793L322.36 258.789L332.207 310.532L336.428 332.257L340.648 354.575L342.055 360.977L343.462 366.287L344.869 370.549L347.682 377.33L351.903 386.781L353.309 389.45L354.716 391.769L356.123 393.791L357.53 395.497L360.343 398.052L365.971 402.807L367.377 403.557L370.191 404.332L373.005 405.039L380.039 407.379L388.479 408.894L391.293 409.254L396.92 409.464L415.209 409.733L420.836 410.007L440.531 410.006L448.972 410.112L520.718 410.111" stroke="#EFEFEF" stroke-linecap="square"/>
</g>
<mask id="mask3_230_12158" style="mask-type:luminance" maskUnits="userSpaceOnUse" x="76" y="55" width="477" height="356">
<path d="M552.957 55.2959H76.7969V410.112H552.957V55.2959Z" fill="white"/>
</mask>
<g mask="url(#mask3_230_12158)">
<path d="M257.633 410.111L272.567 409.945L286.144 409.247L288.859 409.012L295.648 408.67L299.721 408.164L306.509 406.707L309.225 406.181L311.94 405.082L316.013 403.035L318.728 401.452L321.444 399.488L328.232 393.231L329.59 391.703L330.948 389.766L333.663 384.803L339.094 373.769L340.451 370.607L341.809 366.78L343.167 362.081L344.524 356.452L345.882 349.922L348.597 334.86L351.313 319.928L355.386 298.82L360.817 268.656L364.89 248.612L366.247 242.489L367.605 237.219L368.963 233.062L374.393 220.046L375.751 217.173L377.109 215.596L378.466 215.59L379.824 217.048L381.182 219.798L382.539 223.701L383.897 228.571L385.255 234.186L386.613 240.451L387.97 247.461L390.686 264.078L393.401 283.679L396.116 306.064L398.832 328.785L400.189 338.624L401.547 346.998L402.905 354.104L405.62 366.383L408.335 377.515L409.693 382.29L411.051 386.375L412.408 389.839L413.766 392.798L415.124 395.341L416.482 397.528L417.839 399.392L419.197 400.958L421.912 403.375L424.628 405.236L427.343 406.643L430.058 407.568L434.131 408.48L436.847 408.809L442.277 409.129L446.35 409.697L449.066 409.723L453.139 409.629L465.358 409.988L476.219 409.998L487.081 410.051L495.227 410.055L506.088 410.112L527.811 410.111" fill="#EFEFEF" fill-opacity="0.4"/>
<path d="M257.633 410.111L272.567 409.945L286.144 409.247L288.859 409.012L295.648 408.67L299.721 408.164L306.509 406.707L309.225 406.181L311.94 405.082L316.013 403.035L318.728 401.452L321.444 399.488L328.232 393.231L329.59 391.703L330.948 389.766L333.663 384.803L339.094 373.769L340.451 370.607L341.809 366.78L343.167 362.081L344.524 356.452L345.882 349.922L348.597 334.86L351.313 319.928L355.386 298.82L360.817 268.656L364.89 248.612L366.247 242.489L367.605 237.219L368.963 233.062L374.393 220.046L375.751 217.173L377.109 215.596L378.466 215.59L379.824 217.048L381.182 219.798L382.539 223.701L383.897 228.571L385.255 234.186L386.613 240.451L387.97 247.461L390.686 264.078L393.401 283.679L396.116 306.064L398.832 328.785L400.189 338.624L401.547 346.998L402.905 354.104L405.62 366.383L408.335 377.515L409.693 382.29L411.051 386.375L412.408 389.839L413.766 392.798L415.124 395.341L416.482 397.528L417.839 399.392L419.197 400.958L421.912 403.375L424.628 405.236L427.343 406.643L430.058 407.568L434.131 408.48L436.847 408.809L442.277 409.129L446.35 409.697L449.066 409.723L453.139 409.629L465.358 409.988L476.219 409.998L487.081 410.051L495.227 410.055L506.088 410.112L527.811 410.111" stroke="#EFEFEF" stroke-linecap="square"/>
</g>
<mask id="mask4_230_12158" style="mask-type:luminance" maskUnits="userSpaceOnUse" x="76" y="55" width="477" height="356">
<path d="M552.957 55.2959H76.7969V410.112H552.957V55.2959Z" fill="white"/>
</mask>
<g mask="url(#mask4_230_12158)">
<path d="M215.227 410.112L236.699 409.949L241.3 409.619L245.901 408.863L248.969 408.027L250.503 407.329L252.036 406.289L253.57 404.777L255.104 402.683L256.638 399.931L258.171 396.471L259.705 392.237L261.239 387.144L262.773 381.135L265.84 366.725L273.509 327.342L279.644 298.698L282.711 285.139L284.245 278.863L285.779 273.299L287.312 268.69L288.846 265.024L290.38 262.129L291.914 259.899L293.447 258.407L294.981 257.806L296.515 258.145L298.049 259.262L301.116 262.296L302.65 263.508L305.717 265.418L307.251 266.884L308.785 269.271L310.319 272.838L311.852 277.584L317.987 300.213L321.055 309.038L327.19 325.173L333.325 342.774L337.926 354.27L342.527 365.331L347.128 375.44L350.196 381.497L351.73 384.013L354.797 388.143L357.865 391.656L360.932 394.467L371.668 402.446L374.736 404.025L382.404 407.105L383.938 407.539L387.006 407.949L400.809 408.355L419.214 409.65L423.815 409.822L443.754 409.901L466.76 410.111L520.441 410.112" fill="#EFEFEF" fill-opacity="0.4"/>
<path d="M215.227 410.112L236.699 409.949L241.3 409.619L245.901 408.863L248.969 408.027L250.503 407.329L252.036 406.289L253.57 404.777L255.104 402.683L256.638 399.931L258.171 396.471L259.705 392.237L261.239 387.144L262.773 381.135L265.84 366.725L273.509 327.342L279.644 298.698L282.711 285.139L284.245 278.863L285.779 273.299L287.312 268.69L288.846 265.024L290.38 262.129L291.914 259.899L293.447 258.407L294.981 257.806L296.515 258.145L298.049 259.262L301.116 262.296L302.65 263.508L305.717 265.418L307.251 266.884L308.785 269.271L310.319 272.838L311.852 277.584L317.987 300.213L321.055 309.038L327.19 325.173L333.325 342.774L337.926 354.27L342.527 365.331L347.128 375.44L350.196 381.497L351.73 384.013L354.797 388.143L357.865 391.656L360.932 394.467L371.668 402.446L374.736 404.025L382.404 407.105L383.938 407.539L387.006 407.949L400.809 408.355L419.214 409.65L423.815 409.822L443.754 409.901L466.76 410.111L520.441 410.112" stroke="#EFEFEF" stroke-linecap="square"/>
</g>
<mask id="mask5_230_12158" style="mask-type:luminance" maskUnits="userSpaceOnUse" x="76" y="55" width="477" height="356">
<path d="M552.957 55.2959H76.7969V410.112H552.957V55.2959Z" fill="white"/>
</mask>
<g mask="url(#mask5_230_12158)">
<path d="M258.391 410.111L270.244 409.949L278.542 409.151L282.098 409.101L284.468 408.908L286.839 409.09L288.025 408.955L290.395 408.219L291.581 408.032L295.137 408.151L297.507 407.7L298.693 407.286L301.063 405.888L304.62 403.075L305.805 402.585L308.176 402.365L309.361 401.983L310.546 401.024L312.917 397.643L314.102 395.852L315.288 393.467L318.844 383.667L320.029 380.936L321.214 377.058L322.4 371.524L324.771 357.785L325.956 349.694L328.327 329.664L330.697 307.838L331.883 294.019L336.624 223.744L338.995 193.228L341.366 159.088L343.736 127.305L346.107 91.2336L347.292 77.9518L348.478 72.1924L349.663 73.3356L350.848 78.0466L352.034 84.0462L353.219 93.1541L354.405 108.055L356.775 148.444L357.961 170.704L360.331 223.424L362.702 280.696L363.887 305.691L366.258 345.353L367.443 361.37L368.629 373.834L369.814 382.896L370.999 389.719L372.185 394.975L373.37 398.792L374.556 401.459L375.741 403.505L376.926 405.213L378.112 406.585L379.297 407.674L380.482 408.499L381.668 409.003L384.038 409.388L386.409 409.402L388.78 409.258L391.151 409.483L393.521 409.705L404.189 409.828L407.746 409.86L412.487 409.992L416.043 409.756L418.414 409.736L420.784 409.974L439.75 409.959L443.306 410.017L446.862 410.021L450.418 409.916L472.94 410.112L494.277 410.111" fill="#EFEFEF" fill-opacity="0.4"/>
<path d="M258.391 410.111L270.244 409.949L278.542 409.151L282.098 409.101L284.468 408.908L286.839 409.09L288.025 408.955L290.395 408.219L291.581 408.032L295.137 408.151L297.507 407.7L298.693 407.286L301.063 405.888L304.62 403.075L305.805 402.585L308.176 402.365L309.361 401.983L310.546 401.024L312.917 397.643L314.102 395.852L315.288 393.467L318.844 383.667L320.029 380.936L321.214 377.058L322.4 371.524L324.771 357.785L325.956 349.694L328.327 329.664L330.697 307.838L331.883 294.019L336.624 223.744L338.995 193.228L341.366 159.088L343.736 127.305L346.107 91.2336L347.292 77.9518L348.478 72.1924L349.663 73.3356L350.848 78.0466L352.034 84.0462L353.219 93.1541L354.405 108.055L356.775 148.444L357.961 170.704L360.331 223.424L362.702 280.696L363.887 305.691L366.258 345.353L367.443 361.37L368.629 373.834L369.814 382.896L370.999 389.719L372.185 394.975L373.37 398.792L374.556 401.459L375.741 403.505L376.926 405.213L378.112 406.585L379.297 407.674L380.482 408.499L381.668 409.003L384.038 409.388L386.409 409.402L388.78 409.258L391.151 409.483L393.521 409.705L404.189 409.828L407.746 409.86L412.487 409.992L416.043 409.756L418.414 409.736L420.784 409.974L439.75 409.959L443.306 410.017L446.862 410.021L450.418 409.916L472.94 410.112L494.277 410.111" stroke="#EFEFEF" stroke-linecap="square"/>
</g>
<mask id="mask6_230_12158" style="mask-type:luminance" maskUnits="userSpaceOnUse" x="76" y="55" width="477" height="356">
<path d="M552.957 55.2959H76.7969V410.112H552.957V55.2959Z" fill="white"/>
</mask>
<g mask="url(#mask6_230_12158)">
<path d="M240.203 410.111L251.515 409.974L255.757 409.664L258.585 409.252L261.413 408.581L262.827 408.075L264.241 407.39L265.655 406.459L267.069 405.229L269.897 402.015L275.553 394.778L278.381 390.281L281.209 384.996L282.623 381.942L284.037 378.426L285.451 374.35L288.279 364.766L291.107 353.456L293.935 339.864L305.247 283.018L310.903 253.062L316.559 226.367L317.973 220.824L319.387 216.593L320.801 214.237L322.215 214.072L323.629 215.833L325.043 218.799L326.457 222.362L327.871 226.413L329.285 231.227L330.699 237.105L332.113 244.143L334.941 261.153L337.769 280.785L340.597 301.149L342.011 310.399L343.425 318.507L346.253 332.221L350.495 351.062L353.323 362.475L354.737 367.732L356.151 372.398L357.565 376.227L358.979 379.255L364.635 389.193L366.049 391.525L367.463 393.525L368.877 395.138L371.705 397.538L374.533 399.307L378.775 401.195L385.845 404.15L388.673 405.145L391.501 405.795L395.743 406.22L404.227 408.053L408.469 408.327L414.125 408.719L419.781 409.07L425.437 409.199L429.679 409.413L435.335 409.569L440.991 409.927L449.474 409.985L465.028 409.864L470.684 409.906L477.754 410.096L517.346 410.095L521.588 410.111" fill="#EFEFEF" fill-opacity="0.4"/>
<path d="M240.203 410.111L251.515 409.974L255.757 409.664L258.585 409.252L261.413 408.581L262.827 408.075L264.241 407.39L265.655 406.459L267.069 405.229L269.897 402.015L275.553 394.778L278.381 390.281L281.209 384.996L282.623 381.942L284.037 378.426L285.451 374.35L288.279 364.766L291.107 353.456L293.935 339.864L305.247 283.018L310.903 253.062L316.559 226.367L317.973 220.824L319.387 216.593L320.801 214.237L322.215 214.072L323.629 215.833L325.043 218.799L326.457 222.362L327.871 226.413L329.285 231.227L330.699 237.105L332.113 244.143L334.941 261.153L337.769 280.785L340.597 301.149L342.011 310.399L343.425 318.507L346.253 332.221L350.495 351.062L353.323 362.475L354.737 367.732L356.151 372.398L357.565 376.227L358.979 379.255L364.635 389.193L366.049 391.525L367.463 393.525L368.877 395.138L371.705 397.538L374.533 399.307L378.775 401.195L385.845 404.15L388.673 405.145L391.501 405.795L395.743 406.22L404.227 408.053L408.469 408.327L414.125 408.719L419.781 409.07L425.437 409.199L429.679 409.413L435.335 409.569L440.991 409.927L449.474 409.985L465.028 409.864L470.684 409.906L477.754 410.096L517.346 410.095L521.588 410.111" stroke="#EFEFEF" stroke-linecap="square"/>
</g>
<mask id="mask7_230_12158" style="mask-type:luminance" maskUnits="userSpaceOnUse" x="76" y="55" width="477" height="356">
<path d="M552.957 55.2959H76.7969V410.112H552.957V55.2959Z" fill="white"/>
</mask>
<g mask="url(#mask7_230_12158)">
<path d="M245.375 410.112L262.07 409.97L266.244 409.664L270.418 409.087L273.201 408.465L275.983 407.353L281.549 404.442L284.331 403.56L285.722 402.892L287.114 401.806L291.288 397.779L294.07 395.851L295.461 394.484L296.853 392.537L298.244 389.93L299.635 386.691L302.418 378.961L305.2 370.508L306.592 365.636L307.983 359.823L309.374 352.942L312.157 336.68L313.548 327.354L314.939 316.824L317.722 291.647L320.505 262.544L328.852 171.251L330.244 160.868L331.635 154.82L333.026 153.36L334.418 156.181L335.809 162.507L337.2 171.179L339.983 191.689L342.765 215.655L346.939 257.178L349.722 284.046L352.504 306.16L358.069 346.011L359.461 353.841L360.852 360.411L362.243 366.125L363.635 371.182L365.026 375.581L366.417 379.348L369.2 385.576L371.982 390.762L374.765 395.178L376.156 396.94L377.547 398.208L378.939 398.982L385.895 401.5L390.069 403.044L397.026 404.806L401.199 405.916L403.982 406.765L406.765 407.32L410.938 407.812L417.895 408.164L423.46 408.948L430.416 409.715L433.199 409.738L438.764 409.582L442.938 409.723L448.503 410.071L452.677 410.006L458.242 409.888L469.373 409.938L474.938 410.024L488.851 410.04L494.416 410.015L499.981 409.989L505.546 409.995L512.503 410.055L522.242 410.112" fill="#EFEFEF" fill-opacity="0.4"/>
<path d="M245.375 410.112L262.07 409.97L266.244 409.664L270.418 409.087L273.201 408.465L275.983 407.353L281.549 404.442L284.331 403.56L285.722 402.892L287.114 401.806L291.288 397.779L294.07 395.851L295.461 394.484L296.853 392.537L298.244 389.93L299.635 386.691L302.418 378.961L305.2 370.508L306.592 365.636L307.983 359.823L309.374 352.942L312.157 336.68L313.548 327.354L314.939 316.824L317.722 291.647L320.505 262.544L328.852 171.251L330.244 160.868L331.635 154.82L333.026 153.36L334.418 156.181L335.809 162.507L337.2 171.179L339.983 191.689L342.765 215.655L346.939 257.178L349.722 284.046L352.504 306.16L358.069 346.011L359.461 353.841L360.852 360.411L362.243 366.125L363.635 371.182L365.026 375.581L366.417 379.348L369.2 385.576L371.982 390.762L374.765 395.178L376.156 396.94L377.547 398.208L378.939 398.982L385.895 401.5L390.069 403.044L397.026 404.806L401.199 405.916L403.982 406.765L406.765 407.32L410.938 407.812L417.895 408.164L423.46 408.948L430.416 409.715L433.199 409.738L438.764 409.582L442.938 409.723L448.503 410.071L452.677 410.006L458.242 409.888L469.373 409.938L474.938 410.024L488.851 410.04L494.416 410.015L499.981 409.989L505.546 409.995L512.503 410.055L522.242 410.112" stroke="#EFEFEF" stroke-linecap="square"/>
</g>
<mask id="mask8_230_12158" style="mask-type:luminance" maskUnits="userSpaceOnUse" x="76" y="55" width="477" height="356">
<path d="M552.957 55.2959H76.7969V410.112H552.957V55.2959Z" fill="white"/>
</mask>
<g mask="url(#mask8_230_12158)">
<path d="M223.75 410.112L242.563 409.951L248.351 409.587L251.246 409.086L254.14 408.164L257.034 406.722L258.481 405.742L259.929 404.562L261.376 403.18L262.823 401.562L264.27 399.61L265.717 397.211L267.164 394.328L268.611 391.002L270.059 387.237L271.506 382.909L272.953 377.807L274.4 371.737L275.847 364.62L278.741 347.797L283.083 319.576L287.424 288.561L293.213 246.915L294.66 238.001L296.107 230.611L297.554 224.803L299.001 220.303L300.448 216.885L301.896 214.61L303.343 213.646L304.79 213.961L306.237 215.393L307.684 217.948L309.131 221.858L310.578 227.276L312.026 234.005L316.367 257.336L327.944 320.157L330.838 333.885L333.733 345.863L336.627 355.872L339.521 365.327L340.968 369.632L342.416 373.384L345.31 379.678L348.204 385.479L349.651 387.952L351.098 389.964L353.993 393.047L356.887 395.65L359.781 397.826L364.123 400.575L367.017 402.206L369.911 403.502L375.7 405.32L378.594 406.077L388.724 408.163L393.066 408.254L400.301 408.47L406.09 409.136L413.325 409.167L420.561 409.714L427.797 409.774L432.138 409.679L445.163 410.007L490.024 410.066L504.495 410.06L511.731 410.112" fill="#EFEFEF" fill-opacity="0.4"/>
<path d="M223.75 410.112L242.563 409.951L248.351 409.587L251.246 409.086L254.14 408.164L257.034 406.722L258.481 405.742L259.929 404.562L261.376 403.18L262.823 401.562L264.27 399.61L265.717 397.211L267.164 394.328L268.611 391.002L270.059 387.237L271.506 382.909L272.953 377.807L274.4 371.737L275.847 364.62L278.741 347.797L283.083 319.576L287.424 288.561L293.213 246.915L294.66 238.001L296.107 230.611L297.554 224.803L299.001 220.303L300.448 216.885L301.896 214.61L303.343 213.646L304.79 213.961L306.237 215.393L307.684 217.948L309.131 221.858L310.578 227.276L312.026 234.005L316.367 257.336L327.944 320.157L330.838 333.885L333.733 345.863L336.627 355.872L339.521 365.327L340.968 369.632L342.416 373.384L345.31 379.678L348.204 385.479L349.651 387.952L351.098 389.964L353.993 393.047L356.887 395.65L359.781 397.826L364.123 400.575L367.017 402.206L369.911 403.502L375.7 405.32L378.594 406.077L388.724 408.163L393.066 408.254L400.301 408.47L406.09 409.136L413.325 409.167L420.561 409.714L427.797 409.774L432.138 409.679L445.163 410.007L490.024 410.066L504.495 410.06L511.731 410.112" stroke="#EFEFEF" stroke-linecap="square"/>
</g>
<mask id="mask9_230_12158" style="mask-type:luminance" maskUnits="userSpaceOnUse" x="76" y="55" width="477" height="356">
<path d="M552.957 55.2959H76.7969V410.112H552.957V55.2959Z" fill="white"/>
</mask>
<g mask="url(#mask9_230_12158)">
<path d="M259.656 410.111L265.117 409.962L269.212 409.856L273.307 409.825L276.037 409.349L277.403 409.362L280.133 409.699L281.498 409.628L286.958 408.474L292.419 407.699L295.149 406.758L297.879 405.407L299.244 404.608L300.609 403.533L301.974 402.11L303.34 400.408L306.07 396.263L308.8 391.768L310.165 389.096L311.53 385.759L312.895 381.649L314.26 376.461L316.991 363.307L321.086 342.23L322.451 334.104L323.816 323.988L325.181 311.92L330.642 258.364L332.007 243.035L336.102 190.14L337.467 176.524L340.197 153.374L341.562 142.986L342.928 134.31L344.293 128.549L345.658 126.312L347.023 128.199L348.388 134.777L349.753 144.745L351.118 156.097L352.483 168.976L353.848 184.344L356.579 221.389L359.309 266.221L362.039 309.972L363.404 327.518L364.769 341.579L366.134 352.714L368.865 371.939L370.23 380.567L371.595 387.516L372.96 392.804L374.325 396.775L375.69 399.579L378.42 403.483L379.785 405.176L381.15 406.405L382.516 407.177L385.246 408.112L389.341 409.193L392.071 409.516L397.532 409.4L401.627 409.677L404.357 409.721L407.087 409.674L415.278 410.008L423.469 409.748L428.929 410.084L438.485 410.001L443.945 409.983L473.977 410.028L479.438 410.02L486.263 410.112L531.312 410.111" fill="#EFEFEF" fill-opacity="0.4"/>
<path d="M259.656 410.111L265.117 409.962L269.212 409.856L273.307 409.825L276.037 409.349L277.403 409.362L280.133 409.699L281.498 409.628L286.958 408.474L292.419 407.699L295.149 406.758L297.879 405.407L299.244 404.608L300.609 403.533L301.974 402.11L303.34 400.408L306.07 396.263L308.8 391.768L310.165 389.096L311.53 385.759L312.895 381.649L314.26 376.461L316.991 363.307L321.086 342.23L322.451 334.104L323.816 323.988L325.181 311.92L330.642 258.364L332.007 243.035L336.102 190.14L337.467 176.524L340.197 153.374L341.562 142.986L342.928 134.31L344.293 128.549L345.658 126.312L347.023 128.199L348.388 134.777L349.753 144.745L351.118 156.097L352.483 168.976L353.848 184.344L356.579 221.389L359.309 266.221L362.039 309.972L363.404 327.518L364.769 341.579L366.134 352.714L368.865 371.939L370.23 380.567L371.595 387.516L372.96 392.804L374.325 396.775L375.69 399.579L378.42 403.483L379.785 405.176L381.15 406.405L382.516 407.177L385.246 408.112L389.341 409.193L392.071 409.516L397.532 409.4L401.627 409.677L404.357 409.721L407.087 409.674L415.278 410.008L423.469 409.748L428.929 410.084L438.485 410.001L443.945 409.983L473.977 410.028L479.438 410.02L486.263 410.112L531.312 410.111" stroke="#EFEFEF" stroke-linecap="square"/>
</g>
<mask id="mask10_230_12158" style="mask-type:luminance" maskUnits="userSpaceOnUse" x="76" y="55" width="477" height="356">
<path d="M552.957 55.2959H76.7969V410.112H552.957V55.2959Z" fill="white"/>
</mask>
<g mask="url(#mask10_230_12158)">
<path d="M205.883 410.112L228.08 409.963L232.52 409.756L235.48 409.304L238.439 408.528L250.278 404.785L251.758 404.066L253.238 403.161L254.717 402.045L257.677 399.212L260.637 395.609L262.117 393.469L263.596 391.061L266.556 385.395L269.516 378.809L272.475 371.537L275.435 363.241L278.395 353.987L281.355 343.951L285.794 327.402L291.713 304.471L294.673 294.561L302.072 272.836L305.032 265.204L307.992 258.382L309.471 255.792L310.951 254.322L312.431 254.221L313.911 255.419L315.391 257.55L318.35 262.474L321.31 266.574L322.79 269.168L324.27 272.927L325.75 278.066L328.709 291.115L331.669 303.813L333.149 308.951L336.108 317.303L339.068 325.863L344.988 345.726L349.427 360.716L352.387 369.56L355.346 377.277L358.306 384.114L359.786 386.907L361.266 389.202L368.665 398.804L370.145 400.472L371.625 401.812L373.104 402.846L376.064 404.359L379.024 405.502L383.463 406.728L387.903 407.729L396.782 409.108L414.54 409.919L500.37 410.112" fill="#EFEFEF" fill-opacity="0.4"/>
<path d="M205.883 410.112L228.08 409.963L232.52 409.756L235.48 409.304L238.439 408.528L250.278 404.785L251.758 404.066L253.238 403.161L254.717 402.045L257.677 399.212L260.637 395.609L262.117 393.469L263.596 391.061L266.556 385.395L269.516 378.809L272.475 371.537L275.435 363.241L278.395 353.987L281.355 343.951L285.794 327.402L291.713 304.471L294.673 294.561L302.072 272.836L305.032 265.204L307.992 258.382L309.471 255.792L310.951 254.322L312.431 254.221L313.911 255.419L315.391 257.55L318.35 262.474L321.31 266.574L322.79 269.168L324.27 272.927L325.75 278.066L328.709 291.115L331.669 303.813L333.149 308.951L336.108 317.303L339.068 325.863L344.988 345.726L349.427 360.716L352.387 369.56L355.346 377.277L358.306 384.114L359.786 386.907L361.266 389.202L368.665 398.804L370.145 400.472L371.625 401.812L373.104 402.846L376.064 404.359L379.024 405.502L383.463 406.728L387.903 407.729L396.782 409.108L414.54 409.919L500.37 410.112" stroke="#EFEFEF" stroke-linecap="square"/>
</g>
<mask id="mask11_230_12158" style="mask-type:luminance" maskUnits="userSpaceOnUse" x="76" y="55" width="477" height="356">
<path d="M552.957 55.2959H76.7969V410.112H552.957V55.2959Z" fill="white"/>
</mask>
<g mask="url(#mask11_230_12158)">
<path d="M244.094 410.111L250.128 409.99L257.369 409.347L259.783 408.871L262.197 408.019L263.404 407.398L264.611 406.572L265.818 405.482L267.024 404.105L269.438 400.61L271.852 396.197L273.059 393.47L275.473 386.824L277.886 379.093L279.093 374.681L280.3 369.586L282.714 357.259L288.748 323.55L294.783 284.101L298.403 261.959L302.024 238.323L303.231 231.438L304.438 225.664L305.645 221.26L306.852 218.253L308.058 216.327L311.679 212.452L312.886 211.271L314.093 210.598L315.3 211.027L316.507 212.99L317.714 216.399L320.127 225.308L322.541 235.176L323.748 241.004L326.162 255.256L333.403 303.888L335.817 317.612L340.644 341.911L343.058 353.421L345.472 363.748L347.886 373.104L350.299 381.469L351.506 385.136L352.713 388.233L353.92 390.662L355.127 392.533L359.954 398.718L362.368 401.254L365.989 404.217L368.403 405.931L370.816 407.071L373.23 407.775L375.644 408.076L382.885 408.487L386.506 408.924L391.333 409.678L408.23 409.756L413.057 409.655L431.16 409.981L435.988 409.974L443.229 410.043L460.126 410.044L484.263 410.11" fill="#EFEFEF" fill-opacity="0.4"/>
<path d="M244.094 410.111L250.128 409.99L257.369 409.347L259.783 408.871L262.197 408.019L263.404 407.398L264.611 406.572L265.818 405.482L267.024 404.105L269.438 400.61L271.852 396.197L273.059 393.47L275.473 386.824L277.886 379.093L279.093 374.681L280.3 369.586L282.714 357.259L288.748 323.55L294.783 284.101L298.403 261.959L302.024 238.323L303.231 231.438L304.438 225.664L305.645 221.26L306.852 218.253L308.058 216.327L311.679 212.452L312.886 211.271L314.093 210.598L315.3 211.027L316.507 212.99L317.714 216.399L320.127 225.308L322.541 235.176L323.748 241.004L326.162 255.256L333.403 303.888L335.817 317.612L340.644 341.911L343.058 353.421L345.472 363.748L347.886 373.104L350.299 381.469L351.506 385.136L352.713 388.233L353.92 390.662L355.127 392.533L359.954 398.718L362.368 401.254L365.989 404.217L368.403 405.931L370.816 407.071L373.23 407.775L375.644 408.076L382.885 408.487L386.506 408.924L391.333 409.678L408.23 409.756L413.057 409.655L431.16 409.981L435.988 409.974L443.229 410.043L460.126 410.044L484.263 410.11" stroke="#EFEFEF" stroke-linecap="square"/>
</g>
<mask id="mask12_230_12158" style="mask-type:luminance" maskUnits="userSpaceOnUse" x="76" y="55" width="477" height="356">
<path d="M552.957 55.2959H76.7969V410.112H552.957V55.2959Z" fill="white"/>
</mask>
<g mask="url(#mask12_230_12158)">
<path d="M251.141 410.11L263.579 409.983L272.285 409.339L277.26 408.212L278.504 408.113L279.748 407.856L282.235 406.667L288.454 403.506L289.698 402.395L290.942 400.739L292.186 398.303L293.43 394.988L295.917 387.124L297.161 382.816L298.405 377.38L299.649 370.292L302.136 352.216L304.624 330.554L305.868 316.81L308.355 282.203L310.843 247.227L317.062 166.564L318.306 154.825L319.549 147.238L322.037 137.846L323.281 133.667L324.524 130.44L325.768 128.587L327.012 128.511L328.256 131.15L329.5 137.083L330.743 145.629L331.987 156.342L333.231 170.347L335.719 207.223L341.938 298.846L344.425 326.041L346.913 349.048L348.157 358.322L349.4 366.169L351.888 378.953L353.132 384.511L355.619 393.646L356.863 397.634L358.107 401.083L359.351 403.619L360.594 405.308L361.838 406.418L363.082 407.097L365.57 407.601L366.813 407.894L369.301 408.767L371.789 408.99L385.47 409.776L389.202 409.437L391.689 409.552L395.421 409.935L400.396 409.98L415.321 409.803L417.809 409.896L422.784 409.879L426.516 409.947L430.247 409.895L435.222 410.105L440.197 409.933L443.929 409.968L452.635 410.044L456.367 410.058L463.829 410.111L498.656 410.11" fill="#EFEFEF" fill-opacity="0.4"/>
<path d="M251.141 410.11L263.579 409.983L272.285 409.339L277.26 408.212L278.504 408.113L279.748 407.856L282.235 406.667L288.454 403.506L289.698 402.395L290.942 400.739L292.186 398.303L293.43 394.988L295.917 387.124L297.161 382.816L298.405 377.38L299.649 370.292L302.136 352.216L304.624 330.554L305.868 316.81L308.355 282.203L310.843 247.227L317.062 166.564L318.306 154.825L319.549 147.238L322.037 137.846L323.281 133.667L324.524 130.44L325.768 128.587L327.012 128.511L328.256 131.15L329.5 137.083L330.743 145.629L331.987 156.342L333.231 170.347L335.719 207.223L341.938 298.846L344.425 326.041L346.913 349.048L348.157 358.322L349.4 366.169L351.888 378.953L353.132 384.511L355.619 393.646L356.863 397.634L358.107 401.083L359.351 403.619L360.594 405.308L361.838 406.418L363.082 407.097L365.57 407.601L366.813 407.894L369.301 408.767L371.789 408.99L385.47 409.776L389.202 409.437L391.689 409.552L395.421 409.935L400.396 409.98L415.321 409.803L417.809 409.896L422.784 409.879L426.516 409.947L430.247 409.895L435.222 410.105L440.197 409.933L443.929 409.968L452.635 410.044L456.367 410.058L463.829 410.111L498.656 410.11" stroke="#EFEFEF" stroke-linecap="square"/>
</g>
<mask id="mask13_230_12158" style="mask-type:luminance" maskUnits="userSpaceOnUse" x="76" y="55" width="477" height="356">
<path d="M552.957 55.2959H76.7969V410.112H552.957V55.2959Z" fill="white"/>
</mask>
<g mask="url(#mask13_230_12158)">
<path d="M258 410.112L270.001 409.983L288.67 409.129L296.671 408.202L299.338 407.639L302.005 406.663L304.672 405.288L307.339 403.443L308.672 402.247L311.339 399.246L314.006 395.709L316.673 391.661L318.007 389.254L319.34 386.493L322.007 379.928L324.674 372.132L327.341 362.753L330.008 351.258L338.009 312.95L342.009 296.096L347.343 272.51L348.677 267.411L350.01 262.903L351.344 259.092L352.677 256.086L354.011 253.968L355.344 252.765L356.678 252.416L358.011 252.776L359.345 253.631L362.012 256.019L364.679 258.946L366.012 260.849L367.346 263.186L368.679 265.977L371.346 272.767L374.013 281.08L376.68 291.157L380.68 308.781L383.347 319.955L386.014 329.332L394.015 355.095L396.682 361.241L402.016 371.677L404.683 376.612L407.35 380.815L410.017 384.186L416.684 391.804L419.351 394.197L422.018 396.144L424.685 397.604L430.019 400.095L432.686 401.508L435.353 402.575L442.021 404.62L452.689 407.303L459.356 408.039L463.356 408.65L470.024 409.17L478.025 409.762L506.028 410.065L523.363 410.112" fill="#EFEFEF" fill-opacity="0.4"/>
<path d="M258 410.112L270.001 409.983L288.67 409.129L296.671 408.202L299.338 407.639L302.005 406.663L304.672 405.288L307.339 403.443L308.672 402.247L311.339 399.246L314.006 395.709L316.673 391.661L318.007 389.254L319.34 386.493L322.007 379.928L324.674 372.132L327.341 362.753L330.008 351.258L338.009 312.95L342.009 296.096L347.343 272.51L348.677 267.411L350.01 262.903L351.344 259.092L352.677 256.086L354.011 253.968L355.344 252.765L356.678 252.416L358.011 252.776L359.345 253.631L362.012 256.019L364.679 258.946L366.012 260.849L367.346 263.186L368.679 265.977L371.346 272.767L374.013 281.08L376.68 291.157L380.68 308.781L383.347 319.955L386.014 329.332L394.015 355.095L396.682 361.241L402.016 371.677L404.683 376.612L407.35 380.815L410.017 384.186L416.684 391.804L419.351 394.197L422.018 396.144L424.685 397.604L430.019 400.095L432.686 401.508L435.353 402.575L442.021 404.62L452.689 407.303L459.356 408.039L463.356 408.65L470.024 409.17L478.025 409.762L506.028 410.065L523.363 410.112" stroke="#EFEFEF" stroke-linecap="square"/>
</g>
<mask id="mask14_230_12158" style="mask-type:luminance" maskUnits="userSpaceOnUse" x="76" y="55" width="477" height="356">
<path d="M552.957 55.2959H76.7969V410.112H552.957V55.2959Z" fill="white"/>
</mask>
<g mask="url(#mask14_230_12158)">
<path d="M98.4375 410.111L183.129 410.112L200.501 409.995L207.016 409.623L211.359 408.741L215.702 407.405L217.874 406.574L220.045 405.472L222.217 403.806L224.388 401.505L226.56 398.54L228.732 394.74L230.903 390.049L235.246 379.263L237.418 373.382L239.589 366.056L241.761 356.832L250.447 315.441L254.79 296.014L261.305 264.091L263.477 254.5L265.648 245.656L267.82 238.216L269.991 233.203L272.163 231.121L274.334 231.277L276.506 232.609L278.678 235.206L280.849 239.761L283.021 245.962L285.192 253.419L287.364 262.733L289.535 274.041L302.565 346.953L304.736 356.332L309.079 371.804L311.251 378.631L313.423 384.171L315.594 388.213L317.766 391.184L322.109 396.045L324.28 397.997L330.795 402.786L332.967 404.14L335.138 405.029L343.825 407.211L345.996 407.493L350.339 407.742L363.369 409.258L372.055 409.683L378.57 409.825L387.256 409.684L395.942 409.909L402.457 409.842L408.972 409.816L432.859 410.092L461.089 410.071L467.604 410.01L478.462 410.074L530.579 410.111" fill="#7EB0D5" fill-opacity="0.4"/>
<path d="M98.4375 410.111L183.129 410.112L200.501 409.995L207.016 409.623L211.359 408.741L215.702 407.405L217.874 406.574L220.045 405.472L222.217 403.806L224.388 401.505L226.56 398.54L228.732 394.74L230.903 390.049L235.246 379.263L237.418 373.382L239.589 366.056L241.761 356.832L250.447 315.441L254.79 296.014L261.305 264.091L263.477 254.5L265.648 245.656L267.82 238.216L269.991 233.203L272.163 231.121L274.334 231.277L276.506 232.609L278.678 235.206L280.849 239.761L283.021 245.962L285.192 253.419L287.364 262.733L289.535 274.041L302.565 346.953L304.736 356.332L309.079 371.804L311.251 378.631L313.423 384.171L315.594 388.213L317.766 391.184L322.109 396.045L324.28 397.997L330.795 402.786L332.967 404.14L335.138 405.029L343.825 407.211L345.996 407.493L350.339 407.742L363.369 409.258L372.055 409.683L378.57 409.825L387.256 409.684L395.942 409.909L402.457 409.842L408.972 409.816L432.859 410.092L461.089 410.071L467.604 410.01L478.462 410.074L530.579 410.111" stroke="#7EB0D5" stroke-linecap="square"/>
</g>
<path d="M535.061 411.061C535.646 410.475 535.646 409.525 535.061 408.939L525.515 399.393C524.929 398.808 523.979 398.808 523.393 399.393C522.808 399.979 522.808 400.929 523.393 401.515L531.879 410L523.393 418.485C522.808 419.071 522.808 420.021 523.393 420.607C523.979 421.192 524.929 421.192 525.515 420.607L535.061 411.061ZM79 411.5H534V408.5H79V411.5Z" fill="black"/>
</g>
<defs>
<clipPath id="clip0_230_12158">
<rect width="614.4" height="460.8" fill="white"/>
</clipPath>
</defs>
</svg>
