<svg width="615" height="461" viewBox="0 0 615 461" fill="none" xmlns="http://www.w3.org/2000/svg">
<g clip-path="url(#clip0_230_11278)">
<mask id="mask0_230_11278" style="mask-type:luminance" maskUnits="userSpaceOnUse" x="76" y="55" width="477" height="356">
<path d="M552.957 55.2959H76.7969V410.112H552.957V55.2959Z" fill="white"/>
</mask>
<g mask="url(#mask0_230_11278)">
<path d="M319.602 410.111L327.097 409.978L330.845 409.751L333.656 409.298L336.467 408.425L339.278 407.33L341.152 406.228L343.026 404.651L344.9 402.485L346.774 399.857L348.648 396.734L350.522 392.61L352.396 387.251L354.27 380.562L357.081 368.39L360.829 350.847L371.136 300.64L373.01 293.114L374.884 287.93L376.758 283.322L379.569 276.113L380.506 274.483L381.443 273.463L382.38 273L383.317 272.966L384.254 273.209L385.191 273.62L386.128 274.202L387.065 275.072L388.002 276.344L389.876 279.928L391.749 284.117L392.686 286.596L393.623 289.595L395.497 297.105L399.245 313.148L404.867 335.6L411.426 367.523L413.3 375.012L415.174 380.992L417.048 385.692L419.859 391.775L422.67 396.917L424.544 399.849L426.418 402.185L428.292 403.844L431.103 405.683L434.851 407.771L436.725 408.552L438.599 408.972L441.41 409.103L445.158 409.364L450.78 409.777L493.881 410.106L506.062 410.111" fill="#EFEFEF" fill-opacity="0.4"/>
<path d="M319.602 410.111L327.097 409.978L330.845 409.751L333.656 409.298L336.467 408.425L339.278 407.33L341.152 406.228L343.026 404.651L344.9 402.485L346.774 399.857L348.648 396.734L350.522 392.61L352.396 387.251L354.27 380.562L357.081 368.39L360.829 350.847L371.136 300.64L373.01 293.114L374.884 287.93L376.758 283.322L379.569 276.113L380.506 274.483L381.443 273.463L382.38 273L383.317 272.966L384.254 273.209L385.191 273.62L386.128 274.202L387.065 275.072L388.002 276.344L389.876 279.928L391.749 284.117L392.686 286.596L393.623 289.595L395.497 297.105L399.245 313.148L404.867 335.6L411.426 367.523L413.3 375.012L415.174 380.992L417.048 385.692L419.859 391.775L422.67 396.917L424.544 399.849L426.418 402.185L428.292 403.844L431.103 405.683L434.851 407.771L436.725 408.552L438.599 408.972L441.41 409.103L445.158 409.364L450.78 409.777L493.881 410.106L506.062 410.111" stroke="#EFEFEF" stroke-linecap="square"/>
</g>
<mask id="mask1_230_11278" style="mask-type:luminance" maskUnits="userSpaceOnUse" x="76" y="55" width="477" height="356">
<path d="M552.957 55.2959H76.7969V410.112H552.957V55.2959Z" fill="white"/>
</mask>
<g mask="url(#mask1_230_11278)">
<path d="M299.742 410.111L306.724 410.001L310.215 409.678L312.543 409.258L314.87 408.614L317.197 407.622L318.361 406.929L319.525 406.056L320.689 404.971L321.852 403.645L323.016 402.062L325.343 398.13L327.671 393.259L329.998 387.529L332.325 381.001L342.799 349.822L345.126 344.348L347.453 339.879L349.781 336.414L350.944 335.049L352.108 333.947L353.272 333.135L354.435 332.649L355.599 332.511L356.763 332.721L357.926 333.249L359.09 334.039L361.418 336.109L366.072 340.473L368.4 342.267L370.727 343.732L374.218 345.493L380.036 348.168L382.364 348.951L391.673 351.519L396.328 353.372L399.819 354.561L402.146 355.727L405.638 358.046L410.292 361.395L412.62 363.604L414.947 366.349L423.093 376.874L432.402 387.3L442.875 399.995L445.203 402.176L447.53 403.927L449.858 405.271L452.185 406.308L455.676 407.517L459.167 408.438L463.822 409.312L467.313 409.717L471.968 409.949L484.768 410.076L531.315 410.112" fill="#EFEFEF" fill-opacity="0.4"/>
<path d="M299.742 410.111L306.724 410.001L310.215 409.678L312.543 409.258L314.87 408.614L317.197 407.622L318.361 406.929L319.525 406.056L320.689 404.971L321.852 403.645L323.016 402.062L325.343 398.13L327.671 393.259L329.998 387.529L332.325 381.001L342.799 349.822L345.126 344.348L347.453 339.879L349.781 336.414L350.944 335.049L352.108 333.947L353.272 333.135L354.435 332.649L355.599 332.511L356.763 332.721L357.926 333.249L359.09 334.039L361.418 336.109L366.072 340.473L368.4 342.267L370.727 343.732L374.218 345.493L380.036 348.168L382.364 348.951L391.673 351.519L396.328 353.372L399.819 354.561L402.146 355.727L405.638 358.046L410.292 361.395L412.62 363.604L414.947 366.349L423.093 376.874L432.402 387.3L442.875 399.995L445.203 402.176L447.53 403.927L449.858 405.271L452.185 406.308L455.676 407.517L459.167 408.438L463.822 409.312L467.313 409.717L471.968 409.949L484.768 410.076L531.315 410.112" stroke="#EFEFEF" stroke-linecap="square"/>
</g>
<mask id="mask2_230_11278" style="mask-type:luminance" maskUnits="userSpaceOnUse" x="76" y="55" width="477" height="356">
<path d="M552.957 55.2959H76.7969V410.112H552.957V55.2959Z" fill="white"/>
</mask>
<g mask="url(#mask2_230_11278)">
<path d="M325.25 410.112L336.473 409.966L342.085 409.513L345.826 408.999L348.632 408.134L350.502 407.416L352.373 406.31L354.243 404.456L357.049 400.981L357.985 399.672L358.92 398.079L359.855 396.031L360.79 393.438L362.661 386.935L365.467 376.055L367.337 367.122L372.014 341.014L373.884 329.642L376.69 310.05L380.431 283.325L382.302 272.385L384.172 264.69L386.043 258.607L387.913 253.399L388.849 251.363L389.784 249.829L390.719 248.81L391.654 248.447L392.59 249.043L393.525 250.804L394.46 253.596L400.072 274.208L401.007 278.682L402.878 290.207L405.683 309.132L408.489 325.113L411.295 341.756L414.101 359.285L415.971 368.63L417.842 376.141L419.713 382.584L423.454 393.828L425.324 398.328L426.259 399.933L428.13 402.235L430.936 405.021L432.806 406.53L434.677 407.528L439.353 408.963L442.159 409.523L445.9 409.964L450.577 410.001L511.369 410.112" fill="#EFEFEF" fill-opacity="0.4"/>
<path d="M325.25 410.112L336.473 409.966L342.085 409.513L345.826 408.999L348.632 408.134L350.502 407.416L352.373 406.31L354.243 404.456L357.049 400.981L357.985 399.672L358.92 398.079L359.855 396.031L360.79 393.438L362.661 386.935L365.467 376.055L367.337 367.122L372.014 341.014L373.884 329.642L376.69 310.05L380.431 283.325L382.302 272.385L384.172 264.69L386.043 258.607L387.913 253.399L388.849 251.363L389.784 249.829L390.719 248.81L391.654 248.447L392.59 249.043L393.525 250.804L394.46 253.596L400.072 274.208L401.007 278.682L402.878 290.207L405.683 309.132L408.489 325.113L411.295 341.756L414.101 359.285L415.971 368.63L417.842 376.141L419.713 382.584L423.454 393.828L425.324 398.328L426.259 399.933L428.13 402.235L430.936 405.021L432.806 406.53L434.677 407.528L439.353 408.963L442.159 409.523L445.9 409.964L450.577 410.001L511.369 410.112" stroke="#EFEFEF" stroke-linecap="square"/>
</g>
<mask id="mask3_230_11278" style="mask-type:luminance" maskUnits="userSpaceOnUse" x="76" y="55" width="477" height="356">
<path d="M552.957 55.2959H76.7969V410.112H552.957V55.2959Z" fill="white"/>
</mask>
<g mask="url(#mask3_230_11278)">
<path d="M327.992 410.111L336.403 409.965L344.815 409.57L346.344 409.385L355.52 407.13L360.108 405.283L363.931 403.172L367.754 401.008L369.284 399.694L370.813 397.879L372.342 395.348L373.872 391.876L375.401 387.516L377.695 379.884L379.989 371.42L381.518 364.98L383.047 357.482L384.577 348.658L389.165 318.916L391.459 302.296L393.753 285.822L396.046 271.515L397.576 264.408L399.105 259.886L402.164 252.405L402.928 251.213L403.693 250.655L404.458 250.732L405.222 251.336L406.752 253.451L408.281 255.706L410.575 258.663L411.34 260.068L412.104 262.077L412.869 264.873L414.398 272.788L422.809 325.305L424.339 337.337L426.633 356.665L428.162 366.97L429.691 375.152L431.221 382.06L432.75 387.846L435.044 395.246L436.573 399.508L438.103 402.637L439.632 404.597L441.161 405.963L443.455 407.561L444.984 408.285L447.278 408.951L449.572 409.256L465.63 410.016L480.159 410.111" fill="#EFEFEF" fill-opacity="0.4"/>
<path d="M327.992 410.111L336.403 409.965L344.815 409.57L346.344 409.385L355.52 407.13L360.108 405.283L363.931 403.172L367.754 401.008L369.284 399.694L370.813 397.879L372.342 395.348L373.872 391.876L375.401 387.516L377.695 379.884L379.989 371.42L381.518 364.98L383.047 357.482L384.577 348.658L389.165 318.916L391.459 302.296L393.753 285.822L396.046 271.515L397.576 264.408L399.105 259.886L402.164 252.405L402.928 251.213L403.693 250.655L404.458 250.732L405.222 251.336L406.752 253.451L408.281 255.706L410.575 258.663L411.34 260.068L412.104 262.077L412.869 264.873L414.398 272.788L422.809 325.305L424.339 337.337L426.633 356.665L428.162 366.97L429.691 375.152L431.221 382.06L432.75 387.846L435.044 395.246L436.573 399.508L438.103 402.637L439.632 404.597L441.161 405.963L443.455 407.561L444.984 408.285L447.278 408.951L449.572 409.256L465.63 410.016L480.159 410.111" stroke="#EFEFEF" stroke-linecap="square"/>
</g>
<mask id="mask4_230_11278" style="mask-type:luminance" maskUnits="userSpaceOnUse" x="76" y="55" width="477" height="356">
<path d="M552.957 55.2959H76.7969V410.112H552.957V55.2959Z" fill="white"/>
</mask>
<g mask="url(#mask4_230_11278)">
<path d="M301.008 410.111L308.963 409.987L312.941 409.603L314.93 409.194L316.919 408.525L318.908 407.484L320.897 405.964L322.886 403.91L324.875 401.374L328.853 395.575L335.814 385.105L337.803 382.969L339.792 381.515L342.775 380.064L345.758 378.517L348.742 376.511L351.725 374.23L354.708 371.499L359.681 366.428L361.67 364.005L363.659 360.983L365.647 357.366L369.625 349.347L372.609 342.784L374.598 337.733L378.575 326.466L381.559 318.23L383.548 313.282L385.537 308.998L387.526 305.696L388.52 304.536L389.514 303.753L390.509 303.352L391.503 303.307L392.498 303.572L393.492 304.101L394.487 304.87L395.481 305.895L396.476 307.227L397.47 308.929L398.465 311.046L400.453 316.447L412.387 354.047L416.365 366.762L418.354 372.313L420.343 377.075L422.332 381.072L425.315 386.203L429.293 392.444L431.282 395.092L433.271 397.208L435.259 398.864L441.226 403.101L444.21 404.97L447.193 406.445L450.176 407.585L453.16 408.445L457.138 409.224L461.115 409.663L466.088 409.834L486.971 410.08L498.905 410.112" fill="#EFEFEF" fill-opacity="0.4"/>
<path d="M301.008 410.111L308.963 409.987L312.941 409.603L314.93 409.194L316.919 408.525L318.908 407.484L320.897 405.964L322.886 403.91L324.875 401.374L328.853 395.575L335.814 385.105L337.803 382.969L339.792 381.515L342.775 380.064L345.758 378.517L348.742 376.511L351.725 374.23L354.708 371.499L359.681 366.428L361.67 364.005L363.659 360.983L365.647 357.366L369.625 349.347L372.609 342.784L374.598 337.733L378.575 326.466L381.559 318.23L383.548 313.282L385.537 308.998L387.526 305.696L388.52 304.536L389.514 303.753L390.509 303.352L391.503 303.307L392.498 303.572L393.492 304.101L394.487 304.87L395.481 305.895L396.476 307.227L397.47 308.929L398.465 311.046L400.453 316.447L412.387 354.047L416.365 366.762L418.354 372.313L420.343 377.075L422.332 381.072L425.315 386.203L429.293 392.444L431.282 395.092L433.271 397.208L435.259 398.864L441.226 403.101L444.21 404.97L447.193 406.445L450.176 407.585L453.16 408.445L457.138 409.224L461.115 409.663L466.088 409.834L486.971 410.08L498.905 410.112" stroke="#EFEFEF" stroke-linecap="square"/>
</g>
<mask id="mask5_230_11278" style="mask-type:luminance" maskUnits="userSpaceOnUse" x="76" y="55" width="477" height="356">
<path d="M552.957 55.2959H76.7969V410.112H552.957V55.2959Z" fill="white"/>
</mask>
<g mask="url(#mask5_230_11278)">
<path d="M327.453 410.111L347.247 409.886L357.144 409.248L358.464 408.984L359.784 409.065L361.103 409.244L362.423 409.104L364.402 408.821L365.722 408.677L367.042 408.298L369.681 407.155L372.32 405.628L373.64 405.454L374.959 405.297L375.619 404.95L376.279 404.357L376.939 403.496L377.598 402.249L378.258 400.447L379.578 395.267L380.897 388.945L382.217 381.135L382.877 376.022L384.196 362.307L385.516 344.702L386.836 322.716L388.155 296.052L393.434 175.331L394.753 148.458L395.413 137.401L396.073 129.569L396.733 124.774L397.393 121.996L398.052 120.484L398.712 120.369L399.372 122.258L400.032 126.275L401.351 138.488L402.011 146.834L403.331 170.735L405.31 211.272L408.609 265.574L409.929 290.355L411.249 309.809L415.207 356.473L416.527 368.877L417.847 377.929L419.166 385.517L420.486 391.415L421.805 395.834L423.125 399.057L424.445 401.437L427.084 405.35L428.404 406.646L429.723 407.507L431.043 408.088L436.321 409.616L438.96 409.643L440.94 409.831L444.899 409.664L446.218 409.548L452.816 409.969L454.796 409.861L458.755 410.111" fill="#EFEFEF" fill-opacity="0.4"/>
<path d="M327.453 410.111L347.247 409.886L357.144 409.248L358.464 408.984L359.784 409.065L361.103 409.244L362.423 409.104L364.402 408.821L365.722 408.677L367.042 408.298L369.681 407.155L372.32 405.628L373.64 405.454L374.959 405.297L375.619 404.95L376.279 404.357L376.939 403.496L377.598 402.249L378.258 400.447L379.578 395.267L380.897 388.945L382.217 381.135L382.877 376.022L384.196 362.307L385.516 344.702L386.836 322.716L388.155 296.052L393.434 175.331L394.753 148.458L395.413 137.401L396.073 129.569L396.733 124.774L397.393 121.996L398.052 120.484L398.712 120.369L399.372 122.258L400.032 126.275L401.351 138.488L402.011 146.834L403.331 170.735L405.31 211.272L408.609 265.574L409.929 290.355L411.249 309.809L415.207 356.473L416.527 368.877L417.847 377.929L419.166 385.517L420.486 391.415L421.805 395.834L423.125 399.057L424.445 401.437L427.084 405.35L428.404 406.646L429.723 407.507L431.043 408.088L436.321 409.616L438.96 409.643L440.94 409.831L444.899 409.664L446.218 409.548L452.816 409.969L454.796 409.861L458.755 410.111" stroke="#EFEFEF" stroke-linecap="square"/>
</g>
<mask id="mask6_230_11278" style="mask-type:luminance" maskUnits="userSpaceOnUse" x="76" y="55" width="477" height="356">
<path d="M552.957 55.2959H76.7969V410.112H552.957V55.2959Z" fill="white"/>
</mask>
<g mask="url(#mask6_230_11278)">
<path d="M313.086 410.111L319.977 409.991L324.284 409.638L328.59 408.951L330.313 408.374L332.036 407.298L332.897 406.484L333.758 405.443L335.481 402.661L337.204 399.149L339.788 393.166L341.51 388.519L343.233 383.048L350.124 359.483L352.708 351.387L355.292 342.513L357.015 335.761L358.738 327.67L367.351 283.668L369.074 277.449L371.658 269.564L373.38 264.889L374.242 263.035L375.103 261.747L375.965 261.219L376.826 261.586L377.687 262.858L378.549 264.896L380.271 270.255L383.717 282.242L385.439 290.105L387.162 300.152L392.33 333.391L394.053 342.471L396.637 354.206L399.221 364.828L400.944 370.748L402.666 375.306L404.389 378.859L410.419 390.018L412.141 392.266L413.864 393.939L418.171 397.86L420.755 400.214L422.477 401.381L425.062 402.589L432.814 405.468L437.982 407.109L443.15 408.66L445.734 409.146L450.041 409.565L466.406 410.025L481.911 410.105L484.495 410.112" fill="#EFEFEF" fill-opacity="0.4"/>
<path d="M313.086 410.111L319.977 409.991L324.284 409.638L328.59 408.951L330.313 408.374L332.036 407.298L332.897 406.484L333.758 405.443L335.481 402.661L337.204 399.149L339.788 393.166L341.51 388.519L343.233 383.048L350.124 359.483L352.708 351.387L355.292 342.513L357.015 335.761L358.738 327.67L367.351 283.668L369.074 277.449L371.658 269.564L373.38 264.889L374.242 263.035L375.103 261.747L375.965 261.219L376.826 261.586L377.687 262.858L378.549 264.896L380.271 270.255L383.717 282.242L385.439 290.105L387.162 300.152L392.33 333.391L394.053 342.471L396.637 354.206L399.221 364.828L400.944 370.748L402.666 375.306L404.389 378.859L410.419 390.018L412.141 392.266L413.864 393.939L418.171 397.86L420.755 400.214L422.477 401.381L425.062 402.589L432.814 405.468L437.982 407.109L443.15 408.66L445.734 409.146L450.041 409.565L466.406 410.025L481.911 410.105L484.495 410.112" stroke="#EFEFEF" stroke-linecap="square"/>
</g>
<mask id="mask7_230_11278" style="mask-type:luminance" maskUnits="userSpaceOnUse" x="76" y="55" width="477" height="356">
<path d="M552.957 55.2959H76.7969V410.112H552.957V55.2959Z" fill="white"/>
</mask>
<g mask="url(#mask7_230_11278)">
<path d="M314.898 410.111L320.738 409.997L323.658 409.653L325.605 409.216L327.552 408.553L329.498 407.578L331.445 406.166L333.392 404.118L334.365 402.719L335.338 400.965L336.311 398.809L338.258 393.373L340.205 386.731L342.151 378.705L344.098 368.825L346.045 356.671L347.991 342.183L358.698 256.553L359.671 250.933L360.644 246.437L361.618 243.204L362.591 241.284L363.564 240.573L364.538 240.85L365.511 241.898L366.484 243.584L367.458 245.851L368.431 248.694L369.404 252.174L370.378 256.424L371.351 261.568L373.298 274.307L378.164 308.924L381.084 327.164L384.004 343.876L385.951 353.745L387.897 361.824L389.844 368.304L391.791 373.622L393.737 378.023L395.684 381.684L398.604 386.489L400.551 389.242L401.524 390.296L403.471 391.74L405.417 392.659L411.257 394.921L413.204 396.39L417.097 399.789L421.964 402.747L423.91 403.802L425.857 404.383L428.777 405.05L433.644 406.971L436.563 407.354L438.51 407.683L444.35 409.03L448.243 409.41L453.11 409.656L457.977 409.761L461.87 409.991L508.589 410.111" fill="#EFEFEF" fill-opacity="0.4"/>
<path d="M314.898 410.111L320.738 409.997L323.658 409.653L325.605 409.216L327.552 408.553L329.498 407.578L331.445 406.166L333.392 404.118L334.365 402.719L335.338 400.965L336.311 398.809L338.258 393.373L340.205 386.731L342.151 378.705L344.098 368.825L346.045 356.671L347.991 342.183L358.698 256.553L359.671 250.933L360.644 246.437L361.618 243.204L362.591 241.284L363.564 240.573L364.538 240.85L365.511 241.898L366.484 243.584L367.458 245.851L368.431 248.694L369.404 252.174L370.378 256.424L371.351 261.568L373.298 274.307L378.164 308.924L381.084 327.164L384.004 343.876L385.951 353.745L387.897 361.824L389.844 368.304L391.791 373.622L393.737 378.023L395.684 381.684L398.604 386.489L400.551 389.242L401.524 390.296L403.471 391.74L405.417 392.659L411.257 394.921L413.204 396.39L417.097 399.789L421.964 402.747L423.91 403.802L425.857 404.383L428.777 405.05L433.644 406.971L436.563 407.354L438.51 407.683L444.35 409.03L448.243 409.41L453.11 409.656L457.977 409.761L461.87 409.991L508.589 410.111" stroke="#EFEFEF" stroke-linecap="square"/>
</g>
<mask id="mask8_230_11278" style="mask-type:luminance" maskUnits="userSpaceOnUse" x="76" y="55" width="477" height="356">
<path d="M552.957 55.2959H76.7969V410.112H552.957V55.2959Z" fill="white"/>
</mask>
<g mask="url(#mask8_230_11278)">
<path d="M318.961 410.112L325.511 409.99L329.253 409.624L332.06 409.156L333.932 408.63L335.803 407.787L337.675 406.528L339.546 404.695L341.417 402.019L343.289 398.39L345.16 393.91L347.031 388.423L348.903 381.558L350.774 373.238L352.645 363.653L355.452 347.651L360.131 320.334L362.002 311.043L364.809 298.77L366.681 291.674L367.616 288.889L368.552 286.831L369.488 285.579L370.423 285.12L371.359 285.348L372.295 286.07L375.102 288.755L377.909 290.571L378.844 291.636L379.78 293.153L381.652 297.259L384.459 303.783L388.201 311.846L390.073 317.141L395.687 334.493L399.429 344.969L405.979 361.01L407.851 364.738L410.658 369.695L412.529 373.627L416.272 382.144L418.143 385.675L424.693 396.563L426.564 398.88L428.436 400.637L431.243 402.87L433.114 404.143L435.921 405.616L441.535 408.155L444.342 408.973L447.149 409.502L450.892 409.816L455.57 409.92L462.12 410.011L479.898 410.112L505.161 410.112" fill="#EFEFEF" fill-opacity="0.4"/>
<path d="M318.961 410.112L325.511 409.99L329.253 409.624L332.06 409.156L333.932 408.63L335.803 407.787L337.675 406.528L339.546 404.695L341.417 402.019L343.289 398.39L345.16 393.91L347.031 388.423L348.903 381.558L350.774 373.238L352.645 363.653L355.452 347.651L360.131 320.334L362.002 311.043L364.809 298.77L366.681 291.674L367.616 288.889L368.552 286.831L369.488 285.579L370.423 285.12L371.359 285.348L372.295 286.07L375.102 288.755L377.909 290.571L378.844 291.636L379.78 293.153L381.652 297.259L384.459 303.783L388.201 311.846L390.073 317.141L395.687 334.493L399.429 344.969L405.979 361.01L407.851 364.738L410.658 369.695L412.529 373.627L416.272 382.144L418.143 385.675L424.693 396.563L426.564 398.88L428.436 400.637L431.243 402.87L433.114 404.143L435.921 405.616L441.535 408.155L444.342 408.973L447.149 409.502L450.892 409.816L455.57 409.92L462.12 410.011L479.898 410.112L505.161 410.112" stroke="#EFEFEF" stroke-linecap="square"/>
</g>
<mask id="mask9_230_11278" style="mask-type:luminance" maskUnits="userSpaceOnUse" x="76" y="55" width="477" height="356">
<path d="M552.957 55.2959H76.7969V410.112H552.957V55.2959Z" fill="white"/>
</mask>
<g mask="url(#mask9_230_11278)">
<path d="M330.305 410.111L344.951 409.941L349.528 409.55L351.359 409.057L353.19 408.971L355.936 409.183L357.767 408.868L359.598 408.34L361.429 408.296L362.344 408.343L363.259 408.221L365.09 407.392L366.921 406.176L368.752 404.221L371.498 401L372.414 399.442L373.329 397.255L375.16 391.349L377.906 381.773L379.737 373.932L380.652 369.432L381.568 363.99L382.483 357.218L384.314 340.656L387.06 313.423L388.891 293.021L392.553 249.166L395.299 211.54L396.214 202.433L397.13 195.829L398.045 191.233L398.96 188.629L399.876 188.135L400.791 189.482L401.707 192.152L403.537 199.426L404.453 204.145L405.368 210.809L406.284 219.954L409.945 262.844L412.692 290.968L417.269 339.548L419.099 356.468L420.93 370.391L422.761 380.757L424.592 389.454L425.507 393.092L427.338 398.61L429.169 402.879L431 406.177L431.915 407.285L432.831 407.997L433.746 408.394L435.577 408.7L437.408 409.034L440.154 409.791L442.9 409.994L445.646 409.984L448.393 409.816L452.054 410.053L455.716 410.102L464.87 410.055L471.278 410.112L512.471 410.111" fill="#EFEFEF" fill-opacity="0.4"/>
<path d="M330.305 410.111L344.951 409.941L349.528 409.55L351.359 409.057L353.19 408.971L355.936 409.183L357.767 408.868L359.598 408.34L361.429 408.296L362.344 408.343L363.259 408.221L365.09 407.392L366.921 406.176L368.752 404.221L371.498 401L372.414 399.442L373.329 397.255L375.16 391.349L377.906 381.773L379.737 373.932L380.652 369.432L381.568 363.99L382.483 357.218L384.314 340.656L387.06 313.423L388.891 293.021L392.553 249.166L395.299 211.54L396.214 202.433L397.13 195.829L398.045 191.233L398.96 188.629L399.876 188.135L400.791 189.482L401.707 192.152L403.537 199.426L404.453 204.145L405.368 210.809L406.284 219.954L409.945 262.844L412.692 290.968L417.269 339.548L419.099 356.468L420.93 370.391L422.761 380.757L424.592 389.454L425.507 393.092L427.338 398.61L429.169 402.879L431 406.177L431.915 407.285L432.831 407.997L433.746 408.394L435.577 408.7L437.408 409.034L440.154 409.791L442.9 409.994L445.646 409.984L448.393 409.816L452.054 410.053L455.716 410.102L464.87 410.055L471.278 410.112L512.471 410.111" stroke="#EFEFEF" stroke-linecap="square"/>
</g>
<mask id="mask10_230_11278" style="mask-type:luminance" maskUnits="userSpaceOnUse" x="76" y="55" width="477" height="356">
<path d="M552.957 55.2959H76.7969V410.112H552.957V55.2959Z" fill="white"/>
</mask>
<g mask="url(#mask10_230_11278)">
<path d="M317.969 410.111L328.117 409.967L334.037 409.44L336.574 409.158L338.266 408.744L340.803 407.755L344.186 406.387L346.723 405.462L348.414 404.47L350.106 402.874L351.797 400.717L353.489 398.11L355.18 395.016L356.872 391.397L359.409 385.08L361.1 380.229L362.792 374.671L364.483 368.224L367.02 357.006L369.557 345.908L372.094 336.494L377.169 317.982L379.706 307.764L384.78 286.468L386.471 281.246L388.163 277.282L389.009 275.846L389.854 274.81L390.7 274.162L391.546 273.879L392.391 273.95L393.237 274.398L394.083 275.268L394.929 276.603L395.774 278.417L397.466 283.3L401.694 297.156L404.231 305.301L405.923 312.072L408.46 324.437L410.997 336.591L413.534 346.377L416.071 356.401L418.609 366.437L420.3 371.42L427.911 389.742L429.603 392.786L432.986 398.087L434.677 400.384L436.369 402.203L438.06 403.593L441.443 405.835L443.98 407.273L445.671 408.013L447.363 408.484L452.437 409.295L456.666 409.81L460.894 409.996L471.888 410.057L486.266 410.111" fill="#EFEFEF" fill-opacity="0.4"/>
<path d="M317.969 410.111L328.117 409.967L334.037 409.44L336.574 409.158L338.266 408.744L340.803 407.755L344.186 406.387L346.723 405.462L348.414 404.47L350.106 402.874L351.797 400.717L353.489 398.11L355.18 395.016L356.872 391.397L359.409 385.08L361.1 380.229L362.792 374.671L364.483 368.224L367.02 357.006L369.557 345.908L372.094 336.494L377.169 317.982L379.706 307.764L384.78 286.468L386.471 281.246L388.163 277.282L389.009 275.846L389.854 274.81L390.7 274.162L391.546 273.879L392.391 273.95L393.237 274.398L394.083 275.268L394.929 276.603L395.774 278.417L397.466 283.3L401.694 297.156L404.231 305.301L405.923 312.072L408.46 324.437L410.997 336.591L413.534 346.377L416.071 356.401L418.609 366.437L420.3 371.42L427.911 389.742L429.603 392.786L432.986 398.087L434.677 400.384L436.369 402.203L438.06 403.593L441.443 405.835L443.98 407.273L445.671 408.013L447.363 408.484L452.437 409.295L456.666 409.81L460.894 409.996L471.888 410.057L486.266 410.111" stroke="#EFEFEF" stroke-linecap="square"/>
</g>
<mask id="mask11_230_11278" style="mask-type:luminance" maskUnits="userSpaceOnUse" x="76" y="55" width="477" height="356">
<path d="M552.957 55.2959H76.7969V410.112H552.957V55.2959Z" fill="white"/>
</mask>
<g mask="url(#mask11_230_11278)">
<path d="M304.672 410.111L312.893 409.996L316.547 409.712L319.287 409.175L322.028 408.252L323.855 407.319L325.682 405.951L327.509 403.983L329.336 401.375L331.162 398.236L333.903 392.753L335.73 388.499L338.47 381.215L342.124 370.608L344.865 361.334L347.605 351.862L349.432 346.532L353.086 336.401L357.653 322.967L359.48 318.808L361.307 315.728L364.047 311.484L365.874 307.868L368.615 302.176L369.528 300.715L370.442 299.64L371.355 298.991L372.269 298.765L373.182 298.924L374.096 299.405L375.922 300.963L377.749 302.638L382.317 306.243L383.23 307.453L385.057 310.779L386.884 315.002L391.451 326.677L394.192 334.313L397.846 345.599L400.586 354.863L404.24 367.737L406.067 373.181L408.807 379.99L411.548 386.079L413.375 389.6L415.202 392.608L417.029 395.089L418.856 397.033L421.596 399.322L424.336 401.296L428.904 404.079L431.644 405.632L434.384 406.783L437.125 407.577L444.433 409.12L448.087 409.616L451.74 409.83L486.452 410.111" fill="#EFEFEF" fill-opacity="0.4"/>
<path d="M304.672 410.111L312.893 409.996L316.547 409.712L319.287 409.175L322.028 408.252L323.855 407.319L325.682 405.951L327.509 403.983L329.336 401.375L331.162 398.236L333.903 392.753L335.73 388.499L338.47 381.215L342.124 370.608L344.865 361.334L347.605 351.862L349.432 346.532L353.086 336.401L357.653 322.967L359.48 318.808L361.307 315.728L364.047 311.484L365.874 307.868L368.615 302.176L369.528 300.715L370.442 299.64L371.355 298.991L372.269 298.765L373.182 298.924L374.096 299.405L375.922 300.963L377.749 302.638L382.317 306.243L383.23 307.453L385.057 310.779L386.884 315.002L391.451 326.677L394.192 334.313L397.846 345.599L400.586 354.863L404.24 367.737L406.067 373.181L408.807 379.99L411.548 386.079L413.375 389.6L415.202 392.608L417.029 395.089L418.856 397.033L421.596 399.322L424.336 401.296L428.904 404.079L431.644 405.632L434.384 406.783L437.125 407.577L444.433 409.12L448.087 409.616L451.74 409.83L486.452 410.111" stroke="#EFEFEF" stroke-linecap="square"/>
</g>
<mask id="mask12_230_11278" style="mask-type:luminance" maskUnits="userSpaceOnUse" x="76" y="55" width="477" height="356">
<path d="M552.957 55.2959H76.7969V410.112H552.957V55.2959Z" fill="white"/>
</mask>
<g mask="url(#mask12_230_11278)">
<path d="M326.398 410.111L353.069 409.82L355.355 409.367L362.213 409.148L364.499 408.684L367.547 408.821L368.309 408.524L369.833 407.588L370.595 407.395L372.119 407.566L372.881 407.338L374.405 406.259L375.167 405.93L376.691 405.608L377.453 405.271L378.215 404.69L378.977 403.772L379.739 402.403L381.263 398.609L385.073 388.079L385.835 385.067L386.597 380.937L388.121 370.392L389.645 356.984L391.169 339.765L394.217 298.734L395.741 277.233L397.265 249.206L401.837 148.898L403.361 109.976L404.123 93.4683L404.885 80.7376L405.647 73.4994L406.409 72.1924L407.171 75.1123L407.933 82.0468L408.695 95.8975L409.457 118.341L412.505 226.378L414.791 291.21L416.315 325.115L417.839 352.681L418.601 364.084L419.363 372.803L420.125 379.321L421.649 388.67L423.173 395.967L423.935 398.799L424.697 400.958L426.221 404.11L426.983 405.301L427.745 406.119L428.507 406.541L430.031 407.007L433.841 408.844L435.365 408.817L436.889 408.722L439.937 409.382L441.461 409.081L442.985 409.448L444.509 409.706L446.795 409.703L449.843 409.586L452.891 409.92L457.463 410.003L459.749 409.967L462.797 410.111L478.038 410.111" fill="#EFEFEF" fill-opacity="0.4"/>
<path d="M326.398 410.111L353.069 409.82L355.355 409.367L362.213 409.148L364.499 408.684L367.547 408.821L368.309 408.524L369.833 407.588L370.595 407.395L372.119 407.566L372.881 407.338L374.405 406.259L375.167 405.93L376.691 405.608L377.453 405.271L378.215 404.69L378.977 403.772L379.739 402.403L381.263 398.609L385.073 388.079L385.835 385.067L386.597 380.937L388.121 370.392L389.645 356.984L391.169 339.765L394.217 298.734L395.741 277.233L397.265 249.206L401.837 148.898L403.361 109.976L404.123 93.4683L404.885 80.7376L405.647 73.4994L406.409 72.1924L407.171 75.1123L407.933 82.0468L408.695 95.8975L409.457 118.341L412.505 226.378L414.791 291.21L416.315 325.115L417.839 352.681L418.601 364.084L419.363 372.803L420.125 379.321L421.649 388.67L423.173 395.967L423.935 398.799L424.697 400.958L426.221 404.11L426.983 405.301L427.745 406.119L428.507 406.541L430.031 407.007L433.841 408.844L435.365 408.817L436.889 408.722L439.937 409.382L441.461 409.081L442.985 409.448L444.509 409.706L446.795 409.703L449.843 409.586L452.891 409.92L457.463 410.003L459.749 409.967L462.797 410.111L478.038 410.111" stroke="#EFEFEF" stroke-linecap="square"/>
</g>
<mask id="mask13_230_11278" style="mask-type:luminance" maskUnits="userSpaceOnUse" x="76" y="55" width="477" height="356">
<path d="M552.957 55.2959H76.7969V410.112H552.957V55.2959Z" fill="white"/>
</mask>
<g mask="url(#mask13_230_11278)">
<path d="M335.047 410.111L352.288 409.919L357.214 409.512L359.677 409.456L361.319 409.528L362.961 409.288L364.604 408.902L366.246 408.834L369.53 408.937L371.172 408.644L372.814 407.93L374.456 406.78L376.098 405.21L380.203 400.741L381.024 399.558L381.845 398.111L382.666 396.328L383.487 394.145L384.308 391.495L385.95 384.683L389.234 368.366L390.055 363.085L391.697 349.074L394.981 315.05L398.265 277.575L401.549 236.012L403.191 214.579L404.012 205.754L404.833 199.443L405.654 195.782L406.475 194.227L407.296 193.975L408.117 194.363L408.938 195.093L409.759 196.28L410.58 198.344L411.401 201.781L412.222 206.904L413.044 213.672L414.686 230.639L417.149 260.911L418.791 281.329L421.254 307.09L423.717 331.361L425.359 344.096L427.001 354.015L430.285 371.745L431.927 379.37L433.569 385.027L436.032 391.275L436.853 392.938L439.316 396.862L442.6 403.673L443.421 404.743L444.242 405.5L445.063 405.998L446.705 406.512L448.347 407.058L450.81 408.118L452.452 408.348L454.094 408.555L457.378 409.189L464.768 409.962L498.429 410.111" fill="#EFEFEF" fill-opacity="0.4"/>
<path d="M335.047 410.111L352.288 409.919L357.214 409.512L359.677 409.456L361.319 409.528L362.961 409.288L364.604 408.902L366.246 408.834L369.53 408.937L371.172 408.644L372.814 407.93L374.456 406.78L376.098 405.21L380.203 400.741L381.024 399.558L381.845 398.111L382.666 396.328L383.487 394.145L384.308 391.495L385.95 384.683L389.234 368.366L390.055 363.085L391.697 349.074L394.981 315.05L398.265 277.575L401.549 236.012L403.191 214.579L404.012 205.754L404.833 199.443L405.654 195.782L406.475 194.227L407.296 193.975L408.117 194.363L408.938 195.093L409.759 196.28L410.58 198.344L411.401 201.781L412.222 206.904L413.044 213.672L414.686 230.639L417.149 260.911L418.791 281.329L421.254 307.09L423.717 331.361L425.359 344.096L427.001 354.015L430.285 371.745L431.927 379.37L433.569 385.027L436.032 391.275L436.853 392.938L439.316 396.862L442.6 403.673L443.421 404.743L444.242 405.5L445.063 405.998L446.705 406.512L448.347 407.058L450.81 408.118L452.452 408.348L454.094 408.555L457.378 409.189L464.768 409.962L498.429 410.111" stroke="#EFEFEF" stroke-linecap="square"/>
</g>
<mask id="mask14_230_11278" style="mask-type:luminance" maskUnits="userSpaceOnUse" x="76" y="55" width="477" height="356">
<path d="M552.957 55.2959H76.7969V410.112H552.957V55.2959Z" fill="white"/>
</mask>
<g mask="url(#mask14_230_11278)">
<path d="M98.4375 410.111L173.364 410.112L308.231 410.013L312.512 409.853L314.653 409.628L316.794 409.238L321.075 408.012L323.216 407.272L325.356 405.81L327.497 403.268L331.779 396.841L333.919 393.119L336.06 388.764L338.201 383.552L340.342 377.374L342.482 369.827L344.623 360.737L355.327 312.095L357.468 303.856L363.89 283.381L366.031 279.525L368.171 278.197L370.312 278.937L372.453 282.471L378.875 297.664L381.016 303.945L385.297 318.572L391.72 343.631L393.86 350.88L400.283 374.371L402.423 380.584L404.564 385.438L408.846 394.299L410.986 398.132L413.127 401.018L415.268 402.949L419.549 406.009L421.69 407.255L423.831 408.075L425.972 408.643L428.112 408.986L434.534 409.303L438.816 409.818L443.097 409.987L460.223 410.057L477.349 410.098L488.053 410.11L524.446 410.111" fill="#7EB0D5" fill-opacity="0.4"/>
<path d="M98.4375 410.111L173.364 410.112L308.231 410.013L312.512 409.853L314.653 409.628L316.794 409.238L321.075 408.012L323.216 407.272L325.356 405.81L327.497 403.268L331.779 396.841L333.919 393.119L336.06 388.764L338.201 383.552L340.342 377.374L342.482 369.827L344.623 360.737L355.327 312.095L357.468 303.856L363.89 283.381L366.031 279.525L368.171 278.197L370.312 278.937L372.453 282.471L378.875 297.664L381.016 303.945L385.297 318.572L391.72 343.631L393.86 350.88L400.283 374.371L402.423 380.584L404.564 385.438L408.846 394.299L410.986 398.132L413.127 401.018L415.268 402.949L419.549 406.009L421.69 407.255L423.831 408.075L425.972 408.643L428.112 408.986L434.534 409.303L438.816 409.818L443.097 409.987L460.223 410.057L477.349 410.098L488.053 410.11L524.446 410.111" stroke="#7EB0D5" stroke-linecap="square"/>
</g>
<path d="M535.061 411.061C535.646 410.475 535.646 409.525 535.061 408.939L525.515 399.393C524.929 398.808 523.979 398.808 523.393 399.393C522.808 399.979 522.808 400.929 523.393 401.515L531.879 410L523.393 418.485C522.808 419.071 522.808 420.021 523.393 420.607C523.979 421.192 524.929 421.192 525.515 420.607L535.061 411.061ZM79 411.5H534V408.5H79V411.5Z" fill="black"/>
</g>
<defs>
<clipPath id="clip0_230_11278">
<rect width="614.4" height="460.8" fill="white"/>
</clipPath>
</defs>
</svg>
