<svg width="615" height="461" viewBox="0 0 615 461" fill="none" xmlns="http://www.w3.org/2000/svg">
<g clip-path="url(#clip0_230_11758)">
<mask id="mask0_230_11758" style="mask-type:luminance" maskUnits="userSpaceOnUse" x="76" y="55" width="477" height="356">
<path d="M552.957 55.2959H76.7969V410.112H552.957V55.2959Z" fill="white"/>
</mask>
<g mask="url(#mask0_230_11758)">
<path d="M310.562 410.111L325.455 409.963L330.773 409.629L339.283 408.387L341.411 407.693L343.538 406.771L345.666 405.605L347.793 404.126L349.92 402.218L352.048 399.611L354.175 396.261L356.303 392.219L357.367 389.787L358.43 386.91L359.494 383.478L361.621 375.046L364.813 361.653L368.004 349.15L372.259 329.826L378.641 301.728L380.769 294.337L382.896 286.989L385.023 279.313L386.087 276.18L387.151 273.896L388.215 272.426L389.278 271.545L390.342 271.016L391.406 270.73L392.47 270.726L393.533 271.122L394.597 271.999L395.661 273.322L399.916 279.987L400.979 281.926L402.043 284.42L403.107 287.633L408.425 306.423L411.617 315.352L413.744 322.743L415.872 331.693L421.19 355.876L423.318 363.544L425.445 369.608L430.764 383.153L432.891 387.691L435.019 391.372L437.146 394.295L440.337 398.042L442.465 400.211L444.592 402L447.783 404.238L450.975 406.131L453.102 406.988L456.293 407.864L459.484 408.461L467.994 409.531L471.185 409.876L475.44 409.995L489.269 410.069L504.161 410.111L522.244 410.111" fill="#EFEFEF" fill-opacity="0.4"/>
<path d="M310.562 410.111L325.455 409.963L330.773 409.629L339.283 408.387L341.411 407.693L343.538 406.771L345.666 405.605L347.793 404.126L349.92 402.218L352.048 399.611L354.175 396.261L356.303 392.219L357.367 389.787L358.43 386.91L359.494 383.478L361.621 375.046L364.813 361.653L368.004 349.15L372.259 329.826L378.641 301.728L380.769 294.337L382.896 286.989L385.023 279.313L386.087 276.18L387.151 273.896L388.215 272.426L389.278 271.545L390.342 271.016L391.406 270.73L392.47 270.726L393.533 271.122L394.597 271.999L395.661 273.322L399.916 279.987L400.979 281.926L402.043 284.42L403.107 287.633L408.425 306.423L411.617 315.352L413.744 322.743L415.872 331.693L421.19 355.876L423.318 363.544L425.445 369.608L430.764 383.153L432.891 387.691L435.019 391.372L437.146 394.295L440.337 398.042L442.465 400.211L444.592 402L447.783 404.238L450.975 406.131L453.102 406.988L456.293 407.864L459.484 408.461L467.994 409.531L471.185 409.876L475.44 409.995L489.269 410.069L504.161 410.111L522.244 410.111" stroke="#EFEFEF" stroke-linecap="square"/>
</g>
<mask id="mask1_230_11758" style="mask-type:luminance" maskUnits="userSpaceOnUse" x="76" y="55" width="477" height="356">
<path d="M552.957 55.2959H76.7969V410.112H552.957V55.2959Z" fill="white"/>
</mask>
<g mask="url(#mask1_230_11758)">
<path d="M317.469 410.111L324.991 409.975L328.215 409.632L330.364 409.101L331.438 408.654L332.513 408.026L333.588 407.166L334.662 406.025L335.737 404.554L336.811 402.715L337.886 400.473L338.961 397.805L341.11 391.174L343.259 382.947L345.408 373.433L352.93 336.996L358.303 311.36L360.452 303.34L361.527 300.135L362.602 297.409L363.676 295.125L364.751 293.283L365.825 291.907L366.9 291.017L367.974 290.604L369.049 290.627L370.124 291.033L371.198 291.775L372.273 292.817L374.422 295.679L378.72 302.77L381.944 308.178L384.093 312.269L388.392 321.334L396.988 339.842L398.063 341.68L400.212 344.512L404.511 349.041L406.66 351.935L412.033 359.668L415.256 364.433L421.704 374.368L424.928 378.846L431.375 386.874L441.047 399.117L443.196 401.267L445.345 402.991L447.494 404.354L451.792 406.651L453.942 407.608L456.091 408.291L459.315 408.906L464.688 409.553L470.061 409.751L482.956 409.984L531.312 410.111" fill="#EFEFEF" fill-opacity="0.4"/>
<path d="M317.469 410.111L324.991 409.975L328.215 409.632L330.364 409.101L331.438 408.654L332.513 408.026L333.588 407.166L334.662 406.025L335.737 404.554L336.811 402.715L337.886 400.473L338.961 397.805L341.11 391.174L343.259 382.947L345.408 373.433L352.93 336.996L358.303 311.36L360.452 303.34L361.527 300.135L362.602 297.409L363.676 295.125L364.751 293.283L365.825 291.907L366.9 291.017L367.974 290.604L369.049 290.627L370.124 291.033L371.198 291.775L372.273 292.817L374.422 295.679L378.72 302.77L381.944 308.178L384.093 312.269L388.392 321.334L396.988 339.842L398.063 341.68L400.212 344.512L404.511 349.041L406.66 351.935L412.033 359.668L415.256 364.433L421.704 374.368L424.928 378.846L431.375 386.874L441.047 399.117L443.196 401.267L445.345 402.991L447.494 404.354L451.792 406.651L453.942 407.608L456.091 408.291L459.315 408.906L464.688 409.553L470.061 409.751L482.956 409.984L531.312 410.111" stroke="#EFEFEF" stroke-linecap="square"/>
</g>
<mask id="mask2_230_11758" style="mask-type:luminance" maskUnits="userSpaceOnUse" x="76" y="55" width="477" height="356">
<path d="M552.957 55.2959H76.7969V410.112H552.957V55.2959Z" fill="white"/>
</mask>
<g mask="url(#mask2_230_11758)">
<path d="M336.656 410.111L342.186 409.974L346.794 409.869L349.559 409.792L351.402 409.361L356.931 407.341L357.853 406.78L358.774 405.968L359.696 404.881L361.539 401.988L363.382 398.228L365.226 393.502L367.069 387.885L368.912 381.38L369.834 377.267L371.677 366.782L374.442 348.175L376.285 334.061L378.128 317.185L380.893 290.608L383.657 264.453L385.501 247.985L387.344 236.475L391.03 216.967L391.952 213.705L392.873 211.709L393.795 210.707L394.716 210.448L395.638 211.051L396.56 212.855L397.481 215.939L399.324 224.572L401.168 235.623L405.776 268.432L407.619 281.125L412.227 317.604L417.756 356.316L419.599 365.819L424.207 385.655L426.051 392.093L426.972 394.471L428.815 398.012L431.58 402.595L432.502 403.801L433.423 404.689L435.267 405.82L438.031 407.064L440.796 407.934L443.561 408.478L451.855 409.596L459.228 409.697L462.914 409.871L498.856 410.112L520.053 410.111" fill="#EFEFEF" fill-opacity="0.4"/>
<path d="M336.656 410.111L342.186 409.974L346.794 409.869L349.559 409.792L351.402 409.361L356.931 407.341L357.853 406.78L358.774 405.968L359.696 404.881L361.539 401.988L363.382 398.228L365.226 393.502L367.069 387.885L368.912 381.38L369.834 377.267L371.677 366.782L374.442 348.175L376.285 334.061L378.128 317.185L380.893 290.608L383.657 264.453L385.501 247.985L387.344 236.475L391.03 216.967L391.952 213.705L392.873 211.709L393.795 210.707L394.716 210.448L395.638 211.051L396.56 212.855L397.481 215.939L399.324 224.572L401.168 235.623L405.776 268.432L407.619 281.125L412.227 317.604L417.756 356.316L419.599 365.819L424.207 385.655L426.051 392.093L426.972 394.471L428.815 398.012L431.58 402.595L432.502 403.801L433.423 404.689L435.267 405.82L438.031 407.064L440.796 407.934L443.561 408.478L451.855 409.596L459.228 409.697L462.914 409.871L498.856 410.112L520.053 410.111" stroke="#EFEFEF" stroke-linecap="square"/>
</g>
<mask id="mask3_230_11758" style="mask-type:luminance" maskUnits="userSpaceOnUse" x="76" y="55" width="477" height="356">
<path d="M552.957 55.2959H76.7969V410.112H552.957V55.2959Z" fill="white"/>
</mask>
<g mask="url(#mask3_230_11758)">
<path d="M344.234 410.11L351.667 409.944L357.447 409.68L367.357 408.897L369.008 408.457L370.66 407.759L375.615 405.239L378.092 404.404L379.744 403.416L381.395 401.945L383.047 400.033L384.699 397.719L386.35 394.979L388.828 390.043L392.131 383.378L393.782 379.993L395.434 375.898L397.086 370.766L398.737 364.563L402.04 351.542L404.518 343.4L406.995 335.264L410.298 323.716L414.427 311.225L416.079 304.036L418.556 291.672L420.208 282.475L421.86 271.846L428.466 224.807L430.118 216.363L430.943 213.492L431.769 211.759L432.595 211.312L433.421 212.259L434.247 214.627L435.072 218.323L435.898 223.159L437.55 235.443L439.201 250.347L440.853 267.371L443.33 296.457L445.808 325.935L447.459 342.814L449.111 357.601L450.763 370.386L452.414 380.907L454.066 389.218L455.717 395.435L457.369 399.904L459.021 403.136L460.672 405.394L462.324 406.783L463.975 407.607L466.453 408.458L469.756 409.3L472.233 409.534L476.363 409.842L479.666 409.992L492.879 410.037L498.659 410.09L506.917 410.107L508.569 410.111" fill="#EFEFEF" fill-opacity="0.4"/>
<path d="M344.234 410.11L351.667 409.944L357.447 409.68L367.357 408.897L369.008 408.457L370.66 407.759L375.615 405.239L378.092 404.404L379.744 403.416L381.395 401.945L383.047 400.033L384.699 397.719L386.35 394.979L388.828 390.043L392.131 383.378L393.782 379.993L395.434 375.898L397.086 370.766L398.737 364.563L402.04 351.542L404.518 343.4L406.995 335.264L410.298 323.716L414.427 311.225L416.079 304.036L418.556 291.672L420.208 282.475L421.86 271.846L428.466 224.807L430.118 216.363L430.943 213.492L431.769 211.759L432.595 211.312L433.421 212.259L434.247 214.627L435.072 218.323L435.898 223.159L437.55 235.443L439.201 250.347L440.853 267.371L443.33 296.457L445.808 325.935L447.459 342.814L449.111 357.601L450.763 370.386L452.414 380.907L454.066 389.218L455.717 395.435L457.369 399.904L459.021 403.136L460.672 405.394L462.324 406.783L463.975 407.607L466.453 408.458L469.756 409.3L472.233 409.534L476.363 409.842L479.666 409.992L492.879 410.037L498.659 410.09L506.917 410.107L508.569 410.111" stroke="#EFEFEF" stroke-linecap="square"/>
</g>
<mask id="mask4_230_11758" style="mask-type:luminance" maskUnits="userSpaceOnUse" x="76" y="55" width="477" height="356">
<path d="M552.957 55.2959H76.7969V410.112H552.957V55.2959Z" fill="white"/>
</mask>
<g mask="url(#mask4_230_11758)">
<path d="M327.32 410.11L331.963 409.961L334.748 409.503L336.605 408.951L338.462 408.138L340.319 406.875L341.248 405.985L342.176 404.876L344.033 401.919L345.89 397.981L347.747 393.133L349.604 387.323L351.461 380.463L356.104 361.872L358.89 352.481L361.675 344.053L372.817 312.69L377.46 296.905L380.245 288.131L382.102 283.415L383.959 279.831L384.888 278.502L385.816 277.536L386.745 276.981L387.673 276.861L388.602 277.146L390.459 278.5L393.244 281.102L394.173 282.346L395.101 284.067L396.03 286.366L397.887 292.48L415.528 358.324L417.385 364.166L419.242 368.713L421.099 372.381L430.385 389.23L432.242 391.707L435.956 396.395L438.741 399.939L440.598 401.811L442.455 403.268L445.241 404.927L448.026 406.172L451.74 407.429L458.24 408.981L461.025 409.488L464.739 409.702L480.524 410.066L500.023 410.09L512.093 410.112" fill="#EFEFEF" fill-opacity="0.4"/>
<path d="M327.32 410.11L331.963 409.961L334.748 409.503L336.605 408.951L338.462 408.138L340.319 406.875L341.248 405.985L342.176 404.876L344.033 401.919L345.89 397.981L347.747 393.133L349.604 387.323L351.461 380.463L356.104 361.872L358.89 352.481L361.675 344.053L372.817 312.69L377.46 296.905L380.245 288.131L382.102 283.415L383.959 279.831L384.888 278.502L385.816 277.536L386.745 276.981L387.673 276.861L388.602 277.146L390.459 278.5L393.244 281.102L394.173 282.346L395.101 284.067L396.03 286.366L397.887 292.48L415.528 358.324L417.385 364.166L419.242 368.713L421.099 372.381L430.385 389.23L432.242 391.707L435.956 396.395L438.741 399.939L440.598 401.811L442.455 403.268L445.241 404.927L448.026 406.172L451.74 407.429L458.24 408.981L461.025 409.488L464.739 409.702L480.524 410.066L500.023 410.09L512.093 410.112" stroke="#EFEFEF" stroke-linecap="square"/>
</g>
<mask id="mask5_230_11758" style="mask-type:luminance" maskUnits="userSpaceOnUse" x="76" y="55" width="477" height="356">
<path d="M552.957 55.2959H76.7969V410.112H552.957V55.2959Z" fill="white"/>
</mask>
<g mask="url(#mask5_230_11758)">
<path d="M352.289 410.11L354.893 409.997L357.496 409.726L360.1 409.647L364.006 409.099L366.609 409.226L369.213 408.572L374.42 408.272L375.722 408.126L379.628 407.056L380.929 406.788L382.882 406.116L385.486 405.532L386.788 404.555L387.438 403.731L388.74 401.229L390.693 396.318L392.646 390.272L393.948 385.458L395.249 379.693L395.9 376.232L396.551 371.796L397.202 365.942L398.504 350.241L400.457 322.237L401.759 300.999L403.06 275.862L405.013 230.628L408.268 150.807L409.57 127.486L410.871 109.825L411.522 103.371L412.173 98.7428L412.824 95.7882L413.475 94.4316L414.126 94.9465L414.777 97.6984L415.428 102.758L416.079 109.86L417.381 128.491L420.635 183.217L423.239 237.728L426.493 304.985L427.795 324.529L429.748 347.504L431.701 366.098L433.003 375.168L435.606 389.049L436.908 394.287L438.21 397.476L440.814 402.419L443.417 406.603L444.068 407.297L444.719 407.729L446.021 408.046L447.974 408.331L451.879 409.537L453.832 409.418L455.785 409.322L464.247 410.074L472.057 410.02L474.01 410.063L477.916 409.98L481.821 410.11" fill="#EFEFEF" fill-opacity="0.4"/>
<path d="M352.289 410.11L354.893 409.997L357.496 409.726L360.1 409.647L364.006 409.099L366.609 409.226L369.213 408.572L374.42 408.272L375.722 408.126L379.628 407.056L380.929 406.788L382.882 406.116L385.486 405.532L386.788 404.555L387.438 403.731L388.74 401.229L390.693 396.318L392.646 390.272L393.948 385.458L395.249 379.693L395.9 376.232L396.551 371.796L397.202 365.942L398.504 350.241L400.457 322.237L401.759 300.999L403.06 275.862L405.013 230.628L408.268 150.807L409.57 127.486L410.871 109.825L411.522 103.371L412.173 98.7428L412.824 95.7882L413.475 94.4316L414.126 94.9465L414.777 97.6984L415.428 102.758L416.079 109.86L417.381 128.491L420.635 183.217L423.239 237.728L426.493 304.985L427.795 324.529L429.748 347.504L431.701 366.098L433.003 375.168L435.606 389.049L436.908 394.287L438.21 397.476L440.814 402.419L443.417 406.603L444.068 407.297L444.719 407.729L446.021 408.046L447.974 408.331L451.879 409.537L453.832 409.418L455.785 409.322L464.247 410.074L472.057 410.02L474.01 410.063L477.916 409.98L481.821 410.11" stroke="#EFEFEF" stroke-linecap="square"/>
</g>
<mask id="mask6_230_11758" style="mask-type:luminance" maskUnits="userSpaceOnUse" x="76" y="55" width="477" height="356">
<path d="M552.957 55.2959H76.7969V410.112H552.957V55.2959Z" fill="white"/>
</mask>
<g mask="url(#mask6_230_11758)">
<path d="M326.203 410.112L340.032 409.978L342.798 409.715L344.641 409.302L346.485 408.543L348.329 407.28L350.173 405.365L351.095 404.078L352.017 402.489L352.939 400.52L353.861 398.096L354.783 395.155L355.704 391.644L357.548 382.711L359.392 371.106L363.08 343.577L365.846 324.13L367.689 312.99L369.533 304.05L371.377 296.956L373.221 290.798L375.065 285.575L376.908 281.691L378.752 278.802L383.362 272.475L384.284 271.473L385.206 270.711L387.05 269.725L389.815 268.43L390.737 268.297L391.659 268.731L392.581 269.988L393.503 272.168L394.425 275.156L400.878 299.135L405.488 315.166L407.332 322.045L409.176 330.08L413.785 351.235L415.629 357.996L417.473 363.352L420.238 369.915L424.848 380.648L426.692 383.84L428.536 386.309L433.145 392.193L435.911 395.687L438.677 398.479L443.286 402.569L446.052 404.648L447.896 405.843L449.74 406.703L451.584 407.188L460.803 408.824L463.569 409.231L466.334 409.719L469.1 409.88L493.992 410.112L509.664 410.112" fill="#EFEFEF" fill-opacity="0.4"/>
<path d="M326.203 410.112L340.032 409.978L342.798 409.715L344.641 409.302L346.485 408.543L348.329 407.28L350.173 405.365L351.095 404.078L352.017 402.489L352.939 400.52L353.861 398.096L354.783 395.155L355.704 391.644L357.548 382.711L359.392 371.106L363.08 343.577L365.846 324.13L367.689 312.99L369.533 304.05L371.377 296.956L373.221 290.798L375.065 285.575L376.908 281.691L378.752 278.802L383.362 272.475L384.284 271.473L385.206 270.711L387.05 269.725L389.815 268.43L390.737 268.297L391.659 268.731L392.581 269.988L393.503 272.168L394.425 275.156L400.878 299.135L405.488 315.166L407.332 322.045L409.176 330.08L413.785 351.235L415.629 357.996L417.473 363.352L420.238 369.915L424.848 380.648L426.692 383.84L428.536 386.309L433.145 392.193L435.911 395.687L438.677 398.479L443.286 402.569L446.052 404.648L447.896 405.843L449.74 406.703L451.584 407.188L460.803 408.824L463.569 409.231L466.334 409.719L469.1 409.88L493.992 410.112L509.664 410.112" stroke="#EFEFEF" stroke-linecap="square"/>
</g>
<mask id="mask7_230_11758" style="mask-type:luminance" maskUnits="userSpaceOnUse" x="76" y="55" width="477" height="356">
<path d="M552.957 55.2959H76.7969V410.112H552.957V55.2959Z" fill="white"/>
</mask>
<g mask="url(#mask7_230_11758)">
<path d="M329.609 410.111L340.219 409.974L343.113 409.72L345.042 409.278L346.007 408.878L346.971 408.289L347.936 407.459L348.9 406.353L350.829 403.326L352.758 399.385L353.723 397.009L354.687 394.201L355.652 390.811L356.616 386.736L358.546 376.566L360.475 364.263L362.404 350.185L364.333 333.855L366.262 315.001L371.084 265.343L373.014 250.102L373.978 244.166L374.943 239.265L375.907 235.347L376.872 232.439L377.836 230.578L378.801 229.726L379.765 229.742L380.73 230.473L381.694 231.841L382.659 233.866L383.623 236.606L384.588 240.084L386.517 249.036L388.446 259.962L391.34 278.336L396.162 309.758L398.092 320.497L400.021 329.595L402.914 341.303L405.808 351.9L407.737 358.063L409.666 363.232L411.595 367.786L413.524 371.604L414.489 373.03L415.453 374.113L419.311 377.579L421.24 380.329L427.028 389.737L427.992 390.918L428.957 391.857L430.886 393.166L432.815 394.349L434.744 395.904L437.638 398.463L439.567 399.815L443.425 402.34L445.354 403.606L447.283 404.563L451.141 406.253L454.035 407.51L455.964 407.901L459.822 408.256L464.645 409.359L469.467 409.602L476.219 409.832L483.935 409.964L521.552 410.111" fill="#EFEFEF" fill-opacity="0.4"/>
<path d="M329.609 410.111L340.219 409.974L343.113 409.72L345.042 409.278L346.007 408.878L346.971 408.289L347.936 407.459L348.9 406.353L350.829 403.326L352.758 399.385L353.723 397.009L354.687 394.201L355.652 390.811L356.616 386.736L358.546 376.566L360.475 364.263L362.404 350.185L364.333 333.855L366.262 315.001L371.084 265.343L373.014 250.102L373.978 244.166L374.943 239.265L375.907 235.347L376.872 232.439L377.836 230.578L378.801 229.726L379.765 229.742L380.73 230.473L381.694 231.841L382.659 233.866L383.623 236.606L384.588 240.084L386.517 249.036L388.446 259.962L391.34 278.336L396.162 309.758L398.092 320.497L400.021 329.595L402.914 341.303L405.808 351.9L407.737 358.063L409.666 363.232L411.595 367.786L413.524 371.604L414.489 373.03L415.453 374.113L419.311 377.579L421.24 380.329L427.028 389.737L427.992 390.918L428.957 391.857L430.886 393.166L432.815 394.349L434.744 395.904L437.638 398.463L439.567 399.815L443.425 402.34L445.354 403.606L447.283 404.563L451.141 406.253L454.035 407.51L455.964 407.901L459.822 408.256L464.645 409.359L469.467 409.602L476.219 409.832L483.935 409.964L521.552 410.111" stroke="#EFEFEF" stroke-linecap="square"/>
</g>
<mask id="mask8_230_11758" style="mask-type:luminance" maskUnits="userSpaceOnUse" x="76" y="55" width="477" height="356">
<path d="M552.957 55.2959H76.7969V410.112H552.957V55.2959Z" fill="white"/>
</mask>
<g mask="url(#mask8_230_11758)">
<path d="M332.023 410.111L337.513 409.975L341.173 409.515L343.917 408.873L345.747 408.213L347.577 407.294L349.407 405.966L351.236 404.022L353.066 401.244L354.896 397.328L356.726 392.089L358.556 385.627L360.386 378.02L362.215 369.224L364.045 359.083L366.79 341.72L370.45 319.007L375.939 285.343L376.854 281.074L377.769 277.64L378.684 275.02L379.599 273.114L380.514 271.779L381.428 270.85L383.258 269.617L386.003 268.23L386.918 268.051L387.833 268.208L388.748 268.75L390.578 270.628L393.322 273.86L394.237 275.336L395.152 277.344L396.067 280.008L397.897 287.196L402.471 307.761L404.301 314.267L407.961 325.897L417.11 353.299L419.855 361.108L423.514 370.291L426.259 376.586L429.004 381.891L435.408 393.64L438.153 397.899L439.983 400.138L441.812 401.69L447.302 405.033L450.047 406.522L452.791 407.54L456.451 408.495L461.025 409.376L464.685 409.779L469.26 410.033L474.749 409.982L484.813 410.012L493.047 410.107L514.09 410.111" fill="#EFEFEF" fill-opacity="0.4"/>
<path d="M332.023 410.111L337.513 409.975L341.173 409.515L343.917 408.873L345.747 408.213L347.577 407.294L349.407 405.966L351.236 404.022L353.066 401.244L354.896 397.328L356.726 392.089L358.556 385.627L360.386 378.02L362.215 369.224L364.045 359.083L366.79 341.72L370.45 319.007L375.939 285.343L376.854 281.074L377.769 277.64L378.684 275.02L379.599 273.114L380.514 271.779L381.428 270.85L383.258 269.617L386.003 268.23L386.918 268.051L387.833 268.208L388.748 268.75L390.578 270.628L393.322 273.86L394.237 275.336L395.152 277.344L396.067 280.008L397.897 287.196L402.471 307.761L404.301 314.267L407.961 325.897L417.11 353.299L419.855 361.108L423.514 370.291L426.259 376.586L429.004 381.891L435.408 393.64L438.153 397.899L439.983 400.138L441.812 401.69L447.302 405.033L450.047 406.522L452.791 407.54L456.451 408.495L461.025 409.376L464.685 409.779L469.26 410.033L474.749 409.982L484.813 410.012L493.047 410.107L514.09 410.111" stroke="#EFEFEF" stroke-linecap="square"/>
</g>
<mask id="mask9_230_11758" style="mask-type:luminance" maskUnits="userSpaceOnUse" x="76" y="55" width="477" height="356">
<path d="M552.957 55.2959H76.7969V410.112H552.957V55.2959Z" fill="white"/>
</mask>
<g mask="url(#mask9_230_11758)">
<path d="M343.938 410.111L350.283 409.938L355.723 409.922L358.442 409.868L365.695 409.232L371.134 407.945L374.76 406.519L376.573 405.033L378.386 403.48L381.106 401.414L382.012 400.277L382.919 398.599L388.358 384.835L389.265 380.895L393.797 356.524L396.517 338.784L398.33 324.44L401.05 298.908L402.863 279.586L404.676 256.226L406.489 229.973L408.302 209.374L410.115 190.406L411.928 171.111L412.835 164.791L413.741 161.464L416.461 156.102L417.368 156.512L418.274 160.554L419.181 168.552L420.994 192.215L426.433 273.458L429.153 314.02L431.872 350.497L433.685 370.04L434.592 377.264L435.499 382.913L437.312 391.411L439.125 397.999L440.031 400.326L440.938 401.992L442.751 404.568L444.564 406.571L446.377 407.787L448.19 408.603L450.003 409.096L455.443 409.496L458.162 409.791L460.882 409.721L462.695 409.704L466.321 409.971L469.947 409.923L473.573 409.891L477.2 409.968L480.826 410.025L517.994 410.056L521.62 410.076L524.34 410.111" fill="#EFEFEF" fill-opacity="0.4"/>
<path d="M343.938 410.111L350.283 409.938L355.723 409.922L358.442 409.868L365.695 409.232L371.134 407.945L374.76 406.519L376.573 405.033L378.386 403.48L381.106 401.414L382.012 400.277L382.919 398.599L388.358 384.835L389.265 380.895L393.797 356.524L396.517 338.784L398.33 324.44L401.05 298.908L402.863 279.586L404.676 256.226L406.489 229.973L408.302 209.374L410.115 190.406L411.928 171.111L412.835 164.791L413.741 161.464L416.461 156.102L417.368 156.512L418.274 160.554L419.181 168.552L420.994 192.215L426.433 273.458L429.153 314.02L431.872 350.497L433.685 370.04L434.592 377.264L435.499 382.913L437.312 391.411L439.125 397.999L440.031 400.326L440.938 401.992L442.751 404.568L444.564 406.571L446.377 407.787L448.19 408.603L450.003 409.096L455.443 409.496L458.162 409.791L460.882 409.721L462.695 409.704L466.321 409.971L469.947 409.923L473.573 409.891L477.2 409.968L480.826 410.025L517.994 410.056L521.62 410.076L524.34 410.111" stroke="#EFEFEF" stroke-linecap="square"/>
</g>
<mask id="mask10_230_11758" style="mask-type:luminance" maskUnits="userSpaceOnUse" x="76" y="55" width="477" height="356">
<path d="M552.957 55.2959H76.7969V410.112H552.957V55.2959Z" fill="white"/>
</mask>
<g mask="url(#mask10_230_11758)">
<path d="M315.734 410.111L328.267 409.98L336.943 409.416L339.835 408.813L345.62 407.045L347.548 406.239L349.476 404.939L351.404 403.13L355.26 399.113L357.188 396.616L359.116 393.183L361.044 388.653L362.972 383.185L365.865 373.73L376.469 336.842L378.397 328.742L383.217 306.534L385.145 299.371L387.074 293.366L390.93 282.803L392.858 278.119L393.822 276.181L394.786 274.722L395.75 273.893L396.714 273.738L397.678 274.154L401.534 277.307L402.498 278.251L403.462 279.624L404.426 281.576L406.354 286.841L408.282 292.193L411.175 299.229L412.139 302.016L414.067 309.024L416.959 322.03L418.887 330.378L420.815 337.22L423.707 345.495L426.599 354.322L432.384 373.694L434.312 379.875L436.24 384.953L438.168 388.891L440.096 392.081L442.988 396.115L445.88 399.457L448.772 402.279L451.664 404.764L453.592 406.043L455.521 406.98L457.449 407.67L460.341 408.337L466.125 409.177L471.909 409.686L476.73 409.961L507.579 410.111" fill="#EFEFEF" fill-opacity="0.4"/>
<path d="M315.734 410.111L328.267 409.98L336.943 409.416L339.835 408.813L345.62 407.045L347.548 406.239L349.476 404.939L351.404 403.13L355.26 399.113L357.188 396.616L359.116 393.183L361.044 388.653L362.972 383.185L365.865 373.73L376.469 336.842L378.397 328.742L383.217 306.534L385.145 299.371L387.074 293.366L390.93 282.803L392.858 278.119L393.822 276.181L394.786 274.722L395.75 273.893L396.714 273.738L397.678 274.154L401.534 277.307L402.498 278.251L403.462 279.624L404.426 281.576L406.354 286.841L408.282 292.193L411.175 299.229L412.139 302.016L414.067 309.024L416.959 322.03L418.887 330.378L420.815 337.22L423.707 345.495L426.599 354.322L432.384 373.694L434.312 379.875L436.24 384.953L438.168 388.891L440.096 392.081L442.988 396.115L445.88 399.457L448.772 402.279L451.664 404.764L453.592 406.043L455.521 406.98L457.449 407.67L460.341 408.337L466.125 409.177L471.909 409.686L476.73 409.961L507.579 410.111" stroke="#EFEFEF" stroke-linecap="square"/>
</g>
<mask id="mask11_230_11758" style="mask-type:luminance" maskUnits="userSpaceOnUse" x="76" y="55" width="477" height="356">
<path d="M552.957 55.2959H76.7969V410.112H552.957V55.2959Z" fill="white"/>
</mask>
<g mask="url(#mask11_230_11758)">
<path d="M317.312 410.111L328.479 409.986L332.201 409.637L334.992 409.139L336.853 408.487L338.714 407.294L340.575 405.528L342.436 403.11L344.297 399.919L346.158 395.755L347.089 392.966L348.019 389.409L348.95 384.952L350.811 373.736L356.394 336.755L358.255 321.377L362.907 279.736L364.768 266.229L366.629 255.42L368.49 247.091L369.421 244.059L370.351 241.794L371.282 240.175L372.212 239.076L373.143 238.448L374.073 238.3L375.004 238.629L375.934 239.419L376.865 240.702L377.795 242.603L378.726 245.278L379.656 248.772L381.517 257.499L385.239 275.779L388.961 293.586L392.683 311.585L396.405 329.715L401.058 352.534L402.919 360L404.78 365.93L407.571 373.437L409.432 377.872L411.293 381.508L415.015 387.808L418.737 393.686L422.459 400.306L423.39 401.427L424.32 402.205L425.251 402.695L428.043 403.657L429.904 404.728L432.695 406.474L434.556 407.208L438.278 408.046L441.07 408.519L455.958 409.714L469.915 409.904L482.942 410.095L492.247 410.045L496.9 410.035L502.483 410.111" fill="#EFEFEF" fill-opacity="0.4"/>
<path d="M317.312 410.111L328.479 409.986L332.201 409.637L334.992 409.139L336.853 408.487L338.714 407.294L340.575 405.528L342.436 403.11L344.297 399.919L346.158 395.755L347.089 392.966L348.019 389.409L348.95 384.952L350.811 373.736L356.394 336.755L358.255 321.377L362.907 279.736L364.768 266.229L366.629 255.42L368.49 247.091L369.421 244.059L370.351 241.794L371.282 240.175L372.212 239.076L373.143 238.448L374.073 238.3L375.004 238.629L375.934 239.419L376.865 240.702L377.795 242.603L378.726 245.278L379.656 248.772L381.517 257.499L385.239 275.779L388.961 293.586L392.683 311.585L396.405 329.715L401.058 352.534L402.919 360L404.78 365.93L407.571 373.437L409.432 377.872L411.293 381.508L415.015 387.808L418.737 393.686L422.459 400.306L423.39 401.427L424.32 402.205L425.251 402.695L428.043 403.657L429.904 404.728L432.695 406.474L434.556 407.208L438.278 408.046L441.07 408.519L455.958 409.714L469.915 409.904L482.942 410.095L492.247 410.045L496.9 410.035L502.483 410.111" stroke="#EFEFEF" stroke-linecap="square"/>
</g>
<mask id="mask12_230_11758" style="mask-type:luminance" maskUnits="userSpaceOnUse" x="76" y="55" width="477" height="356">
<path d="M552.957 55.2959H76.7969V410.112H552.957V55.2959Z" fill="white"/>
</mask>
<g mask="url(#mask12_230_11758)">
<path d="M340.297 410.111L360.141 409.889L364.276 409.587L365.929 408.908L367.583 407.887L369.237 407.344L370.89 406.831L372.544 406.318L375.025 406.345L375.851 405.891L376.678 404.938L378.332 402L379.159 399.905L379.986 396.859L381.639 387.983L383.293 378.494L384.12 372.707L384.947 364.82L386.6 342.608L389.908 291.298L391.562 259.53L394.042 200.431L397.349 119.1L398.176 101.112L399.003 86.7069L399.83 76.9969L400.657 72.1924L401.484 72.992L402.311 80.2351L403.137 92.889L406.445 156.209L408.099 193.364L410.579 250.536L412.233 281.953L413.886 308.809L415.54 331.451L417.194 348.26L421.328 379.834L422.155 384.123L422.982 387.27L427.116 399.491L427.943 400.99L428.77 401.851L430.423 402.914L432.077 404.582L432.904 405.447L433.731 406.05L435.385 406.595L438.692 407.394L441.172 408.658L442.826 409.014L443.653 409.087L446.96 408.85L448.614 409.141L450.268 409.097L451.922 409.014L456.056 409.452L459.363 410.041L462.671 410.112L479.208 409.977L483.342 409.984L486.649 410.111L504.84 410.111" fill="#EFEFEF" fill-opacity="0.4"/>
<path d="M340.297 410.111L360.141 409.889L364.276 409.587L365.929 408.908L367.583 407.887L369.237 407.344L370.89 406.831L372.544 406.318L375.025 406.345L375.851 405.891L376.678 404.938L378.332 402L379.159 399.905L379.986 396.859L381.639 387.983L383.293 378.494L384.12 372.707L384.947 364.82L386.6 342.608L389.908 291.298L391.562 259.53L394.042 200.431L397.349 119.1L398.176 101.112L399.003 86.7069L399.83 76.9969L400.657 72.1924L401.484 72.992L402.311 80.2351L403.137 92.889L406.445 156.209L408.099 193.364L410.579 250.536L412.233 281.953L413.886 308.809L415.54 331.451L417.194 348.26L421.328 379.834L422.155 384.123L422.982 387.27L427.116 399.491L427.943 400.99L428.77 401.851L430.423 402.914L432.077 404.582L432.904 405.447L433.731 406.05L435.385 406.595L438.692 407.394L441.172 408.658L442.826 409.014L443.653 409.087L446.96 408.85L448.614 409.141L450.268 409.097L451.922 409.014L456.056 409.452L459.363 410.041L462.671 410.112L479.208 409.977L483.342 409.984L486.649 410.111L504.84 410.111" stroke="#EFEFEF" stroke-linecap="square"/>
</g>
<mask id="mask13_230_11758" style="mask-type:luminance" maskUnits="userSpaceOnUse" x="76" y="55" width="477" height="356">
<path d="M552.957 55.2959H76.7969V410.112H552.957V55.2959Z" fill="white"/>
</mask>
<g mask="url(#mask13_230_11758)">
<path d="M338.383 410.111L354.463 409.98L358.037 409.79L362.504 409.815L369.65 409.499L373.224 409.061L375.904 409.123L377.691 408.84L379.477 408.115L385.731 404.472L387.518 402.709L388.411 401.522L389.304 399.956L391.091 395.691L392.878 390.704L393.771 387.736L394.665 384.171L396.451 375.083L398.238 363.424L400.025 348.246L401.812 329.585L408.065 260.361L410.745 232.968L412.532 217.6L414.319 204.33L415.212 198.474L416.105 194.103L416.999 191.576L417.892 190.488L418.785 190.286L419.679 190.963L420.572 192.973L421.465 196.568L423.252 206.928L425.039 219.25L426.826 235.229L431.292 283.118L434.866 313.712L439.333 349.204L441.119 358.983L443.8 372.854L445.586 379.915L450.053 394.05L450.946 396.238L451.84 397.974L453.627 400.467L455.413 402.597L458.093 406.119L458.987 406.841L460.773 407.54L464.347 408.557L467.92 409.119L474.174 409.7L476.854 409.967L480.427 409.899L484.894 409.926L516.162 410.111" fill="#EFEFEF" fill-opacity="0.4"/>
<path d="M338.383 410.111L354.463 409.98L358.037 409.79L362.504 409.815L369.65 409.499L373.224 409.061L375.904 409.123L377.691 408.84L379.477 408.115L385.731 404.472L387.518 402.709L388.411 401.522L389.304 399.956L391.091 395.691L392.878 390.704L393.771 387.736L394.665 384.171L396.451 375.083L398.238 363.424L400.025 348.246L401.812 329.585L408.065 260.361L410.745 232.968L412.532 217.6L414.319 204.33L415.212 198.474L416.105 194.103L416.999 191.576L417.892 190.488L418.785 190.286L419.679 190.963L420.572 192.973L421.465 196.568L423.252 206.928L425.039 219.25L426.826 235.229L431.292 283.118L434.866 313.712L439.333 349.204L441.119 358.983L443.8 372.854L445.586 379.915L450.053 394.05L450.946 396.238L451.84 397.974L453.627 400.467L455.413 402.597L458.093 406.119L458.987 406.841L460.773 407.54L464.347 408.557L467.92 409.119L474.174 409.7L476.854 409.967L480.427 409.899L484.894 409.926L516.162 410.111" stroke="#EFEFEF" stroke-linecap="square"/>
</g>
<mask id="mask14_230_11758" style="mask-type:luminance" maskUnits="userSpaceOnUse" x="76" y="55" width="477" height="356">
<path d="M552.957 55.2959H76.7969V410.112H552.957V55.2959Z" fill="white"/>
</mask>
<g mask="url(#mask14_230_11758)">
<path d="M98.4375 410.112L200.408 410.112L304.549 410.008L308.888 409.671L313.227 409.057L315.397 408.608L317.567 407.922L319.736 406.834L321.906 405.219L324.075 403.156L326.245 400.787L328.415 398.121L330.584 394.96L332.754 390.76L334.923 384.977L339.263 370.395L341.432 362.409L343.602 353.562L345.771 343.763L347.941 332.74L354.45 295.496L356.619 284.864L358.789 276.089L360.958 270.173L363.128 266.994L365.298 265.108L367.467 264.538L369.637 266.906L371.806 271.909L373.976 277.689L376.146 284.019L378.315 291.875L380.485 301.747L384.824 323.136L386.994 331.49L391.333 346.045L395.672 361.39L397.842 367.948L400.011 373.544L402.181 378.091L404.35 381.884L406.52 385.194L408.69 388.008L410.859 390.426L413.029 392.596L417.368 396.34L421.707 400.057L423.877 401.63L426.046 402.644L430.386 403.949L434.725 405.152L439.064 406.481L443.403 407.426L447.742 408.023L465.099 409.716L471.608 410.03L480.286 410.067L493.304 410.068L530.187 410.112" fill="#7EB0D5" fill-opacity="0.4"/>
<path d="M98.4375 410.112L200.408 410.112L304.549 410.008L308.888 409.671L313.227 409.057L315.397 408.608L317.567 407.922L319.736 406.834L321.906 405.219L324.075 403.156L326.245 400.787L328.415 398.121L330.584 394.96L332.754 390.76L334.923 384.977L339.263 370.395L341.432 362.409L343.602 353.562L345.771 343.763L347.941 332.74L354.45 295.496L356.619 284.864L358.789 276.089L360.958 270.173L363.128 266.994L365.298 265.108L367.467 264.538L369.637 266.906L371.806 271.909L373.976 277.689L376.146 284.019L378.315 291.875L380.485 301.747L384.824 323.136L386.994 331.49L391.333 346.045L395.672 361.39L397.842 367.948L400.011 373.544L402.181 378.091L404.35 381.884L406.52 385.194L408.69 388.008L410.859 390.426L413.029 392.596L417.368 396.34L421.707 400.057L423.877 401.63L426.046 402.644L430.386 403.949L434.725 405.152L439.064 406.481L443.403 407.426L447.742 408.023L465.099 409.716L471.608 410.03L480.286 410.067L493.304 410.068L530.187 410.112" stroke="#7EB0D5" stroke-linecap="square"/>
</g>
<path d="M535.061 411.061C535.646 410.475 535.646 409.525 535.061 408.939L525.515 399.393C524.929 398.808 523.979 398.808 523.393 399.393C522.808 399.979 522.808 400.929 523.393 401.515L531.879 410L523.393 418.485C522.808 419.071 522.808 420.021 523.393 420.607C523.979 421.192 524.929 421.192 525.515 420.607L535.061 411.061ZM79 411.5H534V408.5H79V411.5Z" fill="black"/>
</g>
<defs>
<clipPath id="clip0_230_11758">
<rect width="614.4" height="460.8" fill="white"/>
</clipPath>
</defs>
</svg>
