<svg width="615" height="461" viewBox="0 0 615 461" fill="none" xmlns="http://www.w3.org/2000/svg">
<g clip-path="url(#clip0_230_11358)">
<mask id="mask0_230_11358" style="mask-type:luminance" maskUnits="userSpaceOnUse" x="76" y="55" width="477" height="356">
<path d="M552.957 55.2959H76.7969V410.112H552.957V55.2959Z" fill="white"/>
</mask>
<g mask="url(#mask0_230_11358)">
<path d="M354.648 410.111L364.478 409.958L368.573 409.681L371.85 409.231L374.307 408.541L376.765 407.477L381.679 405.082L383.317 403.613L384.956 401.378L386.594 398.25L389.051 392.291L392.328 384.461L393.966 380.258L395.604 374.625L397.242 367.47L400.519 352.749L406.253 329.418L408.71 318.996L411.167 310.263L413.625 301.233L420.178 275.2L421.816 270.625L423.454 267.236L425.092 264.639L425.911 263.618L426.731 262.86L427.55 262.461L428.369 262.501L429.188 262.988L430.826 264.842L432.464 266.695L434.103 268.127L434.922 269.076L435.741 270.495L436.56 272.545L437.379 275.246L439.017 282.033L443.932 304.309L448.847 330.025L451.304 339.593L453.761 349.224L457.038 364.231L459.495 374.823L461.133 380.791L462.772 385.76L464.41 389.764L466.048 393.02L468.505 397.099L470.963 400.584L473.42 403.502L475.877 405.964L477.516 407.223L479.154 408.069L480.792 408.579L484.069 409.18L487.345 409.572L502.089 410.064L509.461 410.058L517.652 410.111" fill="#EFEFEF" fill-opacity="0.4"/>
<path d="M354.648 410.111L364.478 409.958L368.573 409.681L371.85 409.231L374.307 408.541L376.765 407.477L381.679 405.082L383.317 403.613L384.956 401.378L386.594 398.25L389.051 392.291L392.328 384.461L393.966 380.258L395.604 374.625L397.242 367.47L400.519 352.749L406.253 329.418L408.71 318.996L411.167 310.263L413.625 301.233L420.178 275.2L421.816 270.625L423.454 267.236L425.092 264.639L425.911 263.618L426.731 262.86L427.55 262.461L428.369 262.501L429.188 262.988L430.826 264.842L432.464 266.695L434.103 268.127L434.922 269.076L435.741 270.495L436.56 272.545L437.379 275.246L439.017 282.033L443.932 304.309L448.847 330.025L451.304 339.593L453.761 349.224L457.038 364.231L459.495 374.823L461.133 380.791L462.772 385.76L464.41 389.764L466.048 393.02L468.505 397.099L470.963 400.584L473.42 403.502L475.877 405.964L477.516 407.223L479.154 408.069L480.792 408.579L484.069 409.18L487.345 409.572L502.089 410.064L509.461 410.058L517.652 410.111" stroke="#EFEFEF" stroke-linecap="square"/>
</g>
<mask id="mask1_230_11358" style="mask-type:luminance" maskUnits="userSpaceOnUse" x="76" y="55" width="477" height="356">
<path d="M552.957 55.2959H76.7969V410.112H552.957V55.2959Z" fill="white"/>
</mask>
<g mask="url(#mask1_230_11358)">
<path d="M328.297 410.111L337.479 409.977L342.58 409.552L346.661 408.908L349.721 408.062L351.762 407.165L353.802 405.836L355.842 403.923L357.883 401.35L359.923 398.159L362.984 392.505L366.044 386.159L369.105 379.207L373.186 369.016L378.287 356.122L381.347 349.324L383.388 345.539L385.428 342.409L387.469 339.836L389.509 337.691L391.549 335.986L392.57 335.356L393.59 334.919L394.61 334.698L395.63 334.705L396.65 334.923L398.691 335.818L401.751 337.334L403.792 337.849L405.832 337.837L407.873 337.427L413.994 335.71L416.034 335.555L418.075 335.835L420.115 336.503L423.176 337.663L425.216 338.125L431.337 338.871L433.378 339.834L435.418 341.261L444.6 348.424L448.681 351.431L452.762 354.33L454.802 356.149L456.842 358.442L458.883 361.313L460.923 364.723L467.044 375.595L474.186 387.019L477.246 391.529L480.307 395.367L483.368 398.608L486.428 401.422L489.489 403.808L492.549 405.708L495.61 407.144L498.671 408.195L501.731 408.946L505.812 409.602L509.893 409.927L516.014 410.022L531.317 410.111" fill="#EFEFEF" fill-opacity="0.4"/>
<path d="M328.297 410.111L337.479 409.977L342.58 409.552L346.661 408.908L349.721 408.062L351.762 407.165L353.802 405.836L355.842 403.923L357.883 401.35L359.923 398.159L362.984 392.505L366.044 386.159L369.105 379.207L373.186 369.016L378.287 356.122L381.347 349.324L383.388 345.539L385.428 342.409L387.469 339.836L389.509 337.691L391.549 335.986L392.57 335.356L393.59 334.919L394.61 334.698L395.63 334.705L396.65 334.923L398.691 335.818L401.751 337.334L403.792 337.849L405.832 337.837L407.873 337.427L413.994 335.71L416.034 335.555L418.075 335.835L420.115 336.503L423.176 337.663L425.216 338.125L431.337 338.871L433.378 339.834L435.418 341.261L444.6 348.424L448.681 351.431L452.762 354.33L454.802 356.149L456.842 358.442L458.883 361.313L460.923 364.723L467.044 375.595L474.186 387.019L477.246 391.529L480.307 395.367L483.368 398.608L486.428 401.422L489.489 403.808L492.549 405.708L495.61 407.144L498.671 408.195L501.731 408.946L505.812 409.602L509.893 409.927L516.014 410.022L531.317 410.111" stroke="#EFEFEF" stroke-linecap="square"/>
</g>
<mask id="mask2_230_11358" style="mask-type:luminance" maskUnits="userSpaceOnUse" x="76" y="55" width="477" height="356">
<path d="M552.957 55.2959H76.7969V410.112H552.957V55.2959Z" fill="white"/>
</mask>
<g mask="url(#mask2_230_11358)">
<path d="M367.016 410.111L372.027 409.977L381.335 409.271L383.483 408.777L389.211 406.901L390.643 405.957L392.075 404.597L394.222 402.017L395.654 399.882L397.802 396.086L399.95 391.667L401.382 388.008L403.53 381.537L405.678 374.385L407.11 368.941L408.542 362.593L409.974 354.963L412.122 341.325L414.985 323.115L419.281 296.227L423.577 265.82L425.009 259.184L427.873 247.926L430.737 234.883L431.453 232.526L432.169 230.961L432.885 230.295L433.601 230.533L434.317 231.576L435.749 235.226L437.181 239.236L440.044 246.013L441.476 251.143L445.056 266.078L445.772 269.939L447.204 280.577L452.932 332.096L454.364 341.296L460.091 372.674L461.523 379.144L462.955 383.509L466.535 392.337L468.683 398.022L470.115 401.079L471.547 403.489L472.979 405.251L474.411 406.368L476.559 407.385L479.423 408.486L483.002 409.385L485.15 409.773L488.014 409.899L494.458 410.033L499.47 410.097L508.777 410.11L509.493 410.111" fill="#EFEFEF" fill-opacity="0.4"/>
<path d="M367.016 410.111L372.027 409.977L381.335 409.271L383.483 408.777L389.211 406.901L390.643 405.957L392.075 404.597L394.222 402.017L395.654 399.882L397.802 396.086L399.95 391.667L401.382 388.008L403.53 381.537L405.678 374.385L407.11 368.941L408.542 362.593L409.974 354.963L412.122 341.325L414.985 323.115L419.281 296.227L423.577 265.82L425.009 259.184L427.873 247.926L430.737 234.883L431.453 232.526L432.169 230.961L432.885 230.295L433.601 230.533L434.317 231.576L435.749 235.226L437.181 239.236L440.044 246.013L441.476 251.143L445.056 266.078L445.772 269.939L447.204 280.577L452.932 332.096L454.364 341.296L460.091 372.674L461.523 379.144L462.955 383.509L466.535 392.337L468.683 398.022L470.115 401.079L471.547 403.489L472.979 405.251L474.411 406.368L476.559 407.385L479.423 408.486L483.002 409.385L485.15 409.773L488.014 409.899L494.458 410.033L499.47 410.097L508.777 410.11L509.493 410.111" stroke="#EFEFEF" stroke-linecap="square"/>
</g>
<mask id="mask3_230_11358" style="mask-type:luminance" maskUnits="userSpaceOnUse" x="76" y="55" width="477" height="356">
<path d="M552.957 55.2959H76.7969V410.112H552.957V55.2959Z" fill="white"/>
</mask>
<g mask="url(#mask3_230_11358)">
<path d="M358.258 410.111L373.761 409.945L383.838 409.186L389.264 408.381L395.466 406.492L397.791 405.48L399.342 404.609L400.892 403.393L402.442 401.726L404.768 398.591L406.318 396.168L407.868 393.268L409.419 389.618L411.744 382.888L416.395 369.055L419.496 360.422L421.821 354.947L423.372 351.853L424.922 349.325L428.023 344.954L428.798 343.458L429.573 341.596L431.123 336.689L436.549 315.736L438.1 308.574L439.65 299.392L442.751 278.947L443.526 274.888L444.301 271.639L445.076 269.211L445.851 267.486L447.402 265.247L448.952 263.127L450.502 260.291L452.828 255.739L453.603 254.657L454.378 253.953L455.153 253.642L455.929 253.697L456.704 254.094L457.479 254.829L458.254 255.921L459.029 257.385L460.58 261.343L462.13 266.314L463.68 272.275L465.23 280.005L466.781 290.094L469.106 308.474L474.532 353.583L476.083 364.204L477.633 373.359L479.183 381.185L480.734 387.683L482.284 392.918L483.834 397.083L485.385 400.335L486.935 402.76L488.485 404.51L490.036 405.828L492.361 407.377L494.687 408.557L497.012 409.327L499.338 409.637L511.74 410.11L512.516 410.111" fill="#EFEFEF" fill-opacity="0.4"/>
<path d="M358.258 410.111L373.761 409.945L383.838 409.186L389.264 408.381L395.466 406.492L397.791 405.48L399.342 404.609L400.892 403.393L402.442 401.726L404.768 398.591L406.318 396.168L407.868 393.268L409.419 389.618L411.744 382.888L416.395 369.055L419.496 360.422L421.821 354.947L423.372 351.853L424.922 349.325L428.023 344.954L428.798 343.458L429.573 341.596L431.123 336.689L436.549 315.736L438.1 308.574L439.65 299.392L442.751 278.947L443.526 274.888L444.301 271.639L445.076 269.211L445.851 267.486L447.402 265.247L448.952 263.127L450.502 260.291L452.828 255.739L453.603 254.657L454.378 253.953L455.153 253.642L455.929 253.697L456.704 254.094L457.479 254.829L458.254 255.921L459.029 257.385L460.58 261.343L462.13 266.314L463.68 272.275L465.23 280.005L466.781 290.094L469.106 308.474L474.532 353.583L476.083 364.204L477.633 373.359L479.183 381.185L480.734 387.683L482.284 392.918L483.834 397.083L485.385 400.335L486.935 402.76L488.485 404.51L490.036 405.828L492.361 407.377L494.687 408.557L497.012 409.327L499.338 409.637L511.74 410.11L512.516 410.111" stroke="#EFEFEF" stroke-linecap="square"/>
</g>
<mask id="mask4_230_11358" style="mask-type:luminance" maskUnits="userSpaceOnUse" x="76" y="55" width="477" height="356">
<path d="M552.957 55.2959H76.7969V410.112H552.957V55.2959Z" fill="white"/>
</mask>
<g mask="url(#mask4_230_11358)">
<path d="M329.516 410.111L339.346 410.002L343.278 409.652L346.227 409.025L349.176 408.017L352.125 406.625L354.091 405.439L357.041 403.263L366.871 395.203L370.803 391.987L374.735 389.299L379.65 386.207L390.464 380.657L394.396 378.519L397.345 376.652L399.311 375.177L401.277 373.349L403.243 370.992L405.209 367.912L407.175 363.972L409.141 359.262L415.04 344.436L417.989 337.209L419.955 331.552L422.904 321.632L427.819 304.679L430.768 295.831L432.734 290.746L433.717 288.596L434.7 286.812L435.683 285.466L436.666 284.614L437.649 284.281L438.632 284.467L439.615 285.144L440.598 286.269L441.581 287.79L443.548 291.825L445.514 296.95L447.48 303.03L449.446 309.968L452.395 321.747L458.293 347.185L460.259 354.033L462.225 359.753L471.072 383.29L473.039 387.108L475.005 390.156L477.954 393.916L482.869 399.614L485.818 402.616L487.784 404.242L489.75 405.494L491.716 406.412L494.665 407.422L498.597 408.463L502.53 409.163L506.462 409.537L516.292 410.005L524.156 410.11L525.139 410.111" fill="#EFEFEF" fill-opacity="0.4"/>
<path d="M329.516 410.111L339.346 410.002L343.278 409.652L346.227 409.025L349.176 408.017L352.125 406.625L354.091 405.439L357.041 403.263L366.871 395.203L370.803 391.987L374.735 389.299L379.65 386.207L390.464 380.657L394.396 378.519L397.345 376.652L399.311 375.177L401.277 373.349L403.243 370.992L405.209 367.912L407.175 363.972L409.141 359.262L415.04 344.436L417.989 337.209L419.955 331.552L422.904 321.632L427.819 304.679L430.768 295.831L432.734 290.746L433.717 288.596L434.7 286.812L435.683 285.466L436.666 284.614L437.649 284.281L438.632 284.467L439.615 285.144L440.598 286.269L441.581 287.79L443.548 291.825L445.514 296.95L447.48 303.03L449.446 309.968L452.395 321.747L458.293 347.185L460.259 354.033L462.225 359.753L471.072 383.29L473.039 387.108L475.005 390.156L477.954 393.916L482.869 399.614L485.818 402.616L487.784 404.242L489.75 405.494L491.716 406.412L494.665 407.422L498.597 408.463L502.53 409.163L506.462 409.537L516.292 410.005L524.156 410.11L525.139 410.111" stroke="#EFEFEF" stroke-linecap="square"/>
</g>
<mask id="mask5_230_11358" style="mask-type:luminance" maskUnits="userSpaceOnUse" x="76" y="55" width="477" height="356">
<path d="M552.957 55.2959H76.7969V410.112H552.957V55.2959Z" fill="white"/>
</mask>
<g mask="url(#mask5_230_11358)">
<path d="M355.648 410.111L376.858 409.835L379.131 409.889L382.161 410L387.463 409.548L389.735 409.476L392.008 409.05L393.523 409.165L395.038 409.298L397.31 409.151L400.34 408.573L403.37 407.913L405.643 407.919L406.4 407.636L407.915 406.48L409.43 405.452L410.945 404.593L411.703 403.872L412.46 402.808L413.975 399.634L416.248 394.152L417.005 391.203L417.762 387.208L419.277 377.031L420.792 365.097L421.55 357.404L423.065 336.137L424.58 308.924L426.852 262.594L428.367 225.23L432.155 111.574L432.912 99.1534L433.67 90.1249L434.427 83.7469L435.185 79.8086L435.942 77.7882L436.7 77.4756L437.457 79.9018L438.215 86.1207L438.972 95.6486L440.487 119.893L442.002 150.548L443.517 189.358L445.79 248.157L447.305 279.896L448.82 303.833L450.335 322.453L452.607 344.529L454.879 364.634L456.394 374.326L459.424 390.182L460.182 393.046L460.939 395.021L464.727 402.242L465.484 403.192L468.514 406.043L470.029 407.49L471.544 408.295L476.089 409.622L478.362 409.556L479.877 409.691L481.392 409.954L483.664 409.945L487.451 410.003L491.239 410.111L506.389 410.111" fill="#EFEFEF" fill-opacity="0.4"/>
<path d="M355.648 410.111L376.858 409.835L379.131 409.889L382.161 410L387.463 409.548L389.735 409.476L392.008 409.05L393.523 409.165L395.038 409.298L397.31 409.151L400.34 408.573L403.37 407.913L405.643 407.919L406.4 407.636L407.915 406.48L409.43 405.452L410.945 404.593L411.703 403.872L412.46 402.808L413.975 399.634L416.248 394.152L417.005 391.203L417.762 387.208L419.277 377.031L420.792 365.097L421.55 357.404L423.065 336.137L424.58 308.924L426.852 262.594L428.367 225.23L432.155 111.574L432.912 99.1534L433.67 90.1249L434.427 83.7469L435.185 79.8086L435.942 77.7882L436.7 77.4756L437.457 79.9018L438.215 86.1207L438.972 95.6486L440.487 119.893L442.002 150.548L443.517 189.358L445.79 248.157L447.305 279.896L448.82 303.833L450.335 322.453L452.607 344.529L454.879 364.634L456.394 374.326L459.424 390.182L460.182 393.046L460.939 395.021L464.727 402.242L465.484 403.192L468.514 406.043L470.029 407.49L471.544 408.295L476.089 409.622L478.362 409.556L479.877 409.691L481.392 409.954L483.664 409.945L487.451 410.003L491.239 410.111L506.389 410.111" stroke="#EFEFEF" stroke-linecap="square"/>
</g>
<mask id="mask6_230_11358" style="mask-type:luminance" maskUnits="userSpaceOnUse" x="76" y="55" width="477" height="356">
<path d="M552.957 55.2959H76.7969V410.112H552.957V55.2959Z" fill="white"/>
</mask>
<g mask="url(#mask6_230_11358)">
<path d="M341.43 410.111L354.568 409.985L358.322 409.728L363.953 408.993L365.83 408.542L367.707 407.839L369.584 406.754L371.461 405.139L374.276 402.006L377.092 398.502L378.968 395.782L382.722 389.614L387.415 382.081L392.107 375.201L393.984 371.482L395.861 366.691L397.738 360.638L402.43 343.041L404.307 335.534L406.184 326.83L409.938 307.097L413.692 285.54L418.384 258.478L419.323 254.203L420.261 250.836L421.2 248.5L422.138 247.22L423.077 246.961L424.015 247.655L424.953 249.206L425.892 251.477L427.769 257.495L434.338 281.588L436.215 291.61L441.846 325.712L443.723 335.247L445.6 343.44L451.231 365.387L453.108 371.614L454.985 376.647L456.861 380.818L460.615 388.082L462.492 391.266L464.369 393.876L466.246 395.953L468.123 397.598L474.692 402.518L478.446 404.622L482.2 406.457L485.954 407.725L489.708 408.891L491.585 409.184L506.6 409.935L520.677 410.061L528.185 410.111" fill="#EFEFEF" fill-opacity="0.4"/>
<path d="M341.43 410.111L354.568 409.985L358.322 409.728L363.953 408.993L365.83 408.542L367.707 407.839L369.584 406.754L371.461 405.139L374.276 402.006L377.092 398.502L378.968 395.782L382.722 389.614L387.415 382.081L392.107 375.201L393.984 371.482L395.861 366.691L397.738 360.638L402.43 343.041L404.307 335.534L406.184 326.83L409.938 307.097L413.692 285.54L418.384 258.478L419.323 254.203L420.261 250.836L421.2 248.5L422.138 247.22L423.077 246.961L424.015 247.655L424.953 249.206L425.892 251.477L427.769 257.495L434.338 281.588L436.215 291.61L441.846 325.712L443.723 335.247L445.6 343.44L451.231 365.387L453.108 371.614L454.985 376.647L456.861 380.818L460.615 388.082L462.492 391.266L464.369 393.876L466.246 395.953L468.123 397.598L474.692 402.518L478.446 404.622L482.2 406.457L485.954 407.725L489.708 408.891L491.585 409.184L506.6 409.935L520.677 410.061L528.185 410.111" stroke="#EFEFEF" stroke-linecap="square"/>
</g>
<mask id="mask7_230_11358" style="mask-type:luminance" maskUnits="userSpaceOnUse" x="76" y="55" width="477" height="356">
<path d="M552.957 55.2959H76.7969V410.112H552.957V55.2959Z" fill="white"/>
</mask>
<g mask="url(#mask7_230_11358)">
<path d="M344.898 410.111L353.232 409.983L355.732 409.749L359.065 409.07L362.398 408.064L364.065 407.282L365.731 406.178L367.398 404.678L369.065 402.642L370.731 399.864L372.398 396.151L374.064 391.327L375.731 385.251L377.398 377.868L379.064 369.22L380.731 359.356L382.398 348.225L384.898 329.09L389.898 288.414L391.564 277.495L393.231 268.643L395.731 257.775L397.397 251.53L398.231 248.943L399.064 246.878L399.897 245.39L400.731 244.454L401.564 243.986L402.397 243.905L403.231 244.182L404.064 244.86L404.897 246.038L405.731 247.815L406.564 250.222L408.23 256.598L410.73 267.975L412.397 276.313L414.064 285.797L418.23 310.756L419.897 318.557L422.397 328.302L425.73 341.182L428.23 351.802L431.563 366.704L433.23 372.881L434.897 377.517L436.563 380.778L438.23 383.212L441.563 387.389L443.23 389.222L444.896 390.575L446.563 391.312L451.563 392.524L453.229 393.383L455.729 395.131L458.229 396.842L459.896 397.601L463.229 398.803L465.729 400.163L472.396 404.373L474.896 405.382L479.062 406.58L489.895 409.381L493.229 409.562L510.728 410.111" fill="#EFEFEF" fill-opacity="0.4"/>
<path d="M344.898 410.111L353.232 409.983L355.732 409.749L359.065 409.07L362.398 408.064L364.065 407.282L365.731 406.178L367.398 404.678L369.065 402.642L370.731 399.864L372.398 396.151L374.064 391.327L375.731 385.251L377.398 377.868L379.064 369.22L380.731 359.356L382.398 348.225L384.898 329.09L389.898 288.414L391.564 277.495L393.231 268.643L395.731 257.775L397.397 251.53L398.231 248.943L399.064 246.878L399.897 245.39L400.731 244.454L401.564 243.986L402.397 243.905L403.231 244.182L404.064 244.86L404.897 246.038L405.731 247.815L406.564 250.222L408.23 256.598L410.73 267.975L412.397 276.313L414.064 285.797L418.23 310.756L419.897 318.557L422.397 328.302L425.73 341.182L428.23 351.802L431.563 366.704L433.23 372.881L434.897 377.517L436.563 380.778L438.23 383.212L441.563 387.389L443.23 389.222L444.896 390.575L446.563 391.312L451.563 392.524L453.229 393.383L455.729 395.131L458.229 396.842L459.896 397.601L463.229 398.803L465.729 400.163L472.396 404.373L474.896 405.382L479.062 406.58L489.895 409.381L493.229 409.562L510.728 410.111" stroke="#EFEFEF" stroke-linecap="square"/>
</g>
<mask id="mask8_230_11358" style="mask-type:luminance" maskUnits="userSpaceOnUse" x="76" y="55" width="477" height="356">
<path d="M552.957 55.2959H76.7969V410.112H552.957V55.2959Z" fill="white"/>
</mask>
<g mask="url(#mask8_230_11358)">
<path d="M353.578 410.111L362.155 409.976L366.834 409.608L369.953 409.055L372.292 408.24L373.851 407.414L375.411 406.344L376.97 405.02L378.53 403.372L380.089 401.225L381.649 398.33L383.208 394.515L384.768 389.87L387.107 381.957L389.446 373.258L391.785 363.331L394.124 351.703L397.243 334.004L399.583 321.361L401.142 314.424L403.481 305.869L407.38 293.085L408.939 288.506L410.499 284.971L411.279 283.875L412.058 283.322L412.838 283.286L413.618 283.638L415.177 284.649L415.957 284.88L416.737 284.77L418.296 283.767L419.076 283.223L419.856 282.923L420.635 283.011L421.415 283.544L422.195 284.494L423.754 287.315L426.094 292.66L431.552 306.266L434.671 315.158L439.349 328.883L440.909 332.915L442.468 336.341L444.807 340.607L447.146 345.073L448.706 348.753L456.503 369.042L461.182 380.006L464.301 386.658L465.86 389.501L468.199 392.996L472.098 397.948L475.997 402.642L477.556 404.242L479.116 405.516L480.675 406.477L483.014 407.543L486.133 408.56L489.252 409.192L493.151 409.586L500.948 410.033L508.746 410.111" fill="#EFEFEF" fill-opacity="0.4"/>
<path d="M353.578 410.111L362.155 409.976L366.834 409.608L369.953 409.055L372.292 408.24L373.851 407.414L375.411 406.344L376.97 405.02L378.53 403.372L380.089 401.225L381.649 398.33L383.208 394.515L384.768 389.87L387.107 381.957L389.446 373.258L391.785 363.331L394.124 351.703L397.243 334.004L399.583 321.361L401.142 314.424L403.481 305.869L407.38 293.085L408.939 288.506L410.499 284.971L411.279 283.875L412.058 283.322L412.838 283.286L413.618 283.638L415.177 284.649L415.957 284.88L416.737 284.77L418.296 283.767L419.076 283.223L419.856 282.923L420.635 283.011L421.415 283.544L422.195 284.494L423.754 287.315L426.094 292.66L431.552 306.266L434.671 315.158L439.349 328.883L440.909 332.915L442.468 336.341L444.807 340.607L447.146 345.073L448.706 348.753L456.503 369.042L461.182 380.006L464.301 386.658L465.86 389.501L468.199 392.996L472.098 397.948L475.997 402.642L477.556 404.242L479.116 405.516L480.675 406.477L483.014 407.543L486.133 408.56L489.252 409.192L493.151 409.586L500.948 410.033L508.746 410.111" stroke="#EFEFEF" stroke-linecap="square"/>
</g>
<mask id="mask9_230_11358" style="mask-type:luminance" maskUnits="userSpaceOnUse" x="76" y="55" width="477" height="356">
<path d="M552.957 55.2959H76.7969V410.112H552.957V55.2959Z" fill="white"/>
</mask>
<g mask="url(#mask9_230_11358)">
<path d="M368.219 410.111L375.322 409.944L379.584 409.947L383.846 409.858L386.687 409.559L389.529 409.521L390.949 409.113L392.37 408.693L393.791 408.722L395.922 408.89L398.763 408.803L400.184 408.24L408.708 403.55L410.128 402.185L411.549 400.093L412.259 398.61L412.97 396.706L414.39 391.545L415.811 385.874L417.232 381.641L417.942 379.622L418.652 377.052L420.073 369.855L422.204 356.979L423.625 346.252L425.045 331.228L430.018 265.971L432.149 233.958L434.99 188.89L436.411 172.859L437.831 161.931L438.542 157.893L439.252 154.94L439.962 153.217L440.673 152.728L441.383 153.321L442.093 154.739L442.804 156.738L443.514 159.313L444.224 162.85L444.935 167.935L445.645 174.885L447.776 202.023L453.459 276.781L456.3 318.541L458.431 343.8L459.852 357.701L461.983 375.364L463.403 385.174L464.824 392.304L466.245 397.304L467.665 401.281L469.086 404.496L469.796 405.695L470.507 406.574L471.927 407.616L474.058 408.645L476.189 409.255L478.32 409.633L487.555 410.077L491.817 410.077L498.21 410.112L509.575 410.111" fill="#EFEFEF" fill-opacity="0.4"/>
<path d="M368.219 410.111L375.322 409.944L379.584 409.947L383.846 409.858L386.687 409.559L389.529 409.521L390.949 409.113L392.37 408.693L393.791 408.722L395.922 408.89L398.763 408.803L400.184 408.24L408.708 403.55L410.128 402.185L411.549 400.093L412.259 398.61L412.97 396.706L414.39 391.545L415.811 385.874L417.232 381.641L417.942 379.622L418.652 377.052L420.073 369.855L422.204 356.979L423.625 346.252L425.045 331.228L430.018 265.971L432.149 233.958L434.99 188.89L436.411 172.859L437.831 161.931L438.542 157.893L439.252 154.94L439.962 153.217L440.673 152.728L441.383 153.321L442.093 154.739L442.804 156.738L443.514 159.313L444.224 162.85L444.935 167.935L445.645 174.885L447.776 202.023L453.459 276.781L456.3 318.541L458.431 343.8L459.852 357.701L461.983 375.364L463.403 385.174L464.824 392.304L466.245 397.304L467.665 401.281L469.086 404.496L469.796 405.695L470.507 406.574L471.927 407.616L474.058 408.645L476.189 409.255L478.32 409.633L487.555 410.077L491.817 410.077L498.21 410.112L509.575 410.111" stroke="#EFEFEF" stroke-linecap="square"/>
</g>
<mask id="mask10_230_11358" style="mask-type:luminance" maskUnits="userSpaceOnUse" x="76" y="55" width="477" height="356">
<path d="M552.957 55.2959H76.7969V410.112H552.957V55.2959Z" fill="white"/>
</mask>
<g mask="url(#mask10_230_11358)">
<path d="M348.836 410.111L366.897 409.968L371.822 409.657L375.106 409.122L379.211 408.425L382.495 407.978L384.137 407.44L387.42 405.84L389.883 404.368L391.525 402.941L393.167 401.062L398.914 393.538L400.556 391.037L402.197 387.887L403.839 383.985L405.481 379.421L407.944 371.57L416.974 340.212L418.616 332.855L421.9 317.054L423.542 310.476L429.289 290.382L431.751 282.79L436.677 268.499L437.498 266.875L438.319 265.785L439.14 265.282L439.961 265.369L440.782 265.995L441.603 267.063L443.245 270.064L445.708 275.65L448.17 282.176L451.454 291.459L453.096 297.017L454.738 303.747L460.485 329.392L463.768 343.17L467.052 357.063L469.515 366.008L472.799 376.627L476.083 385.892L478.545 391.845L480.187 395.005L481.829 397.567L483.471 399.683L485.113 401.41L488.397 404.209L490.86 406.101L492.501 407.125L494.964 408.234L497.427 408.985L499.89 409.466L503.995 409.86L508.92 410.093L512.204 410.111" fill="#EFEFEF" fill-opacity="0.4"/>
<path d="M348.836 410.111L366.897 409.968L371.822 409.657L375.106 409.122L379.211 408.425L382.495 407.978L384.137 407.44L387.42 405.84L389.883 404.368L391.525 402.941L393.167 401.062L398.914 393.538L400.556 391.037L402.197 387.887L403.839 383.985L405.481 379.421L407.944 371.57L416.974 340.212L418.616 332.855L421.9 317.054L423.542 310.476L429.289 290.382L431.751 282.79L436.677 268.499L437.498 266.875L438.319 265.785L439.14 265.282L439.961 265.369L440.782 265.995L441.603 267.063L443.245 270.064L445.708 275.65L448.17 282.176L451.454 291.459L453.096 297.017L454.738 303.747L460.485 329.392L463.768 343.17L467.052 357.063L469.515 366.008L472.799 376.627L476.083 385.892L478.545 391.845L480.187 395.005L481.829 397.567L483.471 399.683L485.113 401.41L488.397 404.209L490.86 406.101L492.501 407.125L494.964 408.234L497.427 408.985L499.89 409.466L503.995 409.86L508.92 410.093L512.204 410.111" stroke="#EFEFEF" stroke-linecap="square"/>
</g>
<mask id="mask11_230_11358" style="mask-type:luminance" maskUnits="userSpaceOnUse" x="76" y="55" width="477" height="356">
<path d="M552.957 55.2959H76.7969V410.112H552.957V55.2959Z" fill="white"/>
</mask>
<g mask="url(#mask11_230_11358)">
<path d="M340.008 410.111L348.955 409.979L354.323 409.651L357.007 409.315L358.796 408.905L360.585 408.228L362.375 407.202L364.164 405.838L366.848 403.312L368.637 401.247L370.427 398.754L373.111 394.327L375.795 389.294L378.479 383.546L382.058 374.952L385.636 365.384L388.32 358.25L393.688 345.158L399.056 329.274L402.635 321.204L404.425 316.091L407.109 307.944L408.898 303.782L409.793 302.266L411.582 300.029L413.371 297.907L415.161 295.109L416.95 292.039L417.845 290.761L418.739 289.815L419.634 289.24L420.529 289.019L421.423 289.102L422.318 289.44L423.213 289.993L425.002 291.616L427.686 294.468L431.265 297.691L432.159 298.94L433.054 300.631L433.949 302.823L435.738 308.607L438.422 319.259L441.106 329.837L443.79 339.183L455.421 376.728L457.21 381.532L459 385.469L461.684 390.415L463.473 393.316L465.262 395.678L467.052 397.383L473.315 402.258L475.999 404.287L478.683 405.784L481.367 406.91L484.051 407.689L487.629 408.234L491.208 408.932L494.787 409.54L499.26 409.835L508.207 410.032L518.048 410.111" fill="#EFEFEF" fill-opacity="0.4"/>
<path d="M340.008 410.111L348.955 409.979L354.323 409.651L357.007 409.315L358.796 408.905L360.585 408.228L362.375 407.202L364.164 405.838L366.848 403.312L368.637 401.247L370.427 398.754L373.111 394.327L375.795 389.294L378.479 383.546L382.058 374.952L385.636 365.384L388.32 358.25L393.688 345.158L399.056 329.274L402.635 321.204L404.425 316.091L407.109 307.944L408.898 303.782L409.793 302.266L411.582 300.029L413.371 297.907L415.161 295.109L416.95 292.039L417.845 290.761L418.739 289.815L419.634 289.24L420.529 289.019L421.423 289.102L422.318 289.44L423.213 289.993L425.002 291.616L427.686 294.468L431.265 297.691L432.159 298.94L433.054 300.631L433.949 302.823L435.738 308.607L438.422 319.259L441.106 329.837L443.79 339.183L455.421 376.728L457.21 381.532L459 385.469L461.684 390.415L463.473 393.316L465.262 395.678L467.052 397.383L473.315 402.258L475.999 404.287L478.683 405.784L481.367 406.91L484.051 407.689L487.629 408.234L491.208 408.932L494.787 409.54L499.26 409.835L508.207 410.032L518.048 410.111" stroke="#EFEFEF" stroke-linecap="square"/>
</g>
<mask id="mask12_230_11358" style="mask-type:luminance" maskUnits="userSpaceOnUse" x="76" y="55" width="477" height="356">
<path d="M552.957 55.2959H76.7969V410.112H552.957V55.2959Z" fill="white"/>
</mask>
<g mask="url(#mask12_230_11358)">
<path d="M358.938 410.111L386.113 409.813L389.05 409.63L391.254 409.612L394.192 409.003L396.395 408.972L400.802 408.34L401.536 408.338L403.74 408.686L404.474 408.469L405.943 407.635L407.412 406.778L410.35 405.848L411.819 405.121L412.553 404.559L413.288 403.574L415.491 399.562L416.226 397.915L416.96 395.79L418.429 389.984L421.367 375.849L422.836 367.35L423.57 362.077L424.305 355.497L425.774 337.552L427.977 304.912L430.18 267.291L431.649 234.112L436.056 115.545L436.791 102.002L437.525 91.7327L438.26 84.6562L438.994 79.8953L439.728 76.232L440.463 73.345L441.197 72.1924L441.932 74.0832L442.666 80.0143L443.401 90.4325L444.87 122.226L448.542 219.909L450.745 280.654L452.214 315.995L453.683 344.22L454.418 355.224L455.152 363.91L455.887 370.27L456.621 374.728L458.09 380.705L459.559 386.181L461.762 396.078L462.497 398.254L463.231 399.694L463.966 400.666L468.373 404.894L470.576 406.3L472.779 408.18L474.248 408.669L477.186 409.098L478.655 408.968L480.124 408.831L484.531 409.66L488.203 409.893L490.406 409.833L493.344 409.941L495.548 409.975L497.751 409.977L499.955 409.879L505.096 410.111" fill="#EFEFEF" fill-opacity="0.4"/>
<path d="M358.938 410.111L386.113 409.813L389.05 409.63L391.254 409.612L394.192 409.003L396.395 408.972L400.802 408.34L401.536 408.338L403.74 408.686L404.474 408.469L405.943 407.635L407.412 406.778L410.35 405.848L411.819 405.121L412.553 404.559L413.288 403.574L415.491 399.562L416.226 397.915L416.96 395.79L418.429 389.984L421.367 375.849L422.836 367.35L423.57 362.077L424.305 355.497L425.774 337.552L427.977 304.912L430.18 267.291L431.649 234.112L436.056 115.545L436.791 102.002L437.525 91.7327L438.26 84.6562L438.994 79.8953L439.728 76.232L440.463 73.345L441.197 72.1924L441.932 74.0832L442.666 80.0143L443.401 90.4325L444.87 122.226L448.542 219.909L450.745 280.654L452.214 315.995L453.683 344.22L454.418 355.224L455.152 363.91L455.887 370.27L456.621 374.728L458.09 380.705L459.559 386.181L461.762 396.078L462.497 398.254L463.231 399.694L463.966 400.666L468.373 404.894L470.576 406.3L472.779 408.18L474.248 408.669L477.186 409.098L478.655 408.968L480.124 408.831L484.531 409.66L488.203 409.893L490.406 409.833L493.344 409.941L495.548 409.975L497.751 409.977L499.955 409.879L505.096 410.111" stroke="#EFEFEF" stroke-linecap="square"/>
</g>
<mask id="mask13_230_11358" style="mask-type:luminance" maskUnits="userSpaceOnUse" x="76" y="55" width="477" height="356">
<path d="M552.957 55.2959H76.7969V410.112H552.957V55.2959Z" fill="white"/>
</mask>
<g mask="url(#mask13_230_11358)">
<path d="M378.984 410.111L382.293 409.984L385.601 409.741L392.217 409.953L394.202 409.683L397.511 409.15L400.157 408.943L402.804 408.886L408.097 408.11L411.405 407.514L412.729 407.058L414.714 406.004L416.037 404.797L417.36 402.865L420.007 398.04L421.33 395.139L422.654 391.295L423.977 386.085L425.3 379.068L426.624 369.795L428.609 352.637L430.593 332.419L432.578 308.48L434.563 280.04L441.842 173.215L443.165 158.621L443.827 153.761L444.488 150.715L445.15 149.448L445.812 149.918L446.473 152.023L447.135 155.455L449.12 168.967L450.443 180.548L451.766 196.973L455.736 254.048L458.383 284.228L460.368 304.044L463.015 327.983L465 347.237L466.323 357.029L467.646 363.748L470.293 373.995L475.586 392.722L476.909 396.044L478.894 399.567L480.218 401.612L481.541 403.198L484.188 405.633L485.511 406.653L486.834 407.326L488.157 407.696L490.142 408.148L492.789 409.035L495.436 409.238L500.729 409.726L503.376 410.021L510.654 410.111" fill="#EFEFEF" fill-opacity="0.4"/>
<path d="M378.984 410.111L382.293 409.984L385.601 409.741L392.217 409.953L394.202 409.683L397.511 409.15L400.157 408.943L402.804 408.886L408.097 408.11L411.405 407.514L412.729 407.058L414.714 406.004L416.037 404.797L417.36 402.865L420.007 398.04L421.33 395.139L422.654 391.295L423.977 386.085L425.3 379.068L426.624 369.795L428.609 352.637L430.593 332.419L432.578 308.48L434.563 280.04L441.842 173.215L443.165 158.621L443.827 153.761L444.488 150.715L445.15 149.448L445.812 149.918L446.473 152.023L447.135 155.455L449.12 168.967L450.443 180.548L451.766 196.973L455.736 254.048L458.383 284.228L460.368 304.044L463.015 327.983L465 347.237L466.323 357.029L467.646 363.748L470.293 373.995L475.586 392.722L476.909 396.044L478.894 399.567L480.218 401.612L481.541 403.198L484.188 405.633L485.511 406.653L486.834 407.326L488.157 407.696L490.142 408.148L492.789 409.035L495.436 409.238L500.729 409.726L503.376 410.021L510.654 410.111" stroke="#EFEFEF" stroke-linecap="square"/>
</g>
<mask id="mask14_230_11358" style="mask-type:luminance" maskUnits="userSpaceOnUse" x="76" y="55" width="477" height="356">
<path d="M552.957 55.2959H76.7969V410.112H552.957V55.2959Z" fill="white"/>
</mask>
<g mask="url(#mask14_230_11358)">
<path d="M98.4375 410.111L185.34 410.111L344.307 410.024L348.546 409.792L357.024 408.985L359.144 408.525L361.263 407.771L363.383 406.637L365.502 405.131L367.622 403.326L369.742 401.321L371.861 398.845L373.981 395.275L382.459 376.897L384.578 370.667L386.698 363.39L388.818 354.855L395.176 324.496L397.296 315.584L399.415 308.01L405.774 288.652L407.894 283.32L410.013 280.42L412.133 279.082L414.252 278.133L416.372 277.416L418.491 278.36L420.611 282.41L422.731 288.348L424.85 293.493L426.97 297.371L429.089 302.227L433.328 316.96L437.568 329.397L448.165 367.3L450.285 374.15L452.404 380.408L454.524 386.16L456.644 391.155L458.763 395.298L460.883 398.809L463.002 401.748L465.122 403.989L467.241 405.612L469.361 406.845L471.481 407.814L473.6 408.488L475.72 408.872L484.198 409.66L492.676 410.053L503.274 410.111L520.23 410.111" fill="#7EB0D5" fill-opacity="0.4"/>
<path d="M98.4375 410.111L185.34 410.111L344.307 410.024L348.546 409.792L357.024 408.985L359.144 408.525L361.263 407.771L363.383 406.637L365.502 405.131L367.622 403.326L369.742 401.321L371.861 398.845L373.981 395.275L382.459 376.897L384.578 370.667L386.698 363.39L388.818 354.855L395.176 324.496L397.296 315.584L399.415 308.01L405.774 288.652L407.894 283.32L410.013 280.42L412.133 279.082L414.252 278.133L416.372 277.416L418.491 278.36L420.611 282.41L422.731 288.348L424.85 293.493L426.97 297.371L429.089 302.227L433.328 316.96L437.568 329.397L448.165 367.3L450.285 374.15L452.404 380.408L454.524 386.16L456.644 391.155L458.763 395.298L460.883 398.809L463.002 401.748L465.122 403.989L467.241 405.612L469.361 406.845L471.481 407.814L473.6 408.488L475.72 408.872L484.198 409.66L492.676 410.053L503.274 410.111L520.23 410.111" stroke="#7EB0D5" stroke-linecap="square"/>
</g>
<path d="M535.061 411.061C535.646 410.475 535.646 409.525 535.061 408.939L525.515 399.393C524.929 398.808 523.979 398.808 523.393 399.393C522.808 399.979 522.808 400.929 523.393 401.515L531.879 410L523.393 418.485C522.808 419.071 522.808 420.021 523.393 420.607C523.979 421.192 524.929 421.192 525.515 420.607L535.061 411.061ZM79 411.5H534V408.5H79V411.5Z" fill="black"/>
</g>
<defs>
<clipPath id="clip0_230_11358">
<rect width="614.4" height="460.8" fill="white"/>
</clipPath>
</defs>
</svg>
