<svg width="615" height="461" viewBox="0 0 615 461" fill="none" xmlns="http://www.w3.org/2000/svg">
<g clip-path="url(#clip0_230_11518)">
<mask id="mask0_230_11518" style="mask-type:luminance" maskUnits="userSpaceOnUse" x="76" y="55" width="477" height="356">
<path d="M552.957 55.2959H76.7969V410.112H552.957V55.2959Z" fill="white"/>
</mask>
<g mask="url(#mask0_230_11518)">
<path d="M364.086 410.112L374.995 409.978L379.359 409.709L384.45 408.979L386.632 408.403L388.086 407.763L390.268 406.424L392.45 404.627L393.904 403.074L395.359 401.183L397.541 397.752L399.723 393.552L401.905 388.436L404.086 382.328L405.541 377.393L408.45 365.816L410.632 357.694L412.814 350.848L414.996 344.341L416.45 339.224L420.086 324.929L422.268 318.511L423.723 314.218L425.905 306.523L428.087 298.849L429.541 295.001L430.996 292.348L433.178 289.412L436.814 284.787L437.541 284.143L438.268 283.736L438.996 283.608L439.723 283.775L440.45 284.229L441.178 284.968L441.905 286.005L442.632 287.368L444.087 291.056L451.359 313.36L452.814 318.745L454.269 325.01L461.541 359.283L463.723 367.768L465.178 372.587L467.36 378.579L470.996 388.028L473.178 393.929L474.632 397.117L476.087 399.387L477.542 400.945L480.451 403.344L486.269 407.815L487.723 408.583L489.178 409.065L491.36 409.412L497.178 409.818L508.815 410.112" fill="#EFEFEF" fill-opacity="0.4"/>
<path d="M364.086 410.112L374.995 409.978L379.359 409.709L384.45 408.979L386.632 408.403L388.086 407.763L390.268 406.424L392.45 404.627L393.904 403.074L395.359 401.183L397.541 397.752L399.723 393.552L401.905 388.436L404.086 382.328L405.541 377.393L408.45 365.816L410.632 357.694L412.814 350.848L414.996 344.341L416.45 339.224L420.086 324.929L422.268 318.511L423.723 314.218L425.905 306.523L428.087 298.849L429.541 295.001L430.996 292.348L433.178 289.412L436.814 284.787L437.541 284.143L438.268 283.736L438.996 283.608L439.723 283.775L440.45 284.229L441.178 284.968L441.905 286.005L442.632 287.368L444.087 291.056L451.359 313.36L452.814 318.745L454.269 325.01L461.541 359.283L463.723 367.768L465.178 372.587L467.36 378.579L470.996 388.028L473.178 393.929L474.632 397.117L476.087 399.387L477.542 400.945L480.451 403.344L486.269 407.815L487.723 408.583L489.178 409.065L491.36 409.412L497.178 409.818L508.815 410.112" stroke="#EFEFEF" stroke-linecap="square"/>
</g>
<mask id="mask1_230_11518" style="mask-type:luminance" maskUnits="userSpaceOnUse" x="76" y="55" width="477" height="356">
<path d="M552.957 55.2959H76.7969V410.112H552.957V55.2959Z" fill="white"/>
</mask>
<g mask="url(#mask1_230_11518)">
<path d="M340.203 410.112L352.391 410L356.141 409.7L358.953 409.214L361.766 408.408L363.641 407.598L365.516 406.479L367.391 404.991L369.266 403.093L371.141 400.734L373.016 397.824L374.891 394.248L376.766 389.923L378.641 384.844L381.454 376.058L386.141 360.606L388.016 355.231L389.891 350.777L391.767 347.383L392.704 346.093L393.642 345.065L394.579 344.286L395.517 343.736L396.454 343.398L397.392 343.252L398.329 343.278L400.204 343.764L402.079 344.677L404.892 346.481L408.642 349.3L411.454 351.464L413.329 352.576L415.204 353.154L417.079 353.114L418.955 352.581L422.705 350.927L432.08 346.563L435.83 345.262L439.58 343.81L440.517 343.663L441.455 343.691L442.392 343.917L443.33 344.343L445.205 345.712L448.017 348.533L460.205 361.966L463.018 365.962L466.768 371.985L474.268 384.133L478.018 389.581L481.768 394.443L485.518 398.711L488.331 401.542L491.143 403.882L493.018 405.108L495.831 406.532L498.643 407.601L501.456 408.385L505.206 409.093L509.894 409.658L515.519 410.006L523.019 410.108L526.769 410.112" fill="#EFEFEF" fill-opacity="0.4"/>
<path d="M340.203 410.112L352.391 410L356.141 409.7L358.953 409.214L361.766 408.408L363.641 407.598L365.516 406.479L367.391 404.991L369.266 403.093L371.141 400.734L373.016 397.824L374.891 394.248L376.766 389.923L378.641 384.844L381.454 376.058L386.141 360.606L388.016 355.231L389.891 350.777L391.767 347.383L392.704 346.093L393.642 345.065L394.579 344.286L395.517 343.736L396.454 343.398L397.392 343.252L398.329 343.278L400.204 343.764L402.079 344.677L404.892 346.481L408.642 349.3L411.454 351.464L413.329 352.576L415.204 353.154L417.079 353.114L418.955 352.581L422.705 350.927L432.08 346.563L435.83 345.262L439.58 343.81L440.517 343.663L441.455 343.691L442.392 343.917L443.33 344.343L445.205 345.712L448.017 348.533L460.205 361.966L463.018 365.962L466.768 371.985L474.268 384.133L478.018 389.581L481.768 394.443L485.518 398.711L488.331 401.542L491.143 403.882L493.018 405.108L495.831 406.532L498.643 407.601L501.456 408.385L505.206 409.093L509.894 409.658L515.519 410.006L523.019 410.108L526.769 410.112" stroke="#EFEFEF" stroke-linecap="square"/>
</g>
<mask id="mask2_230_11518" style="mask-type:luminance" maskUnits="userSpaceOnUse" x="76" y="55" width="477" height="356">
<path d="M552.957 55.2959H76.7969V410.112H552.957V55.2959Z" fill="white"/>
</mask>
<g mask="url(#mask2_230_11518)">
<path d="M376.703 410.111L385.336 409.953L390.648 409.684L393.968 409.215L396.624 408.603L398.617 407.827L399.945 407.064L401.273 406.015L402.601 404.64L404.593 402.042L406.585 398.957L407.913 396.52L409.241 393.561L410.569 389.951L412.562 383.321L414.554 375.41L416.546 366.199L422.522 336.218L425.178 319.841L429.827 290.271L431.819 280.523L433.811 271.804L435.139 267.119L436.467 263.476L437.795 260.637L439.123 258.456L439.787 257.693L440.451 257.271L441.115 257.292L441.78 257.826L442.444 258.881L443.108 260.403L444.436 264.533L445.764 269.749L451.74 296.754L453.068 303.883L455.724 320.491L458.381 336.938L460.373 347.235L463.693 361.971L466.349 373.22L467.677 377.617L470.333 384.856L472.99 391.618L474.318 394.465L475.646 396.823L477.638 399.618L483.614 406.578L484.942 407.436L486.27 407.816L488.927 408.336L493.575 409.711L496.231 409.916L506.856 410.105L508.848 410.111" fill="#EFEFEF" fill-opacity="0.4"/>
<path d="M376.703 410.111L385.336 409.953L390.648 409.684L393.968 409.215L396.624 408.603L398.617 407.827L399.945 407.064L401.273 406.015L402.601 404.64L404.593 402.042L406.585 398.957L407.913 396.52L409.241 393.561L410.569 389.951L412.562 383.321L414.554 375.41L416.546 366.199L422.522 336.218L425.178 319.841L429.827 290.271L431.819 280.523L433.811 271.804L435.139 267.119L436.467 263.476L437.795 260.637L439.123 258.456L439.787 257.693L440.451 257.271L441.115 257.292L441.78 257.826L442.444 258.881L443.108 260.403L444.436 264.533L445.764 269.749L451.74 296.754L453.068 303.883L455.724 320.491L458.381 336.938L460.373 347.235L463.693 361.971L466.349 373.22L467.677 377.617L470.333 384.856L472.99 391.618L474.318 394.465L475.646 396.823L477.638 399.618L483.614 406.578L484.942 407.436L486.27 407.816L488.927 408.336L493.575 409.711L496.231 409.916L506.856 410.105L508.848 410.111" stroke="#EFEFEF" stroke-linecap="square"/>
</g>
<mask id="mask3_230_11518" style="mask-type:luminance" maskUnits="userSpaceOnUse" x="76" y="55" width="477" height="356">
<path d="M552.957 55.2959H76.7969V410.112H552.957V55.2959Z" fill="white"/>
</mask>
<g mask="url(#mask3_230_11518)">
<path d="M373.195 410.111L381.935 409.947L391.403 409.726L394.317 409.347L398.686 408.711L400.871 408.336L411.068 405.694L412.524 405.108L413.981 404.163L417.623 401.165L419.079 399.735L420.536 397.792L421.993 395.2L424.906 388.998L440.929 352.073L444.57 342.112L446.027 337.208L448.94 325.754L451.125 315.988L452.582 308.351L454.039 299.5L458.408 271L459.865 264.124L461.322 258.851L462.05 256.856L462.778 255.354L463.507 254.391L464.235 253.979L464.963 254.088L465.692 254.648L466.42 255.565L467.877 258.177L468.605 259.881L469.333 261.966L470.062 264.555L471.518 271.549L472.975 280.797L475.888 302.45L478.073 320.316L481.715 352.281L483.171 362.477L484.628 370.709L486.813 381.094L488.998 389.922L490.454 394.548L491.911 398.134L493.368 400.982L495.553 404.431L497.009 406.146L498.466 407.307L499.923 408.049L502.836 409.057L505.021 409.576L507.206 409.814L515.217 410.099L518.13 410.112" fill="#EFEFEF" fill-opacity="0.4"/>
<path d="M373.195 410.111L381.935 409.947L391.403 409.726L394.317 409.347L398.686 408.711L400.871 408.336L411.068 405.694L412.524 405.108L413.981 404.163L417.623 401.165L419.079 399.735L420.536 397.792L421.993 395.2L424.906 388.998L440.929 352.073L444.57 342.112L446.027 337.208L448.94 325.754L451.125 315.988L452.582 308.351L454.039 299.5L458.408 271L459.865 264.124L461.322 258.851L462.05 256.856L462.778 255.354L463.507 254.391L464.235 253.979L464.963 254.088L465.692 254.648L466.42 255.565L467.877 258.177L468.605 259.881L469.333 261.966L470.062 264.555L471.518 271.549L472.975 280.797L475.888 302.45L478.073 320.316L481.715 352.281L483.171 362.477L484.628 370.709L486.813 381.094L488.998 389.922L490.454 394.548L491.911 398.134L493.368 400.982L495.553 404.431L497.009 406.146L498.466 407.307L499.923 408.049L502.836 409.057L505.021 409.576L507.206 409.814L515.217 410.099L518.13 410.112" stroke="#EFEFEF" stroke-linecap="square"/>
</g>
<mask id="mask4_230_11518" style="mask-type:luminance" maskUnits="userSpaceOnUse" x="76" y="55" width="477" height="356">
<path d="M552.957 55.2959H76.7969V410.112H552.957V55.2959Z" fill="white"/>
</mask>
<g mask="url(#mask4_230_11518)">
<path d="M344.594 410.112L357.73 409.979L361.483 409.713L364.298 409.24L366.175 408.686L368.051 407.846L369.928 406.646L371.805 405.052L373.681 403.067L376.496 399.441L381.188 393.005L383.064 390.948L384.941 389.322L387.756 387.445L391.509 384.993L395.262 382.339L397.139 381.559L399.015 381.334L402.769 381.358L404.645 380.983L409.337 379.358L412.152 378.319L414.028 377.236L415.905 375.563L417.781 373.198L419.658 370.185L422.473 364.847L428.103 353.328L429.979 348.814L437.486 329.247L440.301 323.448L444.992 314.93L446.869 311.789L448.746 309.182L449.684 308.195L450.622 307.465L451.56 307.014L452.499 306.853L453.437 306.993L454.375 307.454L455.314 308.263L456.252 309.456L457.19 311.068L458.129 313.119L460.005 318.481L462.82 328.564L465.635 338.615L472.203 360.567L475.956 373.822L477.833 379.587L479.71 384.585L481.586 388.869L483.463 392.535L485.339 395.679L487.216 398.398L489.093 400.763L490.969 402.796L492.846 404.48L494.722 405.797L496.599 406.763L499.414 407.722L504.106 408.814L507.859 409.453L511.612 409.775L519.118 410.028L531.316 410.112" fill="#EFEFEF" fill-opacity="0.4"/>
<path d="M344.594 410.112L357.73 409.979L361.483 409.713L364.298 409.24L366.175 408.686L368.051 407.846L369.928 406.646L371.805 405.052L373.681 403.067L376.496 399.441L381.188 393.005L383.064 390.948L384.941 389.322L387.756 387.445L391.509 384.993L395.262 382.339L397.139 381.559L399.015 381.334L402.769 381.358L404.645 380.983L409.337 379.358L412.152 378.319L414.028 377.236L415.905 375.563L417.781 373.198L419.658 370.185L422.473 364.847L428.103 353.328L429.979 348.814L437.486 329.247L440.301 323.448L444.992 314.93L446.869 311.789L448.746 309.182L449.684 308.195L450.622 307.465L451.56 307.014L452.499 306.853L453.437 306.993L454.375 307.454L455.314 308.263L456.252 309.456L457.19 311.068L458.129 313.119L460.005 318.481L462.82 328.564L465.635 338.615L472.203 360.567L475.956 373.822L477.833 379.587L479.71 384.585L481.586 388.869L483.463 392.535L485.339 395.679L487.216 398.398L489.093 400.763L490.969 402.796L492.846 404.48L494.722 405.797L496.599 406.763L499.414 407.722L504.106 408.814L507.859 409.453L511.612 409.775L519.118 410.028L531.316 410.112" stroke="#EFEFEF" stroke-linecap="square"/>
</g>
<mask id="mask5_230_11518" style="mask-type:luminance" maskUnits="userSpaceOnUse" x="76" y="55" width="477" height="356">
<path d="M552.957 55.2959H76.7969V410.112H552.957V55.2959Z" fill="white"/>
</mask>
<g mask="url(#mask5_230_11518)">
<path d="M374.789 410.111L389.667 409.949L391.696 409.828L395.077 409.833L402.516 409.492L406.574 408.875L407.926 408.99L409.955 409.262L414.689 408.903L417.394 407.832L418.747 407.403L422.128 405.847L422.804 405.275L424.833 402.766L426.186 400.563L427.538 397.09L428.891 392.126L429.567 388.698L430.92 379.397L432.272 366.724L433.625 348.801L435.653 314.968L437.006 290.483L438.359 260.17L441.064 192.273L442.416 163.887L443.769 141.366L444.445 133.083L445.121 126.789L445.798 122.637L446.474 120.901L447.15 121.721L447.826 125.04L448.503 130.83L449.179 139.035L450.531 160.718L452.56 199.366L457.294 291.629L458.647 312.924L460.676 338.516L462.028 353.244L463.381 364.288L464.733 371.529L468.114 387.565L469.467 393.672L470.143 395.973L470.82 397.665L472.172 400.024L473.525 402.086L474.201 402.866L475.553 403.697L476.23 404.082L477.582 405.428L478.935 406.88L480.287 407.693L485.021 409.52L486.374 409.701L489.079 409.613L491.784 409.892L495.165 410.07L499.899 410.112L509.367 410.111" fill="#EFEFEF" fill-opacity="0.4"/>
<path d="M374.789 410.111L389.667 409.949L391.696 409.828L395.077 409.833L402.516 409.492L406.574 408.875L407.926 408.99L409.955 409.262L414.689 408.903L417.394 407.832L418.747 407.403L422.128 405.847L422.804 405.275L424.833 402.766L426.186 400.563L427.538 397.09L428.891 392.126L429.567 388.698L430.92 379.397L432.272 366.724L433.625 348.801L435.653 314.968L437.006 290.483L438.359 260.17L441.064 192.273L442.416 163.887L443.769 141.366L444.445 133.083L445.121 126.789L445.798 122.637L446.474 120.901L447.15 121.721L447.826 125.04L448.503 130.83L449.179 139.035L450.531 160.718L452.56 199.366L457.294 291.629L458.647 312.924L460.676 338.516L462.028 353.244L463.381 364.288L464.733 371.529L468.114 387.565L469.467 393.672L470.143 395.973L470.82 397.665L472.172 400.024L473.525 402.086L474.201 402.866L475.553 403.697L476.23 404.082L477.582 405.428L478.935 406.88L480.287 407.693L485.021 409.52L486.374 409.701L489.079 409.613L491.784 409.892L495.165 410.07L499.899 410.112L509.367 410.111" stroke="#EFEFEF" stroke-linecap="square"/>
</g>
<mask id="mask6_230_11518" style="mask-type:luminance" maskUnits="userSpaceOnUse" x="76" y="55" width="477" height="356">
<path d="M552.957 55.2959H76.7969V410.112H552.957V55.2959Z" fill="white"/>
</mask>
<g mask="url(#mask6_230_11518)">
<path d="M356 410.111L368.726 409.98L372.119 409.643L374.664 409.094L376.361 408.532L378.058 407.726L379.754 406.625L381.451 405.22L383.148 403.464L384.845 401.21L386.541 398.349L389.087 393.207L395.025 380.417L398.419 372.563L406.902 355.266L411.144 347.374L412.841 343.402L415.386 336.711L418.78 326.897L422.173 317.238L424.718 310.765L426.415 307.171L428.112 304.224L430.657 300.479L432.354 298.335L433.202 297.514L434.05 296.939L434.899 296.638L435.747 296.603L436.595 296.814L437.444 297.259L438.292 297.936L439.141 298.85L440.837 301.378L442.534 304.768L444.231 309.064L445.927 314.307L449.321 326.237L451.866 335.79L455.26 350.049L457.805 360.342L459.501 366.215L461.198 371.122L462.895 375.215L469.682 389.761L471.379 392.833L473.075 395.275L475.621 398.107L478.166 400.526L479.862 401.836L483.256 403.835L488.346 406.831L490.043 407.438L492.588 408.004L497.678 409.063L501.072 409.689L504.465 409.914L524.826 410.111" fill="#EFEFEF" fill-opacity="0.4"/>
<path d="M356 410.111L368.726 409.98L372.119 409.643L374.664 409.094L376.361 408.532L378.058 407.726L379.754 406.625L381.451 405.22L383.148 403.464L384.845 401.21L386.541 398.349L389.087 393.207L395.025 380.417L398.419 372.563L406.902 355.266L411.144 347.374L412.841 343.402L415.386 336.711L418.78 326.897L422.173 317.238L424.718 310.765L426.415 307.171L428.112 304.224L430.657 300.479L432.354 298.335L433.202 297.514L434.05 296.939L434.899 296.638L435.747 296.603L436.595 296.814L437.444 297.259L438.292 297.936L439.141 298.85L440.837 301.378L442.534 304.768L444.231 309.064L445.927 314.307L449.321 326.237L451.866 335.79L455.26 350.049L457.805 360.342L459.501 366.215L461.198 371.122L462.895 375.215L469.682 389.761L471.379 392.833L473.075 395.275L475.621 398.107L478.166 400.526L479.862 401.836L483.256 403.835L488.346 406.831L490.043 407.438L492.588 408.004L497.678 409.063L501.072 409.689L504.465 409.914L524.826 410.111" stroke="#EFEFEF" stroke-linecap="square"/>
</g>
<mask id="mask7_230_11518" style="mask-type:luminance" maskUnits="userSpaceOnUse" x="76" y="55" width="477" height="356">
<path d="M552.957 55.2959H76.7969V410.112H552.957V55.2959Z" fill="white"/>
</mask>
<g mask="url(#mask7_230_11518)">
<path d="M355.633 410.111L366.277 409.982L369.552 409.63L372.008 409.116L374.465 408.285L376.102 407.451L377.74 406.352L379.377 404.948L381.015 403.066L382.652 400.364L384.29 396.493L385.927 391.225L387.565 384.359L389.202 375.66L390.84 365.049L392.477 352.681L394.934 331.243L399.846 285.371L401.484 273.321L402.303 268.532L403.121 264.652L403.94 261.669L404.759 259.523L405.578 258.143L406.397 257.48L407.215 257.534L408.034 258.343L408.853 259.97L409.672 262.466L410.49 265.837L412.128 274.879L417.859 311.561L419.497 319.429L421.134 325.659L422.772 330.487L424.41 334.26L426.047 337.274L430.141 344.212L432.597 349.2L438.329 361.35L440.785 365.596L444.879 372.576L450.61 382.816L452.248 385.005L453.885 386.718L456.342 388.785L461.254 392.695L467.804 397.976L469.442 399.175L471.079 400.092L475.992 402.424L480.086 404.583L485.817 407.388L488.274 408.247L491.549 409.042L494.824 409.561L498.918 409.835L504.649 409.969L518.568 410.111" fill="#EFEFEF" fill-opacity="0.4"/>
<path d="M355.633 410.111L366.277 409.982L369.552 409.63L372.008 409.116L374.465 408.285L376.102 407.451L377.74 406.352L379.377 404.948L381.015 403.066L382.652 400.364L384.29 396.493L385.927 391.225L387.565 384.359L389.202 375.66L390.84 365.049L392.477 352.681L394.934 331.243L399.846 285.371L401.484 273.321L402.303 268.532L403.121 264.652L403.94 261.669L404.759 259.523L405.578 258.143L406.397 257.48L407.215 257.534L408.034 258.343L408.853 259.97L409.672 262.466L410.49 265.837L412.128 274.879L417.859 311.561L419.497 319.429L421.134 325.659L422.772 330.487L424.41 334.26L426.047 337.274L430.141 344.212L432.597 349.2L438.329 361.35L440.785 365.596L444.879 372.576L450.61 382.816L452.248 385.005L453.885 386.718L456.342 388.785L461.254 392.695L467.804 397.976L469.442 399.175L471.079 400.092L475.992 402.424L480.086 404.583L485.817 407.388L488.274 408.247L491.549 409.042L494.824 409.561L498.918 409.835L504.649 409.969L518.568 410.111" stroke="#EFEFEF" stroke-linecap="square"/>
</g>
<mask id="mask8_230_11518" style="mask-type:luminance" maskUnits="userSpaceOnUse" x="76" y="55" width="477" height="356">
<path d="M552.957 55.2959H76.7969V410.112H552.957V55.2959Z" fill="white"/>
</mask>
<g mask="url(#mask8_230_11518)">
<path d="M365.469 410.111L374.378 409.97L378.09 409.666L381.802 408.991L384.029 408.326L385.514 407.615L386.999 406.577L388.484 405.168L389.969 403.376L391.454 401.133L392.938 398.25L394.423 394.473L395.908 389.677L398.135 381.069L407.787 341.477L410.757 329.226L412.241 324.166L413.726 319.902L415.211 316.253L416.696 313.214L418.181 310.985L419.666 309.637L421.893 308.519L424.12 307.302L427.832 305.14L429.317 304.489L430.802 304.172L431.544 304.269L432.287 304.625L433.029 305.296L433.772 306.306L435.256 309.228L438.226 315.936L439.711 318.435L441.938 321.782L443.423 324.498L448.62 335.447L450.847 340.546L456.787 355.101L461.984 366.781L464.211 372.326L469.408 386.022L470.893 388.799L474.605 394.684L476.832 397.786L478.317 399.39L484.999 405.483L486.484 406.48L488.711 407.501L490.938 408.148L495.393 408.989L500.59 409.712L505.044 409.98L511.726 410.109L513.211 410.111" fill="#EFEFEF" fill-opacity="0.4"/>
<path d="M365.469 410.111L374.378 409.97L378.09 409.666L381.802 408.991L384.029 408.326L385.514 407.615L386.999 406.577L388.484 405.168L389.969 403.376L391.454 401.133L392.938 398.25L394.423 394.473L395.908 389.677L398.135 381.069L407.787 341.477L410.757 329.226L412.241 324.166L413.726 319.902L415.211 316.253L416.696 313.214L418.181 310.985L419.666 309.637L421.893 308.519L424.12 307.302L427.832 305.14L429.317 304.489L430.802 304.172L431.544 304.269L432.287 304.625L433.029 305.296L433.772 306.306L435.256 309.228L438.226 315.936L439.711 318.435L441.938 321.782L443.423 324.498L448.62 335.447L450.847 340.546L456.787 355.101L461.984 366.781L464.211 372.326L469.408 386.022L470.893 388.799L474.605 394.684L476.832 397.786L478.317 399.39L484.999 405.483L486.484 406.48L488.711 407.501L490.938 408.148L495.393 408.989L500.59 409.712L505.044 409.98L511.726 410.109L513.211 410.111" stroke="#EFEFEF" stroke-linecap="square"/>
</g>
<mask id="mask9_230_11518" style="mask-type:luminance" maskUnits="userSpaceOnUse" x="76" y="55" width="477" height="356">
<path d="M552.957 55.2959H76.7969V410.112H552.957V55.2959Z" fill="white"/>
</mask>
<g mask="url(#mask9_230_11518)">
<path d="M378.383 410.111L394.573 409.931L400.8 409.392L404.536 408.925L407.027 408.838L412.008 408.547L413.254 408.053L418.858 404.662L420.103 403.305L421.349 401.246L423.217 396.995L425.085 392.647L428.198 385.847L429.444 382.011L430.689 377.019L432.557 367.853L434.425 357.764L435.671 349.316L437.539 333.862L439.407 316.549L441.898 289.192L444.388 260.579L449.993 206.403L451.238 197.432L451.861 194.2L452.483 191.905L453.106 190.65L453.729 190.506L454.351 191.44L454.974 193.332L455.597 196.106L456.22 199.834L456.842 204.678L458.088 217.664L463.692 286.9L466.183 315.64L469.296 347.873L471.164 365.162L473.032 379.224L474.278 386.23L475.523 391.021L479.259 401.754L480.505 404.502L481.75 406.228L482.995 407.352L484.241 408.15L485.486 408.677L488.6 409.443L491.09 409.939L493.581 410.094L502.299 410.111" fill="#EFEFEF" fill-opacity="0.4"/>
<path d="M378.383 410.111L394.573 409.931L400.8 409.392L404.536 408.925L407.027 408.838L412.008 408.547L413.254 408.053L418.858 404.662L420.103 403.305L421.349 401.246L423.217 396.995L425.085 392.647L428.198 385.847L429.444 382.011L430.689 377.019L432.557 367.853L434.425 357.764L435.671 349.316L437.539 333.862L439.407 316.549L441.898 289.192L444.388 260.579L449.993 206.403L451.238 197.432L451.861 194.2L452.483 191.905L453.106 190.65L453.729 190.506L454.351 191.44L454.974 193.332L455.597 196.106L456.22 199.834L456.842 204.678L458.088 217.664L463.692 286.9L466.183 315.64L469.296 347.873L471.164 365.162L473.032 379.224L474.278 386.23L475.523 391.021L479.259 401.754L480.505 404.502L481.75 406.228L482.995 407.352L484.241 408.15L485.486 408.677L488.6 409.443L491.09 409.939L493.581 410.094L502.299 410.111" stroke="#EFEFEF" stroke-linecap="square"/>
</g>
<mask id="mask10_230_11518" style="mask-type:luminance" maskUnits="userSpaceOnUse" x="76" y="55" width="477" height="356">
<path d="M552.957 55.2959H76.7969V410.112H552.957V55.2959Z" fill="white"/>
</mask>
<g mask="url(#mask10_230_11518)">
<path d="M359.883 410.112L376.064 409.951L383.345 409.43L389.009 408.9L391.436 408.239L396.29 406.551L397.908 406.021L399.526 405.198L401.144 403.965L402.762 402.353L405.999 398.481L408.426 395.13L410.853 391.06L413.28 386.248L415.707 380.568L419.753 369.874L422.989 360.866L425.416 353.158L428.652 341.702L431.079 331.574L433.506 321.118L436.743 309.026L439.979 297.269L441.597 292.873L442.406 291.308L443.215 290.118L444.833 288.547L446.451 287.546L448.878 286.341L449.687 286.052L450.496 285.922L451.306 286.037L452.115 286.485L452.924 287.332L453.733 288.613L454.542 290.334L456.16 294.982L458.587 303.826L461.014 312.208L463.441 319.838L465.059 325.99L467.487 337.103L469.914 348.28L472.341 358.008L478.004 378.135L479.622 382.867L482.049 388.755L485.286 395.805L486.904 398.584L488.522 400.681L490.949 403.058L493.376 405.065L495.803 406.69L498.23 407.879L500.658 408.697L503.894 409.457L506.321 409.75L512.793 410.027L520.884 410.112" fill="#EFEFEF" fill-opacity="0.4"/>
<path d="M359.883 410.112L376.064 409.951L383.345 409.43L389.009 408.9L391.436 408.239L396.29 406.551L397.908 406.021L399.526 405.198L401.144 403.965L402.762 402.353L405.999 398.481L408.426 395.13L410.853 391.06L413.28 386.248L415.707 380.568L419.753 369.874L422.989 360.866L425.416 353.158L428.652 341.702L431.079 331.574L433.506 321.118L436.743 309.026L439.979 297.269L441.597 292.873L442.406 291.308L443.215 290.118L444.833 288.547L446.451 287.546L448.878 286.341L449.687 286.052L450.496 285.922L451.306 286.037L452.115 286.485L452.924 287.332L453.733 288.613L454.542 290.334L456.16 294.982L458.587 303.826L461.014 312.208L463.441 319.838L465.059 325.99L467.487 337.103L469.914 348.28L472.341 358.008L478.004 378.135L479.622 382.867L482.049 388.755L485.286 395.805L486.904 398.584L488.522 400.681L490.949 403.058L493.376 405.065L495.803 406.69L498.23 407.879L500.658 408.697L503.894 409.457L506.321 409.75L512.793 410.027L520.884 410.112" stroke="#EFEFEF" stroke-linecap="square"/>
</g>
<mask id="mask11_230_11518" style="mask-type:luminance" maskUnits="userSpaceOnUse" x="76" y="55" width="477" height="356">
<path d="M552.957 55.2959H76.7969V410.112H552.957V55.2959Z" fill="white"/>
</mask>
<g mask="url(#mask11_230_11518)">
<path d="M355.773 410.111L363.118 409.967L368.014 409.444L371.278 408.923L372.91 408.475L374.542 407.783L376.174 406.771L377.806 405.423L379.438 403.752L381.07 401.71L382.702 399.208L385.15 394.68L394.127 376.499L395.759 372.759L397.391 368.214L399.839 360.025L402.287 352.005L403.919 347.661L406.367 342.22L410.447 333.684L415.343 324.036L416.975 320.948L418.607 318.639L419.423 317.851L421.055 316.821L422.687 315.917L424.319 314.508L428.399 310.025L430.848 307.949L432.48 306.947L433.296 306.709L434.112 306.718L434.928 306.999L435.744 307.547L437.376 309.315L439.008 311.717L440.64 314.585L442.272 317.95L444.72 323.834L447.984 332.381L449.616 337.478L452.064 346.612L454.512 355.315L461.856 377.935L463.488 381.914L466.753 388.825L469.201 393.345L470.833 395.728L473.281 398.543L475.729 400.89L478.177 402.886L480.625 404.562L483.073 405.888L485.521 406.863L488.785 407.849L492.865 408.74L498.577 409.704L501.842 409.946L507.554 409.988L518.162 410.111" fill="#EFEFEF" fill-opacity="0.4"/>
<path d="M355.773 410.111L363.118 409.967L368.014 409.444L371.278 408.923L372.91 408.475L374.542 407.783L376.174 406.771L377.806 405.423L379.438 403.752L381.07 401.71L382.702 399.208L385.15 394.68L394.127 376.499L395.759 372.759L397.391 368.214L399.839 360.025L402.287 352.005L403.919 347.661L406.367 342.22L410.447 333.684L415.343 324.036L416.975 320.948L418.607 318.639L419.423 317.851L421.055 316.821L422.687 315.917L424.319 314.508L428.399 310.025L430.848 307.949L432.48 306.947L433.296 306.709L434.112 306.718L434.928 306.999L435.744 307.547L437.376 309.315L439.008 311.717L440.64 314.585L442.272 317.95L444.72 323.834L447.984 332.381L449.616 337.478L452.064 346.612L454.512 355.315L461.856 377.935L463.488 381.914L466.753 388.825L469.201 393.345L470.833 395.728L473.281 398.543L475.729 400.89L478.177 402.886L480.625 404.562L483.073 405.888L485.521 406.863L488.785 407.849L492.865 408.74L498.577 409.704L501.842 409.946L507.554 409.988L518.162 410.111" stroke="#EFEFEF" stroke-linecap="square"/>
</g>
<mask id="mask12_230_11518" style="mask-type:luminance" maskUnits="userSpaceOnUse" x="76" y="55" width="477" height="356">
<path d="M552.957 55.2959H76.7969V410.112H552.957V55.2959Z" fill="white"/>
</mask>
<g mask="url(#mask12_230_11518)">
<path d="M367.211 410.111L394.101 410.072L396.931 410.074L399.054 409.741L400.469 409.576L403.3 409.418L404.715 409.09L406.13 408.673L406.838 408.657L410.376 409.276L411.791 409.217L414.621 408.556L416.037 408.06L418.16 407.181L420.282 406.819L423.113 404.838L423.82 404.405L424.528 403.685L425.236 402.55L426.651 399.16L429.481 391.504L430.189 388.631L431.604 381.173L433.02 371.618L435.142 352.785L435.85 345.649L436.558 336.635L437.973 312.414L441.511 246.287L442.926 213.763L445.757 140.318L447.172 99.4538L447.88 84.6493L448.587 76.0399L449.295 72.2896L450.002 72.1924L450.71 76.2341L451.418 85.7416L452.125 101.234L453.54 145.257L455.663 217.837L457.786 276.637L459.909 331.072L461.324 356.081L462.74 373.372L463.447 379.539L464.155 384.07L464.862 387.407L466.278 392.079L469.108 398.818L470.523 401.908L471.231 403.041L471.939 403.809L474.061 405.113L476.184 406.489L477.6 407.884L478.307 408.362L479.722 408.741L481.138 408.95L484.676 408.963L488.214 409.583L493.875 409.836L496.705 409.916L498.828 409.866L508.027 410.111" fill="#EFEFEF" fill-opacity="0.4"/>
<path d="M367.211 410.111L394.101 410.072L396.931 410.074L399.054 409.741L400.469 409.576L403.3 409.418L404.715 409.09L406.13 408.673L406.838 408.657L410.376 409.276L411.791 409.217L414.621 408.556L416.037 408.06L418.16 407.181L420.282 406.819L423.113 404.838L423.82 404.405L424.528 403.685L425.236 402.55L426.651 399.16L429.481 391.504L430.189 388.631L431.604 381.173L433.02 371.618L435.142 352.785L435.85 345.649L436.558 336.635L437.973 312.414L441.511 246.287L442.926 213.763L445.757 140.318L447.172 99.4538L447.88 84.6493L448.587 76.0399L449.295 72.2896L450.002 72.1924L450.71 76.2341L451.418 85.7416L452.125 101.234L453.54 145.257L455.663 217.837L457.786 276.637L459.909 331.072L461.324 356.081L462.74 373.372L463.447 379.539L464.155 384.07L464.862 387.407L466.278 392.079L469.108 398.818L470.523 401.908L471.231 403.041L471.939 403.809L474.061 405.113L476.184 406.489L477.6 407.884L478.307 408.362L479.722 408.741L481.138 408.95L484.676 408.963L488.214 409.583L493.875 409.836L496.705 409.916L498.828 409.866L508.027 410.111" stroke="#EFEFEF" stroke-linecap="square"/>
</g>
<mask id="mask13_230_11518" style="mask-type:luminance" maskUnits="userSpaceOnUse" x="76" y="55" width="477" height="356">
<path d="M552.957 55.2959H76.7969V410.112H552.957V55.2959Z" fill="white"/>
</mask>
<g mask="url(#mask13_230_11518)">
<path d="M387.836 410.111L397.131 409.969L401.779 409.652L404.435 409.785L409.082 409.479L411.074 409.546L415.722 408.927L419.042 408.409L423.025 407.353L423.689 407.264L424.353 407.025L425.017 406.599L426.345 405.217L427.673 403.202L429.665 399.625L430.993 396.456L432.984 390.473L434.312 385.511L435.64 378.314L436.968 368.415L438.296 354.756L439.624 337.397L441.616 306.752L443.608 270.064L446.927 204.068L448.255 184.55L449.583 168.356L450.247 162.258L450.911 158.115L451.575 156.263L452.239 156.857L452.903 159.789L453.567 164.604L454.895 177.412L456.223 193.373L458.215 223.636L460.206 252.88L461.534 269.198L468.174 339.957L470.83 361.644L472.158 369.986L472.821 372.714L478.797 390.461L481.453 396.531L484.773 402.512L486.1 404.274L488.092 406.539L488.756 407.06L489.42 407.358L490.748 407.492L492.076 407.642L494.068 408.48L495.396 408.903L497.388 409.087L499.379 409.276L502.699 409.874L508.675 410.064L513.322 410.087L517.97 410.092L519.962 410.111" fill="#EFEFEF" fill-opacity="0.4"/>
<path d="M387.836 410.111L397.131 409.969L401.779 409.652L404.435 409.785L409.082 409.479L411.074 409.546L415.722 408.927L419.042 408.409L423.025 407.353L423.689 407.264L424.353 407.025L425.017 406.599L426.345 405.217L427.673 403.202L429.665 399.625L430.993 396.456L432.984 390.473L434.312 385.511L435.64 378.314L436.968 368.415L438.296 354.756L439.624 337.397L441.616 306.752L443.608 270.064L446.927 204.068L448.255 184.55L449.583 168.356L450.247 162.258L450.911 158.115L451.575 156.263L452.239 156.857L452.903 159.789L453.567 164.604L454.895 177.412L456.223 193.373L458.215 223.636L460.206 252.88L461.534 269.198L468.174 339.957L470.83 361.644L472.158 369.986L472.821 372.714L478.797 390.461L481.453 396.531L484.773 402.512L486.1 404.274L488.092 406.539L488.756 407.06L489.42 407.358L490.748 407.492L492.076 407.642L494.068 408.48L495.396 408.903L497.388 409.087L499.379 409.276L502.699 409.874L508.675 410.064L513.322 410.087L517.97 410.092L519.962 410.111" stroke="#EFEFEF" stroke-linecap="square"/>
</g>
<mask id="mask14_230_11518" style="mask-type:luminance" maskUnits="userSpaceOnUse" x="76" y="55" width="477" height="356">
<path d="M552.957 55.2959H76.7969V410.112H552.957V55.2959Z" fill="white"/>
</mask>
<g mask="url(#mask14_230_11518)">
<path d="M98.4375 410.111L205.443 410.112L351.548 410.007L355.663 409.872L361.837 409.365L365.952 408.574L368.01 407.999L370.068 407.18L372.126 405.957L374.184 404.317L376.242 402.322L378.299 399.997L380.357 397.177L382.415 393.768L384.473 389.929L386.531 385.499L388.588 380.013L392.704 367.214L394.762 359.87L396.82 351.042L402.993 322.132L405.051 314.263L407.109 307.871L409.166 302.788L411.224 299.227L413.282 297.595L417.398 297.4L419.455 296.602L421.513 296.427L423.571 298.759L425.629 303.823L427.687 310.319L429.744 316.309L431.802 320.758L433.86 324.609L435.918 329.795L440.034 344.303L442.091 350.436L456.496 385.685L458.554 389.275L462.669 394.759L466.785 400.099L468.843 402.18L470.901 403.677L472.958 404.784L477.074 406.392L483.247 408.525L487.363 409.263L491.479 409.724L497.652 409.912L507.941 410.111" fill="#7EB0D5" fill-opacity="0.4"/>
<path d="M98.4375 410.111L205.443 410.112L351.548 410.007L355.663 409.872L361.837 409.365L365.952 408.574L368.01 407.999L370.068 407.18L372.126 405.957L374.184 404.317L376.242 402.322L378.299 399.997L380.357 397.177L382.415 393.768L384.473 389.929L386.531 385.499L388.588 380.013L392.704 367.214L394.762 359.87L396.82 351.042L402.993 322.132L405.051 314.263L407.109 307.871L409.166 302.788L411.224 299.227L413.282 297.595L417.398 297.4L419.455 296.602L421.513 296.427L423.571 298.759L425.629 303.823L427.687 310.319L429.744 316.309L431.802 320.758L433.86 324.609L435.918 329.795L440.034 344.303L442.091 350.436L456.496 385.685L458.554 389.275L462.669 394.759L466.785 400.099L468.843 402.18L470.901 403.677L472.958 404.784L477.074 406.392L483.247 408.525L487.363 409.263L491.479 409.724L497.652 409.912L507.941 410.111" stroke="#7EB0D5" stroke-linecap="square"/>
</g>
<path d="M535.061 411.061C535.646 410.475 535.646 409.525 535.061 408.939L525.515 399.393C524.929 398.808 523.979 398.808 523.393 399.393C522.808 399.979 522.808 400.929 523.393 401.515L531.879 410L523.393 418.485C522.808 419.071 522.808 420.021 523.393 420.607C523.979 421.192 524.929 421.192 525.515 420.607L535.061 411.061ZM79 411.5H534V408.5H79V411.5Z" fill="black"/>
</g>
<defs>
<clipPath id="clip0_230_11518">
<rect width="614.4" height="460.8" fill="white"/>
</clipPath>
</defs>
</svg>
