<svg width="615" height="461" viewBox="0 0 615 461" fill="none" xmlns="http://www.w3.org/2000/svg">
<g clip-path="url(#clip0_230_12238)">
<mask id="mask0_230_12238" style="mask-type:luminance" maskUnits="userSpaceOnUse" x="76" y="55" width="477" height="356">
<path d="M552.957 55.2959H76.7969V410.112H552.957V55.2959Z" fill="white"/>
</mask>
<g mask="url(#mask0_230_12238)">
<path d="M235.117 410.111L253.749 409.952L261.422 409.497L267.998 408.696L271.286 408.398L273.478 407.693L280.054 404.567L285.534 401.798L286.63 400.945L288.822 398.692L292.11 394.651L294.302 391.337L295.398 389.28L297.59 384.194L299.782 378.076L306.358 358.691L308.55 350.204L310.742 339.621L312.934 326.95L315.126 312.094L317.318 294.193L326.087 212.085L332.663 146.227L333.759 137.48L334.855 130.446L335.951 125.538L337.047 122.694L338.143 121.381L339.239 120.892L340.335 120.748L341.431 120.915L342.527 121.752L343.623 123.732L344.719 127.138L345.815 131.913L348.007 144.26L351.295 165.678L353.487 181.692L355.679 200.029L361.159 249.252L364.447 278.471L366.639 294.882L369.927 317.083L372.119 330.423L374.311 341.9L376.503 351.517L378.695 359.599L384.175 378.237L385.271 381.358L386.367 384.022L388.559 388.241L392.943 395.309L395.136 398.071L397.328 400.104L401.712 403.634L403.904 405.05L406.096 406.096L408.288 406.815L411.576 407.376L415.96 408.092L424.728 409.838L428.016 409.992L453.224 410.111" fill="#EFEFEF" fill-opacity="0.4"/>
<path d="M235.117 410.111L253.749 409.952L261.422 409.497L267.998 408.696L271.286 408.398L273.478 407.693L280.054 404.567L285.534 401.798L286.63 400.945L288.822 398.692L292.11 394.651L294.302 391.337L295.398 389.28L297.59 384.194L299.782 378.076L306.358 358.691L308.55 350.204L310.742 339.621L312.934 326.95L315.126 312.094L317.318 294.193L326.087 212.085L332.663 146.227L333.759 137.48L334.855 130.446L335.951 125.538L337.047 122.694L338.143 121.381L339.239 120.892L340.335 120.748L341.431 120.915L342.527 121.752L343.623 123.732L344.719 127.138L345.815 131.913L348.007 144.26L351.295 165.678L353.487 181.692L355.679 200.029L361.159 249.252L364.447 278.471L366.639 294.882L369.927 317.083L372.119 330.423L374.311 341.9L376.503 351.517L378.695 359.599L384.175 378.237L385.271 381.358L386.367 384.022L388.559 388.241L392.943 395.309L395.136 398.071L397.328 400.104L401.712 403.634L403.904 405.05L406.096 406.096L408.288 406.815L411.576 407.376L415.96 408.092L424.728 409.838L428.016 409.992L453.224 410.111" stroke="#EFEFEF" stroke-linecap="square"/>
</g>
<mask id="mask1_230_12238" style="mask-type:luminance" maskUnits="userSpaceOnUse" x="76" y="55" width="477" height="356">
<path d="M552.957 55.2959H76.7969V410.112H552.957V55.2959Z" fill="white"/>
</mask>
<g mask="url(#mask1_230_12238)">
<path d="M256.312 410.111L268.162 409.958L273.548 409.799L276.78 409.447L278.934 408.983L281.089 408.181L283.243 406.943L285.397 405.287L287.552 403.254L289.706 400.785L291.861 397.643L292.938 395.693L294.015 393.414L295.092 390.759L297.247 384.214L299.401 376.014L301.556 366.418L304.787 350.29L310.173 320.971L315.56 292.394L322.023 259.213L324.177 250.02L325.255 246.264L326.332 243.091L328.486 238.022L330.641 233.188L332.795 227.184L337.104 213.851L339.258 208.467L341.413 203.995L342.49 202.145L343.567 200.7L344.644 199.8L345.722 199.544L346.799 199.962L347.876 201.022L348.953 202.668L350.031 204.84L352.185 210.448L355.417 219.737L360.803 233.657L361.88 237.697L362.957 242.487L365.112 253.965L369.421 279.023L371.575 289.429L374.807 302.272L378.038 315.723L381.27 329.544L383.424 337.605L385.579 344.329L387.733 349.686L393.119 361.269L396.351 369.723L399.583 378.439L401.737 383.536L403.892 387.633L406.046 390.753L408.2 393.187L415.741 400.653L417.895 402.216L420.05 403.263L431.899 407.656L436.208 408.479L443.749 409.596L449.135 409.999L454.521 410.047L462.061 409.996L470.679 410.111" fill="#EFEFEF" fill-opacity="0.4"/>
<path d="M256.312 410.111L268.162 409.958L273.548 409.799L276.78 409.447L278.934 408.983L281.089 408.181L283.243 406.943L285.397 405.287L287.552 403.254L289.706 400.785L291.861 397.643L292.938 395.693L294.015 393.414L295.092 390.759L297.247 384.214L299.401 376.014L301.556 366.418L304.787 350.29L310.173 320.971L315.56 292.394L322.023 259.213L324.177 250.02L325.255 246.264L326.332 243.091L328.486 238.022L330.641 233.188L332.795 227.184L337.104 213.851L339.258 208.467L341.413 203.995L342.49 202.145L343.567 200.7L344.644 199.8L345.722 199.544L346.799 199.962L347.876 201.022L348.953 202.668L350.031 204.84L352.185 210.448L355.417 219.737L360.803 233.657L361.88 237.697L362.957 242.487L365.112 253.965L369.421 279.023L371.575 289.429L374.807 302.272L378.038 315.723L381.27 329.544L383.424 337.605L385.579 344.329L387.733 349.686L393.119 361.269L396.351 369.723L399.583 378.439L401.737 383.536L403.892 387.633L406.046 390.753L408.2 393.187L415.741 400.653L417.895 402.216L420.05 403.263L431.899 407.656L436.208 408.479L443.749 409.596L449.135 409.999L454.521 410.047L462.061 409.996L470.679 410.111" stroke="#EFEFEF" stroke-linecap="square"/>
</g>
<mask id="mask2_230_12238" style="mask-type:luminance" maskUnits="userSpaceOnUse" x="76" y="55" width="477" height="356">
<path d="M552.957 55.2959H76.7969V410.112H552.957V55.2959Z" fill="white"/>
</mask>
<g mask="url(#mask2_230_12238)">
<path d="M268.617 410.111L277.437 409.946L287.237 409.747L291.156 409.121L294.096 408.384L297.036 407.278L303.896 404.348L305.856 402.863L307.816 400.703L310.756 396.8L312.716 393.91L314.676 390.394L316.635 385.856L318.595 380.086L320.555 373.152L323.495 361.342L325.455 352.324L327.415 341.279L329.375 327.578L332.315 303.418L335.255 278.958L337.215 264.621L339.175 252.582L341.135 242.766L346.034 221.364L350.934 195.796L351.914 192.221L352.894 189.686L353.874 188.157L354.854 187.423L357.794 186.559L358.774 185.846L360.734 183.906L361.714 183.19L362.694 182.993L363.674 183.45L364.654 184.537L366.614 187.833L368.574 191.111L370.534 194.185L371.513 196.196L372.493 198.845L373.473 202.23L375.433 210.938L377.393 221.363L380.333 238.973L384.253 262.883L388.173 283.962L395.033 320.359L400.912 345.081L403.852 357.578L405.812 364.694L407.772 370.749L410.712 378.568L414.632 388.181L416.592 392.196L418.552 395.543L420.512 398.316L422.472 400.492L424.432 402.127L428.351 404.754L431.291 406.457L434.231 407.705L437.171 408.612L441.091 409.439L445.011 409.921L448.931 410.013L455.79 409.996L463.63 410.111" fill="#EFEFEF" fill-opacity="0.4"/>
<path d="M268.617 410.111L277.437 409.946L287.237 409.747L291.156 409.121L294.096 408.384L297.036 407.278L303.896 404.348L305.856 402.863L307.816 400.703L310.756 396.8L312.716 393.91L314.676 390.394L316.635 385.856L318.595 380.086L320.555 373.152L323.495 361.342L325.455 352.324L327.415 341.279L329.375 327.578L332.315 303.418L335.255 278.958L337.215 264.621L339.175 252.582L341.135 242.766L346.034 221.364L350.934 195.796L351.914 192.221L352.894 189.686L353.874 188.157L354.854 187.423L357.794 186.559L358.774 185.846L360.734 183.906L361.714 183.19L362.694 182.993L363.674 183.45L364.654 184.537L366.614 187.833L368.574 191.111L370.534 194.185L371.513 196.196L372.493 198.845L373.473 202.23L375.433 210.938L377.393 221.363L380.333 238.973L384.253 262.883L388.173 283.962L395.033 320.359L400.912 345.081L403.852 357.578L405.812 364.694L407.772 370.749L410.712 378.568L414.632 388.181L416.592 392.196L418.552 395.543L420.512 398.316L422.472 400.492L424.432 402.127L428.351 404.754L431.291 406.457L434.231 407.705L437.171 408.612L441.091 409.439L445.011 409.921L448.931 410.013L455.79 409.996L463.63 410.111" stroke="#EFEFEF" stroke-linecap="square"/>
</g>
<mask id="mask3_230_12238" style="mask-type:luminance" maskUnits="userSpaceOnUse" x="76" y="55" width="477" height="356">
<path d="M552.957 55.2959H76.7969V410.112H552.957V55.2959Z" fill="white"/>
</mask>
<g mask="url(#mask3_230_12238)">
<path d="M262.172 410.111L284.628 409.94L290.865 409.977L302.093 409.96L309.578 409.852L314.569 409.318L320.806 408.576L329.539 406.814L332.034 406.001L334.529 404.957L338.272 403.177L340.767 402.416L343.262 401.787L344.509 401.149L345.757 400.172L347.005 398.888L349.5 395.62L351.995 391.588L355.737 384.781L356.985 382.044L359.48 375.289L361.975 367.289L364.47 357.943L366.965 346.817L369.46 333.692L371.955 317.575L375.698 291.739L379.441 267.635L383.183 240.656L393.164 167.38L394.411 161.139L395.659 156.853L396.906 154.113L398.154 152.264L399.401 150.932L400.649 150.208L401.896 150.388L403.144 151.601L404.391 153.727L405.639 156.586L406.886 160.12L408.134 164.374L409.382 169.376L411.877 181.357L414.372 195.407L416.867 211.399L423.104 255.319L428.095 291.074L431.837 315.411L438.075 353.981L439.323 360.409L441.818 371.045L444.313 379.683L446.808 387.108L449.303 393.288L450.55 395.81L451.798 397.925L453.045 399.623L454.293 400.915L455.541 401.856L458.036 403.107L461.778 404.79L465.521 406.576L468.016 407.482L473.006 408.898L475.501 409.36L477.996 409.554L510.432 410.111" fill="#EFEFEF" fill-opacity="0.4"/>
<path d="M262.172 410.111L284.628 409.94L290.865 409.977L302.093 409.96L309.578 409.852L314.569 409.318L320.806 408.576L329.539 406.814L332.034 406.001L334.529 404.957L338.272 403.177L340.767 402.416L343.262 401.787L344.509 401.149L345.757 400.172L347.005 398.888L349.5 395.62L351.995 391.588L355.737 384.781L356.985 382.044L359.48 375.289L361.975 367.289L364.47 357.943L366.965 346.817L369.46 333.692L371.955 317.575L375.698 291.739L379.441 267.635L383.183 240.656L393.164 167.38L394.411 161.139L395.659 156.853L396.906 154.113L398.154 152.264L399.401 150.932L400.649 150.208L401.896 150.388L403.144 151.601L404.391 153.727L405.639 156.586L406.886 160.12L408.134 164.374L409.382 169.376L411.877 181.357L414.372 195.407L416.867 211.399L423.104 255.319L428.095 291.074L431.837 315.411L438.075 353.981L439.323 360.409L441.818 371.045L444.313 379.683L446.808 387.108L449.303 393.288L450.55 395.81L451.798 397.925L453.045 399.623L454.293 400.915L455.541 401.856L458.036 403.107L461.778 404.79L465.521 406.576L468.016 407.482L473.006 408.898L475.501 409.36L477.996 409.554L510.432 410.111" stroke="#EFEFEF" stroke-linecap="square"/>
</g>
<mask id="mask4_230_12238" style="mask-type:luminance" maskUnits="userSpaceOnUse" x="76" y="55" width="477" height="356">
<path d="M552.957 55.2959H76.7969V410.112H552.957V55.2959Z" fill="white"/>
</mask>
<g mask="url(#mask4_230_12238)">
<path d="M256.797 410.111L269.634 409.953L281.402 409.386L283.542 408.829L285.681 407.95L287.821 406.575L288.891 405.598L291.03 402.995L293.17 399.687L295.309 395.673L297.449 390.517L299.588 383.727L301.728 375.078L304.937 359.809L310.286 334.55L312.426 324.13L314.565 312.516L316.705 299.33L318.845 284.335L322.054 258.558L324.194 241.218L326.333 226.012L328.473 213.361L331.682 197.129L334.891 181.617L335.961 177.084L337.031 173.404L338.101 170.833L339.171 169.443L340.24 169.112L341.31 169.61L342.38 170.704L343.45 172.231L345.589 176.197L348.799 183.226L349.869 185.883L350.938 188.982L352.008 192.748L353.078 197.319L355.217 208.653L358.427 227.089L360.566 237.709L366.985 267.298L379.823 333.838L381.962 342.427L385.172 353.209L392.66 377.614L394.8 382.7L396.939 386.702L399.079 389.988L402.288 394.282L406.567 399.462L408.707 401.484L410.847 402.866L414.056 404.25L418.335 406.124L422.614 408.07L424.754 408.696L426.893 409.004L436.521 409.587L451.498 409.937L456.847 409.857L469.685 410.111" fill="#EFEFEF" fill-opacity="0.4"/>
<path d="M256.797 410.111L269.634 409.953L281.402 409.386L283.542 408.829L285.681 407.95L287.821 406.575L288.891 405.598L291.03 402.995L293.17 399.687L295.309 395.673L297.449 390.517L299.588 383.727L301.728 375.078L304.937 359.809L310.286 334.55L312.426 324.13L314.565 312.516L316.705 299.33L318.845 284.335L322.054 258.558L324.194 241.218L326.333 226.012L328.473 213.361L331.682 197.129L334.891 181.617L335.961 177.084L337.031 173.404L338.101 170.833L339.171 169.443L340.24 169.112L341.31 169.61L342.38 170.704L343.45 172.231L345.589 176.197L348.799 183.226L349.869 185.883L350.938 188.982L352.008 192.748L353.078 197.319L355.217 208.653L358.427 227.089L360.566 237.709L366.985 267.298L379.823 333.838L381.962 342.427L385.172 353.209L392.66 377.614L394.8 382.7L396.939 386.702L399.079 389.988L402.288 394.282L406.567 399.462L408.707 401.484L410.847 402.866L414.056 404.25L418.335 406.124L422.614 408.07L424.754 408.696L426.893 409.004L436.521 409.587L451.498 409.937L456.847 409.857L469.685 410.111" stroke="#EFEFEF" stroke-linecap="square"/>
</g>
<mask id="mask5_230_12238" style="mask-type:luminance" maskUnits="userSpaceOnUse" x="76" y="55" width="477" height="356">
<path d="M552.957 55.2959H76.7969V410.112H552.957V55.2959Z" fill="white"/>
</mask>
<g mask="url(#mask5_230_12238)">
<path d="M278.656 410.111L284.728 409.968L288.198 409.927L294.271 410.018L300.343 409.687L304.68 409.496L309.017 409.506L317.692 408.456L320.294 407.573L329.837 403.756L333.306 402.464L335.041 401.236L336.776 399.531L338.511 397.386L340.246 394.548L341.981 390.922L344.583 385.304L348.053 379.415L348.921 377.283L349.788 374.626L351.523 367.898L353.258 359.481L358.463 329.984L360.198 319.388L361.933 306.397L363.668 289.748L366.27 259.424L374.945 158.859L377.547 134.914L381.017 104.489L381.884 98.8353L382.752 95.0127L383.619 92.9596L384.487 92.2129L385.354 92.2295L386.222 92.6923L387.089 93.5777L387.957 94.9759L389.691 99.0885L391.426 104.062L392.294 107.192L393.161 111.319L394.029 116.802L394.896 123.715L396.631 140.715L400.968 188.663L404.438 226.843L413.98 324.887L415.715 338.87L417.45 350.619L420.053 365.973L422.655 379.39L424.39 386.933L426.125 392.941L427.86 397.237L429.595 400.296L431.33 402.752L433.065 404.833L434.8 406.55L436.534 407.819L438.269 408.574L440.872 409.091L448.679 410.07L451.281 410.11" fill="#EFEFEF" fill-opacity="0.4"/>
<path d="M278.656 410.111L284.728 409.968L288.198 409.927L294.271 410.018L300.343 409.687L304.68 409.496L309.017 409.506L317.692 408.456L320.294 407.573L329.837 403.756L333.306 402.464L335.041 401.236L336.776 399.531L338.511 397.386L340.246 394.548L341.981 390.922L344.583 385.304L348.053 379.415L348.921 377.283L349.788 374.626L351.523 367.898L353.258 359.481L358.463 329.984L360.198 319.388L361.933 306.397L363.668 289.748L366.27 259.424L374.945 158.859L377.547 134.914L381.017 104.489L381.884 98.8353L382.752 95.0127L383.619 92.9596L384.487 92.2129L385.354 92.2295L386.222 92.6923L387.089 93.5777L387.957 94.9759L389.691 99.0885L391.426 104.062L392.294 107.192L393.161 111.319L394.029 116.802L394.896 123.715L396.631 140.715L400.968 188.663L404.438 226.843L413.98 324.887L415.715 338.87L417.45 350.619L420.053 365.973L422.655 379.39L424.39 386.933L426.125 392.941L427.86 397.237L429.595 400.296L431.33 402.752L433.065 404.833L434.8 406.55L436.534 407.819L438.269 408.574L440.872 409.091L448.679 410.07L451.281 410.11" stroke="#EFEFEF" stroke-linecap="square"/>
</g>
<mask id="mask6_230_12238" style="mask-type:luminance" maskUnits="userSpaceOnUse" x="76" y="55" width="477" height="356">
<path d="M552.957 55.2959H76.7969V410.112H552.957V55.2959Z" fill="white"/>
</mask>
<g mask="url(#mask6_230_12238)">
<path d="M276.414 410.111L284.099 409.958L293.066 409.431L295.627 408.892L298.189 408.115L300.751 407.067L302.032 406.35L303.313 405.422L304.594 404.24L305.875 402.789L308.436 399.154L312.279 392.667L314.841 387.952L316.122 385.138L317.403 381.774L319.964 373.36L325.088 355.27L327.65 346.062L330.211 335.933L332.773 324.339L334.054 317.673L335.335 310.193L337.897 292.453L341.74 263.478L343.02 255.224L345.582 241.339L346.863 234.47L348.144 226.622L350.706 207.364L353.267 187.607L354.548 179.501L355.829 173.033L357.11 168.194L358.391 164.927L359.672 163.225L360.953 163.071L362.234 164.275L366.076 170.493L367.357 171.837L368.638 172.947L369.919 174.371L371.2 176.621L372.481 179.995L373.762 184.545L375.043 190.147L377.604 203.686L386.571 255.842L389.132 270.597L391.694 286.839L399.38 338.51L401.941 352.064L404.503 362.532L407.065 371.271L409.627 379.174L412.188 385.755L414.75 391.024L417.312 395.439L419.874 399.024L422.436 401.857L424.997 404.209L426.278 405.194L427.559 405.992L428.84 406.578L431.402 407.239L433.964 407.54L437.806 407.63L440.368 407.73L446.773 408.593L453.177 408.718L460.862 409.445L464.705 409.535L471.109 409.975L481.357 409.994L500.57 410.112L531.311 410.111" fill="#EFEFEF" fill-opacity="0.4"/>
<path d="M276.414 410.111L284.099 409.958L293.066 409.431L295.627 408.892L298.189 408.115L300.751 407.067L302.032 406.35L303.313 405.422L304.594 404.24L305.875 402.789L308.436 399.154L312.279 392.667L314.841 387.952L316.122 385.138L317.403 381.774L319.964 373.36L325.088 355.27L327.65 346.062L330.211 335.933L332.773 324.339L334.054 317.673L335.335 310.193L337.897 292.453L341.74 263.478L343.02 255.224L345.582 241.339L346.863 234.47L348.144 226.622L350.706 207.364L353.267 187.607L354.548 179.501L355.829 173.033L357.11 168.194L358.391 164.927L359.672 163.225L360.953 163.071L362.234 164.275L366.076 170.493L367.357 171.837L368.638 172.947L369.919 174.371L371.2 176.621L372.481 179.995L373.762 184.545L375.043 190.147L377.604 203.686L386.571 255.842L389.132 270.597L391.694 286.839L399.38 338.51L401.941 352.064L404.503 362.532L407.065 371.271L409.627 379.174L412.188 385.755L414.75 391.024L417.312 395.439L419.874 399.024L422.436 401.857L424.997 404.209L426.278 405.194L427.559 405.992L428.84 406.578L431.402 407.239L433.964 407.54L437.806 407.63L440.368 407.73L446.773 408.593L453.177 408.718L460.862 409.445L464.705 409.535L471.109 409.975L481.357 409.994L500.57 410.112L531.311 410.111" stroke="#EFEFEF" stroke-linecap="square"/>
</g>
<mask id="mask7_230_12238" style="mask-type:luminance" maskUnits="userSpaceOnUse" x="76" y="55" width="477" height="356">
<path d="M552.957 55.2959H76.7969V410.112H552.957V55.2959Z" fill="white"/>
</mask>
<g mask="url(#mask7_230_12238)">
<path d="M275.156 410.111L284.784 409.955L293.342 409.664L296.552 409.282L299.761 408.661L302.97 407.743L305.11 406.896L307.25 405.781L309.389 404.369L312.598 401.831L316.878 398.05L319.017 395.95L321.157 393.44L323.296 390.2L325.436 385.988L328.645 378.356L331.854 371.074L335.064 364.263L337.203 358.653L339.343 351.388L342.552 338.323L346.831 321.396L350.041 308.256L355.389 284.642L363.948 245.617L372.506 211.317L374.645 203.959L375.715 200.84L376.785 198.308L377.855 196.485L378.925 195.407L379.994 195.01L381.064 195.159L382.134 195.703L383.204 196.528L384.273 197.595L385.343 198.943L386.413 200.664L387.483 202.847L388.553 205.521L390.692 212.022L397.111 233.513L399.25 243.222L403.529 266.259L414.227 322.431L416.367 331.046L422.785 353.82L425.995 366.176L428.134 372.667L430.274 377.382L432.413 380.99L435.623 385.651L440.972 393.357L443.111 396.332L445.251 398.797L447.39 400.686L449.53 402.153L452.739 403.942L455.949 405.442L459.158 406.663L463.437 407.964L466.646 408.63L469.856 408.923L475.205 409.255L482.693 410.027L488.042 410.11" fill="#EFEFEF" fill-opacity="0.4"/>
<path d="M275.156 410.111L284.784 409.955L293.342 409.664L296.552 409.282L299.761 408.661L302.97 407.743L305.11 406.896L307.25 405.781L309.389 404.369L312.598 401.831L316.878 398.05L319.017 395.95L321.157 393.44L323.296 390.2L325.436 385.988L328.645 378.356L331.854 371.074L335.064 364.263L337.203 358.653L339.343 351.388L342.552 338.323L346.831 321.396L350.041 308.256L355.389 284.642L363.948 245.617L372.506 211.317L374.645 203.959L375.715 200.84L376.785 198.308L377.855 196.485L378.925 195.407L379.994 195.01L381.064 195.159L382.134 195.703L383.204 196.528L384.273 197.595L385.343 198.943L386.413 200.664L387.483 202.847L388.553 205.521L390.692 212.022L397.111 233.513L399.25 243.222L403.529 266.259L414.227 322.431L416.367 331.046L422.785 353.82L425.995 366.176L428.134 372.667L430.274 377.382L432.413 380.99L435.623 385.651L440.972 393.357L443.111 396.332L445.251 398.797L447.39 400.686L449.53 402.153L452.739 403.942L455.949 405.442L459.158 406.663L463.437 407.964L466.646 408.63L469.856 408.923L475.205 409.255L482.693 410.027L488.042 410.11" stroke="#EFEFEF" stroke-linecap="square"/>
</g>
<mask id="mask8_230_12238" style="mask-type:luminance" maskUnits="userSpaceOnUse" x="76" y="55" width="477" height="356">
<path d="M552.957 55.2959H76.7969V410.112H552.957V55.2959Z" fill="white"/>
</mask>
<g mask="url(#mask8_230_12238)">
<path d="M258.617 410.111L267.241 409.958L281.613 409.493L283.53 409.21L286.404 408.356L288.32 407.794L292.153 407.077L293.111 406.669L295.028 405.322L297.902 402.603L299.818 400.45L301.735 397.691L303.651 394.15L305.567 389.652L307.484 384.155L309.4 377.807L311.316 370.425L313.233 361.541L315.149 351.128L318.982 328.175L320.898 314.947L322.814 298.824L324.731 279.812L336.229 158.721L338.145 142.634L339.103 136.23L340.061 130.929L341.02 126.602L341.978 123.108L342.936 120.401L343.894 118.596L344.852 117.946L345.81 118.696L346.768 120.88L348.685 127.995L350.601 134.84L352.518 140.819L353.476 144.926L354.434 150.479L355.392 157.503L357.308 174.378L361.141 208.669L364.974 239.138L370.723 283.291L374.555 309.553L376.472 321.048L382.221 352.132L384.137 360.27L386.053 366.442L389.886 376.831L391.802 381.661L393.719 385.439L395.635 387.975L398.51 391.312L400.426 394.245L403.3 399.063L405.217 401.485L407.133 403.029L409.049 403.954L413.84 405.663L417.673 407.748L419.589 408.298L421.506 408.485L427.255 408.734L433.003 409.23L448.334 410.109L449.292 410.111" fill="#EFEFEF" fill-opacity="0.4"/>
<path d="M258.617 410.111L267.241 409.958L281.613 409.493L283.53 409.21L286.404 408.356L288.32 407.794L292.153 407.077L293.111 406.669L295.028 405.322L297.902 402.603L299.818 400.45L301.735 397.691L303.651 394.15L305.567 389.652L307.484 384.155L309.4 377.807L311.316 370.425L313.233 361.541L315.149 351.128L318.982 328.175L320.898 314.947L322.814 298.824L324.731 279.812L336.229 158.721L338.145 142.634L339.103 136.23L340.061 130.929L341.02 126.602L341.978 123.108L342.936 120.401L343.894 118.596L344.852 117.946L345.81 118.696L346.768 120.88L348.685 127.995L350.601 134.84L352.518 140.819L353.476 144.926L354.434 150.479L355.392 157.503L357.308 174.378L361.141 208.669L364.974 239.138L370.723 283.291L374.555 309.553L376.472 321.048L382.221 352.132L384.137 360.27L386.053 366.442L389.886 376.831L391.802 381.661L393.719 385.439L395.635 387.975L398.51 391.312L400.426 394.245L403.3 399.063L405.217 401.485L407.133 403.029L409.049 403.954L413.84 405.663L417.673 407.748L419.589 408.298L421.506 408.485L427.255 408.734L433.003 409.23L448.334 410.109L449.292 410.111" stroke="#EFEFEF" stroke-linecap="square"/>
</g>
<mask id="mask9_230_12238" style="mask-type:luminance" maskUnits="userSpaceOnUse" x="76" y="55" width="477" height="356">
<path d="M552.957 55.2959H76.7969V410.112H552.957V55.2959Z" fill="white"/>
</mask>
<g mask="url(#mask9_230_12238)">
<path d="M287.141 410.111L295.852 409.967L312.306 409.51L314.241 409.151L320.049 407.581L322.952 406.379L325.856 405.014L326.824 404.363L327.792 403.503L329.727 401.2L332.631 397.574L335.535 394.106L337.47 390.883L339.406 386.751L343.278 377.376L345.213 372.356L347.149 366.516L349.085 359.403L351.021 351.051L352.956 341.653L354.892 330.795L356.828 317.512L361.667 280.629L364.571 261.621L365.539 254.18L367.475 235.775L373.282 172.826L375.218 158.091L377.153 146.828L379.089 138.111L381.025 131.565L381.993 129.101L382.961 127.27L383.929 126.226L384.896 126.137L385.864 127.096L386.832 129.069L387.8 131.907L388.768 135.434L390.704 144.22L392.64 155.457L394.575 169.052L396.511 184.395L399.415 210.422L402.318 236.478L404.254 250.132L408.126 274.347L411.029 297.148L412.965 311.94L414.901 325.021L417.804 342.528L419.74 353.047L421.676 362.309L423.612 369.869L425.547 375.589L427.483 380.043L431.355 387.888L434.258 393.298L436.194 396.521L438.13 399.217L440.066 401.193L442.969 403.325L446.841 405.965L448.777 406.767L456.52 408.777L459.423 409.127L468.134 409.66L477.813 410.104L479.749 410.111" fill="#EFEFEF" fill-opacity="0.4"/>
<path d="M287.141 410.111L295.852 409.967L312.306 409.51L314.241 409.151L320.049 407.581L322.952 406.379L325.856 405.014L326.824 404.363L327.792 403.503L329.727 401.2L332.631 397.574L335.535 394.106L337.47 390.883L339.406 386.751L343.278 377.376L345.213 372.356L347.149 366.516L349.085 359.403L351.021 351.051L352.956 341.653L354.892 330.795L356.828 317.512L361.667 280.629L364.571 261.621L365.539 254.18L367.475 235.775L373.282 172.826L375.218 158.091L377.153 146.828L379.089 138.111L381.025 131.565L381.993 129.101L382.961 127.27L383.929 126.226L384.896 126.137L385.864 127.096L386.832 129.069L387.8 131.907L388.768 135.434L390.704 144.22L392.64 155.457L394.575 169.052L396.511 184.395L399.415 210.422L402.318 236.478L404.254 250.132L408.126 274.347L411.029 297.148L412.965 311.94L414.901 325.021L417.804 342.528L419.74 353.047L421.676 362.309L423.612 369.869L425.547 375.589L427.483 380.043L431.355 387.888L434.258 393.298L436.194 396.521L438.13 399.217L440.066 401.193L442.969 403.325L446.841 405.965L448.777 406.767L456.52 408.777L459.423 409.127L468.134 409.66L477.813 410.104L479.749 410.111" stroke="#EFEFEF" stroke-linecap="square"/>
</g>
<mask id="mask10_230_12238" style="mask-type:luminance" maskUnits="userSpaceOnUse" x="76" y="55" width="477" height="356">
<path d="M552.957 55.2959H76.7969V410.112H552.957V55.2959Z" fill="white"/>
</mask>
<g mask="url(#mask10_230_12238)">
<path d="M242.93 410.111L265.9 409.953L269.527 409.752L274.362 409.096L277.989 408.494L280.407 407.848L282.825 406.862L286.452 404.998L294.915 400.087L296.124 399.242L297.333 398.202L299.751 395.459L302.168 391.954L304.586 387.636L307.004 382.171L309.422 375.672L313.049 365.107L315.467 357.481L317.885 349.052L320.303 339.77L322.721 329.541L325.139 318.182L327.556 305.668L339.646 239.746L343.273 222.472L345.691 212.105L348.109 203.026L349.318 199.253L350.527 196.144L351.736 193.739L352.944 191.976L354.153 190.701L355.362 189.741L356.571 189.008L357.78 188.57L358.989 188.652L360.198 189.532L361.407 191.427L362.616 194.395L363.825 198.34L365.034 203.088L367.452 214.382L374.706 252.142L379.541 273.593L384.377 296.427L388.004 311.588L392.84 330.835L397.676 348.674L400.094 357.002L402.512 364.148L404.929 369.985L408.556 378.667L410.974 384.642L412.183 387.199L413.392 389.277L414.601 390.867L415.81 392.07L420.646 396.045L424.273 399.808L426.691 402.369L429.109 404.47L431.526 405.907L433.944 406.859L436.362 407.519L439.989 408.131L453.288 409.852L458.123 410.027L475.049 410.046L483.511 410.111" fill="#EFEFEF" fill-opacity="0.4"/>
<path d="M242.93 410.111L265.9 409.953L269.527 409.752L274.362 409.096L277.989 408.494L280.407 407.848L282.825 406.862L286.452 404.998L294.915 400.087L296.124 399.242L297.333 398.202L299.751 395.459L302.168 391.954L304.586 387.636L307.004 382.171L309.422 375.672L313.049 365.107L315.467 357.481L317.885 349.052L320.303 339.77L322.721 329.541L325.139 318.182L327.556 305.668L339.646 239.746L343.273 222.472L345.691 212.105L348.109 203.026L349.318 199.253L350.527 196.144L351.736 193.739L352.944 191.976L354.153 190.701L355.362 189.741L356.571 189.008L357.78 188.57L358.989 188.652L360.198 189.532L361.407 191.427L362.616 194.395L363.825 198.34L365.034 203.088L367.452 214.382L374.706 252.142L379.541 273.593L384.377 296.427L388.004 311.588L392.84 330.835L397.676 348.674L400.094 357.002L402.512 364.148L404.929 369.985L408.556 378.667L410.974 384.642L412.183 387.199L413.392 389.277L414.601 390.867L415.81 392.07L420.646 396.045L424.273 399.808L426.691 402.369L429.109 404.47L431.526 405.907L433.944 406.859L436.362 407.519L439.989 408.131L453.288 409.852L458.123 410.027L475.049 410.046L483.511 410.111" stroke="#EFEFEF" stroke-linecap="square"/>
</g>
<mask id="mask11_230_12238" style="mask-type:luminance" maskUnits="userSpaceOnUse" x="76" y="55" width="477" height="356">
<path d="M552.957 55.2959H76.7969V410.112H552.957V55.2959Z" fill="white"/>
</mask>
<g mask="url(#mask11_230_12238)">
<path d="M262.859 410.111L286.582 409.965L294.49 409.486L300.138 408.96L303.527 408.377L305.786 407.569L306.916 406.899L308.045 406.003L310.305 403.564L312.564 400.505L315.953 395.387L318.212 391.707L320.472 387.316L321.601 384.628L323.861 378.095L326.12 370.34L328.379 361.762L330.638 352.095L332.898 340.817L338.546 308.973L341.935 289.609L346.454 263.105L348.713 252.305L354.361 227.5L356.62 217.45L357.75 213.134L358.88 209.463L360.009 206.393L361.139 203.802L362.269 201.594L363.398 199.758L364.528 198.35L365.658 197.428L366.787 196.991L367.917 196.98L369.047 197.312L370.176 197.923L371.306 198.79L372.436 199.912L373.565 201.29L375.825 204.802L376.954 206.997L378.084 209.59L379.214 212.682L380.343 216.323L382.602 225.019L393.899 272.167L397.288 285.957L399.547 296.231L406.325 328.85L408.584 337.7L411.973 349.371L414.233 356.208L416.492 362.103L422.14 375.098L425.529 382.434L427.789 386.621L431.177 392.299L433.437 395.652L434.566 397.026L435.696 398.15L437.955 399.757L441.344 401.435L445.863 403.703L451.511 406.917L453.771 407.822L457.159 408.708L460.548 409.29L465.067 409.708L469.586 409.903L483.141 410.078L487.66 410.11" fill="#EFEFEF" fill-opacity="0.4"/>
<path d="M262.859 410.111L286.582 409.965L294.49 409.486L300.138 408.96L303.527 408.377L305.786 407.569L306.916 406.899L308.045 406.003L310.305 403.564L312.564 400.505L315.953 395.387L318.212 391.707L320.472 387.316L321.601 384.628L323.861 378.095L326.12 370.34L328.379 361.762L330.638 352.095L332.898 340.817L338.546 308.973L341.935 289.609L346.454 263.105L348.713 252.305L354.361 227.5L356.62 217.45L357.75 213.134L358.88 209.463L360.009 206.393L361.139 203.802L362.269 201.594L363.398 199.758L364.528 198.35L365.658 197.428L366.787 196.991L367.917 196.98L369.047 197.312L370.176 197.923L371.306 198.79L372.436 199.912L373.565 201.29L375.825 204.802L376.954 206.997L378.084 209.59L379.214 212.682L380.343 216.323L382.602 225.019L393.899 272.167L397.288 285.957L399.547 296.231L406.325 328.85L408.584 337.7L411.973 349.371L414.233 356.208L416.492 362.103L422.14 375.098L425.529 382.434L427.789 386.621L431.177 392.299L433.437 395.652L434.566 397.026L435.696 398.15L437.955 399.757L441.344 401.435L445.863 403.703L451.511 406.917L453.771 407.822L457.159 408.708L460.548 409.29L465.067 409.708L469.586 409.903L483.141 410.078L487.66 410.11" stroke="#EFEFEF" stroke-linecap="square"/>
</g>
<mask id="mask12_230_12238" style="mask-type:luminance" maskUnits="userSpaceOnUse" x="76" y="55" width="477" height="356">
<path d="M552.957 55.2959H76.7969V410.112H552.957V55.2959Z" fill="white"/>
</mask>
<g mask="url(#mask12_230_12238)">
<path d="M288.758 410.111L293.654 409.96L301.349 409.314L306.945 408.096L309.043 407.381L311.142 406.466L312.541 406.185L313.94 406.024L314.639 405.795L315.339 405.376L316.738 403.948L319.536 400.567L322.334 398.018L323.033 396.972L323.733 395.594L325.132 391.915L327.93 383.72L331.427 374.996L332.826 369.654L334.225 362.836L336.324 350.549L339.122 331.169L344.018 296.019L345.417 283.497L347.516 261.354L349.614 234.953L353.112 188.275L355.91 156.077L358.008 134.515L359.407 122.362L360.806 112.32L362.205 104.356L364.304 94.8575L369.2 74.6021L369.9 72.7553L370.599 72.1924L371.299 73.2161L371.998 75.8188L373.397 84.3483L375.496 100.578L376.895 114.21L378.993 139.198L381.791 175.481L387.387 251.24L394.382 331.724L396.481 351.945L398.579 368.232L399.978 377.271L401.377 384.821L402.776 390.896L404.175 395.534L405.574 398.917L406.973 401.448L409.072 404.451L410.471 406.081L411.87 407.334L413.269 408.175L414.668 408.664L419.564 409.647L422.362 409.96L426.559 410.105L427.958 410.111" fill="#EFEFEF" fill-opacity="0.4"/>
<path d="M288.758 410.111L293.654 409.96L301.349 409.314L306.945 408.096L309.043 407.381L311.142 406.466L312.541 406.185L313.94 406.024L314.639 405.795L315.339 405.376L316.738 403.948L319.536 400.567L322.334 398.018L323.033 396.972L323.733 395.594L325.132 391.915L327.93 383.72L331.427 374.996L332.826 369.654L334.225 362.836L336.324 350.549L339.122 331.169L344.018 296.019L345.417 283.497L347.516 261.354L349.614 234.953L353.112 188.275L355.91 156.077L358.008 134.515L359.407 122.362L360.806 112.32L362.205 104.356L364.304 94.8575L369.2 74.6021L369.9 72.7553L370.599 72.1924L371.299 73.2161L371.998 75.8188L373.397 84.3483L375.496 100.578L376.895 114.21L378.993 139.198L381.791 175.481L387.387 251.24L394.382 331.724L396.481 351.945L398.579 368.232L399.978 377.271L401.377 384.821L402.776 390.896L404.175 395.534L405.574 398.917L406.973 401.448L409.072 404.451L410.471 406.081L411.87 407.334L413.269 408.175L414.668 408.664L419.564 409.647L422.362 409.96L426.559 410.105L427.958 410.111" stroke="#EFEFEF" stroke-linecap="square"/>
</g>
<mask id="mask13_230_12238" style="mask-type:luminance" maskUnits="userSpaceOnUse" x="76" y="55" width="477" height="356">
<path d="M552.957 55.2959H76.7969V410.112H552.957V55.2959Z" fill="white"/>
</mask>
<g mask="url(#mask13_230_12238)">
<path d="M279.461 410.111L302.915 409.927L307.801 409.504L313.664 408.837L316.596 408.486L320.505 408.307L322.459 407.868L324.414 407.078L328.323 405.005L331.254 403.254L333.209 401.66L334.186 400.583L335.163 399.259L337.118 395.846L339.072 391.568L341.027 386.599L342.981 380.986L345.913 371.508L347.867 364.337L349.822 356.218L351.776 346.913L354.708 330.64L357.639 312.748L359.594 299.262L364.48 263.189L367.412 242.635L369.366 226.84L372.298 201.678L373.275 194.352L374.252 188.162L375.23 183.215L376.207 179.362L378.161 173.59L380.116 168.79L381.093 166.849L382.07 165.469L383.048 164.74L384.025 164.58L385.979 165.106L387.934 165.511L388.911 165.612L389.888 165.873L390.865 166.571L391.843 167.974L392.82 170.256L393.797 173.424L395.752 181.732L397.706 191.423L399.66 202.25L403.569 226.475L406.501 245.213L414.319 298.379L417.251 315.369L421.16 335.898L424.091 350.336L426.046 358.716L428.977 369.529L431.909 379.503L433.864 384.678L435.818 388.382L439.727 394.529L441.681 397.111L443.636 399.209L449.499 404.776L451.454 406.164L453.408 407.153L456.34 408.245L459.272 409.048L462.203 409.477L470.021 410.07L473.93 410.11" fill="#EFEFEF" fill-opacity="0.4"/>
<path d="M279.461 410.111L302.915 409.927L307.801 409.504L313.664 408.837L316.596 408.486L320.505 408.307L322.459 407.868L324.414 407.078L328.323 405.005L331.254 403.254L333.209 401.66L334.186 400.583L335.163 399.259L337.118 395.846L339.072 391.568L341.027 386.599L342.981 380.986L345.913 371.508L347.867 364.337L349.822 356.218L351.776 346.913L354.708 330.64L357.639 312.748L359.594 299.262L364.48 263.189L367.412 242.635L369.366 226.84L372.298 201.678L373.275 194.352L374.252 188.162L375.23 183.215L376.207 179.362L378.161 173.59L380.116 168.79L381.093 166.849L382.07 165.469L383.048 164.74L384.025 164.58L385.979 165.106L387.934 165.511L388.911 165.612L389.888 165.873L390.865 166.571L391.843 167.974L392.82 170.256L393.797 173.424L395.752 181.732L397.706 191.423L399.66 202.25L403.569 226.475L406.501 245.213L414.319 298.379L417.251 315.369L421.16 335.898L424.091 350.336L426.046 358.716L428.977 369.529L431.909 379.503L433.864 384.678L435.818 388.382L439.727 394.529L441.681 397.111L443.636 399.209L449.499 404.776L451.454 406.164L453.408 407.153L456.34 408.245L459.272 409.048L462.203 409.477L470.021 410.07L473.93 410.11" stroke="#EFEFEF" stroke-linecap="square"/>
</g>
<mask id="mask14_230_12238" style="mask-type:luminance" maskUnits="userSpaceOnUse" x="76" y="55" width="477" height="356">
<path d="M552.957 55.2959H76.7969V410.112H552.957V55.2959Z" fill="white"/>
</mask>
<g mask="url(#mask14_230_12238)">
<path d="M98.4375 410.111L184.491 410.112L221.143 410.028L229.111 409.532L232.298 409.098L235.485 408.366L238.672 407.294L240.266 406.501L243.453 404.388L248.233 400.863L249.827 399.414L253.014 395.907L259.389 388.573L260.982 385.805L262.576 382.221L264.169 377.885L268.95 362.932L270.544 357.832L272.137 352.21L273.731 345.706L276.918 330.283L284.886 287.652L288.073 272.815L291.26 256.438L294.447 239.652L297.634 225.053L304.009 198.334L307.196 186.751L310.383 176.039L311.976 172.22L313.57 170.856L315.164 172.345L316.757 176.01L318.351 180.773L319.944 186.125L321.538 192.273L323.131 199.452L329.506 231.583L332.693 249.825L335.88 271.484L339.067 294.324L342.254 314.012L347.035 341.559L348.629 349.826L350.222 356.895L351.816 362.722L353.409 367.604L356.597 376.071L361.377 387.992L364.564 395.168L366.158 398.034L367.752 400.32L369.345 402.126L370.939 403.559L372.532 404.655L374.126 405.433L378.907 406.982L382.094 407.925L386.874 408.768L390.062 409.103L396.436 409.36L401.217 409.815L407.591 409.844L413.965 410.102L415.559 410.11" fill="#7EB0D5" fill-opacity="0.4"/>
<path d="M98.4375 410.111L184.491 410.112L221.143 410.028L229.111 409.532L232.298 409.098L235.485 408.366L238.672 407.294L240.266 406.501L243.453 404.388L248.233 400.863L249.827 399.414L253.014 395.907L259.389 388.573L260.982 385.805L262.576 382.221L264.169 377.885L268.95 362.932L270.544 357.832L272.137 352.21L273.731 345.706L276.918 330.283L284.886 287.652L288.073 272.815L291.26 256.438L294.447 239.652L297.634 225.053L304.009 198.334L307.196 186.751L310.383 176.039L311.976 172.22L313.57 170.856L315.164 172.345L316.757 176.01L318.351 180.773L319.944 186.125L321.538 192.273L323.131 199.452L329.506 231.583L332.693 249.825L335.88 271.484L339.067 294.324L342.254 314.012L347.035 341.559L348.629 349.826L350.222 356.895L351.816 362.722L353.409 367.604L356.597 376.071L361.377 387.992L364.564 395.168L366.158 398.034L367.752 400.32L369.345 402.126L370.939 403.559L372.532 404.655L374.126 405.433L378.907 406.982L382.094 407.925L386.874 408.768L390.062 409.103L396.436 409.36L401.217 409.815L407.591 409.844L413.965 410.102L415.559 410.11" stroke="#7EB0D5" stroke-linecap="square"/>
</g>
<path d="M535.061 411.061C535.646 410.475 535.646 409.525 535.061 408.939L525.515 399.393C524.929 398.808 523.979 398.808 523.393 399.393C522.808 399.979 522.808 400.929 523.393 401.515L531.879 410L523.393 418.485C522.808 419.071 522.808 420.021 523.393 420.607C523.979 421.192 524.929 421.192 525.515 420.607L535.061 411.061ZM79 411.5H534V408.5H79V411.5Z" fill="black"/>
</g>
<defs>
<clipPath id="clip0_230_12238">
<rect width="614.4" height="460.8" fill="white"/>
</clipPath>
</defs>
</svg>
