<svg width="615" height="461" viewBox="0 0 615 461" fill="none" xmlns="http://www.w3.org/2000/svg">
<g clip-path="url(#clip0_230_12958)">
<mask id="mask0_230_12958" style="mask-type:luminance" maskUnits="userSpaceOnUse" x="76" y="55" width="477" height="356">
<path d="M552.957 55.2959H76.7969V410.112H552.957V55.2959Z" fill="white"/>
</mask>
<g mask="url(#mask0_230_12958)">
<path d="M300.992 410.111L320.327 409.936L323.55 409.641L327.847 409.11L335.366 409.025L338.589 408.369L341.811 407.73L348.256 406.898L350.405 406.243L352.553 405.191L354.701 403.74L357.924 401.23L361.146 398.217L363.295 395.951L364.369 394.56L365.443 392.819L366.517 390.642L368.666 385.13L371.888 375.498L374.036 367.819L375.111 363.072L376.185 357.509L378.333 343.751L380.482 326.751L382.63 306.889L384.778 284.09L390.149 223.771L397.668 150.04L398.743 141.764L399.817 135.056L400.891 130.209L401.965 127.266L403.039 125.881L404.113 125.419L405.188 125.303L406.262 125.35L407.336 125.831L408.41 127.218L409.484 129.866L410.559 133.877L411.633 139.163L412.707 145.571L414.855 161.004L423.449 228.882L425.597 245.938L430.968 294.073L432.042 301.558L434.191 313.428L437.413 327.624L442.784 350.043L447.081 366.201L449.229 373.093L450.303 375.775L452.452 379.948L454.6 383.955L459.971 395.12L461.045 396.624L462.119 397.789L468.564 403.266L470.713 404.76L472.861 405.655L483.603 408.906L485.751 409.255L488.974 409.361L493.27 409.545L499.716 409.859L512.606 410.103L514.754 410.111" fill="#EFEFEF" fill-opacity="0.4"/>
<path d="M300.992 410.111L320.327 409.936L323.55 409.641L327.847 409.11L335.366 409.025L338.589 408.369L341.811 407.73L348.256 406.898L350.405 406.243L352.553 405.191L354.701 403.74L357.924 401.23L361.146 398.217L363.295 395.951L364.369 394.56L365.443 392.819L366.517 390.642L368.666 385.13L371.888 375.498L374.036 367.819L375.111 363.072L376.185 357.509L378.333 343.751L380.482 326.751L382.63 306.889L384.778 284.09L390.149 223.771L397.668 150.04L398.743 141.764L399.817 135.056L400.891 130.209L401.965 127.266L403.039 125.881L404.113 125.419L405.188 125.303L406.262 125.35L407.336 125.831L408.41 127.218L409.484 129.866L410.559 133.877L411.633 139.163L412.707 145.571L414.855 161.004L423.449 228.882L425.597 245.938L430.968 294.073L432.042 301.558L434.191 313.428L437.413 327.624L442.784 350.043L447.081 366.201L449.229 373.093L450.303 375.775L452.452 379.948L454.6 383.955L459.971 395.12L461.045 396.624L462.119 397.789L468.564 403.266L470.713 404.76L472.861 405.655L483.603 408.906L485.751 409.255L488.974 409.361L493.27 409.545L499.716 409.859L512.606 410.103L514.754 410.111" stroke="#EFEFEF" stroke-linecap="square"/>
</g>
<mask id="mask1_230_12958" style="mask-type:luminance" maskUnits="userSpaceOnUse" x="76" y="55" width="477" height="356">
<path d="M552.957 55.2959H76.7969V410.112H552.957V55.2959Z" fill="white"/>
</mask>
<g mask="url(#mask1_230_12958)">
<path d="M279.867 410.111L288.153 409.977L294.072 409.567L297.623 409.308L304.725 409.163L311.828 408.329L330.767 404.006L334.318 403.046L336.686 401.847L340.237 399.272L344.972 395.625L347.339 393.255L352.074 387.845L356.809 383.524L357.993 382.065L359.176 380.149L360.36 377.647L361.544 374.522L363.911 366.839L368.646 349.792L371.014 340.15L373.381 328.572L375.749 315.028L378.116 299.832L381.667 274.972L384.035 257.081L387.586 227.008L389.953 207.509L392.321 190.768L394.688 176.364L397.056 164.325L398.239 159.416L399.423 155.27L400.607 151.869L401.79 149.24L402.974 147.46L404.158 146.627L405.342 146.817L406.525 148.083L407.709 150.462L408.893 153.967L410.076 158.549L411.26 164.109L412.444 170.553L414.811 186.012L417.179 204.767L421.914 244.338L424.281 260.961L427.832 285.712L432.567 320.852L434.935 335.415L437.302 347.571L439.669 358.188L442.037 367.612L444.404 375.531L446.772 382.243L449.139 388.235L450.323 390.841L451.507 393.087L452.69 394.971L455.058 397.898L458.609 401.324L460.976 403.23L463.344 404.534L470.446 407.451L472.814 408.374L475.181 408.953L479.916 409.589L483.467 409.832L515.428 410.111" fill="#EFEFEF" fill-opacity="0.4"/>
<path d="M279.867 410.111L288.153 409.977L294.072 409.567L297.623 409.308L304.725 409.163L311.828 408.329L330.767 404.006L334.318 403.046L336.686 401.847L340.237 399.272L344.972 395.625L347.339 393.255L352.074 387.845L356.809 383.524L357.993 382.065L359.176 380.149L360.36 377.647L361.544 374.522L363.911 366.839L368.646 349.792L371.014 340.15L373.381 328.572L375.749 315.028L378.116 299.832L381.667 274.972L384.035 257.081L387.586 227.008L389.953 207.509L392.321 190.768L394.688 176.364L397.056 164.325L398.239 159.416L399.423 155.27L400.607 151.869L401.79 149.24L402.974 147.46L404.158 146.627L405.342 146.817L406.525 148.083L407.709 150.462L408.893 153.967L410.076 158.549L411.26 164.109L412.444 170.553L414.811 186.012L417.179 204.767L421.914 244.338L424.281 260.961L427.832 285.712L432.567 320.852L434.935 335.415L437.302 347.571L439.669 358.188L442.037 367.612L444.404 375.531L446.772 382.243L449.139 388.235L450.323 390.841L451.507 393.087L452.69 394.971L455.058 397.898L458.609 401.324L460.976 403.23L463.344 404.534L470.446 407.451L472.814 408.374L475.181 408.953L479.916 409.589L483.467 409.832L515.428 410.111" stroke="#EFEFEF" stroke-linecap="square"/>
</g>
<mask id="mask2_230_12958" style="mask-type:luminance" maskUnits="userSpaceOnUse" x="76" y="55" width="477" height="356">
<path d="M552.957 55.2959H76.7969V410.112H552.957V55.2959Z" fill="white"/>
</mask>
<g mask="url(#mask2_230_12958)">
<path d="M277.664 410.11L285.265 409.945L289.065 409.976L292.866 410.009L299.2 409.869L304.267 409.831L315.668 409.498L322.002 409.454L328.336 408.796L332.136 408.769L341.004 408.011L346.071 407.863L348.605 407.397L354.939 405.603L357.472 405.004L360.006 403.865L362.539 402.183L363.806 401.108L365.073 399.826L367.607 396.68L371.407 391.448L372.674 389.338L373.94 386.64L375.207 383.238L377.741 374.76L382.808 355.787L384.075 350.386L385.342 343.5L386.608 334.421L387.875 323.079L390.409 296.314L394.209 252.436L398.01 206.585L399.276 193.641L401.81 172.366L403.077 163.503L404.344 155.849L405.61 149.441L408.144 138.959L409.411 134.32L410.678 130.348L411.944 127.533L413.211 126.322L414.478 127.096L415.745 130.156L417.011 135.609L418.278 143.185L424.612 187.366L428.413 209.658L430.946 227.409L436.013 266.309L441.081 301.455L443.614 316.18L446.148 331.048L449.948 355.242L451.215 361.66L452.482 367.065L453.749 371.637L455.015 375.509L457.549 381.822L463.883 396.055L465.15 398.352L466.416 400.162L467.683 401.532L470.217 403.511L474.017 405.961L476.551 407.33L479.084 408.233L481.618 408.675L493.019 409.976L499.353 409.925L506.954 409.73L529.756 410.11" fill="#EFEFEF" fill-opacity="0.4"/>
<path d="M277.664 410.11L285.265 409.945L289.065 409.976L292.866 410.009L299.2 409.869L304.267 409.831L315.668 409.498L322.002 409.454L328.336 408.796L332.136 408.769L341.004 408.011L346.071 407.863L348.605 407.397L354.939 405.603L357.472 405.004L360.006 403.865L362.539 402.183L363.806 401.108L365.073 399.826L367.607 396.68L371.407 391.448L372.674 389.338L373.94 386.64L375.207 383.238L377.741 374.76L382.808 355.787L384.075 350.386L385.342 343.5L386.608 334.421L387.875 323.079L390.409 296.314L394.209 252.436L398.01 206.585L399.276 193.641L401.81 172.366L403.077 163.503L404.344 155.849L405.61 149.441L408.144 138.959L409.411 134.32L410.678 130.348L411.944 127.533L413.211 126.322L414.478 127.096L415.745 130.156L417.011 135.609L418.278 143.185L424.612 187.366L428.413 209.658L430.946 227.409L436.013 266.309L441.081 301.455L443.614 316.18L446.148 331.048L449.948 355.242L451.215 361.66L452.482 367.065L453.749 371.637L455.015 375.509L457.549 381.822L463.883 396.055L465.15 398.352L466.416 400.162L467.683 401.532L470.217 403.511L474.017 405.961L476.551 407.33L479.084 408.233L481.618 408.675L493.019 409.976L499.353 409.925L506.954 409.73L529.756 410.11" stroke="#EFEFEF" stroke-linecap="square"/>
</g>
<mask id="mask3_230_12958" style="mask-type:luminance" maskUnits="userSpaceOnUse" x="76" y="55" width="477" height="356">
<path d="M552.957 55.2959H76.7969V410.112H552.957V55.2959Z" fill="white"/>
</mask>
<g mask="url(#mask3_230_12958)">
<path d="M283.961 410.111L305.581 409.94L311.271 409.701L314.684 409.61L322.65 408.995L326.063 408.83L330.615 408.249L332.891 407.68L338.58 405.654L341.994 405.205L343.132 404.846L344.27 404.237L352.235 398.344L353.373 397.209L354.511 395.766L355.649 393.982L357.925 389.576L363.614 377.56L367.028 370.6L369.304 364.758L371.58 357.583L373.855 349.164L374.993 344.23L376.131 338.572L378.407 324.914L384.097 287.375L389.786 253.809L392.062 236.564L394.338 215.974L397.751 183.561L400.027 164.334L403.441 138.33L405.717 122.52L406.855 115.968L407.993 111.006L409.13 107.962L410.268 106.879L411.406 107.597L412.544 109.9L413.682 113.657L414.82 118.849L415.958 125.5L417.096 133.591L419.372 153.703L421.647 178.57L423.923 208.173L427.337 255.849L429.613 283.521L431.889 307.763L434.164 328.832L436.44 345.775L438.716 359.854L440.992 371.655L442.13 376.451L444.406 384.131L446.681 390.578L448.957 396.198L450.095 398.517L451.233 400.436L452.371 401.933L453.509 403.032L455.785 404.44L459.198 406.333L461.474 407.553L463.75 408.376L466.026 408.783L471.715 409.448L475.129 409.899L478.543 410.011L488.784 409.883L497.887 410.083L505.852 410.07L510.404 410.111" fill="#EFEFEF" fill-opacity="0.4"/>
<path d="M283.961 410.111L305.581 409.94L311.271 409.701L314.684 409.61L322.65 408.995L326.063 408.83L330.615 408.249L332.891 407.68L338.58 405.654L341.994 405.205L343.132 404.846L344.27 404.237L352.235 398.344L353.373 397.209L354.511 395.766L355.649 393.982L357.925 389.576L363.614 377.56L367.028 370.6L369.304 364.758L371.58 357.583L373.855 349.164L374.993 344.23L376.131 338.572L378.407 324.914L384.097 287.375L389.786 253.809L392.062 236.564L394.338 215.974L397.751 183.561L400.027 164.334L403.441 138.33L405.717 122.52L406.855 115.968L407.993 111.006L409.13 107.962L410.268 106.879L411.406 107.597L412.544 109.9L413.682 113.657L414.82 118.849L415.958 125.5L417.096 133.591L419.372 153.703L421.647 178.57L423.923 208.173L427.337 255.849L429.613 283.521L431.889 307.763L434.164 328.832L436.44 345.775L438.716 359.854L440.992 371.655L442.13 376.451L444.406 384.131L446.681 390.578L448.957 396.198L450.095 398.517L451.233 400.436L452.371 401.933L453.509 403.032L455.785 404.44L459.198 406.333L461.474 407.553L463.75 408.376L466.026 408.783L471.715 409.448L475.129 409.899L478.543 410.011L488.784 409.883L497.887 410.083L505.852 410.07L510.404 410.111" stroke="#EFEFEF" stroke-linecap="square"/>
</g>
<mask id="mask4_230_12958" style="mask-type:luminance" maskUnits="userSpaceOnUse" x="76" y="55" width="477" height="356">
<path d="M552.957 55.2959H76.7969V410.112H552.957V55.2959Z" fill="white"/>
</mask>
<g mask="url(#mask4_230_12958)">
<path d="M295.297 410.111L313.087 409.988L319.017 409.85L327.319 409.96L349.854 409.271L353.412 408.737L366.458 406.239L372.388 404.368L374.76 403.737L377.132 402.75L379.504 401.271L383.062 398.516L387.806 394.357L393.736 388.763L396.108 386.241L397.294 384.652L398.48 382.656L399.666 380.138L400.852 377.043L403.224 369.303L413.898 329.537L417.456 315.681L419.828 307.775L423.386 297.374L425.758 291.633L426.944 289.409L429.316 285.941L431.689 282.503L434.061 278.27L438.805 269.047L439.991 266.159L441.177 262.55L442.363 258.057L444.735 246.655L448.293 227.683L453.037 204.22L455.409 189.296L458.967 164.675L460.153 157.901L461.339 152.699L462.525 149.346L463.711 147.903L464.897 148.307L466.083 150.536L467.269 154.729L468.455 161.141L469.641 169.958L470.827 181.1L473.199 208.572L481.501 312.597L483.873 337.777L486.245 359.055L487.431 368.023L488.617 375.809L489.803 382.433L490.989 387.989L492.175 392.612L493.361 396.44L494.547 399.582L495.733 402.12L496.919 404.119L498.105 405.65L499.291 406.788L500.477 407.611L501.663 408.197L504.035 408.917L507.593 409.483L511.151 409.783L517.082 409.877L526.57 410.079L531.314 410.111" fill="#EFEFEF" fill-opacity="0.4"/>
<path d="M295.297 410.111L313.087 409.988L319.017 409.85L327.319 409.96L349.854 409.271L353.412 408.737L366.458 406.239L372.388 404.368L374.76 403.737L377.132 402.75L379.504 401.271L383.062 398.516L387.806 394.357L393.736 388.763L396.108 386.241L397.294 384.652L398.48 382.656L399.666 380.138L400.852 377.043L403.224 369.303L413.898 329.537L417.456 315.681L419.828 307.775L423.386 297.374L425.758 291.633L426.944 289.409L429.316 285.941L431.689 282.503L434.061 278.27L438.805 269.047L439.991 266.159L441.177 262.55L442.363 258.057L444.735 246.655L448.293 227.683L453.037 204.22L455.409 189.296L458.967 164.675L460.153 157.901L461.339 152.699L462.525 149.346L463.711 147.903L464.897 148.307L466.083 150.536L467.269 154.729L468.455 161.141L469.641 169.958L470.827 181.1L473.199 208.572L481.501 312.597L483.873 337.777L486.245 359.055L487.431 368.023L488.617 375.809L489.803 382.433L490.989 387.989L492.175 392.612L493.361 396.44L494.547 399.582L495.733 402.12L496.919 404.119L498.105 405.65L499.291 406.788L500.477 407.611L501.663 408.197L504.035 408.917L507.593 409.483L511.151 409.783L517.082 409.877L526.57 410.079L531.314 410.111" stroke="#EFEFEF" stroke-linecap="square"/>
</g>
<mask id="mask5_230_12958" style="mask-type:luminance" maskUnits="userSpaceOnUse" x="76" y="55" width="477" height="356">
<path d="M552.957 55.2959H76.7969V410.112H552.957V55.2959Z" fill="white"/>
</mask>
<g mask="url(#mask5_230_12958)">
<path d="M273.641 410.11L321.856 409.873L337.081 409.57L343.426 409.054L349.77 408.122L353.576 408.065L358.651 408.104L362.458 407.628L367.533 406.648L371.34 405.568L373.877 404.606L377.684 402.719L380.221 401.349L381.49 400.482L382.759 399.359L384.028 397.899L385.297 396.036L386.565 393.75L389.103 388.263L391.641 381.929L392.909 378.135L394.178 373.727L395.447 368.648L396.716 362.816L397.985 356.067L399.253 348.229L401.791 329.285L406.866 288.338L410.673 258.831L414.479 227.704L417.017 210.354L423.361 172.434L424.63 165.557L425.899 159.92L427.167 156.075L428.436 154.243L429.705 154.133L430.974 155.084L432.243 156.488L433.512 158.149L434.78 160.248L436.049 162.981L438.587 170.031L439.856 174.215L441.124 179.299L442.393 185.891L443.662 194.233L447.469 222.512L450.006 236.963L452.544 250.549L455.081 266.167L458.888 292.202L461.426 310.276L463.963 325.88L470.307 358.854L471.576 364.886L472.845 370.146L475.383 378.737L477.92 385.964L480.458 392.473L481.727 395.274L482.995 397.65L484.264 399.621L486.802 402.721L489.34 405.169L490.608 406.146L491.877 406.911L493.146 407.46L495.684 408.101L504.565 409.731L513.447 410.056L523.598 410.102L526.135 410.11" fill="#EFEFEF" fill-opacity="0.4"/>
<path d="M273.641 410.11L321.856 409.873L337.081 409.57L343.426 409.054L349.77 408.122L353.576 408.065L358.651 408.104L362.458 407.628L367.533 406.648L371.34 405.568L373.877 404.606L377.684 402.719L380.221 401.349L381.49 400.482L382.759 399.359L384.028 397.899L385.297 396.036L386.565 393.75L389.103 388.263L391.641 381.929L392.909 378.135L394.178 373.727L395.447 368.648L396.716 362.816L397.985 356.067L399.253 348.229L401.791 329.285L406.866 288.338L410.673 258.831L414.479 227.704L417.017 210.354L423.361 172.434L424.63 165.557L425.899 159.92L427.167 156.075L428.436 154.243L429.705 154.133L430.974 155.084L432.243 156.488L433.512 158.149L434.78 160.248L436.049 162.981L438.587 170.031L439.856 174.215L441.124 179.299L442.393 185.891L443.662 194.233L447.469 222.512L450.006 236.963L452.544 250.549L455.081 266.167L458.888 292.202L461.426 310.276L463.963 325.88L470.307 358.854L471.576 364.886L472.845 370.146L475.383 378.737L477.92 385.964L480.458 392.473L481.727 395.274L482.995 397.65L484.264 399.621L486.802 402.721L489.34 405.169L490.608 406.146L491.877 406.911L493.146 407.46L495.684 408.101L504.565 409.731L513.447 410.056L523.598 410.102L526.135 410.11" stroke="#EFEFEF" stroke-linecap="square"/>
</g>
<mask id="mask6_230_12958" style="mask-type:luminance" maskUnits="userSpaceOnUse" x="76" y="55" width="477" height="356">
<path d="M552.957 55.2959H76.7969V410.112H552.957V55.2959Z" fill="white"/>
</mask>
<g mask="url(#mask6_230_12958)">
<path d="M259.641 410.111L279.259 409.98L286.616 409.821L300.104 409.916L307.461 409.405L312.366 408.771L314.818 408.222L317.271 407.245L318.497 406.468L319.723 405.42L320.949 404.044L322.175 402.292L323.401 400.12L324.628 397.484L325.854 394.333L327.08 390.613L328.306 386.27L329.532 381.264L331.985 369.274L334.437 355.074L340.568 317.197L343.02 304.142L345.473 292.923L347.925 283.144L350.377 274.549L352.83 267.319L355.282 261.581L357.734 256.995L360.187 253.071L361.413 251.341L362.639 249.871L363.865 248.796L365.091 248.247L366.317 248.307L367.544 248.985L368.77 250.203L371.222 253.616L373.675 256.915L374.901 258.066L376.127 258.814L378.579 259.581L379.805 259.964L381.032 260.524L383.484 262.152L390.841 267.486L393.293 269.042L398.198 271.535L399.424 272.638L400.65 274.183L401.876 276.192L404.329 281.326L408.007 290.465L412.912 303.206L415.364 308.508L421.495 320.244L423.947 326.143L426.4 332.978L428.852 340.735L434.983 361.128L437.435 368.05L441.114 377.076L448.471 394.064L450.923 398.697L453.376 402.383L454.602 403.859L455.828 405.102L458.28 406.966L460.733 408.146L463.185 408.806L465.637 409.129L471.768 409.477L485.256 410.029L503.649 410.111" fill="#EFEFEF" fill-opacity="0.4"/>
<path d="M259.641 410.111L279.259 409.98L286.616 409.821L300.104 409.916L307.461 409.405L312.366 408.771L314.818 408.222L317.271 407.245L318.497 406.468L319.723 405.42L320.949 404.044L322.175 402.292L323.401 400.12L324.628 397.484L325.854 394.333L327.08 390.613L328.306 386.27L329.532 381.264L331.985 369.274L334.437 355.074L340.568 317.197L343.02 304.142L345.473 292.923L347.925 283.144L350.377 274.549L352.83 267.319L355.282 261.581L357.734 256.995L360.187 253.071L361.413 251.341L362.639 249.871L363.865 248.796L365.091 248.247L366.317 248.307L367.544 248.985L368.77 250.203L371.222 253.616L373.675 256.915L374.901 258.066L376.127 258.814L378.579 259.581L379.805 259.964L381.032 260.524L383.484 262.152L390.841 267.486L393.293 269.042L398.198 271.535L399.424 272.638L400.65 274.183L401.876 276.192L404.329 281.326L408.007 290.465L412.912 303.206L415.364 308.508L421.495 320.244L423.947 326.143L426.4 332.978L428.852 340.735L434.983 361.128L437.435 368.05L441.114 377.076L448.471 394.064L450.923 398.697L453.376 402.383L454.602 403.859L455.828 405.102L458.28 406.966L460.733 408.146L463.185 408.806L465.637 409.129L471.768 409.477L485.256 410.029L503.649 410.111" stroke="#EFEFEF" stroke-linecap="square"/>
</g>
<mask id="mask7_230_12958" style="mask-type:luminance" maskUnits="userSpaceOnUse" x="76" y="55" width="477" height="356">
<path d="M552.957 55.2959H76.7969V410.112H552.957V55.2959Z" fill="white"/>
</mask>
<g mask="url(#mask7_230_12958)">
<path d="M289.453 410.111L318.969 409.918L331.957 409.438L346.125 409.337L352.028 408.585L360.292 407.088L366.196 405.547L372.099 404.899L378.002 402.81L381.544 402.266L382.725 401.791L383.905 400.986L385.086 399.797L386.267 398.248L388.628 394.468L390.989 390.217L392.17 387.792L393.351 385.019L395.712 378.305L399.254 366.636L401.615 357.997L403.977 347.693L407.519 331.607L409.88 323.114L412.241 314.767L413.422 309.623L418.144 286.539L422.867 268.059L424.048 261.921L426.409 246.609L429.951 221.008L437.035 174.214L439.396 156.132L440.577 148.035L441.758 141.331L442.938 136.007L445.3 127.685L446.48 124.285L447.661 121.841L448.842 120.84L450.022 121.504L451.203 123.814L452.383 127.797L453.564 133.779L454.745 142.376L455.925 154.173L457.106 169.304L459.467 206.864L461.829 246.021L464.19 279.298L466.551 305.746L468.913 327.1L471.274 344.119L473.635 357.581L474.816 363.165L475.997 367.989L477.177 372.086L479.539 378.645L485.442 393.146L486.622 395.499L487.803 397.427L490.164 400.403L493.706 404.168L496.068 406.299L498.429 407.905L500.79 408.931L503.152 409.463L506.694 409.74L511.416 409.686L514.958 409.745L522.042 410.099L524.403 410.11" fill="#EFEFEF" fill-opacity="0.4"/>
<path d="M289.453 410.111L318.969 409.918L331.957 409.438L346.125 409.337L352.028 408.585L360.292 407.088L366.196 405.547L372.099 404.899L378.002 402.81L381.544 402.266L382.725 401.791L383.905 400.986L385.086 399.797L386.267 398.248L388.628 394.468L390.989 390.217L392.17 387.792L393.351 385.019L395.712 378.305L399.254 366.636L401.615 357.997L403.977 347.693L407.519 331.607L409.88 323.114L412.241 314.767L413.422 309.623L418.144 286.539L422.867 268.059L424.048 261.921L426.409 246.609L429.951 221.008L437.035 174.214L439.396 156.132L440.577 148.035L441.758 141.331L442.938 136.007L445.3 127.685L446.48 124.285L447.661 121.841L448.842 120.84L450.022 121.504L451.203 123.814L452.383 127.797L453.564 133.779L454.745 142.376L455.925 154.173L457.106 169.304L459.467 206.864L461.829 246.021L464.19 279.298L466.551 305.746L468.913 327.1L471.274 344.119L473.635 357.581L474.816 363.165L475.997 367.989L477.177 372.086L479.539 378.645L485.442 393.146L486.622 395.499L487.803 397.427L490.164 400.403L493.706 404.168L496.068 406.299L498.429 407.905L500.79 408.931L503.152 409.463L506.694 409.74L511.416 409.686L514.958 409.745L522.042 410.099L524.403 410.11" stroke="#EFEFEF" stroke-linecap="square"/>
</g>
<mask id="mask8_230_12958" style="mask-type:luminance" maskUnits="userSpaceOnUse" x="76" y="55" width="477" height="356">
<path d="M552.957 55.2959H76.7969V410.112H552.957V55.2959Z" fill="white"/>
</mask>
<g mask="url(#mask8_230_12958)">
<path d="M276.641 410.111L281.357 409.996L284.894 409.904L291.969 410.079L301.402 409.931L304.939 409.991L312.014 409.737L322.626 409.666L326.163 409.634L330.88 409.861L334.417 409.855L336.775 409.602L341.492 408.94L343.85 408.864L349.745 409.024L352.104 408.351L354.462 407.609L356.82 407.44L362.716 407.646L363.895 407.474L376.865 403.474L380.402 401.611L382.761 400.541L383.94 399.608L386.298 396.885L389.835 392.079L391.014 389.976L392.193 387.162L393.373 383.269L394.552 377.804L395.731 370.16L396.91 359.779L398.089 346.407L399.268 330.28L401.626 292.362L405.164 232.147L407.522 197.108L412.238 133.385L414.597 104.785L415.776 93.5362L416.955 85.5851L418.134 81.381L419.313 80.4355L420.492 81.417L421.671 83.1476L422.85 85.4359L424.029 88.7526L425.209 93.4317L426.388 99.4847L427.567 106.883L429.925 125.102L435.821 174.24L442.895 243.174L446.433 275.355L448.791 297.524L452.328 332.083L453.507 341.309L454.686 348.984L455.865 355.38L458.224 365.632L464.119 388.379L465.298 392.201L466.477 395.301L467.656 397.656L468.836 399.409L471.194 401.992L473.552 404.174L474.731 405.059L477.089 406.274L481.806 408.093L484.164 408.687L486.522 408.972L492.418 409.313L495.955 409.575L500.672 409.68L507.746 410.036L511.284 410.11" fill="#EFEFEF" fill-opacity="0.4"/>
<path d="M276.641 410.111L281.357 409.996L284.894 409.904L291.969 410.079L301.402 409.931L304.939 409.991L312.014 409.737L322.626 409.666L326.163 409.634L330.88 409.861L334.417 409.855L336.775 409.602L341.492 408.94L343.85 408.864L349.745 409.024L352.104 408.351L354.462 407.609L356.82 407.44L362.716 407.646L363.895 407.474L376.865 403.474L380.402 401.611L382.761 400.541L383.94 399.608L386.298 396.885L389.835 392.079L391.014 389.976L392.193 387.162L393.373 383.269L394.552 377.804L395.731 370.16L396.91 359.779L398.089 346.407L399.268 330.28L401.626 292.362L405.164 232.147L407.522 197.108L412.238 133.385L414.597 104.785L415.776 93.5362L416.955 85.5851L418.134 81.381L419.313 80.4355L420.492 81.417L421.671 83.1476L422.85 85.4359L424.029 88.7526L425.209 93.4317L426.388 99.4847L427.567 106.883L429.925 125.102L435.821 174.24L442.895 243.174L446.433 275.355L448.791 297.524L452.328 332.083L453.507 341.309L454.686 348.984L455.865 355.38L458.224 365.632L464.119 388.379L465.298 392.201L466.477 395.301L467.656 397.656L468.836 399.409L471.194 401.992L473.552 404.174L474.731 405.059L477.089 406.274L481.806 408.093L484.164 408.687L486.522 408.972L492.418 409.313L495.955 409.575L500.672 409.68L507.746 410.036L511.284 410.11" stroke="#EFEFEF" stroke-linecap="square"/>
</g>
<mask id="mask9_230_12958" style="mask-type:luminance" maskUnits="userSpaceOnUse" x="76" y="55" width="477" height="356">
<path d="M552.957 55.2959H76.7969V410.112H552.957V55.2959Z" fill="white"/>
</mask>
<g mask="url(#mask9_230_12958)">
<path d="M277.672 410.11L304.812 409.902L314.682 409.786L322.084 409.701L327.018 409.268L330.719 408.966L333.187 409.006L336.888 409.221L338.121 409.05L343.056 407.723L346.757 407.272L347.991 406.803L351.691 404.908L352.925 404.562L356.626 404.019L357.86 403.638L360.327 402.372L361.561 401.492L362.794 400.403L364.028 399.058L365.262 397.438L367.729 393.424L370.196 388.419L371.43 385.498L372.664 382.13L373.897 378.077L375.131 373.152L377.598 360.948L381.299 340.091L383.767 323.595L386.234 303.698L388.701 280.784L391.169 254.157L397.337 182.939L399.804 161.781L402.272 144.074L403.505 136.209L404.739 129.484L405.973 124.134L407.206 120.189L408.44 117.755L409.674 117.096L410.907 118.419L412.141 121.692L413.374 126.707L414.608 133.194L417.075 148.876L420.776 173.653L423.244 192.447L425.711 213.507L433.113 280.63L435.58 298.527L440.515 331.563L442.982 346.427L445.45 359.357L446.683 364.601L447.917 368.868L450.384 375.62L456.553 390.843L459.02 396.707L460.254 399.163L461.487 401.146L462.721 402.649L463.955 403.721L465.188 404.458L472.59 407.631L475.058 408.455L477.525 408.974L481.226 409.281L489.861 409.6L493.562 409.896L499.731 409.978L517.002 410.03L523.17 410.11" fill="#EFEFEF" fill-opacity="0.4"/>
<path d="M277.672 410.11L304.812 409.902L314.682 409.786L322.084 409.701L327.018 409.268L330.719 408.966L333.187 409.006L336.888 409.221L338.121 409.05L343.056 407.723L346.757 407.272L347.991 406.803L351.691 404.908L352.925 404.562L356.626 404.019L357.86 403.638L360.327 402.372L361.561 401.492L362.794 400.403L364.028 399.058L365.262 397.438L367.729 393.424L370.196 388.419L371.43 385.498L372.664 382.13L373.897 378.077L375.131 373.152L377.598 360.948L381.299 340.091L383.767 323.595L386.234 303.698L388.701 280.784L391.169 254.157L397.337 182.939L399.804 161.781L402.272 144.074L403.505 136.209L404.739 129.484L405.973 124.134L407.206 120.189L408.44 117.755L409.674 117.096L410.907 118.419L412.141 121.692L413.374 126.707L414.608 133.194L417.075 148.876L420.776 173.653L423.244 192.447L425.711 213.507L433.113 280.63L435.58 298.527L440.515 331.563L442.982 346.427L445.45 359.357L446.683 364.601L447.917 368.868L450.384 375.62L456.553 390.843L459.02 396.707L460.254 399.163L461.487 401.146L462.721 402.649L463.955 403.721L465.188 404.458L472.59 407.631L475.058 408.455L477.525 408.974L481.226 409.281L489.861 409.6L493.562 409.896L499.731 409.978L517.002 410.03L523.17 410.11" stroke="#EFEFEF" stroke-linecap="square"/>
</g>
<mask id="mask10_230_12958" style="mask-type:luminance" maskUnits="userSpaceOnUse" x="76" y="55" width="477" height="356">
<path d="M552.957 55.2959H76.7969V410.112H552.957V55.2959Z" fill="white"/>
</mask>
<g mask="url(#mask10_230_12958)">
<path d="M274.656 410.111L285.86 409.956L295.818 409.96L302.042 409.854L309.511 409.494L318.225 408.855L320.714 408.263L324.449 406.947L329.428 404.751L333.162 402.837L335.652 401.24L338.142 399.304L341.876 395.946L345.611 392.112L350.59 386.46L355.569 380.356L358.059 377.041L360.548 373.27L364.283 367.259L366.772 364.274L369.262 361.497L370.507 359.673L371.752 357.441L375.486 349.478L379.221 341.461L381.71 335.328L385.445 324.839L387.934 317.39L390.424 308.691L391.669 303.409L394.158 290.933L396.648 278.275L397.893 272.946L400.382 264.44L404.117 252.435L406.606 244.333L411.586 230.181L414.075 220.997L419.055 200.697L422.789 186.93L425.279 179.436L427.768 173.563L429.013 171.114L430.258 169.277L431.503 168.63L432.748 169.902L433.992 173.739L435.237 180.517L436.482 190.267L437.727 202.708L440.216 233.398L445.196 298.899L447.685 327.285L450.175 351.674L451.42 362.061L452.665 371.11L453.909 378.818L455.154 385.26L456.399 390.557L457.644 394.846L458.889 398.267L460.133 400.952L461.378 403.025L462.623 404.595L463.868 405.765L465.113 406.624L466.357 407.247L468.847 408.042L473.826 408.995L477.561 409.464L488.764 410.079L499.967 410.097L516.15 410.076L522.374 410.111" fill="#EFEFEF" fill-opacity="0.4"/>
<path d="M274.656 410.111L285.86 409.956L295.818 409.96L302.042 409.854L309.511 409.494L318.225 408.855L320.714 408.263L324.449 406.947L329.428 404.751L333.162 402.837L335.652 401.24L338.142 399.304L341.876 395.946L345.611 392.112L350.59 386.46L355.569 380.356L358.059 377.041L360.548 373.27L364.283 367.259L366.772 364.274L369.262 361.497L370.507 359.673L371.752 357.441L375.486 349.478L379.221 341.461L381.71 335.328L385.445 324.839L387.934 317.39L390.424 308.691L391.669 303.409L394.158 290.933L396.648 278.275L397.893 272.946L400.382 264.44L404.117 252.435L406.606 244.333L411.586 230.181L414.075 220.997L419.055 200.697L422.789 186.93L425.279 179.436L427.768 173.563L429.013 171.114L430.258 169.277L431.503 168.63L432.748 169.902L433.992 173.739L435.237 180.517L436.482 190.267L437.727 202.708L440.216 233.398L445.196 298.899L447.685 327.285L450.175 351.674L451.42 362.061L452.665 371.11L453.909 378.818L455.154 385.26L456.399 390.557L457.644 394.846L458.889 398.267L460.133 400.952L461.378 403.025L462.623 404.595L463.868 405.765L465.113 406.624L466.357 407.247L468.847 408.042L473.826 408.995L477.561 409.464L488.764 410.079L499.967 410.097L516.15 410.076L522.374 410.111" stroke="#EFEFEF" stroke-linecap="square"/>
</g>
<mask id="mask11_230_12958" style="mask-type:luminance" maskUnits="userSpaceOnUse" x="76" y="55" width="477" height="356">
<path d="M552.957 55.2959H76.7969V410.112H552.957V55.2959Z" fill="white"/>
</mask>
<g mask="url(#mask11_230_12958)">
<path d="M269.633 410.111L279.589 409.969L289.546 409.467L293.28 409.073L301.991 407.688L306.97 406.593L309.459 405.735L311.948 404.549L315.682 402.687L318.171 401.843L320.66 401.071L323.149 399.978L328.127 397.679L330.616 396.422L331.861 395.554L333.106 394.381L334.35 392.784L335.595 390.696L338.084 385.373L340.573 379.916L344.307 372.435L345.551 369.453L348.04 362.297L350.529 353.9L353.019 343.99L355.508 332.326L359.241 312.816L361.731 298.515L364.22 282.543L367.953 257.735L371.687 235.533L376.665 206.9L377.91 200.867L379.154 195.771L380.399 191.643L381.644 188.398L382.888 185.906L384.133 184.028L385.377 182.614L387.866 180.541L390.355 178.938L391.6 178.568L392.845 178.892L394.089 180.273L395.334 182.984L396.578 187.138L397.823 192.705L399.067 199.566L401.557 216.209L405.29 242.505L409.024 265.696L414.002 294.689L418.98 321.355L422.714 340.389L425.203 351.407L427.692 360.768L431.426 373.363L433.915 380.291L436.404 385.655L438.893 390.209L441.383 394.241L443.872 397.623L446.361 400.302L447.605 401.348L448.85 402.179L451.339 403.277L455.073 404.574L460.051 406.684L462.54 407.376L468.763 408.667L473.741 409.249L478.719 409.622L503.611 409.998L517.301 410.111" fill="#EFEFEF" fill-opacity="0.4"/>
<path d="M269.633 410.111L279.589 409.969L289.546 409.467L293.28 409.073L301.991 407.688L306.97 406.593L309.459 405.735L311.948 404.549L315.682 402.687L318.171 401.843L320.66 401.071L323.149 399.978L328.127 397.679L330.616 396.422L331.861 395.554L333.106 394.381L334.35 392.784L335.595 390.696L338.084 385.373L340.573 379.916L344.307 372.435L345.551 369.453L348.04 362.297L350.529 353.9L353.019 343.99L355.508 332.326L359.241 312.816L361.731 298.515L364.22 282.543L367.953 257.735L371.687 235.533L376.665 206.9L377.91 200.867L379.154 195.771L380.399 191.643L381.644 188.398L382.888 185.906L384.133 184.028L385.377 182.614L387.866 180.541L390.355 178.938L391.6 178.568L392.845 178.892L394.089 180.273L395.334 182.984L396.578 187.138L397.823 192.705L399.067 199.566L401.557 216.209L405.29 242.505L409.024 265.696L414.002 294.689L418.98 321.355L422.714 340.389L425.203 351.407L427.692 360.768L431.426 373.363L433.915 380.291L436.404 385.655L438.893 390.209L441.383 394.241L443.872 397.623L446.361 400.302L447.605 401.348L448.85 402.179L451.339 403.277L455.073 404.574L460.051 406.684L462.54 407.376L468.763 408.667L473.741 409.249L478.719 409.622L503.611 409.998L517.301 410.111" stroke="#EFEFEF" stroke-linecap="square"/>
</g>
<mask id="mask12_230_12958" style="mask-type:luminance" maskUnits="userSpaceOnUse" x="76" y="55" width="477" height="356">
<path d="M552.957 55.2959H76.7969V410.112H552.957V55.2959Z" fill="white"/>
</mask>
<g mask="url(#mask12_230_12958)">
<path d="M317.211 410.11L322.239 409.975L325.255 409.898L331.288 410.008L338.327 409.843L341.344 409.632L344.36 409.395L347.377 409.537L350.394 409.735L353.41 409.606L358.438 409.153L362.46 408.302L368.493 408.207L370.504 407.611L372.515 406.444L375.532 404.03L377.543 402.487L380.56 400.506L381.565 399.633L383.576 397.252L385.587 394.188L386.593 392.335L387.598 390.048L388.604 387.094L389.61 383.338L391.621 373.838L393.632 362.596L395.643 349.004L397.654 332.583L399.665 313.033L401.676 289.444L404.693 248.436L407.709 205.065L410.726 158.434L411.731 145.371L413.742 125.102L416.759 99.3566L417.765 92.7208L418.77 88.3754L419.776 86.3036L420.781 85.8828L421.787 86.435L422.792 87.6616L423.798 89.6869L424.803 92.8323L425.809 97.3918L426.814 103.507L428.825 119.692L431.842 146.108L436.87 186.145L438.881 205.444L444.914 269.615L448.936 307.467L449.942 315.095L451.953 327.13L456.98 353.763L458.992 364.085L461.003 372.626L463.014 379.104L466.03 387.36L469.047 394.848L471.058 398.845L472.064 400.316L474.075 402.403L477.091 404.735L480.108 406.561L482.119 407.412L486.141 408.53L490.163 409.409L493.18 409.762L501.224 409.94L505.246 409.917L511.279 410.01L517.313 410.11" fill="#EFEFEF" fill-opacity="0.4"/>
<path d="M317.211 410.11L322.239 409.975L325.255 409.898L331.288 410.008L338.327 409.843L341.344 409.632L344.36 409.395L347.377 409.537L350.394 409.735L353.41 409.606L358.438 409.153L362.46 408.302L368.493 408.207L370.504 407.611L372.515 406.444L375.532 404.03L377.543 402.487L380.56 400.506L381.565 399.633L383.576 397.252L385.587 394.188L386.593 392.335L387.598 390.048L388.604 387.094L389.61 383.338L391.621 373.838L393.632 362.596L395.643 349.004L397.654 332.583L399.665 313.033L401.676 289.444L404.693 248.436L407.709 205.065L410.726 158.434L411.731 145.371L413.742 125.102L416.759 99.3566L417.765 92.7208L418.77 88.3754L419.776 86.3036L420.781 85.8828L421.787 86.435L422.792 87.6616L423.798 89.6869L424.803 92.8323L425.809 97.3918L426.814 103.507L428.825 119.692L431.842 146.108L436.87 186.145L438.881 205.444L444.914 269.615L448.936 307.467L449.942 315.095L451.953 327.13L456.98 353.763L458.992 364.085L461.003 372.626L463.014 379.104L466.03 387.36L469.047 394.848L471.058 398.845L472.064 400.316L474.075 402.403L477.091 404.735L480.108 406.561L482.119 407.412L486.141 408.53L490.163 409.409L493.18 409.762L501.224 409.94L505.246 409.917L511.279 410.01L517.313 410.11" stroke="#EFEFEF" stroke-linecap="square"/>
</g>
<mask id="mask13_230_12958" style="mask-type:luminance" maskUnits="userSpaceOnUse" x="76" y="55" width="477" height="356">
<path d="M552.957 55.2959H76.7969V410.112H552.957V55.2959Z" fill="white"/>
</mask>
<g mask="url(#mask13_230_12958)">
<path d="M256.586 410.111L263.347 409.981L270.108 409.746L275.517 409.822L279.574 409.524L290.392 408.223L293.097 407.491L295.801 406.226L302.562 402.18L303.915 401.195L305.267 399.992L306.619 398.491L307.971 396.633L309.324 394.39L310.676 391.771L313.38 385.559L314.733 381.987L316.085 377.962L317.437 373.191L318.789 367.279L320.142 359.853L321.494 350.666L322.846 339.571L324.198 326.365L325.551 310.662L326.903 291.958L328.255 269.888L330.96 216.635L335.016 132.171L336.369 109.339L337.721 91.4266L339.073 79.1734L340.425 72.834L341.777 72.1924L343.13 76.6689L344.482 85.5196L345.834 97.9995L347.186 113.352L353.948 198.05L356.652 223.349L359.357 243.59L362.061 260.21L370.175 306.308L372.879 319.774L375.584 331.948L378.288 342.551L380.993 351.566L382.345 355.231L383.697 358.139L385.049 360.294L386.402 361.877L389.106 364.52L390.458 366.099L393.163 370.13L395.867 374.253L397.22 375.859L399.924 378.266L402.629 380.677L405.333 383.12L406.685 384.068L413.447 387.962L416.151 389.754L422.912 393.395L426.969 396.084L428.321 396.702L431.026 397.366L433.73 398.014L435.083 398.66L437.787 400.603L440.492 402.579L443.196 403.985L448.605 406.172L451.309 406.859L456.718 407.828L462.127 409.193L464.832 409.383L471.593 409.37L483.763 410.09L525.683 410.112" fill="#EFEFEF" fill-opacity="0.4"/>
<path d="M256.586 410.111L263.347 409.981L270.108 409.746L275.517 409.822L279.574 409.524L290.392 408.223L293.097 407.491L295.801 406.226L302.562 402.18L303.915 401.195L305.267 399.992L306.619 398.491L307.971 396.633L309.324 394.39L310.676 391.771L313.38 385.559L314.733 381.987L316.085 377.962L317.437 373.191L318.789 367.279L320.142 359.853L321.494 350.666L322.846 339.571L324.198 326.365L325.551 310.662L326.903 291.958L328.255 269.888L330.96 216.635L335.016 132.171L336.369 109.339L337.721 91.4266L339.073 79.1734L340.425 72.834L341.777 72.1924L343.13 76.6689L344.482 85.5196L345.834 97.9995L347.186 113.352L353.948 198.05L356.652 223.349L359.357 243.59L362.061 260.21L370.175 306.308L372.879 319.774L375.584 331.948L378.288 342.551L380.993 351.566L382.345 355.231L383.697 358.139L385.049 360.294L386.402 361.877L389.106 364.52L390.458 366.099L393.163 370.13L395.867 374.253L397.22 375.859L399.924 378.266L402.629 380.677L405.333 383.12L406.685 384.068L413.447 387.962L416.151 389.754L422.912 393.395L426.969 396.084L428.321 396.702L431.026 397.366L433.73 398.014L435.083 398.66L437.787 400.603L440.492 402.579L443.196 403.985L448.605 406.172L451.309 406.859L456.718 407.828L462.127 409.193L464.832 409.383L471.593 409.37L483.763 410.09L525.683 410.112" stroke="#EFEFEF" stroke-linecap="square"/>
</g>
<mask id="mask14_230_12958" style="mask-type:luminance" maskUnits="userSpaceOnUse" x="76" y="55" width="477" height="356">
<path d="M552.957 55.2959H76.7969V410.112H552.957V55.2959Z" fill="white"/>
</mask>
<g mask="url(#mask14_230_12958)">
<path d="M98.4375 410.111L219.001 409.934L231.692 409.525L235.923 409.023L240.153 408.114L244.383 406.708L246.498 405.763L248.614 404.626L250.729 403.292L254.959 400.105L259.189 396.449L267.65 388.902L273.996 383.606L276.111 381.629L278.226 379.446L280.341 377.023L282.456 374.32L284.571 371.298L286.686 367.916L288.802 364.11L290.917 359.777L293.032 354.794L295.147 349.08L297.262 342.655L301.493 328.347L309.953 299.144L314.184 285.384L316.299 279.508L318.414 274.698L320.529 270.982L322.644 268.178L324.759 266.065L326.874 264.534L328.99 263.655L331.105 263.609L333.22 264.54L335.335 266.422L337.45 269.02L348.026 283.819L352.256 290.419L358.602 301.241L367.062 316.378L371.293 323.158L377.638 332.567L396.675 360.259L407.25 374.378L409.366 376.86L413.596 381.151L417.826 384.913L424.172 389.991L430.517 395.274L434.747 398.791L438.978 401.738L443.208 403.968L447.438 405.601L451.669 406.817L455.899 407.779L460.129 408.475L466.475 409.102L477.051 409.876L483.396 410.036L519.354 410.111" fill="#7EB0D5" fill-opacity="0.4"/>
<path d="M98.4375 410.111L219.001 409.934L231.692 409.525L235.923 409.023L240.153 408.114L244.383 406.708L246.498 405.763L248.614 404.626L250.729 403.292L254.959 400.105L259.189 396.449L267.65 388.902L273.996 383.606L276.111 381.629L278.226 379.446L280.341 377.023L282.456 374.32L284.571 371.298L286.686 367.916L288.802 364.11L290.917 359.777L293.032 354.794L295.147 349.08L297.262 342.655L301.493 328.347L309.953 299.144L314.184 285.384L316.299 279.508L318.414 274.698L320.529 270.982L322.644 268.178L324.759 266.065L326.874 264.534L328.99 263.655L331.105 263.609L333.22 264.54L335.335 266.422L337.45 269.02L348.026 283.819L352.256 290.419L358.602 301.241L367.062 316.378L371.293 323.158L377.638 332.567L396.675 360.259L407.25 374.378L409.366 376.86L413.596 381.151L417.826 384.913L424.172 389.991L430.517 395.274L434.747 398.791L438.978 401.738L443.208 403.968L447.438 405.601L451.669 406.817L455.899 407.779L460.129 408.475L466.475 409.102L477.051 409.876L483.396 410.036L519.354 410.111" stroke="#7EB0D5" stroke-linecap="square"/>
</g>
<path d="M535.061 411.061C535.646 410.475 535.646 409.525 535.061 408.939L525.515 399.393C524.929 398.808 523.979 398.808 523.393 399.393C522.808 399.979 522.808 400.929 523.393 401.515L531.879 410L523.393 418.485C522.808 419.071 522.808 420.021 523.393 420.607C523.979 421.192 524.929 421.192 525.515 420.607L535.061 411.061ZM79 411.5H534V408.5H79V411.5Z" fill="black"/>
</g>
<defs>
<clipPath id="clip0_230_12958">
<rect width="614.4" height="460.8" fill="white"/>
</clipPath>
</defs>
</svg>
