<svg width="615" height="461" viewBox="0 0 615 461" fill="none" xmlns="http://www.w3.org/2000/svg">
<g clip-path="url(#clip0_230_12478)">
<mask id="mask0_230_12478" style="mask-type:luminance" maskUnits="userSpaceOnUse" x="76" y="55" width="477" height="356">
<path d="M552.957 55.2959H76.7969V410.112H552.957V55.2959Z" fill="white"/>
</mask>
<g mask="url(#mask0_230_12478)">
<path d="M359.516 410.111L365.477 409.946L370.586 409.731L373.141 409.924L376.547 409.601L382.508 408.907L387.617 407.413L389.32 406.789L391.023 405.698L392.726 404.151L395.281 401.747L396.133 400.958L396.984 399.906L397.836 398.415L398.687 396.431L400.391 391.184L402.094 384.413L403.797 375.309L405.5 363.497L407.203 349.084L408.906 331.062L410.609 309.375L412.312 282.433L419.125 162.357L420.828 140.463L422.531 122.948L423.383 115.814L424.234 109.941L425.086 105.485L425.937 102.938L426.789 103.06L427.64 106.392L428.492 112.736L431.047 136.96L432.75 150.962L433.601 160.475L435.304 185.612L437.859 224.458L442.969 295.137L444.672 313.628L446.375 327.124L451.484 362.711L452.336 366.381L460 393.352L460.851 395.656L461.703 397.362L464.258 400.875L465.961 403.195L466.812 404.067L467.664 404.682L471.07 406.342L474.476 408.817L475.328 409.113L477.031 409.217L479.586 409.24L487.25 409.936L490.656 410.035L494.914 410.074L500.875 410.086L507.687 410.005L528.976 410.111" fill="#EFEFEF" fill-opacity="0.4"/>
<path d="M359.516 410.111L365.477 409.946L370.586 409.731L373.141 409.924L376.547 409.601L382.508 408.907L387.617 407.413L389.32 406.789L391.023 405.698L392.726 404.151L395.281 401.747L396.133 400.958L396.984 399.906L397.836 398.415L398.687 396.431L400.391 391.184L402.094 384.413L403.797 375.309L405.5 363.497L407.203 349.084L408.906 331.062L410.609 309.375L412.312 282.433L419.125 162.357L420.828 140.463L422.531 122.948L423.383 115.814L424.234 109.941L425.086 105.485L425.937 102.938L426.789 103.06L427.64 106.392L428.492 112.736L431.047 136.96L432.75 150.962L433.601 160.475L435.304 185.612L437.859 224.458L442.969 295.137L444.672 313.628L446.375 327.124L451.484 362.711L452.336 366.381L460 393.352L460.851 395.656L461.703 397.362L464.258 400.875L465.961 403.195L466.812 404.067L467.664 404.682L471.07 406.342L474.476 408.817L475.328 409.113L477.031 409.217L479.586 409.24L487.25 409.936L490.656 410.035L494.914 410.074L500.875 410.086L507.687 410.005L528.976 410.111" stroke="#EFEFEF" stroke-linecap="square"/>
</g>
<mask id="mask1_230_12478" style="mask-type:luminance" maskUnits="userSpaceOnUse" x="76" y="55" width="477" height="356">
<path d="M552.957 55.2959H76.7969V410.112H552.957V55.2959Z" fill="white"/>
</mask>
<g mask="url(#mask1_230_12478)">
<path d="M329.734 410.111L341.85 409.987L347.442 409.668L352.102 409.599L354.898 409.334L357.693 408.987L361.421 408.941L363.285 408.549L366.081 407.833L371.673 406.941L377.265 405.186L379.129 403.964L380.993 402.719L383.789 401.083L385.652 399.494L387.516 397.293L389.38 394.578L391.244 391.41L393.108 387.584L394.972 382.883L397.768 374.695L398.7 371.433L399.632 367.617L400.564 363.101L402.428 351.941L407.088 319.59L408.952 305.269L410.816 288.938L412.68 269.172L414.543 248.151L415.475 238.99L416.407 231.332L418.271 219.444L420.135 208.059L423.863 181.929L424.795 177.249L425.727 174.276L426.659 173.135L427.591 173.653L428.523 175.468L429.455 178.222L430.387 181.703L432.251 190.602L434.115 201.704L435.979 214.531L438.775 236.89L445.298 290.378L448.094 309.559L449.958 323.352L452.754 346.256L454.618 358.718L456.482 368.202L458.346 375.615L460.21 381.742L462.074 386.855L464.87 393.472L466.734 397.506L467.666 399.202L468.598 400.582L470.462 402.555L475.121 406.689L476.985 407.635L481.645 409.088L483.509 409.526L485.373 409.707L490.965 409.771L494.693 409.948L515.196 410.111" fill="#EFEFEF" fill-opacity="0.4"/>
<path d="M329.734 410.111L341.85 409.987L347.442 409.668L352.102 409.599L354.898 409.334L357.693 408.987L361.421 408.941L363.285 408.549L366.081 407.833L371.673 406.941L377.265 405.186L379.129 403.964L380.993 402.719L383.789 401.083L385.652 399.494L387.516 397.293L389.38 394.578L391.244 391.41L393.108 387.584L394.972 382.883L397.768 374.695L398.7 371.433L399.632 367.617L400.564 363.101L402.428 351.941L407.088 319.59L408.952 305.269L410.816 288.938L412.68 269.172L414.543 248.151L415.475 238.99L416.407 231.332L418.271 219.444L420.135 208.059L423.863 181.929L424.795 177.249L425.727 174.276L426.659 173.135L427.591 173.653L428.523 175.468L429.455 178.222L430.387 181.703L432.251 190.602L434.115 201.704L435.979 214.531L438.775 236.89L445.298 290.378L448.094 309.559L449.958 323.352L452.754 346.256L454.618 358.718L456.482 368.202L458.346 375.615L460.21 381.742L462.074 386.855L464.87 393.472L466.734 397.506L467.666 399.202L468.598 400.582L470.462 402.555L475.121 406.689L476.985 407.635L481.645 409.088L483.509 409.526L485.373 409.707L490.965 409.771L494.693 409.948L515.196 410.111" stroke="#EFEFEF" stroke-linecap="square"/>
</g>
<mask id="mask2_230_12478" style="mask-type:luminance" maskUnits="userSpaceOnUse" x="76" y="55" width="477" height="356">
<path d="M552.957 55.2959H76.7969V410.112H552.957V55.2959Z" fill="white"/>
</mask>
<g mask="url(#mask2_230_12478)">
<path d="M335.703 410.111L363.227 409.899L368.141 409.736L372.073 409.476L376.005 409.354L381.903 409.121L383.869 408.742L385.835 408.057L388.784 406.677L390.75 405.327L392.716 403.519L395.665 400.46L397.631 397.909L399.597 394.422L401.563 389.871L402.546 387.061L403.529 383.754L404.512 379.849L406.478 370.143L409.427 352.756L412.376 334.221L414.342 319.722L415.325 311.187L417.291 290.046L420.239 250.505L422.205 225.189L424.171 204.073L425.154 195.508L426.137 188.556L427.12 183.362L428.103 179.894L429.086 178.016L430.069 177.678L431.052 178.989L432.035 182.063L433.018 186.776L434.984 199.13L436.95 211.069L437.933 215.687L440.882 226.627L441.865 231.798L443.831 245.999L445.797 260.291L447.763 271.209L450.712 286.547L452.678 297.726L457.593 327.789L461.525 347.034L463.491 355.423L465.457 362.177L469.388 374.445L472.337 382.186L475.286 390.527L477.252 395.535L478.235 397.438L479.218 398.97L481.184 401.24L487.082 406.379L488.065 407.004L490.031 407.776L493.963 408.751L496.912 409.231L506.742 409.875L517.555 410.032L531.316 410.111" fill="#EFEFEF" fill-opacity="0.4"/>
<path d="M335.703 410.111L363.227 409.899L368.141 409.736L372.073 409.476L376.005 409.354L381.903 409.121L383.869 408.742L385.835 408.057L388.784 406.677L390.75 405.327L392.716 403.519L395.665 400.46L397.631 397.909L399.597 394.422L401.563 389.871L402.546 387.061L403.529 383.754L404.512 379.849L406.478 370.143L409.427 352.756L412.376 334.221L414.342 319.722L415.325 311.187L417.291 290.046L420.239 250.505L422.205 225.189L424.171 204.073L425.154 195.508L426.137 188.556L427.12 183.362L428.103 179.894L429.086 178.016L430.069 177.678L431.052 178.989L432.035 182.063L433.018 186.776L434.984 199.13L436.95 211.069L437.933 215.687L440.882 226.627L441.865 231.798L443.831 245.999L445.797 260.291L447.763 271.209L450.712 286.547L452.678 297.726L457.593 327.789L461.525 347.034L463.491 355.423L465.457 362.177L469.388 374.445L472.337 382.186L475.286 390.527L477.252 395.535L478.235 397.438L479.218 398.97L481.184 401.24L487.082 406.379L488.065 407.004L490.031 407.776L493.963 408.751L496.912 409.231L506.742 409.875L517.555 410.032L531.316 410.111" stroke="#EFEFEF" stroke-linecap="square"/>
</g>
<mask id="mask3_230_12478" style="mask-type:luminance" maskUnits="userSpaceOnUse" x="76" y="55" width="477" height="356">
<path d="M552.957 55.2959H76.7969V410.112H552.957V55.2959Z" fill="white"/>
</mask>
<g mask="url(#mask3_230_12478)">
<path d="M331.297 410.111L354.312 409.928L357.189 409.876L360.066 409.835L372.532 409.062L374.45 408.608L377.327 407.747L379.245 407.623L381.163 407.603L382.122 407.379L383.081 406.937L384.999 405.517L386.917 403.739L387.876 402.648L388.835 401.245L389.793 399.427L396.506 383.816L398.424 376.641L400.342 367.7L404.178 347.115L405.137 341.29L407.055 327.218L409.932 304.657L410.891 295.405L412.809 272.409L415.685 231.567L418.562 189.632L420.48 167.317L422.398 148.538L423.357 140.879L424.316 135.057L425.275 130.73L426.234 127.449L427.193 125.693L428.152 126.598L429.111 130.556L430.07 136.621L431.988 151.749L432.947 162.055L434.865 189.894L436.783 217.252L443.495 299.82L445.413 318.705L447.331 335.095L449.249 349.514L452.126 368.103L454.044 378.539L455.003 382.648L455.962 385.915L460.757 398.959L461.715 401.31L462.674 403.164L463.633 404.42L464.592 405.174L471.305 408.69L473.223 409.239L476.1 409.673L479.936 409.836L485.689 409.774L494.32 410.112L522.13 410.111" fill="#EFEFEF" fill-opacity="0.4"/>
<path d="M331.297 410.111L354.312 409.928L357.189 409.876L360.066 409.835L372.532 409.062L374.45 408.608L377.327 407.747L379.245 407.623L381.163 407.603L382.122 407.379L383.081 406.937L384.999 405.517L386.917 403.739L387.876 402.648L388.835 401.245L389.793 399.427L396.506 383.816L398.424 376.641L400.342 367.7L404.178 347.115L405.137 341.29L407.055 327.218L409.932 304.657L410.891 295.405L412.809 272.409L415.685 231.567L418.562 189.632L420.48 167.317L422.398 148.538L423.357 140.879L424.316 135.057L425.275 130.73L426.234 127.449L427.193 125.693L428.152 126.598L429.111 130.556L430.07 136.621L431.988 151.749L432.947 162.055L434.865 189.894L436.783 217.252L443.495 299.82L445.413 318.705L447.331 335.095L449.249 349.514L452.126 368.103L454.044 378.539L455.003 382.648L455.962 385.915L460.757 398.959L461.715 401.31L462.674 403.164L463.633 404.42L464.592 405.174L471.305 408.69L473.223 409.239L476.1 409.673L479.936 409.836L485.689 409.774L494.32 410.112L522.13 410.111" stroke="#EFEFEF" stroke-linecap="square"/>
</g>
<mask id="mask4_230_12478" style="mask-type:luminance" maskUnits="userSpaceOnUse" x="76" y="55" width="477" height="356">
<path d="M552.957 55.2959H76.7969V410.112H552.957V55.2959Z" fill="white"/>
</mask>
<g mask="url(#mask4_230_12478)">
<path d="M347.641 410.11L363.925 409.937L368.578 409.667L373.23 409.637L380.209 409.262L382.536 409.399L384.086 409.183L387.188 408.511L388.739 408.596L391.065 408.858L392.616 408.556L394.943 407.458L400.371 404.731L402.697 403.793L403.473 403.198L404.248 402.333L405.799 399.965L410.452 392.268L412.002 388.403L413.553 382.86L415.104 375.186L416.655 365.386L419.757 344.959L421.308 336.795L422.859 330.034L425.185 321.665L427.511 314.894L429.062 310.238L429.838 307.215L430.613 303.436L432.164 293.302L433.715 280.063L436.041 256.706L438.368 231.063L443.02 173.46L444.571 159.862L445.347 154.873L446.122 151.236L446.897 148.951L447.673 147.87L448.448 147.789L449.224 148.601L449.999 150.377L450.775 153.281L451.55 157.402L453.101 168.824L454.652 183.158L456.978 208.293L460.855 254.88L463.957 291.588L466.283 313.944L471.712 361.593L473.262 371.948L474.813 380.093L476.364 386.628L477.915 391.881L479.466 395.845L481.017 398.882L483.343 402.741L484.894 404.666L486.445 405.901L491.098 408.679L492.649 409.263L494.975 409.7L498.852 410.06L501.954 410.11" fill="#EFEFEF" fill-opacity="0.4"/>
<path d="M347.641 410.11L363.925 409.937L368.578 409.667L373.23 409.637L380.209 409.262L382.536 409.399L384.086 409.183L387.188 408.511L388.739 408.596L391.065 408.858L392.616 408.556L394.943 407.458L400.371 404.731L402.697 403.793L403.473 403.198L404.248 402.333L405.799 399.965L410.452 392.268L412.002 388.403L413.553 382.86L415.104 375.186L416.655 365.386L419.757 344.959L421.308 336.795L422.859 330.034L425.185 321.665L427.511 314.894L429.062 310.238L429.838 307.215L430.613 303.436L432.164 293.302L433.715 280.063L436.041 256.706L438.368 231.063L443.02 173.46L444.571 159.862L445.347 154.873L446.122 151.236L446.897 148.951L447.673 147.87L448.448 147.789L449.224 148.601L449.999 150.377L450.775 153.281L451.55 157.402L453.101 168.824L454.652 183.158L456.978 208.293L460.855 254.88L463.957 291.588L466.283 313.944L471.712 361.593L473.262 371.948L474.813 380.093L476.364 386.628L477.915 391.881L479.466 395.845L481.017 398.882L483.343 402.741L484.894 404.666L486.445 405.901L491.098 408.679L492.649 409.263L494.975 409.7L498.852 410.06L501.954 410.11" stroke="#EFEFEF" stroke-linecap="square"/>
</g>
<mask id="mask5_230_12478" style="mask-type:luminance" maskUnits="userSpaceOnUse" x="76" y="55" width="477" height="356">
<path d="M552.957 55.2959H76.7969V410.112H552.957V55.2959Z" fill="white"/>
</mask>
<g mask="url(#mask5_230_12478)">
<path d="M351.406 410.111L367.66 409.945L372.174 409.763L381.204 409.857L386.622 409.583L391.136 409.229L393.845 409.059L396.554 408.521L399.263 407.961L401.972 407.567L403.778 406.877L405.584 405.645L407.39 403.74L409.196 401.184L411.001 398.077L412.807 394.065L414.613 388.79L416.419 382.058L418.225 373.356L420.934 357.492L424.546 335.201L427.255 316.396L430.867 290.932L432.672 279.724L434.478 270.28L437.187 256.474L443.508 219.803L444.411 215.352L445.314 211.701L447.12 206.29L448.926 200.625L451.635 190.931L452.538 188.826L453.44 187.531L454.343 186.929L455.246 187.05L456.149 188.251L457.052 191.107L457.955 196.08L458.858 203.22L460.664 222.16L465.179 273.526L467.888 299.514L469.694 315.066L471.5 328.414L475.111 350.866L476.917 361.71L478.723 370.746L480.529 377.169L482.335 381.975L485.044 388.08L487.753 393.462L489.559 396.379L496.782 405.881L498.588 407.107L500.394 407.82L504.006 408.654L508.521 409.67L512.133 409.947L516.648 409.96L522.968 409.92L531.095 410.111" fill="#EFEFEF" fill-opacity="0.4"/>
<path d="M351.406 410.111L367.66 409.945L372.174 409.763L381.204 409.857L386.622 409.583L391.136 409.229L393.845 409.059L396.554 408.521L399.263 407.961L401.972 407.567L403.778 406.877L405.584 405.645L407.39 403.74L409.196 401.184L411.001 398.077L412.807 394.065L414.613 388.79L416.419 382.058L418.225 373.356L420.934 357.492L424.546 335.201L427.255 316.396L430.867 290.932L432.672 279.724L434.478 270.28L437.187 256.474L443.508 219.803L444.411 215.352L445.314 211.701L447.12 206.29L448.926 200.625L451.635 190.931L452.538 188.826L453.44 187.531L454.343 186.929L455.246 187.05L456.149 188.251L457.052 191.107L457.955 196.08L458.858 203.22L460.664 222.16L465.179 273.526L467.888 299.514L469.694 315.066L471.5 328.414L475.111 350.866L476.917 361.71L478.723 370.746L480.529 377.169L482.335 381.975L485.044 388.08L487.753 393.462L489.559 396.379L496.782 405.881L498.588 407.107L500.394 407.82L504.006 408.654L508.521 409.67L512.133 409.947L516.648 409.96L522.968 409.92L531.095 410.111" stroke="#EFEFEF" stroke-linecap="square"/>
</g>
<mask id="mask6_230_12478" style="mask-type:luminance" maskUnits="userSpaceOnUse" x="76" y="55" width="477" height="356">
<path d="M552.957 55.2959H76.7969V410.112H552.957V55.2959Z" fill="white"/>
</mask>
<g mask="url(#mask6_230_12478)">
<path d="M318.102 410.111L350.074 409.937L353.95 409.679L355.887 409.259L357.825 408.375L359.763 406.916L361.701 405.039L363.638 402.907L365.576 400.353L367.514 397.035L369.451 392.806L376.234 376.32L378.171 372.728L380.109 369.666L382.047 367.184L383.984 365.278L386.891 362.637L388.829 360.507L390.767 358.056L392.704 354.975L394.642 350.766L396.58 345.41L399.486 336.222L403.362 322.8L406.268 311.399L409.175 298.465L413.051 280.686L414.988 273.199L416.926 266.988L418.864 261.775L423.708 249.944L426.615 242.234L427.584 240.229L428.552 238.779L429.521 237.937L430.49 237.647L431.459 237.763L433.397 238.513L434.366 238.993L435.334 239.66L436.303 240.731L437.272 242.427L438.241 244.906L439.21 248.219L440.179 252.332L442.117 262.634L444.054 275.388L445.992 290.451L450.836 330.216L453.743 351.165L456.65 370.152L458.587 380.582L460.525 388.763L462.463 395.156L464.4 400.251L465.369 402.318L466.338 404.033L467.307 405.393L468.276 406.424L469.245 407.182L471.183 408.15L474.089 409.021L476.996 409.576L480.871 409.878L484.747 409.928L489.591 409.904L495.404 409.982L501.217 409.945L510.906 410.111" fill="#EFEFEF" fill-opacity="0.4"/>
<path d="M318.102 410.111L350.074 409.937L353.95 409.679L355.887 409.259L357.825 408.375L359.763 406.916L361.701 405.039L363.638 402.907L365.576 400.353L367.514 397.035L369.451 392.806L376.234 376.32L378.171 372.728L380.109 369.666L382.047 367.184L383.984 365.278L386.891 362.637L388.829 360.507L390.767 358.056L392.704 354.975L394.642 350.766L396.58 345.41L399.486 336.222L403.362 322.8L406.268 311.399L409.175 298.465L413.051 280.686L414.988 273.199L416.926 266.988L418.864 261.775L423.708 249.944L426.615 242.234L427.584 240.229L428.552 238.779L429.521 237.937L430.49 237.647L431.459 237.763L433.397 238.513L434.366 238.993L435.334 239.66L436.303 240.731L437.272 242.427L438.241 244.906L439.21 248.219L440.179 252.332L442.117 262.634L444.054 275.388L445.992 290.451L450.836 330.216L453.743 351.165L456.65 370.152L458.587 380.582L460.525 388.763L462.463 395.156L464.4 400.251L465.369 402.318L466.338 404.033L467.307 405.393L468.276 406.424L469.245 407.182L471.183 408.15L474.089 409.021L476.996 409.576L480.871 409.878L484.747 409.928L489.591 409.904L495.404 409.982L501.217 409.945L510.906 410.111" stroke="#EFEFEF" stroke-linecap="square"/>
</g>
<mask id="mask7_230_12478" style="mask-type:luminance" maskUnits="userSpaceOnUse" x="76" y="55" width="477" height="356">
<path d="M552.957 55.2959H76.7969V410.112H552.957V55.2959Z" fill="white"/>
</mask>
<g mask="url(#mask7_230_12478)">
<path d="M347.68 410.111L354.259 409.955L359.193 409.99L367.417 410.075L370.706 409.846L374.818 409.481L378.93 409.436L382.22 409.333L384.687 409.299L386.332 408.928L389.621 407.967L391.266 407.79L394.555 407.728L395.378 407.443L396.2 406.959L397.845 405.442L401.134 401.387L402.779 399.157L403.602 397.793L404.424 396.137L406.069 391.766L407.714 386.221L409.358 379.869L411.003 372.339L412.648 362.94L414.293 351.565L415.937 337.656L417.582 320.522L420.872 280.956L425.806 221.478L427.451 205.951L429.095 194.464L430.74 186.367L432.385 180.625L434.03 175.191L437.319 162.67L438.142 160.775L438.964 159.832L439.786 160.157L440.609 162.132L441.431 165.944L443.076 177.757L445.543 196.482L447.188 208.367L448.833 222.972L451.3 249.265L454.589 286.327L456.234 300.085L458.701 320.873L460.346 334.876L461.991 346.632L464.458 361.443L466.103 369.407L467.747 375.589L474.326 397.319L475.149 398.991L476.794 401.385L479.261 404.387L480.906 405.905L482.55 406.904L485.017 407.96L487.485 408.667L489.952 409.058L493.241 409.525L495.708 409.867L501.465 409.953L511.334 410.11" fill="#EFEFEF" fill-opacity="0.4"/>
<path d="M347.68 410.111L354.259 409.955L359.193 409.99L367.417 410.075L370.706 409.846L374.818 409.481L378.93 409.436L382.22 409.333L384.687 409.299L386.332 408.928L389.621 407.967L391.266 407.79L394.555 407.728L395.378 407.443L396.2 406.959L397.845 405.442L401.134 401.387L402.779 399.157L403.602 397.793L404.424 396.137L406.069 391.766L407.714 386.221L409.358 379.869L411.003 372.339L412.648 362.94L414.293 351.565L415.937 337.656L417.582 320.522L420.872 280.956L425.806 221.478L427.451 205.951L429.095 194.464L430.74 186.367L432.385 180.625L434.03 175.191L437.319 162.67L438.142 160.775L438.964 159.832L439.786 160.157L440.609 162.132L441.431 165.944L443.076 177.757L445.543 196.482L447.188 208.367L448.833 222.972L451.3 249.265L454.589 286.327L456.234 300.085L458.701 320.873L460.346 334.876L461.991 346.632L464.458 361.443L466.103 369.407L467.747 375.589L474.326 397.319L475.149 398.991L476.794 401.385L479.261 404.387L480.906 405.905L482.55 406.904L485.017 407.96L487.485 408.667L489.952 409.058L493.241 409.525L495.708 409.867L501.465 409.953L511.334 410.11" stroke="#EFEFEF" stroke-linecap="square"/>
</g>
<mask id="mask8_230_12478" style="mask-type:luminance" maskUnits="userSpaceOnUse" x="76" y="55" width="477" height="356">
<path d="M552.957 55.2959H76.7969V410.112H552.957V55.2959Z" fill="white"/>
</mask>
<g mask="url(#mask8_230_12478)">
<path d="M334.625 410.111L356.866 409.895L363.353 409.713L374.474 409.589L376.328 409.485L380.035 409.629L385.595 408.567L391.155 407.124L394.862 405.923L395.789 405.604L396.716 405.027L397.642 404.062L398.569 402.618L399.496 400.462L400.422 397.104L401.349 391.97L402.276 384.62L403.203 374.641L404.129 361.358L405.056 344.004L406.91 298.034L409.69 225.409L410.616 205.671L411.543 189.394L412.47 176.693L414.323 157.951L417.103 133.855L418.957 121.409L419.884 117.315L420.81 115.451L421.737 115.964L422.664 118.173L423.591 121.133L424.517 124.632L425.444 129.398L426.371 136.279L427.297 145.374L434.711 230.405L437.491 268.714L439.345 289.3L441.198 307.082L443.052 321.615L446.759 346.792L448.612 360.998L449.539 366.632L450.466 370.79L452.319 376.56L454.172 382.153L456.953 391.079L458.806 395.213L461.586 399.891L463.44 402.362L464.366 403.203L465.293 403.795L467.147 404.476L469 405.027L470.853 406.074L472.707 407.282L473.634 407.681L476.414 408.233L478.267 408.526L487.535 408.971L492.168 409.908L503.289 410.05L507.922 409.996L519.043 410.111" fill="#EFEFEF" fill-opacity="0.4"/>
<path d="M334.625 410.111L356.866 409.895L363.353 409.713L374.474 409.589L376.328 409.485L380.035 409.629L385.595 408.567L391.155 407.124L394.862 405.923L395.789 405.604L396.716 405.027L397.642 404.062L398.569 402.618L399.496 400.462L400.422 397.104L401.349 391.97L402.276 384.62L403.203 374.641L404.129 361.358L405.056 344.004L406.91 298.034L409.69 225.409L410.616 205.671L411.543 189.394L412.47 176.693L414.323 157.951L417.103 133.855L418.957 121.409L419.884 117.315L420.81 115.451L421.737 115.964L422.664 118.173L423.591 121.133L424.517 124.632L425.444 129.398L426.371 136.279L427.297 145.374L434.711 230.405L437.491 268.714L439.345 289.3L441.198 307.082L443.052 321.615L446.759 346.792L448.612 360.998L449.539 366.632L450.466 370.79L452.319 376.56L454.172 382.153L456.953 391.079L458.806 395.213L461.586 399.891L463.44 402.362L464.366 403.203L465.293 403.795L467.147 404.476L469 405.027L470.853 406.074L472.707 407.282L473.634 407.681L476.414 408.233L478.267 408.526L487.535 408.971L492.168 409.908L503.289 410.05L507.922 409.996L519.043 410.111" stroke="#EFEFEF" stroke-linecap="square"/>
</g>
<mask id="mask9_230_12478" style="mask-type:luminance" maskUnits="userSpaceOnUse" x="76" y="55" width="477" height="356">
<path d="M552.957 55.2959H76.7969V410.112H552.957V55.2959Z" fill="white"/>
</mask>
<g mask="url(#mask9_230_12478)">
<path d="M342.742 410.111L373.226 409.932L378.768 409.483L386.158 408.947L388.93 408.706L389.853 408.427L390.777 407.972L392.625 406.543L395.396 403.753L397.243 401.496L398.167 400.017L400.015 396.108L401.862 390.803L402.786 387.371L403.71 383.185L405.557 372.38L408.328 353.007L410.176 338.458L412.023 320.305L416.642 269.341L419.413 243.023L421.261 227.478L423.108 214.19L424.032 208.766L424.956 204.359L425.88 200.931L427.727 195.764L429.575 191.396L430.498 190.113L431.422 189.994L432.346 191.071L433.27 192.988L435.117 197.699L436.041 200.353L436.965 203.551L437.888 207.58L438.812 212.537L440.66 224.719L447.126 271.389L451.745 300.389L454.516 319.056L456.363 329.418L459.135 342.776L463.753 363.939L465.601 370.894L468.372 379.354L471.143 387.436L472.991 391.567L474.838 394.404L476.686 396.64L485 405.276L485.923 405.871L487.771 406.567L489.618 407.14L494.237 408.937L497.932 409.417L502.551 409.744L508.093 409.97L515.483 409.944L526.568 410.111" fill="#EFEFEF" fill-opacity="0.4"/>
<path d="M342.742 410.111L373.226 409.932L378.768 409.483L386.158 408.947L388.93 408.706L389.853 408.427L390.777 407.972L392.625 406.543L395.396 403.753L397.243 401.496L398.167 400.017L400.015 396.108L401.862 390.803L402.786 387.371L403.71 383.185L405.557 372.38L408.328 353.007L410.176 338.458L412.023 320.305L416.642 269.341L419.413 243.023L421.261 227.478L423.108 214.19L424.032 208.766L424.956 204.359L425.88 200.931L427.727 195.764L429.575 191.396L430.498 190.113L431.422 189.994L432.346 191.071L433.27 192.988L435.117 197.699L436.041 200.353L436.965 203.551L437.888 207.58L438.812 212.537L440.66 224.719L447.126 271.389L451.745 300.389L454.516 319.056L456.363 329.418L459.135 342.776L463.753 363.939L465.601 370.894L468.372 379.354L471.143 387.436L472.991 391.567L474.838 394.404L476.686 396.64L485 405.276L485.923 405.871L487.771 406.567L489.618 407.14L494.237 408.937L497.932 409.417L502.551 409.744L508.093 409.97L515.483 409.944L526.568 410.111" stroke="#EFEFEF" stroke-linecap="square"/>
</g>
<mask id="mask10_230_12478" style="mask-type:luminance" maskUnits="userSpaceOnUse" x="76" y="55" width="477" height="356">
<path d="M552.957 55.2959H76.7969V410.112H552.957V55.2959Z" fill="white"/>
</mask>
<g mask="url(#mask10_230_12478)">
<path d="M347.359 410.111L351.797 409.981L360.672 409.446L373.985 408.586L378.423 408.009L382.861 408.23L388.186 407.533L394.399 405.064L400.612 403.37L401.499 402.956L402.387 402.303L404.162 400.26L405.049 399.207L405.937 398.418L406.824 397.956L408.599 397.454L409.487 396.959L410.374 396.058L411.262 394.708L414.812 387.603L416.587 384.048L418.362 379.783L420.137 374.664L421.025 371.691L421.912 368.182L423.688 359.252L429.013 329.059L430.788 315.662L432.563 299.814L435.226 272.019L437.888 241.469L441.438 192.791L443.213 166.809L446.764 110.351L447.651 98.7793L448.539 89.367L449.426 82.1662L450.314 76.9581L451.201 73.5478L452.089 72.1924L452.976 73.8094L453.864 79.6028L454.751 90.3609L455.639 106.123L456.526 126.357L458.301 175.81L460.964 249.436L462.739 290.624L464.514 326.299L466.289 355.781L467.177 367.441L468.064 376.74L468.952 383.825L469.839 389.122L470.727 393.152L471.615 396.348L473.39 401.171L474.277 402.962L475.165 404.37L476.052 405.438L477.827 406.871L480.49 408.336L482.265 409.082L484.04 409.489L487.59 409.92L492.915 410.021L500.016 410.111L523.979 410.111" fill="#EFEFEF" fill-opacity="0.4"/>
<path d="M347.359 410.111L351.797 409.981L360.672 409.446L373.985 408.586L378.423 408.009L382.861 408.23L388.186 407.533L394.399 405.064L400.612 403.37L401.499 402.956L402.387 402.303L404.162 400.26L405.049 399.207L405.937 398.418L406.824 397.956L408.599 397.454L409.487 396.959L410.374 396.058L411.262 394.708L414.812 387.603L416.587 384.048L418.362 379.783L420.137 374.664L421.025 371.691L421.912 368.182L423.688 359.252L429.013 329.059L430.788 315.662L432.563 299.814L435.226 272.019L437.888 241.469L441.438 192.791L443.213 166.809L446.764 110.351L447.651 98.7793L448.539 89.367L449.426 82.1662L450.314 76.9581L451.201 73.5478L452.089 72.1924L452.976 73.8094L453.864 79.6028L454.751 90.3609L455.639 106.123L456.526 126.357L458.301 175.81L460.964 249.436L462.739 290.624L464.514 326.299L466.289 355.781L467.177 367.441L468.064 376.74L468.952 383.825L469.839 389.122L470.727 393.152L471.615 396.348L473.39 401.171L474.277 402.962L475.165 404.37L476.052 405.438L477.827 406.871L480.49 408.336L482.265 409.082L484.04 409.489L487.59 409.92L492.915 410.021L500.016 410.111L523.979 410.111" stroke="#EFEFEF" stroke-linecap="square"/>
</g>
<mask id="mask11_230_12478" style="mask-type:luminance" maskUnits="userSpaceOnUse" x="76" y="55" width="477" height="356">
<path d="M552.957 55.2959H76.7969V410.112H552.957V55.2959Z" fill="white"/>
</mask>
<g mask="url(#mask11_230_12478)">
<path d="M334.375 410.111L339.667 409.986L344.078 409.888L347.606 409.785L368.776 407.919L370.54 407.308L375.833 404.686L377.597 403.922L379.361 402.671L382.007 400.604L383.771 399.62L386.418 398.238L388.182 396.796L390.828 393.918L392.592 391.719L393.474 390.379L394.356 388.768L396.12 384.584L397.885 379.352L400.531 370.354L402.295 362.888L404.059 353.707L406.705 337.714L409.352 319.765L412.88 292.808L418.172 251.944L419.937 240.35L421.701 230.86L423.465 223.59L425.229 218.3L426.993 214.406L428.757 211.272L430.521 208.574L431.404 207.558L432.286 206.963L433.168 206.926L434.05 207.537L434.932 208.852L435.814 210.891L436.696 213.623L438.46 220.84L440.224 230.162L441.989 241.93L446.399 274.778L456.102 337.61L459.63 356.208L462.276 368.966L464.04 376.167L465.805 382.092L468.451 389.796L470.215 394.355L471.979 397.879L473.743 400.305L476.39 402.977L479.036 405.297L481.682 407.189L483.446 408.218L485.21 408.942L486.974 409.369L489.621 409.727L493.149 409.893L509.909 410.111" fill="#EFEFEF" fill-opacity="0.4"/>
<path d="M334.375 410.111L339.667 409.986L344.078 409.888L347.606 409.785L368.776 407.919L370.54 407.308L375.833 404.686L377.597 403.922L379.361 402.671L382.007 400.604L383.771 399.62L386.418 398.238L388.182 396.796L390.828 393.918L392.592 391.719L393.474 390.379L394.356 388.768L396.12 384.584L397.885 379.352L400.531 370.354L402.295 362.888L404.059 353.707L406.705 337.714L409.352 319.765L412.88 292.808L418.172 251.944L419.937 240.35L421.701 230.86L423.465 223.59L425.229 218.3L426.993 214.406L428.757 211.272L430.521 208.574L431.404 207.558L432.286 206.963L433.168 206.926L434.05 207.537L434.932 208.852L435.814 210.891L436.696 213.623L438.46 220.84L440.224 230.162L441.989 241.93L446.399 274.778L456.102 337.61L459.63 356.208L462.276 368.966L464.04 376.167L465.805 382.092L468.451 389.796L470.215 394.355L471.979 397.879L473.743 400.305L476.39 402.977L479.036 405.297L481.682 407.189L483.446 408.218L485.21 408.942L486.974 409.369L489.621 409.727L493.149 409.893L509.909 410.111" stroke="#EFEFEF" stroke-linecap="square"/>
</g>
<mask id="mask12_230_12478" style="mask-type:luminance" maskUnits="userSpaceOnUse" x="76" y="55" width="477" height="356">
<path d="M552.957 55.2959H76.7969V410.112H552.957V55.2959Z" fill="white"/>
</mask>
<g mask="url(#mask12_230_12478)">
<path d="M359.289 410.111L382.92 409.894L393.161 408.627L394.736 408.562L397.099 408.805L398.675 408.424L401.038 407.604L403.401 407.232L404.977 406.593L408.127 404.837L409.703 403.562L410.491 402.646L411.278 401.451L412.066 399.906L413.641 395.809L416.005 389.401L417.58 385.714L418.368 383.352L419.943 376.748L423.094 360.732L424.669 350.81L426.245 337.241L428.608 312.219L430.183 292.58L432.547 257.41L438.848 154.446L441.211 112.432L441.999 100.97L442.787 92.0017L443.575 85.6524L444.362 81.6423L445.15 79.4634L445.938 78.8633L446.725 80.2675L447.513 84.55L448.301 92.2178L449.876 115.408L453.815 181.019L456.178 219.278L459.329 274.494L460.904 297.334L462.48 316.233L464.055 332.722L465.631 346.415L467.994 363.813L469.569 373.543L471.145 380.282L474.295 391.617L475.871 395.95L477.446 399.109L479.022 401.623L480.597 403.34L482.96 405.012L486.899 407.313L489.262 408.089L494.776 409.584L500.29 410.009L503.441 410.106L516.044 410.111" fill="#EFEFEF" fill-opacity="0.4"/>
<path d="M359.289 410.111L382.92 409.894L393.161 408.627L394.736 408.562L397.099 408.805L398.675 408.424L401.038 407.604L403.401 407.232L404.977 406.593L408.127 404.837L409.703 403.562L410.491 402.646L411.278 401.451L412.066 399.906L413.641 395.809L416.005 389.401L417.58 385.714L418.368 383.352L419.943 376.748L423.094 360.732L424.669 350.81L426.245 337.241L428.608 312.219L430.183 292.58L432.547 257.41L438.848 154.446L441.211 112.432L441.999 100.97L442.787 92.0017L443.575 85.6524L444.362 81.6423L445.15 79.4634L445.938 78.8633L446.725 80.2675L447.513 84.55L448.301 92.2178L449.876 115.408L453.815 181.019L456.178 219.278L459.329 274.494L460.904 297.334L462.48 316.233L464.055 332.722L465.631 346.415L467.994 363.813L469.569 373.543L471.145 380.282L474.295 391.617L475.871 395.95L477.446 399.109L479.022 401.623L480.597 403.34L482.96 405.012L486.899 407.313L489.262 408.089L494.776 409.584L500.29 410.009L503.441 410.106L516.044 410.111" stroke="#EFEFEF" stroke-linecap="square"/>
</g>
<mask id="mask13_230_12478" style="mask-type:luminance" maskUnits="userSpaceOnUse" x="76" y="55" width="477" height="356">
<path d="M552.957 55.2959H76.7969V410.112H552.957V55.2959Z" fill="white"/>
</mask>
<g mask="url(#mask13_230_12478)">
<path d="M320.078 410.11L327.153 409.964L333.217 409.72L340.291 409.628L343.323 409.31L346.355 408.661L348.377 407.997L350.398 407.11L352.419 405.9L353.43 405.096L354.441 404.088L355.451 402.812L356.462 401.204L357.473 399.209L358.483 396.782L359.494 393.889L360.504 390.488L361.515 386.522L362.526 381.912L363.536 376.562L364.547 370.37L366.568 355.069L368.59 335.379L370.611 311.068L373.643 267.949L376.675 225.394L378.696 203.196L379.707 194.988L380.718 189.083L381.728 185.74L382.739 185.172L383.75 187.492L384.76 192.665L385.771 200.481L386.782 210.566L388.803 235.441L392.846 287.954L394.867 308.295L395.878 316.167L396.888 322.491L397.899 327.358L398.91 330.914L399.92 333.34L400.931 334.841L401.942 335.641L402.952 335.974L405.984 336.22L406.995 336.49L409.016 337.475L411.037 338.638L412.048 339.065L413.059 339.283L414.069 339.254L415.08 338.984L417.101 337.941L419.123 336.805L420.133 336.399L421.144 336.16L422.155 336.104L423.165 336.235L424.176 336.556L425.187 337.072L426.197 337.793L428.219 339.79L431.251 343.239L433.272 345.008L435.293 346.212L437.315 346.994L440.347 347.972L441.357 348.619L442.368 349.665L443.379 351.234L444.389 353.4L445.4 356.168L447.421 363.205L453.485 386.929L455.506 393.094L457.528 397.85L458.538 399.703L459.549 401.227L460.56 402.451L461.57 403.409L463.592 404.694L465.613 405.448L471.677 407.02L476.73 408.151L481.784 408.911L487.848 409.501L494.922 409.915L510.082 410.036L521.199 410.111" fill="#EFEFEF" fill-opacity="0.4"/>
<path d="M320.078 410.11L327.153 409.964L333.217 409.72L340.291 409.628L343.323 409.31L346.355 408.661L348.377 407.997L350.398 407.11L352.419 405.9L353.43 405.096L354.441 404.088L355.451 402.812L356.462 401.204L357.473 399.209L358.483 396.782L359.494 393.889L360.504 390.488L361.515 386.522L362.526 381.912L363.536 376.562L364.547 370.37L366.568 355.069L368.59 335.379L370.611 311.068L373.643 267.949L376.675 225.394L378.696 203.196L379.707 194.988L380.718 189.083L381.728 185.74L382.739 185.172L383.75 187.492L384.76 192.665L385.771 200.481L386.782 210.566L388.803 235.441L392.846 287.954L394.867 308.295L395.878 316.167L396.888 322.491L397.899 327.358L398.91 330.914L399.92 333.34L400.931 334.841L401.942 335.641L402.952 335.974L405.984 336.22L406.995 336.49L409.016 337.475L411.037 338.638L412.048 339.065L413.059 339.283L414.069 339.254L415.08 338.984L417.101 337.941L419.123 336.805L420.133 336.399L421.144 336.16L422.155 336.104L423.165 336.235L424.176 336.556L425.187 337.072L426.197 337.793L428.219 339.79L431.251 343.239L433.272 345.008L435.293 346.212L437.315 346.994L440.347 347.972L441.357 348.619L442.368 349.665L443.379 351.234L444.389 353.4L445.4 356.168L447.421 363.205L453.485 386.929L455.506 393.094L457.528 397.85L458.538 399.703L459.549 401.227L460.56 402.451L461.57 403.409L463.592 404.694L465.613 405.448L471.677 407.02L476.73 408.151L481.784 408.911L487.848 409.501L494.922 409.915L510.082 410.036L521.199 410.111" stroke="#EFEFEF" stroke-linecap="square"/>
</g>
<mask id="mask14_230_12478" style="mask-type:luminance" maskUnits="userSpaceOnUse" x="76" y="55" width="477" height="356">
<path d="M552.957 55.2959H76.7969V410.112H552.957V55.2959Z" fill="white"/>
</mask>
<g mask="url(#mask14_230_12478)">
<path d="M98.4375 410.111L296.636 409.845L300.898 409.693L305.161 409.227L311.554 408.149L315.817 407.134L322.21 405.22L324.341 404.339L326.472 403.239L330.735 400.588L332.866 399.067L334.997 397.323L341.391 391.519L343.522 389.802L345.653 387.89L347.784 385.45L349.915 382.424L354.178 375.472L358.44 368.016L360.571 363.874L362.702 359.215L364.833 353.883L369.096 342.061L371.227 336.925L373.358 333.14L375.489 330.666L379.752 327.262L381.883 325.267L386.145 320.854L390.407 316.953L394.67 313.303L396.801 311.728L401.063 309.14L403.194 308.133L405.326 307.377L407.457 306.93L409.588 306.811L420.244 307.487L422.375 308.056L424.506 309.392L426.637 311.546L428.768 314.29L430.9 317.431L433.031 321.053L435.162 325.378L437.293 330.489L439.424 336.28L443.687 349.372L447.949 363.097L450.08 369.354L452.211 374.974L454.342 379.981L456.474 384.445L458.605 388.467L462.867 395.591L464.998 398.665L467.129 401.258L469.261 403.296L471.392 404.834L473.523 406.023L477.785 407.854L479.916 408.539L482.048 409.037L486.31 409.57L494.835 409.997L501.228 410.077L514.015 410.051L522.54 410.111" fill="#7EB0D5" fill-opacity="0.4"/>
<path d="M98.4375 410.111L296.636 409.845L300.898 409.693L305.161 409.227L311.554 408.149L315.817 407.134L322.21 405.22L324.341 404.339L326.472 403.239L330.735 400.588L332.866 399.067L334.997 397.323L341.391 391.519L343.522 389.802L345.653 387.89L347.784 385.45L349.915 382.424L354.178 375.472L358.44 368.016L360.571 363.874L362.702 359.215L364.833 353.883L369.096 342.061L371.227 336.925L373.358 333.14L375.489 330.666L379.752 327.262L381.883 325.267L386.145 320.854L390.407 316.953L394.67 313.303L396.801 311.728L401.063 309.14L403.194 308.133L405.326 307.377L407.457 306.93L409.588 306.811L420.244 307.487L422.375 308.056L424.506 309.392L426.637 311.546L428.768 314.29L430.9 317.431L433.031 321.053L435.162 325.378L437.293 330.489L439.424 336.28L443.687 349.372L447.949 363.097L450.08 369.354L452.211 374.974L454.342 379.981L456.474 384.445L458.605 388.467L462.867 395.591L464.998 398.665L467.129 401.258L469.261 403.296L471.392 404.834L473.523 406.023L477.785 407.854L479.916 408.539L482.048 409.037L486.31 409.57L494.835 409.997L501.228 410.077L514.015 410.051L522.54 410.111" stroke="#7EB0D5" stroke-linecap="square"/>
</g>
<path d="M535.061 411.061C535.646 410.475 535.646 409.525 535.061 408.939L525.515 399.393C524.929 398.808 523.979 398.808 523.393 399.393C522.808 399.979 522.808 400.929 523.393 401.515L531.879 410L523.393 418.485C522.808 419.071 522.808 420.021 523.393 420.607C523.979 421.192 524.929 421.192 525.515 420.607L535.061 411.061ZM79 411.5H534V408.5H79V411.5Z" fill="black"/>
</g>
<defs>
<clipPath id="clip0_230_12478">
<rect width="614.4" height="460.8" fill="white"/>
</clipPath>
</defs>
</svg>
