<svg width="615" height="461" viewBox="0 0 615 461" fill="none" xmlns="http://www.w3.org/2000/svg">
<mask id="mask0_230_13438" style="mask-type:luminance" maskUnits="userSpaceOnUse" x="76" y="55" width="477" height="356">
<path d="M552.957 55.2959H76.7969V410.112H552.957V55.2959Z" fill="white"/>
</mask>
<g mask="url(#mask0_230_13438)">
<path d="M137.547 410.111L198.325 409.903L202.666 409.561L214.243 408.146L217.137 407.282L220.031 405.838L222.926 403.714L225.82 400.921L228.714 397.647L231.608 393.941L233.055 391.775L234.502 389.279L235.949 386.4L238.844 379.622L244.632 364.38L247.526 356.207L251.867 342.715L257.656 323.603L279.362 246.994L286.598 219.868L288.045 215.407L289.492 211.628L292.386 205.543L295.28 200.276L296.727 198.004L298.175 196.259L299.622 195.221L301.069 194.902L302.516 195.124L308.304 196.953L309.751 197.675L311.198 198.916L312.646 200.836L314.093 203.469L315.54 206.754L316.987 210.598L319.881 219.61L327.117 243.907L330.011 253.5L331.458 259.063L334.352 272.098L340.14 300.158L343.035 312.503L345.929 323.284L350.27 337.383L354.611 351.513L358.953 365.829L361.847 374.262L363.294 377.885L364.741 381.058L366.188 383.779L367.635 386.083L369.082 388.037L371.976 391.255L377.765 396.808L380.659 399.384L383.553 401.622L386.447 403.462L389.342 405.028L392.236 406.312L395.13 407.174L402.365 408.51L406.707 409.25L411.048 409.692L418.284 410.038L425.519 410.111" fill="#EFEFEF" fill-opacity="0.4"/>
<path d="M137.547 410.111L198.325 409.903L202.666 409.561L214.243 408.146L217.137 407.282L220.031 405.838L222.926 403.714L225.82 400.921L228.714 397.647L231.608 393.941L233.055 391.775L234.502 389.279L235.949 386.4L238.844 379.622L244.632 364.38L247.526 356.207L251.867 342.715L257.656 323.603L279.362 246.994L286.598 219.868L288.045 215.407L289.492 211.628L292.386 205.543L295.28 200.276L296.727 198.004L298.175 196.259L299.622 195.221L301.069 194.902L302.516 195.124L308.304 196.953L309.751 197.675L311.198 198.916L312.646 200.836L314.093 203.469L315.54 206.754L316.987 210.598L319.881 219.61L327.117 243.907L330.011 253.5L331.458 259.063L334.352 272.098L340.14 300.158L343.035 312.503L345.929 323.284L350.27 337.383L354.611 351.513L358.953 365.829L361.847 374.262L363.294 377.885L364.741 381.058L366.188 383.779L367.635 386.083L369.082 388.037L371.976 391.255L377.765 396.808L380.659 399.384L383.553 401.622L386.447 403.462L389.342 405.028L392.236 406.312L395.13 407.174L402.365 408.51L406.707 409.25L411.048 409.692L418.284 410.038L425.519 410.111" stroke="#EFEFEF" stroke-linecap="square"/>
</g>
<mask id="mask1_230_13438" style="mask-type:luminance" maskUnits="userSpaceOnUse" x="76" y="55" width="477" height="356">
<path d="M552.957 55.2959H76.7969V410.112H552.957V55.2959Z" fill="white"/>
</mask>
<g mask="url(#mask1_230_13438)">
<path d="M144.32 410.111L153.356 409.948L158.519 409.966L163.682 409.992L175.3 409.674L183.044 408.847L188.208 408.197L190.789 407.563L193.371 406.615L195.952 405.463L198.534 404.017L201.116 402.219L204.988 399.178L207.57 396.789L208.86 395.356L210.151 393.644L211.442 391.495L212.733 388.71L214.024 385.103L215.314 380.562L216.605 375.097L219.187 361.953L221.768 347.002L224.35 330.331L226.932 310.579L229.513 287.492L233.386 248.958L235.967 220.26L239.84 175.819L241.13 162.856L242.421 151.559L243.712 142.095L245.003 134.443L246.294 128.369L247.584 123.419L250.166 114.955L251.457 111.113L252.748 107.892L254.038 105.732L255.329 104.911L256.62 105.467L257.911 107.287L259.202 110.228L260.492 114.185L261.783 119.077L263.074 124.839L264.365 131.441L266.946 147.158L270.819 173.633L273.4 188.515L277.273 209.298L285.018 254.824L296.635 315.979L299.216 326.923L301.798 335.843L312.124 367.591L314.706 374.864L315.997 378.049L317.288 380.765L318.578 382.999L321.16 386.415L325.032 390.925L331.486 399.282L332.777 400.232L334.068 400.792L339.231 401.963L340.522 402.631L344.394 405.148L346.976 406.294L353.43 408.284L356.012 408.606L359.884 408.825L368.92 409.961L372.792 410.04L383.118 410.013L389.572 410.016L399.899 410.109L401.19 410.111" fill="#EFEFEF" fill-opacity="0.4"/>
<path d="M144.32 410.111L153.356 409.948L158.519 409.966L163.682 409.992L175.3 409.674L183.044 408.847L188.208 408.197L190.789 407.563L193.371 406.615L195.952 405.463L198.534 404.017L201.116 402.219L204.988 399.178L207.57 396.789L208.86 395.356L210.151 393.644L211.442 391.495L212.733 388.71L214.024 385.103L215.314 380.562L216.605 375.097L219.187 361.953L221.768 347.002L224.35 330.331L226.932 310.579L229.513 287.492L233.386 248.958L235.967 220.26L239.84 175.819L241.13 162.856L242.421 151.559L243.712 142.095L245.003 134.443L246.294 128.369L247.584 123.419L250.166 114.955L251.457 111.113L252.748 107.892L254.038 105.732L255.329 104.911L256.62 105.467L257.911 107.287L259.202 110.228L260.492 114.185L261.783 119.077L263.074 124.839L264.365 131.441L266.946 147.158L270.819 173.633L273.4 188.515L277.273 209.298L285.018 254.824L296.635 315.979L299.216 326.923L301.798 335.843L312.124 367.591L314.706 374.864L315.997 378.049L317.288 380.765L318.578 382.999L321.16 386.415L325.032 390.925L331.486 399.282L332.777 400.232L334.068 400.792L339.231 401.963L340.522 402.631L344.394 405.148L346.976 406.294L353.43 408.284L356.012 408.606L359.884 408.825L368.92 409.961L372.792 410.04L383.118 410.013L389.572 410.016L399.899 410.109L401.19 410.111" stroke="#EFEFEF" stroke-linecap="square"/>
</g>
<mask id="mask2_230_13438" style="mask-type:luminance" maskUnits="userSpaceOnUse" x="76" y="55" width="477" height="356">
<path d="M552.957 55.2959H76.7969V410.112H552.957V55.2959Z" fill="white"/>
</mask>
<g mask="url(#mask2_230_13438)">
<path d="M156.867 410.111L170.959 409.95L178.788 409.96L185.051 409.97L196.011 409.78L202.274 409.743L206.971 409.343L213.234 408.514L217.931 407.646L221.063 406.739L222.629 406.055L224.194 405.142L225.76 403.966L227.326 402.524L230.458 398.966L233.589 394.75L235.155 392.376L236.721 389.705L238.286 386.599L239.852 382.946L241.418 378.729L244.549 369.102L253.944 338.699L255.51 332.797L257.075 326.153L258.641 318.604L261.773 300.949L266.47 272.975L269.601 256.986L275.864 228.801L278.996 215.475L280.562 209.76L282.127 204.956L283.693 200.982L286.825 194.304L289.956 188.02L291.522 185.363L293.088 183.456L294.653 182.546L296.219 182.757L297.785 184.104L299.351 186.489L300.916 189.693L304.048 197.411L307.179 206.007L310.311 215.738L313.442 225.433L319.705 242.651L322.837 253.019L327.534 270.258L332.231 288.717L336.929 307.835L340.06 319.1L343.192 329.209L346.323 338.686L349.455 347.114L351.02 350.743L354.152 356.876L357.283 362.07L363.546 371.574L374.507 387.958L377.638 391.802L380.77 395.076L383.901 397.934L387.033 400.324L390.164 402.09L393.296 403.327L402.69 406.473L405.822 407.045L427.742 409.75L434.005 409.904L452.794 409.967L468.452 410.111" fill="#EFEFEF" fill-opacity="0.4"/>
<path d="M156.867 410.111L170.959 409.95L178.788 409.96L185.051 409.97L196.011 409.78L202.274 409.743L206.971 409.343L213.234 408.514L217.931 407.646L221.063 406.739L222.629 406.055L224.194 405.142L225.76 403.966L227.326 402.524L230.458 398.966L233.589 394.75L235.155 392.376L236.721 389.705L238.286 386.599L239.852 382.946L241.418 378.729L244.549 369.102L253.944 338.699L255.51 332.797L257.075 326.153L258.641 318.604L261.773 300.949L266.47 272.975L269.601 256.986L275.864 228.801L278.996 215.475L280.562 209.76L282.127 204.956L283.693 200.982L286.825 194.304L289.956 188.02L291.522 185.363L293.088 183.456L294.653 182.546L296.219 182.757L297.785 184.104L299.351 186.489L300.916 189.693L304.048 197.411L307.179 206.007L310.311 215.738L313.442 225.433L319.705 242.651L322.837 253.019L327.534 270.258L332.231 288.717L336.929 307.835L340.06 319.1L343.192 329.209L346.323 338.686L349.455 347.114L351.02 350.743L354.152 356.876L357.283 362.07L363.546 371.574L374.507 387.958L377.638 391.802L380.77 395.076L383.901 397.934L387.033 400.324L390.164 402.09L393.296 403.327L402.69 406.473L405.822 407.045L427.742 409.75L434.005 409.904L452.794 409.967L468.452 410.111" stroke="#EFEFEF" stroke-linecap="square"/>
</g>
<mask id="mask3_230_13438" style="mask-type:luminance" maskUnits="userSpaceOnUse" x="76" y="55" width="477" height="356">
<path d="M552.957 55.2959H76.7969V410.112H552.957V55.2959Z" fill="white"/>
</mask>
<g mask="url(#mask3_230_13438)">
<path d="M181.812 410.111L191.794 409.976L204.271 409.458L209.262 408.758L220.491 406.893L222.986 406.058L225.481 404.789L227.977 402.915L231.72 399.334L239.206 392.051L242.949 387.582L246.692 383.26L250.435 379.097L252.931 375.599L255.426 371.209L259.169 363.643L261.664 358.147L264.16 351.761L266.655 344.153L271.646 326.975L276.637 309.451L279.132 299.109L286.618 265.14L289.113 256.138L292.856 244.461L295.352 236.721L297.847 228.135L304.086 205.532L306.581 198.684L309.076 193.314L311.572 188.663L312.819 186.594L314.067 184.871L315.315 183.687L316.562 183.206L317.81 183.502L319.058 184.529L320.306 186.127L325.296 193.59L329.039 197.726L330.287 199.574L331.535 202.054L332.782 205.281L334.03 209.237L336.525 218.796L340.268 235.097L344.012 252.677L349.002 277.73L352.745 297.558L358.984 331.32L361.479 342.688L363.975 352.282L367.718 364.758L371.461 376.332L373.956 383.342L376.451 389.375L378.947 394.144L380.194 396.037L382.69 399.047L385.185 401.452L388.928 404.619L391.424 406.428L393.919 407.861L396.414 408.869L398.91 409.485L401.405 409.801L405.148 409.963L416.377 409.969L430.102 410.111" fill="#EFEFEF" fill-opacity="0.4"/>
<path d="M181.812 410.111L191.794 409.976L204.271 409.458L209.262 408.758L220.491 406.893L222.986 406.058L225.481 404.789L227.977 402.915L231.72 399.334L239.206 392.051L242.949 387.582L246.692 383.26L250.435 379.097L252.931 375.599L255.426 371.209L259.169 363.643L261.664 358.147L264.16 351.761L266.655 344.153L271.646 326.975L276.637 309.451L279.132 299.109L286.618 265.14L289.113 256.138L292.856 244.461L295.352 236.721L297.847 228.135L304.086 205.532L306.581 198.684L309.076 193.314L311.572 188.663L312.819 186.594L314.067 184.871L315.315 183.687L316.562 183.206L317.81 183.502L319.058 184.529L320.306 186.127L325.296 193.59L329.039 197.726L330.287 199.574L331.535 202.054L332.782 205.281L334.03 209.237L336.525 218.796L340.268 235.097L344.012 252.677L349.002 277.73L352.745 297.558L358.984 331.32L361.479 342.688L363.975 352.282L367.718 364.758L371.461 376.332L373.956 383.342L376.451 389.375L378.947 394.144L380.194 396.037L382.69 399.047L385.185 401.452L388.928 404.619L391.424 406.428L393.919 407.861L396.414 408.869L398.91 409.485L401.405 409.801L405.148 409.963L416.377 409.969L430.102 410.111" stroke="#EFEFEF" stroke-linecap="square"/>
</g>
<mask id="mask4_230_13438" style="mask-type:luminance" maskUnits="userSpaceOnUse" x="76" y="55" width="477" height="356">
<path d="M552.957 55.2959H76.7969V410.112H552.957V55.2959Z" fill="white"/>
</mask>
<g mask="url(#mask4_230_13438)">
<path d="M164.219 410.11L170.782 409.965L176.033 409.732L189.16 409.755L199.661 409.21L212.788 407.33L216.726 406.339L219.351 405.513L220.664 404.94L221.976 404.183L223.289 403.216L225.914 400.694L228.54 397.534L231.165 393.726L233.79 389.296L237.728 381.988L240.354 376.539L242.979 370.322L245.605 363.163L248.23 354.764L250.855 344.836L253.481 333.453L256.106 320.489L258.731 305.356L261.357 287.588L269.233 230.145L274.483 197.724L277.109 181.98L279.734 168.367L286.297 138.697L287.61 134.174L288.923 131.219L290.235 130.003L291.548 130.401L292.861 132.131L294.173 134.882L296.799 142.223L300.737 153.705L303.362 161.373L304.675 165.982L305.988 171.463L307.3 177.922L309.926 193.393L313.864 219.801L321.74 272.537L324.365 288.354L328.303 309.255L332.241 329.385L334.866 341.431L338.804 357.992L341.43 368.211L342.742 372.689L344.055 376.503L345.368 379.563L346.68 381.924L349.306 385.405L351.931 388.751L355.869 394.113L358.495 397.098L361.12 399.418L365.058 402.188L367.683 403.809L370.309 405.092L372.934 406.069L375.559 406.816L378.185 407.282L382.123 407.871L388.686 409.161L392.624 409.546L397.875 409.773L416.252 409.923L422.816 410.102L425.441 410.111" fill="#EFEFEF" fill-opacity="0.4"/>
<path d="M164.219 410.11L170.782 409.965L176.033 409.732L189.16 409.755L199.661 409.21L212.788 407.33L216.726 406.339L219.351 405.513L220.664 404.94L221.976 404.183L223.289 403.216L225.914 400.694L228.54 397.534L231.165 393.726L233.79 389.296L237.728 381.988L240.354 376.539L242.979 370.322L245.605 363.163L248.23 354.764L250.855 344.836L253.481 333.453L256.106 320.489L258.731 305.356L261.357 287.588L269.233 230.145L274.483 197.724L277.109 181.98L279.734 168.367L286.297 138.697L287.61 134.174L288.923 131.219L290.235 130.003L291.548 130.401L292.861 132.131L294.173 134.882L296.799 142.223L300.737 153.705L303.362 161.373L304.675 165.982L305.988 171.463L307.3 177.922L309.926 193.393L313.864 219.801L321.74 272.537L324.365 288.354L328.303 309.255L332.241 329.385L334.866 341.431L338.804 357.992L341.43 368.211L342.742 372.689L344.055 376.503L345.368 379.563L346.68 381.924L349.306 385.405L351.931 388.751L355.869 394.113L358.495 397.098L361.12 399.418L365.058 402.188L367.683 403.809L370.309 405.092L372.934 406.069L375.559 406.816L378.185 407.282L382.123 407.871L388.686 409.161L392.624 409.546L397.875 409.773L416.252 409.923L422.816 410.102L425.441 410.111" stroke="#EFEFEF" stroke-linecap="square"/>
</g>
<mask id="mask5_230_13438" style="mask-type:luminance" maskUnits="userSpaceOnUse" x="76" y="55" width="477" height="356">
<path d="M552.957 55.2959H76.7969V410.112H552.957V55.2959Z" fill="white"/>
</mask>
<g mask="url(#mask5_230_13438)">
<path d="M166.734 410.111L210.362 409.931L216.38 409.558L220.893 408.926L228.415 407.315L231.424 406.516L234.433 405.362L237.441 403.674L240.45 401.416L249.477 393.542L252.485 390.592L255.494 386.881L258.503 382.394L263.016 374.794L266.025 369.109L269.034 362.387L272.043 354.146L275.051 344.449L281.069 323.244L287.087 301.383L294.609 273.534L300.626 252.897L303.635 243.17L306.644 234.35L309.653 226.89L314.166 217.423L318.679 208.169L320.184 205.362L321.688 202.909L323.192 200.921L324.697 199.479L326.201 198.654L327.706 198.521L329.21 199.172L330.714 200.689L332.219 203.08L333.723 206.226L339.741 220.845L345.758 233.386L347.263 237.563L348.767 242.61L350.272 248.521L353.281 262.051L356.289 275.584L359.298 287.182L362.307 296.863L368.325 315.281L372.838 330.264L380.36 356.011L383.369 364.465L386.377 371.329L389.386 377.242L393.899 385.547L396.908 390.617L399.917 394.8L402.926 398.004L405.935 400.485L408.943 402.39L411.952 403.738L414.961 404.672L420.979 406.088L430.005 408.15L434.518 409.099L439.032 409.601L446.554 409.976L460.093 410.093L466.111 410.111" fill="#EFEFEF" fill-opacity="0.4"/>
<path d="M166.734 410.111L210.362 409.931L216.38 409.558L220.893 408.926L228.415 407.315L231.424 406.516L234.433 405.362L237.441 403.674L240.45 401.416L249.477 393.542L252.485 390.592L255.494 386.881L258.503 382.394L263.016 374.794L266.025 369.109L269.034 362.387L272.043 354.146L275.051 344.449L281.069 323.244L287.087 301.383L294.609 273.534L300.626 252.897L303.635 243.17L306.644 234.35L309.653 226.89L314.166 217.423L318.679 208.169L320.184 205.362L321.688 202.909L323.192 200.921L324.697 199.479L326.201 198.654L327.706 198.521L329.21 199.172L330.714 200.689L332.219 203.08L333.723 206.226L339.741 220.845L345.758 233.386L347.263 237.563L348.767 242.61L350.272 248.521L353.281 262.051L356.289 275.584L359.298 287.182L362.307 296.863L368.325 315.281L372.838 330.264L380.36 356.011L383.369 364.465L386.377 371.329L389.386 377.242L393.899 385.547L396.908 390.617L399.917 394.8L402.926 398.004L405.935 400.485L408.943 402.39L411.952 403.738L414.961 404.672L420.979 406.088L430.005 408.15L434.518 409.099L439.032 409.601L446.554 409.976L460.093 410.093L466.111 410.111" stroke="#EFEFEF" stroke-linecap="square"/>
</g>
<mask id="mask6_230_13438" style="mask-type:luminance" maskUnits="userSpaceOnUse" x="76" y="55" width="477" height="356">
<path d="M552.957 55.2959H76.7969V410.112H552.957V55.2959Z" fill="white"/>
</mask>
<g mask="url(#mask6_230_13438)">
<path d="M135.281 410.111L158.098 409.919L168.47 409.089L171.581 408.791L174.693 408.589L177.804 407.987L179.878 407.658L185.064 407.528L187.138 406.932L194.399 404.095L196.473 402.916L198.547 401.082L200.621 398.594L202.696 395.554L205.807 390.428L207.881 386.198L209.956 380.59L212.03 373.583L214.104 365.401L216.179 355.776L218.253 344.617L220.327 332.179L222.401 317.996L225.513 292.947L228.624 268.238L231.736 243.421L233.81 224.783L238.996 176.322L241.07 157.582L246.256 105.404L248.33 90.7682L250.404 79.7189L251.441 75.7675L252.479 73.2505L253.516 72.1924L254.553 72.2602L257.664 74.1997L259.739 75.2217L260.776 76.1984L261.813 77.8555L262.85 80.4629L263.887 84.2683L264.924 89.4166L265.961 95.8644L268.036 111.633L271.147 138.722L274.259 168.409L276.333 190.213L279.444 226.659L282.556 263L285.667 294.627L289.816 334.622L290.853 342.7L291.89 349.417L292.927 354.872L295.002 363.491L297.076 371.98L301.224 391.067L302.262 394.812L303.299 397.777L304.336 400.018L305.373 401.679L306.41 402.92L308.484 404.677L310.559 405.966L313.67 407.409L317.819 408.973L319.893 409.417L323.004 409.667L337.524 410.072L341.673 410.111" fill="#EFEFEF" fill-opacity="0.4"/>
<path d="M135.281 410.111L158.098 409.919L168.47 409.089L171.581 408.791L174.693 408.589L177.804 407.987L179.878 407.658L185.064 407.528L187.138 406.932L194.399 404.095L196.473 402.916L198.547 401.082L200.621 398.594L202.696 395.554L205.807 390.428L207.881 386.198L209.956 380.59L212.03 373.583L214.104 365.401L216.179 355.776L218.253 344.617L220.327 332.179L222.401 317.996L225.513 292.947L228.624 268.238L231.736 243.421L233.81 224.783L238.996 176.322L241.07 157.582L246.256 105.404L248.33 90.7682L250.404 79.7189L251.441 75.7675L252.479 73.2505L253.516 72.1924L254.553 72.2602L257.664 74.1997L259.739 75.2217L260.776 76.1984L261.813 77.8555L262.85 80.4629L263.887 84.2683L264.924 89.4166L265.961 95.8644L268.036 111.633L271.147 138.722L274.259 168.409L276.333 190.213L279.444 226.659L282.556 263L285.667 294.627L289.816 334.622L290.853 342.7L291.89 349.417L292.927 354.872L295.002 363.491L297.076 371.98L301.224 391.067L302.262 394.812L303.299 397.777L304.336 400.018L305.373 401.679L306.41 402.92L308.484 404.677L310.559 405.966L313.67 407.409L317.819 408.973L319.893 409.417L323.004 409.667L337.524 410.072L341.673 410.111" stroke="#EFEFEF" stroke-linecap="square"/>
</g>
<mask id="mask7_230_13438" style="mask-type:luminance" maskUnits="userSpaceOnUse" x="76" y="55" width="477" height="356">
<path d="M552.957 55.2959H76.7969V410.112H552.957V55.2959Z" fill="white"/>
</mask>
<g mask="url(#mask7_230_13438)">
<path d="M165.031 410.11L180.337 409.975L192.582 409.564L195.644 409.607L197.174 409.505L200.236 408.879L203.297 408.116L206.358 407.744L214.011 407.17L215.542 406.682L217.072 405.862L220.134 403.438L223.195 400.99L226.256 398.706L227.787 397.206L229.317 395.183L230.848 392.533L233.909 385.897L236.971 378.312L238.501 373.86L241.562 363.473L243.093 357.677L244.624 351.276L247.685 336.159L252.277 311.159L253.807 301.895L255.338 291.368L256.869 279.399L259.93 251.948L267.583 178.859L270.644 152.518L273.706 130.207L276.767 110.82L278.297 102.83L279.828 96.242L281.359 90.8393L282.889 86.7694L284.42 84.8467L285.951 85.9198L287.481 90.0337L289.012 96.3994L290.542 104.131L293.604 122.04L296.665 141.709L298.196 152.387L299.726 164.416L302.787 192.799L305.849 220.939L308.91 245.59L311.971 268.224L315.032 286.841L321.155 321.065L324.216 334.317L325.747 340.766L328.808 355.994L330.339 363.846L331.869 370.705L333.4 376.22L334.931 380.562L336.461 384.028L337.992 386.79L339.522 388.962L344.114 394.367L348.706 400.552L350.237 402.079L351.767 403.154L353.298 403.881L356.359 404.817L364.012 406.776L370.135 408.281L373.196 408.762L385.441 409.534L403.809 409.92L409.931 410.098L463.503 410.053L469.626 410.11" fill="#EFEFEF" fill-opacity="0.4"/>
<path d="M165.031 410.11L180.337 409.975L192.582 409.564L195.644 409.607L197.174 409.505L200.236 408.879L203.297 408.116L206.358 407.744L214.011 407.17L215.542 406.682L217.072 405.862L220.134 403.438L223.195 400.99L226.256 398.706L227.787 397.206L229.317 395.183L230.848 392.533L233.909 385.897L236.971 378.312L238.501 373.86L241.562 363.473L243.093 357.677L244.624 351.276L247.685 336.159L252.277 311.159L253.807 301.895L255.338 291.368L256.869 279.399L259.93 251.948L267.583 178.859L270.644 152.518L273.706 130.207L276.767 110.82L278.297 102.83L279.828 96.242L281.359 90.8393L282.889 86.7694L284.42 84.8467L285.951 85.9198L287.481 90.0337L289.012 96.3994L290.542 104.131L293.604 122.04L296.665 141.709L298.196 152.387L299.726 164.416L302.787 192.799L305.849 220.939L308.91 245.59L311.971 268.224L315.032 286.841L321.155 321.065L324.216 334.317L325.747 340.766L328.808 355.994L330.339 363.846L331.869 370.705L333.4 376.22L334.931 380.562L336.461 384.028L337.992 386.79L339.522 388.962L344.114 394.367L348.706 400.552L350.237 402.079L351.767 403.154L353.298 403.881L356.359 404.817L364.012 406.776L370.135 408.281L373.196 408.762L385.441 409.534L403.809 409.92L409.931 410.098L463.503 410.053L469.626 410.11" stroke="#EFEFEF" stroke-linecap="square"/>
</g>
<mask id="mask8_230_13438" style="mask-type:luminance" maskUnits="userSpaceOnUse" x="76" y="55" width="477" height="356">
<path d="M552.957 55.2959H76.7969V410.112H552.957V55.2959Z" fill="white"/>
</mask>
<g mask="url(#mask8_230_13438)">
<path d="M160.102 410.111L173.268 409.953L182.045 409.787L189.36 409.753L195.212 409.34L201.063 408.732L203.989 408.143L206.915 407.188L211.304 405.272L214.229 403.772L215.692 402.874L217.155 401.798L218.618 400.482L220.081 398.873L221.544 396.933L223.007 394.636L224.47 391.958L225.933 388.869L227.396 385.336L228.859 381.327L231.784 371.859L234.71 360.692L237.636 348.31L242.025 328.434L252.265 281.086L255.191 269.284L258.117 258.624L262.506 243.691L265.432 234.851L266.894 231.299L268.357 228.534L269.82 226.549L271.283 225.191L272.746 224.232L277.135 222.054L280.061 220.926L281.524 220.575L284.449 220.35L288.838 220.452L290.301 220.246L294.69 219.267L296.153 219.603L297.616 220.729L299.079 222.778L300.542 225.713L302.004 229.343L309.319 249.38L313.708 260.351L316.634 268.651L319.559 278.212L322.485 287.903L325.411 296.191L335.652 321.366L338.577 328.394L347.355 348.148L353.207 361.635L356.132 367.669L359.058 372.968L361.984 377.591L366.373 383.82L370.762 389.719L373.687 393.264L375.15 394.772L376.613 396.047L378.076 397.083L381.002 398.577L386.854 401.01L392.705 403.73L397.094 405.331L401.483 406.712L404.409 407.439L408.797 408.166L416.112 408.989L426.352 409.542L438.056 409.972L448.296 410.107L451.222 410.111" fill="#EFEFEF" fill-opacity="0.4"/>
<path d="M160.102 410.111L173.268 409.953L182.045 409.787L189.36 409.753L195.212 409.34L201.063 408.732L203.989 408.143L206.915 407.188L211.304 405.272L214.229 403.772L215.692 402.874L217.155 401.798L218.618 400.482L220.081 398.873L221.544 396.933L223.007 394.636L224.47 391.958L225.933 388.869L227.396 385.336L228.859 381.327L231.784 371.859L234.71 360.692L237.636 348.31L242.025 328.434L252.265 281.086L255.191 269.284L258.117 258.624L262.506 243.691L265.432 234.851L266.894 231.299L268.357 228.534L269.82 226.549L271.283 225.191L272.746 224.232L277.135 222.054L280.061 220.926L281.524 220.575L284.449 220.35L288.838 220.452L290.301 220.246L294.69 219.267L296.153 219.603L297.616 220.729L299.079 222.778L300.542 225.713L302.004 229.343L309.319 249.38L313.708 260.351L316.634 268.651L319.559 278.212L322.485 287.903L325.411 296.191L335.652 321.366L338.577 328.394L347.355 348.148L353.207 361.635L356.132 367.669L359.058 372.968L361.984 377.591L366.373 383.82L370.762 389.719L373.687 393.264L375.15 394.772L376.613 396.047L378.076 397.083L381.002 398.577L386.854 401.01L392.705 403.73L397.094 405.331L401.483 406.712L404.409 407.439L408.797 408.166L416.112 408.989L426.352 409.542L438.056 409.972L448.296 410.107L451.222 410.111" stroke="#EFEFEF" stroke-linecap="square"/>
</g>
<mask id="mask9_230_13438" style="mask-type:luminance" maskUnits="userSpaceOnUse" x="76" y="55" width="477" height="356">
<path d="M552.957 55.2959H76.7969V410.112H552.957V55.2959Z" fill="white"/>
</mask>
<g mask="url(#mask9_230_13438)">
<path d="M155.352 410.111L162.975 409.981L176.045 409.388L179.312 409.272L184.757 409.484L186.936 409.178L189.114 408.436L192.381 406.997L194.559 406.521L198.916 406.128L201.094 405.333L204.361 403.556L206.54 402.105L208.718 400.359L210.896 398.356L213.074 395.924L214.163 394.333L215.252 392.367L216.342 389.977L217.431 387.134L218.52 383.803L219.609 379.933L221.787 370.527L223.965 359.346L226.144 346.811L228.322 332.334L230.5 315.168L232.678 295.344L235.945 262.118L246.837 144.888L249.015 124.902L251.193 108.368L253.371 94.7066L255.549 83.6304L256.639 79.4754L257.728 76.6351L258.817 75.2734L259.906 75.3225L260.995 76.5288L262.084 78.6039L263.173 81.3692L264.262 84.7983L265.351 88.9444L266.44 93.8409L268.619 105.894L269.708 113.197L271.886 130.853L276.242 169.697L283.866 230.468L289.312 277.788L290.401 285.333L292.579 297.282L294.757 308.33L299.114 332.333L302.381 347.681L304.559 356.892L306.737 364.501L308.916 370.513L315.45 387.142L316.539 389.089L317.628 390.594L318.718 391.743L320.896 393.46L323.074 395.227L324.163 396.378L326.341 399.302L328.52 402.51L329.609 403.907L330.698 405.037L331.787 405.876L332.876 406.458L335.054 407.154L340.5 408.394L343.767 408.74L362.282 409.824L372.084 410.11" fill="#EFEFEF" fill-opacity="0.4"/>
<path d="M155.352 410.111L162.975 409.981L176.045 409.388L179.312 409.272L184.757 409.484L186.936 409.178L189.114 408.436L192.381 406.997L194.559 406.521L198.916 406.128L201.094 405.333L204.361 403.556L206.54 402.105L208.718 400.359L210.896 398.356L213.074 395.924L214.163 394.333L215.252 392.367L216.342 389.977L217.431 387.134L218.52 383.803L219.609 379.933L221.787 370.527L223.965 359.346L226.144 346.811L228.322 332.334L230.5 315.168L232.678 295.344L235.945 262.118L246.837 144.888L249.015 124.902L251.193 108.368L253.371 94.7066L255.549 83.6304L256.639 79.4754L257.728 76.6351L258.817 75.2734L259.906 75.3225L260.995 76.5288L262.084 78.6039L263.173 81.3692L264.262 84.7983L265.351 88.9444L266.44 93.8409L268.619 105.894L269.708 113.197L271.886 130.853L276.242 169.697L283.866 230.468L289.312 277.788L290.401 285.333L292.579 297.282L294.757 308.33L299.114 332.333L302.381 347.681L304.559 356.892L306.737 364.501L308.916 370.513L315.45 387.142L316.539 389.089L317.628 390.594L318.718 391.743L320.896 393.46L323.074 395.227L324.163 396.378L326.341 399.302L328.52 402.51L329.609 403.907L330.698 405.037L331.787 405.876L332.876 406.458L335.054 407.154L340.5 408.394L343.767 408.74L362.282 409.824L372.084 410.11" stroke="#EFEFEF" stroke-linecap="square"/>
</g>
<mask id="mask10_230_13438" style="mask-type:luminance" maskUnits="userSpaceOnUse" x="76" y="55" width="477" height="356">
<path d="M552.957 55.2959H76.7969V410.112H552.957V55.2959Z" fill="white"/>
</mask>
<g mask="url(#mask10_230_13438)">
<path d="M148.328 410.11L160.992 409.941L170.49 409.442L181.043 408.261L183.154 407.746L185.265 406.943L187.375 405.846L189.486 404.435L192.652 401.779L195.818 399.115L198.984 396.569L201.094 394.304L203.205 391.216L205.316 387.174L208.482 379.934L210.592 374.686L212.703 368.458L214.814 360.646L219.035 342.305L221.146 332.673L223.256 320.965L225.367 305.796L238.031 202.461L245.418 147.441L247.529 133.398L249.639 121.659L250.695 116.901L251.75 113.083L252.805 110.294L253.861 108.459L254.916 107.327L257.027 105.887L258.082 105.259L259.137 104.862L260.193 105.031L261.248 106.082L262.303 108.178L263.359 111.292L264.414 115.265L266.525 125.183L268.635 137.571L270.746 152.592L278.133 208.935L281.299 233.83L286.576 277.302L288.686 292.054L290.797 304.949L293.963 322.148L300.295 354.431L302.406 363.165L304.516 369.898L309.793 384.032L311.904 389.211L312.959 391.387L314.014 393.213L315.07 394.697L317.18 396.92L320.346 399.892L325.623 405.271L327.733 406.76L329.844 407.73L331.955 408.252L336.176 408.717L345.674 409.445L356.227 410.099L358.338 410.11" fill="#EFEFEF" fill-opacity="0.4"/>
<path d="M148.328 410.11L160.992 409.941L170.49 409.442L181.043 408.261L183.154 407.746L185.265 406.943L187.375 405.846L189.486 404.435L192.652 401.779L195.818 399.115L198.984 396.569L201.094 394.304L203.205 391.216L205.316 387.174L208.482 379.934L210.592 374.686L212.703 368.458L214.814 360.646L219.035 342.305L221.146 332.673L223.256 320.965L225.367 305.796L238.031 202.461L245.418 147.441L247.529 133.398L249.639 121.659L250.695 116.901L251.75 113.083L252.805 110.294L253.861 108.459L254.916 107.327L257.027 105.887L258.082 105.259L259.137 104.862L260.193 105.031L261.248 106.082L262.303 108.178L263.359 111.292L264.414 115.265L266.525 125.183L268.635 137.571L270.746 152.592L278.133 208.935L281.299 233.83L286.576 277.302L288.686 292.054L290.797 304.949L293.963 322.148L300.295 354.431L302.406 363.165L304.516 369.898L309.793 384.032L311.904 389.211L312.959 391.387L314.014 393.213L315.07 394.697L317.18 396.92L320.346 399.892L325.623 405.271L327.733 406.76L329.844 407.73L331.955 408.252L336.176 408.717L345.674 409.445L356.227 410.099L358.338 410.11" stroke="#EFEFEF" stroke-linecap="square"/>
</g>
<mask id="mask11_230_13438" style="mask-type:luminance" maskUnits="userSpaceOnUse" x="76" y="55" width="477" height="356">
<path d="M552.957 55.2959H76.7969V410.112H552.957V55.2959Z" fill="white"/>
</mask>
<g mask="url(#mask11_230_13438)">
<path d="M131.906 410.111L168.557 409.943L175.344 409.415L190.276 407.991L192.991 407.45L195.706 406.544L198.421 405.228L201.136 403.442L203.851 401.225L206.566 398.732L209.281 395.884L211.995 392.332L213.353 390.174L216.068 384.976L218.783 378.684L220.14 375.101L221.498 371.091L222.855 366.494L224.212 361.199L226.927 348.705L231 327.831L233.715 313.023L237.787 288.509L240.502 272.114L243.217 257.424L245.932 245.028L248.646 233.356L251.361 219.915L255.434 197.907L256.791 191.661L258.149 186.452L259.506 182.311L260.863 179.121L262.221 176.696L263.578 174.845L264.936 173.427L266.293 172.386L267.651 171.758L269.008 171.65L270.365 172.18L271.723 173.418L273.08 175.345L274.438 177.856L277.153 183.933L281.225 193.281L283.94 199.429L285.297 202.927L286.655 206.932L289.37 216.571L292.085 227.841L298.872 257.637L301.587 267.549L305.659 282.111L308.374 293.245L316.519 328.723L319.233 337.751L327.378 361.198L330.093 368.296L332.808 374.365L338.238 385.216L340.953 389.99L342.31 391.951L345.025 395.078L347.74 397.6L350.455 399.805L353.17 401.723L357.242 404.206L359.957 405.65L362.672 406.769L365.387 407.465L369.459 408.043L384.391 409.794L392.535 410.015L402.038 410.111" fill="#EFEFEF" fill-opacity="0.4"/>
<path d="M131.906 410.111L168.557 409.943L175.344 409.415L190.276 407.991L192.991 407.45L195.706 406.544L198.421 405.228L201.136 403.442L203.851 401.225L206.566 398.732L209.281 395.884L211.995 392.332L213.353 390.174L216.068 384.976L218.783 378.684L220.14 375.101L221.498 371.091L222.855 366.494L224.212 361.199L226.927 348.705L231 327.831L233.715 313.023L237.787 288.509L240.502 272.114L243.217 257.424L245.932 245.028L248.646 233.356L251.361 219.915L255.434 197.907L256.791 191.661L258.149 186.452L259.506 182.311L260.863 179.121L262.221 176.696L263.578 174.845L264.936 173.427L266.293 172.386L267.651 171.758L269.008 171.65L270.365 172.18L271.723 173.418L273.08 175.345L274.438 177.856L277.153 183.933L281.225 193.281L283.94 199.429L285.297 202.927L286.655 206.932L289.37 216.571L292.085 227.841L298.872 257.637L301.587 267.549L305.659 282.111L308.374 293.245L316.519 328.723L319.233 337.751L327.378 361.198L330.093 368.296L332.808 374.365L338.238 385.216L340.953 389.99L342.31 391.951L345.025 395.078L347.74 397.6L350.455 399.805L353.17 401.723L357.242 404.206L359.957 405.65L362.672 406.769L365.387 407.465L369.459 408.043L384.391 409.794L392.535 410.015L402.038 410.111" stroke="#EFEFEF" stroke-linecap="square"/>
</g>
<mask id="mask12_230_13438" style="mask-type:luminance" maskUnits="userSpaceOnUse" x="76" y="55" width="477" height="356">
<path d="M552.957 55.2959H76.7969V410.112H552.957V55.2959Z" fill="white"/>
</mask>
<g mask="url(#mask12_230_13438)">
<path d="M179.961 410.112L202.914 409.953L209.976 409.689L215.273 409.099L218.804 408.458L222.335 407.572L225.867 406.386L229.398 404.894L234.695 402.229L243.523 397.291L250.585 393.254L254.116 391.503L268.241 385.134L270.007 384.152L271.772 382.967L273.538 381.5L275.303 379.699L277.069 377.557L280.6 372.476L285.897 364.507L289.428 359.874L294.725 353.268L298.256 348.344L305.319 337.591L308.85 331.927L312.381 325.718L328.271 296.018L333.568 286.523L337.099 280.915L349.459 262.939L351.224 260.875L352.99 259.307L354.755 258.27L356.521 257.7L358.287 257.463L361.818 257.438L365.349 257.738L367.115 258.21L368.88 259.079L370.646 260.441L372.411 262.313L374.177 264.625L377.708 270.005L383.005 278.153L386.536 283.5L390.067 289.363L395.364 299.208L425.379 356.189L428.911 362.182L432.442 367.339L435.973 371.654L439.504 375.4L446.567 382.299L453.629 388.811L462.457 396.549L465.988 399.286L469.519 401.531L473.051 403.268L476.582 404.634L481.879 406.323L487.175 407.723L492.472 408.723L497.769 409.312L504.831 409.706L517.191 410.035L531.315 410.112" fill="#EFEFEF" fill-opacity="0.4"/>
<path d="M179.961 410.112L202.914 409.953L209.976 409.689L215.273 409.099L218.804 408.458L222.335 407.572L225.867 406.386L229.398 404.894L234.695 402.229L243.523 397.291L250.585 393.254L254.116 391.503L268.241 385.134L270.007 384.152L271.772 382.967L273.538 381.5L275.303 379.699L277.069 377.557L280.6 372.476L285.897 364.507L289.428 359.874L294.725 353.268L298.256 348.344L305.319 337.591L308.85 331.927L312.381 325.718L328.271 296.018L333.568 286.523L337.099 280.915L349.459 262.939L351.224 260.875L352.99 259.307L354.755 258.27L356.521 257.7L358.287 257.463L361.818 257.438L365.349 257.738L367.115 258.21L368.88 259.079L370.646 260.441L372.411 262.313L374.177 264.625L377.708 270.005L383.005 278.153L386.536 283.5L390.067 289.363L395.364 299.208L425.379 356.189L428.911 362.182L432.442 367.339L435.973 371.654L439.504 375.4L446.567 382.299L453.629 388.811L462.457 396.549L465.988 399.286L469.519 401.531L473.051 403.268L476.582 404.634L481.879 406.323L487.175 407.723L492.472 408.723L497.769 409.312L504.831 409.706L517.191 410.035L531.315 410.112" stroke="#EFEFEF" stroke-linecap="square"/>
</g>
<mask id="mask13_230_13438" style="mask-type:luminance" maskUnits="userSpaceOnUse" x="76" y="55" width="477" height="356">
<path d="M552.957 55.2959H76.7969V410.112H552.957V55.2959Z" fill="white"/>
</mask>
<g mask="url(#mask13_230_13438)">
<path d="M146.156 410.11L166.146 409.93L170.354 409.623L174.562 409.088L179.823 408.358L182.979 407.922L185.083 407.25L189.291 405.675L192.448 404.63L194.552 403.603L198.76 401.019L201.916 398.779L204.02 396.892L212.437 388.05L213.489 386.574L215.593 382.701L217.697 377.967L219.802 372.712L221.906 366.57L224.01 359.154L227.166 346.182L236.635 304.181L238.739 293.485L242.947 271.052L247.156 249.777L249.26 236.645L256.624 186.921L258.728 176.277L260.833 168.056L263.989 156.681L266.093 147.944L270.301 129.944L271.353 126.285L272.405 123.318L273.458 121.153L274.51 119.798L275.562 119.165L276.614 119.117L277.666 119.545L278.718 120.419L279.77 121.799L280.822 123.79L281.874 126.489L282.926 129.938L283.978 134.116L286.082 144.473L288.187 157.577L290.291 173.902L293.447 203.038L298.707 252.464L301.864 280.286L305.02 304.913L310.28 341.869L312.384 355.683L314.488 367.862L316.593 378.006L318.697 386.251L320.801 392.745L322.905 397.618L325.009 401.227L327.113 403.991L329.218 406.047L331.322 407.386L333.426 408.205L337.634 409.357L339.738 409.71L342.895 409.895L355.519 410.11" fill="#EFEFEF" fill-opacity="0.4"/>
<path d="M146.156 410.11L166.146 409.93L170.354 409.623L174.562 409.088L179.823 408.358L182.979 407.922L185.083 407.25L189.291 405.675L192.448 404.63L194.552 403.603L198.76 401.019L201.916 398.779L204.02 396.892L212.437 388.05L213.489 386.574L215.593 382.701L217.697 377.967L219.802 372.712L221.906 366.57L224.01 359.154L227.166 346.182L236.635 304.181L238.739 293.485L242.947 271.052L247.156 249.777L249.26 236.645L256.624 186.921L258.728 176.277L260.833 168.056L263.989 156.681L266.093 147.944L270.301 129.944L271.353 126.285L272.405 123.318L273.458 121.153L274.51 119.798L275.562 119.165L276.614 119.117L277.666 119.545L278.718 120.419L279.77 121.799L280.822 123.79L281.874 126.489L282.926 129.938L283.978 134.116L286.082 144.473L288.187 157.577L290.291 173.902L293.447 203.038L298.707 252.464L301.864 280.286L305.02 304.913L310.28 341.869L312.384 355.683L314.488 367.862L316.593 378.006L318.697 386.251L320.801 392.745L322.905 397.618L325.009 401.227L327.113 403.991L329.218 406.047L331.322 407.386L333.426 408.205L337.634 409.357L339.738 409.71L342.895 409.895L355.519 410.11" stroke="#EFEFEF" stroke-linecap="square"/>
</g>
<mask id="mask14_230_13438" style="mask-type:luminance" maskUnits="userSpaceOnUse" x="76" y="55" width="477" height="356">
<path d="M552.957 55.2959H76.7969V410.112H552.957V55.2959Z" fill="white"/>
</mask>
<g mask="url(#mask14_230_13438)">
<path d="M98.4375 410.11L120.914 409.979L123.054 409.72L125.195 409.084L126.265 408.539L127.335 407.805L128.406 406.863L129.476 405.697L130.546 404.287L131.616 402.599L132.687 400.588L133.757 398.206L134.827 395.42L136.968 388.589L139.108 380.026L141.249 369.275L143.39 355.437L145.53 338.069L148.741 307.438L160.514 190.778L162.655 172.788L164.795 157.577L168.006 137.62L170.147 126.668L171.217 122.395L172.287 119.135L173.358 116.975L174.428 115.903L175.498 115.793L176.568 116.432L177.639 117.601L178.709 119.161L179.779 121.104L180.85 123.534L181.92 126.588L182.99 130.334L185.131 139.495L189.412 158.624L191.552 168.275L193.693 179.843L195.834 193.654L199.044 215.233L201.185 227.336L207.607 258.614L210.818 275.519L215.099 295.251L220.45 319.09L223.661 332.188L225.802 339.903L227.942 346.353L230.083 351.88L232.223 356.872L234.364 361.212L237.575 367.166L239.715 371.971L242.926 379.907L245.067 384.226L247.207 387.591L253.629 396.84L254.699 398.003L256.84 399.704L265.402 404.917L268.613 406.763L270.754 407.691L272.894 408.385L276.105 409.044L281.456 409.702L285.738 409.952L294.3 410.057L302.862 409.963L311.424 410.11" fill="#7EB0D5" fill-opacity="0.4"/>
<path d="M98.4375 410.11L120.914 409.979L123.054 409.72L125.195 409.084L126.265 408.539L127.335 407.805L128.406 406.863L129.476 405.697L130.546 404.287L131.616 402.599L132.687 400.588L133.757 398.206L134.827 395.42L136.968 388.589L139.108 380.026L141.249 369.275L143.39 355.437L145.53 338.069L148.741 307.438L160.514 190.778L162.655 172.788L164.795 157.577L168.006 137.62L170.147 126.668L171.217 122.395L172.287 119.135L173.358 116.975L174.428 115.903L175.498 115.793L176.568 116.432L177.639 117.601L178.709 119.161L179.779 121.104L180.85 123.534L181.92 126.588L182.99 130.334L185.131 139.495L189.412 158.624L191.552 168.275L193.693 179.843L195.834 193.654L199.044 215.233L201.185 227.336L207.607 258.614L210.818 275.519L215.099 295.251L220.45 319.09L223.661 332.188L225.802 339.903L227.942 346.353L230.083 351.88L232.223 356.872L234.364 361.212L237.575 367.166L239.715 371.971L242.926 379.907L245.067 384.226L247.207 387.591L253.629 396.84L254.699 398.003L256.84 399.704L265.402 404.917L268.613 406.763L270.754 407.691L272.894 408.385L276.105 409.044L281.456 409.702L285.738 409.952L294.3 410.057L302.862 409.963L311.424 410.11" stroke="#7EB0D5" stroke-linecap="square"/>
</g>
<path d="M535.061 411.061C535.646 410.475 535.646 409.525 535.061 408.939L525.515 399.393C524.929 398.808 523.979 398.808 523.393 399.393C522.808 399.979 522.808 400.929 523.393 401.515L531.879 410L523.393 418.485C522.808 419.071 522.808 420.021 523.393 420.607C523.979 421.192 524.929 421.192 525.515 420.607L535.061 411.061ZM79 411.5H534V408.5H79V411.5Z" fill="black"/>
</svg>
