<svg width="615" height="461" viewBox="0 0 615 461" fill="none" xmlns="http://www.w3.org/2000/svg">
<g clip-path="url(#clip0_230_12798)">
<mask id="mask0_230_12798" style="mask-type:luminance" maskUnits="userSpaceOnUse" x="76" y="55" width="477" height="356">
<path d="M552.957 55.2959H76.7969V410.112H552.957V55.2959Z" fill="white"/>
</mask>
<g mask="url(#mask0_230_12798)">
<path d="M303.406 410.111L319.254 409.88L322.65 409.264L323.782 409.018L326.046 408.98L328.31 409.101L329.442 409.012L331.706 408.342L333.97 407.265L335.102 406.419L336.234 405.389L337.366 404.051L339.63 400.997L340.762 399.536L341.894 397.209L343.026 393.813L344.158 389.861L345.29 385.368L346.422 379.293L347.554 369.956L348.686 356.274L349.818 338.597L352.082 294.312L354.346 242.768L358.874 131.378L360.006 111.751L361.138 98.3039L362.27 90.2013L363.402 86.3916L364.534 87.0588L365.666 94.0955L366.798 107.132L369.062 139.184L370.194 156.927L371.326 178.095L373.59 224.446L375.854 257.275L378.118 289.207L379.25 302.288L382.646 333.126L384.91 351.343L387.174 366.44L388.306 371.913L389.438 376.052L391.702 383.313L393.966 390.883L395.098 393.572L397.362 397.772L399.626 401.542L400.758 403.137L403.022 405.402L404.154 406.226L405.286 406.756L407.55 407.362L416.606 409.189L421.134 409.714L429.058 410.056L435.85 409.958L440.378 410.041L446.038 409.896L449.434 409.948L452.83 410.107L486.79 410.062L490.186 410.051L495.846 410.099L501.506 410.085L510.562 410.112L528.674 410.111" fill="#EFEFEF" fill-opacity="0.4"/>
<path d="M303.406 410.111L319.254 409.88L322.65 409.264L323.782 409.018L326.046 408.98L328.31 409.101L329.442 409.012L331.706 408.342L333.97 407.265L335.102 406.419L336.234 405.389L337.366 404.051L339.63 400.997L340.762 399.536L341.894 397.209L343.026 393.813L344.158 389.861L345.29 385.368L346.422 379.293L347.554 369.956L348.686 356.274L349.818 338.597L352.082 294.312L354.346 242.768L358.874 131.378L360.006 111.751L361.138 98.3039L362.27 90.2013L363.402 86.3916L364.534 87.0588L365.666 94.0955L366.798 107.132L369.062 139.184L370.194 156.927L371.326 178.095L373.59 224.446L375.854 257.275L378.118 289.207L379.25 302.288L382.646 333.126L384.91 351.343L387.174 366.44L388.306 371.913L389.438 376.052L391.702 383.313L393.966 390.883L395.098 393.572L397.362 397.772L399.626 401.542L400.758 403.137L403.022 405.402L404.154 406.226L405.286 406.756L407.55 407.362L416.606 409.189L421.134 409.714L429.058 410.056L435.85 409.958L440.378 410.041L446.038 409.896L449.434 409.948L452.83 410.107L486.79 410.062L490.186 410.051L495.846 410.099L501.506 410.085L510.562 410.112L528.674 410.111" stroke="#EFEFEF" stroke-linecap="square"/>
</g>
<mask id="mask1_230_12798" style="mask-type:luminance" maskUnits="userSpaceOnUse" x="76" y="55" width="477" height="356">
<path d="M552.957 55.2959H76.7969V410.112H552.957V55.2959Z" fill="white"/>
</mask>
<g mask="url(#mask1_230_12798)">
<path d="M284.281 410.111L298.314 409.964L305.33 409.443L307.669 409.642L308.839 409.576L311.177 408.939L314.686 407.865L317.024 407.436L320.533 407.074L322.871 406.331L324.041 405.774L325.21 405.007L327.549 402.968L333.396 396.782L334.565 395.379L335.735 393.662L336.904 391.477L338.074 388.556L339.243 384.699L341.582 374.933L342.751 369.412L343.921 362.941L346.259 346.35L348.598 327.129L350.937 303.949L353.276 276.544L359.123 205.293L361.462 183.31L362.631 173.885L363.8 166.131L364.97 160.256L366.139 156.785L367.309 157.005L368.478 161.92L369.647 171.086L375.494 228.128L379.003 257.309L380.172 269.516L383.68 311.356L386.019 335.283L387.188 345.771L388.358 354.915L389.527 362.719L390.697 369.368L391.866 374.957L393.035 379.469L394.205 382.94L397.713 391.399L398.882 394.749L400.052 397.647L401.221 399.576L403.56 401.753L408.238 406.168L411.746 407.915L412.915 408.34L415.254 408.672L430.456 409.806L444.489 409.737L447.997 409.937L451.505 409.821L455.014 409.874L458.522 409.858L465.538 410.068L471.385 409.877L476.063 410.105L505.298 410.111L516.992 410.111" fill="#EFEFEF" fill-opacity="0.4"/>
<path d="M284.281 410.111L298.314 409.964L305.33 409.443L307.669 409.642L308.839 409.576L311.177 408.939L314.686 407.865L317.024 407.436L320.533 407.074L322.871 406.331L324.041 405.774L325.21 405.007L327.549 402.968L333.396 396.782L334.565 395.379L335.735 393.662L336.904 391.477L338.074 388.556L339.243 384.699L341.582 374.933L342.751 369.412L343.921 362.941L346.259 346.35L348.598 327.129L350.937 303.949L353.276 276.544L359.123 205.293L361.462 183.31L362.631 173.885L363.8 166.131L364.97 160.256L366.139 156.785L367.309 157.005L368.478 161.92L369.647 171.086L375.494 228.128L379.003 257.309L380.172 269.516L383.68 311.356L386.019 335.283L387.188 345.771L388.358 354.915L389.527 362.719L390.697 369.368L391.866 374.957L393.035 379.469L394.205 382.94L397.713 391.399L398.882 394.749L400.052 397.647L401.221 399.576L403.56 401.753L408.238 406.168L411.746 407.915L412.915 408.34L415.254 408.672L430.456 409.806L444.489 409.737L447.997 409.937L451.505 409.821L455.014 409.874L458.522 409.858L465.538 410.068L471.385 409.877L476.063 410.105L505.298 410.111L516.992 410.111" stroke="#EFEFEF" stroke-linecap="square"/>
</g>
<mask id="mask2_230_12798" style="mask-type:luminance" maskUnits="userSpaceOnUse" x="76" y="55" width="477" height="356">
<path d="M552.957 55.2959H76.7969V410.112H552.957V55.2959Z" fill="white"/>
</mask>
<g mask="url(#mask2_230_12798)">
<path d="M293.82 410.111L299.788 409.967L305.755 409.91L321.269 409.523L329.623 408.44L333.204 408.142L334.397 407.784L335.591 407.222L336.784 406.457L337.978 405.465L339.171 404.213L341.558 400.964L343.945 397.209L345.138 395.033L346.332 392.388L347.525 388.969L348.719 384.328L349.912 378.059L351.105 369.965L352.299 359.868L353.492 347.448L354.686 332.549L357.073 297.12L359.459 261.013L361.846 230.42L363.04 217.614L364.233 206.573L365.427 197.542L366.62 191.062L367.814 187.332L369.007 185.814L370.2 185.606L372.587 186.193L373.781 187.159L374.974 190.227L376.168 196.332L380.941 229.719L383.328 252.204L385.715 274.599L386.909 283.644L390.489 306.492L394.069 333.309L395.263 340.84L396.456 347.299L397.649 352.584L400.036 361.588L406.004 386.84L407.197 390.556L408.39 393.444L409.584 395.556L413.164 400.333L415.551 404.03L416.744 405.298L417.938 406.028L421.518 407.551L423.905 408.613L425.099 408.875L431.066 409.387L434.646 409.658L459.708 410.037L478.803 410.061L487.157 409.97L493.125 410.107L515.8 410.077L521.767 410.095L528.928 410.096L531.315 410.111" fill="#EFEFEF" fill-opacity="0.4"/>
<path d="M293.82 410.111L299.788 409.967L305.755 409.91L321.269 409.523L329.623 408.44L333.204 408.142L334.397 407.784L335.591 407.222L336.784 406.457L337.978 405.465L339.171 404.213L341.558 400.964L343.945 397.209L345.138 395.033L346.332 392.388L347.525 388.969L348.719 384.328L349.912 378.059L351.105 369.965L352.299 359.868L353.492 347.448L354.686 332.549L357.073 297.12L359.459 261.013L361.846 230.42L363.04 217.614L364.233 206.573L365.427 197.542L366.62 191.062L367.814 187.332L369.007 185.814L370.2 185.606L372.587 186.193L373.781 187.159L374.974 190.227L376.168 196.332L380.941 229.719L383.328 252.204L385.715 274.599L386.909 283.644L390.489 306.492L394.069 333.309L395.263 340.84L396.456 347.299L397.649 352.584L400.036 361.588L406.004 386.84L407.197 390.556L408.39 393.444L409.584 395.556L413.164 400.333L415.551 404.03L416.744 405.298L417.938 406.028L421.518 407.551L423.905 408.613L425.099 408.875L431.066 409.387L434.646 409.658L459.708 410.037L478.803 410.061L487.157 409.97L493.125 410.107L515.8 410.077L521.767 410.095L528.928 410.096L531.315 410.111" stroke="#EFEFEF" stroke-linecap="square"/>
</g>
<mask id="mask3_230_12798" style="mask-type:luminance" maskUnits="userSpaceOnUse" x="76" y="55" width="477" height="356">
<path d="M552.957 55.2959H76.7969V410.112H552.957V55.2959Z" fill="white"/>
</mask>
<g mask="url(#mask3_230_12798)">
<path d="M291.312 410.111L310.686 409.932L314.104 409.514L317.523 409.761L319.802 409.764L325.5 408.899L328.919 407.229L330.059 406.922L332.338 406.591L333.477 406.232L334.617 405.667L335.756 404.673L338.036 401.943L339.175 400.825L340.315 399.321L341.454 396.912L344.873 388.397L346.013 383.971L348.292 370.657L351.711 350.984L352.85 341.935L353.99 330.598L355.129 317.482L356.269 302.274L358.548 265.686L360.827 218.901L365.386 120.759L366.525 98.5919L367.665 81.7594L368.805 72.5913L369.944 72.1924L371.084 79.9351L372.223 93.6503L373.363 110.837L374.502 131.422L381.34 269.726L383.619 305.229L385.898 338.098L387.038 350.903L388.178 360.241L392.736 388.79L393.875 392.864L395.015 395.886L396.155 398.37L397.294 400.297L400.713 404.864L401.853 406.292L402.992 407.283L404.132 407.887L405.271 408.241L412.109 409.334L414.388 409.847L416.667 409.953L420.086 410.021L422.365 410.01L425.784 409.816L434.901 410.073L439.459 409.897L444.017 410.097L451.994 410.029L457.692 410.112L495.299 410.112L518.091 410.111" fill="#EFEFEF" fill-opacity="0.4"/>
<path d="M291.312 410.111L310.686 409.932L314.104 409.514L317.523 409.761L319.802 409.764L325.5 408.899L328.919 407.229L330.059 406.922L332.338 406.591L333.477 406.232L334.617 405.667L335.756 404.673L338.036 401.943L339.175 400.825L340.315 399.321L341.454 396.912L344.873 388.397L346.013 383.971L348.292 370.657L351.711 350.984L352.85 341.935L353.99 330.598L355.129 317.482L356.269 302.274L358.548 265.686L360.827 218.901L365.386 120.759L366.525 98.5919L367.665 81.7594L368.805 72.5913L369.944 72.1924L371.084 79.9351L372.223 93.6503L373.363 110.837L374.502 131.422L381.34 269.726L383.619 305.229L385.898 338.098L387.038 350.903L388.178 360.241L392.736 388.79L393.875 392.864L395.015 395.886L396.155 398.37L397.294 400.297L400.713 404.864L401.853 406.292L402.992 407.283L404.132 407.887L405.271 408.241L412.109 409.334L414.388 409.847L416.667 409.953L420.086 410.021L422.365 410.01L425.784 409.816L434.901 410.073L439.459 409.897L444.017 410.097L451.994 410.029L457.692 410.112L495.299 410.112L518.091 410.111" stroke="#EFEFEF" stroke-linecap="square"/>
</g>
<mask id="mask4_230_12798" style="mask-type:luminance" maskUnits="userSpaceOnUse" x="76" y="55" width="477" height="356">
<path d="M552.957 55.2959H76.7969V410.112H552.957V55.2959Z" fill="white"/>
</mask>
<g mask="url(#mask4_230_12798)">
<path d="M296.133 410.111L319.483 409.93L323.22 409.794L326.956 409.888L332.56 409.207L337.23 407.944L344.702 404.372L346.57 403.167L347.504 402.28L349.372 399.809L351.24 397.414L354.042 394.703L354.976 393.165L355.91 391.105L356.844 388.488L357.778 385.151L358.712 380.839L359.647 375.405L361.515 361.77L363.383 347.184L365.251 334.997L366.185 330.134L367.119 326.087L368.053 322.817L368.987 320.222L369.921 318.262L370.855 317.031L371.789 316.602L372.723 316.86L375.525 318.681L376.459 318.547L377.393 317.508L378.327 315.27L379.261 311.722L380.195 306.982L381.129 301.153L382.063 294.045L382.997 285.209L383.931 274.223L385.799 245.59L388.601 192.273L392.337 119.185L393.271 106.935L394.205 100.255L395.139 99.2715L396.074 103.254L397.008 111.537L397.942 123.944L398.876 140.412L400.744 183.218L405.414 303.02L407.282 337.458L409.15 362.033L411.018 380.199L411.952 386.956L412.886 392.218L413.82 396.194L414.754 399.174L415.688 401.488L417.556 404.959L418.49 406.171L419.424 406.992L420.358 407.482L424.094 408.857L425.962 409.49L427.83 409.64L430.632 409.712L434.369 409.954L446.511 410L451.181 410.11L455.851 409.963L458.653 409.893L462.389 410.047L468.927 410.107L482.004 410.111" fill="#EFEFEF" fill-opacity="0.4"/>
<path d="M296.133 410.111L319.483 409.93L323.22 409.794L326.956 409.888L332.56 409.207L337.23 407.944L344.702 404.372L346.57 403.167L347.504 402.28L349.372 399.809L351.24 397.414L354.042 394.703L354.976 393.165L355.91 391.105L356.844 388.488L357.778 385.151L358.712 380.839L359.647 375.405L361.515 361.77L363.383 347.184L365.251 334.997L366.185 330.134L367.119 326.087L368.053 322.817L368.987 320.222L369.921 318.262L370.855 317.031L371.789 316.602L372.723 316.86L375.525 318.681L376.459 318.547L377.393 317.508L378.327 315.27L379.261 311.722L380.195 306.982L381.129 301.153L382.063 294.045L382.997 285.209L383.931 274.223L385.799 245.59L388.601 192.273L392.337 119.185L393.271 106.935L394.205 100.255L395.139 99.2715L396.074 103.254L397.008 111.537L397.942 123.944L398.876 140.412L400.744 183.218L405.414 303.02L407.282 337.458L409.15 362.033L411.018 380.199L411.952 386.956L412.886 392.218L413.82 396.194L414.754 399.174L415.688 401.488L417.556 404.959L418.49 406.171L419.424 406.992L420.358 407.482L424.094 408.857L425.962 409.49L427.83 409.64L430.632 409.712L434.369 409.954L446.511 410L451.181 410.11L455.851 409.963L458.653 409.893L462.389 410.047L468.927 410.107L482.004 410.111" stroke="#EFEFEF" stroke-linecap="square"/>
</g>
<mask id="mask5_230_12798" style="mask-type:luminance" maskUnits="userSpaceOnUse" x="76" y="55" width="477" height="356">
<path d="M552.957 55.2959H76.7969V410.112H552.957V55.2959Z" fill="white"/>
</mask>
<g mask="url(#mask5_230_12798)">
<path d="M290.312 410.111L318.06 409.906L320.115 409.818L324.226 409.943L331.42 409.521L335.53 409.366L340.669 408.394L343.752 408.298L345.807 407.581L348.89 406.209L349.918 405.265L350.946 403.711L353.001 399.174L355.056 394.164L356.084 390.788L357.112 386.263L360.195 369.183L362.25 356.455L364.305 341.711L366.361 323.557L372.527 260.233L374.582 239.663L381.776 184.993L382.804 179.166L383.831 175.654L384.859 174.722L385.887 175.915L386.914 178.565L387.942 182.587L388.97 188.43L389.998 196.166L393.081 222.517L396.164 245.459L398.219 265.317L401.302 296.416L406.44 342.843L408.496 358.414L410.551 371.594L412.606 381.454L414.662 390.006L415.69 393.433L416.717 395.821L417.745 397.265L420.828 400.05L424.939 405.147L425.966 405.854L428.022 406.802L431.105 407.776L435.215 408.867L439.326 409.813L441.382 409.995L444.465 409.882L447.548 409.646L449.603 409.751L453.714 410.085L457.824 409.994L461.935 409.952L467.074 410.107L490.71 410.055L494.821 410.111" fill="#EFEFEF" fill-opacity="0.4"/>
<path d="M290.312 410.111L318.06 409.906L320.115 409.818L324.226 409.943L331.42 409.521L335.53 409.366L340.669 408.394L343.752 408.298L345.807 407.581L348.89 406.209L349.918 405.265L350.946 403.711L353.001 399.174L355.056 394.164L356.084 390.788L357.112 386.263L360.195 369.183L362.25 356.455L364.305 341.711L366.361 323.557L372.527 260.233L374.582 239.663L381.776 184.993L382.804 179.166L383.831 175.654L384.859 174.722L385.887 175.915L386.914 178.565L387.942 182.587L388.97 188.43L389.998 196.166L393.081 222.517L396.164 245.459L398.219 265.317L401.302 296.416L406.44 342.843L408.496 358.414L410.551 371.594L412.606 381.454L414.662 390.006L415.69 393.433L416.717 395.821L417.745 397.265L420.828 400.05L424.939 405.147L425.966 405.854L428.022 406.802L431.105 407.776L435.215 408.867L439.326 409.813L441.382 409.995L444.465 409.882L447.548 409.646L449.603 409.751L453.714 410.085L457.824 409.994L461.935 409.952L467.074 410.107L490.71 410.055L494.821 410.111" stroke="#EFEFEF" stroke-linecap="square"/>
</g>
<mask id="mask6_230_12798" style="mask-type:luminance" maskUnits="userSpaceOnUse" x="76" y="55" width="477" height="356">
<path d="M552.957 55.2959H76.7969V410.112H552.957V55.2959Z" fill="white"/>
</mask>
<g mask="url(#mask6_230_12798)">
<path d="M281.25 410.111L307.649 409.934L312.928 409.601L315.04 409.223L317.152 408.435L318.208 407.785L319.264 406.863L320.32 405.529L321.376 403.603L322.432 400.91L323.488 397.33L324.544 392.807L325.6 387.36L327.711 374.251L334.047 331.137L335.103 325.385L336.159 320.664L339.327 308.177L341.439 298.612L343.551 291.006L345.662 284.028L348.83 272.074L351.998 259.924L356.222 246.337L357.278 243.332L358.334 241.212L359.39 240.337L360.446 240.55L361.502 241.057L362.557 240.882L363.613 239.662L364.669 237.968L365.725 236.811L366.781 236.839L367.837 237.989L368.893 239.857L369.949 242.348L371.005 245.922L372.061 251.143L374.173 265.842L376.285 280.985L381.564 316.057L384.732 339.527L387.9 364.094L390.012 377.086L392.124 387.539L394.236 396.284L395.292 399.651L396.348 402.229L397.404 404.129L398.459 405.538L399.515 406.613L400.571 407.433L401.627 408.023L403.739 408.666L410.075 409.736L418.522 409.939L431.194 409.949L435.417 410.022L440.697 410.104L460.76 410.04L491.382 410.111" fill="#EFEFEF" fill-opacity="0.4"/>
<path d="M281.25 410.111L307.649 409.934L312.928 409.601L315.04 409.223L317.152 408.435L318.208 407.785L319.264 406.863L320.32 405.529L321.376 403.603L322.432 400.91L323.488 397.33L324.544 392.807L325.6 387.36L327.711 374.251L334.047 331.137L335.103 325.385L336.159 320.664L339.327 308.177L341.439 298.612L343.551 291.006L345.662 284.028L348.83 272.074L351.998 259.924L356.222 246.337L357.278 243.332L358.334 241.212L359.39 240.337L360.446 240.55L361.502 241.057L362.557 240.882L363.613 239.662L364.669 237.968L365.725 236.811L366.781 236.839L367.837 237.989L368.893 239.857L369.949 242.348L371.005 245.922L372.061 251.143L374.173 265.842L376.285 280.985L381.564 316.057L384.732 339.527L387.9 364.094L390.012 377.086L392.124 387.539L394.236 396.284L395.292 399.651L396.348 402.229L397.404 404.129L398.459 405.538L399.515 406.613L400.571 407.433L401.627 408.023L403.739 408.666L410.075 409.736L418.522 409.939L431.194 409.949L435.417 410.022L440.697 410.104L460.76 410.04L491.382 410.111" stroke="#EFEFEF" stroke-linecap="square"/>
</g>
<mask id="mask7_230_12798" style="mask-type:luminance" maskUnits="userSpaceOnUse" x="76" y="55" width="477" height="356">
<path d="M552.957 55.2959H76.7969V410.112H552.957V55.2959Z" fill="white"/>
</mask>
<g mask="url(#mask7_230_12798)">
<path d="M299 410.111L309.487 409.934L315.208 409.889L317.115 409.862L319.975 409.588L323.788 409.83L325.695 409.532L327.602 409.11L329.509 409.096L331.416 409.325L333.322 409.184L340.95 407.502L342.856 407.184L343.81 406.869L345.717 405.746L347.623 404.242L348.577 403.334L349.53 402.194L350.484 400.728L351.437 398.886L353.344 394.329L355.251 389.354L356.204 386.469L357.157 382.808L358.111 377.874L359.064 371.288L360.971 353.697L365.738 305.696L367.645 280.772L372.412 214.818L376.225 155.82L377.179 143.458L378.132 133.089L379.085 125.491L380.039 121.105L380.992 119.887L381.946 121.397L382.899 125.108L383.852 131.02L384.806 139.632L386.713 163.799L388.619 191.5L390.526 223.601L392.433 256.084L394.34 281.968L398.153 330.659L399.107 339.523L401.014 353.058L402.92 365.08L404.827 374.663L406.734 382.015L408.641 388.085L410.548 392.699L414.361 400.668L415.315 402.189L417.221 404.321L420.082 406.59L421.988 407.852L423.895 408.64L425.802 409.081L431.522 409.88L436.289 409.655L440.103 409.838L442.01 410.002L451.544 410.004L454.404 410.058L458.218 410.065L464.891 410.112L488.726 410.111" fill="#EFEFEF" fill-opacity="0.4"/>
<path d="M299 410.111L309.487 409.934L315.208 409.889L317.115 409.862L319.975 409.588L323.788 409.83L325.695 409.532L327.602 409.11L329.509 409.096L331.416 409.325L333.322 409.184L340.95 407.502L342.856 407.184L343.81 406.869L345.717 405.746L347.623 404.242L348.577 403.334L349.53 402.194L350.484 400.728L351.437 398.886L353.344 394.329L355.251 389.354L356.204 386.469L357.157 382.808L358.111 377.874L359.064 371.288L360.971 353.697L365.738 305.696L367.645 280.772L372.412 214.818L376.225 155.82L377.179 143.458L378.132 133.089L379.085 125.491L380.039 121.105L380.992 119.887L381.946 121.397L382.899 125.108L383.852 131.02L384.806 139.632L386.713 163.799L388.619 191.5L390.526 223.601L392.433 256.084L394.34 281.968L398.153 330.659L399.107 339.523L401.014 353.058L402.92 365.08L404.827 374.663L406.734 382.015L408.641 388.085L410.548 392.699L414.361 400.668L415.315 402.189L417.221 404.321L420.082 406.59L421.988 407.852L423.895 408.64L425.802 409.081L431.522 409.88L436.289 409.655L440.103 409.838L442.01 410.002L451.544 410.004L454.404 410.058L458.218 410.065L464.891 410.112L488.726 410.111" stroke="#EFEFEF" stroke-linecap="square"/>
</g>
<mask id="mask8_230_12798" style="mask-type:luminance" maskUnits="userSpaceOnUse" x="76" y="55" width="477" height="356">
<path d="M552.957 55.2959H76.7969V410.112H552.957V55.2959Z" fill="white"/>
</mask>
<g mask="url(#mask8_230_12798)">
<path d="M281.977 410.111L311.193 409.917L314.699 409.736L318.205 409.821L325.217 409.619L327.554 409.297L331.06 409.305L334.566 409.424L335.735 409.254L336.904 408.861L342.747 405.939L343.916 404.972L345.084 403.399L346.253 400.776L347.421 396.404L348.59 389.083L349.759 376.975L350.927 358.618L352.096 334.439L354.433 275.9L356.771 214.22L357.939 188.953L359.108 168.147L360.277 150.701L361.445 137.313L362.614 129.294L363.783 125.91L364.951 124.206L366.12 122.862L367.289 124.336L368.457 130.569L369.626 140.383L370.795 152.637L380.144 267.259L384.819 312.329L385.987 325.53L387.156 336.439L389.493 353.71L390.662 360.922L391.831 366.633L395.337 381.407L397.674 389.512L398.843 393.117L400.011 396.035L401.18 398.024L405.854 403.89L407.023 404.597L409.36 405.148L410.529 405.728L412.866 407.295L414.035 407.881L415.204 408.256L416.372 408.371L419.878 408.024L421.047 408.232L425.722 409.641L426.89 409.808L430.396 409.706L436.24 409.353L439.746 409.627L444.42 409.629L449.095 409.923L452.601 409.858L457.275 409.754L463.119 410.076L465.456 410.01L468.962 409.705L479.48 409.995L481.817 409.944L485.323 410.048L489.998 410.091L494.673 410.007L499.347 410.006L514.54 410.111" fill="#EFEFEF" fill-opacity="0.4"/>
<path d="M281.977 410.111L311.193 409.917L314.699 409.736L318.205 409.821L325.217 409.619L327.554 409.297L331.06 409.305L334.566 409.424L335.735 409.254L336.904 408.861L342.747 405.939L343.916 404.972L345.084 403.399L346.253 400.776L347.421 396.404L348.59 389.083L349.759 376.975L350.927 358.618L352.096 334.439L354.433 275.9L356.771 214.22L357.939 188.953L359.108 168.147L360.277 150.701L361.445 137.313L362.614 129.294L363.783 125.91L364.951 124.206L366.12 122.862L367.289 124.336L368.457 130.569L369.626 140.383L370.795 152.637L380.144 267.259L384.819 312.329L385.987 325.53L387.156 336.439L389.493 353.71L390.662 360.922L391.831 366.633L395.337 381.407L397.674 389.512L398.843 393.117L400.011 396.035L401.18 398.024L405.854 403.89L407.023 404.597L409.36 405.148L410.529 405.728L412.866 407.295L414.035 407.881L415.204 408.256L416.372 408.371L419.878 408.024L421.047 408.232L425.722 409.641L426.89 409.808L430.396 409.706L436.24 409.353L439.746 409.627L444.42 409.629L449.095 409.923L452.601 409.858L457.275 409.754L463.119 410.076L465.456 410.01L468.962 409.705L479.48 409.995L481.817 409.944L485.323 410.048L489.998 410.091L494.673 410.007L499.347 410.006L514.54 410.111" stroke="#EFEFEF" stroke-linecap="square"/>
</g>
<mask id="mask9_230_12798" style="mask-type:luminance" maskUnits="userSpaceOnUse" x="76" y="55" width="477" height="356">
<path d="M552.957 55.2959H76.7969V410.112H552.957V55.2959Z" fill="white"/>
</mask>
<g mask="url(#mask9_230_12798)">
<path d="M290.609 410.111L319.064 409.903L322.347 409.597L324.536 409.577L327.82 409.085L330.008 408.834L334.386 408.859L335.48 408.464L336.575 407.768L338.764 405.817L339.858 404.557L342.047 401.125L344.236 397.02L345.33 394.227L346.425 390.134L347.519 384.189L348.613 376.165L349.708 366.236L351.897 342.769L355.18 304.536L358.463 261.208L363.935 188.422L365.03 179.402L366.124 173.776L367.219 169.645L368.313 166.228L369.407 164.728L370.502 165.95L372.691 171.813L373.785 175.688L374.88 182.316L375.974 192.58L379.257 228.288L383.635 270.585L385.824 292.124L388.012 311.042L390.201 327.232L393.485 348.318L395.673 361.575L396.768 367.174L398.957 375.774L403.334 390.162L404.429 393.065L405.523 395.486L406.618 397.513L407.712 399.107L409.901 401.303L414.279 405.344L417.562 407.318L418.656 407.765L424.128 408.901L429.6 409.626L433.978 409.457L441.639 409.834L459.15 409.82L464.622 409.946L478.849 410.037L483.227 410.081L488.699 410.085L496.36 410.095L502.926 409.96L508.398 410.111" fill="#EFEFEF" fill-opacity="0.4"/>
<path d="M290.609 410.111L319.064 409.903L322.347 409.597L324.536 409.577L327.82 409.085L330.008 408.834L334.386 408.859L335.48 408.464L336.575 407.768L338.764 405.817L339.858 404.557L342.047 401.125L344.236 397.02L345.33 394.227L346.425 390.134L347.519 384.189L348.613 376.165L349.708 366.236L351.897 342.769L355.18 304.536L358.463 261.208L363.935 188.422L365.03 179.402L366.124 173.776L367.219 169.645L368.313 166.228L369.407 164.728L370.502 165.95L372.691 171.813L373.785 175.688L374.88 182.316L375.974 192.58L379.257 228.288L383.635 270.585L385.824 292.124L388.012 311.042L390.201 327.232L393.485 348.318L395.673 361.575L396.768 367.174L398.957 375.774L403.334 390.162L404.429 393.065L405.523 395.486L406.618 397.513L407.712 399.107L409.901 401.303L414.279 405.344L417.562 407.318L418.656 407.765L424.128 408.901L429.6 409.626L433.978 409.457L441.639 409.834L459.15 409.82L464.622 409.946L478.849 410.037L483.227 410.081L488.699 410.085L496.36 410.095L502.926 409.96L508.398 410.111" stroke="#EFEFEF" stroke-linecap="square"/>
</g>
<mask id="mask10_230_12798" style="mask-type:luminance" maskUnits="userSpaceOnUse" x="76" y="55" width="477" height="356">
<path d="M552.957 55.2959H76.7969V410.112H552.957V55.2959Z" fill="white"/>
</mask>
<g mask="url(#mask10_230_12798)">
<path d="M294.25 410.11L297.678 409.965L299.963 409.842L303.391 409.985L306.819 409.897L311.389 410.055L315.96 409.791L320.53 409.051L327.386 407.978L328.529 407.772L329.671 407.387L334.242 404.666L336.527 402.986L337.67 402.576L338.812 402.399L339.955 402.036L341.098 401.207L342.24 399.888L346.811 393.388L351.381 385.053L352.524 382.295L353.666 379.037L354.809 375.168L355.952 370.566L357.094 365.299L359.38 352.659L362.807 332.617L366.235 306.421L367.378 296.868L368.521 284.714L371.948 239.289L379.947 133.72L383.375 77.4543L384.517 72.3887L385.66 79.8056L386.803 97.0975L387.945 122.293L389.088 154.716L392.516 266.723L393.658 298.071L394.801 323.826L395.944 343.44L397.086 358.258L398.229 370.24L399.371 380.329L400.514 388.592L401.657 394.897L402.799 399.357L403.942 402.512L405.085 404.813L406.227 406.318L407.37 407.158L409.655 408.118L411.94 408.718L416.511 409.638L418.796 409.862L421.081 409.809L423.367 409.704L437.078 409.957L439.363 409.846L445.076 410.111L458.788 409.998L462.216 409.949L466.786 410.099L473.642 410.099L491.924 410.112L521.632 410.111" fill="#EFEFEF" fill-opacity="0.4"/>
<path d="M294.25 410.11L297.678 409.965L299.963 409.842L303.391 409.985L306.819 409.897L311.389 410.055L315.96 409.791L320.53 409.051L327.386 407.978L328.529 407.772L329.671 407.387L334.242 404.666L336.527 402.986L337.67 402.576L338.812 402.399L339.955 402.036L341.098 401.207L342.24 399.888L346.811 393.388L351.381 385.053L352.524 382.295L353.666 379.037L354.809 375.168L355.952 370.566L357.094 365.299L359.38 352.659L362.807 332.617L366.235 306.421L367.378 296.868L368.521 284.714L371.948 239.289L379.947 133.72L383.375 77.4543L384.517 72.3887L385.66 79.8056L386.803 97.0975L387.945 122.293L389.088 154.716L392.516 266.723L393.658 298.071L394.801 323.826L395.944 343.44L397.086 358.258L398.229 370.24L399.371 380.329L400.514 388.592L401.657 394.897L402.799 399.357L403.942 402.512L405.085 404.813L406.227 406.318L407.37 407.158L409.655 408.118L411.94 408.718L416.511 409.638L418.796 409.862L421.081 409.809L423.367 409.704L437.078 409.957L439.363 409.846L445.076 410.111L458.788 409.998L462.216 409.949L466.786 410.099L473.642 410.099L491.924 410.112L521.632 410.111" stroke="#EFEFEF" stroke-linecap="square"/>
</g>
<mask id="mask11_230_12798" style="mask-type:luminance" maskUnits="userSpaceOnUse" x="76" y="55" width="477" height="356">
<path d="M552.957 55.2959H76.7969V410.112H552.957V55.2959Z" fill="white"/>
</mask>
<g mask="url(#mask11_230_12798)">
<path d="M289.047 410.111L294.215 409.957L302.484 409.076L306.618 408.589L311.786 408.196L314.887 407.188L317.987 406.037L319.021 405.452L321.088 403.728L325.222 399.878L327.29 398.235L330.39 396.131L331.424 395.052L332.458 393.507L333.491 391.315L334.525 388.315L335.558 384.469L337.626 374.886L339.693 363.99L341.76 351.581L343.827 336.643L345.894 319.48L347.961 299.125L351.062 265.208L357.264 209.574L358.297 202.847L359.331 198.451L360.364 196.186L361.398 195.337L362.432 195.293L363.465 195.95L364.499 197.407L366.566 201.915L367.6 204.623L368.633 207.979L369.667 212.368L370.7 217.899L371.734 224.517L372.768 232.254L374.835 250.943L377.935 280.443L381.036 307.081L383.103 323.107L386.204 344.402L389.305 364.16L390.339 369.54L391.372 373.963L393.439 380.962L396.54 390.067L398.607 395.178L400.674 399.38L401.708 400.922L403.775 403.214L405.842 405.218L406.876 406.032L407.91 406.645L409.977 407.395L418.245 409.52L423.413 409.94L427.548 409.977L440.984 409.914L447.186 410.017L459.589 409.961L465.791 410.047L474.059 410.112L494.731 410.111" fill="#EFEFEF" fill-opacity="0.4"/>
<path d="M289.047 410.111L294.215 409.957L302.484 409.076L306.618 408.589L311.786 408.196L314.887 407.188L317.987 406.037L319.021 405.452L321.088 403.728L325.222 399.878L327.29 398.235L330.39 396.131L331.424 395.052L332.458 393.507L333.491 391.315L334.525 388.315L335.558 384.469L337.626 374.886L339.693 363.99L341.76 351.581L343.827 336.643L345.894 319.48L347.961 299.125L351.062 265.208L357.264 209.574L358.297 202.847L359.331 198.451L360.364 196.186L361.398 195.337L362.432 195.293L363.465 195.95L364.499 197.407L366.566 201.915L367.6 204.623L368.633 207.979L369.667 212.368L370.7 217.899L371.734 224.517L372.768 232.254L374.835 250.943L377.935 280.443L381.036 307.081L383.103 323.107L386.204 344.402L389.305 364.16L390.339 369.54L391.372 373.963L393.439 380.962L396.54 390.067L398.607 395.178L400.674 399.38L401.708 400.922L403.775 403.214L405.842 405.218L406.876 406.032L407.91 406.645L409.977 407.395L418.245 409.52L423.413 409.94L427.548 409.977L440.984 409.914L447.186 410.017L459.589 409.961L465.791 410.047L474.059 410.112L494.731 410.111" stroke="#EFEFEF" stroke-linecap="square"/>
</g>
<mask id="mask12_230_12798" style="mask-type:luminance" maskUnits="userSpaceOnUse" x="76" y="55" width="477" height="356">
<path d="M552.957 55.2959H76.7969V410.112H552.957V55.2959Z" fill="white"/>
</mask>
<g mask="url(#mask12_230_12798)">
<path d="M321.93 410.111L325.513 409.979L328.201 409.837L329.993 409.862L331.784 409.623L334.472 409.163L336.264 409.119L339.847 409.269L341.639 409.088L346.119 407.584L347.015 406.942L348.806 404.992L350.598 402.221L351.494 400.429L352.39 398.294L353.286 395.613L354.182 392.079L355.973 382.267L357.765 370.194L358.661 362.281L359.557 351.824L361.349 323.951L364.036 275.247L370.308 155.66L372.099 131.217L372.995 121.249L373.891 113.555L374.787 109.059L375.683 108.352L376.579 111.269L377.475 116.978L380.162 139.247L381.058 147.768L381.954 158.555L385.538 211.754L387.329 234.363L390.913 286.34L392.705 307.501L394.496 325.174L396.288 342.307L398.08 360.573L398.976 367.896L399.872 373.382L400.768 377.165L406.143 393.153L407.935 397.91L408.831 399.723L410.622 402.424L412.414 404.776L413.31 405.76L414.206 406.382L415.102 406.557L416.894 406.346L417.789 406.42L419.581 407.08L422.269 408.356L424.061 408.952L425.852 409.13L427.644 409.073L429.436 409.367L432.124 409.858L433.915 409.979L438.395 409.937L441.083 410.104L448.25 410.03L454.521 409.973L457.208 410.062L462.584 409.916L472.439 410.086L476.918 410.066L483.189 410.112L500.211 410.111" fill="#EFEFEF" fill-opacity="0.4"/>
<path d="M321.93 410.111L325.513 409.979L328.201 409.837L329.993 409.862L331.784 409.623L334.472 409.163L336.264 409.119L339.847 409.269L341.639 409.088L346.119 407.584L347.015 406.942L348.806 404.992L350.598 402.221L351.494 400.429L352.39 398.294L353.286 395.613L354.182 392.079L355.973 382.267L357.765 370.194L358.661 362.281L359.557 351.824L361.349 323.951L364.036 275.247L370.308 155.66L372.099 131.217L372.995 121.249L373.891 113.555L374.787 109.059L375.683 108.352L376.579 111.269L377.475 116.978L380.162 139.247L381.058 147.768L381.954 158.555L385.538 211.754L387.329 234.363L390.913 286.34L392.705 307.501L394.496 325.174L396.288 342.307L398.08 360.573L398.976 367.896L399.872 373.382L400.768 377.165L406.143 393.153L407.935 397.91L408.831 399.723L410.622 402.424L412.414 404.776L413.31 405.76L414.206 406.382L415.102 406.557L416.894 406.346L417.789 406.42L419.581 407.08L422.269 408.356L424.061 408.952L425.852 409.13L427.644 409.073L429.436 409.367L432.124 409.858L433.915 409.979L438.395 409.937L441.083 410.104L448.25 410.03L454.521 409.973L457.208 410.062L462.584 409.916L472.439 410.086L476.918 410.066L483.189 410.112L500.211 410.111" stroke="#EFEFEF" stroke-linecap="square"/>
</g>
<mask id="mask13_230_12798" style="mask-type:luminance" maskUnits="userSpaceOnUse" x="76" y="55" width="477" height="356">
<path d="M552.957 55.2959H76.7969V410.112H552.957V55.2959Z" fill="white"/>
</mask>
<g mask="url(#mask13_230_12798)">
<path d="M269.172 410.111L282.442 409.971L287.268 409.626L295.713 408.72L296.919 408.414L298.126 407.954L300.538 406.569L305.364 403.56L306.57 402.131L307.777 400.115L310.19 394.767L315.015 382.734L316.222 379.023L317.428 374.03L318.635 366.663L319.841 355.722L321.047 340.183L322.254 319.394L323.46 293.16L325.873 227.003L328.286 158.855L329.492 133.955L330.699 119.651L331.905 116.956L333.111 124.864L334.318 140.949L336.731 185.267L339.143 228.54L340.35 246.316L341.556 260.963L342.763 272.411L343.969 280.838L345.176 286.88L348.795 301.329L351.208 312.993L353.62 325.294L354.827 330.466L356.033 334.338L357.24 337.042L359.652 340.989L363.272 346.52L364.478 348.971L366.891 354.569L369.304 359.471L370.51 362.353L372.923 369.661L375.336 377.254L377.749 383.577L380.161 388.698L382.574 393.317L383.781 395.296L384.987 396.929L389.813 402.07L391.019 403.348L392.225 404.316L393.432 404.865L398.257 405.871L400.67 406.686L410.322 409.05L417.56 409.706L421.179 409.749L438.069 409.969L445.307 410.109L509.247 410.111" fill="#EFEFEF" fill-opacity="0.4"/>
<path d="M269.172 410.111L282.442 409.971L287.268 409.626L295.713 408.72L296.919 408.414L298.126 407.954L300.538 406.569L305.364 403.56L306.57 402.131L307.777 400.115L310.19 394.767L315.015 382.734L316.222 379.023L317.428 374.03L318.635 366.663L319.841 355.722L321.047 340.183L322.254 319.394L323.46 293.16L325.873 227.003L328.286 158.855L329.492 133.955L330.699 119.651L331.905 116.956L333.111 124.864L334.318 140.949L336.731 185.267L339.143 228.54L340.35 246.316L341.556 260.963L342.763 272.411L343.969 280.838L345.176 286.88L348.795 301.329L351.208 312.993L353.62 325.294L354.827 330.466L356.033 334.338L357.24 337.042L359.652 340.989L363.272 346.52L364.478 348.971L366.891 354.569L369.304 359.471L370.51 362.353L372.923 369.661L375.336 377.254L377.749 383.577L380.161 388.698L382.574 393.317L383.781 395.296L384.987 396.929L389.813 402.07L391.019 403.348L392.225 404.316L393.432 404.865L398.257 405.871L400.67 406.686L410.322 409.05L417.56 409.706L421.179 409.749L438.069 409.969L445.307 410.109L509.247 410.111" stroke="#EFEFEF" stroke-linecap="square"/>
</g>
<mask id="mask14_230_12798" style="mask-type:luminance" maskUnits="userSpaceOnUse" x="76" y="55" width="477" height="356">
<path d="M552.957 55.2959H76.7969V410.112H552.957V55.2959Z" fill="white"/>
</mask>
<g mask="url(#mask14_230_12798)">
<path d="M98.4375 410.111L247.032 409.881L251.16 409.633L261.479 408.513L265.607 407.774L267.67 407.094L269.734 406.082L271.798 404.758L277.989 400.066L282.117 396.719L286.245 393.725L288.308 391.944L292.436 387.543L296.564 382.821L300.691 377.049L304.819 370.84L306.883 367.173L308.947 362.742L311.01 357.683L313.074 352.191L315.138 346.098L317.202 339.005L323.393 314.299L325.457 307.871L327.521 303.263L329.585 300.172L331.649 297.937L333.712 296.012L335.776 294.325L337.84 293.081L339.904 292.428L341.968 292.514L344.031 293.536L346.095 295.464L350.223 300.506L352.287 303.168L354.351 306.287L356.414 310.136L360.542 318.483L364.67 326.703L366.733 331.415L370.861 342.169L379.116 364.842L383.244 375.177L387.372 384.264L391.499 392.631L393.563 396.257L395.627 399.169L397.691 401.354L399.754 403.041L403.882 405.827L405.946 406.992L408.01 407.904L410.074 408.51L414.201 409.05L422.456 409.655L434.839 409.972L449.286 410.001L509.137 410.111" fill="#7EB0D5" fill-opacity="0.4"/>
<path d="M98.4375 410.111L247.032 409.881L251.16 409.633L261.479 408.513L265.607 407.774L267.67 407.094L269.734 406.082L271.798 404.758L277.989 400.066L282.117 396.719L286.245 393.725L288.308 391.944L292.436 387.543L296.564 382.821L300.691 377.049L304.819 370.84L306.883 367.173L308.947 362.742L311.01 357.683L313.074 352.191L315.138 346.098L317.202 339.005L323.393 314.299L325.457 307.871L327.521 303.263L329.585 300.172L331.649 297.937L333.712 296.012L335.776 294.325L337.84 293.081L339.904 292.428L341.968 292.514L344.031 293.536L346.095 295.464L350.223 300.506L352.287 303.168L354.351 306.287L356.414 310.136L360.542 318.483L364.67 326.703L366.733 331.415L370.861 342.169L379.116 364.842L383.244 375.177L387.372 384.264L391.499 392.631L393.563 396.257L395.627 399.169L397.691 401.354L399.754 403.041L403.882 405.827L405.946 406.992L408.01 407.904L410.074 408.51L414.201 409.05L422.456 409.655L434.839 409.972L449.286 410.001L509.137 410.111" stroke="#7EB0D5" stroke-linecap="square"/>
</g>
<path d="M535.061 411.061C535.646 410.475 535.646 409.525 535.061 408.939L525.515 399.393C524.929 398.808 523.979 398.808 523.393 399.393C522.808 399.979 522.808 400.929 523.393 401.515L531.879 410L523.393 418.485C522.808 419.071 522.808 420.021 523.393 420.607C523.979 421.192 524.929 421.192 525.515 420.607L535.061 411.061ZM79 411.5H534V408.5H79V411.5Z" fill="black"/>
</g>
<defs>
<clipPath id="clip0_230_12798">
<rect width="614.4" height="460.8" fill="white"/>
</clipPath>
</defs>
</svg>
