<svg width="615" height="461" viewBox="0 0 615 461" fill="none" xmlns="http://www.w3.org/2000/svg">
<g clip-path="url(#clip0_230_13278)">
<mask id="mask0_230_13278" style="mask-type:luminance" maskUnits="userSpaceOnUse" x="76" y="55" width="477" height="356">
<path d="M552.957 55.2959H76.7969V410.112H552.957V55.2959Z" fill="white"/>
</mask>
<g mask="url(#mask0_230_13278)">
<path d="M247.062 410.111L257.964 409.982L264.02 409.888L272.499 409.981L284.612 409.545L291.88 409.016L297.936 408.701L301.57 408.078L305.204 407.367L313.683 406.182L317.317 405.185L320.951 404.243L327.007 403.095L329.43 402.164L331.852 400.917L336.697 398.031L339.12 396.406L341.542 394.284L343.965 391.425L347.599 386.247L356.078 373.746L358.5 369.434L360.923 364.263L363.345 358.017L365.768 350.696L370.613 335.55L374.247 324.315L376.67 316.085L379.092 306.565L382.726 290.17L387.571 267.702L389.994 258.311L391.205 254.517L393.627 248.394L394.839 245.906L396.05 243.825L397.261 242.229L398.473 241.159L399.684 240.586L400.895 240.453L402.106 240.735L403.318 241.466L404.529 242.71L405.74 244.505L406.952 246.839L408.163 249.647L410.585 256.387L413.008 264.258L415.431 273.028L417.853 283.041L420.276 295.16L422.698 309.611L427.543 339.963L429.966 352.123L432.388 361.569L434.811 369.396L440.867 387.605L443.29 393.692L444.501 396.155L445.713 398.22L446.924 399.932L449.346 402.602L451.769 404.722L454.192 406.513L456.614 407.886L459.037 408.785L461.459 409.326L465.093 409.77L469.938 409.985L482.051 410.086L488.107 410.111" fill="#EFEFEF" fill-opacity="0.4"/>
<path d="M247.062 410.111L257.964 409.982L264.02 409.888L272.499 409.981L284.612 409.545L291.88 409.016L297.936 408.701L301.57 408.078L305.204 407.367L313.683 406.182L317.317 405.185L320.951 404.243L327.007 403.095L329.43 402.164L331.852 400.917L336.697 398.031L339.12 396.406L341.542 394.284L343.965 391.425L347.599 386.247L356.078 373.746L358.5 369.434L360.923 364.263L363.345 358.017L365.768 350.696L370.613 335.55L374.247 324.315L376.67 316.085L379.092 306.565L382.726 290.17L387.571 267.702L389.994 258.311L391.205 254.517L393.627 248.394L394.839 245.906L396.05 243.825L397.261 242.229L398.473 241.159L399.684 240.586L400.895 240.453L402.106 240.735L403.318 241.466L404.529 242.71L405.74 244.505L406.952 246.839L408.163 249.647L410.585 256.387L413.008 264.258L415.431 273.028L417.853 283.041L420.276 295.16L422.698 309.611L427.543 339.963L429.966 352.123L432.388 361.569L434.811 369.396L440.867 387.605L443.29 393.692L444.501 396.155L445.713 398.22L446.924 399.932L449.346 402.602L451.769 404.722L454.192 406.513L456.614 407.886L459.037 408.785L461.459 409.326L465.093 409.77L469.938 409.985L482.051 410.086L488.107 410.111" stroke="#EFEFEF" stroke-linecap="square"/>
</g>
<mask id="mask1_230_13278" style="mask-type:luminance" maskUnits="userSpaceOnUse" x="76" y="55" width="477" height="356">
<path d="M552.957 55.2959H76.7969V410.112H552.957V55.2959Z" fill="white"/>
</mask>
<g mask="url(#mask1_230_13278)">
<path d="M234.312 410.111L251.649 409.942L259.739 409.657L265.518 409.288L270.141 408.645L284.01 406.211L288.633 404.76L292.1 403.552L294.412 402.419L296.723 400.736L301.346 396.768L303.658 395.307L307.125 393.227L309.437 391.2L311.748 388.55L318.683 379.61L320.994 376.156L323.306 372.029L331.396 356.134L333.707 350.532L336.019 343.871L340.642 330.171L342.953 324.185L345.265 318.732L347.576 313.816L351.044 306.864L353.355 301.373L355.667 294.835L359.134 284.747L361.445 279.289L362.601 277.209L363.757 275.597L364.913 274.406L366.068 273.532L369.536 271.598L371.847 270.387L373.003 269.956L374.159 269.768L375.314 269.898L376.47 270.387L377.626 271.248L378.782 272.467L379.938 274.016L382.249 277.941L384.561 282.691L386.872 288.11L389.184 294.313L391.495 301.469L399.585 328.406L403.053 339.593L407.676 354.855L411.143 364.76L415.766 376.955L418.077 382.529L420.389 387.423L422.7 391.672L425.012 395.428L427.323 398.706L429.635 401.427L431.946 403.575L434.258 405.236L436.569 406.519L438.881 407.457L441.192 408.064L444.66 408.591L456.217 409.978L461.996 410.106L464.308 410.111" fill="#EFEFEF" fill-opacity="0.4"/>
<path d="M234.312 410.111L251.649 409.942L259.739 409.657L265.518 409.288L270.141 408.645L284.01 406.211L288.633 404.76L292.1 403.552L294.412 402.419L296.723 400.736L301.346 396.768L303.658 395.307L307.125 393.227L309.437 391.2L311.748 388.55L318.683 379.61L320.994 376.156L323.306 372.029L331.396 356.134L333.707 350.532L336.019 343.871L340.642 330.171L342.953 324.185L345.265 318.732L347.576 313.816L351.044 306.864L353.355 301.373L355.667 294.835L359.134 284.747L361.445 279.289L362.601 277.209L363.757 275.597L364.913 274.406L366.068 273.532L369.536 271.598L371.847 270.387L373.003 269.956L374.159 269.768L375.314 269.898L376.47 270.387L377.626 271.248L378.782 272.467L379.938 274.016L382.249 277.941L384.561 282.691L386.872 288.11L389.184 294.313L391.495 301.469L399.585 328.406L403.053 339.593L407.676 354.855L411.143 364.76L415.766 376.955L418.077 382.529L420.389 387.423L422.7 391.672L425.012 395.428L427.323 398.706L429.635 401.427L431.946 403.575L434.258 405.236L436.569 406.519L438.881 407.457L441.192 408.064L444.66 408.591L456.217 409.978L461.996 410.106L464.308 410.111" stroke="#EFEFEF" stroke-linecap="square"/>
</g>
<mask id="mask2_230_13278" style="mask-type:luminance" maskUnits="userSpaceOnUse" x="76" y="55" width="477" height="356">
<path d="M552.957 55.2959H76.7969V410.112H552.957V55.2959Z" fill="white"/>
</mask>
<g mask="url(#mask2_230_13278)">
<path d="M221.32 410.111L241.463 409.962L261.606 409.555L268.32 408.78L272.349 408.38L277.72 408.253L280.406 408.087L283.092 407.606L287.12 406.413L291.149 405.273L297.863 403.615L300.549 402.585L303.234 401.254L307.263 398.923L311.291 396.262L315.32 393.104L323.377 386.483L326.063 383.705L328.749 380.53L332.777 375.258L335.463 371.383L338.149 367.055L340.834 362.169L348.891 346.778L356.948 332.538L362.32 322.882L366.348 315.931L371.72 306.08L373.063 304.233L374.406 302.834L375.748 301.819L379.777 299.445L381.12 298.365L382.463 297.032L385.148 293.819L387.834 290.641L389.177 289.41L390.52 288.587L391.863 288.263L393.206 288.489L394.548 289.266L395.891 290.544L397.234 292.223L403.948 301.977L407.977 306.945L409.32 308.853L410.663 311.032L413.348 316.237L416.034 322.315L418.72 329.004L421.405 336.351L424.091 344.443L433.491 374.21L436.177 381.365L438.863 387.695L441.548 393.33L444.234 398.19L446.92 402.067L448.262 403.596L449.605 404.857L450.948 405.873L453.634 407.314L456.32 408.244L460.348 409.181L464.377 409.721L469.748 409.981L483.177 410.103L488.548 410.111" fill="#EFEFEF" fill-opacity="0.4"/>
<path d="M221.32 410.111L241.463 409.962L261.606 409.555L268.32 408.78L272.349 408.38L277.72 408.253L280.406 408.087L283.092 407.606L287.12 406.413L291.149 405.273L297.863 403.615L300.549 402.585L303.234 401.254L307.263 398.923L311.291 396.262L315.32 393.104L323.377 386.483L326.063 383.705L328.749 380.53L332.777 375.258L335.463 371.383L338.149 367.055L340.834 362.169L348.891 346.778L356.948 332.538L362.32 322.882L366.348 315.931L371.72 306.08L373.063 304.233L374.406 302.834L375.748 301.819L379.777 299.445L381.12 298.365L382.463 297.032L385.148 293.819L387.834 290.641L389.177 289.41L390.52 288.587L391.863 288.263L393.206 288.489L394.548 289.266L395.891 290.544L397.234 292.223L403.948 301.977L407.977 306.945L409.32 308.853L410.663 311.032L413.348 316.237L416.034 322.315L418.72 329.004L421.405 336.351L424.091 344.443L433.491 374.21L436.177 381.365L438.863 387.695L441.548 393.33L444.234 398.19L446.92 402.067L448.262 403.596L449.605 404.857L450.948 405.873L453.634 407.314L456.32 408.244L460.348 409.181L464.377 409.721L469.748 409.981L483.177 410.103L488.548 410.111" stroke="#EFEFEF" stroke-linecap="square"/>
</g>
<mask id="mask3_230_13278" style="mask-type:luminance" maskUnits="userSpaceOnUse" x="76" y="55" width="477" height="356">
<path d="M552.957 55.2959H76.7969V410.112H552.957V55.2959Z" fill="white"/>
</mask>
<g mask="url(#mask3_230_13278)">
<path d="M243.227 410.111L263.657 409.958L268.464 409.989L273.271 410.029L282.885 409.795L287.692 409.788L300.912 409.424L304.517 409.394L309.324 408.998L312.93 408.418L320.14 406.962L324.947 406.13L328.553 405.109L330.956 404.184L333.36 403L336.965 400.726L342.974 396.839L345.378 394.705L347.781 392.559L350.185 391.044L351.387 390.392L352.588 389.559L353.79 388.344L354.992 386.63L356.194 384.435L359.799 376.965L362.203 372.922L364.606 368.821L365.808 366.307L368.211 360.274L370.615 353.353L373.019 345.75L376.624 332.975L380.229 320.234L383.835 308.176L386.238 298.849L388.642 288.12L394.651 260.228L397.054 250.372L399.458 241.57L401.861 234.01L403.063 231.122L404.265 229.098L405.467 228.056L406.668 228.024L407.87 228.931L409.072 230.617L410.274 232.896L411.476 235.648L412.677 238.845L415.081 246.552L418.686 260.075L421.09 270.268L423.493 282.512L425.897 297.263L431.906 336.633L434.309 350.353L436.713 362.712L439.116 373.008L441.52 381.38L443.924 388.808L446.327 395.389L447.529 398.123L448.731 400.38L449.932 402.165L451.134 403.547L453.538 405.543L455.941 407.063L458.345 408.255L460.748 409.045L463.152 409.482L466.757 409.757L479.977 410.106L482.38 410.111" fill="#EFEFEF" fill-opacity="0.4"/>
<path d="M243.227 410.111L263.657 409.958L268.464 409.989L273.271 410.029L282.885 409.795L287.692 409.788L300.912 409.424L304.517 409.394L309.324 408.998L312.93 408.418L320.14 406.962L324.947 406.13L328.553 405.109L330.956 404.184L333.36 403L336.965 400.726L342.974 396.839L345.378 394.705L347.781 392.559L350.185 391.044L351.387 390.392L352.588 389.559L353.79 388.344L354.992 386.63L356.194 384.435L359.799 376.965L362.203 372.922L364.606 368.821L365.808 366.307L368.211 360.274L370.615 353.353L373.019 345.75L376.624 332.975L380.229 320.234L383.835 308.176L386.238 298.849L388.642 288.12L394.651 260.228L397.054 250.372L399.458 241.57L401.861 234.01L403.063 231.122L404.265 229.098L405.467 228.056L406.668 228.024L407.87 228.931L409.072 230.617L410.274 232.896L411.476 235.648L412.677 238.845L415.081 246.552L418.686 260.075L421.09 270.268L423.493 282.512L425.897 297.263L431.906 336.633L434.309 350.353L436.713 362.712L439.116 373.008L441.52 381.38L443.924 388.808L446.327 395.389L447.529 398.123L448.731 400.38L449.932 402.165L451.134 403.547L453.538 405.543L455.941 407.063L458.345 408.255L460.748 409.045L463.152 409.482L466.757 409.757L479.977 410.106L482.38 410.111" stroke="#EFEFEF" stroke-linecap="square"/>
</g>
<mask id="mask4_230_13278" style="mask-type:luminance" maskUnits="userSpaceOnUse" x="76" y="55" width="477" height="356">
<path d="M552.957 55.2959H76.7969V410.112H552.957V55.2959Z" fill="white"/>
</mask>
<g mask="url(#mask4_230_13278)">
<path d="M261.734 410.111L268.859 409.987L274.797 409.902L286.672 409.621L309.235 408.373L312.797 408.077L317.547 407.996L321.11 407.558L324.672 406.825L334.172 404.557L337.735 404.106L341.297 404.058L342.485 403.822L343.672 403.32L347.235 401.131L350.797 399.689L351.985 398.93L354.36 396.751L360.297 390.779L361.485 389.214L362.672 387.358L363.86 385.177L366.235 379.966L370.985 368.402L372.172 364.773L373.36 360.447L374.547 355.353L376.922 343.069L380.485 321.809L382.86 307.034L385.235 290.194L388.797 263.382L393.547 229.721L398.298 192.433L399.485 185.289L400.673 179.897L401.86 176.22L403.048 174.04L404.235 173.056L405.423 172.974L406.61 173.616L407.798 175.033L408.985 177.54L410.173 181.702L411.36 188.154L412.548 197.238L414.923 221.432L418.485 259.413L423.235 306.022L427.985 348.769L429.173 358.476L430.36 366.892L431.548 373.753L432.735 379.254L435.11 388.112L437.485 395.628L438.673 398.645L439.86 401.045L441.048 402.894L442.235 404.327L444.61 406.441L446.985 407.916L449.36 408.817L451.735 409.279L455.298 409.532L470.735 410.026L476.673 410.111H498.048" fill="#EFEFEF" fill-opacity="0.4"/>
<path d="M261.734 410.111L268.859 409.987L274.797 409.902L286.672 409.621L309.235 408.373L312.797 408.077L317.547 407.996L321.11 407.558L324.672 406.825L334.172 404.557L337.735 404.106L341.297 404.058L342.485 403.822L343.672 403.32L347.235 401.131L350.797 399.689L351.985 398.93L354.36 396.751L360.297 390.779L361.485 389.214L362.672 387.358L363.86 385.177L366.235 379.966L370.985 368.402L372.172 364.773L373.36 360.447L374.547 355.353L376.922 343.069L380.485 321.809L382.86 307.034L385.235 290.194L388.797 263.382L393.547 229.721L398.298 192.433L399.485 185.289L400.673 179.897L401.86 176.22L403.048 174.04L404.235 173.056L405.423 172.974L406.61 173.616L407.798 175.033L408.985 177.54L410.173 181.702L411.36 188.154L412.548 197.238L414.923 221.432L418.485 259.413L423.235 306.022L427.985 348.769L429.173 358.476L430.36 366.892L431.548 373.753L432.735 379.254L435.11 388.112L437.485 395.628L438.673 398.645L439.86 401.045L441.048 402.894L442.235 404.327L444.61 406.441L446.985 407.916L449.36 408.817L451.735 409.279L455.298 409.532L470.735 410.026L476.673 410.111H498.048" stroke="#EFEFEF" stroke-linecap="square"/>
</g>
<mask id="mask5_230_13278" style="mask-type:luminance" maskUnits="userSpaceOnUse" x="76" y="55" width="477" height="356">
<path d="M552.957 55.2959H76.7969V410.112H552.957V55.2959Z" fill="white"/>
</mask>
<g mask="url(#mask5_230_13278)">
<path d="M237.594 410.112L280.397 409.976L287.777 409.623L295.157 409.31L305.489 409.083L311.393 408.643L321.725 407.454L324.677 406.981L329.105 405.848L336.485 403.709L339.437 402.422L346.817 398.573L351.245 396.913L352.721 396.183L355.673 394.219L358.625 391.581L361.577 388.125L366.005 382.315L368.957 379.005L371.909 375.729L374.861 371.878L377.813 367.246L380.765 361.734L383.717 355.508L388.145 345.25L395.525 327.558L398.477 318.298L401.429 308.546L402.905 304.28L404.381 300.613L407.333 294.48L410.285 288.072L414.712 276.902L416.188 273.762L417.664 271.355L419.14 269.769L420.616 268.969L422.092 268.833L423.568 269.206L425.044 269.959L426.52 271.028L427.996 272.43L429.472 274.236L430.948 276.515L432.424 279.276L435.376 285.838L439.804 296.712L442.756 305.312L458.992 358.495L461.944 366.837L464.896 374.339L467.848 381.13L470.8 387.1L473.752 392.373L476.704 397.112L479.656 401.222L481.132 402.97L482.608 404.478L484.084 405.729L485.56 406.718L487.036 407.463L489.988 408.39L494.416 409.175L498.844 409.688L504.748 409.966L515.08 410.061L531.316 410.112" fill="#EFEFEF" fill-opacity="0.4"/>
<path d="M237.594 410.112L280.397 409.976L287.777 409.623L295.157 409.31L305.489 409.083L311.393 408.643L321.725 407.454L324.677 406.981L329.105 405.848L336.485 403.709L339.437 402.422L346.817 398.573L351.245 396.913L352.721 396.183L355.673 394.219L358.625 391.581L361.577 388.125L366.005 382.315L368.957 379.005L371.909 375.729L374.861 371.878L377.813 367.246L380.765 361.734L383.717 355.508L388.145 345.25L395.525 327.558L398.477 318.298L401.429 308.546L402.905 304.28L404.381 300.613L407.333 294.48L410.285 288.072L414.712 276.902L416.188 273.762L417.664 271.355L419.14 269.769L420.616 268.969L422.092 268.833L423.568 269.206L425.044 269.959L426.52 271.028L427.996 272.43L429.472 274.236L430.948 276.515L432.424 279.276L435.376 285.838L439.804 296.712L442.756 305.312L458.992 358.495L461.944 366.837L464.896 374.339L467.848 381.13L470.8 387.1L473.752 392.373L476.704 397.112L479.656 401.222L481.132 402.97L482.608 404.478L484.084 405.729L485.56 406.718L487.036 407.463L489.988 408.39L494.416 409.175L498.844 409.688L504.748 409.966L515.08 410.061L531.316 410.112" stroke="#EFEFEF" stroke-linecap="square"/>
</g>
<mask id="mask6_230_13278" style="mask-type:luminance" maskUnits="userSpaceOnUse" x="76" y="55" width="477" height="356">
<path d="M552.957 55.2959H76.7969V410.112H552.957V55.2959Z" fill="white"/>
</mask>
<g mask="url(#mask6_230_13278)">
<path d="M226.211 410.111L245.263 409.951L251.217 409.848L266.696 409.683L272.65 409.637L284.557 409.571L289.32 409.231L291.702 409.401L295.274 409.711L300.037 409.41L302.418 409.212L308.372 408.213L314.326 407.963L319.089 407.199L325.042 406.775L328.615 406.007L330.996 405.119L334.568 403.572L336.95 402.506L338.141 401.717L340.522 399.512L346.476 393.32L352.43 387.71L353.62 386.299L354.811 384.364L356.002 381.582L357.192 377.912L360.765 365.753L363.146 358.311L364.337 353.806L365.528 348.35L366.718 341.849L367.909 334.325L370.291 316.446L372.672 295.387L376.244 259.747L381.007 212.038L384.579 179.849L385.77 170.735L386.961 163.276L388.152 157.835L389.342 154.575L390.533 153.521L391.724 154.461L392.915 156.941L394.105 160.575L395.296 165.348L396.487 171.555L397.678 179.527L398.868 189.425L401.25 214.152L403.631 240.385L407.204 274.823L414.348 342.851L416.73 360.349L419.111 373.926L420.302 379.442L422.683 388.351L423.874 392.003L425.065 395.117L426.255 397.696L428.637 401.889L431.018 405.315L432.209 406.485L433.4 407.237L435.781 407.997L442.926 409.642L446.498 410.015L451.261 410.093L460.787 410.103L463.168 410.111" fill="#EFEFEF" fill-opacity="0.4"/>
<path d="M226.211 410.111L245.263 409.951L251.217 409.848L266.696 409.683L272.65 409.637L284.557 409.571L289.32 409.231L291.702 409.401L295.274 409.711L300.037 409.41L302.418 409.212L308.372 408.213L314.326 407.963L319.089 407.199L325.042 406.775L328.615 406.007L330.996 405.119L334.568 403.572L336.95 402.506L338.141 401.717L340.522 399.512L346.476 393.32L352.43 387.71L353.62 386.299L354.811 384.364L356.002 381.582L357.192 377.912L360.765 365.753L363.146 358.311L364.337 353.806L365.528 348.35L366.718 341.849L367.909 334.325L370.291 316.446L372.672 295.387L376.244 259.747L381.007 212.038L384.579 179.849L385.77 170.735L386.961 163.276L388.152 157.835L389.342 154.575L390.533 153.521L391.724 154.461L392.915 156.941L394.105 160.575L395.296 165.348L396.487 171.555L397.678 179.527L398.868 189.425L401.25 214.152L403.631 240.385L407.204 274.823L414.348 342.851L416.73 360.349L419.111 373.926L420.302 379.442L422.683 388.351L423.874 392.003L425.065 395.117L426.255 397.696L428.637 401.889L431.018 405.315L432.209 406.485L433.4 407.237L435.781 407.997L442.926 409.642L446.498 410.015L451.261 410.093L460.787 410.103L463.168 410.111" stroke="#EFEFEF" stroke-linecap="square"/>
</g>
<mask id="mask7_230_13278" style="mask-type:luminance" maskUnits="userSpaceOnUse" x="76" y="55" width="477" height="356">
<path d="M552.957 55.2959H76.7969V410.112H552.957V55.2959Z" fill="white"/>
</mask>
<g mask="url(#mask7_230_13278)">
<path d="M235.742 410.112L255.482 409.953L279.171 409.427L296.279 407.95L300.227 407.436L312.071 406.291L316.019 405.59L319.967 404.523L331.811 400.688L335.759 399.001L339.707 396.878L344.971 394.008L348.919 392.214L351.551 391.293L356.815 389.822L359.447 388.479L362.079 386.576L375.239 375.777L377.871 372.849L381.819 367.598L385.767 361.917L388.399 357.419L391.031 351.942L393.663 345.583L400.243 328.454L402.875 320.661L405.507 311.735L409.456 296.884L413.404 280.959L416.036 269.132L419.984 250.679L421.3 245.173L422.616 240.312L423.932 236.201L425.248 232.896L426.564 230.433L427.88 228.848L429.196 228.171L430.512 228.41L431.828 229.544L433.144 231.536L434.46 234.368L435.776 238.073L437.092 242.739L438.408 248.486L439.724 255.422L441.04 263.6L443.672 283.412L451.568 350.341L454.2 368.33L455.516 375.982L456.832 382.63L458.148 388.232L459.464 392.811L460.78 396.461L462.096 399.325L463.412 401.561L464.728 403.317L466.044 404.712L467.36 405.836L469.992 407.497L472.624 408.595L475.256 409.282L477.888 409.679L481.836 409.952L489.732 410.084L497.628 410.112" fill="#EFEFEF" fill-opacity="0.4"/>
<path d="M235.742 410.112L255.482 409.953L279.171 409.427L296.279 407.95L300.227 407.436L312.071 406.291L316.019 405.59L319.967 404.523L331.811 400.688L335.759 399.001L339.707 396.878L344.971 394.008L348.919 392.214L351.551 391.293L356.815 389.822L359.447 388.479L362.079 386.576L375.239 375.777L377.871 372.849L381.819 367.598L385.767 361.917L388.399 357.419L391.031 351.942L393.663 345.583L400.243 328.454L402.875 320.661L405.507 311.735L409.456 296.884L413.404 280.959L416.036 269.132L419.984 250.679L421.3 245.173L422.616 240.312L423.932 236.201L425.248 232.896L426.564 230.433L427.88 228.848L429.196 228.171L430.512 228.41L431.828 229.544L433.144 231.536L434.46 234.368L435.776 238.073L437.092 242.739L438.408 248.486L439.724 255.422L441.04 263.6L443.672 283.412L451.568 350.341L454.2 368.33L455.516 375.982L456.832 382.63L458.148 388.232L459.464 392.811L460.78 396.461L462.096 399.325L463.412 401.561L464.728 403.317L466.044 404.712L467.36 405.836L469.992 407.497L472.624 408.595L475.256 409.282L477.888 409.679L481.836 409.952L489.732 410.084L497.628 410.112" stroke="#EFEFEF" stroke-linecap="square"/>
</g>
<mask id="mask8_230_13278" style="mask-type:luminance" maskUnits="userSpaceOnUse" x="76" y="55" width="477" height="356">
<path d="M552.957 55.2959H76.7969V410.112H552.957V55.2959Z" fill="white"/>
</mask>
<g mask="url(#mask8_230_13278)">
<path d="M224.055 410.112L255.962 409.958L269.016 409.76L290.771 408.19L296.572 407.37L302.374 406.13L308.175 404.606L313.976 402.791L318.327 401.193L322.679 399.181L327.03 397.185L342.983 391.129L345.884 390.554L348.785 390.386L351.686 390.615L360.388 391.83L367.639 392.118L373.441 392.199L389.395 391.781L392.295 391.394L395.196 390.599L396.646 389.968L398.097 389.14L399.547 388.099L400.997 386.846L403.898 383.73L405.348 381.845L406.799 379.689L408.249 377.186L409.7 374.234L411.15 370.706L412.6 366.451L414.051 361.295L415.501 355.059L416.951 347.578L418.402 338.739L419.852 328.505L422.753 304.23L427.104 262.315L430.004 235.153L431.455 222.95L432.905 212.088L434.355 202.845L435.806 195.487L437.256 190.269L438.707 187.424L440.157 187.122L441.607 189.416L443.058 194.203L444.508 201.222L445.958 210.087L448.859 231.653L453.21 268.693L457.561 306.193L460.462 328.849L463.362 348.466L466.263 364.838L467.714 371.811L469.164 377.977L470.614 383.348L472.065 387.954L473.515 391.849L474.965 395.109L476.416 397.823L477.866 400.08L479.316 401.961L480.767 403.531L482.217 404.845L485.118 406.854L488.018 408.218L490.919 409.095L493.82 409.61L498.171 409.954L505.423 410.095L512.674 410.112" fill="#EFEFEF" fill-opacity="0.4"/>
<path d="M224.055 410.112L255.962 409.958L269.016 409.76L290.771 408.19L296.572 407.37L302.374 406.13L308.175 404.606L313.976 402.791L318.327 401.193L322.679 399.181L327.03 397.185L342.983 391.129L345.884 390.554L348.785 390.386L351.686 390.615L360.388 391.83L367.639 392.118L373.441 392.199L389.395 391.781L392.295 391.394L395.196 390.599L396.646 389.968L398.097 389.14L399.547 388.099L400.997 386.846L403.898 383.73L405.348 381.845L406.799 379.689L408.249 377.186L409.7 374.234L411.15 370.706L412.6 366.451L414.051 361.295L415.501 355.059L416.951 347.578L418.402 338.739L419.852 328.505L422.753 304.23L427.104 262.315L430.004 235.153L431.455 222.95L432.905 212.088L434.355 202.845L435.806 195.487L437.256 190.269L438.707 187.424L440.157 187.122L441.607 189.416L443.058 194.203L444.508 201.222L445.958 210.087L448.859 231.653L453.21 268.693L457.561 306.193L460.462 328.849L463.362 348.466L466.263 364.838L467.714 371.811L469.164 377.977L470.614 383.348L472.065 387.954L473.515 391.849L474.965 395.109L476.416 397.823L477.866 400.08L479.316 401.961L480.767 403.531L482.217 404.845L485.118 406.854L488.018 408.218L490.919 409.095L493.82 409.61L498.171 409.954L505.423 410.095L512.674 410.112" stroke="#EFEFEF" stroke-linecap="square"/>
</g>
<mask id="mask9_230_13278" style="mask-type:luminance" maskUnits="userSpaceOnUse" x="76" y="55" width="477" height="356">
<path d="M552.957 55.2959H76.7969V410.112H552.957V55.2959Z" fill="white"/>
</mask>
<g mask="url(#mask9_230_13278)">
<path d="M224.266 410.111L246.916 409.957L258.241 409.687L263.275 409.372L272.083 408.45L280.892 407.195L283.408 406.518L288.442 404.737L292.217 403.192L295.992 401.252L299.767 398.831L302.284 396.84L304.8 394.427L309.834 388.912L312.351 385.759L314.867 381.748L317.384 376.865L324.934 361.242L327.451 355.05L331.226 344.849L337.518 327.299L340.034 321.144L345.068 309.621L352.618 290.921L355.135 285.982L357.651 281.606L360.168 277.773L362.685 274.463L365.202 271.643L366.46 270.529L367.718 269.749L368.977 269.413L370.235 269.619L371.493 270.434L372.752 271.903L374.01 274.036L375.268 276.792L377.785 283.602L380.302 290.561L381.56 293.563L384.077 298.537L386.594 303.374L387.852 306.232L390.369 313.047L392.885 320.901L395.402 329.645L400.436 348.054L402.952 355.409L410.502 374.386L413.019 380.131L415.536 385.151L419.311 391.923L421.828 395.75L424.344 398.822L426.861 401.292L429.378 403.367L431.894 405.085L434.411 406.408L436.928 407.413L440.703 408.568L444.478 409.372L448.253 409.769L455.803 410.047L469.645 410.1L474.679 410.111" fill="#EFEFEF" fill-opacity="0.4"/>
<path d="M224.266 410.111L246.916 409.957L258.241 409.687L263.275 409.372L272.083 408.45L280.892 407.195L283.408 406.518L288.442 404.737L292.217 403.192L295.992 401.252L299.767 398.831L302.284 396.84L304.8 394.427L309.834 388.912L312.351 385.759L314.867 381.748L317.384 376.865L324.934 361.242L327.451 355.05L331.226 344.849L337.518 327.299L340.034 321.144L345.068 309.621L352.618 290.921L355.135 285.982L357.651 281.606L360.168 277.773L362.685 274.463L365.202 271.643L366.46 270.529L367.718 269.749L368.977 269.413L370.235 269.619L371.493 270.434L372.752 271.903L374.01 274.036L375.268 276.792L377.785 283.602L380.302 290.561L381.56 293.563L384.077 298.537L386.594 303.374L387.852 306.232L390.369 313.047L392.885 320.901L395.402 329.645L400.436 348.054L402.952 355.409L410.502 374.386L413.019 380.131L415.536 385.151L419.311 391.923L421.828 395.75L424.344 398.822L426.861 401.292L429.378 403.367L431.894 405.085L434.411 406.408L436.928 407.413L440.703 408.568L444.478 409.372L448.253 409.769L455.803 410.047L469.645 410.1L474.679 410.111" stroke="#EFEFEF" stroke-linecap="square"/>
</g>
<mask id="mask10_230_13278" style="mask-type:luminance" maskUnits="userSpaceOnUse" x="76" y="55" width="477" height="356">
<path d="M552.957 55.2959H76.7969V410.112H552.957V55.2959Z" fill="white"/>
</mask>
<g mask="url(#mask10_230_13278)">
<path d="M215.688 410.111L258.088 409.914L265.571 409.722L270.559 409.908L274.3 409.971L279.289 409.772L284.277 409.477L291.759 409.409L302.983 408.197L314.207 406.746L315.454 406.355L317.948 405.024L321.689 402.708L325.43 400.466L330.419 396.832L332.913 394.678L335.407 391.807L337.901 388.462L339.148 386.598L340.395 384.466L342.89 379.165L347.878 367.003L349.125 363.551L350.372 359.575L352.866 350.158L359.102 324.781L361.596 313.188L365.337 295.36L367.831 285.699L370.325 276.676L372.819 265.73L375.314 254.927L376.561 250.81L379.055 244.628L382.796 236.334L384.043 234.093L385.29 232.249L386.537 230.771L387.784 229.774L389.031 229.549L390.279 230.395L391.526 232.397L392.773 235.353L400.255 256.805L401.502 261.31L402.749 266.758L403.996 273.168L406.491 288.177L410.232 313.775L413.973 339.962L416.467 355.528L418.961 368.401L421.456 378.891L423.95 387.302L426.444 393.747L428.938 398.875L431.432 402.956L432.679 404.513L433.926 405.74L435.173 406.668L436.42 407.338L438.915 408.1L448.891 409.722L452.633 409.994L463.856 410.111" fill="#EFEFEF" fill-opacity="0.4"/>
<path d="M215.688 410.111L258.088 409.914L265.571 409.722L270.559 409.908L274.3 409.971L279.289 409.772L284.277 409.477L291.759 409.409L302.983 408.197L314.207 406.746L315.454 406.355L317.948 405.024L321.689 402.708L325.43 400.466L330.419 396.832L332.913 394.678L335.407 391.807L337.901 388.462L339.148 386.598L340.395 384.466L342.89 379.165L347.878 367.003L349.125 363.551L350.372 359.575L352.866 350.158L359.102 324.781L361.596 313.188L365.337 295.36L367.831 285.699L370.325 276.676L372.819 265.73L375.314 254.927L376.561 250.81L379.055 244.628L382.796 236.334L384.043 234.093L385.29 232.249L386.537 230.771L387.784 229.774L389.031 229.549L390.279 230.395L391.526 232.397L392.773 235.353L400.255 256.805L401.502 261.31L402.749 266.758L403.996 273.168L406.491 288.177L410.232 313.775L413.973 339.962L416.467 355.528L418.961 368.401L421.456 378.891L423.95 387.302L426.444 393.747L428.938 398.875L431.432 402.956L432.679 404.513L433.926 405.74L435.173 406.668L436.42 407.338L438.915 408.1L448.891 409.722L452.633 409.994L463.856 410.111" stroke="#EFEFEF" stroke-linecap="square"/>
</g>
<mask id="mask11_230_13278" style="mask-type:luminance" maskUnits="userSpaceOnUse" x="76" y="55" width="477" height="356">
<path d="M552.957 55.2959H76.7969V410.112H552.957V55.2959Z" fill="white"/>
</mask>
<g mask="url(#mask11_230_13278)">
<path d="M217.438 410.111L236.71 409.945L244.419 409.705L250.843 409.686L257.267 409.24L262.406 408.668L270.115 407.254L273.969 406.38L276.539 405.52L279.109 404.363L281.678 402.898L284.248 401.138L288.102 398.1L290.672 395.779L294.527 391.758L298.381 387.281L302.235 382.221L304.805 378.473L307.375 374.056L308.66 371.325L309.944 368.113L312.514 360.249L320.223 333.646L322.793 326.551L325.362 319.638L326.647 315.759L327.932 311.39L330.501 301.129L334.356 284.559L335.641 279.766L336.925 275.654L338.21 272.253L339.495 269.507L340.78 267.321L342.065 265.609L343.35 264.316L344.634 263.42L345.919 262.902L347.204 262.726L348.489 262.826L351.058 263.562L352.343 264.143L353.628 264.937L354.913 266.044L356.198 267.537L357.483 269.428L358.767 271.678L361.337 277.038L363.907 283.247L366.476 290.016L369.046 297.531L371.616 306.128L376.755 323.982L381.894 341.589L385.749 354.981L388.318 362.646L390.888 369.118L393.457 374.617L396.027 379.347L402.451 390.134L405.021 393.957L407.59 396.992L410.16 399.259L414.015 401.949L416.584 403.464L419.154 404.694L423.008 406.096L429.432 407.841L433.287 408.612L439.711 409.353L444.85 409.7L460.268 410.055L473.116 410.111" fill="#EFEFEF" fill-opacity="0.4"/>
<path d="M217.438 410.111L236.71 409.945L244.419 409.705L250.843 409.686L257.267 409.24L262.406 408.668L270.115 407.254L273.969 406.38L276.539 405.52L279.109 404.363L281.678 402.898L284.248 401.138L288.102 398.1L290.672 395.779L294.527 391.758L298.381 387.281L302.235 382.221L304.805 378.473L307.375 374.056L308.66 371.325L309.944 368.113L312.514 360.249L320.223 333.646L322.793 326.551L325.362 319.638L326.647 315.759L327.932 311.39L330.501 301.129L334.356 284.559L335.641 279.766L336.925 275.654L338.21 272.253L339.495 269.507L340.78 267.321L342.065 265.609L343.35 264.316L344.634 263.42L345.919 262.902L347.204 262.726L348.489 262.826L351.058 263.562L352.343 264.143L353.628 264.937L354.913 266.044L356.198 267.537L357.483 269.428L358.767 271.678L361.337 277.038L363.907 283.247L366.476 290.016L369.046 297.531L371.616 306.128L376.755 323.982L381.894 341.589L385.749 354.981L388.318 362.646L390.888 369.118L393.457 374.617L396.027 379.347L402.451 390.134L405.021 393.957L407.59 396.992L410.16 399.259L414.015 401.949L416.584 403.464L419.154 404.694L423.008 406.096L429.432 407.841L433.287 408.612L439.711 409.353L444.85 409.7L460.268 410.055L473.116 410.111" stroke="#EFEFEF" stroke-linecap="square"/>
</g>
<mask id="mask12_230_13278" style="mask-type:luminance" maskUnits="userSpaceOnUse" x="76" y="55" width="477" height="356">
<path d="M552.957 55.2959H76.7969V410.112H552.957V55.2959Z" fill="white"/>
</mask>
<g mask="url(#mask12_230_13278)">
<path d="M246.125 410.111L257.545 409.961L263.89 409.97L268.966 409.946L281.655 409.593L288 409.516L296.882 409.074L308.303 408.383L315.916 407.367L323.53 406.775L326.068 406.291L329.875 405.223L336.219 403.352L340.026 402.403L345.102 401.405L347.64 400.436L350.177 398.893L352.715 396.91L355.253 394.52L357.791 391.724L364.136 384.125L366.674 380.782L369.211 376.993L373.018 371.112L378.094 363.884L379.363 361.504L381.901 355.616L389.514 335.473L393.321 324.917L398.397 309.798L402.204 298.411L404.742 292.015L411.086 278.089L413.624 270.548L417.431 258.242L419.969 251.294L422.507 245.54L423.775 243.237L425.044 241.602L426.313 240.906L427.582 241.343L428.851 242.967L430.12 245.706L431.389 249.431L432.658 254.013L433.927 259.347L436.465 271.799L440.272 292.892L445.347 323.207L447.885 338.01L450.423 351.4L452.961 363.315L455.499 373.928L458.037 383.142L460.575 390.721L461.843 393.853L463.112 396.55L464.381 398.835L465.65 400.741L466.919 402.314L468.188 403.605L470.726 405.547L473.264 406.919L475.802 407.922L478.34 408.633L482.146 409.273L488.491 409.828L493.567 410.067L498.642 410.11" fill="#EFEFEF" fill-opacity="0.4"/>
<path d="M246.125 410.111L257.545 409.961L263.89 409.97L268.966 409.946L281.655 409.593L288 409.516L296.882 409.074L308.303 408.383L315.916 407.367L323.53 406.775L326.068 406.291L329.875 405.223L336.219 403.352L340.026 402.403L345.102 401.405L347.64 400.436L350.177 398.893L352.715 396.91L355.253 394.52L357.791 391.724L364.136 384.125L366.674 380.782L369.211 376.993L373.018 371.112L378.094 363.884L379.363 361.504L381.901 355.616L389.514 335.473L393.321 324.917L398.397 309.798L402.204 298.411L404.742 292.015L411.086 278.089L413.624 270.548L417.431 258.242L419.969 251.294L422.507 245.54L423.775 243.237L425.044 241.602L426.313 240.906L427.582 241.343L428.851 242.967L430.12 245.706L431.389 249.431L432.658 254.013L433.927 259.347L436.465 271.799L440.272 292.892L445.347 323.207L447.885 338.01L450.423 351.4L452.961 363.315L455.499 373.928L458.037 383.142L460.575 390.721L461.843 393.853L463.112 396.55L464.381 398.835L465.65 400.741L466.919 402.314L468.188 403.605L470.726 405.547L473.264 406.919L475.802 407.922L478.34 408.633L482.146 409.273L488.491 409.828L493.567 410.067L498.642 410.11" stroke="#EFEFEF" stroke-linecap="square"/>
</g>
<mask id="mask13_230_13278" style="mask-type:luminance" maskUnits="userSpaceOnUse" x="76" y="55" width="477" height="356">
<path d="M552.957 55.2959H76.7969V410.112H552.957V55.2959Z" fill="white"/>
</mask>
<g mask="url(#mask13_230_13278)">
<path d="M220.461 410.112L237.12 409.967L252.589 409.429L260.918 409.594L270.438 408.769L272.817 408.507L276.387 407.892L278.767 407.908L281.147 407.988L283.527 407.668L290.666 406.299L295.426 406.053L297.806 405.172L300.186 404.325L303.755 403.845L304.945 403.446L315.655 398.145L318.034 396.611L325.174 391.215L327.554 388.814L331.124 384.499L333.503 380.981L335.883 376.629L341.833 364.818L343.023 361.483L344.213 357.399L345.403 352.49L346.593 346.639L347.783 339.725L350.162 323.233L353.732 296.669L354.922 286.194L356.112 273.466L357.302 258.247L359.682 222.986L363.251 165.683L366.821 103.478L368.011 87.2481L369.201 76.5338L370.391 72.1924L371.581 74.1663L372.771 82.008L373.961 95.2687L375.151 113.441L376.341 135.737L378.72 188.222L382.29 268.49L383.48 291.434L384.67 311.514L385.86 328.729L387.05 343.293L388.24 355.444L389.43 365.388L390.62 373.354L391.81 379.615L393 384.443L394.189 388.101L395.379 390.876L396.569 393.074L398.949 396.625L401.329 399.472L403.709 401.714L406.089 403.712L407.279 404.559L408.469 405.224L410.848 406.063L417.988 407.982L425.127 408.853L427.507 409.285L431.077 409.439L437.027 409.695L445.356 409.938L451.306 409.952L456.065 410.106L457.255 410.111" fill="#EFEFEF" fill-opacity="0.4"/>
<path d="M220.461 410.112L237.12 409.967L252.589 409.429L260.918 409.594L270.438 408.769L272.817 408.507L276.387 407.892L278.767 407.908L281.147 407.988L283.527 407.668L290.666 406.299L295.426 406.053L297.806 405.172L300.186 404.325L303.755 403.845L304.945 403.446L315.655 398.145L318.034 396.611L325.174 391.215L327.554 388.814L331.124 384.499L333.503 380.981L335.883 376.629L341.833 364.818L343.023 361.483L344.213 357.399L345.403 352.49L346.593 346.639L347.783 339.725L350.162 323.233L353.732 296.669L354.922 286.194L356.112 273.466L357.302 258.247L359.682 222.986L363.251 165.683L366.821 103.478L368.011 87.2481L369.201 76.5338L370.391 72.1924L371.581 74.1663L372.771 82.008L373.961 95.2687L375.151 113.441L376.341 135.737L378.72 188.222L382.29 268.49L383.48 291.434L384.67 311.514L385.86 328.729L387.05 343.293L388.24 355.444L389.43 365.388L390.62 373.354L391.81 379.615L393 384.443L394.189 388.101L395.379 390.876L396.569 393.074L398.949 396.625L401.329 399.472L403.709 401.714L406.089 403.712L407.279 404.559L408.469 405.224L410.848 406.063L417.988 407.982L425.127 408.853L427.507 409.285L431.077 409.439L437.027 409.695L445.356 409.938L451.306 409.952L456.065 410.106L457.255 410.111" stroke="#EFEFEF" stroke-linecap="square"/>
</g>
<mask id="mask14_230_13278" style="mask-type:luminance" maskUnits="userSpaceOnUse" x="76" y="55" width="477" height="356">
<path d="M552.957 55.2959H76.7969V410.112H552.957V55.2959Z" fill="white"/>
</mask>
<g mask="url(#mask14_230_13278)">
<path d="M98.4375 410.111L178.49 409.938L189.163 409.423L192.721 408.987L196.279 408.221L199.837 407.107L203.395 405.578L205.174 404.588L208.732 402.122L217.626 395.162L219.405 393.566L222.963 389.755L231.858 378.872L235.416 375.236L237.195 373.711L238.974 372.402L242.531 370.341L249.647 366.685L253.205 364.515L258.542 360.905L260.321 359.589L262.1 358.086L263.879 356.292L265.658 354.147L267.437 351.658L270.994 345.849L276.331 335.952L279.889 328.951L283.447 321.048L287.005 311.77L292.342 297.472L295.9 289.344L297.678 285.8L299.457 282.66L301.236 280.07L303.015 278.228L304.794 277.308L306.573 277.392L308.352 278.457L310.131 280.389L311.91 283.023L313.689 286.191L315.468 289.811L317.247 293.932L319.026 298.686L320.805 304.152L324.363 316.725L329.699 336.248L333.257 348.45L336.815 359.562L340.373 369.348L343.931 377.806L347.489 385.023L349.268 388.177L351.047 391.004L352.826 393.478L354.604 395.591L356.383 397.367L358.162 398.859L361.72 401.267L365.278 403.242L368.836 404.869L372.394 406.059L375.952 406.829L381.289 407.496L395.52 408.804L415.088 409.408L422.204 409.682L452.446 410.11" fill="#7EB0D5" fill-opacity="0.4"/>
<path d="M98.4375 410.111L178.49 409.938L189.163 409.423L192.721 408.987L196.279 408.221L199.837 407.107L203.395 405.578L205.174 404.588L208.732 402.122L217.626 395.162L219.405 393.566L222.963 389.755L231.858 378.872L235.416 375.236L237.195 373.711L238.974 372.402L242.531 370.341L249.647 366.685L253.205 364.515L258.542 360.905L260.321 359.589L262.1 358.086L263.879 356.292L265.658 354.147L267.437 351.658L270.994 345.849L276.331 335.952L279.889 328.951L283.447 321.048L287.005 311.77L292.342 297.472L295.9 289.344L297.678 285.8L299.457 282.66L301.236 280.07L303.015 278.228L304.794 277.308L306.573 277.392L308.352 278.457L310.131 280.389L311.91 283.023L313.689 286.191L315.468 289.811L317.247 293.932L319.026 298.686L320.805 304.152L324.363 316.725L329.699 336.248L333.257 348.45L336.815 359.562L340.373 369.348L343.931 377.806L347.489 385.023L349.268 388.177L351.047 391.004L352.826 393.478L354.604 395.591L356.383 397.367L358.162 398.859L361.72 401.267L365.278 403.242L368.836 404.869L372.394 406.059L375.952 406.829L381.289 407.496L395.52 408.804L415.088 409.408L422.204 409.682L452.446 410.11" stroke="#7EB0D5" stroke-linecap="square"/>
</g>
<path d="M535.061 411.061C535.646 410.475 535.646 409.525 535.061 408.939L525.515 399.393C524.929 398.808 523.979 398.808 523.393 399.393C522.808 399.979 522.808 400.929 523.393 401.515L531.879 410L523.393 418.485C522.808 419.071 522.808 420.021 523.393 420.607C523.979 421.192 524.929 421.192 525.515 420.607L535.061 411.061ZM79 411.5H534V408.5H79V411.5Z" fill="black"/>
</g>
<defs>
<clipPath id="clip0_230_13278">
<rect width="614.4" height="460.8" fill="white"/>
</clipPath>
</defs>
</svg>
