<svg width="615" height="461" viewBox="0 0 615 461" fill="none" xmlns="http://www.w3.org/2000/svg">
<mask id="mask0_230_12638" style="mask-type:luminance" maskUnits="userSpaceOnUse" x="76" y="55" width="477" height="356">
<path d="M552.957 55.2959H76.7969V410.112H552.957V55.2959Z" fill="white"/>
</mask>
<g mask="url(#mask0_230_12638)">
<path d="M360.625 410.111L369.688 409.96L381.017 409.322L383.283 409.248L390.081 408.295L393.857 407.291L395.368 406.798L396.878 406.054L398.389 404.931L399.144 404.126L400.654 401.86L404.431 394.823L405.186 393.077L406.697 388.355L408.962 379.053L410.473 372.303L411.984 364.026L413.494 353.456L417.27 323.24L418.781 309.35L420.292 293.017L421.802 273.397L424.068 239.239L430.865 128.641L431.621 119.144L432.376 111.59L433.131 106.29L433.886 102.993L435.397 99.2828L436.908 96.0492L437.663 95.4268L438.418 96.4766L439.173 99.5145L439.929 104.223L441.439 116.043L442.95 129.897L444.46 147.977L447.481 187.563L449.747 215.657L453.524 264.569L455.034 280.751L460.321 330.1L461.832 342.779L463.342 352.354L464.853 359.715L466.363 365.751L467.874 370.484L469.384 375.066L470.895 381.027L473.161 390.879L473.916 393.378L474.671 395.273L475.426 396.643L476.937 398.422L480.713 401.997L482.979 404.238L485.245 405.991L486.756 406.685L489.021 407.064L490.532 407.374L492.798 408.232L495.064 409.138L496.574 409.465L499.595 409.641L510.924 410.11" fill="#EFEFEF" fill-opacity="0.4"/>
<path d="M360.625 410.111L369.688 409.96L381.017 409.322L383.283 409.248L390.081 408.295L393.857 407.291L395.368 406.798L396.878 406.054L398.389 404.931L399.144 404.126L400.654 401.86L404.431 394.823L405.186 393.077L406.697 388.355L408.962 379.053L410.473 372.303L411.984 364.026L413.494 353.456L417.27 323.24L418.781 309.35L420.292 293.017L421.802 273.397L424.068 239.239L430.865 128.641L431.621 119.144L432.376 111.59L433.131 106.29L433.886 102.993L435.397 99.2828L436.908 96.0492L437.663 95.4268L438.418 96.4766L439.173 99.5145L439.929 104.223L441.439 116.043L442.95 129.897L444.46 147.977L447.481 187.563L449.747 215.657L453.524 264.569L455.034 280.751L460.321 330.1L461.832 342.779L463.342 352.354L464.853 359.715L466.363 365.751L467.874 370.484L469.384 375.066L470.895 381.027L473.161 390.879L473.916 393.378L474.671 395.273L475.426 396.643L476.937 398.422L480.713 401.997L482.979 404.238L485.245 405.991L486.756 406.685L489.021 407.064L490.532 407.374L492.798 408.232L495.064 409.138L496.574 409.465L499.595 409.641L510.924 410.11" stroke="#EFEFEF" stroke-linecap="square"/>
</g>
<mask id="mask1_230_12638" style="mask-type:luminance" maskUnits="userSpaceOnUse" x="76" y="55" width="477" height="356">
<path d="M552.957 55.2959H76.7969V410.112H552.957V55.2959Z" fill="white"/>
</mask>
<g mask="url(#mask1_230_12638)">
<path d="M340.258 410.111L346.456 409.972L363.28 408.666L365.936 408.09L370.363 406.72L372.134 406.587L375.676 406.774L377.447 406.514L379.218 405.938L381.874 404.741L384.531 403.237L386.302 401.755L391.614 396.424L393.385 394.423L395.156 391.642L397.813 386.424L400.469 380.644L402.24 376.126L404.011 370.27L405.782 362.319L408.438 347.516L410.209 336.567L411.98 323.908L416.407 287.548L419.063 264.221L422.605 232.304L425.262 211.181L427.918 193.41L430.574 178.033L432.345 169.502L434.116 162.797L435.002 160.355L435.887 158.699L436.773 157.955L437.658 158.222L438.544 159.55L439.429 161.926L440.314 165.278L441.2 169.509L442.971 180.257L444.742 193.437L451.825 251.434L456.253 291.203L458.024 304.25L462.451 333.904L465.107 349.464L469.534 374.517L470.42 378.544L471.305 381.874L473.076 386.842L475.733 392.53L479.274 399.648L481.045 402.513L481.931 403.599L482.816 404.426L484.587 405.462L494.327 409.442L496.098 409.776L499.64 409.959L504.953 410.019L510.265 410.002L516.464 410.111" fill="#EFEFEF" fill-opacity="0.4"/>
<path d="M340.258 410.111L346.456 409.972L363.28 408.666L365.936 408.09L370.363 406.72L372.134 406.587L375.676 406.774L377.447 406.514L379.218 405.938L381.874 404.741L384.531 403.237L386.302 401.755L391.614 396.424L393.385 394.423L395.156 391.642L397.813 386.424L400.469 380.644L402.24 376.126L404.011 370.27L405.782 362.319L408.438 347.516L410.209 336.567L411.98 323.908L416.407 287.548L419.063 264.221L422.605 232.304L425.262 211.181L427.918 193.41L430.574 178.033L432.345 169.502L434.116 162.797L435.002 160.355L435.887 158.699L436.773 157.955L437.658 158.222L438.544 159.55L439.429 161.926L440.314 165.278L441.2 169.509L442.971 180.257L444.742 193.437L451.825 251.434L456.253 291.203L458.024 304.25L462.451 333.904L465.107 349.464L469.534 374.517L470.42 378.544L471.305 381.874L473.076 386.842L475.733 392.53L479.274 399.648L481.045 402.513L481.931 403.599L482.816 404.426L484.587 405.462L494.327 409.442L496.098 409.776L499.64 409.959L504.953 410.019L510.265 410.002L516.464 410.111" stroke="#EFEFEF" stroke-linecap="square"/>
</g>
<mask id="mask2_230_12638" style="mask-type:luminance" maskUnits="userSpaceOnUse" x="76" y="55" width="477" height="356">
<path d="M552.957 55.2959H76.7969V410.112H552.957V55.2959Z" fill="white"/>
</mask>
<g mask="url(#mask2_230_12638)">
<path d="M339.344 410.111L360.055 409.947L371.352 409.583L377.942 409.674L384.531 408.933L391.121 407.643L393.004 407.041L394.887 405.985L396.77 404.38L398.653 402.279L400.535 399.633L401.477 397.965L402.418 395.959L404.301 390.838L406.184 384.555L409.008 373.863L410.891 365.886L412.774 356.923L415.598 341.67L417.481 329.925L419.364 316.201L424.071 278.198L425.953 261.541L433.485 189.359L434.426 182.06L435.367 175.959L436.309 171.395L437.25 168.467L438.192 167.024L439.133 166.813L440.075 167.673L441.016 169.617L441.957 172.751L442.899 177.093L444.782 188.347L446.664 200.081L449.489 215.197L453.254 235.002L456.078 251.65L463.61 298.724L466.434 313.259L470.2 330.784L473.024 342.318L479.614 367.029L485.262 386.172L487.145 391.072L489.028 394.58L490.911 397.21L492.793 399.328L498.442 404.971L500.325 406.123L505.032 408.172L506.915 408.682L513.504 409.509L517.27 409.808L524.801 410.105L526.684 410.111" fill="#EFEFEF" fill-opacity="0.4"/>
<path d="M339.344 410.111L360.055 409.947L371.352 409.583L377.942 409.674L384.531 408.933L391.121 407.643L393.004 407.041L394.887 405.985L396.77 404.38L398.653 402.279L400.535 399.633L401.477 397.965L402.418 395.959L404.301 390.838L406.184 384.555L409.008 373.863L410.891 365.886L412.774 356.923L415.598 341.67L417.481 329.925L419.364 316.201L424.071 278.198L425.953 261.541L433.485 189.359L434.426 182.06L435.367 175.959L436.309 171.395L437.25 168.467L438.192 167.024L439.133 166.813L440.075 167.673L441.016 169.617L441.957 172.751L442.899 177.093L444.782 188.347L446.664 200.081L449.489 215.197L453.254 235.002L456.078 251.65L463.61 298.724L466.434 313.259L470.2 330.784L473.024 342.318L479.614 367.029L485.262 386.172L487.145 391.072L489.028 394.58L490.911 397.21L492.793 399.328L498.442 404.971L500.325 406.123L505.032 408.172L506.915 408.682L513.504 409.509L517.27 409.808L524.801 410.105L526.684 410.111" stroke="#EFEFEF" stroke-linecap="square"/>
</g>
<mask id="mask3_230_12638" style="mask-type:luminance" maskUnits="userSpaceOnUse" x="76" y="55" width="477" height="356">
<path d="M552.957 55.2959H76.7969V410.112H552.957V55.2959Z" fill="white"/>
</mask>
<g mask="url(#mask3_230_12638)">
<path d="M332.867 410.111L356.437 409.924L360.646 409.645L364.013 409.236L369.905 409.055L372.431 408.609L378.323 407.031L380.007 406.076L385.899 401.981L387.583 401.179L389.266 399.972L390.108 399.053L391.792 396.433L395.159 390.429L396.842 387.408L398.526 383.558L401.051 376.775L402.735 371.145L408.627 348.957L410.311 340.389L412.836 324.144L417.045 297.277L418.729 282.124L420.412 263.349L425.463 203.489L427.988 176.338L430.514 142.093L432.197 121.658L433.039 114.197L433.881 108.83L434.722 105.524L435.564 104.204L436.406 104.755L437.248 106.974L438.09 110.574L439.773 120.664L441.457 133.467L443.14 149.978L444.824 172.04L447.349 213.363L449.874 253.974L451.558 275.211L453.242 292.379L459.134 346.977L460.818 359.293L462.501 368.607L464.185 376.163L466.71 385.905L468.394 391.102L470.077 395.269L472.602 400.776L474.286 403.89L475.128 405.085L476.811 406.729L478.495 407.696L480.178 408.26L484.387 409.143L487.754 409.499L497.014 410.073L500.381 410.111" fill="#EFEFEF" fill-opacity="0.4"/>
<path d="M332.867 410.111L356.437 409.924L360.646 409.645L364.013 409.236L369.905 409.055L372.431 408.609L378.323 407.031L380.007 406.076L385.899 401.981L387.583 401.179L389.266 399.972L390.108 399.053L391.792 396.433L395.159 390.429L396.842 387.408L398.526 383.558L401.051 376.775L402.735 371.145L408.627 348.957L410.311 340.389L412.836 324.144L417.045 297.277L418.729 282.124L420.412 263.349L425.463 203.489L427.988 176.338L430.514 142.093L432.197 121.658L433.039 114.197L433.881 108.83L434.722 105.524L435.564 104.204L436.406 104.755L437.248 106.974L438.09 110.574L439.773 120.664L441.457 133.467L443.14 149.978L444.824 172.04L447.349 213.363L449.874 253.974L451.558 275.211L453.242 292.379L459.134 346.977L460.818 359.293L462.501 368.607L464.185 376.163L466.71 385.905L468.394 391.102L470.077 395.269L472.602 400.776L474.286 403.89L475.128 405.085L476.811 406.729L478.495 407.696L480.178 408.26L484.387 409.143L487.754 409.499L497.014 410.073L500.381 410.111" stroke="#EFEFEF" stroke-linecap="square"/>
</g>
<mask id="mask4_230_12638" style="mask-type:luminance" maskUnits="userSpaceOnUse" x="76" y="55" width="477" height="356">
<path d="M552.957 55.2959H76.7969V410.112H552.957V55.2959Z" fill="white"/>
</mask>
<g mask="url(#mask4_230_12638)">
<path d="M345.867 410.111L353.879 409.977L361 409.614L364.561 409.375L370.792 409.326L378.803 408.429L382.364 408.174L389.485 407.265L392.155 406.451L396.606 404.776L399.277 403.466L401.947 401.678L404.618 399.876L407.288 398.265L408.178 397.43L409.068 396.311L410.849 393.258L412.629 389.487L414.409 385.156L416.19 379.879L417.97 373.128L419.75 364.827L423.311 347.496L425.091 340.394L427.762 331.362L429.542 326.308L430.432 324.304L431.322 322.81L432.213 321.898L433.103 321.543L433.993 321.615L436.663 322.445L438.444 322.397L440.224 321.838L441.114 321.263L442.004 320.305L442.894 318.791L443.785 316.593L444.675 313.662L445.565 310.025L447.345 300.794L449.126 288.648L450.906 272.646L452.686 252.674L455.357 217.498L458.917 169.263L460.698 150.34L461.588 143.23L462.478 137.881L463.368 134.343L464.258 132.617L465.148 132.661L466.039 134.392L466.929 137.686L467.819 142.378L468.709 148.27L470.489 162.899L472.27 180.651L474.05 201.595L476.72 237.974L481.171 299.589L482.952 321.767L484.732 340.71L486.512 355.27L488.292 365.824L490.963 378.363L493.633 389.836L495.414 395.601L497.194 399.585L498.974 402.603L500.755 405.121L502.535 406.996L503.425 407.637L505.205 408.385L507.876 408.801L511.437 409.434L514.107 409.857L517.668 410.057L523.009 410.111" fill="#EFEFEF" fill-opacity="0.4"/>
<path d="M345.867 410.111L353.879 409.977L361 409.614L364.561 409.375L370.792 409.326L378.803 408.429L382.364 408.174L389.485 407.265L392.155 406.451L396.606 404.776L399.277 403.466L401.947 401.678L404.618 399.876L407.288 398.265L408.178 397.43L409.068 396.311L410.849 393.258L412.629 389.487L414.409 385.156L416.19 379.879L417.97 373.128L419.75 364.827L423.311 347.496L425.091 340.394L427.762 331.362L429.542 326.308L430.432 324.304L431.322 322.81L432.213 321.898L433.103 321.543L433.993 321.615L436.663 322.445L438.444 322.397L440.224 321.838L441.114 321.263L442.004 320.305L442.894 318.791L443.785 316.593L444.675 313.662L445.565 310.025L447.345 300.794L449.126 288.648L450.906 272.646L452.686 252.674L455.357 217.498L458.917 169.263L460.698 150.34L461.588 143.23L462.478 137.881L463.368 134.343L464.258 132.617L465.148 132.661L466.039 134.392L466.929 137.686L467.819 142.378L468.709 148.27L470.489 162.899L472.27 180.651L474.05 201.595L476.72 237.974L481.171 299.589L482.952 321.767L484.732 340.71L486.512 355.27L488.292 365.824L490.963 378.363L493.633 389.836L495.414 395.601L497.194 399.585L498.974 402.603L500.755 405.121L502.535 406.996L503.425 407.637L505.205 408.385L507.876 408.801L511.437 409.434L514.107 409.857L517.668 410.057L523.009 410.111" stroke="#EFEFEF" stroke-linecap="square"/>
</g>
<mask id="mask5_230_12638" style="mask-type:luminance" maskUnits="userSpaceOnUse" x="76" y="55" width="477" height="356">
<path d="M552.957 55.2959H76.7969V410.112H552.957V55.2959Z" fill="white"/>
</mask>
<g mask="url(#mask5_230_12638)">
<path d="M352.352 410.111L358.647 409.976L364.043 409.736L369.438 409.948L373.935 410.047L379.331 409.8L383.827 409.609L387.425 409.384L392.82 409.051L397.317 408.656L401.814 408.178L403.612 407.631L405.411 406.536L407.209 404.855L409.907 401.741L411.706 399.364L412.605 397.918L413.505 396.182L415.303 391.737L424.296 365.523L426.095 358.02L429.692 342.16L432.39 330.302L434.189 320.921L435.987 309.946L438.685 290.783L441.383 271.791L443.182 261.501L446.779 242.455L449.477 227.804L452.175 215.768L455.772 200.387L458.47 190.958L460.269 185.117L461.168 182.884L462.067 181.607L462.967 181.501L463.866 182.519L464.765 184.395L466.564 189.455L468.362 195.62L469.262 199.497L470.161 204.169L471.96 216.041L473.758 230.655L480.053 285.285L486.349 335.524L488.147 348.26L489.946 359.402L491.744 369.144L493.543 377.14L495.342 383.285L498.04 390.68L499.838 394.999L501.637 398.567L503.435 401.329L505.234 403.553L507.033 405.362L508.831 406.618L510.63 407.302L514.227 408.328L516.925 409.098L519.623 409.455L527.717 410.062L531.314 410.11" fill="#EFEFEF" fill-opacity="0.4"/>
<path d="M352.352 410.111L358.647 409.976L364.043 409.736L369.438 409.948L373.935 410.047L379.331 409.8L383.827 409.609L387.425 409.384L392.82 409.051L397.317 408.656L401.814 408.178L403.612 407.631L405.411 406.536L407.209 404.855L409.907 401.741L411.706 399.364L412.605 397.918L413.505 396.182L415.303 391.737L424.296 365.523L426.095 358.02L429.692 342.16L432.39 330.302L434.189 320.921L435.987 309.946L438.685 290.783L441.383 271.791L443.182 261.501L446.779 242.455L449.477 227.804L452.175 215.768L455.772 200.387L458.47 190.958L460.269 185.117L461.168 182.884L462.067 181.607L462.967 181.501L463.866 182.519L464.765 184.395L466.564 189.455L468.362 195.62L469.262 199.497L470.161 204.169L471.96 216.041L473.758 230.655L480.053 285.285L486.349 335.524L488.147 348.26L489.946 359.402L491.744 369.144L493.543 377.14L495.342 383.285L498.04 390.68L499.838 394.999L501.637 398.567L503.435 401.329L505.234 403.553L507.033 405.362L508.831 406.618L510.63 407.302L514.227 408.328L516.925 409.098L519.623 409.455L527.717 410.062L531.314 410.11" stroke="#EFEFEF" stroke-linecap="square"/>
</g>
<mask id="mask6_230_12638" style="mask-type:luminance" maskUnits="userSpaceOnUse" x="76" y="55" width="477" height="356">
<path d="M552.957 55.2959H76.7969V410.112H552.957V55.2959Z" fill="white"/>
</mask>
<g mask="url(#mask6_230_12638)">
<path d="M323.25 410.111L335.074 409.956L342.956 409.629L344.927 409.352L346.898 408.771L348.868 407.761L350.839 406.212L352.81 403.944L354.78 400.721L356.751 396.46L358.721 391.338L360.692 385.543L362.663 379.039L364.633 371.708L368.575 355.248L370.545 347.343L372.516 340.706L374.487 335.406L378.428 326.277L382.369 317.789L388.281 305.145L390.252 302.131L393.208 298.382L394.193 296.705L395.178 294.578L396.164 291.961L398.134 285.582L401.09 275.812L403.061 270.749L406.017 264.643L409.958 256.943L410.943 255.439L411.929 254.264L412.914 253.432L413.899 252.905L415.87 252.427L418.826 252.201L419.811 252.332L420.797 252.725L421.782 253.495L422.767 254.73L423.753 256.47L424.738 258.694L426.709 264.21L430.65 276.807L433.606 287.32L439.518 309.148L444.444 326.1L447.4 337.831L452.327 357.755L456.268 372.937L458.239 379.59L460.209 385.396L463.165 393.127L465.136 397.516L467.107 400.943L469.077 403.401L471.048 405.13L473.019 406.394L474.989 407.372L477.945 408.441L480.901 409.078L484.842 409.541L489.769 409.836L505.534 410.077L516.373 410.105L519.329 410.111" fill="#EFEFEF" fill-opacity="0.4"/>
<path d="M323.25 410.111L335.074 409.956L342.956 409.629L344.927 409.352L346.898 408.771L348.868 407.761L350.839 406.212L352.81 403.944L354.78 400.721L356.751 396.46L358.721 391.338L360.692 385.543L362.663 379.039L364.633 371.708L368.575 355.248L370.545 347.343L372.516 340.706L374.487 335.406L378.428 326.277L382.369 317.789L388.281 305.145L390.252 302.131L393.208 298.382L394.193 296.705L395.178 294.578L396.164 291.961L398.134 285.582L401.09 275.812L403.061 270.749L406.017 264.643L409.958 256.943L410.943 255.439L411.929 254.264L412.914 253.432L413.899 252.905L415.87 252.427L418.826 252.201L419.811 252.332L420.797 252.725L421.782 253.495L422.767 254.73L423.753 256.47L424.738 258.694L426.709 264.21L430.65 276.807L433.606 287.32L439.518 309.148L444.444 326.1L447.4 337.831L452.327 357.755L456.268 372.937L458.239 379.59L460.209 385.396L463.165 393.127L465.136 397.516L467.107 400.943L469.077 403.401L471.048 405.13L473.019 406.394L474.989 407.372L477.945 408.441L480.901 409.078L484.842 409.541L489.769 409.836L505.534 410.077L516.373 410.105L519.329 410.111" stroke="#EFEFEF" stroke-linecap="square"/>
</g>
<mask id="mask7_230_12638" style="mask-type:luminance" maskUnits="userSpaceOnUse" x="76" y="55" width="477" height="356">
<path d="M552.957 55.2959H76.7969V410.112H552.957V55.2959Z" fill="white"/>
</mask>
<g mask="url(#mask7_230_12638)">
<path d="M352 410.111L361.445 409.957L366.597 409.977L376.901 409.863L379.477 409.499L382.912 408.909L386.347 408.704L388.064 408.796L391.499 409.259L393.216 409.16L394.933 408.653L399.227 406.711L401.803 405.761L403.52 404.71L405.237 403.281L406.955 401.547L408.672 399.32L410.389 396.334L412.107 392.6L413.824 388.156L416.4 380.119L420.693 365.97L422.411 358.439L424.128 349.166L426.704 333.188L429.28 314.903L431.856 294.066L435.291 265.707L437.008 253.247L441.301 224.859L444.736 200.131L449.029 174.144L450.747 165.65L451.605 162.419L452.464 159.875L453.323 157.943L454.181 156.542L455.04 155.652L455.899 155.38L456.757 155.952L457.616 157.603L458.475 160.424L459.333 164.277L461.051 173.85L462.768 184.75L464.485 197.786L466.203 213.822L467.92 232.393L470.496 264.311L472.213 285.732L473.931 303.496L475.648 317.601L478.224 335.972L480.8 351.909L482.517 360.845L485.952 376.385L488.528 386.775L490.245 392.168L491.104 394.23L491.963 395.877L493.68 398.289L496.256 401.666L498.832 405.26L499.691 406.127L500.549 406.768L502.267 407.521L503.984 407.867L507.419 408.336L511.712 409.275L518.581 410.043L522.875 410.111" fill="#EFEFEF" fill-opacity="0.4"/>
<path d="M352 410.111L361.445 409.957L366.597 409.977L376.901 409.863L379.477 409.499L382.912 408.909L386.347 408.704L388.064 408.796L391.499 409.259L393.216 409.16L394.933 408.653L399.227 406.711L401.803 405.761L403.52 404.71L405.237 403.281L406.955 401.547L408.672 399.32L410.389 396.334L412.107 392.6L413.824 388.156L416.4 380.119L420.693 365.97L422.411 358.439L424.128 349.166L426.704 333.188L429.28 314.903L431.856 294.066L435.291 265.707L437.008 253.247L441.301 224.859L444.736 200.131L449.029 174.144L450.747 165.65L451.605 162.419L452.464 159.875L453.323 157.943L454.181 156.542L455.04 155.652L455.899 155.38L456.757 155.952L457.616 157.603L458.475 160.424L459.333 164.277L461.051 173.85L462.768 184.75L464.485 197.786L466.203 213.822L467.92 232.393L470.496 264.311L472.213 285.732L473.931 303.496L475.648 317.601L478.224 335.972L480.8 351.909L482.517 360.845L485.952 376.385L488.528 386.775L490.245 392.168L491.104 394.23L491.963 395.877L493.68 398.289L496.256 401.666L498.832 405.26L499.691 406.127L500.549 406.768L502.267 407.521L503.984 407.867L507.419 408.336L511.712 409.275L518.581 410.043L522.875 410.111" stroke="#EFEFEF" stroke-linecap="square"/>
</g>
<mask id="mask8_230_12638" style="mask-type:luminance" maskUnits="userSpaceOnUse" x="76" y="55" width="477" height="356">
<path d="M552.957 55.2959H76.7969V410.112H552.957V55.2959Z" fill="white"/>
</mask>
<g mask="url(#mask8_230_12638)">
<path d="M346.055 410.111L351.194 409.956L355.477 409.612L363.187 409.804L371.753 409.754L378.605 409.518L383.745 408.996L394.881 407.828L395.737 407.5L396.594 406.978L397.45 406.191L398.307 405.075L399.164 403.586L400.02 401.689L400.877 399.32L401.733 396.352L402.59 392.593L403.447 387.842L404.303 381.963L406.016 366.655L407.73 346.591L409.443 321.863L412.869 264.397L415.439 223.607L417.152 200.785L418.009 191.8L418.865 184.725L419.722 179.318L421.435 171.552L423.148 165.85L424.005 163.645L424.862 161.862L425.718 160.491L426.575 159.555L427.431 159.059L430.001 158.627L430.858 158.023L433.428 155.118L434.284 155.546L435.141 157.548L435.997 161.012L438.567 174.627L440.28 184.731L441.994 198.058L444.563 222.764L452.273 300.075L453.986 311.688L461.695 354.988L463.408 362.81L465.122 368.914L466.835 373.562L469.405 380.116L472.831 389.959L474.544 393.805L476.257 396.954L477.971 399.673L479.684 401.941L481.397 403.727L483.11 404.988L485.68 406.32L488.25 407.348L491.676 408.339L494.246 408.858L497.672 409.204L507.951 409.761L510.521 409.82L514.804 410.095L516.517 410.11" fill="#EFEFEF" fill-opacity="0.4"/>
<path d="M346.055 410.111L351.194 409.956L355.477 409.612L363.187 409.804L371.753 409.754L378.605 409.518L383.745 408.996L394.881 407.828L395.737 407.5L396.594 406.978L397.45 406.191L398.307 405.075L399.164 403.586L400.02 401.689L400.877 399.32L401.733 396.352L402.59 392.593L403.447 387.842L404.303 381.963L406.016 366.655L407.73 346.591L409.443 321.863L412.869 264.397L415.439 223.607L417.152 200.785L418.009 191.8L418.865 184.725L419.722 179.318L421.435 171.552L423.148 165.85L424.005 163.645L424.862 161.862L425.718 160.491L426.575 159.555L427.431 159.059L430.001 158.627L430.858 158.023L433.428 155.118L434.284 155.546L435.141 157.548L435.997 161.012L438.567 174.627L440.28 184.731L441.994 198.058L444.563 222.764L452.273 300.075L453.986 311.688L461.695 354.988L463.408 362.81L465.122 368.914L466.835 373.562L469.405 380.116L472.831 389.959L474.544 393.805L476.257 396.954L477.971 399.673L479.684 401.941L481.397 403.727L483.11 404.988L485.68 406.32L488.25 407.348L491.676 408.339L494.246 408.858L497.672 409.204L507.951 409.761L510.521 409.82L514.804 410.095L516.517 410.11" stroke="#EFEFEF" stroke-linecap="square"/>
</g>
<mask id="mask9_230_12638" style="mask-type:luminance" maskUnits="userSpaceOnUse" x="76" y="55" width="477" height="356">
<path d="M552.957 55.2959H76.7969V410.112H552.957V55.2959Z" fill="white"/>
</mask>
<g mask="url(#mask9_230_12638)">
<path d="M345.031 410.111L369.186 409.953L377.237 409.585L380.815 409.377L389.761 408.324L395.129 407.52L396.024 407.141L396.918 406.557L397.813 405.742L399.602 403.448L401.391 400.481L403.18 396.945L404.075 394.805L404.97 392.267L406.759 385.705L408.548 377.103L410.337 366.509L412.126 353.929L413.916 339.466L416.599 315.024L420.178 282.448L422.862 258.486L429.124 198.84L431.808 178.424L433.597 166.998L434.492 162.913L435.386 160.489L436.281 159.782L437.175 160.455L438.07 161.956L439.859 165.961L440.754 168.527L441.648 171.81L443.438 180.739L447.911 207.542L452.384 234.59L454.173 249.201L455.962 264.356L457.751 277.273L462.224 307.146L464.908 325.313L466.697 335.621L469.381 349.432L472.065 361.846L473.854 368.747L475.643 374.092L481.011 387.315L483.695 393.33L485.484 396.77L487.273 399.361L489.957 402.194L492.641 404.7L494.43 405.916L496.219 406.737L499.798 408.159L502.481 409.246L504.271 409.65L506.06 409.794L512.322 409.933L517.69 410.044L523.057 410.111" fill="#EFEFEF" fill-opacity="0.4"/>
<path d="M345.031 410.111L369.186 409.953L377.237 409.585L380.815 409.377L389.761 408.324L395.129 407.52L396.024 407.141L396.918 406.557L397.813 405.742L399.602 403.448L401.391 400.481L403.18 396.945L404.075 394.805L404.97 392.267L406.759 385.705L408.548 377.103L410.337 366.509L412.126 353.929L413.916 339.466L416.599 315.024L420.178 282.448L422.862 258.486L429.124 198.84L431.808 178.424L433.597 166.998L434.492 162.913L435.386 160.489L436.281 159.782L437.175 160.455L438.07 161.956L439.859 165.961L440.754 168.527L441.648 171.81L443.438 180.739L447.911 207.542L452.384 234.59L454.173 249.201L455.962 264.356L457.751 277.273L462.224 307.146L464.908 325.313L466.697 335.621L469.381 349.432L472.065 361.846L473.854 368.747L475.643 374.092L481.011 387.315L483.695 393.33L485.484 396.77L487.273 399.361L489.957 402.194L492.641 404.7L494.43 405.916L496.219 406.737L499.798 408.159L502.481 409.246L504.271 409.65L506.06 409.794L512.322 409.933L517.69 410.044L523.057 410.111" stroke="#EFEFEF" stroke-linecap="square"/>
</g>
<mask id="mask10_230_12638" style="mask-type:luminance" maskUnits="userSpaceOnUse" x="76" y="55" width="477" height="356">
<path d="M552.957 55.2959H76.7969V410.112H552.957V55.2959Z" fill="white"/>
</mask>
<g mask="url(#mask10_230_12638)">
<path d="M341.641 410.11L348.262 409.956L353.229 409.733L358.195 409.077L361.506 408.864L366.473 408.258L368.128 408.049L369.784 407.554L373.922 405.651L375.578 405.458L378.889 405.601L380.544 405.337L382.2 404.766L383.855 403.899L387.994 401.495L390.477 400.637L395.443 399.045L397.099 398.204L398.754 396.819L400.41 394.851L402.893 391.283L404.548 388.542L407.031 383.699L413.653 369.701L415.309 365.177L417.792 357.222L420.275 348.074L422.758 337.938L424.414 330.494L426.069 321.697L427.725 310.737L430.208 291.22L432.691 271.643L434.347 260.044L436.83 245.101L440.141 225.797L442.624 209.373L449.246 160.893L452.557 134.472L453.384 129.149L454.212 124.927L455.04 121.921L455.868 120.231L456.695 120.028L457.523 121.563L458.351 125.104L459.179 130.839L460.006 138.816L460.834 148.942L462.49 174.984L464.145 207.516L469.111 313.216L470.767 339.732L472.422 359.837L474.078 374.523L475.733 385.33L477.389 393.277L478.216 396.306L479.044 398.762L479.872 400.722L481.527 403.585L483.183 405.661L484.838 407.235L486.494 408.3L488.149 408.952L490.632 409.494L493.943 409.807L502.221 410.06L506.359 410.111" fill="#EFEFEF" fill-opacity="0.4"/>
<path d="M341.641 410.11L348.262 409.956L353.229 409.733L358.195 409.077L361.506 408.864L366.473 408.258L368.128 408.049L369.784 407.554L373.922 405.651L375.578 405.458L378.889 405.601L380.544 405.337L382.2 404.766L383.855 403.899L387.994 401.495L390.477 400.637L395.443 399.045L397.099 398.204L398.754 396.819L400.41 394.851L402.893 391.283L404.548 388.542L407.031 383.699L413.653 369.701L415.309 365.177L417.792 357.222L420.275 348.074L422.758 337.938L424.414 330.494L426.069 321.697L427.725 310.737L430.208 291.22L432.691 271.643L434.347 260.044L436.83 245.101L440.141 225.797L442.624 209.373L449.246 160.893L452.557 134.472L453.384 129.149L454.212 124.927L455.04 121.921L455.868 120.231L456.695 120.028L457.523 121.563L458.351 125.104L459.179 130.839L460.006 138.816L460.834 148.942L462.49 174.984L464.145 207.516L469.111 313.216L470.767 339.732L472.422 359.837L474.078 374.523L475.733 385.33L477.389 393.277L478.216 396.306L479.044 398.762L479.872 400.722L481.527 403.585L483.183 405.661L484.838 407.235L486.494 408.3L488.149 408.952L490.632 409.494L493.943 409.807L502.221 410.06L506.359 410.111" stroke="#EFEFEF" stroke-linecap="square"/>
</g>
<mask id="mask11_230_12638" style="mask-type:luminance" maskUnits="userSpaceOnUse" x="76" y="55" width="477" height="356">
<path d="M552.957 55.2959H76.7969V410.112H552.957V55.2959Z" fill="white"/>
</mask>
<g mask="url(#mask11_230_12638)">
<path d="M334.32 410.111L349.874 409.962L359.023 409.168L361.768 408.576L365.427 407.623L367.257 407.425L370.002 407.554L372.746 407.809L374.576 407.709L376.406 407.24L378.236 406.343L382.81 403.36L387.385 401.47L389.215 400.151L395.619 394.633L398.364 392.625L400.194 390.792L401.109 389.534L402.024 387.972L403.853 383.931L406.598 376.525L408.428 370.83L410.258 363.457L412.088 353.66L413.917 341.582L418.492 307.492L422.151 279.424L426.726 243.223L428.556 230.847L430.386 220.94L432.215 213.892L435.875 202.211L438.62 192.703L439.535 190.312L440.45 188.77L441.365 188.184L442.279 188.496L443.194 189.541L444.109 191.129L445.939 195.315L447.769 200.262L449.599 205.814L451.429 212.351L452.343 216.279L453.258 220.882L455.088 232.637L456.918 247.331L460.578 278.045L463.322 298.341L468.812 335.131L470.642 345.559L473.386 358.577L477.961 379.176L479.791 385.777L481.621 390.956L483.45 394.912L485.28 397.687L488.025 400.67L492.599 405.452L494.429 406.966L496.259 408.133L498.089 408.918L499.919 409.311L508.153 409.901L512.727 410.088L516.387 410.111" fill="#EFEFEF" fill-opacity="0.4"/>
<path d="M334.32 410.111L349.874 409.962L359.023 409.168L361.768 408.576L365.427 407.623L367.257 407.425L370.002 407.554L372.746 407.809L374.576 407.709L376.406 407.24L378.236 406.343L382.81 403.36L387.385 401.47L389.215 400.151L395.619 394.633L398.364 392.625L400.194 390.792L401.109 389.534L402.024 387.972L403.853 383.931L406.598 376.525L408.428 370.83L410.258 363.457L412.088 353.66L413.917 341.582L418.492 307.492L422.151 279.424L426.726 243.223L428.556 230.847L430.386 220.94L432.215 213.892L435.875 202.211L438.62 192.703L439.535 190.312L440.45 188.77L441.365 188.184L442.279 188.496L443.194 189.541L444.109 191.129L445.939 195.315L447.769 200.262L449.599 205.814L451.429 212.351L452.343 216.279L453.258 220.882L455.088 232.637L456.918 247.331L460.578 278.045L463.322 298.341L468.812 335.131L470.642 345.559L473.386 358.577L477.961 379.176L479.791 385.777L481.621 390.956L483.45 394.912L485.28 397.687L488.025 400.67L492.599 405.452L494.429 406.966L496.259 408.133L498.089 408.918L499.919 409.311L508.153 409.901L512.727 410.088L516.387 410.111" stroke="#EFEFEF" stroke-linecap="square"/>
</g>
<mask id="mask12_230_12638" style="mask-type:luminance" maskUnits="userSpaceOnUse" x="76" y="55" width="477" height="356">
<path d="M552.957 55.2959H76.7969V410.112H552.957V55.2959Z" fill="white"/>
</mask>
<g mask="url(#mask12_230_12638)">
<path d="M353.812 410.111L387.589 409.914L396.033 409.051L399.411 408.492L401.1 408.111L403.633 407.444L408.7 406.507L410.388 405.719L412.922 403.874L414.611 402.309L416.299 400.084L418.833 396.232L420.521 392.926L422.21 388.762L424.744 381.185L426.432 375.46L427.277 371.994L428.121 367.642L428.966 362.148L431.499 341.546L434.032 321.27L434.877 313.322L435.721 303.81L437.41 279.738L439.943 236.068L444.165 158.47L446.698 119.994L448.387 100.449L449.232 93.3764L450.921 82.8912L452.609 75.0575L453.454 72.6535L454.298 72.1924L455.143 74.164L455.987 78.584L456.831 85.1993L457.676 93.7552L459.365 115.417L462.742 165.751L466.964 233.741L470.342 281.187L472.031 299.724L475.409 330.973L478.786 360.111L480.475 371.79L481.32 376.054L483.008 382.273L485.542 390.023L487.23 394.355L488.919 397.963L489.764 399.422L490.608 400.57L492.297 402.078L501.586 408.11L503.274 408.711L506.652 409.452L508.341 409.732L510.874 409.774L517.63 409.955L521.852 410.11" fill="#EFEFEF" fill-opacity="0.4"/>
<path d="M353.812 410.111L387.589 409.914L396.033 409.051L399.411 408.492L401.1 408.111L403.633 407.444L408.7 406.507L410.388 405.719L412.922 403.874L414.611 402.309L416.299 400.084L418.833 396.232L420.521 392.926L422.21 388.762L424.744 381.185L426.432 375.46L427.277 371.994L428.121 367.642L428.966 362.148L431.499 341.546L434.032 321.27L434.877 313.322L435.721 303.81L437.41 279.738L439.943 236.068L444.165 158.47L446.698 119.994L448.387 100.449L449.232 93.3764L450.921 82.8912L452.609 75.0575L453.454 72.6535L454.298 72.1924L455.143 74.164L455.987 78.584L456.831 85.1993L457.676 93.7552L459.365 115.417L462.742 165.751L466.964 233.741L470.342 281.187L472.031 299.724L475.409 330.973L478.786 360.111L480.475 371.79L481.32 376.054L483.008 382.273L485.542 390.023L487.23 394.355L488.919 397.963L489.764 399.422L490.608 400.57L492.297 402.078L501.586 408.11L503.274 408.711L506.652 409.452L508.341 409.732L510.874 409.774L517.63 409.955L521.852 410.11" stroke="#EFEFEF" stroke-linecap="square"/>
</g>
<mask id="mask13_230_12638" style="mask-type:luminance" maskUnits="userSpaceOnUse" x="76" y="55" width="477" height="356">
<path d="M552.957 55.2959H76.7969V410.112H552.957V55.2959Z" fill="white"/>
</mask>
<g mask="url(#mask13_230_12638)">
<path d="M320.875 410.11L328.758 409.951L334.669 409.8L338.611 409.688L340.581 409.398L342.552 408.752L343.537 408.214L344.523 407.472L345.508 406.472L346.493 405.154L347.479 403.447L348.464 401.267L349.449 398.509L350.435 395.05L351.42 390.745L352.405 385.435L353.39 378.959L354.376 371.161L355.361 361.905L357.332 338.69L359.302 309.329L362.258 257.05L365.214 203.402L367.185 172.772L368.17 160.341L369.156 150.31L370.141 142.903L371.126 138.222L372.111 136.254L373.097 136.892L374.082 139.96L375.067 145.228L376.053 152.414L378.023 171.161L385.906 255.958L388.862 281.884L390.833 296.894L392.803 309.18L393.788 314.083L394.774 318.163L395.759 321.523L397.73 326.797L403.642 340.207L405.612 343.776L407.583 346.447L409.554 348.372L410.539 349.075L411.524 349.589L412.509 349.912L414.48 350.117L416.451 350.274L417.436 350.568L418.421 351.084L419.407 351.828L421.377 353.806L424.333 356.891L428.275 360.662L430.245 363.181L434.186 368.623L440.098 376.091L442.069 379.393L447.981 390.482L449.952 393.149L451.922 395.226L453.893 396.896L455.863 398.277L458.819 399.942L465.717 403.311L467.687 403.865L473.599 404.963L476.555 406.112L481.482 408.102L484.438 408.976L487.394 409.464L490.349 409.606L497.247 409.704L504.144 409.907L516.953 410.111" fill="#EFEFEF" fill-opacity="0.4"/>
<path d="M320.875 410.11L328.758 409.951L334.669 409.8L338.611 409.688L340.581 409.398L342.552 408.752L343.537 408.214L344.523 407.472L345.508 406.472L346.493 405.154L347.479 403.447L348.464 401.267L349.449 398.509L350.435 395.05L351.42 390.745L352.405 385.435L353.39 378.959L354.376 371.161L355.361 361.905L357.332 338.69L359.302 309.329L362.258 257.05L365.214 203.402L367.185 172.772L368.17 160.341L369.156 150.31L370.141 142.903L371.126 138.222L372.111 136.254L373.097 136.892L374.082 139.96L375.067 145.228L376.053 152.414L378.023 171.161L385.906 255.958L388.862 281.884L390.833 296.894L392.803 309.18L393.788 314.083L394.774 318.163L395.759 321.523L397.73 326.797L403.642 340.207L405.612 343.776L407.583 346.447L409.554 348.372L410.539 349.075L411.524 349.589L412.509 349.912L414.48 350.117L416.451 350.274L417.436 350.568L418.421 351.084L419.407 351.828L421.377 353.806L424.333 356.891L428.275 360.662L430.245 363.181L434.186 368.623L440.098 376.091L442.069 379.393L447.981 390.482L449.952 393.149L451.922 395.226L453.893 396.896L455.863 398.277L458.819 399.942L465.717 403.311L467.687 403.865L473.599 404.963L476.555 406.112L481.482 408.102L484.438 408.976L487.394 409.464L490.349 409.606L497.247 409.704L504.144 409.907L516.953 410.111" stroke="#EFEFEF" stroke-linecap="square"/>
</g>
<mask id="mask14_230_12638" style="mask-type:luminance" maskUnits="userSpaceOnUse" x="76" y="55" width="477" height="356">
<path d="M552.957 55.2959H76.7969V410.112H552.957V55.2959Z" fill="white"/>
</mask>
<g mask="url(#mask14_230_12638)">
<path d="M98.4375 410.111L301.354 409.826L305.581 409.648L309.808 409.088L314.036 408.092L322.491 405.493L324.604 404.664L326.718 403.513L328.832 401.908L330.946 399.837L333.059 397.378L335.173 394.601L337.287 391.475L339.4 387.879L341.514 383.699L343.628 378.945L345.742 373.737L347.855 368.099L349.969 361.83L352.083 354.689L358.424 330.826L360.537 323.833L362.651 317.647L364.765 312.193L366.879 307.501L368.992 303.664L371.106 300.627L373.22 298.126L375.333 295.978L377.447 294.36L379.561 293.631L381.675 293.825L383.788 294.438L385.902 294.818L388.016 294.72L390.129 294.437L392.243 294.44L394.357 294.973L400.698 297.95L402.812 298.45L404.925 298.702L407.039 299.176L409.153 300.321L411.266 302.219L415.494 307.113L419.721 312.203L421.835 315.029L426.062 321.477L430.29 328.535L432.404 332.54L434.517 337.09L440.858 352.165L445.086 360.788L449.313 369.772L453.541 379.207L455.654 383.46L457.768 387.317L459.882 390.795L461.996 393.849L464.109 396.425L466.223 398.543L468.337 400.293L472.564 403.088L476.791 405.483L478.905 406.559L481.019 407.455L483.133 408.118L485.246 408.56L489.474 409.025L502.156 409.891L516.952 410.109L519.066 410.111" fill="#7EB0D5" fill-opacity="0.4"/>
<path d="M98.4375 410.111L301.354 409.826L305.581 409.648L309.808 409.088L314.036 408.092L322.491 405.493L324.604 404.664L326.718 403.513L328.832 401.908L330.946 399.837L333.059 397.378L335.173 394.601L337.287 391.475L339.4 387.879L341.514 383.699L343.628 378.945L345.742 373.737L347.855 368.099L349.969 361.83L352.083 354.689L358.424 330.826L360.537 323.833L362.651 317.647L364.765 312.193L366.879 307.501L368.992 303.664L371.106 300.627L373.22 298.126L375.333 295.978L377.447 294.36L379.561 293.631L381.675 293.825L383.788 294.438L385.902 294.818L388.016 294.72L390.129 294.437L392.243 294.44L394.357 294.973L400.698 297.95L402.812 298.45L404.925 298.702L407.039 299.176L409.153 300.321L411.266 302.219L415.494 307.113L419.721 312.203L421.835 315.029L426.062 321.477L430.29 328.535L432.404 332.54L434.517 337.09L440.858 352.165L445.086 360.788L449.313 369.772L453.541 379.207L455.654 383.46L457.768 387.317L459.882 390.795L461.996 393.849L464.109 396.425L466.223 398.543L468.337 400.293L472.564 403.088L476.791 405.483L478.905 406.559L481.019 407.455L483.133 408.118L485.246 408.56L489.474 409.025L502.156 409.891L516.952 410.109L519.066 410.111" stroke="#7EB0D5" stroke-linecap="square"/>
</g>
<path d="M535.061 411.061C535.646 410.475 535.646 409.525 535.061 408.939L525.515 399.393C524.929 398.808 523.979 398.808 523.393 399.393C522.808 399.979 522.808 400.929 523.393 401.515L531.879 410L523.393 418.485C522.808 419.071 522.808 420.021 523.393 420.607C523.979 421.192 524.929 421.192 525.515 420.607L535.061 411.061ZM79 411.5H534V408.5H79V411.5Z" fill="black"/>
</svg>
