<svg width="615" height="461" viewBox="0 0 615 461" fill="none" xmlns="http://www.w3.org/2000/svg">
<g clip-path="url(#clip0_230_12718)">
<mask id="mask0_230_12718" style="mask-type:luminance" maskUnits="userSpaceOnUse" x="76" y="55" width="477" height="356">
<path d="M552.957 55.2959H76.7969V410.112H552.957V55.2959Z" fill="white"/>
</mask>
<g mask="url(#mask0_230_12718)">
<path d="M312.766 410.111L338.988 409.885L346.636 409.626L349.914 409.201L359.747 408.39L361.933 408.074L363.025 407.964L364.118 407.701L369.581 405.416L370.673 404.678L372.859 402.596L373.951 401.409L375.044 399.969L376.136 398.091L378.322 393.353L379.414 390.485L380.507 387.046L382.692 378.817L384.877 368.887L385.97 362.851L388.155 347.989L390.34 329.787L392.525 306.272L394.711 278.199L397.988 230.59L402.359 167.784L404.544 142.004L405.637 131.5L406.729 122.74L407.822 116.263L408.914 112.77L410.007 112.475L411.1 114.886L412.192 119.559L413.285 126.432L414.377 135.195L416.563 156.397L418.748 183.698L423.118 244.421L425.303 271.126L427.489 295.43L429.674 316.596L431.859 334.606L434.044 349.428L436.229 361.748L437.322 366.62L443.878 391.049L444.97 394.126L446.063 396.298L451.526 404.58L452.618 405.578L454.804 406.872L456.989 407.776L459.174 408.04L461.359 408.276L465.73 409.532L467.915 409.725L475.563 409.92L482.119 410.037L486.489 410.026L491.952 410.105L501.785 410.019L510.526 410.085L520.36 410.1L528.008 410.095L530.193 410.111" fill="#EFEFEF" fill-opacity="0.4"/>
<path d="M312.766 410.111L338.988 409.885L346.636 409.626L349.914 409.201L359.747 408.39L361.933 408.074L363.025 407.964L364.118 407.701L369.581 405.416L370.673 404.678L372.859 402.596L373.951 401.409L375.044 399.969L376.136 398.091L378.322 393.353L379.414 390.485L380.507 387.046L382.692 378.817L384.877 368.887L385.97 362.851L388.155 347.989L390.34 329.787L392.525 306.272L394.711 278.199L397.988 230.59L402.359 167.784L404.544 142.004L405.637 131.5L406.729 122.74L407.822 116.263L408.914 112.77L410.007 112.475L411.1 114.886L412.192 119.559L413.285 126.432L414.377 135.195L416.563 156.397L418.748 183.698L423.118 244.421L425.303 271.126L427.489 295.43L429.674 316.596L431.859 334.606L434.044 349.428L436.229 361.748L437.322 366.62L443.878 391.049L444.97 394.126L446.063 396.298L451.526 404.58L452.618 405.578L454.804 406.872L456.989 407.776L459.174 408.04L461.359 408.276L465.73 409.532L467.915 409.725L475.563 409.92L482.119 410.037L486.489 410.026L491.952 410.105L501.785 410.019L510.526 410.085L520.36 410.1L528.008 410.095L530.193 410.111" stroke="#EFEFEF" stroke-linecap="square"/>
</g>
<mask id="mask1_230_12718" style="mask-type:luminance" maskUnits="userSpaceOnUse" x="76" y="55" width="477" height="356">
<path d="M552.957 55.2959H76.7969V410.112H552.957V55.2959Z" fill="white"/>
</mask>
<g mask="url(#mask1_230_12718)">
<path d="M292.812 410.111L307.795 409.937L312.405 409.865L315.863 409.694L321.626 409.376L323.931 409.339L335.456 408.313L341.219 408.017L343.524 407.191L346.981 405.382L350.439 403.242L352.744 401.718L355.049 400.614L357.354 399.726L358.507 398.981L359.659 397.919L363.117 393.87L365.422 391.098L366.574 389.504L367.727 387.586L368.879 385.223L371.184 379.174L374.642 368.479L375.794 364.264L378.099 354.167L381.557 337.157L383.862 324.307L386.167 309.379L388.472 291.807L390.777 270.812L395.387 224.388L398.845 188.603L399.997 179.229L401.15 172.99L402.303 169.852L403.455 168.572L404.608 167.55L406.913 164.33L408.065 163.702L409.218 165.084L410.37 168.882L411.523 174.999L412.675 183.092L414.98 203.566L425.353 305.246L428.811 334.407L429.963 342.829L431.116 350.134L433.421 362.122L435.726 372.449L438.031 381.454L440.336 389.189L442.641 395.706L443.793 398.104L444.946 399.862L446.099 401.149L451.861 406.36L453.014 407.045L455.319 407.858L458.776 408.58L463.386 409.22L466.844 409.546L478.369 409.897L486.437 409.829L493.352 410.041L499.115 410.111L522.165 410.111" fill="#EFEFEF" fill-opacity="0.4"/>
<path d="M292.812 410.111L307.795 409.937L312.405 409.865L315.863 409.694L321.626 409.376L323.931 409.339L335.456 408.313L341.219 408.017L343.524 407.191L346.981 405.382L350.439 403.242L352.744 401.718L355.049 400.614L357.354 399.726L358.507 398.981L359.659 397.919L363.117 393.87L365.422 391.098L366.574 389.504L367.727 387.586L368.879 385.223L371.184 379.174L374.642 368.479L375.794 364.264L378.099 354.167L381.557 337.157L383.862 324.307L386.167 309.379L388.472 291.807L390.777 270.812L395.387 224.388L398.845 188.603L399.997 179.229L401.15 172.99L402.303 169.852L403.455 168.572L404.608 167.55L406.913 164.33L408.065 163.702L409.218 165.084L410.37 168.882L411.523 174.999L412.675 183.092L414.98 203.566L425.353 305.246L428.811 334.407L429.963 342.829L431.116 350.134L433.421 362.122L435.726 372.449L438.031 381.454L440.336 389.189L442.641 395.706L443.793 398.104L444.946 399.862L446.099 401.149L451.861 406.36L453.014 407.045L455.319 407.858L458.776 408.58L463.386 409.22L466.844 409.546L478.369 409.897L486.437 409.829L493.352 410.041L499.115 410.111L522.165 410.111" stroke="#EFEFEF" stroke-linecap="square"/>
</g>
<mask id="mask2_230_12718" style="mask-type:luminance" maskUnits="userSpaceOnUse" x="76" y="55" width="477" height="356">
<path d="M552.957 55.2959H76.7969V410.112H552.957V55.2959Z" fill="white"/>
</mask>
<g mask="url(#mask2_230_12718)">
<path d="M303.461 410.111L309.186 409.975L313.766 409.925L327.505 409.929L342.39 409.535L346.97 409.343L349.26 408.992L354.985 407.938L358.42 407.747L361.855 407.638L364.145 407.223L367.58 406.267L369.87 405.266L371.015 404.533L372.159 403.584L373.304 402.36L374.449 400.839L376.739 397.124L379.029 392.688L384.754 380.413L385.899 376.966L387.044 372.668L388.189 367.546L390.479 355.17L392.769 339.935L393.914 330.402L395.059 318.898L397.349 290.216L400.784 245.142L403.074 219.946L406.509 185.45L407.654 175.781L408.799 168.08L409.944 162.441L411.089 158.707L412.234 156.937L413.379 157.438L414.524 160.331L415.669 165.298L416.814 171.857L419.103 188.448L421.393 206.436L425.973 239.555L429.408 266.822L433.988 299.798L436.278 312.037L438.568 324.424L442.003 345.063L444.293 356.589L445.438 361.354L447.728 369.106L450.018 376.571L452.308 384.319L454.598 390.714L456.888 396.055L458.033 398.35L459.178 400.22L460.323 401.586L461.468 402.523L468.337 406.612L475.207 409.246L477.497 409.585L496.962 409.941L500.397 409.937L506.122 410.083L518.716 410.003L531.311 410.111" fill="#EFEFEF" fill-opacity="0.4"/>
<path d="M303.461 410.111L309.186 409.975L313.766 409.925L327.505 409.929L342.39 409.535L346.97 409.343L349.26 408.992L354.985 407.938L358.42 407.747L361.855 407.638L364.145 407.223L367.58 406.267L369.87 405.266L371.015 404.533L372.159 403.584L373.304 402.36L374.449 400.839L376.739 397.124L379.029 392.688L384.754 380.413L385.899 376.966L387.044 372.668L388.189 367.546L390.479 355.17L392.769 339.935L393.914 330.402L395.059 318.898L397.349 290.216L400.784 245.142L403.074 219.946L406.509 185.45L407.654 175.781L408.799 168.08L409.944 162.441L411.089 158.707L412.234 156.937L413.379 157.438L414.524 160.331L415.669 165.298L416.814 171.857L419.103 188.448L421.393 206.436L425.973 239.555L429.408 266.822L433.988 299.798L436.278 312.037L438.568 324.424L442.003 345.063L444.293 356.589L445.438 361.354L447.728 369.106L450.018 376.571L452.308 384.319L454.598 390.714L456.888 396.055L458.033 398.35L459.178 400.22L460.323 401.586L461.468 402.523L468.337 406.612L475.207 409.246L477.497 409.585L496.962 409.941L500.397 409.937L506.122 410.083L518.716 410.003L531.311 410.111" stroke="#EFEFEF" stroke-linecap="square"/>
</g>
<mask id="mask3_230_12718" style="mask-type:luminance" maskUnits="userSpaceOnUse" x="76" y="55" width="477" height="356">
<path d="M552.957 55.2959H76.7969V410.112H552.957V55.2959Z" fill="white"/>
</mask>
<g mask="url(#mask3_230_12718)">
<path d="M304.922 410.111L317.141 409.971L320.474 409.88L324.917 409.914L332.693 409.77L338.247 409.667L341.58 409.487L346.023 408.834L348.245 408.272L351.578 407.135L353.799 406.64L354.91 406.174L357.132 404.722L360.464 402.48L362.686 400.958L367.13 397.38L368.24 396.302L369.351 394.899L370.462 393.03L372.684 387.979L374.906 382.107L377.127 375.41L379.349 368.28L380.46 364.199L381.571 359.26L383.792 347.276L386.014 333.383L392.679 284.709L394.901 266.412L397.123 245.291L400.455 209.231L403.788 172.763L404.899 162.759L406.009 155.193L407.12 149.753L408.231 145.601L409.342 142.478L410.453 141.04L411.564 142.142L412.674 145.903L413.785 151.573L414.896 158.359L416.007 166.209L417.118 175.613L419.34 198.945L423.783 249.517L429.337 320.864L431.559 342.753L432.67 351.561L434.891 365.698L437.113 377.397L439.335 387.857L440.446 392.31L441.557 395.86L442.667 398.449L443.778 400.343L446 403.391L448.222 405.83L449.333 406.696L451.554 407.915L453.776 408.733L455.998 409.295L460.441 409.988L463.774 410.062L469.328 409.989L475.993 410.105L480.436 409.921L483.769 409.921L488.212 410.104L514.873 410.104L524.87 410.108L525.981 410.111" fill="#EFEFEF" fill-opacity="0.4"/>
<path d="M304.922 410.111L317.141 409.971L320.474 409.88L324.917 409.914L332.693 409.77L338.247 409.667L341.58 409.487L346.023 408.834L348.245 408.272L351.578 407.135L353.799 406.64L354.91 406.174L357.132 404.722L360.464 402.48L362.686 400.958L367.13 397.38L368.24 396.302L369.351 394.899L370.462 393.03L372.684 387.979L374.906 382.107L377.127 375.41L379.349 368.28L380.46 364.199L381.571 359.26L383.792 347.276L386.014 333.383L392.679 284.709L394.901 266.412L397.123 245.291L400.455 209.231L403.788 172.763L404.899 162.759L406.009 155.193L407.12 149.753L408.231 145.601L409.342 142.478L410.453 141.04L411.564 142.142L412.674 145.903L413.785 151.573L414.896 158.359L416.007 166.209L417.118 175.613L419.34 198.945L423.783 249.517L429.337 320.864L431.559 342.753L432.67 351.561L434.891 365.698L437.113 377.397L439.335 387.857L440.446 392.31L441.557 395.86L442.667 398.449L443.778 400.343L446 403.391L448.222 405.83L449.333 406.696L451.554 407.915L453.776 408.733L455.998 409.295L460.441 409.988L463.774 410.062L469.328 409.989L475.993 410.105L480.436 409.921L483.769 409.921L488.212 410.104L514.873 410.104L524.87 410.108L525.981 410.111" stroke="#EFEFEF" stroke-linecap="square"/>
</g>
<mask id="mask4_230_12718" style="mask-type:luminance" maskUnits="userSpaceOnUse" x="76" y="55" width="477" height="356">
<path d="M552.957 55.2959H76.7969V410.112H552.957V55.2959Z" fill="white"/>
</mask>
<g mask="url(#mask4_230_12718)">
<path d="M322.445 410.111L328.674 409.965L333.124 409.845L340.243 410.031L345.582 409.844L348.252 409.539L350.921 409.186L359.82 408.651L369.609 406.362L371.388 405.605L373.168 404.223L375.838 401.69L377.618 400.511L380.287 398.904L382.067 397.324L384.736 394.082L386.516 391.471L387.406 389.742L389.186 385.18L390.966 379.581L392.745 372.906L394.525 364.819L405.204 311.799L406.983 306.085L410.543 296.85L411.433 293.704L412.323 289.806L414.102 279.59L415.882 266.948L417.662 251.764L419.442 232.693L421.221 209.692L426.561 134.158L427.45 125.375L428.34 119.051L429.23 115.381L430.12 114.384L431.01 116.002L431.9 120.12L432.79 126.486L433.68 134.696L435.459 155.13L437.239 180.075L442.578 265.996L445.248 307.989L447.028 330.478L448.807 347.395L451.477 367.992L453.257 379.585L455.037 388.754L456.816 395.469L457.706 398L458.596 400.063L460.376 403.129L462.156 405.284L463.935 406.87L465.715 408.01L467.495 408.782L469.274 409.251L471.944 409.55L478.173 409.878L481.733 410.092L499.53 410.111" fill="#EFEFEF" fill-opacity="0.4"/>
<path d="M322.445 410.111L328.674 409.965L333.124 409.845L340.243 410.031L345.582 409.844L348.252 409.539L350.921 409.186L359.82 408.651L369.609 406.362L371.388 405.605L373.168 404.223L375.838 401.69L377.618 400.511L380.287 398.904L382.067 397.324L384.736 394.082L386.516 391.471L387.406 389.742L389.186 385.18L390.966 379.581L392.745 372.906L394.525 364.819L405.204 311.799L406.983 306.085L410.543 296.85L411.433 293.704L412.323 289.806L414.102 279.59L415.882 266.948L417.662 251.764L419.442 232.693L421.221 209.692L426.561 134.158L427.45 125.375L428.34 119.051L429.23 115.381L430.12 114.384L431.01 116.002L431.9 120.12L432.79 126.486L433.68 134.696L435.459 155.13L437.239 180.075L442.578 265.996L445.248 307.989L447.028 330.478L448.807 347.395L451.477 367.992L453.257 379.585L455.037 388.754L456.816 395.469L457.706 398L458.596 400.063L460.376 403.129L462.156 405.284L463.935 406.87L465.715 408.01L467.495 408.782L469.274 409.251L471.944 409.55L478.173 409.878L481.733 410.092L499.53 410.111" stroke="#EFEFEF" stroke-linecap="square"/>
</g>
<mask id="mask5_230_12718" style="mask-type:luminance" maskUnits="userSpaceOnUse" x="76" y="55" width="477" height="356">
<path d="M552.957 55.2959H76.7969V410.112H552.957V55.2959Z" fill="white"/>
</mask>
<g mask="url(#mask5_230_12718)">
<path d="M300.359 410.111L337.754 409.906L341.909 409.602L345.026 409.717L348.142 409.835L357.491 409.424L360.607 409.022L363.723 408.46L365.801 408.608L367.878 408.9L369.956 408.778L374.111 407.787L380.343 406.265L382.421 406.053L383.46 405.794L384.498 405.3L385.537 404.528L386.576 403.484L388.653 400.811L391.77 396.422L392.808 394.594L393.847 392.226L394.886 389.205L396.963 381.396L399.041 371.781L402.157 355.381L408.39 320.234L410.467 306.366L412.545 291.412L414.622 278.515L418.777 254.826L421.893 234.801L423.971 221.206L426.048 209.808L428.126 200.462L430.203 192.521L431.242 189.525L432.281 187.436L433.32 186.204L434.358 185.688L435.397 185.94L436.436 187.306L437.475 190.159L438.513 194.525L440.591 206.111L443.707 226.063L446.823 248.015L448.901 264.234L450.978 282.796L455.133 322.731L457.211 340.18L459.288 355.61L460.327 362.086L461.366 367.577L463.444 376.372L466.56 387.388L468.637 393.227L469.676 395.45L470.715 397.217L472.792 399.781L476.947 403.883L479.025 405.729L481.102 407.222L483.18 408.223L485.257 408.823L488.374 409.297L491.49 409.571L496.684 409.687L500.839 410.004L507.071 410.111" fill="#EFEFEF" fill-opacity="0.4"/>
<path d="M300.359 410.111L337.754 409.906L341.909 409.602L345.026 409.717L348.142 409.835L357.491 409.424L360.607 409.022L363.723 408.46L365.801 408.608L367.878 408.9L369.956 408.778L374.111 407.787L380.343 406.265L382.421 406.053L383.46 405.794L384.498 405.3L385.537 404.528L386.576 403.484L388.653 400.811L391.77 396.422L392.808 394.594L393.847 392.226L394.886 389.205L396.963 381.396L399.041 371.781L402.157 355.381L408.39 320.234L410.467 306.366L412.545 291.412L414.622 278.515L418.777 254.826L421.893 234.801L423.971 221.206L426.048 209.808L428.126 200.462L430.203 192.521L431.242 189.525L432.281 187.436L433.32 186.204L434.358 185.688L435.397 185.94L436.436 187.306L437.475 190.159L438.513 194.525L440.591 206.111L443.707 226.063L446.823 248.015L448.901 264.234L450.978 282.796L455.133 322.731L457.211 340.18L459.288 355.61L460.327 362.086L461.366 367.577L463.444 376.372L466.56 387.388L468.637 393.227L469.676 395.45L470.715 397.217L472.792 399.781L476.947 403.883L479.025 405.729L481.102 407.222L483.18 408.223L485.257 408.823L488.374 409.297L491.49 409.571L496.684 409.687L500.839 410.004L507.071 410.111" stroke="#EFEFEF" stroke-linecap="square"/>
</g>
<mask id="mask6_230_12718" style="mask-type:luminance" maskUnits="userSpaceOnUse" x="76" y="55" width="477" height="356">
<path d="M552.957 55.2959H76.7969V410.112H552.957V55.2959Z" fill="white"/>
</mask>
<g mask="url(#mask6_230_12718)">
<path d="M277.953 410.111L302.999 409.961L307.553 409.934L317.799 410.003L324.63 409.944L328.045 409.791L331.461 409.265L333.738 408.671L334.876 408.202L336.015 407.552L337.153 406.661L338.291 405.446L339.43 403.785L340.568 401.533L341.707 398.556L342.845 394.782L343.984 390.209L345.122 384.873L347.399 372.094L349.676 357.054L357.645 301.609L359.922 287.064L361.061 280.68L362.199 275.341L363.338 271.13L364.476 267.832L366.753 262.636L369.03 258.295L371.307 254.836L373.584 252.018L374.722 251.057L375.861 250.686L376.999 251.027L378.137 252.021L380.414 255.101L381.553 256.678L382.691 257.977L383.83 258.859L384.968 259.303L388.384 259.694L389.522 260.298L390.661 261.288L395.214 265.912L396.353 267.623L397.491 270.15L398.63 273.569L400.907 282.148L403.184 290.734L406.599 301.817L411.153 315.827L413.43 324.544L420.26 354.452L423.676 369.261L425.953 377.465L428.23 384.133L430.507 389.824L433.922 397.36L436.199 401.549L437.337 403.232L438.476 404.586L439.614 405.621L440.753 406.394L443.03 407.471L445.307 408.222L447.583 408.698L456.691 409.88L460.106 409.973L468.076 409.944L472.63 409.977L489.706 409.992L496.537 410.047L504.506 410.111" fill="#EFEFEF" fill-opacity="0.4"/>
<path d="M277.953 410.111L302.999 409.961L307.553 409.934L317.799 410.003L324.63 409.944L328.045 409.791L331.461 409.265L333.738 408.671L334.876 408.202L336.015 407.552L337.153 406.661L338.291 405.446L339.43 403.785L340.568 401.533L341.707 398.556L342.845 394.782L343.984 390.209L345.122 384.873L347.399 372.094L349.676 357.054L357.645 301.609L359.922 287.064L361.061 280.68L362.199 275.341L363.338 271.13L364.476 267.832L366.753 262.636L369.03 258.295L371.307 254.836L373.584 252.018L374.722 251.057L375.861 250.686L376.999 251.027L378.137 252.021L380.414 255.101L381.553 256.678L382.691 257.977L383.83 258.859L384.968 259.303L388.384 259.694L389.522 260.298L390.661 261.288L395.214 265.912L396.353 267.623L397.491 270.15L398.63 273.569L400.907 282.148L403.184 290.734L406.599 301.817L411.153 315.827L413.43 324.544L420.26 354.452L423.676 369.261L425.953 377.465L428.23 384.133L430.507 389.824L433.922 397.36L436.199 401.549L437.337 403.232L438.476 404.586L439.614 405.621L440.753 406.394L443.03 407.471L445.307 408.222L447.583 408.698L456.691 409.88L460.106 409.973L468.076 409.944L472.63 409.977L489.706 409.992L496.537 410.047L504.506 410.111" stroke="#EFEFEF" stroke-linecap="square"/>
</g>
<mask id="mask7_230_12718" style="mask-type:luminance" maskUnits="userSpaceOnUse" x="76" y="55" width="477" height="356">
<path d="M552.957 55.2959H76.7969V410.112H552.957V55.2959Z" fill="white"/>
</mask>
<g mask="url(#mask7_230_12718)">
<path d="M308.734 410.111L328.565 409.945L333.522 409.687L345.421 409.764L350.378 409.432L354.344 409.408L362.277 408.548L367.234 407.575L372.192 406.138L374.175 405.989L378.141 406.337L379.133 406.023L381.116 404.762L386.073 400.606L388.056 398.555L390.039 395.713L392.022 392.062L393.014 389.824L394.005 387.147L394.997 383.908L396.98 375.906L398.963 368.02L400.946 361.132L402.929 352.692L404.912 342.169L406.895 329.166L409.87 308.796L411.853 295.012L413.836 278.121L418.794 232.161L424.743 180.807L426.726 163.183L427.717 155.444L428.709 148.951L430.692 139.269L434.658 122.599L435.649 121.677L436.641 124.401L437.632 131.457L438.624 142.877L439.616 158.207L441.599 197.454L445.565 281.872L447.548 315.096L448.539 328.363L449.531 339.089L450.522 347.268L451.514 353.263L452.505 357.752L455.48 369.247L458.454 381.584L460.438 387.756L465.395 400.571L466.387 402.433L467.378 403.761L468.37 404.688L470.353 406.03L472.336 407.157L474.319 407.971L476.302 408.469L484.234 409.681L492.166 410L501.09 410.025L506.048 410.111" fill="#EFEFEF" fill-opacity="0.4"/>
<path d="M308.734 410.111L328.565 409.945L333.522 409.687L345.421 409.764L350.378 409.432L354.344 409.408L362.277 408.548L367.234 407.575L372.192 406.138L374.175 405.989L378.141 406.337L379.133 406.023L381.116 404.762L386.073 400.606L388.056 398.555L390.039 395.713L392.022 392.062L393.014 389.824L394.005 387.147L394.997 383.908L396.98 375.906L398.963 368.02L400.946 361.132L402.929 352.692L404.912 342.169L406.895 329.166L409.87 308.796L411.853 295.012L413.836 278.121L418.794 232.161L424.743 180.807L426.726 163.183L427.717 155.444L428.709 148.951L430.692 139.269L434.658 122.599L435.649 121.677L436.641 124.401L437.632 131.457L438.624 142.877L439.616 158.207L441.599 197.454L445.565 281.872L447.548 315.096L448.539 328.363L449.531 339.089L450.522 347.268L451.514 353.263L452.505 357.752L455.48 369.247L458.454 381.584L460.438 387.756L465.395 400.571L466.387 402.433L467.378 403.761L468.37 404.688L470.353 406.03L472.336 407.157L474.319 407.971L476.302 408.469L484.234 409.681L492.166 410L501.09 410.025L506.048 410.111" stroke="#EFEFEF" stroke-linecap="square"/>
</g>
<mask id="mask8_230_12718" style="mask-type:luminance" maskUnits="userSpaceOnUse" x="76" y="55" width="477" height="356">
<path d="M552.957 55.2959H76.7969V410.112H552.957V55.2959Z" fill="white"/>
</mask>
<g mask="url(#mask8_230_12718)">
<path d="M304.984 410.11L309.318 409.994L313.652 409.794L319.07 410.089L326.655 410.013L329.905 410.058L342.907 409.439L345.074 409.633L349.408 409.502L359.16 409.028L364.577 407.634L366.744 407.464L372.162 406.339L373.245 406.159L374.329 405.783L376.496 404.664L378.663 403.931L381.913 403.158L382.997 402.203L384.08 400.464L385.164 398.088L386.247 395.188L387.331 391.465L388.415 386.289L389.498 378.912L390.582 368.522L391.665 354.366L392.749 335.88L393.832 312.948L397.083 233.722L398.166 212.726L399.25 197.407L400.333 187.245L401.417 180.336L405.751 158.157L410.085 130.407L413.335 107.093L414.419 102.449L415.502 102.17L416.586 106.573L417.669 115.198L418.753 127.62L420.92 160.459L424.17 212.652L428.504 274.844L430.671 303.807L432.838 329.648L435.005 353.239L436.089 363.11L437.172 370.949L438.256 377.041L439.339 381.87L440.423 385.746L441.506 388.857L443.673 393.497L445.84 397.934L448.007 402.376L449.091 403.883L450.174 404.843L452.341 405.834L459.926 408.618L462.093 408.811L464.26 408.657L466.427 408.489L468.594 408.873L471.845 409.567L474.012 409.669L478.346 409.505L482.68 409.7L485.93 409.878L490.264 410.059L495.682 409.965L504.35 409.914L508.684 409.998L511.934 410.083L517.352 410.062L520.602 410.11" fill="#EFEFEF" fill-opacity="0.4"/>
<path d="M304.984 410.11L309.318 409.994L313.652 409.794L319.07 410.089L326.655 410.013L329.905 410.058L342.907 409.439L345.074 409.633L349.408 409.502L359.16 409.028L364.577 407.634L366.744 407.464L372.162 406.339L373.245 406.159L374.329 405.783L376.496 404.664L378.663 403.931L381.913 403.158L382.997 402.203L384.08 400.464L385.164 398.088L386.247 395.188L387.331 391.465L388.415 386.289L389.498 378.912L390.582 368.522L391.665 354.366L392.749 335.88L393.832 312.948L397.083 233.722L398.166 212.726L399.25 197.407L400.333 187.245L401.417 180.336L405.751 158.157L410.085 130.407L413.335 107.093L414.419 102.449L415.502 102.17L416.586 106.573L417.669 115.198L418.753 127.62L420.92 160.459L424.17 212.652L428.504 274.844L430.671 303.807L432.838 329.648L435.005 353.239L436.089 363.11L437.172 370.949L438.256 377.041L439.339 381.87L440.423 385.746L441.506 388.857L443.673 393.497L445.84 397.934L448.007 402.376L449.091 403.883L450.174 404.843L452.341 405.834L459.926 408.618L462.093 408.811L464.26 408.657L466.427 408.489L468.594 408.873L471.845 409.567L474.012 409.669L478.346 409.505L482.68 409.7L485.93 409.878L490.264 410.059L495.682 409.965L504.35 409.914L508.684 409.998L511.934 410.083L517.352 410.062L520.602 410.11" stroke="#EFEFEF" stroke-linecap="square"/>
</g>
<mask id="mask9_230_12718" style="mask-type:luminance" maskUnits="userSpaceOnUse" x="76" y="55" width="477" height="356">
<path d="M552.957 55.2959H76.7969V410.112H552.957V55.2959Z" fill="white"/>
</mask>
<g mask="url(#mask9_230_12718)">
<path d="M314.703 410.111L329.28 409.933L333.445 409.772L339.693 409.967L343.857 409.682L349.064 409.121L351.146 409.101L354.27 409.18L357.393 408.73L362.599 407.717L365.723 406.938L370.929 404.923L371.971 404.312L373.012 403.414L374.053 402.178L376.135 398.886L379.259 393.149L380.3 391.001L381.342 388.483L382.383 385.323L383.424 381.247L384.465 376.117L386.548 363.356L389.671 341.824L391.754 324.554L393.836 303.225L398.001 258.886L403.207 207.071L404.248 198.872L406.331 185.806L408.413 175.382L409.455 171.672L410.496 169.433L411.537 168.758L412.578 169.434L416.743 175.531L417.784 178.101L418.826 182.369L419.867 188.448L421.949 204.435L424.032 224.193L427.155 256.618L429.238 274.337L436.526 327.433L438.609 340.255L444.856 372.814L445.898 377.764L446.939 381.843L447.98 385.064L449.021 387.632L451.104 391.722L455.269 398.972L457.351 401.899L459.433 404.09L461.516 405.511L466.722 407.817L468.804 408.55L471.928 409.159L475.052 409.482L478.175 409.609L483.382 409.576L494.835 410.065L521.907 410.111" fill="#EFEFEF" fill-opacity="0.4"/>
<path d="M314.703 410.111L329.28 409.933L333.445 409.772L339.693 409.967L343.857 409.682L349.064 409.121L351.146 409.101L354.27 409.18L357.393 408.73L362.599 407.717L365.723 406.938L370.929 404.923L371.971 404.312L373.012 403.414L374.053 402.178L376.135 398.886L379.259 393.149L380.3 391.001L381.342 388.483L382.383 385.323L383.424 381.247L384.465 376.117L386.548 363.356L389.671 341.824L391.754 324.554L393.836 303.225L398.001 258.886L403.207 207.071L404.248 198.872L406.331 185.806L408.413 175.382L409.455 171.672L410.496 169.433L411.537 168.758L412.578 169.434L416.743 175.531L417.784 178.101L418.826 182.369L419.867 188.448L421.949 204.435L424.032 224.193L427.155 256.618L429.238 274.337L436.526 327.433L438.609 340.255L444.856 372.814L445.898 377.764L446.939 381.843L447.98 385.064L449.021 387.632L451.104 391.722L455.269 398.972L457.351 401.899L459.433 404.09L461.516 405.511L466.722 407.817L468.804 408.55L471.928 409.159L475.052 409.482L478.175 409.609L483.382 409.576L494.835 410.065L521.907 410.111" stroke="#EFEFEF" stroke-linecap="square"/>
</g>
<mask id="mask10_230_12718" style="mask-type:luminance" maskUnits="userSpaceOnUse" x="76" y="55" width="477" height="356">
<path d="M552.957 55.2959H76.7969V410.112H552.957V55.2959Z" fill="white"/>
</mask>
<g mask="url(#mask10_230_12718)">
<path d="M303.812 410.11L310.581 409.946L315.094 409.984L319.607 410.014L327.504 409.838L335.401 409.819L338.785 409.339L347.81 407.596L350.066 406.678L354.579 404.192L356.835 403.475L359.092 402.714L361.348 401.526L364.732 399.393L365.86 398.473L368.117 396.064L373.757 389.396L377.142 385.31L378.27 383.786L379.398 381.99L381.655 377.42L385.039 369.016L387.295 363.708L389.552 358.958L390.68 356.035L391.808 352.262L395.192 338.81L397.449 331.614L398.577 327.043L399.705 320.855L401.961 304.99L404.217 289.517L406.474 275.125L408.73 258.419L413.243 220.387L417.755 187.989L421.14 158.654L422.268 151.1L423.396 145.246L424.524 140.62L425.652 136.976L426.78 134.86L427.908 135.596L429.037 140.668L430.165 150.93L431.293 166.212L432.421 185.498L435.805 253.842L438.062 298.358L440.318 335.992L441.446 350.87L442.574 362.984L443.702 372.758L444.831 380.789L445.959 387.532L447.087 393.16L448.215 397.654L449.343 401.006L450.471 403.348L451.599 404.94L452.728 406.065L454.984 407.623L457.24 408.59L459.497 409.114L464.009 409.735L470.778 410.006L477.547 409.926L482.059 409.928L491.085 410.111L528.313 410.111" fill="#EFEFEF" fill-opacity="0.4"/>
<path d="M303.812 410.11L310.581 409.946L315.094 409.984L319.607 410.014L327.504 409.838L335.401 409.819L338.785 409.339L347.81 407.596L350.066 406.678L354.579 404.192L356.835 403.475L359.092 402.714L361.348 401.526L364.732 399.393L365.86 398.473L368.117 396.064L373.757 389.396L377.142 385.31L378.27 383.786L379.398 381.99L381.655 377.42L385.039 369.016L387.295 363.708L389.552 358.958L390.68 356.035L391.808 352.262L395.192 338.81L397.449 331.614L398.577 327.043L399.705 320.855L401.961 304.99L404.217 289.517L406.474 275.125L408.73 258.419L413.243 220.387L417.755 187.989L421.14 158.654L422.268 151.1L423.396 145.246L424.524 140.62L425.652 136.976L426.78 134.86L427.908 135.596L429.037 140.668L430.165 150.93L431.293 166.212L432.421 185.498L435.805 253.842L438.062 298.358L440.318 335.992L441.446 350.87L442.574 362.984L443.702 372.758L444.831 380.789L445.959 387.532L447.087 393.16L448.215 397.654L449.343 401.006L450.471 403.348L451.599 404.94L452.728 406.065L454.984 407.623L457.24 408.59L459.497 409.114L464.009 409.735L470.778 410.006L477.547 409.926L482.059 409.928L491.085 410.111L528.313 410.111" stroke="#EFEFEF" stroke-linecap="square"/>
</g>
<mask id="mask11_230_12718" style="mask-type:luminance" maskUnits="userSpaceOnUse" x="76" y="55" width="477" height="356">
<path d="M552.957 55.2959H76.7969V410.112H552.957V55.2959Z" fill="white"/>
</mask>
<g mask="url(#mask11_230_12718)">
<path d="M296.555 410.111L302.927 409.973L309.299 409.823L315.672 409.856L318.858 409.433L323.106 408.771L326.293 408.48L330.541 408.271L332.665 407.841L336.913 406.56L341.161 404.963L344.348 403.323L346.472 402.28L349.658 401.196L350.72 400.544L351.782 399.576L353.906 396.908L356.03 394.186L360.279 389.693L362.403 386.51L363.465 384.534L364.527 382.236L365.589 379.543L367.713 372.875L370.899 360.82L374.085 347.866L375.148 342.705L376.21 336.687L378.334 321.827L385.768 264.191L387.892 248.712L390.016 235.006L392.141 223.038L394.265 212.394L396.389 203.169L397.451 199.837L398.513 197.94L399.575 197.673L400.637 198.864L401.699 201.037L404.885 208.558L407.009 213.227L408.072 216.029L409.134 219.478L410.196 223.786L411.258 229.092L413.382 242.437L416.568 265.94L420.816 298.801L422.94 313.045L428.251 344.793L430.375 356.227L432.499 366.174L434.623 374.898L436.747 382.338L438.871 388.518L440.996 393.641L443.12 397.781L444.182 399.433L446.306 401.953L448.43 403.808L451.616 406.042L453.74 407.095L456.927 408.046L461.175 409.216L463.299 409.53L468.609 409.86L474.982 410.001L497.285 410.003L501.533 410.016L507.906 410.111" fill="#EFEFEF" fill-opacity="0.4"/>
<path d="M296.555 410.111L302.927 409.973L309.299 409.823L315.672 409.856L318.858 409.433L323.106 408.771L326.293 408.48L330.541 408.271L332.665 407.841L336.913 406.56L341.161 404.963L344.348 403.323L346.472 402.28L349.658 401.196L350.72 400.544L351.782 399.576L353.906 396.908L356.03 394.186L360.279 389.693L362.403 386.51L363.465 384.534L364.527 382.236L365.589 379.543L367.713 372.875L370.899 360.82L374.085 347.866L375.148 342.705L376.21 336.687L378.334 321.827L385.768 264.191L387.892 248.712L390.016 235.006L392.141 223.038L394.265 212.394L396.389 203.169L397.451 199.837L398.513 197.94L399.575 197.673L400.637 198.864L401.699 201.037L404.885 208.558L407.009 213.227L408.072 216.029L409.134 219.478L410.196 223.786L411.258 229.092L413.382 242.437L416.568 265.94L420.816 298.801L422.94 313.045L428.251 344.793L430.375 356.227L432.499 366.174L434.623 374.898L436.747 382.338L438.871 388.518L440.996 393.641L443.12 397.781L444.182 399.433L446.306 401.953L448.43 403.808L451.616 406.042L453.74 407.095L456.927 408.046L461.175 409.216L463.299 409.53L468.609 409.86L474.982 410.001L497.285 410.003L501.533 410.016L507.906 410.111" stroke="#EFEFEF" stroke-linecap="square"/>
</g>
<mask id="mask12_230_12718" style="mask-type:luminance" maskUnits="userSpaceOnUse" x="76" y="55" width="477" height="356">
<path d="M552.957 55.2959H76.7969V410.112H552.957V55.2959Z" fill="white"/>
</mask>
<g mask="url(#mask12_230_12718)">
<path d="M327.477 410.111L353.06 409.87L356.851 409.617L361.588 409.894L363.483 409.603L365.379 409.206L377.697 408.684L378.644 408.538L380.539 407.792L382.434 406.992L383.382 406.626L384.33 406.077L388.12 403.08L389.067 402.053L390.962 399.258L392.857 395.689L394.753 391.155L395.7 388.299L396.648 384.895L398.543 376.377L400.438 365.649L401.385 359.293L402.333 351.879L403.281 342.938L405.176 319.859L408.018 282.575L408.966 270.346L409.913 255.934L411.808 219.66L416.546 119.446L417.494 104.643L418.441 92.2567L419.389 82.8084L420.336 76.9213L421.284 74.0147L422.232 72.6083L423.179 72.1924L424.127 73.8869L425.074 78.8154L426.022 86.6929L427.917 106.788L428.864 118.132L429.812 131.585L430.76 148.477L433.602 207.74L435.497 238.431L440.235 301.654L442.13 325.55L444.025 344.81L445.92 359.145L447.815 369.9L450.658 382.819L451.606 386.62L452.553 389.721L453.501 392.035L456.343 397.907L458.238 401.944L459.186 403.355L461.081 405.37L462.029 406.253L462.976 406.923L463.924 407.231L466.766 407.473L472.452 409.342L474.347 409.777L476.242 409.918L478.137 409.697L480.032 409.404L481.927 409.605L483.822 409.82L500.878 410.112L516.039 410.111" fill="#EFEFEF" fill-opacity="0.4"/>
<path d="M327.477 410.111L353.06 409.87L356.851 409.617L361.588 409.894L363.483 409.603L365.379 409.206L377.697 408.684L378.644 408.538L380.539 407.792L382.434 406.992L383.382 406.626L384.33 406.077L388.12 403.08L389.067 402.053L390.962 399.258L392.857 395.689L394.753 391.155L395.7 388.299L396.648 384.895L398.543 376.377L400.438 365.649L401.385 359.293L402.333 351.879L403.281 342.938L405.176 319.859L408.018 282.575L408.966 270.346L409.913 255.934L411.808 219.66L416.546 119.446L417.494 104.643L418.441 92.2567L419.389 82.8084L420.336 76.9213L421.284 74.0147L422.232 72.6083L423.179 72.1924L424.127 73.8869L425.074 78.8154L426.022 86.6929L427.917 106.788L428.864 118.132L429.812 131.585L430.76 148.477L433.602 207.74L435.497 238.431L440.235 301.654L442.13 325.55L444.025 344.81L445.92 359.145L447.815 369.9L450.658 382.819L451.606 386.62L452.553 389.721L453.501 392.035L456.343 397.907L458.238 401.944L459.186 403.355L461.081 405.37L462.029 406.253L462.976 406.923L463.924 407.231L466.766 407.473L472.452 409.342L474.347 409.777L476.242 409.918L478.137 409.697L480.032 409.404L481.927 409.605L483.822 409.82L500.878 410.112L516.039 410.111" stroke="#EFEFEF" stroke-linecap="square"/>
</g>
<mask id="mask13_230_12718" style="mask-type:luminance" maskUnits="userSpaceOnUse" x="76" y="55" width="477" height="356">
<path d="M552.957 55.2959H76.7969V410.112H552.957V55.2959Z" fill="white"/>
</mask>
<g mask="url(#mask13_230_12718)">
<path d="M265.422 410.111L290.356 409.943L300.329 409.558L305.316 409.227L310.303 409.046L315.289 408.43L319.029 407.65L321.523 406.817L324.016 405.522L325.263 404.575L326.509 403.306L327.756 401.631L329.003 399.541L330.249 397.087L331.496 394.296L332.743 391.087L333.99 387.267L335.236 382.572L336.483 376.689L337.73 369.213L338.976 359.599L340.223 347.162L341.47 331.167L342.716 311.035L343.963 286.59L346.456 226.71L350.196 130.567L351.443 106.656L352.69 91.6872L353.937 87.1865L355.183 92.7383L356.43 106.273L357.677 125.028L362.663 208.348L363.91 224.899L365.157 239.222L367.65 263.016L370.143 282.568L372.637 299.508L375.13 314.371L376.377 320.758L377.624 326.267L378.87 330.881L380.117 334.705L381.364 337.898L383.857 342.976L386.35 347.467L388.844 352.649L392.584 360.918L395.077 365.644L398.817 372.331L401.311 376.641L402.557 378.313L405.051 380.942L410.037 385.705L413.777 388.731L416.271 390.716L418.764 393.195L421.258 395.661L423.751 397.542L427.491 399.882L429.984 401.117L438.711 404.837L441.204 405.661L446.191 407.023L448.685 407.913L451.178 408.447L466.138 409.839L477.358 410.023L486.085 409.962L492.319 410.109L513.512 410.111" fill="#EFEFEF" fill-opacity="0.4"/>
<path d="M265.422 410.111L290.356 409.943L300.329 409.558L305.316 409.227L310.303 409.046L315.289 408.43L319.029 407.65L321.523 406.817L324.016 405.522L325.263 404.575L326.509 403.306L327.756 401.631L329.003 399.541L330.249 397.087L331.496 394.296L332.743 391.087L333.99 387.267L335.236 382.572L336.483 376.689L337.73 369.213L338.976 359.599L340.223 347.162L341.47 331.167L342.716 311.035L343.963 286.59L346.456 226.71L350.196 130.567L351.443 106.656L352.69 91.6872L353.937 87.1865L355.183 92.7383L356.43 106.273L357.677 125.028L362.663 208.348L363.91 224.899L365.157 239.222L367.65 263.016L370.143 282.568L372.637 299.508L375.13 314.371L376.377 320.758L377.624 326.267L378.87 330.881L380.117 334.705L381.364 337.898L383.857 342.976L386.35 347.467L388.844 352.649L392.584 360.918L395.077 365.644L398.817 372.331L401.311 376.641L402.557 378.313L405.051 380.942L410.037 385.705L413.777 388.731L416.271 390.716L418.764 393.195L421.258 395.661L423.751 397.542L427.491 399.882L429.984 401.117L438.711 404.837L441.204 405.661L446.191 407.023L448.685 407.913L451.178 408.447L466.138 409.839L477.358 410.023L486.085 409.962L492.319 410.109L513.512 410.111" stroke="#EFEFEF" stroke-linecap="square"/>
</g>
<mask id="mask14_230_12718" style="mask-type:luminance" maskUnits="userSpaceOnUse" x="76" y="55" width="477" height="356">
<path d="M552.957 55.2959H76.7969V410.112H552.957V55.2959Z" fill="white"/>
</mask>
<g mask="url(#mask14_230_12718)">
<path d="M98.4375 410.112L245.436 409.877L256.088 409.628L260.348 409.282L264.609 408.682L273.131 407.018L277.392 405.899L281.652 404.217L283.783 403.133L288.044 400.421L292.304 397.651L300.826 393.065L305.087 390.196L311.478 385.409L315.739 381.771L317.869 379.543L320 376.877L322.13 373.702L324.261 369.977L326.391 365.673L328.521 360.778L330.652 355.298L332.782 349.235L334.913 342.557L337.043 335.231L343.434 311.57L345.565 304.902L347.695 299.61L349.825 295.683L351.956 292.861L354.086 290.838L356.217 289.419L358.347 288.572L360.478 288.331L362.608 288.637L364.738 289.335L366.869 290.356L368.999 291.84L371.13 293.98L373.26 296.772L377.521 303.47L390.303 324.806L417.999 375.503L422.259 382.097L428.651 391.008L430.781 393.787L432.911 396.276L435.042 398.446L437.172 400.341L439.303 401.998L441.433 403.42L445.694 405.71L449.955 407.511L452.085 408.184L454.215 408.676L458.476 409.24L466.998 409.811L473.389 409.962L486.172 410.034L496.824 410.068L520.258 410.11L522.388 410.111" fill="#7EB0D5" fill-opacity="0.4"/>
<path d="M98.4375 410.112L245.436 409.877L256.088 409.628L260.348 409.282L264.609 408.682L273.131 407.018L277.392 405.899L281.652 404.217L283.783 403.133L288.044 400.421L292.304 397.651L300.826 393.065L305.087 390.196L311.478 385.409L315.739 381.771L317.869 379.543L320 376.877L322.13 373.702L324.261 369.977L326.391 365.673L328.521 360.778L330.652 355.298L332.782 349.235L334.913 342.557L337.043 335.231L343.434 311.57L345.565 304.902L347.695 299.61L349.825 295.683L351.956 292.861L354.086 290.838L356.217 289.419L358.347 288.572L360.478 288.331L362.608 288.637L364.738 289.335L366.869 290.356L368.999 291.84L371.13 293.98L373.26 296.772L377.521 303.47L390.303 324.806L417.999 375.503L422.259 382.097L428.651 391.008L430.781 393.787L432.911 396.276L435.042 398.446L437.172 400.341L439.303 401.998L441.433 403.42L445.694 405.71L449.955 407.511L452.085 408.184L454.215 408.676L458.476 409.24L466.998 409.811L473.389 409.962L486.172 410.034L496.824 410.068L520.258 410.11L522.388 410.111" stroke="#7EB0D5" stroke-linecap="square"/>
</g>
<path d="M535.061 411.061C535.646 410.475 535.646 409.525 535.061 408.939L525.515 399.393C524.929 398.808 523.979 398.808 523.393 399.393C522.808 399.979 522.808 400.929 523.393 401.515L531.879 410L523.393 418.485C522.808 419.071 522.808 420.021 523.393 420.607C523.979 421.192 524.929 421.192 525.515 420.607L535.061 411.061ZM79 411.5H534V408.5H79V411.5Z" fill="black"/>
</g>
<defs>
<clipPath id="clip0_230_12718">
<rect width="614.4" height="460.8" fill="white"/>
</clipPath>
</defs>
</svg>
