<svg width="615" height="461" viewBox="0 0 615 461" fill="none" xmlns="http://www.w3.org/2000/svg">
<g clip-path="url(#clip0_230_12878)">
<mask id="mask0_230_12878" style="mask-type:luminance" maskUnits="userSpaceOnUse" x="76" y="55" width="477" height="356">
<path d="M552.957 55.2959H76.7969V410.112H552.957V55.2959Z" fill="white"/>
</mask>
<g mask="url(#mask0_230_12878)">
<path d="M315.609 410.111L336.767 409.906L343.114 409.551L347.345 409.107L350.519 408.961L353.692 408.968L355.808 408.409L358.982 407.168L363.213 405.96L365.329 404.803L369.56 402.124L371.676 400.447L373.791 398.037L375.907 394.917L376.965 392.983L378.023 390.659L379.081 387.869L380.139 384.545L381.197 380.55L382.254 375.708L384.37 363.549L386.486 349.301L388.602 332.294L390.717 311.338L392.833 285.477L396.006 244.099L401.296 180.91L403.411 159.717L405.527 140.527L406.585 132.089L407.643 125.489L408.701 121.342L409.759 119.811L410.816 120.658L411.874 123.421L412.932 127.575L413.99 132.71L415.048 138.764L416.106 146.076L417.164 155.014L419.279 177.288L427.742 276.17L429.858 298.795L431.974 317.419L434.089 334.145L435.147 341.591L436.205 347.878L438.321 357.596L441.494 369.338L445.726 384.604L446.784 387.516L447.841 389.841L449.957 393.454L454.189 399.911L455.246 401.257L456.304 402.149L457.362 402.59L459.478 403.214L460.536 403.881L463.709 406.436L465.825 407.419L467.941 407.907L474.288 408.832L476.404 409.342L478.519 409.608L481.693 409.649L483.809 409.594L486.982 409.912L490.156 410.099L499.676 410.038L504.966 410.085L526.123 410.111" fill="#EFEFEF" fill-opacity="0.4"/>
<path d="M315.609 410.111L336.767 409.906L343.114 409.551L347.345 409.107L350.519 408.961L353.692 408.968L355.808 408.409L358.982 407.168L363.213 405.96L365.329 404.803L369.56 402.124L371.676 400.447L373.791 398.037L375.907 394.917L376.965 392.983L378.023 390.659L379.081 387.869L380.139 384.545L381.197 380.55L382.254 375.708L384.37 363.549L386.486 349.301L388.602 332.294L390.717 311.338L392.833 285.477L396.006 244.099L401.296 180.91L403.411 159.717L405.527 140.527L406.585 132.089L407.643 125.489L408.701 121.342L409.759 119.811L410.816 120.658L411.874 123.421L412.932 127.575L413.99 132.71L415.048 138.764L416.106 146.076L417.164 155.014L419.279 177.288L427.742 276.17L429.858 298.795L431.974 317.419L434.089 334.145L435.147 341.591L436.205 347.878L438.321 357.596L441.494 369.338L445.726 384.604L446.784 387.516L447.841 389.841L449.957 393.454L454.189 399.911L455.246 401.257L456.304 402.149L457.362 402.59L459.478 403.214L460.536 403.881L463.709 406.436L465.825 407.419L467.941 407.907L474.288 408.832L476.404 409.342L478.519 409.608L481.693 409.649L483.809 409.594L486.982 409.912L490.156 410.099L499.676 410.038L504.966 410.085L526.123 410.111" stroke="#EFEFEF" stroke-linecap="square"/>
</g>
<mask id="mask1_230_12878" style="mask-type:luminance" maskUnits="userSpaceOnUse" x="76" y="55" width="477" height="356">
<path d="M552.957 55.2959H76.7969V410.112H552.957V55.2959Z" fill="white"/>
</mask>
<g mask="url(#mask1_230_12878)">
<path d="M294.281 410.111L311.547 409.948L317.302 409.64L321.907 409.538L324.209 409.199L329.964 408.151L335.719 407.495L339.172 407.246L341.474 406.515L344.928 404.869L349.532 403.4L351.834 401.902L354.136 400.169L356.438 398.829L358.74 397.489L361.042 395.599L369.1 387.757L371.402 384.477L373.704 380.535L374.855 378.326L376.006 375.665L377.157 372.253L378.308 367.994L385.215 338.215L386.366 331.765L388.668 316.296L392.121 289.872L395.574 260.643L404.782 180.379L405.933 173.447L407.084 168.46L408.236 165.023L409.387 162.669L410.538 161.105L411.689 160.287L412.84 160.416L413.991 161.886L415.142 165.13L416.293 170.414L417.444 177.655L419.746 195.864L423.199 223.149L425.501 242.262L431.257 294.892L435.861 332.967L438.163 349.484L440.465 362.923L442.767 373.23L445.069 381.538L447.371 388.068L449.673 393.377L451.976 398.001L453.127 399.906L454.278 401.464L456.58 403.753L458.882 405.372L461.184 406.352L470.392 408.856L473.846 409.257L477.299 409.423L479.601 409.247L481.903 409.028L484.205 409.222L487.658 409.84L491.111 410.018L504.924 410.112L523.341 410.111" fill="#EFEFEF" fill-opacity="0.4"/>
<path d="M294.281 410.111L311.547 409.948L317.302 409.64L321.907 409.538L324.209 409.199L329.964 408.151L335.719 407.495L339.172 407.246L341.474 406.515L344.928 404.869L349.532 403.4L351.834 401.902L354.136 400.169L356.438 398.829L358.74 397.489L361.042 395.599L369.1 387.757L371.402 384.477L373.704 380.535L374.855 378.326L376.006 375.665L377.157 372.253L378.308 367.994L385.215 338.215L386.366 331.765L388.668 316.296L392.121 289.872L395.574 260.643L404.782 180.379L405.933 173.447L407.084 168.46L408.236 165.023L409.387 162.669L410.538 161.105L411.689 160.287L412.84 160.416L413.991 161.886L415.142 165.13L416.293 170.414L417.444 177.655L419.746 195.864L423.199 223.149L425.501 242.262L431.257 294.892L435.861 332.967L438.163 349.484L440.465 362.923L442.767 373.23L445.069 381.538L447.371 388.068L449.673 393.377L451.976 398.001L453.127 399.906L454.278 401.464L456.58 403.753L458.882 405.372L461.184 406.352L470.392 408.856L473.846 409.257L477.299 409.423L479.601 409.247L481.903 409.028L484.205 409.222L487.658 409.84L491.111 410.018L504.924 410.112L523.341 410.111" stroke="#EFEFEF" stroke-linecap="square"/>
</g>
<mask id="mask2_230_12878" style="mask-type:luminance" maskUnits="userSpaceOnUse" x="76" y="55" width="477" height="356">
<path d="M552.957 55.2959H76.7969V410.112H552.957V55.2959Z" fill="white"/>
</mask>
<g mask="url(#mask2_230_12878)">
<path d="M303.172 410.11L308.904 409.956L313.49 409.886L323.808 409.797L343.298 409.236L346.737 409.011L349.03 408.817L353.616 408.219L359.348 407.707L363.934 408.148L366.227 407.841L367.373 407.461L369.666 406.244L374.252 403.437L377.691 401.74L378.838 400.92L379.984 399.653L381.131 397.854L385.716 389.255L389.156 383.728L390.302 381.27L391.449 378.038L392.595 373.922L393.742 368.928L394.888 363.099L397.181 349.058L399.474 332.161L401.767 312.741L404.06 289.975L406.353 262.13L412.085 182.897L414.378 159.663L415.524 150.737L416.671 144.309L417.817 140.729L418.964 139.795L420.11 140.694L422.403 144.326L423.549 146.569L424.696 149.647L425.842 154.125L426.989 160.473L428.135 168.946L429.282 179.44L431.575 204.492L433.867 229.575L435.014 240.06L437.307 257.362L439.6 274.874L444.185 313.255L446.478 329.437L448.771 343.545L451.064 356.421L453.357 367.45L455.65 375.868L457.943 382.788L460.236 388.835L462.529 393.631L464.822 397.632L467.115 401.076L469.407 404.038L470.554 405.252L471.7 406.193L472.847 406.842L475.14 407.616L479.726 408.954L483.165 409.38L488.897 409.819L496.922 410.038L502.655 409.99L506.094 409.974L511.826 409.835L531.316 410.111" fill="#EFEFEF" fill-opacity="0.4"/>
<path d="M303.172 410.11L308.904 409.956L313.49 409.886L323.808 409.797L343.298 409.236L346.737 409.011L349.03 408.817L353.616 408.219L359.348 407.707L363.934 408.148L366.227 407.841L367.373 407.461L369.666 406.244L374.252 403.437L377.691 401.74L378.838 400.92L379.984 399.653L381.131 397.854L385.716 389.255L389.156 383.728L390.302 381.27L391.449 378.038L392.595 373.922L393.742 368.928L394.888 363.099L397.181 349.058L399.474 332.161L401.767 312.741L404.06 289.975L406.353 262.13L412.085 182.897L414.378 159.663L415.524 150.737L416.671 144.309L417.817 140.729L418.964 139.795L420.11 140.694L422.403 144.326L423.549 146.569L424.696 149.647L425.842 154.125L426.989 160.473L428.135 168.946L429.282 179.44L431.575 204.492L433.867 229.575L435.014 240.06L437.307 257.362L439.6 274.874L444.185 313.255L446.478 329.437L448.771 343.545L451.064 356.421L453.357 367.45L455.65 375.868L457.943 382.788L460.236 388.835L462.529 393.631L464.822 397.632L467.115 401.076L469.407 404.038L470.554 405.252L471.7 406.193L472.847 406.842L475.14 407.616L479.726 408.954L483.165 409.38L488.897 409.819L496.922 410.038L502.655 409.99L506.094 409.974L511.826 409.835L531.316 410.111" stroke="#EFEFEF" stroke-linecap="square"/>
</g>
<mask id="mask3_230_12878" style="mask-type:luminance" maskUnits="userSpaceOnUse" x="76" y="55" width="477" height="356">
<path d="M552.957 55.2959H76.7969V410.112H552.957V55.2959Z" fill="white"/>
</mask>
<g mask="url(#mask3_230_12878)">
<path d="M303.398 410.111L324.247 409.918L327.539 409.732L331.928 409.179L338.512 409.447L341.804 409.075L343.998 408.479L346.193 407.704L348.388 407.252L350.582 406.817L352.777 406.044L356.069 404.481L358.263 403.251L360.458 401.674L363.75 398.962L364.847 397.753L365.944 396.237L368.139 392.532L371.431 386.205L373.625 381.242L375.82 375.078L380.209 361.288L382.404 352.864L384.598 342.941L386.793 331.267L387.89 324.09L390.085 306.892L392.279 289.322L398.863 240.708L401.058 220.212L407.642 151.166L408.739 143.011L409.836 136.721L410.933 132.72L412.031 131.032L413.128 131.093L414.225 132.324L415.323 134.86L416.42 139.483L417.517 146.84L418.614 156.924L420.809 183.05L424.101 225.874L427.393 263.653L432.879 324.378L435.074 343.943L437.269 358.384L439.463 370.844L441.658 381.216L443.852 388.819L446.047 394.805L447.144 397.288L448.241 399.397L449.339 401.122L451.533 403.697L454.825 406.976L455.923 407.756L457.02 408.211L459.214 408.425L461.409 408.556L467.993 409.472L473.479 410.051L476.771 409.97L481.16 409.694L484.452 409.874L488.841 410.102L509.69 410.104L521.76 410.111" fill="#EFEFEF" fill-opacity="0.4"/>
<path d="M303.398 410.111L324.247 409.918L327.539 409.732L331.928 409.179L338.512 409.447L341.804 409.075L343.998 408.479L346.193 407.704L348.388 407.252L350.582 406.817L352.777 406.044L356.069 404.481L358.263 403.251L360.458 401.674L363.75 398.962L364.847 397.753L365.944 396.237L368.139 392.532L371.431 386.205L373.625 381.242L375.82 375.078L380.209 361.288L382.404 352.864L384.598 342.941L386.793 331.267L387.89 324.09L390.085 306.892L392.279 289.322L398.863 240.708L401.058 220.212L407.642 151.166L408.739 143.011L409.836 136.721L410.933 132.72L412.031 131.032L413.128 131.093L414.225 132.324L415.323 134.86L416.42 139.483L417.517 146.84L418.614 156.924L420.809 183.05L424.101 225.874L427.393 263.653L432.879 324.378L435.074 343.943L437.269 358.384L439.463 370.844L441.658 381.216L443.852 388.819L446.047 394.805L447.144 397.288L448.241 399.397L449.339 401.122L451.533 403.697L454.825 406.976L455.923 407.756L457.02 408.211L459.214 408.425L461.409 408.556L467.993 409.472L473.479 410.051L476.771 409.97L481.16 409.694L484.452 409.874L488.841 410.102L509.69 410.104L521.76 410.111" stroke="#EFEFEF" stroke-linecap="square"/>
</g>
<mask id="mask4_230_12878" style="mask-type:luminance" maskUnits="userSpaceOnUse" x="76" y="55" width="477" height="356">
<path d="M552.957 55.2959H76.7969V410.112H552.957V55.2959Z" fill="white"/>
</mask>
<g mask="url(#mask4_230_12878)">
<path d="M314.094 410.111L328.768 409.934L331.702 409.881L336.594 409.931L341.485 409.74L351.267 409.767L354.202 409.255L358.115 408.613L362.028 408.001L366.92 406.95L373.767 404.872L378.659 402.439L381.593 401.142L383.55 399.962L386.485 397.728L390.398 394.69L392.354 393.292L393.333 392.416L394.311 391.221L395.289 389.577L396.267 387.456L398.224 382.264L404.093 365.834L405.072 362.169L407.028 353.085L408.985 342.025L415.832 300.741L417.789 292.16L419.745 285.706L423.658 273.771L425.615 269.195L426.593 267.175L427.571 264.793L428.55 261.566L429.528 257.136L430.506 251.336L431.485 244.169L433.441 226.204L435.398 204.306L441.267 131.253L442.245 121.827L443.224 114.407L444.202 109.389L445.18 107.046L446.158 107.569L447.137 111.143L448.115 117.954L449.093 128.079L450.071 141.38L452.028 175.962L457.897 295.88L459.854 326.784L461.81 352.611L463.767 372.683L464.745 380.353L465.723 386.576L466.702 391.568L467.68 395.557L468.658 398.743L469.636 401.289L470.615 403.316L471.593 404.915L472.571 406.151L473.55 407.08L474.528 407.763L476.484 408.636L478.441 409.148L481.376 409.572L485.289 409.812L493.115 409.989L500.941 409.944L508.767 410.111" fill="#EFEFEF" fill-opacity="0.4"/>
<path d="M314.094 410.111L328.768 409.934L331.702 409.881L336.594 409.931L341.485 409.74L351.267 409.767L354.202 409.255L358.115 408.613L362.028 408.001L366.92 406.95L373.767 404.872L378.659 402.439L381.593 401.142L383.55 399.962L386.485 397.728L390.398 394.69L392.354 393.292L393.333 392.416L394.311 391.221L395.289 389.577L396.267 387.456L398.224 382.264L404.093 365.834L405.072 362.169L407.028 353.085L408.985 342.025L415.832 300.741L417.789 292.16L419.745 285.706L423.658 273.771L425.615 269.195L426.593 267.175L427.571 264.793L428.55 261.566L429.528 257.136L430.506 251.336L431.485 244.169L433.441 226.204L435.398 204.306L441.267 131.253L442.245 121.827L443.224 114.407L444.202 109.389L445.18 107.046L446.158 107.569L447.137 111.143L448.115 117.954L449.093 128.079L450.071 141.38L452.028 175.962L457.897 295.88L459.854 326.784L461.81 352.611L463.767 372.683L464.745 380.353L465.723 386.576L466.702 391.568L467.68 395.557L468.658 398.743L469.636 401.289L470.615 403.316L471.593 404.915L472.571 406.151L473.55 407.08L474.528 407.763L476.484 408.636L478.441 409.148L481.376 409.572L485.289 409.812L493.115 409.989L500.941 409.944L508.767 410.111" stroke="#EFEFEF" stroke-linecap="square"/>
</g>
<mask id="mask5_230_12878" style="mask-type:luminance" maskUnits="userSpaceOnUse" x="76" y="55" width="477" height="356">
<path d="M552.957 55.2959H76.7969V410.112H552.957V55.2959Z" fill="white"/>
</mask>
<g mask="url(#mask5_230_12878)">
<path d="M301.047 410.111L346.05 409.86L348.143 409.702L352.33 409.09L355.469 409.003L357.563 408.876L361.749 409.167L366.982 408.592L369.075 408.437L371.168 407.864L373.261 407.252L375.354 407.118L377.448 407.256L379.541 406.998L387.913 404.597L391.053 402.738L394.193 401.387L395.24 400.468L396.286 399.016L397.333 396.936L398.379 394.251L400.472 387.661L403.612 376.53L404.659 372.23L405.705 367.152L407.799 354.248L409.892 338.613L411.985 320.603L415.125 290.629L422.451 216.037L426.637 174.52L427.684 166.876L428.73 161.009L430.823 152.682L433.963 140.258L435.01 137.691L436.056 137.232L437.103 138.803L438.15 142.088L439.196 146.992L440.243 153.593L441.289 161.853L443.382 182.014L446.522 213.444L449.662 241.14L451.755 263.168L454.895 297.106L458.035 327.576L460.128 345.851L462.221 360.238L464.314 371.655L466.407 381.804L468.501 390.217L469.547 393.325L470.594 395.648L471.64 397.36L473.733 399.925L478.966 405.954L481.06 407.591L482.106 408.13L483.153 408.464L485.246 408.692L487.339 408.945L490.479 409.629L492.572 409.77L497.805 409.777L509.317 410.111" fill="#EFEFEF" fill-opacity="0.4"/>
<path d="M301.047 410.111L346.05 409.86L348.143 409.702L352.33 409.09L355.469 409.003L357.563 408.876L361.749 409.167L366.982 408.592L369.075 408.437L371.168 407.864L373.261 407.252L375.354 407.118L377.448 407.256L379.541 406.998L387.913 404.597L391.053 402.738L394.193 401.387L395.24 400.468L396.286 399.016L397.333 396.936L398.379 394.251L400.472 387.661L403.612 376.53L404.659 372.23L405.705 367.152L407.799 354.248L409.892 338.613L411.985 320.603L415.125 290.629L422.451 216.037L426.637 174.52L427.684 166.876L428.73 161.009L430.823 152.682L433.963 140.258L435.01 137.691L436.056 137.232L437.103 138.803L438.15 142.088L439.196 146.992L440.243 153.593L441.289 161.853L443.382 182.014L446.522 213.444L449.662 241.14L451.755 263.168L454.895 297.106L458.035 327.576L460.128 345.851L462.221 360.238L464.314 371.655L466.407 381.804L468.501 390.217L469.547 393.325L470.594 395.648L471.64 397.36L473.733 399.925L478.966 405.954L481.06 407.591L482.106 408.13L483.153 408.464L485.246 408.692L487.339 408.945L490.479 409.629L492.572 409.77L497.805 409.777L509.317 410.111" stroke="#EFEFEF" stroke-linecap="square"/>
</g>
<mask id="mask6_230_12878" style="mask-type:luminance" maskUnits="userSpaceOnUse" x="76" y="55" width="477" height="356">
<path d="M552.957 55.2959H76.7969V410.112H552.957V55.2959Z" fill="white"/>
</mask>
<g mask="url(#mask6_230_12878)">
<path d="M285.18 410.111L306.426 409.98L312.017 409.888L323.199 409.896L328.79 409.595L332.144 409.247L334.381 408.772L335.499 408.364L336.617 407.783L337.736 406.981L338.854 405.905L339.972 404.494L341.09 402.671L342.208 400.342L343.327 397.404L344.445 393.755L345.563 389.319L346.681 384.065L348.918 371.243L351.154 356.045L358.981 299.079L360.1 292.739L361.218 287.456L362.336 283.242L363.454 279.947L369.045 266.168L371.282 260.023L372.4 257.588L373.518 255.795L374.636 254.669L375.755 254.157L376.873 254.167L377.991 254.57L381.346 256.492L382.464 256.881L384.7 257.339L385.818 257.854L386.937 258.918L388.055 260.69L389.173 263.138L392.528 271.695L393.646 273.885L394.764 275.533L395.882 276.758L398.119 278.614L401.473 281.306L402.592 282.524L403.71 284.164L404.828 286.369L405.946 289.178L408.183 296.129L412.656 310.538L416.01 320.329L417.128 323.11L418.247 325.464L419.365 327.388L423.838 333.848L424.956 336.006L427.192 341.462L429.429 348.065L433.901 361.576L436.138 367.571L438.374 372.701L441.729 379.732L443.965 385.288L447.32 394.015L449.556 398.774L451.793 402.44L454.029 405.122L456.266 406.949L458.502 408.134L460.738 408.882L462.975 409.319L466.329 409.614L474.157 409.868L487.575 409.892L493.167 410.068L507.703 410.111" fill="#EFEFEF" fill-opacity="0.4"/>
<path d="M285.18 410.111L306.426 409.98L312.017 409.888L323.199 409.896L328.79 409.595L332.144 409.247L334.381 408.772L335.499 408.364L336.617 407.783L337.736 406.981L338.854 405.905L339.972 404.494L341.09 402.671L342.208 400.342L343.327 397.404L344.445 393.755L345.563 389.319L346.681 384.065L348.918 371.243L351.154 356.045L358.981 299.079L360.1 292.739L361.218 287.456L362.336 283.242L363.454 279.947L369.045 266.168L371.282 260.023L372.4 257.588L373.518 255.795L374.636 254.669L375.755 254.157L376.873 254.167L377.991 254.57L381.346 256.492L382.464 256.881L384.7 257.339L385.818 257.854L386.937 258.918L388.055 260.69L389.173 263.138L392.528 271.695L393.646 273.885L394.764 275.533L395.882 276.758L398.119 278.614L401.473 281.306L402.592 282.524L403.71 284.164L404.828 286.369L405.946 289.178L408.183 296.129L412.656 310.538L416.01 320.329L417.128 323.11L418.247 325.464L419.365 327.388L423.838 333.848L424.956 336.006L427.192 341.462L429.429 348.065L433.901 361.576L436.138 367.571L438.374 372.701L441.729 379.732L443.965 385.288L447.32 394.015L449.556 398.774L451.793 402.44L454.029 405.122L456.266 406.949L458.502 408.134L460.738 408.882L462.975 409.319L466.329 409.614L474.157 409.868L487.575 409.892L493.167 410.068L507.703 410.111" stroke="#EFEFEF" stroke-linecap="square"/>
</g>
<mask id="mask7_230_12878" style="mask-type:luminance" maskUnits="userSpaceOnUse" x="76" y="55" width="477" height="356">
<path d="M552.957 55.2959H76.7969V410.112H552.957V55.2959Z" fill="white"/>
</mask>
<g mask="url(#mask7_230_12878)">
<path d="M316.172 410.11L321.939 409.967L326.745 409.855L333.473 409.884L337.318 409.719L343.085 409.932L346.93 409.69L353.658 408.978L357.503 408.961L367.114 407.864L369.037 407.662L372.881 407.638L375.765 407.212L381.532 405.99L383.454 405.869L386.338 405.277L389.221 404.574L390.183 404.04L392.105 402.328L394.027 400.184L395.95 397.48L399.794 391.079L400.755 388.951L401.717 386.31L403.639 379.475L405.561 370.688L407.484 360.495L409.406 348.659L411.328 333.239L415.173 296.563L418.057 266.954L423.824 200.228L428.63 138.656L431.513 111.554L432.474 102.201L433.436 94.6109L434.397 89.738L435.358 87.5156L436.319 87.5246L437.28 89.5775L438.241 93.572L439.203 99.0972L441.125 112.411L442.086 120.211L443.047 129.92L444.009 142.534L444.97 158.318L446.892 196.766L450.737 277.605L452.659 309.751L454.581 333.856L456.504 352.008L458.426 365.65L460.349 375.777L462.271 384.189L464.193 390.984L466.116 396.245L468.038 400.237L470.921 404.82L471.883 406.129L472.844 407.186L473.805 407.947L474.766 408.454L476.689 409.018L479.572 409.481L483.417 409.798L496.873 410.04L501.679 409.858L506.485 410.105L507.446 410.11" fill="#EFEFEF" fill-opacity="0.4"/>
<path d="M316.172 410.11L321.939 409.967L326.745 409.855L333.473 409.884L337.318 409.719L343.085 409.932L346.93 409.69L353.658 408.978L357.503 408.961L367.114 407.864L369.037 407.662L372.881 407.638L375.765 407.212L381.532 405.99L383.454 405.869L386.338 405.277L389.221 404.574L390.183 404.04L392.105 402.328L394.027 400.184L395.95 397.48L399.794 391.079L400.755 388.951L401.717 386.31L403.639 379.475L405.561 370.688L407.484 360.495L409.406 348.659L411.328 333.239L415.173 296.563L418.057 266.954L423.824 200.228L428.63 138.656L431.513 111.554L432.474 102.201L433.436 94.6109L434.397 89.738L435.358 87.5156L436.319 87.5246L437.28 89.5775L438.241 93.572L439.203 99.0972L441.125 112.411L442.086 120.211L443.047 129.92L444.009 142.534L444.97 158.318L446.892 196.766L450.737 277.605L452.659 309.751L454.581 333.856L456.504 352.008L458.426 365.65L460.349 375.777L462.271 384.189L464.193 390.984L466.116 396.245L468.038 400.237L470.921 404.82L471.883 406.129L472.844 407.186L473.805 407.947L474.766 408.454L476.689 409.018L479.572 409.481L483.417 409.798L496.873 410.04L501.679 409.858L506.485 410.105L507.446 410.11" stroke="#EFEFEF" stroke-linecap="square"/>
</g>
<mask id="mask8_230_12878" style="mask-type:luminance" maskUnits="userSpaceOnUse" x="76" y="55" width="477" height="356">
<path d="M552.957 55.2959H76.7969V410.112H552.957V55.2959Z" fill="white"/>
</mask>
<g mask="url(#mask8_230_12878)">
<path d="M293.523 410.111L299.233 409.961L302.658 409.989L308.367 410.102L316.36 410.049L320.928 410.097L327.779 410.003L331.204 410.045L334.63 409.689L338.055 409.343L340.339 409.456L342.623 409.646L347.19 409.42L352.899 409.382L356.325 409.431L363.176 408.724L365.459 408.486L367.743 407.945L371.169 407.337L374.594 406.482L378.02 406.147L381.445 406.046L382.587 405.776L384.871 404.584L387.154 403.273L390.58 401.675L391.722 400.707L392.863 399.004L394.005 396.312L395.147 392.442L396.289 387.026L397.431 379.387L398.573 368.811L399.715 355.089L401.998 320.809L404.282 281L408.849 190.59L411.133 155.086L413.417 126.898L414.558 116.16L415.7 107.97L416.842 101.989L417.984 97.9377L419.126 95.9912L420.268 96.4095L421.409 99.3667L422.551 104.958L423.693 113.071L424.835 123.456L429.402 173.132L435.112 234.777L438.537 260.775L440.821 284.727L443.104 308.677L446.53 341.386L447.672 350.823L448.814 358.802L449.955 365.509L452.239 376.608L454.523 386.061L456.806 393.718L457.948 396.996L459.09 399.728L460.232 401.784L461.374 403.27L463.657 405.373L464.799 406.134L465.941 406.669L468.225 407.257L475.076 408.544L480.785 408.915L484.211 409.684L487.636 409.794L494.487 409.849L505.906 410.014L509.331 409.924L520.749 410.111" fill="#EFEFEF" fill-opacity="0.4"/>
<path d="M293.523 410.111L299.233 409.961L302.658 409.989L308.367 410.102L316.36 410.049L320.928 410.097L327.779 410.003L331.204 410.045L334.63 409.689L338.055 409.343L340.339 409.456L342.623 409.646L347.19 409.42L352.899 409.382L356.325 409.431L363.176 408.724L365.459 408.486L367.743 407.945L371.169 407.337L374.594 406.482L378.02 406.147L381.445 406.046L382.587 405.776L384.871 404.584L387.154 403.273L390.58 401.675L391.722 400.707L392.863 399.004L394.005 396.312L395.147 392.442L396.289 387.026L397.431 379.387L398.573 368.811L399.715 355.089L401.998 320.809L404.282 281L408.849 190.59L411.133 155.086L413.417 126.898L414.558 116.16L415.7 107.97L416.842 101.989L417.984 97.9377L419.126 95.9912L420.268 96.4095L421.409 99.3667L422.551 104.958L423.693 113.071L424.835 123.456L429.402 173.132L435.112 234.777L438.537 260.775L440.821 284.727L443.104 308.677L446.53 341.386L447.672 350.823L448.814 358.802L449.955 365.509L452.239 376.608L454.523 386.061L456.806 393.718L457.948 396.996L459.09 399.728L460.232 401.784L461.374 403.27L463.657 405.373L464.799 406.134L465.941 406.669L468.225 407.257L475.076 408.544L480.785 408.915L484.211 409.684L487.636 409.794L494.487 409.849L505.906 410.014L509.331 409.924L520.749 410.111" stroke="#EFEFEF" stroke-linecap="square"/>
</g>
<mask id="mask9_230_12878" style="mask-type:luminance" maskUnits="userSpaceOnUse" x="76" y="55" width="477" height="356">
<path d="M552.957 55.2959H76.7969V410.112H552.957V55.2959Z" fill="white"/>
</mask>
<g mask="url(#mask9_230_12878)">
<path d="M299.57 410.111L329.739 409.902L336.443 409.642L340.912 409.973L343.147 409.868L364.377 407.243L369.963 406.018L371.081 405.458L373.315 403.835L376.668 401.381L380.02 399.1L381.137 397.982L382.254 396.426L384.489 392.143L386.724 387.272L387.841 384.492L388.958 380.982L390.076 376.351L391.193 370.412L392.31 363.228L394.545 346.195L396.78 326.697L399.015 304.346L402.367 266.913L405.719 226.074L410.188 167.922L411.305 156.965L412.423 148.701L413.54 142.897L414.657 139.316L415.775 137.675L416.892 137.419L418.009 138.005L419.127 139.468L420.244 142.28L421.362 146.624L422.479 152.186L423.596 158.692L424.714 166.237L426.948 184.645L432.535 234.709L438.122 294.809L440.356 313.633L443.709 338.987L445.943 352.669L448.178 363.919L450.413 373.306L452.647 380.599L455.999 389.715L457.117 392.379L458.234 394.641L459.351 396.454L461.586 399.312L463.821 401.697L467.173 404.703L469.408 406.791L470.525 407.523L472.76 408.355L474.994 408.768L477.229 408.709L479.464 408.416L480.581 408.428L482.816 408.964L485.05 409.612L487.285 409.876L491.755 409.976L501.811 409.861L521.923 410.111" fill="#EFEFEF" fill-opacity="0.4"/>
<path d="M299.57 410.111L329.739 409.902L336.443 409.642L340.912 409.973L343.147 409.868L364.377 407.243L369.963 406.018L371.081 405.458L373.315 403.835L376.668 401.381L380.02 399.1L381.137 397.982L382.254 396.426L384.489 392.143L386.724 387.272L387.841 384.492L388.958 380.982L390.076 376.351L391.193 370.412L392.31 363.228L394.545 346.195L396.78 326.697L399.015 304.346L402.367 266.913L405.719 226.074L410.188 167.922L411.305 156.965L412.423 148.701L413.54 142.897L414.657 139.316L415.775 137.675L416.892 137.419L418.009 138.005L419.127 139.468L420.244 142.28L421.362 146.624L422.479 152.186L423.596 158.692L424.714 166.237L426.948 184.645L432.535 234.709L438.122 294.809L440.356 313.633L443.709 338.987L445.943 352.669L448.178 363.919L450.413 373.306L452.647 380.599L455.999 389.715L457.117 392.379L458.234 394.641L459.351 396.454L461.586 399.312L463.821 401.697L467.173 404.703L469.408 406.791L470.525 407.523L472.76 408.355L474.994 408.768L477.229 408.709L479.464 408.416L480.581 408.428L482.816 408.964L485.05 409.612L487.285 409.876L491.755 409.976L501.811 409.861L521.923 410.111" stroke="#EFEFEF" stroke-linecap="square"/>
</g>
<mask id="mask10_230_12878" style="mask-type:luminance" maskUnits="userSpaceOnUse" x="76" y="55" width="477" height="356">
<path d="M552.957 55.2959H76.7969V410.112H552.957V55.2959Z" fill="white"/>
</mask>
<g mask="url(#mask10_230_12878)">
<path d="M303.891 410.111L320.751 409.935L334.239 409.555L338.735 408.991L345.48 407.59L347.728 407.058L349.976 406.266L352.224 405.13L355.596 402.952L358.968 400.426L363.464 396.52L365.712 394.159L374.704 382.85L376.952 378.51L387.068 356.909L389.317 352.247L391.565 346.316L394.937 337.25L397.185 332.219L399.433 327.511L400.557 324.722L401.681 321.316L403.929 312.674L407.301 297.503L409.549 285.398L411.797 272.492L412.921 266.879L414.045 262.275L415.169 258.624L418.541 249.14L419.665 245.022L421.913 234.736L425.285 217.152L427.533 204.273L430.905 183.313L432.03 177.522L433.154 173.269L434.278 171.006L435.402 170.979L436.526 173.189L437.65 177.479L438.774 183.704L439.898 191.9L441.022 202.298L442.146 215.163L443.27 230.529L445.518 266.779L447.766 304.136L450.014 336.227L451.138 349.552L452.262 361.075L453.386 370.893L454.51 379.125L455.634 385.917L456.758 391.432L457.882 395.841L459.006 399.306L460.13 401.974L461.254 403.978L462.378 405.443L463.502 406.492L464.626 407.239L466.874 408.2L470.246 409.07L473.618 409.56L476.991 409.673L482.611 409.568L490.479 410.102L510.711 410.08L520.827 410.049L527.572 410.111" fill="#EFEFEF" fill-opacity="0.4"/>
<path d="M303.891 410.111L320.751 409.935L334.239 409.555L338.735 408.991L345.48 407.59L347.728 407.058L349.976 406.266L352.224 405.13L355.596 402.952L358.968 400.426L363.464 396.52L365.712 394.159L374.704 382.85L376.952 378.51L387.068 356.909L389.317 352.247L391.565 346.316L394.937 337.25L397.185 332.219L399.433 327.511L400.557 324.722L401.681 321.316L403.929 312.674L407.301 297.503L409.549 285.398L411.797 272.492L412.921 266.879L414.045 262.275L415.169 258.624L418.541 249.14L419.665 245.022L421.913 234.736L425.285 217.152L427.533 204.273L430.905 183.313L432.03 177.522L433.154 173.269L434.278 171.006L435.402 170.979L436.526 173.189L437.65 177.479L438.774 183.704L439.898 191.9L441.022 202.298L442.146 215.163L443.27 230.529L445.518 266.779L447.766 304.136L450.014 336.227L451.138 349.552L452.262 361.075L453.386 370.893L454.51 379.125L455.634 385.917L456.758 391.432L457.882 395.841L459.006 399.306L460.13 401.974L461.254 403.978L462.378 405.443L463.502 406.492L464.626 407.239L466.874 408.2L470.246 409.07L473.618 409.56L476.991 409.673L482.611 409.568L490.479 410.102L510.711 410.08L520.827 410.049L527.572 410.111" stroke="#EFEFEF" stroke-linecap="square"/>
</g>
<mask id="mask11_230_12878" style="mask-type:luminance" maskUnits="userSpaceOnUse" x="76" y="55" width="477" height="356">
<path d="M552.957 55.2959H76.7969V410.112H552.957V55.2959Z" fill="white"/>
</mask>
<g mask="url(#mask11_230_12878)">
<path d="M298.844 410.111L304.274 410.014L317.306 409.289L319.478 409.247L321.65 408.918L324.908 407.877L327.08 407.276L329.252 406.998L332.51 406.691L334.683 406.206L336.855 405.325L341.199 403.055L346.629 401.062L349.887 399.309L352.059 397.87L354.231 396.008L356.403 393.73L358.575 391.049L360.747 387.909L362.919 384.333L365.091 380.202L367.263 375.232L369.435 369.406L371.607 362.714L373.779 354.811L375.951 345.411L378.123 334.333L382.468 309.148L386.812 283.468L388.984 268.975L391.156 252.625L396.586 210.053L397.672 203.337L398.758 197.819L399.844 193.599L400.93 190.632L402.016 188.716L403.102 187.572L404.188 187L405.274 187.016L406.36 187.831L407.446 189.676L408.532 192.616L409.618 196.521L411.79 206.364L415.048 223.808L418.306 243.297L422.65 272.524L424.822 288.654L429.167 322.556L431.339 335.518L434.597 351.079L440.027 376.496L442.199 384.616L443.285 387.758L444.371 390.266L446.543 393.976L449.801 398.47L451.973 401.022L454.145 402.997L456.317 404.515L460.661 407.033L462.833 407.942L465.005 408.521L468.263 409.041L471.522 409.282L476.952 409.6L480.21 409.849L499.758 409.936L506.274 410.003L514.962 410.111" fill="#EFEFEF" fill-opacity="0.4"/>
<path d="M298.844 410.111L304.274 410.014L317.306 409.289L319.478 409.247L321.65 408.918L324.908 407.877L327.08 407.276L329.252 406.998L332.51 406.691L334.683 406.206L336.855 405.325L341.199 403.055L346.629 401.062L349.887 399.309L352.059 397.87L354.231 396.008L356.403 393.73L358.575 391.049L360.747 387.909L362.919 384.333L365.091 380.202L367.263 375.232L369.435 369.406L371.607 362.714L373.779 354.811L375.951 345.411L378.123 334.333L382.468 309.148L386.812 283.468L388.984 268.975L391.156 252.625L396.586 210.053L397.672 203.337L398.758 197.819L399.844 193.599L400.93 190.632L402.016 188.716L403.102 187.572L404.188 187L405.274 187.016L406.36 187.831L407.446 189.676L408.532 192.616L409.618 196.521L411.79 206.364L415.048 223.808L418.306 243.297L422.65 272.524L424.822 288.654L429.167 322.556L431.339 335.518L434.597 351.079L440.027 376.496L442.199 384.616L443.285 387.758L444.371 390.266L446.543 393.976L449.801 398.47L451.973 401.022L454.145 402.997L456.317 404.515L460.661 407.033L462.833 407.942L465.005 408.521L468.263 409.041L471.522 409.282L476.952 409.6L480.21 409.849L499.758 409.936L506.274 410.003L514.962 410.111" stroke="#EFEFEF" stroke-linecap="square"/>
</g>
<mask id="mask12_230_12878" style="mask-type:luminance" maskUnits="userSpaceOnUse" x="76" y="55" width="477" height="356">
<path d="M552.957 55.2959H76.7969V410.112H552.957V55.2959Z" fill="white"/>
</mask>
<g mask="url(#mask12_230_12878)">
<path d="M336.414 410.11L340.851 409.948L343.513 409.927L346.175 409.987L351.498 409.806L358.597 409.76L365.696 409.909L371.019 409.417L374.569 409.076L377.231 408.929L379.893 408.412L381.667 408.329L382.555 408.139L386.104 406.865L387.879 406.492L389.653 405.656L392.315 404.175L394.09 402.857L394.977 402.098L395.864 401.106L396.752 399.622L397.639 397.478L399.414 391.602L401.188 384.406L402.963 375.299L404.738 363.997L406.512 349.444L408.287 331.659L410.062 311.011L411.836 286.633L413.611 257.034L416.273 204.556L418.935 149.849L419.822 135.071L420.709 123.411L423.371 96.4193L425.146 80.1815L426.033 75.4698L426.921 73.9385L427.808 75.2692L428.695 78.6947L430.47 88.6889L432.244 99.9479L433.132 106.405L434.019 114.281L434.906 124.073L436.681 149.418L439.343 197.168L441.118 227.037L442.892 250.315L449.991 329.826L451.765 343.624L453.54 355.32L455.315 365.444L457.089 373.532L461.526 389.765L462.413 392.575L463.301 394.763L464.188 396.384L466.85 400.098L470.399 404.58L471.286 405.504L472.174 406.211L473.948 407.043L476.61 407.809L478.385 407.823L480.16 407.829L481.934 408.255L487.258 409.769L489.033 409.917L501.455 410.068L505.892 410.033L509.441 410.05L512.99 410.111" fill="#EFEFEF" fill-opacity="0.4"/>
<path d="M336.414 410.11L340.851 409.948L343.513 409.927L346.175 409.987L351.498 409.806L358.597 409.76L365.696 409.909L371.019 409.417L374.569 409.076L377.231 408.929L379.893 408.412L381.667 408.329L382.555 408.139L386.104 406.865L387.879 406.492L389.653 405.656L392.315 404.175L394.09 402.857L394.977 402.098L395.864 401.106L396.752 399.622L397.639 397.478L399.414 391.602L401.188 384.406L402.963 375.299L404.738 363.997L406.512 349.444L408.287 331.659L410.062 311.011L411.836 286.633L413.611 257.034L416.273 204.556L418.935 149.849L419.822 135.071L420.709 123.411L423.371 96.4193L425.146 80.1815L426.033 75.4698L426.921 73.9385L427.808 75.2692L428.695 78.6947L430.47 88.6889L432.244 99.9479L433.132 106.405L434.019 114.281L434.906 124.073L436.681 149.418L439.343 197.168L441.118 227.037L442.892 250.315L449.991 329.826L451.765 343.624L453.54 355.32L455.315 365.444L457.089 373.532L461.526 389.765L462.413 392.575L463.301 394.763L464.188 396.384L466.85 400.098L470.399 404.58L471.286 405.504L472.174 406.211L473.948 407.043L476.61 407.809L478.385 407.823L480.16 407.829L481.934 408.255L487.258 409.769L489.033 409.917L501.455 410.068L505.892 410.033L509.441 410.05L512.99 410.111" stroke="#EFEFEF" stroke-linecap="square"/>
</g>
<mask id="mask13_230_12878" style="mask-type:luminance" maskUnits="userSpaceOnUse" x="76" y="55" width="477" height="356">
<path d="M552.957 55.2959H76.7969V410.112H552.957V55.2959Z" fill="white"/>
</mask>
<g mask="url(#mask13_230_12878)">
<path d="M273.031 410.112L294.344 409.942L298.105 409.804L310.641 408.608L313.149 408.04L315.656 407.062L318.163 405.618L320.671 403.683L323.178 401.225L325.686 398.107L326.939 396.2L328.193 393.976L329.447 391.362L330.7 388.311L331.954 384.803L333.208 380.796L334.461 376.151L335.715 370.591L336.969 363.736L338.222 355.179L339.476 344.5L340.73 331.202L341.983 314.642L343.237 294.11L344.491 269.131L346.998 207.47L349.505 141.558L350.759 113.013L352.013 90.6261L353.266 76.5223L354.52 72.1924L355.774 77.9023L357.027 92.3536L358.281 112.974L362.042 183.457L363.296 203.333L364.549 220.015L365.803 233.59L367.057 244.551L368.31 253.599L370.818 268.853L378.34 312.62L380.847 323.912L384.608 338.484L388.369 352.254L389.623 356.162L390.877 359.473L392.13 362.225L394.638 366.693L398.399 372.497L402.16 377.972L407.174 386.032L408.428 387.425L410.935 389.416L413.443 390.784L418.457 392.563L423.472 395.702L430.994 398.96L434.755 400.01L439.77 401.261L442.277 402.266L451.053 406.168L453.56 406.783L457.321 407.531L462.336 408.949L464.843 409.23L477.38 409.736L483.648 409.768L489.917 410.089L508.722 410.091L518.751 410.098L522.512 410.112" fill="#EFEFEF" fill-opacity="0.4"/>
<path d="M273.031 410.112L294.344 409.942L298.105 409.804L310.641 408.608L313.149 408.04L315.656 407.062L318.163 405.618L320.671 403.683L323.178 401.225L325.686 398.107L326.939 396.2L328.193 393.976L329.447 391.362L330.7 388.311L331.954 384.803L333.208 380.796L334.461 376.151L335.715 370.591L336.969 363.736L338.222 355.179L339.476 344.5L340.73 331.202L341.983 314.642L343.237 294.11L344.491 269.131L346.998 207.47L349.505 141.558L350.759 113.013L352.013 90.6261L353.266 76.5223L354.52 72.1924L355.774 77.9023L357.027 92.3536L358.281 112.974L362.042 183.457L363.296 203.333L364.549 220.015L365.803 233.59L367.057 244.551L368.31 253.599L370.818 268.853L378.34 312.62L380.847 323.912L384.608 338.484L388.369 352.254L389.623 356.162L390.877 359.473L392.13 362.225L394.638 366.693L398.399 372.497L402.16 377.972L407.174 386.032L408.428 387.425L410.935 389.416L413.443 390.784L418.457 392.563L423.472 395.702L430.994 398.96L434.755 400.01L439.77 401.261L442.277 402.266L451.053 406.168L453.56 406.783L457.321 407.531L462.336 408.949L464.843 409.23L477.38 409.736L483.648 409.768L489.917 410.089L508.722 410.091L518.751 410.098L522.512 410.112" stroke="#EFEFEF" stroke-linecap="square"/>
</g>
<mask id="mask14_230_12878" style="mask-type:luminance" maskUnits="userSpaceOnUse" x="76" y="55" width="477" height="356">
<path d="M552.957 55.2959H76.7969V410.112H552.957V55.2959Z" fill="white"/>
</mask>
<g mask="url(#mask14_230_12878)">
<path d="M98.4375 410.111L248.385 409.888L254.811 409.729L261.238 409.096L265.522 408.57L267.664 408.178L269.806 407.598L274.09 405.907L278.374 403.876L280.517 402.67L282.659 401.191L284.801 399.389L291.227 393.389L295.511 389.732L299.796 385.685L304.08 381.372L306.222 378.974L308.364 376.3L312.648 370.232L314.79 366.842L316.932 363.054L319.075 358.725L321.217 353.836L323.359 348.442L325.501 342.507L327.643 335.898L331.927 320.981L336.211 306.217L338.353 299.452L340.496 293.194L342.638 287.628L344.78 282.951L346.922 279.249L349.064 276.538L351.206 274.9L353.348 274.471L355.49 275.303L357.632 277.26L359.775 280.027L364.059 286.673L366.201 290.308L368.343 294.252L372.627 303.14L376.911 312.161L391.906 341.419L400.475 356.283L402.617 359.507L409.043 368.306L415.469 378.454L417.611 381.192L419.754 383.466L424.038 387.235L428.322 390.969L432.606 394.855L436.89 398.231L441.175 401.043L445.459 403.63L449.743 405.762L454.027 407.282L458.311 408.274L462.596 408.945L466.88 409.397L473.306 409.766L481.875 409.941L505.438 410.05L516.148 410.079L524.717 410.111" fill="#7EB0D5" fill-opacity="0.4"/>
<path d="M98.4375 410.111L248.385 409.888L254.811 409.729L261.238 409.096L265.522 408.57L267.664 408.178L269.806 407.598L274.09 405.907L278.374 403.876L280.517 402.67L282.659 401.191L284.801 399.389L291.227 393.389L295.511 389.732L299.796 385.685L304.08 381.372L306.222 378.974L308.364 376.3L312.648 370.232L314.79 366.842L316.932 363.054L319.075 358.725L321.217 353.836L323.359 348.442L325.501 342.507L327.643 335.898L331.927 320.981L336.211 306.217L338.353 299.452L340.496 293.194L342.638 287.628L344.78 282.951L346.922 279.249L349.064 276.538L351.206 274.9L353.348 274.471L355.49 275.303L357.632 277.26L359.775 280.027L364.059 286.673L366.201 290.308L368.343 294.252L372.627 303.14L376.911 312.161L391.906 341.419L400.475 356.283L402.617 359.507L409.043 368.306L415.469 378.454L417.611 381.192L419.754 383.466L424.038 387.235L428.322 390.969L432.606 394.855L436.89 398.231L441.175 401.043L445.459 403.63L449.743 405.762L454.027 407.282L458.311 408.274L462.596 408.945L466.88 409.397L473.306 409.766L481.875 409.941L505.438 410.05L516.148 410.079L524.717 410.111" stroke="#7EB0D5" stroke-linecap="square"/>
</g>
<path d="M535.061 411.061C535.646 410.475 535.646 409.525 535.061 408.939L525.515 399.393C524.929 398.808 523.979 398.808 523.393 399.393C522.808 399.979 522.808 400.929 523.393 401.515L531.879 410L523.393 418.485C522.808 419.071 522.808 420.021 523.393 420.607C523.979 421.192 524.929 421.192 525.515 420.607L535.061 411.061ZM79 411.5H534V408.5H79V411.5Z" fill="black"/>
</g>
<defs>
<clipPath id="clip0_230_12878">
<rect width="614.4" height="460.8" fill="white"/>
</clipPath>
</defs>
</svg>
