<svg width="615" height="461" viewBox="0 0 615 461" fill="none" xmlns="http://www.w3.org/2000/svg">
<g clip-path="url(#clip0_230_13358)">
<mask id="mask0_230_13358" style="mask-type:luminance" maskUnits="userSpaceOnUse" x="76" y="55" width="477" height="356">
<path d="M552.957 55.2959H76.7969V410.112H552.957V55.2959Z" fill="white"/>
</mask>
<g mask="url(#mask0_230_13358)">
<path d="M206.32 410.111L242.963 409.926L254.238 409.469L258.466 409.011L261.285 408.528L264.103 407.8L266.922 406.744L271.15 404.666L273.969 403.044L276.787 401.029L279.606 398.373L282.425 395.157L286.653 389.828L289.471 385.887L292.29 381.138L293.699 378.296L296.518 371.661L303.565 353.873L306.383 346.668L309.202 338.287L312.021 328.519L316.249 312.366L324.705 278.714L328.933 262.451L331.751 250.079L335.979 230.939L338.798 219.932L341.617 210.327L344.436 201.394L345.845 197.423L347.254 194.075L348.664 191.468L350.073 189.55L351.482 188.143L354.301 186.09L357.12 184.401L359.938 183.097L361.348 182.76L362.757 182.748L364.166 183.126L365.576 183.939L366.985 185.232L368.394 187.056L369.804 189.458L371.213 192.447L372.622 195.982L375.441 204.344L378.26 213.847L381.078 224.315L383.897 236.389L386.716 250.344L390.944 271.942L393.762 285.054L399.4 309.441L403.628 326.648L413.493 363.83L416.312 373.185L419.13 380.696L421.949 386.657L424.768 391.468L427.586 395.477L430.405 398.914L433.224 401.763L436.043 403.995L438.861 405.711L441.68 406.993L444.499 407.885L447.317 408.467L452.955 409.235L457.183 409.655L462.82 409.879L478.323 410.057L486.779 410.111" fill="#EFEFEF" fill-opacity="0.4"/>
<path d="M206.32 410.111L242.963 409.926L254.238 409.469L258.466 409.011L261.285 408.528L264.103 407.8L266.922 406.744L271.15 404.666L273.969 403.044L276.787 401.029L279.606 398.373L282.425 395.157L286.653 389.828L289.471 385.887L292.29 381.138L293.699 378.296L296.518 371.661L303.565 353.873L306.383 346.668L309.202 338.287L312.021 328.519L316.249 312.366L324.705 278.714L328.933 262.451L331.751 250.079L335.979 230.939L338.798 219.932L341.617 210.327L344.436 201.394L345.845 197.423L347.254 194.075L348.664 191.468L350.073 189.55L351.482 188.143L354.301 186.09L357.12 184.401L359.938 183.097L361.348 182.76L362.757 182.748L364.166 183.126L365.576 183.939L366.985 185.232L368.394 187.056L369.804 189.458L371.213 192.447L372.622 195.982L375.441 204.344L378.26 213.847L381.078 224.315L383.897 236.389L386.716 250.344L390.944 271.942L393.762 285.054L399.4 309.441L403.628 326.648L413.493 363.83L416.312 373.185L419.13 380.696L421.949 386.657L424.768 391.468L427.586 395.477L430.405 398.914L433.224 401.763L436.043 403.995L438.861 405.711L441.68 406.993L444.499 407.885L447.317 408.467L452.955 409.235L457.183 409.655L462.82 409.879L478.323 410.057L486.779 410.111" stroke="#EFEFEF" stroke-linecap="square"/>
</g>
<mask id="mask1_230_13358" style="mask-type:luminance" maskUnits="userSpaceOnUse" x="76" y="55" width="477" height="356">
<path d="M552.957 55.2959H76.7969V410.112H552.957V55.2959Z" fill="white"/>
</mask>
<g mask="url(#mask1_230_13358)">
<path d="M205.914 410.111L216.996 409.961L223.921 410.013L229.462 409.987L233.618 409.701L246.084 408.492L250.24 408.115L253.01 407.638L254.395 407.21L255.78 406.578L257.166 405.73L259.936 403.59L264.092 400.062L265.477 398.587L266.862 396.697L268.247 394.266L269.632 391.277L272.403 384.116L282.099 356.928L284.869 347.835L287.64 336.797L290.41 323.619L294.565 301.846L297.336 286.406L300.106 268.903L307.032 221.77L309.802 206.238L312.573 192.907L315.343 181.354L320.884 160.679L325.039 142.452L326.425 137.656L327.81 134.603L329.195 133.611L330.58 134.67L331.965 137.485L333.35 141.569L336.121 151.505L338.891 162.385L341.662 174.813L344.432 187.489L347.202 198.254L349.973 208.998L352.743 222.055L358.284 251.168L362.439 272.83L365.21 285.751L376.291 334.016L379.061 343.95L381.832 352.545L385.987 364.083L390.143 374.56L392.913 381.033L395.684 386.58L397.069 388.849L398.454 390.781L401.224 393.854L403.995 396.31L408.15 399.532L412.306 402.494L415.076 404.135L419.232 406.229L422.002 407.383L424.772 408.123L427.543 408.499L434.469 409.295L438.624 409.746L442.78 409.886L481.565 410.111" fill="#EFEFEF" fill-opacity="0.4"/>
<path d="M205.914 410.111L216.996 409.961L223.921 410.013L229.462 409.987L233.618 409.701L246.084 408.492L250.24 408.115L253.01 407.638L254.395 407.21L255.78 406.578L257.166 405.73L259.936 403.59L264.092 400.062L265.477 398.587L266.862 396.697L268.247 394.266L269.632 391.277L272.403 384.116L282.099 356.928L284.869 347.835L287.64 336.797L290.41 323.619L294.565 301.846L297.336 286.406L300.106 268.903L307.032 221.77L309.802 206.238L312.573 192.907L315.343 181.354L320.884 160.679L325.039 142.452L326.425 137.656L327.81 134.603L329.195 133.611L330.58 134.67L331.965 137.485L333.35 141.569L336.121 151.505L338.891 162.385L341.662 174.813L344.432 187.489L347.202 198.254L349.973 208.998L352.743 222.055L358.284 251.168L362.439 272.83L365.21 285.751L376.291 334.016L379.061 343.95L381.832 352.545L385.987 364.083L390.143 374.56L392.913 381.033L395.684 386.58L397.069 388.849L398.454 390.781L401.224 393.854L403.995 396.31L408.15 399.532L412.306 402.494L415.076 404.135L419.232 406.229L422.002 407.383L424.772 408.123L427.543 408.499L434.469 409.295L438.624 409.746L442.78 409.886L481.565 410.111" stroke="#EFEFEF" stroke-linecap="square"/>
</g>
<mask id="mask2_230_13358" style="mask-type:luminance" maskUnits="userSpaceOnUse" x="76" y="55" width="477" height="356">
<path d="M552.957 55.2959H76.7969V410.112H552.957V55.2959Z" fill="white"/>
</mask>
<g mask="url(#mask2_230_13358)">
<path d="M202.852 410.111L212.973 409.985L223.094 409.81L250.565 409.689L253.456 409.329L256.348 408.642L259.24 407.669L262.132 406.47L263.577 405.73L265.023 404.813L266.469 403.647L267.915 402.179L269.361 400.394L272.253 395.988L275.144 390.799L278.036 385.021L280.928 378.407L283.819 370.567L286.711 361.232L289.603 350.184L292.495 337.473L301.17 296.549L304.061 280.962L308.399 256.75L309.845 249.658L311.291 243.315L314.182 232.478L317.074 222.467L319.966 211.175L324.303 192.556L325.749 187.116L327.195 182.353L330.087 174.276L332.978 166.975L334.424 163.715L335.87 161.094L337.316 159.439L338.762 158.962L340.208 159.684L341.654 161.433L343.099 163.925L345.991 170.157L347.437 173.744L348.883 177.757L350.329 182.322L353.22 193.201L360.45 223.937L363.341 237.565L366.233 253.425L370.571 277.555L373.462 291.383L379.246 316.092L383.583 333.981L386.475 344.117L389.367 352.574L393.704 363.744L396.596 370.099L399.488 375.168L405.271 384.44L408.163 389.048L409.609 391.052L412.5 394.312L415.392 396.828L418.284 398.753L421.176 400.136L429.851 403.472L442.863 407.589L447.201 408.575L451.538 409.28L455.876 409.639L470.335 409.947L490.577 410.111" fill="#EFEFEF" fill-opacity="0.4"/>
<path d="M202.852 410.111L212.973 409.985L223.094 409.81L250.565 409.689L253.456 409.329L256.348 408.642L259.24 407.669L262.132 406.47L263.577 405.73L265.023 404.813L266.469 403.647L267.915 402.179L269.361 400.394L272.253 395.988L275.144 390.799L278.036 385.021L280.928 378.407L283.819 370.567L286.711 361.232L289.603 350.184L292.495 337.473L301.17 296.549L304.061 280.962L308.399 256.75L309.845 249.658L311.291 243.315L314.182 232.478L317.074 222.467L319.966 211.175L324.303 192.556L325.749 187.116L327.195 182.353L330.087 174.276L332.978 166.975L334.424 163.715L335.87 161.094L337.316 159.439L338.762 158.962L340.208 159.684L341.654 161.433L343.099 163.925L345.991 170.157L347.437 173.744L348.883 177.757L350.329 182.322L353.22 193.201L360.45 223.937L363.341 237.565L366.233 253.425L370.571 277.555L373.462 291.383L379.246 316.092L383.583 333.981L386.475 344.117L389.367 352.574L393.704 363.744L396.596 370.099L399.488 375.168L405.271 384.44L408.163 389.048L409.609 391.052L412.5 394.312L415.392 396.828L418.284 398.753L421.176 400.136L429.851 403.472L442.863 407.589L447.201 408.575L451.538 409.28L455.876 409.639L470.335 409.947L490.577 410.111" stroke="#EFEFEF" stroke-linecap="square"/>
</g>
<mask id="mask3_230_13358" style="mask-type:luminance" maskUnits="userSpaceOnUse" x="76" y="55" width="477" height="356">
<path d="M552.957 55.2959H76.7969V410.112H552.957V55.2959Z" fill="white"/>
</mask>
<g mask="url(#mask3_230_13358)">
<path d="M229.039 410.111L248.868 409.935L262.5 409.388L266.218 408.755L269.936 407.739L282.329 404.02L284.807 403.283L286.047 402.728L287.286 401.995L289.764 400.046L293.482 396.493L297.2 392.614L300.918 388.219L307.115 380.354L308.354 378.25L309.593 375.637L310.832 372.49L314.55 361.372L319.508 346.846L321.986 337.909L325.704 322.052L329.422 305.013L333.14 285.53L341.815 238.145L344.293 222.168L350.49 180.068L352.968 166.293L354.208 160.68L356.686 151.591L360.404 140.119L362.883 133.447L364.122 130.781L365.361 128.667L366.601 127.14L367.84 126.27L369.079 126.157L370.319 126.876L371.558 128.405L372.797 130.613L374.036 133.348L375.276 136.548L376.515 140.318L377.754 144.897L378.994 150.536L380.233 157.356L382.712 174.101L386.429 203.041L392.626 251.182L397.583 285.56L401.301 310.244L403.78 323.646L406.258 334.205L409.976 349.003L414.933 369.968L417.412 379.03L419.89 386.477L421.13 389.557L423.608 394.575L426.087 398.451L427.326 400.026L428.565 401.351L429.805 402.433L432.283 404.05L434.762 405.28L437.24 406.281L440.958 407.374L449.633 409.314L453.351 409.705L462.026 409.946L475.659 410.111" fill="#EFEFEF" fill-opacity="0.4"/>
<path d="M229.039 410.111L248.868 409.935L262.5 409.388L266.218 408.755L269.936 407.739L282.329 404.02L284.807 403.283L286.047 402.728L287.286 401.995L289.764 400.046L293.482 396.493L297.2 392.614L300.918 388.219L307.115 380.354L308.354 378.25L309.593 375.637L310.832 372.49L314.55 361.372L319.508 346.846L321.986 337.909L325.704 322.052L329.422 305.013L333.14 285.53L341.815 238.145L344.293 222.168L350.49 180.068L352.968 166.293L354.208 160.68L356.686 151.591L360.404 140.119L362.883 133.447L364.122 130.781L365.361 128.667L366.601 127.14L367.84 126.27L369.079 126.157L370.319 126.876L371.558 128.405L372.797 130.613L374.036 133.348L375.276 136.548L376.515 140.318L377.754 144.897L378.994 150.536L380.233 157.356L382.712 174.101L386.429 203.041L392.626 251.182L397.583 285.56L401.301 310.244L403.78 323.646L406.258 334.205L409.976 349.003L414.933 369.968L417.412 379.03L419.89 386.477L421.13 389.557L423.608 394.575L426.087 398.451L427.326 400.026L428.565 401.351L429.805 402.433L432.283 404.05L434.762 405.28L437.24 406.281L440.958 407.374L449.633 409.314L453.351 409.705L462.026 409.946L475.659 410.111" stroke="#EFEFEF" stroke-linecap="square"/>
</g>
<mask id="mask4_230_13358" style="mask-type:luminance" maskUnits="userSpaceOnUse" x="76" y="55" width="477" height="356">
<path d="M552.957 55.2959H76.7969V410.112H552.957V55.2959Z" fill="white"/>
</mask>
<g mask="url(#mask4_230_13358)">
<path d="M240.977 410.11L247.683 409.953L253.048 409.359L257.072 409.065L262.437 408.811L265.119 408.259L269.143 406.929L275.85 404.767L279.873 403.356L282.556 402.087L285.239 400.484L290.604 396.849L291.945 395.732L293.286 394.37L294.627 392.697L295.969 390.696L298.651 385.802L301.334 379.828L304.016 372.619L306.699 363.936L310.723 349.145L313.405 338.89L314.747 333.237L316.088 326.918L318.77 312.232L324.135 279.659L332.183 229.388L334.866 212.927L337.548 194.465L341.572 164.885L342.913 156.293L344.255 149.09L345.596 143.434L346.937 139.226L348.278 136.177L349.62 133.914L350.961 132.125L352.302 130.682L353.643 129.697L354.985 129.446L356.326 130.201L357.667 132.061L359.008 134.918L360.35 138.552L363.032 147.407L365.715 157.882L368.397 170.283L371.08 185.551L377.786 227.363L389.858 295.119L393.882 316.342L396.564 328.747L399.247 338.926L403.27 351.934L407.294 364.274L409.977 371.405L411.318 374.335L412.659 376.843L415.342 381.041L424.731 394.728L426.072 396.272L428.755 398.708L431.437 400.576L434.12 402.153L436.802 403.426L439.485 404.42L442.167 405.199L452.898 407.536L456.921 408.066L462.286 408.862L466.31 409.408L471.675 409.754L477.04 409.825L485.088 409.682L494.477 409.937L507.89 410.111" fill="#EFEFEF" fill-opacity="0.4"/>
<path d="M240.977 410.11L247.683 409.953L253.048 409.359L257.072 409.065L262.437 408.811L265.119 408.259L269.143 406.929L275.85 404.767L279.873 403.356L282.556 402.087L285.239 400.484L290.604 396.849L291.945 395.732L293.286 394.37L294.627 392.697L295.969 390.696L298.651 385.802L301.334 379.828L304.016 372.619L306.699 363.936L310.723 349.145L313.405 338.89L314.747 333.237L316.088 326.918L318.77 312.232L324.135 279.659L332.183 229.388L334.866 212.927L337.548 194.465L341.572 164.885L342.913 156.293L344.255 149.09L345.596 143.434L346.937 139.226L348.278 136.177L349.62 133.914L350.961 132.125L352.302 130.682L353.643 129.697L354.985 129.446L356.326 130.201L357.667 132.061L359.008 134.918L360.35 138.552L363.032 147.407L365.715 157.882L368.397 170.283L371.08 185.551L377.786 227.363L389.858 295.119L393.882 316.342L396.564 328.747L399.247 338.926L403.27 351.934L407.294 364.274L409.977 371.405L411.318 374.335L412.659 376.843L415.342 381.041L424.731 394.728L426.072 396.272L428.755 398.708L431.437 400.576L434.12 402.153L436.802 403.426L439.485 404.42L442.167 405.199L452.898 407.536L456.921 408.066L462.286 408.862L466.31 409.408L471.675 409.754L477.04 409.825L485.088 409.682L494.477 409.937L507.89 410.111" stroke="#EFEFEF" stroke-linecap="square"/>
</g>
<mask id="mask5_230_13358" style="mask-type:luminance" maskUnits="userSpaceOnUse" x="76" y="55" width="477" height="356">
<path d="M552.957 55.2959H76.7969V410.112H552.957V55.2959Z" fill="white"/>
</mask>
<g mask="url(#mask5_230_13358)">
<path d="M216.539 410.111L251.771 409.933L259.111 409.723L262.047 409.422L264.983 408.817L267.919 407.787L281.131 401.794L284.067 399.669L287.003 396.893L289.939 393.582L292.875 389.73L294.343 387.483L295.811 384.919L297.279 381.979L298.747 378.636L301.683 370.759L304.619 361.292L307.555 350.141L310.491 337.589L314.895 317.613L317.831 303.2L320.767 287.094L328.106 245.201L331.042 229.436L333.978 215.545L335.446 209.804L336.914 204.841L339.85 196.246L344.254 184.32L345.722 180.952L347.19 178.216L348.658 176.218L350.126 174.956L351.594 174.353L353.062 174.305L354.53 174.739L355.998 175.653L357.466 177.114L358.934 179.234L360.402 182.125L361.87 185.845L363.338 190.359L366.274 201.121L370.678 217.787L373.614 227.236L376.55 236.28L378.018 241.374L380.954 253.275L385.358 271.862L388.294 282.258L398.57 315.358L402.974 329.953L405.91 338.342L408.846 345.282L416.186 360.947L419.122 367.387L420.59 370.217L422.058 372.669L423.526 374.751L426.462 378.174L429.398 381.445L432.334 385.292L439.674 396.306L441.142 397.969L442.61 399.318L445.546 401.354L449.95 403.889L452.886 405.249L455.822 406.093L471.97 409.09L476.374 409.533L485.182 409.84L493.99 410.012L508.67 410.111" fill="#EFEFEF" fill-opacity="0.4"/>
<path d="M216.539 410.111L251.771 409.933L259.111 409.723L262.047 409.422L264.983 408.817L267.919 407.787L281.131 401.794L284.067 399.669L287.003 396.893L289.939 393.582L292.875 389.73L294.343 387.483L295.811 384.919L297.279 381.979L298.747 378.636L301.683 370.759L304.619 361.292L307.555 350.141L310.491 337.589L314.895 317.613L317.831 303.2L320.767 287.094L328.106 245.201L331.042 229.436L333.978 215.545L335.446 209.804L336.914 204.841L339.85 196.246L344.254 184.32L345.722 180.952L347.19 178.216L348.658 176.218L350.126 174.956L351.594 174.353L353.062 174.305L354.53 174.739L355.998 175.653L357.466 177.114L358.934 179.234L360.402 182.125L361.87 185.845L363.338 190.359L366.274 201.121L370.678 217.787L373.614 227.236L376.55 236.28L378.018 241.374L380.954 253.275L385.358 271.862L388.294 282.258L398.57 315.358L402.974 329.953L405.91 338.342L408.846 345.282L416.186 360.947L419.122 367.387L420.59 370.217L422.058 372.669L423.526 374.751L426.462 378.174L429.398 381.445L432.334 385.292L439.674 396.306L441.142 397.969L442.61 399.318L445.546 401.354L449.95 403.889L452.886 405.249L455.822 406.093L471.97 409.09L476.374 409.533L485.182 409.84L493.99 410.012L508.67 410.111" stroke="#EFEFEF" stroke-linecap="square"/>
</g>
<mask id="mask6_230_13358" style="mask-type:luminance" maskUnits="userSpaceOnUse" x="76" y="55" width="477" height="356">
<path d="M552.957 55.2959H76.7969V410.112H552.957V55.2959Z" fill="white"/>
</mask>
<g mask="url(#mask6_230_13358)">
<path d="M196.477 410.11L223.222 409.948L229.301 409.69L237.811 409.598L242.674 409.143L248.753 408.361L254.831 407.082L259.694 407.133L260.91 406.925L262.126 406.565L263.341 406.045L264.557 405.349L266.988 403.394L271.851 398.743L274.283 397.054L279.146 394.351L280.361 393.273L281.577 391.72L282.793 389.612L285.224 384.076L287.656 377.702L288.871 374.15L290.087 370.106L291.303 365.431L293.734 354.313L296.166 341.602L298.597 327.096L301.029 309.768L310.754 231.485L315.617 191.723L318.049 174.771L321.696 152.602L326.559 125.331L327.775 119.349L328.99 114.268L330.206 110.456L331.422 108.165L332.638 107.387L333.853 107.822L336.285 110.331L337.5 111.517L338.716 112.375L341.148 113.591L342.363 114.682L343.579 116.792L344.795 120.356L346.01 125.475L348.442 138.902L352.089 161.562L354.521 178.619L363.031 241.831L369.109 291.908L371.541 309.455L373.972 324.582L376.404 337.063L380.051 353.051L386.129 378.758L388.561 386.87L389.776 390.144L390.992 392.865L392.208 395.033L393.424 396.697L394.639 397.958L397.071 399.782L400.718 402.283L406.797 407.012L409.228 408.182L411.659 408.881L415.307 409.524L417.738 409.719L438.405 410.11" fill="#EFEFEF" fill-opacity="0.4"/>
<path d="M196.477 410.11L223.222 409.948L229.301 409.69L237.811 409.598L242.674 409.143L248.753 408.361L254.831 407.082L259.694 407.133L260.91 406.925L262.126 406.565L263.341 406.045L264.557 405.349L266.988 403.394L271.851 398.743L274.283 397.054L279.146 394.351L280.361 393.273L281.577 391.72L282.793 389.612L285.224 384.076L287.656 377.702L288.871 374.15L290.087 370.106L291.303 365.431L293.734 354.313L296.166 341.602L298.597 327.096L301.029 309.768L310.754 231.485L315.617 191.723L318.049 174.771L321.696 152.602L326.559 125.331L327.775 119.349L328.99 114.268L330.206 110.456L331.422 108.165L332.638 107.387L333.853 107.822L336.285 110.331L337.5 111.517L338.716 112.375L341.148 113.591L342.363 114.682L343.579 116.792L344.795 120.356L346.01 125.475L348.442 138.902L352.089 161.562L354.521 178.619L363.031 241.831L369.109 291.908L371.541 309.455L373.972 324.582L376.404 337.063L380.051 353.051L386.129 378.758L388.561 386.87L389.776 390.144L390.992 392.865L392.208 395.033L393.424 396.697L394.639 397.958L397.071 399.782L400.718 402.283L406.797 407.012L409.228 408.182L411.659 408.881L415.307 409.524L417.738 409.719L438.405 410.11" stroke="#EFEFEF" stroke-linecap="square"/>
</g>
<mask id="mask7_230_13358" style="mask-type:luminance" maskUnits="userSpaceOnUse" x="76" y="55" width="477" height="356">
<path d="M552.957 55.2959H76.7969V410.112H552.957V55.2959Z" fill="white"/>
</mask>
<g mask="url(#mask7_230_13358)">
<path d="M221.078 410.11L228.873 409.945L233.55 409.934L238.227 410.029L250.698 409.625L252.257 409.38L260.052 407.488L261.611 407.253L263.17 406.862L264.729 406.204L266.288 405.25L269.406 402.756L272.524 399.962L275.641 396.654L283.436 387.363L286.554 382.835L288.113 380.23L289.672 377.212L291.231 373.642L294.349 365.139L295.908 360.415L297.467 355.203L299.026 349.295L302.144 335.791L306.821 313.826L308.379 305.631L309.938 296.592L313.056 275.76L316.174 252.196L319.292 227.579L325.528 181.828L328.646 152.048L331.764 121.047L333.323 107.083L334.882 95.0581L336.441 85.5021L338 78.6779L339.559 74.5151L341.118 72.5725L342.676 72.1924L344.235 73.0068L345.794 75.4266L347.353 80.4424L348.912 88.6728L350.471 99.5458L353.589 123.241L358.266 157.382L359.825 170.604L362.943 200.966L367.62 249.92L370.738 278.353L373.856 303.187L376.973 324.988L378.532 334.396L380.091 342.693L381.65 349.902L383.209 356.107L384.768 361.484L387.886 370.887L391.004 379.335L392.563 382.877L394.122 385.847L397.24 390.81L400.358 395.329L401.917 397.276L405.035 400.486L408.152 403.166L409.711 404.246L411.27 405.073L412.829 405.649L415.947 406.328L420.624 407.212L425.301 408.219L429.978 408.724L434.655 408.973L440.891 409.309L447.126 409.501L465.834 409.988L531.31 410.111" fill="#EFEFEF" fill-opacity="0.4"/>
<path d="M221.078 410.11L228.873 409.945L233.55 409.934L238.227 410.029L250.698 409.625L252.257 409.38L260.052 407.488L261.611 407.253L263.17 406.862L264.729 406.204L266.288 405.25L269.406 402.756L272.524 399.962L275.641 396.654L283.436 387.363L286.554 382.835L288.113 380.23L289.672 377.212L291.231 373.642L294.349 365.139L295.908 360.415L297.467 355.203L299.026 349.295L302.144 335.791L306.821 313.826L308.379 305.631L309.938 296.592L313.056 275.76L316.174 252.196L319.292 227.579L325.528 181.828L328.646 152.048L331.764 121.047L333.323 107.083L334.882 95.0581L336.441 85.5021L338 78.6779L339.559 74.5151L341.118 72.5725L342.676 72.1924L344.235 73.0068L345.794 75.4266L347.353 80.4424L348.912 88.6728L350.471 99.5458L353.589 123.241L358.266 157.382L359.825 170.604L362.943 200.966L367.62 249.92L370.738 278.353L373.856 303.187L376.973 324.988L378.532 334.396L380.091 342.693L381.65 349.902L383.209 356.107L384.768 361.484L387.886 370.887L391.004 379.335L392.563 382.877L394.122 385.847L397.24 390.81L400.358 395.329L401.917 397.276L405.035 400.486L408.152 403.166L409.711 404.246L411.27 405.073L412.829 405.649L415.947 406.328L420.624 407.212L425.301 408.219L429.978 408.724L434.655 408.973L440.891 409.309L447.126 409.501L465.834 409.988L531.31 410.111" stroke="#EFEFEF" stroke-linecap="square"/>
</g>
<mask id="mask8_230_13358" style="mask-type:luminance" maskUnits="userSpaceOnUse" x="76" y="55" width="477" height="356">
<path d="M552.957 55.2959H76.7969V410.112H552.957V55.2959Z" fill="white"/>
</mask>
<g mask="url(#mask8_230_13358)">
<path d="M220.859 410.111L236.621 409.973L242.353 409.721L248.084 409.177L255.249 408.17L259.547 407.384L262.413 406.469L263.846 405.752L265.279 404.8L266.712 403.595L269.578 400.521L275.309 393.788L278.175 391.06L283.906 386.12L286.772 383.139L289.638 379.637L293.937 373.743L296.802 369.356L301.101 362.023L306.833 352.35L309.698 347.35L312.564 341.526L315.43 334.649L319.729 322.994L324.027 310.349L326.893 300.853L331.192 285.006L335.49 269.527L348.386 226.069L349.819 221.9L351.252 218.203L352.685 215.028L354.118 212.341L356.984 207.94L359.849 204.085L361.282 202.366L362.715 200.952L364.148 200.002L365.581 199.645L367.014 199.949L368.447 200.92L369.88 202.499L371.312 204.584L374.178 209.804L377.044 215.88L379.91 222.733L382.776 230.467L385.641 238.917L388.507 247.987L392.806 262.864L397.104 278.033L401.403 291.892L405.702 304.428L411.433 320.655L415.732 334.197L420.031 347.449L422.896 355.398L425.762 362.689L428.628 369.327L431.494 375.154L434.359 380.18L437.225 384.674L440.091 388.793L442.957 392.429L445.823 395.477L448.688 398.016L451.554 400.185L455.853 402.964L460.151 405.329L463.017 406.597L465.883 407.494L468.749 408.036L474.48 408.626L485.943 409.543L497.407 410.044L506.004 410.111" fill="#EFEFEF" fill-opacity="0.4"/>
<path d="M220.859 410.111L236.621 409.973L242.353 409.721L248.084 409.177L255.249 408.17L259.547 407.384L262.413 406.469L263.846 405.752L265.279 404.8L266.712 403.595L269.578 400.521L275.309 393.788L278.175 391.06L283.906 386.12L286.772 383.139L289.638 379.637L293.937 373.743L296.802 369.356L301.101 362.023L306.833 352.35L309.698 347.35L312.564 341.526L315.43 334.649L319.729 322.994L324.027 310.349L326.893 300.853L331.192 285.006L335.49 269.527L348.386 226.069L349.819 221.9L351.252 218.203L352.685 215.028L354.118 212.341L356.984 207.94L359.849 204.085L361.282 202.366L362.715 200.952L364.148 200.002L365.581 199.645L367.014 199.949L368.447 200.92L369.88 202.499L371.312 204.584L374.178 209.804L377.044 215.88L379.91 222.733L382.776 230.467L385.641 238.917L388.507 247.987L392.806 262.864L397.104 278.033L401.403 291.892L405.702 304.428L411.433 320.655L415.732 334.197L420.031 347.449L422.896 355.398L425.762 362.689L428.628 369.327L431.494 375.154L434.359 380.18L437.225 384.674L440.091 388.793L442.957 392.429L445.823 395.477L448.688 398.016L451.554 400.185L455.853 402.964L460.151 405.329L463.017 406.597L465.883 407.494L468.749 408.036L474.48 408.626L485.943 409.543L497.407 410.044L506.004 410.111" stroke="#EFEFEF" stroke-linecap="square"/>
</g>
<mask id="mask9_230_13358" style="mask-type:luminance" maskUnits="userSpaceOnUse" x="76" y="55" width="477" height="356">
<path d="M552.957 55.2959H76.7969V410.112H552.957V55.2959Z" fill="white"/>
</mask>
<g mask="url(#mask9_230_13358)">
<path d="M208.359 410.111L233.657 409.938L241.645 409.518L249.634 409.419L253.628 408.935L256.291 408.33L258.954 407.298L260.285 406.574L261.617 405.675L262.948 404.54L264.28 403.083L265.611 401.238L268.274 396.489L272.268 388.643L278.926 376.249L280.257 372.491L281.588 367.669L282.92 361.754L285.583 347.477L289.577 323.622L292.24 306.527L294.903 287.708L298.897 257.19L306.886 194.51L309.549 175.749L312.211 159.246L313.543 152.139L314.874 145.893L316.206 140.591L317.537 136.294L318.869 132.919L320.2 130.204L322.863 125.69L324.194 123.84L325.526 122.519L326.857 121.914L328.189 122.136L329.52 123.28L330.852 125.464L332.183 128.77L333.514 133.159L334.846 138.463L337.509 150.995L340.172 165.266L345.497 196.599L349.492 221.318L353.486 247.582L354.817 255.18L357.48 267.886L358.812 274.225L360.143 281.444L366.8 321.737L369.463 334.257L372.126 345.343L374.789 355.268L378.783 369.059L381.446 377.199L382.778 380.524L384.109 383.241L385.44 385.41L388.103 388.755L393.429 395.031L396.092 397.966L397.423 399.132L400.086 400.859L409.406 405.808L418.726 409.255L421.389 409.597L430.709 409.805L436.035 409.968L473.315 410.111" fill="#EFEFEF" fill-opacity="0.4"/>
<path d="M208.359 410.111L233.657 409.938L241.645 409.518L249.634 409.419L253.628 408.935L256.291 408.33L258.954 407.298L260.285 406.574L261.617 405.675L262.948 404.54L264.28 403.083L265.611 401.238L268.274 396.489L272.268 388.643L278.926 376.249L280.257 372.491L281.588 367.669L282.92 361.754L285.583 347.477L289.577 323.622L292.24 306.527L294.903 287.708L298.897 257.19L306.886 194.51L309.549 175.749L312.211 159.246L313.543 152.139L314.874 145.893L316.206 140.591L317.537 136.294L318.869 132.919L320.2 130.204L322.863 125.69L324.194 123.84L325.526 122.519L326.857 121.914L328.189 122.136L329.52 123.28L330.852 125.464L332.183 128.77L333.514 133.159L334.846 138.463L337.509 150.995L340.172 165.266L345.497 196.599L349.492 221.318L353.486 247.582L354.817 255.18L357.48 267.886L358.812 274.225L360.143 281.444L366.8 321.737L369.463 334.257L372.126 345.343L374.789 355.268L378.783 369.059L381.446 377.199L382.778 380.524L384.109 383.241L385.44 385.41L388.103 388.755L393.429 395.031L396.092 397.966L397.423 399.132L400.086 400.859L409.406 405.808L418.726 409.255L421.389 409.597L430.709 409.805L436.035 409.968L473.315 410.111" stroke="#EFEFEF" stroke-linecap="square"/>
</g>
<mask id="mask10_230_13358" style="mask-type:luminance" maskUnits="userSpaceOnUse" x="76" y="55" width="477" height="356">
<path d="M552.957 55.2959H76.7969V410.112H552.957V55.2959Z" fill="white"/>
</mask>
<g mask="url(#mask10_230_13358)">
<path d="M199.367 410.11L215.024 409.943L220.243 409.928L226.767 410.015L241.119 409.375L248.948 408.049L252.862 407.427L255.472 406.785L258.081 405.795L259.386 405.055L261.996 403.059L268.519 397.069L271.129 394.413L273.738 391.049L276.348 386.885L282.872 375.734L284.176 372.803L285.481 369.372L288.091 361.28L290.7 352.152L293.31 341.629L294.614 335.472L297.224 320.928L299.834 303.829L305.053 267.953L308.967 243.572L312.881 218.737L320.71 164.676L325.929 133.699L327.233 127.096L328.538 121.74L329.843 117.719L331.148 114.883L332.452 113.049L333.757 112.154L335.062 112.262L336.367 113.468L337.671 115.809L338.976 119.243L340.281 123.695L341.586 129.088L344.195 142.198L348.11 164.532L350.719 180.217L353.329 197.294L363.767 268.468L366.376 284.688L368.986 299.064L374.205 325.659L376.814 337.542L379.424 347.782L382.033 356.871L384.643 364.874L387.252 371.674L392.471 384.001L395.081 389.204L397.69 393.43L400.3 396.943L401.605 398.364L402.909 399.527L405.519 401.301L413.347 405.992L415.957 407.152L418.566 408.024L421.176 408.509L427.7 409.051L440.747 409.706L447.271 409.898L457.709 410.108L459.014 410.11" fill="#EFEFEF" fill-opacity="0.4"/>
<path d="M199.367 410.11L215.024 409.943L220.243 409.928L226.767 410.015L241.119 409.375L248.948 408.049L252.862 407.427L255.472 406.785L258.081 405.795L259.386 405.055L261.996 403.059L268.519 397.069L271.129 394.413L273.738 391.049L276.348 386.885L282.872 375.734L284.176 372.803L285.481 369.372L288.091 361.28L290.7 352.152L293.31 341.629L294.614 335.472L297.224 320.928L299.834 303.829L305.053 267.953L308.967 243.572L312.881 218.737L320.71 164.676L325.929 133.699L327.233 127.096L328.538 121.74L329.843 117.719L331.148 114.883L332.452 113.049L333.757 112.154L335.062 112.262L336.367 113.468L337.671 115.809L338.976 119.243L340.281 123.695L341.586 129.088L344.195 142.198L348.11 164.532L350.719 180.217L353.329 197.294L363.767 268.468L366.376 284.688L368.986 299.064L374.205 325.659L376.814 337.542L379.424 347.782L382.033 356.871L384.643 364.874L387.252 371.674L392.471 384.001L395.081 389.204L397.69 393.43L400.3 396.943L401.605 398.364L402.909 399.527L405.519 401.301L413.347 405.992L415.957 407.152L418.566 408.024L421.176 408.509L427.7 409.051L440.747 409.706L447.271 409.898L457.709 410.108L459.014 410.11" stroke="#EFEFEF" stroke-linecap="square"/>
</g>
<mask id="mask11_230_13358" style="mask-type:luminance" maskUnits="userSpaceOnUse" x="76" y="55" width="477" height="356">
<path d="M552.957 55.2959H76.7969V410.112H552.957V55.2959Z" fill="white"/>
</mask>
<g mask="url(#mask11_230_13358)">
<path d="M204.477 410.11L212.626 409.969L219.418 409.725L230.284 409.729L241.151 408.893L246.584 408.116L252.017 407.457L256.092 406.897L258.809 406.148L260.167 405.56L261.525 404.77L262.884 403.738L264.242 402.432L265.6 400.839L268.317 396.856L271.034 392.128L277.825 379.486L280.542 373.487L281.9 369.941L284.617 361.609L287.333 351.9L291.408 335.765L296.841 314.276L299.558 303.443L302.275 290.861L304.991 276.109L309.066 252.971L311.783 239.603L314.499 228.856L317.216 220.027L319.933 211.161L322.649 200.626L325.366 189.334L326.724 184.324L328.082 180.241L329.441 177.306L330.799 175.552L332.157 174.822L333.516 174.824L336.232 175.721L340.307 177.259L341.665 178.103L343.024 179.315L344.382 180.975L345.74 183.172L347.099 186.023L348.457 189.633L349.815 194.017L352.532 204.433L355.248 215.12L357.965 224.584L363.398 242.151L364.757 247.468L367.473 259.737L372.906 285.305L376.981 303.624L379.698 314.244L382.415 322.692L386.49 334.194L389.206 343.038L394.639 361.614L397.356 369.149L400.073 375.16L402.789 380.177L405.506 384.534L408.222 388.187L410.939 391.22L416.372 397.058L420.447 401.424L421.805 402.605L423.164 403.574L425.88 404.926L431.314 406.715L435.389 407.85L439.463 408.5L447.613 409.453L455.763 409.829L469.346 410.09L474.779 410.111" fill="#EFEFEF" fill-opacity="0.4"/>
<path d="M204.477 410.11L212.626 409.969L219.418 409.725L230.284 409.729L241.151 408.893L246.584 408.116L252.017 407.457L256.092 406.897L258.809 406.148L260.167 405.56L261.525 404.77L262.884 403.738L264.242 402.432L265.6 400.839L268.317 396.856L271.034 392.128L277.825 379.486L280.542 373.487L281.9 369.941L284.617 361.609L287.333 351.9L291.408 335.765L296.841 314.276L299.558 303.443L302.275 290.861L304.991 276.109L309.066 252.971L311.783 239.603L314.499 228.856L317.216 220.027L319.933 211.161L322.649 200.626L325.366 189.334L326.724 184.324L328.082 180.241L329.441 177.306L330.799 175.552L332.157 174.822L333.516 174.824L336.232 175.721L340.307 177.259L341.665 178.103L343.024 179.315L344.382 180.975L345.74 183.172L347.099 186.023L348.457 189.633L349.815 194.017L352.532 204.433L355.248 215.12L357.965 224.584L363.398 242.151L364.757 247.468L367.473 259.737L372.906 285.305L376.981 303.624L379.698 314.244L382.415 322.692L386.49 334.194L389.206 343.038L394.639 361.614L397.356 369.149L400.073 375.16L402.789 380.177L405.506 384.534L408.222 388.187L410.939 391.22L416.372 397.058L420.447 401.424L421.805 402.605L423.164 403.574L425.88 404.926L431.314 406.715L435.389 407.85L439.463 408.5L447.613 409.453L455.763 409.829L469.346 410.09L474.779 410.111" stroke="#EFEFEF" stroke-linecap="square"/>
</g>
<mask id="mask12_230_13358" style="mask-type:luminance" maskUnits="userSpaceOnUse" x="76" y="55" width="477" height="356">
<path d="M552.957 55.2959H76.7969V410.112H552.957V55.2959Z" fill="white"/>
</mask>
<g mask="url(#mask12_230_13358)">
<path d="M237.078 410.11L247.1 409.946L259.985 409.295L262.848 408.79L265.712 407.949L268.575 406.768L275.734 403.491L278.597 402.64L284.324 401.129L287.187 400.124L290.051 398.767L291.482 397.86L292.914 396.752L295.777 393.936L302.936 385.591L305.799 382.109L308.662 378.073L311.526 373.411L314.389 368.284L317.253 362.495L318.684 359.164L321.548 351.364L324.411 342.3L337.296 299.117L344.455 272.689L357.34 224.819L360.203 213.595L361.635 208.632L363.067 204.457L364.498 201.284L365.93 199.222L367.362 198.252L368.793 198.226L370.225 198.892L375.952 203.087L381.678 206.012L383.11 207.074L384.542 208.377L385.974 209.961L387.405 211.894L388.837 214.268L390.269 217.164L391.7 220.619L394.564 228.978L401.722 252.674L407.449 272.007L411.744 287.517L418.902 314.106L421.766 323.623L424.629 332.189L427.492 339.607L440.378 369.435L443.241 375.005L446.104 379.686L448.968 383.803L451.831 387.548L454.695 390.901L457.558 393.854L460.421 396.456L463.285 398.722L467.58 401.682L471.875 404.44L474.738 405.994L477.601 407.133L480.465 407.904L484.76 408.694L490.487 409.388L494.782 409.612L521.984 410.11" fill="#EFEFEF" fill-opacity="0.4"/>
<path d="M237.078 410.11L247.1 409.946L259.985 409.295L262.848 408.79L265.712 407.949L268.575 406.768L275.734 403.491L278.597 402.64L284.324 401.129L287.187 400.124L290.051 398.767L291.482 397.86L292.914 396.752L295.777 393.936L302.936 385.591L305.799 382.109L308.662 378.073L311.526 373.411L314.389 368.284L317.253 362.495L318.684 359.164L321.548 351.364L324.411 342.3L337.296 299.117L344.455 272.689L357.34 224.819L360.203 213.595L361.635 208.632L363.067 204.457L364.498 201.284L365.93 199.222L367.362 198.252L368.793 198.226L370.225 198.892L375.952 203.087L381.678 206.012L383.11 207.074L384.542 208.377L385.974 209.961L387.405 211.894L388.837 214.268L390.269 217.164L391.7 220.619L394.564 228.978L401.722 252.674L407.449 272.007L411.744 287.517L418.902 314.106L421.766 323.623L424.629 332.189L427.492 339.607L440.378 369.435L443.241 375.005L446.104 379.686L448.968 383.803L451.831 387.548L454.695 390.901L457.558 393.854L460.421 396.456L463.285 398.722L467.58 401.682L471.875 404.44L474.738 405.994L477.601 407.133L480.465 407.904L484.76 408.694L490.487 409.388L494.782 409.612L521.984 410.11" stroke="#EFEFEF" stroke-linecap="square"/>
</g>
<mask id="mask13_230_13358" style="mask-type:luminance" maskUnits="userSpaceOnUse" x="76" y="55" width="477" height="356">
<path d="M552.957 55.2959H76.7969V410.112H552.957V55.2959Z" fill="white"/>
</mask>
<g mask="url(#mask13_230_13358)">
<path d="M183.586 410.111L224.29 409.906L230.457 409.667L234.158 409.513L239.092 408.95L246.492 407.803L248.959 407.303L256.36 405.451L260.06 404.776L262.527 404.001L264.994 402.763L268.695 400.319L271.162 398.501L273.629 396.271L276.095 393.929L281.029 389.675L282.263 388.036L283.496 385.935L285.963 380.561L290.897 368.941L293.364 363.365L295.831 356.987L297.064 353.256L298.298 348.954L299.531 343.883L300.765 337.937L303.232 323.932L310.632 278.46L313.099 261.324L315.566 242.339L319.267 210.914L327.901 134.241L329.134 125.155L330.368 117.273L331.601 110.761L332.835 105.652L334.068 101.862L335.302 99.281L336.535 97.8385L337.769 97.4697L339.002 97.9776L341.469 99.7535L342.702 100.022L345.169 99.6218L346.403 100.417L347.636 102.867L348.87 107.175L350.103 113.055L352.57 127.63L355.037 144.353L357.504 163.957L359.971 187.694L363.671 225.965L366.138 248.237L369.838 277.793L376.006 324.102L378.473 340.977L380.94 354.468L383.407 365.606L387.107 380.918L389.574 389.343L390.807 392.659L392.041 395.361L393.274 397.531L394.508 399.297L396.975 402.146L400.675 405.785L403.142 407.601L404.375 408.221L406.842 408.963L410.543 409.414L416.71 409.808L429.045 410.111" fill="#EFEFEF" fill-opacity="0.4"/>
<path d="M183.586 410.111L224.29 409.906L230.457 409.667L234.158 409.513L239.092 408.95L246.492 407.803L248.959 407.303L256.36 405.451L260.06 404.776L262.527 404.001L264.994 402.763L268.695 400.319L271.162 398.501L273.629 396.271L276.095 393.929L281.029 389.675L282.263 388.036L283.496 385.935L285.963 380.561L290.897 368.941L293.364 363.365L295.831 356.987L297.064 353.256L298.298 348.954L299.531 343.883L300.765 337.937L303.232 323.932L310.632 278.46L313.099 261.324L315.566 242.339L319.267 210.914L327.901 134.241L329.134 125.155L330.368 117.273L331.601 110.761L332.835 105.652L334.068 101.862L335.302 99.281L336.535 97.8385L337.769 97.4697L339.002 97.9776L341.469 99.7535L342.702 100.022L345.169 99.6218L346.403 100.417L347.636 102.867L348.87 107.175L350.103 113.055L352.57 127.63L355.037 144.353L357.504 163.957L359.971 187.694L363.671 225.965L366.138 248.237L369.838 277.793L376.006 324.102L378.473 340.977L380.94 354.468L383.407 365.606L387.107 380.918L389.574 389.343L390.807 392.659L392.041 395.361L393.274 397.531L394.508 399.297L396.975 402.146L400.675 405.785L403.142 407.601L404.375 408.221L406.842 408.963L410.543 409.414L416.71 409.808L429.045 410.111" stroke="#EFEFEF" stroke-linecap="square"/>
</g>
<mask id="mask14_230_13358" style="mask-type:luminance" maskUnits="userSpaceOnUse" x="76" y="55" width="477" height="356">
<path d="M552.957 55.2959H76.7969V410.112H552.957V55.2959Z" fill="white"/>
</mask>
<g mask="url(#mask14_230_13358)">
<path d="M98.4375 410.111L161.132 409.916L164.432 409.415L167.731 408.558L172.681 406.992L174.331 406.355L175.98 405.557L177.63 404.518L179.28 403.19L180.93 401.564L182.58 399.656L184.23 397.48L185.88 395.037L189.179 389.341L192.479 382.738L195.779 375.308L199.078 366.687L205.678 348.374L208.978 336.856L210.627 331.001L212.277 325.767L215.577 317.208L217.227 312.956L218.877 308.014L220.526 302.154L222.176 295.383L223.826 287.781L227.126 270.519L230.426 251.587L233.725 231.323L238.675 198.334L241.975 176.48L243.624 166.577L245.274 157.832L248.574 142.828L250.224 135.929L251.874 129.985L253.523 126.016L255.173 124.738L256.823 126.095L258.473 129.311L265.072 145.638L266.722 151.518L268.372 159.493L270.022 169.622L273.322 194.045L278.271 231.292L284.871 278.01L288.17 298.127L291.47 315.608L294.77 331.833L296.42 339.341L298.069 346.144L299.719 352.13L303.019 362.191L306.319 370.831L307.969 374.475L309.618 377.481L312.918 382.182L316.218 386.89L319.518 391.547L322.817 395.251L327.767 399.987L329.417 401.325L331.066 402.434L334.366 404.029L340.966 406.52L344.265 407.277L362.414 409.375L369.013 409.656L390.461 410.112L410.259 410.008L416.859 409.956L426.758 410.11" fill="#7EB0D5" fill-opacity="0.4"/>
<path d="M98.4375 410.111L161.132 409.916L164.432 409.415L167.731 408.558L172.681 406.992L174.331 406.355L175.98 405.557L177.63 404.518L179.28 403.19L180.93 401.564L182.58 399.656L184.23 397.48L185.88 395.037L189.179 389.341L192.479 382.738L195.779 375.308L199.078 366.687L205.678 348.374L208.978 336.856L210.627 331.001L212.277 325.767L215.577 317.208L217.227 312.956L218.877 308.014L220.526 302.154L222.176 295.383L223.826 287.781L227.126 270.519L230.426 251.587L233.725 231.323L238.675 198.334L241.975 176.48L243.624 166.577L245.274 157.832L248.574 142.828L250.224 135.929L251.874 129.985L253.523 126.016L255.173 124.738L256.823 126.095L258.473 129.311L265.072 145.638L266.722 151.518L268.372 159.493L270.022 169.622L273.322 194.045L278.271 231.292L284.871 278.01L288.17 298.127L291.47 315.608L294.77 331.833L296.42 339.341L298.069 346.144L299.719 352.13L303.019 362.191L306.319 370.831L307.969 374.475L309.618 377.481L312.918 382.182L316.218 386.89L319.518 391.547L322.817 395.251L327.767 399.987L329.417 401.325L331.066 402.434L334.366 404.029L340.966 406.52L344.265 407.277L362.414 409.375L369.013 409.656L390.461 410.112L410.259 410.008L416.859 409.956L426.758 410.11" stroke="#7EB0D5" stroke-linecap="square"/>
</g>
<path d="M535.061 411.061C535.646 410.475 535.646 409.525 535.061 408.939L525.515 399.393C524.929 398.808 523.979 398.808 523.393 399.393C522.808 399.979 522.808 400.929 523.393 401.515L531.879 410L523.393 418.485C522.808 419.071 522.808 420.021 523.393 420.607C523.979 421.192 524.929 421.192 525.515 420.607L535.061 411.061ZM79 411.5H534V408.5H79V411.5Z" fill="black"/>
</g>
<defs>
<clipPath id="clip0_230_13358">
<rect width="614.4" height="460.8" fill="white"/>
</clipPath>
</defs>
</svg>
