<svg width="615" height="461" viewBox="0 0 615 461" fill="none" xmlns="http://www.w3.org/2000/svg">
<g clip-path="url(#clip0_230_12558)">
<mask id="mask0_230_12558" style="mask-type:luminance" maskUnits="userSpaceOnUse" x="76" y="55" width="477" height="356">
<path d="M552.957 55.2959H76.7969V410.112H552.957V55.2959Z" fill="white"/>
</mask>
<g mask="url(#mask0_230_12558)">
<path d="M354.875 410.111L367.737 409.945L374.972 409.29L377.384 408.838L379.795 408.469L380.599 408.155L381.403 407.644L382.207 406.837L383.011 405.648L386.226 399.615L387.834 398.315L388.638 397.581L389.442 396.362L390.246 394.606L391.853 390.062L393.461 384.52L395.069 377.63L396.677 369.463L398.284 358.911L399.892 345.513L403.108 315.247L404.715 298.426L406.323 278.813L409.539 232.593L411.146 207.742L415.166 139.197L416.774 117.721L418.381 100.803L419.185 95.0132L419.989 91.5494L420.793 90.2031L421.597 90.4944L422.401 92.2212L423.205 95.6552L424.009 101.22L424.812 109.075L425.616 119.07L427.224 144.69L430.44 203.111L435.263 275.476L436.871 292.569L438.478 309.122L440.89 335.563L442.498 349.951L444.105 361.325L445.713 370.227L448.125 381.413L449.733 387.434L451.34 391.932L452.948 395.556L454.556 398.445L456.968 402.154L458.575 404.14L460.183 405.529L461.791 406.432L465.81 407.764L468.222 409.159L469.83 409.623L472.241 409.834L474.653 409.83L477.868 409.718L482.692 409.936L485.907 410.106L491.534 410.038L494.75 409.932L502.789 410.112L514.847 410.111" fill="#EFEFEF" fill-opacity="0.4"/>
<path d="M354.875 410.111L367.737 409.945L374.972 409.29L377.384 408.838L379.795 408.469L380.599 408.155L381.403 407.644L382.207 406.837L383.011 405.648L386.226 399.615L387.834 398.315L388.638 397.581L389.442 396.362L390.246 394.606L391.853 390.062L393.461 384.52L395.069 377.63L396.677 369.463L398.284 358.911L399.892 345.513L403.108 315.247L404.715 298.426L406.323 278.813L409.539 232.593L411.146 207.742L415.166 139.197L416.774 117.721L418.381 100.803L419.185 95.0132L419.989 91.5494L420.793 90.2031L421.597 90.4944L422.401 92.2212L423.205 95.6552L424.009 101.22L424.812 109.075L425.616 119.07L427.224 144.69L430.44 203.111L435.263 275.476L436.871 292.569L438.478 309.122L440.89 335.563L442.498 349.951L444.105 361.325L445.713 370.227L448.125 381.413L449.733 387.434L451.34 391.932L452.948 395.556L454.556 398.445L456.968 402.154L458.575 404.14L460.183 405.529L461.791 406.432L465.81 407.764L468.222 409.159L469.83 409.623L472.241 409.834L474.653 409.83L477.868 409.718L482.692 409.936L485.907 410.106L491.534 410.038L494.75 409.932L502.789 410.112L514.847 410.111" stroke="#EFEFEF" stroke-linecap="square"/>
</g>
<mask id="mask1_230_12558" style="mask-type:luminance" maskUnits="userSpaceOnUse" x="76" y="55" width="477" height="356">
<path d="M552.957 55.2959H76.7969V410.112H552.957V55.2959Z" fill="white"/>
</mask>
<g mask="url(#mask1_230_12558)">
<path d="M345.93 410.111L351.52 409.965L369.09 408.633L370.687 407.91L372.284 406.658L377.076 402.306L377.874 401.214L379.472 398.251L381.868 392.558L384.263 385.984L386.659 378.378L388.257 372.126L389.854 363.763L391.451 353.266L397.041 313.743L399.437 298.011L401.034 285.694L403.43 264.105L405.826 241.855L407.423 228.992L409.819 212.932L412.215 197.006L413.812 185.636L414.611 180.772L415.41 177.151L416.208 175.066L417.007 174.5L417.806 175.162L418.604 176.613L421 182.451L422.597 187.548L424.194 194.771L425.792 203.917L427.389 214.926L429.785 234.913L432.181 254.408L435.375 277.571L437.771 298.057L440.167 318.823L441.764 330.743L443.361 340.536L446.556 357.513L448.952 369.007L452.146 382.877L453.743 388.499L455.341 392.481L457.736 397.243L459.334 399.997L460.931 402.057L464.924 406.249L466.521 407.464L468.119 408.133L476.105 409.824L480.896 409.995L493.674 410.018L504.056 410.109L504.855 410.111" fill="#EFEFEF" fill-opacity="0.4"/>
<path d="M345.93 410.111L351.52 409.965L369.09 408.633L370.687 407.91L372.284 406.658L377.076 402.306L377.874 401.214L379.472 398.251L381.868 392.558L384.263 385.984L386.659 378.378L388.257 372.126L389.854 363.763L391.451 353.266L397.041 313.743L399.437 298.011L401.034 285.694L403.43 264.105L405.826 241.855L407.423 228.992L409.819 212.932L412.215 197.006L413.812 185.636L414.611 180.772L415.41 177.151L416.208 175.066L417.007 174.5L417.806 175.162L418.604 176.613L421 182.451L422.597 187.548L424.194 194.771L425.792 203.917L427.389 214.926L429.785 234.913L432.181 254.408L435.375 277.571L437.771 298.057L440.167 318.823L441.764 330.743L443.361 340.536L446.556 357.513L448.952 369.007L452.146 382.877L453.743 388.499L455.341 392.481L457.736 397.243L459.334 399.997L460.931 402.057L464.924 406.249L466.521 407.464L468.119 408.133L476.105 409.824L480.896 409.995L493.674 410.018L504.056 410.109L504.855 410.111" stroke="#EFEFEF" stroke-linecap="square"/>
</g>
<mask id="mask2_230_12558" style="mask-type:luminance" maskUnits="userSpaceOnUse" x="76" y="55" width="477" height="356">
<path d="M552.957 55.2959H76.7969V410.112H552.957V55.2959Z" fill="white"/>
</mask>
<g mask="url(#mask2_230_12558)">
<path d="M349.938 410.111L362.572 409.97L367.626 409.638L370.995 409.171L373.522 408.54L376.049 407.521L377.733 406.615L379.418 405.395L380.26 404.546L381.102 403.444L381.945 402.023L383.629 398.137L385.314 393.16L388.683 381.929L390.368 375.163L392.052 366.912L394.579 352.293L397.948 330.915L399.633 318.258L403.002 288.901L409.74 231.408L410.583 225.669L411.425 220.962L412.267 217.315L413.11 214.576L414.794 210.74L415.637 209.255L416.479 208.099L417.321 207.509L418.163 207.73L419.006 208.865L419.848 210.804L422.375 218.635L424.902 226.475L426.586 233.073L428.271 241.996L431.64 262.361L432.482 266.256L434.167 272.065L435.852 277.202L437.536 283.476L442.59 303.685L447.644 323.67L458.594 369.93L461.121 378.034L463.647 385.317L465.332 389.241L467.017 392.229L469.544 395.697L476.282 404.13L477.966 405.324L480.493 406.462L483.02 407.374L485.547 407.936L489.759 408.821L493.128 409.531L495.655 409.708L502.393 409.905L508.289 410.03L517.554 410.111" fill="#EFEFEF" fill-opacity="0.4"/>
<path d="M349.938 410.111L362.572 409.97L367.626 409.638L370.995 409.171L373.522 408.54L376.049 407.521L377.733 406.615L379.418 405.395L380.26 404.546L381.102 403.444L381.945 402.023L383.629 398.137L385.314 393.16L388.683 381.929L390.368 375.163L392.052 366.912L394.579 352.293L397.948 330.915L399.633 318.258L403.002 288.901L409.74 231.408L410.583 225.669L411.425 220.962L412.267 217.315L413.11 214.576L414.794 210.74L415.637 209.255L416.479 208.099L417.321 207.509L418.163 207.73L419.006 208.865L419.848 210.804L422.375 218.635L424.902 226.475L426.586 233.073L428.271 241.996L431.64 262.361L432.482 266.256L434.167 272.065L435.852 277.202L437.536 283.476L442.59 303.685L447.644 323.67L458.594 369.93L461.121 378.034L463.647 385.317L465.332 389.241L467.017 392.229L469.544 395.697L476.282 404.13L477.966 405.324L480.493 406.462L483.02 407.374L485.547 407.936L489.759 408.821L493.128 409.531L495.655 409.708L502.393 409.905L508.289 410.03L517.554 410.111" stroke="#EFEFEF" stroke-linecap="square"/>
</g>
<mask id="mask3_230_12558" style="mask-type:luminance" maskUnits="userSpaceOnUse" x="76" y="55" width="477" height="356">
<path d="M552.957 55.2959H76.7969V410.112H552.957V55.2959Z" fill="white"/>
</mask>
<g mask="url(#mask3_230_12558)">
<path d="M342.156 410.111L357.355 409.98L364.954 408.998L369.176 408.009L370.864 407.866L374.242 407.309L375.93 407.275L376.775 407.081L377.619 406.639L379.308 405.17L380.997 403.712L382.685 402.367L383.53 401.288L384.374 399.68L386.063 395.038L389.44 384.488L391.129 377.688L392.818 369.022L395.351 354.205L397.039 341.331L398.728 325.554L401.261 299.073L403.794 270.697L405.483 247.347L413.926 110.734L414.771 99.9821L415.615 91.3891L416.459 85.3044L417.304 81.963L418.148 81.4199L418.992 83.5767L419.837 88.2751L420.681 95.4255L421.526 104.984L423.214 130.371L425.747 177.479L427.436 207.682L429.125 233.78L434.191 304.649L436.724 334.14L438.413 350.055L440.101 361.939L441.79 371.627L443.479 379.063L445.167 385.104L447.701 392.938L449.389 397.085L451.078 400.211L452.767 402.472L456.988 406.562L458.677 407.628L460.366 408.351L462.055 408.74L465.432 409.158L468.809 409.819L481.475 410.112L510.183 410.111" fill="#EFEFEF" fill-opacity="0.4"/>
<path d="M342.156 410.111L357.355 409.98L364.954 408.998L369.176 408.009L370.864 407.866L374.242 407.309L375.93 407.275L376.775 407.081L377.619 406.639L379.308 405.17L380.997 403.712L382.685 402.367L383.53 401.288L384.374 399.68L386.063 395.038L389.44 384.488L391.129 377.688L392.818 369.022L395.351 354.205L397.039 341.331L398.728 325.554L401.261 299.073L403.794 270.697L405.483 247.347L413.926 110.734L414.771 99.9821L415.615 91.3891L416.459 85.3044L417.304 81.963L418.148 81.4199L418.992 83.5767L419.837 88.2751L420.681 95.4255L421.526 104.984L423.214 130.371L425.747 177.479L427.436 207.682L429.125 233.78L434.191 304.649L436.724 334.14L438.413 350.055L440.101 361.939L441.79 371.627L443.479 379.063L445.167 385.104L447.701 392.938L449.389 397.085L451.078 400.211L452.767 402.472L456.988 406.562L458.677 407.628L460.366 408.351L462.055 408.74L465.432 409.158L468.809 409.819L481.475 410.112L510.183 410.111" stroke="#EFEFEF" stroke-linecap="square"/>
</g>
<mask id="mask4_230_12558" style="mask-type:luminance" maskUnits="userSpaceOnUse" x="76" y="55" width="477" height="356">
<path d="M552.957 55.2959H76.7969V410.112H552.957V55.2959Z" fill="white"/>
</mask>
<g mask="url(#mask4_230_12558)">
<path d="M345.602 410.111L352.442 409.968L364.601 409.089L367.641 408.496L371.441 407.808L372.961 407.474L374.481 406.825L376.001 405.727L383.601 398.615L385.121 396.236L386.641 392.998L388.161 388.985L389.681 384.305L391.201 378.922L392.721 372.71L395.761 358.486L397.281 351.715L398.801 346.343L399.561 344.436L400.321 343.123L401.081 342.402L401.841 342.223L402.601 342.505L403.361 343.154L404.881 345.205L410.961 355.177L413.241 358.097L414.761 359.528L415.521 359.998L416.281 360.291L417.041 360.416L417.801 360.383L418.561 360.189L419.321 359.809L420.081 359.193L420.841 358.282L421.601 357.019L422.361 355.371L423.881 350.926L425.401 345.13L426.921 338.024L428.441 329.095L429.961 317.478L431.481 302.504L433.001 283.968L434.521 262.136L440.601 167.547L442.121 150.534L442.881 144.148L443.641 139.36L444.401 136.247L445.161 134.85L445.921 135.175L446.681 137.198L447.441 140.852L448.201 146.025L449.721 160.259L451.241 178.41L453.521 210.219L460.361 310.994L461.881 329.562L463.401 345.235L464.921 358.04L466.441 368.425L467.961 376.883L469.481 383.767L471.001 389.33L472.521 393.818L474.041 397.478L475.561 400.485L477.081 402.912L478.601 404.759L480.121 406.06L482.401 407.365L485.441 408.696L487.721 409.371L490.761 409.869L493.801 410.072L496.841 410.109" fill="#EFEFEF" fill-opacity="0.4"/>
<path d="M345.602 410.111L352.442 409.968L364.601 409.089L367.641 408.496L371.441 407.808L372.961 407.474L374.481 406.825L376.001 405.727L383.601 398.615L385.121 396.236L386.641 392.998L388.161 388.985L389.681 384.305L391.201 378.922L392.721 372.71L395.761 358.486L397.281 351.715L398.801 346.343L399.561 344.436L400.321 343.123L401.081 342.402L401.841 342.223L402.601 342.505L403.361 343.154L404.881 345.205L410.961 355.177L413.241 358.097L414.761 359.528L415.521 359.998L416.281 360.291L417.041 360.416L417.801 360.383L418.561 360.189L419.321 359.809L420.081 359.193L420.841 358.282L421.601 357.019L422.361 355.371L423.881 350.926L425.401 345.13L426.921 338.024L428.441 329.095L429.961 317.478L431.481 302.504L433.001 283.968L434.521 262.136L440.601 167.547L442.121 150.534L442.881 144.148L443.641 139.36L444.401 136.247L445.161 134.85L445.921 135.175L446.681 137.198L447.441 140.852L448.201 146.025L449.721 160.259L451.241 178.41L453.521 210.219L460.361 310.994L461.881 329.562L463.401 345.235L464.921 358.04L466.441 368.425L467.961 376.883L469.481 383.767L471.001 389.33L472.521 393.818L474.041 397.478L475.561 400.485L477.081 402.912L478.601 404.759L480.121 406.06L482.401 407.365L485.441 408.696L487.721 409.371L490.761 409.869L493.801 410.072L496.841 410.109" stroke="#EFEFEF" stroke-linecap="square"/>
</g>
<mask id="mask5_230_12558" style="mask-type:luminance" maskUnits="userSpaceOnUse" x="76" y="55" width="477" height="356">
<path d="M552.957 55.2959H76.7969V410.112H552.957V55.2959Z" fill="white"/>
</mask>
<g mask="url(#mask5_230_12558)">
<path d="M359.414 410.111L366.325 409.989L369.78 409.7L373.235 409.425L378.418 409.258L381.01 408.942L382.738 408.509L384.465 407.741L386.193 406.594L387.921 405.137L389.648 403.292L391.376 400.799L393.104 397.535L395.695 391.596L400.878 378.825L402.606 373.593L407.789 355.966L409.516 348.587L412.108 335.696L413.836 325.912L419.882 288.74L425.929 257.367L428.521 244.43L431.976 228.671L433.704 222.555L435.431 217.97L438.023 211.972L438.887 210.434L439.751 209.429L440.614 209.068L441.478 209.384L442.342 210.371L443.206 212.044L444.07 214.44L444.934 217.557L446.661 225.43L450.98 246.783L452.708 257.492L455.3 277.059L460.483 316.808L463.074 335.335L464.802 346.11L467.393 359.787L469.985 371.551L471.712 378.247L473.44 383.968L475.168 388.518L476.895 391.859L482.078 399.953L483.806 402.268L485.534 404.061L488.125 406.14L489.853 407.199L491.581 407.927L494.172 408.623L498.491 409.51L501.947 409.812L506.266 410.012L514.904 410.044L520.087 410.086L527.862 410.092L531.317 410.111" fill="#EFEFEF" fill-opacity="0.4"/>
<path d="M359.414 410.111L366.325 409.989L369.78 409.7L373.235 409.425L378.418 409.258L381.01 408.942L382.738 408.509L384.465 407.741L386.193 406.594L387.921 405.137L389.648 403.292L391.376 400.799L393.104 397.535L395.695 391.596L400.878 378.825L402.606 373.593L407.789 355.966L409.516 348.587L412.108 335.696L413.836 325.912L419.882 288.74L425.929 257.367L428.521 244.43L431.976 228.671L433.704 222.555L435.431 217.97L438.023 211.972L438.887 210.434L439.751 209.429L440.614 209.068L441.478 209.384L442.342 210.371L443.206 212.044L444.07 214.44L444.934 217.557L446.661 225.43L450.98 246.783L452.708 257.492L455.3 277.059L460.483 316.808L463.074 335.335L464.802 346.11L467.393 359.787L469.985 371.551L471.712 378.247L473.44 383.968L475.168 388.518L476.895 391.859L482.078 399.953L483.806 402.268L485.534 404.061L488.125 406.14L489.853 407.199L491.581 407.927L494.172 408.623L498.491 409.51L501.947 409.812L506.266 410.012L514.904 410.044L520.087 410.086L527.862 410.092L531.317 410.111" stroke="#EFEFEF" stroke-linecap="square"/>
</g>
<mask id="mask6_230_12558" style="mask-type:luminance" maskUnits="userSpaceOnUse" x="76" y="55" width="477" height="356">
<path d="M552.957 55.2959H76.7969V410.112H552.957V55.2959Z" fill="white"/>
</mask>
<g mask="url(#mask6_230_12558)">
<path d="M337.742 410.111L343.554 409.968L346.875 409.583L349.366 409.068L351.857 408.2L353.518 407.282L355.179 405.939L356.839 404.043L358.5 401.442L360.16 398.195L363.482 390.899L365.142 386.209L366.803 379.922L369.294 369.992L370.954 364.975L372.615 360.446L374.275 355.097L378.427 340.37L380.088 332.42L382.578 317.121L385.069 300.304L386.73 287.014L389.221 264.035L395.863 198.935L397.524 187.316L398.354 182.93L399.185 179.487L400.015 176.918L400.845 175.091L401.675 173.804L402.506 172.85L403.336 172.135L404.166 171.775L404.997 172.077L405.827 173.395L406.657 175.958L407.488 179.771L409.148 190.254L411.639 209.341L414.13 231.381L417.451 261.92L424.924 321.906L429.075 357.331L430.736 369.261L432.397 378.885L434.057 386.49L435.718 392.454L437.378 397.236L439.039 401.021L439.869 402.484L440.7 403.626L441.53 404.452L442.36 405.009L444.021 405.665L446.512 406.647L449.833 408.15L451.494 408.487L456.475 408.944L459.797 409.438L464.778 409.704L470.591 409.721L478.894 409.946L502.972 410.111" fill="#EFEFEF" fill-opacity="0.4"/>
<path d="M337.742 410.111L343.554 409.968L346.875 409.583L349.366 409.068L351.857 408.2L353.518 407.282L355.179 405.939L356.839 404.043L358.5 401.442L360.16 398.195L363.482 390.899L365.142 386.209L366.803 379.922L369.294 369.992L370.954 364.975L372.615 360.446L374.275 355.097L378.427 340.37L380.088 332.42L382.578 317.121L385.069 300.304L386.73 287.014L389.221 264.035L395.863 198.935L397.524 187.316L398.354 182.93L399.185 179.487L400.015 176.918L400.845 175.091L401.675 173.804L402.506 172.85L403.336 172.135L404.166 171.775L404.997 172.077L405.827 173.395L406.657 175.958L407.488 179.771L409.148 190.254L411.639 209.341L414.13 231.381L417.451 261.92L424.924 321.906L429.075 357.331L430.736 369.261L432.397 378.885L434.057 386.49L435.718 392.454L437.378 397.236L439.039 401.021L439.869 402.484L440.7 403.626L441.53 404.452L442.36 405.009L444.021 405.665L446.512 406.647L449.833 408.15L451.494 408.487L456.475 408.944L459.797 409.438L464.778 409.704L470.591 409.721L478.894 409.946L502.972 410.111" stroke="#EFEFEF" stroke-linecap="square"/>
</g>
<mask id="mask7_230_12558" style="mask-type:luminance" maskUnits="userSpaceOnUse" x="76" y="55" width="477" height="356">
<path d="M552.957 55.2959H76.7969V410.112H552.957V55.2959Z" fill="white"/>
</mask>
<g mask="url(#mask7_230_12558)">
<path d="M351.078 410.111L363.306 409.959L370.948 409.424L375.533 409.232L377.061 408.812L378.59 408.024L380.118 406.919L382.411 404.834L386.232 401.213L388.525 399.272L390.053 397.347L391.581 394.434L393.11 390.501L396.167 381.067L397.695 375.768L399.223 369.232L400.752 361.195L402.28 351.733L403.809 340.431L405.337 326.977L409.922 283.679L412.215 265.501L414.508 250.123L416.8 236.921L419.857 221.351L422.914 205.964L425.207 193.752L426.735 187.768L427.499 185.709L428.264 184.149L429.028 182.997L429.792 182.257L430.556 182.038L431.32 182.49L432.085 183.734L432.849 185.835L433.613 188.809L434.377 192.655L435.906 202.841L438.198 222.366L445.076 283.376L447.369 300.504L452.718 337.19L454.247 345.932L455.775 353.112L457.304 358.634L460.36 368.618L464.182 382.565L465.71 386.578L468.767 392.859L471.059 397.094L473.352 400.371L476.409 404.06L477.937 405.476L479.466 406.543L480.994 407.327L483.287 408.151L485.579 408.711L490.165 409.425L493.222 409.608L497.043 409.873L500.864 410.093L503.156 410.111" fill="#EFEFEF" fill-opacity="0.4"/>
<path d="M351.078 410.111L363.306 409.959L370.948 409.424L375.533 409.232L377.061 408.812L378.59 408.024L380.118 406.919L382.411 404.834L386.232 401.213L388.525 399.272L390.053 397.347L391.581 394.434L393.11 390.501L396.167 381.067L397.695 375.768L399.223 369.232L400.752 361.195L402.28 351.733L403.809 340.431L405.337 326.977L409.922 283.679L412.215 265.501L414.508 250.123L416.8 236.921L419.857 221.351L422.914 205.964L425.207 193.752L426.735 187.768L427.499 185.709L428.264 184.149L429.028 182.997L429.792 182.257L430.556 182.038L431.32 182.49L432.085 183.734L432.849 185.835L433.613 188.809L434.377 192.655L435.906 202.841L438.198 222.366L445.076 283.376L447.369 300.504L452.718 337.19L454.247 345.932L455.775 353.112L457.304 358.634L460.36 368.618L464.182 382.565L465.71 386.578L468.767 392.859L471.059 397.094L473.352 400.371L476.409 404.06L477.937 405.476L479.466 406.543L480.994 407.327L483.287 408.151L485.579 408.711L490.165 409.425L493.222 409.608L497.043 409.873L500.864 410.093L503.156 410.111" stroke="#EFEFEF" stroke-linecap="square"/>
</g>
<mask id="mask8_230_12558" style="mask-type:luminance" maskUnits="userSpaceOnUse" x="76" y="55" width="477" height="356">
<path d="M552.957 55.2959H76.7969V410.112H552.957V55.2959Z" fill="white"/>
</mask>
<g mask="url(#mask8_230_12558)">
<path d="M353.984 410.111L359.457 409.982L368.056 409.41L370.401 408.984L371.965 408.495L373.528 407.577L374.31 406.79L375.092 405.633L375.874 403.948L376.655 401.545L377.437 398.206L378.219 393.688L379.001 387.736L379.783 380.115L380.564 370.66L382.128 346.28L384.473 300.761L386.037 270.772L387.6 246.768L388.382 238.225L389.164 232.162L389.945 228.263L390.727 225.899L392.291 222.671L393.072 220.558L394.636 214.564L396.2 208.5L396.981 206.335L399.327 201.45L400.108 198.951L401.672 191.724L404.017 179.782L404.799 176.982L405.581 175.14L406.362 174.226L407.144 174.062L407.926 174.427L408.708 175.191L409.489 176.415L410.271 178.371L411.053 181.448L411.835 186L412.617 192.179L414.18 208.572L417.307 244.586L419.652 267.946L426.688 331.834L428.252 342.605L429.815 350.932L432.161 361.575L433.724 367.185L435.288 371.027L436.851 373.689L443.105 382.833L445.451 385.314L450.923 391.177L452.486 393.173L454.832 396.351L456.395 397.822L459.522 400.151L462.649 403.21L464.995 405.402L466.558 406.558L468.122 407.218L470.467 407.507L472.812 407.868L479.848 409.114L486.102 409.637L490.793 409.795L496.265 409.942L500.174 410.056L507.992 410.107L509.555 410.111" fill="#EFEFEF" fill-opacity="0.4"/>
<path d="M353.984 410.111L359.457 409.982L368.056 409.41L370.401 408.984L371.965 408.495L373.528 407.577L374.31 406.79L375.092 405.633L375.874 403.948L376.655 401.545L377.437 398.206L378.219 393.688L379.001 387.736L379.783 380.115L380.564 370.66L382.128 346.28L384.473 300.761L386.037 270.772L387.6 246.768L388.382 238.225L389.164 232.162L389.945 228.263L390.727 225.899L392.291 222.671L393.072 220.558L394.636 214.564L396.2 208.5L396.981 206.335L399.327 201.45L400.108 198.951L401.672 191.724L404.017 179.782L404.799 176.982L405.581 175.14L406.362 174.226L407.144 174.062L407.926 174.427L408.708 175.191L409.489 176.415L410.271 178.371L411.053 181.448L411.835 186L412.617 192.179L414.18 208.572L417.307 244.586L419.652 267.946L426.688 331.834L428.252 342.605L429.815 350.932L432.161 361.575L433.724 367.185L435.288 371.027L436.851 373.689L443.105 382.833L445.451 385.314L450.923 391.177L452.486 393.173L454.832 396.351L456.395 397.822L459.522 400.151L462.649 403.21L464.995 405.402L466.558 406.558L468.122 407.218L470.467 407.507L472.812 407.868L479.848 409.114L486.102 409.637L490.793 409.795L496.265 409.942L500.174 410.056L507.992 410.107L509.555 410.111" stroke="#EFEFEF" stroke-linecap="square"/>
</g>
<mask id="mask9_230_12558" style="mask-type:luminance" maskUnits="userSpaceOnUse" x="76" y="55" width="477" height="356">
<path d="M552.957 55.2959H76.7969V410.112H552.957V55.2959Z" fill="white"/>
</mask>
<g mask="url(#mask9_230_12558)">
<path d="M357.906 410.11L363.332 409.975L373.408 409.373L375.734 409.067L377.284 408.625L378.834 407.743L380.384 406.293L381.934 404.276L383.485 401.541L385.035 397.754L386.585 392.725L388.135 386.288L389.685 378.175L392.011 363.5L394.336 347.311L396.661 328.897L398.987 308.175L403.637 264.943L405.187 252.785L406.738 242.383L412.938 205.761L413.713 202.479L414.489 200.194L415.264 198.937L416.039 198.586L416.814 198.918L417.589 199.692L419.139 201.877L420.689 204.54L422.24 207.812L423.79 211.767L425.34 216.467L426.89 222.483L428.44 230.479L429.991 240.354L433.866 266.631L436.966 284.769L442.392 315.893L446.268 337.849L448.593 348.973L450.918 358.718L453.244 367.098L457.894 382.357L459.444 386.582L460.995 390.124L462.545 393.07L464.095 395.533L466.42 398.65L471.846 405.154L473.396 406.434L474.946 407.123L484.248 409.557L487.348 409.849L491.224 409.888L496.649 409.941L504.4 410.034L512.151 410.111" fill="#EFEFEF" fill-opacity="0.4"/>
<path d="M357.906 410.11L363.332 409.975L373.408 409.373L375.734 409.067L377.284 408.625L378.834 407.743L380.384 406.293L381.934 404.276L383.485 401.541L385.035 397.754L386.585 392.725L388.135 386.288L389.685 378.175L392.011 363.5L394.336 347.311L396.661 328.897L398.987 308.175L403.637 264.943L405.187 252.785L406.738 242.383L412.938 205.761L413.713 202.479L414.489 200.194L415.264 198.937L416.039 198.586L416.814 198.918L417.589 199.692L419.139 201.877L420.689 204.54L422.24 207.812L423.79 211.767L425.34 216.467L426.89 222.483L428.44 230.479L429.991 240.354L433.866 266.631L436.966 284.769L442.392 315.893L446.268 337.849L448.593 348.973L450.918 358.718L453.244 367.098L457.894 382.357L459.444 386.582L460.995 390.124L462.545 393.07L464.095 395.533L466.42 398.65L471.846 405.154L473.396 406.434L474.946 407.123L484.248 409.557L487.348 409.849L491.224 409.888L496.649 409.941L504.4 410.034L512.151 410.111" stroke="#EFEFEF" stroke-linecap="square"/>
</g>
<mask id="mask10_230_12558" style="mask-type:luminance" maskUnits="userSpaceOnUse" x="76" y="55" width="477" height="356">
<path d="M552.957 55.2959H76.7969V410.112H552.957V55.2959Z" fill="white"/>
</mask>
<g mask="url(#mask10_230_12558)">
<path d="M346.75 410.111L351.719 409.971L355.859 409.743L358.343 409.33L362.484 409.31L366.624 408.473L369.937 408.5L374.077 407.632L377.39 406.539L379.046 406.264L379.874 405.912L380.702 405.275L384.014 401.816L385.671 400.98L386.499 400.581L387.327 400.012L388.155 399.177L388.983 398.034L390.639 395.026L393.952 388.069L395.608 384.09L396.436 381.472L398.092 374.415L399.748 365.597L402.233 350.536L408.029 311.441L409.686 296.899L411.342 278.866L413.826 247.552L415.482 226.75L417.138 209.498L420.451 177.493L424.591 131.776L427.076 99.8344L428.732 80.2966L429.56 74.3353L430.388 72.1924L431.216 74.5445L432.044 81.7493L432.872 93.4588L434.528 125.767L437.013 184.568L441.153 288.684L442.809 321.882L444.466 345.968L446.122 363.598L447.778 378.072L449.434 389.272L450.262 393.416L451.09 396.565L451.919 398.856L453.575 401.977L455.231 404.371L456.887 406.146L458.543 407.438L460.2 408.386L461.856 409.009L463.512 409.332L465.168 409.383L468.481 409.317L470.965 409.695L473.449 410.003L491.667 410.109L509.885 410.1L511.542 410.111" fill="#EFEFEF" fill-opacity="0.4"/>
<path d="M346.75 410.111L351.719 409.971L355.859 409.743L358.343 409.33L362.484 409.31L366.624 408.473L369.937 408.5L374.077 407.632L377.39 406.539L379.046 406.264L379.874 405.912L380.702 405.275L384.014 401.816L385.671 400.98L386.499 400.581L387.327 400.012L388.155 399.177L388.983 398.034L390.639 395.026L393.952 388.069L395.608 384.09L396.436 381.472L398.092 374.415L399.748 365.597L402.233 350.536L408.029 311.441L409.686 296.899L411.342 278.866L413.826 247.552L415.482 226.75L417.138 209.498L420.451 177.493L424.591 131.776L427.076 99.8344L428.732 80.2966L429.56 74.3353L430.388 72.1924L431.216 74.5445L432.044 81.7493L432.872 93.4588L434.528 125.767L437.013 184.568L441.153 288.684L442.809 321.882L444.466 345.968L446.122 363.598L447.778 378.072L449.434 389.272L450.262 393.416L451.09 396.565L451.919 398.856L453.575 401.977L455.231 404.371L456.887 406.146L458.543 407.438L460.2 408.386L461.856 409.009L463.512 409.332L465.168 409.383L468.481 409.317L470.965 409.695L473.449 410.003L491.667 410.109L509.885 410.1L511.542 410.111" stroke="#EFEFEF" stroke-linecap="square"/>
</g>
<mask id="mask11_230_12558" style="mask-type:luminance" maskUnits="userSpaceOnUse" x="76" y="55" width="477" height="356">
<path d="M552.957 55.2959H76.7969V410.112H552.957V55.2959Z" fill="white"/>
</mask>
<g mask="url(#mask11_230_12558)">
<path d="M351.945 410.11L356.267 409.99L369.953 408.743L373.554 407.801L377.876 407.378L379.317 406.618L380.757 405.453L385.079 401.322L386.52 399.614L387.96 397.455L390.121 393.576L393.723 386.597L395.163 383.354L396.604 379.339L398.045 374.174L399.485 367.743L401.646 356.38L405.968 331.327L408.129 318.016L409.569 307.895L411.73 289.786L414.612 264.962L416.052 255.4L417.493 248.186L421.094 232.683L424.696 214.978L426.136 209.644L427.577 205.493L429.018 202.167L430.458 199.367L431.899 197.289L432.619 196.728L433.339 196.639L434.06 197.159L434.78 198.432L435.5 200.576L436.221 203.639L437.661 212.154L440.542 231.415L444.864 256.487L447.025 272.794L450.627 302.565L453.508 326.735L454.948 337.216L456.389 345.951L461.431 372.032L462.872 378.714L464.312 384.105L465.753 388.349L467.914 393.393L470.795 398.986L472.956 402.572L474.397 404.46L475.837 405.889L477.278 406.957L479.439 408.13L481.6 408.974L483.761 409.477L486.642 409.69L495.285 410.111" fill="#EFEFEF" fill-opacity="0.4"/>
<path d="M351.945 410.11L356.267 409.99L369.953 408.743L373.554 407.801L377.876 407.378L379.317 406.618L380.757 405.453L385.079 401.322L386.52 399.614L387.96 397.455L390.121 393.576L393.723 386.597L395.163 383.354L396.604 379.339L398.045 374.174L399.485 367.743L401.646 356.38L405.968 331.327L408.129 318.016L409.569 307.895L411.73 289.786L414.612 264.962L416.052 255.4L417.493 248.186L421.094 232.683L424.696 214.978L426.136 209.644L427.577 205.493L429.018 202.167L430.458 199.367L431.899 197.289L432.619 196.728L433.339 196.639L434.06 197.159L434.78 198.432L435.5 200.576L436.221 203.639L437.661 212.154L440.542 231.415L444.864 256.487L447.025 272.794L450.627 302.565L453.508 326.735L454.948 337.216L456.389 345.951L461.431 372.032L462.872 378.714L464.312 384.105L465.753 388.349L467.914 393.393L470.795 398.986L472.956 402.572L474.397 404.46L475.837 405.889L477.278 406.957L479.439 408.13L481.6 408.974L483.761 409.477L486.642 409.69L495.285 410.111" stroke="#EFEFEF" stroke-linecap="square"/>
</g>
<mask id="mask12_230_12558" style="mask-type:luminance" maskUnits="userSpaceOnUse" x="76" y="55" width="477" height="356">
<path d="M552.957 55.2959H76.7969V410.112H552.957V55.2959Z" fill="white"/>
</mask>
<g mask="url(#mask12_230_12558)">
<path d="M357.133 410.111L361.683 409.983L365.476 409.892L369.268 409.948L376.094 409.406L380.645 408.696L384.437 407.606L387.471 407.177L388.988 406.584L391.263 405.049L393.538 403.579L395.055 402.735L395.814 402.156L396.572 401.336L397.33 400.223L398.847 397.194L401.123 391.545L403.398 385.036L406.432 375.275L407.19 372.259L407.949 368.584L409.466 358.951L410.982 346.281L412.499 330.147L414.016 310.552L415.533 287.645L417.808 247.019L422.359 157.455L423.876 136.014L425.393 119.275L426.91 104.801L427.668 99.1028L428.427 95.557L429.185 94.7148L429.944 96.4495L430.702 100.163L431.46 105.279L432.977 118.9L434.494 136.42L436.77 166.619L439.803 209.299L441.32 225.261L442.837 240.566L444.354 259.009L447.388 297.81L449.663 321.145L451.18 334.504L452.697 345.776L454.214 354.83L455.731 362.048L458.006 371.021L461.04 382.573L462.557 388.322L464.074 393.085L465.591 396.679L467.107 399.054L469.383 401.282L472.417 404.398L473.933 405.375L480.001 408.38L481.518 408.779L486.827 409.49L489.102 409.871L491.378 409.998L497.445 410.054L501.238 410.034L505.03 410.072L508.064 410.111" fill="#EFEFEF" fill-opacity="0.4"/>
<path d="M357.133 410.111L361.683 409.983L365.476 409.892L369.268 409.948L376.094 409.406L380.645 408.696L384.437 407.606L387.471 407.177L388.988 406.584L391.263 405.049L393.538 403.579L395.055 402.735L395.814 402.156L396.572 401.336L397.33 400.223L398.847 397.194L401.123 391.545L403.398 385.036L406.432 375.275L407.19 372.259L407.949 368.584L409.466 358.951L410.982 346.281L412.499 330.147L414.016 310.552L415.533 287.645L417.808 247.019L422.359 157.455L423.876 136.014L425.393 119.275L426.91 104.801L427.668 99.1028L428.427 95.557L429.185 94.7148L429.944 96.4495L430.702 100.163L431.46 105.279L432.977 118.9L434.494 136.42L436.77 166.619L439.803 209.299L441.32 225.261L442.837 240.566L444.354 259.009L447.388 297.81L449.663 321.145L451.18 334.504L452.697 345.776L454.214 354.83L455.731 362.048L458.006 371.021L461.04 382.573L462.557 388.322L464.074 393.085L465.591 396.679L467.107 399.054L469.383 401.282L472.417 404.398L473.933 405.375L480.001 408.38L481.518 408.779L486.827 409.49L489.102 409.871L491.378 409.998L497.445 410.054L501.238 410.034L505.03 410.072L508.064 410.111" stroke="#EFEFEF" stroke-linecap="square"/>
</g>
<mask id="mask13_230_12558" style="mask-type:luminance" maskUnits="userSpaceOnUse" x="76" y="55" width="477" height="356">
<path d="M552.957 55.2959H76.7969V410.112H552.957V55.2959Z" fill="white"/>
</mask>
<g mask="url(#mask13_230_12558)">
<path d="M333.828 410.11L338.888 409.972L344.792 409.315L346.478 408.907L347.322 408.504L348.165 407.899L349.008 407.044L349.852 405.902L350.695 404.441L351.538 402.635L353.225 397.882L354.912 391.333L356.599 382.504L358.285 371.009L359.972 356.903L361.659 340.443L364.189 311.658L369.249 249.111L370.935 232.358L372.622 218.974L374.309 208.428L375.996 199.828L377.682 192.877L378.526 190.347L379.369 188.721L380.212 188.144L381.056 188.679L381.899 190.352L382.742 193.198L383.586 197.274L384.429 202.611L386.116 216.674L391.176 265.445L392.862 277.899L394.549 287.196L395.393 290.699L396.236 293.562L397.079 295.896L397.923 297.778L398.766 299.236L399.609 300.26L400.453 300.846L401.296 301.038L403.826 300.858L404.669 301.249L405.513 302.078L407.199 304.763L410.573 311.286L412.259 315.713L413.946 321.818L415.633 329.482L418.163 343.041L420.693 357.119L422.38 365.17L424.066 371.873L425.753 377.688L427.44 382.542L429.126 386.035L430.813 388.495L433.343 391.988L436.717 396.756L438.403 398.619L440.933 400.932L442.62 402.244L444.307 403.195L445.993 403.768L452.74 405.472L456.957 407.143L463.704 409.025L466.234 409.381L469.607 409.446L474.667 409.508L488.161 410.036L496.594 410.072L501.654 410.111" fill="#EFEFEF" fill-opacity="0.4"/>
<path d="M333.828 410.11L338.888 409.972L344.792 409.315L346.478 408.907L347.322 408.504L348.165 407.899L349.008 407.044L349.852 405.902L350.695 404.441L351.538 402.635L353.225 397.882L354.912 391.333L356.599 382.504L358.285 371.009L359.972 356.903L361.659 340.443L364.189 311.658L369.249 249.111L370.935 232.358L372.622 218.974L374.309 208.428L375.996 199.828L377.682 192.877L378.526 190.347L379.369 188.721L380.212 188.144L381.056 188.679L381.899 190.352L382.742 193.198L383.586 197.274L384.429 202.611L386.116 216.674L391.176 265.445L392.862 277.899L394.549 287.196L395.393 290.699L396.236 293.562L397.079 295.896L397.923 297.778L398.766 299.236L399.609 300.26L400.453 300.846L401.296 301.038L403.826 300.858L404.669 301.249L405.513 302.078L407.199 304.763L410.573 311.286L412.259 315.713L413.946 321.818L415.633 329.482L418.163 343.041L420.693 357.119L422.38 365.17L424.066 371.873L425.753 377.688L427.44 382.542L429.126 386.035L430.813 388.495L433.343 391.988L436.717 396.756L438.403 398.619L440.933 400.932L442.62 402.244L444.307 403.195L445.993 403.768L452.74 405.472L456.957 407.143L463.704 409.025L466.234 409.381L469.607 409.446L474.667 409.508L488.161 410.036L496.594 410.072L501.654 410.111" stroke="#EFEFEF" stroke-linecap="square"/>
</g>
<mask id="mask14_230_12558" style="mask-type:luminance" maskUnits="userSpaceOnUse" x="76" y="55" width="477" height="356">
<path d="M552.957 55.2959H76.7969V410.112H552.957V55.2959Z" fill="white"/>
</mask>
<g mask="url(#mask14_230_12558)">
<path d="M98.4375 410.112L198.898 410.112L315.76 410.012L323.961 409.663L328.062 409.327L332.162 408.559L338.313 406.898L340.363 406.244L342.413 405.43L344.463 404.439L346.514 403.167L348.564 401.376L350.614 398.856L352.664 395.539L354.715 391.504L356.765 386.894L358.815 381.692L360.865 375.685L367.016 355.046L369.066 347.258L373.166 330.211L375.217 322.964L377.267 316.886L383.418 300.936L385.468 294.364L387.518 286.962L389.568 280.477L391.618 276.301L393.669 273.546L395.719 270.229L399.819 261.486L401.87 258.158L403.92 256.662L405.97 257.197L408.02 258.899L410.07 260.905L412.121 263.562L414.171 267.838L416.221 274.282L418.271 282.731L420.321 292.123L422.372 300.765L426.472 315.051L428.522 323.118L432.623 340.247L436.723 354.234L440.824 369.193L442.874 376.48L444.924 382.505L446.974 387.193L449.025 391.037L451.075 394.486L453.125 397.617L455.175 400.264L457.225 402.308L459.276 403.881L463.376 406.374L465.426 407.347L467.476 408.121L469.527 408.667L471.577 408.964L479.778 409.482L485.928 410.003L490.029 410.061L498.23 409.993L506.431 410.111" fill="#7EB0D5" fill-opacity="0.4"/>
<path d="M98.4375 410.112L198.898 410.112L315.76 410.012L323.961 409.663L328.062 409.327L332.162 408.559L338.313 406.898L340.363 406.244L342.413 405.43L344.463 404.439L346.514 403.167L348.564 401.376L350.614 398.856L352.664 395.539L354.715 391.504L356.765 386.894L358.815 381.692L360.865 375.685L367.016 355.046L369.066 347.258L373.166 330.211L375.217 322.964L377.267 316.886L383.418 300.936L385.468 294.364L387.518 286.962L389.568 280.477L391.618 276.301L393.669 273.546L395.719 270.229L399.819 261.486L401.87 258.158L403.92 256.662L405.97 257.197L408.02 258.899L410.07 260.905L412.121 263.562L414.171 267.838L416.221 274.282L418.271 282.731L420.321 292.123L422.372 300.765L426.472 315.051L428.522 323.118L432.623 340.247L436.723 354.234L440.824 369.193L442.874 376.48L444.924 382.505L446.974 387.193L449.025 391.037L451.075 394.486L453.125 397.617L455.175 400.264L457.225 402.308L459.276 403.881L463.376 406.374L465.426 407.347L467.476 408.121L469.527 408.667L471.577 408.964L479.778 409.482L485.928 410.003L490.029 410.061L498.23 409.993L506.431 410.111" stroke="#7EB0D5" stroke-linecap="square"/>
</g>
<path d="M535.061 411.061C535.646 410.475 535.646 409.525 535.061 408.939L525.515 399.393C524.929 398.808 523.979 398.808 523.393 399.393C522.808 399.979 522.808 400.929 523.393 401.515L531.879 410L523.393 418.485C522.808 419.071 522.808 420.021 523.393 420.607C523.979 421.192 524.929 421.192 525.515 420.607L535.061 411.061ZM79 411.5H534V408.5H79V411.5Z" fill="black"/>
</g>
<defs>
<clipPath id="clip0_230_12558">
<rect width="614.4" height="460.8" fill="white"/>
</clipPath>
</defs>
</svg>
