<svg width="615" height="461" viewBox="0 0 615 461" fill="none" xmlns="http://www.w3.org/2000/svg">
<g clip-path="url(#clip0_230_12398)">
<mask id="mask0_230_12398" style="mask-type:luminance" maskUnits="userSpaceOnUse" x="76" y="55" width="477" height="356">
<path d="M552.957 55.2959H76.7969V410.112H552.957V55.2959Z" fill="white"/>
</mask>
<g mask="url(#mask0_230_12398)">
<path d="M310.891 410.111L327.351 409.948L333.936 409.541L336.13 409.446L340.52 408.835L343.812 408.553L346.007 408.001L349.299 406.686L351.494 405.354L356.981 401.483L359.175 399.556L360.273 398.182L361.37 396.453L362.468 394.341L363.565 391.583L364.662 387.995L370.149 367.704L371.247 363.598L372.344 358.804L373.441 352.821L374.539 345.491L375.636 336.935L376.734 326.994L377.831 315.073L380.026 285.574L385.513 208.259L386.61 196.442L387.707 187.222L389.902 172.469L391 167.318L392.097 164.894L393.194 165.937L394.292 170.407L395.389 177.826L396.486 187.754L398.681 212.614L405.265 292.937L406.363 306.86L407.46 318.817L408.558 328.58L410.752 343.851L412.947 358.728L414.045 365.218L416.239 375.345L418.434 384.418L419.531 388.263L420.629 391.407L422.824 396.263L423.921 398.039L425.018 399.305L427.213 401.506L430.505 405.444L432.7 407.409L433.797 408.026L434.895 408.302L437.09 408.481L439.284 409.048L441.479 409.636L443.674 409.855L449.161 409.791L456.842 410.029L486.472 410.081L494.153 410.034L510.614 410.112L529.27 410.111" fill="#EFEFEF" fill-opacity="0.4"/>
<path d="M310.891 410.111L327.351 409.948L333.936 409.541L336.13 409.446L340.52 408.835L343.812 408.553L346.007 408.001L349.299 406.686L351.494 405.354L356.981 401.483L359.175 399.556L360.273 398.182L361.37 396.453L362.468 394.341L363.565 391.583L364.662 387.995L370.149 367.704L371.247 363.598L372.344 358.804L373.441 352.821L374.539 345.491L375.636 336.935L376.734 326.994L377.831 315.073L380.026 285.574L385.513 208.259L386.61 196.442L387.707 187.222L389.902 172.469L391 167.318L392.097 164.894L393.194 165.937L394.292 170.407L395.389 177.826L396.486 187.754L398.681 212.614L405.265 292.937L406.363 306.86L407.46 318.817L408.558 328.58L410.752 343.851L412.947 358.728L414.045 365.218L416.239 375.345L418.434 384.418L419.531 388.263L420.629 391.407L422.824 396.263L423.921 398.039L425.018 399.305L427.213 401.506L430.505 405.444L432.7 407.409L433.797 408.026L434.895 408.302L437.09 408.481L439.284 409.048L441.479 409.636L443.674 409.855L449.161 409.791L456.842 410.029L486.472 410.081L494.153 410.034L510.614 410.112L529.27 410.111" stroke="#EFEFEF" stroke-linecap="square"/>
</g>
<mask id="mask1_230_12398" style="mask-type:luminance" maskUnits="userSpaceOnUse" x="76" y="55" width="477" height="356">
<path d="M552.957 55.2959H76.7969V410.112H552.957V55.2959Z" fill="white"/>
</mask>
<g mask="url(#mask1_230_12398)">
<path d="M285.016 410.111L302.096 409.985L313.484 409.363L316.9 409.155L320.316 408.983L322.593 408.59L326.01 407.958L330.564 407.421L332.842 406.884L335.119 405.992L338.535 404.392L340.813 403.519L343.09 402.2L347.645 398.793L349.923 397.421L351.061 396.574L352.2 395.483L354.478 392.583L360.171 384.062L361.31 382.171L362.449 379.957L364.726 374.504L367.003 367.68L369.281 359.133L371.558 348.836L373.836 336.231L378.391 307.68L380.668 292.261L384.084 267.251L385.223 260.314L387.5 249.039L389.778 239.129L390.917 235.079L392.055 232.263L393.194 230.845L394.333 230.715L395.471 231.799L396.61 234.183L397.749 237.894L398.888 242.691L401.165 254.045L404.581 273.049L406.859 286.671L409.136 302.598L412.552 327.624L414.83 341.495L417.107 353.67L419.385 364.675L421.662 374.555L423.939 382.901L425.078 386.247L427.356 391.5L429.633 395.856L431.91 399.601L434.188 402.526L436.465 404.643L438.743 406.19L441.02 407.326L443.298 408.132L445.575 408.696L450.13 409.399L453.546 409.684L467.211 409.957L487.708 410.008L493.401 410.11L511.621 410.111" fill="#EFEFEF" fill-opacity="0.4"/>
<path d="M285.016 410.111L302.096 409.985L313.484 409.363L316.9 409.155L320.316 408.983L322.593 408.59L326.01 407.958L330.564 407.421L332.842 406.884L335.119 405.992L338.535 404.392L340.813 403.519L343.09 402.2L347.645 398.793L349.923 397.421L351.061 396.574L352.2 395.483L354.478 392.583L360.171 384.062L361.31 382.171L362.449 379.957L364.726 374.504L367.003 367.68L369.281 359.133L371.558 348.836L373.836 336.231L378.391 307.68L380.668 292.261L384.084 267.251L385.223 260.314L387.5 249.039L389.778 239.129L390.917 235.079L392.055 232.263L393.194 230.845L394.333 230.715L395.471 231.799L396.61 234.183L397.749 237.894L398.888 242.691L401.165 254.045L404.581 273.049L406.859 286.671L409.136 302.598L412.552 327.624L414.83 341.495L417.107 353.67L419.385 364.675L421.662 374.555L423.939 382.901L425.078 386.247L427.356 391.5L429.633 395.856L431.91 399.601L434.188 402.526L436.465 404.643L438.743 406.19L441.02 407.326L443.298 408.132L445.575 408.696L450.13 409.399L453.546 409.684L467.211 409.957L487.708 410.008L493.401 410.11L511.621 410.111" stroke="#EFEFEF" stroke-linecap="square"/>
</g>
<mask id="mask2_230_12398" style="mask-type:luminance" maskUnits="userSpaceOnUse" x="76" y="55" width="477" height="356">
<path d="M552.957 55.2959H76.7969V410.112H552.957V55.2959Z" fill="white"/>
</mask>
<g mask="url(#mask2_230_12398)">
<path d="M298.898 410.111L317.585 409.933L321.089 409.859L324.593 409.806L328.097 409.692L331.6 409.699L337.44 409.211L342.112 409.451L345.615 409.177L351.455 408.212L353.791 407.724L356.127 407.611L358.463 407.7L359.63 407.523L360.798 407.109L363.134 405.707L367.806 402.289L368.974 401.022L374.813 393.048L375.981 390.983L377.149 388.043L379.485 380.459L381.821 372.31L382.989 367.535L384.157 361.94L385.325 355.347L386.493 347.631L387.661 338.766L388.829 328.654L389.996 316.977L391.164 303.348L393.5 269.936L397.004 213.149L398.172 197.909L399.34 187.055L400.508 180.886L401.676 178.792L402.844 179.857L404.012 183.388L405.179 188.851L406.347 195.736L407.515 203.936L408.683 213.75L415.691 280.918L422.698 333.094L423.866 339.854L426.202 350.257L430.874 368.925L433.21 379.836L434.378 384.314L435.545 388.078L436.713 391.323L437.881 394.004L439.049 396.061L441.385 399.103L443.721 401.992L444.889 403.251L446.057 404.272L447.225 405.051L450.728 406.815L453.064 408.34L454.232 408.859L456.568 409.313L460.072 409.65L464.744 409.802L468.247 409.921L472.919 409.992L478.759 410.099L488.102 410.11L531.315 410.111" fill="#EFEFEF" fill-opacity="0.4"/>
<path d="M298.898 410.111L317.585 409.933L321.089 409.859L324.593 409.806L328.097 409.692L331.6 409.699L337.44 409.211L342.112 409.451L345.615 409.177L351.455 408.212L353.791 407.724L356.127 407.611L358.463 407.7L359.63 407.523L360.798 407.109L363.134 405.707L367.806 402.289L368.974 401.022L374.813 393.048L375.981 390.983L377.149 388.043L379.485 380.459L381.821 372.31L382.989 367.535L384.157 361.94L385.325 355.347L386.493 347.631L387.661 338.766L388.829 328.654L389.996 316.977L391.164 303.348L393.5 269.936L397.004 213.149L398.172 197.909L399.34 187.055L400.508 180.886L401.676 178.792L402.844 179.857L404.012 183.388L405.179 188.851L406.347 195.736L407.515 203.936L408.683 213.75L415.691 280.918L422.698 333.094L423.866 339.854L426.202 350.257L430.874 368.925L433.21 379.836L434.378 384.314L435.545 388.078L436.713 391.323L437.881 394.004L439.049 396.061L441.385 399.103L443.721 401.992L444.889 403.251L446.057 404.272L447.225 405.051L450.728 406.815L453.064 408.34L454.232 408.859L456.568 409.313L460.072 409.65L464.744 409.802L468.247 409.921L472.919 409.992L478.759 410.099L488.102 410.11L531.315 410.111" stroke="#EFEFEF" stroke-linecap="square"/>
</g>
<mask id="mask3_230_12398" style="mask-type:luminance" maskUnits="userSpaceOnUse" x="76" y="55" width="477" height="356">
<path d="M552.957 55.2959H76.7969V410.112H552.957V55.2959Z" fill="white"/>
</mask>
<g mask="url(#mask3_230_12398)">
<path d="M296.258 410.111L322.188 409.925L330.08 409.533L333.463 409.365L335.717 409.232L340.227 408.599L344.737 407.467L346.992 406.22L349.246 404.639L352.629 402.035L353.756 400.805L359.393 392.35L360.521 389.96L361.648 386.822L362.775 382.697L365.03 372.078L368.412 354.902L370.667 343.218L372.922 333.504L374.049 327.502L375.177 319.397L377.432 297.64L381.941 251.945L386.451 207.533L387.578 200.32L388.706 194.818L389.833 190.743L390.961 188.632L392.088 188.755L393.216 190.514L394.343 193.383L395.47 197.7L396.598 204.161L397.725 213.164L398.853 224.712L401.107 253.23L403.362 282.272L405.617 306.338L407.872 327.197L410.127 345.713L412.382 361.766L413.509 368.134L415.764 377.919L419.146 391.697L420.274 395.293L421.401 398.119L422.528 400.378L423.656 402.269L424.783 403.866L425.911 405.124L427.038 406.041L430.42 408.111L431.548 408.61L432.675 408.852L437.185 409.031L442.822 409.751L451.841 409.956L458.606 410.006L471.007 410.075L476.644 410.097L493.556 410.112L520.614 410.111" fill="#EFEFEF" fill-opacity="0.4"/>
<path d="M296.258 410.111L322.188 409.925L330.08 409.533L333.463 409.365L335.717 409.232L340.227 408.599L344.737 407.467L346.992 406.22L349.246 404.639L352.629 402.035L353.756 400.805L359.393 392.35L360.521 389.96L361.648 386.822L362.775 382.697L365.03 372.078L368.412 354.902L370.667 343.218L372.922 333.504L374.049 327.502L375.177 319.397L377.432 297.64L381.941 251.945L386.451 207.533L387.578 200.32L388.706 194.818L389.833 190.743L390.961 188.632L392.088 188.755L393.216 190.514L394.343 193.383L395.47 197.7L396.598 204.161L397.725 213.164L398.853 224.712L401.107 253.23L403.362 282.272L405.617 306.338L407.872 327.197L410.127 345.713L412.382 361.766L413.509 368.134L415.764 377.919L419.146 391.697L420.274 395.293L421.401 398.119L422.528 400.378L423.656 402.269L424.783 403.866L425.911 405.124L427.038 406.041L430.42 408.111L431.548 408.61L432.675 408.852L437.185 409.031L442.822 409.751L451.841 409.956L458.606 410.006L471.007 410.075L476.644 410.097L493.556 410.112L520.614 410.111" stroke="#EFEFEF" stroke-linecap="square"/>
</g>
<mask id="mask4_230_12398" style="mask-type:luminance" maskUnits="userSpaceOnUse" x="76" y="55" width="477" height="356">
<path d="M552.957 55.2959H76.7969V410.112H552.957V55.2959Z" fill="white"/>
</mask>
<g mask="url(#mask4_230_12398)">
<path d="M301.734 410.111L335.614 409.86L339.378 409.838L343.142 409.996L345.025 409.843L349.73 409.081L354.436 409.166L357.259 408.932L364.788 407.405L366.67 406.529L368.552 405.665L371.375 404.985L372.316 404.298L373.257 403.17L376.081 399.02L377.963 396.535L378.904 394.743L379.845 392.247L381.727 385.757L384.55 375.061L385.492 370.492L386.433 364.652L387.374 357.392L389.256 339.468L391.138 317.539L393.961 278.987L395.844 247.478L397.726 214.078L399.608 188.622L400.549 178.321L401.49 169.877L402.431 164.351L403.372 162.312L404.313 163.135L406.196 167.362L407.137 169.209L408.078 172.064L409.019 177.466L409.96 185.886L412.783 217.377L415.607 243.459L417.489 266.552L419.371 289.189L423.135 328.132L425.017 344.949L427.841 365.095L429.723 376.849L430.664 381.441L432.546 388.444L434.428 393.853L436.311 398.366L438.193 402.187L440.075 405.057L441.016 406.134L441.957 406.962L442.898 407.539L444.78 408.108L446.663 408.482L449.486 409.194L456.073 409.696L463.602 410.095L474.895 409.954L489.012 410.111" fill="#EFEFEF" fill-opacity="0.4"/>
<path d="M301.734 410.111L335.614 409.86L339.378 409.838L343.142 409.996L345.025 409.843L349.73 409.081L354.436 409.166L357.259 408.932L364.788 407.405L366.67 406.529L368.552 405.665L371.375 404.985L372.316 404.298L373.257 403.17L376.081 399.02L377.963 396.535L378.904 394.743L379.845 392.247L381.727 385.757L384.55 375.061L385.492 370.492L386.433 364.652L387.374 357.392L389.256 339.468L391.138 317.539L393.961 278.987L395.844 247.478L397.726 214.078L399.608 188.622L400.549 178.321L401.49 169.877L402.431 164.351L403.372 162.312L404.313 163.135L406.196 167.362L407.137 169.209L408.078 172.064L409.019 177.466L409.96 185.886L412.783 217.377L415.607 243.459L417.489 266.552L419.371 289.189L423.135 328.132L425.017 344.949L427.841 365.095L429.723 376.849L430.664 381.441L432.546 388.444L434.428 393.853L436.311 398.366L438.193 402.187L440.075 405.057L441.016 406.134L441.957 406.962L442.898 407.539L444.78 408.108L446.663 408.482L449.486 409.194L456.073 409.696L463.602 410.095L474.895 409.954L489.012 410.111" stroke="#EFEFEF" stroke-linecap="square"/>
</g>
<mask id="mask5_230_12398" style="mask-type:luminance" maskUnits="userSpaceOnUse" x="76" y="55" width="477" height="356">
<path d="M552.957 55.2959H76.7969V410.112H552.957V55.2959Z" fill="white"/>
</mask>
<g mask="url(#mask5_230_12398)">
<path d="M302.344 410.11L340.234 409.818L343.482 409.784L346.73 409.742L354.308 409.415L357.555 409.344L360.803 408.977L365.134 408.036L368.381 407.222L371.629 406.611L378.125 404.601L380.29 402.959L382.455 400.764L384.62 397.86L385.703 396.13L386.785 394.031L387.868 391.156L388.95 387.09L390.033 381.721L392.198 368.301L394.363 352.626L395.446 343.231L397.611 320.946L403.024 263.214L404.107 253.514L405.189 245.633L406.272 239.993L407.354 236.178L408.437 232.911L409.519 228.803L410.602 223.282L412.767 211.17L413.85 207.115L414.932 205.206L416.015 205.151L417.097 206.428L418.18 208.745L419.263 212.338L420.345 217.813L421.428 225.5L423.593 245.571L429.006 299.254L431.171 316.123L436.584 352.725L437.667 358.265L438.749 362.85L440.914 370.427L445.245 384.668L446.327 387.357L448.492 391.675L450.658 395.551L453.905 400.545L456.07 403.559L457.153 404.567L458.236 405.236L461.483 406.523L465.814 408.038L470.144 408.968L473.392 409.442L476.64 409.754L489.631 410.077L495.043 410.059L501.539 410.108L517.778 410.111" fill="#EFEFEF" fill-opacity="0.4"/>
<path d="M302.344 410.11L340.234 409.818L343.482 409.784L346.73 409.742L354.308 409.415L357.555 409.344L360.803 408.977L365.134 408.036L368.381 407.222L371.629 406.611L378.125 404.601L380.29 402.959L382.455 400.764L384.62 397.86L385.703 396.13L386.785 394.031L387.868 391.156L388.95 387.09L390.033 381.721L392.198 368.301L394.363 352.626L395.446 343.231L397.611 320.946L403.024 263.214L404.107 253.514L405.189 245.633L406.272 239.993L407.354 236.178L408.437 232.911L409.519 228.803L410.602 223.282L412.767 211.17L413.85 207.115L414.932 205.206L416.015 205.151L417.097 206.428L418.18 208.745L419.263 212.338L420.345 217.813L421.428 225.5L423.593 245.571L429.006 299.254L431.171 316.123L436.584 352.725L437.667 358.265L438.749 362.85L440.914 370.427L445.245 384.668L446.327 387.357L448.492 391.675L450.658 395.551L453.905 400.545L456.07 403.559L457.153 404.567L458.236 405.236L461.483 406.523L465.814 408.038L470.144 408.968L473.392 409.442L476.64 409.754L489.631 410.077L495.043 410.059L501.539 410.108L517.778 410.111" stroke="#EFEFEF" stroke-linecap="square"/>
</g>
<mask id="mask6_230_12398" style="mask-type:luminance" maskUnits="userSpaceOnUse" x="76" y="55" width="477" height="356">
<path d="M552.957 55.2959H76.7969V410.112H552.957V55.2959Z" fill="white"/>
</mask>
<g mask="url(#mask6_230_12398)">
<path d="M282.414 410.111L317.003 409.939L327.045 409.422L329.277 408.845L331.509 407.973L333.74 406.638L334.856 405.652L335.972 404.337L337.087 402.603L338.203 400.403L340.435 394.801L346.014 379.33L347.129 376.695L348.245 374.473L349.361 372.765L350.477 371.574L352.708 370.109L353.824 369.345L354.94 368.305L357.172 365.377L361.635 358.453L363.866 354.218L367.214 347.116L371.677 338.553L373.908 333.101L379.487 317.77L382.835 308.806L383.95 306.43L385.066 304.51L389.529 298.155L393.992 290.5L397.34 285.483L398.456 284.158L399.571 283.267L400.687 282.914L401.803 283.08L402.919 283.64L405.15 285.391L406.266 286.555L407.382 288.119L408.498 290.307L409.613 293.263L410.729 296.98L412.961 306.124L415.192 316.859L417.424 329.158L423.003 361.292L426.35 378.557L428.582 388.03L429.697 391.908L430.813 395.227L431.929 398.05L433.045 400.446L434.161 402.471L435.276 404.159L436.392 405.535L437.508 406.625L438.624 407.46L440.855 408.541L443.087 409.169L446.434 409.708L449.782 409.906L455.36 409.884L460.939 409.994L468.75 410.086L494.413 410.037L504.455 410.112" fill="#EFEFEF" fill-opacity="0.4"/>
<path d="M282.414 410.111L317.003 409.939L327.045 409.422L329.277 408.845L331.509 407.973L333.74 406.638L334.856 405.652L335.972 404.337L337.087 402.603L338.203 400.403L340.435 394.801L346.014 379.33L347.129 376.695L348.245 374.473L349.361 372.765L350.477 371.574L352.708 370.109L353.824 369.345L354.94 368.305L357.172 365.377L361.635 358.453L363.866 354.218L367.214 347.116L371.677 338.553L373.908 333.101L379.487 317.77L382.835 308.806L383.95 306.43L385.066 304.51L389.529 298.155L393.992 290.5L397.34 285.483L398.456 284.158L399.571 283.267L400.687 282.914L401.803 283.08L402.919 283.64L405.15 285.391L406.266 286.555L407.382 288.119L408.498 290.307L409.613 293.263L410.729 296.98L412.961 306.124L415.192 316.859L417.424 329.158L423.003 361.292L426.35 378.557L428.582 388.03L429.697 391.908L430.813 395.227L431.929 398.05L433.045 400.446L434.161 402.471L435.276 404.159L436.392 405.535L437.508 406.625L438.624 407.46L440.855 408.541L443.087 409.169L446.434 409.708L449.782 409.906L455.36 409.884L460.939 409.994L468.75 410.086L494.413 410.037L504.455 410.112" stroke="#EFEFEF" stroke-linecap="square"/>
</g>
<mask id="mask7_230_12398" style="mask-type:luminance" maskUnits="userSpaceOnUse" x="76" y="55" width="477" height="356">
<path d="M552.957 55.2959H76.7969V410.112H552.957V55.2959Z" fill="white"/>
</mask>
<g mask="url(#mask7_230_12398)">
<path d="M309.094 410.111L319.672 409.957L323.519 409.84L330.25 409.964L333.135 409.719L336.02 409.516L344.675 409.531L347.56 409.261L353.33 408.374L358.138 408.048L361.023 407.345L362.947 407.232L363.908 407.237L364.87 407.087L365.832 406.651L369.678 403.939L370.64 403.067L372.563 401.016L374.487 399.613L375.448 398.578L377.371 395.667L378.333 394.001L379.295 391.842L380.256 388.839L381.218 384.942L383.141 375.073L385.065 363.591L386.026 356.693L386.988 347.636L387.95 335.687L389.873 304.675L391.796 266.907L393.72 228.122L395.643 197.244L396.605 185.809L397.566 177.973L398.528 173.17L399.49 169.888L400.451 167.355L401.413 165.685L402.375 165.004L403.336 165.335L404.298 166.637L406.221 170.711L407.183 173.341L408.145 177.335L409.106 183.494L410.068 191.785L411.991 211.592L413.914 235.376L415.838 265.947L417.761 296.943L419.684 322.277L421.608 342.838L422.569 351.423L423.531 358.661L425.454 370.057L427.378 379.217L429.301 386.641L432.186 396.567L433.148 399.354L434.109 401.626L435.071 403.512L436.033 405.068L436.994 406.199L437.956 406.866L443.726 409.028L453.342 409.679L456.227 409.527L462.959 410.109L493.732 410.062L497.579 410.075L500.464 410.111" fill="#EFEFEF" fill-opacity="0.4"/>
<path d="M309.094 410.111L319.672 409.957L323.519 409.84L330.25 409.964L333.135 409.719L336.02 409.516L344.675 409.531L347.56 409.261L353.33 408.374L358.138 408.048L361.023 407.345L362.947 407.232L363.908 407.237L364.87 407.087L365.832 406.651L369.678 403.939L370.64 403.067L372.563 401.016L374.487 399.613L375.448 398.578L377.371 395.667L378.333 394.001L379.295 391.842L380.256 388.839L381.218 384.942L383.141 375.073L385.065 363.591L386.026 356.693L386.988 347.636L387.95 335.687L389.873 304.675L391.796 266.907L393.72 228.122L395.643 197.244L396.605 185.809L397.566 177.973L398.528 173.17L399.49 169.888L400.451 167.355L401.413 165.685L402.375 165.004L403.336 165.335L404.298 166.637L406.221 170.711L407.183 173.341L408.145 177.335L409.106 183.494L410.068 191.785L411.991 211.592L413.914 235.376L415.838 265.947L417.761 296.943L419.684 322.277L421.608 342.838L422.569 351.423L423.531 358.661L425.454 370.057L427.378 379.217L429.301 386.641L432.186 396.567L433.148 399.354L434.109 401.626L435.071 403.512L436.033 405.068L436.994 406.199L437.956 406.866L443.726 409.028L453.342 409.679L456.227 409.527L462.959 410.109L493.732 410.062L497.579 410.075L500.464 410.111" stroke="#EFEFEF" stroke-linecap="square"/>
</g>
<mask id="mask8_230_12398" style="mask-type:luminance" maskUnits="userSpaceOnUse" x="76" y="55" width="477" height="356">
<path d="M552.957 55.2959H76.7969V410.112H552.957V55.2959Z" fill="white"/>
</mask>
<g mask="url(#mask8_230_12398)">
<path d="M294.32 410.111L327.488 409.75L329.7 409.664L334.122 409.856L337.439 409.744L341.861 409.406L344.073 409.165L346.284 409.429L347.389 409.339L350.706 408.47L355.129 408.098L356.234 407.853L361.762 405.87L363.973 405.76L365.079 405.182L366.185 404.379L367.29 403.83L369.502 403.513L370.607 403.072L371.713 402.028L373.924 399.483L375.03 398.417L376.135 396.637L377.241 393.829L378.346 390.219L379.452 385.647L380.558 379.898L381.663 373.046L382.769 364.153L383.874 351.181L384.98 332.814L386.086 308.341L387.191 276.807L389.402 196.668L391.614 120.006L392.719 92.1611L393.825 76.0618L394.93 72.1924L396.036 77.8443L397.142 90.4667L398.247 107.763L402.67 185.687L405.986 238.949L408.198 267.602L413.726 333.514L414.831 343.447L415.937 351.984L419.254 372.944L420.359 379.665L421.465 385.293L422.571 389.61L423.676 392.796L425.887 397.393L426.993 399.238L429.204 401.766L434.732 406.955L435.838 407.499L438.049 407.978L440.26 408.417L442.471 408.907L453.528 409.563L456.844 409.52L459.056 409.286L461.267 409.606L463.478 409.859L467.9 409.794L470.112 409.827L472.323 409.767L476.745 410.014L481.168 409.921L484.484 409.897L486.696 409.843L491.118 410.091L496.646 410.016L503.28 410.095L507.702 410.024L509.913 409.938L514.336 410.111" fill="#EFEFEF" fill-opacity="0.4"/>
<path d="M294.32 410.111L327.488 409.75L329.7 409.664L334.122 409.856L337.439 409.744L341.861 409.406L344.073 409.165L346.284 409.429L347.389 409.339L350.706 408.47L355.129 408.098L356.234 407.853L361.762 405.87L363.973 405.76L365.079 405.182L366.185 404.379L367.29 403.83L369.502 403.513L370.607 403.072L371.713 402.028L373.924 399.483L375.03 398.417L376.135 396.637L377.241 393.829L378.346 390.219L379.452 385.647L380.558 379.898L381.663 373.046L382.769 364.153L383.874 351.181L384.98 332.814L386.086 308.341L387.191 276.807L389.402 196.668L391.614 120.006L392.719 92.1611L393.825 76.0618L394.93 72.1924L396.036 77.8443L397.142 90.4667L398.247 107.763L402.67 185.687L405.986 238.949L408.198 267.602L413.726 333.514L414.831 343.447L415.937 351.984L419.254 372.944L420.359 379.665L421.465 385.293L422.571 389.61L423.676 392.796L425.887 397.393L426.993 399.238L429.204 401.766L434.732 406.955L435.838 407.499L438.049 407.978L440.26 408.417L442.471 408.907L453.528 409.563L456.844 409.52L459.056 409.286L461.267 409.606L463.478 409.859L467.9 409.794L470.112 409.827L472.323 409.767L476.745 410.014L481.168 409.921L484.484 409.897L486.696 409.843L491.118 410.091L496.646 410.016L503.28 410.095L507.702 410.024L509.913 409.938L514.336 410.111" stroke="#EFEFEF" stroke-linecap="square"/>
</g>
<mask id="mask9_230_12398" style="mask-type:luminance" maskUnits="userSpaceOnUse" x="76" y="55" width="477" height="356">
<path d="M552.957 55.2959H76.7969V410.112H552.957V55.2959Z" fill="white"/>
</mask>
<g mask="url(#mask9_230_12398)">
<path d="M300.938 410.111L333.05 409.959L337.479 409.621L345.231 409.33L347.445 409.114L349.66 408.654L351.875 408.116L356.304 407.4L364.055 404.999L365.163 404.335L367.377 402.393L369.592 399.864L370.699 398.353L371.807 396.569L372.914 394.443L374.021 391.91L375.129 388.834L376.236 384.995L377.343 380.192L378.451 374.354L380.665 359.943L382.88 342.401L386.202 311.418L390.631 269.414L393.953 242.016L396.168 225.48L397.275 219.459L398.383 215.717L399.49 214.161L400.597 214.443L401.705 216.118L402.812 218.649L405.027 224.863L406.134 228.659L407.241 233.275L408.349 238.958L409.456 245.896L411.671 262.877L414.993 288.77L417.207 303.953L419.422 316.088L421.637 328.368L424.959 349.307L427.173 360.748L429.388 370.194L430.495 374.094L432.71 380.392L437.139 391.679L439.354 396.177L440.461 397.933L442.676 400.62L445.998 403.809L448.213 405.499L450.427 406.481L453.749 407.378L457.071 408.233L459.286 408.817L461.501 409.138L471.467 409.856L485.862 409.874L489.184 409.892L493.613 410.005L500.257 410.02L505.794 410.068L512.438 410.077L519.082 410.103L521.297 410.111" fill="#EFEFEF" fill-opacity="0.4"/>
<path d="M300.938 410.111L333.05 409.959L337.479 409.621L345.231 409.33L347.445 409.114L349.66 408.654L351.875 408.116L356.304 407.4L364.055 404.999L365.163 404.335L367.377 402.393L369.592 399.864L370.699 398.353L371.807 396.569L372.914 394.443L374.021 391.91L375.129 388.834L376.236 384.995L377.343 380.192L378.451 374.354L380.665 359.943L382.88 342.401L386.202 311.418L390.631 269.414L393.953 242.016L396.168 225.48L397.275 219.459L398.383 215.717L399.49 214.161L400.597 214.443L401.705 216.118L402.812 218.649L405.027 224.863L406.134 228.659L407.241 233.275L408.349 238.958L409.456 245.896L411.671 262.877L414.993 288.77L417.207 303.953L419.422 316.088L421.637 328.368L424.959 349.307L427.173 360.748L429.388 370.194L430.495 374.094L432.71 380.392L437.139 391.679L439.354 396.177L440.461 397.933L442.676 400.62L445.998 403.809L448.213 405.499L450.427 406.481L453.749 407.378L457.071 408.233L459.286 408.817L461.501 409.138L471.467 409.856L485.862 409.874L489.184 409.892L493.613 410.005L500.257 410.02L505.794 410.068L512.438 410.077L519.082 410.103L521.297 410.111" stroke="#EFEFEF" stroke-linecap="square"/>
</g>
<mask id="mask10_230_12398" style="mask-type:luminance" maskUnits="userSpaceOnUse" x="76" y="55" width="477" height="356">
<path d="M552.957 55.2959H76.7969V410.112H552.957V55.2959Z" fill="white"/>
</mask>
<g mask="url(#mask10_230_12398)">
<path d="M303.352 410.111L317.671 409.981L322.077 409.781L330.889 409.826L333.092 409.68L338.599 408.884L346.31 408.947L350.716 408.078L354.02 407.912L357.325 406.996L362.832 405.632L366.137 405.279L367.238 404.891L368.339 404.233L372.745 400.593L373.847 400.065L376.05 399.722L377.151 399.268L378.253 398.247L382.659 392.402L383.76 390.601L385.963 385.846L389.268 378.76L390.369 375.421L393.674 363.34L395.877 356.18L396.978 351.351L399.181 338.922L401.384 326.249L403.587 314.16L404.689 306.882L405.79 297.934L407.993 276.21L410.196 252.283L417.907 159.192L419.008 148.117L420.11 140.103L421.211 136.074L422.313 136.831L423.414 143.32L424.516 156.313L425.617 175.702L427.82 227.052L430.023 280.478L432.226 327.64L433.327 347.664L434.429 364.222L435.53 377.012L436.632 386.464L437.733 393.229L438.835 397.809L439.936 400.723L441.038 402.658L443.241 405.721L444.342 406.993L445.444 407.913L446.545 408.487L448.748 409.058L454.256 409.734L459.763 410.016L477.387 410.071L488.402 410.043L497.214 410.06L502.721 410.102L515.939 410.045L522.548 410.111" fill="#EFEFEF" fill-opacity="0.4"/>
<path d="M303.352 410.111L317.671 409.981L322.077 409.781L330.889 409.826L333.092 409.68L338.599 408.884L346.31 408.947L350.716 408.078L354.02 407.912L357.325 406.996L362.832 405.632L366.137 405.279L367.238 404.891L368.339 404.233L372.745 400.593L373.847 400.065L376.05 399.722L377.151 399.268L378.253 398.247L382.659 392.402L383.76 390.601L385.963 385.846L389.268 378.76L390.369 375.421L393.674 363.34L395.877 356.18L396.978 351.351L399.181 338.922L401.384 326.249L403.587 314.16L404.689 306.882L405.79 297.934L407.993 276.21L410.196 252.283L417.907 159.192L419.008 148.117L420.11 140.103L421.211 136.074L422.313 136.831L423.414 143.32L424.516 156.313L425.617 175.702L427.82 227.052L430.023 280.478L432.226 327.64L433.327 347.664L434.429 364.222L435.53 377.012L436.632 386.464L437.733 393.229L438.835 397.809L439.936 400.723L441.038 402.658L443.241 405.721L444.342 406.993L445.444 407.913L446.545 408.487L448.748 409.058L454.256 409.734L459.763 410.016L477.387 410.071L488.402 410.043L497.214 410.06L502.721 410.102L515.939 410.045L522.548 410.111" stroke="#EFEFEF" stroke-linecap="square"/>
</g>
<mask id="mask11_230_12398" style="mask-type:luminance" maskUnits="userSpaceOnUse" x="76" y="55" width="477" height="356">
<path d="M552.957 55.2959H76.7969V410.112H552.957V55.2959Z" fill="white"/>
</mask>
<g mask="url(#mask11_230_12398)">
<path d="M290.398 410.112L298.852 409.989L303.078 409.644L310.475 409.073L313.645 409.091L319.985 408.463L322.098 408.058L327.381 406.448L329.495 405.517L333.721 403.452L335.834 402.471L340.061 400.184L342.174 399.373L343.231 398.835L344.288 398.109L346.401 396.092L349.571 392.253L352.741 387.782L354.854 384.455L356.967 380.424L359.081 374.998L361.194 368.392L363.307 360.956L365.421 352.197L368.591 336.855L372.817 316.004L374.931 302.621L378.101 280.302L380.214 267.449L382.327 256.82L384.44 248.457L385.497 245.337L386.554 243.188L387.61 242.072L388.667 241.766L389.724 241.913L390.78 242.334L391.837 243.204L392.894 244.904L393.95 247.707L395.007 251.58L397.12 261.449L399.234 272.872L401.347 285.821L407.687 328.105L410.857 345.939L412.97 356.283L415.083 365.087L417.197 372.554L420.367 382.523L422.48 388.467L424.593 393.418L426.706 397.371L428.82 400.425L430.933 402.886L433.046 405.08L435.16 406.85L437.273 407.939L439.386 408.501L443.613 409.218L447.84 409.546L456.293 409.924L461.576 410.078L474.256 410.032L480.596 410.064L494.332 410.063L500.672 410.112" fill="#EFEFEF" fill-opacity="0.4"/>
<path d="M290.398 410.112L298.852 409.989L303.078 409.644L310.475 409.073L313.645 409.091L319.985 408.463L322.098 408.058L327.381 406.448L329.495 405.517L333.721 403.452L335.834 402.471L340.061 400.184L342.174 399.373L343.231 398.835L344.288 398.109L346.401 396.092L349.571 392.253L352.741 387.782L354.854 384.455L356.967 380.424L359.081 374.998L361.194 368.392L363.307 360.956L365.421 352.197L368.591 336.855L372.817 316.004L374.931 302.621L378.101 280.302L380.214 267.449L382.327 256.82L384.44 248.457L385.497 245.337L386.554 243.188L387.61 242.072L388.667 241.766L389.724 241.913L390.78 242.334L391.837 243.204L392.894 244.904L393.95 247.707L395.007 251.58L397.12 261.449L399.234 272.872L401.347 285.821L407.687 328.105L410.857 345.939L412.97 356.283L415.083 365.087L417.197 372.554L420.367 382.523L422.48 388.467L424.593 393.418L426.706 397.371L428.82 400.425L430.933 402.886L433.046 405.08L435.16 406.85L437.273 407.939L439.386 408.501L443.613 409.218L447.84 409.546L456.293 409.924L461.576 410.078L474.256 410.032L480.596 410.064L494.332 410.063L500.672 410.112" stroke="#EFEFEF" stroke-linecap="square"/>
</g>
<mask id="mask12_230_12398" style="mask-type:luminance" maskUnits="userSpaceOnUse" x="76" y="55" width="477" height="356">
<path d="M552.957 55.2959H76.7969V410.112H552.957V55.2959Z" fill="white"/>
</mask>
<g mask="url(#mask12_230_12398)">
<path d="M330.055 410.111L333.507 409.986L336.096 409.886L340.412 409.996L346.453 410.006L349.043 410.055L358.537 409.416L360.263 409.498L361.989 409.288L363.715 409.083L367.168 409.15L369.757 408.649L374.936 407.016L376.662 406.038L378.388 404.501L380.114 402.358L381.84 399.912L383.567 396.592L385.293 392.092L387.019 386.225L388.745 379.019L389.608 374.521L390.471 369.081L392.197 355.509L394.787 331.896L396.513 314.257L398.239 293.281L399.965 269.611L403.418 219.7L405.144 197.178L406.87 173.136L407.733 163.416L408.596 156.348L409.459 151.586L410.322 148.441L411.186 146.534L412.049 146.027L412.912 147.451L413.775 151.292L414.638 157.624L416.364 175.377L418.09 195.96L419.816 221.594L421.543 249.806L423.269 273.717L428.447 339.619L429.311 347.097L431.037 358.693L433.626 374.735L435.352 383.54L437.941 394.164L438.805 397.221L439.668 399.629L440.531 401.294L441.394 402.396L444.846 405.563L446.572 406.855L447.436 407.242L449.162 407.561L451.751 407.971L453.477 408.549L455.203 409.286L456.93 409.698L459.519 409.932L463.834 409.897L467.287 409.941L472.465 410.044L481.096 410.047L486.275 410.112L501.81 410.111" fill="#EFEFEF" fill-opacity="0.4"/>
<path d="M330.055 410.111L333.507 409.986L336.096 409.886L340.412 409.996L346.453 410.006L349.043 410.055L358.537 409.416L360.263 409.498L361.989 409.288L363.715 409.083L367.168 409.15L369.757 408.649L374.936 407.016L376.662 406.038L378.388 404.501L380.114 402.358L381.84 399.912L383.567 396.592L385.293 392.092L387.019 386.225L388.745 379.019L389.608 374.521L390.471 369.081L392.197 355.509L394.787 331.896L396.513 314.257L398.239 293.281L399.965 269.611L403.418 219.7L405.144 197.178L406.87 173.136L407.733 163.416L408.596 156.348L409.459 151.586L410.322 148.441L411.186 146.534L412.049 146.027L412.912 147.451L413.775 151.292L414.638 157.624L416.364 175.377L418.09 195.96L419.816 221.594L421.543 249.806L423.269 273.717L428.447 339.619L429.311 347.097L431.037 358.693L433.626 374.735L435.352 383.54L437.941 394.164L438.805 397.221L439.668 399.629L440.531 401.294L441.394 402.396L444.846 405.563L446.572 406.855L447.436 407.242L449.162 407.561L451.751 407.971L453.477 408.549L455.203 409.286L456.93 409.698L459.519 409.932L463.834 409.897L467.287 409.941L472.465 410.044L481.096 410.047L486.275 410.112L501.81 410.111" stroke="#EFEFEF" stroke-linecap="square"/>
</g>
<mask id="mask13_230_12398" style="mask-type:luminance" maskUnits="userSpaceOnUse" x="76" y="55" width="477" height="356">
<path d="M552.957 55.2959H76.7969V410.112H552.957V55.2959Z" fill="white"/>
</mask>
<g mask="url(#mask13_230_12398)">
<path d="M275.789 410.111L287.542 409.969L300.47 409.582L305.172 409.052L308.697 408.42L312.223 407.498L314.574 406.746L316.925 405.692L319.275 404.095L321.626 401.946L323.976 399.356L326.327 396.125L327.502 394.11L328.678 391.74L329.853 388.951L331.028 385.665L332.203 381.766L333.379 377.079L334.554 371.356L335.729 364.281L336.905 355.493L338.08 344.633L339.255 331.423L340.431 315.778L342.781 278.602L345.132 240.775L346.307 225.884L347.482 216.1L348.658 212.636L349.833 215.794L351.008 224.853L352.183 238.247L355.709 285.041L356.885 297.941L358.06 308.445L359.235 316.633L360.411 322.799L361.586 327.31L362.761 330.527L363.936 332.798L365.112 334.453L369.813 339.945L373.339 344.714L375.689 347.256L376.865 348.215L379.215 349.575L386.267 352.652L388.618 354.297L392.144 357.155L394.494 359.399L398.02 363.096L399.195 364.05L400.371 364.767L402.721 365.711L405.072 366.65L407.423 368.071L408.598 369.028L409.773 370.19L410.948 371.593L412.124 373.258L414.474 377.347L416.825 382.25L422.701 395.267L425.052 399.63L426.227 401.396L427.403 402.82L428.578 403.905L429.753 404.698L432.104 405.722L436.805 407.064L441.506 408.172L446.207 408.96L449.733 409.333L460.311 409.901L470.889 410.033L487.343 410.026L509.674 410.111" fill="#EFEFEF" fill-opacity="0.4"/>
<path d="M275.789 410.111L287.542 409.969L300.47 409.582L305.172 409.052L308.697 408.42L312.223 407.498L314.574 406.746L316.925 405.692L319.275 404.095L321.626 401.946L323.976 399.356L326.327 396.125L327.502 394.11L328.678 391.74L329.853 388.951L331.028 385.665L332.203 381.766L333.379 377.079L334.554 371.356L335.729 364.281L336.905 355.493L338.08 344.633L339.255 331.423L340.431 315.778L342.781 278.602L345.132 240.775L346.307 225.884L347.482 216.1L348.658 212.636L349.833 215.794L351.008 224.853L352.183 238.247L355.709 285.041L356.885 297.941L358.06 308.445L359.235 316.633L360.411 322.799L361.586 327.31L362.761 330.527L363.936 332.798L365.112 334.453L369.813 339.945L373.339 344.714L375.689 347.256L376.865 348.215L379.215 349.575L386.267 352.652L388.618 354.297L392.144 357.155L394.494 359.399L398.02 363.096L399.195 364.05L400.371 364.767L402.721 365.711L405.072 366.65L407.423 368.071L408.598 369.028L409.773 370.19L410.948 371.593L412.124 373.258L414.474 377.347L416.825 382.25L422.701 395.267L425.052 399.63L426.227 401.396L427.403 402.82L428.578 403.905L429.753 404.698L432.104 405.722L436.805 407.064L441.506 408.172L446.207 408.96L449.733 409.333L460.311 409.901L470.889 410.033L487.343 410.026L509.674 410.111" stroke="#EFEFEF" stroke-linecap="square"/>
</g>
<mask id="mask14_230_12398" style="mask-type:luminance" maskUnits="userSpaceOnUse" x="76" y="55" width="477" height="356">
<path d="M552.957 55.2959H76.7969V410.112H552.957V55.2959Z" fill="white"/>
</mask>
<g mask="url(#mask14_230_12398)">
<path d="M98.4375 410.111L247.298 409.931L257.781 409.718L261.975 409.328L266.168 408.593L270.361 407.524L276.651 405.613L280.844 404.082L282.941 403.098L287.134 400.596L293.424 396.327L303.907 390.027L312.294 383.755L314.391 381.946L318.584 377.755L322.777 373.043L324.874 370.411L326.97 367.456L329.067 364.119L333.26 356.467L337.453 348.413L339.55 344.782L341.647 341.76L343.743 339.49L345.84 337.932L347.937 336.897L352.13 335.531L360.516 333.052L362.613 332.661L364.71 332.504L366.806 332.577L371 333.24L373.096 333.782L375.193 334.538L377.289 335.601L381.483 338.404L387.773 342.629L389.869 344.265L391.966 346.175L394.063 348.448L396.159 351.165L400.352 357.685L408.739 371.182L421.319 391.264L423.415 394.126L425.512 396.702L427.609 399.019L429.705 401.08L431.802 402.856L433.898 404.331L435.995 405.528L438.092 406.495L442.285 407.916L446.478 408.837L450.672 409.406L456.961 409.821L465.348 410.008L515.667 410.111" fill="#7EB0D5" fill-opacity="0.4"/>
<path d="M98.4375 410.111L247.298 409.931L257.781 409.718L261.975 409.328L266.168 408.593L270.361 407.524L276.651 405.613L280.844 404.082L282.941 403.098L287.134 400.596L293.424 396.327L303.907 390.027L312.294 383.755L314.391 381.946L318.584 377.755L322.777 373.043L324.874 370.411L326.97 367.456L329.067 364.119L333.26 356.467L337.453 348.413L339.55 344.782L341.647 341.76L343.743 339.49L345.84 337.932L347.937 336.897L352.13 335.531L360.516 333.052L362.613 332.661L364.71 332.504L366.806 332.577L371 333.24L373.096 333.782L375.193 334.538L377.289 335.601L381.483 338.404L387.773 342.629L389.869 344.265L391.966 346.175L394.063 348.448L396.159 351.165L400.352 357.685L408.739 371.182L421.319 391.264L423.415 394.126L425.512 396.702L427.609 399.019L429.705 401.08L431.802 402.856L433.898 404.331L435.995 405.528L438.092 406.495L442.285 407.916L446.478 408.837L450.672 409.406L456.961 409.821L465.348 410.008L515.667 410.111" stroke="#7EB0D5" stroke-linecap="square"/>
</g>
<path d="M535.061 411.061C535.646 410.475 535.646 409.525 535.061 408.939L525.515 399.393C524.929 398.808 523.979 398.808 523.393 399.393C522.808 399.979 522.808 400.929 523.393 401.515L531.879 410L523.393 418.485C522.808 419.071 522.808 420.021 523.393 420.607C523.979 421.192 524.929 421.192 525.515 420.607L535.061 411.061ZM79 411.5H534V408.5H79V411.5Z" fill="black"/>
</g>
<defs>
<clipPath id="clip0_230_12398">
<rect width="614.4" height="460.8" fill="white"/>
</clipPath>
</defs>
</svg>
