<svg width="615" height="461" viewBox="0 0 615 461" fill="none" xmlns="http://www.w3.org/2000/svg">
<g clip-path="url(#clip0_230_13038)">
<mask id="mask0_230_13038" style="mask-type:luminance" maskUnits="userSpaceOnUse" x="76" y="55" width="477" height="356">
<path d="M552.957 55.2959H76.7969V410.112H552.957V55.2959Z" fill="white"/>
</mask>
<g mask="url(#mask0_230_13038)">
<path d="M298.945 410.111L318.698 409.917L321.022 409.816L325.67 410.062L327.994 409.672L329.156 409.377L330.318 409.286L332.642 409.602L333.803 409.521L336.127 409.094L339.613 409.223L346.585 407.818L347.747 407.766L348.909 407.533L351.233 406.475L353.556 405.252L355.88 403.658L357.042 402.365L358.204 400.434L360.528 395.54L362.852 389.839L364.014 386.081L365.176 381.43L367.5 370.257L368.662 362.659L369.824 351.845L370.986 337.274L375.633 267.37L377.957 221.619L382.605 129.557L383.767 109.43L384.929 95.268L386.091 86.5371L387.253 80.9418L388.415 77.9984L389.577 77.5654L390.738 79.0534L391.9 83.0869L393.062 90.8075L394.224 102.625L395.386 117.99L397.71 155.346L402.358 238.43L405.844 293.482L408.168 325.327L409.33 338.199L411.653 359.296L412.815 367.74L413.977 374.494L415.139 379.545L416.301 383.205L417.463 385.93L420.949 393L423.273 398.066L424.435 400.265L425.597 401.939L426.759 403.105L427.92 403.853L430.244 404.771L431.406 405.433L433.73 407.131L434.892 407.789L436.054 408.175L439.54 408.927L441.864 409.393L448.835 409.579L451.159 409.568L454.645 410.021L456.969 409.825L459.293 409.643L466.264 410.112L530.171 410.111" fill="#EFEFEF" fill-opacity="0.4"/>
<path d="M298.945 410.111L318.698 409.917L321.022 409.816L325.67 410.062L327.994 409.672L329.156 409.377L330.318 409.286L332.642 409.602L333.803 409.521L336.127 409.094L339.613 409.223L346.585 407.818L347.747 407.766L348.909 407.533L351.233 406.475L353.556 405.252L355.88 403.658L357.042 402.365L358.204 400.434L360.528 395.54L362.852 389.839L364.014 386.081L365.176 381.43L367.5 370.257L368.662 362.659L369.824 351.845L370.986 337.274L375.633 267.37L377.957 221.619L382.605 129.557L383.767 109.43L384.929 95.268L386.091 86.5371L387.253 80.9418L388.415 77.9984L389.577 77.5654L390.738 79.0534L391.9 83.0869L393.062 90.8075L394.224 102.625L395.386 117.99L397.71 155.346L402.358 238.43L405.844 293.482L408.168 325.327L409.33 338.199L411.653 359.296L412.815 367.74L413.977 374.494L415.139 379.545L416.301 383.205L417.463 385.93L420.949 393L423.273 398.066L424.435 400.265L425.597 401.939L426.759 403.105L427.92 403.853L430.244 404.771L431.406 405.433L433.73 407.131L434.892 407.789L436.054 408.175L439.54 408.927L441.864 409.393L448.835 409.579L451.159 409.568L454.645 410.021L456.969 409.825L459.293 409.643L466.264 410.112L530.171 410.111" stroke="#EFEFEF" stroke-linecap="square"/>
</g>
<mask id="mask1_230_13038" style="mask-type:luminance" maskUnits="userSpaceOnUse" x="76" y="55" width="477" height="356">
<path d="M552.957 55.2959H76.7969V410.112H552.957V55.2959Z" fill="white"/>
</mask>
<g mask="url(#mask1_230_13038)">
<path d="M290.242 410.11L293.724 410.024L298.366 409.696L304.169 409.954L307.65 409.701L312.293 409.159L314.614 408.832L320.416 408.443L322.738 407.968L329.701 407.036L332.022 406.252L336.664 404.265L338.985 402.511L341.306 400.681L345.948 397.385L348.27 395.611L349.43 394.313L350.591 392.548L351.751 390.317L352.912 387.645L355.233 381.141L357.554 373.176L358.715 368.278L361.036 356.474L363.357 342.63L364.517 334.601L366.838 315.521L371.481 273.616L373.802 248.08L379.604 178.833L380.765 168.32L381.925 160.329L383.086 154.239L384.247 149.411L385.407 145.913L386.568 144.269L387.728 144.797L388.889 147.443L390.049 151.884L392.37 163.685L393.531 170.534L394.691 179.041L395.852 190.016L399.334 230.793L403.976 283.425L406.297 306.869L409.779 337.524L412.1 354.599L414.421 367.954L416.742 378.942L419.063 387.941L420.224 391.534L421.384 394.435L422.545 396.735L424.866 400.214L427.187 402.813L428.347 403.749L430.668 405.054L434.15 406.932L436.471 408.224L437.632 408.613L439.953 408.87L451.558 409.625L460.843 409.803L468.967 409.848L474.769 410.104L502.622 410.112L521.191 410.111" fill="#EFEFEF" fill-opacity="0.4"/>
<path d="M290.242 410.11L293.724 410.024L298.366 409.696L304.169 409.954L307.65 409.701L312.293 409.159L314.614 408.832L320.416 408.443L322.738 407.968L329.701 407.036L332.022 406.252L336.664 404.265L338.985 402.511L341.306 400.681L345.948 397.385L348.27 395.611L349.43 394.313L350.591 392.548L351.751 390.317L352.912 387.645L355.233 381.141L357.554 373.176L358.715 368.278L361.036 356.474L363.357 342.63L364.517 334.601L366.838 315.521L371.481 273.616L373.802 248.08L379.604 178.833L380.765 168.32L381.925 160.329L383.086 154.239L384.247 149.411L385.407 145.913L386.568 144.269L387.728 144.797L388.889 147.443L390.049 151.884L392.37 163.685L393.531 170.534L394.691 179.041L395.852 190.016L399.334 230.793L403.976 283.425L406.297 306.869L409.779 337.524L412.1 354.599L414.421 367.954L416.742 378.942L419.063 387.941L420.224 391.534L421.384 394.435L422.545 396.735L424.866 400.214L427.187 402.813L428.347 403.749L430.668 405.054L434.15 406.932L436.471 408.224L437.632 408.613L439.953 408.87L451.558 409.625L460.843 409.803L468.967 409.848L474.769 410.104L502.622 410.112L521.191 410.111" stroke="#EFEFEF" stroke-linecap="square"/>
</g>
<mask id="mask2_230_13038" style="mask-type:luminance" maskUnits="userSpaceOnUse" x="76" y="55" width="477" height="356">
<path d="M552.957 55.2959H76.7969V410.112H552.957V55.2959Z" fill="white"/>
</mask>
<g mask="url(#mask2_230_13038)">
<path d="M291.703 410.111L297.672 409.993L306.029 409.734L317.967 409.917L326.324 409.631L343.037 407.842L345.425 407.101L347.812 405.937L350.2 404.099L353.781 400.407L354.975 399.13L356.169 397.624L357.363 395.601L358.557 392.944L362.138 383.169L363.332 379.771L364.526 375.782L365.72 370.857L368.107 358.782L370.495 344.408L371.689 335.821L372.882 325.858L382.433 234.853L388.402 172.231L389.596 162.318L390.79 154.748L391.983 150.128L393.177 148.635L394.371 150.086L395.565 153.907L397.953 164.809L399.146 171.148L400.34 178.972L401.534 188.726L403.922 211.542L407.503 248.5L413.472 311.14L414.666 320.755L415.86 328.372L418.247 340.178L424.216 368.084L426.604 377.242L428.992 384.331L431.379 390.242L432.573 392.733L434.961 396.66L438.542 402.031L439.736 403.381L440.93 404.425L443.317 405.966L445.705 406.915L448.093 407.828L450.48 408.901L452.868 409.523L455.256 409.632L460.031 409.584L467.194 410.087L491.07 409.995L503.008 410.107L519.722 410.024L523.303 409.959L529.272 410.111" fill="#EFEFEF" fill-opacity="0.4"/>
<path d="M291.703 410.111L297.672 409.993L306.029 409.734L317.967 409.917L326.324 409.631L343.037 407.842L345.425 407.101L347.812 405.937L350.2 404.099L353.781 400.407L354.975 399.13L356.169 397.624L357.363 395.601L358.557 392.944L362.138 383.169L363.332 379.771L364.526 375.782L365.72 370.857L368.107 358.782L370.495 344.408L371.689 335.821L372.882 325.858L382.433 234.853L388.402 172.231L389.596 162.318L390.79 154.748L391.983 150.128L393.177 148.635L394.371 150.086L395.565 153.907L397.953 164.809L399.146 171.148L400.34 178.972L401.534 188.726L403.922 211.542L407.503 248.5L413.472 311.14L414.666 320.755L415.86 328.372L418.247 340.178L424.216 368.084L426.604 377.242L428.992 384.331L431.379 390.242L432.573 392.733L434.961 396.66L438.542 402.031L439.736 403.381L440.93 404.425L443.317 405.966L445.705 406.915L448.093 407.828L450.48 408.901L452.868 409.523L455.256 409.632L460.031 409.584L467.194 410.087L491.07 409.995L503.008 410.107L519.722 410.024L523.303 409.959L529.272 410.111" stroke="#EFEFEF" stroke-linecap="square"/>
</g>
<mask id="mask3_230_13038" style="mask-type:luminance" maskUnits="userSpaceOnUse" x="76" y="55" width="477" height="356">
<path d="M552.957 55.2959H76.7969V410.112H552.957V55.2959Z" fill="white"/>
</mask>
<g mask="url(#mask3_230_13038)">
<path d="M292.188 410.111L310.705 409.953L314.177 409.752L319.964 409.804L323.436 409.736L328.066 409.777L335.01 409.197L337.325 408.982L339.639 408.929L341.954 408.571L345.426 407.664L348.898 406.454L351.213 406.254L352.37 405.905L353.528 405.176L355.842 403.033L361.629 397.363L362.787 395.514L365.101 390.392L367.416 384.799L369.731 377.938L370.888 373.969L372.045 369.194L373.203 363.099L375.518 349.607L377.832 337.185L378.99 329.726L380.147 320.682L381.304 309.96L384.776 272.386L385.934 259.599L387.091 244.857L388.249 226.513L392.878 142.242L394.035 125.722L395.193 112.379L396.35 102.407L397.507 95.2832L398.665 90.1926L399.822 87.2744L400.98 87.8247L402.137 93.0573L403.294 102.971L404.452 116.755L405.609 133.648L407.924 172.986L413.711 276.365L417.183 322.587L419.497 349.013L420.655 360.484L421.812 370.411L422.969 378.107L424.127 383.311L425.284 386.656L428.756 394.401L431.071 400.253L432.228 402.486L433.386 404.117L434.543 405.297L438.015 408.051L439.173 408.628L441.487 409L447.274 409.685L460.005 409.995L463.477 410.086L470.421 410.012L476.208 410.112L522.503 410.111" fill="#EFEFEF" fill-opacity="0.4"/>
<path d="M292.188 410.111L310.705 409.953L314.177 409.752L319.964 409.804L323.436 409.736L328.066 409.777L335.01 409.197L337.325 408.982L339.639 408.929L341.954 408.571L345.426 407.664L348.898 406.454L351.213 406.254L352.37 405.905L353.528 405.176L355.842 403.033L361.629 397.363L362.787 395.514L365.101 390.392L367.416 384.799L369.731 377.938L370.888 373.969L372.045 369.194L373.203 363.099L375.518 349.607L377.832 337.185L378.99 329.726L380.147 320.682L381.304 309.96L384.776 272.386L385.934 259.599L387.091 244.857L388.249 226.513L392.878 142.242L394.035 125.722L395.193 112.379L396.35 102.407L397.507 95.2832L398.665 90.1926L399.822 87.2744L400.98 87.8247L402.137 93.0573L403.294 102.971L404.452 116.755L405.609 133.648L407.924 172.986L413.711 276.365L417.183 322.587L419.497 349.013L420.655 360.484L421.812 370.411L422.969 378.107L424.127 383.311L425.284 386.656L428.756 394.401L431.071 400.253L432.228 402.486L433.386 404.117L434.543 405.297L438.015 408.051L439.173 408.628L441.487 409L447.274 409.685L460.005 409.995L463.477 410.086L470.421 410.012L476.208 410.112L522.503 410.111" stroke="#EFEFEF" stroke-linecap="square"/>
</g>
<mask id="mask4_230_13038" style="mask-type:luminance" maskUnits="userSpaceOnUse" x="76" y="55" width="477" height="356">
<path d="M552.957 55.2959H76.7969V410.112H552.957V55.2959Z" fill="white"/>
</mask>
<g mask="url(#mask4_230_13038)">
<path d="M299.859 410.111L319.534 409.94L328.853 409.731L337.137 410.024L340.243 410.028L347.492 409.351L350.598 409.076L353.705 409.061L359.918 408.254L361.989 407.928L364.06 407.117L367.166 405.662L370.273 404.476L371.308 403.881L372.344 403.061L374.415 400.888L376.486 398.159L378.557 395.47L379.592 394.619L381.663 393.535L382.699 392.505L383.734 390.725L388.912 378.977L389.947 375.927L392.018 367.746L394.089 358.295L395.124 352.97L397.195 340.036L400.302 320.025L402.373 307.539L404.444 292.807L406.515 274.041L408.586 254.528L410.657 238.119L413.763 216.488L415.834 197.656L418.941 165.906L421.012 147.143L423.083 130.553L424.118 123.881L425.154 119.335L426.189 117.622L427.225 118.811L428.26 122.47L429.296 128.539L430.331 137.836L431.367 151.243L433.438 187.911L438.615 288.902L440.686 321.401L442.757 347.876L444.828 368.347L445.863 376.437L446.899 383.306L447.934 389.04L448.97 393.728L450.005 397.502L451.041 400.509L452.076 402.859L453.112 404.64L454.147 405.949L455.183 406.896L457.254 408.105L459.325 408.791L461.396 409.058L464.502 409.259L467.609 409.636L477.964 410.053L482.106 409.949L487.283 410.021L505.922 410.111" fill="#EFEFEF" fill-opacity="0.4"/>
<path d="M299.859 410.111L319.534 409.94L328.853 409.731L337.137 410.024L340.243 410.028L347.492 409.351L350.598 409.076L353.705 409.061L359.918 408.254L361.989 407.928L364.06 407.117L367.166 405.662L370.273 404.476L371.308 403.881L372.344 403.061L374.415 400.888L376.486 398.159L378.557 395.47L379.592 394.619L381.663 393.535L382.699 392.505L383.734 390.725L388.912 378.977L389.947 375.927L392.018 367.746L394.089 358.295L395.124 352.97L397.195 340.036L400.302 320.025L402.373 307.539L404.444 292.807L406.515 274.041L408.586 254.528L410.657 238.119L413.763 216.488L415.834 197.656L418.941 165.906L421.012 147.143L423.083 130.553L424.118 123.881L425.154 119.335L426.189 117.622L427.225 118.811L428.26 122.47L429.296 128.539L430.331 137.836L431.367 151.243L433.438 187.911L438.615 288.902L440.686 321.401L442.757 347.876L444.828 368.347L445.863 376.437L446.899 383.306L447.934 389.04L448.97 393.728L450.005 397.502L451.041 400.509L452.076 402.859L453.112 404.64L454.147 405.949L455.183 406.896L457.254 408.105L459.325 408.791L461.396 409.058L464.502 409.259L467.609 409.636L477.964 410.053L482.106 409.949L487.283 410.021L505.922 410.111" stroke="#EFEFEF" stroke-linecap="square"/>
</g>
<mask id="mask5_230_13038" style="mask-type:luminance" maskUnits="userSpaceOnUse" x="76" y="55" width="477" height="356">
<path d="M552.957 55.2959H76.7969V410.112H552.957V55.2959Z" fill="white"/>
</mask>
<g mask="url(#mask5_230_13038)">
<path d="M287.773 410.111L328.974 409.912L334.541 409.607L340.109 409.744L350.13 409.236L352.358 408.974L355.698 408.087L364.606 405.513L366.833 404.969L367.947 404.541L369.06 403.951L370.174 403.184L371.287 402.205L372.401 400.942L373.514 399.331L375.741 395.197L379.082 387.955L381.309 382.334L383.536 375.509L385.763 367.207L387.99 357.192L390.217 344.438L403.579 255.713L405.806 244.127L411.374 217.644L412.487 213.779L413.601 210.817L414.715 208.659L415.828 207.246L416.942 206.527L418.055 206.377L419.169 206.661L420.282 207.418L421.396 208.906L422.509 211.417L423.623 215.021L425.85 224.613L428.077 236.159L430.304 250.028L434.758 281.582L438.098 304.793L440.325 317.214L443.666 334.191L447.007 352.203L449.234 361.915L451.461 369.548L454.801 379.831L457.028 385.93L459.255 391.13L460.369 393.347L461.482 395.218L462.596 396.707L463.709 397.859L465.936 399.568L468.163 401.173L473.731 405.805L475.958 407.025L479.299 408.451L481.526 409.072L484.866 409.625L488.207 409.649L491.547 409.757L496.001 409.96L506.023 410.093L509.364 410.111" fill="#EFEFEF" fill-opacity="0.4"/>
<path d="M287.773 410.111L328.974 409.912L334.541 409.607L340.109 409.744L350.13 409.236L352.358 408.974L355.698 408.087L364.606 405.513L366.833 404.969L367.947 404.541L369.06 403.951L370.174 403.184L371.287 402.205L372.401 400.942L373.514 399.331L375.741 395.197L379.082 387.955L381.309 382.334L383.536 375.509L385.763 367.207L387.99 357.192L390.217 344.438L403.579 255.713L405.806 244.127L411.374 217.644L412.487 213.779L413.601 210.817L414.715 208.659L415.828 207.246L416.942 206.527L418.055 206.377L419.169 206.661L420.282 207.418L421.396 208.906L422.509 211.417L423.623 215.021L425.85 224.613L428.077 236.159L430.304 250.028L434.758 281.582L438.098 304.793L440.325 317.214L443.666 334.191L447.007 352.203L449.234 361.915L451.461 369.548L454.801 379.831L457.028 385.93L459.255 391.13L460.369 393.347L461.482 395.218L462.596 396.707L463.709 397.859L465.936 399.568L468.163 401.173L473.731 405.805L475.958 407.025L479.299 408.451L481.526 409.072L484.866 409.625L488.207 409.649L491.547 409.757L496.001 409.96L506.023 410.093L509.364 410.111" stroke="#EFEFEF" stroke-linecap="square"/>
</g>
<mask id="mask6_230_13038" style="mask-type:luminance" maskUnits="userSpaceOnUse" x="76" y="55" width="477" height="356">
<path d="M552.957 55.2959H76.7969V410.112H552.957V55.2959Z" fill="white"/>
</mask>
<g mask="url(#mask6_230_13038)">
<path d="M257.906 410.112L288.125 409.916L292.774 410.001L297.423 410.041L302.072 409.978L306.721 409.962L311.37 409.843L317.181 409.848L324.155 409.518L328.804 409.133L333.453 408.826L335.778 408.318L336.94 407.834L338.102 407.176L339.264 406.327L340.427 405.247L341.589 403.878L342.751 402.146L343.913 399.927L345.076 397.005L346.238 393.091L347.4 387.921L348.562 381.364L349.725 373.449L352.049 354.245L355.536 321.334L360.185 276.529L362.51 257.34L363.672 249.168L364.834 242.064L365.996 236.141L367.159 231.396L368.321 227.725L369.483 225.058L370.645 223.362L371.808 222.522L372.97 222.396L374.132 223.032L375.294 224.635L376.457 227.165L378.781 232.58L379.943 234.427L381.106 235.985L382.268 237.864L383.43 240.318L386.917 248.592L388.079 251.051L389.241 253.156L390.404 254.63L391.566 255.394L392.728 255.819L393.891 256.538L395.053 257.995L396.215 260.246L397.377 263.15L398.54 266.622L399.702 270.681L402.026 280.58L404.351 292.528L406.675 306.099L411.324 334.837L413.649 346.857L417.136 364.094L420.622 382.169L421.785 387.358L422.947 391.765L424.109 395.424L425.272 398.482L426.434 401.091L427.596 403.323L428.758 405.174L429.921 406.623L431.083 407.696L432.245 408.456L433.407 408.975L435.732 409.517L438.056 409.69L443.868 409.94L447.354 410.087L452.003 409.941L455.49 409.87L461.302 409.914L465.951 409.937L478.735 410.073L485.709 410.092L489.196 410.112" fill="#EFEFEF" fill-opacity="0.4"/>
<path d="M257.906 410.112L288.125 409.916L292.774 410.001L297.423 410.041L302.072 409.978L306.721 409.962L311.37 409.843L317.181 409.848L324.155 409.518L328.804 409.133L333.453 408.826L335.778 408.318L336.94 407.834L338.102 407.176L339.264 406.327L340.427 405.247L341.589 403.878L342.751 402.146L343.913 399.927L345.076 397.005L346.238 393.091L347.4 387.921L348.562 381.364L349.725 373.449L352.049 354.245L355.536 321.334L360.185 276.529L362.51 257.34L363.672 249.168L364.834 242.064L365.996 236.141L367.159 231.396L368.321 227.725L369.483 225.058L370.645 223.362L371.808 222.522L372.97 222.396L374.132 223.032L375.294 224.635L376.457 227.165L378.781 232.58L379.943 234.427L381.106 235.985L382.268 237.864L383.43 240.318L386.917 248.592L388.079 251.051L389.241 253.156L390.404 254.63L391.566 255.394L392.728 255.819L393.891 256.538L395.053 257.995L396.215 260.246L397.377 263.15L398.54 266.622L399.702 270.681L402.026 280.58L404.351 292.528L406.675 306.099L411.324 334.837L413.649 346.857L417.136 364.094L420.622 382.169L421.785 387.358L422.947 391.765L424.109 395.424L425.272 398.482L426.434 401.091L427.596 403.323L428.758 405.174L429.921 406.623L431.083 407.696L432.245 408.456L433.407 408.975L435.732 409.517L438.056 409.69L443.868 409.94L447.354 410.087L452.003 409.941L455.49 409.87L461.302 409.914L465.951 409.937L478.735 410.073L485.709 410.092L489.196 410.112" stroke="#EFEFEF" stroke-linecap="square"/>
</g>
<mask id="mask7_230_13038" style="mask-type:luminance" maskUnits="userSpaceOnUse" x="76" y="55" width="477" height="356">
<path d="M552.957 55.2959H76.7969V410.112H552.957V55.2959Z" fill="white"/>
</mask>
<g mask="url(#mask7_230_13038)">
<path d="M288.883 410.11L317.659 409.88L322.798 409.448L335.131 409.431L337.186 409.218L339.242 408.845L345.408 408.503L347.464 408.347L349.519 407.757L351.575 407.099L353.63 406.728L356.713 406.488L359.797 406.555L360.824 406.406L361.852 406.046L362.88 405.361L365.963 402.259L369.046 400.345L371.102 398.073L373.157 395.409L374.185 393.781L375.213 391.662L376.24 388.903L378.296 381.688L380.351 372.692L382.407 362.102L384.462 349.984L386.518 335.596L388.573 318.703L390.629 298.153L392.684 272.901L395.767 231.18L399.878 170.9L402.961 133.05L403.989 121.935L405.017 112.703L406.045 105.822L407.072 100.729L409.128 92.5707L410.156 90.1533L411.183 90.694L412.211 95.6204L413.239 105.738L414.267 120.801L416.322 159.998L421.461 261.613L423.516 293.179L425.572 318.974L427.627 339.832L429.683 357.402L430.71 364.932L431.738 371.21L433.794 380.843L435.849 388.485L436.877 391.721L437.904 394.401L438.932 396.413L440.988 399.193L444.071 403.006L447.154 405.909L449.21 407.335L451.265 408.174L453.32 408.685L458.459 409.57L465.653 409.877L476.958 410.04L481.069 409.961L486.208 410.033L490.319 410.075L493.402 410.11" fill="#EFEFEF" fill-opacity="0.4"/>
<path d="M288.883 410.11L317.659 409.88L322.798 409.448L335.131 409.431L337.186 409.218L339.242 408.845L345.408 408.503L347.464 408.347L349.519 407.757L351.575 407.099L353.63 406.728L356.713 406.488L359.797 406.555L360.824 406.406L361.852 406.046L362.88 405.361L365.963 402.259L369.046 400.345L371.102 398.073L373.157 395.409L374.185 393.781L375.213 391.662L376.24 388.903L378.296 381.688L380.351 372.692L382.407 362.102L384.462 349.984L386.518 335.596L388.573 318.703L390.629 298.153L392.684 272.901L395.767 231.18L399.878 170.9L402.961 133.05L403.989 121.935L405.017 112.703L406.045 105.822L407.072 100.729L409.128 92.5707L410.156 90.1533L411.183 90.694L412.211 95.6204L413.239 105.738L414.267 120.801L416.322 159.998L421.461 261.613L423.516 293.179L425.572 318.974L427.627 339.832L429.683 357.402L430.71 364.932L431.738 371.21L433.794 380.843L435.849 388.485L436.877 391.721L437.904 394.401L438.932 396.413L440.988 399.193L444.071 403.006L447.154 405.909L449.21 407.335L451.265 408.174L453.32 408.685L458.459 409.57L465.653 409.877L476.958 410.04L481.069 409.961L486.208 410.033L490.319 410.075L493.402 410.11" stroke="#EFEFEF" stroke-linecap="square"/>
</g>
<mask id="mask8_230_13038" style="mask-type:luminance" maskUnits="userSpaceOnUse" x="76" y="55" width="477" height="356">
<path d="M552.957 55.2959H76.7969V410.112H552.957V55.2959Z" fill="white"/>
</mask>
<g mask="url(#mask8_230_13038)">
<path d="M291.672 410.111L302.181 409.932L306.851 409.769L323.199 409.846L325.534 409.405L327.869 409.438L330.205 409.521L343.049 408.706L346.552 407.835L348.887 407.874L350.055 407.701L351.223 407.215L353.558 405.942L357.061 404.627L358.229 404.347L360.564 404.078L361.732 403.65L365.235 401.678L366.402 401.08L367.57 399.964L371.073 394.69L372.241 393.808L373.408 393.185L374.576 392.251L375.743 390.789L376.911 388.889L379.246 384.27L380.414 381.548L381.582 378.245L382.749 373.615L383.917 366.627L385.085 356.522L386.252 343.084L387.42 326.328L388.588 306.286L389.755 283.016L392.091 227.599L394.426 171.152L396.761 124.453L397.929 103.72L399.097 86.9453L400.264 76.3107L401.432 72.1924L402.6 73.5905L403.767 78.9589L406.103 95.2769L408.438 112.55L409.606 123.098L410.773 137.753L416.612 229.43L423.618 325.346L424.785 339.464L425.953 351.117L428.288 369.952L429.456 377.85L430.624 384.534L431.791 390.04L432.959 394.461L434.127 397.777L435.294 400.021L439.965 405.912L441.133 407.196L442.3 408.055L443.468 408.411L446.971 408.386L450.474 409.236L456.312 409.713L459.815 409.426L465.653 410.054L473.827 409.95L478.498 409.995L485.504 410.085L489.007 410.022L492.51 409.952L499.516 410.112L506.522 409.993L508.857 409.919L514.695 410.1L521.701 410.089L524.036 410.111" fill="#EFEFEF" fill-opacity="0.4"/>
<path d="M291.672 410.111L302.181 409.932L306.851 409.769L323.199 409.846L325.534 409.405L327.869 409.438L330.205 409.521L343.049 408.706L346.552 407.835L348.887 407.874L350.055 407.701L351.223 407.215L353.558 405.942L357.061 404.627L358.229 404.347L360.564 404.078L361.732 403.65L365.235 401.678L366.402 401.08L367.57 399.964L371.073 394.69L372.241 393.808L373.408 393.185L374.576 392.251L375.743 390.789L376.911 388.889L379.246 384.27L380.414 381.548L381.582 378.245L382.749 373.615L383.917 366.627L385.085 356.522L386.252 343.084L387.42 326.328L388.588 306.286L389.755 283.016L392.091 227.599L394.426 171.152L396.761 124.453L397.929 103.72L399.097 86.9453L400.264 76.3107L401.432 72.1924L402.6 73.5905L403.767 78.9589L406.103 95.2769L408.438 112.55L409.606 123.098L410.773 137.753L416.612 229.43L423.618 325.346L424.785 339.464L425.953 351.117L428.288 369.952L429.456 377.85L430.624 384.534L431.791 390.04L432.959 394.461L434.127 397.777L435.294 400.021L439.965 405.912L441.133 407.196L442.3 408.055L443.468 408.411L446.971 408.386L450.474 409.236L456.312 409.713L459.815 409.426L465.653 410.054L473.827 409.95L478.498 409.995L485.504 410.085L489.007 410.022L492.51 409.952L499.516 410.112L506.522 409.993L508.857 409.919L514.695 410.1L521.701 410.089L524.036 410.111" stroke="#EFEFEF" stroke-linecap="square"/>
</g>
<mask id="mask9_230_13038" style="mask-type:luminance" maskUnits="userSpaceOnUse" x="76" y="55" width="477" height="356">
<path d="M552.957 55.2959H76.7969V410.112H552.957V55.2959Z" fill="white"/>
</mask>
<g mask="url(#mask9_230_13038)">
<path d="M279.766 410.11L313.24 409.87L316.826 409.769L320.413 409.759L326.39 409.532L328.781 409.399L332.368 408.733L334.759 408.737L337.15 408.943L339.541 408.611L344.323 407.523L349.105 406.004L350.3 405.123L352.691 402.265L356.277 397.708L357.473 395.633L358.668 392.961L359.864 389.598L362.255 381.163L364.646 371.243L365.841 365.207L367.037 358.056L368.232 349.632L369.428 339.599L370.623 327.671L374.21 286.23L377.796 245.518L380.187 219.671L383.774 174.47L384.969 162.158L386.165 153.077L387.36 146.623L388.556 142.012L389.751 139.538L390.947 139.768L392.142 142.179L393.338 145.827L394.533 150.889L395.729 157.883L399.315 183.192L400.511 194.072L401.706 207.402L405.293 252.464L410.075 298.025L412.466 323.407L414.857 344.127L417.248 361.008L418.443 368.202L419.639 374.219L420.834 379.056L423.225 386.921L425.616 393.935L426.812 396.563L429.203 400.702L430.398 402.619L431.594 404.219L432.789 405.325L433.985 405.983L439.962 407.984L442.353 408.513L447.135 409.118L450.722 409.296L454.308 409.743L456.699 409.77L460.286 409.611L465.068 409.894L468.654 409.821L474.632 410.101L517.67 410.11" fill="#EFEFEF" fill-opacity="0.4"/>
<path d="M279.766 410.11L313.24 409.87L316.826 409.769L320.413 409.759L326.39 409.532L328.781 409.399L332.368 408.733L334.759 408.737L337.15 408.943L339.541 408.611L344.323 407.523L349.105 406.004L350.3 405.123L352.691 402.265L356.277 397.708L357.473 395.633L358.668 392.961L359.864 389.598L362.255 381.163L364.646 371.243L365.841 365.207L367.037 358.056L368.232 349.632L369.428 339.599L370.623 327.671L374.21 286.23L377.796 245.518L380.187 219.671L383.774 174.47L384.969 162.158L386.165 153.077L387.36 146.623L388.556 142.012L389.751 139.538L390.947 139.768L392.142 142.179L393.338 145.827L394.533 150.889L395.729 157.883L399.315 183.192L400.511 194.072L401.706 207.402L405.293 252.464L410.075 298.025L412.466 323.407L414.857 344.127L417.248 361.008L418.443 368.202L419.639 374.219L420.834 379.056L423.225 386.921L425.616 393.935L426.812 396.563L429.203 400.702L430.398 402.619L431.594 404.219L432.789 405.325L433.985 405.983L439.962 407.984L442.353 408.513L447.135 409.118L450.722 409.296L454.308 409.743L456.699 409.77L460.286 409.611L465.068 409.894L468.654 409.821L474.632 410.101L517.67 410.11" stroke="#EFEFEF" stroke-linecap="square"/>
</g>
<mask id="mask10_230_13038" style="mask-type:luminance" maskUnits="userSpaceOnUse" x="76" y="55" width="477" height="356">
<path d="M552.957 55.2959H76.7969V410.112H552.957V55.2959Z" fill="white"/>
</mask>
<g mask="url(#mask10_230_13038)">
<path d="M285.305 410.111L291.486 409.95L296.431 409.925L305.084 409.995L310.029 410.088L332.281 409.514L334.754 409.094L337.226 408.266L343.407 405.627L347.116 402.995L348.352 402.025L349.588 400.859L352.061 397.751L355.77 392.432L357.006 390.297L358.242 387.726L363.187 375.639L365.659 371.634L366.896 369.523L368.132 366.584L369.368 362.639L375.549 339.691L376.785 334.288L379.258 321.289L381.73 306.702L382.967 298.628L385.439 279.414L387.911 259.392L390.384 241.987L392.856 226.326L394.093 219.812L396.565 209.619L402.746 185.043L403.982 181.085L405.219 178.055L407.691 173.21L408.927 171.586L410.164 171.79L411.4 174.584L412.636 180.533L413.872 190.282L415.108 203.92L417.581 238.695L421.29 297.741L423.762 336.703L424.998 353.635L426.234 367.911L427.471 379.385L428.707 388.291L429.943 394.998L431.179 399.878L432.416 403.263L433.652 405.47L434.888 406.84L436.124 407.716L437.361 408.34L438.597 408.796L441.069 409.238L454.668 409.869L463.321 409.991L468.266 410.111L531.314 410.111" fill="#EFEFEF" fill-opacity="0.4"/>
<path d="M285.305 410.111L291.486 409.95L296.431 409.925L305.084 409.995L310.029 410.088L332.281 409.514L334.754 409.094L337.226 408.266L343.407 405.627L347.116 402.995L348.352 402.025L349.588 400.859L352.061 397.751L355.77 392.432L357.006 390.297L358.242 387.726L363.187 375.639L365.659 371.634L366.896 369.523L368.132 366.584L369.368 362.639L375.549 339.691L376.785 334.288L379.258 321.289L381.73 306.702L382.967 298.628L385.439 279.414L387.911 259.392L390.384 241.987L392.856 226.326L394.093 219.812L396.565 209.619L402.746 185.043L403.982 181.085L405.219 178.055L407.691 173.21L408.927 171.586L410.164 171.79L411.4 174.584L412.636 180.533L413.872 190.282L415.108 203.92L417.581 238.695L421.29 297.741L423.762 336.703L424.998 353.635L426.234 367.911L427.471 379.385L428.707 388.291L429.943 394.998L431.179 399.878L432.416 403.263L433.652 405.47L434.888 406.84L436.124 407.716L437.361 408.34L438.597 408.796L441.069 409.238L454.668 409.869L463.321 409.991L468.266 410.111L531.314 410.111" stroke="#EFEFEF" stroke-linecap="square"/>
</g>
<mask id="mask11_230_13038" style="mask-type:luminance" maskUnits="userSpaceOnUse" x="76" y="55" width="477" height="356">
<path d="M552.957 55.2959H76.7969V410.112H552.957V55.2959Z" fill="white"/>
</mask>
<g mask="url(#mask11_230_13038)">
<path d="M272.805 410.111L288.258 409.983L301.334 409.46L304.9 409.382L307.278 408.991L313.221 407.559L317.976 406.063L321.542 405.358L323.92 404.549L326.297 403.404L328.675 401.639L333.43 397.749L334.618 396.411L335.807 394.75L338.184 390.706L341.751 384.263L342.939 381.812L344.128 378.91L345.317 375.423L347.694 366.725L351.26 352.018L352.449 346.485L353.638 339.887L356.015 323.263L359.581 296.816L366.714 246.187L370.28 226.594L373.846 207.443L375.035 202.411L376.224 198.431L377.412 195.473L378.601 193.55L379.79 192.756L380.978 193.253L382.167 195.231L383.356 198.748L384.545 203.571L386.922 215.408L389.3 229.04L391.677 244.53L394.054 261.627L397.621 290.465L399.998 309.076L402.376 325.298L404.753 339.282L408.319 357.139L411.885 374.363L413.074 378.892L414.263 382.538L416.64 388.331L419.018 393.657L420.206 396.021L421.395 397.998L422.584 399.588L424.961 402.064L427.339 404.144L429.716 405.894L432.094 407.188L434.471 407.936L438.037 408.567L441.603 408.985L453.491 409.877L499.851 410.054L506.983 410.103L509.361 410.111" fill="#EFEFEF" fill-opacity="0.4"/>
<path d="M272.805 410.111L288.258 409.983L301.334 409.46L304.9 409.382L307.278 408.991L313.221 407.559L317.976 406.063L321.542 405.358L323.92 404.549L326.297 403.404L328.675 401.639L333.43 397.749L334.618 396.411L335.807 394.75L338.184 390.706L341.751 384.263L342.939 381.812L344.128 378.91L345.317 375.423L347.694 366.725L351.26 352.018L352.449 346.485L353.638 339.887L356.015 323.263L359.581 296.816L366.714 246.187L370.28 226.594L373.846 207.443L375.035 202.411L376.224 198.431L377.412 195.473L378.601 193.55L379.79 192.756L380.978 193.253L382.167 195.231L383.356 198.748L384.545 203.571L386.922 215.408L389.3 229.04L391.677 244.53L394.054 261.627L397.621 290.465L399.998 309.076L402.376 325.298L404.753 339.282L408.319 357.139L411.885 374.363L413.074 378.892L414.263 382.538L416.64 388.331L419.018 393.657L420.206 396.021L421.395 397.998L422.584 399.588L424.961 402.064L427.339 404.144L429.716 405.894L432.094 407.188L434.471 407.936L438.037 408.567L441.603 408.985L453.491 409.877L499.851 410.054L506.983 410.103L509.361 410.111" stroke="#EFEFEF" stroke-linecap="square"/>
</g>
<mask id="mask12_230_13038" style="mask-type:luminance" maskUnits="userSpaceOnUse" x="76" y="55" width="477" height="356">
<path d="M552.957 55.2959H76.7969V410.112H552.957V55.2959Z" fill="white"/>
</mask>
<g mask="url(#mask12_230_13038)">
<path d="M323.008 410.111L331.649 409.944L335.105 409.685L337.697 409.434L339.426 409.515L342.882 409.861L345.474 409.838L348.067 409.49L350.659 409.085L354.115 408.667L357.572 407.867L359.3 407.172L363.62 404.988L364.484 404.327L365.349 403.381L371.397 394.776L373.125 390.239L374.854 384.721L376.582 378.13L378.31 369.42L380.902 353.992L382.63 341.333L384.359 325.038L386.087 304.369L390.407 243.798L395.592 166.748L397.32 140.976L398.184 131.373L399.048 124.692L399.912 120.505L400.777 117.874L403.369 111.784L404.233 110.216L405.097 110.189L405.961 112.742L406.825 118.215L408.553 135.07L412.01 174.458L414.602 207.921L418.058 255.402L421.515 293.088L425.835 338.964L427.564 354.289L429.292 367.161L431.02 377.812L431.884 381.801L433.612 387.585L437.933 399.828L438.797 401.498L439.661 402.661L441.389 404.048L443.117 405.478L444.845 407.005L446.574 407.876L449.166 408.612L451.758 409.045L460.399 409.801L468.176 410.052L472.497 410.085L477.681 410.057L482.002 410.02L490.643 410.029L494.963 410.111" fill="#EFEFEF" fill-opacity="0.4"/>
<path d="M323.008 410.111L331.649 409.944L335.105 409.685L337.697 409.434L339.426 409.515L342.882 409.861L345.474 409.838L348.067 409.49L350.659 409.085L354.115 408.667L357.572 407.867L359.3 407.172L363.62 404.988L364.484 404.327L365.349 403.381L371.397 394.776L373.125 390.239L374.854 384.721L376.582 378.13L378.31 369.42L380.902 353.992L382.63 341.333L384.359 325.038L386.087 304.369L390.407 243.798L395.592 166.748L397.32 140.976L398.184 131.373L399.048 124.692L399.912 120.505L400.777 117.874L403.369 111.784L404.233 110.216L405.097 110.189L405.961 112.742L406.825 118.215L408.553 135.07L412.01 174.458L414.602 207.921L418.058 255.402L421.515 293.088L425.835 338.964L427.564 354.289L429.292 367.161L431.02 377.812L431.884 381.801L433.612 387.585L437.933 399.828L438.797 401.498L439.661 402.661L441.389 404.048L443.117 405.478L444.845 407.005L446.574 407.876L449.166 408.612L451.758 409.045L460.399 409.801L468.176 410.052L472.497 410.085L477.681 410.057L482.002 410.02L490.643 410.029L494.963 410.111" stroke="#EFEFEF" stroke-linecap="square"/>
</g>
<mask id="mask13_230_13038" style="mask-type:luminance" maskUnits="userSpaceOnUse" x="76" y="55" width="477" height="356">
<path d="M552.957 55.2959H76.7969V410.112H552.957V55.2959Z" fill="white"/>
</mask>
<g mask="url(#mask13_230_13038)">
<path d="M266.914 410.111L272.968 409.977L279.021 409.756L288.707 409.758L292.339 409.602L300.814 409.527L303.236 409.115L306.868 408.199L312.922 407.665L316.554 406.923L318.975 406.574L321.397 405.821L327.45 403.306L332.293 400.077L333.504 399.058L334.715 397.684L337.136 393.961L339.557 389.621L340.768 386.747L341.979 382.984L343.19 378.274L344.4 372.63L345.611 365.823L346.822 357.229L348.033 346.019L349.243 331.552L350.454 313.641L352.875 269.026L357.718 172.222L360.14 132.977L361.351 117.757L362.561 107.077L363.772 101.955L364.983 102.526L366.193 108.154L367.404 117.98L368.615 131.197L371.036 163.927L373.458 197.943L375.879 228.255L378.301 254.736L380.722 277.615L383.144 296.926L387.986 332.229L390.408 346.818L391.619 352.482L392.829 356.924L394.04 360.342L396.462 365.419L398.883 370.51L401.304 376.182L402.515 378.604L403.726 380.597L407.358 385.596L410.99 391.665L412.201 393.132L414.622 395.377L417.044 397.346L418.255 398.142L420.676 399.19L423.097 400.132L424.308 400.874L426.73 402.969L429.151 405.224L430.362 406.098L431.573 406.702L432.783 407.058L438.837 408.082L442.469 409.073L444.891 409.475L447.312 409.675L478.791 410.032L499.373 410.043L507.848 410.111" fill="#EFEFEF" fill-opacity="0.4"/>
<path d="M266.914 410.111L272.968 409.977L279.021 409.756L288.707 409.758L292.339 409.602L300.814 409.527L303.236 409.115L306.868 408.199L312.922 407.665L316.554 406.923L318.975 406.574L321.397 405.821L327.45 403.306L332.293 400.077L333.504 399.058L334.715 397.684L337.136 393.961L339.557 389.621L340.768 386.747L341.979 382.984L343.19 378.274L344.4 372.63L345.611 365.823L346.822 357.229L348.033 346.019L349.243 331.552L350.454 313.641L352.875 269.026L357.718 172.222L360.14 132.977L361.351 117.757L362.561 107.077L363.772 101.955L364.983 102.526L366.193 108.154L367.404 117.98L368.615 131.197L371.036 163.927L373.458 197.943L375.879 228.255L378.301 254.736L380.722 277.615L383.144 296.926L387.986 332.229L390.408 346.818L391.619 352.482L392.829 356.924L394.04 360.342L396.462 365.419L398.883 370.51L401.304 376.182L402.515 378.604L403.726 380.597L407.358 385.596L410.99 391.665L412.201 393.132L414.622 395.377L417.044 397.346L418.255 398.142L420.676 399.19L423.097 400.132L424.308 400.874L426.73 402.969L429.151 405.224L430.362 406.098L431.573 406.702L432.783 407.058L438.837 408.082L442.469 409.073L444.891 409.475L447.312 409.675L478.791 410.032L499.373 410.043L507.848 410.111" stroke="#EFEFEF" stroke-linecap="square"/>
</g>
<mask id="mask14_230_13038" style="mask-type:luminance" maskUnits="userSpaceOnUse" x="76" y="55" width="477" height="356">
<path d="M552.957 55.2959H76.7969V410.112H552.957V55.2959Z" fill="white"/>
</mask>
<g mask="url(#mask14_230_13038)">
<path d="M98.4375 410.111L232.094 409.944L238.458 409.484L244.823 408.881L246.945 408.524L251.188 407.365L255.431 405.799L259.674 403.837L263.917 401.208L272.403 395.437L278.768 390.5L285.132 386.623L291.497 381.567L302.104 374.835L304.226 373.281L306.347 371.507L308.469 369.39L310.591 366.855L312.712 363.85L314.834 360.255L316.955 355.845L319.077 350.401L321.198 343.871L323.32 336.34L325.441 327.937L333.927 291.926L336.049 284.254L338.17 277.497L340.292 271.792L342.413 267.438L344.535 264.825L346.657 264.231L348.778 265.637L350.9 268.677L353.021 272.766L357.264 282.1L359.386 287.091L361.507 292.559L363.629 298.739L365.75 305.693L372.115 327.82L374.236 334.024L378.479 344.771L382.723 354.45L389.087 367.733L393.33 376.173L395.452 379.919L397.573 383.228L403.938 391.939L406.059 394.657L408.181 397.063L410.302 399.101L414.546 402.429L418.789 405.091L420.91 406.145L423.032 407.01L425.153 407.687L427.275 408.168L431.518 408.668L446.368 409.75L471.827 410.11L520.622 410.111" fill="#7EB0D5" fill-opacity="0.4"/>
<path d="M98.4375 410.111L232.094 409.944L238.458 409.484L244.823 408.881L246.945 408.524L251.188 407.365L255.431 405.799L259.674 403.837L263.917 401.208L272.403 395.437L278.768 390.5L285.132 386.623L291.497 381.567L302.104 374.835L304.226 373.281L306.347 371.507L308.469 369.39L310.591 366.855L312.712 363.85L314.834 360.255L316.955 355.845L319.077 350.401L321.198 343.871L323.32 336.34L325.441 327.937L333.927 291.926L336.049 284.254L338.17 277.497L340.292 271.792L342.413 267.438L344.535 264.825L346.657 264.231L348.778 265.637L350.9 268.677L353.021 272.766L357.264 282.1L359.386 287.091L361.507 292.559L363.629 298.739L365.75 305.693L372.115 327.82L374.236 334.024L378.479 344.771L382.723 354.45L389.087 367.733L393.33 376.173L395.452 379.919L397.573 383.228L403.938 391.939L406.059 394.657L408.181 397.063L410.302 399.101L414.546 402.429L418.789 405.091L420.91 406.145L423.032 407.01L425.153 407.687L427.275 408.168L431.518 408.668L446.368 409.75L471.827 410.11L520.622 410.111" stroke="#7EB0D5" stroke-linecap="square"/>
</g>
<path d="M535.061 411.061C535.646 410.475 535.646 409.525 535.061 408.939L525.515 399.393C524.929 398.808 523.979 398.808 523.393 399.393C522.808 399.979 522.808 400.929 523.393 401.515L531.879 410L523.393 418.485C522.808 419.071 522.808 420.021 523.393 420.607C523.979 421.192 524.929 421.192 525.515 420.607L535.061 411.061ZM79 411.5H534V408.5H79V411.5Z" fill="black"/>
</g>
<defs>
<clipPath id="clip0_230_13038">
<rect width="614.4" height="460.8" fill="white"/>
</clipPath>
</defs>
</svg>
