<svg width="615" height="461" viewBox="0 0 615 461" fill="none" xmlns="http://www.w3.org/2000/svg">
<g clip-path="url(#clip0_230_13198)">
<mask id="mask0_230_13198" style="mask-type:luminance" maskUnits="userSpaceOnUse" x="76" y="55" width="477" height="356">
<path d="M552.957 55.2959H76.7969V410.112H552.957V55.2959Z" fill="white"/>
</mask>
<g mask="url(#mask0_230_13198)">
<path d="M299.141 410.111L308.977 409.958L316.846 409.863L327.665 409.739L330.616 409.509L336.518 408.876L340.452 408.627L345.37 407.737L351.272 406.349L353.239 406.277L354.223 406.102L355.206 405.716L357.174 404.342L360.125 401.619L362.092 399.318L366.026 393.803L367.993 390.715L369.961 386.865L371.928 382.105L373.895 376.305L375.862 369.669L377.829 361.637L378.813 356.547L380.78 343.757L385.698 308.352L387.666 294.919L389.633 278.554L395.534 222.452L397.502 203.592L401.436 168.152L403.403 149.327L404.387 140.945L405.371 133.879L406.354 128.363L407.338 124.418L408.321 121.889L409.305 120.519L410.289 120.028L411.272 120.17L412.256 120.826L413.239 122.111L414.223 124.377L415.207 128.001L416.19 133.085L422.092 169.695L423.076 177.575L424.059 187.633L431.928 281.726L433.895 302.942L435.863 321.025L437.83 336.976L439.797 350.185L441.764 360.247L445.699 377.157L448.649 388.822L449.633 392.066L450.617 394.786L451.6 396.95L452.584 398.61L454.551 400.929L458.486 404.591L460.453 406.112L462.42 407.164L466.354 408.639L468.322 409.084L480.125 410.008L494.879 410.111" fill="#EFEFEF" fill-opacity="0.4"/>
<path d="M299.141 410.111L308.977 409.958L316.846 409.863L327.665 409.739L330.616 409.509L336.518 408.876L340.452 408.627L345.37 407.737L351.272 406.349L353.239 406.277L354.223 406.102L355.206 405.716L357.174 404.342L360.125 401.619L362.092 399.318L366.026 393.803L367.993 390.715L369.961 386.865L371.928 382.105L373.895 376.305L375.862 369.669L377.829 361.637L378.813 356.547L380.78 343.757L385.698 308.352L387.666 294.919L389.633 278.554L395.534 222.452L397.502 203.592L401.436 168.152L403.403 149.327L404.387 140.945L405.371 133.879L406.354 128.363L407.338 124.418L408.321 121.889L409.305 120.519L410.289 120.028L411.272 120.17L412.256 120.826L413.239 122.111L414.223 124.377L415.207 128.001L416.19 133.085L422.092 169.695L423.076 177.575L424.059 187.633L431.928 281.726L433.895 302.942L435.863 321.025L437.83 336.976L439.797 350.185L441.764 360.247L445.699 377.157L448.649 388.822L449.633 392.066L450.617 394.786L451.6 396.95L452.584 398.61L454.551 400.929L458.486 404.591L460.453 406.112L462.42 407.164L466.354 408.639L468.322 409.084L480.125 410.008L494.879 410.111" stroke="#EFEFEF" stroke-linecap="square"/>
</g>
<mask id="mask1_230_13198" style="mask-type:luminance" maskUnits="userSpaceOnUse" x="76" y="55" width="477" height="356">
<path d="M552.957 55.2959H76.7969V410.112H552.957V55.2959Z" fill="white"/>
</mask>
<g mask="url(#mask1_230_13198)">
<path d="M283.266 410.111L296.042 409.976L310.949 409.291L315.207 408.895L323.725 407.585L325.855 407.027L329.049 405.75L337.567 401.899L340.761 400.753L342.89 399.636L345.02 397.956L347.149 395.62L349.279 392.54L351.408 388.709L355.667 380.711L357.796 376.658L359.926 371.799L362.055 366.139L364.185 359.676L365.25 355.866L367.379 346.585L370.573 329.808L376.962 295.551L380.156 277.908L392.933 204.096L393.997 199.748L395.062 196.468L396.127 194.096L397.191 192.389L401.45 187.046L404.645 181.482L405.709 180.114L406.774 179.472L407.839 179.775L408.903 181.151L409.968 183.622L411.033 187.127L412.098 191.551L414.227 202.672L416.357 216.158L427.004 289.058L431.263 315.328L434.457 333.12L438.716 354.826L440.845 364.338L444.039 376.797L446.169 383.984L448.298 389.927L450.428 394.626L452.557 398.193L454.687 400.86L456.816 402.996L458.946 404.828L461.075 406.337L463.204 407.471L465.334 408.297L468.528 409.145L471.722 409.574L477.046 409.861L495.146 410.111" fill="#EFEFEF" fill-opacity="0.4"/>
<path d="M283.266 410.111L296.042 409.976L310.949 409.291L315.207 408.895L323.725 407.585L325.855 407.027L329.049 405.75L337.567 401.899L340.761 400.753L342.89 399.636L345.02 397.956L347.149 395.62L349.279 392.54L351.408 388.709L355.667 380.711L357.796 376.658L359.926 371.799L362.055 366.139L364.185 359.676L365.25 355.866L367.379 346.585L370.573 329.808L376.962 295.551L380.156 277.908L392.933 204.096L393.997 199.748L395.062 196.468L396.127 194.096L397.191 192.389L401.45 187.046L404.645 181.482L405.709 180.114L406.774 179.472L407.839 179.775L408.903 181.151L409.968 183.622L411.033 187.127L412.098 191.551L414.227 202.672L416.357 216.158L427.004 289.058L431.263 315.328L434.457 333.12L438.716 354.826L440.845 364.338L444.039 376.797L446.169 383.984L448.298 389.927L450.428 394.626L452.557 398.193L454.687 400.86L456.816 402.996L458.946 404.828L461.075 406.337L463.204 407.471L465.334 408.297L468.528 409.145L471.722 409.574L477.046 409.861L495.146 410.111" stroke="#EFEFEF" stroke-linecap="square"/>
</g>
<mask id="mask2_230_13198" style="mask-type:luminance" maskUnits="userSpaceOnUse" x="76" y="55" width="477" height="356">
<path d="M552.957 55.2959H76.7969V410.112H552.957V55.2959Z" fill="white"/>
</mask>
<g mask="url(#mask2_230_13198)">
<path d="M278.273 410.111L289.365 409.955L301.567 409.948L309.331 410.035L313.768 409.707L320.423 409.198L330.406 408.888L334.842 408.611L338.17 407.99L343.716 406.56L345.934 405.789L348.153 404.665L350.371 403.026L352.59 400.793L354.808 398.086L357.026 395.064L359.245 391.605L361.463 387.384L364.791 379.749L367.009 374.969L369.227 370.666L370.337 368.196L371.446 365.149L372.555 361.356L373.664 356.803L375.883 345.961L384.756 298.051L394.739 240.069L399.176 211.299L400.285 205.648L402.503 196.512L405.831 184.503L406.94 181.08L408.049 178.277L409.158 176.136L410.268 174.586L411.377 173.591L412.486 173.253L413.595 173.785L414.704 175.343L415.814 177.887L416.923 181.196L419.141 189.276L421.36 199.259L423.578 211.266L426.906 230.95L429.124 246.243L431.342 264.432L434.67 292.058L436.888 307.769L439.107 320.762L444.653 349.881L446.871 362.196L447.98 367.531L449.089 372.136L451.308 379.592L453.526 385.611L455.745 390.543L457.963 394.431L460.181 397.552L463.509 401.582L465.727 404.02L467.946 405.995L470.164 407.31L472.383 408.157L475.71 409.005L480.147 409.688L483.474 409.965L487.911 409.96L493.457 410.051L499.003 410.111" fill="#EFEFEF" fill-opacity="0.4"/>
<path d="M278.273 410.111L289.365 409.955L301.567 409.948L309.331 410.035L313.768 409.707L320.423 409.198L330.406 408.888L334.842 408.611L338.17 407.99L343.716 406.56L345.934 405.789L348.153 404.665L350.371 403.026L352.59 400.793L354.808 398.086L357.026 395.064L359.245 391.605L361.463 387.384L364.791 379.749L367.009 374.969L369.227 370.666L370.337 368.196L371.446 365.149L372.555 361.356L373.664 356.803L375.883 345.961L384.756 298.051L394.739 240.069L399.176 211.299L400.285 205.648L402.503 196.512L405.831 184.503L406.94 181.08L408.049 178.277L409.158 176.136L410.268 174.586L411.377 173.591L412.486 173.253L413.595 173.785L414.704 175.343L415.814 177.887L416.923 181.196L419.141 189.276L421.36 199.259L423.578 211.266L426.906 230.95L429.124 246.243L431.342 264.432L434.67 292.058L436.888 307.769L439.107 320.762L444.653 349.881L446.871 362.196L447.98 367.531L449.089 372.136L451.308 379.592L453.526 385.611L455.745 390.543L457.963 394.431L460.181 397.552L463.509 401.582L465.727 404.02L467.946 405.995L470.164 407.31L472.383 408.157L475.71 409.005L480.147 409.688L483.474 409.965L487.911 409.96L493.457 410.051L499.003 410.111" stroke="#EFEFEF" stroke-linecap="square"/>
</g>
<mask id="mask3_230_13198" style="mask-type:luminance" maskUnits="userSpaceOnUse" x="76" y="55" width="477" height="356">
<path d="M552.957 55.2959H76.7969V410.112H552.957V55.2959Z" fill="white"/>
</mask>
<g mask="url(#mask3_230_13198)">
<path d="M290.781 410.111L297.841 409.96L303.892 409.737L308.934 410.023L336.164 409.667L340.198 409.305L348.266 409.084L350.283 408.692L355.325 407.206L359.359 406.386L361.376 405.525L365.41 403.365L367.427 402.788L369.444 402.286L371.461 401.472L373.478 400.118L374.487 399.159L376.504 396.644L380.538 390.619L382.555 387.191L385.58 381.163L387.597 376.529L389.614 370.548L393.648 356.39L396.674 347.746L397.682 343.825L399.699 333.509L402.725 315.282L404.742 301.258L410.793 255.423L412.81 236.827L418.861 175.07L422.895 137.338L425.92 107.226L426.929 99.214L427.937 92.863L428.946 88.1467L429.954 84.9896L430.963 83.4424L431.971 83.6985L432.98 85.9819L433.988 90.4264L434.997 97.0525L436.005 105.828L437.014 116.687L439.031 143.645L445.082 235.721L451.133 332.412L452.141 344.961L453.15 355.524L454.158 364.288L455.167 371.611L457.184 383.133L458.192 387.53L459.201 391.034L460.209 393.768L462.226 397.859L464.243 401.143L466.26 403.801L468.277 405.891L470.294 407.375L472.311 408.176L479.371 409.665L482.396 409.801L491.473 410.111" fill="#EFEFEF" fill-opacity="0.4"/>
<path d="M290.781 410.111L297.841 409.96L303.892 409.737L308.934 410.023L336.164 409.667L340.198 409.305L348.266 409.084L350.283 408.692L355.325 407.206L359.359 406.386L361.376 405.525L365.41 403.365L367.427 402.788L369.444 402.286L371.461 401.472L373.478 400.118L374.487 399.159L376.504 396.644L380.538 390.619L382.555 387.191L385.58 381.163L387.597 376.529L389.614 370.548L393.648 356.39L396.674 347.746L397.682 343.825L399.699 333.509L402.725 315.282L404.742 301.258L410.793 255.423L412.81 236.827L418.861 175.07L422.895 137.338L425.92 107.226L426.929 99.214L427.937 92.863L428.946 88.1467L429.954 84.9896L430.963 83.4424L431.971 83.6985L432.98 85.9819L433.988 90.4264L434.997 97.0525L436.005 105.828L437.014 116.687L439.031 143.645L445.082 235.721L451.133 332.412L452.141 344.961L453.15 355.524L454.158 364.288L455.167 371.611L457.184 383.133L458.192 387.53L459.201 391.034L460.209 393.768L462.226 397.859L464.243 401.143L466.26 403.801L468.277 405.891L470.294 407.375L472.311 408.176L479.371 409.665L482.396 409.801L491.473 410.111" stroke="#EFEFEF" stroke-linecap="square"/>
</g>
<mask id="mask4_230_13198" style="mask-type:luminance" maskUnits="userSpaceOnUse" x="76" y="55" width="477" height="356">
<path d="M552.957 55.2959H76.7969V410.112H552.957V55.2959Z" fill="white"/>
</mask>
<g mask="url(#mask4_230_13198)">
<path d="M305.258 410.111L320.096 409.933L323.276 409.832L329.635 409.979L337.054 409.599L344.474 409.603L348.713 409.099L356.132 408.999L361.432 408.201L365.671 408.313L372.031 407.358L381.57 404.506L383.69 403.832L384.749 403.645L386.869 403.727L387.929 403.835L388.989 403.789L390.049 403.486L393.229 401.812L395.348 401.348L396.408 401.144L397.468 400.694L398.528 399.908L403.827 394.459L404.887 393.273L405.947 391.738L408.067 387.609L410.187 383.616L414.426 377.355L415.486 374.862L416.546 371.592L417.606 367.37L418.666 362.154L425.025 325.812L426.085 318.859L427.145 310.879L429.265 291.273L433.504 245.592L435.624 228.404L436.684 219.898L437.744 209.781L438.804 197.397L440.924 166.865L444.103 117.083L445.163 102.391L446.223 90.2253L447.283 81.5117L448.343 76.5473L449.403 74.5947L451.522 73.5956L452.582 72.6687L453.642 72.1924L454.702 73.6901L455.762 78.3713L456.822 86.536L457.882 97.6535L460.002 125.746L462.121 159.564L467.421 251.815L469.541 284.124L471.66 312.707L473.78 336.401L475.9 355.783L478.02 371.412L479.08 377.684L480.139 383.015L481.199 387.54L482.259 391.346L483.319 394.468L484.379 396.947L485.439 398.881L487.559 401.791L490.738 405.418L491.798 406.344L493.918 407.614L496.038 408.445L498.158 408.909L510.876 410.032L516.176 410.111" fill="#EFEFEF" fill-opacity="0.4"/>
<path d="M305.258 410.111L320.096 409.933L323.276 409.832L329.635 409.979L337.054 409.599L344.474 409.603L348.713 409.099L356.132 408.999L361.432 408.201L365.671 408.313L372.031 407.358L381.57 404.506L383.69 403.832L384.749 403.645L386.869 403.727L387.929 403.835L388.989 403.789L390.049 403.486L393.229 401.812L395.348 401.348L396.408 401.144L397.468 400.694L398.528 399.908L403.827 394.459L404.887 393.273L405.947 391.738L408.067 387.609L410.187 383.616L414.426 377.355L415.486 374.862L416.546 371.592L417.606 367.37L418.666 362.154L425.025 325.812L426.085 318.859L427.145 310.879L429.265 291.273L433.504 245.592L435.624 228.404L436.684 219.898L437.744 209.781L438.804 197.397L440.924 166.865L444.103 117.083L445.163 102.391L446.223 90.2253L447.283 81.5117L448.343 76.5473L449.403 74.5947L451.522 73.5956L452.582 72.6687L453.642 72.1924L454.702 73.6901L455.762 78.3713L456.822 86.536L457.882 97.6535L460.002 125.746L462.121 159.564L467.421 251.815L469.541 284.124L471.66 312.707L473.78 336.401L475.9 355.783L478.02 371.412L479.08 377.684L480.139 383.015L481.199 387.54L482.259 391.346L483.319 394.468L484.379 396.947L485.439 398.881L487.559 401.791L490.738 405.418L491.798 406.344L493.918 407.614L496.038 408.445L498.158 408.909L510.876 410.032L516.176 410.111" stroke="#EFEFEF" stroke-linecap="square"/>
</g>
<mask id="mask5_230_13198" style="mask-type:luminance" maskUnits="userSpaceOnUse" x="76" y="55" width="477" height="356">
<path d="M552.957 55.2959H76.7969V410.112H552.957V55.2959Z" fill="white"/>
</mask>
<g mask="url(#mask5_230_13198)">
<path d="M291.258 410.111L332.272 409.923L341.922 409.619L345.541 409.37L350.366 408.667L353.985 408.09L362.429 407.257L366.048 406.366L370.873 404.802L373.286 403.777L375.699 402.289L385.349 395.007L386.555 393.689L388.968 390.322L392.587 384.187L394.999 379.658L397.412 374.278L398.618 371.001L401.031 363.209L404.65 350.747L409.475 334.948L411.887 325.552L414.3 314.672L420.332 284.647L423.95 265.059L427.569 245.786L429.982 234.142L432.394 224.105L433.601 220.124L436.013 213.727L438.426 207.518L443.251 194.609L444.457 191.944L445.664 189.81L446.87 188.425L448.076 187.95L449.283 188.418L450.489 189.746L451.695 191.841L452.902 194.71L454.108 198.452L455.314 203.144L457.727 214.983L460.139 228.854L462.552 244.449L464.964 262.256L472.202 319.331L474.615 335.238L477.027 349.367L479.44 361.778L481.853 372.171L484.265 380.686L486.678 387.825L489.09 393.698L490.297 396.113L491.503 398.184L493.916 401.484L496.328 404.059L498.741 406.179L501.153 407.799L502.36 408.368L504.772 409.031L508.391 409.426L514.423 409.807L530.104 410.109L531.311 410.111" fill="#EFEFEF" fill-opacity="0.4"/>
<path d="M291.258 410.111L332.272 409.923L341.922 409.619L345.541 409.37L350.366 408.667L353.985 408.09L362.429 407.257L366.048 406.366L370.873 404.802L373.286 403.777L375.699 402.289L385.349 395.007L386.555 393.689L388.968 390.322L392.587 384.187L394.999 379.658L397.412 374.278L398.618 371.001L401.031 363.209L404.65 350.747L409.475 334.948L411.887 325.552L414.3 314.672L420.332 284.647L423.95 265.059L427.569 245.786L429.982 234.142L432.394 224.105L433.601 220.124L436.013 213.727L438.426 207.518L443.251 194.609L444.457 191.944L445.664 189.81L446.87 188.425L448.076 187.95L449.283 188.418L450.489 189.746L451.695 191.841L452.902 194.71L454.108 198.452L455.314 203.144L457.727 214.983L460.139 228.854L462.552 244.449L464.964 262.256L472.202 319.331L474.615 335.238L477.027 349.367L479.44 361.778L481.853 372.171L484.265 380.686L486.678 387.825L489.09 393.698L490.297 396.113L491.503 398.184L493.916 401.484L496.328 404.059L498.741 406.179L501.153 407.799L502.36 408.368L504.772 409.031L508.391 409.426L514.423 409.807L530.104 410.109L531.311 410.111" stroke="#EFEFEF" stroke-linecap="square"/>
</g>
<mask id="mask6_230_13198" style="mask-type:luminance" maskUnits="userSpaceOnUse" x="76" y="55" width="477" height="356">
<path d="M552.957 55.2959H76.7969V410.112H552.957V55.2959Z" fill="white"/>
</mask>
<g mask="url(#mask6_230_13198)">
<path d="M270.312 410.111L290.501 409.93L295.814 409.948L304.314 409.959L312.814 409.71L325.565 409.407L334.065 409.478L344.691 408.514L350.003 407.584L355.316 406.128L357.441 405.175L359.566 403.717L361.691 401.644L363.817 398.85L365.942 395.218L367.004 392.92L368.067 390.104L369.129 386.611L370.192 382.349L372.317 371.724L376.567 346.955L379.755 327.249L381.88 311.797L384.005 293.509L390.38 233.878L392.505 217.75L394.63 204.8L396.755 194.522L397.818 190.671L398.881 187.936L399.943 186.413L401.006 186.098L402.068 186.903L403.131 188.684L404.193 191.261L406.318 198.027L408.444 205.167L409.506 207.909L410.569 209.61L411.631 210.164L412.694 209.75L415.881 206.533L416.944 206.012L418.006 206.176L419.069 207.099L420.131 208.709L422.257 213.157L425.444 220.666L426.507 223.577L427.569 226.958L428.632 230.968L429.694 235.778L430.757 241.558L431.82 248.411L433.945 264.971L438.195 300.855L440.32 316.076L443.508 335.832L445.633 348.056L447.758 358.516L449.883 367.039L455.196 386.54L456.258 389.779L457.321 392.539L459.446 396.927L461.571 400.516L463.696 403.63L465.821 406.13L467.946 407.918L470.071 409.053L472.196 409.645L475.384 409.983L480.697 410.108L481.759 410.111" fill="#EFEFEF" fill-opacity="0.4"/>
<path d="M270.312 410.111L290.501 409.93L295.814 409.948L304.314 409.959L312.814 409.71L325.565 409.407L334.065 409.478L344.691 408.514L350.003 407.584L355.316 406.128L357.441 405.175L359.566 403.717L361.691 401.644L363.817 398.85L365.942 395.218L367.004 392.92L368.067 390.104L369.129 386.611L370.192 382.349L372.317 371.724L376.567 346.955L379.755 327.249L381.88 311.797L384.005 293.509L390.38 233.878L392.505 217.75L394.63 204.8L396.755 194.522L397.818 190.671L398.881 187.936L399.943 186.413L401.006 186.098L402.068 186.903L403.131 188.684L404.193 191.261L406.318 198.027L408.444 205.167L409.506 207.909L410.569 209.61L411.631 210.164L412.694 209.75L415.881 206.533L416.944 206.012L418.006 206.176L419.069 207.099L420.131 208.709L422.257 213.157L425.444 220.666L426.507 223.577L427.569 226.958L428.632 230.968L429.694 235.778L430.757 241.558L431.82 248.411L433.945 264.971L438.195 300.855L440.32 316.076L443.508 335.832L445.633 348.056L447.758 358.516L449.883 367.039L455.196 386.54L456.258 389.779L457.321 392.539L459.446 396.927L461.571 400.516L463.696 403.63L465.821 406.13L467.946 407.918L470.071 409.053L472.196 409.645L475.384 409.983L480.697 410.108L481.759 410.111" stroke="#EFEFEF" stroke-linecap="square"/>
</g>
<mask id="mask7_230_13198" style="mask-type:luminance" maskUnits="userSpaceOnUse" x="76" y="55" width="477" height="356">
<path d="M552.957 55.2959H76.7969V410.112H552.957V55.2959Z" fill="white"/>
</mask>
<g mask="url(#mask7_230_13198)">
<path d="M290.57 410.111L313.257 409.929L325.734 409.588L334.809 409.146L338.211 408.648L340.48 408.381L350.689 407.971L352.958 407.518L357.495 406.429L362.032 405.453L364.301 404.548L366.569 403.094L369.972 400.489L372.241 398.105L375.644 394.027L376.778 393.094L379.047 391.986L380.181 391.442L381.315 390.6L382.45 389.33L383.584 387.63L385.853 383.21L388.121 377.796L393.793 362.887L396.061 356.126L398.33 348.283L400.599 339.234L404.002 324.372L407.405 307.945L413.076 279.56L415.345 266.086L421.016 229.38L423.285 211.324L430.091 153.536L431.225 146.106L432.359 139.873L434.628 129.824L435.762 125.805L436.897 122.922L438.031 121.75L439.165 122.694L440.3 125.83L441.434 130.929L442.568 137.612L443.703 145.541L445.971 164.774L448.24 189.473L450.508 219.248L453.911 265.314L456.18 293.381L458.449 318.952L460.717 342.045L462.986 361.837L464.12 370.149L465.255 377.319L466.389 383.347L467.523 388.258L468.657 392.12L469.792 395.064L470.926 397.289L472.06 399.021L474.329 401.734L476.598 404.012L478.866 405.94L481.135 407.39L483.404 408.359L485.672 408.981L487.941 409.313L499.284 410.02L504.955 410.058L511.761 410.078L516.299 410.111" fill="#EFEFEF" fill-opacity="0.4"/>
<path d="M290.57 410.111L313.257 409.929L325.734 409.588L334.809 409.146L338.211 408.648L340.48 408.381L350.689 407.971L352.958 407.518L357.495 406.429L362.032 405.453L364.301 404.548L366.569 403.094L369.972 400.489L372.241 398.105L375.644 394.027L376.778 393.094L379.047 391.986L380.181 391.442L381.315 390.6L382.45 389.33L383.584 387.63L385.853 383.21L388.121 377.796L393.793 362.887L396.061 356.126L398.33 348.283L400.599 339.234L404.002 324.372L407.405 307.945L413.076 279.56L415.345 266.086L421.016 229.38L423.285 211.324L430.091 153.536L431.225 146.106L432.359 139.873L434.628 129.824L435.762 125.805L436.897 122.922L438.031 121.75L439.165 122.694L440.3 125.83L441.434 130.929L442.568 137.612L443.703 145.541L445.971 164.774L448.24 189.473L450.508 219.248L453.911 265.314L456.18 293.381L458.449 318.952L460.717 342.045L462.986 361.837L464.12 370.149L465.255 377.319L466.389 383.347L467.523 388.258L468.657 392.12L469.792 395.064L470.926 397.289L472.06 399.021L474.329 401.734L476.598 404.012L478.866 405.94L481.135 407.39L483.404 408.359L485.672 408.981L487.941 409.313L499.284 410.02L504.955 410.058L511.761 410.078L516.299 410.111" stroke="#EFEFEF" stroke-linecap="square"/>
</g>
<mask id="mask8_230_13198" style="mask-type:luminance" maskUnits="userSpaceOnUse" x="76" y="55" width="477" height="356">
<path d="M552.957 55.2959H76.7969V410.112H552.957V55.2959Z" fill="white"/>
</mask>
<g mask="url(#mask8_230_13198)">
<path d="M279.484 410.111L308.848 409.937L313.365 409.86L320.141 409.945L324.659 409.626L332.564 408.888L337.082 408.458L341.599 408.2L350.634 407.104L352.893 406.63L355.152 405.833L359.669 404.07L363.057 402.991L365.316 401.921L368.704 400.14L370.963 399.53L373.222 398.973L374.351 398.362L375.48 397.392L376.61 396.075L379.998 391.432L381.127 390.194L382.256 389.254L383.386 388.6L385.644 387.87L393.55 386.092L394.679 385.611L395.809 384.858L396.938 383.775L398.067 382.349L402.585 375.467L403.714 374.353L407.102 371.929L408.232 370.577L409.361 368.707L410.49 366.321L411.62 363.426L412.749 359.976L413.879 355.874L415.008 350.993L416.137 345.18L417.267 338.246L418.396 329.974L419.525 320.177L421.784 295.902L424.043 266.756L426.302 234.046L428.56 197.05L431.948 138.677L433.078 121.525L434.207 106.737L435.336 94.7715L436.466 85.9124L437.595 80.2723L438.725 77.7471L439.854 77.9844L440.983 80.4639L442.113 84.7112L443.242 90.5077L444.371 97.9161L445.501 107.099L446.63 118.079L448.889 144.087L452.277 183.642L456.794 232.624L463.571 311.91L465.829 334.151L468.088 352.027L470.347 365.66L472.605 376.153L474.864 385.007L477.123 392.939L478.252 396.425L479.382 399.418L480.511 401.821L481.64 403.618L482.77 404.89L483.899 405.786L486.158 407.065L489.546 408.712L491.805 409.42L494.063 409.732L499.71 410.06L504.228 410.111" fill="#EFEFEF" fill-opacity="0.4"/>
<path d="M279.484 410.111L308.848 409.937L313.365 409.86L320.141 409.945L324.659 409.626L332.564 408.888L337.082 408.458L341.599 408.2L350.634 407.104L352.893 406.63L355.152 405.833L359.669 404.07L363.057 402.991L365.316 401.921L368.704 400.14L370.963 399.53L373.222 398.973L374.351 398.362L375.48 397.392L376.61 396.075L379.998 391.432L381.127 390.194L382.256 389.254L383.386 388.6L385.644 387.87L393.55 386.092L394.679 385.611L395.809 384.858L396.938 383.775L398.067 382.349L402.585 375.467L403.714 374.353L407.102 371.929L408.232 370.577L409.361 368.707L410.49 366.321L411.62 363.426L412.749 359.976L413.879 355.874L415.008 350.993L416.137 345.18L417.267 338.246L418.396 329.974L419.525 320.177L421.784 295.902L424.043 266.756L426.302 234.046L428.56 197.05L431.948 138.677L433.078 121.525L434.207 106.737L435.336 94.7715L436.466 85.9124L437.595 80.2723L438.725 77.7471L439.854 77.9844L440.983 80.4639L442.113 84.7112L443.242 90.5077L444.371 97.9161L445.501 107.099L446.63 118.079L448.889 144.087L452.277 183.642L456.794 232.624L463.571 311.91L465.829 334.151L468.088 352.027L470.347 365.66L472.605 376.153L474.864 385.007L477.123 392.939L478.252 396.425L479.382 399.418L480.511 401.821L481.64 403.618L482.77 404.89L483.899 405.786L486.158 407.065L489.546 408.712L491.805 409.42L494.063 409.732L499.71 410.06L504.228 410.111" stroke="#EFEFEF" stroke-linecap="square"/>
</g>
<mask id="mask9_230_13198" style="mask-type:luminance" maskUnits="userSpaceOnUse" x="76" y="55" width="477" height="356">
<path d="M552.957 55.2959H76.7969V410.112H552.957V55.2959Z" fill="white"/>
</mask>
<g mask="url(#mask9_230_13198)">
<path d="M283.172 410.111L302.462 409.959L310.584 409.801L314.645 409.73L319.721 409.636L322.767 409.493L325.813 409.096L334.95 407.417L337.996 406.843L340.027 406.179L342.057 405.251L344.088 404.047L347.133 401.874L350.179 399.32L351.194 398.263L352.21 396.975L353.225 395.366L354.24 393.392L356.271 388.549L360.332 378.396L362.362 373.296L364.393 366.997L366.423 358.937L373.53 327.3L375.561 318.114L377.591 307.054L380.637 288.196L388.759 234.562L391.805 214.096L393.835 201.004L395.866 190.626L396.881 186.494L397.896 183.022L398.912 180.2L399.927 178.011L400.942 176.408L401.957 175.324L402.973 174.664L405.003 174.054L407.034 173.4L408.049 173.053L409.064 173.054L410.08 173.847L411.095 175.857L412.11 179.345L413.125 184.308L415.156 197.376L418.202 218.319L424.293 256.951L426.324 272.922L432.415 324.379L434.446 338.349L436.476 350.313L438.507 360.281L440.537 368.641L443.583 379.68L445.614 386.078L446.629 388.731L447.644 390.952L448.66 392.77L450.69 395.564L456.782 402.777L458.812 404.601L460.843 405.918L463.888 407.401L466.934 408.638L468.965 409.221L472.011 409.689L476.072 409.951L484.194 410.109L485.209 410.111" fill="#EFEFEF" fill-opacity="0.4"/>
<path d="M283.172 410.111L302.462 409.959L310.584 409.801L314.645 409.73L319.721 409.636L322.767 409.493L325.813 409.096L334.95 407.417L337.996 406.843L340.027 406.179L342.057 405.251L344.088 404.047L347.133 401.874L350.179 399.32L351.194 398.263L352.21 396.975L353.225 395.366L354.24 393.392L356.271 388.549L360.332 378.396L362.362 373.296L364.393 366.997L366.423 358.937L373.53 327.3L375.561 318.114L377.591 307.054L380.637 288.196L388.759 234.562L391.805 214.096L393.835 201.004L395.866 190.626L396.881 186.494L397.896 183.022L398.912 180.2L399.927 178.011L400.942 176.408L401.957 175.324L402.973 174.664L405.003 174.054L407.034 173.4L408.049 173.053L409.064 173.054L410.08 173.847L411.095 175.857L412.11 179.345L413.125 184.308L415.156 197.376L418.202 218.319L424.293 256.951L426.324 272.922L432.415 324.379L434.446 338.349L436.476 350.313L438.507 360.281L440.537 368.641L443.583 379.68L445.614 386.078L446.629 388.731L447.644 390.952L448.66 392.77L450.69 395.564L456.782 402.777L458.812 404.601L460.843 405.918L463.888 407.401L466.934 408.638L468.965 409.221L472.011 409.689L476.072 409.951L484.194 410.109L485.209 410.111" stroke="#EFEFEF" stroke-linecap="square"/>
</g>
<mask id="mask10_230_13198" style="mask-type:luminance" maskUnits="userSpaceOnUse" x="76" y="55" width="477" height="356">
<path d="M552.957 55.2959H76.7969V410.112H552.957V55.2959Z" fill="white"/>
</mask>
<g mask="url(#mask10_230_13198)">
<path d="M279.906 410.111L309.867 409.901L313.999 409.82L321.231 409.856L326.397 409.596L329.496 409.443L341.894 409.468L348.092 408.8L354.291 407.584L355.324 407.122L356.357 406.426L360.49 402.986L362.556 402.003L365.655 400.758L367.722 399.555L369.788 397.85L372.887 394.894L373.92 393.757L374.954 392.367L375.987 390.649L378.053 386.357L384.252 371.785L387.351 364.141L391.484 354.961L392.517 352.004L393.55 348.439L395.616 339.602L402.848 305.203L404.914 292.027L406.98 276.516L415.245 207.983L419.378 170.405L421.444 151.96L423.51 136.969L425.577 125.716L426.61 121.361L427.643 118.065L428.676 116.127L429.709 115.778L430.742 117.033L431.775 119.64L432.808 123.174L434.875 131.629L436.941 141.756L437.974 147.975L439.007 155.332L440.04 164.093L441.073 174.49L442.107 186.692L444.173 216.485L450.371 316.949L452.438 345.638L453.471 357.961L454.504 368.488L455.537 377.121L456.57 383.984L457.603 389.354L458.636 393.568L459.67 396.944L460.703 399.734L461.736 402.083L462.769 404.031L463.802 405.567L464.835 406.686L465.868 407.438L466.901 407.913L468.968 408.442L475.166 409.559L480.332 409.994L485.498 410.111" fill="#EFEFEF" fill-opacity="0.4"/>
<path d="M279.906 410.111L309.867 409.901L313.999 409.82L321.231 409.856L326.397 409.596L329.496 409.443L341.894 409.468L348.092 408.8L354.291 407.584L355.324 407.122L356.357 406.426L360.49 402.986L362.556 402.003L365.655 400.758L367.722 399.555L369.788 397.85L372.887 394.894L373.92 393.757L374.954 392.367L375.987 390.649L378.053 386.357L384.252 371.785L387.351 364.141L391.484 354.961L392.517 352.004L393.55 348.439L395.616 339.602L402.848 305.203L404.914 292.027L406.98 276.516L415.245 207.983L419.378 170.405L421.444 151.96L423.51 136.969L425.577 125.716L426.61 121.361L427.643 118.065L428.676 116.127L429.709 115.778L430.742 117.033L431.775 119.64L432.808 123.174L434.875 131.629L436.941 141.756L437.974 147.975L439.007 155.332L440.04 164.093L441.073 174.49L442.107 186.692L444.173 216.485L450.371 316.949L452.438 345.638L453.471 357.961L454.504 368.488L455.537 377.121L456.57 383.984L457.603 389.354L458.636 393.568L459.67 396.944L460.703 399.734L461.736 402.083L462.769 404.031L463.802 405.567L464.835 406.686L465.868 407.438L466.901 407.913L468.968 408.442L475.166 409.559L480.332 409.994L485.498 410.111" stroke="#EFEFEF" stroke-linecap="square"/>
</g>
<mask id="mask11_230_13198" style="mask-type:luminance" maskUnits="userSpaceOnUse" x="76" y="55" width="477" height="356">
<path d="M552.957 55.2959H76.7969V410.112H552.957V55.2959Z" fill="white"/>
</mask>
<g mask="url(#mask11_230_13198)">
<path d="M262.094 410.111L286.138 409.941L291.863 409.685L297.588 409.476L305.602 408.76L309.037 408.245L313.617 407.208L317.052 406.083L322.777 403.721L325.067 402.398L327.357 400.315L331.936 395.072L334.226 391.852L336.516 387.625L339.951 380.26L343.386 372.193L346.821 363.069L349.111 355.98L351.401 347.242L353.691 336.655L357.126 318.521L360.561 299.06L363.995 277.759L369.72 239.952L372.01 228.539L374.3 219.898L376.59 212.978L380.025 203.835L382.315 198.334L383.46 196.171L384.605 194.662L385.75 193.879L386.895 193.739L388.04 194.072L389.185 194.742L390.33 195.724L391.475 197.087L392.62 198.908L393.764 201.227L394.909 204.06L396.054 207.451L397.199 211.483L398.344 216.227L400.634 227.787L404.069 248.261L409.794 284.821L413.229 305.484L416.664 323.892L418.954 334.906L421.244 344.56L428.113 371.218L430.403 378.917L431.548 382.129L432.693 384.797L433.838 386.944L436.128 390.245L440.708 396.49L442.998 399.403L445.288 401.724L447.578 403.503L449.868 404.899L453.303 406.526L456.737 407.712L460.172 408.511L464.752 409.189L469.332 409.61L475.057 409.826L489.941 410.111" fill="#EFEFEF" fill-opacity="0.4"/>
<path d="M262.094 410.111L286.138 409.941L291.863 409.685L297.588 409.476L305.602 408.76L309.037 408.245L313.617 407.208L317.052 406.083L322.777 403.721L325.067 402.398L327.357 400.315L331.936 395.072L334.226 391.852L336.516 387.625L339.951 380.26L343.386 372.193L346.821 363.069L349.111 355.98L351.401 347.242L353.691 336.655L357.126 318.521L360.561 299.06L363.995 277.759L369.72 239.952L372.01 228.539L374.3 219.898L376.59 212.978L380.025 203.835L382.315 198.334L383.46 196.171L384.605 194.662L385.75 193.879L386.895 193.739L388.04 194.072L389.185 194.742L390.33 195.724L391.475 197.087L392.62 198.908L393.764 201.227L394.909 204.06L396.054 207.451L397.199 211.483L398.344 216.227L400.634 227.787L404.069 248.261L409.794 284.821L413.229 305.484L416.664 323.892L418.954 334.906L421.244 344.56L428.113 371.218L430.403 378.917L431.548 382.129L432.693 384.797L433.838 386.944L436.128 390.245L440.708 396.49L442.998 399.403L445.288 401.724L447.578 403.503L449.868 404.899L453.303 406.526L456.737 407.712L460.172 408.511L464.752 409.189L469.332 409.61L475.057 409.826L489.941 410.111" stroke="#EFEFEF" stroke-linecap="square"/>
</g>
<mask id="mask12_230_13198" style="mask-type:luminance" maskUnits="userSpaceOnUse" x="76" y="55" width="477" height="356">
<path d="M552.957 55.2959H76.7969V410.112H552.957V55.2959Z" fill="white"/>
</mask>
<g mask="url(#mask12_230_13198)">
<path d="M315.32 410.111L321.815 409.964L326.453 409.858L334.803 409.879L340.37 409.309L343.153 409.17L347.792 408.437L356.142 407.143L357.997 406.499L360.781 405.174L363.564 403.516L369.13 399.72L370.986 398.001L372.842 395.545L383.047 379.646L384.902 376.388L386.758 371.995L388.613 366.055L390.469 358.633L396.036 333.424L397.891 324.249L399.747 313.355L406.241 272.26L408.096 257.2L411.808 225.78L414.591 202.226L419.23 159.151L421.085 146.363L422.941 136.664L425.724 124.669L426.652 121.437L427.58 119.108L428.507 118.086L429.435 118.68L430.363 121.041L431.291 125.158L432.218 130.9L433.146 138.06L435.002 155.569L445.207 261.564L448.918 297.92L451.701 322.599L453.557 336.863L456.34 355.363L458.196 365.992L460.051 374.748L461.907 382.195L463.762 388.745L465.618 393.92L466.545 395.875L467.473 397.454L469.329 399.816L475.823 406.6L477.679 407.86L479.534 408.602L482.317 409.312L485.101 409.668L490.667 409.794L499.945 410.11" fill="#EFEFEF" fill-opacity="0.4"/>
<path d="M315.32 410.111L321.815 409.964L326.453 409.858L334.803 409.879L340.37 409.309L343.153 409.17L347.792 408.437L356.142 407.143L357.997 406.499L360.781 405.174L363.564 403.516L369.13 399.72L370.986 398.001L372.842 395.545L383.047 379.646L384.902 376.388L386.758 371.995L388.613 366.055L390.469 358.633L396.036 333.424L397.891 324.249L399.747 313.355L406.241 272.26L408.096 257.2L411.808 225.78L414.591 202.226L419.23 159.151L421.085 146.363L422.941 136.664L425.724 124.669L426.652 121.437L427.58 119.108L428.507 118.086L429.435 118.68L430.363 121.041L431.291 125.158L432.218 130.9L433.146 138.06L435.002 155.569L445.207 261.564L448.918 297.92L451.701 322.599L453.557 336.863L456.34 355.363L458.196 365.992L460.051 374.748L461.907 382.195L463.762 388.745L465.618 393.92L466.545 395.875L467.473 397.454L469.329 399.816L475.823 406.6L477.679 407.86L479.534 408.602L482.317 409.312L485.101 409.668L490.667 409.794L499.945 410.11" stroke="#EFEFEF" stroke-linecap="square"/>
</g>
<mask id="mask13_230_13198" style="mask-type:luminance" maskUnits="userSpaceOnUse" x="76" y="55" width="477" height="356">
<path d="M552.957 55.2959H76.7969V410.112H552.957V55.2959Z" fill="white"/>
</mask>
<g mask="url(#mask13_230_13198)">
<path d="M255.57 410.11L275.395 409.954L280.059 409.775L295.219 409.756L298.718 409.383L302.216 409.091L305.715 408.782L309.213 408.412L312.712 408.227L320.875 406.951L325.539 406.617L327.871 405.903L332.536 404.074L336.034 403.104L337.201 402.486L338.367 401.575L340.699 399.033L341.865 397.72L343.031 396.679L344.198 396.055L347.696 395.293L348.862 394.469L350.028 393.131L352.361 389.397L355.859 382.829L358.191 378.167L359.357 375.444L360.524 372.172L361.69 368.201L362.856 363.459L364.022 357.904L366.354 344.345L368.687 328.189L371.019 309.277L373.351 285.779L375.683 257.132L378.016 223.654L382.68 151.26L385.013 120.734L386.179 107.967L387.345 97.3746L388.511 89.5104L389.677 84.852L390.843 83.6484L392.01 85.8566L393.176 91.093L394.342 98.6104L396.674 117.028L399.006 138.557L401.339 165.557L408.336 253.84L411.834 293.007L414.166 314.784L415.333 323.282L416.499 330.251L418.831 341.152L421.163 350.012L423.496 357.253L428.16 369.392L430.492 375.131L431.659 377.551L432.825 379.544L436.323 384.727L442.154 395.058L443.32 396.481L444.486 397.621L446.819 399.248L452.649 402.274L456.148 404.154L458.48 405.337L466.643 408.39L468.975 409.078L471.308 409.463L474.806 409.669L487.634 410.11" fill="#EFEFEF" fill-opacity="0.4"/>
<path d="M255.57 410.11L275.395 409.954L280.059 409.775L295.219 409.756L298.718 409.383L302.216 409.091L305.715 408.782L309.213 408.412L312.712 408.227L320.875 406.951L325.539 406.617L327.871 405.903L332.536 404.074L336.034 403.104L337.201 402.486L338.367 401.575L340.699 399.033L341.865 397.72L343.031 396.679L344.198 396.055L347.696 395.293L348.862 394.469L350.028 393.131L352.361 389.397L355.859 382.829L358.191 378.167L359.357 375.444L360.524 372.172L361.69 368.201L362.856 363.459L364.022 357.904L366.354 344.345L368.687 328.189L371.019 309.277L373.351 285.779L375.683 257.132L378.016 223.654L382.68 151.26L385.013 120.734L386.179 107.967L387.345 97.3746L388.511 89.5104L389.677 84.852L390.843 83.6484L392.01 85.8566L393.176 91.093L394.342 98.6104L396.674 117.028L399.006 138.557L401.339 165.557L408.336 253.84L411.834 293.007L414.166 314.784L415.333 323.282L416.499 330.251L418.831 341.152L421.163 350.012L423.496 357.253L428.16 369.392L430.492 375.131L431.659 377.551L432.825 379.544L436.323 384.727L442.154 395.058L443.32 396.481L444.486 397.621L446.819 399.248L452.649 402.274L456.148 404.154L458.48 405.337L466.643 408.39L468.975 409.078L471.308 409.463L474.806 409.669L487.634 410.11" stroke="#EFEFEF" stroke-linecap="square"/>
</g>
<mask id="mask14_230_13198" style="mask-type:luminance" maskUnits="userSpaceOnUse" x="76" y="55" width="477" height="356">
<path d="M552.957 55.2959H76.7969V410.112H552.957V55.2959Z" fill="white"/>
</mask>
<g mask="url(#mask14_230_13198)">
<path d="M98.4375 410.112L222.855 409.914L232.575 409.598L240.351 408.948L244.239 408.453L248.127 407.546L250.071 406.856L253.959 405.035L259.791 401.779L263.679 399.177L267.567 395.95L277.287 387.121L288.951 375.894L292.839 372.737L300.616 367.361L306.448 362.754L312.28 358.649L314.224 356.964L316.168 354.94L318.112 352.509L320.056 349.6L322 346.165L323.944 342.245L327.832 333.548L331.72 324.271L333.664 319.037L335.608 313.06L337.552 306.268L345.328 276.606L347.272 270.321L349.216 264.743L351.16 259.785L353.104 255.442L355.048 251.888L356.992 249.411L358.936 248.244L360.88 248.435L362.824 249.86L364.768 252.341L366.712 255.712L368.656 259.795L372.544 269.187L376.432 279.303L380.32 290.51L384.208 302.917L393.929 334.538L397.817 346.116L399.761 351.261L401.705 355.837L403.649 359.885L407.537 367.054L417.257 384.182L421.145 390.167L423.089 392.81L425.033 395.196L426.977 397.31L428.921 399.142L430.865 400.691L432.809 401.981L436.697 404.042L442.529 406.68L446.417 407.948L450.305 408.602L456.137 408.935L467.801 409.556L477.521 410.043L485.297 410.111" fill="#7EB0D5" fill-opacity="0.4"/>
<path d="M98.4375 410.112L222.855 409.914L232.575 409.598L240.351 408.948L244.239 408.453L248.127 407.546L250.071 406.856L253.959 405.035L259.791 401.779L263.679 399.177L267.567 395.95L277.287 387.121L288.951 375.894L292.839 372.737L300.616 367.361L306.448 362.754L312.28 358.649L314.224 356.964L316.168 354.94L318.112 352.509L320.056 349.6L322 346.165L323.944 342.245L327.832 333.548L331.72 324.271L333.664 319.037L335.608 313.06L337.552 306.268L345.328 276.606L347.272 270.321L349.216 264.743L351.16 259.785L353.104 255.442L355.048 251.888L356.992 249.411L358.936 248.244L360.88 248.435L362.824 249.86L364.768 252.341L366.712 255.712L368.656 259.795L372.544 269.187L376.432 279.303L380.32 290.51L384.208 302.917L393.929 334.538L397.817 346.116L399.761 351.261L401.705 355.837L403.649 359.885L407.537 367.054L417.257 384.182L421.145 390.167L423.089 392.81L425.033 395.196L426.977 397.31L428.921 399.142L430.865 400.691L432.809 401.981L436.697 404.042L442.529 406.68L446.417 407.948L450.305 408.602L456.137 408.935L467.801 409.556L477.521 410.043L485.297 410.111" stroke="#7EB0D5" stroke-linecap="square"/>
</g>
<path d="M535.061 411.061C535.646 410.475 535.646 409.525 535.061 408.939L525.515 399.393C524.929 398.808 523.979 398.808 523.393 399.393C522.808 399.979 522.808 400.929 523.393 401.515L531.879 410L523.393 418.485C522.808 419.071 522.808 420.021 523.393 420.607C523.979 421.192 524.929 421.192 525.515 420.607L535.061 411.061ZM79 411.5H534V408.5H79V411.5Z" fill="black"/>
</g>
<defs>
<clipPath id="clip0_230_13198">
<rect width="614.4" height="460.8" fill="white"/>
</clipPath>
</defs>
</svg>
