<svg width="615" height="461" viewBox="0 0 615 461" fill="none" xmlns="http://www.w3.org/2000/svg">
<g clip-path="url(#clip0_230_14078)">
<mask id="mask0_230_14078" style="mask-type:luminance" maskUnits="userSpaceOnUse" x="76" y="55" width="477" height="356">
<path d="M552.957 55.2959H76.7969V410.112H552.957V55.2959Z" fill="white"/>
</mask>
<g mask="url(#mask0_230_14078)">
<path d="M309.758 410.111L322.005 409.993L327.571 409.649L332.025 409.076L334.251 408.486L336.478 407.425L337.592 406.641L338.705 405.645L339.818 404.395L340.932 402.843L342.045 400.934L343.158 398.612L344.272 395.821L345.385 392.504L346.498 388.613L347.612 384.1L349.838 373.107L352.065 359.552L354.292 343.89L360.972 294.597L363.199 281.3L364.312 275.718L365.425 270.998L366.539 267.246L367.652 264.531L368.765 262.88L369.879 262.285L370.992 262.717L372.105 264.127L373.219 266.433L374.332 269.508L376.559 277.279L383.239 302.697L385.466 309.762L387.692 315.915L391.032 323.999L395.486 334.605L401.052 348.511L403.279 353.041L404.392 354.813L405.506 356.204L406.619 357.26L409.959 359.82L412.186 362.041L416.639 366.769L422.206 372.614L428.886 379.974L435.566 385.836L440.02 390.79L444.473 395.605L446.7 397.658L448.926 399.378L452.266 401.515L457.833 404.629L461.173 406.252L464.513 407.539L467.853 408.595L470.08 409.099L473.42 409.452L483.44 409.877L491.234 409.864L512.387 410.088L531.314 410.111" fill="#EFEFEF" fill-opacity="0.4"/>
<path d="M309.758 410.111L322.005 409.993L327.571 409.649L332.025 409.076L334.251 408.486L336.478 407.425L337.592 406.641L338.705 405.645L339.818 404.395L340.932 402.843L342.045 400.934L343.158 398.612L344.272 395.821L345.385 392.504L346.498 388.613L347.612 384.1L349.838 373.107L352.065 359.552L354.292 343.89L360.972 294.597L363.199 281.3L364.312 275.718L365.425 270.998L366.539 267.246L367.652 264.531L368.765 262.88L369.879 262.285L370.992 262.717L372.105 264.127L373.219 266.433L374.332 269.508L376.559 277.279L383.239 302.697L385.466 309.762L387.692 315.915L391.032 323.999L395.486 334.605L401.052 348.511L403.279 353.041L404.392 354.813L405.506 356.204L406.619 357.26L409.959 359.82L412.186 362.041L416.639 366.769L422.206 372.614L428.886 379.974L435.566 385.836L440.02 390.79L444.473 395.605L446.7 397.658L448.926 399.378L452.266 401.515L457.833 404.629L461.173 406.252L464.513 407.539L467.853 408.595L470.08 409.099L473.42 409.452L483.44 409.877L491.234 409.864L512.387 410.088L531.314 410.111" stroke="#EFEFEF" stroke-linecap="square"/>
</g>
<mask id="mask1_230_14078" style="mask-type:luminance" maskUnits="userSpaceOnUse" x="76" y="55" width="477" height="356">
<path d="M552.957 55.2959H76.7969V410.112H552.957V55.2959Z" fill="white"/>
</mask>
<g mask="url(#mask1_230_14078)">
<path d="M333.633 410.111L340.176 409.97L346.719 409.483L348.588 409.138L352.327 408.279L354.196 407.847L359.805 405.848L361.674 404.805L363.543 403.435L364.478 402.378L365.413 400.948L367.282 397.121L371.956 385.917L372.89 383.092L373.825 379.707L375.695 371.157L377.564 360.921L379.433 349.064L381.303 334.588L384.107 309.924L385.976 289.913L391.585 217.53L393.454 192.8L395.323 171.709L396.258 162.55L397.193 155.181L398.128 150.518L399.062 148.795L399.997 149.469L400.932 151.958L401.866 156.485L402.801 163.983L403.736 175.046L407.475 229.926L410.279 264.502L414.952 329.521L416.822 346.105L418.691 358.445L420.56 368.165L424.299 385.488L425.234 389.003L426.169 391.691L428.038 395.329L429.907 398.915L430.842 400.774L431.777 402.295L432.712 403.342L434.581 404.593L439.254 407.31L441.124 407.862L443.928 408.269L447.667 409.191L451.406 409.566L455.145 409.881L470.1 410.035L480.382 410.106L510.292 410.107L519.639 410.111" fill="#EFEFEF" fill-opacity="0.4"/>
<path d="M333.633 410.111L340.176 409.97L346.719 409.483L348.588 409.138L352.327 408.279L354.196 407.847L359.805 405.848L361.674 404.805L363.543 403.435L364.478 402.378L365.413 400.948L367.282 397.121L371.956 385.917L372.89 383.092L373.825 379.707L375.695 371.157L377.564 360.921L379.433 349.064L381.303 334.588L384.107 309.924L385.976 289.913L391.585 217.53L393.454 192.8L395.323 171.709L396.258 162.55L397.193 155.181L398.128 150.518L399.062 148.795L399.997 149.469L400.932 151.958L401.866 156.485L402.801 163.983L403.736 175.046L407.475 229.926L410.279 264.502L414.952 329.521L416.822 346.105L418.691 358.445L420.56 368.165L424.299 385.488L425.234 389.003L426.169 391.691L428.038 395.329L429.907 398.915L430.842 400.774L431.777 402.295L432.712 403.342L434.581 404.593L439.254 407.31L441.124 407.862L443.928 408.269L447.667 409.191L451.406 409.566L455.145 409.881L470.1 410.035L480.382 410.106L510.292 410.107L519.639 410.111" stroke="#EFEFEF" stroke-linecap="square"/>
</g>
<mask id="mask2_230_14078" style="mask-type:luminance" maskUnits="userSpaceOnUse" x="76" y="55" width="477" height="356">
<path d="M552.957 55.2959H76.7969V410.112H552.957V55.2959Z" fill="white"/>
</mask>
<g mask="url(#mask2_230_14078)">
<path d="M317.641 410.111L333.002 409.976L339.147 409.652L343.243 409.211L345.292 408.707L347.34 407.906L353.484 404.986L355.533 403.797L357.581 402.197L359.629 400.16L369.87 389.244L374.991 385.067L377.039 382.683L380.111 378.387L383.184 373.815L385.232 370.209L387.28 365.774L390.352 358.618L392.401 354.707L394.449 351.632L396.497 349.109L399.569 346.07L401.618 343.933L403.666 341.39L405.714 338.388L406.738 336.569L407.762 334.433L408.786 331.927L410.834 325.683L412.883 317.646L414.931 307.539L416.979 294.963L419.027 279.901L422.1 256.594L423.124 250.2L424.148 244.921L425.172 240.743L426.196 237.544L427.22 235.219L428.244 233.761L429.268 233.271L430.293 233.899L431.317 235.774L432.341 238.978L433.365 243.531L434.389 249.391L436.437 264.458L438.485 282.522L442.582 322.35L445.654 350.802L447.702 366.446L449.751 378.604L450.775 383.406L452.823 390.949L454.871 396.593L456.919 401.015L458.968 404.369L459.992 405.637L461.016 406.638L462.04 407.393L463.064 407.927L465.112 408.502L476.377 409.952L480.474 409.886L485.594 409.746L507.101 410.103L521.438 410.111" fill="#EFEFEF" fill-opacity="0.4"/>
<path d="M317.641 410.111L333.002 409.976L339.147 409.652L343.243 409.211L345.292 408.707L347.34 407.906L353.484 404.986L355.533 403.797L357.581 402.197L359.629 400.16L369.87 389.244L374.991 385.067L377.039 382.683L380.111 378.387L383.184 373.815L385.232 370.209L387.28 365.774L390.352 358.618L392.401 354.707L394.449 351.632L396.497 349.109L399.569 346.07L401.618 343.933L403.666 341.39L405.714 338.388L406.738 336.569L407.762 334.433L408.786 331.927L410.834 325.683L412.883 317.646L414.931 307.539L416.979 294.963L419.027 279.901L422.1 256.594L423.124 250.2L424.148 244.921L425.172 240.743L426.196 237.544L427.22 235.219L428.244 233.761L429.268 233.271L430.293 233.899L431.317 235.774L432.341 238.978L433.365 243.531L434.389 249.391L436.437 264.458L438.485 282.522L442.582 322.35L445.654 350.802L447.702 366.446L449.751 378.604L450.775 383.406L452.823 390.949L454.871 396.593L456.919 401.015L458.968 404.369L459.992 405.637L461.016 406.638L462.04 407.393L463.064 407.927L465.112 408.502L476.377 409.952L480.474 409.886L485.594 409.746L507.101 410.103L521.438 410.111" stroke="#EFEFEF" stroke-linecap="square"/>
</g>
<mask id="mask3_230_14078" style="mask-type:luminance" maskUnits="userSpaceOnUse" x="76" y="55" width="477" height="356">
<path d="M552.957 55.2959H76.7969V410.112H552.957V55.2959Z" fill="white"/>
</mask>
<g mask="url(#mask3_230_14078)">
<path d="M312.328 410.111L327.511 409.948L333.585 409.807L337.633 409.381L340.67 408.853L343.707 407.99L345.731 407.127L347.756 405.828L348.768 404.902L349.78 403.74L351.804 400.676L353.829 396.616L355.853 391.351L357.878 384.643L359.902 376.658L361.927 367.616L363.951 357.079L366.988 338.568L371.036 314.518L375.085 291.406L376.097 286.844L377.11 283.111L379.134 277.332L385.207 261.752L386.22 259.584L387.232 257.829L388.244 256.588L389.256 255.863L390.268 255.604L391.281 255.819L392.293 256.63L393.305 258.226L394.317 260.752L395.329 264.222L397.354 273.413L403.427 304.447L405.452 312.58L409.5 327.801L412.537 339.697L414.561 346.352L416.586 351.718L418.61 356.037L421.647 362.277L427.72 376.127L431.769 384.811L433.794 389.046L434.806 390.808L435.818 392.252L436.83 393.398L438.855 395.101L441.891 397.521L446.952 401.985L452.013 405.97L454.038 407.106L456.062 407.965L458.087 408.574L460.111 408.893L471.245 409.699L476.306 409.837L483.392 410.065L513.758 410.111" fill="#EFEFEF" fill-opacity="0.4"/>
<path d="M312.328 410.111L327.511 409.948L333.585 409.807L337.633 409.381L340.67 408.853L343.707 407.99L345.731 407.127L347.756 405.828L348.768 404.902L349.78 403.74L351.804 400.676L353.829 396.616L355.853 391.351L357.878 384.643L359.902 376.658L361.927 367.616L363.951 357.079L366.988 338.568L371.036 314.518L375.085 291.406L376.097 286.844L377.11 283.111L379.134 277.332L385.207 261.752L386.22 259.584L387.232 257.829L388.244 256.588L389.256 255.863L390.268 255.604L391.281 255.819L392.293 256.63L393.305 258.226L394.317 260.752L395.329 264.222L397.354 273.413L403.427 304.447L405.452 312.58L409.5 327.801L412.537 339.697L414.561 346.352L416.586 351.718L418.61 356.037L421.647 362.277L427.72 376.127L431.769 384.811L433.794 389.046L434.806 390.808L435.818 392.252L436.83 393.398L438.855 395.101L441.891 397.521L446.952 401.985L452.013 405.97L454.038 407.106L456.062 407.965L458.087 408.574L460.111 408.893L471.245 409.699L476.306 409.837L483.392 410.065L513.758 410.111" stroke="#EFEFEF" stroke-linecap="square"/>
</g>
<mask id="mask4_230_14078" style="mask-type:luminance" maskUnits="userSpaceOnUse" x="76" y="55" width="477" height="356">
<path d="M552.957 55.2959H76.7969V410.112H552.957V55.2959Z" fill="white"/>
</mask>
<g mask="url(#mask4_230_14078)">
<path d="M323.367 410.111L331.557 409.975L338.109 409.509L339.747 409.579L342.204 409.897L343.842 409.826L347.117 409.564L351.212 409.372L353.669 408.898L356.945 408.733L358.583 408.16L360.221 407.495L361.859 407.23L363.497 407.112L365.954 406.567L370.049 405.517H371.687L372.506 405.197L374.144 403.753L375.782 402.442L377.42 401.328L378.239 400.293L379.058 398.786L380.695 394.673L382.333 389.331L383.152 385.826L384.79 377.122L387.247 362.558L388.066 356.5L389.704 340.895L392.161 312.07L392.98 300.498L394.618 271.047L397.075 222.511L400.351 163.115L401.17 150.606L401.989 141.459L402.808 135.969L403.627 133.341L404.446 132.6L405.265 133.448L406.084 136.159L406.903 140.834L408.541 154.319L412.636 193.408L414.273 215.208L420.825 307.495L422.463 325.274L424.101 337.982L425.739 348.867L429.015 373.921L430.653 383.682L432.291 391.726L433.929 397.547L435.567 401.338L437.205 404.058L438.843 406.22L439.662 406.987L441.3 407.927L444.576 409.287L446.214 409.579L452.765 409.579L455.222 409.549L460.955 409.909L469.145 410.019L472.421 410.111L479.792 409.985L482.248 409.973L486.343 410.111" fill="#EFEFEF" fill-opacity="0.4"/>
<path d="M323.367 410.111L331.557 409.975L338.109 409.509L339.747 409.579L342.204 409.897L343.842 409.826L347.117 409.564L351.212 409.372L353.669 408.898L356.945 408.733L358.583 408.16L360.221 407.495L361.859 407.23L363.497 407.112L365.954 406.567L370.049 405.517H371.687L372.506 405.197L374.144 403.753L375.782 402.442L377.42 401.328L378.239 400.293L379.058 398.786L380.695 394.673L382.333 389.331L383.152 385.826L384.79 377.122L387.247 362.558L388.066 356.5L389.704 340.895L392.161 312.07L392.98 300.498L394.618 271.047L397.075 222.511L400.351 163.115L401.17 150.606L401.989 141.459L402.808 135.969L403.627 133.341L404.446 132.6L405.265 133.448L406.084 136.159L406.903 140.834L408.541 154.319L412.636 193.408L414.273 215.208L420.825 307.495L422.463 325.274L424.101 337.982L425.739 348.867L429.015 373.921L430.653 383.682L432.291 391.726L433.929 397.547L435.567 401.338L437.205 404.058L438.843 406.22L439.662 406.987L441.3 407.927L444.576 409.287L446.214 409.579L452.765 409.579L455.222 409.549L460.955 409.909L469.145 410.019L472.421 410.111L479.792 409.985L482.248 409.973L486.343 410.111" stroke="#EFEFEF" stroke-linecap="square"/>
</g>
<mask id="mask5_230_14078" style="mask-type:luminance" maskUnits="userSpaceOnUse" x="76" y="55" width="477" height="356">
<path d="M552.957 55.2959H76.7969V410.112H552.957V55.2959Z" fill="white"/>
</mask>
<g mask="url(#mask5_230_14078)">
<path d="M313.531 410.111L325.974 409.97L329.085 409.721L331.159 409.287L333.233 408.615L335.306 407.556L337.38 405.869L339.454 403.423L340.491 401.817L341.528 399.831L342.565 397.361L343.602 394.341L345.676 386.728L347.749 377.426L349.823 366.604L351.897 353.93L353.971 338.69L356.045 320.618L360.192 283.344L362.266 268.068L364.34 256.066L365.377 251.244L366.414 247.128L367.451 243.696L368.488 240.969L369.524 238.975L370.561 237.73L371.598 237.256L372.635 237.636L373.672 239.015L374.709 241.53L375.746 245.2L376.783 249.863L383.004 281.259L389.226 306.776L393.373 325.085L395.447 334.187L397.521 342.174L399.595 349.092L401.669 355.157L403.743 360.29L408.927 371.615L411.001 375.694L413.075 378.974L417.222 384.273L419.296 386.616L428.628 396.186L430.702 398.246L432.776 399.849L434.85 401.1L437.961 402.589L443.145 404.841L445.219 405.835L447.293 406.481L451.44 407.214L456.625 408.834L458.699 409.063L469.068 409.505L473.216 409.786L478.4 409.697L481.511 409.804L486.695 410.083L508.471 410.083L518.84 410.11L519.877 410.111" fill="#EFEFEF" fill-opacity="0.4"/>
<path d="M313.531 410.111L325.974 409.97L329.085 409.721L331.159 409.287L333.233 408.615L335.306 407.556L337.38 405.869L339.454 403.423L340.491 401.817L341.528 399.831L342.565 397.361L343.602 394.341L345.676 386.728L347.749 377.426L349.823 366.604L351.897 353.93L353.971 338.69L356.045 320.618L360.192 283.344L362.266 268.068L364.34 256.066L365.377 251.244L366.414 247.128L367.451 243.696L368.488 240.969L369.524 238.975L370.561 237.73L371.598 237.256L372.635 237.636L373.672 239.015L374.709 241.53L375.746 245.2L376.783 249.863L383.004 281.259L389.226 306.776L393.373 325.085L395.447 334.187L397.521 342.174L399.595 349.092L401.669 355.157L403.743 360.29L408.927 371.615L411.001 375.694L413.075 378.974L417.222 384.273L419.296 386.616L428.628 396.186L430.702 398.246L432.776 399.849L434.85 401.1L437.961 402.589L443.145 404.841L445.219 405.835L447.293 406.481L451.44 407.214L456.625 408.834L458.699 409.063L469.068 409.505L473.216 409.786L478.4 409.697L481.511 409.804L486.695 410.083L508.471 410.083L518.84 410.11L519.877 410.111" stroke="#EFEFEF" stroke-linecap="square"/>
</g>
<mask id="mask6_230_14078" style="mask-type:luminance" maskUnits="userSpaceOnUse" x="76" y="55" width="477" height="356">
<path d="M552.957 55.2959H76.7969V410.112H552.957V55.2959Z" fill="white"/>
</mask>
<g mask="url(#mask6_230_14078)">
<path d="M316.258 410.11L321.545 409.987L324.718 409.642L327.891 409.043L330.006 408.417L332.121 407.449L333.178 406.762L334.236 405.879L335.293 404.742L336.351 403.278L337.408 401.408L338.466 399.051L339.523 396.138L340.581 392.612L341.638 388.422L342.696 383.523L344.811 371.51L346.926 356.639L349.041 339.02L351.156 318.674L355.386 275.423L357.501 257.466L358.559 250.081L359.616 243.802L360.674 238.645L361.731 234.633L362.789 231.757L363.846 229.939L364.904 229.031L365.961 228.89L367.019 229.449L368.076 230.756L369.134 232.91L370.191 235.973L371.249 239.891L373.364 249.562L376.536 266.067L378.652 278.424L383.939 312.466L386.054 323.201L389.227 337.011L392.399 349.77L394.514 357.288L397.687 367.291L399.802 373.335L401.917 378.373L404.032 382.123L406.147 384.757L408.262 386.565L412.492 389.813L414.607 391.385L416.722 392.543L419.895 393.766L426.24 395.785L429.412 397.425L442.103 404.157L446.333 406.011L449.505 407.23L451.62 407.779L455.851 408.356L460.081 408.724L466.426 409.082L470.656 409.52L473.828 409.829L478.058 409.846L488.634 409.942L496.036 410.106L526.704 410.111" fill="#EFEFEF" fill-opacity="0.4"/>
<path d="M316.258 410.11L321.545 409.987L324.718 409.642L327.891 409.043L330.006 408.417L332.121 407.449L333.178 406.762L334.236 405.879L335.293 404.742L336.351 403.278L337.408 401.408L338.466 399.051L339.523 396.138L340.581 392.612L341.638 388.422L342.696 383.523L344.811 371.51L346.926 356.639L349.041 339.02L351.156 318.674L355.386 275.423L357.501 257.466L358.559 250.081L359.616 243.802L360.674 238.645L361.731 234.633L362.789 231.757L363.846 229.939L364.904 229.031L365.961 228.89L367.019 229.449L368.076 230.756L369.134 232.91L370.191 235.973L371.249 239.891L373.364 249.562L376.536 266.067L378.652 278.424L383.939 312.466L386.054 323.201L389.227 337.011L392.399 349.77L394.514 357.288L397.687 367.291L399.802 373.335L401.917 378.373L404.032 382.123L406.147 384.757L408.262 386.565L412.492 389.813L414.607 391.385L416.722 392.543L419.895 393.766L426.24 395.785L429.412 397.425L442.103 404.157L446.333 406.011L449.505 407.23L451.62 407.779L455.851 408.356L460.081 408.724L466.426 409.082L470.656 409.52L473.828 409.829L478.058 409.846L488.634 409.942L496.036 410.106L526.704 410.111" stroke="#EFEFEF" stroke-linecap="square"/>
</g>
<mask id="mask7_230_14078" style="mask-type:luminance" maskUnits="userSpaceOnUse" x="76" y="55" width="477" height="356">
<path d="M552.957 55.2959H76.7969V410.112H552.957V55.2959Z" fill="white"/>
</mask>
<g mask="url(#mask7_230_14078)">
<path d="M287.5 410.111L308.156 409.974L312.746 409.5L318.484 408.735L321.927 407.883L324.222 406.986L325.369 406.346L326.517 405.532L328.812 403.328L331.107 400.45L333.402 397.056L335.697 393.061L337.993 388.181L340.288 382.237L342.583 375.145L344.878 366.802L348.321 352.612L352.911 333.808L358.649 311.477L360.944 303.897L363.239 297.698L365.534 292.633L366.682 290.54L367.829 288.843L368.977 287.659L370.124 287.084L371.272 287.135L372.419 287.73L373.567 288.717L375.862 291.298L378.157 294.318L380.452 297.865L382.747 302.043L386.19 309.291L389.633 316.49L395.37 326.88L397.666 332.427L402.256 343.965L404.551 348.929L406.846 353.251L410.289 359.505L417.174 373.005L419.469 376.743L424.059 383.367L429.797 391.104L433.24 395.451L435.535 397.905L437.83 399.863L441.273 402.313L444.715 404.333L450.453 407.261L452.748 408.029L456.191 408.726L460.781 409.3L467.667 409.804L472.257 409.814L479.142 409.83L491.765 410.053L515.864 410.111" fill="#EFEFEF" fill-opacity="0.4"/>
<path d="M287.5 410.111L308.156 409.974L312.746 409.5L318.484 408.735L321.927 407.883L324.222 406.986L325.369 406.346L326.517 405.532L328.812 403.328L331.107 400.45L333.402 397.056L335.697 393.061L337.993 388.181L340.288 382.237L342.583 375.145L344.878 366.802L348.321 352.612L352.911 333.808L358.649 311.477L360.944 303.897L363.239 297.698L365.534 292.633L366.682 290.54L367.829 288.843L368.977 287.659L370.124 287.084L371.272 287.135L372.419 287.73L373.567 288.717L375.862 291.298L378.157 294.318L380.452 297.865L382.747 302.043L386.19 309.291L389.633 316.49L395.37 326.88L397.666 332.427L402.256 343.965L404.551 348.929L406.846 353.251L410.289 359.505L417.174 373.005L419.469 376.743L424.059 383.367L429.797 391.104L433.24 395.451L435.535 397.905L437.83 399.863L441.273 402.313L444.715 404.333L450.453 407.261L452.748 408.029L456.191 408.726L460.781 409.3L467.667 409.804L472.257 409.814L479.142 409.83L491.765 410.053L515.864 410.111" stroke="#EFEFEF" stroke-linecap="square"/>
</g>
<mask id="mask8_230_14078" style="mask-type:luminance" maskUnits="userSpaceOnUse" x="76" y="55" width="477" height="356">
<path d="M552.957 55.2959H76.7969V410.112H552.957V55.2959Z" fill="white"/>
</mask>
<g mask="url(#mask8_230_14078)">
<path d="M311.055 410.111L334.879 409.963L341.376 409.554L343.542 409.641L353.288 409.222L355.454 409.286L357.62 409.038L360.869 408.233L365.2 407.014L368.449 405.27L371.698 404.261L373.864 402.457L374.947 401.573L377.113 400.32L378.195 399.404L379.278 397.983L381.444 394.054L383.61 389.645L384.693 386.98L385.776 383.725L387.942 375.96L391.19 363.261L393.356 352.54L395.522 338.975L398.771 315.381L400.937 297.01L405.268 256.871L410.683 209.316L412.849 193.988L413.932 188.465L415.015 185.356L416.097 184.491L417.18 185.229L419.346 188.882L420.429 191.009L421.512 194.655L422.595 201.707L423.678 212.606L425.844 241.094L429.092 285.97L434.507 349.043L436.673 366.541L438.839 381.306L439.922 387.341L441.005 392.141L442.087 395.85L443.17 398.723L444.253 400.982L445.336 402.75L446.419 404.095L447.502 405.093L449.668 406.56L451.834 407.83L454 408.679L457.248 409.345L460.497 409.663L465.912 409.978L474.575 410.108L496.233 410.043L504.897 410.112L526.555 410.111" fill="#EFEFEF" fill-opacity="0.4"/>
<path d="M311.055 410.111L334.879 409.963L341.376 409.554L343.542 409.641L353.288 409.222L355.454 409.286L357.62 409.038L360.869 408.233L365.2 407.014L368.449 405.27L371.698 404.261L373.864 402.457L374.947 401.573L377.113 400.32L378.195 399.404L379.278 397.983L381.444 394.054L383.61 389.645L384.693 386.98L385.776 383.725L387.942 375.96L391.19 363.261L393.356 352.54L395.522 338.975L398.771 315.381L400.937 297.01L405.268 256.871L410.683 209.316L412.849 193.988L413.932 188.465L415.015 185.356L416.097 184.491L417.18 185.229L419.346 188.882L420.429 191.009L421.512 194.655L422.595 201.707L423.678 212.606L425.844 241.094L429.092 285.97L434.507 349.043L436.673 366.541L438.839 381.306L439.922 387.341L441.005 392.141L442.087 395.85L443.17 398.723L444.253 400.982L445.336 402.75L446.419 404.095L447.502 405.093L449.668 406.56L451.834 407.83L454 408.679L457.248 409.345L460.497 409.663L465.912 409.978L474.575 410.108L496.233 410.043L504.897 410.112L526.555 410.111" stroke="#EFEFEF" stroke-linecap="square"/>
</g>
<mask id="mask9_230_14078" style="mask-type:luminance" maskUnits="userSpaceOnUse" x="76" y="55" width="477" height="356">
<path d="M552.957 55.2959H76.7969V410.112H552.957V55.2959Z" fill="white"/>
</mask>
<g mask="url(#mask9_230_14078)">
<path d="M281.766 410.112L307.896 409.966L314.713 409.662L320.394 409.133L326.074 408.393L328.346 407.892L330.619 407.099L334.027 405.424L336.299 404.055L338.571 402.175L340.844 399.478L344.252 394.401L348.797 387.258L352.205 381.256L355.613 374.608L360.158 364.814L364.702 354.706L366.974 348.597L372.655 332.119L376.063 323.621L378.336 318.721L380.608 314.845L382.88 311.887L387.425 306.935L389.697 304.646L391.969 302.808L394.241 301.555L395.377 301.134L396.513 300.893L397.65 300.91L398.786 301.265L399.922 301.988L401.058 303.027L406.739 309.382L409.011 312.335L410.147 314.228L411.283 316.476L413.555 321.947L418.1 333.67L420.372 338.537L424.916 348.037L428.325 355.942L432.869 367.369L436.278 375.683L438.55 380.31L440.822 384.13L448.775 395.93L451.047 398.899L453.319 401.302L455.592 403.236L457.864 404.754L460.136 405.901L463.544 407.203L466.953 408.222L470.361 408.93L474.906 409.467L480.586 409.876L488.539 410.071L507.853 410.112" fill="#EFEFEF" fill-opacity="0.4"/>
<path d="M281.766 410.112L307.896 409.966L314.713 409.662L320.394 409.133L326.074 408.393L328.346 407.892L330.619 407.099L334.027 405.424L336.299 404.055L338.571 402.175L340.844 399.478L344.252 394.401L348.797 387.258L352.205 381.256L355.613 374.608L360.158 364.814L364.702 354.706L366.974 348.597L372.655 332.119L376.063 323.621L378.336 318.721L380.608 314.845L382.88 311.887L387.425 306.935L389.697 304.646L391.969 302.808L394.241 301.555L395.377 301.134L396.513 300.893L397.65 300.91L398.786 301.265L399.922 301.988L401.058 303.027L406.739 309.382L409.011 312.335L410.147 314.228L411.283 316.476L413.555 321.947L418.1 333.67L420.372 338.537L424.916 348.037L428.325 355.942L432.869 367.369L436.278 375.683L438.55 380.31L440.822 384.13L448.775 395.93L451.047 398.899L453.319 401.302L455.592 403.236L457.864 404.754L460.136 405.901L463.544 407.203L466.953 408.222L470.361 408.93L474.906 409.467L480.586 409.876L488.539 410.071L507.853 410.112" stroke="#EFEFEF" stroke-linecap="square"/>
</g>
<mask id="mask10_230_14078" style="mask-type:luminance" maskUnits="userSpaceOnUse" x="76" y="55" width="477" height="356">
<path d="M552.957 55.2959H76.7969V410.112H552.957V55.2959Z" fill="white"/>
</mask>
<g mask="url(#mask10_230_14078)">
<path d="M325.328 410.111L331.368 409.988L335.682 409.576L339.133 408.914L344.311 407.525L346.036 406.602L347.762 405.097L349.488 403.068L351.213 400.43L352.076 398.738L352.939 396.704L354.665 391.477L356.39 384.731L358.116 376.248L359.842 365.332L361.567 351.974L369.333 287.244L371.058 275.375L372.784 265.674L375.373 253.67L377.098 246.527L377.961 243.586L378.824 241.344L379.687 239.886L380.55 239.119L381.412 238.818L383.138 238.709L384.001 238.746L384.864 238.969L385.727 239.553L386.589 240.668L387.452 242.436L388.315 244.906L390.041 251.684L391.766 260.045L393.492 269.523L400.395 310.285L402.12 318.488L409.886 351.617L412.474 360.638L414.2 365.557L415.926 369.334L421.966 380.412L425.417 387.696L427.143 390.294L428.868 392.188L434.045 397.26L439.222 402.893L440.948 404.285L442.674 405.348L444.399 406.064L450.439 407.733L458.205 409.216L465.107 409.763L468.559 409.882L475.461 409.943L485.815 410.009L490.13 409.982L497.032 410.111" fill="#EFEFEF" fill-opacity="0.4"/>
<path d="M325.328 410.111L331.368 409.988L335.682 409.576L339.133 408.914L344.311 407.525L346.036 406.602L347.762 405.097L349.488 403.068L351.213 400.43L352.076 398.738L352.939 396.704L354.665 391.477L356.39 384.731L358.116 376.248L359.842 365.332L361.567 351.974L369.333 287.244L371.058 275.375L372.784 265.674L375.373 253.67L377.098 246.527L377.961 243.586L378.824 241.344L379.687 239.886L380.55 239.119L381.412 238.818L383.138 238.709L384.001 238.746L384.864 238.969L385.727 239.553L386.589 240.668L387.452 242.436L388.315 244.906L390.041 251.684L391.766 260.045L393.492 269.523L400.395 310.285L402.12 318.488L409.886 351.617L412.474 360.638L414.2 365.557L415.926 369.334L421.966 380.412L425.417 387.696L427.143 390.294L428.868 392.188L434.045 397.26L439.222 402.893L440.948 404.285L442.674 405.348L444.399 406.064L450.439 407.733L458.205 409.216L465.107 409.763L468.559 409.882L475.461 409.943L485.815 410.009L490.13 409.982L497.032 410.111" stroke="#EFEFEF" stroke-linecap="square"/>
</g>
<mask id="mask11_230_14078" style="mask-type:luminance" maskUnits="userSpaceOnUse" x="76" y="55" width="477" height="356">
<path d="M552.957 55.2959H76.7969V410.112H552.957V55.2959Z" fill="white"/>
</mask>
<g mask="url(#mask11_230_14078)">
<path d="M333.227 410.11L336.62 409.928L340.013 409.713L345.102 409.767L347.647 409.561L353.585 409.318L355.281 408.983L356.978 408.826L358.675 408.304L360.371 407.797L362.916 407.397L366.309 406.387L368.005 406.265L368.854 406.036L369.702 405.493L371.399 403.694L372.247 402.701L373.095 401.401L373.943 399.37L374.792 396.472L376.488 389.229L378.185 380.64L379.881 369.155L381.578 354.229L383.274 334.727L384.971 309.277L386.667 278.124L390.06 206.665L394.302 112.984L395.998 89.6231L396.847 80.4234L397.695 73.8426L398.543 72.1924L399.391 76.9871L400.24 87.7892L401.936 120.685L405.329 195.963L407.874 258.759L409.571 287.377L412.115 323.691L413.812 343.869L415.508 359.529L417.205 371.12L419.75 385.317L420.598 389.535L421.446 392.986L422.295 395.437L423.991 398.617L424.839 399.967L425.688 400.949L426.536 401.455L428.232 402.064L429.081 402.594L430.777 404.212L432.474 406.014L433.322 406.704L435.019 407.554L435.867 407.776L437.563 407.72L439.26 407.644L440.956 407.822L443.501 408.519L445.198 408.857L454.529 409.74L457.922 409.678L460.467 409.941L469.798 410.049L473.191 410.073L478.28 410.098L483.37 410.083L487.611 410.033L491.004 410.087L494.397 410.036L497.79 409.978L502.032 410.111" fill="#EFEFEF" fill-opacity="0.4"/>
<path d="M333.227 410.11L336.62 409.928L340.013 409.713L345.102 409.767L347.647 409.561L353.585 409.318L355.281 408.983L356.978 408.826L358.675 408.304L360.371 407.797L362.916 407.397L366.309 406.387L368.005 406.265L368.854 406.036L369.702 405.493L371.399 403.694L372.247 402.701L373.095 401.401L373.943 399.37L374.792 396.472L376.488 389.229L378.185 380.64L379.881 369.155L381.578 354.229L383.274 334.727L384.971 309.277L386.667 278.124L390.06 206.665L394.302 112.984L395.998 89.6231L396.847 80.4234L397.695 73.8426L398.543 72.1924L399.391 76.9871L400.24 87.7892L401.936 120.685L405.329 195.963L407.874 258.759L409.571 287.377L412.115 323.691L413.812 343.869L415.508 359.529L417.205 371.12L419.75 385.317L420.598 389.535L421.446 392.986L422.295 395.437L423.991 398.617L424.839 399.967L425.688 400.949L426.536 401.455L428.232 402.064L429.081 402.594L430.777 404.212L432.474 406.014L433.322 406.704L435.019 407.554L435.867 407.776L437.563 407.72L439.26 407.644L440.956 407.822L443.501 408.519L445.198 408.857L454.529 409.74L457.922 409.678L460.467 409.941L469.798 410.049L473.191 410.073L478.28 410.098L483.37 410.083L487.611 410.033L491.004 410.087L494.397 410.036L497.79 409.978L502.032 410.111" stroke="#EFEFEF" stroke-linecap="square"/>
</g>
<mask id="mask12_230_14078" style="mask-type:luminance" maskUnits="userSpaceOnUse" x="76" y="55" width="477" height="356">
<path d="M552.957 55.2959H76.7969V410.112H552.957V55.2959Z" fill="white"/>
</mask>
<g mask="url(#mask12_230_14078)">
<path d="M314.109 410.111L336.834 409.944L339.933 409.859L347.163 409.876L350.262 409.738L361.624 408.562L366.789 407.445L368.855 407.104L370.921 406.332L374.02 404.764L375.052 403.853L376.085 402.465L378.151 398.44L381.25 391.277L382.283 388.303L383.316 384.703L385.382 375.496L387.448 364.208L389.513 350.362L392.612 325.87L394.678 306.989L397.777 278.523L402.942 235.043L407.073 202.86L408.106 197.219L409.139 194.431L410.172 194.85L411.205 197.924L412.238 202.674L414.304 213.657L415.337 218.245L417.403 225.334L418.436 230.075L419.469 236.832L421.534 255.12L423.6 276.909L426.699 310.978L428.765 328.452L430.831 342.058L433.93 358.566L437.028 374.445L438.061 378.572L439.094 381.903L441.16 387.204L445.292 396.783L446.325 398.598L447.358 400.082L448.391 401.293L450.457 403.068L455.621 406.552L457.687 407.633L459.753 408.232L462.852 408.684L470.082 409.399L473.181 409.795L479.379 409.993L502.103 410.055L509.334 410.104L519.663 410.111" fill="#EFEFEF" fill-opacity="0.4"/>
<path d="M314.109 410.111L336.834 409.944L339.933 409.859L347.163 409.876L350.262 409.738L361.624 408.562L366.789 407.445L368.855 407.104L370.921 406.332L374.02 404.764L375.052 403.853L376.085 402.465L378.151 398.44L381.25 391.277L382.283 388.303L383.316 384.703L385.382 375.496L387.448 364.208L389.513 350.362L392.612 325.87L394.678 306.989L397.777 278.523L402.942 235.043L407.073 202.86L408.106 197.219L409.139 194.431L410.172 194.85L411.205 197.924L412.238 202.674L414.304 213.657L415.337 218.245L417.403 225.334L418.436 230.075L419.469 236.832L421.534 255.12L423.6 276.909L426.699 310.978L428.765 328.452L430.831 342.058L433.93 358.566L437.028 374.445L438.061 378.572L439.094 381.903L441.16 387.204L445.292 396.783L446.325 398.598L447.358 400.082L448.391 401.293L450.457 403.068L455.621 406.552L457.687 407.633L459.753 408.232L462.852 408.684L470.082 409.399L473.181 409.795L479.379 409.993L502.103 410.055L509.334 410.104L519.663 410.111" stroke="#EFEFEF" stroke-linecap="square"/>
</g>
<mask id="mask13_230_14078" style="mask-type:luminance" maskUnits="userSpaceOnUse" x="76" y="55" width="477" height="356">
<path d="M552.957 55.2959H76.7969V410.112H552.957V55.2959Z" fill="white"/>
</mask>
<g mask="url(#mask13_230_14078)">
<path d="M306.906 410.112L313.61 409.997L319.196 409.594L321.431 409.246L323.665 408.586L327.017 407.129L329.251 405.935L330.369 405.14L331.486 404.142L332.603 402.891L333.721 401.33L334.838 399.431L337.072 394.777L339.307 389.23L340.424 385.935L341.541 382.067L342.659 377.501L344.893 366.461L350.479 335.404L353.831 315.75L360.535 274.053L362.769 263.354L365.004 254.545L366.121 250.665L367.238 247.401L368.356 245.127L369.473 244.106L370.59 244.295L371.707 245.363L372.825 246.958L373.942 248.983L375.059 251.599L376.176 254.958L380.646 271.261L382.88 280.139L386.232 294.958L389.584 307.857L391.818 318.55L396.287 341.883L399.639 357.036L401.874 365.908L404.108 373.351L406.343 379.376L409.694 387.418L411.929 391.956L414.163 395.397L416.398 398.345L417.515 399.599L419.75 401.466L427.571 406.739L429.805 407.622L432.04 408.031L443.212 409.388L452.15 409.789L459.971 409.798L466.675 410.089L491.254 410.094L509.131 410.112L529.241 410.112" fill="#EFEFEF" fill-opacity="0.4"/>
<path d="M306.906 410.112L313.61 409.997L319.196 409.594L321.431 409.246L323.665 408.586L327.017 407.129L329.251 405.935L330.369 405.14L331.486 404.142L332.603 402.891L333.721 401.33L334.838 399.431L337.072 394.777L339.307 389.23L340.424 385.935L341.541 382.067L342.659 377.501L344.893 366.461L350.479 335.404L353.831 315.75L360.535 274.053L362.769 263.354L365.004 254.545L366.121 250.665L367.238 247.401L368.356 245.127L369.473 244.106L370.59 244.295L371.707 245.363L372.825 246.958L373.942 248.983L375.059 251.599L376.176 254.958L380.646 271.261L382.88 280.139L386.232 294.958L389.584 307.857L391.818 318.55L396.287 341.883L399.639 357.036L401.874 365.908L404.108 373.351L406.343 379.376L409.694 387.418L411.929 391.956L414.163 395.397L416.398 398.345L417.515 399.599L419.75 401.466L427.571 406.739L429.805 407.622L432.04 408.031L443.212 409.388L452.15 409.789L459.971 409.798L466.675 410.089L491.254 410.094L509.131 410.112L529.241 410.112" stroke="#EFEFEF" stroke-linecap="square"/>
</g>
<mask id="mask14_230_14078" style="mask-type:luminance" maskUnits="userSpaceOnUse" x="76" y="55" width="477" height="356">
<path d="M552.957 55.2959H76.7969V410.112H552.957V55.2959Z" fill="white"/>
</mask>
<g mask="url(#mask14_230_14078)">
<path d="M98.4375 410.111L251.793 410.112L277.712 410.001L288.511 409.674L292.831 409.373L299.311 408.461L303.631 407.594L312.271 405.327L314.431 404.077L318.751 400.713L325.23 396.378L327.39 394.178L329.55 391.356L331.71 388.076L336.03 380.694L338.19 376.466L340.35 371.509L344.67 360.394L351.15 345.148L353.309 339.277L357.629 326.318L361.949 313.442L364.109 308.162L366.269 303.898L368.429 300.268L370.589 297.059L372.749 294.606L374.909 293.056L377.069 291.982L379.229 291.16L381.389 291.035L383.548 292.176L385.708 294.735L387.868 298.393L390.028 302.764L392.188 308.003L394.348 314.588L398.668 329.92L400.828 336.481L409.468 358.771L415.947 374.05L418.107 379.307L420.267 384.061L422.427 388.281L424.587 392.069L426.747 395.473L428.907 398.489L431.067 401.006L433.227 402.894L435.387 404.237L437.547 405.27L439.707 406.108L444.027 407.245L450.506 408.59L454.826 409.137L461.306 409.623L476.426 409.972L482.905 409.935L493.705 410.111L528.264 410.111" fill="#7EB0D5" fill-opacity="0.4"/>
<path d="M98.4375 410.111L251.793 410.112L277.712 410.001L288.511 409.674L292.831 409.373L299.311 408.461L303.631 407.594L312.271 405.327L314.431 404.077L318.751 400.713L325.23 396.378L327.39 394.178L329.55 391.356L331.71 388.076L336.03 380.694L338.19 376.466L340.35 371.509L344.67 360.394L351.15 345.148L353.309 339.277L357.629 326.318L361.949 313.442L364.109 308.162L366.269 303.898L368.429 300.268L370.589 297.059L372.749 294.606L374.909 293.056L377.069 291.982L379.229 291.16L381.389 291.035L383.548 292.176L385.708 294.735L387.868 298.393L390.028 302.764L392.188 308.003L394.348 314.588L398.668 329.92L400.828 336.481L409.468 358.771L415.947 374.05L418.107 379.307L420.267 384.061L422.427 388.281L424.587 392.069L426.747 395.473L428.907 398.489L431.067 401.006L433.227 402.894L435.387 404.237L437.547 405.27L439.707 406.108L444.027 407.245L450.506 408.59L454.826 409.137L461.306 409.623L476.426 409.972L482.905 409.935L493.705 410.111L528.264 410.111" stroke="#7EB0D5" stroke-linecap="square"/>
</g>
<path d="M535.061 411.061C535.646 410.475 535.646 409.525 535.061 408.939L525.515 399.393C524.929 398.808 523.979 398.808 523.393 399.393C522.808 399.979 522.808 400.929 523.393 401.515L531.879 410L523.393 418.485C522.808 419.071 522.808 420.021 523.393 420.607C523.979 421.192 524.929 421.192 525.515 420.607L535.061 411.061ZM79 411.5H534V408.5H79V411.5Z" fill="black"/>
</g>
<defs>
<clipPath id="clip0_230_14078">
<rect width="614.4" height="460.8" fill="white"/>
</clipPath>
</defs>
</svg>
