<svg width="615" height="461" viewBox="0 0 615 461" fill="none" xmlns="http://www.w3.org/2000/svg">
<g clip-path="url(#clip0_230_14398)">
<mask id="mask0_230_14398" style="mask-type:luminance" maskUnits="userSpaceOnUse" x="76" y="55" width="477" height="356">
<path d="M552.957 55.2959H76.7969V410.112H552.957V55.2959Z" fill="white"/>
</mask>
<g mask="url(#mask0_230_14398)">
<path d="M259.953 410.111L291.621 409.955L296.899 409.706L299.538 409.332L302.177 408.584L304.816 407.475L307.455 406.09L308.775 405.237L310.094 404.171L311.414 402.778L312.733 400.948L314.053 398.613L315.372 395.759L316.692 392.407L318.011 388.583L320.65 379.51L323.289 368.412L325.928 355.662L328.567 341.696L332.526 318.296L336.484 295.138L339.123 282.001L341.762 271.278L344.401 262.506L347.04 254.8L348.36 251.506L349.679 248.937L350.999 247.334L352.318 246.814L353.637 247.363L354.957 248.841L356.276 250.99L358.915 255.906L360.235 258.056L361.554 259.816L364.193 262.845L365.513 264.811L366.832 267.462L368.152 270.812L373.43 286.29L374.749 289.523L377.388 294.959L378.708 297.61L380.027 300.596L381.347 304.097L383.986 312.625L390.583 336.06L393.222 343.736L401.139 364.45L403.778 371.776L405.098 374.946L407.737 380.163L415.654 393.468L418.293 397.384L419.612 398.967L420.932 400.267L423.571 402.228L428.849 405.48L431.488 406.647L434.127 407.313L443.363 409.068L447.322 409.399L451.28 409.417L455.239 409.436L463.156 409.856L471.073 409.976L476.351 409.96L482.948 409.863L493.504 409.978L522.533 410.111" fill="#EFEFEF" fill-opacity="0.4"/>
<path d="M259.953 410.111L291.621 409.955L296.899 409.706L299.538 409.332L302.177 408.584L304.816 407.475L307.455 406.09L308.775 405.237L310.094 404.171L311.414 402.778L312.733 400.948L314.053 398.613L315.372 395.759L316.692 392.407L318.011 388.583L320.65 379.51L323.289 368.412L325.928 355.662L328.567 341.696L332.526 318.296L336.484 295.138L339.123 282.001L341.762 271.278L344.401 262.506L347.04 254.8L348.36 251.506L349.679 248.937L350.999 247.334L352.318 246.814L353.637 247.363L354.957 248.841L356.276 250.99L358.915 255.906L360.235 258.056L361.554 259.816L364.193 262.845L365.513 264.811L366.832 267.462L368.152 270.812L373.43 286.29L374.749 289.523L377.388 294.959L378.708 297.61L380.027 300.596L381.347 304.097L383.986 312.625L390.583 336.06L393.222 343.736L401.139 364.45L403.778 371.776L405.098 374.946L407.737 380.163L415.654 393.468L418.293 397.384L419.612 398.967L420.932 400.267L423.571 402.228L428.849 405.48L431.488 406.647L434.127 407.313L443.363 409.068L447.322 409.399L451.28 409.417L455.239 409.436L463.156 409.856L471.073 409.976L476.351 409.96L482.948 409.863L493.504 409.978L522.533 410.111" stroke="#EFEFEF" stroke-linecap="square"/>
</g>
<mask id="mask1_230_14398" style="mask-type:luminance" maskUnits="userSpaceOnUse" x="76" y="55" width="477" height="356">
<path d="M552.957 55.2959H76.7969V410.112H552.957V55.2959Z" fill="white"/>
</mask>
<g mask="url(#mask1_230_14398)">
<path d="M298.875 410.111L304.114 409.969L307.257 409.859L310.4 409.858L316.687 409.339L319.83 409.156L325.069 408.755L327.164 408.161L331.355 406.399L333.451 405.411L334.499 404.666L338.69 400.676L341.833 398.483L342.881 397.421L343.928 396.011L344.976 394.119L346.024 391.638L348.119 385.195L351.263 374.852L352.31 370.749L353.358 365.479L354.406 358.812L356.501 342.689L359.645 315.986L361.74 294.812L363.836 271.453L365.931 243.591L369.074 194.929L371.17 169.018L373.265 149.17L375.361 133.417L376.409 127.179L377.456 122.516L378.504 120.282L379.552 121.151L380.6 124.845L381.647 130.303L383.743 143.981L384.791 152.589L385.838 162.759L387.934 187.537L390.029 216.841L393.173 261.794L395.268 285.868L398.411 316.249L400.507 334.241L402.602 350.068L404.698 363.208L406.793 373.621L407.841 377.502L408.889 380.456L413.08 390.089L415.175 395.513L416.223 397.564L417.271 399.141L419.366 401.582L421.462 403.419L423.557 404.695L424.605 405.093L426.701 405.415L428.796 405.769L436.13 407.913L439.274 408.569L441.369 409.069L443.465 409.245L446.608 409.485L449.751 409.748L460.229 409.969L464.42 409.917L472.802 410.097L482.232 410.046L486.423 409.938L498.996 410.056L503.187 410.055L507.378 410.111" fill="#EFEFEF" fill-opacity="0.4"/>
<path d="M298.875 410.111L304.114 409.969L307.257 409.859L310.4 409.858L316.687 409.339L319.83 409.156L325.069 408.755L327.164 408.161L331.355 406.399L333.451 405.411L334.499 404.666L338.69 400.676L341.833 398.483L342.881 397.421L343.928 396.011L344.976 394.119L346.024 391.638L348.119 385.195L351.263 374.852L352.31 370.749L353.358 365.479L354.406 358.812L356.501 342.689L359.645 315.986L361.74 294.812L363.836 271.453L365.931 243.591L369.074 194.929L371.17 169.018L373.265 149.17L375.361 133.417L376.409 127.179L377.456 122.516L378.504 120.282L379.552 121.151L380.6 124.845L381.647 130.303L383.743 143.981L384.791 152.589L385.838 162.759L387.934 187.537L390.029 216.841L393.173 261.794L395.268 285.868L398.411 316.249L400.507 334.241L402.602 350.068L404.698 363.208L406.793 373.621L407.841 377.502L408.889 380.456L413.08 390.089L415.175 395.513L416.223 397.564L417.271 399.141L419.366 401.582L421.462 403.419L423.557 404.695L424.605 405.093L426.701 405.415L428.796 405.769L436.13 407.913L439.274 408.569L441.369 409.069L443.465 409.245L446.608 409.485L449.751 409.748L460.229 409.969L464.42 409.917L472.802 410.097L482.232 410.046L486.423 409.938L498.996 410.056L503.187 410.055L507.378 410.111" stroke="#EFEFEF" stroke-linecap="square"/>
</g>
<mask id="mask2_230_14398" style="mask-type:luminance" maskUnits="userSpaceOnUse" x="76" y="55" width="477" height="356">
<path d="M552.957 55.2959H76.7969V410.112H552.957V55.2959Z" fill="white"/>
</mask>
<g mask="url(#mask2_230_14398)">
<path d="M297.273 410.111L311.571 409.971L317.07 409.698L322.569 409.204L330.267 408.228L333.567 407.846L336.866 407.066L339.066 406.263L342.365 404.67L345.664 402.728L347.864 401.153L350.064 399.285L353.363 396.053L355.563 393.507L356.662 391.919L357.762 389.998L358.862 387.691L361.062 381.994L363.261 375.293L366.561 363.992L369.86 351.223L375.359 329.72L377.559 321.838L379.758 315.087L385.257 299.81L390.756 283.096L392.956 274.424L396.255 258.898L398.455 248.741L399.554 244.296L400.654 240.55L401.754 237.614L402.854 235.424L409.453 225.259L410.552 224.181L411.652 223.824L412.752 224.28L413.852 225.581L414.952 227.773L416.051 230.93L417.151 235.109L418.251 240.25L420.451 252.436L423.75 272.592L425.95 288.467L431.449 332.929L433.648 347.174L435.848 359.399L438.047 370.11L440.247 379.307L442.446 386.775L444.646 392.491L446.846 396.766L449.045 400.056L451.245 402.634L453.444 404.572L455.644 405.968L457.844 406.893L460.043 407.417L465.542 408.389L469.941 409.279L473.241 409.609L478.74 409.685L505.135 410.022L516.133 410.111" fill="#EFEFEF" fill-opacity="0.4"/>
<path d="M297.273 410.111L311.571 409.971L317.07 409.698L322.569 409.204L330.267 408.228L333.567 407.846L336.866 407.066L339.066 406.263L342.365 404.67L345.664 402.728L347.864 401.153L350.064 399.285L353.363 396.053L355.563 393.507L356.662 391.919L357.762 389.998L358.862 387.691L361.062 381.994L363.261 375.293L366.561 363.992L369.86 351.223L375.359 329.72L377.559 321.838L379.758 315.087L385.257 299.81L390.756 283.096L392.956 274.424L396.255 258.898L398.455 248.741L399.554 244.296L400.654 240.55L401.754 237.614L402.854 235.424L409.453 225.259L410.552 224.181L411.652 223.824L412.752 224.28L413.852 225.581L414.952 227.773L416.051 230.93L417.151 235.109L418.251 240.25L420.451 252.436L423.75 272.592L425.95 288.467L431.449 332.929L433.648 347.174L435.848 359.399L438.047 370.11L440.247 379.307L442.446 386.775L444.646 392.491L446.846 396.766L449.045 400.056L451.245 402.634L453.444 404.572L455.644 405.968L457.844 406.893L460.043 407.417L465.542 408.389L469.941 409.279L473.241 409.609L478.74 409.685L505.135 410.022L516.133 410.111" stroke="#EFEFEF" stroke-linecap="square"/>
</g>
<mask id="mask3_230_14398" style="mask-type:luminance" maskUnits="userSpaceOnUse" x="76" y="55" width="477" height="356">
<path d="M552.957 55.2959H76.7969V410.112H552.957V55.2959Z" fill="white"/>
</mask>
<g mask="url(#mask3_230_14398)">
<path d="M272.82 410.112L300.573 409.971L311.926 409.488L314.449 409.184L316.972 408.653L319.495 407.809L322.018 406.538L324.541 404.775L327.064 402.604L330.848 398.946L333.371 395.985L334.633 394.154L335.894 392.015L337.156 389.545L339.679 383.635L342.202 376.516L345.986 364.191L352.294 342.683L354.817 331.982L358.601 315.207L361.124 305.446L366.17 287.53L368.693 279.516L371.216 272.651L373.739 266.781L376.262 261.899L378.785 258.036L380.046 256.536L381.308 255.488L382.569 255.059L383.831 255.318L385.092 256.157L388.877 259.867L390.138 261.268L391.4 263.032L392.661 265.35L393.923 268.253L396.446 275.137L400.23 285.983L402.753 294.437L405.276 304.443L412.845 335.941L415.368 344.547L417.891 351.506L422.937 363.422L426.721 372.227L429.244 377.181L433.028 383.454L435.551 387.229L438.074 390.242L440.597 392.467L446.905 397.504L451.951 401.628L454.474 403.34L456.997 404.743L459.52 405.855L462.043 406.67L464.566 407.192L475.919 408.79L483.488 409.437L491.057 409.821L521.332 410.108L523.855 410.111" fill="#EFEFEF" fill-opacity="0.4"/>
<path d="M272.82 410.112L300.573 409.971L311.926 409.488L314.449 409.184L316.972 408.653L319.495 407.809L322.018 406.538L324.541 404.775L327.064 402.604L330.848 398.946L333.371 395.985L334.633 394.154L335.894 392.015L337.156 389.545L339.679 383.635L342.202 376.516L345.986 364.191L352.294 342.683L354.817 331.982L358.601 315.207L361.124 305.446L366.17 287.53L368.693 279.516L371.216 272.651L373.739 266.781L376.262 261.899L378.785 258.036L380.046 256.536L381.308 255.488L382.569 255.059L383.831 255.318L385.092 256.157L388.877 259.867L390.138 261.268L391.4 263.032L392.661 265.35L393.923 268.253L396.446 275.137L400.23 285.983L402.753 294.437L405.276 304.443L412.845 335.941L415.368 344.547L417.891 351.506L422.937 363.422L426.721 372.227L429.244 377.181L433.028 383.454L435.551 387.229L438.074 390.242L440.597 392.467L446.905 397.504L451.951 401.628L454.474 403.34L456.997 404.743L459.52 405.855L462.043 406.67L464.566 407.192L475.919 408.79L483.488 409.437L491.057 409.821L521.332 410.108L523.855 410.111" stroke="#EFEFEF" stroke-linecap="square"/>
</g>
<mask id="mask4_230_14398" style="mask-type:luminance" maskUnits="userSpaceOnUse" x="76" y="55" width="477" height="356">
<path d="M552.957 55.2959H76.7969V410.112H552.957V55.2959Z" fill="white"/>
</mask>
<g mask="url(#mask4_230_14398)">
<path d="M287.844 410.111L301.545 409.912L304.97 409.795L308.396 409.805L311.821 409.729L315.246 409.911L317.53 409.753L320.955 409.344L325.522 409.065L331.231 407.507L333.515 406.624L342.649 402.898L343.79 402.538L344.932 402.016L346.074 401.069L347.216 399.684L349.499 396.071L350.641 393.787L352.925 388.01L355.208 382.172L356.35 379.478L357.492 376.167L358.633 371.369L360.917 357.957L365.484 328.966L367.768 310.988L368.909 300.338L371.193 274.299L374.618 230.272L378.044 185.371L382.611 131.625L383.752 119.932L384.894 109.81L386.036 103.155L387.178 101.795L388.319 105.368L391.745 124.165L392.887 131.115L394.028 140.567L395.17 153.795L397.454 188.204L400.879 243.367L405.446 322.073L406.588 337.565L407.73 350.399L408.871 361.082L410.013 370.09L411.155 377.749L412.297 384.225L413.438 389.568L414.58 393.936L415.722 397.648L416.864 400.851L418.005 403.383L419.147 405.089L420.289 406.084L422.573 407.135L427.14 408.833L428.281 409.042L443.124 409.735L446.55 409.365L451.117 409.818L454.542 409.624L461.393 410.011L467.102 410.049L476.236 409.904L495.646 410.112L515.056 410.111" fill="#EFEFEF" fill-opacity="0.4"/>
<path d="M287.844 410.111L301.545 409.912L304.97 409.795L308.396 409.805L311.821 409.729L315.246 409.911L317.53 409.753L320.955 409.344L325.522 409.065L331.231 407.507L333.515 406.624L342.649 402.898L343.79 402.538L344.932 402.016L346.074 401.069L347.216 399.684L349.499 396.071L350.641 393.787L352.925 388.01L355.208 382.172L356.35 379.478L357.492 376.167L358.633 371.369L360.917 357.957L365.484 328.966L367.768 310.988L368.909 300.338L371.193 274.299L374.618 230.272L378.044 185.371L382.611 131.625L383.752 119.932L384.894 109.81L386.036 103.155L387.178 101.795L388.319 105.368L391.745 124.165L392.887 131.115L394.028 140.567L395.17 153.795L397.454 188.204L400.879 243.367L405.446 322.073L406.588 337.565L407.73 350.399L408.871 361.082L410.013 370.09L411.155 377.749L412.297 384.225L413.438 389.568L414.58 393.936L415.722 397.648L416.864 400.851L418.005 403.383L419.147 405.089L420.289 406.084L422.573 407.135L427.14 408.833L428.281 409.042L443.124 409.735L446.55 409.365L451.117 409.818L454.542 409.624L461.393 410.011L467.102 410.049L476.236 409.904L495.646 410.112L515.056 410.111" stroke="#EFEFEF" stroke-linecap="square"/>
</g>
<mask id="mask5_230_14398" style="mask-type:luminance" maskUnits="userSpaceOnUse" x="76" y="55" width="477" height="356">
<path d="M552.957 55.2959H76.7969V410.112H552.957V55.2959Z" fill="white"/>
</mask>
<g mask="url(#mask5_230_14398)">
<path d="M282.562 410.112L290.062 410.013L293.812 409.733L300.062 408.887L302.562 408.291L305.062 407.266L306.312 406.499L307.562 405.509L308.812 404.256L310.062 402.693L311.312 400.756L312.562 398.378L313.812 395.502L315.062 392.094L316.312 388.127L317.562 383.553L318.812 378.283L320.062 372.218L322.562 357.611L326.312 331.808L332.562 287.782L335.062 271.5L337.562 257.033L338.812 250.879L340.062 245.625L341.312 241.3L342.562 237.826L343.812 235.069L345.062 232.921L346.312 231.383L347.562 230.591L348.812 230.75L350.062 232.011L351.312 234.357L352.562 237.566L357.562 252.843L361.312 264.737L363.812 272.546L366.312 278.961L368.812 284.815L370.062 288.227L372.562 296.482L382.561 332.589L387.561 348.783L390.061 356.008L392.561 362.169L395.061 367.242L397.561 371.502L402.561 379.356L405.061 382.62L408.811 387.205L413.811 394.081L416.311 396.703L418.811 398.663L422.561 401.095L425.061 402.392L430.061 404.445L433.811 405.624L438.811 406.81L448.811 408.932L453.811 409.161L462.561 409.419L466.311 409.545L472.56 409.856L482.56 409.953L531.31 410.112" fill="#EFEFEF" fill-opacity="0.4"/>
<path d="M282.562 410.112L290.062 410.013L293.812 409.733L300.062 408.887L302.562 408.291L305.062 407.266L306.312 406.499L307.562 405.509L308.812 404.256L310.062 402.693L311.312 400.756L312.562 398.378L313.812 395.502L315.062 392.094L316.312 388.127L317.562 383.553L318.812 378.283L320.062 372.218L322.562 357.611L326.312 331.808L332.562 287.782L335.062 271.5L337.562 257.033L338.812 250.879L340.062 245.625L341.312 241.3L342.562 237.826L343.812 235.069L345.062 232.921L346.312 231.383L347.562 230.591L348.812 230.75L350.062 232.011L351.312 234.357L352.562 237.566L357.562 252.843L361.312 264.737L363.812 272.546L366.312 278.961L368.812 284.815L370.062 288.227L372.562 296.482L382.561 332.589L387.561 348.783L390.061 356.008L392.561 362.169L395.061 367.242L397.561 371.502L402.561 379.356L405.061 382.62L408.811 387.205L413.811 394.081L416.311 396.703L418.811 398.663L422.561 401.095L425.061 402.392L430.061 404.445L433.811 405.624L438.811 406.81L448.811 408.932L453.811 409.161L462.561 409.419L466.311 409.545L472.56 409.856L482.56 409.953L531.31 410.112" stroke="#EFEFEF" stroke-linecap="square"/>
</g>
<mask id="mask6_230_14398" style="mask-type:luminance" maskUnits="userSpaceOnUse" x="76" y="55" width="477" height="356">
<path d="M552.957 55.2959H76.7969V410.112H552.957V55.2959Z" fill="white"/>
</mask>
<g mask="url(#mask6_230_14398)">
<path d="M280.445 410.111L286.579 410.011L292.712 409.587L296.392 409.049L303.752 407.445L304.979 406.936L306.205 406.241L307.432 405.348L308.659 404.255L309.885 402.95L311.112 401.394L312.339 399.529L313.565 397.301L314.792 394.665L316.019 391.577L317.245 387.982L318.472 383.827L320.925 373.863L323.379 362.205L325.832 349.07L328.285 334.102L330.738 317.074L333.192 297.971L339.325 247.634L340.552 239.118L341.778 231.771L343.005 225.811L344.232 221.305L345.458 218.127L346.685 216.042L347.912 214.851L349.138 214.469L350.365 214.871L351.592 215.995L352.818 217.719L354.045 219.909L356.498 225.349L357.725 228.56L358.952 232.188L360.178 236.363L361.405 241.166L363.858 252.487L366.312 265.455L369.992 285.644L372.445 297.503L377.352 319.062L379.805 328.697L382.258 337.371L390.845 365.114L393.298 371.103L396.978 378.851L399.432 383.122L403.112 388.382L406.792 393.316L409.245 395.924L410.472 396.911L411.698 397.689L414.152 398.758L416.605 399.817L419.058 401.506L421.512 403.339L423.965 404.67L426.418 405.601L428.872 406.297L439.911 408.294L444.818 408.412L454.631 409.197L470.578 409.933L488.978 409.86L496.338 410.045L503.698 409.969L511.058 410.087L522.098 410.106L524.551 410.111" fill="#EFEFEF" fill-opacity="0.4"/>
<path d="M280.445 410.111L286.579 410.011L292.712 409.587L296.392 409.049L303.752 407.445L304.979 406.936L306.205 406.241L307.432 405.348L308.659 404.255L309.885 402.95L311.112 401.394L312.339 399.529L313.565 397.301L314.792 394.665L316.019 391.577L317.245 387.982L318.472 383.827L320.925 373.863L323.379 362.205L325.832 349.07L328.285 334.102L330.738 317.074L333.192 297.971L339.325 247.634L340.552 239.118L341.778 231.771L343.005 225.811L344.232 221.305L345.458 218.127L346.685 216.042L347.912 214.851L349.138 214.469L350.365 214.871L351.592 215.995L352.818 217.719L354.045 219.909L356.498 225.349L357.725 228.56L358.952 232.188L360.178 236.363L361.405 241.166L363.858 252.487L366.312 265.455L369.992 285.644L372.445 297.503L377.352 319.062L379.805 328.697L382.258 337.371L390.845 365.114L393.298 371.103L396.978 378.851L399.432 383.122L403.112 388.382L406.792 393.316L409.245 395.924L410.472 396.911L411.698 397.689L414.152 398.758L416.605 399.817L419.058 401.506L421.512 403.339L423.965 404.67L426.418 405.601L428.872 406.297L439.911 408.294L444.818 408.412L454.631 409.197L470.578 409.933L488.978 409.86L496.338 410.045L503.698 409.969L511.058 410.087L522.098 410.106L524.551 410.111" stroke="#EFEFEF" stroke-linecap="square"/>
</g>
<mask id="mask7_230_14398" style="mask-type:luminance" maskUnits="userSpaceOnUse" x="76" y="55" width="477" height="356">
<path d="M552.957 55.2959H76.7969V410.112H552.957V55.2959Z" fill="white"/>
</mask>
<g mask="url(#mask7_230_14398)">
<path d="M258.539 410.111L269.656 409.982L277.068 409.669L280.773 409.213L284.479 408.469L286.95 407.743L288.185 407.192L289.42 406.451L290.655 405.496L293.126 402.997L295.596 399.962L298.067 396.458L300.537 392.094L303.008 386.549L305.478 379.99L307.949 372.664L310.419 364.212L312.89 353.828L315.36 341.401L320.301 315.653L328.948 274.11L330.183 268.935L331.419 264.495L332.654 260.955L333.889 258.319L335.124 256.411L337.595 253.599L341.301 249.608L342.536 248.78L343.771 248.567L345.006 249.089L346.242 250.358L347.477 252.285L349.947 257.438L353.653 266.36L356.124 273.027L358.594 280.677L366.005 305.977L375.887 336.34L383.299 359.971L385.769 366.313L388.24 371.616L391.946 378.611L394.416 382.823L398.122 388.341L401.828 393.185L404.298 395.951L406.769 398.354L409.239 400.466L411.71 402.224L414.18 403.585L417.886 405.109L421.592 406.283L425.297 407.215L427.768 407.606L433.944 408.341L438.885 409.116L442.591 409.349L451.237 409.514L461.119 409.546L466.06 409.715L473.472 410.001L504.353 410.111" fill="#EFEFEF" fill-opacity="0.4"/>
<path d="M258.539 410.111L269.656 409.982L277.068 409.669L280.773 409.213L284.479 408.469L286.95 407.743L288.185 407.192L289.42 406.451L290.655 405.496L293.126 402.997L295.596 399.962L298.067 396.458L300.537 392.094L303.008 386.549L305.478 379.99L307.949 372.664L310.419 364.212L312.89 353.828L315.36 341.401L320.301 315.653L328.948 274.11L330.183 268.935L331.419 264.495L332.654 260.955L333.889 258.319L335.124 256.411L337.595 253.599L341.301 249.608L342.536 248.78L343.771 248.567L345.006 249.089L346.242 250.358L347.477 252.285L349.947 257.438L353.653 266.36L356.124 273.027L358.594 280.677L366.005 305.977L375.887 336.34L383.299 359.971L385.769 366.313L388.24 371.616L391.946 378.611L394.416 382.823L398.122 388.341L401.828 393.185L404.298 395.951L406.769 398.354L409.239 400.466L411.71 402.224L414.18 403.585L417.886 405.109L421.592 406.283L425.297 407.215L427.768 407.606L433.944 408.341L438.885 409.116L442.591 409.349L451.237 409.514L461.119 409.546L466.06 409.715L473.472 410.001L504.353 410.111" stroke="#EFEFEF" stroke-linecap="square"/>
</g>
<mask id="mask8_230_14398" style="mask-type:luminance" maskUnits="userSpaceOnUse" x="76" y="55" width="477" height="356">
<path d="M552.957 55.2959H76.7969V410.112H552.957V55.2959Z" fill="white"/>
</mask>
<g mask="url(#mask8_230_14398)">
<path d="M273.938 410.111L299.765 409.941L303.455 409.7L309.605 409.807L312.064 409.353L314.524 408.978L316.984 409.203L319.444 409.365L321.904 409.063L323.134 408.711L324.363 408.159L326.823 406.674L328.053 406.169L330.513 405.779L331.743 405.272L332.973 404.25L339.122 397.301L341.582 395.831L342.812 394.682L344.042 392.736L345.272 389.993L347.732 383.189L350.191 375.731L352.651 366.735L357.571 348.329L358.801 342.313L360.031 334.963L361.261 326.344L363.72 306.183L366.18 286.096L369.87 260.548L372.33 237.099L374.789 210.761L380.939 137.743L382.169 126.74L383.399 117.602L384.629 111.662L385.859 110.412L387.088 114.362L388.318 122.621L389.548 133.521L390.778 146.307L392.008 161.916L394.468 202.033L400.617 303.965L401.847 320.248L403.077 333.947L404.307 345.82L405.537 356.195L406.767 365.13L409.227 379.767L410.457 385.895L411.687 390.905L412.916 394.553L414.146 397.122L416.606 401.083L417.836 402.808L419.066 404.238L421.526 406.333L423.985 407.75L426.445 408.584L428.905 409.154L430.135 409.309L432.595 409.192L435.055 409.128L441.204 409.72L460.883 409.916L463.342 409.764L465.802 409.524L468.262 409.666L471.952 410.057L478.101 410.112L518.688 410.111" fill="#EFEFEF" fill-opacity="0.4"/>
<path d="M273.938 410.111L299.765 409.941L303.455 409.7L309.605 409.807L312.064 409.353L314.524 408.978L316.984 409.203L319.444 409.365L321.904 409.063L323.134 408.711L324.363 408.159L326.823 406.674L328.053 406.169L330.513 405.779L331.743 405.272L332.973 404.25L339.122 397.301L341.582 395.831L342.812 394.682L344.042 392.736L345.272 389.993L347.732 383.189L350.191 375.731L352.651 366.735L357.571 348.329L358.801 342.313L360.031 334.963L361.261 326.344L363.72 306.183L366.18 286.096L369.87 260.548L372.33 237.099L374.789 210.761L380.939 137.743L382.169 126.74L383.399 117.602L384.629 111.662L385.859 110.412L387.088 114.362L388.318 122.621L389.548 133.521L390.778 146.307L392.008 161.916L394.468 202.033L400.617 303.965L401.847 320.248L403.077 333.947L404.307 345.82L405.537 356.195L406.767 365.13L409.227 379.767L410.457 385.895L411.687 390.905L412.916 394.553L414.146 397.122L416.606 401.083L417.836 402.808L419.066 404.238L421.526 406.333L423.985 407.75L426.445 408.584L428.905 409.154L430.135 409.309L432.595 409.192L435.055 409.128L441.204 409.72L460.883 409.916L463.342 409.764L465.802 409.524L468.262 409.666L471.952 410.057L478.101 410.112L518.688 410.111" stroke="#EFEFEF" stroke-linecap="square"/>
</g>
<mask id="mask9_230_14398" style="mask-type:luminance" maskUnits="userSpaceOnUse" x="76" y="55" width="477" height="356">
<path d="M552.957 55.2959H76.7969V410.112H552.957V55.2959Z" fill="white"/>
</mask>
<g mask="url(#mask9_230_14398)">
<path d="M247.492 410.112L266.933 409.956L274.71 409.682L281.19 409.134L285.078 408.548L287.67 407.817L290.263 406.675L292.855 405.12L295.447 403.23L298.039 401.067L300.631 398.575L303.223 395.489L304.519 393.602L307.112 388.99L309.704 383.298L312.296 376.803L316.184 366.223L320.072 354.544L325.257 338.083L327.849 330.953L330.441 325.116L333.033 319.635L335.625 313.12L340.81 298.374L343.402 292.404L345.994 287.348L347.29 285.166L348.586 283.318L349.882 281.857L351.178 280.761L353.77 279.302L356.362 278.323L357.659 278.017L358.955 277.91L360.251 278.056L361.547 278.486L362.843 279.216L364.139 280.261L365.435 281.642L366.731 283.389L368.027 285.515L370.619 290.779L375.804 302.518L378.396 307.509L380.988 312.268L383.58 317.719L387.468 327.279L395.245 347.212L399.133 357.105L401.725 362.73L405.613 369.972L412.094 381.224L414.686 385.439L417.278 389.107L419.87 391.971L430.239 401.307L432.831 403.113L435.423 404.485L438.015 405.525L441.903 406.624L445.792 407.375L449.68 407.824L454.864 408.371L461.345 409.282L465.233 409.405L470.417 409.539L480.786 410.045L492.45 410.042L505.411 410.112" fill="#EFEFEF" fill-opacity="0.4"/>
<path d="M247.492 410.112L266.933 409.956L274.71 409.682L281.19 409.134L285.078 408.548L287.67 407.817L290.263 406.675L292.855 405.12L295.447 403.23L298.039 401.067L300.631 398.575L303.223 395.489L304.519 393.602L307.112 388.99L309.704 383.298L312.296 376.803L316.184 366.223L320.072 354.544L325.257 338.083L327.849 330.953L330.441 325.116L333.033 319.635L335.625 313.12L340.81 298.374L343.402 292.404L345.994 287.348L347.29 285.166L348.586 283.318L349.882 281.857L351.178 280.761L353.77 279.302L356.362 278.323L357.659 278.017L358.955 277.91L360.251 278.056L361.547 278.486L362.843 279.216L364.139 280.261L365.435 281.642L366.731 283.389L368.027 285.515L370.619 290.779L375.804 302.518L378.396 307.509L380.988 312.268L383.58 317.719L387.468 327.279L395.245 347.212L399.133 357.105L401.725 362.73L405.613 369.972L412.094 381.224L414.686 385.439L417.278 389.107L419.87 391.971L430.239 401.307L432.831 403.113L435.423 404.485L438.015 405.525L441.903 406.624L445.792 407.375L449.68 407.824L454.864 408.371L461.345 409.282L465.233 409.405L470.417 409.539L480.786 410.045L492.45 410.042L505.411 410.112" stroke="#EFEFEF" stroke-linecap="square"/>
</g>
<mask id="mask10_230_14398" style="mask-type:luminance" maskUnits="userSpaceOnUse" x="76" y="55" width="477" height="356">
<path d="M552.957 55.2959H76.7969V410.112H552.957V55.2959Z" fill="white"/>
</mask>
<g mask="url(#mask10_230_14398)">
<path d="M290.578 410.111L298.185 409.956L304.705 409.653L307.966 409.284L310.139 408.785L312.312 408.008L314.486 406.851L316.659 405.139L318.833 402.905L321.006 400.079L322.093 398.269L323.18 396.089L324.266 393.496L326.44 387.067L328.613 379.08L330.787 369.327L332.96 356.971L336.22 334.338L339.48 312.057L349.261 249.063L350.347 243.397L351.434 238.806L352.521 235.212L354.694 229.915L356.868 225.001L360.128 217.167L361.214 215.273L362.301 214.018L363.388 213.389L364.475 213.329L365.561 213.836L366.648 215.028L367.735 217.108L368.821 220.228L369.908 224.323L375.342 247.435L377.515 255.747L378.602 260.611L379.689 266.353L381.862 280.31L385.122 302.77L387.296 315.665L389.469 326.655L393.816 346.728L395.989 355.892L398.163 363.968L401.423 374.564L403.596 381.229L404.683 384.177L405.77 386.653L406.856 388.652L414.463 400.395L415.55 401.664L416.637 402.671L418.81 404.074L423.157 406.151L425.331 407.004L428.591 407.902L431.851 408.395L442.718 409.647L464.452 409.899L470.973 410.024L476.406 409.982L482.926 409.95L492.707 410.08L500.314 410.024L506.834 410.111" fill="#EFEFEF" fill-opacity="0.4"/>
<path d="M290.578 410.111L298.185 409.956L304.705 409.653L307.966 409.284L310.139 408.785L312.312 408.008L314.486 406.851L316.659 405.139L318.833 402.905L321.006 400.079L322.093 398.269L323.18 396.089L324.266 393.496L326.44 387.067L328.613 379.08L330.787 369.327L332.96 356.971L336.22 334.338L339.48 312.057L349.261 249.063L350.347 243.397L351.434 238.806L352.521 235.212L354.694 229.915L356.868 225.001L360.128 217.167L361.214 215.273L362.301 214.018L363.388 213.389L364.475 213.329L365.561 213.836L366.648 215.028L367.735 217.108L368.821 220.228L369.908 224.323L375.342 247.435L377.515 255.747L378.602 260.611L379.689 266.353L381.862 280.31L385.122 302.77L387.296 315.665L389.469 326.655L393.816 346.728L395.989 355.892L398.163 363.968L401.423 374.564L403.596 381.229L404.683 384.177L405.77 386.653L406.856 388.652L414.463 400.395L415.55 401.664L416.637 402.671L418.81 404.074L423.157 406.151L425.331 407.004L428.591 407.902L431.851 408.395L442.718 409.647L464.452 409.899L470.973 410.024L476.406 409.982L482.926 409.95L492.707 410.08L500.314 410.024L506.834 410.111" stroke="#EFEFEF" stroke-linecap="square"/>
</g>
<mask id="mask11_230_14398" style="mask-type:luminance" maskUnits="userSpaceOnUse" x="76" y="55" width="477" height="356">
<path d="M552.957 55.2959H76.7969V410.112H552.957V55.2959Z" fill="white"/>
</mask>
<g mask="url(#mask11_230_14398)">
<path d="M285.219 410.111L307.254 409.915L312.762 409.58L314.966 409.506L317.169 409.584L319.373 409.377L325.983 408.263L329.288 407.42L331.492 406.908L333.695 406.835L334.797 406.428L335.899 405.494L337.001 404.023L340.306 398.45L341.407 397.34L343.611 395.812L344.713 394.114L345.814 391.368L348.018 384.407L350.221 375.89L352.425 365.445L353.527 358.929L354.628 350.818L355.73 341.02L359.035 306.068L361.239 280.758L362.341 265.296L364.544 227.47L368.951 141.618L370.053 124.86L371.154 110.373L372.256 98.9292L373.358 90.496L374.46 83.6918L375.561 77.8624L376.663 73.7736L377.765 72.1924L378.867 74.0007L379.968 80.8268L381.07 93.3616L382.172 110.081L384.375 150.82L387.681 218.763L389.884 257.943L392.087 291.959L394.291 321.921L396.494 346.652L398.698 365.703L399.8 373.178L400.901 379.042L403.105 388.03L404.207 391.833L405.308 395.019L407.512 399.814L409.715 403.688L410.817 405.093L411.919 406.009L414.122 407.009L416.326 407.774L418.529 408.072L420.733 408.082L422.936 408.478L426.241 409.481L428.445 409.54L432.852 409.373L438.36 409.605L440.564 409.456L442.767 409.694L444.971 409.902L449.378 409.718L457.09 409.997L473.616 409.844L475.82 409.867L479.125 410.094L484.634 410.01L502.261 410.089L504.465 410.111" fill="#EFEFEF" fill-opacity="0.4"/>
<path d="M285.219 410.111L307.254 409.915L312.762 409.58L314.966 409.506L317.169 409.584L319.373 409.377L325.983 408.263L329.288 407.42L331.492 406.908L333.695 406.835L334.797 406.428L335.899 405.494L337.001 404.023L340.306 398.45L341.407 397.34L343.611 395.812L344.713 394.114L345.814 391.368L348.018 384.407L350.221 375.89L352.425 365.445L353.527 358.929L354.628 350.818L355.73 341.02L359.035 306.068L361.239 280.758L362.341 265.296L364.544 227.47L368.951 141.618L370.053 124.86L371.154 110.373L372.256 98.9292L373.358 90.496L374.46 83.6918L375.561 77.8624L376.663 73.7736L377.765 72.1924L378.867 74.0007L379.968 80.8268L381.07 93.3616L382.172 110.081L384.375 150.82L387.681 218.763L389.884 257.943L392.087 291.959L394.291 321.921L396.494 346.652L398.698 365.703L399.8 373.178L400.901 379.042L403.105 388.03L404.207 391.833L405.308 395.019L407.512 399.814L409.715 403.688L410.817 405.093L411.919 406.009L414.122 407.009L416.326 407.774L418.529 408.072L420.733 408.082L422.936 408.478L426.241 409.481L428.445 409.54L432.852 409.373L438.36 409.605L440.564 409.456L442.767 409.694L444.971 409.902L449.378 409.718L457.09 409.997L473.616 409.844L475.82 409.867L479.125 410.094L484.634 410.01L502.261 410.089L504.465 410.111" stroke="#EFEFEF" stroke-linecap="square"/>
</g>
<mask id="mask12_230_14398" style="mask-type:luminance" maskUnits="userSpaceOnUse" x="76" y="55" width="477" height="356">
<path d="M552.957 55.2959H76.7969V410.112H552.957V55.2959Z" fill="white"/>
</mask>
<g mask="url(#mask12_230_14398)">
<path d="M288.406 410.111L307.2 409.938L310.516 409.57L319.361 408.147L322.677 407.125L328.205 405.165L329.31 404.418L330.416 403.34L332.627 400.301L337.049 393.088L339.26 388.419L341.471 382.44L343.682 375.182L345.893 366.68L349.209 352.176L352.526 335.925L355.842 318.635L358.053 305.708L360.264 290.765L364.686 259.338L366.897 246.192L369.109 235.476L372.425 220.743L373.531 216.737L374.636 213.885L375.742 212.334L376.847 211.887L377.953 212.168L379.058 212.874L380.164 213.918L381.269 215.381L382.375 217.353L383.48 219.823L385.691 226.019L386.797 229.809L387.902 234.226L390.113 245.152L392.324 258.193L396.746 285.54L403.379 323.711L405.59 337.271L407.801 348.551L410.012 357.428L412.223 364.924L414.434 371.528L416.645 377.079L419.962 384.063L423.279 390.636L424.384 392.317L425.49 393.604L427.701 395.387L431.017 397.912L434.334 400.606L436.545 402.076L439.861 403.729L444.283 405.53L446.494 406.145L454.233 407.571L463.077 409.098L476.343 409.857L489.609 409.897L508.403 410.111" fill="#EFEFEF" fill-opacity="0.4"/>
<path d="M288.406 410.111L307.2 409.938L310.516 409.57L319.361 408.147L322.677 407.125L328.205 405.165L329.31 404.418L330.416 403.34L332.627 400.301L337.049 393.088L339.26 388.419L341.471 382.44L343.682 375.182L345.893 366.68L349.209 352.176L352.526 335.925L355.842 318.635L358.053 305.708L360.264 290.765L364.686 259.338L366.897 246.192L369.109 235.476L372.425 220.743L373.531 216.737L374.636 213.885L375.742 212.334L376.847 211.887L377.953 212.168L379.058 212.874L380.164 213.918L381.269 215.381L382.375 217.353L383.48 219.823L385.691 226.019L386.797 229.809L387.902 234.226L390.113 245.152L392.324 258.193L396.746 285.54L403.379 323.711L405.59 337.271L407.801 348.551L410.012 357.428L412.223 364.924L414.434 371.528L416.645 377.079L419.962 384.063L423.279 390.636L424.384 392.317L425.49 393.604L427.701 395.387L431.017 397.912L434.334 400.606L436.545 402.076L439.861 403.729L444.283 405.53L446.494 406.145L454.233 407.571L463.077 409.098L476.343 409.857L489.609 409.897L508.403 410.111" stroke="#EFEFEF" stroke-linecap="square"/>
</g>
<mask id="mask13_230_14398" style="mask-type:luminance" maskUnits="userSpaceOnUse" x="76" y="55" width="477" height="356">
<path d="M552.957 55.2959H76.7969V410.112H552.957V55.2959Z" fill="white"/>
</mask>
<g mask="url(#mask13_230_14398)">
<path d="M268.156 410.11L273.177 409.997L288.24 409.105L290.751 408.455L293.261 407.319L295.772 405.861L297.027 404.91L298.282 403.73L299.538 402.297L300.793 400.573L302.048 398.484L303.303 395.975L305.814 390.025L309.58 380.327L312.09 373.44L313.345 369.512L314.601 364.684L315.856 358.665L318.367 343.723L323.388 310.627L325.898 292.519L328.409 273.749L330.919 257.514L334.685 235.11L337.195 219.385L338.451 212.839L339.706 207.749L340.961 204.069L342.216 201.526L343.472 199.941L344.727 199.367L345.982 199.912L347.237 201.526L348.493 204.066L349.748 207.52L351.003 212.057L352.258 217.832L354.769 232.467L357.279 247.119L361.045 264.375L362.3 271.887L367.322 305.817L372.343 337.386L373.598 343.942L376.108 354.614L382.385 378.692L384.895 385.767L386.15 388.699L388.661 393.429L391.171 397.201L393.682 400.295L396.192 402.747L397.448 403.714L398.703 404.469L401.213 405.411L404.979 406.584L411.256 408.849L413.766 409.321L417.532 409.372L423.808 409.379L427.574 409.57L435.105 409.575L440.126 409.827L447.658 409.809L451.424 409.769L457.7 410.097L463.976 410.011L468.997 409.965L476.529 409.984L481.55 409.966L487.826 410.014L492.847 410.021L500.379 410.112L517.952 410.112" fill="#EFEFEF" fill-opacity="0.4"/>
<path d="M268.156 410.11L273.177 409.997L288.24 409.105L290.751 408.455L293.261 407.319L295.772 405.861L297.027 404.91L298.282 403.73L299.538 402.297L300.793 400.573L302.048 398.484L303.303 395.975L305.814 390.025L309.58 380.327L312.09 373.44L313.345 369.512L314.601 364.684L315.856 358.665L318.367 343.723L323.388 310.627L325.898 292.519L328.409 273.749L330.919 257.514L334.685 235.11L337.195 219.385L338.451 212.839L339.706 207.749L340.961 204.069L342.216 201.526L343.472 199.941L344.727 199.367L345.982 199.912L347.237 201.526L348.493 204.066L349.748 207.52L351.003 212.057L352.258 217.832L354.769 232.467L357.279 247.119L361.045 264.375L362.3 271.887L367.322 305.817L372.343 337.386L373.598 343.942L376.108 354.614L382.385 378.692L384.895 385.767L386.15 388.699L388.661 393.429L391.171 397.201L393.682 400.295L396.192 402.747L397.448 403.714L398.703 404.469L401.213 405.411L404.979 406.584L411.256 408.849L413.766 409.321L417.532 409.372L423.808 409.379L427.574 409.57L435.105 409.575L440.126 409.827L447.658 409.809L451.424 409.769L457.7 410.097L463.976 410.011L468.997 409.965L476.529 409.984L481.55 409.966L487.826 410.014L492.847 410.021L500.379 410.112L517.952 410.112" stroke="#EFEFEF" stroke-linecap="square"/>
</g>
<mask id="mask14_230_14398" style="mask-type:luminance" maskUnits="userSpaceOnUse" x="76" y="55" width="477" height="356">
<path d="M552.957 55.2959H76.7969V410.112H552.957V55.2959Z" fill="white"/>
</mask>
<g mask="url(#mask14_230_14398)">
<path d="M98.4375 410.111L234.735 409.894L243.253 409.557L249.642 409.174L253.901 408.418L258.161 407.491L262.42 406.683L264.55 405.973L266.679 404.882L273.068 400.6L275.198 399.154L277.327 397.474L279.457 395.381L281.587 392.779L283.716 389.65L287.976 382.274L292.235 374.533L294.365 370.388L296.494 365.802L298.624 360.758L302.883 349.436L307.142 337.356L309.272 331.852L315.661 316.48L317.791 310.111L324.179 288.769L326.309 282.654L328.439 277.471L330.568 273.425L332.698 270.441L334.828 268.107L336.957 266.19L339.087 265.087L341.217 265.491L343.346 267.575L345.476 270.768L349.735 278.135L351.865 282.499L353.994 287.913L356.124 294.355L366.772 328.851L371.032 341.178L375.291 352.877L379.55 365.249L381.68 370.826L383.809 375.612L385.939 379.682L388.069 383.208L390.198 386.316L392.328 389.073L394.458 391.522L396.587 393.7L398.717 395.632L400.847 397.308L405.106 400.004L413.624 404.874L415.754 405.691L420.013 406.816L424.273 407.755L428.532 408.416L432.791 408.774L441.31 408.987L451.958 409.22L464.736 409.753L522.236 410.111" fill="#7EB0D5" fill-opacity="0.4"/>
<path d="M98.4375 410.111L234.735 409.894L243.253 409.557L249.642 409.174L253.901 408.418L258.161 407.491L262.42 406.683L264.55 405.973L266.679 404.882L273.068 400.6L275.198 399.154L277.327 397.474L279.457 395.381L281.587 392.779L283.716 389.65L287.976 382.274L292.235 374.533L294.365 370.388L296.494 365.802L298.624 360.758L302.883 349.436L307.142 337.356L309.272 331.852L315.661 316.48L317.791 310.111L324.179 288.769L326.309 282.654L328.439 277.471L330.568 273.425L332.698 270.441L334.828 268.107L336.957 266.19L339.087 265.087L341.217 265.491L343.346 267.575L345.476 270.768L349.735 278.135L351.865 282.499L353.994 287.913L356.124 294.355L366.772 328.851L371.032 341.178L375.291 352.877L379.55 365.249L381.68 370.826L383.809 375.612L385.939 379.682L388.069 383.208L390.198 386.316L392.328 389.073L394.458 391.522L396.587 393.7L398.717 395.632L400.847 397.308L405.106 400.004L413.624 404.874L415.754 405.691L420.013 406.816L424.273 407.755L428.532 408.416L432.791 408.774L441.31 408.987L451.958 409.22L464.736 409.753L522.236 410.111" stroke="#7EB0D5" stroke-linecap="square"/>
</g>
<path d="M535.061 411.061C535.646 410.475 535.646 409.525 535.061 408.939L525.515 399.393C524.929 398.808 523.979 398.808 523.393 399.393C522.808 399.979 522.808 400.929 523.393 401.515L531.879 410L523.393 418.485C522.808 419.071 522.808 420.021 523.393 420.607C523.979 421.192 524.929 421.192 525.515 420.607L535.061 411.061ZM79 411.5H534V408.5H79V411.5Z" fill="black"/>
</g>
<defs>
<clipPath id="clip0_230_14398">
<rect width="614.4" height="460.8" fill="white"/>
</clipPath>
</defs>
</svg>
