<svg width="615" height="461" viewBox="0 0 615 461" fill="none" xmlns="http://www.w3.org/2000/svg">
<g clip-path="url(#clip0_230_13598)">
<mask id="mask0_230_13598" style="mask-type:luminance" maskUnits="userSpaceOnUse" x="76" y="55" width="477" height="356">
<path d="M552.957 55.2959H76.7969V410.112H552.957V55.2959Z" fill="white"/>
</mask>
<g mask="url(#mask0_230_13598)">
<path d="M335.977 410.112L344.811 409.975L348.737 409.646L351.682 409.199L353.646 408.703L355.609 407.928L357.572 406.78L359.535 405.187L361.498 403.085L363.462 400.366L365.425 396.793L366.406 394.564L367.388 391.958L368.37 388.917L370.333 381.348L372.296 371.719L374.259 360.323L381.131 317.154L383.094 307.916L384.075 304.517L385.057 302.018L386.039 300.406L387.02 299.625L388.002 299.596L388.984 300.239L389.965 301.484L390.947 303.264L392.91 308.106L398.8 325.069L400.763 329.583L405.671 339.689L407.634 343.357L409.597 346.509L419.413 360.469L421.377 362.677L426.285 367.83L429.23 371.108L431.193 372.822L433.156 373.896L435.119 374.48L437.082 374.998L439.046 375.827L449.843 381.875L451.807 383.44L454.751 386.231L459.659 391.031L470.457 400.628L472.42 401.947L475.365 403.482L481.255 405.939L485.181 407.43L488.126 408.227L492.053 408.962L496.961 409.561L502.85 409.916L516.593 410.085L531.317 410.112" fill="#EFEFEF" fill-opacity="0.4"/>
<path d="M335.977 410.112L344.811 409.975L348.737 409.646L351.682 409.199L353.646 408.703L355.609 407.928L357.572 406.78L359.535 405.187L361.498 403.085L363.462 400.366L365.425 396.793L366.406 394.564L367.388 391.958L368.37 388.917L370.333 381.348L372.296 371.719L374.259 360.323L381.131 317.154L383.094 307.916L384.075 304.517L385.057 302.018L386.039 300.406L387.02 299.625L388.002 299.596L388.984 300.239L389.965 301.484L390.947 303.264L392.91 308.106L398.8 325.069L400.763 329.583L405.671 339.689L407.634 343.357L409.597 346.509L419.413 360.469L421.377 362.677L426.285 367.83L429.23 371.108L431.193 372.822L433.156 373.896L435.119 374.48L437.082 374.998L439.046 375.827L449.843 381.875L451.807 383.44L454.751 386.231L459.659 391.031L470.457 400.628L472.42 401.947L475.365 403.482L481.255 405.939L485.181 407.43L488.126 408.227L492.053 408.962L496.961 409.561L502.85 409.916L516.593 410.085L531.317 410.112" stroke="#EFEFEF" stroke-linecap="square"/>
</g>
<mask id="mask1_230_13598" style="mask-type:luminance" maskUnits="userSpaceOnUse" x="76" y="55" width="477" height="356">
<path d="M552.957 55.2959H76.7969V410.112H552.957V55.2959Z" fill="white"/>
</mask>
<g mask="url(#mask1_230_13598)">
<path d="M328.117 410.111L356.958 409.934L361.61 409.583L369.053 408.329L371.844 407.961L373.705 407.364L375.565 406.53L376.496 405.893L377.426 404.966L383.008 397.824L384.869 393.788L387.66 387.126L389.521 381.086L391.381 373.931L393.242 365.107L395.103 353.784L398.824 328.678L400.685 313.572L403.476 285.059L407.198 248.321L409.058 233.185L410.919 220.883L411.849 216.344L412.78 214.125L413.71 214.659L414.64 217.503L416.501 226.611L418.362 238.355L420.222 254.249L422.083 274.51L424.874 306.273L426.735 324.56L428.596 338.622L431.387 355.041L435.108 376.611L436.039 381.088L437.899 388.022L439.76 393.496L440.69 395.56L442.551 398.512L445.342 402.931L447.203 405.002L449.064 406.457L450.924 407.211L453.715 408.202L455.576 408.809L459.297 409.428L466.74 409.915L488.139 410.112L513.258 410.111" fill="#EFEFEF" fill-opacity="0.4"/>
<path d="M328.117 410.111L356.958 409.934L361.61 409.583L369.053 408.329L371.844 407.961L373.705 407.364L375.565 406.53L376.496 405.893L377.426 404.966L383.008 397.824L384.869 393.788L387.66 387.126L389.521 381.086L391.381 373.931L393.242 365.107L395.103 353.784L398.824 328.678L400.685 313.572L403.476 285.059L407.198 248.321L409.058 233.185L410.919 220.883L411.849 216.344L412.78 214.125L413.71 214.659L414.64 217.503L416.501 226.611L418.362 238.355L420.222 254.249L422.083 274.51L424.874 306.273L426.735 324.56L428.596 338.622L431.387 355.041L435.108 376.611L436.039 381.088L437.899 388.022L439.76 393.496L440.69 395.56L442.551 398.512L445.342 402.931L447.203 405.002L449.064 406.457L450.924 407.211L453.715 408.202L455.576 408.809L459.297 409.428L466.74 409.915L488.139 410.112L513.258 410.111" stroke="#EFEFEF" stroke-linecap="square"/>
</g>
<mask id="mask2_230_13598" style="mask-type:luminance" maskUnits="userSpaceOnUse" x="76" y="55" width="477" height="356">
<path d="M552.957 55.2959H76.7969V410.112H552.957V55.2959Z" fill="white"/>
</mask>
<g mask="url(#mask2_230_13598)">
<path d="M341.867 410.111L351.731 409.961L355.841 409.644L359.951 408.998L364.061 408.343L369.816 407.795L372.282 407.064L374.748 406.054L377.214 404.761L379.68 403.092L381.324 401.643L382.968 399.844L385.434 396.593L392.832 386.064L394.476 383.858L396.12 381.116L401.052 371.704L402.696 369.761L404.34 368.497L406.806 367.128L408.45 366.527L410.094 366.366L412.56 366.462L413.382 366.32L414.204 365.994L415.026 365.466L416.67 363.93L419.136 361.524L422.424 358.802L423.246 357.747L424.89 354.847L426.534 351.088L428.178 346.718L429.822 341.403L431.466 334.297L433.11 324.932L435.576 307.931L438.864 284.806L440.509 274.727L442.153 266.594L442.975 263.412L443.797 260.859L444.619 258.961L445.441 257.767L446.263 257.363L447.085 257.874L447.907 259.441L448.729 262.2L449.551 266.242L450.373 271.59L452.017 285.823L454.483 312.378L456.949 338.026L458.593 352.184L460.237 363.994L461.881 374.113L463.525 382.932L465.169 390.278L466.813 395.819L468.457 399.596L470.101 402.077L471.745 403.877L474.211 406.159L475.855 407.434L477.499 408.356L479.143 408.914L481.609 409.327L488.185 409.906L493.939 410.057L505.447 410.111" fill="#EFEFEF" fill-opacity="0.4"/>
<path d="M341.867 410.111L351.731 409.961L355.841 409.644L359.951 408.998L364.061 408.343L369.816 407.795L372.282 407.064L374.748 406.054L377.214 404.761L379.68 403.092L381.324 401.643L382.968 399.844L385.434 396.593L392.832 386.064L394.476 383.858L396.12 381.116L401.052 371.704L402.696 369.761L404.34 368.497L406.806 367.128L408.45 366.527L410.094 366.366L412.56 366.462L413.382 366.32L414.204 365.994L415.026 365.466L416.67 363.93L419.136 361.524L422.424 358.802L423.246 357.747L424.89 354.847L426.534 351.088L428.178 346.718L429.822 341.403L431.466 334.297L433.11 324.932L435.576 307.931L438.864 284.806L440.509 274.727L442.153 266.594L442.975 263.412L443.797 260.859L444.619 258.961L445.441 257.767L446.263 257.363L447.085 257.874L447.907 259.441L448.729 262.2L449.551 266.242L450.373 271.59L452.017 285.823L454.483 312.378L456.949 338.026L458.593 352.184L460.237 363.994L461.881 374.113L463.525 382.932L465.169 390.278L466.813 395.819L468.457 399.596L470.101 402.077L471.745 403.877L474.211 406.159L475.855 407.434L477.499 408.356L479.143 408.914L481.609 409.327L488.185 409.906L493.939 410.057L505.447 410.111" stroke="#EFEFEF" stroke-linecap="square"/>
</g>
<mask id="mask3_230_13598" style="mask-type:luminance" maskUnits="userSpaceOnUse" x="76" y="55" width="477" height="356">
<path d="M552.957 55.2959H76.7969V410.112H552.957V55.2959Z" fill="white"/>
</mask>
<g mask="url(#mask3_230_13598)">
<path d="M336.539 410.112L350.688 409.952L354.226 409.684L358.647 409.053L361.3 408.428L363.953 407.474L365.722 406.626L367.49 405.476L369.259 403.849L371.028 401.618L372.796 398.714L374.565 395.021L376.334 390.316L378.102 384.427L379.871 377.415L382.524 365.409L385.177 353.33L386.945 346.765L388.714 342.065L390.483 338.847L392.251 336.389L394.02 334.396L395.789 332.887L398.442 330.957L400.21 329.219L401.979 326.781L403.748 323.559L408.169 314.244L409.054 312.815L409.938 311.709L410.822 310.95L411.707 310.521L412.591 310.362L414.36 310.558L416.128 311.212L417.013 311.794L417.897 312.644L418.781 313.823L419.665 315.349L421.434 319.274L424.971 328.642L429.393 340.646L431.162 344.581L433.815 349.406L438.236 357.031L440.889 362.633L446.195 374.477L447.964 377.773L449.732 380.369L451.501 382.267L454.154 384.844L455.923 387.073L459.46 392.445L462.997 397.622L465.65 400.904L467.419 402.696L469.188 404.129L470.956 405.203L473.609 406.391L478.915 408.425L481.568 409.153L484.221 409.515L487.758 409.551L492.18 409.625L501.023 410.042L512.519 410.112" fill="#EFEFEF" fill-opacity="0.4"/>
<path d="M336.539 410.112L350.688 409.952L354.226 409.684L358.647 409.053L361.3 408.428L363.953 407.474L365.722 406.626L367.49 405.476L369.259 403.849L371.028 401.618L372.796 398.714L374.565 395.021L376.334 390.316L378.102 384.427L379.871 377.415L382.524 365.409L385.177 353.33L386.945 346.765L388.714 342.065L390.483 338.847L392.251 336.389L394.02 334.396L395.789 332.887L398.442 330.957L400.21 329.219L401.979 326.781L403.748 323.559L408.169 314.244L409.054 312.815L409.938 311.709L410.822 310.95L411.707 310.521L412.591 310.362L414.36 310.558L416.128 311.212L417.013 311.794L417.897 312.644L418.781 313.823L419.665 315.349L421.434 319.274L424.971 328.642L429.393 340.646L431.162 344.581L433.815 349.406L438.236 357.031L440.889 362.633L446.195 374.477L447.964 377.773L449.732 380.369L451.501 382.267L454.154 384.844L455.923 387.073L459.46 392.445L462.997 397.622L465.65 400.904L467.419 402.696L469.188 404.129L470.956 405.203L473.609 406.391L478.915 408.425L481.568 409.153L484.221 409.515L487.758 409.551L492.18 409.625L501.023 410.042L512.519 410.112" stroke="#EFEFEF" stroke-linecap="square"/>
</g>
<mask id="mask4_230_13598" style="mask-type:luminance" maskUnits="userSpaceOnUse" x="76" y="55" width="477" height="356">
<path d="M552.957 55.2959H76.7969V410.112H552.957V55.2959Z" fill="white"/>
</mask>
<g mask="url(#mask4_230_13598)">
<path d="M339.867 410.111L353.451 409.983L356.647 409.773L360.643 409.791L369.432 408.798L373.427 408.618L375.025 408.333L377.423 408.161L379.021 407.549L380.619 406.822L382.217 406.189L383.016 405.564L383.815 404.588L385.413 401.873L387.011 398.426L388.609 393.519L391.006 383.945L392.605 375.899L394.203 365.228L395.002 358.65L395.801 350.838L396.6 341.396L398.198 316.876L399.796 285.888L402.193 230.436L403.791 194.813L404.59 179.658L405.389 167.503L406.188 159.324L406.987 155.704L407.786 156.92L408.586 162.859L409.385 172.615L411.782 209.828L414.978 259.69L416.576 279.653L417.375 288.322L418.174 295.324L418.973 300.452L420.571 307.594L422.169 313.184L423.767 317.29L424.567 320.23L425.366 324.446L427.763 340.876L430.959 364.067L432.557 373.352L434.954 384.606L436.552 391.185L438.15 396.413L439.748 400.184L441.347 403.254L442.945 405.669L443.744 406.527L444.543 407.157L446.141 407.885L450.136 408.919L455.73 409.561L458.127 409.841L474.108 409.985L477.304 410.053L481.299 410.103L488.491 410.11L498.878 410.111" fill="#EFEFEF" fill-opacity="0.4"/>
<path d="M339.867 410.111L353.451 409.983L356.647 409.773L360.643 409.791L369.432 408.798L373.427 408.618L375.025 408.333L377.423 408.161L379.021 407.549L380.619 406.822L382.217 406.189L383.016 405.564L383.815 404.588L385.413 401.873L387.011 398.426L388.609 393.519L391.006 383.945L392.605 375.899L394.203 365.228L395.002 358.65L395.801 350.838L396.6 341.396L398.198 316.876L399.796 285.888L402.193 230.436L403.791 194.813L404.59 179.658L405.389 167.503L406.188 159.324L406.987 155.704L407.786 156.92L408.586 162.859L409.385 172.615L411.782 209.828L414.978 259.69L416.576 279.653L417.375 288.322L418.174 295.324L418.973 300.452L420.571 307.594L422.169 313.184L423.767 317.29L424.567 320.23L425.366 324.446L427.763 340.876L430.959 364.067L432.557 373.352L434.954 384.606L436.552 391.185L438.15 396.413L439.748 400.184L441.347 403.254L442.945 405.669L443.744 406.527L444.543 407.157L446.141 407.885L450.136 408.919L455.73 409.561L458.127 409.841L474.108 409.985L477.304 410.053L481.299 410.103L488.491 410.11L498.878 410.111" stroke="#EFEFEF" stroke-linecap="square"/>
</g>
<mask id="mask5_230_13598" style="mask-type:luminance" maskUnits="userSpaceOnUse" x="76" y="55" width="477" height="356">
<path d="M552.957 55.2959H76.7969V410.112H552.957V55.2959Z" fill="white"/>
</mask>
<g mask="url(#mask5_230_13598)">
<path d="M330.023 410.111L346.682 409.965L349.459 409.718L352.235 409.204L354.086 408.621L355.937 407.632L357.788 406.018L359.639 403.68L361.49 400.613L363.341 396.769L365.192 392.072L367.969 383.851L374.447 363.731L377.223 355.339L379.074 350.834L382.776 342.672L387.404 331.537L390.18 325.393L392.031 320.525L393.882 314.888L395.733 308.527L399.435 294.998L400.361 292.296L401.286 290.136L402.212 288.579L403.137 287.677L404.063 287.476L404.988 287.992L405.914 289.173L406.839 290.889L408.69 295.292L410.541 300.581L412.392 307.224L414.243 315.384L419.796 341.846L421.647 349.168L423.498 355.209L425.349 360.2L428.125 366.513L433.678 378.238L436.455 383.154L438.306 385.88L441.082 389.298L445.71 394.711L447.561 396.521L449.412 398.012L452.188 399.778L454.965 401.153L461.443 404.105L465.145 406.02L466.996 406.652L469.772 407.181L473.474 407.86L479.027 409.019L482.729 409.539L487.357 409.843L493.835 409.973L514.196 410.111" fill="#EFEFEF" fill-opacity="0.4"/>
<path d="M330.023 410.111L346.682 409.965L349.459 409.718L352.235 409.204L354.086 408.621L355.937 407.632L357.788 406.018L359.639 403.68L361.49 400.613L363.341 396.769L365.192 392.072L367.969 383.851L374.447 363.731L377.223 355.339L379.074 350.834L382.776 342.672L387.404 331.537L390.18 325.393L392.031 320.525L393.882 314.888L395.733 308.527L399.435 294.998L400.361 292.296L401.286 290.136L402.212 288.579L403.137 287.677L404.063 287.476L404.988 287.992L405.914 289.173L406.839 290.889L408.69 295.292L410.541 300.581L412.392 307.224L414.243 315.384L419.796 341.846L421.647 349.168L423.498 355.209L425.349 360.2L428.125 366.513L433.678 378.238L436.455 383.154L438.306 385.88L441.082 389.298L445.71 394.711L447.561 396.521L449.412 398.012L452.188 399.778L454.965 401.153L461.443 404.105L465.145 406.02L466.996 406.652L469.772 407.181L473.474 407.86L479.027 409.019L482.729 409.539L487.357 409.843L493.835 409.973L514.196 410.111" stroke="#EFEFEF" stroke-linecap="square"/>
</g>
<mask id="mask6_230_13598" style="mask-type:luminance" maskUnits="userSpaceOnUse" x="76" y="55" width="477" height="356">
<path d="M552.957 55.2959H76.7969V410.112H552.957V55.2959Z" fill="white"/>
</mask>
<g mask="url(#mask6_230_13598)">
<path d="M331.875 410.111L338.406 409.963L342.138 409.578L344.937 409.056L347.736 408.223L349.601 407.26L350.534 406.551L351.467 405.649L353.333 403.21L355.199 399.874L357.065 395.598L358.931 390.349L360.797 383.888L362.663 375.717L364.529 365.502L366.395 353.487L372.926 307.737L377.591 274.726L379.457 264.348L380.39 260.321L381.323 257.144L382.256 254.874L383.189 253.562L384.122 253.228L385.054 253.82L385.987 255.228L386.92 257.326L387.853 260.035L388.786 263.348L390.652 271.855L392.518 282.52L395.317 300.667L400.915 338.628L402.781 349.27L404.647 358.645L406.513 366.892L408.379 374.08L410.245 380.139L412.111 384.797L413.044 386.56L414.91 389.211L416.776 391.235L418.642 392.905L420.507 394.045L422.373 394.614L427.971 395.513L430.77 396.021L442.899 399.795L452.229 402.917L461.558 407.174L463.424 407.756L465.29 408.022L469.022 408.251L471.821 408.87L474.62 409.389L478.352 409.587L483.95 409.821L488.615 410.004L517.537 410.111" fill="#EFEFEF" fill-opacity="0.4"/>
<path d="M331.875 410.111L338.406 409.963L342.138 409.578L344.937 409.056L347.736 408.223L349.601 407.26L350.534 406.551L351.467 405.649L353.333 403.21L355.199 399.874L357.065 395.598L358.931 390.349L360.797 383.888L362.663 375.717L364.529 365.502L366.395 353.487L372.926 307.737L377.591 274.726L379.457 264.348L380.39 260.321L381.323 257.144L382.256 254.874L383.189 253.562L384.122 253.228L385.054 253.82L385.987 255.228L386.92 257.326L387.853 260.035L388.786 263.348L390.652 271.855L392.518 282.52L395.317 300.667L400.915 338.628L402.781 349.27L404.647 358.645L406.513 366.892L408.379 374.08L410.245 380.139L412.111 384.797L413.044 386.56L414.91 389.211L416.776 391.235L418.642 392.905L420.507 394.045L422.373 394.614L427.971 395.513L430.77 396.021L442.899 399.795L452.229 402.917L461.558 407.174L463.424 407.756L465.29 408.022L469.022 408.251L471.821 408.87L474.62 409.389L478.352 409.587L483.95 409.821L488.615 410.004L517.537 410.111" stroke="#EFEFEF" stroke-linecap="square"/>
</g>
<mask id="mask7_230_13598" style="mask-type:luminance" maskUnits="userSpaceOnUse" x="76" y="55" width="477" height="356">
<path d="M552.957 55.2959H76.7969V410.112H552.957V55.2959Z" fill="white"/>
</mask>
<g mask="url(#mask7_230_13598)">
<path d="M326.664 410.111L335.053 409.979L340.646 409.653L343.443 409.171L347.171 408.257L349.036 407.608L350.9 406.574L352.764 404.985L354.628 402.835L356.493 400.235L359.289 395.754L362.086 390.837L363.95 387.171L365.814 382.807L367.678 377.521L370.475 368.326L377.932 343.233L380.729 334.998L383.525 327.468L385.389 323.133L387.254 319.855L388.186 318.691L389.118 317.827L390.05 317.214L391.914 316.484L395.643 315.616L396.575 315.544L397.507 315.656L398.439 316.018L399.371 316.657L401.236 318.635L404.032 322.43L406.829 326.792L409.625 331.961L413.354 339.614L418.946 351.523L420.811 354.673L422.675 357.206L429.2 365.267L433.861 371.843L439.454 380.172L445.979 387.714L450.639 393.865L454.368 398.273L456.232 400.134L459.029 402.387L461.825 404.217L464.622 405.644L467.418 406.659L472.079 407.908L478.604 409.351L481.4 409.722L485.129 409.859L512.161 410.111" fill="#EFEFEF" fill-opacity="0.4"/>
<path d="M326.664 410.111L335.053 409.979L340.646 409.653L343.443 409.171L347.171 408.257L349.036 407.608L350.9 406.574L352.764 404.985L354.628 402.835L356.493 400.235L359.289 395.754L362.086 390.837L363.95 387.171L365.814 382.807L367.678 377.521L370.475 368.326L377.932 343.233L380.729 334.998L383.525 327.468L385.389 323.133L387.254 319.855L388.186 318.691L389.118 317.827L390.05 317.214L391.914 316.484L395.643 315.616L396.575 315.544L397.507 315.656L398.439 316.018L399.371 316.657L401.236 318.635L404.032 322.43L406.829 326.792L409.625 331.961L413.354 339.614L418.946 351.523L420.811 354.673L422.675 357.206L429.2 365.267L433.861 371.843L439.454 380.172L445.979 387.714L450.639 393.865L454.368 398.273L456.232 400.134L459.029 402.387L461.825 404.217L464.622 405.644L467.418 406.659L472.079 407.908L478.604 409.351L481.4 409.722L485.129 409.859L512.161 410.111" stroke="#EFEFEF" stroke-linecap="square"/>
</g>
<mask id="mask8_230_13598" style="mask-type:luminance" maskUnits="userSpaceOnUse" x="76" y="55" width="477" height="356">
<path d="M552.957 55.2959H76.7969V410.112H552.957V55.2959Z" fill="white"/>
</mask>
<g mask="url(#mask8_230_13598)">
<path d="M345.562 410.111L358.579 409.946L367.257 409.396L369.86 409.456L373.331 408.934L375.934 408.365L378.538 408.346L379.405 408.093L381.141 406.982L383.744 405.119L386.348 403.39L388.083 401.567L389.819 399.028L391.554 395.712L394.157 390.127L395.893 386.603L403.703 367.617L405.438 361.682L408.042 350.471L409.777 343.011L410.645 338.563L411.513 332.962L413.248 318.356L415.852 291.954L423.662 204.09L424.529 196.941L425.397 191.96L426.265 189.504L427.133 189.822L428 192.85L428.868 198.216L429.736 205.582L430.604 214.83L432.339 238.207L438.414 330.029L440.149 350.372L441.885 365.996L443.62 377.498L445.356 386.383L447.091 393.907L447.959 396.947L448.827 399.394L449.695 401.299L451.43 404.089L453.166 406.322L454.033 407.215L454.901 407.89L455.769 408.326L456.637 408.54L460.108 408.902L462.711 409.635L464.447 409.818L477.463 409.983L482.67 410.063L489.612 410.111L518.248 410.111" fill="#EFEFEF" fill-opacity="0.4"/>
<path d="M345.562 410.111L358.579 409.946L367.257 409.396L369.86 409.456L373.331 408.934L375.934 408.365L378.538 408.346L379.405 408.093L381.141 406.982L383.744 405.119L386.348 403.39L388.083 401.567L389.819 399.028L391.554 395.712L394.157 390.127L395.893 386.603L403.703 367.617L405.438 361.682L408.042 350.471L409.777 343.011L410.645 338.563L411.513 332.962L413.248 318.356L415.852 291.954L423.662 204.09L424.529 196.941L425.397 191.96L426.265 189.504L427.133 189.822L428 192.85L428.868 198.216L429.736 205.582L430.604 214.83L432.339 238.207L438.414 330.029L440.149 350.372L441.885 365.996L443.62 377.498L445.356 386.383L447.091 393.907L447.959 396.947L448.827 399.394L449.695 401.299L451.43 404.089L453.166 406.322L454.033 407.215L454.901 407.89L455.769 408.326L456.637 408.54L460.108 408.902L462.711 409.635L464.447 409.818L477.463 409.983L482.67 410.063L489.612 410.111L518.248 410.111" stroke="#EFEFEF" stroke-linecap="square"/>
</g>
<mask id="mask9_230_13598" style="mask-type:luminance" maskUnits="userSpaceOnUse" x="76" y="55" width="477" height="356">
<path d="M552.957 55.2959H76.7969V410.112H552.957V55.2959Z" fill="white"/>
</mask>
<g mask="url(#mask9_230_13598)">
<path d="M324.672 410.111L344.027 409.96L349.306 409.609L352.825 409.095L356.344 408.259L359.863 407.097L366.021 404.695L367.781 403.753L369.541 402.519L371.3 400.901L373.06 398.864L376.579 394.046L381.857 386.675L383.617 383.612L386.256 378.297L392.415 364.996L395.054 358.799L397.693 351.933L402.092 340.09L403.852 336.601L405.611 334.303L408.251 331.474L410.01 328.783L412.65 323.536L414.409 320.246L416.169 317.676L417.928 315.789L418.808 315.093L419.688 314.59L420.568 314.299L421.447 314.219L423.207 314.522L425.846 315.468L426.726 315.946L427.606 316.596L428.486 317.461L430.245 319.791L433.764 325.075L437.283 329.921L439.043 333.329L440.803 337.728L443.442 345.571L446.081 353.561L447.841 358.227L451.36 366.271L453.999 372.633L458.398 383.608L461.917 391.407L464.557 396.546L466.316 399.325L468.076 401.486L469.835 403.168L472.475 405.268L475.114 407.042L476.873 407.903L479.513 408.755L483.032 409.478L486.551 409.844L492.709 410.043L499.748 410.111" fill="#EFEFEF" fill-opacity="0.4"/>
<path d="M324.672 410.111L344.027 409.96L349.306 409.609L352.825 409.095L356.344 408.259L359.863 407.097L366.021 404.695L367.781 403.753L369.541 402.519L371.3 400.901L373.06 398.864L376.579 394.046L381.857 386.675L383.617 383.612L386.256 378.297L392.415 364.996L395.054 358.799L397.693 351.933L402.092 340.09L403.852 336.601L405.611 334.303L408.251 331.474L410.01 328.783L412.65 323.536L414.409 320.246L416.169 317.676L417.928 315.789L418.808 315.093L419.688 314.59L420.568 314.299L421.447 314.219L423.207 314.522L425.846 315.468L426.726 315.946L427.606 316.596L428.486 317.461L430.245 319.791L433.764 325.075L437.283 329.921L439.043 333.329L440.803 337.728L443.442 345.571L446.081 353.561L447.841 358.227L451.36 366.271L453.999 372.633L458.398 383.608L461.917 391.407L464.557 396.546L466.316 399.325L468.076 401.486L469.835 403.168L472.475 405.268L475.114 407.042L476.873 407.903L479.513 408.755L483.032 409.478L486.551 409.844L492.709 410.043L499.748 410.111" stroke="#EFEFEF" stroke-linecap="square"/>
</g>
<mask id="mask10_230_13598" style="mask-type:luminance" maskUnits="userSpaceOnUse" x="76" y="55" width="477" height="356">
<path d="M552.957 55.2959H76.7969V410.112H552.957V55.2959Z" fill="white"/>
</mask>
<g mask="url(#mask10_230_13598)">
<path d="M342.984 410.111L349.965 409.957L359.564 409.513L363.054 408.874L364.8 408.341L367.418 407.152L370.035 405.606L371.781 404.13L373.526 402.188L375.271 399.788L377.016 396.767L378.762 392.694L379.634 390.056L380.507 386.887L382.252 378.692L383.997 368.253L389.233 333.036L391.851 315.081L393.596 305.07L395.341 296.841L397.086 289.611L398.832 283.54L399.704 281.176L401.449 277.69L403.195 275.043L404.067 273.938L404.94 273.134L405.813 272.802L406.685 273.073L407.558 274.008L408.43 275.594L409.303 277.776L411.048 283.61L413.666 294.455L418.902 317.214L423.265 337.851L425.01 344.411L426.755 349.791L430.246 360.096L432.864 368.3L434.609 372.644L436.354 376.024L440.717 383.583L442.462 385.917L445.08 388.702L449.443 393.073L454.679 397.196L459.042 401.766L461.66 403.887L464.278 405.603L466.895 406.87L470.386 408.149L473.004 408.797L476.494 409.326L479.112 409.514L484.348 409.654L488.711 410.041L499.182 410.096L516.634 410.112" fill="#EFEFEF" fill-opacity="0.4"/>
<path d="M342.984 410.111L349.965 409.957L359.564 409.513L363.054 408.874L364.8 408.341L367.418 407.152L370.035 405.606L371.781 404.13L373.526 402.188L375.271 399.788L377.016 396.767L378.762 392.694L379.634 390.056L380.507 386.887L382.252 378.692L383.997 368.253L389.233 333.036L391.851 315.081L393.596 305.07L395.341 296.841L397.086 289.611L398.832 283.54L399.704 281.176L401.449 277.69L403.195 275.043L404.067 273.938L404.94 273.134L405.813 272.802L406.685 273.073L407.558 274.008L408.43 275.594L409.303 277.776L411.048 283.61L413.666 294.455L418.902 317.214L423.265 337.851L425.01 344.411L426.755 349.791L430.246 360.096L432.864 368.3L434.609 372.644L436.354 376.024L440.717 383.583L442.462 385.917L445.08 388.702L449.443 393.073L454.679 397.196L459.042 401.766L461.66 403.887L464.278 405.603L466.895 406.87L470.386 408.149L473.004 408.797L476.494 409.326L479.112 409.514L484.348 409.654L488.711 410.041L499.182 410.096L516.634 410.112" stroke="#EFEFEF" stroke-linecap="square"/>
</g>
<mask id="mask11_230_13598" style="mask-type:luminance" maskUnits="userSpaceOnUse" x="76" y="55" width="477" height="356">
<path d="M552.957 55.2959H76.7969V410.112H552.957V55.2959Z" fill="white"/>
</mask>
<g mask="url(#mask11_230_13598)">
<path d="M348.141 410.111L353.19 409.976L357.518 409.85L359.682 409.819L362.568 409.29L365.453 408.414L369.781 408.84L373.388 409.353L374.11 409.19L375.552 408.264L376.995 407.121L378.438 406.387L379.88 405.935L381.323 405.085L382.766 403.95L383.487 403.255L384.209 402.347L386.373 398.892L387.815 397.126L388.537 395.74L389.258 393.654L390.701 387.562L392.144 379.399L394.308 364.479L397.914 339.051L398.636 331.048L400.079 309.456L401.521 282.744L402.964 250.902L404.407 212.271L408.014 106.988L408.735 91.1893L409.456 79.0871L410.178 72.1972L410.899 72.1924L411.62 80.1388L412.342 95.6955L413.784 142.595L417.391 279.317L418.834 317.229L420.277 342.38L421.719 359.784L422.441 365.312L423.883 372.088L426.769 383.457L428.212 387.686L429.654 390.893L431.818 394.333L434.704 398.813L436.147 401.085L436.868 401.842L438.311 402.703L439.753 403.612L441.196 404.689L444.803 406.724L445.524 406.856L446.246 406.659L447.688 406.068L448.41 406.144L451.295 407.501L452.738 407.939L455.623 409.139L457.066 409.222L460.673 409.179L462.116 409.228L465.001 409.617L468.608 409.518L473.657 410.071L487.363 410.014L491.691 410.111" fill="#EFEFEF" fill-opacity="0.4"/>
<path d="M348.141 410.111L353.19 409.976L357.518 409.85L359.682 409.819L362.568 409.29L365.453 408.414L369.781 408.84L373.388 409.353L374.11 409.19L375.552 408.264L376.995 407.121L378.438 406.387L379.88 405.935L381.323 405.085L382.766 403.95L383.487 403.255L384.209 402.347L386.373 398.892L387.815 397.126L388.537 395.74L389.258 393.654L390.701 387.562L392.144 379.399L394.308 364.479L397.914 339.051L398.636 331.048L400.079 309.456L401.521 282.744L402.964 250.902L404.407 212.271L408.014 106.988L408.735 91.1893L409.456 79.0871L410.178 72.1972L410.899 72.1924L411.62 80.1388L412.342 95.6955L413.784 142.595L417.391 279.317L418.834 317.229L420.277 342.38L421.719 359.784L422.441 365.312L423.883 372.088L426.769 383.457L428.212 387.686L429.654 390.893L431.818 394.333L434.704 398.813L436.147 401.085L436.868 401.842L438.311 402.703L439.753 403.612L441.196 404.689L444.803 406.724L445.524 406.856L446.246 406.659L447.688 406.068L448.41 406.144L451.295 407.501L452.738 407.939L455.623 409.139L457.066 409.222L460.673 409.179L462.116 409.228L465.001 409.617L468.608 409.518L473.657 410.071L487.363 410.014L491.691 410.111" stroke="#EFEFEF" stroke-linecap="square"/>
</g>
<mask id="mask12_230_13598" style="mask-type:luminance" maskUnits="userSpaceOnUse" x="76" y="55" width="477" height="356">
<path d="M552.957 55.2959H76.7969V410.112H552.957V55.2959Z" fill="white"/>
</mask>
<g mask="url(#mask12_230_13598)">
<path d="M349.172 410.111L355.546 409.956L365.904 409.618L369.091 409.686L377.058 408.878L382.635 407.919L385.822 407.498L387.416 406.83L389.009 405.692L390.603 403.925L392.196 401.428L393.79 398.104L395.383 393.582L398.57 382.363L400.164 375.767L400.961 371.586L402.554 360.784L404.148 346.893L412.115 271.302L413.709 257.904L414.505 252.247L415.302 247.678L416.099 244.277L416.896 241.934L417.692 240.441L418.489 239.601L419.286 239.315L420.083 239.612L420.879 240.607L421.676 242.449L422.473 245.275L423.27 249.151L424.863 259.44L426.457 270.36L428.05 279.591L430.44 293.26L435.221 325.303L437.611 336.631L442.392 358.407L444.782 367.061L447.172 375.115L449.563 381.805L451.953 387.868L453.546 391.219L455.14 393.748L459.123 399.255L460.717 400.822L465.498 404.914L467.091 405.556L469.481 406.386L472.668 407.625L475.855 408.442L479.839 409.162L487.01 409.937L490.994 409.921L507.725 410.111" fill="#EFEFEF" fill-opacity="0.4"/>
<path d="M349.172 410.111L355.546 409.956L365.904 409.618L369.091 409.686L377.058 408.878L382.635 407.919L385.822 407.498L387.416 406.83L389.009 405.692L390.603 403.925L392.196 401.428L393.79 398.104L395.383 393.582L398.57 382.363L400.164 375.767L400.961 371.586L402.554 360.784L404.148 346.893L412.115 271.302L413.709 257.904L414.505 252.247L415.302 247.678L416.099 244.277L416.896 241.934L417.692 240.441L418.489 239.601L419.286 239.315L420.083 239.612L420.879 240.607L421.676 242.449L422.473 245.275L423.27 249.151L424.863 259.44L426.457 270.36L428.05 279.591L430.44 293.26L435.221 325.303L437.611 336.631L442.392 358.407L444.782 367.061L447.172 375.115L449.563 381.805L451.953 387.868L453.546 391.219L455.14 393.748L459.123 399.255L460.717 400.822L465.498 404.914L467.091 405.556L469.481 406.386L472.668 407.625L475.855 408.442L479.839 409.162L487.01 409.937L490.994 409.921L507.725 410.111" stroke="#EFEFEF" stroke-linecap="square"/>
</g>
<mask id="mask13_230_13598" style="mask-type:luminance" maskUnits="userSpaceOnUse" x="76" y="55" width="477" height="356">
<path d="M552.957 55.2959H76.7969V410.112H552.957V55.2959Z" fill="white"/>
</mask>
<g mask="url(#mask13_230_13598)">
<path d="M328.078 410.111L344.992 409.959L349.967 409.538L352.952 409.21L354.942 408.728L356.932 407.906L359.916 406.345L361.906 404.889L363.896 402.63L365.886 399.577L366.881 397.702L368.871 392.971L370.861 386.868L372.851 379.106L374.841 369.027L376.831 356.854L380.81 331.404L382.8 320.416L388.77 289.412L389.765 285.383L390.76 282.158L391.755 279.766L392.75 278.227L393.745 277.573L394.74 277.75L396.73 279.437L399.714 281.849L400.709 283.303L404.689 291.549L405.684 293.052L406.679 295.136L407.674 298.299L409.664 307.06L411.654 315.382L413.644 321.905L415.634 328.412L417.623 336.674L419.613 345.799L421.603 353.308L427.573 372.125L431.553 386.055L433.543 391.524L435.533 395.394L437.522 398.609L439.512 401.271L441.502 403.176L444.487 405.498L446.477 406.521L449.462 407.55L454.437 408.783L457.421 409.326L461.401 409.688L476.325 410.021L491.25 410.111L526.073 410.111" fill="#EFEFEF" fill-opacity="0.4"/>
<path d="M328.078 410.111L344.992 409.959L349.967 409.538L352.952 409.21L354.942 408.728L356.932 407.906L359.916 406.345L361.906 404.889L363.896 402.63L365.886 399.577L366.881 397.702L368.871 392.971L370.861 386.868L372.851 379.106L374.841 369.027L376.831 356.854L380.81 331.404L382.8 320.416L388.77 289.412L389.765 285.383L390.76 282.158L391.755 279.766L392.75 278.227L393.745 277.573L394.74 277.75L396.73 279.437L399.714 281.849L400.709 283.303L404.689 291.549L405.684 293.052L406.679 295.136L407.674 298.299L409.664 307.06L411.654 315.382L413.644 321.905L415.634 328.412L417.623 336.674L419.613 345.799L421.603 353.308L427.573 372.125L431.553 386.055L433.543 391.524L435.533 395.394L437.522 398.609L439.512 401.271L441.502 403.176L444.487 405.498L446.477 406.521L449.462 407.55L454.437 408.783L457.421 409.326L461.401 409.688L476.325 410.021L491.25 410.111L526.073 410.111" stroke="#EFEFEF" stroke-linecap="square"/>
</g>
<mask id="mask14_230_13598" style="mask-type:luminance" maskUnits="userSpaceOnUse" x="76" y="55" width="477" height="356">
<path d="M552.957 55.2959H76.7969V410.112H552.957V55.2959Z" fill="white"/>
</mask>
<g mask="url(#mask14_230_13598)">
<path d="M98.4375 410.112L222.264 410.112L329.01 410L333.28 409.838L341.82 409.203L343.955 408.841L348.224 407.464L350.359 406.565L352.494 405.275L354.629 403.45L356.764 401.128L358.899 398.392L361.034 395.235L363.169 391.613L367.439 383.486L369.574 378.729L371.709 373.159L373.844 366.666L378.113 352.043L380.248 345.63L384.518 334.453L388.788 322.106L390.923 317.184L393.058 313.11L395.193 309.755L397.328 307.259L399.463 306.248L401.598 307.203L403.733 308.872L405.868 309.627L408.003 310.103L410.137 312.407L412.272 317.22L414.407 322.935L427.217 353.259L433.622 370.655L440.026 386.26L442.161 390.383L444.296 393.786L446.431 396.82L448.566 399.34L450.701 401.142L461.376 407.883L463.511 408.609L465.646 409.002L474.185 409.612L482.725 409.972L506.209 410.112L523.289 410.112" fill="#7EB0D5" fill-opacity="0.4"/>
<path d="M98.4375 410.112L222.264 410.112L329.01 410L333.28 409.838L341.82 409.203L343.955 408.841L348.224 407.464L350.359 406.565L352.494 405.275L354.629 403.45L356.764 401.128L358.899 398.392L361.034 395.235L363.169 391.613L367.439 383.486L369.574 378.729L371.709 373.159L373.844 366.666L378.113 352.043L380.248 345.63L384.518 334.453L388.788 322.106L390.923 317.184L393.058 313.11L395.193 309.755L397.328 307.259L399.463 306.248L401.598 307.203L403.733 308.872L405.868 309.627L408.003 310.103L410.137 312.407L412.272 317.22L414.407 322.935L427.217 353.259L433.622 370.655L440.026 386.26L442.161 390.383L444.296 393.786L446.431 396.82L448.566 399.34L450.701 401.142L461.376 407.883L463.511 408.609L465.646 409.002L474.185 409.612L482.725 409.972L506.209 410.112L523.289 410.112" stroke="#7EB0D5" stroke-linecap="square"/>
</g>
<path d="M535.061 411.061C535.646 410.475 535.646 409.525 535.061 408.939L525.515 399.393C524.929 398.808 523.979 398.808 523.393 399.393C522.808 399.979 522.808 400.929 523.393 401.515L531.879 410L523.393 418.485C522.808 419.071 522.808 420.021 523.393 420.607C523.979 421.192 524.929 421.192 525.515 420.607L535.061 411.061ZM79 411.5H534V408.5H79V411.5Z" fill="black"/>
</g>
<defs>
<clipPath id="clip0_230_13598">
<rect width="614.4" height="460.8" fill="white"/>
</clipPath>
</defs>
</svg>
