<svg width="615" height="461" viewBox="0 0 615 461" fill="none" xmlns="http://www.w3.org/2000/svg">
<g clip-path="url(#clip0_230_13918)">
<mask id="mask0_230_13918" style="mask-type:luminance" maskUnits="userSpaceOnUse" x="76" y="55" width="477" height="356">
<path d="M552.957 55.2959H76.7969V410.112H552.957V55.2959Z" fill="white"/>
</mask>
<g mask="url(#mask0_230_13918)">
<path d="M283.359 410.111L288.343 410.031L290.835 409.788L293.327 409.182L294.573 408.671L295.819 407.975L297.065 407.04L298.311 405.781L299.557 404.072L300.803 401.745L302.049 398.605L303.295 394.464L304.542 389.186L305.787 382.721L307.034 375.103L309.526 356.841L314.51 316.267L315.756 307.588L317.002 300.116L318.248 293.955L319.494 289.023L320.74 285.101L321.986 281.984L323.232 279.602L324.478 278.021L325.724 277.339L326.97 277.621L328.216 278.88L329.462 281.072L330.708 284.076L333.2 291.63L335.692 299.427L344.414 324.687L348.152 332.764L353.136 343.78L354.382 346.07L355.628 347.939L359.366 352.785L361.858 357.25L365.596 364.91L368.088 370.25L369.334 372.578L374.318 380.625L378.056 387.502L379.302 389.334L381.794 392.29L390.516 401.306L391.762 402.293L394.254 403.769L399.238 406.323L401.73 407.222L406.714 408.387L410.452 409.096L414.19 409.445L422.912 409.782L434.126 409.847L440.356 409.893L455.308 410.083L475.245 410.061L531.315 410.112" fill="#EFEFEF" fill-opacity="0.4"/>
<path d="M283.359 410.111L288.343 410.031L290.835 409.788L293.327 409.182L294.573 408.671L295.819 407.975L297.065 407.04L298.311 405.781L299.557 404.072L300.803 401.745L302.049 398.605L303.295 394.464L304.542 389.186L305.787 382.721L307.034 375.103L309.526 356.841L314.51 316.267L315.756 307.588L317.002 300.116L318.248 293.955L319.494 289.023L320.74 285.101L321.986 281.984L323.232 279.602L324.478 278.021L325.724 277.339L326.97 277.621L328.216 278.88L329.462 281.072L330.708 284.076L333.2 291.63L335.692 299.427L344.414 324.687L348.152 332.764L353.136 343.78L354.382 346.07L355.628 347.939L359.366 352.785L361.858 357.25L365.596 364.91L368.088 370.25L369.334 372.578L374.318 380.625L378.056 387.502L379.302 389.334L381.794 392.29L390.516 401.306L391.762 402.293L394.254 403.769L399.238 406.323L401.73 407.222L406.714 408.387L410.452 409.096L414.19 409.445L422.912 409.782L434.126 409.847L440.356 409.893L455.308 410.083L475.245 410.061L531.315 410.112" stroke="#EFEFEF" stroke-linecap="square"/>
</g>
<mask id="mask1_230_13918" style="mask-type:luminance" maskUnits="userSpaceOnUse" x="76" y="55" width="477" height="356">
<path d="M552.957 55.2959H76.7969V410.112H552.957V55.2959Z" fill="white"/>
</mask>
<g mask="url(#mask1_230_13918)">
<path d="M291.023 410.111L297.705 409.916L299.932 409.553L304.387 408.411L307.727 407.011L311.068 405.075L312.182 404.09L313.295 402.493L314.409 400.325L315.522 397.801L316.636 394.787L317.75 390.783L319.977 380.246L321.09 373.13L322.204 363.538L324.431 339.917L326.658 313.875L327.772 298.456L328.886 279.992L334.454 171.417L335.567 155.786L336.681 144.013L337.794 134.871L338.908 130.202L340.021 132.754L341.135 143.184L342.249 160.628L347.817 264.982L350.044 299.554L352.271 324.849L354.498 348.084L355.612 357.511L356.725 364.659L358.952 375.546L361.18 385.684L362.293 389.852L363.407 393.024L365.634 397.693L366.748 399.865L367.861 401.445L370.088 403.331L372.316 405.504L373.429 406.186L377.884 408.046L380.111 408.554L382.338 408.933L384.565 409.455L392.36 409.748L395.701 410.078L405.723 410.014L409.064 410.055L415.746 410.012L419.086 410.079L423.541 409.877L429.109 410.112L512.628 410.111" fill="#EFEFEF" fill-opacity="0.4"/>
<path d="M291.023 410.111L297.705 409.916L299.932 409.553L304.387 408.411L307.727 407.011L311.068 405.075L312.182 404.09L313.295 402.493L314.409 400.325L315.522 397.801L316.636 394.787L317.75 390.783L319.977 380.246L321.09 373.13L322.204 363.538L324.431 339.917L326.658 313.875L327.772 298.456L328.886 279.992L334.454 171.417L335.567 155.786L336.681 144.013L337.794 134.871L338.908 130.202L340.021 132.754L341.135 143.184L342.249 160.628L347.817 264.982L350.044 299.554L352.271 324.849L354.498 348.084L355.612 357.511L356.725 364.659L358.952 375.546L361.18 385.684L362.293 389.852L363.407 393.024L365.634 397.693L366.748 399.865L367.861 401.445L370.088 403.331L372.316 405.504L373.429 406.186L377.884 408.046L380.111 408.554L382.338 408.933L384.565 409.455L392.36 409.748L395.701 410.078L405.723 410.014L409.064 410.055L415.746 410.012L419.086 410.079L423.541 409.877L429.109 410.112L512.628 410.111" stroke="#EFEFEF" stroke-linecap="square"/>
</g>
<mask id="mask2_230_13918" style="mask-type:luminance" maskUnits="userSpaceOnUse" x="76" y="55" width="477" height="356">
<path d="M552.957 55.2959H76.7969V410.112H552.957V55.2959Z" fill="white"/>
</mask>
<g mask="url(#mask2_230_13918)">
<path d="M284.336 410.112L290.889 409.996L293.698 409.734L296.507 409.117L300.251 407.929L303.996 406.458L305.869 405.509L307.741 404.202L309.613 402.356L311.486 400.009L314.294 396.016L316.167 392.69L318.039 388.181L321.784 377.712L323.656 374.039L326.465 369.247L331.146 360.324L332.082 359.067L333.018 358.232L333.955 357.879L334.891 357.959L338.636 359.309L340.508 359.792L343.317 360.861L344.253 360.688L345.189 359.922L346.125 358.487L347.062 356.398L347.998 353.73L349.87 347.034L351.743 338.868L353.615 328.809L355.487 315.971L357.36 299.97L359.232 280.686L363.913 227.609L364.849 219.881L365.786 214.213L366.722 210.867L367.658 209.937L368.594 211.338L369.53 214.882L370.467 220.404L371.403 227.827L372.339 237.102L374.211 260.365L380.765 350.944L382.637 368.613L383.573 375.44L384.51 381.161L385.446 385.951L386.382 389.954L387.318 393.287L388.254 396.049L389.191 398.329L390.127 400.201L391.063 401.728L392.935 403.983L394.808 405.555L397.616 407.329L399.489 408.159L401.361 408.668L405.106 409.231L410.723 409.749L414.468 409.796L421.958 409.73L430.384 410.055L450.044 410.065L458.47 410.044L464.087 410.021L470.64 410.112" fill="#EFEFEF" fill-opacity="0.4"/>
<path d="M284.336 410.112L290.889 409.996L293.698 409.734L296.507 409.117L300.251 407.929L303.996 406.458L305.869 405.509L307.741 404.202L309.613 402.356L311.486 400.009L314.294 396.016L316.167 392.69L318.039 388.181L321.784 377.712L323.656 374.039L326.465 369.247L331.146 360.324L332.082 359.067L333.018 358.232L333.955 357.879L334.891 357.959L338.636 359.309L340.508 359.792L343.317 360.861L344.253 360.688L345.189 359.922L346.125 358.487L347.062 356.398L347.998 353.73L349.87 347.034L351.743 338.868L353.615 328.809L355.487 315.971L357.36 299.97L359.232 280.686L363.913 227.609L364.849 219.881L365.786 214.213L366.722 210.867L367.658 209.937L368.594 211.338L369.53 214.882L370.467 220.404L371.403 227.827L372.339 237.102L374.211 260.365L380.765 350.944L382.637 368.613L383.573 375.44L384.51 381.161L385.446 385.951L386.382 389.954L387.318 393.287L388.254 396.049L389.191 398.329L390.127 400.201L391.063 401.728L392.935 403.983L394.808 405.555L397.616 407.329L399.489 408.159L401.361 408.668L405.106 409.231L410.723 409.749L414.468 409.796L421.958 409.73L430.384 410.055L450.044 410.065L458.47 410.044L464.087 410.021L470.64 410.112" stroke="#EFEFEF" stroke-linecap="square"/>
</g>
<mask id="mask3_230_13918" style="mask-type:luminance" maskUnits="userSpaceOnUse" x="76" y="55" width="477" height="356">
<path d="M552.957 55.2959H76.7969V410.112H552.957V55.2959Z" fill="white"/>
</mask>
<g mask="url(#mask3_230_13918)">
<path d="M280.562 410.111L290.9 409.992L296.069 409.692L298.137 409.349L300.204 408.585L302.272 407.364L305.373 405.108L306.407 404.176L307.441 402.996L309.508 399.855L311.576 395.811L312.609 393.07L313.643 389.517L314.677 385.092L316.745 374.43L319.846 356.719L321.913 343.212L327.082 306.472L329.15 294.611L331.217 284.887L333.285 277.086L335.353 270.511L337.42 264.943L338.454 262.864L339.488 261.521L340.521 260.994L341.555 261.23L342.589 262.131L343.623 263.627L344.656 265.66L345.69 268.16L347.758 274.302L349.825 282.171L351.893 292.345L356.028 315.207L357.062 319.495L359.129 325.978L360.163 329.055L361.197 332.599L363.264 341.281L365.332 350.26L367.399 357.514L371.535 370.426L374.636 380.344L376.703 386.205L378.771 390.654L381.872 396.061L382.906 397.6L383.94 398.871L386.007 400.699L391.176 404.532L393.244 406.118L394.278 406.734L396.345 407.474L401.514 408.546L407.717 409.481L410.818 409.638L415.987 409.725L420.122 409.9L428.392 409.982L431.493 410.004L435.629 409.937L442.865 410.097L456.304 410.088L470.777 410.106L486.283 410.111" fill="#EFEFEF" fill-opacity="0.4"/>
<path d="M280.562 410.111L290.9 409.992L296.069 409.692L298.137 409.349L300.204 408.585L302.272 407.364L305.373 405.108L306.407 404.176L307.441 402.996L309.508 399.855L311.576 395.811L312.609 393.07L313.643 389.517L314.677 385.092L316.745 374.43L319.846 356.719L321.913 343.212L327.082 306.472L329.15 294.611L331.217 284.887L333.285 277.086L335.353 270.511L337.42 264.943L338.454 262.864L339.488 261.521L340.521 260.994L341.555 261.23L342.589 262.131L343.623 263.627L344.656 265.66L345.69 268.16L347.758 274.302L349.825 282.171L351.893 292.345L356.028 315.207L357.062 319.495L359.129 325.978L360.163 329.055L361.197 332.599L363.264 341.281L365.332 350.26L367.399 357.514L371.535 370.426L374.636 380.344L376.703 386.205L378.771 390.654L381.872 396.061L382.906 397.6L383.94 398.871L386.007 400.699L391.176 404.532L393.244 406.118L394.278 406.734L396.345 407.474L401.514 408.546L407.717 409.481L410.818 409.638L415.987 409.725L420.122 409.9L428.392 409.982L431.493 410.004L435.629 409.937L442.865 410.097L456.304 410.088L470.777 410.106L486.283 410.111" stroke="#EFEFEF" stroke-linecap="square"/>
</g>
<mask id="mask4_230_13918" style="mask-type:luminance" maskUnits="userSpaceOnUse" x="76" y="55" width="477" height="356">
<path d="M552.957 55.2959H76.7969V410.112H552.957V55.2959Z" fill="white"/>
</mask>
<g mask="url(#mask4_230_13918)">
<path d="M291.695 410.11L294.258 409.947L296.822 409.496L298.53 409.438L301.948 409.643L302.802 409.484L304.511 408.845L307.929 408.366L309.637 407.761L312.201 407.118L313.055 406.915L313.909 406.946L315.618 407.335L316.472 406.937L319.036 404.234L319.89 402.9L320.744 400.855L322.453 395.541L325.016 386.029L325.871 382.06L326.725 376.447L327.579 368.845L329.288 349.62L330.143 338.434L330.997 324.693L331.851 307.221L333.56 263.338L335.269 208.216L337.832 119.523L338.686 99.5048L339.541 86.8076L340.395 80.6279L341.25 80.4375L342.104 85.8803L342.958 95.6397L344.667 121.142L346.376 156.297L349.793 234.69L353.211 300.322L354.92 321.453L357.483 346.414L359.192 361.893L362.609 388.741L363.464 394.467L364.318 398.404L366.027 403.503L366.881 405.682L367.735 407.315L368.59 408.135L369.444 408.336L372.007 408.375L372.862 408.532L375.425 409.438L376.279 409.455L377.988 409.061L378.842 409.052L381.406 409.506L387.386 409.712L391.658 409.901L393.367 409.736L395.93 409.969L398.493 409.865L401.056 409.939L405.328 409.809L413.018 409.964L461.718 410.111" fill="#EFEFEF" fill-opacity="0.4"/>
<path d="M291.695 410.11L294.258 409.947L296.822 409.496L298.53 409.438L301.948 409.643L302.802 409.484L304.511 408.845L307.929 408.366L309.637 407.761L312.201 407.118L313.055 406.915L313.909 406.946L315.618 407.335L316.472 406.937L319.036 404.234L319.89 402.9L320.744 400.855L322.453 395.541L325.016 386.029L325.871 382.06L326.725 376.447L327.579 368.845L329.288 349.62L330.143 338.434L330.997 324.693L331.851 307.221L333.56 263.338L335.269 208.216L337.832 119.523L338.686 99.5048L339.541 86.8076L340.395 80.6279L341.25 80.4375L342.104 85.8803L342.958 95.6397L344.667 121.142L346.376 156.297L349.793 234.69L353.211 300.322L354.92 321.453L357.483 346.414L359.192 361.893L362.609 388.741L363.464 394.467L364.318 398.404L366.027 403.503L366.881 405.682L367.735 407.315L368.59 408.135L369.444 408.336L372.007 408.375L372.862 408.532L375.425 409.438L376.279 409.455L377.988 409.061L378.842 409.052L381.406 409.506L387.386 409.712L391.658 409.901L393.367 409.736L395.93 409.969L398.493 409.865L401.056 409.939L405.328 409.809L413.018 409.964L461.718 410.111" stroke="#EFEFEF" stroke-linecap="square"/>
</g>
<mask id="mask5_230_13918" style="mask-type:luminance" maskUnits="userSpaceOnUse" x="76" y="55" width="477" height="356">
<path d="M552.957 55.2959H76.7969V410.112H552.957V55.2959Z" fill="white"/>
</mask>
<g mask="url(#mask5_230_13918)">
<path d="M282.234 410.111L288.931 410.003L290.844 409.808L292.757 409.279L294.671 408.195L296.584 406.457L297.54 405.299L298.497 403.89L299.454 402.173L300.41 400.081L301.367 397.534L302.324 394.435L303.28 390.699L305.193 381.201L307.107 369.251L309.02 355.137L310.933 338.91L313.803 310.88L315.716 291.951L317.629 276.408L318.586 270.44L319.543 265.535L321.456 257.796L323.369 251.563L324.326 249.024L325.283 247.131L326.239 246.168L327.196 246.329L328.152 247.578L329.109 249.662L331.022 255.3L332.936 262.437L334.849 271.18L341.545 305.958L347.285 336.662L349.198 345.514L351.111 352.299L354.938 363.255L356.851 369.194L358.764 374.155L360.678 377.967L362.591 380.981L368.331 388.759L370.244 391.493L373.114 394.927L375.984 397.924L378.854 400.655L380.767 402.088L384.593 404.226L387.463 405.676L390.333 406.784L392.246 407.189L396.073 407.76L399.899 408.705L402.769 408.932L407.552 409.238L410.422 409.503L423.815 409.895L427.641 409.97L472.603 410.111" fill="#EFEFEF" fill-opacity="0.4"/>
<path d="M282.234 410.111L288.931 410.003L290.844 409.808L292.757 409.279L294.671 408.195L296.584 406.457L297.54 405.299L298.497 403.89L299.454 402.173L300.41 400.081L301.367 397.534L302.324 394.435L303.28 390.699L305.193 381.201L307.107 369.251L309.02 355.137L310.933 338.91L313.803 310.88L315.716 291.951L317.629 276.408L318.586 270.44L319.543 265.535L321.456 257.796L323.369 251.563L324.326 249.024L325.283 247.131L326.239 246.168L327.196 246.329L328.152 247.578L329.109 249.662L331.022 255.3L332.936 262.437L334.849 271.18L341.545 305.958L347.285 336.662L349.198 345.514L351.111 352.299L354.938 363.255L356.851 369.194L358.764 374.155L360.678 377.967L362.591 380.981L368.331 388.759L370.244 391.493L373.114 394.927L375.984 397.924L378.854 400.655L380.767 402.088L384.593 404.226L387.463 405.676L390.333 406.784L392.246 407.189L396.073 407.76L399.899 408.705L402.769 408.932L407.552 409.238L410.422 409.503L423.815 409.895L427.641 409.97L472.603 410.111" stroke="#EFEFEF" stroke-linecap="square"/>
</g>
<mask id="mask6_230_13918" style="mask-type:luminance" maskUnits="userSpaceOnUse" x="76" y="55" width="477" height="356">
<path d="M552.957 55.2959H76.7969V410.112H552.957V55.2959Z" fill="white"/>
</mask>
<g mask="url(#mask6_230_13918)">
<path d="M278.977 410.11L282.546 410.042L284.925 409.741L286.115 409.408L287.304 408.888L288.494 408.094L289.684 406.879L290.874 405.053L292.063 402.432L293.253 398.866L294.443 394.227L295.632 388.405L296.822 381.355L299.201 364.041L301.581 342.987L303.96 317.43L307.529 276.329L309.909 252.65L311.098 243.262L312.288 236.372L313.478 232.28L314.668 230.711L315.857 231.049L317.047 232.71L318.237 235.285L319.426 238.499L320.616 242.241L321.806 246.624L322.995 251.856L325.375 264.904L327.754 280.478L332.513 314.249L338.462 351.998L339.651 358.546L340.841 364.209L342.031 369.027L343.22 373.104L344.41 376.483L345.6 379.163L346.789 381.236L350.359 386.161L352.738 389.043L355.117 391.021L357.497 392.5L358.687 393.015L361.066 393.468L362.256 393.641L363.445 394.019L368.204 396.425L370.584 397.053L371.773 397.636L378.911 402.168L381.291 403.374L389.619 406.743L393.188 407.593L397.947 408.688L401.516 409.077L405.085 408.997L407.464 408.939L411.033 409.23L415.792 409.679L421.741 409.891L428.879 409.873L434.827 409.909L439.586 409.954L446.724 409.957L452.673 409.996L469.329 410.023L515.727 410.112" fill="#EFEFEF" fill-opacity="0.4"/>
<path d="M278.977 410.11L282.546 410.042L284.925 409.741L286.115 409.408L287.304 408.888L288.494 408.094L289.684 406.879L290.874 405.053L292.063 402.432L293.253 398.866L294.443 394.227L295.632 388.405L296.822 381.355L299.201 364.041L301.581 342.987L303.96 317.43L307.529 276.329L309.909 252.65L311.098 243.262L312.288 236.372L313.478 232.28L314.668 230.711L315.857 231.049L317.047 232.71L318.237 235.285L319.426 238.499L320.616 242.241L321.806 246.624L322.995 251.856L325.375 264.904L327.754 280.478L332.513 314.249L338.462 351.998L339.651 358.546L340.841 364.209L342.031 369.027L343.22 373.104L344.41 376.483L345.6 379.163L346.789 381.236L350.359 386.161L352.738 389.043L355.117 391.021L357.497 392.5L358.687 393.015L361.066 393.468L362.256 393.641L363.445 394.019L368.204 396.425L370.584 397.053L371.773 397.636L378.911 402.168L381.291 403.374L389.619 406.743L393.188 407.593L397.947 408.688L401.516 409.077L405.085 408.997L407.464 408.939L411.033 409.23L415.792 409.679L421.741 409.891L428.879 409.873L434.827 409.909L439.586 409.954L446.724 409.957L452.673 409.996L469.329 410.023L515.727 410.112" stroke="#EFEFEF" stroke-linecap="square"/>
</g>
<mask id="mask7_230_13918" style="mask-type:luminance" maskUnits="userSpaceOnUse" x="76" y="55" width="477" height="356">
<path d="M552.957 55.2959H76.7969V410.112H552.957V55.2959Z" fill="white"/>
</mask>
<g mask="url(#mask7_230_13918)">
<path d="M268.906 410.112L279.531 409.966L283.073 409.747L285.434 409.353L287.795 408.548L288.975 407.916L290.156 407.062L291.337 405.913L292.517 404.387L293.698 402.429L294.878 400.025L296.059 397.183L297.239 393.885L298.42 390.077L300.781 380.905L303.142 370.346L305.503 358.701L307.864 344.951L312.586 314.883L314.947 301.817L317.308 290.863L318.489 286.462L319.67 282.814L320.85 279.867L322.031 277.616L323.211 276.136L324.392 275.488L325.572 275.564L326.753 276.087L327.933 276.823L329.114 277.814L330.294 279.334L331.475 281.597L333.836 287.77L336.197 294.895L344.461 323.171L348.003 336.916L349.183 340.911L350.364 344.308L355.086 356.063L363.35 378.632L365.711 383.646L369.252 390.234L371.613 393.708L375.155 397.978L377.516 400.495L379.877 402.522L384.599 406.161L386.96 407.367L389.321 408.063L392.863 408.731L396.405 409.192L408.21 409.723L415.293 409.9L420.015 409.74L423.557 409.629L436.543 409.968L468.418 410.064L503.834 410.112" fill="#EFEFEF" fill-opacity="0.4"/>
<path d="M268.906 410.112L279.531 409.966L283.073 409.747L285.434 409.353L287.795 408.548L288.975 407.916L290.156 407.062L291.337 405.913L292.517 404.387L293.698 402.429L294.878 400.025L296.059 397.183L297.239 393.885L298.42 390.077L300.781 380.905L303.142 370.346L305.503 358.701L307.864 344.951L312.586 314.883L314.947 301.817L317.308 290.863L318.489 286.462L319.67 282.814L320.85 279.867L322.031 277.616L323.211 276.136L324.392 275.488L325.572 275.564L326.753 276.087L327.933 276.823L329.114 277.814L330.294 279.334L331.475 281.597L333.836 287.77L336.197 294.895L344.461 323.171L348.003 336.916L349.183 340.911L350.364 344.308L355.086 356.063L363.35 378.632L365.711 383.646L369.252 390.234L371.613 393.708L375.155 397.978L377.516 400.495L379.877 402.522L384.599 406.161L386.96 407.367L389.321 408.063L392.863 408.731L396.405 409.192L408.21 409.723L415.293 409.9L420.015 409.74L423.557 409.629L436.543 409.968L468.418 410.064L503.834 410.112" stroke="#EFEFEF" stroke-linecap="square"/>
</g>
<mask id="mask8_230_13918" style="mask-type:luminance" maskUnits="userSpaceOnUse" x="76" y="55" width="477" height="356">
<path d="M552.957 55.2959H76.7969V410.112H552.957V55.2959Z" fill="white"/>
</mask>
<g mask="url(#mask8_230_13918)">
<path d="M289.336 410.111L292.784 409.989L295.083 409.778L300.829 409.693L303.128 409.399L305.427 408.971L308.875 408.536L311.174 408.528L313.472 407.956L314.622 407.532L315.771 406.859L316.92 405.943L318.07 404.742L320.369 401.681L322.667 400.123L323.817 398.775L324.966 396.861L326.115 394.631L328.414 389.348L329.563 386.174L330.713 381.465L334.161 361.996L335.31 354.589L336.459 345.933L337.609 335.381L338.758 322.073L341.057 289.668L343.356 252.584L344.505 233.385L346.804 202.184L347.953 186.607L350.252 149.781L351.401 136.14L352.55 131L353.7 131.236L354.849 134.376L355.999 143.253L357.148 159.66L358.297 183.015L362.895 293.557L364.044 317.724L365.193 337.278L366.343 352.364L368.641 376.916L369.791 386.805L370.94 393.235L372.09 396.444L376.687 405.142L377.836 406.771L378.986 407.743L380.135 408.21L381.284 408.395L383.583 408.461L385.882 409.064L387.031 409.439L388.18 409.648L392.778 409.521L396.226 409.898L399.674 409.868L422.661 410.018L433.005 409.902L436.453 409.948L439.901 410.107L474.382 410.067L477.83 410.073L484.726 410.112L518.058 410.111" fill="#EFEFEF" fill-opacity="0.4"/>
<path d="M289.336 410.111L292.784 409.989L295.083 409.778L300.829 409.693L303.128 409.399L305.427 408.971L308.875 408.536L311.174 408.528L313.472 407.956L314.622 407.532L315.771 406.859L316.92 405.943L318.07 404.742L320.369 401.681L322.667 400.123L323.817 398.775L324.966 396.861L326.115 394.631L328.414 389.348L329.563 386.174L330.713 381.465L334.161 361.996L335.31 354.589L336.459 345.933L337.609 335.381L338.758 322.073L341.057 289.668L343.356 252.584L344.505 233.385L346.804 202.184L347.953 186.607L350.252 149.781L351.401 136.14L352.55 131L353.7 131.236L354.849 134.376L355.999 143.253L357.148 159.66L358.297 183.015L362.895 293.557L364.044 317.724L365.193 337.278L366.343 352.364L368.641 376.916L369.791 386.805L370.94 393.235L372.09 396.444L376.687 405.142L377.836 406.771L378.986 407.743L380.135 408.21L381.284 408.395L383.583 408.461L385.882 409.064L387.031 409.439L388.18 409.648L392.778 409.521L396.226 409.898L399.674 409.868L422.661 410.018L433.005 409.902L436.453 409.948L439.901 410.107L474.382 410.067L477.83 410.073L484.726 410.112L518.058 410.111" stroke="#EFEFEF" stroke-linecap="square"/>
</g>
<mask id="mask9_230_13918" style="mask-type:luminance" maskUnits="userSpaceOnUse" x="76" y="55" width="477" height="356">
<path d="M552.957 55.2959H76.7969V410.112H552.957V55.2959Z" fill="white"/>
</mask>
<g mask="url(#mask9_230_13918)">
<path d="M259.508 410.111L283.171 409.959L287.679 409.563L291.059 409.021L293.313 408.45L295.566 407.469L297.82 405.903L300.074 403.847L302.327 401.344L304.581 398.346L306.835 394.646L307.961 392.403L310.215 386.918L313.596 377.081L319.23 360.348L321.483 352.501L323.737 343.093L330.498 312.433L331.625 308.669L332.752 305.61L333.878 303.164L341.766 288.907L342.893 287.608L344.02 286.952L345.147 286.939L346.274 287.45L347.4 288.316L349.654 290.691L350.781 292.222L351.908 294.101L354.161 298.895L356.415 304.353L357.542 307.381L358.669 310.842L360.922 319.068L364.303 331.709L367.683 342.928L378.952 378.651L381.205 384.208L384.586 391.409L386.839 395.771L389.093 399.25L391.347 402.026L393.6 404.282L395.854 405.872L398.108 406.926L400.361 407.663L403.742 408.441L408.249 409.133L411.63 409.423L428.532 410.057L434.166 409.988L439.8 410.03L453.322 410.106L483.747 410.111" fill="#EFEFEF" fill-opacity="0.4"/>
<path d="M259.508 410.111L283.171 409.959L287.679 409.563L291.059 409.021L293.313 408.45L295.566 407.469L297.82 405.903L300.074 403.847L302.327 401.344L304.581 398.346L306.835 394.646L307.961 392.403L310.215 386.918L313.596 377.081L319.23 360.348L321.483 352.501L323.737 343.093L330.498 312.433L331.625 308.669L332.752 305.61L333.878 303.164L341.766 288.907L342.893 287.608L344.02 286.952L345.147 286.939L346.274 287.45L347.4 288.316L349.654 290.691L350.781 292.222L351.908 294.101L354.161 298.895L356.415 304.353L357.542 307.381L358.669 310.842L360.922 319.068L364.303 331.709L367.683 342.928L378.952 378.651L381.205 384.208L384.586 391.409L386.839 395.771L389.093 399.25L391.347 402.026L393.6 404.282L395.854 405.872L398.108 406.926L400.361 407.663L403.742 408.441L408.249 409.133L411.63 409.423L428.532 410.057L434.166 409.988L439.8 410.03L453.322 410.106L483.747 410.111" stroke="#EFEFEF" stroke-linecap="square"/>
</g>
<mask id="mask10_230_13918" style="mask-type:luminance" maskUnits="userSpaceOnUse" x="76" y="55" width="477" height="356">
<path d="M552.957 55.2959H76.7969V410.112H552.957V55.2959Z" fill="white"/>
</mask>
<g mask="url(#mask10_230_13918)">
<path d="M288.617 410.11L292.54 409.991L298.425 409.245L300.386 408.688L302.348 407.805L303.328 407.18L304.309 406.312L305.29 405.085L306.271 403.436L308.232 399.21L310.194 394.207L311.174 390.786L312.155 386.049L313.136 379.736L315.097 363.473L317.059 344.199L319.02 322.172L320.982 297.087L323.924 258.894L324.905 248.723L325.886 240.336L326.866 233.718L327.847 228.761L328.828 225.235L329.809 222.811L330.789 221.156L331.77 219.996L332.751 219.183L333.732 218.813L334.712 219.357L335.693 221.499L336.674 225.668L337.655 231.644L340.597 253.801L347.462 308.804L349.424 322.815L351.385 334.67L353.347 344.561L355.308 353.102L357.27 359.362L359.231 365.465L363.154 379.498L365.116 385.239L367.077 389.774L371 396.771L371.981 398.278L373.942 400.548L376.885 403.459L377.866 404.105L379.827 404.799L381.789 405.636L384.731 407.223L386.692 407.955L388.654 408.292L390.615 408.481L393.558 409.195L395.519 409.592L397.481 409.688L402.384 409.64L406.307 409.809L416.115 409.993L420.038 410.049L426.903 409.848L432.788 410.015L441.614 409.998L449.46 410.078L455.345 410.101L473.979 410.103L483.787 410.111" fill="#EFEFEF" fill-opacity="0.4"/>
<path d="M288.617 410.11L292.54 409.991L298.425 409.245L300.386 408.688L302.348 407.805L303.328 407.18L304.309 406.312L305.29 405.085L306.271 403.436L308.232 399.21L310.194 394.207L311.174 390.786L312.155 386.049L313.136 379.736L315.097 363.473L317.059 344.199L319.02 322.172L320.982 297.087L323.924 258.894L324.905 248.723L325.886 240.336L326.866 233.718L327.847 228.761L328.828 225.235L329.809 222.811L330.789 221.156L331.77 219.996L332.751 219.183L333.732 218.813L334.712 219.357L335.693 221.499L336.674 225.668L337.655 231.644L340.597 253.801L347.462 308.804L349.424 322.815L351.385 334.67L353.347 344.561L355.308 353.102L357.27 359.362L359.231 365.465L363.154 379.498L365.116 385.239L367.077 389.774L371 396.771L371.981 398.278L373.942 400.548L376.885 403.459L377.866 404.105L379.827 404.799L381.789 405.636L384.731 407.223L386.692 407.955L388.654 408.292L390.615 408.481L393.558 409.195L395.519 409.592L397.481 409.688L402.384 409.64L406.307 409.809L416.115 409.993L420.038 410.049L426.903 409.848L432.788 410.015L441.614 409.998L449.46 410.078L455.345 410.101L473.979 410.103L483.787 410.111" stroke="#EFEFEF" stroke-linecap="square"/>
</g>
<mask id="mask11_230_13918" style="mask-type:luminance" maskUnits="userSpaceOnUse" x="76" y="55" width="477" height="356">
<path d="M552.957 55.2959H76.7969V410.112H552.957V55.2959Z" fill="white"/>
</mask>
<g mask="url(#mask11_230_13918)">
<path d="M292.336 410.111L296.162 409.957L298.076 409.617L299.989 409.29L301.902 409.165L305.729 408.155L307.642 407.802L309.555 408.12L310.512 407.998L311.469 407.474L312.425 406.751L313.382 405.615L315.295 401.717L316.252 399.645L317.209 397.065L318.165 393.253L319.122 387.823L321.035 373.192L321.992 364.339L322.948 353.7L323.905 340.93L324.862 326.156L325.818 308.966L327.732 266.154L335.385 87.4173L336.341 74.6444L337.298 72.1924L338.255 78.5952L339.211 89.8853L340.168 104.841L341.125 124.922L343.038 181.156L345.908 267.526L346.864 294.05L347.821 316.074L348.778 333.297L350.691 360.922L351.648 371.921L352.604 380.295L353.561 386.289L354.518 390.249L355.474 392.8L357.388 396.378L359.301 399.193L362.171 402.82L363.127 403.303L365.041 403.185L365.997 403.698L368.867 406.342L369.824 407.143L370.781 407.686L371.737 407.816L373.65 407.478L374.607 407.57L376.52 408.357L382.26 409.389L384.173 409.425L386.087 409.683L389.913 409.338L391.827 409.619L403.306 409.978L405.22 409.859L409.046 410.052L412.873 409.709L416.699 409.973L421.482 410.112L443.485 409.98L445.399 409.911L452.095 410.097L455.922 410.06L460.705 410.112L482.708 410.111" fill="#EFEFEF" fill-opacity="0.4"/>
<path d="M292.336 410.111L296.162 409.957L298.076 409.617L299.989 409.29L301.902 409.165L305.729 408.155L307.642 407.802L309.555 408.12L310.512 407.998L311.469 407.474L312.425 406.751L313.382 405.615L315.295 401.717L316.252 399.645L317.209 397.065L318.165 393.253L319.122 387.823L321.035 373.192L321.992 364.339L322.948 353.7L323.905 340.93L324.862 326.156L325.818 308.966L327.732 266.154L335.385 87.4173L336.341 74.6444L337.298 72.1924L338.255 78.5952L339.211 89.8853L340.168 104.841L341.125 124.922L343.038 181.156L345.908 267.526L346.864 294.05L347.821 316.074L348.778 333.297L350.691 360.922L351.648 371.921L352.604 380.295L353.561 386.289L354.518 390.249L355.474 392.8L357.388 396.378L359.301 399.193L362.171 402.82L363.127 403.303L365.041 403.185L365.997 403.698L368.867 406.342L369.824 407.143L370.781 407.686L371.737 407.816L373.65 407.478L374.607 407.57L376.52 408.357L382.26 409.389L384.173 409.425L386.087 409.683L389.913 409.338L391.827 409.619L403.306 409.978L405.22 409.859L409.046 410.052L412.873 409.709L416.699 409.973L421.482 410.112L443.485 409.98L445.399 409.911L452.095 410.097L455.922 410.06L460.705 410.112L482.708 410.111" stroke="#EFEFEF" stroke-linecap="square"/>
</g>
<mask id="mask12_230_13918" style="mask-type:luminance" maskUnits="userSpaceOnUse" x="76" y="55" width="477" height="356">
<path d="M552.957 55.2959H76.7969V410.112H552.957V55.2959Z" fill="white"/>
</mask>
<g mask="url(#mask12_230_13918)">
<path d="M289.742 410.11L299.358 409.962L302.564 409.752L305.769 409.749L314.317 408.522L316.454 407.941L319.659 406.634L320.728 405.862L321.796 404.654L323.933 401.248L325.002 399.096L327.139 393.576L328.207 390.209L329.275 385.97L330.344 380.367L332.481 365.855L334.618 349.215L336.755 327.991L341.029 280.033L345.303 239.078L347.439 220.231L348.508 212.892L349.576 208.176L350.645 206.328L351.713 206.973L352.782 209.575L353.85 213.631L354.919 218.727L355.987 224.682L357.056 231.691L358.124 240.171L360.261 261.181L362.398 282.118L365.603 310.662L368.809 334.658L370.946 349.944L372.014 355.725L376.288 373.738L378.425 381.237L380.562 387.258L381.63 389.677L382.699 391.566L386.973 397.585L389.11 399.867L392.315 402.859L394.452 404.971L395.521 405.821L396.589 406.371L398.726 406.761L400.863 407.171L404.068 408.185L406.205 408.812L408.342 409.177L410.479 409.239L414.753 408.974L417.958 409.451L421.164 409.893L426.506 410.073L432.917 409.981L437.191 410.008L440.396 409.934L444.67 409.999L452.149 410.111L502.367 410.111" fill="#EFEFEF" fill-opacity="0.4"/>
<path d="M289.742 410.11L299.358 409.962L302.564 409.752L305.769 409.749L314.317 408.522L316.454 407.941L319.659 406.634L320.728 405.862L321.796 404.654L323.933 401.248L325.002 399.096L327.139 393.576L328.207 390.209L329.275 385.97L330.344 380.367L332.481 365.855L334.618 349.215L336.755 327.991L341.029 280.033L345.303 239.078L347.439 220.231L348.508 212.892L349.576 208.176L350.645 206.328L351.713 206.973L352.782 209.575L353.85 213.631L354.919 218.727L355.987 224.682L357.056 231.691L358.124 240.171L360.261 261.181L362.398 282.118L365.603 310.662L368.809 334.658L370.946 349.944L372.014 355.725L376.288 373.738L378.425 381.237L380.562 387.258L381.63 389.677L382.699 391.566L386.973 397.585L389.11 399.867L392.315 402.859L394.452 404.971L395.521 405.821L396.589 406.371L398.726 406.761L400.863 407.171L404.068 408.185L406.205 408.812L408.342 409.177L410.479 409.239L414.753 408.974L417.958 409.451L421.164 409.893L426.506 410.073L432.917 409.981L437.191 410.008L440.396 409.934L444.67 409.999L452.149 410.111L502.367 410.111" stroke="#EFEFEF" stroke-linecap="square"/>
</g>
<mask id="mask13_230_13918" style="mask-type:luminance" maskUnits="userSpaceOnUse" x="76" y="55" width="477" height="356">
<path d="M552.957 55.2959H76.7969V410.112H552.957V55.2959Z" fill="white"/>
</mask>
<g mask="url(#mask13_230_13918)">
<path d="M274.016 410.111L284.175 409.955L286.715 409.631L289.255 408.933L291.795 407.841L293.065 407.101L294.335 405.899L295.605 403.921L296.875 400.993L298.144 397.054L299.414 392.193L300.684 386.674L301.954 380.431L303.224 372.767L304.494 363.076L307.034 339.07L310.844 301.939L315.924 256.491L317.194 246.297L318.464 237.817L319.733 231.847L321.003 228.701L322.273 227.292L323.543 226.562L324.813 227.104L326.083 229.458L327.353 232.786L328.623 236.578L329.893 241.598L331.163 248.486L333.703 266.081L340.053 315.254L342.592 334.581L345.132 349.735L348.942 370.98L350.212 376.169L352.752 384.199L354.022 387.884L356.562 393.831L357.832 396.494L359.102 398.691L360.372 400.155L364.181 403.284L366.721 405.407L371.801 408.48L373.071 408.92L374.341 409.04L376.881 408.909L381.961 409.083L383.23 408.995L385.77 409.353L388.31 409.686L399.74 409.976L404.819 409.839L408.629 410.068L417.519 409.989L423.869 410.055L434.028 410.097L447.997 409.991L460.697 410.111L526.734 410.111" fill="#EFEFEF" fill-opacity="0.4"/>
<path d="M274.016 410.111L284.175 409.955L286.715 409.631L289.255 408.933L291.795 407.841L293.065 407.101L294.335 405.899L295.605 403.921L296.875 400.993L298.144 397.054L299.414 392.193L300.684 386.674L301.954 380.431L303.224 372.767L304.494 363.076L307.034 339.07L310.844 301.939L315.924 256.491L317.194 246.297L318.464 237.817L319.733 231.847L321.003 228.701L322.273 227.292L323.543 226.562L324.813 227.104L326.083 229.458L327.353 232.786L328.623 236.578L329.893 241.598L331.163 248.486L333.703 266.081L340.053 315.254L342.592 334.581L345.132 349.735L348.942 370.98L350.212 376.169L352.752 384.199L354.022 387.884L356.562 393.831L357.832 396.494L359.102 398.691L360.372 400.155L364.181 403.284L366.721 405.407L371.801 408.48L373.071 408.92L374.341 409.04L376.881 408.909L381.961 409.083L383.23 408.995L385.77 409.353L388.31 409.686L399.74 409.976L404.819 409.839L408.629 410.068L417.519 409.989L423.869 410.055L434.028 410.097L447.997 409.991L460.697 410.111L526.734 410.111" stroke="#EFEFEF" stroke-linecap="square"/>
</g>
<mask id="mask14_230_13918" style="mask-type:luminance" maskUnits="userSpaceOnUse" x="76" y="55" width="477" height="356">
<path d="M552.957 55.2959H76.7969V410.112H552.957V55.2959Z" fill="white"/>
</mask>
<g mask="url(#mask14_230_13918)">
<path d="M98.4375 410.111L180.758 410.112L256.747 410.006L269.412 409.675L273.633 409.151L275.744 408.745L279.966 407.422L284.187 405.751L286.298 404.542L288.409 402.496L290.519 399.452L292.63 395.657L294.741 391.31L296.852 386.106L298.963 379.471L305.295 357.216L307.406 348.193L315.849 306.914L317.96 298.51L320.071 291.888L322.181 286.011L324.292 280.612L326.403 276.588L328.514 275.554L334.846 279.821L336.957 283.797L339.068 289.8L341.178 297.354L343.289 306.254L349.622 336.63L351.732 345.085L355.954 360.204L358.065 367.904L360.176 374.754L362.286 380.899L364.397 386.468L366.508 391.25L368.619 395.183L370.73 398.44L372.84 401.078L374.951 403.03L377.062 404.28L381.283 405.862L385.505 407.886L387.616 408.582L389.727 408.979L393.948 409.102L398.17 409.092L410.835 409.837L415.056 409.805L419.278 409.726L425.61 409.848L429.832 409.764L442.496 409.953L448.829 409.93L478.38 410.112L518.485 410.111" fill="#7EB0D5" fill-opacity="0.4"/>
<path d="M98.4375 410.111L180.758 410.112L256.747 410.006L269.412 409.675L273.633 409.151L275.744 408.745L279.966 407.422L284.187 405.751L286.298 404.542L288.409 402.496L290.519 399.452L292.63 395.657L294.741 391.31L296.852 386.106L298.963 379.471L305.295 357.216L307.406 348.193L315.849 306.914L317.96 298.51L320.071 291.888L322.181 286.011L324.292 280.612L326.403 276.588L328.514 275.554L334.846 279.821L336.957 283.797L339.068 289.8L341.178 297.354L343.289 306.254L349.622 336.63L351.732 345.085L355.954 360.204L358.065 367.904L360.176 374.754L362.286 380.899L364.397 386.468L366.508 391.25L368.619 395.183L370.73 398.44L372.84 401.078L374.951 403.03L377.062 404.28L381.283 405.862L385.505 407.886L387.616 408.582L389.727 408.979L393.948 409.102L398.17 409.092L410.835 409.837L415.056 409.805L419.278 409.726L425.61 409.848L429.832 409.764L442.496 409.953L448.829 409.93L478.38 410.112L518.485 410.111" stroke="#7EB0D5" stroke-linecap="square"/>
</g>
<path d="M535.061 411.061C535.646 410.475 535.646 409.525 535.061 408.939L525.515 399.393C524.929 398.808 523.979 398.808 523.393 399.393C522.808 399.979 522.808 400.929 523.393 401.515L531.879 410L523.393 418.485C522.808 419.071 522.808 420.021 523.393 420.607C523.979 421.192 524.929 421.192 525.515 420.607L535.061 411.061ZM79 411.5H534V408.5H79V411.5Z" fill="black"/>
</g>
<defs>
<clipPath id="clip0_230_13918">
<rect width="614.4" height="460.8" fill="white"/>
</clipPath>
</defs>
</svg>
