<svg width="615" height="461" viewBox="0 0 615 461" fill="none" xmlns="http://www.w3.org/2000/svg">
<g clip-path="url(#clip0_230_14238)">
<mask id="mask0_230_14238" style="mask-type:luminance" maskUnits="userSpaceOnUse" x="76" y="55" width="477" height="356">
<path d="M552.957 55.2959H76.7969V410.112H552.957V55.2959Z" fill="white"/>
</mask>
<g mask="url(#mask0_230_14238)">
<path d="M245.375 410.111L268.365 409.988L272.675 409.6L275.549 409.077L278.423 408.245L279.86 407.603L281.297 406.734L282.733 405.59L284.17 404.108L285.607 402.201L287.044 399.736L288.481 396.547L289.918 392.477L291.355 387.482L294.228 375.382L297.102 361.882L299.976 346.991L305.723 315.344L307.16 308.646L308.597 302.866L310.034 298.048L311.471 294.173L312.908 291.226L314.344 289.241L315.781 288.283L317.218 288.357L318.655 289.318L320.092 290.894L322.966 295.026L325.839 300.042L331.587 311.098L337.334 322.668L340.208 327.297L341.645 329.538L343.082 332.055L344.518 334.988L350.266 348.038L353.14 353.174L361.761 367.071L366.071 373.816L368.945 378.899L371.819 384.152L374.693 388.641L377.566 392.309L381.877 397.443L383.314 398.925L384.751 400.151L387.624 401.93L393.372 404.783L397.682 406.421L403.43 408.315L406.304 408.882L409.177 409L413.488 409.023L427.856 409.738L436.478 409.874L449.409 410.069L483.894 409.988L499.7 410.112L531.311 410.111" fill="#EFEFEF" fill-opacity="0.4"/>
<path d="M245.375 410.111L268.365 409.988L272.675 409.6L275.549 409.077L278.423 408.245L279.86 407.603L281.297 406.734L282.733 405.59L284.17 404.108L285.607 402.201L287.044 399.736L288.481 396.547L289.918 392.477L291.355 387.482L294.228 375.382L297.102 361.882L299.976 346.991L305.723 315.344L307.16 308.646L308.597 302.866L310.034 298.048L311.471 294.173L312.908 291.226L314.344 289.241L315.781 288.283L317.218 288.357L318.655 289.318L320.092 290.894L322.966 295.026L325.839 300.042L331.587 311.098L337.334 322.668L340.208 327.297L341.645 329.538L343.082 332.055L344.518 334.988L350.266 348.038L353.14 353.174L361.761 367.071L366.071 373.816L368.945 378.899L371.819 384.152L374.693 388.641L377.566 392.309L381.877 397.443L383.314 398.925L384.751 400.151L387.624 401.93L393.372 404.783L397.682 406.421L403.43 408.315L406.304 408.882L409.177 409L413.488 409.023L427.856 409.738L436.478 409.874L449.409 410.069L483.894 409.988L499.7 410.112L531.311 410.111" stroke="#EFEFEF" stroke-linecap="square"/>
</g>
<mask id="mask1_230_14238" style="mask-type:luminance" maskUnits="userSpaceOnUse" x="76" y="55" width="477" height="356">
<path d="M552.957 55.2959H76.7969V410.112H552.957V55.2959Z" fill="white"/>
</mask>
<g mask="url(#mask1_230_14238)">
<path d="M275.695 410.11L279.404 409.968L281.876 409.806L285.585 409.829L288.057 409.473L291.766 408.386L295.474 406.754L296.71 406.377L297.946 405.825L299.183 405.017L300.419 403.873L301.655 402.047L302.891 399.381L305.364 392.741L306.6 388.827L307.836 384.111L309.072 378.09L310.308 370.245L311.544 360.34L314.017 335.868L315.253 321.431L316.489 304.379L321.434 226.956L322.67 210.544L323.906 196.886L325.142 185.019L326.379 174.665L327.615 167.633L328.851 165.19L330.087 167.006L331.323 172.404L332.559 180.788L333.796 191.663L335.032 204.977L336.268 220.875L341.213 290.827L342.449 305.142L343.685 317.697L344.921 328.631L346.157 337.807L347.393 345.143L348.63 350.907L351.102 360.743L356.047 383.017L357.283 386.874L358.519 390.133L359.755 392.897L360.991 395.088L362.228 396.765L365.936 400.528L367.172 402.072L368.408 403.271L375.826 407.394L378.298 408.116L383.243 409.116L389.423 409.355L393.132 409.805L396.841 409.924L405.494 409.861L411.675 410.091L417.855 410.089L427.745 410.047L432.69 410.068L436.398 409.98L440.107 410.054L451.232 409.988L457.413 410.111L521.694 410.111" fill="#EFEFEF" fill-opacity="0.4"/>
<path d="M275.695 410.11L279.404 409.968L281.876 409.806L285.585 409.829L288.057 409.473L291.766 408.386L295.474 406.754L296.71 406.377L297.946 405.825L299.183 405.017L300.419 403.873L301.655 402.047L302.891 399.381L305.364 392.741L306.6 388.827L307.836 384.111L309.072 378.09L310.308 370.245L311.544 360.34L314.017 335.868L315.253 321.431L316.489 304.379L321.434 226.956L322.67 210.544L323.906 196.886L325.142 185.019L326.379 174.665L327.615 167.633L328.851 165.19L330.087 167.006L331.323 172.404L332.559 180.788L333.796 191.663L335.032 204.977L336.268 220.875L341.213 290.827L342.449 305.142L343.685 317.697L344.921 328.631L346.157 337.807L347.393 345.143L348.63 350.907L351.102 360.743L356.047 383.017L357.283 386.874L358.519 390.133L359.755 392.897L360.991 395.088L362.228 396.765L365.936 400.528L367.172 402.072L368.408 403.271L375.826 407.394L378.298 408.116L383.243 409.116L389.423 409.355L393.132 409.805L396.841 409.924L405.494 409.861L411.675 410.091L417.855 410.089L427.745 410.047L432.69 410.068L436.398 409.98L440.107 410.054L451.232 409.988L457.413 410.111L521.694 410.111" stroke="#EFEFEF" stroke-linecap="square"/>
</g>
<mask id="mask2_230_14238" style="mask-type:luminance" maskUnits="userSpaceOnUse" x="76" y="55" width="477" height="356">
<path d="M552.957 55.2959H76.7969V410.112H552.957V55.2959Z" fill="white"/>
</mask>
<g mask="url(#mask2_230_14238)">
<path d="M268.672 410.111L280.702 409.965L285.514 409.561L293.935 408.333L296.341 407.925L297.544 407.607L298.747 407.1L299.95 406.351L302.356 404.244L307.168 399.597L309.574 397.231L310.777 395.638L313.183 391.461L315.589 386.597L317.995 380.912L319.198 377.342L321.604 368.593L324.01 359.63L327.619 347.569L332.431 329.304L334.837 322.571L338.446 313.973L340.852 308.594L342.055 305.012L343.258 300.403L346.867 284.286L348.07 279.906L355.288 258.14L356.491 256.681L357.694 256.781L358.897 257.965L360.1 259.774L361.303 262.107L362.506 265.164L363.709 269.218L364.912 274.435L366.115 280.834L368.521 296.642L375.739 350.208L378.145 364.474L380.551 376.202L382.957 385.893L384.16 389.902L385.363 393.321L386.566 396.225L387.769 398.677L388.972 400.677L390.175 402.228L391.378 403.396L393.784 405.079L396.19 406.433L398.596 407.489L401.002 408.16L404.611 408.798L411.829 409.537L419.047 409.761L429.874 409.774L434.686 409.9L439.498 410.056L455.138 410.042L461.153 410.06L468.371 410.075L476.792 410.039L491.228 410.112L508.07 410.111" fill="#EFEFEF" fill-opacity="0.4"/>
<path d="M268.672 410.111L280.702 409.965L285.514 409.561L293.935 408.333L296.341 407.925L297.544 407.607L298.747 407.1L299.95 406.351L302.356 404.244L307.168 399.597L309.574 397.231L310.777 395.638L313.183 391.461L315.589 386.597L317.995 380.912L319.198 377.342L321.604 368.593L324.01 359.63L327.619 347.569L332.431 329.304L334.837 322.571L338.446 313.973L340.852 308.594L342.055 305.012L343.258 300.403L346.867 284.286L348.07 279.906L355.288 258.14L356.491 256.681L357.694 256.781L358.897 257.965L360.1 259.774L361.303 262.107L362.506 265.164L363.709 269.218L364.912 274.435L366.115 280.834L368.521 296.642L375.739 350.208L378.145 364.474L380.551 376.202L382.957 385.893L384.16 389.902L385.363 393.321L386.566 396.225L387.769 398.677L388.972 400.677L390.175 402.228L391.378 403.396L393.784 405.079L396.19 406.433L398.596 407.489L401.002 408.16L404.611 408.798L411.829 409.537L419.047 409.761L429.874 409.774L434.686 409.9L439.498 410.056L455.138 410.042L461.153 410.06L468.371 410.075L476.792 410.039L491.228 410.112L508.07 410.111" stroke="#EFEFEF" stroke-linecap="square"/>
</g>
<mask id="mask3_230_14238" style="mask-type:luminance" maskUnits="userSpaceOnUse" x="76" y="55" width="477" height="356">
<path d="M552.957 55.2959H76.7969V410.112H552.957V55.2959Z" fill="white"/>
</mask>
<g mask="url(#mask3_230_14238)">
<path d="M255.891 410.111L272.249 409.982L283.575 409.424L286.091 409.061L288.608 408.433L291.125 407.357L293.642 405.834L296.158 403.821L297.417 402.534L299.933 399.291L302.45 395.208L304.967 390.19L307.483 384.016L310 376.577L312.517 367.983L315.034 358.367L317.55 347.607L321.325 330.966L323.842 321.827L326.359 314.289L330.134 303.679L331.392 300.484L332.651 297.701L333.909 295.409L335.167 293.629L336.426 292.374L337.684 291.68L338.943 291.586L340.201 292.06L341.459 292.957L345.234 296.165L347.751 298.152L349.009 299.373L350.268 300.896L351.526 302.776L352.785 305.035L354.043 307.703L355.301 310.842L356.56 314.503L359.076 323.067L361.593 331.774L364.11 339.17L366.627 345.206L369.143 350.979L371.66 357.501L375.435 367.754L377.952 373.784L380.469 378.942L382.985 383.212L385.502 386.567L388.019 389.221L391.794 393.107L394.31 395.757L396.827 397.93L399.344 399.552L403.119 401.457L408.152 404.051L410.669 405.319L413.186 406.258L415.703 406.844L421.994 408.003L425.77 408.799L429.545 409.189L447.162 409.892L468.554 410.028L501.271 410.096L506.305 410.111" fill="#EFEFEF" fill-opacity="0.4"/>
<path d="M255.891 410.111L272.249 409.982L283.575 409.424L286.091 409.061L288.608 408.433L291.125 407.357L293.642 405.834L296.158 403.821L297.417 402.534L299.933 399.291L302.45 395.208L304.967 390.19L307.483 384.016L310 376.577L312.517 367.983L315.034 358.367L317.55 347.607L321.325 330.966L323.842 321.827L326.359 314.289L330.134 303.679L331.392 300.484L332.651 297.701L333.909 295.409L335.167 293.629L336.426 292.374L337.684 291.68L338.943 291.586L340.201 292.06L341.459 292.957L345.234 296.165L347.751 298.152L349.009 299.373L350.268 300.896L351.526 302.776L352.785 305.035L354.043 307.703L355.301 310.842L356.56 314.503L359.076 323.067L361.593 331.774L364.11 339.17L366.627 345.206L369.143 350.979L371.66 357.501L375.435 367.754L377.952 373.784L380.469 378.942L382.985 383.212L385.502 386.567L388.019 389.221L391.794 393.107L394.31 395.757L396.827 397.93L399.344 399.552L403.119 401.457L408.152 404.051L410.669 405.319L413.186 406.258L415.703 406.844L421.994 408.003L425.77 408.799L429.545 409.189L447.162 409.892L468.554 410.028L501.271 410.096L506.305 410.111" stroke="#EFEFEF" stroke-linecap="square"/>
</g>
<mask id="mask4_230_14238" style="mask-type:luminance" maskUnits="userSpaceOnUse" x="76" y="55" width="477" height="356">
<path d="M552.957 55.2959H76.7969V410.112H552.957V55.2959Z" fill="white"/>
</mask>
<g mask="url(#mask4_230_14238)">
<path d="M267.742 410.111L281.16 409.982L285.632 409.24L290.104 409.306L291.222 409.12L292.341 408.661L295.695 406.825L296.813 406.692L299.049 406.692L300.167 406.482L301.285 406.489L302.404 406.83L303.522 406.93L304.64 406.333L305.758 405.26L306.876 403.857L309.112 399.961L310.23 397.426L311.348 393.85L313.585 384.392L315.821 373.418L316.939 366.795L318.057 359.079L319.175 349.019L320.293 335.288L322.53 299.508L325.884 238.735L328.12 194.044L330.356 145.377L331.474 124.549L332.593 108.533L333.711 100.171L334.829 99.3271L335.947 104.834L337.065 114.906L338.183 128.181L339.301 144.992L340.419 165.793L347.128 305.307L349.364 341.998L350.482 357.42L351.6 370.355L352.718 380.604L353.837 388.696L354.955 394.982L356.073 399.296L357.191 402.103L358.309 404.175L359.427 405.601L360.545 406.302L362.781 407.034L365.018 408.534L367.254 409.022L369.49 409.389L375.081 409.331L378.435 409.821L389.616 409.766L397.443 409.812L401.915 409.944L404.152 409.969L406.388 409.681L410.86 409.762L414.215 410.075L418.687 410.065L422.041 409.821L426.514 409.951L444.403 409.844L446.64 409.889L449.994 410.09L469.002 410.112L490.246 410.111" fill="#EFEFEF" fill-opacity="0.4"/>
<path d="M267.742 410.111L281.16 409.982L285.632 409.24L290.104 409.306L291.222 409.12L292.341 408.661L295.695 406.825L296.813 406.692L299.049 406.692L300.167 406.482L301.285 406.489L302.404 406.83L303.522 406.93L304.64 406.333L305.758 405.26L306.876 403.857L309.112 399.961L310.23 397.426L311.348 393.85L313.585 384.392L315.821 373.418L316.939 366.795L318.057 359.079L319.175 349.019L320.293 335.288L322.53 299.508L325.884 238.735L328.12 194.044L330.356 145.377L331.474 124.549L332.593 108.533L333.711 100.171L334.829 99.3271L335.947 104.834L337.065 114.906L338.183 128.181L339.301 144.992L340.419 165.793L347.128 305.307L349.364 341.998L350.482 357.42L351.6 370.355L352.718 380.604L353.837 388.696L354.955 394.982L356.073 399.296L357.191 402.103L358.309 404.175L359.427 405.601L360.545 406.302L362.781 407.034L365.018 408.534L367.254 409.022L369.49 409.389L375.081 409.331L378.435 409.821L389.616 409.766L397.443 409.812L401.915 409.944L404.152 409.969L406.388 409.681L410.86 409.762L414.215 410.075L418.687 410.065L422.041 409.821L426.514 409.951L444.403 409.844L446.64 409.889L449.994 410.09L469.002 410.112L490.246 410.111" stroke="#EFEFEF" stroke-linecap="square"/>
</g>
<mask id="mask5_230_14238" style="mask-type:luminance" maskUnits="userSpaceOnUse" x="76" y="55" width="477" height="356">
<path d="M552.957 55.2959H76.7969V410.112H552.957V55.2959Z" fill="white"/>
</mask>
<g mask="url(#mask5_230_14238)">
<path d="M264.812 410.111L270.869 409.995L274.503 409.558L276.925 408.956L278.137 408.486L279.348 407.833L280.559 406.929L281.77 405.701L282.982 404.065L284.193 401.906L285.404 399.079L286.616 395.439L287.827 390.873L289.038 385.312L290.249 378.722L292.672 362.673L299.94 308.724L307.207 258.643L308.419 252.047L309.63 247.191L310.841 244.089L312.053 242.481L313.264 242.146L314.475 243.099L315.686 245.545L316.898 249.649L318.109 255.316L320.532 269.59L324.165 292.059L326.588 305.352L327.799 310.998L329.011 315.871L331.433 323.712L336.278 337.61L338.701 345.449L342.335 357.917L343.546 361.535L344.757 364.547L345.969 366.986L349.602 373.443L353.236 380.95L354.448 382.864L356.87 385.649L362.926 392.139L368.983 397.108L371.405 399.124L373.828 400.646L381.096 404.503L383.518 405.235L387.152 405.966L393.209 407.744L396.842 408.281L404.11 409.015L412.589 409.562L418.646 409.626L436.815 410.06L461.04 410.039L470.731 410.068L493.745 410.092L505.858 410.111" fill="#EFEFEF" fill-opacity="0.4"/>
<path d="M264.812 410.111L270.869 409.995L274.503 409.558L276.925 408.956L278.137 408.486L279.348 407.833L280.559 406.929L281.77 405.701L282.982 404.065L284.193 401.906L285.404 399.079L286.616 395.439L287.827 390.873L289.038 385.312L290.249 378.722L292.672 362.673L299.94 308.724L307.207 258.643L308.419 252.047L309.63 247.191L310.841 244.089L312.053 242.481L313.264 242.146L314.475 243.099L315.686 245.545L316.898 249.649L318.109 255.316L320.532 269.59L324.165 292.059L326.588 305.352L327.799 310.998L329.011 315.871L331.433 323.712L336.278 337.61L338.701 345.449L342.335 357.917L343.546 361.535L344.757 364.547L345.969 366.986L349.602 373.443L353.236 380.95L354.448 382.864L356.87 385.649L362.926 392.139L368.983 397.108L371.405 399.124L373.828 400.646L381.096 404.503L383.518 405.235L387.152 405.966L393.209 407.744L396.842 408.281L404.11 409.015L412.589 409.562L418.646 409.626L436.815 410.06L461.04 410.039L470.731 410.068L493.745 410.092L505.858 410.111" stroke="#EFEFEF" stroke-linecap="square"/>
</g>
<mask id="mask6_230_14238" style="mask-type:luminance" maskUnits="userSpaceOnUse" x="76" y="55" width="477" height="356">
<path d="M552.957 55.2959H76.7969V410.112H552.957V55.2959Z" fill="white"/>
</mask>
<g mask="url(#mask6_230_14238)">
<path d="M253.031 410.112L265.49 409.985L268.258 409.825L271.027 409.357L273.795 408.442L277.948 406.644L279.332 405.679L280.717 404.22L282.101 402.08L283.485 399.023L284.87 394.679L286.254 388.599L287.638 380.499L289.022 370.429L291.791 345.706L300.097 263.226L301.481 252.353L302.865 243.499L304.249 236.705L305.634 231.713L307.018 228.321L308.402 226.627L309.786 226.924L311.171 229.481L312.555 234.359L313.939 241.261L316.708 258.58L323.629 304.83L326.398 320.793L329.166 334.692L331.935 346.53L334.703 356.864L337.472 365.269L338.856 368.936L340.24 372.155L343.009 377.307L347.162 384.672L349.93 389.284L351.315 391.045L352.699 392.43L355.467 394.655L358.236 396.633L366.542 401.98L370.694 403.806L373.463 404.671L376.232 405.152L379 405.524L380.384 405.918L385.921 408.137L387.306 408.397L390.074 408.49L399.764 408.284L402.533 408.869L405.301 409.393L409.454 409.554L421.913 409.82L426.065 409.804L431.603 409.726L450.982 410.02L456.519 409.972L463.441 410.044L484.205 410L492.511 410.112L528.502 410.112" fill="#EFEFEF" fill-opacity="0.4"/>
<path d="M253.031 410.112L265.49 409.985L268.258 409.825L271.027 409.357L273.795 408.442L277.948 406.644L279.332 405.679L280.717 404.22L282.101 402.08L283.485 399.023L284.87 394.679L286.254 388.599L287.638 380.499L289.022 370.429L291.791 345.706L300.097 263.226L301.481 252.353L302.865 243.499L304.249 236.705L305.634 231.713L307.018 228.321L308.402 226.627L309.786 226.924L311.171 229.481L312.555 234.359L313.939 241.261L316.708 258.58L323.629 304.83L326.398 320.793L329.166 334.692L331.935 346.53L334.703 356.864L337.472 365.269L338.856 368.936L340.24 372.155L343.009 377.307L347.162 384.672L349.93 389.284L351.315 391.045L352.699 392.43L355.467 394.655L358.236 396.633L366.542 401.98L370.694 403.806L373.463 404.671L376.232 405.152L379 405.524L380.384 405.918L385.921 408.137L387.306 408.397L390.074 408.49L399.764 408.284L402.533 408.869L405.301 409.393L409.454 409.554L421.913 409.82L426.065 409.804L431.603 409.726L450.982 410.02L456.519 409.972L463.441 410.044L484.205 410L492.511 410.112L528.502 410.112" stroke="#EFEFEF" stroke-linecap="square"/>
</g>
<mask id="mask7_230_14238" style="mask-type:luminance" maskUnits="userSpaceOnUse" x="76" y="55" width="477" height="356">
<path d="M552.957 55.2959H76.7969V410.112H552.957V55.2959Z" fill="white"/>
</mask>
<g mask="url(#mask7_230_14238)">
<path d="M240.688 410.111L250.387 409.979L260.086 409.47L262.857 408.871L264.243 408.366L265.628 407.69L267.014 406.813L268.4 405.707L269.785 404.349L271.171 402.704L272.556 400.709L273.942 398.294L275.328 395.422L278.099 388.562L280.87 380.584L282.256 375.746L283.641 369.946L286.412 355.905L289.184 341.724L300.268 290.443L301.654 285.624L303.04 281.833L304.425 279.095L305.811 277.297L307.196 276.328L308.582 276.146L309.968 276.713L311.353 277.931L312.739 279.669L314.124 281.885L315.51 284.713L316.896 288.346L319.667 297.688L322.438 306.863L323.824 310.524L327.98 320.144L330.752 327.616L333.523 335.825L336.294 345.718L339.065 356.192L340.451 360.8L341.836 364.756L343.222 368.101L347.379 376.667L350.15 381.891L352.921 385.944L355.692 389.831L359.849 395.906L361.235 397.546L362.62 398.87L364.006 399.899L373.705 405.626L376.476 406.751L379.248 407.495L383.404 408.251L388.947 409.056L393.104 409.342L401.417 409.619L422.201 409.746L426.358 409.612L459.612 410.035L472.083 410.082L490.096 410.11L516.422 410.111" fill="#EFEFEF" fill-opacity="0.4"/>
<path d="M240.688 410.111L250.387 409.979L260.086 409.47L262.857 408.871L264.243 408.366L265.628 407.69L267.014 406.813L268.4 405.707L269.785 404.349L271.171 402.704L272.556 400.709L273.942 398.294L275.328 395.422L278.099 388.562L280.87 380.584L282.256 375.746L283.641 369.946L286.412 355.905L289.184 341.724L300.268 290.443L301.654 285.624L303.04 281.833L304.425 279.095L305.811 277.297L307.196 276.328L308.582 276.146L309.968 276.713L311.353 277.931L312.739 279.669L314.124 281.885L315.51 284.713L316.896 288.346L319.667 297.688L322.438 306.863L323.824 310.524L327.98 320.144L330.752 327.616L333.523 335.825L336.294 345.718L339.065 356.192L340.451 360.8L341.836 364.756L343.222 368.101L347.379 376.667L350.15 381.891L352.921 385.944L355.692 389.831L359.849 395.906L361.235 397.546L362.62 398.87L364.006 399.899L373.705 405.626L376.476 406.751L379.248 407.495L383.404 408.251L388.947 409.056L393.104 409.342L401.417 409.619L422.201 409.746L426.358 409.612L459.612 410.035L472.083 410.082L490.096 410.11L516.422 410.111" stroke="#EFEFEF" stroke-linecap="square"/>
</g>
<mask id="mask8_230_14238" style="mask-type:luminance" maskUnits="userSpaceOnUse" x="76" y="55" width="477" height="356">
<path d="M552.957 55.2959H76.7969V410.112H552.957V55.2959Z" fill="white"/>
</mask>
<g mask="url(#mask8_230_14238)">
<path d="M265.234 410.11L278.544 409.986L285.199 409.152L289.193 409.285L294.517 408.143L297.179 407.559L298.51 407.099L299.841 406.382L305.165 402.779L306.496 401.153L309.158 396.216L310.489 394.671L311.82 392.691L313.151 389.162L315.813 379.192L317.144 373.556L318.475 366.482L322.468 338.837L323.799 326.874L326.461 296.084L327.792 279.707L329.123 260.821L331.785 215.772L334.447 169.216L335.778 150.412L337.109 137.828L338.44 132.438L339.771 133.51L341.102 138.593L342.433 147.325L343.764 162.174L345.095 184.158L350.419 291.955L351.75 315.666L353.081 336.013L354.412 353.168L355.743 367.321L357.074 378.047L358.405 386.294L359.736 392.998L361.067 397.881L362.398 400.927L363.729 402.932L365.06 404.491L366.391 405.544L369.053 407.068L370.384 407.956L371.715 408.485L375.708 409.064L377.039 409.387L378.37 409.456L381.032 409.205L385.025 409.412L387.687 409.362L394.342 410.016L397.004 409.973L400.997 409.765L406.321 409.857L427.617 409.944L430.279 409.824L432.941 409.783L435.603 409.956L530.105 410.111" fill="#EFEFEF" fill-opacity="0.4"/>
<path d="M265.234 410.11L278.544 409.986L285.199 409.152L289.193 409.285L294.517 408.143L297.179 407.559L298.51 407.099L299.841 406.382L305.165 402.779L306.496 401.153L309.158 396.216L310.489 394.671L311.82 392.691L313.151 389.162L315.813 379.192L317.144 373.556L318.475 366.482L322.468 338.837L323.799 326.874L326.461 296.084L327.792 279.707L329.123 260.821L331.785 215.772L334.447 169.216L335.778 150.412L337.109 137.828L338.44 132.438L339.771 133.51L341.102 138.593L342.433 147.325L343.764 162.174L345.095 184.158L350.419 291.955L351.75 315.666L353.081 336.013L354.412 353.168L355.743 367.321L357.074 378.047L358.405 386.294L359.736 392.998L361.067 397.881L362.398 400.927L363.729 402.932L365.06 404.491L366.391 405.544L369.053 407.068L370.384 407.956L371.715 408.485L375.708 409.064L377.039 409.387L378.37 409.456L381.032 409.205L385.025 409.412L387.687 409.362L394.342 410.016L397.004 409.973L400.997 409.765L406.321 409.857L427.617 409.944L430.279 409.824L432.941 409.783L435.603 409.956L530.105 410.111" stroke="#EFEFEF" stroke-linecap="square"/>
</g>
<mask id="mask9_230_14238" style="mask-type:luminance" maskUnits="userSpaceOnUse" x="76" y="55" width="477" height="356">
<path d="M552.957 55.2959H76.7969V410.112H552.957V55.2959Z" fill="white"/>
</mask>
<g mask="url(#mask9_230_14238)">
<path d="M227.703 410.112L254.118 409.98L259.678 409.687L263.849 409.241L266.63 408.713L269.41 407.848L272.191 406.596L274.971 404.88L277.752 402.604L279.142 401.197L280.532 399.567L283.312 395.639L286.093 390.903L287.483 388.14L290.264 381.644L297.215 363.556L305.556 339.665L309.727 329.895L316.678 314.007L318.068 311.46L319.458 309.428L320.849 307.879L323.629 305.68L327.8 303.031L329.19 302.506L330.58 302.44L331.971 302.959L333.361 304.102L334.751 305.83L336.141 308.045L338.922 313.298L344.483 324.136L347.263 330.621L350.044 337.522L352.824 343.58L358.385 354.861L361.165 361.366L365.336 371.417L368.117 377.149L370.897 381.69L377.848 391.851L380.629 394.794L387.58 400.983L390.36 403.008L393.141 404.402L397.312 405.868L402.872 407.312L407.043 408.187L411.214 408.664L425.116 409.636L445.97 409.969L452.921 410.061L462.652 410.052L504.359 410.112" fill="#EFEFEF" fill-opacity="0.4"/>
<path d="M227.703 410.112L254.118 409.98L259.678 409.687L263.849 409.241L266.63 408.713L269.41 407.848L272.191 406.596L274.971 404.88L277.752 402.604L279.142 401.197L280.532 399.567L283.312 395.639L286.093 390.903L287.483 388.14L290.264 381.644L297.215 363.556L305.556 339.665L309.727 329.895L316.678 314.007L318.068 311.46L319.458 309.428L320.849 307.879L323.629 305.68L327.8 303.031L329.19 302.506L330.58 302.44L331.971 302.959L333.361 304.102L334.751 305.83L336.141 308.045L338.922 313.298L344.483 324.136L347.263 330.621L350.044 337.522L352.824 343.58L358.385 354.861L361.165 361.366L365.336 371.417L368.117 377.149L370.897 381.69L377.848 391.851L380.629 394.794L387.58 400.983L390.36 403.008L393.141 404.402L397.312 405.868L402.872 407.312L407.043 408.187L411.214 408.664L425.116 409.636L445.97 409.969L452.921 410.061L462.652 410.052L504.359 410.112" stroke="#EFEFEF" stroke-linecap="square"/>
</g>
<mask id="mask10_230_14238" style="mask-type:luminance" maskUnits="userSpaceOnUse" x="76" y="55" width="477" height="356">
<path d="M552.957 55.2959H76.7969V410.112H552.957V55.2959Z" fill="white"/>
</mask>
<g mask="url(#mask10_230_14238)">
<path d="M268.398 410.111L273.807 410.005L279.215 409.627L281.378 409.229L283.542 408.515L284.623 407.922L285.705 407.079L286.787 405.945L287.868 404.497L288.95 402.704L290.032 400.528L291.113 397.932L292.195 394.891L293.277 391.361L294.358 387.23L295.44 382.286L296.522 376.296L297.603 369.151L299.767 352.136L303.012 325.993L306.257 302.961L308.42 289.233L309.502 283.61L310.583 278.907L312.747 271.287L315.992 261.186L318.155 255.539L320.318 251.173L321.4 249.564L322.482 248.559L323.563 248.36L324.645 249.097L325.727 250.817L326.808 253.502L327.89 257.054L330.053 265.937L334.38 285.936L336.543 297.471L341.951 327.239L345.196 344.622L348.441 359.723L350.605 368.615L351.686 372.22L352.768 375.187L354.931 379.925L358.176 387.126L360.34 391.604L362.503 395.051L366.83 400.686L367.911 401.917L368.993 402.875L371.156 404.144L374.401 405.535L378.728 406.822L380.891 407.343L385.218 408.168L389.545 409.326L391.708 409.53L400.361 409.576L411.178 410.024L416.586 409.992L424.158 409.872L429.566 409.94L436.056 409.887L460.934 410.112L471.751 409.973L476.078 409.977L483.649 410.112" fill="#EFEFEF" fill-opacity="0.4"/>
<path d="M268.398 410.111L273.807 410.005L279.215 409.627L281.378 409.229L283.542 408.515L284.623 407.922L285.705 407.079L286.787 405.945L287.868 404.497L288.95 402.704L290.032 400.528L291.113 397.932L292.195 394.891L293.277 391.361L294.358 387.23L295.44 382.286L296.522 376.296L297.603 369.151L299.767 352.136L303.012 325.993L306.257 302.961L308.42 289.233L309.502 283.61L310.583 278.907L312.747 271.287L315.992 261.186L318.155 255.539L320.318 251.173L321.4 249.564L322.482 248.559L323.563 248.36L324.645 249.097L325.727 250.817L326.808 253.502L327.89 257.054L330.053 265.937L334.38 285.936L336.543 297.471L341.951 327.239L345.196 344.622L348.441 359.723L350.605 368.615L351.686 372.22L352.768 375.187L354.931 379.925L358.176 387.126L360.34 391.604L362.503 395.051L366.83 400.686L367.911 401.917L368.993 402.875L371.156 404.144L374.401 405.535L378.728 406.822L380.891 407.343L385.218 408.168L389.545 409.326L391.708 409.53L400.361 409.576L411.178 410.024L416.586 409.992L424.158 409.872L429.566 409.94L436.056 409.887L460.934 410.112L471.751 409.973L476.078 409.977L483.649 410.112" stroke="#EFEFEF" stroke-linecap="square"/>
</g>
<mask id="mask11_230_14238" style="mask-type:luminance" maskUnits="userSpaceOnUse" x="76" y="55" width="477" height="356">
<path d="M552.957 55.2959H76.7969V410.112H552.957V55.2959Z" fill="white"/>
</mask>
<g mask="url(#mask11_230_14238)">
<path d="M269 410.111L276.896 409.907L279.152 409.967L281.409 410.045L288.177 409.644L293.817 407.757L296.073 406.412L297.201 406.115L298.329 406.459L299.457 407.139L300.585 407.58L301.713 407.551L302.841 407.058L305.098 405.471L306.226 404.75L307.354 403.209L308.482 400.821L309.61 397.871L310.738 393.85L311.866 388.695L312.994 382.771L314.122 375.474L315.25 365.55L316.378 352.755L318.634 321.948L319.762 303.859L320.89 283.06L322.018 258.221L326.531 143.898L327.659 117.745L328.787 95.1572L329.915 79.3306L331.043 72.3867L332.171 72.1924L333.299 75.9198L334.427 86.7046L335.555 110.452L340.067 249.404L342.323 302.377L343.451 322.55L344.579 338.811L346.835 365.277L347.963 375.119L349.092 381.976L351.348 391.357L352.476 395.042L353.604 397.444L355.86 400.902L356.988 402.352L359.244 404.474L360.372 405.207L361.5 405.577L362.628 405.749L363.756 406.194L366.012 407.281L367.14 407.542L370.524 407.976L372.781 408.694L375.037 409.031L377.293 409.4L379.549 409.641L381.805 409.57L384.061 409.24L386.317 409.461L388.573 409.656L393.085 409.739L395.342 409.997L399.854 410.022L403.238 409.914L429.183 409.951L431.439 409.955L433.695 410.017L441.592 410.009L478.817 410.11L491.226 410.073L493.482 410.111" fill="#EFEFEF" fill-opacity="0.4"/>
<path d="M269 410.111L276.896 409.907L279.152 409.967L281.409 410.045L288.177 409.644L293.817 407.757L296.073 406.412L297.201 406.115L298.329 406.459L299.457 407.139L300.585 407.58L301.713 407.551L302.841 407.058L305.098 405.471L306.226 404.75L307.354 403.209L308.482 400.821L309.61 397.871L310.738 393.85L311.866 388.695L312.994 382.771L314.122 375.474L315.25 365.55L316.378 352.755L318.634 321.948L319.762 303.859L320.89 283.06L322.018 258.221L326.531 143.898L327.659 117.745L328.787 95.1572L329.915 79.3306L331.043 72.3867L332.171 72.1924L333.299 75.9198L334.427 86.7046L335.555 110.452L340.067 249.404L342.323 302.377L343.451 322.55L344.579 338.811L346.835 365.277L347.963 375.119L349.092 381.976L351.348 391.357L352.476 395.042L353.604 397.444L355.86 400.902L356.988 402.352L359.244 404.474L360.372 405.207L361.5 405.577L362.628 405.749L363.756 406.194L366.012 407.281L367.14 407.542L370.524 407.976L372.781 408.694L375.037 409.031L377.293 409.4L379.549 409.641L381.805 409.57L384.061 409.24L386.317 409.461L388.573 409.656L393.085 409.739L395.342 409.997L399.854 410.022L403.238 409.914L429.183 409.951L431.439 409.955L433.695 410.017L441.592 410.009L478.817 410.11L491.226 410.073L493.482 410.111" stroke="#EFEFEF" stroke-linecap="square"/>
</g>
<mask id="mask12_230_14238" style="mask-type:luminance" maskUnits="userSpaceOnUse" x="76" y="55" width="477" height="356">
<path d="M552.957 55.2959H76.7969V410.112H552.957V55.2959Z" fill="white"/>
</mask>
<g mask="url(#mask12_230_14238)">
<path d="M266.945 410.112L283.326 409.947L287.106 409.414L290.887 408.958L294.667 408.522L297.187 407.949L299.707 406.983L302.227 405.721L303.487 404.855L304.747 403.687L306.007 402.124L307.268 400.146L308.528 397.797L311.048 392.152L312.308 388.778L313.568 384.908L314.828 380.46L317.348 369.799L319.868 356.948L322.388 341.47L326.169 315.209L328.689 296.162L332.469 267.156L333.729 259.385L334.989 253.373L336.249 249.007L337.509 245.785L338.769 243.287L340.029 241.55L341.289 241.015L342.55 242.154L343.81 245.152L345.07 249.838L346.33 255.836L348.85 270.274L357.67 325.201L358.93 331.621L361.451 341.915L365.231 355.211L367.751 362.741L370.271 369.287L374.051 377.828L376.571 383.295L377.831 385.66L379.092 387.623L381.612 390.808L384.132 393.741L386.652 396.205L389.172 398.076L392.952 400.266L400.513 404.247L403.033 404.736L405.553 405.14L408.073 405.891L411.853 407.346L414.373 407.852L421.934 408.764L426.974 408.662L430.754 409.284L433.275 409.605L437.055 409.731L442.095 409.823L447.135 409.963L455.956 410.002L472.337 410.099L487.458 410.11L517.699 410.112" fill="#EFEFEF" fill-opacity="0.4"/>
<path d="M266.945 410.112L283.326 409.947L287.106 409.414L290.887 408.958L294.667 408.522L297.187 407.949L299.707 406.983L302.227 405.721L303.487 404.855L304.747 403.687L306.007 402.124L307.268 400.146L308.528 397.797L311.048 392.152L312.308 388.778L313.568 384.908L314.828 380.46L317.348 369.799L319.868 356.948L322.388 341.47L326.169 315.209L328.689 296.162L332.469 267.156L333.729 259.385L334.989 253.373L336.249 249.007L337.509 245.785L338.769 243.287L340.029 241.55L341.289 241.015L342.55 242.154L343.81 245.152L345.07 249.838L346.33 255.836L348.85 270.274L357.67 325.201L358.93 331.621L361.451 341.915L365.231 355.211L367.751 362.741L370.271 369.287L374.051 377.828L376.571 383.295L377.831 385.66L379.092 387.623L381.612 390.808L384.132 393.741L386.652 396.205L389.172 398.076L392.952 400.266L400.513 404.247L403.033 404.736L405.553 405.14L408.073 405.891L411.853 407.346L414.373 407.852L421.934 408.764L426.974 408.662L430.754 409.284L433.275 409.605L437.055 409.731L442.095 409.823L447.135 409.963L455.956 410.002L472.337 410.099L487.458 410.11L517.699 410.112" stroke="#EFEFEF" stroke-linecap="square"/>
</g>
<mask id="mask13_230_14238" style="mask-type:luminance" maskUnits="userSpaceOnUse" x="76" y="55" width="477" height="356">
<path d="M552.957 55.2959H76.7969V410.112H552.957V55.2959Z" fill="white"/>
</mask>
<g mask="url(#mask13_230_14238)">
<path d="M252.516 410.111L260.868 409.963L265.045 409.73L267.829 409.378L269.221 409.057L270.613 408.503L272.005 407.605L273.397 406.385L274.79 404.896L276.182 403.079L277.574 400.856L278.966 398.204L280.358 395.016L281.75 391.092L283.142 386.251L284.534 380.36L287.319 366.037L288.711 358.085L290.103 349.241L292.887 327.707L295.671 305.418L298.456 283.633L301.24 258.552L302.632 245.759L304.024 234.788L305.416 227.157L306.808 223.016L308.2 221.328L309.592 221.143L310.985 222.043L312.377 223.864L313.769 226.968L315.161 232.359L316.553 240.254L319.337 258.953L331.866 350.35L334.651 364.721L337.435 376.747L338.827 381.629L341.611 389.663L344.395 396.983L345.788 399.709L347.18 401.372L349.964 403.233L352.748 404.722L356.925 406.812L359.709 408.167L361.101 408.606L363.885 408.979L366.669 408.905L369.454 408.707L375.022 409.401L377.806 409.26L380.59 409.53L383.375 409.75L391.727 410.017L397.296 409.901L408.433 409.895L414.001 410.014L419.57 409.885L423.746 409.99L429.315 410.095L433.491 410.029L437.667 409.963L443.236 410.11L452.981 410.008L457.157 409.977L465.51 410.1L529.547 410.111" fill="#EFEFEF" fill-opacity="0.4"/>
<path d="M252.516 410.111L260.868 409.963L265.045 409.73L267.829 409.378L269.221 409.057L270.613 408.503L272.005 407.605L273.397 406.385L274.79 404.896L276.182 403.079L277.574 400.856L278.966 398.204L280.358 395.016L281.75 391.092L283.142 386.251L284.534 380.36L287.319 366.037L288.711 358.085L290.103 349.241L292.887 327.707L295.671 305.418L298.456 283.633L301.24 258.552L302.632 245.759L304.024 234.788L305.416 227.157L306.808 223.016L308.2 221.328L309.592 221.143L310.985 222.043L312.377 223.864L313.769 226.968L315.161 232.359L316.553 240.254L319.337 258.953L331.866 350.35L334.651 364.721L337.435 376.747L338.827 381.629L341.611 389.663L344.395 396.983L345.788 399.709L347.18 401.372L349.964 403.233L352.748 404.722L356.925 406.812L359.709 408.167L361.101 408.606L363.885 408.979L366.669 408.905L369.454 408.707L375.022 409.401L377.806 409.26L380.59 409.53L383.375 409.75L391.727 410.017L397.296 409.901L408.433 409.895L414.001 410.014L419.57 409.885L423.746 409.99L429.315 410.095L433.491 410.029L437.667 409.963L443.236 410.11L452.981 410.008L457.157 409.977L465.51 410.1L529.547 410.111" stroke="#EFEFEF" stroke-linecap="square"/>
</g>
<mask id="mask14_230_14238" style="mask-type:luminance" maskUnits="userSpaceOnUse" x="76" y="55" width="477" height="356">
<path d="M552.957 55.2959H76.7969V410.112H552.957V55.2959Z" fill="white"/>
</mask>
<g mask="url(#mask14_230_14238)">
<path d="M98.4375 410.111L229.418 409.846L240.154 408.987L242.301 408.688L246.596 407.623L250.89 406.2L253.037 405.251L255.185 404.001L257.332 402.476L259.479 400.686L261.626 398.462L263.773 395.663L265.921 392.369L268.068 388.687L270.215 384.498L278.804 365.069L280.951 359.846L283.098 353.87L285.246 346.956L289.54 331.033L291.687 323.049L293.835 315.893L300.276 296.881L302.423 291.274L304.571 286.784L306.718 283.655L308.865 282.454L311.012 283.376L313.16 285.996L315.307 289.845L317.454 294.526L319.601 299.794L321.748 305.891L323.896 313.312L330.337 338.937L334.632 353.785L336.779 360.491L338.926 366.661L341.073 371.903L345.368 380.328L347.515 384.407L349.662 388.167L351.81 391.358L353.957 394.03L356.104 396.308L358.251 398.323L360.398 400.134L362.546 401.664L364.693 402.816L375.429 406.959L379.723 407.813L386.165 408.664L390.46 408.991L403.343 409.533L409.785 409.39L418.373 409.747L426.962 409.771L431.257 409.662L450.582 409.959L457.023 409.966L465.612 410.03L476.348 410.064L525.734 410.111" fill="#7EB0D5" fill-opacity="0.4"/>
<path d="M98.4375 410.111L229.418 409.846L240.154 408.987L242.301 408.688L246.596 407.623L250.89 406.2L253.037 405.251L255.185 404.001L257.332 402.476L259.479 400.686L261.626 398.462L263.773 395.663L265.921 392.369L268.068 388.687L270.215 384.498L278.804 365.069L280.951 359.846L283.098 353.87L285.246 346.956L289.54 331.033L291.687 323.049L293.835 315.893L300.276 296.881L302.423 291.274L304.571 286.784L306.718 283.655L308.865 282.454L311.012 283.376L313.16 285.996L315.307 289.845L317.454 294.526L319.601 299.794L321.748 305.891L323.896 313.312L330.337 338.937L334.632 353.785L336.779 360.491L338.926 366.661L341.073 371.903L345.368 380.328L347.515 384.407L349.662 388.167L351.81 391.358L353.957 394.03L356.104 396.308L358.251 398.323L360.398 400.134L362.546 401.664L364.693 402.816L375.429 406.959L379.723 407.813L386.165 408.664L390.46 408.991L403.343 409.533L409.785 409.39L418.373 409.747L426.962 409.771L431.257 409.662L450.582 409.959L457.023 409.966L465.612 410.03L476.348 410.064L525.734 410.111" stroke="#7EB0D5" stroke-linecap="square"/>
</g>
<path d="M535.061 411.061C535.646 410.475 535.646 409.525 535.061 408.939L525.515 399.393C524.929 398.808 523.979 398.808 523.393 399.393C522.808 399.979 522.808 400.929 523.393 401.515L531.879 410L523.393 418.485C522.808 419.071 522.808 420.021 523.393 420.607C523.979 421.192 524.929 421.192 525.515 420.607L535.061 411.061ZM79 411.5H534V408.5H79V411.5Z" fill="black"/>
</g>
<defs>
<clipPath id="clip0_230_14238">
<rect width="614.4" height="460.8" fill="white"/>
</clipPath>
</defs>
</svg>
