<svg width="615" height="461" viewBox="0 0 615 461" fill="none" xmlns="http://www.w3.org/2000/svg">
<g clip-path="url(#clip0_230_13838)">
<mask id="mask0_230_13838" style="mask-type:luminance" maskUnits="userSpaceOnUse" x="76" y="55" width="477" height="356">
<path d="M552.957 55.2959H76.7969V410.112H552.957V55.2959Z" fill="white"/>
</mask>
<g mask="url(#mask0_230_13838)">
<path d="M294.953 410.112L305.643 409.977L309.206 409.728L311.581 409.35L313.957 408.72L316.332 407.675L317.52 406.878L318.708 405.81L319.895 404.411L321.083 402.643L322.271 400.486L323.459 397.922L324.646 394.898L325.834 391.297L327.022 386.946L328.21 381.652L329.397 375.283L331.773 359.461L337.711 314.674L340.087 299.75L341.275 293.41L342.462 288.012L343.65 283.703L344.838 280.557L346.025 278.527L347.213 277.469L348.401 277.206L349.589 277.603L350.776 278.595L351.964 280.164L353.152 282.29L354.34 284.921L356.715 291.355L359.09 298.876L363.841 314.814L365.029 318.213L366.217 321.161L368.592 326L370.968 330.652L373.343 336.06L376.906 344.192L379.282 348.822L381.657 352.731L382.845 354.318L385.221 356.734L388.784 359.766L391.159 362.317L399.473 372.235L404.224 376.881L407.787 381.161L411.351 385.207L413.726 387.991L419.665 395.632L422.04 397.677L429.166 402.816L432.73 404.784L436.293 406.386L439.856 407.626L443.419 408.495L446.982 408.971L454.109 409.554L468.362 410.057L482.614 410.001L531.311 410.112" fill="#EFEFEF" fill-opacity="0.4"/>
<path d="M294.953 410.112L305.643 409.977L309.206 409.728L311.581 409.35L313.957 408.72L316.332 407.675L317.52 406.878L318.708 405.81L319.895 404.411L321.083 402.643L322.271 400.486L323.459 397.922L324.646 394.898L325.834 391.297L327.022 386.946L328.21 381.652L329.397 375.283L331.773 359.461L337.711 314.674L340.087 299.75L341.275 293.41L342.462 288.012L343.65 283.703L344.838 280.557L346.025 278.527L347.213 277.469L348.401 277.206L349.589 277.603L350.776 278.595L351.964 280.164L353.152 282.29L354.34 284.921L356.715 291.355L359.09 298.876L363.841 314.814L365.029 318.213L366.217 321.161L368.592 326L370.968 330.652L373.343 336.06L376.906 344.192L379.282 348.822L381.657 352.731L382.845 354.318L385.221 356.734L388.784 359.766L391.159 362.317L399.473 372.235L404.224 376.881L407.787 381.161L411.351 385.207L413.726 387.991L419.665 395.632L422.04 397.677L429.166 402.816L432.73 404.784L436.293 406.386L439.856 407.626L443.419 408.495L446.982 408.971L454.109 409.554L468.362 410.057L482.614 410.001L531.311 410.112" stroke="#EFEFEF" stroke-linecap="square"/>
</g>
<mask id="mask1_230_13838" style="mask-type:luminance" maskUnits="userSpaceOnUse" x="76" y="55" width="477" height="356">
<path d="M552.957 55.2959H76.7969V410.112H552.957V55.2959Z" fill="white"/>
</mask>
<g mask="url(#mask1_230_13838)">
<path d="M305.602 410.111L315.304 409.994L320.695 409.687L323.929 409.737L326.085 409.483L328.241 408.896L330.397 407.779L332.553 406.574L334.71 405.682L337.944 404.664L339.022 403.764L340.1 402.269L342.256 398.124L343.334 395.707L345.49 389.737L347.646 382.884L348.725 378.594L349.803 373.379L350.881 366.906L351.959 358.868L355.193 331.785L357.349 316.376L358.427 307.032L359.505 294.687L362.74 251.721L367.052 202.659L369.208 182.144L370.286 174.371L371.364 168.428L372.442 165.018L373.52 164.978L374.598 168.175L375.676 174.082L376.755 183.01L377.833 195.306L381.067 239.97L385.379 303.998L387.535 327.552L390.769 356.946L391.848 365.024L392.926 371.506L394.004 376.516L396.16 384.36L398.316 390.632L400.472 396.138L401.55 398.394L402.628 400.096L406.941 405.274L408.019 406.314L410.175 407.591L412.331 408.364L417.721 409.333L419.878 409.734L423.112 409.856L432.814 409.92L436.049 410.054L440.361 410.007L443.595 410.1L451.142 410.083L459.766 410.112L520.139 410.111" fill="#EFEFEF" fill-opacity="0.4"/>
<path d="M305.602 410.111L315.304 409.994L320.695 409.687L323.929 409.737L326.085 409.483L328.241 408.896L330.397 407.779L332.553 406.574L334.71 405.682L337.944 404.664L339.022 403.764L340.1 402.269L342.256 398.124L343.334 395.707L345.49 389.737L347.646 382.884L348.725 378.594L349.803 373.379L350.881 366.906L351.959 358.868L355.193 331.785L357.349 316.376L358.427 307.032L359.505 294.687L362.74 251.721L367.052 202.659L369.208 182.144L370.286 174.371L371.364 168.428L372.442 165.018L373.52 164.978L374.598 168.175L375.676 174.082L376.755 183.01L377.833 195.306L381.067 239.97L385.379 303.998L387.535 327.552L390.769 356.946L391.848 365.024L392.926 371.506L394.004 376.516L396.16 384.36L398.316 390.632L400.472 396.138L401.55 398.394L402.628 400.096L406.941 405.274L408.019 406.314L410.175 407.591L412.331 408.364L417.721 409.333L419.878 409.734L423.112 409.856L432.814 409.92L436.049 410.054L440.361 410.007L443.595 410.1L451.142 410.083L459.766 410.112L520.139 410.111" stroke="#EFEFEF" stroke-linecap="square"/>
</g>
<mask id="mask2_230_13838" style="mask-type:luminance" maskUnits="userSpaceOnUse" x="76" y="55" width="477" height="356">
<path d="M552.957 55.2959H76.7969V410.112H552.957V55.2959Z" fill="white"/>
</mask>
<g mask="url(#mask2_230_13838)">
<path d="M292.859 410.111L309.145 409.952L312.976 409.532L318.724 408.663L324.472 407.16L327.346 406.218L329.261 405.162L331.177 403.605L334.051 401.186L336.925 398.957L345.547 390.745L348.42 387.508L350.336 385.021L352.252 382.017L354.168 378.214L356.084 373.347L359.916 362.443L362.79 355.792L365.664 349.644L366.621 347.98L367.579 346.669L369.495 344.859L370.453 343.985L371.411 342.852L372.369 341.35L374.285 337.434L377.159 330.649L378.117 327.983L379.075 324.877L380.991 317.1L382.907 307.391L384.823 296.045L386.738 283.207L389.612 261.317L391.528 247.208L392.486 241.52L393.444 237.267L394.402 234.682L395.36 233.815L396.318 234.522L397.276 236.503L398.234 239.418L399.192 243.012L401.108 252.015L403.024 263.987L404.939 279.056L408.771 313.608L412.603 347.592L414.519 362.243L416.435 374.191L418.351 383.636L420.267 391.17L422.183 397.086L423.14 399.431L424.098 401.379L425.056 402.967L426.972 405.297L428.888 406.879L430.804 407.981L432.72 408.651L434.636 408.952L450.921 410.061L476.786 410.043L483.491 410.111" fill="#EFEFEF" fill-opacity="0.4"/>
<path d="M292.859 410.111L309.145 409.952L312.976 409.532L318.724 408.663L324.472 407.16L327.346 406.218L329.261 405.162L331.177 403.605L334.051 401.186L336.925 398.957L345.547 390.745L348.42 387.508L350.336 385.021L352.252 382.017L354.168 378.214L356.084 373.347L359.916 362.443L362.79 355.792L365.664 349.644L366.621 347.98L367.579 346.669L369.495 344.859L370.453 343.985L371.411 342.852L372.369 341.35L374.285 337.434L377.159 330.649L378.117 327.983L379.075 324.877L380.991 317.1L382.907 307.391L384.823 296.045L386.738 283.207L389.612 261.317L391.528 247.208L392.486 241.52L393.444 237.267L394.402 234.682L395.36 233.815L396.318 234.522L397.276 236.503L398.234 239.418L399.192 243.012L401.108 252.015L403.024 263.987L404.939 279.056L408.771 313.608L412.603 347.592L414.519 362.243L416.435 374.191L418.351 383.636L420.267 391.17L422.183 397.086L423.14 399.431L424.098 401.379L425.056 402.967L426.972 405.297L428.888 406.879L430.804 407.981L432.72 408.651L434.636 408.952L450.921 410.061L476.786 410.043L483.491 410.111" stroke="#EFEFEF" stroke-linecap="square"/>
</g>
<mask id="mask3_230_13838" style="mask-type:luminance" maskUnits="userSpaceOnUse" x="76" y="55" width="477" height="356">
<path d="M552.957 55.2959H76.7969V410.112H552.957V55.2959Z" fill="white"/>
</mask>
<g mask="url(#mask3_230_13838)">
<path d="M293.883 410.111L308.623 409.947L312.834 409.665L318.098 409L321.257 408.416L323.363 407.727L324.415 407.184L325.468 406.465L327.574 404.455L329.68 401.68L331.785 397.977L332.838 395.646L333.891 392.922L335.997 386.241L338.103 378.105L340.208 368.728L344.42 348.912L347.578 335.638L349.684 327.623L351.79 320.863L353.895 314.418L356.001 306.881L360.212 290.793L361.265 287.603L363.371 282.577L365.477 278.903L366.53 277.533L367.582 276.505L368.635 275.814L369.688 275.422L370.741 275.308L371.794 275.505L372.847 276.133L373.899 277.364L374.952 279.365L376.005 282.203L378.111 289.894L381.269 302.382L386.534 320.844L389.692 331.181L391.798 337.271L397.062 351.611L402.326 368.221L403.379 370.85L404.432 373.077L406.538 376.598L408.644 379.847L410.749 383.662L416.014 393.985L418.119 397.197L420.225 399.493L422.331 401.195L425.489 403.386L427.595 404.588L430.753 405.98L436.018 408.022L438.123 408.519L441.282 408.84L456.022 409.713L487.607 410.093L503.4 410.111" fill="#EFEFEF" fill-opacity="0.4"/>
<path d="M293.883 410.111L308.623 409.947L312.834 409.665L318.098 409L321.257 408.416L323.363 407.727L324.415 407.184L325.468 406.465L327.574 404.455L329.68 401.68L331.785 397.977L332.838 395.646L333.891 392.922L335.997 386.241L338.103 378.105L340.208 368.728L344.42 348.912L347.578 335.638L349.684 327.623L351.79 320.863L353.895 314.418L356.001 306.881L360.212 290.793L361.265 287.603L363.371 282.577L365.477 278.903L366.53 277.533L367.582 276.505L368.635 275.814L369.688 275.422L370.741 275.308L371.794 275.505L372.847 276.133L373.899 277.364L374.952 279.365L376.005 282.203L378.111 289.894L381.269 302.382L386.534 320.844L389.692 331.181L391.798 337.271L397.062 351.611L402.326 368.221L403.379 370.85L404.432 373.077L406.538 376.598L408.644 379.847L410.749 383.662L416.014 393.985L418.119 397.197L420.225 399.493L422.331 401.195L425.489 403.386L427.595 404.588L430.753 405.98L436.018 408.022L438.123 408.519L441.282 408.84L456.022 409.713L487.607 410.093L503.4 410.111" stroke="#EFEFEF" stroke-linecap="square"/>
</g>
<mask id="mask4_230_13838" style="mask-type:luminance" maskUnits="userSpaceOnUse" x="76" y="55" width="477" height="356">
<path d="M552.957 55.2959H76.7969V410.112H552.957V55.2959Z" fill="white"/>
</mask>
<g mask="url(#mask4_230_13838)">
<path d="M305.633 410.111L311.273 409.971L314.496 409.831L316.107 409.835L319.33 409.55L324.97 409.418L327.387 408.636L328.193 408.684L329.804 409.005L330.61 408.858L333.027 407.379L333.833 407.271L335.444 407.488L338.667 407.189L340.278 406.677L341.89 405.999L345.112 405.215L345.918 404.404L346.724 403.083L349.141 398.201L349.947 396.088L351.558 390.085L353.17 383.366L353.975 379.319L354.781 373.851L355.587 366.66L356.392 357.908L357.198 347.482L358.809 320.308L360.421 287.625L361.227 268.018L362.838 218.555L365.255 142.483L366.061 123.224L366.867 108.537L367.672 98.0254L368.478 91.0896L369.284 86.9488L370.089 85.0547L370.895 85.8548L371.701 90.5139L372.506 99.8132L373.312 113.35L377.341 192.192L380.564 252.456L382.981 298.772L383.786 310.571L384.592 319.656L387.815 349.796L389.426 364.765L390.232 370.395L393.455 388.617L394.261 393.262L395.066 396.549L395.872 398.615L397.483 401.394L399.9 404.797L401.512 406.728L403.123 408.147L404.735 408.848L406.346 409.041L408.763 409.147L411.986 409.632L415.209 409.476L419.237 409.852L424.877 409.938L427.295 409.832L431.323 409.86L432.934 409.747L440.186 409.865L443.409 409.757L446.631 410.062L453.077 409.938L465.968 410.111" fill="#EFEFEF" fill-opacity="0.4"/>
<path d="M305.633 410.111L311.273 409.971L314.496 409.831L316.107 409.835L319.33 409.55L324.97 409.418L327.387 408.636L328.193 408.684L329.804 409.005L330.61 408.858L333.027 407.379L333.833 407.271L335.444 407.488L338.667 407.189L340.278 406.677L341.89 405.999L345.112 405.215L345.918 404.404L346.724 403.083L349.141 398.201L349.947 396.088L351.558 390.085L353.17 383.366L353.975 379.319L354.781 373.851L355.587 366.66L356.392 357.908L357.198 347.482L358.809 320.308L360.421 287.625L361.227 268.018L362.838 218.555L365.255 142.483L366.061 123.224L366.867 108.537L367.672 98.0254L368.478 91.0896L369.284 86.9488L370.089 85.0547L370.895 85.8548L371.701 90.5139L372.506 99.8132L373.312 113.35L377.341 192.192L380.564 252.456L382.981 298.772L383.786 310.571L384.592 319.656L387.815 349.796L389.426 364.765L390.232 370.395L393.455 388.617L394.261 393.262L395.066 396.549L395.872 398.615L397.483 401.394L399.9 404.797L401.512 406.728L403.123 408.147L404.735 408.848L406.346 409.041L408.763 409.147L411.986 409.632L415.209 409.476L419.237 409.852L424.877 409.938L427.295 409.832L431.323 409.86L432.934 409.747L440.186 409.865L443.409 409.757L446.631 410.062L453.077 409.938L465.968 410.111" stroke="#EFEFEF" stroke-linecap="square"/>
</g>
<mask id="mask5_230_13838" style="mask-type:luminance" maskUnits="userSpaceOnUse" x="76" y="55" width="477" height="356">
<path d="M552.957 55.2959H76.7969V410.112H552.957V55.2959Z" fill="white"/>
</mask>
<g mask="url(#mask5_230_13838)">
<path d="M298.633 410.111L305.086 409.966L307.851 409.671L309.695 409.299L311.538 408.681L313.382 407.75L315.226 406.41L317.069 404.448L318.913 401.651L320.757 397.891L322.6 393.044L324.444 386.933L326.288 379.192L328.131 369.444L329.975 357.528L331.819 343.347L334.584 318.837L337.349 294.307L339.193 279.937L341.037 267.992L342.88 258.736L344.724 251.48L346.568 245.407L347.49 243.005L348.411 241.318L349.333 240.529L350.255 240.72L351.177 241.872L352.099 243.925L353.02 246.801L354.864 254.531L358.551 272.892L366.848 315.466L369.613 328.292L371.457 335.574L374.222 344.736L377.91 356.911L381.597 368.785L383.441 373.887L384.363 375.873L385.284 377.416L387.128 379.555L389.893 382.369L395.424 388.87L403.721 396.495L408.33 401.227L411.095 403.465L412.939 404.646L414.783 405.486L416.626 405.969L420.314 406.391L422.157 406.707L429.532 408.523L434.141 409.025L440.594 409.589L456.265 410.001L462.718 409.94L469.17 410.099L482.076 410.111" fill="#EFEFEF" fill-opacity="0.4"/>
<path d="M298.633 410.111L305.086 409.966L307.851 409.671L309.695 409.299L311.538 408.681L313.382 407.75L315.226 406.41L317.069 404.448L318.913 401.651L320.757 397.891L322.6 393.044L324.444 386.933L326.288 379.192L328.131 369.444L329.975 357.528L331.819 343.347L334.584 318.837L337.349 294.307L339.193 279.937L341.037 267.992L342.88 258.736L344.724 251.48L346.568 245.407L347.49 243.005L348.411 241.318L349.333 240.529L350.255 240.72L351.177 241.872L352.099 243.925L353.02 246.801L354.864 254.531L358.551 272.892L366.848 315.466L369.613 328.292L371.457 335.574L374.222 344.736L377.91 356.911L381.597 368.785L383.441 373.887L384.363 375.873L385.284 377.416L387.128 379.555L389.893 382.369L395.424 388.87L403.721 396.495L408.33 401.227L411.095 403.465L412.939 404.646L414.783 405.486L416.626 405.969L420.314 406.391L422.157 406.707L429.532 408.523L434.141 409.025L440.594 409.589L456.265 410.001L462.718 409.94L469.17 410.099L482.076 410.111" stroke="#EFEFEF" stroke-linecap="square"/>
</g>
<mask id="mask6_230_13838" style="mask-type:luminance" maskUnits="userSpaceOnUse" x="76" y="55" width="477" height="356">
<path d="M552.957 55.2959H76.7969V410.112H552.957V55.2959Z" fill="white"/>
</mask>
<g mask="url(#mask6_230_13838)">
<path d="M293.039 410.111L298.773 409.998L302.214 409.639L304.508 409.246L306.801 408.535L307.948 407.906L309.095 406.975L310.242 405.634L311.389 403.782L312.536 401.35L313.683 398.316L314.829 394.683L315.976 390.43L317.123 385.489L318.27 379.757L319.417 373.151L321.711 357.395L324.004 339.001L327.445 307.872L330.886 276.004L333.179 257.302L335.473 241.811L336.62 235.915L337.767 231.58L338.914 228.867L340.061 227.691L341.207 227.893L342.354 229.299L343.501 231.753L344.648 235.139L345.795 239.417L346.942 244.652L348.089 250.949L350.382 266.477L354.97 299.937L357.263 314.098L361.851 338.818L364.145 350.875L366.438 361.355L368.732 369.618L371.026 376.49L372.173 379.541L373.32 382.124L374.466 384.062L375.613 385.366L382.494 390.605L383.641 390.931L387.082 391.269L388.229 391.684L393.963 394.908L396.257 396.292L400.844 399.194L406.579 402.335L413.46 405.139L415.754 406.203L418.047 406.931L421.488 407.71L424.928 408.184L432.957 408.759L437.544 409.575L440.985 409.774L445.572 409.787L450.16 409.8L455.894 409.975L461.628 409.961L467.362 410.1L497.181 410.056L506.356 410.109L521.265 410.111" fill="#EFEFEF" fill-opacity="0.4"/>
<path d="M293.039 410.111L298.773 409.998L302.214 409.639L304.508 409.246L306.801 408.535L307.948 407.906L309.095 406.975L310.242 405.634L311.389 403.782L312.536 401.35L313.683 398.316L314.829 394.683L315.976 390.43L317.123 385.489L318.27 379.757L319.417 373.151L321.711 357.395L324.004 339.001L327.445 307.872L330.886 276.004L333.179 257.302L335.473 241.811L336.62 235.915L337.767 231.58L338.914 228.867L340.061 227.691L341.207 227.893L342.354 229.299L343.501 231.753L344.648 235.139L345.795 239.417L346.942 244.652L348.089 250.949L350.382 266.477L354.97 299.937L357.263 314.098L361.851 338.818L364.145 350.875L366.438 361.355L368.732 369.618L371.026 376.49L372.173 379.541L373.32 382.124L374.466 384.062L375.613 385.366L382.494 390.605L383.641 390.931L387.082 391.269L388.229 391.684L393.963 394.908L396.257 396.292L400.844 399.194L406.579 402.335L413.46 405.139L415.754 406.203L418.047 406.931L421.488 407.71L424.928 408.184L432.957 408.759L437.544 409.575L440.985 409.774L445.572 409.787L450.16 409.8L455.894 409.975L461.628 409.961L467.362 410.1L497.181 410.056L506.356 410.109L521.265 410.111" stroke="#EFEFEF" stroke-linecap="square"/>
</g>
<mask id="mask7_230_13838" style="mask-type:luminance" maskUnits="userSpaceOnUse" x="76" y="55" width="477" height="356">
<path d="M552.957 55.2959H76.7969V410.112H552.957V55.2959Z" fill="white"/>
</mask>
<g mask="url(#mask7_230_13838)">
<path d="M279.859 410.111L289.355 409.959L294.103 409.758L296.477 409.403L300.038 408.49L303.599 407.344L305.973 406.239L307.16 405.457L308.347 404.455L309.534 403.177L310.721 401.574L311.908 399.63L314.282 394.951L317.843 387.094L320.217 380.798L321.405 376.931L323.779 367.515L328.527 346.267L334.462 321.963L338.023 306.604L339.21 302.28L340.397 298.636L341.584 295.693L342.771 293.392L343.958 291.602L346.332 288.867L347.519 287.763L348.706 286.988L349.893 286.783L351.08 287.326L352.267 288.612L354.641 292.519L357.015 296.4L360.576 301.488L361.763 303.573L362.95 306.058L365.324 312.2L368.885 322.438L371.259 328.35L376.007 339.382L378.381 345.671L381.942 355.476L384.316 360.77L386.69 364.77L389.064 368.586L390.251 370.839L392.625 376.234L394.999 381.9L396.186 384.386L397.373 386.524L399.747 389.92L405.682 396.901L408.056 399.523L410.43 401.607L413.991 404.006L417.552 406.166L419.926 407.16L422.3 407.733L430.609 409.282L436.544 409.362L441.292 409.571L446.04 409.755L479.276 410.075L512.512 410.103L516.073 410.111" fill="#EFEFEF" fill-opacity="0.4"/>
<path d="M279.859 410.111L289.355 409.959L294.103 409.758L296.477 409.403L300.038 408.49L303.599 407.344L305.973 406.239L307.16 405.457L308.347 404.455L309.534 403.177L310.721 401.574L311.908 399.63L314.282 394.951L317.843 387.094L320.217 380.798L321.405 376.931L323.779 367.515L328.527 346.267L334.462 321.963L338.023 306.604L339.21 302.28L340.397 298.636L341.584 295.693L342.771 293.392L343.958 291.602L346.332 288.867L347.519 287.763L348.706 286.988L349.893 286.783L351.08 287.326L352.267 288.612L354.641 292.519L357.015 296.4L360.576 301.488L361.763 303.573L362.95 306.058L365.324 312.2L368.885 322.438L371.259 328.35L376.007 339.382L378.381 345.671L381.942 355.476L384.316 360.77L386.69 364.77L389.064 368.586L390.251 370.839L392.625 376.234L394.999 381.9L396.186 384.386L397.373 386.524L399.747 389.92L405.682 396.901L408.056 399.523L410.43 401.607L413.991 404.006L417.552 406.166L419.926 407.16L422.3 407.733L430.609 409.282L436.544 409.362L441.292 409.571L446.04 409.755L479.276 410.075L512.512 410.103L516.073 410.111" stroke="#EFEFEF" stroke-linecap="square"/>
</g>
<mask id="mask8_230_13838" style="mask-type:luminance" maskUnits="userSpaceOnUse" x="76" y="55" width="477" height="356">
<path d="M552.957 55.2959H76.7969V410.112H552.957V55.2959Z" fill="white"/>
</mask>
<g mask="url(#mask8_230_13838)">
<path d="M291.242 410.111L311.071 409.981L314.571 409.565L319.236 409.481L321.569 409.539L323.902 409.624L330.901 408.954L336.733 408.053L339.066 407.363L340.232 406.864L341.398 406.141L344.898 402.754L346.064 402.192L348.397 401.682L349.563 400.755L353.063 395.588L355.396 393.257L356.562 391.251L357.728 388.485L358.895 385.227L360.061 381.338L361.228 376.497L363.56 364.928L367.06 346.992L368.226 339.729L370.559 322.005L371.725 311.347L372.892 299.119L375.225 270.294L379.89 210.822L381.057 198.357L385.723 155.873L386.889 148.204L388.055 146.599L389.222 151.651L390.388 161.411L391.555 174.635L392.721 191.376L395.054 234.01L398.553 302.642L400.886 340.611L402.052 356.048L403.219 368.649L404.385 378.643L405.552 386.16L406.718 391.471L407.885 395.275L410.217 400.905L411.384 403.201L412.55 405.147L413.717 406.621L414.883 407.558L416.05 408.09L420.715 409.318L423.048 409.564L426.547 409.66L431.213 409.997L439.378 409.948L444.044 409.693L447.543 410.045L523.361 410.111" fill="#EFEFEF" fill-opacity="0.4"/>
<path d="M291.242 410.111L311.071 409.981L314.571 409.565L319.236 409.481L321.569 409.539L323.902 409.624L330.901 408.954L336.733 408.053L339.066 407.363L340.232 406.864L341.398 406.141L344.898 402.754L346.064 402.192L348.397 401.682L349.563 400.755L353.063 395.588L355.396 393.257L356.562 391.251L357.728 388.485L358.895 385.227L360.061 381.338L361.228 376.497L363.56 364.928L367.06 346.992L368.226 339.729L370.559 322.005L371.725 311.347L372.892 299.119L375.225 270.294L379.89 210.822L381.057 198.357L385.723 155.873L386.889 148.204L388.055 146.599L389.222 151.651L390.388 161.411L391.555 174.635L392.721 191.376L395.054 234.01L398.553 302.642L400.886 340.611L402.052 356.048L403.219 368.649L404.385 378.643L405.552 386.16L406.718 391.471L407.885 395.275L410.217 400.905L411.384 403.201L412.55 405.147L413.717 406.621L414.883 407.558L416.05 408.09L420.715 409.318L423.048 409.564L426.547 409.66L431.213 409.997L439.378 409.948L444.044 409.693L447.543 410.045L523.361 410.111" stroke="#EFEFEF" stroke-linecap="square"/>
</g>
<mask id="mask9_230_13838" style="mask-type:luminance" maskUnits="userSpaceOnUse" x="76" y="55" width="477" height="356">
<path d="M552.957 55.2959H76.7969V410.112H552.957V55.2959Z" fill="white"/>
</mask>
<g mask="url(#mask9_230_13838)">
<path d="M272.016 410.111L291.088 409.979L300.064 409.59L303.43 409.15L306.795 408.373L311.283 407.059L313.527 406.225L315.771 405.111L318.015 403.597L320.259 401.725L323.624 398.467L325.868 395.876L328.112 392.713L330.356 388.721L332.6 383.883L338.209 371.264L342.697 361.24L344.941 355.701L347.185 349.569L353.916 330.396L358.404 318.488L360.648 313.746L361.77 311.839L362.892 310.229L365.136 307.782L370.745 302.765L371.867 302.088L372.989 301.708L375.233 301.541L377.477 301.605L378.599 301.76L379.721 302.138L380.843 302.852L381.965 303.966L383.086 305.484L385.33 309.512L387.574 314.512L390.94 323.214L399.915 347.305L407.769 364.201L411.135 372.316L415.622 383.53L417.866 388.317L420.11 392.434L422.354 395.798L424.598 398.491L427.964 401.896L430.207 403.788L432.451 405.215L435.817 406.782L439.183 408.061L441.427 408.652L444.792 409.161L453.768 409.947L459.378 410.068L495.279 410.111" fill="#EFEFEF" fill-opacity="0.4"/>
<path d="M272.016 410.111L291.088 409.979L300.064 409.59L303.43 409.15L306.795 408.373L311.283 407.059L313.527 406.225L315.771 405.111L318.015 403.597L320.259 401.725L323.624 398.467L325.868 395.876L328.112 392.713L330.356 388.721L332.6 383.883L338.209 371.264L342.697 361.24L344.941 355.701L347.185 349.569L353.916 330.396L358.404 318.488L360.648 313.746L361.77 311.839L362.892 310.229L365.136 307.782L370.745 302.765L371.867 302.088L372.989 301.708L375.233 301.541L377.477 301.605L378.599 301.76L379.721 302.138L380.843 302.852L381.965 303.966L383.086 305.484L385.33 309.512L387.574 314.512L390.94 323.214L399.915 347.305L407.769 364.201L411.135 372.316L415.622 383.53L417.866 388.317L420.11 392.434L422.354 395.798L424.598 398.491L427.964 401.896L430.207 403.788L432.451 405.215L435.817 406.782L439.183 408.061L441.427 408.652L444.792 409.161L453.768 409.947L459.378 410.068L495.279 410.111" stroke="#EFEFEF" stroke-linecap="square"/>
</g>
<mask id="mask10_230_13838" style="mask-type:luminance" maskUnits="userSpaceOnUse" x="76" y="55" width="477" height="356">
<path d="M552.957 55.2959H76.7969V410.112H552.957V55.2959Z" fill="white"/>
</mask>
<g mask="url(#mask10_230_13838)">
<path d="M305.031 410.111L310.872 409.98L315.738 409.502L319.632 408.753L321.579 408.116L326.446 406.046L327.419 405.199L328.392 404.002L330.339 400.701L332.286 396.449L333.259 393.921L334.233 390.967L335.206 387.384L336.18 382.953L337.153 377.544L339.1 364.153L341.046 348.114L342.993 328.829L350.78 244.475L352.727 226.168L353.701 218.355L354.674 211.893L355.647 207.168L356.621 204.331L357.594 203.289L358.567 203.953L359.541 206.36L360.514 210.444L362.461 221.596L365.381 240.208L367.328 255.778L370.248 280.744L374.142 310.16L376.088 322.935L380.955 349.988L381.929 354.279L382.902 357.597L384.849 362.283L386.796 366.979L388.742 373.042L390.689 379.319L391.662 382.02L392.636 384.242L393.609 385.959L401.396 396.429L404.317 399.675L407.237 402.381L409.183 403.772L411.13 404.756L414.05 405.812L417.944 408.005L419.891 408.441L428.651 409.484L432.545 409.779L436.438 409.67L439.358 409.66L444.225 409.778L452.012 409.981L459.799 409.988L465.64 410.071L472.453 410.091L480.241 410.105L498.735 410.111" fill="#EFEFEF" fill-opacity="0.4"/>
<path d="M305.031 410.111L310.872 409.98L315.738 409.502L319.632 408.753L321.579 408.116L326.446 406.046L327.419 405.199L328.392 404.002L330.339 400.701L332.286 396.449L333.259 393.921L334.233 390.967L335.206 387.384L336.18 382.953L337.153 377.544L339.1 364.153L341.046 348.114L342.993 328.829L350.78 244.475L352.727 226.168L353.701 218.355L354.674 211.893L355.647 207.168L356.621 204.331L357.594 203.289L358.567 203.953L359.541 206.36L360.514 210.444L362.461 221.596L365.381 240.208L367.328 255.778L370.248 280.744L374.142 310.16L376.088 322.935L380.955 349.988L381.929 354.279L382.902 357.597L384.849 362.283L386.796 366.979L388.742 373.042L390.689 379.319L391.662 382.02L392.636 384.242L393.609 385.959L401.396 396.429L404.317 399.675L407.237 402.381L409.183 403.772L411.13 404.756L414.05 405.812L417.944 408.005L419.891 408.441L428.651 409.484L432.545 409.779L436.438 409.67L439.358 409.66L444.225 409.778L452.012 409.981L459.799 409.988L465.64 410.071L472.453 410.091L480.241 410.105L498.735 410.111" stroke="#EFEFEF" stroke-linecap="square"/>
</g>
<mask id="mask11_230_13838" style="mask-type:luminance" maskUnits="userSpaceOnUse" x="76" y="55" width="477" height="356">
<path d="M552.957 55.2959H76.7969V410.112H552.957V55.2959Z" fill="white"/>
</mask>
<g mask="url(#mask11_230_13838)">
<path d="M311.164 410.111L316.298 409.97L321.431 409.668L323.998 409.571L325.71 409.202L327.421 408.901L332.555 408.547L334.266 408.083L335.977 408.012L337.688 407.849L338.544 407.539L340.255 406.607L341.111 406.451L342.822 406.654L343.678 406.426L344.533 405.768L345.389 404.649L346.244 402.979L347.956 398.322L349.667 392.88L351.378 385.795L352.234 381.221L353.089 375.629L354.801 361.529L356.512 343.886L357.367 332.708L359.079 304.534L360.79 270.68L362.501 229.384L365.068 163.8L367.635 107.43L368.491 93.2983L369.346 82.1814L370.202 74.4476L371.057 72.1924L371.913 76.2929L373.624 93.2278L374.48 105.195L375.335 122.384L377.047 169.898L379.614 244.582L381.325 284.95L383.036 320.101L383.892 334.555L384.747 346.3L386.459 363.999L388.17 377.282L389.881 387.457L390.737 391.307L391.592 394.213L392.448 396.104L395.015 399.482L396.726 403.202L397.582 404.663L398.437 405.541L399.293 405.886L401.86 405.773L404.427 406.354L406.138 406.571L408.705 407.043L410.416 406.919L411.271 406.872L412.127 407.164L414.694 409.066L415.55 409.24L418.116 408.885L419.828 409.266L421.539 409.562L423.25 409.543L425.817 409.43L436.084 410.042L438.651 410.044L443.785 410.012L448.063 409.972L451.486 409.847L457.475 410.108L471.165 410.022L478.865 410.056L481.432 410.111" fill="#EFEFEF" fill-opacity="0.4"/>
<path d="M311.164 410.111L316.298 409.97L321.431 409.668L323.998 409.571L325.71 409.202L327.421 408.901L332.555 408.547L334.266 408.083L335.977 408.012L337.688 407.849L338.544 407.539L340.255 406.607L341.111 406.451L342.822 406.654L343.678 406.426L344.533 405.768L345.389 404.649L346.244 402.979L347.956 398.322L349.667 392.88L351.378 385.795L352.234 381.221L353.089 375.629L354.801 361.529L356.512 343.886L357.367 332.708L359.079 304.534L360.79 270.68L362.501 229.384L365.068 163.8L367.635 107.43L368.491 93.2983L369.346 82.1814L370.202 74.4476L371.057 72.1924L371.913 76.2929L373.624 93.2278L374.48 105.195L375.335 122.384L377.047 169.898L379.614 244.582L381.325 284.95L383.036 320.101L383.892 334.555L384.747 346.3L386.459 363.999L388.17 377.282L389.881 387.457L390.737 391.307L391.592 394.213L392.448 396.104L395.015 399.482L396.726 403.202L397.582 404.663L398.437 405.541L399.293 405.886L401.86 405.773L404.427 406.354L406.138 406.571L408.705 407.043L410.416 406.919L411.271 406.872L412.127 407.164L414.694 409.066L415.55 409.24L418.116 408.885L419.828 409.266L421.539 409.562L423.25 409.543L425.817 409.43L436.084 410.042L438.651 410.044L443.785 410.012L448.063 409.972L451.486 409.847L457.475 410.108L471.165 410.022L478.865 410.056L481.432 410.111" stroke="#EFEFEF" stroke-linecap="square"/>
</g>
<mask id="mask12_230_13838" style="mask-type:luminance" maskUnits="userSpaceOnUse" x="76" y="55" width="477" height="356">
<path d="M552.957 55.2959H76.7969V410.112H552.957V55.2959Z" fill="white"/>
</mask>
<g mask="url(#mask12_230_13838)">
<path d="M298.172 410.111L317.708 409.952L326.39 409.597L329.646 409.438L338.329 408.404L343.756 407.237L344.841 406.869L345.926 406.296L348.097 404.555L349.182 403.456L350.268 402.093L351.353 400.284L352.438 397.948L353.524 395.145L354.609 391.924L356.78 384.05L358.95 374.59L361.121 364.059L362.206 358.101L363.291 351.167L364.377 342.93L366.547 323.481L369.803 291.172L373.059 257.092L375.23 239.222L377.401 225.138L378.486 219.041L379.571 213.861L380.657 210.2L381.742 208.537L382.827 208.776L383.913 210.177L384.998 211.972L386.083 214.22L387.169 217.901L388.254 224.033L389.339 232.786L394.766 285.373L398.022 310.65L401.278 336.371L403.449 350.777L404.534 356.698L406.705 366.05L408.875 374.1L411.046 380.716L415.387 392.854L416.472 394.839L418.643 397.564L421.899 401.112L424.07 402.976L427.326 405.459L429.496 406.742L431.667 407.641L433.838 407.983L437.094 408.108L439.264 408.488L442.52 409.21L445.776 409.571L453.374 410.006L456.63 410.05L460.971 409.952L468.568 410.086L475.08 410.097L514.152 410.111" fill="#EFEFEF" fill-opacity="0.4"/>
<path d="M298.172 410.111L317.708 409.952L326.39 409.597L329.646 409.438L338.329 408.404L343.756 407.237L344.841 406.869L345.926 406.296L348.097 404.555L349.182 403.456L350.268 402.093L351.353 400.284L352.438 397.948L353.524 395.145L354.609 391.924L356.78 384.05L358.95 374.59L361.121 364.059L362.206 358.101L363.291 351.167L364.377 342.93L366.547 323.481L369.803 291.172L373.059 257.092L375.23 239.222L377.401 225.138L378.486 219.041L379.571 213.861L380.657 210.2L381.742 208.537L382.827 208.776L383.913 210.177L384.998 211.972L386.083 214.22L387.169 217.901L388.254 224.033L389.339 232.786L394.766 285.373L398.022 310.65L401.278 336.371L403.449 350.777L404.534 356.698L406.705 366.05L408.875 374.1L411.046 380.716L415.387 392.854L416.472 394.839L418.643 397.564L421.899 401.112L424.07 402.976L427.326 405.459L429.496 406.742L431.667 407.641L433.838 407.983L437.094 408.108L439.264 408.488L442.52 409.21L445.776 409.571L453.374 410.006L456.63 410.05L460.971 409.952L468.568 410.086L475.08 410.097L514.152 410.111" stroke="#EFEFEF" stroke-linecap="square"/>
</g>
<mask id="mask13_230_13838" style="mask-type:luminance" maskUnits="userSpaceOnUse" x="76" y="55" width="477" height="356">
<path d="M552.957 55.2959H76.7969V410.112H552.957V55.2959Z" fill="white"/>
</mask>
<g mask="url(#mask13_230_13838)">
<path d="M287.5 410.111L297.158 409.944L299.573 409.704L304.402 408.904L306.817 408.317L308.024 407.83L310.439 406.344L312.853 404.615L314.061 403.387L315.268 401.668L316.475 399.367L317.682 396.392L318.89 392.659L320.097 388.153L322.512 377.261L324.926 364.911L327.341 351.358L329.755 336.578L332.17 320.198L334.585 300.96L338.207 270.953L339.414 262.414L340.621 255.095L341.829 249.268L343.036 245.211L344.243 243.077L345.45 242.456L346.658 242.2L347.865 241.218L349.072 239.56L350.28 238.42L351.487 239.118L352.694 242.136L355.109 251.921L357.523 261.897L358.731 267.757L362.353 288.586L367.182 316.007L369.596 332.758L372.011 349.185L373.218 355.754L374.426 361.053L375.633 365.278L379.255 376.552L382.877 389.807L384.084 393.169L385.291 395.72L387.706 399.504L388.913 401.144L390.121 402.511L391.328 403.502L397.364 406.889L399.779 408.022L400.986 408.365L403.401 408.616L407.023 408.98L410.645 409.31L414.267 409.484L419.096 409.927L423.925 409.955L429.961 409.999L434.791 409.887L439.62 410.002L446.864 410.017L454.107 410.045L490.326 410.112L527.753 410.111" fill="#EFEFEF" fill-opacity="0.4"/>
<path d="M287.5 410.111L297.158 409.944L299.573 409.704L304.402 408.904L306.817 408.317L308.024 407.83L310.439 406.344L312.853 404.615L314.061 403.387L315.268 401.668L316.475 399.367L317.682 396.392L318.89 392.659L320.097 388.153L322.512 377.261L324.926 364.911L327.341 351.358L329.755 336.578L332.17 320.198L334.585 300.96L338.207 270.953L339.414 262.414L340.621 255.095L341.829 249.268L343.036 245.211L344.243 243.077L345.45 242.456L346.658 242.2L347.865 241.218L349.072 239.56L350.28 238.42L351.487 239.118L352.694 242.136L355.109 251.921L357.523 261.897L358.731 267.757L362.353 288.586L367.182 316.007L369.596 332.758L372.011 349.185L373.218 355.754L374.426 361.053L375.633 365.278L379.255 376.552L382.877 389.807L384.084 393.169L385.291 395.72L387.706 399.504L388.913 401.144L390.121 402.511L391.328 403.502L397.364 406.889L399.779 408.022L400.986 408.365L403.401 408.616L407.023 408.98L410.645 409.31L414.267 409.484L419.096 409.927L423.925 409.955L429.961 409.999L434.791 409.887L439.62 410.002L446.864 410.017L454.107 410.045L490.326 410.112L527.753 410.111" stroke="#EFEFEF" stroke-linecap="square"/>
</g>
<mask id="mask14_230_13838" style="mask-type:luminance" maskUnits="userSpaceOnUse" x="76" y="55" width="477" height="356">
<path d="M552.957 55.2959H76.7969V410.112H552.957V55.2959Z" fill="white"/>
</mask>
<g mask="url(#mask14_230_13838)">
<path d="M98.4375 410.111L213.422 410.112L268.785 409.975L281.561 409.195L285.82 408.412L290.079 407.261L294.337 405.789L298.596 403.893L302.855 401.73L304.984 400.232L307.113 398.121L309.243 395.427L311.372 392.38L313.501 388.919L315.631 384.488L317.76 378.8L322.019 366.605L326.277 355.184L328.407 348.845L330.536 341.688L336.924 317.898L341.183 304.553L343.312 298.318L345.442 293.087L347.571 289.666L351.83 285.136L353.959 283.511L356.088 283.302L358.218 284.977L360.347 288.24L364.606 295.892L366.735 301.385L368.864 309.201L373.123 326.77L375.252 334.271L383.77 361.752L385.899 369.339L388.028 376.345L390.158 382.071L392.287 386.665L394.416 390.752L396.546 394.442L398.675 397.389L400.804 399.625L405.063 403.326L407.193 404.823L409.322 405.996L411.451 406.925L413.581 407.669L415.71 408.214L419.969 408.892L424.227 409.305L432.745 409.491L437.003 409.697L492.366 410.112L522.177 410.111" fill="#7EB0D5" fill-opacity="0.4"/>
<path d="M98.4375 410.111L213.422 410.112L268.785 409.975L281.561 409.195L285.82 408.412L290.079 407.261L294.337 405.789L298.596 403.893L302.855 401.73L304.984 400.232L307.113 398.121L309.243 395.427L311.372 392.38L313.501 388.919L315.631 384.488L317.76 378.8L322.019 366.605L326.277 355.184L328.407 348.845L330.536 341.688L336.924 317.898L341.183 304.553L343.312 298.318L345.442 293.087L347.571 289.666L351.83 285.136L353.959 283.511L356.088 283.302L358.218 284.977L360.347 288.24L364.606 295.892L366.735 301.385L368.864 309.201L373.123 326.77L375.252 334.271L383.77 361.752L385.899 369.339L388.028 376.345L390.158 382.071L392.287 386.665L394.416 390.752L396.546 394.442L398.675 397.389L400.804 399.625L405.063 403.326L407.193 404.823L409.322 405.996L411.451 406.925L413.581 407.669L415.71 408.214L419.969 408.892L424.227 409.305L432.745 409.491L437.003 409.697L492.366 410.112L522.177 410.111" stroke="#7EB0D5" stroke-linecap="square"/>
</g>
<path d="M535.061 411.061C535.646 410.475 535.646 409.525 535.061 408.939L525.515 399.393C524.929 398.808 523.979 398.808 523.393 399.393C522.808 399.979 522.808 400.929 523.393 401.515L531.879 410L523.393 418.485C522.808 419.071 522.808 420.021 523.393 420.607C523.979 421.192 524.929 421.192 525.515 420.607L535.061 411.061ZM79 411.5H534V408.5H79V411.5Z" fill="black"/>
</g>
<defs>
<clipPath id="clip0_230_13838">
<rect width="614.4" height="460.8" fill="white"/>
</clipPath>
</defs>
</svg>
