<svg width="615" height="461" viewBox="0 0 615 461" fill="none" xmlns="http://www.w3.org/2000/svg">
<g clip-path="url(#clip0_230_14318)">
<mask id="mask0_230_14318" style="mask-type:luminance" maskUnits="userSpaceOnUse" x="76" y="55" width="477" height="356">
<path d="M552.957 55.2959H76.7969V410.112H552.957V55.2959Z" fill="white"/>
</mask>
<g mask="url(#mask0_230_14318)">
<path d="M200.656 410.111L223.849 409.982L228.819 409.638L232.132 409.136L235.445 408.14L237.102 407.403L238.758 406.501L240.415 405.418L242.072 404.115L243.728 402.552L245.385 400.712L247.041 398.597L248.698 396.196L250.355 393.447L252.011 390.274L253.668 386.642L256.981 378.131L260.294 368.337L263.608 357.753L266.921 345.914L268.577 339.135L271.891 323.519L281.83 271.766L286.8 248.771L288.457 242.141L290.113 236.649L291.77 232.557L293.427 229.919L295.083 228.529L296.74 227.988L298.396 227.914L300.053 228.201L301.71 229.088L303.366 230.927L305.023 233.857L306.68 237.691L309.993 246.78L313.306 256.95L319.932 279.271L323.246 288.442L326.559 297.362L329.872 308.088L333.185 319.449L336.499 329.725L339.812 338.67L346.438 355.052L351.408 366.64L354.721 373.452L358.035 379.394L361.348 384.489L363.004 386.66L364.661 388.568L367.974 391.741L372.944 395.802L376.257 398.314L379.571 400.493L382.884 402.205L392.823 406.124L396.137 406.917L401.107 407.578L412.703 408.682L417.673 409.172L422.643 409.384L429.269 409.6L437.552 409.941L444.179 409.819L450.805 409.755L469.028 409.972L507.13 410.104L527.009 410.101L530.322 410.111" fill="#EFEFEF" fill-opacity="0.4"/>
<path d="M200.656 410.111L223.849 409.982L228.819 409.638L232.132 409.136L235.445 408.14L237.102 407.403L238.758 406.501L240.415 405.418L242.072 404.115L243.728 402.552L245.385 400.712L247.041 398.597L248.698 396.196L250.355 393.447L252.011 390.274L253.668 386.642L256.981 378.131L260.294 368.337L263.608 357.753L266.921 345.914L268.577 339.135L271.891 323.519L281.83 271.766L286.8 248.771L288.457 242.141L290.113 236.649L291.77 232.557L293.427 229.919L295.083 228.529L296.74 227.988L298.396 227.914L300.053 228.201L301.71 229.088L303.366 230.927L305.023 233.857L306.68 237.691L309.993 246.78L313.306 256.95L319.932 279.271L323.246 288.442L326.559 297.362L329.872 308.088L333.185 319.449L336.499 329.725L339.812 338.67L346.438 355.052L351.408 366.64L354.721 373.452L358.035 379.394L361.348 384.489L363.004 386.66L364.661 388.568L367.974 391.741L372.944 395.802L376.257 398.314L379.571 400.493L382.884 402.205L392.823 406.124L396.137 406.917L401.107 407.578L412.703 408.682L417.673 409.172L422.643 409.384L429.269 409.6L437.552 409.941L444.179 409.819L450.805 409.755L469.028 409.972L507.13 410.104L527.009 410.101L530.322 410.111" stroke="#EFEFEF" stroke-linecap="square"/>
</g>
<mask id="mask1_230_14318" style="mask-type:luminance" maskUnits="userSpaceOnUse" x="76" y="55" width="477" height="356">
<path d="M552.957 55.2959H76.7969V410.112H552.957V55.2959Z" fill="white"/>
</mask>
<g mask="url(#mask1_230_14318)">
<path d="M227.062 410.111L234.422 409.957L243.253 409.652L247.668 409.15L250.612 408.767L253.555 408.548L256.499 407.938L257.971 407.433L260.915 405.936L265.33 403.635L266.802 402.36L268.274 400.631L272.689 394.445L275.633 389.928L277.105 387.281L278.577 384.311L280.048 380.679L281.52 375.96L282.992 370.072L285.936 356.021L287.408 347.975L288.879 338.226L290.351 325.743L296.239 264.994L297.71 247.663L300.654 204.019L303.598 161.956L306.541 125.267L308.013 110.367L309.485 98.5011L310.957 89.9451L312.429 85.4746L313.901 85.8208L315.372 91.0672L316.844 100.379L319.788 125.09L321.26 139.306L322.732 155.863L325.675 194.788L331.563 274.554L333.034 290.284L334.506 303.372L340.394 349.682L341.865 358.574L343.337 365.379L344.809 370.662L346.281 374.995L347.753 378.674L349.225 381.755L350.696 384.25L356.584 392.56L359.527 397.18L360.999 398.978L362.471 400.371L363.943 401.433L365.415 402.216L366.887 402.729L369.83 403.447L371.302 404.143L374.246 405.855L375.718 406.275L377.189 406.342L381.605 406.131L383.077 406.378L386.02 407.447L388.964 408.435L393.38 409.08L400.739 409.52L416.929 409.674L421.344 409.697L425.76 409.725L439.006 410.086L447.837 410.095L458.14 410.016L466.971 410.112L519.957 410.111" fill="#EFEFEF" fill-opacity="0.4"/>
<path d="M227.062 410.111L234.422 409.957L243.253 409.652L247.668 409.15L250.612 408.767L253.555 408.548L256.499 407.938L257.971 407.433L260.915 405.936L265.33 403.635L266.802 402.36L268.274 400.631L272.689 394.445L275.633 389.928L277.105 387.281L278.577 384.311L280.048 380.679L281.52 375.96L282.992 370.072L285.936 356.021L287.408 347.975L288.879 338.226L290.351 325.743L296.239 264.994L297.71 247.663L300.654 204.019L303.598 161.956L306.541 125.267L308.013 110.367L309.485 98.5011L310.957 89.9451L312.429 85.4746L313.901 85.8208L315.372 91.0672L316.844 100.379L319.788 125.09L321.26 139.306L322.732 155.863L325.675 194.788L331.563 274.554L333.034 290.284L334.506 303.372L340.394 349.682L341.865 358.574L343.337 365.379L344.809 370.662L346.281 374.995L347.753 378.674L349.225 381.755L350.696 384.25L356.584 392.56L359.527 397.18L360.999 398.978L362.471 400.371L363.943 401.433L365.415 402.216L366.887 402.729L369.83 403.447L371.302 404.143L374.246 405.855L375.718 406.275L377.189 406.342L381.605 406.131L383.077 406.378L386.02 407.447L388.964 408.435L393.38 409.08L400.739 409.52L416.929 409.674L421.344 409.697L425.76 409.725L439.006 410.086L447.837 410.095L458.14 410.016L466.971 410.112L519.957 410.111" stroke="#EFEFEF" stroke-linecap="square"/>
</g>
<mask id="mask2_230_14318" style="mask-type:luminance" maskUnits="userSpaceOnUse" x="76" y="55" width="477" height="356">
<path d="M552.957 55.2959H76.7969V410.112H552.957V55.2959Z" fill="white"/>
</mask>
<g mask="url(#mask2_230_14318)">
<path d="M226.562 410.111L238.215 409.95L248.411 409.631L255.693 409.178L261.519 408.461L264.433 407.855L270.259 406.417L274.628 405.434L277.541 404.456L286.281 400.709L289.194 399.792L290.65 399.17L292.107 398.194L293.563 396.753L295.02 394.854L297.933 390.237L300.846 385.231L303.759 379.377L311.042 363.328L312.498 359.47L313.955 354.792L316.868 343.254L328.52 292.939L334.346 264.6L337.259 253.138L340.173 242.041L347.455 211.723L350.368 202.398L351.825 198.385L353.281 194.893L354.738 192.219L356.194 190.631L357.651 190.081L359.108 190.331L360.564 191.406L362.021 193.736L363.477 197.743L364.934 203.467L366.39 210.721L367.847 219.429L369.303 229.632L372.216 253.942L376.586 293.172L379.499 316.013L382.412 335.713L385.325 353.898L388.238 369.927L389.695 376.521L391.151 382.123L392.608 386.89L394.064 390.987L395.521 394.494L396.978 397.411L398.434 399.731L399.891 401.526L401.347 402.942L404.26 405.217L407.173 407.009L408.63 407.638L410.086 408.063L412.999 408.454L420.282 409.068L426.108 409.495L430.478 409.519L434.848 409.53L445.043 409.847L458.152 410.034L468.348 410.063L480 410.037L500.392 410.037L509.131 410.047L516.414 410.111" fill="#EFEFEF" fill-opacity="0.4"/>
<path d="M226.562 410.111L238.215 409.95L248.411 409.631L255.693 409.178L261.519 408.461L264.433 407.855L270.259 406.417L274.628 405.434L277.541 404.456L286.281 400.709L289.194 399.792L290.65 399.17L292.107 398.194L293.563 396.753L295.02 394.854L297.933 390.237L300.846 385.231L303.759 379.377L311.042 363.328L312.498 359.47L313.955 354.792L316.868 343.254L328.52 292.939L334.346 264.6L337.259 253.138L340.173 242.041L347.455 211.723L350.368 202.398L351.825 198.385L353.281 194.893L354.738 192.219L356.194 190.631L357.651 190.081L359.108 190.331L360.564 191.406L362.021 193.736L363.477 197.743L364.934 203.467L366.39 210.721L367.847 219.429L369.303 229.632L372.216 253.942L376.586 293.172L379.499 316.013L382.412 335.713L385.325 353.898L388.238 369.927L389.695 376.521L391.151 382.123L392.608 386.89L394.064 390.987L395.521 394.494L396.978 397.411L398.434 399.731L399.891 401.526L401.347 402.942L404.26 405.217L407.173 407.009L408.63 407.638L410.086 408.063L412.999 408.454L420.282 409.068L426.108 409.495L430.478 409.519L434.848 409.53L445.043 409.847L458.152 410.034L468.348 410.063L480 410.037L500.392 410.037L509.131 410.047L516.414 410.111" stroke="#EFEFEF" stroke-linecap="square"/>
</g>
<mask id="mask3_230_14318" style="mask-type:luminance" maskUnits="userSpaceOnUse" x="76" y="55" width="477" height="356">
<path d="M552.957 55.2959H76.7969V410.112H552.957V55.2959Z" fill="white"/>
</mask>
<g mask="url(#mask3_230_14318)">
<path d="M214.07 410.111L233.547 409.961L247.031 409.414L250.028 408.923L253.024 408.178L256.021 407.214L259.017 406.026L262.014 404.577L265.01 402.798L268.006 400.646L271.003 398.105L273.999 395.052L276.996 391.255L279.992 386.499L282.989 380.678L285.985 373.926L290.48 362.661L294.975 350.564L299.469 337.694L305.462 320.011L314.452 295.02L317.448 287.892L320.444 282.089L323.441 277.297L326.437 273.359L329.434 270.224L330.932 268.979L332.43 268.006L333.928 267.342L335.427 266.969L338.423 266.764L341.42 266.915L342.918 267.268L344.416 267.948L345.914 268.972L348.911 271.619L351.907 274.496L353.405 276.243L354.904 278.498L356.402 281.432L357.9 285.053L365.391 305.724L374.381 326.666L378.875 338.52L386.366 358.42L389.363 365.431L392.359 371.261L395.356 376.035L398.352 380.21L402.847 385.951L405.843 389.457L408.84 392.579L413.334 396.779L416.331 399.291L419.327 401.382L422.324 402.982L425.32 404.11L428.317 404.877L435.808 406.554L440.303 407.67L444.797 408.42L450.79 409.034L462.776 409.671L479.256 409.939L512.217 410.111" fill="#EFEFEF" fill-opacity="0.4"/>
<path d="M214.07 410.111L233.547 409.961L247.031 409.414L250.028 408.923L253.024 408.178L256.021 407.214L259.017 406.026L262.014 404.577L265.01 402.798L268.006 400.646L271.003 398.105L273.999 395.052L276.996 391.255L279.992 386.499L282.989 380.678L285.985 373.926L290.48 362.661L294.975 350.564L299.469 337.694L305.462 320.011L314.452 295.02L317.448 287.892L320.444 282.089L323.441 277.297L326.437 273.359L329.434 270.224L330.932 268.979L332.43 268.006L333.928 267.342L335.427 266.969L338.423 266.764L341.42 266.915L342.918 267.268L344.416 267.948L345.914 268.972L348.911 271.619L351.907 274.496L353.405 276.243L354.904 278.498L356.402 281.432L357.9 285.053L365.391 305.724L374.381 326.666L378.875 338.52L386.366 358.42L389.363 365.431L392.359 371.261L395.356 376.035L398.352 380.21L402.847 385.951L405.843 389.457L408.84 392.579L413.334 396.779L416.331 399.291L419.327 401.382L422.324 402.982L425.32 404.11L428.317 404.877L435.808 406.554L440.303 407.67L444.797 408.42L450.79 409.034L462.776 409.671L479.256 409.939L512.217 410.111" stroke="#EFEFEF" stroke-linecap="square"/>
</g>
<mask id="mask4_230_14318" style="mask-type:luminance" maskUnits="userSpaceOnUse" x="76" y="55" width="477" height="356">
<path d="M552.957 55.2959H76.7969V410.112H552.957V55.2959Z" fill="white"/>
</mask>
<g mask="url(#mask4_230_14318)">
<path d="M218.219 410.111L232.898 409.969L238.236 409.653L243.573 409.871L246.242 409.654L248.911 409.215L252.915 408.425L256.918 408.089L258.252 407.781L259.587 407.11L262.256 405.526L264.925 404.122L267.594 401.798L268.928 400.609L271.597 398.659L272.931 397.247L274.266 395.044L276.935 388.718L280.938 379.45L282.273 374.588L283.607 367.944L286.276 351.016L287.61 342.625L288.945 335.677L291.614 323.554L292.948 314.806L294.283 303.452L300.955 240.223L303.624 207.384L306.293 169.671L308.962 130.712L310.296 113.924L311.631 99.8894L312.965 89.665L314.299 83.5673L316.968 75.3739L318.303 72.1924L319.637 73.7051L320.972 81.1069L323.641 103.061L324.975 115.893L326.31 132.036L327.644 152.331L332.982 243.214L336.985 309.279L338.32 327.699L339.654 342.297L340.988 353.945L343.657 373.604L344.992 381.858L346.326 388.351L347.661 393.236L348.995 397.173L350.33 400.568L351.664 403.35L352.999 405.351L354.333 406.604L355.667 407.354L358.336 408.312L359.671 408.57L365.009 409.072L367.678 409.559L370.346 409.604L373.015 409.634L379.688 409.841L391.698 409.811L395.701 409.522L417.052 410.04L426.394 409.738L434.4 410.045L441.073 409.911L453.083 410.056L457.086 410.024L463.758 410.112L483.775 410.111" fill="#EFEFEF" fill-opacity="0.4"/>
<path d="M218.219 410.111L232.898 409.969L238.236 409.653L243.573 409.871L246.242 409.654L248.911 409.215L252.915 408.425L256.918 408.089L258.252 407.781L259.587 407.11L262.256 405.526L264.925 404.122L267.594 401.798L268.928 400.609L271.597 398.659L272.931 397.247L274.266 395.044L276.935 388.718L280.938 379.45L282.273 374.588L283.607 367.944L286.276 351.016L287.61 342.625L288.945 335.677L291.614 323.554L292.948 314.806L294.283 303.452L300.955 240.223L303.624 207.384L306.293 169.671L308.962 130.712L310.296 113.924L311.631 99.8894L312.965 89.665L314.299 83.5673L316.968 75.3739L318.303 72.1924L319.637 73.7051L320.972 81.1069L323.641 103.061L324.975 115.893L326.31 132.036L327.644 152.331L332.982 243.214L336.985 309.279L338.32 327.699L339.654 342.297L340.988 353.945L343.657 373.604L344.992 381.858L346.326 388.351L347.661 393.236L348.995 397.173L350.33 400.568L351.664 403.35L352.999 405.351L354.333 406.604L355.667 407.354L358.336 408.312L359.671 408.57L365.009 409.072L367.678 409.559L370.346 409.604L373.015 409.634L379.688 409.841L391.698 409.811L395.701 409.522L417.052 410.04L426.394 409.738L434.4 410.045L441.073 409.911L453.083 410.056L457.086 410.024L463.758 410.112L483.775 410.111" stroke="#EFEFEF" stroke-linecap="square"/>
</g>
<mask id="mask5_230_14318" style="mask-type:luminance" maskUnits="userSpaceOnUse" x="76" y="55" width="477" height="356">
<path d="M552.957 55.2959H76.7969V410.112H552.957V55.2959Z" fill="white"/>
</mask>
<g mask="url(#mask5_230_14318)">
<path d="M217.398 410.111L228.134 409.951L234.268 409.676L237.335 409.258L238.869 408.873L240.402 408.33L241.936 407.597L243.47 406.624L245.003 405.321L246.537 403.567L248.07 401.252L249.604 398.329L251.138 394.822L252.671 390.794L254.205 386.282L255.738 381.266L257.272 375.651L258.806 369.276L260.339 361.926L261.873 353.395L263.406 343.599L266.474 320.94L274.142 260.209L275.675 249.606L277.209 240.507L278.742 233.152L280.276 227.482L281.81 223.214L283.343 220.002L284.877 217.611L286.41 216.007L287.944 215.313L289.478 215.683L291.011 217.162L292.545 219.642L294.078 222.919L297.146 231.04L304.814 253.806L307.881 263.161L309.414 267.399L310.948 271.081L315.549 281.018L317.082 285.172L323.217 303.899L326.284 312.556L327.818 317.613L333.952 340.509L335.486 344.731L337.019 348.124L341.62 356.602L346.221 364.696L355.422 379.928L358.49 383.95L363.09 389.354L370.758 397.513L372.292 398.788L373.825 399.748L375.359 400.406L381.493 402.297L387.628 405.047L392.229 406.438L396.829 407.61L401.43 408.285L407.565 408.887L413.699 409.136L419.833 409.369L429.035 409.823L436.703 409.887L452.039 409.973L522.585 410.111" fill="#EFEFEF" fill-opacity="0.4"/>
<path d="M217.398 410.111L228.134 409.951L234.268 409.676L237.335 409.258L238.869 408.873L240.402 408.33L241.936 407.597L243.47 406.624L245.003 405.321L246.537 403.567L248.07 401.252L249.604 398.329L251.138 394.822L252.671 390.794L254.205 386.282L255.738 381.266L257.272 375.651L258.806 369.276L260.339 361.926L261.873 353.395L263.406 343.599L266.474 320.94L274.142 260.209L275.675 249.606L277.209 240.507L278.742 233.152L280.276 227.482L281.81 223.214L283.343 220.002L284.877 217.611L286.41 216.007L287.944 215.313L289.478 215.683L291.011 217.162L292.545 219.642L294.078 222.919L297.146 231.04L304.814 253.806L307.881 263.161L309.414 267.399L310.948 271.081L315.549 281.018L317.082 285.172L323.217 303.899L326.284 312.556L327.818 317.613L333.952 340.509L335.486 344.731L337.019 348.124L341.62 356.602L346.221 364.696L355.422 379.928L358.49 383.95L363.09 389.354L370.758 397.513L372.292 398.788L373.825 399.748L375.359 400.406L381.493 402.297L387.628 405.047L392.229 406.438L396.829 407.61L401.43 408.285L407.565 408.887L413.699 409.136L419.833 409.369L429.035 409.823L436.703 409.887L452.039 409.973L522.585 410.111" stroke="#EFEFEF" stroke-linecap="square"/>
</g>
<mask id="mask6_230_14318" style="mask-type:luminance" maskUnits="userSpaceOnUse" x="76" y="55" width="477" height="356">
<path d="M552.957 55.2959H76.7969V410.112H552.957V55.2959Z" fill="white"/>
</mask>
<g mask="url(#mask6_230_14318)">
<path d="M211.32 410.111L219.102 409.982L225.328 409.805L231.554 409.68L234.667 409.244L237.78 408.41L239.336 407.792L240.892 406.982L242.449 405.936L244.005 404.636L245.562 403.068L247.118 401.186L248.675 398.875L250.231 395.976L251.787 392.33L253.344 387.784L254.9 382.17L256.457 375.309L258.013 367.07L259.57 357.391L261.126 346.199L262.682 333.316L264.239 318.536L267.352 283.643L270.465 246.137L272.021 228.951L273.577 213.971L275.134 201.58L276.69 191.711L278.247 184.02L279.803 178.183L281.36 174.09L282.916 171.783L284.473 171.292L286.029 172.588L287.585 175.631L289.142 180.303L290.698 186.264L293.811 199.977L296.924 214.497L300.037 231.068L304.706 257.977L309.375 281.83L312.488 297.054L314.045 303.665L317.158 314.575L320.27 325.379L324.94 342.86L326.496 348.111L328.053 352.764L329.609 356.765L332.722 363.462L335.835 370.462L340.504 381.974L342.06 385.14L343.617 387.793L345.173 390.022L346.73 391.894L348.286 393.387L349.843 394.467L351.399 395.194L354.512 396.142L359.181 397.465L362.294 398.709L366.963 400.919L371.633 403.485L374.745 404.74L377.858 405.456L385.64 406.509L388.753 406.965L393.423 407.57L398.092 408.511L401.205 408.724L405.874 408.635L415.213 409.213L418.325 409.168L422.995 409.499L427.664 409.73L440.115 409.643L451.011 410.08L475.913 409.963L521.05 410.111" fill="#EFEFEF" fill-opacity="0.4"/>
<path d="M211.32 410.111L219.102 409.982L225.328 409.805L231.554 409.68L234.667 409.244L237.78 408.41L239.336 407.792L240.892 406.982L242.449 405.936L244.005 404.636L245.562 403.068L247.118 401.186L248.675 398.875L250.231 395.976L251.787 392.33L253.344 387.784L254.9 382.17L256.457 375.309L258.013 367.07L259.57 357.391L261.126 346.199L262.682 333.316L264.239 318.536L267.352 283.643L270.465 246.137L272.021 228.951L273.577 213.971L275.134 201.58L276.69 191.711L278.247 184.02L279.803 178.183L281.36 174.09L282.916 171.783L284.473 171.292L286.029 172.588L287.585 175.631L289.142 180.303L290.698 186.264L293.811 199.977L296.924 214.497L300.037 231.068L304.706 257.977L309.375 281.83L312.488 297.054L314.045 303.665L317.158 314.575L320.27 325.379L324.94 342.86L326.496 348.111L328.053 352.764L329.609 356.765L332.722 363.462L335.835 370.462L340.504 381.974L342.06 385.14L343.617 387.793L345.173 390.022L346.73 391.894L348.286 393.387L349.843 394.467L351.399 395.194L354.512 396.142L359.181 397.465L362.294 398.709L366.963 400.919L371.633 403.485L374.745 404.74L377.858 405.456L385.64 406.509L388.753 406.965L393.423 407.57L398.092 408.511L401.205 408.724L405.874 408.635L415.213 409.213L418.325 409.168L422.995 409.499L427.664 409.73L440.115 409.643L451.011 410.08L475.913 409.963L521.05 410.111" stroke="#EFEFEF" stroke-linecap="square"/>
</g>
<mask id="mask7_230_14318" style="mask-type:luminance" maskUnits="userSpaceOnUse" x="76" y="55" width="477" height="356">
<path d="M552.957 55.2959H76.7969V410.112H552.957V55.2959Z" fill="white"/>
</mask>
<g mask="url(#mask7_230_14318)">
<path d="M195.523 410.111L205.219 409.961L210.067 409.642L213.298 409.14L219.762 407.839L221.378 407.19L222.994 406.123L224.61 404.537L226.226 402.43L227.842 399.879L229.458 396.973L231.074 393.726L232.689 390.014L234.305 385.598L235.921 380.235L237.537 373.79L239.153 366.223L240.769 357.482L242.385 347.442L244.001 335.973L247.233 309.17L252.08 266.845L253.696 254.677L255.312 244.062L256.928 234.922L258.544 227.055L260.16 220.312L261.776 214.695L263.392 210.31L265.008 207.183L266.624 205.12L268.239 203.846L269.855 203.301L271.471 203.747L273.087 205.511L274.703 208.624L276.319 212.731L279.551 222.421L282.783 233.779L290.862 264.498L292.478 271.436L295.71 287.442L298.942 303.991L300.558 311.18L302.174 317.459L305.405 328.302L310.253 343.416L311.869 347.935L315.101 355.672L318.333 363.176L321.565 370.956L323.18 374.398L326.412 380.206L331.26 387.976L334.492 392.447L336.108 394.404L337.724 396.103L339.34 397.472L340.955 398.496L342.571 399.23L349.035 401.612L352.267 403.2L353.883 403.856L357.115 404.686L361.962 405.648L374.89 408.72L378.121 409.072L381.353 408.986L386.201 408.709L389.433 408.9L394.281 409.383L397.512 409.403L402.36 409.364L408.824 409.591L415.287 409.499L421.751 409.777L429.831 409.72L436.294 409.894L449.222 409.87L454.069 409.933L460.533 410.058L489.619 410.017L517.09 410.111" fill="#EFEFEF" fill-opacity="0.4"/>
<path d="M195.523 410.111L205.219 409.961L210.067 409.642L213.298 409.14L219.762 407.839L221.378 407.19L222.994 406.123L224.61 404.537L226.226 402.43L227.842 399.879L229.458 396.973L231.074 393.726L232.689 390.014L234.305 385.598L235.921 380.235L237.537 373.79L239.153 366.223L240.769 357.482L242.385 347.442L244.001 335.973L247.233 309.17L252.08 266.845L253.696 254.677L255.312 244.062L256.928 234.922L258.544 227.055L260.16 220.312L261.776 214.695L263.392 210.31L265.008 207.183L266.624 205.12L268.239 203.846L269.855 203.301L271.471 203.747L273.087 205.511L274.703 208.624L276.319 212.731L279.551 222.421L282.783 233.779L290.862 264.498L292.478 271.436L295.71 287.442L298.942 303.991L300.558 311.18L302.174 317.459L305.405 328.302L310.253 343.416L311.869 347.935L315.101 355.672L318.333 363.176L321.565 370.956L323.18 374.398L326.412 380.206L331.26 387.976L334.492 392.447L336.108 394.404L337.724 396.103L339.34 397.472L340.955 398.496L342.571 399.23L349.035 401.612L352.267 403.2L353.883 403.856L357.115 404.686L361.962 405.648L374.89 408.72L378.121 409.072L381.353 408.986L386.201 408.709L389.433 408.9L394.281 409.383L397.512 409.403L402.36 409.364L408.824 409.591L415.287 409.499L421.751 409.777L429.831 409.72L436.294 409.894L449.222 409.87L454.069 409.933L460.533 410.058L489.619 410.017L517.09 410.111" stroke="#EFEFEF" stroke-linecap="square"/>
</g>
<mask id="mask8_230_14318" style="mask-type:luminance" maskUnits="userSpaceOnUse" x="76" y="55" width="477" height="356">
<path d="M552.957 55.2959H76.7969V410.112H552.957V55.2959Z" fill="white"/>
</mask>
<g mask="url(#mask8_230_14318)">
<path d="M219.102 410.11L223.808 410.004L228.515 409.86L233.222 409.713L239.497 409.44L247.342 408.308L248.911 407.627L250.48 406.669L255.186 403.134L256.755 401.733L258.324 399.96L259.893 397.508L261.462 394.299L263.031 390.552L264.6 386.209L266.168 380.688L269.306 365.961L274.013 344.917L275.582 335.119L278.72 311.094L281.857 285.443L284.995 256.6L288.133 227.117L291.271 198.564L292.84 182.538L294.409 168.136L295.978 157.714L297.546 151.044L299.115 146.508L300.684 142.861L302.253 139.596L303.822 135.972L305.391 131.456L306.96 127.905L308.529 128.658L310.098 134.962L311.667 145.52L313.235 158.885L316.373 190.807L321.08 239.741L324.218 273.176L327.355 307.744L330.493 337.535L332.062 350.405L333.631 361.88L335.2 371.716L336.769 379.696L338.338 385.71L339.907 390.137L343.044 397.159L344.613 399.976L346.182 402.268L347.751 404.139L349.32 405.49L350.889 406.378L354.027 407.69L355.596 408.129L358.733 408.595L366.578 409.179L372.853 409.366L377.56 409.732L383.836 409.647L386.974 409.622L391.68 409.889L405.8 409.867L419.92 409.94L430.903 409.905L435.609 409.97L440.316 409.973L456.005 410.112L531.312 410.111" fill="#EFEFEF" fill-opacity="0.4"/>
<path d="M219.102 410.11L223.808 410.004L228.515 409.86L233.222 409.713L239.497 409.44L247.342 408.308L248.911 407.627L250.48 406.669L255.186 403.134L256.755 401.733L258.324 399.96L259.893 397.508L261.462 394.299L263.031 390.552L264.6 386.209L266.168 380.688L269.306 365.961L274.013 344.917L275.582 335.119L278.72 311.094L281.857 285.443L284.995 256.6L288.133 227.117L291.271 198.564L292.84 182.538L294.409 168.136L295.978 157.714L297.546 151.044L299.115 146.508L300.684 142.861L302.253 139.596L303.822 135.972L305.391 131.456L306.96 127.905L308.529 128.658L310.098 134.962L311.667 145.52L313.235 158.885L316.373 190.807L321.08 239.741L324.218 273.176L327.355 307.744L330.493 337.535L332.062 350.405L333.631 361.88L335.2 371.716L336.769 379.696L338.338 385.71L339.907 390.137L343.044 397.159L344.613 399.976L346.182 402.268L347.751 404.139L349.32 405.49L350.889 406.378L354.027 407.69L355.596 408.129L358.733 408.595L366.578 409.179L372.853 409.366L377.56 409.732L383.836 409.647L386.974 409.622L391.68 409.889L405.8 409.867L419.92 409.94L430.903 409.905L435.609 409.97L440.316 409.973L456.005 410.112L531.312 410.111" stroke="#EFEFEF" stroke-linecap="square"/>
</g>
<mask id="mask9_230_14318" style="mask-type:luminance" maskUnits="userSpaceOnUse" x="76" y="55" width="477" height="356">
<path d="M552.957 55.2959H76.7969V410.112H552.957V55.2959Z" fill="white"/>
</mask>
<g mask="url(#mask9_230_14318)">
<path d="M187.492 410.112L200.759 409.959L204.075 409.756L207.392 409.258L210.709 408.424L217.342 406.385L219 405.695L220.659 404.748L222.317 403.486L223.975 401.92L225.634 400.073L227.292 397.886L228.95 395.211L230.609 391.91L232.267 387.971L233.925 383.502L237.242 373.272L240.558 361.142L243.875 347.357L252.167 311.174L255.483 294.79L260.458 269.578L263.775 254.633L265.433 248.12L267.092 242.497L268.75 238.093L270.408 235.18L272.066 233.662L277.041 231.483L278.7 230.431L280.358 229.732L282.016 229.842L283.675 230.925L285.333 232.879L286.991 235.449L291.966 244.145L293.625 247.484L295.283 251.776L296.941 257.381L298.6 264.198L303.575 286.036L308.55 306.724L311.866 320.284L316.841 337.901L320.158 348.722L321.816 353.22L330.108 373.138L331.766 377.159L333.424 380.73L335.083 383.713L336.741 386.138L341.716 392.081L345.033 395.9L348.349 399.089L351.666 401.486L354.982 403.365L358.299 405L359.957 405.659L361.616 406.149L364.932 406.689L368.249 407.145L373.224 408.13L376.541 408.368L379.857 408.535L388.149 409.353L393.124 409.53L399.757 409.585L411.365 410.029L419.657 409.988L429.607 409.921L439.557 410.032L517.498 410.112" fill="#EFEFEF" fill-opacity="0.4"/>
<path d="M187.492 410.112L200.759 409.959L204.075 409.756L207.392 409.258L210.709 408.424L217.342 406.385L219 405.695L220.659 404.748L222.317 403.486L223.975 401.92L225.634 400.073L227.292 397.886L228.95 395.211L230.609 391.91L232.267 387.971L233.925 383.502L237.242 373.272L240.558 361.142L243.875 347.357L252.167 311.174L255.483 294.79L260.458 269.578L263.775 254.633L265.433 248.12L267.092 242.497L268.75 238.093L270.408 235.18L272.066 233.662L277.041 231.483L278.7 230.431L280.358 229.732L282.016 229.842L283.675 230.925L285.333 232.879L286.991 235.449L291.966 244.145L293.625 247.484L295.283 251.776L296.941 257.381L298.6 264.198L303.575 286.036L308.55 306.724L311.866 320.284L316.841 337.901L320.158 348.722L321.816 353.22L330.108 373.138L331.766 377.159L333.424 380.73L335.083 383.713L336.741 386.138L341.716 392.081L345.033 395.9L348.349 399.089L351.666 401.486L354.982 403.365L358.299 405L359.957 405.659L361.616 406.149L364.932 406.689L368.249 407.145L373.224 408.13L376.541 408.368L379.857 408.535L388.149 409.353L393.124 409.53L399.757 409.585L411.365 410.029L419.657 409.988L429.607 409.921L439.557 410.032L517.498 410.112" stroke="#EFEFEF" stroke-linecap="square"/>
</g>
<mask id="mask10_230_14318" style="mask-type:luminance" maskUnits="userSpaceOnUse" x="76" y="55" width="477" height="356">
<path d="M552.957 55.2959H76.7969V410.112H552.957V55.2959Z" fill="white"/>
</mask>
<g mask="url(#mask10_230_14318)">
<path d="M219.023 410.111L227.233 409.954L236.812 409.36L245.022 408.422L247.758 407.757L250.495 406.602L253.232 404.951L255.968 402.904L258.705 400.262L260.073 398.611L261.442 396.707L262.81 394.515L264.178 391.967L265.547 388.976L266.915 385.479L269.652 377.019L272.388 367.137L275.125 356.208L276.493 350.121L277.862 343.351L280.598 327.31L290.177 264.564L294.281 240.283L297.018 225.66L299.755 212.138L301.123 206.282L302.491 201.752L303.86 198.88L305.228 197.52L306.596 197.131L309.333 196.854L310.701 196.477L312.07 196.314L313.438 196.927L314.806 198.702L316.175 201.667L317.543 205.574L318.911 210.145L320.28 215.273L323.016 227.294L329.858 261.521L332.595 276.081L335.331 292.728L339.436 318.547L342.173 333.113L344.91 345.07L346.278 350.031L349.015 358.323L354.488 373.573L357.225 381.222L358.593 384.542L359.961 387.424L362.698 392.088L366.803 398.015L368.171 399.785L369.54 401.194L370.908 402.157L373.645 403.211L376.381 404.232L380.486 405.902L385.959 407.595L388.696 408.446L391.433 408.777L401.011 409.029L409.221 409.81L421.536 409.753L425.641 409.643L437.956 410.063L444.798 410.019L451.639 409.959L468.059 410.013L474.901 410.064L483.111 410.014L491.321 410.111" fill="#EFEFEF" fill-opacity="0.4"/>
<path d="M219.023 410.111L227.233 409.954L236.812 409.36L245.022 408.422L247.758 407.757L250.495 406.602L253.232 404.951L255.968 402.904L258.705 400.262L260.073 398.611L261.442 396.707L262.81 394.515L264.178 391.967L265.547 388.976L266.915 385.479L269.652 377.019L272.388 367.137L275.125 356.208L276.493 350.121L277.862 343.351L280.598 327.31L290.177 264.564L294.281 240.283L297.018 225.66L299.755 212.138L301.123 206.282L302.491 201.752L303.86 198.88L305.228 197.52L306.596 197.131L309.333 196.854L310.701 196.477L312.07 196.314L313.438 196.927L314.806 198.702L316.175 201.667L317.543 205.574L318.911 210.145L320.28 215.273L323.016 227.294L329.858 261.521L332.595 276.081L335.331 292.728L339.436 318.547L342.173 333.113L344.91 345.07L346.278 350.031L349.015 358.323L354.488 373.573L357.225 381.222L358.593 384.542L359.961 387.424L362.698 392.088L366.803 398.015L368.171 399.785L369.54 401.194L370.908 402.157L373.645 403.211L376.381 404.232L380.486 405.902L385.959 407.595L388.696 408.446L391.433 408.777L401.011 409.029L409.221 409.81L421.536 409.753L425.641 409.643L437.956 410.063L444.798 410.019L451.639 409.959L468.059 410.013L474.901 410.064L483.111 410.014L491.321 410.111" stroke="#EFEFEF" stroke-linecap="square"/>
</g>
<mask id="mask11_230_14318" style="mask-type:luminance" maskUnits="userSpaceOnUse" x="76" y="55" width="477" height="356">
<path d="M552.957 55.2959H76.7969V410.112H552.957V55.2959Z" fill="white"/>
</mask>
<g mask="url(#mask11_230_14318)">
<path d="M222.227 410.111L232.174 409.995L237.858 409.706L242.121 409.575L244.964 409.287L247.806 408.896L250.648 408.66L252.069 408.412L253.49 407.978L256.332 406.571L257.753 405.581L259.174 404.286L260.595 402.714L262.016 400.791L263.437 398.253L266.28 392.188L269.122 386.416L270.543 382.778L271.964 378.202L273.385 371.923L274.806 363.487L277.648 344.441L280.49 326.338L281.911 314.494L284.753 284.206L287.595 252.024L289.017 233.341L293.28 167.006L294.701 151.784L297.543 127.539L300.385 100.6L301.806 92.311L303.227 87.9112L304.648 84.2503L306.069 80.1048L307.49 77.9951L308.911 82.0084L310.333 93.842L314.596 144.213L316.017 162.865L317.438 185.46L320.28 234.569L323.122 275.786L325.964 314.62L327.385 330.878L328.806 344.016L330.227 354.563L331.648 363.193L334.491 377.828L335.912 384.614L337.333 390.346L338.754 394.453L340.175 396.975L345.859 403.084L347.28 404.432L348.701 405.345L354.385 407.631L357.228 408.193L362.912 408.879L368.596 409.164L371.438 409.346L374.28 409.391L378.544 409.522L388.491 409.653L392.754 409.964L402.702 409.951L406.965 409.963L409.807 410.017L414.07 409.922L419.754 410.082L426.86 409.966L429.702 409.981L435.386 409.707L446.755 409.983L453.86 410.112L505.018 410.111" fill="#EFEFEF" fill-opacity="0.4"/>
<path d="M222.227 410.111L232.174 409.995L237.858 409.706L242.121 409.575L244.964 409.287L247.806 408.896L250.648 408.66L252.069 408.412L253.49 407.978L256.332 406.571L257.753 405.581L259.174 404.286L260.595 402.714L262.016 400.791L263.437 398.253L266.28 392.188L269.122 386.416L270.543 382.778L271.964 378.202L273.385 371.923L274.806 363.487L277.648 344.441L280.49 326.338L281.911 314.494L284.753 284.206L287.595 252.024L289.017 233.341L293.28 167.006L294.701 151.784L297.543 127.539L300.385 100.6L301.806 92.311L303.227 87.9112L304.648 84.2503L306.069 80.1048L307.49 77.9951L308.911 82.0084L310.333 93.842L314.596 144.213L316.017 162.865L317.438 185.46L320.28 234.569L323.122 275.786L325.964 314.62L327.385 330.878L328.806 344.016L330.227 354.563L331.648 363.193L334.491 377.828L335.912 384.614L337.333 390.346L338.754 394.453L340.175 396.975L345.859 403.084L347.28 404.432L348.701 405.345L354.385 407.631L357.228 408.193L362.912 408.879L368.596 409.164L371.438 409.346L374.28 409.391L378.544 409.522L388.491 409.653L392.754 409.964L402.702 409.951L406.965 409.963L409.807 410.017L414.07 409.922L419.754 410.082L426.86 409.966L429.702 409.981L435.386 409.707L446.755 409.983L453.86 410.112L505.018 410.111" stroke="#EFEFEF" stroke-linecap="square"/>
</g>
<mask id="mask12_230_14318" style="mask-type:luminance" maskUnits="userSpaceOnUse" x="76" y="55" width="477" height="356">
<path d="M552.957 55.2959H76.7969V410.112H552.957V55.2959Z" fill="white"/>
</mask>
<g mask="url(#mask12_230_14318)">
<path d="M216.414 410.111L228.368 409.978L238.827 409.618L241.816 409.378L244.804 408.848L247.793 407.98L250.781 406.754L252.275 405.892L253.77 404.772L255.264 403.363L256.758 401.682L259.746 397.625L261.241 395.207L262.735 392.418L264.229 389.181L265.723 385.485L268.712 376.95L271.7 366.958L274.689 354.983L277.677 341.045L280.666 325.7L285.148 301.044L292.619 259.346L294.114 252.222L295.608 245.969L297.102 240.667L298.596 236.28L300.09 232.708L301.585 229.882L303.079 227.824L304.573 226.589L306.067 226.151L307.562 226.329L309.056 226.871L310.55 227.639L312.044 228.715L313.538 230.319L315.033 232.616L316.527 235.586L319.515 242.892L322.504 251.408L325.492 261.305L328.481 272.594L340.434 320.364L343.423 330.345L346.411 339.621L349.4 347.801L352.388 354.399L359.859 369.002L362.848 374.021L365.836 378.322L368.825 382.148L371.813 385.539L374.801 388.516L382.273 395.325L385.261 397.579L388.249 399.15L392.732 400.963L395.721 401.801L404.686 403.494L410.663 405.319L416.64 407.204L419.628 407.633L425.605 407.955L434.57 409.314L445.03 409.444L451.007 409.794L459.972 409.957L513.764 410.111" fill="#EFEFEF" fill-opacity="0.4"/>
<path d="M216.414 410.111L228.368 409.978L238.827 409.618L241.816 409.378L244.804 408.848L247.793 407.98L250.781 406.754L252.275 405.892L253.77 404.772L255.264 403.363L256.758 401.682L259.746 397.625L261.241 395.207L262.735 392.418L264.229 389.181L265.723 385.485L268.712 376.95L271.7 366.958L274.689 354.983L277.677 341.045L280.666 325.7L285.148 301.044L292.619 259.346L294.114 252.222L295.608 245.969L297.102 240.667L298.596 236.28L300.09 232.708L301.585 229.882L303.079 227.824L304.573 226.589L306.067 226.151L307.562 226.329L309.056 226.871L310.55 227.639L312.044 228.715L313.538 230.319L315.033 232.616L316.527 235.586L319.515 242.892L322.504 251.408L325.492 261.305L328.481 272.594L340.434 320.364L343.423 330.345L346.411 339.621L349.4 347.801L352.388 354.399L359.859 369.002L362.848 374.021L365.836 378.322L368.825 382.148L371.813 385.539L374.801 388.516L382.273 395.325L385.261 397.579L388.249 399.15L392.732 400.963L395.721 401.801L404.686 403.494L410.663 405.319L416.64 407.204L419.628 407.633L425.605 407.955L434.57 409.314L445.03 409.444L451.007 409.794L459.972 409.957L513.764 410.111" stroke="#EFEFEF" stroke-linecap="square"/>
</g>
<mask id="mask13_230_14318" style="mask-type:luminance" maskUnits="userSpaceOnUse" x="76" y="55" width="477" height="356">
<path d="M552.957 55.2959H76.7969V410.112H552.957V55.2959Z" fill="white"/>
</mask>
<g mask="url(#mask13_230_14318)">
<path d="M204.742 410.11L209.659 409.962L214.575 409.574L217.853 409.526L221.131 409.03L224.408 408.292L226.047 407.714L227.686 406.742L229.325 405.351L230.964 403.615L234.241 399.446L235.88 396.952L237.519 393.585L239.158 388.635L240.797 381.892L245.713 358.365L247.352 349.232L248.991 338.514L252.268 314.215L255.546 287.448L257.185 272.366L260.463 238.278L263.74 204.89L265.379 191.167L268.657 167.193L271.934 141.382L273.573 131.501L275.212 126.41L276.851 125.864L278.49 127.815L280.129 130.749L281.767 134.984L283.406 142.395L285.045 154.745L286.684 171.469L289.962 206.967L294.878 250.477L301.433 315.873L303.072 328.6L304.711 339.141L307.989 357.412L309.628 365.142L311.266 371.244L312.905 375.842L314.544 379.834L316.183 384.238L319.461 393.955L321.099 397.36L322.738 399.405L327.655 403.725L329.294 404.775L332.571 406.368L335.849 407.318L342.404 408.399L348.96 409.264L352.237 409.387L360.431 409.171L363.709 409.474L366.987 409.826L370.264 409.811L378.459 409.554L383.375 409.834L391.569 409.768L407.958 410.011L439.095 409.899L445.651 409.965L452.206 410.11L466.956 410.012L471.872 409.977L476.789 410.039L483.344 410.086L517.759 410.102L527.592 410.09L530.87 410.111" fill="#EFEFEF" fill-opacity="0.4"/>
<path d="M204.742 410.11L209.659 409.962L214.575 409.574L217.853 409.526L221.131 409.03L224.408 408.292L226.047 407.714L227.686 406.742L229.325 405.351L230.964 403.615L234.241 399.446L235.88 396.952L237.519 393.585L239.158 388.635L240.797 381.892L245.713 358.365L247.352 349.232L248.991 338.514L252.268 314.215L255.546 287.448L257.185 272.366L260.463 238.278L263.74 204.89L265.379 191.167L268.657 167.193L271.934 141.382L273.573 131.501L275.212 126.41L276.851 125.864L278.49 127.815L280.129 130.749L281.767 134.984L283.406 142.395L285.045 154.745L286.684 171.469L289.962 206.967L294.878 250.477L301.433 315.873L303.072 328.6L304.711 339.141L307.989 357.412L309.628 365.142L311.266 371.244L312.905 375.842L314.544 379.834L316.183 384.238L319.461 393.955L321.099 397.36L322.738 399.405L327.655 403.725L329.294 404.775L332.571 406.368L335.849 407.318L342.404 408.399L348.96 409.264L352.237 409.387L360.431 409.171L363.709 409.474L366.987 409.826L370.264 409.811L378.459 409.554L383.375 409.834L391.569 409.768L407.958 410.011L439.095 409.899L445.651 409.965L452.206 410.11L466.956 410.012L471.872 409.977L476.789 410.039L483.344 410.086L517.759 410.102L527.592 410.09L530.87 410.111" stroke="#EFEFEF" stroke-linecap="square"/>
</g>
<mask id="mask14_230_14318" style="mask-type:luminance" maskUnits="userSpaceOnUse" x="76" y="55" width="477" height="356">
<path d="M552.957 55.2959H76.7969V410.112H552.957V55.2959Z" fill="white"/>
</mask>
<g mask="url(#mask14_230_14318)">
<path d="M98.4375 410.111L174.375 409.946L182.812 409.445L187.031 408.919L191.25 407.925L193.359 407.164L195.468 406.174L197.578 404.922L199.687 403.384L201.797 401.561L203.906 399.463L206.015 397.044L208.125 394.167L210.234 390.661L212.343 386.455L214.453 381.636L216.562 376.371L218.671 370.683L220.781 364.338L222.89 357.03L225 348.74L231.328 321.498L237.656 293.363L241.875 273.386L248.203 242.603L250.312 233.669L252.421 227.05L254.531 223.564L256.64 222.935L258.749 223.919L260.859 225.374L262.968 227.102L265.078 229.606L267.187 233.25L269.296 237.968L271.406 243.659L273.515 250.443L275.624 258.35L281.953 283.769L294.609 329.558L296.718 336.532L300.937 348.469L305.156 359.631L307.265 364.559L309.374 368.712L311.484 372.189L315.702 378.229L319.921 383.847L322.031 386.4L324.14 388.672L328.359 392.628L332.577 396.127L336.796 398.83L343.124 402.549L345.234 403.551L347.343 404.3L351.562 405.18L355.78 405.923L364.218 407.699L368.437 408.155L385.312 408.928L391.64 408.998L404.296 409.721L410.624 409.707L423.28 409.451L431.718 409.782L440.155 409.618L457.03 410.039L469.686 409.991L505.546 410.051L518.202 410.111" fill="#7EB0D5" fill-opacity="0.4"/>
<path d="M98.4375 410.111L174.375 409.946L182.812 409.445L187.031 408.919L191.25 407.925L193.359 407.164L195.468 406.174L197.578 404.922L199.687 403.384L201.797 401.561L203.906 399.463L206.015 397.044L208.125 394.167L210.234 390.661L212.343 386.455L214.453 381.636L216.562 376.371L218.671 370.683L220.781 364.338L222.89 357.03L225 348.74L231.328 321.498L237.656 293.363L241.875 273.386L248.203 242.603L250.312 233.669L252.421 227.05L254.531 223.564L256.64 222.935L258.749 223.919L260.859 225.374L262.968 227.102L265.078 229.606L267.187 233.25L269.296 237.968L271.406 243.659L273.515 250.443L275.624 258.35L281.953 283.769L294.609 329.558L296.718 336.532L300.937 348.469L305.156 359.631L307.265 364.559L309.374 368.712L311.484 372.189L315.702 378.229L319.921 383.847L322.031 386.4L324.14 388.672L328.359 392.628L332.577 396.127L336.796 398.83L343.124 402.549L345.234 403.551L347.343 404.3L351.562 405.18L355.78 405.923L364.218 407.699L368.437 408.155L385.312 408.928L391.64 408.998L404.296 409.721L410.624 409.707L423.28 409.451L431.718 409.782L440.155 409.618L457.03 410.039L469.686 409.991L505.546 410.051L518.202 410.111" stroke="#7EB0D5" stroke-linecap="square"/>
</g>
<path d="M535.061 411.061C535.646 410.475 535.646 409.525 535.061 408.939L525.515 399.393C524.929 398.808 523.979 398.808 523.393 399.393C522.808 399.979 522.808 400.929 523.393 401.515L531.879 410L523.393 418.485C522.808 419.071 522.808 420.021 523.393 420.607C523.979 421.192 524.929 421.192 525.515 420.607L535.061 411.061ZM79 411.5H534V408.5H79V411.5Z" fill="black"/>
</g>
<defs>
<clipPath id="clip0_230_14318">
<rect width="614.4" height="460.8" fill="white"/>
</clipPath>
</defs>
</svg>
