<svg width="615" height="461" viewBox="0 0 615 461" fill="none" xmlns="http://www.w3.org/2000/svg">
<g clip-path="url(#clip0_230_14478)">
<mask id="mask0_230_14478" style="mask-type:luminance" maskUnits="userSpaceOnUse" x="76" y="55" width="477" height="356">
<path d="M552.957 55.2959H76.7969V410.112H552.957V55.2959Z" fill="white"/>
</mask>
<g mask="url(#mask0_230_14478)">
<path d="M229.648 410.111L265.099 409.965L273.279 409.615L276.006 409.174L281.46 407.871L284.187 406.924L286.914 405.616L289.641 404.055L292.368 402.099L293.731 400.841L295.095 399.338L296.458 397.574L299.185 393.332L301.912 388.313L304.639 382.371L307.366 374.98L310.093 366.255L316.91 343.568L318.274 338.075L319.637 331.727L322.364 316.675L327.818 284.705L334.635 246.495L338.726 226.393L341.453 214.14L344.18 203.428L345.543 198.862L346.907 194.849L348.27 191.377L349.634 188.474L350.997 186.254L352.361 184.895L353.724 184.519L355.087 185.075L356.451 186.329L359.178 189.888L360.541 192.017L361.905 194.497L363.268 197.459L364.632 200.981L365.995 205.07L368.722 214.791L371.449 226.379L374.176 239.868L380.993 276.706L383.72 289.022L395.991 339.241L398.718 348.961L401.445 357.384L406.899 372.994L408.263 376.386L409.626 379.334L410.99 381.814L412.353 383.888L415.08 387.255L424.624 397.451L425.988 398.674L427.351 399.659L428.715 400.417L431.442 401.459L435.532 402.736L438.259 403.934L442.349 405.87L446.44 407.304L450.53 408.467L454.621 409.301L457.348 409.597L462.801 409.712L472.346 409.949L480.526 410.035L500.979 410.111" fill="#EFEFEF" fill-opacity="0.4"/>
<path d="M229.648 410.111L265.099 409.965L273.279 409.615L276.006 409.174L281.46 407.871L284.187 406.924L286.914 405.616L289.641 404.055L292.368 402.099L293.731 400.841L295.095 399.338L296.458 397.574L299.185 393.332L301.912 388.313L304.639 382.371L307.366 374.98L310.093 366.255L316.91 343.568L318.274 338.075L319.637 331.727L322.364 316.675L327.818 284.705L334.635 246.495L338.726 226.393L341.453 214.14L344.18 203.428L345.543 198.862L346.907 194.849L348.27 191.377L349.634 188.474L350.997 186.254L352.361 184.895L353.724 184.519L355.087 185.075L356.451 186.329L359.178 189.888L360.541 192.017L361.905 194.497L363.268 197.459L364.632 200.981L365.995 205.07L368.722 214.791L371.449 226.379L374.176 239.868L380.993 276.706L383.72 289.022L395.991 339.241L398.718 348.961L401.445 357.384L406.899 372.994L408.263 376.386L409.626 379.334L410.99 381.814L412.353 383.888L415.08 387.255L424.624 397.451L425.988 398.674L427.351 399.659L428.715 400.417L431.442 401.459L435.532 402.736L438.259 403.934L442.349 405.87L446.44 407.304L450.53 408.467L454.621 409.301L457.348 409.597L462.801 409.712L472.346 409.949L480.526 410.035L500.979 410.111" stroke="#EFEFEF" stroke-linecap="square"/>
</g>
<mask id="mask1_230_14478" style="mask-type:luminance" maskUnits="userSpaceOnUse" x="76" y="55" width="477" height="356">
<path d="M552.957 55.2959H76.7969V410.112H552.957V55.2959Z" fill="white"/>
</mask>
<g mask="url(#mask1_230_14478)">
<path d="M269.234 410.11L277.441 409.949L286.672 409.684L292.827 409.616L298.982 408.801L302.059 408.321L304.111 407.776L306.162 406.923L308.214 405.7L311.291 403.335L318.471 397.483L324.626 391.258L327.703 387.914L329.755 384.994L330.781 383.106L331.806 380.85L333.858 375.168L338.987 358.907L342.064 351.075L344.116 344.576L347.193 332.681L350.27 320.476L352.322 310.87L354.373 299.054L357.451 278.511L366.683 215.894L368.734 204.78L371.812 188.595L375.915 165.836L376.94 161.376L377.966 157.942L378.992 155.565L380.018 154.071L381.043 153.153L383.095 151.984L384.121 151.587L385.147 151.459L386.172 151.742L387.198 152.492L388.224 153.685L389.25 155.291L390.275 157.376L391.301 160.13L392.327 163.813L393.353 168.638L394.379 174.677L396.43 189.789L400.533 222.901L403.61 244.181L406.688 265.629L412.842 310.08L415.92 329.172L418.997 346.77L421.049 357.412L423.1 366.769L425.152 374.768L427.203 381.339L429.255 386.66L432.332 393.555L434.384 397.723L436.435 401.14L438.487 403.609L440.538 405.332L442.59 406.597L444.641 407.558L446.693 408.264L448.744 408.727L452.848 409.22L459.002 409.824L473.363 410.11" fill="#EFEFEF" fill-opacity="0.4"/>
<path d="M269.234 410.11L277.441 409.949L286.672 409.684L292.827 409.616L298.982 408.801L302.059 408.321L304.111 407.776L306.162 406.923L308.214 405.7L311.291 403.335L318.471 397.483L324.626 391.258L327.703 387.914L329.755 384.994L330.781 383.106L331.806 380.85L333.858 375.168L338.987 358.907L342.064 351.075L344.116 344.576L347.193 332.681L350.27 320.476L352.322 310.87L354.373 299.054L357.451 278.511L366.683 215.894L368.734 204.78L371.812 188.595L375.915 165.836L376.94 161.376L377.966 157.942L378.992 155.565L380.018 154.071L381.043 153.153L383.095 151.984L384.121 151.587L385.147 151.459L386.172 151.742L387.198 152.492L388.224 153.685L389.25 155.291L390.275 157.376L391.301 160.13L392.327 163.813L393.353 168.638L394.379 174.677L396.43 189.789L400.533 222.901L403.61 244.181L406.688 265.629L412.842 310.08L415.92 329.172L418.997 346.77L421.049 357.412L423.1 366.769L425.152 374.768L427.203 381.339L429.255 386.66L432.332 393.555L434.384 397.723L436.435 401.14L438.487 403.609L440.538 405.332L442.59 406.597L444.641 407.558L446.693 408.264L448.744 408.727L452.848 409.22L459.002 409.824L473.363 410.11" stroke="#EFEFEF" stroke-linecap="square"/>
</g>
<mask id="mask2_230_14478" style="mask-type:luminance" maskUnits="userSpaceOnUse" x="76" y="55" width="477" height="356">
<path d="M552.957 55.2959H76.7969V410.112H552.957V55.2959Z" fill="white"/>
</mask>
<g mask="url(#mask2_230_14478)">
<path d="M277.703 410.11L284.627 409.994L299.628 409.244L303.09 408.774L310.014 407.497L313.476 407.136L315.784 406.431L319.246 404.683L321.554 403.654L323.862 402.992L326.17 402.43L328.478 401.536L331.94 399.619L334.247 398.22L336.555 396.521L341.171 392.89L343.479 391.017L345.787 388.545L346.941 386.992L348.095 385.187L350.403 380.728L352.711 375.281L356.173 366.137L358.481 359.151L360.789 350.728L363.097 340.723L365.405 329.525L367.712 317.243L370.02 303.381L374.636 272.304L385.022 203.164L387.33 189.701L389.638 178.947L391.946 170.331L393.1 166.827L394.254 164.081L395.408 162.271L396.562 161.441L397.716 161.45L398.87 162.003L401.177 163.457L403.485 164.743L404.639 165.948L405.793 168.126L406.947 171.604L408.101 176.45L410.409 189.15L412.717 202.767L415.025 214.627L420.795 241.053L423.103 254.933L426.565 279.466L430.027 302.891L433.489 323.736L436.95 343.192L439.258 355.073L441.566 365.649L443.874 374.588L446.182 381.799L448.49 387.742L450.798 392.995L453.106 397.507L454.26 399.307L455.414 400.727L456.568 401.785L458.876 403.195L462.338 405.112L465.8 407.148L468.108 408.149L470.415 408.799L472.723 409.151L477.339 409.428L491.187 409.879L499.265 409.949L507.342 410.11" fill="#EFEFEF" fill-opacity="0.4"/>
<path d="M277.703 410.11L284.627 409.994L299.628 409.244L303.09 408.774L310.014 407.497L313.476 407.136L315.784 406.431L319.246 404.683L321.554 403.654L323.862 402.992L326.17 402.43L328.478 401.536L331.94 399.619L334.247 398.22L336.555 396.521L341.171 392.89L343.479 391.017L345.787 388.545L346.941 386.992L348.095 385.187L350.403 380.728L352.711 375.281L356.173 366.137L358.481 359.151L360.789 350.728L363.097 340.723L365.405 329.525L367.712 317.243L370.02 303.381L374.636 272.304L385.022 203.164L387.33 189.701L389.638 178.947L391.946 170.331L393.1 166.827L394.254 164.081L395.408 162.271L396.562 161.441L397.716 161.45L398.87 162.003L401.177 163.457L403.485 164.743L404.639 165.948L405.793 168.126L406.947 171.604L408.101 176.45L410.409 189.15L412.717 202.767L415.025 214.627L420.795 241.053L423.103 254.933L426.565 279.466L430.027 302.891L433.489 323.736L436.95 343.192L439.258 355.073L441.566 365.649L443.874 374.588L446.182 381.799L448.49 387.742L450.798 392.995L453.106 397.507L454.26 399.307L455.414 400.727L456.568 401.785L458.876 403.195L462.338 405.112L465.8 407.148L468.108 408.149L470.415 408.799L472.723 409.151L477.339 409.428L491.187 409.879L499.265 409.949L507.342 410.11" stroke="#EFEFEF" stroke-linecap="square"/>
</g>
<mask id="mask3_230_14478" style="mask-type:luminance" maskUnits="userSpaceOnUse" x="76" y="55" width="477" height="356">
<path d="M552.957 55.2959H76.7969V410.112H552.957V55.2959Z" fill="white"/>
</mask>
<g mask="url(#mask3_230_14478)">
<path d="M265.227 410.112L281.885 409.97L290.855 409.576L297.262 409.143L301.106 408.583L303.669 407.985L306.232 407.082L308.795 405.743L311.358 403.933L313.921 401.678L320.328 395.204L322.89 392.362L324.172 390.666L326.735 386.49L329.298 381.311L331.86 375.28L334.423 368.379L336.986 360.514L339.549 351.691L343.393 336.922L345.956 326.061L348.519 313.941L351.082 300.183L356.207 271.194L358.77 259.446L365.177 233.642L369.022 217.24L371.584 208.205L372.866 204.497L374.147 201.382L375.429 198.901L376.71 197.082L377.992 195.929L379.273 195.446L380.554 195.67L381.836 196.655L383.117 198.414L384.399 200.846L390.806 215.452L392.087 218.825L393.369 222.871L394.65 227.66L397.213 238.822L407.464 285.151L411.308 300.951L415.153 315.614L417.716 323.722L420.278 329.904L424.123 338.116L426.685 344.39L431.811 357.159L435.655 365.853L438.218 371.042L440.781 375.45L443.344 379.182L447.188 384.582L453.595 394.338L456.158 397.439L458.721 400.01L461.284 402.149L463.847 403.819L466.409 405.004L470.254 406.244L476.661 408.021L480.505 408.75L488.194 409.738L492.038 410.005L497.164 410.053L511.259 410.054L520.229 410.112" fill="#EFEFEF" fill-opacity="0.4"/>
<path d="M265.227 410.112L281.885 409.97L290.855 409.576L297.262 409.143L301.106 408.583L303.669 407.985L306.232 407.082L308.795 405.743L311.358 403.933L313.921 401.678L320.328 395.204L322.89 392.362L324.172 390.666L326.735 386.49L329.298 381.311L331.86 375.28L334.423 368.379L336.986 360.514L339.549 351.691L343.393 336.922L345.956 326.061L348.519 313.941L351.082 300.183L356.207 271.194L358.77 259.446L365.177 233.642L369.022 217.24L371.584 208.205L372.866 204.497L374.147 201.382L375.429 198.901L376.71 197.082L377.992 195.929L379.273 195.446L380.554 195.67L381.836 196.655L383.117 198.414L384.399 200.846L390.806 215.452L392.087 218.825L393.369 222.871L394.65 227.66L397.213 238.822L407.464 285.151L411.308 300.951L415.153 315.614L417.716 323.722L420.278 329.904L424.123 338.116L426.685 344.39L431.811 357.159L435.655 365.853L438.218 371.042L440.781 375.45L443.344 379.182L447.188 384.582L453.595 394.338L456.158 397.439L458.721 400.01L461.284 402.149L463.847 403.819L466.409 405.004L470.254 406.244L476.661 408.021L480.505 408.75L488.194 409.738L492.038 410.005L497.164 410.053L511.259 410.054L520.229 410.112" stroke="#EFEFEF" stroke-linecap="square"/>
</g>
<mask id="mask4_230_14478" style="mask-type:luminance" maskUnits="userSpaceOnUse" x="76" y="55" width="477" height="356">
<path d="M552.957 55.2959H76.7969V410.112H552.957V55.2959Z" fill="white"/>
</mask>
<g mask="url(#mask4_230_14478)">
<path d="M244.242 410.111L269.649 409.936L274.269 409.86L281.198 409.841L288.127 409.405L292.747 409.452L295.056 409.163L299.676 408.473L303.14 408.073L307.76 407.425L311.224 407.1L313.534 406.342L319.308 403.57L327.392 400.887L328.547 400.232L330.857 398.337L334.322 395.111L338.941 391.103L343.561 386.474L345.87 383.666L348.18 380.33L349.335 378.355L350.49 375.989L351.645 373.082L352.799 369.582L355.109 361.304L363.193 330.838L364.348 325.595L365.503 319.557L367.813 304.823L370.122 287.068L374.742 249.506L381.671 197.903L385.136 175.136L388.6 153.946L390.91 141.734L392.065 136.722L393.22 132.695L394.375 129.906L395.529 128.598L396.684 128.903L397.839 130.777L398.994 134.012L400.149 138.324L402.459 149.118L407.078 172.582L410.543 189.298L411.698 196.066L414.007 212.553L417.472 242.117L424.401 302.634L426.711 320.487L429.021 336.492L431.33 350.389L433.64 362.406L435.95 373.01L438.259 382.253L440.569 389.993L441.724 393.214L442.879 395.95L444.034 398.195L445.189 399.979L446.344 401.373L448.653 403.405L453.273 406.628L455.582 407.847L457.892 408.648L460.202 409.128L465.976 409.803L469.441 410.05L474.06 410.11" fill="#EFEFEF" fill-opacity="0.4"/>
<path d="M244.242 410.111L269.649 409.936L274.269 409.86L281.198 409.841L288.127 409.405L292.747 409.452L295.056 409.163L299.676 408.473L303.14 408.073L307.76 407.425L311.224 407.1L313.534 406.342L319.308 403.57L327.392 400.887L328.547 400.232L330.857 398.337L334.322 395.111L338.941 391.103L343.561 386.474L345.87 383.666L348.18 380.33L349.335 378.355L350.49 375.989L351.645 373.082L352.799 369.582L355.109 361.304L363.193 330.838L364.348 325.595L365.503 319.557L367.813 304.823L370.122 287.068L374.742 249.506L381.671 197.903L385.136 175.136L388.6 153.946L390.91 141.734L392.065 136.722L393.22 132.695L394.375 129.906L395.529 128.598L396.684 128.903L397.839 130.777L398.994 134.012L400.149 138.324L402.459 149.118L407.078 172.582L410.543 189.298L411.698 196.066L414.007 212.553L417.472 242.117L424.401 302.634L426.711 320.487L429.021 336.492L431.33 350.389L433.64 362.406L435.95 373.01L438.259 382.253L440.569 389.993L441.724 393.214L442.879 395.95L444.034 398.195L445.189 399.979L446.344 401.373L448.653 403.405L453.273 406.628L455.582 407.847L457.892 408.648L460.202 409.128L465.976 409.803L469.441 410.05L474.06 410.11" stroke="#EFEFEF" stroke-linecap="square"/>
</g>
<mask id="mask5_230_14478" style="mask-type:luminance" maskUnits="userSpaceOnUse" x="76" y="55" width="477" height="356">
<path d="M552.957 55.2959H76.7969V410.112H552.957V55.2959Z" fill="white"/>
</mask>
<g mask="url(#mask5_230_14478)">
<path d="M265.008 410.111L275.714 409.963L282.405 409.679L286.419 409.366L289.096 408.919L293.11 408.159L295.787 407.845L297.125 407.559L298.463 407.083L299.801 406.404L302.478 404.574L305.154 402.158L307.831 399.042L310.507 395.476L311.845 393.454L313.184 391.137L315.86 385.675L318.536 379.723L319.875 376.492L321.213 372.821L322.551 368.444L323.889 363.153L325.228 356.861L326.566 349.614L329.242 332.808L338.61 267.667L341.286 245.08L345.301 210.668L350.654 167.647L353.33 149.998L354.668 142.539L356.006 136.169L357.345 131.325L358.683 128.34L360.021 127.188L361.359 127.569L362.698 129.162L364.036 131.74L365.374 135.121L366.712 139.163L368.05 143.878L369.389 149.484L370.727 156.259L372.065 164.282L374.741 182.936L385.447 262.379L388.124 282.701L390.8 301.24L393.477 318.226L396.153 332.883L398.829 344.665L402.844 359.876L406.859 374.512L408.197 378.748L409.535 382.266L410.873 385.026L412.212 387.172L414.888 390.546L420.241 397.043L422.917 400.062L424.255 401.179L425.594 401.979L429.608 403.606L433.623 405.148L440.314 407.38L442.99 407.887L452.358 408.737L457.711 409.537L463.064 409.916L468.417 409.929L473.769 409.872L484.475 410.084L499.196 410.112L531.313 410.111" fill="#EFEFEF" fill-opacity="0.4"/>
<path d="M265.008 410.111L275.714 409.963L282.405 409.679L286.419 409.366L289.096 408.919L293.11 408.159L295.787 407.845L297.125 407.559L298.463 407.083L299.801 406.404L302.478 404.574L305.154 402.158L307.831 399.042L310.507 395.476L311.845 393.454L313.184 391.137L315.86 385.675L318.536 379.723L319.875 376.492L321.213 372.821L322.551 368.444L323.889 363.153L325.228 356.861L326.566 349.614L329.242 332.808L338.61 267.667L341.286 245.08L345.301 210.668L350.654 167.647L353.33 149.998L354.668 142.539L356.006 136.169L357.345 131.325L358.683 128.34L360.021 127.188L361.359 127.569L362.698 129.162L364.036 131.74L365.374 135.121L366.712 139.163L368.05 143.878L369.389 149.484L370.727 156.259L372.065 164.282L374.741 182.936L385.447 262.379L388.124 282.701L390.8 301.24L393.477 318.226L396.153 332.883L398.829 344.665L402.844 359.876L406.859 374.512L408.197 378.748L409.535 382.266L410.873 385.026L412.212 387.172L414.888 390.546L420.241 397.043L422.917 400.062L424.255 401.179L425.594 401.979L429.608 403.606L433.623 405.148L440.314 407.38L442.99 407.887L452.358 408.737L457.711 409.537L463.064 409.916L468.417 409.929L473.769 409.872L484.475 410.084L499.196 410.112L531.313 410.111" stroke="#EFEFEF" stroke-linecap="square"/>
</g>
<mask id="mask6_230_14478" style="mask-type:luminance" maskUnits="userSpaceOnUse" x="76" y="55" width="477" height="356">
<path d="M552.957 55.2959H76.7969V410.112H552.957V55.2959Z" fill="white"/>
</mask>
<g mask="url(#mask6_230_14478)">
<path d="M241.852 410.111L267.429 409.951L274.737 409.584L282.045 409.037L284.481 408.485L286.917 407.556L290.571 405.652L294.225 403.837L297.879 402.195L299.097 401.435L300.315 400.477L301.533 399.302L303.969 396.352L306.405 392.794L308.841 388.813L311.277 384.277L313.713 378.693L316.149 371.737L318.585 363.617L321.021 354.496L323.457 344.234L329.547 317.022L334.419 297.337L336.855 285.683L342.945 254.077L344.163 249.123L345.381 244.881L347.817 237.798L350.253 230.594L352.689 221.759L355.125 212.237L356.343 207.959L357.561 204.371L358.779 201.644L359.997 199.845L361.215 198.935L362.433 198.771L363.651 199.132L366.087 200.53L368.522 202.35L369.741 203.696L370.958 205.526L372.176 207.851L374.612 213.422L378.266 222.337L379.484 225.765L380.702 229.763L381.92 234.439L384.356 245.437L386.792 256.794L389.228 266.576L395.318 288.152L397.754 298.951L401.408 316.181L403.844 326.206L406.28 334.912L409.934 346.97L414.806 361.806L419.678 376.075L420.896 379.117L422.114 381.735L423.332 383.913L424.55 385.702L426.986 388.492L434.294 395.805L437.948 399.811L440.384 401.977L442.82 403.442L446.474 404.927L452.564 407.188L455 407.8L459.872 408.599L467.18 409.625L472.052 409.786L484.232 410.11" fill="#EFEFEF" fill-opacity="0.4"/>
<path d="M241.852 410.111L267.429 409.951L274.737 409.584L282.045 409.037L284.481 408.485L286.917 407.556L290.571 405.652L294.225 403.837L297.879 402.195L299.097 401.435L300.315 400.477L301.533 399.302L303.969 396.352L306.405 392.794L308.841 388.813L311.277 384.277L313.713 378.693L316.149 371.737L318.585 363.617L321.021 354.496L323.457 344.234L329.547 317.022L334.419 297.337L336.855 285.683L342.945 254.077L344.163 249.123L345.381 244.881L347.817 237.798L350.253 230.594L352.689 221.759L355.125 212.237L356.343 207.959L357.561 204.371L358.779 201.644L359.997 199.845L361.215 198.935L362.433 198.771L363.651 199.132L366.087 200.53L368.522 202.35L369.741 203.696L370.958 205.526L372.176 207.851L374.612 213.422L378.266 222.337L379.484 225.765L380.702 229.763L381.92 234.439L384.356 245.437L386.792 256.794L389.228 266.576L395.318 288.152L397.754 298.951L401.408 316.181L403.844 326.206L406.28 334.912L409.934 346.97L414.806 361.806L419.678 376.075L420.896 379.117L422.114 381.735L423.332 383.913L424.55 385.702L426.986 388.492L434.294 395.805L437.948 399.811L440.384 401.977L442.82 403.442L446.474 404.927L452.564 407.188L455 407.8L459.872 408.599L467.18 409.625L472.052 409.786L484.232 410.11" stroke="#EFEFEF" stroke-linecap="square"/>
</g>
<mask id="mask7_230_14478" style="mask-type:luminance" maskUnits="userSpaceOnUse" x="76" y="55" width="477" height="356">
<path d="M552.957 55.2959H76.7969V410.112H552.957V55.2959Z" fill="white"/>
</mask>
<g mask="url(#mask7_230_14478)">
<path d="M213.328 410.111L244.226 409.971L252.236 409.407L254.525 408.961L256.813 408.206L260.246 406.961L265.968 405.443L267.112 404.814L269.401 402.941L276.267 395.971L277.412 394.641L278.556 393.07L279.7 391.163L280.845 388.84L281.989 386.042L283.133 382.748L285.422 374.835L287.711 365.636L289.999 355.07L292.288 342.592L295.721 321.377L302.587 275.974L304.876 259.355L306.02 249.444L308.309 225.735L311.742 187.573L312.886 176.89L314.031 167.957L315.175 160.786L316.319 155.101L318.608 146.247L322.041 134.532L323.186 131.242L324.33 128.721L325.474 127.258L326.619 127.06L327.763 128.211L328.907 130.695L330.052 134.456L331.196 139.408L333.485 152.045L336.918 173.945L339.206 191.396L342.639 219.759L344.928 235.357L348.361 257.954L352.939 289.951L355.227 303.611L357.516 315.172L363.238 341.57L365.526 352.858L367.815 362.425L371.248 374.01L373.537 381.237L375.826 387.203L378.114 391.759L380.403 395.461L382.692 398.326L384.98 400.414L388.413 402.84L391.846 405.071L394.135 406.175L396.424 406.788L405.579 408.596L409.012 409.332L412.445 409.589L420.455 409.919L426.177 409.902L436.476 410.078L441.053 410.111" fill="#EFEFEF" fill-opacity="0.4"/>
<path d="M213.328 410.111L244.226 409.971L252.236 409.407L254.525 408.961L256.813 408.206L260.246 406.961L265.968 405.443L267.112 404.814L269.401 402.941L276.267 395.971L277.412 394.641L278.556 393.07L279.7 391.163L280.845 388.84L281.989 386.042L283.133 382.748L285.422 374.835L287.711 365.636L289.999 355.07L292.288 342.592L295.721 321.377L302.587 275.974L304.876 259.355L306.02 249.444L308.309 225.735L311.742 187.573L312.886 176.89L314.031 167.957L315.175 160.786L316.319 155.101L318.608 146.247L322.041 134.532L323.186 131.242L324.33 128.721L325.474 127.258L326.619 127.06L327.763 128.211L328.907 130.695L330.052 134.456L331.196 139.408L333.485 152.045L336.918 173.945L339.206 191.396L342.639 219.759L344.928 235.357L348.361 257.954L352.939 289.951L355.227 303.611L357.516 315.172L363.238 341.57L365.526 352.858L367.815 362.425L371.248 374.01L373.537 381.237L375.826 387.203L378.114 391.759L380.403 395.461L382.692 398.326L384.98 400.414L388.413 402.84L391.846 405.071L394.135 406.175L396.424 406.788L405.579 408.596L409.012 409.332L412.445 409.589L420.455 409.919L426.177 409.902L436.476 410.078L441.053 410.111" stroke="#EFEFEF" stroke-linecap="square"/>
</g>
<mask id="mask8_230_14478" style="mask-type:luminance" maskUnits="userSpaceOnUse" x="76" y="55" width="477" height="356">
<path d="M552.957 55.2959H76.7969V410.112H552.957V55.2959Z" fill="white"/>
</mask>
<g mask="url(#mask8_230_14478)">
<path d="M272.438 410.111L280.15 409.972L284.557 409.608L288.965 409.2L298.881 408.73L303.288 407.764L308.797 406.405L316.51 403.675L318.713 402.766L320.917 401.511L323.12 399.674L326.426 396.507L327.528 395.729L328.629 395.179L331.935 393.983L333.037 393.254L334.138 392.198L335.24 390.824L337.444 387.41L341.851 380.15L346.258 373.677L347.36 371.749L348.462 369.519L350.665 364.004L352.869 357.156L355.073 349.291L358.378 336.107L361.683 321.955L363.887 311.091L366.091 297.317L369.396 272.475L372.702 248.162L379.312 201.936L382.618 178.437L384.821 165.979L385.923 161L387.025 156.789L388.127 153.242L389.229 150.244L391.432 145.444L393.636 141.636L394.738 140.143L395.839 139.256L396.941 139.421L398.043 141.087L399.145 144.504L400.247 149.588L402.45 162.959L407.959 200.04L410.163 217.811L414.57 255.056L417.875 279.951L422.283 309.319L425.588 330.392L427.792 342.814L429.995 353.508L432.199 362.588L434.402 370.455L436.606 377.627L438.81 383.848L439.911 386.405L442.115 390.472L444.319 393.77L446.522 396.737L448.726 399.31L452.031 402.604L454.235 404.481L456.438 405.956L458.642 407.06L460.846 407.83L463.049 408.256L476.271 409.627L491.696 410.11" fill="#EFEFEF" fill-opacity="0.4"/>
<path d="M272.438 410.111L280.15 409.972L284.557 409.608L288.965 409.2L298.881 408.73L303.288 407.764L308.797 406.405L316.51 403.675L318.713 402.766L320.917 401.511L323.12 399.674L326.426 396.507L327.528 395.729L328.629 395.179L331.935 393.983L333.037 393.254L334.138 392.198L335.24 390.824L337.444 387.41L341.851 380.15L346.258 373.677L347.36 371.749L348.462 369.519L350.665 364.004L352.869 357.156L355.073 349.291L358.378 336.107L361.683 321.955L363.887 311.091L366.091 297.317L369.396 272.475L372.702 248.162L379.312 201.936L382.618 178.437L384.821 165.979L385.923 161L387.025 156.789L388.127 153.242L389.229 150.244L391.432 145.444L393.636 141.636L394.738 140.143L395.839 139.256L396.941 139.421L398.043 141.087L399.145 144.504L400.247 149.588L402.45 162.959L407.959 200.04L410.163 217.811L414.57 255.056L417.875 279.951L422.283 309.319L425.588 330.392L427.792 342.814L429.995 353.508L432.199 362.588L434.402 370.455L436.606 377.627L438.81 383.848L439.911 386.405L442.115 390.472L444.319 393.77L446.522 396.737L448.726 399.31L452.031 402.604L454.235 404.481L456.438 405.956L458.642 407.06L460.846 407.83L463.049 408.256L476.271 409.627L491.696 410.11" stroke="#EFEFEF" stroke-linecap="square"/>
</g>
<mask id="mask9_230_14478" style="mask-type:luminance" maskUnits="userSpaceOnUse" x="76" y="55" width="477" height="356">
<path d="M552.957 55.2959H76.7969V410.112H552.957V55.2959Z" fill="white"/>
</mask>
<g mask="url(#mask9_230_14478)">
<path d="M219.367 410.111L227.905 409.977L240.102 409.364L244.981 408.564L248.641 407.737L252.3 406.521L254.739 405.428L257.179 404.085L260.838 401.648L263.277 399.678L265.717 397.296L268.156 394.389L270.596 390.786L273.035 386.308L276.694 378.381L280.353 369.89L282.793 363.099L284.012 359.022L286.452 349.321L288.891 337.971L293.77 313.359L298.649 287.05L302.308 267.596L305.967 249.725L308.407 239.162L310.846 230.183L313.286 222.716L315.725 216.419L318.165 211.285L319.384 209.273L320.604 207.707L321.824 206.624L323.044 206.049L324.263 205.996L325.483 206.466L326.703 207.444L327.923 208.883L329.142 210.708L331.582 215.085L335.241 221.703L337.68 225.249L340.12 228.766L341.339 231.104L342.559 234.147L343.779 237.999L344.999 242.612L347.438 253.362L351.097 270.039L353.537 280.048L355.976 288.875L358.416 296.618L369.393 328.94L373.052 341.224L377.931 357.733L380.371 365.009L382.81 371.267L385.249 376.584L387.689 381.245L390.128 385.393L392.568 388.965L395.007 392.01L398.666 396.05L402.326 399.601L405.985 402.605L408.424 404.279L410.864 405.538L413.303 406.266L416.962 406.738L420.621 407.378L425.5 408.449L430.379 409.137L436.478 409.819L440.137 409.95L462.092 410.111" fill="#EFEFEF" fill-opacity="0.4"/>
<path d="M219.367 410.111L227.905 409.977L240.102 409.364L244.981 408.564L248.641 407.737L252.3 406.521L254.739 405.428L257.179 404.085L260.838 401.648L263.277 399.678L265.717 397.296L268.156 394.389L270.596 390.786L273.035 386.308L276.694 378.381L280.353 369.89L282.793 363.099L284.012 359.022L286.452 349.321L288.891 337.971L293.77 313.359L298.649 287.05L302.308 267.596L305.967 249.725L308.407 239.162L310.846 230.183L313.286 222.716L315.725 216.419L318.165 211.285L319.384 209.273L320.604 207.707L321.824 206.624L323.044 206.049L324.263 205.996L325.483 206.466L326.703 207.444L327.923 208.883L329.142 210.708L331.582 215.085L335.241 221.703L337.68 225.249L340.12 228.766L341.339 231.104L342.559 234.147L343.779 237.999L344.999 242.612L347.438 253.362L351.097 270.039L353.537 280.048L355.976 288.875L358.416 296.618L369.393 328.94L373.052 341.224L377.931 357.733L380.371 365.009L382.81 371.267L385.249 376.584L387.689 381.245L390.128 385.393L392.568 388.965L395.007 392.01L398.666 396.05L402.326 399.601L405.985 402.605L408.424 404.279L410.864 405.538L413.303 406.266L416.962 406.738L420.621 407.378L425.5 408.449L430.379 409.137L436.478 409.819L440.137 409.95L462.092 410.111" stroke="#EFEFEF" stroke-linecap="square"/>
</g>
<mask id="mask10_230_14478" style="mask-type:luminance" maskUnits="userSpaceOnUse" x="76" y="55" width="477" height="356">
<path d="M552.957 55.2959H76.7969V410.112H552.957V55.2959Z" fill="white"/>
</mask>
<g mask="url(#mask10_230_14478)">
<path d="M255.172 410.111L274.921 409.976L280.188 409.566L286.771 408.709L292.037 407.714L297.303 406.48L298.62 405.98L299.937 405.292L301.253 404.383L303.887 401.982L307.836 398.168L311.786 394.947L313.103 393.611L314.419 391.948L315.736 389.907L317.053 387.493L319.686 381.76L323.636 371.848L327.586 360.901L331.535 348.71L344.702 306.112L347.335 295.785L349.968 284.02L359.184 240.581L361.817 230.214L363.134 225.77L364.451 221.974L365.767 218.916L367.084 216.602L368.401 214.94L369.717 213.77L371.034 212.923L373.667 211.786L374.984 211.454L376.3 211.332L377.617 211.498L378.933 212.041L380.25 213.036L381.567 214.511L382.883 216.423L385.517 221.095L389.466 228.894L390.783 231.946L392.1 235.517L393.416 239.709L396.049 249.678L410.532 308.903L413.165 318.371L417.115 331.116L423.698 351.384L426.332 358.442L428.965 364.269L431.598 369.067L434.231 373.71L436.864 379.007L442.131 390.27L443.447 392.532L444.764 394.404L446.081 395.883L447.397 397.019L450.031 398.649L453.98 400.974L457.93 403.433L460.563 404.724L464.513 406.242L468.463 407.484L472.413 408.428L476.363 409.014L482.946 409.566L490.846 409.947L497.429 409.997L506.645 409.98L517.178 410.11" fill="#EFEFEF" fill-opacity="0.4"/>
<path d="M255.172 410.111L274.921 409.976L280.188 409.566L286.771 408.709L292.037 407.714L297.303 406.48L298.62 405.98L299.937 405.292L301.253 404.383L303.887 401.982L307.836 398.168L311.786 394.947L313.103 393.611L314.419 391.948L315.736 389.907L317.053 387.493L319.686 381.76L323.636 371.848L327.586 360.901L331.535 348.71L344.702 306.112L347.335 295.785L349.968 284.02L359.184 240.581L361.817 230.214L363.134 225.77L364.451 221.974L365.767 218.916L367.084 216.602L368.401 214.94L369.717 213.77L371.034 212.923L373.667 211.786L374.984 211.454L376.3 211.332L377.617 211.498L378.933 212.041L380.25 213.036L381.567 214.511L382.883 216.423L385.517 221.095L389.466 228.894L390.783 231.946L392.1 235.517L393.416 239.709L396.049 249.678L410.532 308.903L413.165 318.371L417.115 331.116L423.698 351.384L426.332 358.442L428.965 364.269L431.598 369.067L434.231 373.71L436.864 379.007L442.131 390.27L443.447 392.532L444.764 394.404L446.081 395.883L447.397 397.019L450.031 398.649L453.98 400.974L457.93 403.433L460.563 404.724L464.513 406.242L468.463 407.484L472.413 408.428L476.363 409.014L482.946 409.566L490.846 409.947L497.429 409.997L506.645 409.98L517.178 410.11" stroke="#EFEFEF" stroke-linecap="square"/>
</g>
<mask id="mask11_230_14478" style="mask-type:luminance" maskUnits="userSpaceOnUse" x="76" y="55" width="477" height="356">
<path d="M552.957 55.2959H76.7969V410.112H552.957V55.2959Z" fill="white"/>
</mask>
<g mask="url(#mask11_230_14478)">
<path d="M264.586 410.111L272.338 409.966L287.841 409.71L290.748 409.555L301.406 408.734L303.344 408.654L305.282 408.256L307.22 407.437L310.127 405.779L315.94 402.365L318.847 400.501L322.723 397.374L328.537 392.343L329.506 391.039L330.475 389.327L332.413 384.949L334.351 380.528L336.288 376.947L339.195 371.999L341.133 367.918L344.04 361.29L345.978 357.788L347.916 354.328L348.885 351.867L349.854 348.549L350.823 344.282L352.761 333.432L364.388 259.658L366.326 244.962L368.264 226.872L371.171 198.843L375.047 164.977L382.798 89.8776L383.767 82.4187L384.736 76.7771L385.705 73.3481L386.674 72.1924L387.643 73.0578L388.612 75.5054L389.581 79.0704L391.519 88.2775L393.457 99.6229L395.394 113.826L396.363 122.566L398.301 144.185L400.239 170.493L407.991 283.334L410.898 317.458L413.805 348.545L415.743 365.269L417.68 377.744L419.618 387.266L421.556 394.583L422.525 397.44L423.494 399.815L425.432 403.444L427.37 406.005L429.308 407.711L431.246 408.706L433.184 409.277L436.09 409.803L438.997 410.048L443.842 410.097L454.501 410.096L457.407 410.111" fill="#EFEFEF" fill-opacity="0.4"/>
<path d="M264.586 410.111L272.338 409.966L287.841 409.71L290.748 409.555L301.406 408.734L303.344 408.654L305.282 408.256L307.22 407.437L310.127 405.779L315.94 402.365L318.847 400.501L322.723 397.374L328.537 392.343L329.506 391.039L330.475 389.327L332.413 384.949L334.351 380.528L336.288 376.947L339.195 371.999L341.133 367.918L344.04 361.29L345.978 357.788L347.916 354.328L348.885 351.867L349.854 348.549L350.823 344.282L352.761 333.432L364.388 259.658L366.326 244.962L368.264 226.872L371.171 198.843L375.047 164.977L382.798 89.8776L383.767 82.4187L384.736 76.7771L385.705 73.3481L386.674 72.1924L387.643 73.0578L388.612 75.5054L389.581 79.0704L391.519 88.2775L393.457 99.6229L395.394 113.826L396.363 122.566L398.301 144.185L400.239 170.493L407.991 283.334L410.898 317.458L413.805 348.545L415.743 365.269L417.68 377.744L419.618 387.266L421.556 394.583L422.525 397.44L423.494 399.815L425.432 403.444L427.37 406.005L429.308 407.711L431.246 408.706L433.184 409.277L436.09 409.803L438.997 410.048L443.842 410.097L454.501 410.096L457.407 410.111" stroke="#EFEFEF" stroke-linecap="square"/>
</g>
<mask id="mask12_230_14478" style="mask-type:luminance" maskUnits="userSpaceOnUse" x="76" y="55" width="477" height="356">
<path d="M552.957 55.2959H76.7969V410.112H552.957V55.2959Z" fill="white"/>
</mask>
<g mask="url(#mask12_230_14478)">
<path d="M252.734 410.111L260.067 409.98L267.399 409.714L274.731 409.712L279.969 409.298L290.443 408.129L292.538 407.643L294.633 406.874L297.776 405.336L300.918 403.542L303.013 402.08L305.108 400.236L307.203 397.913L309.298 395.131L311.393 391.943L313.488 388.202L315.583 383.486L317.678 377.373L319.773 369.957L323.963 354.42L330.247 332.539L332.342 323.95L334.437 314.229L337.58 297.557L342.817 267.254L345.959 249.316L348.054 238.744L351.197 224.71L359.577 190.212L360.624 186.816L361.672 184.055L362.719 181.894L363.767 180.207L365.861 177.677L366.909 176.686L367.956 175.929L369.004 175.532L370.051 175.628L371.099 176.302L372.146 177.562L373.194 179.357L374.241 181.608L376.336 187.285L378.431 194.63L380.526 203.974L383.669 220.734L389.953 255.488L394.143 280.577L396.238 291.324L403.571 325.855L409.855 351.837L414.045 371.035L416.14 378.649L418.235 384.458L420.33 388.946L422.425 392.694L424.52 395.99L426.615 398.806L428.71 401.117L431.852 404.004L433.947 405.59L436.042 406.733L438.137 407.497L442.327 408.611L445.469 409.136L454.897 410.008L460.134 410.109L461.182 410.111" fill="#EFEFEF" fill-opacity="0.4"/>
<path d="M252.734 410.111L260.067 409.98L267.399 409.714L274.731 409.712L279.969 409.298L290.443 408.129L292.538 407.643L294.633 406.874L297.776 405.336L300.918 403.542L303.013 402.08L305.108 400.236L307.203 397.913L309.298 395.131L311.393 391.943L313.488 388.202L315.583 383.486L317.678 377.373L319.773 369.957L323.963 354.42L330.247 332.539L332.342 323.95L334.437 314.229L337.58 297.557L342.817 267.254L345.959 249.316L348.054 238.744L351.197 224.71L359.577 190.212L360.624 186.816L361.672 184.055L362.719 181.894L363.767 180.207L365.861 177.677L366.909 176.686L367.956 175.929L369.004 175.532L370.051 175.628L371.099 176.302L372.146 177.562L373.194 179.357L374.241 181.608L376.336 187.285L378.431 194.63L380.526 203.974L383.669 220.734L389.953 255.488L394.143 280.577L396.238 291.324L403.571 325.855L409.855 351.837L414.045 371.035L416.14 378.649L418.235 384.458L420.33 388.946L422.425 392.694L424.52 395.99L426.615 398.806L428.71 401.117L431.852 404.004L433.947 405.59L436.042 406.733L438.137 407.497L442.327 408.611L445.469 409.136L454.897 410.008L460.134 410.109L461.182 410.111" stroke="#EFEFEF" stroke-linecap="square"/>
</g>
<mask id="mask13_230_14478" style="mask-type:luminance" maskUnits="userSpaceOnUse" x="76" y="55" width="477" height="356">
<path d="M552.957 55.2959H76.7969V410.112H552.957V55.2959Z" fill="white"/>
</mask>
<g mask="url(#mask13_230_14478)">
<path d="M247.094 410.111L256.886 409.955L263.413 409.548L266.677 409.097L269.941 408.289L274.293 406.77L278.645 405.079L280.821 403.942L282.997 402.257L285.173 399.86L287.349 396.877L290.613 391.745L292.789 387.843L296.053 381.165L298.229 376.078L300.405 369.959L302.581 362.526L309.109 337.633L311.285 328.175L313.461 317.394L317.813 294.767L321.077 279.902L323.253 269.955L325.428 258.771L330.868 229.478L333.044 220.366L335.22 213.45L337.396 208.395L339.572 204.563L341.748 201.327L342.836 199.922L343.924 198.775L345.012 197.999L346.1 197.68L347.188 197.833L348.276 198.396L350.452 200.245L353.716 203.195L358.068 206.989L359.156 208.171L360.244 209.694L361.332 211.761L362.42 214.53L363.508 218.046L365.684 226.856L368.948 242.036L372.212 258.396L377.652 285.959L380.916 300.622L386.355 323.307L390.707 342.739L393.971 355.456L398.323 371.131L400.499 377.734L402.675 383.039L405.939 389.587L409.203 395.538L411.379 398.71L412.467 399.911L414.643 401.633L422.259 406.048L425.523 407.66L427.699 408.473L429.875 409.038L433.139 409.511L437.491 409.722L444.019 409.93L449.458 410.047L461.426 410.108L463.602 410.111" fill="#EFEFEF" fill-opacity="0.4"/>
<path d="M247.094 410.111L256.886 409.955L263.413 409.548L266.677 409.097L269.941 408.289L274.293 406.77L278.645 405.079L280.821 403.942L282.997 402.257L285.173 399.86L287.349 396.877L290.613 391.745L292.789 387.843L296.053 381.165L298.229 376.078L300.405 369.959L302.581 362.526L309.109 337.633L311.285 328.175L313.461 317.394L317.813 294.767L321.077 279.902L323.253 269.955L325.428 258.771L330.868 229.478L333.044 220.366L335.22 213.45L337.396 208.395L339.572 204.563L341.748 201.327L342.836 199.922L343.924 198.775L345.012 197.999L346.1 197.68L347.188 197.833L348.276 198.396L350.452 200.245L353.716 203.195L358.068 206.989L359.156 208.171L360.244 209.694L361.332 211.761L362.42 214.53L363.508 218.046L365.684 226.856L368.948 242.036L372.212 258.396L377.652 285.959L380.916 300.622L386.355 323.307L390.707 342.739L393.971 355.456L398.323 371.131L400.499 377.734L402.675 383.039L405.939 389.587L409.203 395.538L411.379 398.71L412.467 399.911L414.643 401.633L422.259 406.048L425.523 407.66L427.699 408.473L429.875 409.038L433.139 409.511L437.491 409.722L444.019 409.93L449.458 410.047L461.426 410.108L463.602 410.111" stroke="#EFEFEF" stroke-linecap="square"/>
</g>
<mask id="mask14_230_14478" style="mask-type:luminance" maskUnits="userSpaceOnUse" x="76" y="55" width="477" height="356">
<path d="M552.957 55.2959H76.7969V410.112H552.957V55.2959Z" fill="white"/>
</mask>
<g mask="url(#mask14_230_14478)">
<path d="M98.4375 410.111L203.69 409.889L209.042 409.399L216.178 408.311L221.53 407.3L225.098 406.399L226.882 405.775L228.666 404.976L230.45 403.957L232.234 402.7L241.153 395.302L242.937 393.603L244.721 391.516L246.505 388.891L248.289 385.638L250.073 381.783L257.209 364.873L260.777 356.653L262.561 351.811L266.129 340.504L271.48 322.37L278.616 296.898L289.32 260.883L292.888 247.636L298.24 226.259L300.024 220.248L301.808 215.105L305.375 206.191L307.159 202.263L308.943 199.273L310.727 197.762L312.511 197.919L314.295 199.585L316.079 202.437L317.863 206.095L321.431 214.439L323.215 218.904L324.999 223.8L326.783 229.433L328.567 236.19L330.351 244.526L332.135 254.66L337.487 288.379L339.27 297.247L341.054 304.482L344.622 316.294L348.19 328.109L351.758 341.873L355.326 355.802L358.894 367.89L360.678 373.062L362.462 377.526L364.246 381.222L366.03 384.213L367.814 386.679L371.382 390.833L378.517 398.44L382.085 401.621L385.653 404.257L387.437 405.351L389.221 406.224L391.005 406.847L394.573 407.541L398.141 408.138L405.277 409.555L408.844 409.757L415.98 409.96L423.116 410.101L453.443 410.111" fill="#7EB0D5" fill-opacity="0.4"/>
<path d="M98.4375 410.111L203.69 409.889L209.042 409.399L216.178 408.311L221.53 407.3L225.098 406.399L226.882 405.775L228.666 404.976L230.45 403.957L232.234 402.7L241.153 395.302L242.937 393.603L244.721 391.516L246.505 388.891L248.289 385.638L250.073 381.783L257.209 364.873L260.777 356.653L262.561 351.811L266.129 340.504L271.48 322.37L278.616 296.898L289.32 260.883L292.888 247.636L298.24 226.259L300.024 220.248L301.808 215.105L305.375 206.191L307.159 202.263L308.943 199.273L310.727 197.762L312.511 197.919L314.295 199.585L316.079 202.437L317.863 206.095L321.431 214.439L323.215 218.904L324.999 223.8L326.783 229.433L328.567 236.19L330.351 244.526L332.135 254.66L337.487 288.379L339.27 297.247L341.054 304.482L344.622 316.294L348.19 328.109L351.758 341.873L355.326 355.802L358.894 367.89L360.678 373.062L362.462 377.526L364.246 381.222L366.03 384.213L367.814 386.679L371.382 390.833L378.517 398.44L382.085 401.621L385.653 404.257L387.437 405.351L389.221 406.224L391.005 406.847L394.573 407.541L398.141 408.138L405.277 409.555L408.844 409.757L415.98 409.96L423.116 410.101L453.443 410.111" stroke="#7EB0D5" stroke-linecap="square"/>
</g>
<path d="M535.061 411.061C535.646 410.475 535.646 409.525 535.061 408.939L525.515 399.393C524.929 398.808 523.979 398.808 523.393 399.393C522.808 399.979 522.808 400.929 523.393 401.515L531.879 410L523.393 418.485C522.808 419.071 522.808 420.021 523.393 420.607C523.979 421.192 524.929 421.192 525.515 420.607L535.061 411.061ZM79 411.5H534V408.5H79V411.5Z" fill="black"/>
</g>
<defs>
<clipPath id="clip0_230_14478">
<rect width="614.4" height="460.8" fill="white"/>
</clipPath>
</defs>
</svg>
