<svg width="615" height="461" viewBox="0 0 615 461" fill="none" xmlns="http://www.w3.org/2000/svg">
<g clip-path="url(#clip0_230_14558)">
<mask id="mask0_230_14558" style="mask-type:luminance" maskUnits="userSpaceOnUse" x="76" y="55" width="477" height="356">
<path d="M552.957 55.2959H76.7969V410.112H552.957V55.2959Z" fill="white"/>
</mask>
<g mask="url(#mask0_230_14558)">
<path d="M177.094 410.112L215.696 409.952L229.123 409.171L232.48 408.878L235.837 408.314L239.194 407.365L250.942 403.198L252.621 402.356L254.299 401.233L255.977 399.781L257.656 398.004L261.013 393.679L264.369 388.667L267.726 382.88L271.083 376.022L274.44 368.173L277.796 359.425L281.153 349.467L284.51 338.159L289.545 320.597L294.58 304.477L301.294 282.977L309.685 255.169L311.364 250.86L313.042 247.265L314.721 244.29L316.399 241.833L318.077 239.834L319.756 238.25L323.112 235.908L326.469 233.651L329.826 231.383L331.504 230.699L333.183 230.568L334.861 231.06L336.539 232.139L338.218 233.718L339.896 235.713L341.575 238.086L343.253 240.86L344.931 244.102L346.61 247.885L348.288 252.231L351.645 262.301L356.68 278.896L363.393 301.226L366.75 311.167L373.464 330.035L378.499 344.747L380.177 349.183L381.856 353.193L383.534 356.755L386.891 362.849L391.926 371L395.283 375.804L398.639 379.787L403.674 385.018L410.388 391.745L415.423 397.25L417.101 398.828L418.78 400.149L420.458 401.207L422.137 402.03L425.493 403.16L433.885 405.34L437.242 406.24L442.277 407.119L455.704 409.342L460.739 409.672L477.523 409.997L487.593 410.089L504.377 410.076L511.091 410.111" fill="#EFEFEF" fill-opacity="0.4"/>
<path d="M177.094 410.112L215.696 409.952L229.123 409.171L232.48 408.878L235.837 408.314L239.194 407.365L250.942 403.198L252.621 402.356L254.299 401.233L255.977 399.781L257.656 398.004L261.013 393.679L264.369 388.667L267.726 382.88L271.083 376.022L274.44 368.173L277.796 359.425L281.153 349.467L284.51 338.159L289.545 320.597L294.58 304.477L301.294 282.977L309.685 255.169L311.364 250.86L313.042 247.265L314.721 244.29L316.399 241.833L318.077 239.834L319.756 238.25L323.112 235.908L326.469 233.651L329.826 231.383L331.504 230.699L333.183 230.568L334.861 231.06L336.539 232.139L338.218 233.718L339.896 235.713L341.575 238.086L343.253 240.86L344.931 244.102L346.61 247.885L348.288 252.231L351.645 262.301L356.68 278.896L363.393 301.226L366.75 311.167L373.464 330.035L378.499 344.747L380.177 349.183L381.856 353.193L383.534 356.755L386.891 362.849L391.926 371L395.283 375.804L398.639 379.787L403.674 385.018L410.388 391.745L415.423 397.25L417.101 398.828L418.78 400.149L420.458 401.207L422.137 402.03L425.493 403.16L433.885 405.34L437.242 406.24L442.277 407.119L455.704 409.342L460.739 409.672L477.523 409.997L487.593 410.089L504.377 410.076L511.091 410.111" stroke="#EFEFEF" stroke-linecap="square"/>
</g>
<mask id="mask1_230_14558" style="mask-type:luminance" maskUnits="userSpaceOnUse" x="76" y="55" width="477" height="356">
<path d="M552.957 55.2959H76.7969V410.112H552.957V55.2959Z" fill="white"/>
</mask>
<g mask="url(#mask1_230_14558)">
<path d="M190.102 410.111L201.543 409.977L216.799 409.515L223.155 409.107L229.512 408.739L232.054 408.294L235.868 407.193L239.682 406.187L247.31 404.562L249.852 403.48L251.123 402.692L253.666 400.601L256.209 397.953L261.294 391.908L266.379 385.597L270.193 380.372L274.007 374.713L276.549 370.375L279.092 365.031L281.634 358.686L286.72 344.823L289.262 337.159L291.805 328.562L296.89 310.004L299.432 299.809L313.417 238.951L315.959 227.771L318.502 218.122L321.044 209.936L323.587 202.721L326.13 196.284L328.672 190.955L329.943 188.929L331.215 187.508L332.486 186.845L333.757 187.041L335.029 188.088L336.3 189.827L340.114 196.597L342.656 201.625L343.928 204.879L345.199 208.886L347.742 218.782L352.827 240.628L355.369 252.514L359.183 272.188L362.997 293.85L365.54 308.193L368.082 321.163L371.896 338.693L374.439 349.463L376.981 359.26L380.795 372.43L383.338 380.346L385.88 387.211L388.423 392.789L390.965 397.236L393.508 400.789L396.051 403.551L398.593 405.593L401.136 407.041L403.678 408.055L406.221 408.764L410.035 409.454L413.849 409.876L418.934 410.089L429.104 410.046L439.274 410.102L443.088 410.111" fill="#EFEFEF" fill-opacity="0.4"/>
<path d="M190.102 410.111L201.543 409.977L216.799 409.515L223.155 409.107L229.512 408.739L232.054 408.294L235.868 407.193L239.682 406.187L247.31 404.562L249.852 403.48L251.123 402.692L253.666 400.601L256.209 397.953L261.294 391.908L266.379 385.597L270.193 380.372L274.007 374.713L276.549 370.375L279.092 365.031L281.634 358.686L286.72 344.823L289.262 337.159L291.805 328.562L296.89 310.004L299.432 299.809L313.417 238.951L315.959 227.771L318.502 218.122L321.044 209.936L323.587 202.721L326.13 196.284L328.672 190.955L329.943 188.929L331.215 187.508L332.486 186.845L333.757 187.041L335.029 188.088L336.3 189.827L340.114 196.597L342.656 201.625L343.928 204.879L345.199 208.886L347.742 218.782L352.827 240.628L355.369 252.514L359.183 272.188L362.997 293.85L365.54 308.193L368.082 321.163L371.896 338.693L374.439 349.463L376.981 359.26L380.795 372.43L383.338 380.346L385.88 387.211L388.423 392.789L390.965 397.236L393.508 400.789L396.051 403.551L398.593 405.593L401.136 407.041L403.678 408.055L406.221 408.764L410.035 409.454L413.849 409.876L418.934 410.089L429.104 410.046L439.274 410.102L443.088 410.111" stroke="#EFEFEF" stroke-linecap="square"/>
</g>
<mask id="mask2_230_14558" style="mask-type:luminance" maskUnits="userSpaceOnUse" x="76" y="55" width="477" height="356">
<path d="M552.957 55.2959H76.7969V410.112H552.957V55.2959Z" fill="white"/>
</mask>
<g mask="url(#mask2_230_14558)">
<path d="M206.711 410.111L227.954 409.966L239.2 409.162L245.448 407.921L250.446 407.343L254.195 406.458L261.692 404.387L264.191 403.078L266.69 401.351L270.439 398.38L272.938 396.062L275.437 393.117L277.936 389.311L280.436 384.587L282.935 379.139L286.683 370.316L289.183 363.637L290.432 359.616L291.682 354.904L292.931 349.418L295.43 336.497L300.429 307.84L302.928 290.506L305.427 269.984L310.425 227.709L314.174 199.189L316.673 183.281L319.172 170.612L322.921 154.371L324.17 149.632L325.42 145.702L326.67 142.816L327.919 140.947L329.169 139.867L330.418 139.363L331.668 139.403L332.917 140.126L334.167 141.742L335.417 144.459L336.666 148.479L337.916 153.944L339.165 160.801L341.664 177.139L345.413 201.783L355.41 261.852L367.905 334.397L370.405 348.218L372.904 360.474L375.403 370.637L376.652 374.934L377.902 378.693L379.152 381.882L380.401 384.512L382.9 388.592L389.148 397.872L390.398 399.308L392.897 401.532L397.895 405.092L400.394 406.543L402.893 407.597L406.642 408.8L409.141 409.221L411.64 409.274L415.389 409.263L419.138 409.582L424.136 409.967L455.375 410.111" fill="#EFEFEF" fill-opacity="0.4"/>
<path d="M206.711 410.111L227.954 409.966L239.2 409.162L245.448 407.921L250.446 407.343L254.195 406.458L261.692 404.387L264.191 403.078L266.69 401.351L270.439 398.38L272.938 396.062L275.437 393.117L277.936 389.311L280.436 384.587L282.935 379.139L286.683 370.316L289.183 363.637L290.432 359.616L291.682 354.904L292.931 349.418L295.43 336.497L300.429 307.84L302.928 290.506L305.427 269.984L310.425 227.709L314.174 199.189L316.673 183.281L319.172 170.612L322.921 154.371L324.17 149.632L325.42 145.702L326.67 142.816L327.919 140.947L329.169 139.867L330.418 139.363L331.668 139.403L332.917 140.126L334.167 141.742L335.417 144.459L336.666 148.479L337.916 153.944L339.165 160.801L341.664 177.139L345.413 201.783L355.41 261.852L367.905 334.397L370.405 348.218L372.904 360.474L375.403 370.637L376.652 374.934L377.902 378.693L379.152 381.882L380.401 384.512L382.9 388.592L389.148 397.872L390.398 399.308L392.897 401.532L397.895 405.092L400.394 406.543L402.893 407.597L406.642 408.8L409.141 409.221L411.64 409.274L415.389 409.263L419.138 409.582L424.136 409.967L455.375 410.111" stroke="#EFEFEF" stroke-linecap="square"/>
</g>
<mask id="mask3_230_14558" style="mask-type:luminance" maskUnits="userSpaceOnUse" x="76" y="55" width="477" height="356">
<path d="M552.957 55.2959H76.7969V410.112H552.957V55.2959Z" fill="white"/>
</mask>
<g mask="url(#mask3_230_14558)">
<path d="M212.305 410.111L223.715 409.966L232.273 409.442L237.979 409.209L245.11 409.035L247.963 408.705L250.816 408.148L255.095 406.93L259.374 405.292L263.653 403.39L266.505 401.877L269.358 399.869L272.211 397.233L280.769 388.473L283.621 385.582L285.048 383.897L286.474 381.967L289.327 377.322L293.606 369.151L296.458 363.836L303.59 351.447L306.442 345.379L310.721 334.859L330.69 285.291L334.969 275.401L342.101 259.556L344.953 252.858L346.38 249.823L347.806 247.238L349.232 245.219L350.659 243.799L352.085 242.94L353.511 242.57L354.938 242.624L356.364 243.062L357.79 243.86L359.217 244.98L364.922 250.494L366.348 251.521L372.054 254.826L373.48 256.063L374.906 257.627L376.333 259.547L377.759 261.858L379.185 264.62L380.612 267.918L382.038 271.82L383.464 276.325L390.596 301.146L392.022 304.873L393.449 308.01L399.154 318.904L402.007 325.699L417.696 366.355L420.549 372.876L423.402 378.45L426.254 382.983L429.107 386.697L434.812 393.249L439.091 397.847L441.944 400.465L444.797 402.595L447.649 404.243L450.502 405.46L454.781 406.751L460.486 408.127L464.765 408.827L471.897 409.507L477.602 409.851L487.586 410.071L496.144 410.111" fill="#EFEFEF" fill-opacity="0.4"/>
<path d="M212.305 410.111L223.715 409.966L232.273 409.442L237.979 409.209L245.11 409.035L247.963 408.705L250.816 408.148L255.095 406.93L259.374 405.292L263.653 403.39L266.505 401.877L269.358 399.869L272.211 397.233L280.769 388.473L283.621 385.582L285.048 383.897L286.474 381.967L289.327 377.322L293.606 369.151L296.458 363.836L303.59 351.447L306.442 345.379L310.721 334.859L330.69 285.291L334.969 275.401L342.101 259.556L344.953 252.858L346.38 249.823L347.806 247.238L349.232 245.219L350.659 243.799L352.085 242.94L353.511 242.57L354.938 242.624L356.364 243.062L357.79 243.86L359.217 244.98L364.922 250.494L366.348 251.521L372.054 254.826L373.48 256.063L374.906 257.627L376.333 259.547L377.759 261.858L379.185 264.62L380.612 267.918L382.038 271.82L383.464 276.325L390.596 301.146L392.022 304.873L393.449 308.01L399.154 318.904L402.007 325.699L417.696 366.355L420.549 372.876L423.402 378.45L426.254 382.983L429.107 386.697L434.812 393.249L439.091 397.847L441.944 400.465L444.797 402.595L447.649 404.243L450.502 405.46L454.781 406.751L460.486 408.127L464.765 408.827L471.897 409.507L477.602 409.851L487.586 410.071L496.144 410.111" stroke="#EFEFEF" stroke-linecap="square"/>
</g>
<mask id="mask4_230_14558" style="mask-type:luminance" maskUnits="userSpaceOnUse" x="76" y="55" width="477" height="356">
<path d="M552.957 55.2959H76.7969V410.112H552.957V55.2959Z" fill="white"/>
</mask>
<g mask="url(#mask4_230_14558)">
<path d="M194.008 410.11L212.716 409.941L220.419 409.498L225.921 409.004L235.825 408.469L239.127 407.883L245.729 406.334L250.131 405.797L252.332 405.186L254.533 404.321L257.834 402.663L264.437 399.043L265.537 398.06L267.738 395.492L269.939 392.328L273.241 386.9L278.743 377.152L280.944 372.395L282.044 369.449L283.145 366.02L285.346 357.745L289.748 338.431L295.25 313.776L298.551 296.656L301.853 277.64L307.355 243.483L309.556 232.442L316.159 203.619L318.359 195.028L323.862 174.495L326.063 166.61L327.163 163.404L328.264 160.95L329.364 159.368L330.464 158.667L331.565 158.728L332.665 159.338L334.866 161.329L338.168 164.858L340.369 167.736L342.569 171.427L343.67 173.81L344.77 176.8L345.871 180.636L346.971 185.536L348.072 191.636L349.172 198.96L351.373 216.821L357.976 276.671L361.277 302.586L365.679 334.894L367.88 350.031L370.081 363.105L372.282 373.525L374.483 381.981L376.684 389.156L378.885 394.993L381.085 399.405L383.286 402.646L384.387 403.872L385.487 404.835L386.588 405.554L388.789 406.512L393.19 408.221L395.391 409.014L397.592 409.504L400.894 409.775L411.898 410.108L412.999 410.11" fill="#EFEFEF" fill-opacity="0.4"/>
<path d="M194.008 410.11L212.716 409.941L220.419 409.498L225.921 409.004L235.825 408.469L239.127 407.883L245.729 406.334L250.131 405.797L252.332 405.186L254.533 404.321L257.834 402.663L264.437 399.043L265.537 398.06L267.738 395.492L269.939 392.328L273.241 386.9L278.743 377.152L280.944 372.395L282.044 369.449L283.145 366.02L285.346 357.745L289.748 338.431L295.25 313.776L298.551 296.656L301.853 277.64L307.355 243.483L309.556 232.442L316.159 203.619L318.359 195.028L323.862 174.495L326.063 166.61L327.163 163.404L328.264 160.95L329.364 159.368L330.464 158.667L331.565 158.728L332.665 159.338L334.866 161.329L338.168 164.858L340.369 167.736L342.569 171.427L343.67 173.81L344.77 176.8L345.871 180.636L346.971 185.536L348.072 191.636L349.172 198.96L351.373 216.821L357.976 276.671L361.277 302.586L365.679 334.894L367.88 350.031L370.081 363.105L372.282 373.525L374.483 381.981L376.684 389.156L378.885 394.993L381.085 399.405L383.286 402.646L384.387 403.872L385.487 404.835L386.588 405.554L388.789 406.512L393.19 408.221L395.391 409.014L397.592 409.504L400.894 409.775L411.898 410.108L412.999 410.11" stroke="#EFEFEF" stroke-linecap="square"/>
</g>
<mask id="mask5_230_14558" style="mask-type:luminance" maskUnits="userSpaceOnUse" x="76" y="55" width="477" height="356">
<path d="M552.957 55.2959H76.7969V410.112H552.957V55.2959Z" fill="white"/>
</mask>
<g mask="url(#mask5_230_14558)">
<path d="M209.648 410.111L217.762 409.969L223.171 409.583L239.398 407.768L247.512 405.593L250.217 404.615L252.921 403.148L255.626 401.161L263.739 394.55L265.092 393.121L266.444 391.435L269.148 387.365L277.262 373.832L279.967 368.12L282.671 361.252L285.376 353.036L288.08 343.15L290.785 331.677L296.194 306.412L300.251 286.53L304.307 264.513L312.421 219.391L315.126 205.844L317.83 193.816L321.887 177.838L324.592 168.244L325.944 164.508L327.296 162.111L328.648 161.411L330.001 162.506L331.353 165.167L334.057 172.992L336.762 180.554L339.467 187.41L340.819 191.525L342.171 196.566L343.523 202.633L346.228 217.285L359.751 296.933L362.455 311.825L365.16 325.437L367.864 337.632L370.569 348.289L373.273 357.819L375.978 366.543L378.682 374.307L381.387 381.123L384.092 386.828L385.444 389.119L386.796 391.024L389.501 394.009L394.91 398.976L398.967 402.318L401.671 404.122L404.376 405.411L408.432 406.787L412.489 407.922L415.194 408.366L424.66 409.221L446.296 410.096L463.876 410.063L471.989 410.07L478.751 410.111" fill="#EFEFEF" fill-opacity="0.4"/>
<path d="M209.648 410.111L217.762 409.969L223.171 409.583L239.398 407.768L247.512 405.593L250.217 404.615L252.921 403.148L255.626 401.161L263.739 394.55L265.092 393.121L266.444 391.435L269.148 387.365L277.262 373.832L279.967 368.12L282.671 361.252L285.376 353.036L288.08 343.15L290.785 331.677L296.194 306.412L300.251 286.53L304.307 264.513L312.421 219.391L315.126 205.844L317.83 193.816L321.887 177.838L324.592 168.244L325.944 164.508L327.296 162.111L328.648 161.411L330.001 162.506L331.353 165.167L334.057 172.992L336.762 180.554L339.467 187.41L340.819 191.525L342.171 196.566L343.523 202.633L346.228 217.285L359.751 296.933L362.455 311.825L365.16 325.437L367.864 337.632L370.569 348.289L373.273 357.819L375.978 366.543L378.682 374.307L381.387 381.123L384.092 386.828L385.444 389.119L386.796 391.024L389.501 394.009L394.91 398.976L398.967 402.318L401.671 404.122L404.376 405.411L408.432 406.787L412.489 407.922L415.194 408.366L424.66 409.221L446.296 410.096L463.876 410.063L471.989 410.07L478.751 410.111" stroke="#EFEFEF" stroke-linecap="square"/>
</g>
<mask id="mask6_230_14558" style="mask-type:luminance" maskUnits="userSpaceOnUse" x="76" y="55" width="477" height="356">
<path d="M552.957 55.2959H76.7969V410.112H552.957V55.2959Z" fill="white"/>
</mask>
<g mask="url(#mask6_230_14558)">
<path d="M163.859 410.111L202.176 409.932L211.372 409.773L217.503 409.65L220.568 409.394L225.166 408.624L235.895 406.226L238.96 405.033L242.025 403.25L245.091 400.873L248.156 397.95L251.221 394.459L254.287 390.281L257.352 385.336L258.885 382.506L260.417 379.331L261.95 375.714L263.483 371.594L266.548 361.963L269.613 350.982L272.679 338.841L275.744 325.132L278.809 309.309L281.875 291.135L286.473 262.722L288.005 254.424L289.538 247.171L291.071 240.997L292.603 235.824L294.136 231.533L295.669 228.016L297.201 225.158L298.734 222.81L301.799 218.936L304.865 215.563L306.397 214.263L307.93 213.449L309.463 213.213L310.995 213.497L314.061 214.849L317.126 216.315L318.659 217.313L320.191 218.87L321.724 221.246L323.257 224.545L324.789 228.659L329.387 243.124L333.985 256.931L340.116 274.897L343.181 285.132L349.312 306.892L352.377 315.838L356.975 328.807L361.573 342.745L363.106 346.899L364.639 350.521L366.171 353.591L369.237 358.658L372.302 363.692L375.367 369.538L381.498 381.945L383.031 384.624L384.563 386.999L386.096 389.074L389.162 392.535L392.227 395.47L395.292 398.046L398.358 400.152L402.956 402.646L407.554 404.783L410.619 405.832L418.282 407.896L421.348 408.44L425.946 408.927L430.544 409.185L438.207 409.448L447.403 410.043L456.599 410.041L468.86 410.111" fill="#EFEFEF" fill-opacity="0.4"/>
<path d="M163.859 410.111L202.176 409.932L211.372 409.773L217.503 409.65L220.568 409.394L225.166 408.624L235.895 406.226L238.96 405.033L242.025 403.25L245.091 400.873L248.156 397.95L251.221 394.459L254.287 390.281L257.352 385.336L258.885 382.506L260.417 379.331L261.95 375.714L263.483 371.594L266.548 361.963L269.613 350.982L272.679 338.841L275.744 325.132L278.809 309.309L281.875 291.135L286.473 262.722L288.005 254.424L289.538 247.171L291.071 240.997L292.603 235.824L294.136 231.533L295.669 228.016L297.201 225.158L298.734 222.81L301.799 218.936L304.865 215.563L306.397 214.263L307.93 213.449L309.463 213.213L310.995 213.497L314.061 214.849L317.126 216.315L318.659 217.313L320.191 218.87L321.724 221.246L323.257 224.545L324.789 228.659L329.387 243.124L333.985 256.931L340.116 274.897L343.181 285.132L349.312 306.892L352.377 315.838L356.975 328.807L361.573 342.745L363.106 346.899L364.639 350.521L366.171 353.591L369.237 358.658L372.302 363.692L375.367 369.538L381.498 381.945L383.031 384.624L384.563 386.999L386.096 389.074L389.162 392.535L392.227 395.47L395.292 398.046L398.358 400.152L402.956 402.646L407.554 404.783L410.619 405.832L418.282 407.896L421.348 408.44L425.946 408.927L430.544 409.185L438.207 409.448L447.403 410.043L456.599 410.041L468.86 410.111" stroke="#EFEFEF" stroke-linecap="square"/>
</g>
<mask id="mask7_230_14558" style="mask-type:luminance" maskUnits="userSpaceOnUse" x="76" y="55" width="477" height="356">
<path d="M552.957 55.2959H76.7969V410.112H552.957V55.2959Z" fill="white"/>
</mask>
<g mask="url(#mask7_230_14558)">
<path d="M155.492 410.111L179.664 409.914L182.081 409.742L184.498 409.152L189.333 407.673L192.958 406.67L195.376 405.636L197.793 404.275L200.21 402.563L202.627 400.462L206.253 396.802L207.461 395.213L208.67 393.035L209.879 390.114L212.296 383.263L213.504 380.343L215.922 375.589L217.13 372.67L218.339 368.797L220.756 358.763L224.382 342.095L225.59 335.358L226.799 327.516L229.216 309.084L232.842 277.48L236.468 246.002L238.885 226.566L241.302 204.257L244.928 170.009L250.971 117.257L253.388 98.6741L254.596 90.9488L255.805 84.3855L257.014 78.8902L258.222 74.6306L259.431 72.1924L260.639 72.3332L261.848 75.4904L263.057 81.3931L265.474 97.7663L267.891 116.385L269.099 126.903L270.308 138.729L272.725 166.73L278.768 244.934L281.185 269.085L286.02 312.907L288.437 331.705L292.063 356.06L293.271 363.16L294.48 369.275L295.688 374.293L296.897 378.36L299.314 384.827L302.94 393.196L305.357 397.807L307.774 401.267L310.192 403.831L312.609 405.587L315.026 406.75L317.443 407.566L321.069 408.219L325.903 408.946L333.155 409.726L344.032 410.039L366.995 410.112L396.001 410.111" fill="#EFEFEF" fill-opacity="0.4"/>
<path d="M155.492 410.111L179.664 409.914L182.081 409.742L184.498 409.152L189.333 407.673L192.958 406.67L195.376 405.636L197.793 404.275L200.21 402.563L202.627 400.462L206.253 396.802L207.461 395.213L208.67 393.035L209.879 390.114L212.296 383.263L213.504 380.343L215.922 375.589L217.13 372.67L218.339 368.797L220.756 358.763L224.382 342.095L225.59 335.358L226.799 327.516L229.216 309.084L232.842 277.48L236.468 246.002L238.885 226.566L241.302 204.257L244.928 170.009L250.971 117.257L253.388 98.6741L254.596 90.9488L255.805 84.3855L257.014 78.8902L258.222 74.6306L259.431 72.1924L260.639 72.3332L261.848 75.4904L263.057 81.3931L265.474 97.7663L267.891 116.385L269.099 126.903L270.308 138.729L272.725 166.73L278.768 244.934L281.185 269.085L286.02 312.907L288.437 331.705L292.063 356.06L293.271 363.16L294.48 369.275L295.688 374.293L296.897 378.36L299.314 384.827L302.94 393.196L305.357 397.807L307.774 401.267L310.192 403.831L312.609 405.587L315.026 406.75L317.443 407.566L321.069 408.219L325.903 408.946L333.155 409.726L344.032 410.039L366.995 410.112L396.001 410.111" stroke="#EFEFEF" stroke-linecap="square"/>
</g>
<mask id="mask8_230_14558" style="mask-type:luminance" maskUnits="userSpaceOnUse" x="76" y="55" width="477" height="356">
<path d="M552.957 55.2959H76.7969V410.112H552.957V55.2959Z" fill="white"/>
</mask>
<g mask="url(#mask8_230_14558)">
<path d="M192.133 410.111L214.05 409.943L217.181 409.722L221.356 409.061L226.574 408.3L230.749 407.747L232.836 407.231L234.923 406.455L241.186 403.539L248.491 399.93L250.579 398.242L252.666 396.079L254.753 393.22L255.797 391.372L256.841 389.176L258.928 383.784L262.059 374.279L267.277 357.93L269.365 350.51L271.452 341.681L273.539 331.112L276.67 312.958L285.02 262.857L291.282 219.885L293.369 210.093L297.544 193.825L299.631 186.252L301.719 179.787L303.806 174.355L305.893 169.811L307.981 166.214L309.024 164.88L310.068 163.95L311.112 163.459L312.155 163.375L313.199 163.609L314.243 164.077L315.286 164.773L316.33 165.801L317.374 167.351L318.418 169.615L319.461 172.691L321.549 180.922L326.767 204.645L328.854 215.412L336.16 255.766L338.247 267.645L340.335 281.185L345.553 316.906L347.64 329.008L350.771 344.796L355.99 368.977L358.077 377.347L360.165 383.948L362.252 388.886L364.339 392.896L367.47 398.282L369.558 401.445L371.645 404.049L373.732 405.986L375.82 407.285L377.907 408.069L379.994 408.48L393.562 410L398.78 410.108L399.824 410.111" fill="#EFEFEF" fill-opacity="0.4"/>
<path d="M192.133 410.111L214.05 409.943L217.181 409.722L221.356 409.061L226.574 408.3L230.749 407.747L232.836 407.231L234.923 406.455L241.186 403.539L248.491 399.93L250.579 398.242L252.666 396.079L254.753 393.22L255.797 391.372L256.841 389.176L258.928 383.784L262.059 374.279L267.277 357.93L269.365 350.51L271.452 341.681L273.539 331.112L276.67 312.958L285.02 262.857L291.282 219.885L293.369 210.093L297.544 193.825L299.631 186.252L301.719 179.787L303.806 174.355L305.893 169.811L307.981 166.214L309.024 164.88L310.068 163.95L311.112 163.459L312.155 163.375L313.199 163.609L314.243 164.077L315.286 164.773L316.33 165.801L317.374 167.351L318.418 169.615L319.461 172.691L321.549 180.922L326.767 204.645L328.854 215.412L336.16 255.766L338.247 267.645L340.335 281.185L345.553 316.906L347.64 329.008L350.771 344.796L355.99 368.977L358.077 377.347L360.165 383.948L362.252 388.886L364.339 392.896L367.47 398.282L369.558 401.445L371.645 404.049L373.732 405.986L375.82 407.285L377.907 408.069L379.994 408.48L393.562 410L398.78 410.108L399.824 410.111" stroke="#EFEFEF" stroke-linecap="square"/>
</g>
<mask id="mask9_230_14558" style="mask-type:luminance" maskUnits="userSpaceOnUse" x="76" y="55" width="477" height="356">
<path d="M552.957 55.2959H76.7969V410.112H552.957V55.2959Z" fill="white"/>
</mask>
<g mask="url(#mask9_230_14558)">
<path d="M147.719 410.111L155.849 409.978L162.624 409.559L166.689 409.047L169.399 408.42L172.11 407.428L174.82 406.061L176.175 405.151L177.53 403.993L178.885 402.527L180.24 400.736L182.95 396.278L188.37 385.814L189.725 382.998L191.08 379.792L192.435 375.872L193.79 370.957L195.145 364.985L200.565 337.215L203.276 323.058L205.986 306.662L208.696 287.628L214.116 248.197L218.181 219.93L222.246 191.506L226.311 165.497L229.021 150.312L230.376 144.341L231.731 139.926L233.087 137.266L234.442 136.182L235.797 136.089L238.507 136.499L239.862 136.945L241.217 138.364L242.572 141.495L243.927 146.688L245.282 153.753L247.992 171.13L256.122 227.971L264.253 284.373L266.963 300.79L269.673 315.614L273.738 335.99L276.448 348.453L277.803 353.758L279.158 358.326L281.868 366.17L285.933 377.113L288.643 383.035L292.708 390.792L295.419 396.267L296.774 398.621L298.129 400.508L299.484 401.993L302.194 404.389L303.549 405.404L304.904 406.196L306.259 406.702L307.614 406.948L313.034 407.441L317.099 408.525L319.809 409.14L322.519 409.373L330.65 409.538L338.78 409.808L361.816 410.112L372.656 409.974L378.076 409.987L386.206 410.111L417.372 410.111" fill="#EFEFEF" fill-opacity="0.4"/>
<path d="M147.719 410.111L155.849 409.978L162.624 409.559L166.689 409.047L169.399 408.42L172.11 407.428L174.82 406.061L176.175 405.151L177.53 403.993L178.885 402.527L180.24 400.736L182.95 396.278L188.37 385.814L189.725 382.998L191.08 379.792L192.435 375.872L193.79 370.957L195.145 364.985L200.565 337.215L203.276 323.058L205.986 306.662L208.696 287.628L214.116 248.197L218.181 219.93L222.246 191.506L226.311 165.497L229.021 150.312L230.376 144.341L231.731 139.926L233.087 137.266L234.442 136.182L235.797 136.089L238.507 136.499L239.862 136.945L241.217 138.364L242.572 141.495L243.927 146.688L245.282 153.753L247.992 171.13L256.122 227.971L264.253 284.373L266.963 300.79L269.673 315.614L273.738 335.99L276.448 348.453L277.803 353.758L279.158 358.326L281.868 366.17L285.933 377.113L288.643 383.035L292.708 390.792L295.419 396.267L296.774 398.621L298.129 400.508L299.484 401.993L302.194 404.389L303.549 405.404L304.904 406.196L306.259 406.702L307.614 406.948L313.034 407.441L317.099 408.525L319.809 409.14L322.519 409.373L330.65 409.538L338.78 409.808L361.816 410.112L372.656 409.974L378.076 409.987L386.206 410.111L417.372 410.111" stroke="#EFEFEF" stroke-linecap="square"/>
</g>
<mask id="mask10_230_14558" style="mask-type:luminance" maskUnits="userSpaceOnUse" x="76" y="55" width="477" height="356">
<path d="M552.957 55.2959H76.7969V410.112H552.957V55.2959Z" fill="white"/>
</mask>
<g mask="url(#mask10_230_14558)">
<path d="M171.359 410.111L214.771 409.962L225.624 409.67L231.051 409.186L236.477 408.282L245.521 406.35L249.139 405.367L252.757 404.128L256.374 402.564L259.992 400.547L263.61 397.954L267.227 394.818L272.654 389.474L276.272 385.569L288.933 371.24L294.36 365.366L299.786 358.878L305.213 351.824L308.831 346.756L312.448 341.26L316.066 335.267L330.537 309.942L339.581 293.146L341.39 290.398L343.198 288.005L345.007 285.946L346.816 284.162L350.434 281.162L354.051 278.613L357.669 276.371L361.287 274.437L363.095 273.643L364.904 273.034L366.713 272.678L368.522 272.64L370.331 272.963L372.14 273.67L373.948 274.762L375.757 276.221L377.566 278.018L379.375 280.11L382.993 284.963L386.61 290.385L392.037 299.188L399.272 311.337L408.316 325.76L411.934 332.475L417.36 342.812L420.978 349.071L426.405 357.572L431.831 365.391L435.449 369.961L439.066 373.947L449.919 385.052L453.537 388.269L457.155 390.909L462.581 394.265L469.817 398.745L475.243 402.129L478.861 404.073L482.478 405.553L486.096 406.564L491.522 407.584L498.758 408.675L504.184 409.179L520.464 409.957L529.508 410.105L531.317 410.109" fill="#EFEFEF" fill-opacity="0.4"/>
<path d="M171.359 410.111L214.771 409.962L225.624 409.67L231.051 409.186L236.477 408.282L245.521 406.35L249.139 405.367L252.757 404.128L256.374 402.564L259.992 400.547L263.61 397.954L267.227 394.818L272.654 389.474L276.272 385.569L288.933 371.24L294.36 365.366L299.786 358.878L305.213 351.824L308.831 346.756L312.448 341.26L316.066 335.267L330.537 309.942L339.581 293.146L341.39 290.398L343.198 288.005L345.007 285.946L346.816 284.162L350.434 281.162L354.051 278.613L357.669 276.371L361.287 274.437L363.095 273.643L364.904 273.034L366.713 272.678L368.522 272.64L370.331 272.963L372.14 273.67L373.948 274.762L375.757 276.221L377.566 278.018L379.375 280.11L382.993 284.963L386.61 290.385L392.037 299.188L399.272 311.337L408.316 325.76L411.934 332.475L417.36 342.812L420.978 349.071L426.405 357.572L431.831 365.391L435.449 369.961L439.066 373.947L449.919 385.052L453.537 388.269L457.155 390.909L462.581 394.265L469.817 398.745L475.243 402.129L478.861 404.073L482.478 405.553L486.096 406.564L491.522 407.584L498.758 408.675L504.184 409.179L520.464 409.957L529.508 410.105L531.317 410.109" stroke="#EFEFEF" stroke-linecap="square"/>
</g>
<mask id="mask11_230_14558" style="mask-type:luminance" maskUnits="userSpaceOnUse" x="76" y="55" width="477" height="356">
<path d="M552.957 55.2959H76.7969V410.112H552.957V55.2959Z" fill="white"/>
</mask>
<g mask="url(#mask11_230_14558)">
<path d="M185.211 410.111L214.783 409.966L223.233 409.619L227.457 409.471L235.906 409.359L240.131 408.908L254.213 406.839L265.479 404.599L271.112 402.633L278.153 400.864L280.969 399.306L285.194 396.604L288.01 395.323L290.827 394.181L293.643 392.627L296.459 390.579L302.092 386.193L306.317 383.377L309.133 381.448L310.542 380.283L311.95 378.884L313.358 377.194L314.766 375.191L317.583 370.402L321.807 362.205L324.624 355.859L327.44 348.315L337.297 319.337L347.155 288.933L349.971 278.77L355.604 256.381L362.645 228.514L368.278 207.76L369.686 203.098L371.095 199.066L372.503 195.867L373.911 193.586L375.319 192.184L376.727 191.532L378.136 191.48L379.544 191.91L380.952 192.756L382.36 194L383.768 195.647L385.177 197.715L386.585 200.245L387.993 203.309L389.401 207.017L390.809 211.479L392.218 216.757L393.626 222.827L396.442 236.81L400.667 260.198L404.892 285.704L413.341 339.279L416.157 354.236L418.974 366.526L421.79 376.894L424.606 386.054L427.423 393.916L428.831 397.221L430.239 400.05L431.647 402.389L433.056 404.25L434.464 405.673L435.872 406.722L437.28 407.476L440.097 408.434L444.321 409.32L448.546 409.837L454.179 410.029L465.444 410.111" fill="#EFEFEF" fill-opacity="0.4"/>
<path d="M185.211 410.111L214.783 409.966L223.233 409.619L227.457 409.471L235.906 409.359L240.131 408.908L254.213 406.839L265.479 404.599L271.112 402.633L278.153 400.864L280.969 399.306L285.194 396.604L288.01 395.323L290.827 394.181L293.643 392.627L296.459 390.579L302.092 386.193L306.317 383.377L309.133 381.448L310.542 380.283L311.95 378.884L313.358 377.194L314.766 375.191L317.583 370.402L321.807 362.205L324.624 355.859L327.44 348.315L337.297 319.337L347.155 288.933L349.971 278.77L355.604 256.381L362.645 228.514L368.278 207.76L369.686 203.098L371.095 199.066L372.503 195.867L373.911 193.586L375.319 192.184L376.727 191.532L378.136 191.48L379.544 191.91L380.952 192.756L382.36 194L383.768 195.647L385.177 197.715L386.585 200.245L387.993 203.309L389.401 207.017L390.809 211.479L392.218 216.757L393.626 222.827L396.442 236.81L400.667 260.198L404.892 285.704L413.341 339.279L416.157 354.236L418.974 366.526L421.79 376.894L424.606 386.054L427.423 393.916L428.831 397.221L430.239 400.05L431.647 402.389L433.056 404.25L434.464 405.673L435.872 406.722L437.28 407.476L440.097 408.434L444.321 409.32L448.546 409.837L454.179 410.029L465.444 410.111" stroke="#EFEFEF" stroke-linecap="square"/>
</g>
<mask id="mask12_230_14558" style="mask-type:luminance" maskUnits="userSpaceOnUse" x="76" y="55" width="477" height="356">
<path d="M552.957 55.2959H76.7969V410.112H552.957V55.2959Z" fill="white"/>
</mask>
<g mask="url(#mask12_230_14558)">
<path d="M181.562 410.111L190.035 409.957L206.98 409.083L213.335 408.188L216.512 407.259L220.748 405.637L222.867 404.508L226.044 402.287L231.339 398.197L233.457 396.034L235.575 393.16L237.694 389.5L246.166 372.836L248.284 368.097L250.403 362.358L252.521 355.261L254.639 346.852L257.816 332.708L260.993 317.242L267.348 284.039L270.525 266.427L277.939 223.819L280.057 213.646L282.175 204.733L284.293 196.822L286.411 189.706L288.529 183.423L290.648 178.265L291.707 176.232L292.766 174.626L293.825 173.499L294.884 172.9L295.943 172.866L297.002 173.401L298.061 174.459L299.12 175.956L301.238 179.945L303.356 185.075L306.534 194.284L309.711 203.935L311.829 211.686L313.947 221.018L318.184 241.457L321.361 258.326L326.656 289.723L331.952 319.892L334.07 330.654L336.188 339.677L339.365 350.87L347.838 379.42L349.956 385.132L352.074 389.826L355.251 395.71L357.369 399.225L359.488 402.096L360.547 403.184L362.665 404.723L364.783 405.757L372.197 408.769L374.315 409.297L377.492 409.636L390.201 410.105L392.319 410.111" fill="#EFEFEF" fill-opacity="0.4"/>
<path d="M181.562 410.111L190.035 409.957L206.98 409.083L213.335 408.188L216.512 407.259L220.748 405.637L222.867 404.508L226.044 402.287L231.339 398.197L233.457 396.034L235.575 393.16L237.694 389.5L246.166 372.836L248.284 368.097L250.403 362.358L252.521 355.261L254.639 346.852L257.816 332.708L260.993 317.242L267.348 284.039L270.525 266.427L277.939 223.819L280.057 213.646L282.175 204.733L284.293 196.822L286.411 189.706L288.529 183.423L290.648 178.265L291.707 176.232L292.766 174.626L293.825 173.499L294.884 172.9L295.943 172.866L297.002 173.401L298.061 174.459L299.12 175.956L301.238 179.945L303.356 185.075L306.534 194.284L309.711 203.935L311.829 211.686L313.947 221.018L318.184 241.457L321.361 258.326L326.656 289.723L331.952 319.892L334.07 330.654L336.188 339.677L339.365 350.87L347.838 379.42L349.956 385.132L352.074 389.826L355.251 395.71L357.369 399.225L359.488 402.096L360.547 403.184L362.665 404.723L364.783 405.757L372.197 408.769L374.315 409.297L377.492 409.636L390.201 410.105L392.319 410.111" stroke="#EFEFEF" stroke-linecap="square"/>
</g>
<mask id="mask13_230_14558" style="mask-type:luminance" maskUnits="userSpaceOnUse" x="76" y="55" width="477" height="356">
<path d="M552.957 55.2959H76.7969V410.112H552.957V55.2959Z" fill="white"/>
</mask>
<g mask="url(#mask13_230_14558)">
<path d="M176.305 410.11L189.716 409.973L193.069 409.769L196.421 409.227L209.833 406.08L212.068 404.901L221.009 398.726L222.126 397.659L223.244 396.354L225.479 393L227.714 388.818L232.185 379.357L235.537 371.717L237.773 365.719L240.008 358.771L242.243 350.631L244.478 340.821L248.949 318.037L256.772 278.499L264.595 236.113L266.83 225.849L269.065 216.901L278.006 183.407L279.124 180.442L280.241 178.271L281.359 176.842L282.477 175.963L284.712 174.924L286.947 174.11L288.065 173.928L289.182 174.085L290.3 174.728L291.417 176.006L292.535 178.065L293.653 181.016L294.77 184.87L297.005 194.637L304.829 232.665L309.299 257.678L314.887 288.306L321.593 324.004L323.828 334.522L327.181 348.239L331.651 365.003L333.886 372.078L336.121 377.776L338.357 382.598L340.592 386.977L342.827 390.841L345.062 394.074L347.297 396.798L350.65 400.275L352.885 402.118L355.121 403.441L360.709 406.135L364.061 407.924L366.297 408.612L368.532 408.879L387.531 409.939L396.472 410.106L398.707 410.11" fill="#EFEFEF" fill-opacity="0.4"/>
<path d="M176.305 410.11L189.716 409.973L193.069 409.769L196.421 409.227L209.833 406.08L212.068 404.901L221.009 398.726L222.126 397.659L223.244 396.354L225.479 393L227.714 388.818L232.185 379.357L235.537 371.717L237.773 365.719L240.008 358.771L242.243 350.631L244.478 340.821L248.949 318.037L256.772 278.499L264.595 236.113L266.83 225.849L269.065 216.901L278.006 183.407L279.124 180.442L280.241 178.271L281.359 176.842L282.477 175.963L284.712 174.924L286.947 174.11L288.065 173.928L289.182 174.085L290.3 174.728L291.417 176.006L292.535 178.065L293.653 181.016L294.77 184.87L297.005 194.637L304.829 232.665L309.299 257.678L314.887 288.306L321.593 324.004L323.828 334.522L327.181 348.239L331.651 365.003L333.886 372.078L336.121 377.776L338.357 382.598L340.592 386.977L342.827 390.841L345.062 394.074L347.297 396.798L350.65 400.275L352.885 402.118L355.121 403.441L360.709 406.135L364.061 407.924L366.297 408.612L368.532 408.879L387.531 409.939L396.472 410.106L398.707 410.11" stroke="#EFEFEF" stroke-linecap="square"/>
</g>
<mask id="mask14_230_14558" style="mask-type:luminance" maskUnits="userSpaceOnUse" x="76" y="55" width="477" height="356">
<path d="M552.957 55.2959H76.7969V410.112H552.957V55.2959Z" fill="white"/>
</mask>
<g mask="url(#mask14_230_14558)">
<path d="M98.4375 410.111L138.052 409.939L142.15 409.682L144.882 409.276L146.248 408.914L147.614 408.393L148.981 407.677L150.347 406.749L153.079 404.28L155.811 401.143L158.543 397.51L161.275 393.489L164.007 388.997L165.373 386.421L166.739 383.512L168.105 380.214L170.837 372.393L173.569 362.945L176.301 351.993L179.033 339.939L183.131 320.162L187.229 298.351L194.059 261.734L196.791 247.75L198.157 241.432L199.523 235.857L200.89 231.068L203.622 223.289L207.72 213.512L210.452 207.45L211.818 204.753L213.184 202.49L214.55 200.76L215.916 199.527L217.282 198.649L218.648 197.979L220.014 197.481L221.38 197.256L222.746 197.484L224.112 198.32L225.478 199.82L226.844 201.928L228.21 204.512L230.942 210.546L235.04 220.484L237.772 227.758L239.138 232.124L240.504 237.308L243.236 250.033L247.334 270.085L250.066 281.623L254.165 297.39L262.361 328.202L265.093 338.58L267.825 347.576L270.557 354.944L274.655 364.573L278.753 373.726L281.485 378.983L282.851 381.132L285.583 384.549L288.315 387.733L291.047 391.604L293.779 395.749L296.511 399.293L299.243 402.046L301.976 404.158L304.708 405.673L307.44 406.71L314.27 408.677L317.002 409.343L319.734 409.742L322.466 409.794L332.028 409.308L341.59 409.9L363.447 410.074L370.277 410.111" fill="#7EB0D5" fill-opacity="0.4"/>
<path d="M98.4375 410.111L138.052 409.939L142.15 409.682L144.882 409.276L146.248 408.914L147.614 408.393L148.981 407.677L150.347 406.749L153.079 404.28L155.811 401.143L158.543 397.51L161.275 393.489L164.007 388.997L165.373 386.421L166.739 383.512L168.105 380.214L170.837 372.393L173.569 362.945L176.301 351.993L179.033 339.939L183.131 320.162L187.229 298.351L194.059 261.734L196.791 247.75L198.157 241.432L199.523 235.857L200.89 231.068L203.622 223.289L207.72 213.512L210.452 207.45L211.818 204.753L213.184 202.49L214.55 200.76L215.916 199.527L217.282 198.649L218.648 197.979L220.014 197.481L221.38 197.256L222.746 197.484L224.112 198.32L225.478 199.82L226.844 201.928L228.21 204.512L230.942 210.546L235.04 220.484L237.772 227.758L239.138 232.124L240.504 237.308L243.236 250.033L247.334 270.085L250.066 281.623L254.165 297.39L262.361 328.202L265.093 338.58L267.825 347.576L270.557 354.944L274.655 364.573L278.753 373.726L281.485 378.983L282.851 381.132L285.583 384.549L288.315 387.733L291.047 391.604L293.779 395.749L296.511 399.293L299.243 402.046L301.976 404.158L304.708 405.673L307.44 406.71L314.27 408.677L317.002 409.343L319.734 409.742L322.466 409.794L332.028 409.308L341.59 409.9L363.447 410.074L370.277 410.111" stroke="#7EB0D5" stroke-linecap="square"/>
</g>
<path d="M535.061 411.061C535.646 410.475 535.646 409.525 535.061 408.939L525.515 399.393C524.929 398.808 523.979 398.808 523.393 399.393C522.808 399.979 522.808 400.929 523.393 401.515L531.879 410L523.393 418.485C522.808 419.071 522.808 420.021 523.393 420.607C523.979 421.192 524.929 421.192 525.515 420.607L535.061 411.061ZM79 411.5H534V408.5H79V411.5Z" fill="black"/>
</g>
<defs>
<clipPath id="clip0_230_14558">
<rect width="614.4" height="460.8" fill="white"/>
</clipPath>
</defs>
</svg>
