<svg width="615" height="461" viewBox="0 0 615 461" fill="none" xmlns="http://www.w3.org/2000/svg">
<g clip-path="url(#clip0_230_13998)">
<mask id="mask0_230_13998" style="mask-type:luminance" maskUnits="userSpaceOnUse" x="76" y="55" width="477" height="356">
<path d="M552.957 55.2959H76.7969V410.112H552.957V55.2959Z" fill="white"/>
</mask>
<g mask="url(#mask0_230_13998)">
<path d="M291.188 410.111L310.494 409.954L320.148 409.309L322.561 408.831L324.975 408.068L327.388 407.113L329.801 405.852L331.008 404.984L332.215 403.872L333.421 402.446L334.628 400.629L335.835 398.341L337.041 395.51L338.248 392.098L340.661 383.676L343.075 373.509L344.281 367.669L345.488 361.088L346.695 353.572L349.108 335.459L351.521 314.067L357.555 258.635L359.968 238.579L362.382 220.866L363.588 213.726L364.795 208.156L366.002 204.297L367.208 202.161L368.415 201.701L369.622 202.849L370.828 205.522L372.035 209.617L373.242 215.011L374.448 221.543L376.862 237.095L380.482 261.987L382.895 276.909L385.308 290.037L387.722 301.111L388.928 305.749L391.342 313.363L398.582 332.983L400.995 338.072L408.235 351.479L410.649 355.083L414.269 359.989L416.682 362.511L419.095 364.806L420.302 366.39L421.509 368.445L423.922 373.561L426.335 378.6L428.749 382.583L438.402 395.804L440.816 398.515L443.229 400.595L445.642 401.991L452.882 405.393L456.502 407.025L460.122 408.268L462.536 408.8L466.156 409.128L470.983 409.5L475.809 409.902L480.636 410.009L497.53 410.062L516.836 410.007L530.11 410.109L531.317 410.111" fill="#EFEFEF" fill-opacity="0.4"/>
<path d="M291.188 410.111L310.494 409.954L320.148 409.309L322.561 408.831L324.975 408.068L327.388 407.113L329.801 405.852L331.008 404.984L332.215 403.872L333.421 402.446L334.628 400.629L335.835 398.341L337.041 395.51L338.248 392.098L340.661 383.676L343.075 373.509L344.281 367.669L345.488 361.088L346.695 353.572L349.108 335.459L351.521 314.067L357.555 258.635L359.968 238.579L362.382 220.866L363.588 213.726L364.795 208.156L366.002 204.297L367.208 202.161L368.415 201.701L369.622 202.849L370.828 205.522L372.035 209.617L373.242 215.011L374.448 221.543L376.862 237.095L380.482 261.987L382.895 276.909L385.308 290.037L387.722 301.111L388.928 305.749L391.342 313.363L398.582 332.983L400.995 338.072L408.235 351.479L410.649 355.083L414.269 359.989L416.682 362.511L419.095 364.806L420.302 366.39L421.509 368.445L423.922 373.561L426.335 378.6L428.749 382.583L438.402 395.804L440.816 398.515L443.229 400.595L445.642 401.991L452.882 405.393L456.502 407.025L460.122 408.268L462.536 408.8L466.156 409.128L470.983 409.5L475.809 409.902L480.636 410.009L497.53 410.062L516.836 410.007L530.11 410.109L531.317 410.111" stroke="#EFEFEF" stroke-linecap="square"/>
</g>
<mask id="mask1_230_13998" style="mask-type:luminance" maskUnits="userSpaceOnUse" x="76" y="55" width="477" height="356">
<path d="M552.957 55.2959H76.7969V410.112H552.957V55.2959Z" fill="white"/>
</mask>
<g mask="url(#mask1_230_13998)">
<path d="M326.148 410.111L335.555 409.949L343.08 409.582L345.902 409.247L348.724 408.829L353.427 408.735L355.309 407.981L357.19 407.212L359.071 406.811L362.834 406.216L365.656 405.424L366.596 404.998L367.537 404.335L368.478 403.369L370.359 400.774L375.062 393.899L376.003 392.109L377.884 387.44L379.766 381.738L381.647 375.352L383.528 367.962L385.409 358.761L387.291 347.611L389.172 334.328L391.053 317.75L395.757 270.034L404.222 179.381L405.163 171.663L406.104 165.972L407.044 162.319L407.985 160.117L409.866 156.517L412.688 149.557L413.629 148.831L414.57 149.874L415.51 152.943L416.451 157.951L418.332 172.031L420.214 189.696L423.035 221.771L428.679 287.617L430.561 307.126L432.442 323.726L434.323 337.231L437.145 355.338L439.027 365.548L440.908 373.428L443.73 383.481L445.611 389.103L447.492 393.273L449.374 396.326L455.018 403.699L455.958 404.751L456.899 405.533L458.78 406.438L465.365 408.767L467.246 409.363L469.127 409.664L471.949 409.782L475.712 409.786L481.356 410.1L513.338 410.111" fill="#EFEFEF" fill-opacity="0.4"/>
<path d="M326.148 410.111L335.555 409.949L343.08 409.582L345.902 409.247L348.724 408.829L353.427 408.735L355.309 407.981L357.19 407.212L359.071 406.811L362.834 406.216L365.656 405.424L366.596 404.998L367.537 404.335L368.478 403.369L370.359 400.774L375.062 393.899L376.003 392.109L377.884 387.44L379.766 381.738L381.647 375.352L383.528 367.962L385.409 358.761L387.291 347.611L389.172 334.328L391.053 317.75L395.757 270.034L404.222 179.381L405.163 171.663L406.104 165.972L407.044 162.319L407.985 160.117L409.866 156.517L412.688 149.557L413.629 148.831L414.57 149.874L415.51 152.943L416.451 157.951L418.332 172.031L420.214 189.696L423.035 221.771L428.679 287.617L430.561 307.126L432.442 323.726L434.323 337.231L437.145 355.338L439.027 365.548L440.908 373.428L443.73 383.481L445.611 389.103L447.492 393.273L449.374 396.326L455.018 403.699L455.958 404.751L456.899 405.533L458.78 406.438L465.365 408.767L467.246 409.363L469.127 409.664L471.949 409.782L475.712 409.786L481.356 410.1L513.338 410.111" stroke="#EFEFEF" stroke-linecap="square"/>
</g>
<mask id="mask2_230_13998" style="mask-type:luminance" maskUnits="userSpaceOnUse" x="76" y="55" width="477" height="356">
<path d="M552.957 55.2959H76.7969V410.112H552.957V55.2959Z" fill="white"/>
</mask>
<g mask="url(#mask2_230_13998)">
<path d="M301.422 410.112L322.85 409.977L330.744 409.844L340.894 409.713L346.533 409.27L349.916 408.637L354.427 407.469L356.683 406.571L362.322 403.838L366.833 402.236L369.089 400.923L371.344 399.218L373.6 397.251L375.855 394.937L378.111 392.186L388.261 378.994L390.516 376.907L392.772 374.875L393.9 373.629L395.027 372.133L397.283 368.415L405.177 353.535L407.433 348.538L410.816 339.793L413.072 334.067L414.2 331.673L415.327 329.776L416.455 328.44L417.583 327.63L418.711 327.23L420.966 327.028L426.605 326.824L427.733 326.449L428.861 325.602L429.989 324.096L431.116 321.824L432.244 318.786L433.372 315.072L435.627 306.156L437.883 295.977L441.266 279.17L445.777 256.417L448.033 246.859L450.289 239.208L451.416 236.189L452.544 233.804L453.672 232.142L454.8 231.279L455.927 231.253L457.055 232.071L458.183 233.724L459.311 236.217L460.439 239.587L461.566 243.909L462.694 249.277L463.822 255.769L464.95 263.403L467.205 281.661L472.844 331.972L475.1 349.033L477.355 363.466L479.611 375.606L481.866 385.766L484.122 393.835L485.25 397.035L486.377 399.702L487.505 401.888L488.633 403.653L489.761 405.057L490.889 406.158L492.016 407.007L494.272 408.152L496.527 408.844L499.911 409.482L503.294 409.826L507.805 409.974L525.85 410.111" fill="#EFEFEF" fill-opacity="0.4"/>
<path d="M301.422 410.112L322.85 409.977L330.744 409.844L340.894 409.713L346.533 409.27L349.916 408.637L354.427 407.469L356.683 406.571L362.322 403.838L366.833 402.236L369.089 400.923L371.344 399.218L373.6 397.251L375.855 394.937L378.111 392.186L388.261 378.994L390.516 376.907L392.772 374.875L393.9 373.629L395.027 372.133L397.283 368.415L405.177 353.535L407.433 348.538L410.816 339.793L413.072 334.067L414.2 331.673L415.327 329.776L416.455 328.44L417.583 327.63L418.711 327.23L420.966 327.028L426.605 326.824L427.733 326.449L428.861 325.602L429.989 324.096L431.116 321.824L432.244 318.786L433.372 315.072L435.627 306.156L437.883 295.977L441.266 279.17L445.777 256.417L448.033 246.859L450.289 239.208L451.416 236.189L452.544 233.804L453.672 232.142L454.8 231.279L455.927 231.253L457.055 232.071L458.183 233.724L459.311 236.217L460.439 239.587L461.566 243.909L462.694 249.277L463.822 255.769L464.95 263.403L467.205 281.661L472.844 331.972L475.1 349.033L477.355 363.466L479.611 375.606L481.866 385.766L484.122 393.835L485.25 397.035L486.377 399.702L487.505 401.888L488.633 403.653L489.761 405.057L490.889 406.158L492.016 407.007L494.272 408.152L496.527 408.844L499.911 409.482L503.294 409.826L507.805 409.974L525.85 410.111" stroke="#EFEFEF" stroke-linecap="square"/>
</g>
<mask id="mask3_230_13998" style="mask-type:luminance" maskUnits="userSpaceOnUse" x="76" y="55" width="477" height="356">
<path d="M552.957 55.2959H76.7969V410.112H552.957V55.2959Z" fill="white"/>
</mask>
<g mask="url(#mask3_230_13998)">
<path d="M297.039 410.112L306.952 409.961L314.662 409.882L322.372 409.919L332.284 409.376L335.588 408.987L337.791 408.481L339.994 407.654L342.197 406.404L344.4 404.638L347.704 401.266L349.907 398.709L351.008 397.18L352.11 395.346L353.211 393.133L354.312 390.509L356.515 384.049L358.718 375.999L360.921 366.34L363.124 355.091L366.428 335.849L371.935 302.709L374.138 290.666L376.341 279.942L378.543 270.516L380.746 262.432L382.949 255.702L387.355 244.071L389.558 238.548L390.659 236.183L391.76 234.354L392.862 233.28L393.963 233.114L395.065 233.877L396.166 235.439L397.267 237.579L399.47 242.799L401.673 248.916L403.876 256.456L406.079 265.492L421.498 331.287L423.701 338.613L425.904 344.891L432.513 362.16L435.817 370.319L438.02 374.741L441.324 380.118L447.932 390.667L450.135 393.129L453.439 396.781L456.744 400.63L458.946 402.48L461.149 403.653L468.859 406.9L471.062 407.788L473.265 408.405L476.569 408.934L479.873 409.262L487.583 409.706L490.887 409.877L497.496 409.834L503.003 409.843L514.017 410.108L516.22 410.112" fill="#EFEFEF" fill-opacity="0.4"/>
<path d="M297.039 410.112L306.952 409.961L314.662 409.882L322.372 409.919L332.284 409.376L335.588 408.987L337.791 408.481L339.994 407.654L342.197 406.404L344.4 404.638L347.704 401.266L349.907 398.709L351.008 397.18L352.11 395.346L353.211 393.133L354.312 390.509L356.515 384.049L358.718 375.999L360.921 366.34L363.124 355.091L366.428 335.849L371.935 302.709L374.138 290.666L376.341 279.942L378.543 270.516L380.746 262.432L382.949 255.702L387.355 244.071L389.558 238.548L390.659 236.183L391.76 234.354L392.862 233.28L393.963 233.114L395.065 233.877L396.166 235.439L397.267 237.579L399.47 242.799L401.673 248.916L403.876 256.456L406.079 265.492L421.498 331.287L423.701 338.613L425.904 344.891L432.513 362.16L435.817 370.319L438.02 374.741L441.324 380.118L447.932 390.667L450.135 393.129L453.439 396.781L456.744 400.63L458.946 402.48L461.149 403.653L468.859 406.9L471.062 407.788L473.265 408.405L476.569 408.934L479.873 409.262L487.583 409.706L490.887 409.877L497.496 409.834L503.003 409.843L514.017 410.108L516.22 410.112" stroke="#EFEFEF" stroke-linecap="square"/>
</g>
<mask id="mask4_230_13998" style="mask-type:luminance" maskUnits="userSpaceOnUse" x="76" y="55" width="477" height="356">
<path d="M552.957 55.2959H76.7969V410.112H552.957V55.2959Z" fill="white"/>
</mask>
<g mask="url(#mask4_230_13998)">
<path d="M310.039 410.111L315.539 409.99L320.122 409.864L325.622 409.757L330.205 409.645L335.705 409.756L339.371 409.661L342.121 409.361L344.871 409.467L347.621 409.49L349.454 409.303L353.121 408.468L358.62 407.405L361.37 407.305L363.203 407.138L365.037 406.521L367.787 405.246L369.62 404.849L371.453 404.695L372.37 404.462L373.286 404.026L375.12 402.653L376.953 401.277L380.619 399.154L381.536 398.255L382.453 397.091L383.369 395.609L384.286 393.732L385.202 391.409L387.036 385.664L392.535 366.501L393.452 362.766L395.285 353.281L401.702 313.494L403.535 299.368L406.285 274.497L409.035 249.917L413.618 213.093L416.368 189.748L418.201 175.924L420.034 164.31L420.951 159.639L421.867 155.907L422.784 153.254L423.701 151.761L424.617 151.422L425.534 152.25L426.451 154.405L427.367 158.139L428.284 163.529L430.117 177.57L434.7 214.017L436.533 234.822L441.117 291.242L442.95 311.959L444.783 329.674L448.45 360.203L450.283 373.452L452.116 384.487L453.949 393.119L454.866 396.406L455.783 399.037L456.699 401.123L457.616 402.797L459.449 405.264L461.282 406.865L463.116 407.889L464.949 408.528L467.699 409.052L473.199 409.681L483.281 410.058L489.698 410.094L492.448 410.111" fill="#EFEFEF" fill-opacity="0.4"/>
<path d="M310.039 410.111L315.539 409.99L320.122 409.864L325.622 409.757L330.205 409.645L335.705 409.756L339.371 409.661L342.121 409.361L344.871 409.467L347.621 409.49L349.454 409.303L353.121 408.468L358.62 407.405L361.37 407.305L363.203 407.138L365.037 406.521L367.787 405.246L369.62 404.849L371.453 404.695L372.37 404.462L373.286 404.026L375.12 402.653L376.953 401.277L380.619 399.154L381.536 398.255L382.453 397.091L383.369 395.609L384.286 393.732L385.202 391.409L387.036 385.664L392.535 366.501L393.452 362.766L395.285 353.281L401.702 313.494L403.535 299.368L406.285 274.497L409.035 249.917L413.618 213.093L416.368 189.748L418.201 175.924L420.034 164.31L420.951 159.639L421.867 155.907L422.784 153.254L423.701 151.761L424.617 151.422L425.534 152.25L426.451 154.405L427.367 158.139L428.284 163.529L430.117 177.57L434.7 214.017L436.533 234.822L441.117 291.242L442.95 311.959L444.783 329.674L448.45 360.203L450.283 373.452L452.116 384.487L453.949 393.119L454.866 396.406L455.783 399.037L456.699 401.123L457.616 402.797L459.449 405.264L461.282 406.865L463.116 407.889L464.949 408.528L467.699 409.052L473.199 409.681L483.281 410.058L489.698 410.094L492.448 410.111" stroke="#EFEFEF" stroke-linecap="square"/>
</g>
<mask id="mask5_230_13998" style="mask-type:luminance" maskUnits="userSpaceOnUse" x="76" y="55" width="477" height="356">
<path d="M552.957 55.2959H76.7969V410.112H552.957V55.2959Z" fill="white"/>
</mask>
<g mask="url(#mask5_230_13998)">
<path d="M301.398 410.111L310.441 409.966L319.484 409.658L322.875 409.172L325.136 408.646L327.396 407.766L329.657 406.35L331.918 404.422L334.179 401.889L335.309 400.245L336.439 398.259L337.57 395.906L339.83 390.209L342.091 383.502L344.352 375.551L345.482 370.802L347.743 359.317L350.004 345.493L352.264 330.061L354.525 313.014L356.786 293.832L360.177 263.505L362.437 246.345L363.568 239.307L365.828 227.913L366.959 223.376L368.089 219.671L369.219 216.948L370.35 215.315L371.48 214.729L372.611 214.975L373.741 215.781L374.871 216.986L376.002 218.653L377.132 221.024L378.262 224.353L379.393 228.714L381.653 239.613L385.044 256.317L388.435 270.89L398.609 311.803L402 325.17L405.391 337.168L408.782 347.902L412.173 358.028L414.433 363.851L416.694 368.265L420.085 373.473L423.476 378.338L429.128 385.604L431.389 388.637L433.649 390.964L438.171 394.831L443.823 400.182L446.083 401.689L448.344 402.669L463.039 407.624L466.43 408.367L469.821 408.787L483.385 409.845L490.167 410.044L526.338 410.111" fill="#EFEFEF" fill-opacity="0.4"/>
<path d="M301.398 410.111L310.441 409.966L319.484 409.658L322.875 409.172L325.136 408.646L327.396 407.766L329.657 406.35L331.918 404.422L334.179 401.889L335.309 400.245L336.439 398.259L337.57 395.906L339.83 390.209L342.091 383.502L344.352 375.551L345.482 370.802L347.743 359.317L350.004 345.493L352.264 330.061L354.525 313.014L356.786 293.832L360.177 263.505L362.437 246.345L363.568 239.307L365.828 227.913L366.959 223.376L368.089 219.671L369.219 216.948L370.35 215.315L371.48 214.729L372.611 214.975L373.741 215.781L374.871 216.986L376.002 218.653L377.132 221.024L378.262 224.353L379.393 228.714L381.653 239.613L385.044 256.317L388.435 270.89L398.609 311.803L402 325.17L405.391 337.168L408.782 347.902L412.173 358.028L414.433 363.851L416.694 368.265L420.085 373.473L423.476 378.338L429.128 385.604L431.389 388.637L433.649 390.964L438.171 394.831L443.823 400.182L446.083 401.689L448.344 402.669L463.039 407.624L466.43 408.367L469.821 408.787L483.385 409.845L490.167 410.044L526.338 410.111" stroke="#EFEFEF" stroke-linecap="square"/>
</g>
<mask id="mask6_230_13998" style="mask-type:luminance" maskUnits="userSpaceOnUse" x="76" y="55" width="477" height="356">
<path d="M552.957 55.2959H76.7969V410.112H552.957V55.2959Z" fill="white"/>
</mask>
<g mask="url(#mask6_230_13998)">
<path d="M297.031 410.111L308.338 409.973L317.384 409.554L319.646 409.316L323.038 408.55L326.43 407.398L328.691 406.18L329.822 405.328L332.083 403.049L334.345 400.036L336.606 396.261L338.868 391.407L341.129 385.156L343.391 377.305L345.652 367.671L347.913 356.556L350.175 344.377L352.436 330.688L360.351 278.741L364.874 252.526L367.136 241.255L369.397 231.681L371.658 223.604L372.789 220.185L373.92 217.338L375.051 215.3L376.181 214.342L377.312 214.659L378.443 216.258L379.573 218.934L381.835 226.256L384.096 234.831L386.358 244.721L388.619 256.423L396.534 300.71L399.926 317.409L402.188 327.091L404.449 335.71L406.711 343.466L408.972 350.219L413.495 362.293L415.756 367.44L418.018 371.763L422.541 379.595L427.063 386.715L429.325 389.634L431.586 391.833L433.848 393.461L440.632 397.295L445.155 399.577L449.678 401.969L456.462 405.962L458.723 406.712L462.116 407.356L466.638 408.205L471.161 409.22L474.553 409.565L479.076 409.614L485.86 409.615L494.906 410.007L514.128 410.057L522.043 410.111" fill="#EFEFEF" fill-opacity="0.4"/>
<path d="M297.031 410.111L308.338 409.973L317.384 409.554L319.646 409.316L323.038 408.55L326.43 407.398L328.691 406.18L329.822 405.328L332.083 403.049L334.345 400.036L336.606 396.261L338.868 391.407L341.129 385.156L343.391 377.305L345.652 367.671L347.913 356.556L350.175 344.377L352.436 330.688L360.351 278.741L364.874 252.526L367.136 241.255L369.397 231.681L371.658 223.604L372.789 220.185L373.92 217.338L375.051 215.3L376.181 214.342L377.312 214.659L378.443 216.258L379.573 218.934L381.835 226.256L384.096 234.831L386.358 244.721L388.619 256.423L396.534 300.71L399.926 317.409L402.188 327.091L404.449 335.71L406.711 343.466L408.972 350.219L413.495 362.293L415.756 367.44L418.018 371.763L422.541 379.595L427.063 386.715L429.325 389.634L431.586 391.833L433.848 393.461L440.632 397.295L445.155 399.577L449.678 401.969L456.462 405.962L458.723 406.712L462.116 407.356L466.638 408.205L471.161 409.22L474.553 409.565L479.076 409.614L485.86 409.615L494.906 410.007L514.128 410.057L522.043 410.111" stroke="#EFEFEF" stroke-linecap="square"/>
</g>
<mask id="mask7_230_13998" style="mask-type:luminance" maskUnits="userSpaceOnUse" x="76" y="55" width="477" height="356">
<path d="M552.957 55.2959H76.7969V410.112H552.957V55.2959Z" fill="white"/>
</mask>
<g mask="url(#mask7_230_13998)">
<path d="M274.352 410.112L287.704 409.958L293.773 409.652L299.843 408.974L304.698 408.228L307.126 407.533L309.553 406.509L311.981 405.123L314.409 403.257L316.837 400.703L319.264 397.433L322.906 391.717L325.334 387.416L327.761 382.415L330.189 376.666L332.617 370.334L335.045 363.325L337.472 355.134L339.9 345.485L345.969 319.675L349.611 305.997L352.039 297.588L354.466 290.345L356.894 284.575L359.322 279.971L361.749 276.393L362.963 275.021L364.177 273.95L365.391 273.203L366.605 272.807L367.819 272.763L369.033 273.032L371.46 274.179L373.888 275.692L375.102 276.612L376.316 277.755L377.53 279.222L378.743 281.079L379.957 283.332L382.385 288.723L386.027 297.119L388.454 301.936L390.882 306.543L393.31 311.843L398.165 323.648L410.304 349.3L415.159 358.932L418.801 366.941L422.442 374.884L424.87 379.079L427.298 382.289L432.153 387.74L438.223 394.371L440.65 397.082L443.078 399.355L445.506 401.068L455.217 406.843L457.644 407.748L460.072 408.277L463.714 408.721L478.28 409.82L484.349 409.975L507.413 410.075L515.91 410.112" fill="#EFEFEF" fill-opacity="0.4"/>
<path d="M274.352 410.112L287.704 409.958L293.773 409.652L299.843 408.974L304.698 408.228L307.126 407.533L309.553 406.509L311.981 405.123L314.409 403.257L316.837 400.703L319.264 397.433L322.906 391.717L325.334 387.416L327.761 382.415L330.189 376.666L332.617 370.334L335.045 363.325L337.472 355.134L339.9 345.485L345.969 319.675L349.611 305.997L352.039 297.588L354.466 290.345L356.894 284.575L359.322 279.971L361.749 276.393L362.963 275.021L364.177 273.95L365.391 273.203L366.605 272.807L367.819 272.763L369.033 273.032L371.46 274.179L373.888 275.692L375.102 276.612L376.316 277.755L377.53 279.222L378.743 281.079L379.957 283.332L382.385 288.723L386.027 297.119L388.454 301.936L390.882 306.543L393.31 311.843L398.165 323.648L410.304 349.3L415.159 358.932L418.801 366.941L422.442 374.884L424.87 379.079L427.298 382.289L432.153 387.74L438.223 394.371L440.65 397.082L443.078 399.355L445.506 401.068L455.217 406.843L457.644 407.748L460.072 408.277L463.714 408.721L478.28 409.82L484.349 409.975L507.413 410.075L515.91 410.112" stroke="#EFEFEF" stroke-linecap="square"/>
</g>
<mask id="mask8_230_13998" style="mask-type:luminance" maskUnits="userSpaceOnUse" x="76" y="55" width="477" height="356">
<path d="M552.957 55.2959H76.7969V410.112H552.957V55.2959Z" fill="white"/>
</mask>
<g mask="url(#mask8_230_13998)">
<path d="M304.43 410.111L324.999 409.963L330.412 409.62L333.659 409.469L341.237 409.332L346.65 409.049L354.228 407.986L357.476 406.962L359.641 406.774L361.806 406.758L363.971 406.26L368.302 405.035L369.384 404.474L370.467 403.666L375.88 398.483L376.962 397.216L381.293 391.278L383.458 388.628L384.54 386.809L385.623 384.528L387.788 378.804L389.953 371.707L392.118 364.436L394.284 358.428L396.449 352.474L398.614 345.227L400.779 336.888L401.862 332.109L402.944 326.597L405.109 313.418L407.275 299.592L411.605 274.678L412.688 266.565L414.853 246.406L417.018 225.53L418.1 216.814L419.183 209.608L423.513 185.81L425.678 175.088L426.761 170.874L427.844 167.735L428.926 165.948L430.009 165.675L431.091 166.912L432.174 169.634L433.256 173.9L434.339 179.839L435.422 187.565L436.504 197.105L438.669 220.417L449.495 343.425L451.66 362.7L452.743 370.738L453.825 377.66L454.908 383.56L455.991 388.606L457.073 392.936L458.156 396.601L459.238 399.58L460.321 401.871L461.403 403.559L462.486 404.802L464.651 406.564L466.816 407.79L468.982 408.62L471.147 409.174L474.394 409.647L479.807 409.954L485.22 409.981L489.551 409.834L498.211 410.039L504.707 409.982L519.863 410.11" fill="#EFEFEF" fill-opacity="0.4"/>
<path d="M304.43 410.111L324.999 409.963L330.412 409.62L333.659 409.469L341.237 409.332L346.65 409.049L354.228 407.986L357.476 406.962L359.641 406.774L361.806 406.758L363.971 406.26L368.302 405.035L369.384 404.474L370.467 403.666L375.88 398.483L376.962 397.216L381.293 391.278L383.458 388.628L384.54 386.809L385.623 384.528L387.788 378.804L389.953 371.707L392.118 364.436L394.284 358.428L396.449 352.474L398.614 345.227L400.779 336.888L401.862 332.109L402.944 326.597L405.109 313.418L407.275 299.592L411.605 274.678L412.688 266.565L414.853 246.406L417.018 225.53L418.1 216.814L419.183 209.608L423.513 185.81L425.678 175.088L426.761 170.874L427.844 167.735L428.926 165.948L430.009 165.675L431.091 166.912L432.174 169.634L433.256 173.9L434.339 179.839L435.422 187.565L436.504 197.105L438.669 220.417L449.495 343.425L451.66 362.7L452.743 370.738L453.825 377.66L454.908 383.56L455.991 388.606L457.073 392.936L458.156 396.601L459.238 399.58L460.321 401.871L461.403 403.559L462.486 404.802L464.651 406.564L466.816 407.79L468.982 408.62L471.147 409.174L474.394 409.647L479.807 409.954L485.22 409.981L489.551 409.834L498.211 410.039L504.707 409.982L519.863 410.11" stroke="#EFEFEF" stroke-linecap="square"/>
</g>
<mask id="mask9_230_13998" style="mask-type:luminance" maskUnits="userSpaceOnUse" x="76" y="55" width="477" height="356">
<path d="M552.957 55.2959H76.7969V410.112H552.957V55.2959Z" fill="white"/>
</mask>
<g mask="url(#mask9_230_13998)">
<path d="M268.109 410.112L292.236 409.96L297.316 409.676L306.204 409.018L310.014 408.611L312.554 408.021L315.093 407.156L318.903 405.522L321.443 404.151L323.982 402.29L326.522 399.781L329.062 396.73L332.871 391.608L336.681 386.004L339.22 381.652L341.76 376.659L346.839 366.38L350.649 358.608L354.458 349.689L362.077 331.084L367.157 317.95L369.696 312.535L374.776 303.299L378.585 296.574L379.855 294.712L381.125 293.185L382.395 292.03L383.665 291.251L384.934 290.823L386.204 290.695L388.744 291.041L392.553 291.796L395.093 291.914L397.633 291.938L398.903 292.097L400.172 292.47L401.442 293.132L402.712 294.127L403.982 295.466L405.252 297.127L407.791 301.222L411.601 308.357L417.95 320.623L421.76 328.972L428.109 344.059L434.458 358.99L436.998 364.307L439.537 368.923L452.236 389.813L454.775 392.912L459.855 398.138L462.394 400.594L464.934 402.613L467.474 404.048L471.283 405.631L475.093 407.006L478.902 408.082L482.712 408.93L486.521 409.444L491.601 409.648L520.807 410.112" fill="#EFEFEF" fill-opacity="0.4"/>
<path d="M268.109 410.112L292.236 409.96L297.316 409.676L306.204 409.018L310.014 408.611L312.554 408.021L315.093 407.156L318.903 405.522L321.443 404.151L323.982 402.29L326.522 399.781L329.062 396.73L332.871 391.608L336.681 386.004L339.22 381.652L341.76 376.659L346.839 366.38L350.649 358.608L354.458 349.689L362.077 331.084L367.157 317.95L369.696 312.535L374.776 303.299L378.585 296.574L379.855 294.712L381.125 293.185L382.395 292.03L383.665 291.251L384.934 290.823L386.204 290.695L388.744 291.041L392.553 291.796L395.093 291.914L397.633 291.938L398.903 292.097L400.172 292.47L401.442 293.132L402.712 294.127L403.982 295.466L405.252 297.127L407.791 301.222L411.601 308.357L417.95 320.623L421.76 328.972L428.109 344.059L434.458 358.99L436.998 364.307L439.537 368.923L452.236 389.813L454.775 392.912L459.855 398.138L462.394 400.594L464.934 402.613L467.474 404.048L471.283 405.631L475.093 407.006L478.902 408.082L482.712 408.93L486.521 409.444L491.601 409.648L520.807 410.112" stroke="#EFEFEF" stroke-linecap="square"/>
</g>
<mask id="mask10_230_13998" style="mask-type:luminance" maskUnits="userSpaceOnUse" x="76" y="55" width="477" height="356">
<path d="M552.957 55.2959H76.7969V410.112H552.957V55.2959Z" fill="white"/>
</mask>
<g mask="url(#mask10_230_13998)">
<path d="M310.305 410.111L322.06 409.974L327.937 409.611L331.855 408.908L333.815 408.441L335.774 407.724L338.713 406.41L339.692 405.857L340.672 405.117L341.651 404.122L343.61 401.372L345.57 397.954L347.529 394.149L349.488 389.569L350.468 386.698L351.447 383.308L353.406 374.875L355.365 364.376L357.325 351.754L359.284 336.669L361.243 319.122L369.08 243.41L371.039 227.639L372.998 215.557L374.957 206.307L376.916 198.539L377.896 195.824L378.875 194.441L379.855 194.45L380.835 195.485L383.773 199.696L385.733 202.324L386.712 204.198L387.692 206.739L388.671 210.101L389.651 214.365L391.61 225.316L396.508 256.254L398.467 266.442L400.426 276.156L402.385 287.953L406.304 315.2L408.263 325.932L410.222 334.693L414.14 350.535L417.079 361.7L419.038 368.095L420.997 372.868L424.916 381.307L426.875 385.395L428.834 388.624L431.773 393.24L434.712 397.854L436.671 400.283L438.63 402.225L441.569 404.587L443.528 405.958L445.487 407.018L447.446 407.752L449.405 408.211L453.324 408.551L457.242 409.083L461.16 409.684L464.099 409.782L468.997 409.837L475.854 410.095L483.691 410.024L488.589 409.919L494.466 410.071L502.303 410.098L505.242 410.111" fill="#EFEFEF" fill-opacity="0.4"/>
<path d="M310.305 410.111L322.06 409.974L327.937 409.611L331.855 408.908L333.815 408.441L335.774 407.724L338.713 406.41L339.692 405.857L340.672 405.117L341.651 404.122L343.61 401.372L345.57 397.954L347.529 394.149L349.488 389.569L350.468 386.698L351.447 383.308L353.406 374.875L355.365 364.376L357.325 351.754L359.284 336.669L361.243 319.122L369.08 243.41L371.039 227.639L372.998 215.557L374.957 206.307L376.916 198.539L377.896 195.824L378.875 194.441L379.855 194.45L380.835 195.485L383.773 199.696L385.733 202.324L386.712 204.198L387.692 206.739L388.671 210.101L389.651 214.365L391.61 225.316L396.508 256.254L398.467 266.442L400.426 276.156L402.385 287.953L406.304 315.2L408.263 325.932L410.222 334.693L414.14 350.535L417.079 361.7L419.038 368.095L420.997 372.868L424.916 381.307L426.875 385.395L428.834 388.624L431.773 393.24L434.712 397.854L436.671 400.283L438.63 402.225L441.569 404.587L443.528 405.958L445.487 407.018L447.446 407.752L449.405 408.211L453.324 408.551L457.242 409.083L461.16 409.684L464.099 409.782L468.997 409.837L475.854 410.095L483.691 410.024L488.589 409.919L494.466 410.071L502.303 410.098L505.242 410.111" stroke="#EFEFEF" stroke-linecap="square"/>
</g>
<mask id="mask11_230_13998" style="mask-type:luminance" maskUnits="userSpaceOnUse" x="76" y="55" width="477" height="356">
<path d="M552.957 55.2959H76.7969V410.112H552.957V55.2959Z" fill="white"/>
</mask>
<g mask="url(#mask11_230_13998)">
<path d="M327.688 410.111L331.457 410.009L336.17 409.752L338.997 409.761L343.71 409.426L349.365 409.017L352.192 409.05L356.904 408.849L359.732 408.148L364.444 406.413L366.329 406.217L367.272 406.124L368.214 405.853L369.157 405.384L371.042 403.921L372.927 401.855L373.869 400.561L375.754 397.07L378.581 390.978L380.466 386.013L382.351 379.999L383.294 376.362L384.236 371.926L386.121 360.29L391.776 320.366L392.719 311.921L393.661 301.753L395.546 276.607L397.431 246.73L400.258 194.976L403.086 136.394L404.971 100.383L405.913 88.3796L406.856 81.1413L407.798 77.539L409.683 73.7043L410.626 72.1924L411.568 73.0653L412.511 77.937L413.453 86.4607L415.338 109.067L416.281 122.509L418.166 155.877L422.878 250.857L424.763 281.19L427.59 320.999L429.475 343.301L431.36 359.729L433.245 372.404L435.13 382.057L436.073 385.943L437.015 389.142L438.9 393.819L440.785 397.49L444.555 403.813L445.497 405.11L446.44 406.09L447.382 406.728L448.325 407.072L451.152 407.71L453.98 408.739L457.75 409.357L460.577 409.547L466.232 409.928L470.944 409.644L474.714 409.953L477.542 410.035L481.312 410.057L485.082 410.052L488.852 410.048L492.621 410.031L496.391 410.069L502.989 410.112L515.241 410.111" fill="#EFEFEF" fill-opacity="0.4"/>
<path d="M327.688 410.111L331.457 410.009L336.17 409.752L338.997 409.761L343.71 409.426L349.365 409.017L352.192 409.05L356.904 408.849L359.732 408.148L364.444 406.413L366.329 406.217L367.272 406.124L368.214 405.853L369.157 405.384L371.042 403.921L372.927 401.855L373.869 400.561L375.754 397.07L378.581 390.978L380.466 386.013L382.351 379.999L383.294 376.362L384.236 371.926L386.121 360.29L391.776 320.366L392.719 311.921L393.661 301.753L395.546 276.607L397.431 246.73L400.258 194.976L403.086 136.394L404.971 100.383L405.913 88.3796L406.856 81.1413L407.798 77.539L409.683 73.7043L410.626 72.1924L411.568 73.0653L412.511 77.937L413.453 86.4607L415.338 109.067L416.281 122.509L418.166 155.877L422.878 250.857L424.763 281.19L427.59 320.999L429.475 343.301L431.36 359.729L433.245 372.404L435.13 382.057L436.073 385.943L437.015 389.142L438.9 393.819L440.785 397.49L444.555 403.813L445.497 405.11L446.44 406.09L447.382 406.728L448.325 407.072L451.152 407.71L453.98 408.739L457.75 409.357L460.577 409.547L466.232 409.928L470.944 409.644L474.714 409.953L477.542 410.035L481.312 410.057L485.082 410.052L488.852 410.048L492.621 410.031L496.391 410.069L502.989 410.112L515.241 410.111" stroke="#EFEFEF" stroke-linecap="square"/>
</g>
<mask id="mask12_230_13998" style="mask-type:luminance" maskUnits="userSpaceOnUse" x="76" y="55" width="477" height="356">
<path d="M552.957 55.2959H76.7969V410.112H552.957V55.2959Z" fill="white"/>
</mask>
<g mask="url(#mask12_230_13998)">
<path d="M298.109 410.111L330.75 409.921L335.252 409.745L343.131 409.263L346.508 409.092L351.01 408.585L353.261 407.911L358.889 405.443L361.14 404.104L363.391 402.114L365.642 399.505L367.893 396.063L370.144 391.66L372.395 386.711L374.646 380.956L375.772 377.438L378.023 368.811L380.274 358.552L387.027 325.293L389.278 312.965L391.529 298.4L396.032 266.086L398.283 252.947L400.534 242.256L405.036 222.918L406.162 218.811L407.287 215.486L408.413 213.26L409.538 212.265L410.664 212.296L411.789 212.915L414.04 214.757L415.166 216.136L416.291 218.138L417.417 220.822L418.543 224.087L419.668 227.867L420.794 232.285L421.919 237.588L423.045 243.932L425.296 259.105L427.547 274.79L429.798 288.32L438.802 335.465L443.304 357.539L445.556 366.562L447.807 373.893L450.058 380.245L453.434 388.725L455.685 393.35L457.937 397.009L459.062 398.501L460.188 399.734L462.439 401.542L464.69 403.195L468.066 405.837L469.192 406.452L471.443 407.227L477.071 408.665L480.447 409.116L490.577 409.874L496.205 409.956L505.209 410.003L510.837 409.977L515.339 409.94L522.092 410.11" fill="#EFEFEF" fill-opacity="0.4"/>
<path d="M298.109 410.111L330.75 409.921L335.252 409.745L343.131 409.263L346.508 409.092L351.01 408.585L353.261 407.911L358.889 405.443L361.14 404.104L363.391 402.114L365.642 399.505L367.893 396.063L370.144 391.66L372.395 386.711L374.646 380.956L375.772 377.438L378.023 368.811L380.274 358.552L387.027 325.293L389.278 312.965L391.529 298.4L396.032 266.086L398.283 252.947L400.534 242.256L405.036 222.918L406.162 218.811L407.287 215.486L408.413 213.26L409.538 212.265L410.664 212.296L411.789 212.915L414.04 214.757L415.166 216.136L416.291 218.138L417.417 220.822L418.543 224.087L419.668 227.867L420.794 232.285L421.919 237.588L423.045 243.932L425.296 259.105L427.547 274.79L429.798 288.32L438.802 335.465L443.304 357.539L445.556 366.562L447.807 373.893L450.058 380.245L453.434 388.725L455.685 393.35L457.937 397.009L459.062 398.501L460.188 399.734L462.439 401.542L464.69 403.195L468.066 405.837L469.192 406.452L471.443 407.227L477.071 408.665L480.447 409.116L490.577 409.874L496.205 409.956L505.209 410.003L510.837 409.977L515.339 409.94L522.092 410.11" stroke="#EFEFEF" stroke-linecap="square"/>
</g>
<mask id="mask13_230_13998" style="mask-type:luminance" maskUnits="userSpaceOnUse" x="76" y="55" width="477" height="356">
<path d="M552.957 55.2959H76.7969V410.112H552.957V55.2959Z" fill="white"/>
</mask>
<g mask="url(#mask13_230_13998)">
<path d="M285.602 410.111L292.706 409.976L297.443 409.942L300.995 409.878L306.916 409.424L309.284 408.846L311.652 407.837L315.205 406.001L316.389 405.186L317.573 404.096L319.941 401.074L328.23 388.88L329.414 386.463L330.598 383.537L331.782 379.959L332.966 375.623L335.335 364.956L342.439 330.027L347.176 300.953L350.728 277.145L353.096 261.685L360.201 219.247L361.385 214.191L362.569 211.199L363.753 210.165L364.938 210.555L366.122 211.774L367.306 213.484L368.49 215.657L369.674 218.362L372.042 224.513L373.226 227.118L375.595 231.368L376.779 234.183L377.963 238.194L379.147 243.451L381.515 256.348L383.884 270.896L388.62 303.2L390.988 318.809L393.356 332.39L394.541 338.072L396.909 347.298L400.461 359.603L405.198 377.849L406.382 381.221L407.566 383.972L409.934 388.317L412.302 391.676L414.671 394.091L417.039 396.203L419.407 398.835L421.775 401.594L424.144 403.812L425.328 404.627L427.696 405.727L430.064 406.431L441.905 408.988L444.274 409.212L456.115 409.718L465.588 409.915L478.613 409.979L521.241 410.112" fill="#EFEFEF" fill-opacity="0.4"/>
<path d="M285.602 410.111L292.706 409.976L297.443 409.942L300.995 409.878L306.916 409.424L309.284 408.846L311.652 407.837L315.205 406.001L316.389 405.186L317.573 404.096L319.941 401.074L328.23 388.88L329.414 386.463L330.598 383.537L331.782 379.959L332.966 375.623L335.335 364.956L342.439 330.027L347.176 300.953L350.728 277.145L353.096 261.685L360.201 219.247L361.385 214.191L362.569 211.199L363.753 210.165L364.938 210.555L366.122 211.774L367.306 213.484L368.49 215.657L369.674 218.362L372.042 224.513L373.226 227.118L375.595 231.368L376.779 234.183L377.963 238.194L379.147 243.451L381.515 256.348L383.884 270.896L388.62 303.2L390.988 318.809L393.356 332.39L394.541 338.072L396.909 347.298L400.461 359.603L405.198 377.849L406.382 381.221L407.566 383.972L409.934 388.317L412.302 391.676L414.671 394.091L417.039 396.203L419.407 398.835L421.775 401.594L424.144 403.812L425.328 404.627L427.696 405.727L430.064 406.431L441.905 408.988L444.274 409.212L456.115 409.718L465.588 409.915L478.613 409.979L521.241 410.112" stroke="#EFEFEF" stroke-linecap="square"/>
</g>
<mask id="mask14_230_13998" style="mask-type:luminance" maskUnits="userSpaceOnUse" x="76" y="55" width="477" height="356">
<path d="M552.957 55.2959H76.7969V410.112H552.957V55.2959Z" fill="white"/>
</mask>
<g mask="url(#mask14_230_13998)">
<path d="M98.4375 410.111L261.29 409.866L267.718 409.533L276.289 408.8L280.575 408.099L284.86 407.091L289.146 405.816L295.574 403.446L297.717 402.592L299.86 401.487L302.003 399.949L312.717 390.194L314.859 387.706L317.002 384.692L323.431 374.792L327.716 367.481L332.002 359.115L334.145 354.377L338.43 343.504L340.573 338.064L342.716 333.428L347.001 326.002L349.144 321.318L351.287 315.336L355.572 302.743L359.858 292.333L362.001 287.6L364.144 283.621L366.286 280.911L368.429 279.419L370.572 278.588L372.715 277.948L374.858 277.471L377 277.423L379.143 278.134L381.286 279.891L383.429 282.762L385.572 286.491L387.714 290.717L389.857 295.287L392 300.32L394.143 305.96L398.428 318.618L402.714 332.275L406.999 346.22L409.142 352.592L413.428 363.874L415.571 368.87L417.713 373.287L419.856 377.04L426.285 386.526L430.57 392.732L432.713 395.314L434.856 397.409L439.141 400.714L443.427 403.496L447.712 405.58L451.998 407.119L454.141 407.664L458.426 408.307L464.855 409.093L469.14 409.619L475.569 409.938L481.997 410.034L492.711 410.037L503.425 410.055L524.853 410.111" fill="#7EB0D5" fill-opacity="0.4"/>
<path d="M98.4375 410.111L261.29 409.866L267.718 409.533L276.289 408.8L280.575 408.099L284.86 407.091L289.146 405.816L295.574 403.446L297.717 402.592L299.86 401.487L302.003 399.949L312.717 390.194L314.859 387.706L317.002 384.692L323.431 374.792L327.716 367.481L332.002 359.115L334.145 354.377L338.43 343.504L340.573 338.064L342.716 333.428L347.001 326.002L349.144 321.318L351.287 315.336L355.572 302.743L359.858 292.333L362.001 287.6L364.144 283.621L366.286 280.911L368.429 279.419L370.572 278.588L372.715 277.948L374.858 277.471L377 277.423L379.143 278.134L381.286 279.891L383.429 282.762L385.572 286.491L387.714 290.717L389.857 295.287L392 300.32L394.143 305.96L398.428 318.618L402.714 332.275L406.999 346.22L409.142 352.592L413.428 363.874L415.571 368.87L417.713 373.287L419.856 377.04L426.285 386.526L430.57 392.732L432.713 395.314L434.856 397.409L439.141 400.714L443.427 403.496L447.712 405.58L451.998 407.119L454.141 407.664L458.426 408.307L464.855 409.093L469.14 409.619L475.569 409.938L481.997 410.034L492.711 410.037L503.425 410.055L524.853 410.111" stroke="#7EB0D5" stroke-linecap="square"/>
</g>
<path d="M535.061 411.061C535.646 410.475 535.646 409.525 535.061 408.939L525.515 399.393C524.929 398.808 523.979 398.808 523.393 399.393C522.808 399.979 522.808 400.929 523.393 401.515L531.879 410L523.393 418.485C522.808 419.071 522.808 420.021 523.393 420.607C523.979 421.192 524.929 421.192 525.515 420.607L535.061 411.061ZM79 411.5H534V408.5H79V411.5Z" fill="black"/>
</g>
<defs>
<clipPath id="clip0_230_13998">
<rect width="614.4" height="460.8" fill="white"/>
</clipPath>
</defs>
</svg>
