<svg width="615" height="461" viewBox="0 0 615 461" fill="none" xmlns="http://www.w3.org/2000/svg">
<g clip-path="url(#clip0_230_13518)">
<mask id="mask0_230_13518" style="mask-type:luminance" maskUnits="userSpaceOnUse" x="76" y="55" width="477" height="356">
<path d="M552.957 55.2959H76.7969V410.112H552.957V55.2959Z" fill="white"/>
</mask>
<g mask="url(#mask0_230_13518)">
<path d="M294.586 410.111L304.103 409.959L308.861 409.587L312.43 408.952L314.809 408.229L317.188 407.125L318.378 406.354L319.567 405.38L320.757 404.16L321.946 402.653L323.136 400.823L324.326 398.629L325.515 396.011L326.705 392.887L327.894 389.158L329.084 384.726L330.273 379.514L331.463 373.494L333.842 359.193L339.79 319.183L340.98 312.915L342.169 307.914L343.359 304.324L344.548 302.177L345.738 301.411L346.928 301.891L348.117 303.443L349.307 305.879L350.496 309.017L352.876 316.716L358.823 337.39L361.203 344.144L363.582 349.724L365.961 354.266L368.34 358.052L370.719 361.311L373.098 364.117L379.046 370.34L382.615 373.817L384.994 375.754L388.563 378.098L390.942 379.438L393.321 380.423L399.269 382.068L401.648 383.435L405.217 386.203L408.786 388.782L418.303 394.831L423.061 398.164L432.578 404.001L434.957 405.078L438.526 406.312L443.284 407.691L446.853 408.381L452.801 409.064L461.128 409.773L468.265 410.02L483.73 410.112L531.313 410.111" fill="#EFEFEF" fill-opacity="0.4"/>
<path d="M294.586 410.111L304.103 409.959L308.861 409.587L312.43 408.952L314.809 408.229L317.188 407.125L318.378 406.354L319.567 405.38L320.757 404.16L321.946 402.653L323.136 400.823L324.326 398.629L325.515 396.011L326.705 392.887L327.894 389.158L329.084 384.726L330.273 379.514L331.463 373.494L333.842 359.193L339.79 319.183L340.98 312.915L342.169 307.914L343.359 304.324L344.548 302.177L345.738 301.411L346.928 301.891L348.117 303.443L349.307 305.879L350.496 309.017L352.876 316.716L358.823 337.39L361.203 344.144L363.582 349.724L365.961 354.266L368.34 358.052L370.719 361.311L373.098 364.117L379.046 370.34L382.615 373.817L384.994 375.754L388.563 378.098L390.942 379.438L393.321 380.423L399.269 382.068L401.648 383.435L405.217 386.203L408.786 388.782L418.303 394.831L423.061 398.164L432.578 404.001L434.957 405.078L438.526 406.312L443.284 407.691L446.853 408.381L452.801 409.064L461.128 409.773L468.265 410.02L483.73 410.112L531.313 410.111" stroke="#EFEFEF" stroke-linecap="square"/>
</g>
<mask id="mask1_230_13518" style="mask-type:luminance" maskUnits="userSpaceOnUse" x="76" y="55" width="477" height="356">
<path d="M552.957 55.2959H76.7969V410.112H552.957V55.2959Z" fill="white"/>
</mask>
<g mask="url(#mask1_230_13518)">
<path d="M284.242 410.111L316.049 409.867L319.457 409.787L322.865 409.748L325.137 409.446L327.409 408.804L330.817 407.725L331.953 407.15L334.225 405.503L335.361 404.294L336.497 402.663L338.769 398.33L342.176 391.31L343.312 388.471L344.448 384.7L346.72 376.266L348.992 369.519L350.128 365.022L352.4 352.601L354.672 338.157L356.944 320.282L359.216 299.202L362.624 260.517L364.896 234.342L366.032 224.514L367.168 218.823L368.304 216.7L369.44 217.707L370.576 222.302L371.712 230.342L373.984 252.517L377.391 291.592L379.663 318.714L380.799 330.675L381.935 340.75L384.207 357.125L386.479 370.217L388.751 380.775L391.023 389.755L392.159 393.392L393.295 396.13L395.567 400.137L396.703 401.84L398.975 404.499L401.247 406.595L402.383 407.233L404.655 407.732L408.062 408.423L410.334 408.813L413.742 409.281L417.15 409.759L420.558 409.888L426.238 410.036L433.054 409.965L439.87 410.042L447.821 410.112L510.299 410.111" fill="#EFEFEF" fill-opacity="0.4"/>
<path d="M284.242 410.111L316.049 409.867L319.457 409.787L322.865 409.748L325.137 409.446L327.409 408.804L330.817 407.725L331.953 407.15L334.225 405.503L335.361 404.294L336.497 402.663L338.769 398.33L342.176 391.31L343.312 388.471L344.448 384.7L346.72 376.266L348.992 369.519L350.128 365.022L352.4 352.601L354.672 338.157L356.944 320.282L359.216 299.202L362.624 260.517L364.896 234.342L366.032 224.514L367.168 218.823L368.304 216.7L369.44 217.707L370.576 222.302L371.712 230.342L373.984 252.517L377.391 291.592L379.663 318.714L380.799 330.675L381.935 340.75L384.207 357.125L386.479 370.217L388.751 380.775L391.023 389.755L392.159 393.392L393.295 396.13L395.567 400.137L396.703 401.84L398.975 404.499L401.247 406.595L402.383 407.233L404.655 407.732L408.062 408.423L410.334 408.813L413.742 409.281L417.15 409.759L420.558 409.888L426.238 410.036L433.054 409.965L439.87 410.042L447.821 410.112L510.299 410.111" stroke="#EFEFEF" stroke-linecap="square"/>
</g>
<mask id="mask2_230_13518" style="mask-type:luminance" maskUnits="userSpaceOnUse" x="76" y="55" width="477" height="356">
<path d="M552.957 55.2959H76.7969V410.112H552.957V55.2959Z" fill="white"/>
</mask>
<g mask="url(#mask2_230_13518)">
<path d="M299.141 410.112L312.944 409.986L322.146 409.462L325.827 408.591L334.109 406.348L336.869 405.169L339.63 403.645L345.151 400.457L346.992 398.74L348.832 396.286L353.433 389.211L356.194 385.607L358.034 382.376L359.875 378.595L361.715 374.081L363.556 368.285L365.396 361.105L368.157 350.111L369.077 347.397L369.997 345.414L370.917 344.055L373.678 340.911L375.518 337.89L379.199 331.055L380.119 328.928L381.04 326.4L381.96 323.369L382.88 319.739L384.721 310.715L388.401 291.299L392.082 272.453L393.002 268.63L393.923 265.916L394.843 264.639L395.763 264.98L396.683 266.952L397.604 270.429L398.524 275.251L399.444 281.32L401.284 297.086L406.806 352.916L408.646 367.337L410.487 379.357L412.327 388.544L414.167 395.135L416.008 399.836L417.848 403.142L418.768 404.352L420.609 406.071L422.449 407.169L424.29 407.879L429.811 409.303L432.572 409.729L435.332 409.792L439.933 409.745L446.375 409.965L466.62 410.111L482.263 410.112" fill="#EFEFEF" fill-opacity="0.4"/>
<path d="M299.141 410.112L312.944 409.986L322.146 409.462L325.827 408.591L334.109 406.348L336.869 405.169L339.63 403.645L345.151 400.457L346.992 398.74L348.832 396.286L353.433 389.211L356.194 385.607L358.034 382.376L359.875 378.595L361.715 374.081L363.556 368.285L365.396 361.105L368.157 350.111L369.077 347.397L369.997 345.414L370.917 344.055L373.678 340.911L375.518 337.89L379.199 331.055L380.119 328.928L381.04 326.4L381.96 323.369L382.88 319.739L384.721 310.715L388.401 291.299L392.082 272.453L393.002 268.63L393.923 265.916L394.843 264.639L395.763 264.98L396.683 266.952L397.604 270.429L398.524 275.251L399.444 281.32L401.284 297.086L406.806 352.916L408.646 367.337L410.487 379.357L412.327 388.544L414.167 395.135L416.008 399.836L417.848 403.142L418.768 404.352L420.609 406.071L422.449 407.169L424.29 407.879L429.811 409.303L432.572 409.729L435.332 409.792L439.933 409.745L446.375 409.965L466.62 410.111L482.263 410.112" stroke="#EFEFEF" stroke-linecap="square"/>
</g>
<mask id="mask3_230_13518" style="mask-type:luminance" maskUnits="userSpaceOnUse" x="76" y="55" width="477" height="356">
<path d="M552.957 55.2959H76.7969V410.112H552.957V55.2959Z" fill="white"/>
</mask>
<g mask="url(#mask3_230_13518)">
<path d="M288.188 410.112L307.564 409.961L311.87 409.7L318.329 408.972L320.481 408.385L322.634 407.44L324.787 406.224L326.94 404.561L328.017 403.42L329.093 402.001L330.17 400.262L331.246 398.163L332.323 395.647L333.399 392.631L334.475 389.021L335.552 384.742L337.705 374.27L344.164 339.385L345.24 334.852L346.317 331.02L347.393 327.866L348.47 325.307L349.546 323.253L350.622 321.625L351.699 320.353L352.775 319.369L353.852 318.614L356.005 317.63L359.234 316.587L361.387 315.461L363.54 314.307L364.616 314.1L365.693 314.366L366.769 315.191L367.846 316.554L368.922 318.371L371.075 323.044L373.228 328.842L376.458 338.061L378.611 342.741L380.763 346.739L382.916 351.695L387.222 363.119L389.375 367.679L391.528 371.141L393.681 373.911L400.14 381.604L403.369 386.106L405.522 388.677L416.287 400.131L418.44 401.843L421.669 404.081L424.898 405.887L428.128 407.335L430.281 408.088L433.51 408.852L437.816 409.522L442.122 409.854L447.504 409.883L453.963 410.036L461.498 410.112L502.404 410.112" fill="#EFEFEF" fill-opacity="0.4"/>
<path d="M288.188 410.112L307.564 409.961L311.87 409.7L318.329 408.972L320.481 408.385L322.634 407.44L324.787 406.224L326.94 404.561L328.017 403.42L329.093 402.001L330.17 400.262L331.246 398.163L332.323 395.647L333.399 392.631L334.475 389.021L335.552 384.742L337.705 374.27L344.164 339.385L345.24 334.852L346.317 331.02L347.393 327.866L348.47 325.307L349.546 323.253L350.622 321.625L351.699 320.353L352.775 319.369L353.852 318.614L356.005 317.63L359.234 316.587L361.387 315.461L363.54 314.307L364.616 314.1L365.693 314.366L366.769 315.191L367.846 316.554L368.922 318.371L371.075 323.044L373.228 328.842L376.458 338.061L378.611 342.741L380.763 346.739L382.916 351.695L387.222 363.119L389.375 367.679L391.528 371.141L393.681 373.911L400.14 381.604L403.369 386.106L405.522 388.677L416.287 400.131L418.44 401.843L421.669 404.081L424.898 405.887L428.128 407.335L430.281 408.088L433.51 408.852L437.816 409.522L442.122 409.854L447.504 409.883L453.963 410.036L461.498 410.112L502.404 410.112" stroke="#EFEFEF" stroke-linecap="square"/>
</g>
<mask id="mask4_230_13518" style="mask-type:luminance" maskUnits="userSpaceOnUse" x="76" y="55" width="477" height="356">
<path d="M552.957 55.2959H76.7969V410.112H552.957V55.2959Z" fill="white"/>
</mask>
<g mask="url(#mask4_230_13518)">
<path d="M299.695 410.111L318.265 409.925L321.36 409.603L325.228 409.595L329.097 409.106L332.966 408.915L334.513 408.515L336.061 408.011L339.156 407.58L339.929 407.202L340.703 406.588L342.251 404.597L343.798 402.473L345.345 400.445L346.119 398.746L346.893 396.348L348.44 389.928L351.535 374.263L353.083 365.959L353.856 361.098L354.63 355.255L356.178 339.929L357.725 320.492L359.273 296.623L360.82 266.754L363.141 210.582L363.915 192.678L364.689 178.358L365.462 169.211L366.236 165.928L367.01 168.316L367.784 175.67L368.557 186.876L372.426 252.694L373.974 275.069L375.521 293.064L377.068 307.248L378.616 316.884L380.937 328.092L383.258 338.864L386.353 355.754L390.996 381.2L392.543 388.646L394.09 394.194L395.638 398.535L397.185 401.989L398.733 404.676L400.28 406.734L401.054 407.376L402.602 408.01L404.923 408.469L407.244 408.999L409.565 409.607L411.886 409.741L415.755 409.86L421.171 409.998L424.266 409.867L431.23 410.002L452.12 410.092L453.668 410.11" fill="#EFEFEF" fill-opacity="0.4"/>
<path d="M299.695 410.111L318.265 409.925L321.36 409.603L325.228 409.595L329.097 409.106L332.966 408.915L334.513 408.515L336.061 408.011L339.156 407.58L339.929 407.202L340.703 406.588L342.251 404.597L343.798 402.473L345.345 400.445L346.119 398.746L346.893 396.348L348.44 389.928L351.535 374.263L353.083 365.959L353.856 361.098L354.63 355.255L356.178 339.929L357.725 320.492L359.273 296.623L360.82 266.754L363.141 210.582L363.915 192.678L364.689 178.358L365.462 169.211L366.236 165.928L367.01 168.316L367.784 175.67L368.557 186.876L372.426 252.694L373.974 275.069L375.521 293.064L377.068 307.248L378.616 316.884L380.937 328.092L383.258 338.864L386.353 355.754L390.996 381.2L392.543 388.646L394.09 394.194L395.638 398.535L397.185 401.989L398.733 404.676L400.28 406.734L401.054 407.376L402.602 408.01L404.923 408.469L407.244 408.999L409.565 409.607L411.886 409.741L415.755 409.86L421.171 409.998L424.266 409.867L431.23 410.002L452.12 410.092L453.668 410.11" stroke="#EFEFEF" stroke-linecap="square"/>
</g>
<mask id="mask5_230_13518" style="mask-type:luminance" maskUnits="userSpaceOnUse" x="76" y="55" width="477" height="356">
<path d="M552.957 55.2959H76.7969V410.112H552.957V55.2959Z" fill="white"/>
</mask>
<g mask="url(#mask5_230_13518)">
<path d="M291.523 410.112L304.845 409.971L310.554 409.593L312.457 409.304L314.36 408.745L316.263 407.699L317.215 406.916L318.167 405.91L319.118 404.648L320.07 403.1L321.021 401.23L321.973 398.983L322.924 396.289L323.876 393.087L325.779 385.148L327.682 375.525L330.537 359.054L333.391 342.649L335.294 333.237L337.197 325.181L339.1 318.519L341.003 313.203L347.664 297.005L349.567 292.605L350.519 290.802L351.47 289.438L352.422 288.58L353.373 288.28L354.325 288.615L355.277 289.695L356.228 291.606L357.18 294.342L359.083 301.67L361.937 314.624L369.55 350.623L371.453 357.592L373.356 363.397L376.21 370.969L378.113 375.314L380.017 379.002L382.871 383.725L384.774 386.264L387.629 389.124L390.483 392.218L392.387 394.171L394.29 395.714L397.144 397.925L399.999 400.247L401.902 401.307L408.563 404.093L419.03 407.505L422.836 408.402L425.69 408.76L438.06 409.704L454.237 410.014L465.655 410.101L480.88 410.112" fill="#EFEFEF" fill-opacity="0.4"/>
<path d="M291.523 410.112L304.845 409.971L310.554 409.593L312.457 409.304L314.36 408.745L316.263 407.699L317.215 406.916L318.167 405.91L319.118 404.648L320.07 403.1L321.021 401.23L321.973 398.983L322.924 396.289L323.876 393.087L325.779 385.148L327.682 375.525L330.537 359.054L333.391 342.649L335.294 333.237L337.197 325.181L339.1 318.519L341.003 313.203L347.664 297.005L349.567 292.605L350.519 290.802L351.47 289.438L352.422 288.58L353.373 288.28L354.325 288.615L355.277 289.695L356.228 291.606L357.18 294.342L359.083 301.67L361.937 314.624L369.55 350.623L371.453 357.592L373.356 363.397L376.21 370.969L378.113 375.314L380.017 379.002L382.871 383.725L384.774 386.264L387.629 389.124L390.483 392.218L392.387 394.171L394.29 395.714L397.144 397.925L399.999 400.247L401.902 401.307L408.563 404.093L419.03 407.505L422.836 408.402L425.69 408.76L438.06 409.704L454.237 410.014L465.655 410.101L480.88 410.112" stroke="#EFEFEF" stroke-linecap="square"/>
</g>
<mask id="mask6_230_13518" style="mask-type:luminance" maskUnits="userSpaceOnUse" x="76" y="55" width="477" height="356">
<path d="M552.957 55.2959H76.7969V410.112H552.957V55.2959Z" fill="white"/>
</mask>
<g mask="url(#mask6_230_13518)">
<path d="M291.703 410.111L300.557 409.979L303.877 409.629L307.197 409.046L310.518 408.117L311.624 407.635L312.731 406.949L313.838 406.002L316.051 403.395L318.265 400.083L319.371 398.005L320.478 395.375L321.585 391.934L322.692 387.493L323.798 382.028L326.012 368.592L328.225 352.291L330.439 332.869L335.972 280.088L338.186 261.252L339.293 252.707L340.399 245.376L341.506 239.953L342.613 237.09L343.719 237.183L344.826 240.208L345.933 245.699L347.04 252.965L349.253 270.774L352.573 302.428L354.787 323.046L357 340.586L359.214 354.769L361.427 366.101L363.641 375.423L364.747 379.286L365.854 382.488L366.961 385.014L368.067 386.927L369.174 388.332L371.388 390.25L375.815 393.591L378.028 394.44L381.348 395.454L384.668 396.261L389.095 397.854L392.416 399.281L395.736 400.817L397.949 401.539L401.269 402.536L403.483 403.583L406.803 405.482L410.123 406.854L413.443 408.119L415.657 408.589L425.617 409.162L434.471 409.555L438.898 409.912L461.033 410.003L475.42 410.074L490.914 410.072L508.622 410.101L511.942 410.111" fill="#EFEFEF" fill-opacity="0.4"/>
<path d="M291.703 410.111L300.557 409.979L303.877 409.629L307.197 409.046L310.518 408.117L311.624 407.635L312.731 406.949L313.838 406.002L316.051 403.395L318.265 400.083L319.371 398.005L320.478 395.375L321.585 391.934L322.692 387.493L323.798 382.028L326.012 368.592L328.225 352.291L330.439 332.869L335.972 280.088L338.186 261.252L339.293 252.707L340.399 245.376L341.506 239.953L342.613 237.09L343.719 237.183L344.826 240.208L345.933 245.699L347.04 252.965L349.253 270.774L352.573 302.428L354.787 323.046L357 340.586L359.214 354.769L361.427 366.101L363.641 375.423L364.747 379.286L365.854 382.488L366.961 385.014L368.067 386.927L369.174 388.332L371.388 390.25L375.815 393.591L378.028 394.44L381.348 395.454L384.668 396.261L389.095 397.854L392.416 399.281L395.736 400.817L397.949 401.539L401.269 402.536L403.483 403.583L406.803 405.482L410.123 406.854L413.443 408.119L415.657 408.589L425.617 409.162L434.471 409.555L438.898 409.912L461.033 410.003L475.42 410.074L490.914 410.072L508.622 410.101L511.942 410.111" stroke="#EFEFEF" stroke-linecap="square"/>
</g>
<mask id="mask7_230_13518" style="mask-type:luminance" maskUnits="userSpaceOnUse" x="76" y="55" width="477" height="356">
<path d="M552.957 55.2959H76.7969V410.112H552.957V55.2959Z" fill="white"/>
</mask>
<g mask="url(#mask7_230_13518)">
<path d="M279.016 410.111L290.44 409.969L296.152 409.62L299.579 409.096L301.864 408.458L304.149 407.511L306.434 406.215L308.718 404.534L311.003 402.415L313.288 399.748L315.573 396.419L317.858 392.442L321.285 385.667L324.712 378.264L326.997 372.482L332.709 356.16L337.279 343.599L339.564 338.44L341.849 334.296L345.276 329.025L347.561 325.992L348.703 324.722L349.846 323.717L350.988 323.092L352.13 322.969L353.273 323.428L354.415 324.458L355.558 325.945L360.127 332.757L362.412 335.297L364.697 337.649L366.982 340.611L370.409 346.315L374.979 353.982L378.406 360.874L380.691 365.2L382.976 368.814L386.403 373.614L389.83 377.879L392.115 380.735L394.4 384.066L397.827 389.243L400.112 392.045L402.397 394.304L411.536 402.352L413.821 403.87L416.106 404.991L419.533 406.332L422.96 407.242L430.957 408.812L436.669 409.432L444.666 409.823L453.806 410.038L473.227 410.108L506.357 410.111" fill="#EFEFEF" fill-opacity="0.4"/>
<path d="M279.016 410.111L290.44 409.969L296.152 409.62L299.579 409.096L301.864 408.458L304.149 407.511L306.434 406.215L308.718 404.534L311.003 402.415L313.288 399.748L315.573 396.419L317.858 392.442L321.285 385.667L324.712 378.264L326.997 372.482L332.709 356.16L337.279 343.599L339.564 338.44L341.849 334.296L345.276 329.025L347.561 325.992L348.703 324.722L349.846 323.717L350.988 323.092L352.13 322.969L353.273 323.428L354.415 324.458L355.558 325.945L360.127 332.757L362.412 335.297L364.697 337.649L366.982 340.611L370.409 346.315L374.979 353.982L378.406 360.874L380.691 365.2L382.976 368.814L386.403 373.614L389.83 377.879L392.115 380.735L394.4 384.066L397.827 389.243L400.112 392.045L402.397 394.304L411.536 402.352L413.821 403.87L416.106 404.991L419.533 406.332L422.96 407.242L430.957 408.812L436.669 409.432L444.666 409.823L453.806 410.038L473.227 410.108L506.357 410.111" stroke="#EFEFEF" stroke-linecap="square"/>
</g>
<mask id="mask8_230_13518" style="mask-type:luminance" maskUnits="userSpaceOnUse" x="76" y="55" width="477" height="356">
<path d="M552.957 55.2959H76.7969V410.112H552.957V55.2959Z" fill="white"/>
</mask>
<g mask="url(#mask8_230_13518)">
<path d="M300.383 410.111L317.708 409.95L324.205 409.545L327.454 409.245L332.868 409.195L335.033 408.88L337.199 408.083L341.53 406.042L342.613 404.974L345.862 401.221L348.027 398.922L349.11 397.287L351.276 392.866L353.442 388.631L356.69 382.524L357.773 379.746L358.856 376.25L364.27 355.792L365.353 351.031L366.436 344.873L371.85 306.339L374.015 287.306L376.181 268.133L381.595 231.119L382.678 226.713L383.761 226.748L384.844 230.79L387.009 244.289L388.092 252.208L389.175 261.709L390.258 273.463L395.672 341.172L397.838 362.148L398.921 370.143L400.004 376.592L402.169 387.275L404.335 396.518L405.418 399.928L406.5 402.326L407.583 403.942L409.749 406.43L410.832 407.442L411.915 408.099L414.08 408.659L419.494 409.677L434.654 410.049L441.151 409.998L503.955 410.112L515.867 410.111" fill="#EFEFEF" fill-opacity="0.4"/>
<path d="M300.383 410.111L317.708 409.95L324.205 409.545L327.454 409.245L332.868 409.195L335.033 408.88L337.199 408.083L341.53 406.042L342.613 404.974L345.862 401.221L348.027 398.922L349.11 397.287L351.276 392.866L353.442 388.631L356.69 382.524L357.773 379.746L358.856 376.25L364.27 355.792L365.353 351.031L366.436 344.873L371.85 306.339L374.015 287.306L376.181 268.133L381.595 231.119L382.678 226.713L383.761 226.748L384.844 230.79L387.009 244.289L388.092 252.208L389.175 261.709L390.258 273.463L395.672 341.172L397.838 362.148L398.921 370.143L400.004 376.592L402.169 387.275L404.335 396.518L405.418 399.928L406.5 402.326L407.583 403.942L409.749 406.43L410.832 407.442L411.915 408.099L414.08 408.659L419.494 409.677L434.654 410.049L441.151 409.998L503.955 410.112L515.867 410.111" stroke="#EFEFEF" stroke-linecap="square"/>
</g>
<mask id="mask9_230_13518" style="mask-type:luminance" maskUnits="userSpaceOnUse" x="76" y="55" width="477" height="356">
<path d="M552.957 55.2959H76.7969V410.112H552.957V55.2959Z" fill="white"/>
</mask>
<g mask="url(#mask9_230_13518)">
<path d="M273.734 410.112L298.151 409.957L301.335 409.741L309.828 408.457L313.013 407.794L315.136 406.953L317.259 405.694L321.505 403.05L323.628 401.675L324.69 400.775L326.813 398.394L332.121 391.002L334.244 387.781L336.367 383.72L342.737 370.127L346.983 361.181L349.106 356.065L351.229 350.103L353.352 343.838L355.475 338.645L357.599 334.809L361.845 327.944L362.906 326.754L365.03 325.193L367.153 323.717L369.276 322.162L370.337 321.58L372.461 320.928L373.522 320.824L374.584 320.907L375.645 321.254L376.707 321.938L377.768 322.996L378.83 324.421L380.953 328.162L384.138 334.853L389.446 346.601L399 369.569L402.185 376.348L406.431 384.845L409.616 391.481L411.739 395.299L413.862 398.282L415.985 400.544L420.231 404.403L422.354 406.113L424.478 407.412L426.601 408.23L429.785 408.895L435.093 409.585L440.401 409.849L449.955 410.099L474.371 410.078L484.987 410.112" fill="#EFEFEF" fill-opacity="0.4"/>
<path d="M273.734 410.112L298.151 409.957L301.335 409.741L309.828 408.457L313.013 407.794L315.136 406.953L317.259 405.694L321.505 403.05L323.628 401.675L324.69 400.775L326.813 398.394L332.121 391.002L334.244 387.781L336.367 383.72L342.737 370.127L346.983 361.181L349.106 356.065L351.229 350.103L353.352 343.838L355.475 338.645L357.599 334.809L361.845 327.944L362.906 326.754L365.03 325.193L367.153 323.717L369.276 322.162L370.337 321.58L372.461 320.928L373.522 320.824L374.584 320.907L375.645 321.254L376.707 321.938L377.768 322.996L378.83 324.421L380.953 328.162L384.138 334.853L389.446 346.601L399 369.569L402.185 376.348L406.431 384.845L409.616 391.481L411.739 395.299L413.862 398.282L415.985 400.544L420.231 404.403L422.354 406.113L424.478 407.412L426.601 408.23L429.785 408.895L435.093 409.585L440.401 409.849L449.955 410.099L474.371 410.078L484.987 410.112" stroke="#EFEFEF" stroke-linecap="square"/>
</g>
<mask id="mask10_230_13518" style="mask-type:luminance" maskUnits="userSpaceOnUse" x="76" y="55" width="477" height="356">
<path d="M552.957 55.2959H76.7969V410.112H552.957V55.2959Z" fill="white"/>
</mask>
<g mask="url(#mask10_230_13518)">
<path d="M299.047 410.111L312.342 409.95L318.546 409.387L321.205 408.75L323.864 407.708L325.636 406.626L327.409 404.94L328.295 403.787L329.182 402.384L330.068 400.693L331.841 396.341L333.613 390.739L335.386 383.926L337.159 375.426L338.931 364.721L340.704 351.818L345.136 317.56L347.794 300.359L349.567 290.723L350.453 287.024L351.34 284.113L352.226 281.846L353.112 280.06L353.999 278.655L354.885 277.594L355.771 276.894L356.658 276.628L357.544 276.911L358.43 277.86L359.317 279.528L360.203 281.88L361.976 288.259L363.748 296.274L369.952 326.233L372.611 336.045L374.384 342.981L377.043 354.291L378.816 360.286L380.588 364.973L383.247 371.031L385.906 376.331L391.224 386.147L392.997 388.633L394.769 390.404L397.428 392.691L399.201 393.829L400.974 394.909L402.746 396.555L405.405 399.388L408.064 401.559L411.61 403.955L416.927 407.006L418.7 407.699L421.359 408.284L424.904 408.669L429.336 409.015L435.54 409.945L439.085 409.982L447.062 409.962L463.016 410.1L474.538 410.11L475.425 410.111" fill="#EFEFEF" fill-opacity="0.4"/>
<path d="M299.047 410.111L312.342 409.95L318.546 409.387L321.205 408.75L323.864 407.708L325.636 406.626L327.409 404.94L328.295 403.787L329.182 402.384L330.068 400.693L331.841 396.341L333.613 390.739L335.386 383.926L337.159 375.426L338.931 364.721L340.704 351.818L345.136 317.56L347.794 300.359L349.567 290.723L350.453 287.024L351.34 284.113L352.226 281.846L353.112 280.06L353.999 278.655L354.885 277.594L355.771 276.894L356.658 276.628L357.544 276.911L358.43 277.86L359.317 279.528L360.203 281.88L361.976 288.259L363.748 296.274L369.952 326.233L372.611 336.045L374.384 342.981L377.043 354.291L378.816 360.286L380.588 364.973L383.247 371.031L385.906 376.331L391.224 386.147L392.997 388.633L394.769 390.404L397.428 392.691L399.201 393.829L400.974 394.909L402.746 396.555L405.405 399.388L408.064 401.559L411.61 403.955L416.927 407.006L418.7 407.699L421.359 408.284L424.904 408.669L429.336 409.015L435.54 409.945L439.085 409.982L447.062 409.962L463.016 410.1L474.538 410.11L475.425 410.111" stroke="#EFEFEF" stroke-linecap="square"/>
</g>
<mask id="mask11_230_13518" style="mask-type:luminance" maskUnits="userSpaceOnUse" x="76" y="55" width="477" height="356">
<path d="M552.957 55.2959H76.7969V410.112H552.957V55.2959Z" fill="white"/>
</mask>
<g mask="url(#mask11_230_13518)">
<path d="M308.477 410.112L319.51 409.907L322.056 409.692L324.602 409.429L327.148 409.862L328.846 409.684L331.392 409.125L333.938 408.944L336.484 408.069L338.182 407.187L339.031 406.999L340.728 407.319L341.577 406.931L343.274 405.145L347.518 399.831L348.366 398.495L349.215 396.357L350.064 393.006L352.61 380.467L354.307 369.837L356.005 357.523L356.854 348.655L361.097 287.183L361.946 270.115L363.643 224.78L365.341 168.874L367.038 107.05L367.887 83.8184L368.736 72.1924L369.584 73.6561L370.433 87.4744L371.282 112.237L372.979 183.654L374.677 257.444L375.526 286.558L376.374 310.202L377.223 328.976L378.072 343.331L378.92 354.457L379.769 363.258L380.618 369.883L381.467 374.541L384.013 384.468L384.861 387.426L386.559 391.381L389.105 397.317L389.954 398.337L391.651 399.697L394.197 403.007L395.895 404.322L397.592 405.349L400.138 406.466L401.836 407.073L404.382 407.601L406.928 408.369L412.021 409.282L414.567 409.128L417.113 409.712L423.903 409.846L426.449 409.747L432.39 409.944L435.785 409.75L438.331 410.025L445.121 409.982L450.213 410.112L477.372 410.112" fill="#EFEFEF" fill-opacity="0.4"/>
<path d="M308.477 410.112L319.51 409.907L322.056 409.692L324.602 409.429L327.148 409.862L328.846 409.684L331.392 409.125L333.938 408.944L336.484 408.069L338.182 407.187L339.031 406.999L340.728 407.319L341.577 406.931L343.274 405.145L347.518 399.831L348.366 398.495L349.215 396.357L350.064 393.006L352.61 380.467L354.307 369.837L356.005 357.523L356.854 348.655L361.097 287.183L361.946 270.115L363.643 224.78L365.341 168.874L367.038 107.05L367.887 83.8184L368.736 72.1924L369.584 73.6561L370.433 87.4744L371.282 112.237L372.979 183.654L374.677 257.444L375.526 286.558L376.374 310.202L377.223 328.976L378.072 343.331L378.92 354.457L379.769 363.258L380.618 369.883L381.467 374.541L384.013 384.468L384.861 387.426L386.559 391.381L389.105 397.317L389.954 398.337L391.651 399.697L394.197 403.007L395.895 404.322L397.592 405.349L400.138 406.466L401.836 407.073L404.382 407.601L406.928 408.369L412.021 409.282L414.567 409.128L417.113 409.712L423.903 409.846L426.449 409.747L432.39 409.944L435.785 409.75L438.331 410.025L445.121 409.982L450.213 410.112L477.372 410.112" stroke="#EFEFEF" stroke-linecap="square"/>
</g>
<mask id="mask12_230_13518" style="mask-type:luminance" maskUnits="userSpaceOnUse" x="76" y="55" width="477" height="356">
<path d="M552.957 55.2959H76.7969V410.112H552.957V55.2959Z" fill="white"/>
</mask>
<g mask="url(#mask12_230_13518)">
<path d="M299.781 410.112L319.723 409.977L323.712 409.828L326.703 409.702L337.671 408.61L340.663 408.312L342.657 408.176L343.654 407.988L344.651 407.592L345.648 406.918L347.642 404.878L349.636 402.355L351.631 399.39L353.625 395.725L354.622 393.366L355.619 390.502L356.616 387.041L357.613 382.912L359.608 372.689L361.602 360.118L363.596 344.976L366.587 318.523L370.576 282.416L371.573 275.543L372.57 270.098L375.561 257.177L376.558 253.525L377.555 251.333L378.553 251.336L379.55 253.582L380.547 257.487L382.541 267.65L384.535 279.452L388.524 305.513L393.509 338.099L395.503 349.115L396.5 353.246L402.483 373.042L404.477 377.918L406.471 384.166L408.466 390.623L409.463 393.145L410.46 395.123L411.457 396.686L412.454 397.942L414.448 399.781L418.437 402.746L420.431 404.416L421.428 404.965L428.408 407.521L436.385 409.313L439.376 409.526L449.347 409.9L453.335 409.962L457.324 409.997L462.309 410.031L467.295 410.062L498.205 410.112" fill="#EFEFEF" fill-opacity="0.4"/>
<path d="M299.781 410.112L319.723 409.977L323.712 409.828L326.703 409.702L337.671 408.61L340.663 408.312L342.657 408.176L343.654 407.988L344.651 407.592L345.648 406.918L347.642 404.878L349.636 402.355L351.631 399.39L353.625 395.725L354.622 393.366L355.619 390.502L356.616 387.041L357.613 382.912L359.608 372.689L361.602 360.118L363.596 344.976L366.587 318.523L370.576 282.416L371.573 275.543L372.57 270.098L375.561 257.177L376.558 253.525L377.555 251.333L378.553 251.336L379.55 253.582L380.547 257.487L382.541 267.65L384.535 279.452L388.524 305.513L393.509 338.099L395.503 349.115L396.5 353.246L402.483 373.042L404.477 377.918L406.471 384.166L408.466 390.623L409.463 393.145L410.46 395.123L411.457 396.686L412.454 397.942L414.448 399.781L418.437 402.746L420.431 404.416L421.428 404.965L428.408 407.521L436.385 409.313L439.376 409.526L449.347 409.9L453.335 409.962L457.324 409.997L462.309 410.031L467.295 410.062L498.205 410.112" stroke="#EFEFEF" stroke-linecap="square"/>
</g>
<mask id="mask13_230_13518" style="mask-type:luminance" maskUnits="userSpaceOnUse" x="76" y="55" width="477" height="356">
<path d="M552.957 55.2959H76.7969V410.112H552.957V55.2959Z" fill="white"/>
</mask>
<g mask="url(#mask13_230_13518)">
<path d="M284.547 410.111L300.25 409.978L305.082 409.659L311.122 408.89L312.329 408.574L313.537 408.063L314.745 407.266L315.953 406.113L318.369 402.99L320.785 399.642L321.993 397.622L323.201 394.915L324.409 391.366L326.825 382.32L328.033 376.96L329.241 370.661L330.448 363.035L332.864 344.381L335.28 325.563L337.696 309.965L341.32 288.942L342.528 283.915L343.736 280.872L344.944 279.043L346.152 277.634L347.36 276.805L348.568 277.233L349.775 279.06L354.607 289.918L355.815 292.904L357.023 296.862L359.439 306.585L363.063 322.776L369.102 350.179L370.31 355.257L372.726 363.715L376.35 376.125L377.558 379.422L381.182 388.258L383.598 394.404L384.806 396.701L386.014 398.521L387.222 400.025L389.637 402.41L393.261 405.643L394.469 406.525L395.677 407.18L396.885 407.594L401.717 408.409L408.964 409.571L412.588 409.807L489.896 410.112L524.926 410.111" fill="#EFEFEF" fill-opacity="0.4"/>
<path d="M284.547 410.111L300.25 409.978L305.082 409.659L311.122 408.89L312.329 408.574L313.537 408.063L314.745 407.266L315.953 406.113L318.369 402.99L320.785 399.642L321.993 397.622L323.201 394.915L324.409 391.366L326.825 382.32L328.033 376.96L329.241 370.661L330.448 363.035L332.864 344.381L335.28 325.563L337.696 309.965L341.32 288.942L342.528 283.915L343.736 280.872L344.944 279.043L346.152 277.634L347.36 276.805L348.568 277.233L349.775 279.06L354.607 289.918L355.815 292.904L357.023 296.862L359.439 306.585L363.063 322.776L369.102 350.179L370.31 355.257L372.726 363.715L376.35 376.125L377.558 379.422L381.182 388.258L383.598 394.404L384.806 396.701L386.014 398.521L387.222 400.025L389.637 402.41L393.261 405.643L394.469 406.525L395.677 407.18L396.885 407.594L401.717 408.409L408.964 409.571L412.588 409.807L489.896 410.112L524.926 410.111" stroke="#EFEFEF" stroke-linecap="square"/>
</g>
<mask id="mask14_230_13518" style="mask-type:luminance" maskUnits="userSpaceOnUse" x="76" y="55" width="477" height="356">
<path d="M552.957 55.2959H76.7969V410.112H552.957V55.2959Z" fill="white"/>
</mask>
<g mask="url(#mask14_230_13518)">
<path d="M98.4375 410.112L237.327 410.112L279.415 410.032L294.145 409.274L298.354 408.475L300.459 407.825L304.667 405.889L306.772 404.771L308.876 403.391L310.981 401.42L313.085 398.805L319.398 390.14L321.502 386.763L323.607 382.455L325.711 377.038L332.024 358.639L338.338 341.132L340.442 336.168L346.755 323.025L348.86 319.289L350.964 316.917L353.068 315.66L355.173 315.145L357.277 315.771L359.381 317.56L363.59 321.91L365.695 324.71L367.799 328.447L369.903 332.95L372.008 337.924L374.112 343.531L380.425 362.696L382.53 369.039L384.634 374.864L386.738 379.734L388.843 383.736L393.052 390.898L395.156 394.078L397.26 396.88L399.365 399.415L401.469 401.616L403.574 403.325L405.678 404.593L409.887 406.541L414.095 407.972L416.2 408.41L422.513 409.009L430.931 409.709L439.348 409.895L500.375 410.112L517.21 410.112" fill="#7EB0D5" fill-opacity="0.4"/>
<path d="M98.4375 410.112L237.327 410.112L279.415 410.032L294.145 409.274L298.354 408.475L300.459 407.825L304.667 405.889L306.772 404.771L308.876 403.391L310.981 401.42L313.085 398.805L319.398 390.14L321.502 386.763L323.607 382.455L325.711 377.038L332.024 358.639L338.338 341.132L340.442 336.168L346.755 323.025L348.86 319.289L350.964 316.917L353.068 315.66L355.173 315.145L357.277 315.771L359.381 317.56L363.59 321.91L365.695 324.71L367.799 328.447L369.903 332.95L372.008 337.924L374.112 343.531L380.425 362.696L382.53 369.039L384.634 374.864L386.738 379.734L388.843 383.736L393.052 390.898L395.156 394.078L397.26 396.88L399.365 399.415L401.469 401.616L403.574 403.325L405.678 404.593L409.887 406.541L414.095 407.972L416.2 408.41L422.513 409.009L430.931 409.709L439.348 409.895L500.375 410.112L517.21 410.112" stroke="#7EB0D5" stroke-linecap="square"/>
</g>
<path d="M535.061 411.061C535.646 410.475 535.646 409.525 535.061 408.939L525.515 399.393C524.929 398.808 523.979 398.808 523.393 399.393C522.808 399.979 522.808 400.929 523.393 401.515L531.879 410L523.393 418.485C522.808 419.071 522.808 420.021 523.393 420.607C523.979 421.192 524.929 421.192 525.515 420.607L535.061 411.061ZM79 411.5H534V408.5H79V411.5Z" fill="black"/>
</g>
<defs>
<clipPath id="clip0_230_13518">
<rect width="614.4" height="460.8" fill="white"/>
</clipPath>
</defs>
</svg>
