<svg width="615" height="461" viewBox="0 0 615 461" fill="none" xmlns="http://www.w3.org/2000/svg">
<g clip-path="url(#clip0_230_13678)">
<mask id="mask0_230_13678" style="mask-type:luminance" maskUnits="userSpaceOnUse" x="76" y="55" width="477" height="356">
<path d="M552.957 55.2959H76.7969V410.112H552.957V55.2959Z" fill="white"/>
</mask>
<g mask="url(#mask0_230_13678)">
<path d="M339.898 410.112L348.555 409.988L353.365 409.627L355.288 409.218L357.212 408.391L359.136 406.993L361.06 405.058L362.983 402.686L364.907 399.671L365.869 397.735L366.831 395.383L367.793 392.529L368.754 389.103L369.716 385.048L371.64 374.886L373.564 361.841L375.488 346.221L380.297 304.98L382.221 292.145L383.182 287.292L384.144 283.684L385.106 281.38L386.068 280.339L387.03 280.419L387.992 281.415L388.954 283.09L390.877 287.568L393.763 294.585L399.534 307.504L404.344 319.272L410.115 331.616L413 338.754L414.924 342.668L416.848 345.687L420.695 351.282L423.581 355.807L425.505 358.363L428.39 361.621L432.238 365.493L435.123 368.297L437.047 370.682L438.971 373.651L444.742 383.286L447.628 387.379L453.399 395.054L456.284 398.265L458.208 400.033L461.094 402.194L466.865 406.129L468.789 407.019L470.712 407.586L476.484 408.734L480.331 409.32L485.14 409.674L492.835 409.956L508.225 410.039L524.577 410.083L531.31 410.112" fill="#EFEFEF" fill-opacity="0.4"/>
<path d="M339.898 410.112L348.555 409.988L353.365 409.627L355.288 409.218L357.212 408.391L359.136 406.993L361.06 405.058L362.983 402.686L364.907 399.671L365.869 397.735L366.831 395.383L367.793 392.529L368.754 389.103L369.716 385.048L371.64 374.886L373.564 361.841L375.488 346.221L380.297 304.98L382.221 292.145L383.182 287.292L384.144 283.684L385.106 281.38L386.068 280.339L387.03 280.419L387.992 281.415L388.954 283.09L390.877 287.568L393.763 294.585L399.534 307.504L404.344 319.272L410.115 331.616L413 338.754L414.924 342.668L416.848 345.687L420.695 351.282L423.581 355.807L425.505 358.363L428.39 361.621L432.238 365.493L435.123 368.297L437.047 370.682L438.971 373.651L444.742 383.286L447.628 387.379L453.399 395.054L456.284 398.265L458.208 400.033L461.094 402.194L466.865 406.129L468.789 407.019L470.712 407.586L476.484 408.734L480.331 409.32L485.14 409.674L492.835 409.956L508.225 410.039L524.577 410.083L531.31 410.112" stroke="#EFEFEF" stroke-linecap="square"/>
</g>
<mask id="mask1_230_13678" style="mask-type:luminance" maskUnits="userSpaceOnUse" x="76" y="55" width="477" height="356">
<path d="M552.957 55.2959H76.7969V410.112H552.957V55.2959Z" fill="white"/>
</mask>
<g mask="url(#mask1_230_13678)">
<path d="M335.969 410.111L348.745 409.938L357.87 409.272L362.433 409.094L365.171 408.761L366.996 408L368.821 407.081L372.472 405.745L374.297 404.14L377.947 400.292L378.86 398.884L379.772 397.124L380.685 394.911L382.51 389.183L384.335 382.228L386.16 373.454L387.985 363.06L389.81 350.293L392.548 326.455L395.286 298.919L397.111 277L400.761 224.898L402.586 205.914L404.412 190.721L405.324 185.235L406.237 181.596L407.149 179.874L408.062 179.965L408.974 181.932L409.887 186.186L410.8 193.066L411.712 202.276L413.537 225.345L417.188 278.782L419.925 309.907L422.663 336.169L424.488 351.577L426.313 364.104L428.138 373.704L429.964 381.584L431.789 388.202L433.614 393.268L435.439 397.677L437.264 401.226L439.089 403.859L440.002 404.855L440.914 405.555L442.739 406.19L444.565 406.93L446.39 407.806L450.953 409.083L453.69 409.685L455.515 409.764L458.253 409.752L464.641 409.961L517.57 410.111" fill="#EFEFEF" fill-opacity="0.4"/>
<path d="M335.969 410.111L348.745 409.938L357.87 409.272L362.433 409.094L365.171 408.761L366.996 408L368.821 407.081L372.472 405.745L374.297 404.14L377.947 400.292L378.86 398.884L379.772 397.124L380.685 394.911L382.51 389.183L384.335 382.228L386.16 373.454L387.985 363.06L389.81 350.293L392.548 326.455L395.286 298.919L397.111 277L400.761 224.898L402.586 205.914L404.412 190.721L405.324 185.235L406.237 181.596L407.149 179.874L408.062 179.965L408.974 181.932L409.887 186.186L410.8 193.066L411.712 202.276L413.537 225.345L417.188 278.782L419.925 309.907L422.663 336.169L424.488 351.577L426.313 364.104L428.138 373.704L429.964 381.584L431.789 388.202L433.614 393.268L435.439 397.677L437.264 401.226L439.089 403.859L440.002 404.855L440.914 405.555L442.739 406.19L444.565 406.93L446.39 407.806L450.953 409.083L453.69 409.685L455.515 409.764L458.253 409.752L464.641 409.961L517.57 410.111" stroke="#EFEFEF" stroke-linecap="square"/>
</g>
<mask id="mask2_230_13678" style="mask-type:luminance" maskUnits="userSpaceOnUse" x="76" y="55" width="477" height="356">
<path d="M552.957 55.2959H76.7969V410.112H552.957V55.2959Z" fill="white"/>
</mask>
<g mask="url(#mask2_230_13678)">
<path d="M328.836 410.112L336.996 409.975L349.236 409.399L352.5 408.769L359.844 407.103L361.476 406.354L363.108 405.324L365.556 403.41L368.82 400.499L370.452 398.692L372.084 396.361L373.716 393.357L376.164 387.781L379.428 380.051L381.06 376.706L382.692 373.924L384.324 371.882L385.14 371.18L385.956 370.691L387.588 370.248L390.852 370.22L393.3 370.337L394.932 370.864L396.564 371.804L400.644 374.444L402.276 375.05L403.092 375.149L403.908 375.091L405.54 374.519L407.172 373.401L408.804 371.682L410.436 369.114L412.068 365.546L414.516 358.896L416.964 351.471L418.596 345.5L420.228 337.899L421.86 328.246L423.492 316.397L425.124 302.437L430.02 257.856L431.652 247.688L432.468 244.139L433.284 241.633L434.1 240.145L434.916 239.64L435.732 240.089L436.548 241.484L437.364 243.836L438.18 247.174L438.996 251.519L440.628 263.145L442.26 277.946L447.972 333.96L450.42 354.192L452.052 365.87L453.684 375.793L455.316 383.701L456.948 389.693L458.58 394.298L460.212 398.043L461.844 401.067L463.476 403.302L465.108 404.845L467.556 406.499L470.003 407.868L472.451 408.851L474.899 409.382L478.979 409.832L483.875 410.059L491.219 410.112" fill="#EFEFEF" fill-opacity="0.4"/>
<path d="M328.836 410.112L336.996 409.975L349.236 409.399L352.5 408.769L359.844 407.103L361.476 406.354L363.108 405.324L365.556 403.41L368.82 400.499L370.452 398.692L372.084 396.361L373.716 393.357L376.164 387.781L379.428 380.051L381.06 376.706L382.692 373.924L384.324 371.882L385.14 371.18L385.956 370.691L387.588 370.248L390.852 370.22L393.3 370.337L394.932 370.864L396.564 371.804L400.644 374.444L402.276 375.05L403.092 375.149L403.908 375.091L405.54 374.519L407.172 373.401L408.804 371.682L410.436 369.114L412.068 365.546L414.516 358.896L416.964 351.471L418.596 345.5L420.228 337.899L421.86 328.246L423.492 316.397L425.124 302.437L430.02 257.856L431.652 247.688L432.468 244.139L433.284 241.633L434.1 240.145L434.916 239.64L435.732 240.089L436.548 241.484L437.364 243.836L438.18 247.174L438.996 251.519L440.628 263.145L442.26 277.946L447.972 333.96L450.42 354.192L452.052 365.87L453.684 375.793L455.316 383.701L456.948 389.693L458.58 394.298L460.212 398.043L461.844 401.067L463.476 403.302L465.108 404.845L467.556 406.499L470.003 407.868L472.451 408.851L474.899 409.382L478.979 409.832L483.875 410.059L491.219 410.112" stroke="#EFEFEF" stroke-linecap="square"/>
</g>
<mask id="mask3_230_13678" style="mask-type:luminance" maskUnits="userSpaceOnUse" x="76" y="55" width="477" height="356">
<path d="M552.957 55.2959H76.7969V410.112H552.957V55.2959Z" fill="white"/>
</mask>
<g mask="url(#mask3_230_13678)">
<path d="M342.914 410.111L348.862 409.966L361.609 408.744L363.309 408.275L365.008 407.537L366.708 406.339L368.407 404.532L370.107 402.046L371.806 398.747L373.506 394.337L375.205 388.565L376.905 381.542L379.454 369.611L382.853 353.364L384.553 346.678L386.252 341.567L388.802 335.368L391.351 329.659L393.9 324.661L397.3 318.331L398.999 314.34L402.398 305.773L404.948 300.749L407.497 296.388L409.196 294.143L410.046 293.292L410.896 292.656L411.746 292.289L412.595 292.252L413.445 292.584L414.295 293.282L415.145 294.318L415.995 295.656L417.694 299.163L422.793 311.67L425.342 316.756L427.042 321.355L429.591 330.139L436.389 354.263L438.089 359.103L443.187 372.001L446.586 381.019L448.286 384.756L450.835 389.453L455.084 396.464L456.784 398.818L458.483 400.693L460.183 402.189L462.732 403.963L464.432 404.843L467.831 406.135L475.479 408.878L478.028 409.29L482.277 409.558L491.624 409.875L512.019 410.111" fill="#EFEFEF" fill-opacity="0.4"/>
<path d="M342.914 410.111L348.862 409.966L361.609 408.744L363.309 408.275L365.008 407.537L366.708 406.339L368.407 404.532L370.107 402.046L371.806 398.747L373.506 394.337L375.205 388.565L376.905 381.542L379.454 369.611L382.853 353.364L384.553 346.678L386.252 341.567L388.802 335.368L391.351 329.659L393.9 324.661L397.3 318.331L398.999 314.34L402.398 305.773L404.948 300.749L407.497 296.388L409.196 294.143L410.046 293.292L410.896 292.656L411.746 292.289L412.595 292.252L413.445 292.584L414.295 293.282L415.145 294.318L415.995 295.656L417.694 299.163L422.793 311.67L425.342 316.756L427.042 321.355L429.591 330.139L436.389 354.263L438.089 359.103L443.187 372.001L446.586 381.019L448.286 384.756L450.835 389.453L455.084 396.464L456.784 398.818L458.483 400.693L460.183 402.189L462.732 403.963L464.432 404.843L467.831 406.135L475.479 408.878L478.028 409.29L482.277 409.558L491.624 409.875L512.019 410.111" stroke="#EFEFEF" stroke-linecap="square"/>
</g>
<mask id="mask4_230_13678" style="mask-type:luminance" maskUnits="userSpaceOnUse" x="76" y="55" width="477" height="356">
<path d="M552.957 55.2959H76.7969V410.112H552.957V55.2959Z" fill="white"/>
</mask>
<g mask="url(#mask4_230_13678)">
<path d="M336.805 410.111L343.162 409.933L345.546 409.882L347.93 409.931L356.671 409.335L359.849 408.756L361.439 408.468L363.028 408.524L365.412 408.786L367.001 408.587L370.18 407.541L372.564 407.459L373.358 407.213L374.947 406.153L377.331 404.039L378.126 402.977L378.921 401.248L379.715 398.698L381.305 392.006L382.894 384.268L383.689 379.323L384.483 372.981L385.278 364.981L386.072 355.172L386.867 343.189L388.456 311.481L390.046 270.386L394.019 153.086L394.813 136.16L395.608 123.578L396.403 116.238L397.197 114.587L397.992 117.97L398.787 124.843L399.581 133.976L400.376 145.331L401.965 174.658L403.555 203.832L405.144 225.587L407.528 253.543L409.117 266.792L410.706 278.812L412.296 294.831L416.269 338.618L419.447 365.734L421.037 376.441L423.421 388.383L425.01 394.784L426.599 399.836L427.394 401.89L428.188 403.514L428.983 404.713L429.778 405.541L430.572 406.072L432.956 407.123L434.546 408.179L436.135 408.783L438.519 409.204L440.903 409.271L443.287 409.443L444.876 409.489L447.26 409.344L448.849 409.572L451.233 409.994L456.001 409.834L459.179 409.74L463.153 409.912L466.331 409.761L471.099 409.987L475.867 410.038L479.84 410.112L494.938 410.111" fill="#EFEFEF" fill-opacity="0.4"/>
<path d="M336.805 410.111L343.162 409.933L345.546 409.882L347.93 409.931L356.671 409.335L359.849 408.756L361.439 408.468L363.028 408.524L365.412 408.786L367.001 408.587L370.18 407.541L372.564 407.459L373.358 407.213L374.947 406.153L377.331 404.039L378.126 402.977L378.921 401.248L379.715 398.698L381.305 392.006L382.894 384.268L383.689 379.323L384.483 372.981L385.278 364.981L386.072 355.172L386.867 343.189L388.456 311.481L390.046 270.386L394.019 153.086L394.813 136.16L395.608 123.578L396.403 116.238L397.197 114.587L397.992 117.97L398.787 124.843L399.581 133.976L400.376 145.331L401.965 174.658L403.555 203.832L405.144 225.587L407.528 253.543L409.117 266.792L410.706 278.812L412.296 294.831L416.269 338.618L419.447 365.734L421.037 376.441L423.421 388.383L425.01 394.784L426.599 399.836L427.394 401.89L428.188 403.514L428.983 404.713L429.778 405.541L430.572 406.072L432.956 407.123L434.546 408.179L436.135 408.783L438.519 409.204L440.903 409.271L443.287 409.443L444.876 409.489L447.26 409.344L448.849 409.572L451.233 409.994L456.001 409.834L459.179 409.74L463.153 409.912L466.331 409.761L471.099 409.987L475.867 410.038L479.84 410.112L494.938 410.111" stroke="#EFEFEF" stroke-linecap="square"/>
</g>
<mask id="mask5_230_13678" style="mask-type:luminance" maskUnits="userSpaceOnUse" x="76" y="55" width="477" height="356">
<path d="M552.957 55.2959H76.7969V410.112H552.957V55.2959Z" fill="white"/>
</mask>
<g mask="url(#mask5_230_13678)">
<path d="M330.688 410.111L342.882 409.991L347.237 409.634L350.721 409.023L352.463 408.523L354.205 407.756L355.947 406.587L357.689 405.008L359.431 403.104L361.173 400.772L362.915 397.608L364.657 393.18L366.399 387.487L370.754 371.345L374.238 357.322L376.851 346.971L379.464 337.823L382.077 328.764L389.045 302.222L393.4 281.799L395.142 275.754L396.884 270.995L397.755 269.096L398.626 267.613L399.497 266.617L400.368 266.135L401.239 266.149L402.11 266.616L402.981 267.508L403.852 268.845L404.723 270.716L405.594 273.257L406.465 276.6L407.336 280.798L409.078 291.305L411.691 308.198L414.304 322.674L416.917 335.61L418.659 343.213L420.401 349.907L422.143 355.647L424.756 362.818L429.111 374.378L430.853 377.968L435.208 385.648L436.95 388.425L438.692 390.751L440.434 392.656L443.047 395.002L446.531 398.166L449.144 400.433L453.499 403.509L455.242 404.514L456.984 405.221L458.726 405.594L462.21 406.156L464.823 407.131L467.436 408.038L470.92 408.814L474.404 409.237L483.985 409.925L493.566 410.048L504.018 410.111" fill="#EFEFEF" fill-opacity="0.4"/>
<path d="M330.688 410.111L342.882 409.991L347.237 409.634L350.721 409.023L352.463 408.523L354.205 407.756L355.947 406.587L357.689 405.008L359.431 403.104L361.173 400.772L362.915 397.608L364.657 393.18L366.399 387.487L370.754 371.345L374.238 357.322L376.851 346.971L379.464 337.823L382.077 328.764L389.045 302.222L393.4 281.799L395.142 275.754L396.884 270.995L397.755 269.096L398.626 267.613L399.497 266.617L400.368 266.135L401.239 266.149L402.11 266.616L402.981 267.508L403.852 268.845L404.723 270.716L405.594 273.257L406.465 276.6L407.336 280.798L409.078 291.305L411.691 308.198L414.304 322.674L416.917 335.61L418.659 343.213L420.401 349.907L422.143 355.647L424.756 362.818L429.111 374.378L430.853 377.968L435.208 385.648L436.95 388.425L438.692 390.751L440.434 392.656L443.047 395.002L446.531 398.166L449.144 400.433L453.499 403.509L455.242 404.514L456.984 405.221L458.726 405.594L462.21 406.156L464.823 407.131L467.436 408.038L470.92 408.814L474.404 409.237L483.985 409.925L493.566 410.048L504.018 410.111" stroke="#EFEFEF" stroke-linecap="square"/>
</g>
<mask id="mask6_230_13678" style="mask-type:luminance" maskUnits="userSpaceOnUse" x="76" y="55" width="477" height="356">
<path d="M552.957 55.2959H76.7969V410.112H552.957V55.2959Z" fill="white"/>
</mask>
<g mask="url(#mask6_230_13678)">
<path d="M321.82 410.112L330.782 409.974L333.77 409.738L335.761 409.384L337.753 408.788L339.745 407.912L341.736 406.674L342.732 405.848L343.728 404.825L344.724 403.553L345.719 401.996L346.715 400.13L348.707 395.444L350.698 389.467L352.69 382.101L354.681 372.988L356.673 361.411L358.665 347.167L362.648 316.95L365.635 297.111L368.623 279.4L370.614 269.039L372.606 260.278L373.602 256.848L374.597 254.25L375.593 252.553L376.589 251.743L377.585 251.739L378.581 252.418L379.576 253.647L380.572 255.318L381.568 257.386L382.564 259.893L383.56 262.959L384.555 266.723L385.551 271.265L387.543 282.418L390.53 302.147L393.517 324.575L396.505 346.922L398.496 358.792L400.488 367.874L402.48 375.238L404.471 381.325L405.467 383.757L406.463 385.717L407.459 387.248L409.45 389.502L412.438 392.225L414.429 393.469L419.408 395.432L421.4 395.921L423.391 395.811L425.383 395.553L426.379 395.592L428.37 396.082L431.358 396.939L436.337 397.694L438.328 398.461L441.316 399.702L447.29 401.729L453.265 404.894L457.248 406.384L460.236 407.232L465.215 408.233L472.185 409.47L476.168 409.811L482.143 409.863L498.076 410.058L519.983 410.112" fill="#EFEFEF" fill-opacity="0.4"/>
<path d="M321.82 410.112L330.782 409.974L333.77 409.738L335.761 409.384L337.753 408.788L339.745 407.912L341.736 406.674L342.732 405.848L343.728 404.825L344.724 403.553L345.719 401.996L346.715 400.13L348.707 395.444L350.698 389.467L352.69 382.101L354.681 372.988L356.673 361.411L358.665 347.167L362.648 316.95L365.635 297.111L368.623 279.4L370.614 269.039L372.606 260.278L373.602 256.848L374.597 254.25L375.593 252.553L376.589 251.743L377.585 251.739L378.581 252.418L379.576 253.647L380.572 255.318L381.568 257.386L382.564 259.893L383.56 262.959L384.555 266.723L385.551 271.265L387.543 282.418L390.53 302.147L393.517 324.575L396.505 346.922L398.496 358.792L400.488 367.874L402.48 375.238L404.471 381.325L405.467 383.757L406.463 385.717L407.459 387.248L409.45 389.502L412.438 392.225L414.429 393.469L419.408 395.432L421.4 395.921L423.391 395.811L425.383 395.553L426.379 395.592L428.37 396.082L431.358 396.939L436.337 397.694L438.328 398.461L441.316 399.702L447.29 401.729L453.265 404.894L457.248 406.384L460.236 407.232L465.215 408.233L472.185 409.47L476.168 409.811L482.143 409.863L498.076 410.058L519.983 410.112" stroke="#EFEFEF" stroke-linecap="square"/>
</g>
<mask id="mask7_230_13678" style="mask-type:luminance" maskUnits="userSpaceOnUse" x="76" y="55" width="477" height="356">
<path d="M552.957 55.2959H76.7969V410.112H552.957V55.2959Z" fill="white"/>
</mask>
<g mask="url(#mask7_230_13678)">
<path d="M336.344 410.11L342.535 409.97L347.842 409.517L350.495 409.026L352.264 408.471L354.033 407.6L355.802 406.195L357.571 404.008L359.34 400.961L361.109 397.189L362.878 392.741L364.647 387.521L367.3 378.438L369.069 371.504L370.838 363.218L372.607 353.358L377.914 322.31L379.682 313.659L381.451 306.291L384.105 296.678L385.874 291.139L387.643 286.605L389.412 283.264L390.296 282.13L391.181 281.417L392.065 281.171L392.949 281.415L393.834 282.14L394.718 283.305L395.603 284.85L397.372 288.892L399.141 294.166L400.91 300.662L403.563 311.05L405.332 316.811L412.408 335.947L414.177 340.128L415.945 343.607L418.599 347.998L420.368 350.894L422.137 354.401L427.444 366.322L437.173 383.335L443.364 393.575L446.017 396.856L451.324 402.519L453.093 404.182L454.862 405.526L456.631 406.489L458.4 407.123L466.36 409.277L469.898 409.667L475.205 409.888L482.28 409.943L488.472 409.993L495.547 410.066L512.352 410.111" fill="#EFEFEF" fill-opacity="0.4"/>
<path d="M336.344 410.11L342.535 409.97L347.842 409.517L350.495 409.026L352.264 408.471L354.033 407.6L355.802 406.195L357.571 404.008L359.34 400.961L361.109 397.189L362.878 392.741L364.647 387.521L367.3 378.438L369.069 371.504L370.838 363.218L372.607 353.358L377.914 322.31L379.682 313.659L381.451 306.291L384.105 296.678L385.874 291.139L387.643 286.605L389.412 283.264L390.296 282.13L391.181 281.417L392.065 281.171L392.949 281.415L393.834 282.14L394.718 283.305L395.603 284.85L397.372 288.892L399.141 294.166L400.91 300.662L403.563 311.05L405.332 316.811L412.408 335.947L414.177 340.128L415.945 343.607L418.599 347.998L420.368 350.894L422.137 354.401L427.444 366.322L437.173 383.335L443.364 393.575L446.017 396.856L451.324 402.519L453.093 404.182L454.862 405.526L456.631 406.489L458.4 407.123L466.36 409.277L469.898 409.667L475.205 409.888L482.28 409.943L488.472 409.993L495.547 410.066L512.352 410.111" stroke="#EFEFEF" stroke-linecap="square"/>
</g>
<mask id="mask8_230_13678" style="mask-type:luminance" maskUnits="userSpaceOnUse" x="76" y="55" width="477" height="356">
<path d="M552.957 55.2959H76.7969V410.112H552.957V55.2959Z" fill="white"/>
</mask>
<g mask="url(#mask8_230_13678)">
<path d="M346.234 410.111L349.736 409.984L354.114 409.717L359.367 409.469L361.993 409.379L366.371 408.88L370.749 408.857L372.5 408.534L374.251 407.929L378.628 405.796L380.379 404.47L381.255 403.441L383.881 399.453L385.632 397.483L386.508 396.021L387.383 393.827L389.134 387.392L390.885 380.771L394.387 369.975L397.014 357.783L398.765 348.094L400.516 337.364L402.267 323.901L404.018 307.836L404.893 298.834L405.769 287.694L406.644 273.318L411.022 186.696L412.773 161.668L414.524 142.316L415.399 135.09L416.275 130.74L417.15 131.306L418.026 137.53L418.901 148.053L420.652 176.229L422.403 214.99L424.154 257.562L425.905 293.445L427.656 321.728L429.407 344.116L431.158 363.878L432.909 379.837L433.785 385.628L434.66 390.096L435.536 393.476L437.287 398.46L439.038 402.872L439.913 404.439L440.789 405.409L444.291 407.986L445.166 408.37L449.544 409.201L460.05 409.905L463.552 410.074L469.681 410.109L484.564 410.101L501.199 410.112L520.46 410.111" fill="#EFEFEF" fill-opacity="0.4"/>
<path d="M346.234 410.111L349.736 409.984L354.114 409.717L359.367 409.469L361.993 409.379L366.371 408.88L370.749 408.857L372.5 408.534L374.251 407.929L378.628 405.796L380.379 404.47L381.255 403.441L383.881 399.453L385.632 397.483L386.508 396.021L387.383 393.827L389.134 387.392L390.885 380.771L394.387 369.975L397.014 357.783L398.765 348.094L400.516 337.364L402.267 323.901L404.018 307.836L404.893 298.834L405.769 287.694L406.644 273.318L411.022 186.696L412.773 161.668L414.524 142.316L415.399 135.09L416.275 130.74L417.15 131.306L418.026 137.53L418.901 148.053L420.652 176.229L422.403 214.99L424.154 257.562L425.905 293.445L427.656 321.728L429.407 344.116L431.158 363.878L432.909 379.837L433.785 385.628L434.66 390.096L435.536 393.476L437.287 398.46L439.038 402.872L439.913 404.439L440.789 405.409L444.291 407.986L445.166 408.37L449.544 409.201L460.05 409.905L463.552 410.074L469.681 410.109L484.564 410.101L501.199 410.112L520.46 410.111" stroke="#EFEFEF" stroke-linecap="square"/>
</g>
<mask id="mask9_230_13678" style="mask-type:luminance" maskUnits="userSpaceOnUse" x="76" y="55" width="477" height="356">
<path d="M552.957 55.2959H76.7969V410.112H552.957V55.2959Z" fill="white"/>
</mask>
<g mask="url(#mask9_230_13678)">
<path d="M333.898 410.112L350.7 409.967L354.9 409.532L359.1 408.956L361.621 408.23L364.981 406.789L367.501 405.569L369.181 404.521L370.861 403.151L374.222 399.791L377.582 396.325L379.262 394.091L380.942 391.077L382.622 387.28L385.143 380.503L393.543 355.628L398.584 339.071L404.464 321.705L406.984 314.621L408.664 310.691L412.025 303.812L416.225 295.795L417.905 293.17L418.745 292.319L419.585 291.896L420.425 291.903L421.265 292.265L422.945 293.581L427.986 298.121L428.826 299.12L429.666 300.351L430.506 301.875L432.186 305.941L433.866 311.31L439.747 332.043L443.107 342.973L446.467 355.07L451.508 373.335L454.028 381.773L455.708 386.652L457.388 390.728L459.068 394.129L461.589 398.537L464.109 402.457L465.789 404.604L467.469 406.212L469.149 407.307L471.669 408.38L474.19 409.154L476.71 409.562L483.43 409.952L490.151 410L501.072 410.112" fill="#EFEFEF" fill-opacity="0.4"/>
<path d="M333.898 410.112L350.7 409.967L354.9 409.532L359.1 408.956L361.621 408.23L364.981 406.789L367.501 405.569L369.181 404.521L370.861 403.151L374.222 399.791L377.582 396.325L379.262 394.091L380.942 391.077L382.622 387.28L385.143 380.503L393.543 355.628L398.584 339.071L404.464 321.705L406.984 314.621L408.664 310.691L412.025 303.812L416.225 295.795L417.905 293.17L418.745 292.319L419.585 291.896L420.425 291.903L421.265 292.265L422.945 293.581L427.986 298.121L428.826 299.12L429.666 300.351L430.506 301.875L432.186 305.941L433.866 311.31L439.747 332.043L443.107 342.973L446.467 355.07L451.508 373.335L454.028 381.773L455.708 386.652L457.388 390.728L459.068 394.129L461.589 398.537L464.109 402.457L465.789 404.604L467.469 406.212L469.149 407.307L471.669 408.38L474.19 409.154L476.71 409.562L483.43 409.952L490.151 410L501.072 410.112" stroke="#EFEFEF" stroke-linecap="square"/>
</g>
<mask id="mask10_230_13678" style="mask-type:luminance" maskUnits="userSpaceOnUse" x="76" y="55" width="477" height="356">
<path d="M552.957 55.2959H76.7969V410.112H552.957V55.2959Z" fill="white"/>
</mask>
<g mask="url(#mask10_230_13678)">
<path d="M341.922 410.111L348.518 409.974L358.412 409.535L361.71 409.046L364.184 408.466L365.833 407.819L369.131 406.064L370.78 404.994L372.429 403.495L373.254 402.472L374.078 401.197L374.903 399.615L375.727 397.671L376.552 395.307L377.376 392.463L379.025 385.106L380.674 375.303L382.323 363.216L384.797 341.8L388.095 309.433L391.393 276.809L393.042 263.015L394.691 252.427L396.34 244.603L397.989 238.231L398.814 235.584L399.638 233.579L400.463 232.466L401.287 232.391L402.112 233.369L402.936 235.331L403.761 238.181L405.41 246.051L408.708 265.262L411.182 280.722L417.778 323.758L421.076 343.589L421.9 347.649L422.725 350.934L424.374 355.619L426.023 359.635L427.672 364.408L430.145 372.027L431.795 376.021L433.444 378.983L436.742 384.517L438.391 387.308L440.04 389.451L442.513 392.099L450.758 402.277L452.408 403.749L454.881 405.413L457.355 406.695L459.828 407.548L464.775 408.808L473.021 409.755L476.319 409.904L484.564 409.967L492.809 410.11L506.001 410.111" fill="#EFEFEF" fill-opacity="0.4"/>
<path d="M341.922 410.111L348.518 409.974L358.412 409.535L361.71 409.046L364.184 408.466L365.833 407.819L369.131 406.064L370.78 404.994L372.429 403.495L373.254 402.472L374.078 401.197L374.903 399.615L375.727 397.671L376.552 395.307L377.376 392.463L379.025 385.106L380.674 375.303L382.323 363.216L384.797 341.8L388.095 309.433L391.393 276.809L393.042 263.015L394.691 252.427L396.34 244.603L397.989 238.231L398.814 235.584L399.638 233.579L400.463 232.466L401.287 232.391L402.112 233.369L402.936 235.331L403.761 238.181L405.41 246.051L408.708 265.262L411.182 280.722L417.778 323.758L421.076 343.589L421.9 347.649L422.725 350.934L424.374 355.619L426.023 359.635L427.672 364.408L430.145 372.027L431.795 376.021L433.444 378.983L436.742 384.517L438.391 387.308L440.04 389.451L442.513 392.099L450.758 402.277L452.408 403.749L454.881 405.413L457.355 406.695L459.828 407.548L464.775 408.808L473.021 409.755L476.319 409.904L484.564 409.967L492.809 410.11L506.001 410.111" stroke="#EFEFEF" stroke-linecap="square"/>
</g>
<mask id="mask11_230_13678" style="mask-type:luminance" maskUnits="userSpaceOnUse" x="76" y="55" width="477" height="356">
<path d="M552.957 55.2959H76.7969V410.112H552.957V55.2959Z" fill="white"/>
</mask>
<g mask="url(#mask11_230_13678)">
<path d="M342.953 410.111L346.54 409.945L350.845 409.556L353.715 408.852L355.15 408.979L356.585 409.214L362.324 408.991L364.476 408.269L366.629 408.042L371.651 407.635L372.368 407.349L373.086 406.781L374.521 405.041L375.956 402.802L378.108 398.345L378.825 396.682L379.543 394.642L380.26 391.991L381.695 385.101L383.13 376.573L384.565 365.773L386 352.031L387.435 334.362L388.87 310.963L391.739 256.719L393.174 221.992L396.044 147.141L398.196 99.4671L398.914 86.7339L399.631 77.0372L400.349 72.1924L401.066 73.5584L401.784 81.1943L402.501 94.2292L403.936 132.711L408.241 269.285L409.675 302.968L411.11 329.077L411.828 338.759L413.263 352.649L414.698 362.971L416.132 370.988L418.285 379.366L419.72 384.66L421.155 388.624L422.589 392.219L424.024 396.155L425.459 399.066L426.177 399.994L427.612 401.168L429.764 402.463L431.916 403.331L435.504 405.731L436.938 406.122L440.526 406.686L443.395 407.598L446.265 408.752L447.7 408.939L455.592 409.346L459.897 409.689L462.766 409.735L465.636 409.824L467.788 409.784L472.093 410.108L475.68 409.982L478.55 409.934L485.725 410.111" fill="#EFEFEF" fill-opacity="0.4"/>
<path d="M342.953 410.111L346.54 409.945L350.845 409.556L353.715 408.852L355.15 408.979L356.585 409.214L362.324 408.991L364.476 408.269L366.629 408.042L371.651 407.635L372.368 407.349L373.086 406.781L374.521 405.041L375.956 402.802L378.108 398.345L378.825 396.682L379.543 394.642L380.26 391.991L381.695 385.101L383.13 376.573L384.565 365.773L386 352.031L387.435 334.362L388.87 310.963L391.739 256.719L393.174 221.992L396.044 147.141L398.196 99.4671L398.914 86.7339L399.631 77.0372L400.349 72.1924L401.066 73.5584L401.784 81.1943L402.501 94.2292L403.936 132.711L408.241 269.285L409.675 302.968L411.11 329.077L411.828 338.759L413.263 352.649L414.698 362.971L416.132 370.988L418.285 379.366L419.72 384.66L421.155 388.624L422.589 392.219L424.024 396.155L425.459 399.066L426.177 399.994L427.612 401.168L429.764 402.463L431.916 403.331L435.504 405.731L436.938 406.122L440.526 406.686L443.395 407.598L446.265 408.752L447.7 408.939L455.592 409.346L459.897 409.689L462.766 409.735L465.636 409.824L467.788 409.784L472.093 410.108L475.68 409.982L478.55 409.934L485.725 410.111" stroke="#EFEFEF" stroke-linecap="square"/>
</g>
<mask id="mask12_230_13678" style="mask-type:luminance" maskUnits="userSpaceOnUse" x="76" y="55" width="477" height="356">
<path d="M552.957 55.2959H76.7969V410.112H552.957V55.2959Z" fill="white"/>
</mask>
<g mask="url(#mask12_230_13678)">
<path d="M334.742 410.111L353.771 409.94L365.551 409.228L367.363 409.049L373.706 408.918L377.331 408.421L380.049 408.111L380.955 407.772L381.861 407.221L383.674 405.543L384.58 404.421L385.486 402.991L386.392 401.1L387.298 398.645L388.204 395.6L390.016 387.788L391.829 377.65L393.641 364.865L395.453 349.152L397.266 330.41L399.078 308.313L401.796 273.065L403.608 253.714L405.421 237.965L406.327 231.731L407.233 227.066L408.139 224.112L409.045 222.749L409.951 222.688L410.858 223.606L411.764 225.263L412.67 227.534L413.576 230.367L414.482 233.792L415.388 237.941L417.2 248.759L420.825 273.52L424.45 295.08L427.168 311.649L431.699 340.313L433.511 350.143L435.323 357.281L440.76 375.822L442.572 381.853L443.478 384.407L444.385 386.505L446.197 389.573L448.915 393.725L452.54 399.948L453.446 401.079L455.258 402.561L461.601 406.642L463.413 407.209L466.132 407.985L468.85 408.805L471.569 409.366L475.193 409.754L481.536 410.015L486.973 409.971L496.034 410.112L515.063 410.111" fill="#EFEFEF" fill-opacity="0.4"/>
<path d="M334.742 410.111L353.771 409.94L365.551 409.228L367.363 409.049L373.706 408.918L377.331 408.421L380.049 408.111L380.955 407.772L381.861 407.221L383.674 405.543L384.58 404.421L385.486 402.991L386.392 401.1L387.298 398.645L388.204 395.6L390.016 387.788L391.829 377.65L393.641 364.865L395.453 349.152L397.266 330.41L399.078 308.313L401.796 273.065L403.608 253.714L405.421 237.965L406.327 231.731L407.233 227.066L408.139 224.112L409.045 222.749L409.951 222.688L410.858 223.606L411.764 225.263L412.67 227.534L413.576 230.367L414.482 233.792L415.388 237.941L417.2 248.759L420.825 273.52L424.45 295.08L427.168 311.649L431.699 340.313L433.511 350.143L435.323 357.281L440.76 375.822L442.572 381.853L443.478 384.407L444.385 386.505L446.197 389.573L448.915 393.725L452.54 399.948L453.446 401.079L455.258 402.561L461.601 406.642L463.413 407.209L466.132 407.985L468.85 408.805L471.569 409.366L475.193 409.754L481.536 410.015L486.973 409.971L496.034 410.112L515.063 410.111" stroke="#EFEFEF" stroke-linecap="square"/>
</g>
<mask id="mask13_230_13678" style="mask-type:luminance" maskUnits="userSpaceOnUse" x="76" y="55" width="477" height="356">
<path d="M552.957 55.2959H76.7969V410.112H552.957V55.2959Z" fill="white"/>
</mask>
<g mask="url(#mask13_230_13678)">
<path d="M336.016 410.112L341.769 409.975L346.563 409.873L349.439 409.811L355.192 409.113L357.11 408.616L359.028 407.728L360.945 406.576L361.904 405.856L362.863 404.945L363.822 403.788L364.781 402.36L365.739 400.63L367.657 396.162L369.575 390.416L371.492 383.09L373.41 373.495L375.328 360.698L379.163 329.897L382.04 305.136L383.957 288.907L385.875 275.617L388.751 258.29L389.71 253.666L390.669 250.221L391.628 247.919L392.587 246.479L393.546 245.749L394.504 245.865L395.463 246.994L396.422 248.977L398.34 253.53L402.175 261.114L403.134 263.787L404.093 267.285L405.051 271.808L406.969 283.716L408.887 296.43L410.804 306.289L412.722 314.871L414.64 325.374L417.516 342.907L420.393 358.198L422.31 366.938L426.146 382.304L428.063 388.661L429.981 393.603L431.899 397.502L433.816 400.681L435.734 403.186L437.652 404.927L439.569 406.047L441.487 406.859L445.322 408.032L448.199 408.623L455.87 409.697L458.746 409.756L462.581 409.991L469.293 410.063L473.129 410.052L477.923 409.989L483.676 410.019L487.511 410.05L494.223 410.112L526.823 410.112" fill="#EFEFEF" fill-opacity="0.4"/>
<path d="M336.016 410.112L341.769 409.975L346.563 409.873L349.439 409.811L355.192 409.113L357.11 408.616L359.028 407.728L360.945 406.576L361.904 405.856L362.863 404.945L363.822 403.788L364.781 402.36L365.739 400.63L367.657 396.162L369.575 390.416L371.492 383.09L373.41 373.495L375.328 360.698L379.163 329.897L382.04 305.136L383.957 288.907L385.875 275.617L388.751 258.29L389.71 253.666L390.669 250.221L391.628 247.919L392.587 246.479L393.546 245.749L394.504 245.865L395.463 246.994L396.422 248.977L398.34 253.53L402.175 261.114L403.134 263.787L404.093 267.285L405.051 271.808L406.969 283.716L408.887 296.43L410.804 306.289L412.722 314.871L414.64 325.374L417.516 342.907L420.393 358.198L422.31 366.938L426.146 382.304L428.063 388.661L429.981 393.603L431.899 397.502L433.816 400.681L435.734 403.186L437.652 404.927L439.569 406.047L441.487 406.859L445.322 408.032L448.199 408.623L455.87 409.697L458.746 409.756L462.581 409.991L469.293 410.063L473.129 410.052L477.923 409.989L483.676 410.019L487.511 410.05L494.223 410.112L526.823 410.112" stroke="#EFEFEF" stroke-linecap="square"/>
</g>
<mask id="mask14_230_13678" style="mask-type:luminance" maskUnits="userSpaceOnUse" x="76" y="55" width="477" height="356">
<path d="M552.957 55.2959H76.7969V410.112H552.957V55.2959Z" fill="white"/>
</mask>
<g mask="url(#mask14_230_13678)">
<path d="M98.4375 410.112L181.359 410.112L336.571 409.982L342.95 409.678L345.076 409.414L347.202 408.888L349.329 408.075L351.455 407.1L353.581 405.814L355.707 403.808L357.833 401.146L359.96 398.044L362.086 394.285L364.212 389.515L366.338 383.555L368.464 376.64L370.591 369.184L372.717 361.103L376.969 342.639L381.222 324.818L383.348 316.66L385.474 309.187L391.853 289.857L393.979 285.523L396.105 284.653L400.357 287.595L402.484 288.477L404.61 289.668L406.736 292.928L408.862 298.389L413.115 310.92L415.241 317.878L419.493 333.541L423.746 348.274L430.124 370.271L432.25 376.656L434.377 382.416L436.503 387.473L438.629 391.511L442.881 398.547L445.007 401.681L447.134 404.192L449.26 405.807L451.386 406.772L455.638 408.224L457.765 408.799L459.891 409.212L464.143 409.545L474.774 409.813L481.153 409.999L487.531 410.111L521.551 410.112" fill="#7EB0D5" fill-opacity="0.4"/>
<path d="M98.4375 410.112L181.359 410.112L336.571 409.982L342.95 409.678L345.076 409.414L347.202 408.888L349.329 408.075L351.455 407.1L353.581 405.814L355.707 403.808L357.833 401.146L359.96 398.044L362.086 394.285L364.212 389.515L366.338 383.555L368.464 376.64L370.591 369.184L372.717 361.103L376.969 342.639L381.222 324.818L383.348 316.66L385.474 309.187L391.853 289.857L393.979 285.523L396.105 284.653L400.357 287.595L402.484 288.477L404.61 289.668L406.736 292.928L408.862 298.389L413.115 310.92L415.241 317.878L419.493 333.541L423.746 348.274L430.124 370.271L432.25 376.656L434.377 382.416L436.503 387.473L438.629 391.511L442.881 398.547L445.007 401.681L447.134 404.192L449.26 405.807L451.386 406.772L455.638 408.224L457.765 408.799L459.891 409.212L464.143 409.545L474.774 409.813L481.153 409.999L487.531 410.111L521.551 410.112" stroke="#7EB0D5" stroke-linecap="square"/>
</g>
<path d="M535.061 411.061C535.646 410.475 535.646 409.525 535.061 408.939L525.515 399.393C524.929 398.808 523.979 398.808 523.393 399.393C522.808 399.979 522.808 400.929 523.393 401.515L531.879 410L523.393 418.485C522.808 419.071 522.808 420.021 523.393 420.607C523.979 421.192 524.929 421.192 525.515 420.607L535.061 411.061ZM79 411.5H534V408.5H79V411.5Z" fill="black"/>
</g>
<defs>
<clipPath id="clip0_230_13678">
<rect width="614.4" height="460.8" fill="white"/>
</clipPath>
</defs>
</svg>
