<svg width="615" height="461" viewBox="0 0 615 461" fill="none" xmlns="http://www.w3.org/2000/svg">
<g clip-path="url(#clip0_230_13758)">
<mask id="mask0_230_13758" style="mask-type:luminance" maskUnits="userSpaceOnUse" x="76" y="55" width="477" height="356">
<path d="M552.957 55.2959H76.7969V410.112H552.957V55.2959Z" fill="white"/>
</mask>
<g mask="url(#mask0_230_13758)">
<path d="M353.266 410.111L360.362 409.968L363.91 409.553L366.572 408.998L369.233 408.144L371.007 407.285L372.781 406.059L374.555 404.333L376.329 401.957L378.103 398.754L379.878 394.478L381.652 388.774L383.426 381.217L385.2 371.451L386.974 359.313L388.748 344.906L391.409 320.03L394.958 285.528L396.732 270.872L397.619 264.962L398.506 260.246L399.393 256.826L400.28 254.709L401.167 253.802L402.054 253.926L402.941 254.854L403.828 256.35L405.602 260.306L407.377 265.016L409.151 270.737L410.925 278.019L412.699 286.822L416.247 305.2L418.021 312.864L419.795 319.24L421.57 324.692L423.344 329.497L425.118 333.72L427.779 339.225L431.327 346.515L434.876 353.748L436.65 356.637L438.424 358.805L440.198 360.268L441.972 361.235L444.633 362.557L446.407 363.742L449.069 365.923L451.73 368.441L455.278 372.449L457.052 374.33L458.826 375.788L460.6 376.818L464.149 378.577L465.923 379.861L467.697 381.651L469.471 383.928L473.019 388.828L474.794 390.822L477.455 393.151L481.003 396.149L487.212 402.039L488.987 403.337L490.761 404.377L493.422 405.566L499.631 407.903L502.293 408.61L506.728 409.441L510.276 409.803L517.373 410.024L529.792 410.111" fill="#EFEFEF" fill-opacity="0.4"/>
<path d="M353.266 410.111L360.362 409.968L363.91 409.553L366.572 408.998L369.233 408.144L371.007 407.285L372.781 406.059L374.555 404.333L376.329 401.957L378.103 398.754L379.878 394.478L381.652 388.774L383.426 381.217L385.2 371.451L386.974 359.313L388.748 344.906L391.409 320.03L394.958 285.528L396.732 270.872L397.619 264.962L398.506 260.246L399.393 256.826L400.28 254.709L401.167 253.802L402.054 253.926L402.941 254.854L403.828 256.35L405.602 260.306L407.377 265.016L409.151 270.737L410.925 278.019L412.699 286.822L416.247 305.2L418.021 312.864L419.795 319.24L421.57 324.692L423.344 329.497L425.118 333.72L427.779 339.225L431.327 346.515L434.876 353.748L436.65 356.637L438.424 358.805L440.198 360.268L441.972 361.235L444.633 362.557L446.407 363.742L449.069 365.923L451.73 368.441L455.278 372.449L457.052 374.33L458.826 375.788L460.6 376.818L464.149 378.577L465.923 379.861L467.697 381.651L469.471 383.928L473.019 388.828L474.794 390.822L477.455 393.151L481.003 396.149L487.212 402.039L488.987 403.337L490.761 404.377L493.422 405.566L499.631 407.903L502.293 408.61L506.728 409.441L510.276 409.803L517.373 410.024L529.792 410.111" stroke="#EFEFEF" stroke-linecap="square"/>
</g>
<mask id="mask1_230_13758" style="mask-type:luminance" maskUnits="userSpaceOnUse" x="76" y="55" width="477" height="356">
<path d="M552.957 55.2959H76.7969V410.112H552.957V55.2959Z" fill="white"/>
</mask>
<g mask="url(#mask1_230_13758)">
<path d="M346.266 410.111L368.571 409.91L376.262 409.783L377.801 409.759L384.723 408.805L387.031 407.879L389.338 406.445L391.646 405.106L394.722 403.637L395.491 403.125L396.26 402.433L397.03 401.502L398.568 398.974L401.644 393.046L403.183 389.576L406.259 381.42L407.798 376.795L409.336 370.735L413.951 348.428L417.797 328.082L419.335 318.256L420.873 305.146L425.488 259.21L427.796 239.24L433.949 178.001L434.718 172.31L435.487 168.298L436.256 166.352L437.025 166.363L437.795 167.822L438.564 170.178L439.333 173.167L440.102 176.886L440.871 181.668L441.64 187.941L442.409 196.118L443.179 206.455L444.717 232.537L447.024 272.869L448.563 295.235L450.87 323.706L452.408 339.519L453.947 352.971L455.485 364.261L457.023 373.909L458.562 382.108L460.1 388.704L461.638 393.916L463.177 397.699L464.715 400.329L467.791 404.797L469.33 406.411L470.868 407.602L472.406 408.349L473.945 408.685L480.098 409.547L483.174 409.815L493.173 410.037L499.327 410.111" fill="#EFEFEF" fill-opacity="0.4"/>
<path d="M346.266 410.111L368.571 409.91L376.262 409.783L377.801 409.759L384.723 408.805L387.031 407.879L389.338 406.445L391.646 405.106L394.722 403.637L395.491 403.125L396.26 402.433L397.03 401.502L398.568 398.974L401.644 393.046L403.183 389.576L406.259 381.42L407.798 376.795L409.336 370.735L413.951 348.428L417.797 328.082L419.335 318.256L420.873 305.146L425.488 259.21L427.796 239.24L433.949 178.001L434.718 172.31L435.487 168.298L436.256 166.352L437.025 166.363L437.795 167.822L438.564 170.178L439.333 173.167L440.102 176.886L440.871 181.668L441.64 187.941L442.409 196.118L443.179 206.455L444.717 232.537L447.024 272.869L448.563 295.235L450.87 323.706L452.408 339.519L453.947 352.971L455.485 364.261L457.023 373.909L458.562 382.108L460.1 388.704L461.638 393.916L463.177 397.699L464.715 400.329L467.791 404.797L469.33 406.411L470.868 407.602L472.406 408.349L473.945 408.685L480.098 409.547L483.174 409.815L493.173 410.037L499.327 410.111" stroke="#EFEFEF" stroke-linecap="square"/>
</g>
<mask id="mask2_230_13758" style="mask-type:luminance" maskUnits="userSpaceOnUse" x="76" y="55" width="477" height="356">
<path d="M552.957 55.2959H76.7969V410.112H552.957V55.2959Z" fill="white"/>
</mask>
<g mask="url(#mask2_230_13758)">
<path d="M345.797 410.111L362.539 409.968L367.562 409.551L375.096 408.658L379.282 407.481L389.327 404.345L391.001 403.531L393.513 401.886L396.024 399.892L398.535 397.496L401.047 394.597L404.395 390.485L406.069 388.937L411.092 385.251L412.766 383.335L415.278 379.895L416.952 377.106L418.626 373.721L421.137 367.786L425.323 357.746L429.509 348.678L432.02 343.643L433.694 340.959L435.368 339.027L437.88 336.496L439.554 334.323L442.902 329.259L444.577 325.974L445.414 323.796L447.088 318.106L448.762 310.959L451.274 298.7L453.785 284.724L459.645 250.285L461.319 243.064L462.156 240.435L462.993 238.58L463.83 237.557L464.667 237.393L465.505 238.093L466.342 239.654L467.179 242.072L468.016 245.353L468.853 249.503L470.527 260.418L472.202 274.579L474.713 299.832L478.061 333.532L480.573 355.173L482.247 367.476L483.921 377.882L485.595 386.341L487.27 392.989L488.944 398.044L490.618 401.763L492.292 404.431L493.967 406.317L495.641 407.646L497.315 408.569L498.989 409.172L501.501 409.647L505.686 409.994L510.709 410.108L512.383 410.111" fill="#EFEFEF" fill-opacity="0.4"/>
<path d="M345.797 410.111L362.539 409.968L367.562 409.551L375.096 408.658L379.282 407.481L389.327 404.345L391.001 403.531L393.513 401.886L396.024 399.892L398.535 397.496L401.047 394.597L404.395 390.485L406.069 388.937L411.092 385.251L412.766 383.335L415.278 379.895L416.952 377.106L418.626 373.721L421.137 367.786L425.323 357.746L429.509 348.678L432.02 343.643L433.694 340.959L435.368 339.027L437.88 336.496L439.554 334.323L442.902 329.259L444.577 325.974L445.414 323.796L447.088 318.106L448.762 310.959L451.274 298.7L453.785 284.724L459.645 250.285L461.319 243.064L462.156 240.435L462.993 238.58L463.83 237.557L464.667 237.393L465.505 238.093L466.342 239.654L467.179 242.072L468.016 245.353L468.853 249.503L470.527 260.418L472.202 274.579L474.713 299.832L478.061 333.532L480.573 355.173L482.247 367.476L483.921 377.882L485.595 386.341L487.27 392.989L488.944 398.044L490.618 401.763L492.292 404.431L493.967 406.317L495.641 407.646L497.315 408.569L498.989 409.172L501.501 409.647L505.686 409.994L510.709 410.108L512.383 410.111" stroke="#EFEFEF" stroke-linecap="square"/>
</g>
<mask id="mask3_230_13758" style="mask-type:luminance" maskUnits="userSpaceOnUse" x="76" y="55" width="477" height="356">
<path d="M552.957 55.2959H76.7969V410.112H552.957V55.2959Z" fill="white"/>
</mask>
<g mask="url(#mask3_230_13758)">
<path d="M348.148 410.111L357.353 409.967L367.477 409.513L371.159 409.054L374.841 408.256L376.682 407.644L378.523 406.709L380.363 405.215L381.284 404.181L383.125 401.412L384.966 397.537L386.806 392.247L388.647 385.255L390.488 376.721L396.931 345.004L398.772 337.239L400.613 330.522L403.374 321.927L407.056 311.683L409.817 304.069L411.658 298.059L414.419 288.419L415.34 285.688L416.26 283.451L417.181 281.762L418.101 280.581L419.021 279.792L420.862 278.779L423.624 277.52L424.544 277.4L425.464 277.681L426.385 278.492L427.305 279.903L428.226 281.893L430.067 287.16L433.748 298.517L438.35 311.426L441.112 321.144L443.873 330.541L446.634 338.729L448.475 343.523L456.759 362.486L458.6 365.86L463.202 373.523L468.724 383.424L471.486 387.413L481.61 400.665L483.451 402.526L485.292 403.991L487.133 405.065L489.894 406.186L498.178 409.106L500.939 409.481L506.462 409.768L530.393 410.11L531.314 410.111" fill="#EFEFEF" fill-opacity="0.4"/>
<path d="M348.148 410.111L357.353 409.967L367.477 409.513L371.159 409.054L374.841 408.256L376.682 407.644L378.523 406.709L380.363 405.215L381.284 404.181L383.125 401.412L384.966 397.537L386.806 392.247L388.647 385.255L390.488 376.721L396.931 345.004L398.772 337.239L400.613 330.522L403.374 321.927L407.056 311.683L409.817 304.069L411.658 298.059L414.419 288.419L415.34 285.688L416.26 283.451L417.181 281.762L418.101 280.581L419.021 279.792L420.862 278.779L423.624 277.52L424.544 277.4L425.464 277.681L426.385 278.492L427.305 279.903L428.226 281.893L430.067 287.16L433.748 298.517L438.35 311.426L441.112 321.144L443.873 330.541L446.634 338.729L448.475 343.523L456.759 362.486L458.6 365.86L463.202 373.523L468.724 383.424L471.486 387.413L481.61 400.665L483.451 402.526L485.292 403.991L487.133 405.065L489.894 406.186L498.178 409.106L500.939 409.481L506.462 409.768L530.393 410.11L531.314 410.111" stroke="#EFEFEF" stroke-linecap="square"/>
</g>
<mask id="mask4_230_13758" style="mask-type:luminance" maskUnits="userSpaceOnUse" x="76" y="55" width="477" height="356">
<path d="M552.957 55.2959H76.7969V410.112H552.957V55.2959Z" fill="white"/>
</mask>
<g mask="url(#mask4_230_13758)">
<path d="M353.734 410.111L358.369 409.948L365.321 409.917L368.411 409.971L382.315 408.846L384.633 408.516L392.357 407.974L394.675 407.23L397.765 406.843L400.082 405.938L401.627 405.271L403.172 404.79L403.944 404.384L404.717 403.67L405.489 402.568L406.262 401.037L407.034 399.023L407.807 396.437L409.352 389.313L411.669 375.669L413.214 364.442L414.759 349.331L417.076 323.056L418.621 303.042L420.166 278.426L421.711 247.593L423.256 209.967L425.573 151.315L426.346 136.012L427.118 124.374L427.891 116.787L428.663 113.315L429.436 113.541L430.208 116.595L430.98 121.608L431.753 128.289L432.525 137.074L433.298 148.5L436.388 203.272L441.022 265.083L442.567 281.222L444.112 292.918L447.202 312.665L449.52 329.04L454.154 359.17L460.334 389.218L461.879 395.358L463.424 399.572L465.741 404.339L466.514 405.666L467.286 406.644L468.059 407.249L472.693 409.334L474.238 409.589L479.646 409.633L482.735 409.833L486.598 409.893L491.232 410.108L507.454 410.111" fill="#EFEFEF" fill-opacity="0.4"/>
<path d="M353.734 410.111L358.369 409.948L365.321 409.917L368.411 409.971L382.315 408.846L384.633 408.516L392.357 407.974L394.675 407.23L397.765 406.843L400.082 405.938L401.627 405.271L403.172 404.79L403.944 404.384L404.717 403.67L405.489 402.568L406.262 401.037L407.034 399.023L407.807 396.437L409.352 389.313L411.669 375.669L413.214 364.442L414.759 349.331L417.076 323.056L418.621 303.042L420.166 278.426L421.711 247.593L423.256 209.967L425.573 151.315L426.346 136.012L427.118 124.374L427.891 116.787L428.663 113.315L429.436 113.541L430.208 116.595L430.98 121.608L431.753 128.289L432.525 137.074L433.298 148.5L436.388 203.272L441.022 265.083L442.567 281.222L444.112 292.918L447.202 312.665L449.52 329.04L454.154 359.17L460.334 389.218L461.879 395.358L463.424 399.572L465.741 404.339L466.514 405.666L467.286 406.644L468.059 407.249L472.693 409.334L474.238 409.589L479.646 409.633L482.735 409.833L486.598 409.893L491.232 410.108L507.454 410.111" stroke="#EFEFEF" stroke-linecap="square"/>
</g>
<mask id="mask5_230_13758" style="mask-type:luminance" maskUnits="userSpaceOnUse" x="76" y="55" width="477" height="356">
<path d="M552.957 55.2959H76.7969V410.112H552.957V55.2959Z" fill="white"/>
</mask>
<g mask="url(#mask5_230_13758)">
<path d="M343.141 410.111L353.989 409.964L361.222 409.673L363.934 409.232L366.646 408.484L368.454 407.685L370.262 406.36L371.166 405.397L372.07 404.191L373.879 401.026L375.687 396.909L377.495 391.911L379.303 385.96L381.111 378.758L382.919 369.891L384.727 359.218L387.439 340.816L392.864 302.79L394.672 293.208L396.48 286.101L398.288 280.64L400.096 276.022L401.904 272.008L403.712 268.838L404.616 267.646L406.425 265.948L408.233 264.856L410.041 264.281L410.945 264.279L411.849 264.523L412.753 265.036L413.657 265.837L414.561 266.957L415.465 268.441L416.369 270.333L418.177 275.348L420.889 284.729L423.602 294.617L425.41 302.253L428.122 315.716L431.738 333.62L433.546 341.846L435.354 348.707L437.162 353.971L446.203 376.467L448.011 379.736L449.819 382.165L452.531 385.092L455.244 387.698L457.052 389.13L460.668 391.656L462.476 393.372L464.284 395.597L466.996 398.967L468.804 400.485L470.613 401.397L475.133 402.977L478.749 404.188L485.981 407.157L488.694 407.879L493.214 408.631L501.35 410.002L504.967 410.054L513.103 409.999L523.048 410.112" fill="#EFEFEF" fill-opacity="0.4"/>
<path d="M343.141 410.111L353.989 409.964L361.222 409.673L363.934 409.232L366.646 408.484L368.454 407.685L370.262 406.36L371.166 405.397L372.07 404.191L373.879 401.026L375.687 396.909L377.495 391.911L379.303 385.96L381.111 378.758L382.919 369.891L384.727 359.218L387.439 340.816L392.864 302.79L394.672 293.208L396.48 286.101L398.288 280.64L400.096 276.022L401.904 272.008L403.712 268.838L404.616 267.646L406.425 265.948L408.233 264.856L410.041 264.281L410.945 264.279L411.849 264.523L412.753 265.036L413.657 265.837L414.561 266.957L415.465 268.441L416.369 270.333L418.177 275.348L420.889 284.729L423.602 294.617L425.41 302.253L428.122 315.716L431.738 333.62L433.546 341.846L435.354 348.707L437.162 353.971L446.203 376.467L448.011 379.736L449.819 382.165L452.531 385.092L455.244 387.698L457.052 389.13L460.668 391.656L462.476 393.372L464.284 395.597L466.996 398.967L468.804 400.485L470.613 401.397L475.133 402.977L478.749 404.188L485.981 407.157L488.694 407.879L493.214 408.631L501.35 410.002L504.967 410.054L513.103 409.999L523.048 410.112" stroke="#EFEFEF" stroke-linecap="square"/>
</g>
<mask id="mask6_230_13758" style="mask-type:luminance" maskUnits="userSpaceOnUse" x="76" y="55" width="477" height="356">
<path d="M552.957 55.2959H76.7969V410.112H552.957V55.2959Z" fill="white"/>
</mask>
<g mask="url(#mask6_230_13758)">
<path d="M343.969 410.111L350.744 409.964L354.979 409.577L357.52 409.102L359.214 408.484L360.908 407.517L362.602 406.204L364.296 404.488L365.143 403.381L365.99 402.022L366.837 400.343L368.531 395.885L370.224 389.979L371.918 382.76L373.612 374.236L375.306 364.369L377.847 347.43L381.235 322.412L383.776 300.784L387.164 269.973L388.858 257.708L390.552 248.405L392.245 240.884L393.939 234.298L395.633 229.1L396.48 227.328L397.327 226.202L398.174 225.726L399.021 225.875L399.868 226.642L400.715 228.06L401.562 230.199L402.409 233.131L403.256 236.878L404.95 246.523L409.185 275.378L414.266 310.166L417.654 333.476L420.195 348.45L422.736 361.43L424.43 368.691L426.124 374.406L427.818 378.465L429.512 381.236L432.9 385.945L436.287 391.148L437.981 393.044L438.828 393.669L439.675 394.053L440.522 394.203L442.216 393.987L443.91 393.615L445.604 393.624L449.839 394.474L453.227 394.585L454.92 395.174L457.461 396.742L459.155 397.65L460.849 398.143L463.39 398.614L465.084 399.233L469.319 401.138L472.707 402.267L475.248 403.57L477.788 404.942L480.329 405.959L484.564 407.505L487.952 408.824L490.493 409.409L493.034 409.693L498.962 409.9L512.514 410.111" fill="#EFEFEF" fill-opacity="0.4"/>
<path d="M343.969 410.111L350.744 409.964L354.979 409.577L357.52 409.102L359.214 408.484L360.908 407.517L362.602 406.204L364.296 404.488L365.143 403.381L365.99 402.022L366.837 400.343L368.531 395.885L370.224 389.979L371.918 382.76L373.612 374.236L375.306 364.369L377.847 347.43L381.235 322.412L383.776 300.784L387.164 269.973L388.858 257.708L390.552 248.405L392.245 240.884L393.939 234.298L395.633 229.1L396.48 227.328L397.327 226.202L398.174 225.726L399.021 225.875L399.868 226.642L400.715 228.06L401.562 230.199L402.409 233.131L403.256 236.878L404.95 246.523L409.185 275.378L414.266 310.166L417.654 333.476L420.195 348.45L422.736 361.43L424.43 368.691L426.124 374.406L427.818 378.465L429.512 381.236L432.9 385.945L436.287 391.148L437.981 393.044L438.828 393.669L439.675 394.053L440.522 394.203L442.216 393.987L443.91 393.615L445.604 393.624L449.839 394.474L453.227 394.585L454.92 395.174L457.461 396.742L459.155 397.65L460.849 398.143L463.39 398.614L465.084 399.233L469.319 401.138L472.707 402.267L475.248 403.57L477.788 404.942L480.329 405.959L484.564 407.505L487.952 408.824L490.493 409.409L493.034 409.693L498.962 409.9L512.514 410.111" stroke="#EFEFEF" stroke-linecap="square"/>
</g>
<mask id="mask7_230_13758" style="mask-type:luminance" maskUnits="userSpaceOnUse" x="76" y="55" width="477" height="356">
<path d="M552.957 55.2959H76.7969V410.112H552.957V55.2959Z" fill="white"/>
</mask>
<g mask="url(#mask7_230_13758)">
<path d="M335.805 410.111L342.742 409.965L353.149 409.315L355.751 408.644L358.352 407.671L360.087 406.769L361.821 405.515L363.555 403.81L365.29 401.64L367.024 399.062L368.759 396.12L370.493 392.756L372.227 388.807L373.962 384.163L376.564 376.127L379.165 367.017L380.9 360.055L383.501 348.236L387.837 328.275L390.439 318.2L393.041 309.731L398.244 293.931L399.111 291.749L399.978 289.99L400.845 288.735L401.713 287.998L402.58 287.723L403.447 287.803L405.181 288.549L407.783 290.128L409.518 291.593L411.252 293.75L412.986 296.714L414.721 300.363L419.924 312.074L424.26 320.635L425.995 325.035L430.331 336.912L432.065 340.926L433.799 344.39L436.401 348.815L441.604 356.813L444.206 360.281L448.542 365.825L452.011 370.787L455.48 376.412L460.683 384.807L464.152 389.675L471.089 399.117L472.824 400.863L474.558 402.248L477.16 403.829L483.23 406.788L485.832 407.777L489.301 408.661L493.637 409.405L497.973 409.801L504.043 410.083L508.379 410.111" fill="#EFEFEF" fill-opacity="0.4"/>
<path d="M335.805 410.111L342.742 409.965L353.149 409.315L355.751 408.644L358.352 407.671L360.087 406.769L361.821 405.515L363.555 403.81L365.29 401.64L367.024 399.062L368.759 396.12L370.493 392.756L372.227 388.807L373.962 384.163L376.564 376.127L379.165 367.017L380.9 360.055L383.501 348.236L387.837 328.275L390.439 318.2L393.041 309.731L398.244 293.931L399.111 291.749L399.978 289.99L400.845 288.735L401.713 287.998L402.58 287.723L403.447 287.803L405.181 288.549L407.783 290.128L409.518 291.593L411.252 293.75L412.986 296.714L414.721 300.363L419.924 312.074L424.26 320.635L425.995 325.035L430.331 336.912L432.065 340.926L433.799 344.39L436.401 348.815L441.604 356.813L444.206 360.281L448.542 365.825L452.011 370.787L455.48 376.412L460.683 384.807L464.152 389.675L471.089 399.117L472.824 400.863L474.558 402.248L477.16 403.829L483.23 406.788L485.832 407.777L489.301 408.661L493.637 409.405L497.973 409.801L504.043 410.083L508.379 410.111" stroke="#EFEFEF" stroke-linecap="square"/>
</g>
<mask id="mask8_230_13758" style="mask-type:luminance" maskUnits="userSpaceOnUse" x="76" y="55" width="477" height="356">
<path d="M552.957 55.2959H76.7969V410.112H552.957V55.2959Z" fill="white"/>
</mask>
<g mask="url(#mask8_230_13758)">
<path d="M355.695 410.111L361.953 409.956L366.821 409.784L370.993 409.801L374.469 409.575L377.946 409.272L382.813 409.287L385.595 408.983L389.766 408.92L391.852 408.48L393.938 407.941L396.72 407.416L400.196 406.304L401.587 405.47L405.064 402.431L406.454 402.109L407.845 401.862L408.54 401.558L409.236 401.033L409.931 400.245L411.322 397.945L414.103 392.106L418.275 383.11L419.666 380.392L421.056 376.932L423.142 370L425.228 362.573L426.619 356.491L428.01 348.854L429.4 339.529L431.486 324.973L434.268 308.982L435.658 297.605L437.744 276.504L440.526 245.761L442.612 219.072L444.698 190.964L446.088 175.724L447.479 163.31L448.87 153.777L449.565 150.309L450.26 147.751L450.956 146.195L451.651 145.906L452.346 147.303L453.042 150.807L453.737 156.654L454.432 164.782L455.823 186.385L457.909 226.163L460.69 282.387L462.081 305.529L463.471 324.391L465.557 348.368L467.643 368.694L469.034 379.884L470.425 388.787L471.815 395.1L473.206 399.259L474.597 402.305L475.987 404.656L477.378 406.159L478.769 406.99L484.331 409.346L486.417 409.698L490.589 410.051L494.066 410.111" fill="#EFEFEF" fill-opacity="0.4"/>
<path d="M355.695 410.111L361.953 409.956L366.821 409.784L370.993 409.801L374.469 409.575L377.946 409.272L382.813 409.287L385.595 408.983L389.766 408.92L391.852 408.48L393.938 407.941L396.72 407.416L400.196 406.304L401.587 405.47L405.064 402.431L406.454 402.109L407.845 401.862L408.54 401.558L409.236 401.033L409.931 400.245L411.322 397.945L414.103 392.106L418.275 383.11L419.666 380.392L421.056 376.932L423.142 370L425.228 362.573L426.619 356.491L428.01 348.854L429.4 339.529L431.486 324.973L434.268 308.982L435.658 297.605L437.744 276.504L440.526 245.761L442.612 219.072L444.698 190.964L446.088 175.724L447.479 163.31L448.87 153.777L449.565 150.309L450.26 147.751L450.956 146.195L451.651 145.906L452.346 147.303L453.042 150.807L453.737 156.654L454.432 164.782L455.823 186.385L457.909 226.163L460.69 282.387L462.081 305.529L463.471 324.391L465.557 348.368L467.643 368.694L469.034 379.884L470.425 388.787L471.815 395.1L473.206 399.259L474.597 402.305L475.987 404.656L477.378 406.159L478.769 406.99L484.331 409.346L486.417 409.698L490.589 410.051L494.066 410.111" stroke="#EFEFEF" stroke-linecap="square"/>
</g>
<mask id="mask9_230_13758" style="mask-type:luminance" maskUnits="userSpaceOnUse" x="76" y="55" width="477" height="356">
<path d="M552.957 55.2959H76.7969V410.112H552.957V55.2959Z" fill="white"/>
</mask>
<g mask="url(#mask9_230_13758)">
<path d="M328.461 410.111L349.695 409.958L355.762 409.54L359.807 409.051L362.84 408.391L365.874 407.437L369.918 405.81L375.985 403.085L378.007 401.813L380.03 400.011L382.052 397.524L384.074 394.462L390.141 384.801L394.186 378.679L396.208 374.993L398.231 370.588L406.32 351.57L409.353 345.1L411.375 340.129L414.409 332.299L416.431 327.877L428.565 304.717L430.587 301.958L431.599 300.982L432.61 300.271L433.621 299.794L434.632 299.518L435.643 299.42L436.654 299.492L437.665 299.739L438.677 300.169L440.699 301.57L442.721 303.512L445.755 306.494L448.788 309.11L449.799 310.176L450.81 311.483L451.822 313.08L453.844 317.147L455.866 322.137L458.9 330.635L468 357.308L470.022 362.261L473.056 368.796L477.1 377.539L481.145 387.462L484.179 394.544L486.201 398.338L488.223 401.189L490.245 403.318L493.279 405.846L495.301 407.207L497.324 408.21L499.346 408.83L502.379 409.282L511.48 410.028L517.547 410.075L529.68 410.111" fill="#EFEFEF" fill-opacity="0.4"/>
<path d="M328.461 410.111L349.695 409.958L355.762 409.54L359.807 409.051L362.84 408.391L365.874 407.437L369.918 405.81L375.985 403.085L378.007 401.813L380.03 400.011L382.052 397.524L384.074 394.462L390.141 384.801L394.186 378.679L396.208 374.993L398.231 370.588L406.32 351.57L409.353 345.1L411.375 340.129L414.409 332.299L416.431 327.877L428.565 304.717L430.587 301.958L431.599 300.982L432.61 300.271L433.621 299.794L434.632 299.518L435.643 299.42L436.654 299.492L437.665 299.739L438.677 300.169L440.699 301.57L442.721 303.512L445.755 306.494L448.788 309.11L449.799 310.176L450.81 311.483L451.822 313.08L453.844 317.147L455.866 322.137L458.9 330.635L468 357.308L470.022 362.261L473.056 368.796L477.1 377.539L481.145 387.462L484.179 394.544L486.201 398.338L488.223 401.189L490.245 403.318L493.279 405.846L495.301 407.207L497.324 408.21L499.346 408.83L502.379 409.282L511.48 410.028L517.547 410.075L529.68 410.111" stroke="#EFEFEF" stroke-linecap="square"/>
</g>
<mask id="mask10_230_13758" style="mask-type:luminance" maskUnits="userSpaceOnUse" x="76" y="55" width="477" height="356">
<path d="M552.957 55.2959H76.7969V410.112H552.957V55.2959Z" fill="white"/>
</mask>
<g mask="url(#mask10_230_13758)">
<path d="M357.484 410.112L364.639 409.972L368.613 409.601L371.793 409.297L374.972 408.994L377.357 408.434L379.742 407.524L381.332 406.587L382.922 405.199L384.511 403.284L386.896 399.768L388.486 397.082L390.076 393.837L391.666 389.64L393.255 384.044L394.845 376.542L396.435 366.675L398.025 354.447L400.41 333.145L405.179 289.158L408.359 263.036L410.744 245.347L412.333 235.655L413.128 231.781L413.923 228.69L414.718 226.421L415.513 224.925L416.308 224.071L417.103 223.688L417.898 223.63L418.693 223.83L419.488 224.334L420.283 225.282L421.078 226.862L421.872 229.236L422.667 232.483L424.257 241.321L426.642 257.827L433.001 303.9L435.386 317.493L437.771 329.042L442.54 349.923L444.13 355.589L446.515 362.515L449.694 371.106L451.284 374.401L452.874 376.836L455.259 379.645L458.438 382.663L460.823 385.024L463.208 387.841L468.772 394.993L471.157 396.94L473.542 398.983L479.106 404.395L481.491 405.954L484.671 407.561L487.055 408.445L489.44 408.987L495.799 409.681L499.774 409.786L507.723 409.956L515.672 410.112" fill="#EFEFEF" fill-opacity="0.4"/>
<path d="M357.484 410.112L364.639 409.972L368.613 409.601L371.793 409.297L374.972 408.994L377.357 408.434L379.742 407.524L381.332 406.587L382.922 405.199L384.511 403.284L386.896 399.768L388.486 397.082L390.076 393.837L391.666 389.64L393.255 384.044L394.845 376.542L396.435 366.675L398.025 354.447L400.41 333.145L405.179 289.158L408.359 263.036L410.744 245.347L412.333 235.655L413.128 231.781L413.923 228.69L414.718 226.421L415.513 224.925L416.308 224.071L417.103 223.688L417.898 223.63L418.693 223.83L419.488 224.334L420.283 225.282L421.078 226.862L421.872 229.236L422.667 232.483L424.257 241.321L426.642 257.827L433.001 303.9L435.386 317.493L437.771 329.042L442.54 349.923L444.13 355.589L446.515 362.515L449.694 371.106L451.284 374.401L452.874 376.836L455.259 379.645L458.438 382.663L460.823 385.024L463.208 387.841L468.772 394.993L471.157 396.94L473.542 398.983L479.106 404.395L481.491 405.954L484.671 407.561L487.055 408.445L489.44 408.987L495.799 409.681L499.774 409.786L507.723 409.956L515.672 410.112" stroke="#EFEFEF" stroke-linecap="square"/>
</g>
<mask id="mask11_230_13758" style="mask-type:luminance" maskUnits="userSpaceOnUse" x="76" y="55" width="477" height="356">
<path d="M552.957 55.2959H76.7969V410.112H552.957V55.2959Z" fill="white"/>
</mask>
<g mask="url(#mask11_230_13758)">
<path d="M359.773 410.111L364.039 409.95L367.594 409.983L371.86 409.885L377.548 409.491L381.103 409.206L386.08 409.033L390.345 408.26L391.767 408.158L395.322 407.522L397.455 407.289L398.166 406.989L399.588 405.714L401.01 404.54L402.432 403.768L403.143 403.101L403.854 402.033L405.276 398.756L407.409 392.607L408.831 387.223L410.253 379.782L410.964 374.718L412.386 360.884L414.519 335.373L415.941 315.457L418.074 279.505L422.339 200.731L425.183 139.876L427.316 101.36L428.738 81.3118L429.449 75.1513L430.16 72.1924L430.871 72.7025L431.582 76.7402L432.293 84.0206L433.715 105.764L435.137 135.35L436.559 175.269L438.692 241.896L440.114 277.066L442.247 320.485L443.669 342.253L445.091 357.124L446.513 368.868L447.935 378.254L448.646 381.551L449.357 383.958L450.068 385.691L452.2 389.586L455.755 398.133L456.466 398.902L457.177 399.201L458.599 399.417L459.31 399.954L462.865 404.242L464.287 405.571L465.709 406.374L467.842 406.971L471.397 407.892L473.53 408.476L476.374 408.861L479.218 409.461L482.062 409.704L486.327 409.479L489.171 409.94L493.437 409.882L496.992 409.971L501.258 410.111" fill="#EFEFEF" fill-opacity="0.4"/>
<path d="M359.773 410.111L364.039 409.95L367.594 409.983L371.86 409.885L377.548 409.491L381.103 409.206L386.08 409.033L390.345 408.26L391.767 408.158L395.322 407.522L397.455 407.289L398.166 406.989L399.588 405.714L401.01 404.54L402.432 403.768L403.143 403.101L403.854 402.033L405.276 398.756L407.409 392.607L408.831 387.223L410.253 379.782L410.964 374.718L412.386 360.884L414.519 335.373L415.941 315.457L418.074 279.505L422.339 200.731L425.183 139.876L427.316 101.36L428.738 81.3118L429.449 75.1513L430.16 72.1924L430.871 72.7025L431.582 76.7402L432.293 84.0206L433.715 105.764L435.137 135.35L436.559 175.269L438.692 241.896L440.114 277.066L442.247 320.485L443.669 342.253L445.091 357.124L446.513 368.868L447.935 378.254L448.646 381.551L449.357 383.958L450.068 385.691L452.2 389.586L455.755 398.133L456.466 398.902L457.177 399.201L458.599 399.417L459.31 399.954L462.865 404.242L464.287 405.571L465.709 406.374L467.842 406.971L471.397 407.892L473.53 408.476L476.374 408.861L479.218 409.461L482.062 409.704L486.327 409.479L489.171 409.94L493.437 409.882L496.992 409.971L501.258 410.111" stroke="#EFEFEF" stroke-linecap="square"/>
</g>
<mask id="mask12_230_13758" style="mask-type:luminance" maskUnits="userSpaceOnUse" x="76" y="55" width="477" height="356">
<path d="M552.957 55.2959H76.7969V410.112H552.957V55.2959Z" fill="white"/>
</mask>
<g mask="url(#mask12_230_13758)">
<path d="M351.961 410.112L372.455 409.916L376.724 409.786L379.286 409.675L382.701 409.19L385.263 408.739L386.971 408.859L389.532 409.228L391.24 409.024L395.51 407.867L397.218 407.869L399.779 408.184L400.633 408.063L401.487 407.733L403.195 406.56L407.464 403.098L409.172 400.653L410.88 397.328L412.588 392.932L413.442 390.142L415.149 383.046L417.711 369.855L419.419 358.953L420.273 351.85L421.981 334.052L424.542 303.445L429.666 238.626L431.373 222.296L433.081 208.211L433.935 202.161L434.789 197.186L435.643 193.348L436.497 190.401L437.351 188.109L438.205 186.553L439.059 186.064L439.912 186.861L440.766 188.888L441.62 192.04L442.474 196.423L443.328 202.277L445.036 218.22L448.451 254.276L451.013 277.111L456.137 320.134L458.698 336.185L462.968 361.027L464.675 368.231L468.091 380.174L469.799 384.753L475.776 397.409L477.484 399.81L479.192 401.733L480.9 403.302L484.315 405.894L486.023 406.688L489.439 407.775L492 408.629L495.416 409.395L499.685 409.912L503.955 410.097L514.202 410.067L519.325 410.094L521.887 410.112" fill="#EFEFEF" fill-opacity="0.4"/>
<path d="M351.961 410.112L372.455 409.916L376.724 409.786L379.286 409.675L382.701 409.19L385.263 408.739L386.971 408.859L389.532 409.228L391.24 409.024L395.51 407.867L397.218 407.869L399.779 408.184L400.633 408.063L401.487 407.733L403.195 406.56L407.464 403.098L409.172 400.653L410.88 397.328L412.588 392.932L413.442 390.142L415.149 383.046L417.711 369.855L419.419 358.953L420.273 351.85L421.981 334.052L424.542 303.445L429.666 238.626L431.373 222.296L433.081 208.211L433.935 202.161L434.789 197.186L435.643 193.348L436.497 190.401L437.351 188.109L438.205 186.553L439.059 186.064L439.912 186.861L440.766 188.888L441.62 192.04L442.474 196.423L443.328 202.277L445.036 218.22L448.451 254.276L451.013 277.111L456.137 320.134L458.698 336.185L462.968 361.027L464.675 368.231L468.091 380.174L469.799 384.753L475.776 397.409L477.484 399.81L479.192 401.733L480.9 403.302L484.315 405.894L486.023 406.688L489.439 407.775L492 408.629L495.416 409.395L499.685 409.912L503.955 410.097L514.202 410.067L519.325 410.094L521.887 410.112" stroke="#EFEFEF" stroke-linecap="square"/>
</g>
<mask id="mask13_230_13758" style="mask-type:luminance" maskUnits="userSpaceOnUse" x="76" y="55" width="477" height="356">
<path d="M552.957 55.2959H76.7969V410.112H552.957V55.2959Z" fill="white"/>
</mask>
<g mask="url(#mask13_230_13758)">
<path d="M341.992 410.111L350.63 409.978L360.052 409.454L362.408 409.017L364.764 408.198L367.119 407.071L368.69 406.046L370.26 404.698L371.831 402.918L373.401 400.585L374.972 397.651L376.542 394.164L378.112 390.146L379.683 385.469L381.253 379.922L382.824 373.248L384.394 365.081L385.965 355.126L388.32 337.676L393.032 302.61L394.602 292.729L400.099 262.445L401.669 255.618L402.454 253.057L403.24 251.03L404.025 249.503L404.81 248.46L405.595 247.89L406.38 247.767L407.166 248.04L407.951 248.643L409.521 250.575L411.092 253.257L412.662 256.785L415.018 263.403L422.085 284.277L423.655 290.037L425.226 297.136L427.581 310.078L430.722 327.675L432.293 335.437L433.863 342.106L436.219 350.306L439.36 360.724L444.071 376.854L446.427 383.803L448.782 389.71L450.353 392.937L451.923 395.545L453.494 397.636L456.635 401.165L458.99 403.502L460.561 404.705L462.916 406.102L465.272 407.18L467.628 407.834L476.265 409.619L479.406 409.765L483.332 409.892L487.258 410.078L498.252 410.111" fill="#EFEFEF" fill-opacity="0.4"/>
<path d="M341.992 410.111L350.63 409.978L360.052 409.454L362.408 409.017L364.764 408.198L367.119 407.071L368.69 406.046L370.26 404.698L371.831 402.918L373.401 400.585L374.972 397.651L376.542 394.164L378.112 390.146L379.683 385.469L381.253 379.922L382.824 373.248L384.394 365.081L385.965 355.126L388.32 337.676L393.032 302.61L394.602 292.729L400.099 262.445L401.669 255.618L402.454 253.057L403.24 251.03L404.025 249.503L404.81 248.46L405.595 247.89L406.38 247.767L407.166 248.04L407.951 248.643L409.521 250.575L411.092 253.257L412.662 256.785L415.018 263.403L422.085 284.277L423.655 290.037L425.226 297.136L427.581 310.078L430.722 327.675L432.293 335.437L433.863 342.106L436.219 350.306L439.36 360.724L444.071 376.854L446.427 383.803L448.782 389.71L450.353 392.937L451.923 395.545L453.494 397.636L456.635 401.165L458.99 403.502L460.561 404.705L462.916 406.102L465.272 407.18L467.628 407.834L476.265 409.619L479.406 409.765L483.332 409.892L487.258 410.078L498.252 410.111" stroke="#EFEFEF" stroke-linecap="square"/>
</g>
<mask id="mask14_230_13758" style="mask-type:luminance" maskUnits="userSpaceOnUse" x="76" y="55" width="477" height="356">
<path d="M552.957 55.2959H76.7969V410.112H552.957V55.2959Z" fill="white"/>
</mask>
<g mask="url(#mask14_230_13758)">
<path d="M98.4375 410.111L231.078 410.112L331.068 409.964L335.15 409.795L343.312 409.026L345.353 408.751L347.393 408.298L351.475 406.927L355.556 405.452L357.596 404.551L359.637 403.473L361.678 402.185L363.718 400.52L365.759 398.383L367.8 395.87L369.84 392.897L371.881 389.162L375.962 380.047L378.003 375.325L380.043 370.142L382.084 364.137L390.246 337.393L392.287 331.946L396.368 322.692L398.409 316.995L402.49 304.154L404.531 298.501L406.571 294.109L408.612 291.489L410.653 290.683L412.693 291.219L414.734 292.255L416.775 292.978L420.856 293.46L422.896 294.383L424.937 296.629L426.978 300.647L429.018 306.203L431.059 312.193L435.14 322.831L437.181 328.246L445.343 352.117L449.424 362.915L453.506 374.411L455.546 379.087L461.668 391.582L463.709 395.204L465.749 398.152L467.79 400.556L469.831 402.612L471.871 404.399L473.912 405.832L475.953 406.865L480.034 408.258L484.115 409.13L488.196 409.565L494.318 409.966L502.481 410.109L504.521 410.111" fill="#7EB0D5" fill-opacity="0.4"/>
<path d="M98.4375 410.111L231.078 410.112L331.068 409.964L335.15 409.795L343.312 409.026L345.353 408.751L347.393 408.298L351.475 406.927L355.556 405.452L357.596 404.551L359.637 403.473L361.678 402.185L363.718 400.52L365.759 398.383L367.8 395.87L369.84 392.897L371.881 389.162L375.962 380.047L378.003 375.325L380.043 370.142L382.084 364.137L390.246 337.393L392.287 331.946L396.368 322.692L398.409 316.995L402.49 304.154L404.531 298.501L406.571 294.109L408.612 291.489L410.653 290.683L412.693 291.219L414.734 292.255L416.775 292.978L420.856 293.46L422.896 294.383L424.937 296.629L426.978 300.647L429.018 306.203L431.059 312.193L435.14 322.831L437.181 328.246L445.343 352.117L449.424 362.915L453.506 374.411L455.546 379.087L461.668 391.582L463.709 395.204L465.749 398.152L467.79 400.556L469.831 402.612L471.871 404.399L473.912 405.832L475.953 406.865L480.034 408.258L484.115 409.13L488.196 409.565L494.318 409.966L502.481 410.109L504.521 410.111" stroke="#7EB0D5" stroke-linecap="square"/>
</g>
<path d="M535.061 411.061C535.646 410.475 535.646 409.525 535.061 408.939L525.515 399.393C524.929 398.808 523.979 398.808 523.393 399.393C522.808 399.979 522.808 400.929 523.393 401.515L531.879 410L523.393 418.485C522.808 419.071 522.808 420.021 523.393 420.607C523.979 421.192 524.929 421.192 525.515 420.607L535.061 411.061ZM79 411.5H534V408.5H79V411.5Z" fill="black"/>
</g>
<defs>
<clipPath id="clip0_230_13758">
<rect width="614.4" height="460.8" fill="white"/>
</clipPath>
</defs>
</svg>
