<svg width="615" height="461" viewBox="0 0 615 461" fill="none" xmlns="http://www.w3.org/2000/svg">
<g clip-path="url(#clip0_230_14958)">
<mask id="mask0_230_14958" style="mask-type:luminance" maskUnits="userSpaceOnUse" x="76" y="55" width="477" height="356">
<path d="M552.957 55.2959H76.7969V410.112H552.957V55.2959Z" fill="white"/>
</mask>
<g mask="url(#mask0_230_14958)">
<path d="M334.031 410.111L345.609 409.922L350.062 409.477L351.843 409.217L354.515 409.08L356.296 408.385L358.968 407.164L360.749 406.848L362.53 406.732L363.421 406.343L364.312 405.573L366.093 403.229L368.765 398.99L371.436 394.052L373.218 389.651L374.999 383.705L375.889 380.113L376.78 375.884L378.561 364.92L380.342 351.705L382.124 336.016L383.905 317.802L385.686 296.301L387.467 271.281L390.139 232.413L393.701 186.327L395.483 167.144L396.373 160.863L397.264 157.923L398.154 158.062L399.045 160.977L399.936 166.545L401.717 182.091L403.498 200.043L405.279 225.982L408.842 280.241L410.623 304.05L414.185 345.92L415.076 354.705L416.857 368.068L418.638 379.178L420.419 388.265L422.201 395.304L423.091 397.926L423.982 399.853L426.654 404.245L427.544 405.315L429.325 406.761L431.107 407.935L432.888 408.498L435.56 408.793L440.013 408.707L441.794 409.111L443.575 409.598L446.247 409.76L448.919 409.739L451.59 409.752L454.262 409.733L456.043 409.769L458.715 409.861L460.496 409.825L464.949 410.085L470.293 410.027L478.308 410.062L483.652 409.914L511.26 410.111" fill="#EFEFEF" fill-opacity="0.4"/>
<path d="M334.031 410.111L345.609 409.922L350.062 409.477L351.843 409.217L354.515 409.08L356.296 408.385L358.968 407.164L360.749 406.848L362.53 406.732L363.421 406.343L364.312 405.573L366.093 403.229L368.765 398.99L371.436 394.052L373.218 389.651L374.999 383.705L375.889 380.113L376.78 375.884L378.561 364.92L380.342 351.705L382.124 336.016L383.905 317.802L385.686 296.301L387.467 271.281L390.139 232.413L393.701 186.327L395.483 167.144L396.373 160.863L397.264 157.923L398.154 158.062L399.045 160.977L399.936 166.545L401.717 182.091L403.498 200.043L405.279 225.982L408.842 280.241L410.623 304.05L414.185 345.92L415.076 354.705L416.857 368.068L418.638 379.178L420.419 388.265L422.201 395.304L423.091 397.926L423.982 399.853L426.654 404.245L427.544 405.315L429.325 406.761L431.107 407.935L432.888 408.498L435.56 408.793L440.013 408.707L441.794 409.111L443.575 409.598L446.247 409.76L448.919 409.739L451.59 409.752L454.262 409.733L456.043 409.769L458.715 409.861L460.496 409.825L464.949 410.085L470.293 410.027L478.308 410.062L483.652 409.914L511.26 410.111" stroke="#EFEFEF" stroke-linecap="square"/>
</g>
<mask id="mask1_230_14958" style="mask-type:luminance" maskUnits="userSpaceOnUse" x="76" y="55" width="477" height="356">
<path d="M552.957 55.2959H76.7969V410.112H552.957V55.2959Z" fill="white"/>
</mask>
<g mask="url(#mask1_230_14958)">
<path d="M316.547 410.111L322.505 409.965L325.484 409.661L326.477 409.425L327.47 408.999L328.463 408.222L329.456 406.76L330.449 404.166L331.441 400.146L332.434 394.605L333.427 387.393L334.42 378.201L335.413 366.738L336.406 352.819L337.399 336.283L338.392 316.856L339.385 294.115L341.371 238.895L343.357 181.634L344.35 158.053L346.336 120.995L347.329 108.104L348.322 102.194L349.315 103.854L350.308 111.222L351.301 122.437L352.294 136.856L354.28 174.307L358.252 255.838L360.238 293.648L361.231 310.013L362.224 323.51L363.217 334.362L364.21 342.955L366.196 355.607L369.174 372.944L370.167 377.268L371.16 380.183L373.146 385.128L374.139 387.886L375.132 390.047L376.125 391.301L378.111 393.08L381.09 396.654L385.062 400.54L386.055 401.166L388.041 401.454L389.034 401.67L390.027 402.127L393.999 404.665L397.971 405.722L400.95 407.445L402.936 407.696L405.914 407.912L409.886 408.586L411.872 408.684L413.858 409.065L415.844 409.522L417.83 409.59L422.795 409.378L425.774 409.444L431.732 409.921L434.711 410.007L439.676 409.899L448.612 410.001L453.577 410.061L457.549 409.962L467.479 410.025L470.458 409.998L475.423 410.097L486.345 409.984L489.324 410.107L514.148 410.111" fill="#EFEFEF" fill-opacity="0.4"/>
<path d="M316.547 410.111L322.505 409.965L325.484 409.661L326.477 409.425L327.47 408.999L328.463 408.222L329.456 406.76L330.449 404.166L331.441 400.146L332.434 394.605L333.427 387.393L334.42 378.201L335.413 366.738L336.406 352.819L337.399 336.283L338.392 316.856L339.385 294.115L341.371 238.895L343.357 181.634L344.35 158.053L346.336 120.995L347.329 108.104L348.322 102.194L349.315 103.854L350.308 111.222L351.301 122.437L352.294 136.856L354.28 174.307L358.252 255.838L360.238 293.648L361.231 310.013L362.224 323.51L363.217 334.362L364.21 342.955L366.196 355.607L369.174 372.944L370.167 377.268L371.16 380.183L373.146 385.128L374.139 387.886L375.132 390.047L376.125 391.301L378.111 393.08L381.09 396.654L385.062 400.54L386.055 401.166L388.041 401.454L389.034 401.67L390.027 402.127L393.999 404.665L397.971 405.722L400.95 407.445L402.936 407.696L405.914 407.912L409.886 408.586L411.872 408.684L413.858 409.065L415.844 409.522L417.83 409.59L422.795 409.378L425.774 409.444L431.732 409.921L434.711 410.007L439.676 409.899L448.612 410.001L453.577 410.061L457.549 409.962L467.479 410.025L470.458 409.998L475.423 410.097L486.345 409.984L489.324 410.107L514.148 410.111" stroke="#EFEFEF" stroke-linecap="square"/>
</g>
<mask id="mask2_230_14958" style="mask-type:luminance" maskUnits="userSpaceOnUse" x="76" y="55" width="477" height="356">
<path d="M552.957 55.2959H76.7969V410.112H552.957V55.2959Z" fill="white"/>
</mask>
<g mask="url(#mask2_230_14958)">
<path d="M308.406 410.112L321.884 409.95L324.994 409.745L327.068 409.306L329.141 408.54L331.215 407.305L332.252 406.481L333.288 405.461L334.325 404.118L335.362 402.245L336.399 399.598L337.435 395.97L338.472 391.226L339.509 385.269L340.546 377.977L341.582 369.241L343.656 347.555L345.729 321.136L350.913 248.567L351.95 236.36L352.987 226.072L354.023 218.385L355.06 213.751L356.097 212.069L357.134 212.658L358.17 214.674L359.207 217.731L360.244 222.066L361.281 228.008L365.428 257.234L367.501 269.34L369.575 284.616L371.648 300.046L373.722 311.708L376.832 325.915L380.979 343.979L384.089 356.099L386.163 363.025L388.236 368.902L391.347 377.071L393.42 381.735L397.567 390.435L398.604 392.08L399.641 393.371L402.751 396.55L405.861 400.236L406.898 401.035L407.935 401.546L410.008 402.226L411.045 402.729L413.118 404.352L415.192 406.004L416.229 406.506L418.302 406.951L423.486 407.883L429.707 409.212L436.964 409.703L443.184 409.816L449.405 410.043L460.809 410.074L505.39 410.063L509.537 410.016L514.72 410.111" fill="#EFEFEF" fill-opacity="0.4"/>
<path d="M308.406 410.112L321.884 409.95L324.994 409.745L327.068 409.306L329.141 408.54L331.215 407.305L332.252 406.481L333.288 405.461L334.325 404.118L335.362 402.245L336.399 399.598L337.435 395.97L338.472 391.226L339.509 385.269L340.546 377.977L341.582 369.241L343.656 347.555L345.729 321.136L350.913 248.567L351.95 236.36L352.987 226.072L354.023 218.385L355.06 213.751L356.097 212.069L357.134 212.658L358.17 214.674L359.207 217.731L360.244 222.066L361.281 228.008L365.428 257.234L367.501 269.34L369.575 284.616L371.648 300.046L373.722 311.708L376.832 325.915L380.979 343.979L384.089 356.099L386.163 363.025L388.236 368.902L391.347 377.071L393.42 381.735L397.567 390.435L398.604 392.08L399.641 393.371L402.751 396.55L405.861 400.236L406.898 401.035L407.935 401.546L410.008 402.226L411.045 402.729L413.118 404.352L415.192 406.004L416.229 406.506L418.302 406.951L423.486 407.883L429.707 409.212L436.964 409.703L443.184 409.816L449.405 410.043L460.809 410.074L505.39 410.063L509.537 410.016L514.72 410.111" stroke="#EFEFEF" stroke-linecap="square"/>
</g>
<mask id="mask3_230_14958" style="mask-type:luminance" maskUnits="userSpaceOnUse" x="76" y="55" width="477" height="356">
<path d="M552.957 55.2959H76.7969V410.112H552.957V55.2959Z" fill="white"/>
</mask>
<g mask="url(#mask3_230_14958)">
<path d="M330.578 410.111L337.623 409.998L340.642 409.649L344.668 408.987L347.688 407.939L349.7 406.951L350.707 406.24L352.72 404.26L355.739 400.858L357.752 398.892L358.758 397.454L359.765 395.444L361.778 390.002L364.797 380.466L366.81 372.913L368.823 363.588L371.842 348.203L373.855 336.172L376.874 314.869L378.887 299.918L380.9 281.849L383.919 252.113L384.926 244.695L385.932 239.011L386.939 234.729L387.945 231.439L388.951 228.937L389.958 227.31L390.964 226.708L391.971 227.073L392.977 228.132L393.984 229.61L394.99 231.49L395.997 234.19L397.003 238.345L398.009 244.221L406.061 302.657L409.08 330.488L411.093 346.188L413.106 359.364L415.119 370.594L417.132 378.828L421.157 393.829L422.164 396.405L423.17 398.262L426.19 402.46L428.202 405.005L430.215 407.001L432.228 408.226L434.241 408.984L436.254 409.422L443.299 409.837L453.363 409.846L455.376 409.956L461.415 409.979L530.859 410.111" fill="#EFEFEF" fill-opacity="0.4"/>
<path d="M330.578 410.111L337.623 409.998L340.642 409.649L344.668 408.987L347.688 407.939L349.7 406.951L350.707 406.24L352.72 404.26L355.739 400.858L357.752 398.892L358.758 397.454L359.765 395.444L361.778 390.002L364.797 380.466L366.81 372.913L368.823 363.588L371.842 348.203L373.855 336.172L376.874 314.869L378.887 299.918L380.9 281.849L383.919 252.113L384.926 244.695L385.932 239.011L386.939 234.729L387.945 231.439L388.951 228.937L389.958 227.31L390.964 226.708L391.971 227.073L392.977 228.132L393.984 229.61L394.99 231.49L395.997 234.19L397.003 238.345L398.009 244.221L406.061 302.657L409.08 330.488L411.093 346.188L413.106 359.364L415.119 370.594L417.132 378.828L421.157 393.829L422.164 396.405L423.17 398.262L426.19 402.46L428.202 405.005L430.215 407.001L432.228 408.226L434.241 408.984L436.254 409.422L443.299 409.837L453.363 409.846L455.376 409.956L461.415 409.979L530.859 410.111" stroke="#EFEFEF" stroke-linecap="square"/>
</g>
<mask id="mask4_230_14958" style="mask-type:luminance" maskUnits="userSpaceOnUse" x="76" y="55" width="477" height="356">
<path d="M552.957 55.2959H76.7969V410.112H552.957V55.2959Z" fill="white"/>
</mask>
<g mask="url(#mask4_230_14958)">
<path d="M324.086 410.111L330.058 409.968L340.012 409.201L342.003 408.479L346.98 405.91L347.975 405.165L348.971 404.225L349.966 403.074L350.961 401.662L352.952 397.943L356.934 389.124L359.92 381.321L361.911 375.187L363.902 366.986L366.888 352.227L368.878 340.883L370.869 327.484L373.855 306.573L376.842 288.192L381.819 261.219L383.809 251.548L385.8 243.845L386.795 241.126L387.791 239.41L388.786 238.723L389.782 238.911L390.777 239.808L391.772 241.4L392.768 243.791L393.763 246.968L395.754 254.553L397.745 263.417L398.74 269.181L400.731 283.288L406.703 328.19L408.694 344.603L409.689 351.613L411.68 362.669L413.671 371.4L418.648 391.703L419.643 394.756L420.639 396.967L421.634 398.452L428.602 405.701L430.593 407.355L431.588 407.879L432.583 408.153L438.556 408.764L445.523 409.741L447.514 409.802L454.482 409.597L462.445 409.862L469.413 409.769L473.394 409.716L479.367 409.993L486.334 409.937L491.311 410.109L522.168 410.111" fill="#EFEFEF" fill-opacity="0.4"/>
<path d="M324.086 410.111L330.058 409.968L340.012 409.201L342.003 408.479L346.98 405.91L347.975 405.165L348.971 404.225L349.966 403.074L350.961 401.662L352.952 397.943L356.934 389.124L359.92 381.321L361.911 375.187L363.902 366.986L366.888 352.227L368.878 340.883L370.869 327.484L373.855 306.573L376.842 288.192L381.819 261.219L383.809 251.548L385.8 243.845L386.795 241.126L387.791 239.41L388.786 238.723L389.782 238.911L390.777 239.808L391.772 241.4L392.768 243.791L393.763 246.968L395.754 254.553L397.745 263.417L398.74 269.181L400.731 283.288L406.703 328.19L408.694 344.603L409.689 351.613L411.68 362.669L413.671 371.4L418.648 391.703L419.643 394.756L420.639 396.967L421.634 398.452L428.602 405.701L430.593 407.355L431.588 407.879L432.583 408.153L438.556 408.764L445.523 409.741L447.514 409.802L454.482 409.597L462.445 409.862L469.413 409.769L473.394 409.716L479.367 409.993L486.334 409.937L491.311 410.109L522.168 410.111" stroke="#EFEFEF" stroke-linecap="square"/>
</g>
<mask id="mask5_230_14958" style="mask-type:luminance" maskUnits="userSpaceOnUse" x="76" y="55" width="477" height="356">
<path d="M552.957 55.2959H76.7969V410.112H552.957V55.2959Z" fill="white"/>
</mask>
<g mask="url(#mask5_230_14958)">
<path d="M334.18 410.111L342.105 409.964L350.03 409.653L352.011 409.223L354.983 408.533L357.955 407.843L359.936 407.13L361.918 405.889L364.889 403.247L367.861 400.247L370.833 396.692L371.824 395.25L372.815 393.482L374.796 389.009L376.777 383.539L378.758 376.725L379.749 372.594L381.73 362.293L383.712 349.192L385.693 333.366L387.674 314.541L389.655 291.962L392.627 254.963L393.618 244.549L394.609 236.018L395.599 229.287L396.59 223.899L397.58 219.47L398.571 215.952L399.562 213.43L400.552 211.905L401.543 211.561L402.534 213.038L403.524 216.995L404.515 223.344L407.487 246.019L409.468 259.126L411.449 275.259L414.421 301.324L418.384 330.496L420.365 343.855L422.346 354.717L424.328 363.737L426.309 371.251L430.272 384.361L431.262 387.239L432.253 389.644L434.234 393.398L437.206 398.169L439.187 400.805L441.169 402.963L443.15 404.559L444.14 405.087L448.103 406.493L450.084 407.468L453.056 408.463L455.037 409.017L458.009 409.451L464.944 409.904L467.916 409.731L478.813 410.02L488.719 410.081L498.625 410.032L504.569 410.103L518.438 410.067L523.391 410.072L529.335 410.103L531.317 410.111" fill="#EFEFEF" fill-opacity="0.4"/>
<path d="M334.18 410.111L342.105 409.964L350.03 409.653L352.011 409.223L354.983 408.533L357.955 407.843L359.936 407.13L361.918 405.889L364.889 403.247L367.861 400.247L370.833 396.692L371.824 395.25L372.815 393.482L374.796 389.009L376.777 383.539L378.758 376.725L379.749 372.594L381.73 362.293L383.712 349.192L385.693 333.366L387.674 314.541L389.655 291.962L392.627 254.963L393.618 244.549L394.609 236.018L395.599 229.287L396.59 223.899L397.58 219.47L398.571 215.952L399.562 213.43L400.552 211.905L401.543 211.561L402.534 213.038L403.524 216.995L404.515 223.344L407.487 246.019L409.468 259.126L411.449 275.259L414.421 301.324L418.384 330.496L420.365 343.855L422.346 354.717L424.328 363.737L426.309 371.251L430.272 384.361L431.262 387.239L432.253 389.644L434.234 393.398L437.206 398.169L439.187 400.805L441.169 402.963L443.15 404.559L444.14 405.087L448.103 406.493L450.084 407.468L453.056 408.463L455.037 409.017L458.009 409.451L464.944 409.904L467.916 409.731L478.813 410.02L488.719 410.081L498.625 410.032L504.569 410.103L518.438 410.067L523.391 410.072L529.335 410.103L531.317 410.111" stroke="#EFEFEF" stroke-linecap="square"/>
</g>
<mask id="mask6_230_14958" style="mask-type:luminance" maskUnits="userSpaceOnUse" x="76" y="55" width="477" height="356">
<path d="M552.957 55.2959H76.7969V410.112H552.957V55.2959Z" fill="white"/>
</mask>
<g mask="url(#mask6_230_14958)">
<path d="M329.938 410.11L332.86 410.026L334.809 409.739L339.68 408.673L340.654 408.153L341.629 407.327L342.603 406.168L344.551 403.007L346.5 398.75L347.474 396.069L349.423 389.36L352.345 376.961L354.294 366.88L356.242 354.29L358.191 339.539L365.985 276.069L367.933 262.512L370.856 244.471L371.83 239.804L372.805 236.424L374.753 231.782L375.727 229.895L376.702 228.427L377.676 227.462L378.65 227.281L379.624 228.689L380.599 232.321L385.47 259.043L387.418 273.662L389.367 288.27L393.264 313.627L396.187 337.565L398.135 350.14L403.006 377.847L404.955 386.438L406.903 392.48L408.852 397.428L410.8 401.385L412.749 404.099L415.672 407.598L416.646 408.41L417.62 408.892L419.569 409.163L422.491 409.441L424.44 409.648L432.234 409.828L436.131 410.073L447.822 409.931L453.667 410.111L459.513 409.994L462.436 409.955L467.307 410.04L471.204 410.024L476.075 410.109L496.534 410.112L523.813 410.111" fill="#EFEFEF" fill-opacity="0.4"/>
<path d="M329.938 410.11L332.86 410.026L334.809 409.739L339.68 408.673L340.654 408.153L341.629 407.327L342.603 406.168L344.551 403.007L346.5 398.75L347.474 396.069L349.423 389.36L352.345 376.961L354.294 366.88L356.242 354.29L358.191 339.539L365.985 276.069L367.933 262.512L370.856 244.471L371.83 239.804L372.805 236.424L374.753 231.782L375.727 229.895L376.702 228.427L377.676 227.462L378.65 227.281L379.624 228.689L380.599 232.321L385.47 259.043L387.418 273.662L389.367 288.27L393.264 313.627L396.187 337.565L398.135 350.14L403.006 377.847L404.955 386.438L406.903 392.48L408.852 397.428L410.8 401.385L412.749 404.099L415.672 407.598L416.646 408.41L417.62 408.892L419.569 409.163L422.491 409.441L424.44 409.648L432.234 409.828L436.131 410.073L447.822 409.931L453.667 410.111L459.513 409.994L462.436 409.955L467.307 410.04L471.204 410.024L476.075 410.109L496.534 410.112L523.813 410.111" stroke="#EFEFEF" stroke-linecap="square"/>
</g>
<mask id="mask7_230_14958" style="mask-type:luminance" maskUnits="userSpaceOnUse" x="76" y="55" width="477" height="356">
<path d="M552.957 55.2959H76.7969V410.112H552.957V55.2959Z" fill="white"/>
</mask>
<g mask="url(#mask7_230_14958)">
<path d="M320.883 410.111L334.349 409.981L337.94 409.556L341.531 408.839L343.327 408.228L345.122 407.258L346.918 405.782L348.713 403.772L350.509 401.154L352.304 397.562L354.1 392.735L355.895 386.862L357.691 380.034L359.486 371.768L361.282 361.782L371.157 301.623L373.85 283.222L374.748 278.311L375.646 274.271L377.441 268.171L378.339 265.85L379.237 264.065L380.134 262.963L381.032 262.643L381.93 263.089L382.828 264.178L383.725 265.734L385.521 269.743L387.316 274.874L389.112 281.194L391.805 290.702L392.703 293.223L393.601 295.291L395.396 298.377L397.192 301.343L398.089 303.311L398.987 305.763L400.783 312.04L403.476 323.589L409.76 352.262L411.556 358.507L413.351 363.878L415.147 367.968L416.942 370.884L418.738 373.787L420.533 377.399L424.124 385.648L428.613 397.096L430.409 400.328L432.204 402.652L434 404.558L435.795 406.065L437.591 407.036L443.875 409.407L445.67 409.778L448.364 409.987L459.137 409.974L499.535 410.111" fill="#EFEFEF" fill-opacity="0.4"/>
<path d="M320.883 410.111L334.349 409.981L337.94 409.556L341.531 408.839L343.327 408.228L345.122 407.258L346.918 405.782L348.713 403.772L350.509 401.154L352.304 397.562L354.1 392.735L355.895 386.862L357.691 380.034L359.486 371.768L361.282 361.782L371.157 301.623L373.85 283.222L374.748 278.311L375.646 274.271L377.441 268.171L378.339 265.85L379.237 264.065L380.134 262.963L381.032 262.643L381.93 263.089L382.828 264.178L383.725 265.734L385.521 269.743L387.316 274.874L389.112 281.194L391.805 290.702L392.703 293.223L393.601 295.291L395.396 298.377L397.192 301.343L398.089 303.311L398.987 305.763L400.783 312.04L403.476 323.589L409.76 352.262L411.556 358.507L413.351 363.878L415.147 367.968L416.942 370.884L418.738 373.787L420.533 377.399L424.124 385.648L428.613 397.096L430.409 400.328L432.204 402.652L434 404.558L435.795 406.065L437.591 407.036L443.875 409.407L445.67 409.778L448.364 409.987L459.137 409.974L499.535 410.111" stroke="#EFEFEF" stroke-linecap="square"/>
</g>
<mask id="mask8_230_14958" style="mask-type:luminance" maskUnits="userSpaceOnUse" x="76" y="55" width="477" height="356">
<path d="M552.957 55.2959H76.7969V410.112H552.957V55.2959Z" fill="white"/>
</mask>
<g mask="url(#mask8_230_14958)">
<path d="M336.328 410.111L344.978 409.949L349.303 409.635L357.088 408.715L358.818 407.951L364.873 404.639L365.738 404.065L366.603 403.313L368.333 401.27L370.063 399.257L373.523 395.814L374.388 394.586L376.118 391.343L377.848 387.063L379.578 381.833L381.308 375.707L383.038 368.017L384.768 357.56L386.498 344.167L388.228 328.09L392.553 284.751L395.148 263.542L396.879 251.48L398.609 242.387L399.474 239.092L400.339 236.618L401.204 234.995L402.069 234.214L402.934 234.188L403.799 234.824L404.664 236.084L405.529 237.943L408.989 247.632L409.854 250.389L410.719 253.839L412.449 263.127L416.774 291.243L421.099 319.974L427.154 354.716L428.884 362.58L433.209 378.618L434.939 385.462L436.669 391.006L438.399 395.405L440.129 398.91L441.859 401.493L443.589 403.347L445.319 404.63L450.509 407.794L453.104 408.588L455.699 409.084L460.889 409.826L465.214 409.892L479.919 410.057L490.299 410.073L496.354 410.052L502.409 410.05L508.464 410.111" fill="#EFEFEF" fill-opacity="0.4"/>
<path d="M336.328 410.111L344.978 409.949L349.303 409.635L357.088 408.715L358.818 407.951L364.873 404.639L365.738 404.065L366.603 403.313L368.333 401.27L370.063 399.257L373.523 395.814L374.388 394.586L376.118 391.343L377.848 387.063L379.578 381.833L381.308 375.707L383.038 368.017L384.768 357.56L386.498 344.167L388.228 328.09L392.553 284.751L395.148 263.542L396.879 251.48L398.609 242.387L399.474 239.092L400.339 236.618L401.204 234.995L402.069 234.214L402.934 234.188L403.799 234.824L404.664 236.084L405.529 237.943L408.989 247.632L409.854 250.389L410.719 253.839L412.449 263.127L416.774 291.243L421.099 319.974L427.154 354.716L428.884 362.58L433.209 378.618L434.939 385.462L436.669 391.006L438.399 395.405L440.129 398.91L441.859 401.493L443.589 403.347L445.319 404.63L450.509 407.794L453.104 408.588L455.699 409.084L460.889 409.826L465.214 409.892L479.919 410.057L490.299 410.073L496.354 410.052L502.409 410.05L508.464 410.111" stroke="#EFEFEF" stroke-linecap="square"/>
</g>
<mask id="mask9_230_14958" style="mask-type:luminance" maskUnits="userSpaceOnUse" x="76" y="55" width="477" height="356">
<path d="M552.957 55.2959H76.7969V410.112H552.957V55.2959Z" fill="white"/>
</mask>
<g mask="url(#mask9_230_14958)">
<path d="M319.711 410.11L322.415 409.971L326.923 409.212L327.824 408.692L329.627 407.141L331.43 405.134L333.233 402.79L335.036 400.003L335.938 398.369L336.839 396.144L337.741 393.027L338.642 388.937L339.544 383.822L340.445 377.589L341.347 370.132L342.248 361.171L343.15 350.2L344.051 336.521L344.953 319.362L346.756 275.14L348.559 222.625L352.165 104.016L353.066 86.6238L353.968 76.368L354.869 72.1924L355.771 73.6071L356.672 80.1882L357.574 91.8129L358.475 108.601L360.278 154.833L362.081 204.147L363.884 246.306L365.687 283.724L367.49 313.707L369.293 335.589L371.998 360.74L372.899 367.675L373.801 373.299L374.702 377.637L376.505 383.981L378.308 388.943L380.111 392.506L383.717 398.954L384.619 400.312L385.52 401.184L387.323 401.847L389.126 402.557L390.929 403.618L393.634 405.531L396.339 407.279L397.24 407.651L399.043 407.854L401.747 408.043L404.452 408.273L407.156 408.013L409.861 408.449L411.664 408.608L413.467 409.029L420.679 409.535L423.384 409.807L427.891 409.863L430.596 409.79L433.3 409.786L437.807 410.05L441.413 409.914L444.118 409.98L446.823 409.694L458.542 410.015L462.148 409.964L465.754 410.023L469.36 410.112L479.277 410.02L481.981 409.854L494.602 410.027L499.11 410.111" fill="#EFEFEF" fill-opacity="0.4"/>
<path d="M319.711 410.11L322.415 409.971L326.923 409.212L327.824 408.692L329.627 407.141L331.43 405.134L333.233 402.79L335.036 400.003L335.938 398.369L336.839 396.144L337.741 393.027L338.642 388.937L339.544 383.822L340.445 377.589L341.347 370.132L342.248 361.171L343.15 350.2L344.051 336.521L344.953 319.362L346.756 275.14L348.559 222.625L352.165 104.016L353.066 86.6238L353.968 76.368L354.869 72.1924L355.771 73.6071L356.672 80.1882L357.574 91.8129L358.475 108.601L360.278 154.833L362.081 204.147L363.884 246.306L365.687 283.724L367.49 313.707L369.293 335.589L371.998 360.74L372.899 367.675L373.801 373.299L374.702 377.637L376.505 383.981L378.308 388.943L380.111 392.506L383.717 398.954L384.619 400.312L385.52 401.184L387.323 401.847L389.126 402.557L390.929 403.618L393.634 405.531L396.339 407.279L397.24 407.651L399.043 407.854L401.747 408.043L404.452 408.273L407.156 408.013L409.861 408.449L411.664 408.608L413.467 409.029L420.679 409.535L423.384 409.807L427.891 409.863L430.596 409.79L433.3 409.786L437.807 410.05L441.413 409.914L444.118 409.98L446.823 409.694L458.542 410.015L462.148 409.964L465.754 410.023L469.36 410.112L479.277 410.02L481.981 409.854L494.602 410.027L499.11 410.111" stroke="#EFEFEF" stroke-linecap="square"/>
</g>
<mask id="mask10_230_14958" style="mask-type:luminance" maskUnits="userSpaceOnUse" x="76" y="55" width="477" height="356">
<path d="M552.957 55.2959H76.7969V410.112H552.957V55.2959Z" fill="white"/>
</mask>
<g mask="url(#mask10_230_14958)">
<path d="M334.844 410.112L348.597 409.936L352.036 409.521L354.614 408.973L357.193 408.36L359.772 408.116L361.491 408.048L363.21 407.593L365.789 406.525L371.806 405.233L373.525 404.438L375.244 403.236L376.964 401.501L378.683 399.789L380.402 398.694L382.121 397.534L383.84 395.644L385.56 392.911L386.419 391.107L388.138 386.341L389.857 380.101L390.717 376.19L391.577 371.366L393.296 358.459L396.734 329.394L398.453 317.286L401.032 300.634L402.751 286.185L404.47 267.738L409.628 208.402L411.347 194.595L413.066 184.231L413.926 180.878L414.786 179.829L415.645 181.925L416.505 187.241L418.224 203.998L420.803 234.411L423.381 270.959L425.101 294.791L427.679 325.047L429.399 342.269L430.258 348.952L431.118 354.204L432.837 361.87L436.275 374.659L437.994 380.171L440.573 387.98L443.152 396.064L444.871 399.937L446.59 402.696L448.31 404.585L450.029 406.054L451.748 407.11L456.046 408.655L457.765 409.166L459.484 409.329L463.782 409.491L468.08 409.891L497.306 410.095L504.183 410.104L505.902 410.112" fill="#EFEFEF" fill-opacity="0.4"/>
<path d="M334.844 410.112L348.597 409.936L352.036 409.521L354.614 408.973L357.193 408.36L359.772 408.116L361.491 408.048L363.21 407.593L365.789 406.525L371.806 405.233L373.525 404.438L375.244 403.236L376.964 401.501L378.683 399.789L380.402 398.694L382.121 397.534L383.84 395.644L385.56 392.911L386.419 391.107L388.138 386.341L389.857 380.101L390.717 376.19L391.577 371.366L393.296 358.459L396.734 329.394L398.453 317.286L401.032 300.634L402.751 286.185L404.47 267.738L409.628 208.402L411.347 194.595L413.066 184.231L413.926 180.878L414.786 179.829L415.645 181.925L416.505 187.241L418.224 203.998L420.803 234.411L423.381 270.959L425.101 294.791L427.679 325.047L429.399 342.269L430.258 348.952L431.118 354.204L432.837 361.87L436.275 374.659L437.994 380.171L440.573 387.98L443.152 396.064L444.871 399.937L446.59 402.696L448.31 404.585L450.029 406.054L451.748 407.11L456.046 408.655L457.765 409.166L459.484 409.329L463.782 409.491L468.08 409.891L497.306 410.095L504.183 410.104L505.902 410.112" stroke="#EFEFEF" stroke-linecap="square"/>
</g>
<mask id="mask11_230_14958" style="mask-type:luminance" maskUnits="userSpaceOnUse" x="76" y="55" width="477" height="356">
<path d="M552.957 55.2959H76.7969V410.112H552.957V55.2959Z" fill="white"/>
</mask>
<g mask="url(#mask11_230_14958)">
<path d="M331.328 410.112L341.835 410.005L349.477 409.3L355.208 408.668L359.029 407.527L360.939 407.035L361.894 406.49L363.805 404.84L364.76 403.735L365.715 402.21L366.67 400.014L367.625 396.967L368.581 392.983L370.491 382.77L373.357 366.292L374.312 359.619L375.267 351.346L379.088 311.807L384.819 250.948L386.729 235.454L391.505 199.652L392.46 194.356L393.416 192.006L394.371 192.778L395.326 196.099L396.281 201.231L398.192 214.446L400.102 229.566L402.012 247.996L405.833 291.207L408.699 323.032L410.609 339.693L412.52 352.347L415.385 368.516L416.34 372.976L417.296 376.722L418.251 379.772L420.161 384.511L423.027 390.838L427.803 400.116L428.758 401.608L429.713 402.756L430.668 403.544L432.579 404.471L434.489 405.092L436.399 405.605L438.31 406.549L441.175 408.207L443.086 408.976L444.996 409.398L446.907 409.375L449.772 408.983L451.682 409.2L454.548 409.61L460.279 409.716L463.145 409.74L466.966 409.888L477.473 409.731L481.293 409.794L484.159 409.813L487.98 410.049L508.994 410.051L513.77 410.079L518.546 410.087L521.412 410.112" fill="#EFEFEF" fill-opacity="0.4"/>
<path d="M331.328 410.112L341.835 410.005L349.477 409.3L355.208 408.668L359.029 407.527L360.939 407.035L361.894 406.49L363.805 404.84L364.76 403.735L365.715 402.21L366.67 400.014L367.625 396.967L368.581 392.983L370.491 382.77L373.357 366.292L374.312 359.619L375.267 351.346L379.088 311.807L384.819 250.948L386.729 235.454L391.505 199.652L392.46 194.356L393.416 192.006L394.371 192.778L395.326 196.099L396.281 201.231L398.192 214.446L400.102 229.566L402.012 247.996L405.833 291.207L408.699 323.032L410.609 339.693L412.52 352.347L415.385 368.516L416.34 372.976L417.296 376.722L418.251 379.772L420.161 384.511L423.027 390.838L427.803 400.116L428.758 401.608L429.713 402.756L430.668 403.544L432.579 404.471L434.489 405.092L436.399 405.605L438.31 406.549L441.175 408.207L443.086 408.976L444.996 409.398L446.907 409.375L449.772 408.983L451.682 409.2L454.548 409.61L460.279 409.716L463.145 409.74L466.966 409.888L477.473 409.731L481.293 409.794L484.159 409.813L487.98 410.049L508.994 410.051L513.77 410.079L518.546 410.087L521.412 410.112" stroke="#EFEFEF" stroke-linecap="square"/>
</g>
<mask id="mask12_230_14958" style="mask-type:luminance" maskUnits="userSpaceOnUse" x="76" y="55" width="477" height="356">
<path d="M552.957 55.2959H76.7969V410.112H552.957V55.2959Z" fill="white"/>
</mask>
<g mask="url(#mask12_230_14958)">
<path d="M336.102 410.111L342.562 409.962L349.023 409.56L350.869 409.508L351.791 409.265L353.637 408.334L358.252 405.41L360.098 404.412L361.944 402.841L363.79 400.862L364.713 399.635L365.636 398.09L367.481 393.928L369.327 388.746L370.25 385.543L372.096 377.5L373.942 367.939L374.865 362.238L376.711 348.089L381.325 308.446L383.171 284.95L385.017 262.007L387.786 233.087L389.632 216.861L390.555 210.769L391.478 205.82L392.401 202.091L393.324 199.94L394.247 199.414L395.169 199.99L396.092 201.195L397.015 203.272L397.938 206.774L399.784 217.268L400.707 223.504L401.63 230.828L402.553 239.738L404.399 261.554L406.245 283.373L409.014 310.739L411.782 334.311L415.474 365.74L417.32 376.434L419.166 385.263L421.012 392.37L422.858 397.101L424.703 401.048L425.626 402.745L426.549 404.033L427.472 404.892L430.241 406.48L433.01 407.885L434.856 408.387L436.702 408.813L439.47 409.58L441.316 409.681L446.854 409.584L452.392 409.81L457.929 409.865L469.004 409.863L472.696 409.95L477.311 409.878L483.771 409.91L504.999 410.107L519.766 410.111" fill="#EFEFEF" fill-opacity="0.4"/>
<path d="M336.102 410.111L342.562 409.962L349.023 409.56L350.869 409.508L351.791 409.265L353.637 408.334L358.252 405.41L360.098 404.412L361.944 402.841L363.79 400.862L364.713 399.635L365.636 398.09L367.481 393.928L369.327 388.746L370.25 385.543L372.096 377.5L373.942 367.939L374.865 362.238L376.711 348.089L381.325 308.446L383.171 284.95L385.017 262.007L387.786 233.087L389.632 216.861L390.555 210.769L391.478 205.82L392.401 202.091L393.324 199.94L394.247 199.414L395.169 199.99L396.092 201.195L397.015 203.272L397.938 206.774L399.784 217.268L400.707 223.504L401.63 230.828L402.553 239.738L404.399 261.554L406.245 283.373L409.014 310.739L411.782 334.311L415.474 365.74L417.32 376.434L419.166 385.263L421.012 392.37L422.858 397.101L424.703 401.048L425.626 402.745L426.549 404.033L427.472 404.892L430.241 406.48L433.01 407.885L434.856 408.387L436.702 408.813L439.47 409.58L441.316 409.681L446.854 409.584L452.392 409.81L457.929 409.865L469.004 409.863L472.696 409.95L477.311 409.878L483.771 409.91L504.999 410.107L519.766 410.111" stroke="#EFEFEF" stroke-linecap="square"/>
</g>
<mask id="mask13_230_14958" style="mask-type:luminance" maskUnits="userSpaceOnUse" x="76" y="55" width="477" height="356">
<path d="M552.957 55.2959H76.7969V410.112H552.957V55.2959Z" fill="white"/>
</mask>
<g mask="url(#mask13_230_14958)">
<path d="M304.648 410.112L314.706 409.974L319.176 409.491L321.411 409.099L323.646 408.301L325.881 407.01L328.116 405.227L330.351 402.833L332.586 399.793L333.704 397.659L334.821 394.725L335.939 390.919L339.291 377.671L340.409 372.656L341.526 366.432L343.761 350.625L345.997 334.595L349.349 311.514L351.584 295.563L353.819 282.593L356.054 272.431L357.172 268.218L358.289 264.617L359.407 261.616L360.524 259.283L361.642 257.729L362.759 256.914L367.229 255.471L368.347 255.707L369.464 256.922L370.582 259.091L372.817 265.075L375.052 272.338L376.169 276.958L377.287 282.626L379.522 296.378L383.992 326.144L387.345 350.668L388.462 357.549L389.58 363.391L390.697 368.14L391.815 371.826L395.167 380.712L398.52 391.165L399.637 393.941L400.755 396.121L401.872 397.792L404.107 400.279L407.46 403.648L409.695 405.165L417.518 408.945L419.753 409.3L424.223 409.291L430.928 410.009L436.515 409.923L440.985 409.832L445.455 409.997L452.161 409.979L466.688 410.032L471.158 410.042L475.628 410.014L481.216 410.014L509.154 410.057L527.034 410.112" fill="#EFEFEF" fill-opacity="0.4"/>
<path d="M304.648 410.112L314.706 409.974L319.176 409.491L321.411 409.099L323.646 408.301L325.881 407.01L328.116 405.227L330.351 402.833L332.586 399.793L333.704 397.659L334.821 394.725L335.939 390.919L339.291 377.671L340.409 372.656L341.526 366.432L343.761 350.625L345.997 334.595L349.349 311.514L351.584 295.563L353.819 282.593L356.054 272.431L357.172 268.218L358.289 264.617L359.407 261.616L360.524 259.283L361.642 257.729L362.759 256.914L367.229 255.471L368.347 255.707L369.464 256.922L370.582 259.091L372.817 265.075L375.052 272.338L376.169 276.958L377.287 282.626L379.522 296.378L383.992 326.144L387.345 350.668L388.462 357.549L389.58 363.391L390.697 368.14L391.815 371.826L395.167 380.712L398.52 391.165L399.637 393.941L400.755 396.121L401.872 397.792L404.107 400.279L407.46 403.648L409.695 405.165L417.518 408.945L419.753 409.3L424.223 409.291L430.928 410.009L436.515 409.923L440.985 409.832L445.455 409.997L452.161 409.979L466.688 410.032L471.158 410.042L475.628 410.014L481.216 410.014L509.154 410.057L527.034 410.112" stroke="#EFEFEF" stroke-linecap="square"/>
</g>
<mask id="mask14_230_14958" style="mask-type:luminance" maskUnits="userSpaceOnUse" x="76" y="55" width="477" height="356">
<path d="M552.957 55.2959H76.7969V410.112H552.957V55.2959Z" fill="white"/>
</mask>
<g mask="url(#mask14_230_14958)">
<path d="M98.4375 410.111L193.979 410.112L289.52 409.972L297.828 409.481L301.982 409.172L316.521 407.331L318.598 406.654L324.829 403.841L328.983 401.321L333.137 398.742L335.214 397.233L339.368 393.411L341.445 391.046L343.522 387.728L347.676 378.883L351.83 369.803L355.984 359.504L360.138 348.194L364.292 335.882L368.446 321.792L372.6 307.811L376.754 294.636L378.831 287.199L382.985 269.127L385.062 264.525L387.139 265.62L389.216 270.308L391.293 276.859L393.37 285.149L395.447 295.251L399.601 318.493L407.909 365.531L409.986 375.773L412.063 383.714L414.14 389.92L416.217 395.125L418.294 399.198L420.371 402.007L422.448 403.971L424.525 405.557L426.602 406.944L428.679 408.033L430.756 408.711L434.91 409.281L441.141 409.713L449.449 409.989L455.68 410.004L461.911 410.012L474.372 409.945L495.142 410.106L511.758 410.111" fill="#7EB0D5" fill-opacity="0.4"/>
<path d="M98.4375 410.111L193.979 410.112L289.52 409.972L297.828 409.481L301.982 409.172L316.521 407.331L318.598 406.654L324.829 403.841L328.983 401.321L333.137 398.742L335.214 397.233L339.368 393.411L341.445 391.046L343.522 387.728L347.676 378.883L351.83 369.803L355.984 359.504L360.138 348.194L364.292 335.882L368.446 321.792L372.6 307.811L376.754 294.636L378.831 287.199L382.985 269.127L385.062 264.525L387.139 265.62L389.216 270.308L391.293 276.859L393.37 285.149L395.447 295.251L399.601 318.493L407.909 365.531L409.986 375.773L412.063 383.714L414.14 389.92L416.217 395.125L418.294 399.198L420.371 402.007L422.448 403.971L424.525 405.557L426.602 406.944L428.679 408.033L430.756 408.711L434.91 409.281L441.141 409.713L449.449 409.989L455.68 410.004L461.911 410.012L474.372 409.945L495.142 410.106L511.758 410.111" stroke="#7EB0D5" stroke-linecap="square"/>
</g>
<path d="M535.061 411.061C535.646 410.475 535.646 409.525 535.061 408.939L525.515 399.393C524.929 398.808 523.979 398.808 523.393 399.393C522.808 399.979 522.808 400.929 523.393 401.515L531.879 410L523.393 418.485C522.808 419.071 522.808 420.021 523.393 420.607C523.979 421.192 524.929 421.192 525.515 420.607L535.061 411.061ZM79 411.5H534V408.5H79V411.5Z" fill="black"/>
</g>
<defs>
<clipPath id="clip0_230_14958">
<rect width="614.4" height="460.8" fill="white"/>
</clipPath>
</defs>
</svg>
