<svg width="615" height="461" viewBox="0 0 615 461" fill="none" xmlns="http://www.w3.org/2000/svg">
<g clip-path="url(#clip0_230_15598)">
<mask id="mask0_230_15598" style="mask-type:luminance" maskUnits="userSpaceOnUse" x="76" y="55" width="477" height="356">
<path d="M552.957 55.2959H76.7969V410.112H552.957V55.2959Z" fill="white"/>
</mask>
<g mask="url(#mask0_230_15598)">
<path d="M207.453 410.111L251.394 409.952L257.904 409.68L264.414 409.111L269.296 408.481L272.551 407.859L275.806 406.956L279.061 405.769L282.315 404.333L285.57 402.582L288.825 400.456L293.708 396.776L296.962 394.04L300.217 390.878L303.472 387.125L306.727 382.763L311.609 375.462L323.002 357.579L326.256 352.277L329.511 346.487L332.766 340.078L345.786 313.099L349.041 306.667L352.295 299.668L357.178 288.586L358.805 285.248L360.433 282.319L362.06 279.85L363.688 277.813L365.315 276.119L368.57 273.387L371.825 271.3L373.452 270.537L376.707 269.462L383.217 267.551L384.844 267.443L386.472 267.805L388.099 268.736L389.727 270.24L391.354 272.235L394.609 277.179L399.491 285.568L402.746 291.582L407.628 301.465L419.021 325.696L425.53 340.785L428.785 347.185L432.04 352.434L438.55 362.095L446.687 375.265L449.942 379.471L453.197 382.872L461.334 390.472L464.589 393.321L467.844 395.822L472.726 399.043L477.609 402.009L480.863 403.736L484.118 405.12L489.001 406.703L493.883 407.91L498.765 408.692L503.648 409.166L510.157 409.503L528.059 410.104L531.314 410.111" fill="#EFEFEF" fill-opacity="0.4"/>
<path d="M207.453 410.111L251.394 409.952L257.904 409.68L264.414 409.111L269.296 408.481L272.551 407.859L275.806 406.956L279.061 405.769L282.315 404.333L285.57 402.582L288.825 400.456L293.708 396.776L296.962 394.04L300.217 390.878L303.472 387.125L306.727 382.763L311.609 375.462L323.002 357.579L326.256 352.277L329.511 346.487L332.766 340.078L345.786 313.099L349.041 306.667L352.295 299.668L357.178 288.586L358.805 285.248L360.433 282.319L362.06 279.85L363.688 277.813L365.315 276.119L368.57 273.387L371.825 271.3L373.452 270.537L376.707 269.462L383.217 267.551L384.844 267.443L386.472 267.805L388.099 268.736L389.727 270.24L391.354 272.235L394.609 277.179L399.491 285.568L402.746 291.582L407.628 301.465L419.021 325.696L425.53 340.785L428.785 347.185L432.04 352.434L438.55 362.095L446.687 375.265L449.942 379.471L453.197 382.872L461.334 390.472L464.589 393.321L467.844 395.822L472.726 399.043L477.609 402.009L480.863 403.736L484.118 405.12L489.001 406.703L493.883 407.91L498.765 408.692L503.648 409.166L510.157 409.503L528.059 410.104L531.314 410.111" stroke="#EFEFEF" stroke-linecap="square"/>
</g>
<mask id="mask1_230_15598" style="mask-type:luminance" maskUnits="userSpaceOnUse" x="76" y="55" width="477" height="356">
<path d="M552.957 55.2959H76.7969V410.112H552.957V55.2959Z" fill="white"/>
</mask>
<g mask="url(#mask1_230_15598)">
<path d="M228.414 410.111L237.776 409.962L267.034 409.017L277.566 407.594L281.077 406.57L284.588 405.601L290.44 404.387L292.78 403.435L295.121 402.024L299.802 398.478L303.313 395.668L305.653 393.428L309.164 389.853L311.505 387.932L317.356 383.693L318.527 382.493L319.697 380.981L320.867 379.082L322.038 376.772L324.378 371.137L330.23 355.899L333.74 346.869L336.081 339.972L338.422 331.992L340.762 322.712L343.103 312.121L354.806 256.572L358.317 240.714L364.168 212.94L367.679 198.199L368.849 194L370.02 190.46L371.19 187.74L372.36 185.908L373.53 184.904L374.701 184.539L377.041 184.708L379.382 185.211L380.552 185.781L381.722 186.764L382.893 188.209L384.063 190.09L385.233 192.389L386.404 195.189L387.574 198.699L388.744 203.186L389.915 208.87L391.085 215.808L393.425 232.61L396.936 258.803L399.277 273.805L403.958 302.401L410.98 348.362L413.32 360.908L415.661 371.33L418.002 380.208L420.342 387.767L422.683 394.027L425.023 399.137L426.194 401.268L427.364 403.087L428.534 404.58L429.705 405.754L430.875 406.646L433.215 407.815L436.726 408.864L440.237 409.579L443.748 409.939L448.429 410.033L461.302 410.111" fill="#EFEFEF" fill-opacity="0.4"/>
<path d="M228.414 410.111L237.776 409.962L267.034 409.017L277.566 407.594L281.077 406.57L284.588 405.601L290.44 404.387L292.78 403.435L295.121 402.024L299.802 398.478L303.313 395.668L305.653 393.428L309.164 389.853L311.505 387.932L317.356 383.693L318.527 382.493L319.697 380.981L320.867 379.082L322.038 376.772L324.378 371.137L330.23 355.899L333.74 346.869L336.081 339.972L338.422 331.992L340.762 322.712L343.103 312.121L354.806 256.572L358.317 240.714L364.168 212.94L367.679 198.199L368.849 194L370.02 190.46L371.19 187.74L372.36 185.908L373.53 184.904L374.701 184.539L377.041 184.708L379.382 185.211L380.552 185.781L381.722 186.764L382.893 188.209L384.063 190.09L385.233 192.389L386.404 195.189L387.574 198.699L388.744 203.186L389.915 208.87L391.085 215.808L393.425 232.61L396.936 258.803L399.277 273.805L403.958 302.401L410.98 348.362L413.32 360.908L415.661 371.33L418.002 380.208L420.342 387.767L422.683 394.027L425.023 399.137L426.194 401.268L427.364 403.087L428.534 404.58L429.705 405.754L430.875 406.646L433.215 407.815L436.726 408.864L440.237 409.579L443.748 409.939L448.429 410.033L461.302 410.111" stroke="#EFEFEF" stroke-linecap="square"/>
</g>
<mask id="mask2_230_15598" style="mask-type:luminance" maskUnits="userSpaceOnUse" x="76" y="55" width="477" height="356">
<path d="M552.957 55.2959H76.7969V410.112H552.957V55.2959Z" fill="white"/>
</mask>
<g mask="url(#mask2_230_15598)">
<path d="M169.719 410.111L198.565 409.918L203.716 409.816L212.988 408.933L217.109 408.24L222.26 407.061L231.532 404.378L233.592 403.552L234.622 402.879L235.653 401.959L237.713 399.428L242.864 391.71L245.955 386.779L249.045 381.18L251.106 376.604L253.166 370.927L255.227 364.287L258.317 353.09L260.378 344.655L262.438 334.831L264.499 323.37L268.62 299.445L275.831 260.915L278.922 241.47L282.012 222.154L286.133 199.568L288.194 189.093L290.254 180.677L291.284 177.497L292.315 174.96L293.345 172.971L294.375 171.43L295.405 170.271L296.435 169.458L297.466 168.972L298.496 168.784L299.526 168.837L301.586 169.336L303.647 170L304.677 170.464L305.707 171.168L306.738 172.281L307.768 174.014L308.798 176.597L309.828 180.212L310.858 184.91L312.919 196.932L317.04 224.969L321.161 254.667L335.584 363.188L337.644 374.498L338.674 378.987L340.735 386.073L342.795 391.424L344.856 395.832L346.916 399.742L348.976 403.045L350.007 404.344L351.037 405.375L352.067 406.162L354.127 407.238L357.218 408.375L359.279 408.932L362.369 409.372L370.611 410.069L374.732 410.111" fill="#EFEFEF" fill-opacity="0.4"/>
<path d="M169.719 410.111L198.565 409.918L203.716 409.816L212.988 408.933L217.109 408.24L222.26 407.061L231.532 404.378L233.592 403.552L234.622 402.879L235.653 401.959L237.713 399.428L242.864 391.71L245.955 386.779L249.045 381.18L251.106 376.604L253.166 370.927L255.227 364.287L258.317 353.09L260.378 344.655L262.438 334.831L264.499 323.37L268.62 299.445L275.831 260.915L278.922 241.47L282.012 222.154L286.133 199.568L288.194 189.093L290.254 180.677L291.284 177.497L292.315 174.96L293.345 172.971L294.375 171.43L295.405 170.271L296.435 169.458L297.466 168.972L298.496 168.784L299.526 168.837L301.586 169.336L303.647 170L304.677 170.464L305.707 171.168L306.738 172.281L307.768 174.014L308.798 176.597L309.828 180.212L310.858 184.91L312.919 196.932L317.04 224.969L321.161 254.667L335.584 363.188L337.644 374.498L338.674 378.987L340.735 386.073L342.795 391.424L344.856 395.832L346.916 399.742L348.976 403.045L350.007 404.344L351.037 405.375L352.067 406.162L354.127 407.238L357.218 408.375L359.279 408.932L362.369 409.372L370.611 410.069L374.732 410.111" stroke="#EFEFEF" stroke-linecap="square"/>
</g>
<mask id="mask3_230_15598" style="mask-type:luminance" maskUnits="userSpaceOnUse" x="76" y="55" width="477" height="356">
<path d="M552.957 55.2959H76.7969V410.112H552.957V55.2959Z" fill="white"/>
</mask>
<g mask="url(#mask3_230_15598)">
<path d="M203.469 410.11L210.645 409.947L215.771 409.804L222.948 409.796L227.049 409.502L230.124 409.03L233.2 408.295L237.301 406.915L242.427 404.884L244.477 403.809L246.527 402.316L248.578 400.326L252.679 396.061L254.729 394.08L255.754 392.887L256.779 391.435L257.805 389.677L259.855 385.231L261.906 379.736L268.057 361.611L270.107 354.617L272.158 346.068L275.233 331.165L278.309 315.03L280.359 302.863L285.485 270.043L288.561 253.699L291.637 236.979L295.737 211.428L297.788 199.375L299.838 188.972L301.889 180.203L303.939 172.8L305.989 166.899L307.015 164.728L308.04 163.185L309.065 162.284L310.09 161.993L311.115 162.28L312.141 163.164L313.166 164.717L314.191 167.013L315.216 170.058L317.267 177.905L321.367 196.199L323.418 206.584L325.468 218.953L331.62 260.041L335.72 283.039L337.771 296.545L341.872 324.886L343.922 336.529L345.972 346.092L348.023 354.246L351.098 365.231L354.174 375.227L356.225 381.116L358.275 386.084L360.325 390.03L362.376 393.167L365.451 397.188L368.527 400.818L370.577 402.703L372.628 404.112L375.703 405.744L379.804 407.46L382.88 408.525L384.93 409.026L388.006 409.377L407.485 410.11" fill="#EFEFEF" fill-opacity="0.4"/>
<path d="M203.469 410.11L210.645 409.947L215.771 409.804L222.948 409.796L227.049 409.502L230.124 409.03L233.2 408.295L237.301 406.915L242.427 404.884L244.477 403.809L246.527 402.316L248.578 400.326L252.679 396.061L254.729 394.08L255.754 392.887L256.779 391.435L257.805 389.677L259.855 385.231L261.906 379.736L268.057 361.611L270.107 354.617L272.158 346.068L275.233 331.165L278.309 315.03L280.359 302.863L285.485 270.043L288.561 253.699L291.637 236.979L295.737 211.428L297.788 199.375L299.838 188.972L301.889 180.203L303.939 172.8L305.989 166.899L307.015 164.728L308.04 163.185L309.065 162.284L310.09 161.993L311.115 162.28L312.141 163.164L313.166 164.717L314.191 167.013L315.216 170.058L317.267 177.905L321.367 196.199L323.418 206.584L325.468 218.953L331.62 260.041L335.72 283.039L337.771 296.545L341.872 324.886L343.922 336.529L345.972 346.092L348.023 354.246L351.098 365.231L354.174 375.227L356.225 381.116L358.275 386.084L360.325 390.03L362.376 393.167L365.451 397.188L368.527 400.818L370.577 402.703L372.628 404.112L375.703 405.744L379.804 407.46L382.88 408.525L384.93 409.026L388.006 409.377L407.485 410.11" stroke="#EFEFEF" stroke-linecap="square"/>
</g>
<mask id="mask4_230_15598" style="mask-type:luminance" maskUnits="userSpaceOnUse" x="76" y="55" width="477" height="356">
<path d="M552.957 55.2959H76.7969V410.112H552.957V55.2959Z" fill="white"/>
</mask>
<g mask="url(#mask4_230_15598)">
<path d="M166.328 410.111L185.169 409.957L189.602 409.634L198.468 408.588L201.793 407.598L205.117 406.693L207.334 406.156L209.55 405.239L210.659 404.523L211.767 403.603L213.983 401.17L216.2 398.152L220.633 391.508L222.849 387.67L225.066 383.103L227.283 377.66L229.499 371.217L231.716 363.575L233.932 354.443L236.149 343.718L238.365 331.574L241.69 311.291L249.448 262.249L254.989 222.225L258.314 202.181L260.53 190.345L262.747 180.805L263.855 177.073L266.072 171.071L268.288 166.213L269.396 164.548L270.505 163.843L271.613 164.29L272.721 165.788L274.938 170.447L279.371 180.623L281.587 187.015L283.804 194.289L284.912 198.389L286.02 203.096L287.129 208.613L289.345 221.953L294.887 258.119L298.211 277.471L302.644 301.233L305.969 319.57L309.294 339.073L311.51 350.178L313.727 359.732L315.943 368.103L317.052 371.612L318.16 374.562L320.377 379.1L323.701 385.129L330.351 398.235L332.567 401.851L334.784 404.564L337 406.447L339.217 407.683L341.434 408.309L343.65 408.485L346.975 408.686L353.624 409.466L361.382 409.717L371.357 410.002L376.898 410.023L386.872 410.111" fill="#EFEFEF" fill-opacity="0.4"/>
<path d="M166.328 410.111L185.169 409.957L189.602 409.634L198.468 408.588L201.793 407.598L205.117 406.693L207.334 406.156L209.55 405.239L210.659 404.523L211.767 403.603L213.983 401.17L216.2 398.152L220.633 391.508L222.849 387.67L225.066 383.103L227.283 377.66L229.499 371.217L231.716 363.575L233.932 354.443L236.149 343.718L238.365 331.574L241.69 311.291L249.448 262.249L254.989 222.225L258.314 202.181L260.53 190.345L262.747 180.805L263.855 177.073L266.072 171.071L268.288 166.213L269.396 164.548L270.505 163.843L271.613 164.29L272.721 165.788L274.938 170.447L279.371 180.623L281.587 187.015L283.804 194.289L284.912 198.389L286.02 203.096L287.129 208.613L289.345 221.953L294.887 258.119L298.211 277.471L302.644 301.233L305.969 319.57L309.294 339.073L311.51 350.178L313.727 359.732L315.943 368.103L317.052 371.612L318.16 374.562L320.377 379.1L323.701 385.129L330.351 398.235L332.567 401.851L334.784 404.564L337 406.447L339.217 407.683L341.434 408.309L343.65 408.485L346.975 408.686L353.624 409.466L361.382 409.717L371.357 410.002L376.898 410.023L386.872 410.111" stroke="#EFEFEF" stroke-linecap="square"/>
</g>
<mask id="mask5_230_15598" style="mask-type:luminance" maskUnits="userSpaceOnUse" x="76" y="55" width="477" height="356">
<path d="M552.957 55.2959H76.7969V410.112H552.957V55.2959Z" fill="white"/>
</mask>
<g mask="url(#mask5_230_15598)">
<path d="M226.609 410.111L242.507 409.949L261.294 409.494L265.63 408.806L274.301 407.22L277.191 406.123L280.082 404.61L282.972 402.818L285.862 400.54L287.308 399.096L290.198 395.574L293.088 391.449L295.979 386.801L298.869 381.322L301.76 374.813L304.65 367.385L307.54 358.934L310.431 349.262L313.321 338.553L316.212 326.98L319.102 314.433L327.773 275.334L332.109 257.359L334.999 246.789L336.444 242.55L337.89 239.246L339.335 236.815L340.78 234.992L343.67 231.82L346.561 228.069L349.451 224.12L350.896 222.377L352.341 220.91L353.787 219.814L355.232 219.223L356.677 219.286L358.122 220.122L359.567 221.777L361.013 224.209L362.458 227.317L365.348 235.002L368.239 243.804L371.129 253.386L374.019 264.016L385.581 309.373L389.917 324.192L400.033 356.91L401.478 360.73L402.923 364.103L404.369 367.029L405.814 369.546L408.704 373.707L413.04 379.553L418.821 388.119L421.711 392.267L423.156 394.043L424.601 395.535L426.047 396.759L428.937 398.705L434.718 402.148L437.608 403.617L441.944 405.362L446.279 406.758L449.17 407.365L460.731 409.106L466.512 409.57L472.293 409.789L483.854 409.973L491.08 410.095L511.313 410.106L514.203 410.111" fill="#EFEFEF" fill-opacity="0.4"/>
<path d="M226.609 410.111L242.507 409.949L261.294 409.494L265.63 408.806L274.301 407.22L277.191 406.123L280.082 404.61L282.972 402.818L285.862 400.54L287.308 399.096L290.198 395.574L293.088 391.449L295.979 386.801L298.869 381.322L301.76 374.813L304.65 367.385L307.54 358.934L310.431 349.262L313.321 338.553L316.212 326.98L319.102 314.433L327.773 275.334L332.109 257.359L334.999 246.789L336.444 242.55L337.89 239.246L339.335 236.815L340.78 234.992L343.67 231.82L346.561 228.069L349.451 224.12L350.896 222.377L352.341 220.91L353.787 219.814L355.232 219.223L356.677 219.286L358.122 220.122L359.567 221.777L361.013 224.209L362.458 227.317L365.348 235.002L368.239 243.804L371.129 253.386L374.019 264.016L385.581 309.373L389.917 324.192L400.033 356.91L401.478 360.73L402.923 364.103L404.369 367.029L405.814 369.546L408.704 373.707L413.04 379.553L418.821 388.119L421.711 392.267L423.156 394.043L424.601 395.535L426.047 396.759L428.937 398.705L434.718 402.148L437.608 403.617L441.944 405.362L446.279 406.758L449.17 407.365L460.731 409.106L466.512 409.57L472.293 409.789L483.854 409.973L491.08 410.095L511.313 410.106L514.203 410.111" stroke="#EFEFEF" stroke-linecap="square"/>
</g>
<mask id="mask6_230_15598" style="mask-type:luminance" maskUnits="userSpaceOnUse" x="76" y="55" width="477" height="356">
<path d="M552.957 55.2959H76.7969V410.112H552.957V55.2959Z" fill="white"/>
</mask>
<g mask="url(#mask6_230_15598)">
<path d="M205.172 410.111L253.813 409.928L269.1 408.842L273.269 407.921L277.439 407.091L281.608 406.416L285.777 405.313L289.946 403.997L292.726 402.684L295.505 400.899L298.285 398.779L301.064 396.378L309.403 388.449L312.182 385.44L314.962 381.756L319.131 375.454L321.911 370.654L324.69 364.989L328.859 355.439L331.639 348.593L334.418 340.723L337.198 331.528L346.926 297.682L349.706 288.927L355.265 272.166L358.044 262.538L363.603 241.682L366.383 232.815L369.162 224.799L371.942 217.854L373.331 214.945L374.721 212.49L376.111 210.609L377.501 209.457L378.89 209.121L380.28 209.539L381.67 210.526L383.06 211.896L384.449 213.575L385.839 215.632L387.229 218.216L388.619 221.472L390.008 225.482L391.398 230.25L394.177 241.712L403.906 286.153L408.075 304.2L410.854 317.667L416.413 345.277L419.193 356.995L421.972 366.712L424.752 375.038L427.531 382.409L430.311 388.775L433.09 394.132L435.87 398.608L438.649 402.27L440.039 403.777L441.429 405.048L442.819 406.083L444.208 406.899L446.988 408.017L449.767 408.725L453.937 409.426L458.106 409.832L463.665 410.041L481.732 410.111" fill="#EFEFEF" fill-opacity="0.4"/>
<path d="M205.172 410.111L253.813 409.928L269.1 408.842L273.269 407.921L277.439 407.091L281.608 406.416L285.777 405.313L289.946 403.997L292.726 402.684L295.505 400.899L298.285 398.779L301.064 396.378L309.403 388.449L312.182 385.44L314.962 381.756L319.131 375.454L321.911 370.654L324.69 364.989L328.859 355.439L331.639 348.593L334.418 340.723L337.198 331.528L346.926 297.682L349.706 288.927L355.265 272.166L358.044 262.538L363.603 241.682L366.383 232.815L369.162 224.799L371.942 217.854L373.331 214.945L374.721 212.49L376.111 210.609L377.501 209.457L378.89 209.121L380.28 209.539L381.67 210.526L383.06 211.896L384.449 213.575L385.839 215.632L387.229 218.216L388.619 221.472L390.008 225.482L391.398 230.25L394.177 241.712L403.906 286.153L408.075 304.2L410.854 317.667L416.413 345.277L419.193 356.995L421.972 366.712L424.752 375.038L427.531 382.409L430.311 388.775L433.09 394.132L435.87 398.608L438.649 402.27L440.039 403.777L441.429 405.048L442.819 406.083L444.208 406.899L446.988 408.017L449.767 408.725L453.937 409.426L458.106 409.832L463.665 410.041L481.732 410.111" stroke="#EFEFEF" stroke-linecap="square"/>
</g>
<mask id="mask7_230_15598" style="mask-type:luminance" maskUnits="userSpaceOnUse" x="76" y="55" width="477" height="356">
<path d="M552.957 55.2959H76.7969V410.112H552.957V55.2959Z" fill="white"/>
</mask>
<g mask="url(#mask7_230_15598)">
<path d="M224.609 410.111L235.742 409.963L242.421 409.791L249.1 409.946L262.459 409.691L270.251 408.549L273.591 407.589L276.931 406.245L280.27 404.266L285.836 401.002L288.063 398.744L293.629 392.183L294.742 390.393L295.855 388.205L298.082 382.845L300.308 376.365L302.535 368.242L303.648 363.289L304.761 357.58L306.988 343.867L310.327 319.779L312.554 302.105L314.78 282.392L319.233 239.104L321.459 214.802L324.799 176.35L327.025 154.34L329.252 136.866L331.478 123.054L332.592 117.568L333.705 113.463L334.818 111.097L335.931 110.61L337.044 111.912L338.158 114.77L339.271 118.839L342.611 133.765L344.837 144.387L345.95 150.608L348.177 165.782L362.648 279.071L368.215 318.616L370.441 332.791L372.667 344.795L377.12 366.212L379.347 375.111L381.573 382.074L383.8 388.491L384.913 391.368L386.026 393.783L387.139 395.671L388.253 397.08L389.366 398.101L391.592 399.439L392.705 400.062L393.819 400.865L396.045 403.079L398.271 405.224L400.498 406.68L403.838 408.375L406.064 409.115L408.29 409.395L423.876 409.985L428.328 410.085L439.461 410.018L446.14 410.111" fill="#EFEFEF" fill-opacity="0.4"/>
<path d="M224.609 410.111L235.742 409.963L242.421 409.791L249.1 409.946L262.459 409.691L270.251 408.549L273.591 407.589L276.931 406.245L280.27 404.266L285.836 401.002L288.063 398.744L293.629 392.183L294.742 390.393L295.855 388.205L298.082 382.845L300.308 376.365L302.535 368.242L303.648 363.289L304.761 357.58L306.988 343.867L310.327 319.779L312.554 302.105L314.78 282.392L319.233 239.104L321.459 214.802L324.799 176.35L327.025 154.34L329.252 136.866L331.478 123.054L332.592 117.568L333.705 113.463L334.818 111.097L335.931 110.61L337.044 111.912L338.158 114.77L339.271 118.839L342.611 133.765L344.837 144.387L345.95 150.608L348.177 165.782L362.648 279.071L368.215 318.616L370.441 332.791L372.667 344.795L377.12 366.212L379.347 375.111L381.573 382.074L383.8 388.491L384.913 391.368L386.026 393.783L387.139 395.671L388.253 397.08L389.366 398.101L391.592 399.439L392.705 400.062L393.819 400.865L396.045 403.079L398.271 405.224L400.498 406.68L403.838 408.375L406.064 409.115L408.29 409.395L423.876 409.985L428.328 410.085L439.461 410.018L446.14 410.111" stroke="#EFEFEF" stroke-linecap="square"/>
</g>
<mask id="mask8_230_15598" style="mask-type:luminance" maskUnits="userSpaceOnUse" x="76" y="55" width="477" height="356">
<path d="M552.957 55.2959H76.7969V410.112H552.957V55.2959Z" fill="white"/>
</mask>
<g mask="url(#mask8_230_15598)">
<path d="M225.695 410.111L254.198 409.989L271.04 409.218L276.223 408.525L281.405 407.673L283.996 406.976L286.587 405.938L289.178 404.604L291.77 402.987L294.361 401.014L300.839 395.37L303.43 392.706L304.725 391.057L307.317 387.062L309.908 382.449L312.499 377.402L315.09 371.619L317.681 364.934L328.046 336.717L330.637 329.886L333.228 322.275L337.115 309.397L341.001 296.885L348.775 273.359L353.957 256.93L356.548 249.549L359.14 242.942L361.731 237.096L364.322 232.127L365.617 230.079L366.913 228.419L368.209 227.215L369.504 226.49L370.8 226.221L372.095 226.358L373.391 226.863L374.686 227.731L375.982 228.967L377.278 230.556L379.869 234.445L383.755 240.289L386.347 244.329L387.642 246.876L388.938 249.968L390.233 253.646L392.824 262.57L395.416 272.948L400.598 294.509L403.189 303.704L408.371 320.058L410.963 330.069L416.145 352.226L418.736 361.735L421.327 369.772L423.918 376.546L426.509 382.144L429.101 386.651L431.692 390.374L435.578 395.351L439.465 399.89L442.056 402.408L444.647 404.43L447.239 406.03L449.83 407.268L452.421 408.125L455.012 408.622L462.785 409.464L467.968 409.718L480.924 410.107L483.515 410.111" fill="#EFEFEF" fill-opacity="0.4"/>
<path d="M225.695 410.111L254.198 409.989L271.04 409.218L276.223 408.525L281.405 407.673L283.996 406.976L286.587 405.938L289.178 404.604L291.77 402.987L294.361 401.014L300.839 395.37L303.43 392.706L304.725 391.057L307.317 387.062L309.908 382.449L312.499 377.402L315.09 371.619L317.681 364.934L328.046 336.717L330.637 329.886L333.228 322.275L337.115 309.397L341.001 296.885L348.775 273.359L353.957 256.93L356.548 249.549L359.14 242.942L361.731 237.096L364.322 232.127L365.617 230.079L366.913 228.419L368.209 227.215L369.504 226.49L370.8 226.221L372.095 226.358L373.391 226.863L374.686 227.731L375.982 228.967L377.278 230.556L379.869 234.445L383.755 240.289L386.347 244.329L387.642 246.876L388.938 249.968L390.233 253.646L392.824 262.57L395.416 272.948L400.598 294.509L403.189 303.704L408.371 320.058L410.963 330.069L416.145 352.226L418.736 361.735L421.327 369.772L423.918 376.546L426.509 382.144L429.101 386.651L431.692 390.374L435.578 395.351L439.465 399.89L442.056 402.408L444.647 404.43L447.239 406.03L449.83 407.268L452.421 408.125L455.012 408.622L462.785 409.464L467.968 409.718L480.924 410.107L483.515 410.111" stroke="#EFEFEF" stroke-linecap="square"/>
</g>
<mask id="mask9_230_15598" style="mask-type:luminance" maskUnits="userSpaceOnUse" x="76" y="55" width="477" height="356">
<path d="M552.957 55.2959H76.7969V410.112H552.957V55.2959Z" fill="white"/>
</mask>
<g mask="url(#mask9_230_15598)">
<path d="M207.766 410.111L235.944 409.909L246.276 409.595L250.033 409.49L251.911 409.198L257.547 407.839L262.243 407.443L267.879 406.324L268.818 405.723L269.757 404.83L271.636 402.295L273.514 399.206L275.393 395.527L277.272 390.654L279.15 384.628L281.029 377.692L282.907 369.209L284.786 358.278L286.664 344.533L293.239 290.174L295.118 271.576L300.753 211.52L304.51 174.331L306.389 159.074L308.267 147.664L311.085 132.444L314.842 109.086L315.782 104.7L316.721 101.548L317.66 99.6221L318.599 98.7822L319.539 98.8359L320.478 99.5229L323.296 102.372L324.235 103.656L325.174 105.994L326.114 109.976L327.053 115.794L327.992 123.225L329.871 141.394L332.688 173.664L336.446 217.773L339.263 250.074L343.02 296.032L344.899 314.396L346.777 329.768L348.656 343.075L350.535 354.78L352.413 364.792L355.231 377.542L357.109 384.876L358.988 390.492L360.867 394.798L362.745 398.683L363.684 400.36L364.624 401.707L365.563 402.707L367.441 404.07L370.259 405.752L373.077 406.94L377.773 408.829L381.53 409.547L384.348 409.868L390.923 410.071L394.68 410.111" fill="#EFEFEF" fill-opacity="0.4"/>
<path d="M207.766 410.111L235.944 409.909L246.276 409.595L250.033 409.49L251.911 409.198L257.547 407.839L262.243 407.443L267.879 406.324L268.818 405.723L269.757 404.83L271.636 402.295L273.514 399.206L275.393 395.527L277.272 390.654L279.15 384.628L281.029 377.692L282.907 369.209L284.786 358.278L286.664 344.533L293.239 290.174L295.118 271.576L300.753 211.52L304.51 174.331L306.389 159.074L308.267 147.664L311.085 132.444L314.842 109.086L315.782 104.7L316.721 101.548L317.66 99.6221L318.599 98.7822L319.539 98.8359L320.478 99.5229L323.296 102.372L324.235 103.656L325.174 105.994L326.114 109.976L327.053 115.794L327.992 123.225L329.871 141.394L332.688 173.664L336.446 217.773L339.263 250.074L343.02 296.032L344.899 314.396L346.777 329.768L348.656 343.075L350.535 354.78L352.413 364.792L355.231 377.542L357.109 384.876L358.988 390.492L360.867 394.798L362.745 398.683L363.684 400.36L364.624 401.707L365.563 402.707L367.441 404.07L370.259 405.752L373.077 406.94L377.773 408.829L381.53 409.547L384.348 409.868L390.923 410.071L394.68 410.111" stroke="#EFEFEF" stroke-linecap="square"/>
</g>
<mask id="mask10_230_15598" style="mask-type:luminance" maskUnits="userSpaceOnUse" x="76" y="55" width="477" height="356">
<path d="M552.957 55.2959H76.7969V410.112H552.957V55.2959Z" fill="white"/>
</mask>
<g mask="url(#mask10_230_15598)">
<path d="M212.656 410.111L234.709 409.93L249.41 409.42L251.861 409.116L256.761 407.964L259.212 407.501L265.337 406.646L266.562 406.107L269.013 404.462L272.688 401.761L277.589 398.596L278.814 397.544L280.039 396.242L283.714 391.473L286.165 387.906L287.39 385.576L288.615 382.744L291.065 375.92L293.515 368.156L297.191 355.513L299.641 345.891L302.091 333.979L305.767 313.445L308.217 298.086L310.667 280.118L313.118 259.419L318.018 216.142L320.468 198.231L327.819 154.076L329.044 148.361L330.27 144.294L331.495 141.521L332.72 139.539L333.945 138.08L335.17 137.22L336.395 137.239L337.62 138.455L338.846 141.072L340.071 145.048L341.296 150.087L343.746 162.165L344.971 169.307L346.196 177.609L348.647 197.498L351.097 217.491L353.547 234.184L355.997 250.127L358.448 268.176L363.348 306.196L365.799 322.272L369.474 344.382L371.924 357.552L374.375 368.135L376.825 376.3L379.275 382.616L385.401 396.056L386.626 398.107L387.851 399.552L389.076 400.432L392.752 402.056L398.877 405.891L402.553 407.29L406.228 408.32L409.904 409.042L414.804 409.407L419.705 409.595L424.605 409.749L429.506 410.001L456.459 410.111" fill="#EFEFEF" fill-opacity="0.4"/>
<path d="M212.656 410.111L234.709 409.93L249.41 409.42L251.861 409.116L256.761 407.964L259.212 407.501L265.337 406.646L266.562 406.107L269.013 404.462L272.688 401.761L277.589 398.596L278.814 397.544L280.039 396.242L283.714 391.473L286.165 387.906L287.39 385.576L288.615 382.744L291.065 375.92L293.515 368.156L297.191 355.513L299.641 345.891L302.091 333.979L305.767 313.445L308.217 298.086L310.667 280.118L313.118 259.419L318.018 216.142L320.468 198.231L327.819 154.076L329.044 148.361L330.27 144.294L331.495 141.521L332.72 139.539L333.945 138.08L335.17 137.22L336.395 137.239L337.62 138.455L338.846 141.072L340.071 145.048L341.296 150.087L343.746 162.165L344.971 169.307L346.196 177.609L348.647 197.498L351.097 217.491L353.547 234.184L355.997 250.127L358.448 268.176L363.348 306.196L365.799 322.272L369.474 344.382L371.924 357.552L374.375 368.135L376.825 376.3L379.275 382.616L385.401 396.056L386.626 398.107L387.851 399.552L389.076 400.432L392.752 402.056L398.877 405.891L402.553 407.29L406.228 408.32L409.904 409.042L414.804 409.407L419.705 409.595L424.605 409.749L429.506 410.001L456.459 410.111" stroke="#EFEFEF" stroke-linecap="square"/>
</g>
<mask id="mask11_230_15598" style="mask-type:luminance" maskUnits="userSpaceOnUse" x="76" y="55" width="477" height="356">
<path d="M552.957 55.2959H76.7969V410.112H552.957V55.2959Z" fill="white"/>
</mask>
<g mask="url(#mask11_230_15598)">
<path d="M225.57 410.111L236.647 409.964L246.494 409.525L255.109 409.052L261.263 408.026L263.725 407.402L266.186 406.461L269.879 404.591L272.34 403.126L274.802 401.233L276.033 399.996L277.264 398.505L278.494 396.73L280.956 392.341L283.418 387.084L285.879 381.238L288.341 374.482L290.802 366.084L293.264 355.67L295.725 343.442L299.418 322.731L303.11 299.869L309.264 260.452L311.726 247.45L314.187 236.849L319.11 218.247L321.572 210.401L322.803 207.425L324.034 205.286L325.264 204.041L326.495 203.604L327.726 203.742L336.342 206.744L337.572 207.498L338.803 208.567L340.034 210.196L341.265 212.648L342.496 216.088L343.726 220.504L346.188 231.311L348.649 242.318L351.111 251.489L356.034 267.514L359.727 281.98L365.881 305.836L372.035 329.473L374.496 337.571L378.189 348.528L381.881 358.603L384.342 364.372L389.266 374.575L392.958 381.681L396.65 387.929L399.112 391.679L401.574 394.986L404.035 397.848L406.497 400.259L408.958 402.076L411.42 403.33L417.574 405.75L421.266 406.978L424.959 407.836L429.882 408.479L437.267 409.195L449.574 410.072L456.959 410.051L466.806 410.102L470.498 410.111" fill="#EFEFEF" fill-opacity="0.4"/>
<path d="M225.57 410.111L236.647 409.964L246.494 409.525L255.109 409.052L261.263 408.026L263.725 407.402L266.186 406.461L269.879 404.591L272.34 403.126L274.802 401.233L276.033 399.996L277.264 398.505L278.494 396.73L280.956 392.341L283.418 387.084L285.879 381.238L288.341 374.482L290.802 366.084L293.264 355.67L295.725 343.442L299.418 322.731L303.11 299.869L309.264 260.452L311.726 247.45L314.187 236.849L319.11 218.247L321.572 210.401L322.803 207.425L324.034 205.286L325.264 204.041L326.495 203.604L327.726 203.742L336.342 206.744L337.572 207.498L338.803 208.567L340.034 210.196L341.265 212.648L342.496 216.088L343.726 220.504L346.188 231.311L348.649 242.318L351.111 251.489L356.034 267.514L359.727 281.98L365.881 305.836L372.035 329.473L374.496 337.571L378.189 348.528L381.881 358.603L384.342 364.372L389.266 374.575L392.958 381.681L396.65 387.929L399.112 391.679L401.574 394.986L404.035 397.848L406.497 400.259L408.958 402.076L411.42 403.33L417.574 405.75L421.266 406.978L424.959 407.836L429.882 408.479L437.267 409.195L449.574 410.072L456.959 410.051L466.806 410.102L470.498 410.111" stroke="#EFEFEF" stroke-linecap="square"/>
</g>
<mask id="mask12_230_15598" style="mask-type:luminance" maskUnits="userSpaceOnUse" x="76" y="55" width="477" height="356">
<path d="M552.957 55.2959H76.7969V410.112H552.957V55.2959Z" fill="white"/>
</mask>
<g mask="url(#mask12_230_15598)">
<path d="M178.898 410.111L213.381 409.874L224.875 409.376L231.771 408.053L236.369 406.134L239.817 404.977L242.116 403.638L244.415 401.808L246.713 399.533L247.863 398.148L249.012 396.502L251.311 392.35L253.61 387.352L255.909 381.674L258.207 375.459L259.357 371.965L260.506 367.94L261.656 363.093L262.805 357.144L265.104 342.021L268.552 318.247L272 295.93L274.299 278.804L276.598 259.817L278.897 236.433L286.943 144.571L289.241 121.452L292.69 89.6675L293.839 81.1909L294.988 75.247L296.138 72.2542L297.287 72.1924L298.437 74.7856L299.586 79.607L300.735 86.0854L303.034 101.825L305.333 120.542L307.632 143.369L309.931 170.616L315.678 246.23L319.126 282.559L321.425 304.881L324.873 334.987L327.172 353.401L328.321 361.264L329.471 367.886L330.62 373.335L331.769 377.855L334.068 385.171L336.367 391.33L338.666 396.625L339.815 398.778L340.965 400.508L342.114 401.852L344.413 403.895L346.712 405.649L349.01 406.951L351.309 407.658L360.505 409.622L363.953 409.817L369.7 409.774L373.148 409.693L386.941 410.112L407.63 410.111" fill="#EFEFEF" fill-opacity="0.4"/>
<path d="M178.898 410.111L213.381 409.874L224.875 409.376L231.771 408.053L236.369 406.134L239.817 404.977L242.116 403.638L244.415 401.808L246.713 399.533L247.863 398.148L249.012 396.502L251.311 392.35L253.61 387.352L255.909 381.674L258.207 375.459L259.357 371.965L260.506 367.94L261.656 363.093L262.805 357.144L265.104 342.021L268.552 318.247L272 295.93L274.299 278.804L276.598 259.817L278.897 236.433L286.943 144.571L289.241 121.452L292.69 89.6675L293.839 81.1909L294.988 75.247L296.138 72.2542L297.287 72.1924L298.437 74.7856L299.586 79.607L300.735 86.0854L303.034 101.825L305.333 120.542L307.632 143.369L309.931 170.616L315.678 246.23L319.126 282.559L321.425 304.881L324.873 334.987L327.172 353.401L328.321 361.264L329.471 367.886L330.62 373.335L331.769 377.855L334.068 385.171L336.367 391.33L338.666 396.625L339.815 398.778L340.965 400.508L342.114 401.852L344.413 403.895L346.712 405.649L349.01 406.951L351.309 407.658L360.505 409.622L363.953 409.817L369.7 409.774L373.148 409.693L386.941 410.112L407.63 410.111" stroke="#EFEFEF" stroke-linecap="square"/>
</g>
<mask id="mask13_230_15598" style="mask-type:luminance" maskUnits="userSpaceOnUse" x="76" y="55" width="477" height="356">
<path d="M552.957 55.2959H76.7969V410.112H552.957V55.2959Z" fill="white"/>
</mask>
<g mask="url(#mask13_230_15598)">
<path d="M208.141 410.11L224.426 409.933L228.712 409.705L231.283 409.652L232.998 409.415L238.998 408.094L244.14 407.847L245.855 407.252L248.426 405.887L250.14 405.017L253.569 403.9L254.426 403.336L256.14 401.647L258.712 398.984L260.426 397.276L262.14 394.973L262.997 393.461L263.855 391.62L264.712 389.339L265.569 386.505L266.426 383.042L268.14 374.29L269.855 363.653L272.426 345.345L274.997 325.111L276.712 309.92L278.426 292.067L280.14 271.295L288.712 160.687L290.426 141.398L292.14 126.187L293.854 115.1L295.569 106.995L296.426 103.902L297.283 101.407L298.14 99.4621L298.997 98.019L299.854 97.0574L300.712 96.5957L301.569 96.6743L302.426 97.3136L303.283 98.4786L304.14 100.099L304.997 102.165L305.854 104.833L306.712 108.436L307.569 113.323L309.283 126.941L310.997 142.049L312.712 154.383L314.426 165.351L316.14 178.847L317.854 195.847L320.426 222.505L324.711 262.369L328.997 308.955L330.711 322.368L332.426 332.756L334.997 345.643L339.283 366.137L342.711 383.07L343.569 386.363L344.426 389.026L346.14 392.858L351.283 402.156L352.997 404.592L354.711 406.458L356.426 407.778L358.14 408.589L359.854 409.021L362.426 409.277L365.854 409.241L369.283 409.226L371.854 409.615L374.425 409.986L377.854 410.107L378.711 410.11" fill="#EFEFEF" fill-opacity="0.4"/>
<path d="M208.141 410.11L224.426 409.933L228.712 409.705L231.283 409.652L232.998 409.415L238.998 408.094L244.14 407.847L245.855 407.252L248.426 405.887L250.14 405.017L253.569 403.9L254.426 403.336L256.14 401.647L258.712 398.984L260.426 397.276L262.14 394.973L262.997 393.461L263.855 391.62L264.712 389.339L265.569 386.505L266.426 383.042L268.14 374.29L269.855 363.653L272.426 345.345L274.997 325.111L276.712 309.92L278.426 292.067L280.14 271.295L288.712 160.687L290.426 141.398L292.14 126.187L293.854 115.1L295.569 106.995L296.426 103.902L297.283 101.407L298.14 99.4621L298.997 98.019L299.854 97.0574L300.712 96.5957L301.569 96.6743L302.426 97.3136L303.283 98.4786L304.14 100.099L304.997 102.165L305.854 104.833L306.712 108.436L307.569 113.323L309.283 126.941L310.997 142.049L312.712 154.383L314.426 165.351L316.14 178.847L317.854 195.847L320.426 222.505L324.711 262.369L328.997 308.955L330.711 322.368L332.426 332.756L334.997 345.643L339.283 366.137L342.711 383.07L343.569 386.363L344.426 389.026L346.14 392.858L351.283 402.156L352.997 404.592L354.711 406.458L356.426 407.778L358.14 408.589L359.854 409.021L362.426 409.277L365.854 409.241L369.283 409.226L371.854 409.615L374.425 409.986L377.854 410.107L378.711 410.11" stroke="#EFEFEF" stroke-linecap="square"/>
</g>
<mask id="mask14_230_15598" style="mask-type:luminance" maskUnits="userSpaceOnUse" x="76" y="55" width="477" height="356">
<path d="M552.957 55.2959H76.7969V410.112H552.957V55.2959Z" fill="white"/>
</mask>
<g mask="url(#mask14_230_15598)">
<path d="M98.4375 410.112L137.373 409.978L142.451 409.63L145.837 408.927L147.53 408.348L149.222 407.6L150.915 406.656L152.608 405.479L154.301 404.035L155.994 402.32L159.379 398.264L162.765 393.715L166.151 388.549L167.844 385.571L171.229 378.711L174.615 370.578L176.308 365.887L179.693 355.229L188.158 326.302L193.236 308.292L201.7 279.235L206.779 261.176L208.472 255.866L210.164 251.433L211.857 248.102L213.55 245.839L215.243 244.351L218.628 242.067L225.4 236.81L227.093 236.251L228.785 236.23L230.478 236.712L232.171 237.66L233.864 239.07L235.557 240.937L237.25 243.209L238.942 245.803L240.635 248.7L242.328 252.002L244.021 255.879L245.714 260.412L249.099 270.867L266.028 325.062L272.799 344.293L276.185 353.979L279.57 362.08L284.649 372.611L288.035 379.123L291.42 384.741L294.806 389.5L298.192 393.618L299.884 395.327L301.577 396.764L304.963 399.059L310.041 401.968L313.427 403.625L316.813 404.952L320.198 405.941L335.434 409.33L340.512 409.758L347.284 409.963L369.29 410.106L399.761 410.109L435.311 410.112" fill="#7EB0D5" fill-opacity="0.4"/>
<path d="M98.4375 410.112L137.373 409.978L142.451 409.63L145.837 408.927L147.53 408.348L149.222 407.6L150.915 406.656L152.608 405.479L154.301 404.035L155.994 402.32L159.379 398.264L162.765 393.715L166.151 388.549L167.844 385.571L171.229 378.711L174.615 370.578L176.308 365.887L179.693 355.229L188.158 326.302L193.236 308.292L201.7 279.235L206.779 261.176L208.472 255.866L210.164 251.433L211.857 248.102L213.55 245.839L215.243 244.351L218.628 242.067L225.4 236.81L227.093 236.251L228.785 236.23L230.478 236.712L232.171 237.66L233.864 239.07L235.557 240.937L237.25 243.209L238.942 245.803L240.635 248.7L242.328 252.002L244.021 255.879L245.714 260.412L249.099 270.867L266.028 325.062L272.799 344.293L276.185 353.979L279.57 362.08L284.649 372.611L288.035 379.123L291.42 384.741L294.806 389.5L298.192 393.618L299.884 395.327L301.577 396.764L304.963 399.059L310.041 401.968L313.427 403.625L316.813 404.952L320.198 405.941L335.434 409.33L340.512 409.758L347.284 409.963L369.29 410.106L399.761 410.109L435.311 410.112" stroke="#7EB0D5" stroke-linecap="square"/>
</g>
<path d="M535.061 411.061C535.646 410.475 535.646 409.525 535.061 408.939L525.515 399.393C524.929 398.808 523.979 398.808 523.393 399.393C522.808 399.979 522.808 400.929 523.393 401.515L531.879 410L523.393 418.485C522.808 419.071 522.808 420.021 523.393 420.607C523.979 421.192 524.929 421.192 525.515 420.607L535.061 411.061ZM79 411.5H534V408.5H79V411.5Z" fill="black"/>
</g>
<defs>
<clipPath id="clip0_230_15598">
<rect width="614.4" height="460.8" fill="white"/>
</clipPath>
</defs>
</svg>
