<svg width="615" height="461" viewBox="0 0 615 461" fill="none" xmlns="http://www.w3.org/2000/svg">
<g clip-path="url(#clip0_230_14718)">
<mask id="mask0_230_14718" style="mask-type:luminance" maskUnits="userSpaceOnUse" x="76" y="55" width="477" height="356">
<path d="M552.957 55.2959H76.7969V410.112H552.957V55.2959Z" fill="white"/>
</mask>
<g mask="url(#mask0_230_14718)">
<path d="M400.375 410.111L413.547 409.974L420.731 409.206L421.929 408.729L423.126 407.967L424.324 406.624L425.521 404.351L426.719 401.198L428.515 395.498L429.712 390.615L430.91 384.212L432.107 376.033L433.305 365.783L438.094 318.206L439.89 295.644L442.285 266.239L448.871 192.935L451.266 170.496L452.464 161.314L453.062 157.85L453.661 155.271L454.26 153.551L454.858 152.593L455.457 152.273L456.056 152.472L456.655 153.097L457.253 154.101L457.852 155.485L458.451 157.299L459.648 162.402L462.642 178.196L463.839 183.181L464.438 186.275L465.635 195.027L467.432 212.764L472.221 262.968L475.215 293.768L478.807 331.306L480.603 346.014L482.998 362.804L484.196 370.007L485.992 378.535L489.584 394.308L490.782 398.053L491.979 400.975L493.177 403.352L494.374 405.049L495.571 406.004L497.966 407.419L500.361 409.028L501.559 409.475L503.355 409.738L519.52 410.111" fill="#EFEFEF" fill-opacity="0.4"/>
<path d="M400.375 410.111L413.547 409.974L420.731 409.206L421.929 408.729L423.126 407.967L424.324 406.624L425.521 404.351L426.719 401.198L428.515 395.498L429.712 390.615L430.91 384.212L432.107 376.033L433.305 365.783L438.094 318.206L439.89 295.644L442.285 266.239L448.871 192.935L451.266 170.496L452.464 161.314L453.062 157.85L453.661 155.271L454.26 153.551L454.858 152.593L455.457 152.273L456.056 152.472L456.655 153.097L457.253 154.101L457.852 155.485L458.451 157.299L459.648 162.402L462.642 178.196L463.839 183.181L464.438 186.275L465.635 195.027L467.432 212.764L472.221 262.968L475.215 293.768L478.807 331.306L480.603 346.014L482.998 362.804L484.196 370.007L485.992 378.535L489.584 394.308L490.782 398.053L491.979 400.975L493.177 403.352L494.374 405.049L495.571 406.004L497.966 407.419L500.361 409.028L501.559 409.475L503.355 409.738L519.52 410.111" stroke="#EFEFEF" stroke-linecap="square"/>
</g>
<mask id="mask1_230_14718" style="mask-type:luminance" maskUnits="userSpaceOnUse" x="76" y="55" width="477" height="356">
<path d="M552.957 55.2959H76.7969V410.112H552.957V55.2959Z" fill="white"/>
</mask>
<g mask="url(#mask1_230_14718)">
<path d="M382.453 410.111L392.315 409.944L395.397 409.559L398.478 409.163L399.711 408.611L400.944 407.555L402.793 405.881L404.025 405.054L404.642 404.487L405.874 402.739L407.107 400.205L408.34 396.514L409.573 390.718L410.805 382.527L412.654 367.238L414.503 349.643L415.736 336.116L417.585 311.046L420.667 265.681L421.9 242.265L423.749 205.041L425.598 174.287L430.529 101.412L431.761 89.0031L432.994 79.989L433.61 76.6787L434.227 74.2066L434.843 72.6237L435.459 72.1924L436.076 73.4803L436.692 77.1697L437.308 83.6452L438.541 103.427L443.472 196.817L447.786 290.107L449.635 321.931L450.868 338.38L452.101 351.696L453.334 362.116L455.799 378.559L457.032 385.349L458.264 389.952L459.497 393.017L460.73 395.077L461.962 396.265L465.661 398.969L469.359 402.851L469.975 403.41L470.591 403.765L471.824 403.942L473.057 404.057L474.29 404.6L476.755 406.025L479.22 406.96L481.069 407.852L482.302 408.139L484.151 408.171L486 408.212L487.233 408.529L490.315 409.59L492.164 409.739L495.245 409.869L497.711 410.07L505.107 410.111" fill="#EFEFEF" fill-opacity="0.4"/>
<path d="M382.453 410.111L392.315 409.944L395.397 409.559L398.478 409.163L399.711 408.611L400.944 407.555L402.793 405.881L404.025 405.054L404.642 404.487L405.874 402.739L407.107 400.205L408.34 396.514L409.573 390.718L410.805 382.527L412.654 367.238L414.503 349.643L415.736 336.116L417.585 311.046L420.667 265.681L421.9 242.265L423.749 205.041L425.598 174.287L430.529 101.412L431.761 89.0031L432.994 79.989L433.61 76.6787L434.227 74.2066L434.843 72.6237L435.459 72.1924L436.076 73.4803L436.692 77.1697L437.308 83.6452L438.541 103.427L443.472 196.817L447.786 290.107L449.635 321.931L450.868 338.38L452.101 351.696L453.334 362.116L455.799 378.559L457.032 385.349L458.264 389.952L459.497 393.017L460.73 395.077L461.962 396.265L465.661 398.969L469.359 402.851L469.975 403.41L470.591 403.765L471.824 403.942L473.057 404.057L474.29 404.6L476.755 406.025L479.22 406.96L481.069 407.852L482.302 408.139L484.151 408.171L486 408.212L487.233 408.529L490.315 409.59L492.164 409.739L495.245 409.869L497.711 410.07L505.107 410.111" stroke="#EFEFEF" stroke-linecap="square"/>
</g>
<mask id="mask2_230_14718" style="mask-type:luminance" maskUnits="userSpaceOnUse" x="76" y="55" width="477" height="356">
<path d="M552.957 55.2959H76.7969V410.112H552.957V55.2959Z" fill="white"/>
</mask>
<g mask="url(#mask2_230_14718)">
<path d="M385.43 410.11L390.882 409.958L396.334 409.473L400.424 408.761L402.468 408.083L403.831 407.23L405.194 405.869L408.602 401.785L409.965 399.596L411.328 396.826L412.691 393.208L414.054 388.521L415.417 382.505L416.78 374.788L418.144 365.239L420.188 348.119L422.914 322.521L424.277 306.844L425.64 287.841L428.367 247.758L430.411 224.275L433.137 194.198L435.182 171.2L436.545 159.254L437.908 150.949L438.59 147.974L439.271 145.675L439.953 144.019L440.634 143.032L441.316 142.78L441.997 143.324L442.679 144.677L443.36 146.814L444.042 149.722L444.724 153.457L446.087 163.745L447.45 177.474L450.176 209.764L452.902 242.741L458.354 302.789L463.125 342.903L464.488 352.151L465.851 359.881L467.214 366.401L468.577 371.645L469.94 375.752L471.985 381.562L474.711 389.913L476.074 393.186L477.437 395.566L482.208 402.076L483.571 403.236L485.616 404.836L488.342 407.225L489.705 407.951L491.068 408.338L494.476 409.032L497.202 409.874L499.247 410.067L521.056 410.11" fill="#EFEFEF" fill-opacity="0.4"/>
<path d="M385.43 410.11L390.882 409.958L396.334 409.473L400.424 408.761L402.468 408.083L403.831 407.23L405.194 405.869L408.602 401.785L409.965 399.596L411.328 396.826L412.691 393.208L414.054 388.521L415.417 382.505L416.78 374.788L418.144 365.239L420.188 348.119L422.914 322.521L424.277 306.844L425.64 287.841L428.367 247.758L430.411 224.275L433.137 194.198L435.182 171.2L436.545 159.254L437.908 150.949L438.59 147.974L439.271 145.675L439.953 144.019L440.634 143.032L441.316 142.78L441.997 143.324L442.679 144.677L443.36 146.814L444.042 149.722L444.724 153.457L446.087 163.745L447.45 177.474L450.176 209.764L452.902 242.741L458.354 302.789L463.125 342.903L464.488 352.151L465.851 359.881L467.214 366.401L468.577 371.645L469.94 375.752L471.985 381.562L474.711 389.913L476.074 393.186L477.437 395.566L482.208 402.076L483.571 403.236L485.616 404.836L488.342 407.225L489.705 407.951L491.068 408.338L494.476 409.032L497.202 409.874L499.247 410.067L521.056 410.11" stroke="#EFEFEF" stroke-linecap="square"/>
</g>
<mask id="mask3_230_14718" style="mask-type:luminance" maskUnits="userSpaceOnUse" x="76" y="55" width="477" height="356">
<path d="M552.957 55.2959H76.7969V410.112H552.957V55.2959Z" fill="white"/>
</mask>
<g mask="url(#mask3_230_14718)">
<path d="M398.172 410.11L407.462 409.927L410.78 409.726L414.098 409.333L416.089 408.501L418.08 407.641L419.407 406.675L420.734 405.256L422.061 403.397L424.052 399.654L426.043 395.794L426.707 394.155L427.37 392.079L428.034 389.467L429.361 382.305L431.352 367.762L432.679 356.683L434.006 342.337L435.997 315.052L438.651 271.91L441.306 222.736L443.297 188.48L445.287 159.481L447.278 137.228L449.269 117.307L450.596 107.745L451.26 104.226L451.923 101.659L452.587 100.525L453.25 101.373L453.914 104.45L454.578 109.525L455.905 123.192L457.896 144.534L459.886 161.731L460.55 167.686L461.214 175.195L461.877 185.037L463.204 211.671L465.195 254.06L466.522 274.065L468.513 296.492L473.822 350.56L475.149 360.226L477.804 375.687L479.794 386.417L481.122 391.577L483.112 396.84L485.103 402.048L486.43 404.561L487.758 406.161L489.085 407.176L491.739 408.753L493.066 409.178L497.048 409.562L498.375 409.771L516.292 410.112L530.228 410.11" fill="#EFEFEF" fill-opacity="0.4"/>
<path d="M398.172 410.11L407.462 409.927L410.78 409.726L414.098 409.333L416.089 408.501L418.08 407.641L419.407 406.675L420.734 405.256L422.061 403.397L424.052 399.654L426.043 395.794L426.707 394.155L427.37 392.079L428.034 389.467L429.361 382.305L431.352 367.762L432.679 356.683L434.006 342.337L435.997 315.052L438.651 271.91L441.306 222.736L443.297 188.48L445.287 159.481L447.278 137.228L449.269 117.307L450.596 107.745L451.26 104.226L451.923 101.659L452.587 100.525L453.25 101.373L453.914 104.45L454.578 109.525L455.905 123.192L457.896 144.534L459.886 161.731L460.55 167.686L461.214 175.195L461.877 185.037L463.204 211.671L465.195 254.06L466.522 274.065L468.513 296.492L473.822 350.56L475.149 360.226L477.804 375.687L479.794 386.417L481.122 391.577L483.112 396.84L485.103 402.048L486.43 404.561L487.758 406.161L489.085 407.176L491.739 408.753L493.066 409.178L497.048 409.562L498.375 409.771L516.292 410.112L530.228 410.11" stroke="#EFEFEF" stroke-linecap="square"/>
</g>
<mask id="mask4_230_14718" style="mask-type:luminance" maskUnits="userSpaceOnUse" x="76" y="55" width="477" height="356">
<path d="M552.957 55.2959H76.7969V410.112H552.957V55.2959Z" fill="white"/>
</mask>
<g mask="url(#mask4_230_14718)">
<path d="M391.195 410.11L405 409.931L408.287 409.709L410.259 409.308L414.86 407.867L416.833 406.723L418.805 405.272L419.462 404.528L420.119 403.516L421.434 400.714L425.378 391.07L426.693 386.174L428.008 379.386L429.98 366.585L431.952 352.169L433.267 339.963L435.239 316.965L441.812 234.18L445.757 180.433L447.071 168.469L448.386 159.58L452.33 137.137L452.988 134.754L453.645 133.416L454.302 133.032L454.96 133.515L455.617 134.897L456.275 137.301L456.932 140.832L458.247 151.138L459.561 164.747L464.163 216.419L466.135 236.865L471.394 298.525L475.338 341.778L476.653 353.354L477.968 362.724L480.597 378.208L481.912 384.732L483.226 389.538L484.541 393.118L486.513 397.597L488.485 401.4L491.115 405.657L492.43 407.045L493.744 407.878L495.716 408.823L497.031 409.22L499.003 409.444L502.947 409.742L504.92 409.951L515.437 410.038L518.724 410.058L522.011 410.11" fill="#EFEFEF" fill-opacity="0.4"/>
<path d="M391.195 410.11L405 409.931L408.287 409.709L410.259 409.308L414.86 407.867L416.833 406.723L418.805 405.272L419.462 404.528L420.119 403.516L421.434 400.714L425.378 391.07L426.693 386.174L428.008 379.386L429.98 366.585L431.952 352.169L433.267 339.963L435.239 316.965L441.812 234.18L445.757 180.433L447.071 168.469L448.386 159.58L452.33 137.137L452.988 134.754L453.645 133.416L454.302 133.032L454.96 133.515L455.617 134.897L456.275 137.301L456.932 140.832L458.247 151.138L459.561 164.747L464.163 216.419L466.135 236.865L471.394 298.525L475.338 341.778L476.653 353.354L477.968 362.724L480.597 378.208L481.912 384.732L483.226 389.538L484.541 393.118L486.513 397.597L488.485 401.4L491.115 405.657L492.43 407.045L493.744 407.878L495.716 408.823L497.031 409.22L499.003 409.444L502.947 409.742L504.92 409.951L515.437 410.038L518.724 410.058L522.011 410.11" stroke="#EFEFEF" stroke-linecap="square"/>
</g>
<mask id="mask5_230_14718" style="mask-type:luminance" maskUnits="userSpaceOnUse" x="76" y="55" width="477" height="356">
<path d="M552.957 55.2959H76.7969V410.112H552.957V55.2959Z" fill="white"/>
</mask>
<g mask="url(#mask5_230_14718)">
<path d="M403.125 410.11L417.296 409.926L419.873 409.457L421.805 408.791L423.094 408.036L424.382 406.772L425.67 404.803L426.958 401.927L428.247 397.924L429.535 392.717L430.823 385.897L432.112 376.228L433.4 362.552L434.688 345.23L437.265 305.665L441.774 235.88L443.062 220.144L448.859 158.763L450.148 148.638L450.792 145.182L451.436 142.627L452.08 140.806L452.724 139.626L453.368 139.078L454.013 139.188L454.657 139.939L455.301 141.23L456.589 144.827L457.233 147.064L457.877 149.903L458.522 153.772L459.166 158.997L460.454 173.089L463.031 202.823L466.251 234.135L470.116 271.493L474.625 318.531L476.558 335.269L478.49 349.967L480.423 362.429L483.643 381.226L484.932 386.697L486.22 390.532L487.508 393.166L490.085 397.578L492.661 402.542L493.95 404.504L495.238 405.953L496.526 406.897L497.815 407.441L501.035 408.189L502.968 408.791L504.9 409.412L506.189 409.503L508.121 409.516L511.986 409.863L518.427 409.941L521.004 410.098L531.31 410.11" fill="#EFEFEF" fill-opacity="0.4"/>
<path d="M403.125 410.11L417.296 409.926L419.873 409.457L421.805 408.791L423.094 408.036L424.382 406.772L425.67 404.803L426.958 401.927L428.247 397.924L429.535 392.717L430.823 385.897L432.112 376.228L433.4 362.552L434.688 345.23L437.265 305.665L441.774 235.88L443.062 220.144L448.859 158.763L450.148 148.638L450.792 145.182L451.436 142.627L452.08 140.806L452.724 139.626L453.368 139.078L454.013 139.188L454.657 139.939L455.301 141.23L456.589 144.827L457.233 147.064L457.877 149.903L458.522 153.772L459.166 158.997L460.454 173.089L463.031 202.823L466.251 234.135L470.116 271.493L474.625 318.531L476.558 335.269L478.49 349.967L480.423 362.429L483.643 381.226L484.932 386.697L486.22 390.532L487.508 393.166L490.085 397.578L492.661 402.542L493.95 404.504L495.238 405.953L496.526 406.897L497.815 407.441L501.035 408.189L502.968 408.791L504.9 409.412L506.189 409.503L508.121 409.516L511.986 409.863L518.427 409.941L521.004 410.098L531.31 410.11" stroke="#EFEFEF" stroke-linecap="square"/>
</g>
<mask id="mask6_230_14718" style="mask-type:luminance" maskUnits="userSpaceOnUse" x="76" y="55" width="477" height="356">
<path d="M552.957 55.2959H76.7969V410.112H552.957V55.2959Z" fill="white"/>
</mask>
<g mask="url(#mask6_230_14718)">
<path d="M395.836 410.11L399.696 409.967L408.058 409.123L409.988 408.489L412.561 407.366L415.134 405.812L416.421 404.785L417.707 403.336L418.994 401.28L420.924 397.379L422.21 394.289L423.497 390.201L426.07 379.806L429.286 366.147L430.573 359.97L431.86 352.088L433.146 341.898L435.719 318.537L439.579 280.937L441.509 257.032L444.725 215.261L446.012 201.046L447.298 189.356L451.801 153.406L453.088 146.173L454.374 141.164L455.018 139.624L455.661 138.829L456.304 138.775L456.947 139.355L458.234 141.594L459.521 144.449L460.164 146.63L460.807 149.988L461.45 154.865L462.737 168.501L464.667 193.089L465.953 212.673L469.17 265.346L471.743 301.392L475.603 350.525L476.889 364.1L478.819 380.615L480.105 389.347L481.392 395.541L482.035 397.633L483.322 400.438L486.538 405.718L487.825 407.169L489.111 408.021L491.041 408.824L492.971 409.307L497.474 409.817L500.69 409.804L504.55 410.102L516.129 410.078L520.632 410.058L523.848 410.11" fill="#EFEFEF" fill-opacity="0.4"/>
<path d="M395.836 410.11L399.696 409.967L408.058 409.123L409.988 408.489L412.561 407.366L415.134 405.812L416.421 404.785L417.707 403.336L418.994 401.28L420.924 397.379L422.21 394.289L423.497 390.201L426.07 379.806L429.286 366.147L430.573 359.97L431.86 352.088L433.146 341.898L435.719 318.537L439.579 280.937L441.509 257.032L444.725 215.261L446.012 201.046L447.298 189.356L451.801 153.406L453.088 146.173L454.374 141.164L455.018 139.624L455.661 138.829L456.304 138.775L456.947 139.355L458.234 141.594L459.521 144.449L460.164 146.63L460.807 149.988L461.45 154.865L462.737 168.501L464.667 193.089L465.953 212.673L469.17 265.346L471.743 301.392L475.603 350.525L476.889 364.1L478.819 380.615L480.105 389.347L481.392 395.541L482.035 397.633L483.322 400.438L486.538 405.718L487.825 407.169L489.111 408.021L491.041 408.824L492.971 409.307L497.474 409.817L500.69 409.804L504.55 410.102L516.129 410.078L520.632 410.058L523.848 410.11" stroke="#EFEFEF" stroke-linecap="square"/>
</g>
<mask id="mask7_230_14718" style="mask-type:luminance" maskUnits="userSpaceOnUse" x="76" y="55" width="477" height="356">
<path d="M552.957 55.2959H76.7969V410.112H552.957V55.2959Z" fill="white"/>
</mask>
<g mask="url(#mask7_230_14718)">
<path d="M394.648 410.11L398.147 409.985L402.228 409.618L404.56 409.545L409.225 408.712L412.14 408.625L413.889 408.28L415.638 407.663L416.804 406.998L418.553 405.533L421.469 402.489L422.635 400.98L423.801 399.065L427.299 392.264L428.465 389.58L429.631 386.034L430.797 381.521L432.547 373.171L434.879 359.931L436.628 348.347L440.126 321.872L441.875 307.41L443.625 290.527L445.957 264.253L448.289 238.286L450.621 216.238L451.787 207.126L452.953 199.84L454.119 194.173L455.286 189.765L456.452 186.807L457.035 186.048L457.618 185.867L458.201 186.297L458.784 187.289L460.533 191.385L461.116 191.994L461.699 191.774L462.282 190.721L464.031 185.57L464.614 184.569L465.197 184.411L465.78 185.135L466.363 186.653L467.53 191.581L468.696 198.505L471.611 218.052L473.36 228.311L474.526 237.069L475.692 248.059L478.024 273.706L479.774 295.53L483.272 341.821L485.021 359.376L487.353 378.401L488.519 386.37L489.685 392.563L490.852 396.99L492.018 400.231L493.184 402.719L494.35 404.555L495.516 405.831L497.848 407.648L499.597 408.76L500.763 409.22L502.512 409.528L510.675 410.11" fill="#EFEFEF" fill-opacity="0.4"/>
<path d="M394.648 410.11L398.147 409.985L402.228 409.618L404.56 409.545L409.225 408.712L412.14 408.625L413.889 408.28L415.638 407.663L416.804 406.998L418.553 405.533L421.469 402.489L422.635 400.98L423.801 399.065L427.299 392.264L428.465 389.58L429.631 386.034L430.797 381.521L432.547 373.171L434.879 359.931L436.628 348.347L440.126 321.872L441.875 307.41L443.625 290.527L445.957 264.253L448.289 238.286L450.621 216.238L451.787 207.126L452.953 199.84L454.119 194.173L455.286 189.765L456.452 186.807L457.035 186.048L457.618 185.867L458.201 186.297L458.784 187.289L460.533 191.385L461.116 191.994L461.699 191.774L462.282 190.721L464.031 185.57L464.614 184.569L465.197 184.411L465.78 185.135L466.363 186.653L467.53 191.581L468.696 198.505L471.611 218.052L473.36 228.311L474.526 237.069L475.692 248.059L478.024 273.706L479.774 295.53L483.272 341.821L485.021 359.376L487.353 378.401L488.519 386.37L489.685 392.563L490.852 396.99L492.018 400.231L493.184 402.719L494.35 404.555L495.516 405.831L497.848 407.648L499.597 408.76L500.763 409.22L502.512 409.528L510.675 410.11" stroke="#EFEFEF" stroke-linecap="square"/>
</g>
<mask id="mask8_230_14718" style="mask-type:luminance" maskUnits="userSpaceOnUse" x="76" y="55" width="477" height="356">
<path d="M552.957 55.2959H76.7969V410.112H552.957V55.2959Z" fill="white"/>
</mask>
<g mask="url(#mask8_230_14718)">
<path d="M410.953 410.111L415.5 409.973L420.616 409.41L423.457 408.906L425.163 408.314L426.299 407.608L428.004 406.129L429.141 404.796L430.278 402.804L431.415 399.839L432.551 395.994L433.688 391.436L434.825 385.818L435.962 378.568L437.667 364.836L439.94 343.081L446.192 279.548L448.466 261.475L451.308 240.955L453.581 226.662L454.718 217.411L457.56 192.598L458.697 185.463L459.833 180.723L460.402 179.29L462.107 176.059L462.675 173.9L463.244 170.688L465.517 154.328L466.085 152.377L466.654 151.966L467.222 152.912L467.791 154.851L468.927 160.338L470.064 167.412L471.201 177.519L472.338 191.383L474.611 220.541L478.021 257.649L483.137 323.954L484.842 341.569L486.547 355.902L488.821 372.245L490.526 382.305L492.231 389.766L493.368 393.678L494.504 396.665L495.641 398.862L498.483 403.319L500.188 405.411L501.893 407.078L503.598 408.306L505.303 409.02L507.009 409.37L513.261 410.077L517.239 410.041L521.218 410.077L524.06 410.111" fill="#EFEFEF" fill-opacity="0.4"/>
<path d="M410.953 410.111L415.5 409.973L420.616 409.41L423.457 408.906L425.163 408.314L426.299 407.608L428.004 406.129L429.141 404.796L430.278 402.804L431.415 399.839L432.551 395.994L433.688 391.436L434.825 385.818L435.962 378.568L437.667 364.836L439.94 343.081L446.192 279.548L448.466 261.475L451.308 240.955L453.581 226.662L454.718 217.411L457.56 192.598L458.697 185.463L459.833 180.723L460.402 179.29L462.107 176.059L462.675 173.9L463.244 170.688L465.517 154.328L466.085 152.377L466.654 151.966L467.222 152.912L467.791 154.851L468.927 160.338L470.064 167.412L471.201 177.519L472.338 191.383L474.611 220.541L478.021 257.649L483.137 323.954L484.842 341.569L486.547 355.902L488.821 372.245L490.526 382.305L492.231 389.766L493.368 393.678L494.504 396.665L495.641 398.862L498.483 403.319L500.188 405.411L501.893 407.078L503.598 408.306L505.303 409.02L507.009 409.37L513.261 410.077L517.239 410.041L521.218 410.077L524.06 410.111" stroke="#EFEFEF" stroke-linecap="square"/>
</g>
<mask id="mask9_230_14718" style="mask-type:luminance" maskUnits="userSpaceOnUse" x="76" y="55" width="477" height="356">
<path d="M552.957 55.2959H76.7969V410.112H552.957V55.2959Z" fill="white"/>
</mask>
<g mask="url(#mask9_230_14718)">
<path d="M373.336 410.111L385.33 409.965L387.995 409.56L391.993 409.458L394.659 409.059L398.657 409.197L399.99 408.661L403.988 406.214L405.987 404.787L406.653 404.108L407.319 403.155L407.986 401.834L408.652 400.087L409.985 395.411L412.65 384.386L413.316 380.636L414.649 370.457L415.982 357.028L417.314 340.098L419.314 309.205L421.979 263.406L423.312 236.365L427.31 144.502L428.642 125.684L430.641 102.932L431.974 92.0274L432.64 88.6948L433.307 86.5439L433.973 85.194L434.639 84.4269L435.306 84.333L435.972 85.181L436.638 87.1157L437.305 90.0125L437.971 93.7003L438.637 98.363L439.304 104.683L439.97 113.47L441.303 138.505L443.302 177.707L446.634 235.014L449.299 282.123L451.298 312.507L452.631 329.871L453.963 344.438L455.296 356.452L456.629 365.774L459.294 381.283L460.627 388.286L461.959 393.536L463.292 396.821L464.625 399.055L467.956 403.847L469.289 405.217L470.622 406.045L474.62 407.271L476.619 407.841L478.618 408.712L479.951 409.027L481.283 409.101L483.282 409.032L485.281 409.395L487.28 409.774L489.279 409.803L492.611 409.836L495.943 409.971L499.275 409.91L505.938 410.111" fill="#EFEFEF" fill-opacity="0.4"/>
<path d="M373.336 410.111L385.33 409.965L387.995 409.56L391.993 409.458L394.659 409.059L398.657 409.197L399.99 408.661L403.988 406.214L405.987 404.787L406.653 404.108L407.319 403.155L407.986 401.834L408.652 400.087L409.985 395.411L412.65 384.386L413.316 380.636L414.649 370.457L415.982 357.028L417.314 340.098L419.314 309.205L421.979 263.406L423.312 236.365L427.31 144.502L428.642 125.684L430.641 102.932L431.974 92.0274L432.64 88.6948L433.307 86.5439L433.973 85.194L434.639 84.4269L435.306 84.333L435.972 85.181L436.638 87.1157L437.305 90.0125L437.971 93.7003L438.637 98.363L439.304 104.683L439.97 113.47L441.303 138.505L443.302 177.707L446.634 235.014L449.299 282.123L451.298 312.507L452.631 329.871L453.963 344.438L455.296 356.452L456.629 365.774L459.294 381.283L460.627 388.286L461.959 393.536L463.292 396.821L464.625 399.055L467.956 403.847L469.289 405.217L470.622 406.045L474.62 407.271L476.619 407.841L478.618 408.712L479.951 409.027L481.283 409.101L483.282 409.032L485.281 409.395L487.28 409.774L489.279 409.803L492.611 409.836L495.943 409.971L499.275 409.91L505.938 410.111" stroke="#EFEFEF" stroke-linecap="square"/>
</g>
<mask id="mask10_230_14718" style="mask-type:luminance" maskUnits="userSpaceOnUse" x="76" y="55" width="477" height="356">
<path d="M552.957 55.2959H76.7969V410.112H552.957V55.2959Z" fill="white"/>
</mask>
<g mask="url(#mask10_230_14718)">
<path d="M406.367 410.11L411.069 409.959L414.595 409.952L416.945 409.789L418.708 409.405L420.471 408.745L421.647 408.064L422.822 407.129L423.997 405.89L425.173 404.197L426.348 401.798L427.523 398.451L428.699 393.947L429.874 388.064L431.049 380.728L433.4 363.222L435.751 345.914L439.865 318.223L443.978 282.049L447.504 257.537L449.855 237.32L454.556 193.986L456.907 171.302L458.082 162.42L459.258 156.409L459.846 154.546L460.433 153.352L461.021 152.692L461.609 152.426L462.196 152.457L462.784 152.766L463.372 153.405L463.959 154.48L464.547 156.11L465.135 158.408L465.722 161.474L466.898 170.201L468.073 182.406L480.414 330.51L482.177 345.428L483.94 357.172L485.703 366.505L487.466 373.876L489.229 379.903L490.992 385.104L493.343 390.992L495.694 396.345L496.869 398.455L499.22 401.868L500.983 404.111L502.158 405.104L508.622 408.754L511.561 409.351L514.499 409.818L517.438 409.911L523.314 410.11" fill="#EFEFEF" fill-opacity="0.4"/>
<path d="M406.367 410.11L411.069 409.959L414.595 409.952L416.945 409.789L418.708 409.405L420.471 408.745L421.647 408.064L422.822 407.129L423.997 405.89L425.173 404.197L426.348 401.798L427.523 398.451L428.699 393.947L429.874 388.064L431.049 380.728L433.4 363.222L435.751 345.914L439.865 318.223L443.978 282.049L447.504 257.537L449.855 237.32L454.556 193.986L456.907 171.302L458.082 162.42L459.258 156.409L459.846 154.546L460.433 153.352L461.021 152.692L461.609 152.426L462.196 152.457L462.784 152.766L463.372 153.405L463.959 154.48L464.547 156.11L465.135 158.408L465.722 161.474L466.898 170.201L468.073 182.406L480.414 330.51L482.177 345.428L483.94 357.172L485.703 366.505L487.466 373.876L489.229 379.903L490.992 385.104L493.343 390.992L495.694 396.345L496.869 398.455L499.22 401.868L500.983 404.111L502.158 405.104L508.622 408.754L511.561 409.351L514.499 409.818L517.438 409.911L523.314 410.11" stroke="#EFEFEF" stroke-linecap="square"/>
</g>
<mask id="mask11_230_14718" style="mask-type:luminance" maskUnits="userSpaceOnUse" x="76" y="55" width="477" height="356">
<path d="M552.957 55.2959H76.7969V410.112H552.957V55.2959Z" fill="white"/>
</mask>
<g mask="url(#mask11_230_14718)">
<path d="M394.602 410.111L399.812 409.955L403.069 410.016L405.674 409.993L410.234 409.561L411.536 409.007L412.839 408.02L414.793 405.98L416.747 403.606L418.05 401.563L419.353 399.093L420.655 395.808L421.958 390.756L423.261 383.794L424.563 375.278L425.866 364.359L427.169 350.05L428.471 332.14L430.425 299.734L434.334 229.998L436.939 176.575L438.242 155.046L440.847 118.952L441.498 111.536L442.15 106.159L442.801 103.49L443.452 103.656L444.104 106.206L445.406 115.375L447.36 132.595L453.222 191.655L456.479 230.457L464.295 308.864L469.506 350.528L472.111 367.51L473.414 374.353L474.717 379.441L476.019 383.043L477.973 387.107L480.579 392.049L483.184 396.36L486.441 400.865L489.046 405.347L490.349 406.715L491.652 407.441L494.908 408.494L496.862 408.789L499.468 409.05L505.981 409.916L512.495 410.093L517.705 410.037L520.962 410.059L524.219 410.111" fill="#EFEFEF" fill-opacity="0.4"/>
<path d="M394.602 410.111L399.812 409.955L403.069 410.016L405.674 409.993L410.234 409.561L411.536 409.007L412.839 408.02L414.793 405.98L416.747 403.606L418.05 401.563L419.353 399.093L420.655 395.808L421.958 390.756L423.261 383.794L424.563 375.278L425.866 364.359L427.169 350.05L428.471 332.14L430.425 299.734L434.334 229.998L436.939 176.575L438.242 155.046L440.847 118.952L441.498 111.536L442.15 106.159L442.801 103.49L443.452 103.656L444.104 106.206L445.406 115.375L447.36 132.595L453.222 191.655L456.479 230.457L464.295 308.864L469.506 350.528L472.111 367.51L473.414 374.353L474.717 379.441L476.019 383.043L477.973 387.107L480.579 392.049L483.184 396.36L486.441 400.865L489.046 405.347L490.349 406.715L491.652 407.441L494.908 408.494L496.862 408.789L499.468 409.05L505.981 409.916L512.495 410.093L517.705 410.037L520.962 410.059L524.219 410.111" stroke="#EFEFEF" stroke-linecap="square"/>
</g>
<mask id="mask12_230_14718" style="mask-type:luminance" maskUnits="userSpaceOnUse" x="76" y="55" width="477" height="356">
<path d="M552.957 55.2959H76.7969V410.112H552.957V55.2959Z" fill="white"/>
</mask>
<g mask="url(#mask12_230_14718)">
<path d="M405.609 410.111L409.064 410L412.519 409.495L417.701 408.6L418.852 407.943L420.004 406.9L421.155 405.43L422.307 403.387L423.459 400.517L424.61 396.756L426.337 390.031L428.065 382.145L429.792 372.471L431.519 361.397L432.671 352.353L433.823 340.738L435.55 318.418L440.732 245.659L444.187 202.831L446.49 175.131L447.641 164.962L448.793 157.299L449.944 151.476L450.52 149.304L451.096 147.755L451.672 146.933L452.247 146.909L452.823 147.7L453.399 149.247L454.551 154.026L456.278 162.975L457.429 170.07L458.581 179.275L460.308 196.913L463.187 227.336L466.066 253.142L475.854 333.358L478.158 348.724L480.461 362.374L482.188 371.208L486.218 389.056L487.37 392.874L488.522 395.39L490.249 397.975L493.704 402.594L499.461 408.268L500.613 408.993L501.764 409.366L503.492 409.546L508.098 409.748L510.977 409.997L520.189 410.111" fill="#EFEFEF" fill-opacity="0.4"/>
<path d="M405.609 410.111L409.064 410L412.519 409.495L417.701 408.6L418.852 407.943L420.004 406.9L421.155 405.43L422.307 403.387L423.459 400.517L424.61 396.756L426.337 390.031L428.065 382.145L429.792 372.471L431.519 361.397L432.671 352.353L433.823 340.738L435.55 318.418L440.732 245.659L444.187 202.831L446.49 175.131L447.641 164.962L448.793 157.299L449.944 151.476L450.52 149.304L451.096 147.755L451.672 146.933L452.247 146.909L452.823 147.7L453.399 149.247L454.551 154.026L456.278 162.975L457.429 170.07L458.581 179.275L460.308 196.913L463.187 227.336L466.066 253.142L475.854 333.358L478.158 348.724L480.461 362.374L482.188 371.208L486.218 389.056L487.37 392.874L488.522 395.39L490.249 397.975L493.704 402.594L499.461 408.268L500.613 408.993L501.764 409.366L503.492 409.546L508.098 409.748L510.977 409.997L520.189 410.111" stroke="#EFEFEF" stroke-linecap="square"/>
</g>
<mask id="mask13_230_14718" style="mask-type:luminance" maskUnits="userSpaceOnUse" x="76" y="55" width="477" height="356">
<path d="M552.957 55.2959H76.7969V410.112H552.957V55.2959Z" fill="white"/>
</mask>
<g mask="url(#mask13_230_14718)">
<path d="M360.602 410.111L373.042 409.947L387.97 409.394L390.458 408.715L397.093 406.712L399.581 405.488L402.899 403.313L404.557 401.838L406.216 399.68L407.875 397.059L409.534 393.822L411.192 389.485L412.851 384.255L416.168 372.297L416.998 368.776L417.827 364.575L419.486 353.487L423.633 319.125L425.291 304.933L426.95 287.918L434.414 202.736L436.902 180.248L438.561 166.489L439.39 160.588L440.22 156.035L441.049 153.148L441.878 151.813L442.708 151.611L443.537 152.162L444.366 153.372L445.196 155.41L446.025 158.508L446.854 162.826L447.684 168.418L449.343 182.852L452.66 216.415L454.319 235.769L456.807 266.281L459.295 291.76L461.783 317.361L463.442 335.061L465.1 349.353L466.759 359.558L469.247 372.392L470.906 379.928L472.564 386.467L474.223 392.037L475.882 396.566L478.37 402.373L480.029 405.363L480.858 406.359L482.517 407.559L485.005 408.68L486.664 409.153L489.981 409.529L493.298 409.743L517.35 410.074L522.326 410.071L525.643 410.111" fill="#EFEFEF" fill-opacity="0.4"/>
<path d="M360.602 410.111L373.042 409.947L387.97 409.394L390.458 408.715L397.093 406.712L399.581 405.488L402.899 403.313L404.557 401.838L406.216 399.68L407.875 397.059L409.534 393.822L411.192 389.485L412.851 384.255L416.168 372.297L416.998 368.776L417.827 364.575L419.486 353.487L423.633 319.125L425.291 304.933L426.95 287.918L434.414 202.736L436.902 180.248L438.561 166.489L439.39 160.588L440.22 156.035L441.049 153.148L441.878 151.813L442.708 151.611L443.537 152.162L444.366 153.372L445.196 155.41L446.025 158.508L446.854 162.826L447.684 168.418L449.343 182.852L452.66 216.415L454.319 235.769L456.807 266.281L459.295 291.76L461.783 317.361L463.442 335.061L465.1 349.353L466.759 359.558L469.247 372.392L470.906 379.928L472.564 386.467L474.223 392.037L475.882 396.566L478.37 402.373L480.029 405.363L480.858 406.359L482.517 407.559L485.005 408.68L486.664 409.153L489.981 409.529L493.298 409.743L517.35 410.074L522.326 410.071L525.643 410.111" stroke="#EFEFEF" stroke-linecap="square"/>
</g>
<mask id="mask14_230_14718" style="mask-type:luminance" maskUnits="userSpaceOnUse" x="76" y="55" width="477" height="356">
<path d="M552.957 55.2959H76.7969V410.112H552.957V55.2959Z" fill="white"/>
</mask>
<g mask="url(#mask14_230_14718)">
<path d="M98.4375 410.111L124.183 410.112L381.643 410.045L385.934 409.932L390.225 409.877L396.661 409.584L400.952 409.806L403.098 409.596L409.534 408.245L413.825 406.947L415.971 406.072L418.116 404.393L422.407 399.432L424.552 395.373L428.844 383.255L430.989 376.353L433.134 367.129L435.28 354.832L437.425 341.016L439.571 324.264L441.716 303.069L446.007 258.039L450.298 217.118L452.444 199.454L454.589 187.626L456.735 180.798L458.88 176.669L461.026 176.292L463.171 180.658L465.317 191.622L471.753 238.734L473.899 259.218L478.19 303.763L480.335 321.361L484.626 353.007L486.772 367.51L488.917 379.747L491.063 388.65L493.208 395.131L495.354 399.981L497.499 403.073L499.645 405.448L501.79 407.593L503.936 408.912L506.081 409.514L508.227 409.798L516.809 410.067L521.1 410.056L525.391 410.111" fill="#7EB0D5" fill-opacity="0.4"/>
<path d="M98.4375 410.111L124.183 410.112L381.643 410.045L385.934 409.932L390.225 409.877L396.661 409.584L400.952 409.806L403.098 409.596L409.534 408.245L413.825 406.947L415.971 406.072L418.116 404.393L422.407 399.432L424.552 395.373L428.844 383.255L430.989 376.353L433.134 367.129L435.28 354.832L437.425 341.016L439.571 324.264L441.716 303.069L446.007 258.039L450.298 217.118L452.444 199.454L454.589 187.626L456.735 180.798L458.88 176.669L461.026 176.292L463.171 180.658L465.317 191.622L471.753 238.734L473.899 259.218L478.19 303.763L480.335 321.361L484.626 353.007L486.772 367.51L488.917 379.747L491.063 388.65L493.208 395.131L495.354 399.981L497.499 403.073L499.645 405.448L501.79 407.593L503.936 408.912L506.081 409.514L508.227 409.798L516.809 410.067L521.1 410.056L525.391 410.111" stroke="#7EB0D5" stroke-linecap="square"/>
</g>
<path d="M535.061 411.061C535.646 410.475 535.646 409.525 535.061 408.939L525.515 399.393C524.929 398.808 523.979 398.808 523.393 399.393C522.808 399.979 522.808 400.929 523.393 401.515L531.879 410L523.393 418.485C522.808 419.071 522.808 420.021 523.393 420.607C523.979 421.192 524.929 421.192 525.515 420.607L535.061 411.061ZM79 411.5H534V408.5H79V411.5Z" fill="black"/>
</g>
<defs>
<clipPath id="clip0_230_14718">
<rect width="614.4" height="460.8" fill="white"/>
</clipPath>
</defs>
</svg>
