<svg width="615" height="461" viewBox="0 0 615 461" fill="none" xmlns="http://www.w3.org/2000/svg">
<g clip-path="url(#clip0_230_15518)">
<mask id="mask0_230_15518" style="mask-type:luminance" maskUnits="userSpaceOnUse" x="76" y="55" width="477" height="356">
<path d="M552.957 55.2959H76.7969V410.112H552.957V55.2959Z" fill="white"/>
</mask>
<g mask="url(#mask0_230_15518)">
<path d="M264.445 410.111L320.593 409.929L328.25 409.339L334.63 409.323L337.182 409.008L339.735 408.448L342.287 407.547L347.391 405.075L349.943 403.699L352.496 401.867L355.048 399.568L357.6 396.874L358.876 395.187L360.152 393.095L361.428 390.499L362.704 387.372L365.256 379.722L367.809 370.497L370.361 359.493L372.913 346.707L378.017 320.385L384.398 288.666L390.778 254.645L394.607 233.728L395.883 227.513L397.159 222.243L398.435 218.137L399.711 215.185L400.987 213.155L402.263 211.698L403.539 210.529L404.815 209.593L406.091 209.084L407.367 209.306L408.644 210.463L409.92 212.521L412.472 218.201L416.3 227.428L417.576 230.905L418.852 234.885L420.128 239.513L421.404 244.868L423.957 257.635L429.061 285.108L431.613 296.178L435.441 311.722L439.27 329.397L441.822 341.023L444.374 351.467L445.65 356.037L446.926 360.033L448.202 363.414L450.755 368.769L454.583 376.223L460.963 390.298L462.239 392.575L463.515 394.547L464.792 396.243L466.068 397.682L468.62 399.891L476.276 405.028L478.829 406.445L481.381 407.344L491.589 409.64L495.418 409.837L518.387 410.111" fill="#EFEFEF" fill-opacity="0.4"/>
<path d="M264.445 410.111L320.593 409.929L328.25 409.339L334.63 409.323L337.182 409.008L339.735 408.448L342.287 407.547L347.391 405.075L349.943 403.699L352.496 401.867L355.048 399.568L357.6 396.874L358.876 395.187L360.152 393.095L361.428 390.499L362.704 387.372L365.256 379.722L367.809 370.497L370.361 359.493L372.913 346.707L378.017 320.385L384.398 288.666L390.778 254.645L394.607 233.728L395.883 227.513L397.159 222.243L398.435 218.137L399.711 215.185L400.987 213.155L402.263 211.698L403.539 210.529L404.815 209.593L406.091 209.084L407.367 209.306L408.644 210.463L409.92 212.521L412.472 218.201L416.3 227.428L417.576 230.905L418.852 234.885L420.128 239.513L421.404 244.868L423.957 257.635L429.061 285.108L431.613 296.178L435.441 311.722L439.27 329.397L441.822 341.023L444.374 351.467L445.65 356.037L446.926 360.033L448.202 363.414L450.755 368.769L454.583 376.223L460.963 390.298L462.239 392.575L463.515 394.547L464.792 396.243L466.068 397.682L468.62 399.891L476.276 405.028L478.829 406.445L481.381 407.344L491.589 409.64L495.418 409.837L518.387 410.111" stroke="#EFEFEF" stroke-linecap="square"/>
</g>
<mask id="mask1_230_15518" style="mask-type:luminance" maskUnits="userSpaceOnUse" x="76" y="55" width="477" height="356">
<path d="M552.957 55.2959H76.7969V410.112H552.957V55.2959Z" fill="white"/>
</mask>
<g mask="url(#mask1_230_15518)">
<path d="M306.055 410.111L311.264 409.98L318.706 409.518L320.939 409.236L325.404 408.943L327.636 408.529L329.125 408.564L331.357 408.753L333.59 408.546L335.822 408.392L338.799 408.31L340.288 407.849L341.776 406.863L343.264 405.412L345.497 403.124L347.729 401.452L349.218 400.284L350.706 398.666L352.195 396.48L355.171 391.638L358.148 387.572L358.892 386.247L359.637 384.553L360.381 382.392L361.869 376.796L364.102 367.814L366.334 359.441L367.823 352.667L369.311 344.397L370.799 334.396L372.288 322.419L373.776 308.018L379.73 244.518L381.962 219.846L391.637 108.697L393.125 95.2737L393.869 90.8782L394.614 88.1085L395.358 86.7893L396.102 86.6582L396.846 87.5107L397.59 89.2925L398.335 92.0435L399.823 100.083L403.544 123.323L405.032 136.52L406.521 154.072L408.009 176.008L410.986 228.727L413.218 265.649L415.451 298.096L417.684 325.978L419.172 341.504L420.66 354.323L422.149 365.003L423.637 374.098L425.87 385.62L427.358 392.353L428.846 397.728L430.335 401.546L431.823 404.283L433.312 406.193L434.8 407.372L436.288 408.097L439.265 409.121L441.498 409.542L445.219 409.889L454.149 410.111" fill="#EFEFEF" fill-opacity="0.4"/>
<path d="M306.055 410.111L311.264 409.98L318.706 409.518L320.939 409.236L325.404 408.943L327.636 408.529L329.125 408.564L331.357 408.753L333.59 408.546L335.822 408.392L338.799 408.31L340.288 407.849L341.776 406.863L343.264 405.412L345.497 403.124L347.729 401.452L349.218 400.284L350.706 398.666L352.195 396.48L355.171 391.638L358.148 387.572L358.892 386.247L359.637 384.553L360.381 382.392L361.869 376.796L364.102 367.814L366.334 359.441L367.823 352.667L369.311 344.397L370.799 334.396L372.288 322.419L373.776 308.018L379.73 244.518L381.962 219.846L391.637 108.697L393.125 95.2737L393.869 90.8782L394.614 88.1085L395.358 86.7893L396.102 86.6582L396.846 87.5107L397.59 89.2925L398.335 92.0435L399.823 100.083L403.544 123.323L405.032 136.52L406.521 154.072L408.009 176.008L410.986 228.727L413.218 265.649L415.451 298.096L417.684 325.978L419.172 341.504L420.66 354.323L422.149 365.003L423.637 374.098L425.87 385.62L427.358 392.353L428.846 397.728L430.335 401.546L431.823 404.283L433.312 406.193L434.8 407.372L436.288 408.097L439.265 409.121L441.498 409.542L445.219 409.889L454.149 410.111" stroke="#EFEFEF" stroke-linecap="square"/>
</g>
<mask id="mask2_230_15518" style="mask-type:luminance" maskUnits="userSpaceOnUse" x="76" y="55" width="477" height="356">
<path d="M552.957 55.2959H76.7969V410.112H552.957V55.2959Z" fill="white"/>
</mask>
<g mask="url(#mask2_230_15518)">
<path d="M245.336 410.111L254.416 409.959L260.469 409.863L264.505 409.796L270.558 409.622L273.585 409.117L275.603 409.161L279.639 409.489L282.665 409.356L285.692 408.955L291.745 407.747L295.781 406.927L298.808 406.478L299.817 406.108L301.834 404.951L303.852 403.783L307.888 402.152L309.906 400.467L311.923 398.75L314.95 396.833L315.959 395.56L316.968 393.7L321.004 384.638L323.021 380.82L324.03 378.211L325.039 374.655L326.048 370.073L328.066 358.795L331.093 341.832L333.11 329.978L335.128 315.276L338.155 289.6L340.173 271.023L344.208 229.644L347.235 197.265L350.262 165.352L352.28 147.776L353.288 140.554L354.297 134.659L355.306 130.154L356.315 126.907L357.324 124.624L358.333 122.964L359.342 121.74L360.351 121.088L361.36 121.417L362.369 123.155L363.377 126.531L364.386 131.584L365.395 138.298L366.404 146.607L368.422 166.826L372.458 211.749L376.493 261.152L378.511 285.063L380.529 305.811L383.555 333.287L385.573 349.823L387.591 363.687L389.609 374.794L390.618 379.369L391.627 383.247L392.636 386.406L393.644 388.927L397.68 397.12L399.698 400.847L401.716 403.53L403.733 405.422L405.751 406.65L412.814 409.384L414.831 409.549L419.876 409.523L432.992 410.108L446.107 410.111" fill="#EFEFEF" fill-opacity="0.4"/>
<path d="M245.336 410.111L254.416 409.959L260.469 409.863L264.505 409.796L270.558 409.622L273.585 409.117L275.603 409.161L279.639 409.489L282.665 409.356L285.692 408.955L291.745 407.747L295.781 406.927L298.808 406.478L299.817 406.108L301.834 404.951L303.852 403.783L307.888 402.152L309.906 400.467L311.923 398.75L314.95 396.833L315.959 395.56L316.968 393.7L321.004 384.638L323.021 380.82L324.03 378.211L325.039 374.655L326.048 370.073L328.066 358.795L331.093 341.832L333.11 329.978L335.128 315.276L338.155 289.6L340.173 271.023L344.208 229.644L347.235 197.265L350.262 165.352L352.28 147.776L353.288 140.554L354.297 134.659L355.306 130.154L356.315 126.907L357.324 124.624L358.333 122.964L359.342 121.74L360.351 121.088L361.36 121.417L362.369 123.155L363.377 126.531L364.386 131.584L365.395 138.298L366.404 146.607L368.422 166.826L372.458 211.749L376.493 261.152L378.511 285.063L380.529 305.811L383.555 333.287L385.573 349.823L387.591 363.687L389.609 374.794L390.618 379.369L391.627 383.247L392.636 386.406L393.644 388.927L397.68 397.12L399.698 400.847L401.716 403.53L403.733 405.422L405.751 406.65L412.814 409.384L414.831 409.549L419.876 409.523L432.992 410.108L446.107 410.111" stroke="#EFEFEF" stroke-linecap="square"/>
</g>
<mask id="mask3_230_15518" style="mask-type:luminance" maskUnits="userSpaceOnUse" x="76" y="55" width="477" height="356">
<path d="M552.957 55.2959H76.7969V410.112H552.957V55.2959Z" fill="white"/>
</mask>
<g mask="url(#mask3_230_15518)">
<path d="M260.484 410.111L311.725 409.869L315.142 409.549L321.974 409.412L326.528 408.42L331.083 407.958L333.361 407.229L335.638 406.035L337.915 404.512L339.054 403.531L341.331 401L344.747 396.695L345.886 395.033L347.025 392.95L348.164 390.326L350.441 383.868L352.718 376.531L354.996 367.522L357.273 356.008L359.55 341.333L362.967 315.256L365.244 295.992L368.66 264.629L374.353 210.645L376.631 191.695L377.769 183.685L378.908 177.467L380.047 173.218L381.186 170.389L384.602 163.748L385.74 162.291L386.879 161.74L388.018 162.119L389.156 163.489L390.295 166.097L391.434 170.126L398.266 201.787L399.405 209.597L401.682 229.761L403.959 249.48L406.237 265.521L413.069 310.626L417.624 336.041L419.901 347.095L422.178 356.452L426.733 373.201L429.011 380.561L432.427 390.086L434.704 396.001L435.843 398.443L436.981 400.36L438.12 401.786L439.259 402.858L441.536 404.464L443.814 405.526L448.368 406.939L454.062 409.309L456.339 409.606L481.39 410.047L487.084 410.111" fill="#EFEFEF" fill-opacity="0.4"/>
<path d="M260.484 410.111L311.725 409.869L315.142 409.549L321.974 409.412L326.528 408.42L331.083 407.958L333.361 407.229L335.638 406.035L337.915 404.512L339.054 403.531L341.331 401L344.747 396.695L345.886 395.033L347.025 392.95L348.164 390.326L350.441 383.868L352.718 376.531L354.996 367.522L357.273 356.008L359.55 341.333L362.967 315.256L365.244 295.992L368.66 264.629L374.353 210.645L376.631 191.695L377.769 183.685L378.908 177.467L380.047 173.218L381.186 170.389L384.602 163.748L385.74 162.291L386.879 161.74L388.018 162.119L389.156 163.489L390.295 166.097L391.434 170.126L398.266 201.787L399.405 209.597L401.682 229.761L403.959 249.48L406.237 265.521L413.069 310.626L417.624 336.041L419.901 347.095L422.178 356.452L426.733 373.201L429.011 380.561L432.427 390.086L434.704 396.001L435.843 398.443L436.981 400.36L438.12 401.786L439.259 402.858L441.536 404.464L443.814 405.526L448.368 406.939L454.062 409.309L456.339 409.606L481.39 410.047L487.084 410.111" stroke="#EFEFEF" stroke-linecap="square"/>
</g>
<mask id="mask4_230_15518" style="mask-type:luminance" maskUnits="userSpaceOnUse" x="76" y="55" width="477" height="356">
<path d="M552.957 55.2959H76.7969V410.112H552.957V55.2959Z" fill="white"/>
</mask>
<g mask="url(#mask4_230_15518)">
<path d="M274.812 410.111L286.357 409.94L291.604 409.494L296.852 409.69L300 409.107L304.198 408.414L307.346 408.068L309.445 407.553L314.693 406.018L316.792 405.451L318.891 404.365L324.138 400.683L325.188 399.433L326.237 397.808L335.683 380.178L336.732 377.044L337.781 372.983L338.831 368.015L340.93 356.134L344.078 335.835L346.177 320.24L351.425 277.236L353.524 257.993L356.672 225.299L360.87 180.33L362.969 161.132L367.167 127.545L368.216 120.382L369.266 115.534L370.315 113.628L371.365 114.509L372.414 117.527L373.464 122.013L374.513 127.545L376.612 140.934L379.761 164.536L381.86 182.487L383.959 203.851L387.107 241.766L390.256 278.2L392.355 298.721L394.454 315.413L397.602 336.477L400.75 355.982L402.849 366.778L404.948 375.96L407.047 383.83L409.146 390.301L411.245 395.419L412.295 397.436L413.344 399.093L415.443 401.62L417.542 403.663L419.641 405.25L421.74 406.19L425.938 407.358L429.086 408.226L432.235 409.338L433.284 409.504L435.383 409.414L437.482 409.249L439.581 409.449L442.73 409.886L446.928 410.004L483.66 410.111" fill="#EFEFEF" fill-opacity="0.4"/>
<path d="M274.812 410.111L286.357 409.94L291.604 409.494L296.852 409.69L300 409.107L304.198 408.414L307.346 408.068L309.445 407.553L314.693 406.018L316.792 405.451L318.891 404.365L324.138 400.683L325.188 399.433L326.237 397.808L335.683 380.178L336.732 377.044L337.781 372.983L338.831 368.015L340.93 356.134L344.078 335.835L346.177 320.24L351.425 277.236L353.524 257.993L356.672 225.299L360.87 180.33L362.969 161.132L367.167 127.545L368.216 120.382L369.266 115.534L370.315 113.628L371.365 114.509L372.414 117.527L373.464 122.013L374.513 127.545L376.612 140.934L379.761 164.536L381.86 182.487L383.959 203.851L387.107 241.766L390.256 278.2L392.355 298.721L394.454 315.413L397.602 336.477L400.75 355.982L402.849 366.778L404.948 375.96L407.047 383.83L409.146 390.301L411.245 395.419L412.295 397.436L413.344 399.093L415.443 401.62L417.542 403.663L419.641 405.25L421.74 406.19L425.938 407.358L429.086 408.226L432.235 409.338L433.284 409.504L435.383 409.414L437.482 409.249L439.581 409.449L442.73 409.886L446.928 410.004L483.66 410.111" stroke="#EFEFEF" stroke-linecap="square"/>
</g>
<mask id="mask5_230_15518" style="mask-type:luminance" maskUnits="userSpaceOnUse" x="76" y="55" width="477" height="356">
<path d="M552.957 55.2959H76.7969V410.112H552.957V55.2959Z" fill="white"/>
</mask>
<g mask="url(#mask5_230_15518)">
<path d="M313.242 410.111L323.755 409.968L332.357 409.575L335.225 409.241L342.871 407.813L344.782 407.271L347.649 405.894L350.517 404.303L352.428 402.732L354.34 400.712L356.251 398.43L358.163 395.773L360.074 392.519L361.986 388.307L363.897 382.905L365.809 376.276L367.72 367.96L369.632 357.746L371.543 345.486L373.455 330.78L378.233 289.463L382.056 252.645L385.879 216.524L390.658 175.344L391.614 168.35L392.57 162.78L393.525 158.836L394.481 156.33L395.437 154.811L397.348 152.883L399.26 151.176L400.216 150.895L401.171 151.617L402.127 153.7L403.083 157.157L404.994 166.724L407.862 183.196L409.773 195.647L411.685 209.656L419.331 270.731L424.11 311.079L426.021 323.01L430.8 347.345L433.667 361.637L435.579 369.924L437.49 376.79L439.402 382.232L441.313 386.587L443.225 390.179L445.136 393.09L449.915 399.271L451.826 401.373L452.782 402.134L454.694 403.141L457.561 404.513L461.384 406.605L463.295 407.262L466.163 407.776L470.941 408.551L474.765 409.464L476.676 409.603L480.499 409.736L484.322 409.987L495.791 410.021L503.437 410.111" fill="#EFEFEF" fill-opacity="0.4"/>
<path d="M313.242 410.111L323.755 409.968L332.357 409.575L335.225 409.241L342.871 407.813L344.782 407.271L347.649 405.894L350.517 404.303L352.428 402.732L354.34 400.712L356.251 398.43L358.163 395.773L360.074 392.519L361.986 388.307L363.897 382.905L365.809 376.276L367.72 367.96L369.632 357.746L371.543 345.486L373.455 330.78L378.233 289.463L382.056 252.645L385.879 216.524L390.658 175.344L391.614 168.35L392.57 162.78L393.525 158.836L394.481 156.33L395.437 154.811L397.348 152.883L399.26 151.176L400.216 150.895L401.171 151.617L402.127 153.7L403.083 157.157L404.994 166.724L407.862 183.196L409.773 195.647L411.685 209.656L419.331 270.731L424.11 311.079L426.021 323.01L430.8 347.345L433.667 361.637L435.579 369.924L437.49 376.79L439.402 382.232L441.313 386.587L443.225 390.179L445.136 393.09L449.915 399.271L451.826 401.373L452.782 402.134L454.694 403.141L457.561 404.513L461.384 406.605L463.295 407.262L466.163 407.776L470.941 408.551L474.765 409.464L476.676 409.603L480.499 409.736L484.322 409.987L495.791 410.021L503.437 410.111" stroke="#EFEFEF" stroke-linecap="square"/>
</g>
<mask id="mask6_230_15518" style="mask-type:luminance" maskUnits="userSpaceOnUse" x="76" y="55" width="477" height="356">
<path d="M552.957 55.2959H76.7969V410.112H552.957V55.2959Z" fill="white"/>
</mask>
<g mask="url(#mask6_230_15518)">
<path d="M271.227 410.111L326.866 409.858L332.43 409.834L335.768 409.686L341.332 408.985L343.558 408.204L345.784 407.216L346.896 406.912L349.122 406.798L350.235 406.771L351.348 406.587L352.46 406.184L354.686 404.849L358.024 402.456L360.25 400.464L362.475 397.833L364.701 394.711L366.927 390.81L368.039 388.377L370.265 382.492L372.491 375.685L379.167 353.863L380.28 349.438L381.393 343.831L382.506 336.933L384.731 320.596L392.521 260.689L395.859 230.808L398.085 214.907L402.536 187.696L404.761 170.513L406.987 153.785L408.1 147.797L409.213 143.94L410.325 142.031L411.438 141.824L412.551 143.203L413.664 146.072L414.777 150.184L418.115 165.528L419.228 170.887L420.341 177.06L421.453 184.729L422.566 194.07L424.792 215.916L428.13 251.367L431.468 287.222L433.694 308.132L435.92 326.135L438.145 342.385L440.371 356.291L442.596 367.1L444.822 375.852L449.273 391.872L450.386 395.309L451.499 398.17L452.612 400.396L453.724 402.049L454.837 403.263L457.063 404.945L459.288 406.219L461.514 407.131L465.965 408.612L468.191 409.401L470.416 409.819L473.755 409.916L492.672 410.111" fill="#EFEFEF" fill-opacity="0.4"/>
<path d="M271.227 410.111L326.866 409.858L332.43 409.834L335.768 409.686L341.332 408.985L343.558 408.204L345.784 407.216L346.896 406.912L349.122 406.798L350.235 406.771L351.348 406.587L352.46 406.184L354.686 404.849L358.024 402.456L360.25 400.464L362.475 397.833L364.701 394.711L366.927 390.81L368.039 388.377L370.265 382.492L372.491 375.685L379.167 353.863L380.28 349.438L381.393 343.831L382.506 336.933L384.731 320.596L392.521 260.689L395.859 230.808L398.085 214.907L402.536 187.696L404.761 170.513L406.987 153.785L408.1 147.797L409.213 143.94L410.325 142.031L411.438 141.824L412.551 143.203L413.664 146.072L414.777 150.184L418.115 165.528L419.228 170.887L420.341 177.06L421.453 184.729L422.566 194.07L424.792 215.916L428.13 251.367L431.468 287.222L433.694 308.132L435.92 326.135L438.145 342.385L440.371 356.291L442.596 367.1L444.822 375.852L449.273 391.872L450.386 395.309L451.499 398.17L452.612 400.396L453.724 402.049L454.837 403.263L457.063 404.945L459.288 406.219L461.514 407.131L465.965 408.612L468.191 409.401L470.416 409.819L473.755 409.916L492.672 410.111" stroke="#EFEFEF" stroke-linecap="square"/>
</g>
<mask id="mask7_230_15518" style="mask-type:luminance" maskUnits="userSpaceOnUse" x="76" y="55" width="477" height="356">
<path d="M552.957 55.2959H76.7969V410.112H552.957V55.2959Z" fill="white"/>
</mask>
<g mask="url(#mask7_230_15518)">
<path d="M309.602 410.111L323.493 409.955L330.973 409.743L334.179 409.615L338.454 409.148L342.728 408.46L347.002 408.105L349.139 407.41L353.414 405.552L355.551 404.177L357.688 402.224L361.962 397.727L364.1 394.601L367.305 388.776L369.443 384.563L371.58 379.284L374.786 369.551L377.991 359.378L380.129 350.97L382.266 340.217L384.403 327.471L386.54 313.329L388.677 297.072L390.814 278.282L394.02 246.312L398.295 201.775L400.432 182.965L401.5 175.165L402.569 168.638L403.638 163.441L404.706 159.545L405.775 156.825L406.843 155.071L407.912 153.993L408.98 153.312L410.049 152.901L411.118 152.93L412.186 153.874L413.255 156.34L414.323 160.755L415.392 167.1L417.529 183.283L431.421 292.157L435.695 321.172L437.832 334.478L439.97 346.063L442.107 355.565L444.244 363.375L448.518 377.594L450.656 383.122L452.793 387.37L455.998 392.892L458.136 395.705L460.273 397.725L468.822 404.399L470.959 405.721L473.096 406.576L476.302 407.323L481.645 408.164L493.399 409.709L496.605 409.947L503.016 409.925L522.251 410.111" fill="#EFEFEF" fill-opacity="0.4"/>
<path d="M309.602 410.111L323.493 409.955L330.973 409.743L334.179 409.615L338.454 409.148L342.728 408.46L347.002 408.105L349.139 407.41L353.414 405.552L355.551 404.177L357.688 402.224L361.962 397.727L364.1 394.601L367.305 388.776L369.443 384.563L371.58 379.284L374.786 369.551L377.991 359.378L380.129 350.97L382.266 340.217L384.403 327.471L386.54 313.329L388.677 297.072L390.814 278.282L394.02 246.312L398.295 201.775L400.432 182.965L401.5 175.165L402.569 168.638L403.638 163.441L404.706 159.545L405.775 156.825L406.843 155.071L407.912 153.993L408.98 153.312L410.049 152.901L411.118 152.93L412.186 153.874L413.255 156.34L414.323 160.755L415.392 167.1L417.529 183.283L431.421 292.157L435.695 321.172L437.832 334.478L439.97 346.063L442.107 355.565L444.244 363.375L448.518 377.594L450.656 383.122L452.793 387.37L455.998 392.892L458.136 395.705L460.273 397.725L468.822 404.399L470.959 405.721L473.096 406.576L476.302 407.323L481.645 408.164L493.399 409.709L496.605 409.947L503.016 409.925L522.251 410.111" stroke="#EFEFEF" stroke-linecap="square"/>
</g>
<mask id="mask8_230_15518" style="mask-type:luminance" maskUnits="userSpaceOnUse" x="76" y="55" width="477" height="356">
<path d="M552.957 55.2959H76.7969V410.112H552.957V55.2959Z" fill="white"/>
</mask>
<g mask="url(#mask8_230_15518)">
<path d="M295.242 410.111L318.223 409.93L325.883 409.613L331.355 408.854L334.638 408.149L343.393 405.429L346.676 403.523L351.053 400.79L353.242 398.964L355.43 396.744L357.619 394.222L358.713 392.751L359.808 391.017L360.902 388.936L363.09 383.694L365.279 377.459L367.468 370.336L369.656 361.68L371.845 351.315L374.034 339.479L377.317 319.848L379.505 304.396L382.788 276.7L386.071 249.753L389.354 223.353L394.826 176.579L395.92 170.529L397.015 166.49L398.109 164.192L399.203 163.313L400.298 163.557L401.392 164.563L404.675 168.821L405.769 170.806L406.864 173.729L407.958 177.892L409.052 183.321L411.241 196.683L413.43 210.1L416.713 229.397L418.901 245.235L422.184 272.18L426.561 308.975L427.656 316.494L428.75 322.836L432.033 338.53L435.316 353.681L437.505 361.54L439.693 367.932L447.354 388.88L449.542 393.525L450.637 395.4L451.731 396.915L452.825 398.094L458.297 403.055L460.486 405.012L462.674 406.357L464.863 407.221L468.146 408.145L471.429 408.756L480.183 409.677L494.41 410.048L505.353 410.029L513.013 410.111" fill="#EFEFEF" fill-opacity="0.4"/>
<path d="M295.242 410.111L318.223 409.93L325.883 409.613L331.355 408.854L334.638 408.149L343.393 405.429L346.676 403.523L351.053 400.79L353.242 398.964L355.43 396.744L357.619 394.222L358.713 392.751L359.808 391.017L360.902 388.936L363.09 383.694L365.279 377.459L367.468 370.336L369.656 361.68L371.845 351.315L374.034 339.479L377.317 319.848L379.505 304.396L382.788 276.7L386.071 249.753L389.354 223.353L394.826 176.579L395.92 170.529L397.015 166.49L398.109 164.192L399.203 163.313L400.298 163.557L401.392 164.563L404.675 168.821L405.769 170.806L406.864 173.729L407.958 177.892L409.052 183.321L411.241 196.683L413.43 210.1L416.713 229.397L418.901 245.235L422.184 272.18L426.561 308.975L427.656 316.494L428.75 322.836L432.033 338.53L435.316 353.681L437.505 361.54L439.693 367.932L447.354 388.88L449.542 393.525L450.637 395.4L451.731 396.915L452.825 398.094L458.297 403.055L460.486 405.012L462.674 406.357L464.863 407.221L468.146 408.145L471.429 408.756L480.183 409.677L494.41 410.048L505.353 410.029L513.013 410.111" stroke="#EFEFEF" stroke-linecap="square"/>
</g>
<mask id="mask9_230_15518" style="mask-type:luminance" maskUnits="userSpaceOnUse" x="76" y="55" width="477" height="356">
<path d="M552.957 55.2959H76.7969V410.112H552.957V55.2959Z" fill="white"/>
</mask>
<g mask="url(#mask9_230_15518)">
<path d="M288.102 410.111L306.538 409.925L310.927 409.955L316.195 409.798L318.828 409.58L321.462 409.036L324.096 408.495L327.607 407.882L330.241 406.977L335.509 405.1L337.264 404.551L338.142 404.134L339.02 403.544L340.776 401.795L342.532 399.469L344.288 396.705L346.921 391.717L349.555 386.106L351.311 381.792L353.067 376.609L358.334 359.352L360.09 353.919L361.846 346.896L363.602 337.654L368.869 305.367L369.747 299.13L370.625 291.811L372.381 273.45L375.892 232.286L379.404 195.424L382.038 166.073L383.793 150.278L385.549 137.273L387.305 126.43L388.183 122.307L389.061 119.369L389.939 117.651L390.817 116.993L391.695 117.114L392.572 117.731L393.45 118.665L394.328 119.942L395.206 121.815L396.084 124.678L396.962 128.907L397.84 134.779L398.718 142.471L399.596 152.047L401.352 175.705L403.107 200.311L404.863 220.934L411.886 293.673L414.52 323.302L416.276 340.421L418.032 355.003L419.788 367.182L421.543 376.831L423.299 384.344L425.055 390.534L426.811 395.856L428.567 400.044L429.445 401.609L430.322 402.83L431.2 403.756L432.956 405.06L438.224 408.489L439.979 409.137L442.613 409.675L445.247 409.923L452.27 410.079L459.293 410.078L462.805 410.111" fill="#EFEFEF" fill-opacity="0.4"/>
<path d="M288.102 410.111L306.538 409.925L310.927 409.955L316.195 409.798L318.828 409.58L321.462 409.036L324.096 408.495L327.607 407.882L330.241 406.977L335.509 405.1L337.264 404.551L338.142 404.134L339.02 403.544L340.776 401.795L342.532 399.469L344.288 396.705L346.921 391.717L349.555 386.106L351.311 381.792L353.067 376.609L358.334 359.352L360.09 353.919L361.846 346.896L363.602 337.654L368.869 305.367L369.747 299.13L370.625 291.811L372.381 273.45L375.892 232.286L379.404 195.424L382.038 166.073L383.793 150.278L385.549 137.273L387.305 126.43L388.183 122.307L389.061 119.369L389.939 117.651L390.817 116.993L391.695 117.114L392.572 117.731L393.45 118.665L394.328 119.942L395.206 121.815L396.084 124.678L396.962 128.907L397.84 134.779L398.718 142.471L399.596 152.047L401.352 175.705L403.107 200.311L404.863 220.934L411.886 293.673L414.52 323.302L416.276 340.421L418.032 355.003L419.788 367.182L421.543 376.831L423.299 384.344L425.055 390.534L426.811 395.856L428.567 400.044L429.445 401.609L430.322 402.83L431.2 403.756L432.956 405.06L438.224 408.489L439.979 409.137L442.613 409.675L445.247 409.923L452.27 410.079L459.293 410.078L462.805 410.111" stroke="#EFEFEF" stroke-linecap="square"/>
</g>
<mask id="mask10_230_15518" style="mask-type:luminance" maskUnits="userSpaceOnUse" x="76" y="55" width="477" height="356">
<path d="M552.957 55.2959H76.7969V410.112H552.957V55.2959Z" fill="white"/>
</mask>
<g mask="url(#mask10_230_15518)">
<path d="M271.969 410.111L308.46 409.851L312.369 409.756L316.279 409.632L318.885 409.245L321.492 408.586L322.795 408.497L326.705 409L329.311 408.869L333.221 408.417L334.524 408.099L335.828 407.599L337.131 406.88L343.647 402.434L346.254 401.133L347.557 400.244L348.86 399.014L354.073 393.03L355.376 390.965L356.679 388.367L359.286 382.281L361.892 375.211L363.196 370.959L365.802 360.932L367.105 355.226L368.409 348.515L369.712 340.107L372.318 318.823L376.228 283.955L377.531 269.435L381.441 217.559L384.048 181.579L387.957 122.655L389.261 106.596L390.564 95.1731L391.867 88.9452L393.17 87.1816L394.473 88.7217L395.777 92.5308L397.08 98.028L398.383 105.449L399.686 115.564L400.99 128.705L406.203 189.487L410.112 231.52L416.629 305.093L419.235 330.06L421.842 350.597L424.448 368.136L425.751 375.269L427.055 380.967L428.358 385.297L429.661 388.613L432.268 393.896L434.874 398.151L437.48 401.726L438.784 403.251L440.087 404.46L442.693 406.235L445.3 407.485L447.906 408.251L450.513 408.642L458.332 409.18L460.939 409.314L464.849 409.09L470.062 409.545L473.971 409.588L477.881 409.853L487.004 409.779L490.913 410.074L498.733 410.112L531.314 410.111" fill="#EFEFEF" fill-opacity="0.4"/>
<path d="M271.969 410.111L308.46 409.851L312.369 409.756L316.279 409.632L318.885 409.245L321.492 408.586L322.795 408.497L326.705 409L329.311 408.869L333.221 408.417L334.524 408.099L335.828 407.599L337.131 406.88L343.647 402.434L346.254 401.133L347.557 400.244L348.86 399.014L354.073 393.03L355.376 390.965L356.679 388.367L359.286 382.281L361.892 375.211L363.196 370.959L365.802 360.932L367.105 355.226L368.409 348.515L369.712 340.107L372.318 318.823L376.228 283.955L377.531 269.435L381.441 217.559L384.048 181.579L387.957 122.655L389.261 106.596L390.564 95.1731L391.867 88.9452L393.17 87.1816L394.473 88.7217L395.777 92.5308L397.08 98.028L398.383 105.449L399.686 115.564L400.99 128.705L406.203 189.487L410.112 231.52L416.629 305.093L419.235 330.06L421.842 350.597L424.448 368.136L425.751 375.269L427.055 380.967L428.358 385.297L429.661 388.613L432.268 393.896L434.874 398.151L437.48 401.726L438.784 403.251L440.087 404.46L442.693 406.235L445.3 407.485L447.906 408.251L450.513 408.642L458.332 409.18L460.939 409.314L464.849 409.09L470.062 409.545L473.971 409.588L477.881 409.853L487.004 409.779L490.913 410.074L498.733 410.112L531.314 410.111" stroke="#EFEFEF" stroke-linecap="square"/>
</g>
<mask id="mask11_230_15518" style="mask-type:luminance" maskUnits="userSpaceOnUse" x="76" y="55" width="477" height="356">
<path d="M552.957 55.2959H76.7969V410.112H552.957V55.2959Z" fill="white"/>
</mask>
<g mask="url(#mask11_230_15518)">
<path d="M283.039 410.11L324.069 409.925L328.505 409.593L336.267 408.677L341.812 407.373L345.139 406.792L348.465 405.707L350.683 404.76L351.792 404.111L352.901 403.277L355.119 401.004L357.337 398.127L359.555 394.718L360.663 392.573L361.772 389.909L362.881 386.614L365.099 378.251L367.317 368.377L369.535 357.326L371.753 344.544L380.624 288.183L385.06 260.687L387.278 248.634L390.604 232.856L396.149 207.554L397.258 203.902L398.367 201.367L399.476 199.789L401.694 197.446L402.802 195.779L405.02 192.013L406.129 191.012L407.238 191.199L408.347 192.669L409.456 195.293L410.565 198.876L411.674 203.252L413.892 213.877L420.545 249.595L423.872 265.911L426.09 279.129L430.526 307.478L432.743 319.753L434.961 330.128L441.615 358.075L443.833 365.85L446.05 372.295L450.486 384.831L452.704 391.001L453.813 393.582L454.922 395.65L456.031 397.198L457.14 398.332L459.357 400.016L466.011 404.499L469.338 406.38L471.556 407.369L473.773 408.135L477.1 408.916L480.427 409.38L485.972 409.714L500.387 410.097L503.714 410.11" fill="#EFEFEF" fill-opacity="0.4"/>
<path d="M283.039 410.11L324.069 409.925L328.505 409.593L336.267 408.677L341.812 407.373L345.139 406.792L348.465 405.707L350.683 404.76L351.792 404.111L352.901 403.277L355.119 401.004L357.337 398.127L359.555 394.718L360.663 392.573L361.772 389.909L362.881 386.614L365.099 378.251L367.317 368.377L369.535 357.326L371.753 344.544L380.624 288.183L385.06 260.687L387.278 248.634L390.604 232.856L396.149 207.554L397.258 203.902L398.367 201.367L399.476 199.789L401.694 197.446L402.802 195.779L405.02 192.013L406.129 191.012L407.238 191.199L408.347 192.669L409.456 195.293L410.565 198.876L411.674 203.252L413.892 213.877L420.545 249.595L423.872 265.911L426.09 279.129L430.526 307.478L432.743 319.753L434.961 330.128L441.615 358.075L443.833 365.85L446.05 372.295L450.486 384.831L452.704 391.001L453.813 393.582L454.922 395.65L456.031 397.198L457.14 398.332L459.357 400.016L466.011 404.499L469.338 406.38L471.556 407.369L473.773 408.135L477.1 408.916L480.427 409.38L485.972 409.714L500.387 410.097L503.714 410.11" stroke="#EFEFEF" stroke-linecap="square"/>
</g>
<mask id="mask12_230_15518" style="mask-type:luminance" maskUnits="userSpaceOnUse" x="76" y="55" width="477" height="356">
<path d="M552.957 55.2959H76.7969V410.112H552.957V55.2959Z" fill="white"/>
</mask>
<g mask="url(#mask12_230_15518)">
<path d="M282.719 410.111L289.078 409.959L292.712 409.982L297.255 410.057L302.706 409.952L307.248 410.01L322.693 409.409L324.51 408.946L329.053 407.191L330.87 406.295L333.595 404.415L336.321 402.28L337.229 401.27L338.138 399.934L339.046 398.215L340.863 393.833L345.406 381.711L347.223 375.244L349.04 367.026L350.857 356.482L352.674 342.387L354.491 324.349L358.125 282.962L363.576 218.123L368.119 154.277L369.936 134.768L371.753 119.036L372.661 112.465L373.57 107.015L374.478 102.873L375.387 100.11L376.295 98.8154L377.204 99.2681L378.112 101.864L379.021 106.818L379.929 113.916L382.655 141.086L387.197 186.566L389.923 216.98L392.648 242.105L395.374 267.868L398.099 294.119L399.916 309.314L401.733 322.61L403.55 333.838L405.367 343.012L409.002 360.234L410.819 368.74L412.636 375.223L416.27 385.417L419.904 395.142L420.812 397.142L421.721 398.762L423.538 401.015L427.172 404.506L428.08 405.124L428.989 405.539L430.806 405.926L436.257 406.479L438.074 407.093L440.799 408.151L443.525 408.792L446.25 409.15L463.512 410.111" fill="#EFEFEF" fill-opacity="0.4"/>
<path d="M282.719 410.111L289.078 409.959L292.712 409.982L297.255 410.057L302.706 409.952L307.248 410.01L322.693 409.409L324.51 408.946L329.053 407.191L330.87 406.295L333.595 404.415L336.321 402.28L337.229 401.27L338.138 399.934L339.046 398.215L340.863 393.833L345.406 381.711L347.223 375.244L349.04 367.026L350.857 356.482L352.674 342.387L354.491 324.349L358.125 282.962L363.576 218.123L368.119 154.277L369.936 134.768L371.753 119.036L372.661 112.465L373.57 107.015L374.478 102.873L375.387 100.11L376.295 98.8154L377.204 99.2681L378.112 101.864L379.021 106.818L379.929 113.916L382.655 141.086L387.197 186.566L389.923 216.98L392.648 242.105L395.374 267.868L398.099 294.119L399.916 309.314L401.733 322.61L403.55 333.838L405.367 343.012L409.002 360.234L410.819 368.74L412.636 375.223L416.27 385.417L419.904 395.142L420.812 397.142L421.721 398.762L423.538 401.015L427.172 404.506L428.08 405.124L428.989 405.539L430.806 405.926L436.257 406.479L438.074 407.093L440.799 408.151L443.525 408.792L446.25 409.15L463.512 410.111" stroke="#EFEFEF" stroke-linecap="square"/>
</g>
<mask id="mask13_230_15518" style="mask-type:luminance" maskUnits="userSpaceOnUse" x="76" y="55" width="477" height="356">
<path d="M552.957 55.2959H76.7969V410.112H552.957V55.2959Z" fill="white"/>
</mask>
<g mask="url(#mask13_230_15518)">
<path d="M257.586 410.111L294.978 409.915L303.062 408.845L306.094 408.036L308.115 407.708L310.137 407.029L312.158 406.316L315.189 405.494L316.2 404.906L317.211 404.011L319.232 401.62L320.242 400.208L321.253 398.481L322.264 396.301L325.295 388.927L327.317 384.823L328.327 382.142L329.338 378.713L331.359 370.365L333.38 360.408L334.391 354.299L335.401 347.137L337.422 329.381L339.444 308.009L342.475 273.365L345.507 234.766L350.56 167.187L354.602 100.235L355.613 89.8081L356.624 83.4193L357.634 79.4804L359.655 73.555L360.666 72.1924L361.677 73.5625L362.687 78.1817L363.698 85.5677L365.719 105.132L367.74 128.792L369.761 157.705L372.793 203.008L375.825 242.496L379.867 292.428L381.888 312.154L383.91 328.114L387.952 356.254L389.973 368.223L391.994 378.093L394.015 386.183L395.026 389.176L396.037 391.394L400.079 398.671L402.1 402.085L403.111 403.262L404.121 404.01L405.132 404.403L407.153 404.915L409.174 405.936L411.195 407.072L413.217 407.968L415.238 408.548L417.259 408.696L419.28 408.709L421.301 409.06L424.333 409.731L427.365 409.925L430.397 409.822L433.428 409.74L442.524 410.106L451.619 410.01L456.672 410.098L458.693 410.111" fill="#EFEFEF" fill-opacity="0.4"/>
<path d="M257.586 410.111L294.978 409.915L303.062 408.845L306.094 408.036L308.115 407.708L310.137 407.029L312.158 406.316L315.189 405.494L316.2 404.906L317.211 404.011L319.232 401.62L320.242 400.208L321.253 398.481L322.264 396.301L325.295 388.927L327.317 384.823L328.327 382.142L329.338 378.713L331.359 370.365L333.38 360.408L334.391 354.299L335.401 347.137L337.422 329.381L339.444 308.009L342.475 273.365L345.507 234.766L350.56 167.187L354.602 100.235L355.613 89.8081L356.624 83.4193L357.634 79.4804L359.655 73.555L360.666 72.1924L361.677 73.5625L362.687 78.1817L363.698 85.5677L365.719 105.132L367.74 128.792L369.761 157.705L372.793 203.008L375.825 242.496L379.867 292.428L381.888 312.154L383.91 328.114L387.952 356.254L389.973 368.223L391.994 378.093L394.015 386.183L395.026 389.176L396.037 391.394L400.079 398.671L402.1 402.085L403.111 403.262L404.121 404.01L405.132 404.403L407.153 404.915L409.174 405.936L411.195 407.072L413.217 407.968L415.238 408.548L417.259 408.696L419.28 408.709L421.301 409.06L424.333 409.731L427.365 409.925L430.397 409.822L433.428 409.74L442.524 410.106L451.619 410.01L456.672 410.098L458.693 410.111" stroke="#EFEFEF" stroke-linecap="square"/>
</g>
<mask id="mask14_230_15518" style="mask-type:luminance" maskUnits="userSpaceOnUse" x="76" y="55" width="477" height="356">
<path d="M552.957 55.2959H76.7969V410.112H552.957V55.2959Z" fill="white"/>
</mask>
<g mask="url(#mask14_230_15518)">
<path d="M98.4375 410.112L205.276 409.909L210.709 409.536L216.141 408.92L219.763 408.263L223.384 407.255L227.006 405.866L232.439 403.365L236.06 401.429L243.304 397.134L246.925 395.259L248.736 394.068L250.547 392.465L252.358 390.384L255.979 385.264L259.601 380.233L268.655 369.046L272.277 363.281L277.709 354.069L286.763 340.179L292.196 330.78L295.818 324.727L299.439 318.082L303.061 311.51L304.872 308.758L306.682 306.44L310.304 302.322L312.115 299.989L313.926 297.276L319.358 288.253L321.169 285.662L322.98 283.417L326.602 279.664L328.412 278.113L330.223 276.872L332.034 276.007L333.845 275.494L335.656 275.243L337.467 275.172L339.277 275.289L341.088 275.723L342.899 276.705L344.71 278.473L346.521 281.143L348.331 284.631L351.953 293.113L355.575 302.857L357.386 308.447L359.196 314.655L362.818 328.467L366.44 342.29L368.251 348.531L371.872 359.387L375.494 368.93L379.115 377.829L382.737 385.778L384.548 389.238L386.359 392.328L388.17 395.073L389.98 397.512L391.791 399.666L393.602 401.517L395.413 403.042L397.224 404.248L399.035 405.19L402.656 406.594L406.278 407.639L409.9 408.344L417.143 409.234L422.575 409.729L429.819 409.935L458.792 410.112" fill="#7EB0D5" fill-opacity="0.4"/>
<path d="M98.4375 410.112L205.276 409.909L210.709 409.536L216.141 408.92L219.763 408.263L223.384 407.255L227.006 405.866L232.439 403.365L236.06 401.429L243.304 397.134L246.925 395.259L248.736 394.068L250.547 392.465L252.358 390.384L255.979 385.264L259.601 380.233L268.655 369.046L272.277 363.281L277.709 354.069L286.763 340.179L292.196 330.78L295.818 324.727L299.439 318.082L303.061 311.51L304.872 308.758L306.682 306.44L310.304 302.322L312.115 299.989L313.926 297.276L319.358 288.253L321.169 285.662L322.98 283.417L326.602 279.664L328.412 278.113L330.223 276.872L332.034 276.007L333.845 275.494L335.656 275.243L337.467 275.172L339.277 275.289L341.088 275.723L342.899 276.705L344.71 278.473L346.521 281.143L348.331 284.631L351.953 293.113L355.575 302.857L357.386 308.447L359.196 314.655L362.818 328.467L366.44 342.29L368.251 348.531L371.872 359.387L375.494 368.93L379.115 377.829L382.737 385.778L384.548 389.238L386.359 392.328L388.17 395.073L389.98 397.512L391.791 399.666L393.602 401.517L395.413 403.042L397.224 404.248L399.035 405.19L402.656 406.594L406.278 407.639L409.9 408.344L417.143 409.234L422.575 409.729L429.819 409.935L458.792 410.112" stroke="#7EB0D5" stroke-linecap="square"/>
</g>
<path d="M535.061 411.061C535.646 410.475 535.646 409.525 535.061 408.939L525.515 399.393C524.929 398.808 523.979 398.808 523.393 399.393C522.808 399.979 522.808 400.929 523.393 401.515L531.879 410L523.393 418.485C522.808 419.071 522.808 420.021 523.393 420.607C523.979 421.192 524.929 421.192 525.515 420.607L535.061 411.061ZM79 411.5H534V408.5H79V411.5Z" fill="black"/>
</g>
<defs>
<clipPath id="clip0_230_15518">
<rect width="614.4" height="460.8" fill="white"/>
</clipPath>
</defs>
</svg>
