<svg width="615" height="461" viewBox="0 0 615 461" fill="none" xmlns="http://www.w3.org/2000/svg">
<g clip-path="url(#clip0_230_14878)">
<mask id="mask0_230_14878" style="mask-type:luminance" maskUnits="userSpaceOnUse" x="76" y="55" width="477" height="356">
<path d="M552.957 55.2959H76.7969V410.112H552.957V55.2959Z" fill="white"/>
</mask>
<g mask="url(#mask0_230_14878)">
<path d="M409.195 410.111L427.801 409.907L431.747 409.76L436.258 408.995L438.513 408.042L440.204 406.888L441.896 405.44L443.587 403.494L445.278 400.857L446.406 398.483L447.533 395.228L448.661 390.86L449.789 385.2L451.48 374.685L453.171 362.733L454.299 352.719L455.427 339.854L457.682 308.012L460.501 269.845L462.756 238.954L463.884 224.096L465.011 213.144L467.266 196.609L468.394 189.556L468.958 187.169L469.522 185.747L470.085 185.197L470.649 185.288L471.213 185.773L471.777 186.53L472.341 187.609L472.904 189.173L474.032 194.079L475.16 200.955L476.287 210.019L478.542 230.345L480.234 241.823L481.361 253.142L483.053 276.161L484.18 290.827L485.872 307.747L491.51 358.399L493.201 370.242L496.02 386.984L497.148 392.494L498.275 396.652L499.403 399.885L500.53 402.525L501.658 404.513L502.786 405.874L504.477 407.405L506.168 408.549L507.86 409.203L510.679 409.991L512.934 410.088L518.572 410.056L521.391 410.111" fill="#EFEFEF" fill-opacity="0.4"/>
<path d="M409.195 410.111L427.801 409.907L431.747 409.76L436.258 408.995L438.513 408.042L440.204 406.888L441.896 405.44L443.587 403.494L445.278 400.857L446.406 398.483L447.533 395.228L448.661 390.86L449.789 385.2L451.48 374.685L453.171 362.733L454.299 352.719L455.427 339.854L457.682 308.012L460.501 269.845L462.756 238.954L463.884 224.096L465.011 213.144L467.266 196.609L468.394 189.556L468.958 187.169L469.522 185.747L470.085 185.197L470.649 185.288L471.213 185.773L471.777 186.53L472.341 187.609L472.904 189.173L474.032 194.079L475.16 200.955L476.287 210.019L478.542 230.345L480.234 241.823L481.361 253.142L483.053 276.161L484.18 290.827L485.872 307.747L491.51 358.399L493.201 370.242L496.02 386.984L497.148 392.494L498.275 396.652L499.403 399.885L500.53 402.525L501.658 404.513L502.786 405.874L504.477 407.405L506.168 408.549L507.86 409.203L510.679 409.991L512.934 410.088L518.572 410.056L521.391 410.111" stroke="#EFEFEF" stroke-linecap="square"/>
</g>
<mask id="mask1_230_14878" style="mask-type:luminance" maskUnits="userSpaceOnUse" x="76" y="55" width="477" height="356">
<path d="M552.957 55.2959H76.7969V410.112H552.957V55.2959Z" fill="white"/>
</mask>
<g mask="url(#mask1_230_14878)">
<path d="M400.023 410.111L403.035 409.983L405.445 409.882L408.457 410.022L414.481 409.519L415.686 409.215L416.891 408.612L418.095 407.739L419.3 406.415L420.505 404.084L423.517 396.463L424.722 392.007L425.324 388.853L426.529 379.956L427.734 367.461L428.939 350.787L430.143 328.565L431.348 300.112L433.758 229.219L437.974 106.415L439.179 85.6171L439.782 79.3116L440.384 75.0694L440.986 72.5518L441.589 72.1924L442.191 74.9947L442.794 81.6416L443.998 103.928L446.408 158.384L449.42 236.339L451.227 282.784L452.432 307.496L453.637 327.037L454.842 341.864L456.046 353.598L457.854 368.028L459.058 376.241L460.263 382.669L461.468 387.272L463.275 392.052L465.082 396.232L466.287 398.117L467.492 399.35L470.504 401.522L471.709 402.172L472.914 402.425L475.323 402.56L475.926 402.807L476.528 403.235L479.54 406.124L480.745 406.417L483.757 406.646L486.166 408.075L487.371 408.351L494.6 409.16L497.009 409.924L498.817 410.005L504.841 410.029L507.25 410.041L509.66 410.058L513.877 410.092L518.093 410.084L519.901 410.111" fill="#EFEFEF" fill-opacity="0.4"/>
<path d="M400.023 410.111L403.035 409.983L405.445 409.882L408.457 410.022L414.481 409.519L415.686 409.215L416.891 408.612L418.095 407.739L419.3 406.415L420.505 404.084L423.517 396.463L424.722 392.007L425.324 388.853L426.529 379.956L427.734 367.461L428.939 350.787L430.143 328.565L431.348 300.112L433.758 229.219L437.974 106.415L439.179 85.6171L439.782 79.3116L440.384 75.0694L440.986 72.5518L441.589 72.1924L442.191 74.9947L442.794 81.6416L443.998 103.928L446.408 158.384L449.42 236.339L451.227 282.784L452.432 307.496L453.637 327.037L454.842 341.864L456.046 353.598L457.854 368.028L459.058 376.241L460.263 382.669L461.468 387.272L463.275 392.052L465.082 396.232L466.287 398.117L467.492 399.35L470.504 401.522L471.709 402.172L472.914 402.425L475.323 402.56L475.926 402.807L476.528 403.235L479.54 406.124L480.745 406.417L483.757 406.646L486.166 408.075L487.371 408.351L494.6 409.16L497.009 409.924L498.817 410.005L504.841 410.029L507.25 410.041L509.66 410.058L513.877 410.092L518.093 410.084L519.901 410.111" stroke="#EFEFEF" stroke-linecap="square"/>
</g>
<mask id="mask2_230_14878" style="mask-type:luminance" maskUnits="userSpaceOnUse" x="76" y="55" width="477" height="356">
<path d="M552.957 55.2959H76.7969V410.112H552.957V55.2959Z" fill="white"/>
</mask>
<g mask="url(#mask2_230_14878)">
<path d="M393.227 410.111L405.18 409.933L409.583 409.774L413.358 409.301L414.616 408.772L415.875 407.87L417.133 406.591L419.02 404.098L420.908 401.293L422.166 398.766L423.424 394.885L424.682 389.419L425.94 382.678L427.199 374.585L428.457 364.35L429.715 351.457L431.602 327.996L433.49 299.721L438.523 218.94L439.781 205.151L441.039 196.54L442.297 190.95L444.185 184.013L444.814 182.427L445.443 181.485L446.072 181.213L446.701 181.587L447.33 182.671L447.959 184.73L448.588 188.196L449.218 193.47L450.476 209.324L452.363 235.858L456.138 280.668L458.025 302.455L460.542 326.274L461.8 335.927L463.687 347.202L465.575 357.447L466.833 362.741L469.349 371.304L471.236 378.801L472.495 382.475L476.269 391.066L478.157 395.724L479.415 397.791L480.673 399.054L481.931 400.213L485.706 404.28L487.593 405.836L488.852 406.594L491.368 407.491L493.885 408.205L497.03 409.035L499.547 409.565L502.063 409.896L509.612 410.051L514.016 410.028L518.42 410.111" fill="#EFEFEF" fill-opacity="0.4"/>
<path d="M393.227 410.111L405.18 409.933L409.583 409.774L413.358 409.301L414.616 408.772L415.875 407.87L417.133 406.591L419.02 404.098L420.908 401.293L422.166 398.766L423.424 394.885L424.682 389.419L425.94 382.678L427.199 374.585L428.457 364.35L429.715 351.457L431.602 327.996L433.49 299.721L438.523 218.94L439.781 205.151L441.039 196.54L442.297 190.95L444.185 184.013L444.814 182.427L445.443 181.485L446.072 181.213L446.701 181.587L447.33 182.671L447.959 184.73L448.588 188.196L449.218 193.47L450.476 209.324L452.363 235.858L456.138 280.668L458.025 302.455L460.542 326.274L461.8 335.927L463.687 347.202L465.575 357.447L466.833 362.741L469.349 371.304L471.236 378.801L472.495 382.475L476.269 391.066L478.157 395.724L479.415 397.791L480.673 399.054L481.931 400.213L485.706 404.28L487.593 405.836L488.852 406.594L491.368 407.491L493.885 408.205L497.03 409.035L499.547 409.565L502.063 409.896L509.612 410.051L514.016 410.028L518.42 410.111" stroke="#EFEFEF" stroke-linecap="square"/>
</g>
<mask id="mask3_230_14878" style="mask-type:luminance" maskUnits="userSpaceOnUse" x="76" y="55" width="477" height="356">
<path d="M552.957 55.2959H76.7969V410.112H552.957V55.2959Z" fill="white"/>
</mask>
<g mask="url(#mask3_230_14878)">
<path d="M408.742 410.111L418.365 409.957L423.459 409.516L425.723 409.249L428.554 409.104L429.686 408.827L430.818 408.283L433.082 406.694L435.912 404.504L437.044 403.352L438.176 401.817L441.007 396.984L442.705 393.758L443.837 390.906L445.535 385.5L447.233 379.109L451.195 361.929L452.327 353.925L453.46 343.405L455.158 323.54L461.384 242.984L462.516 231.325L466.478 196.944L467.611 189.425L468.743 184.516L469.309 183.145L469.875 182.65L470.441 183.085L471.007 184.392L471.573 186.449L472.705 192.356L474.403 204.128L476.101 217.683L477.233 229.801L481.196 277.786L482.894 299.293L485.158 327.969L486.856 345.109L488.554 358.284L491.384 377.07L493.082 386.784L494.215 391.832L495.347 395.686L496.479 398.767L497.611 401.204L498.743 403.039L501.573 406.714L502.705 407.801L503.837 408.458L506.667 409.442L508.366 409.721L519.686 410.099L521.385 410.111" fill="#EFEFEF" fill-opacity="0.4"/>
<path d="M408.742 410.111L418.365 409.957L423.459 409.516L425.723 409.249L428.554 409.104L429.686 408.827L430.818 408.283L433.082 406.694L435.912 404.504L437.044 403.352L438.176 401.817L441.007 396.984L442.705 393.758L443.837 390.906L445.535 385.5L447.233 379.109L451.195 361.929L452.327 353.925L453.46 343.405L455.158 323.54L461.384 242.984L462.516 231.325L466.478 196.944L467.611 189.425L468.743 184.516L469.309 183.145L469.875 182.65L470.441 183.085L471.007 184.392L471.573 186.449L472.705 192.356L474.403 204.128L476.101 217.683L477.233 229.801L481.196 277.786L482.894 299.293L485.158 327.969L486.856 345.109L488.554 358.284L491.384 377.07L493.082 386.784L494.215 391.832L495.347 395.686L496.479 398.767L497.611 401.204L498.743 403.039L501.573 406.714L502.705 407.801L503.837 408.458L506.667 409.442L508.366 409.721L519.686 410.099L521.385 410.111" stroke="#EFEFEF" stroke-linecap="square"/>
</g>
<mask id="mask4_230_14878" style="mask-type:luminance" maskUnits="userSpaceOnUse" x="76" y="55" width="477" height="356">
<path d="M552.957 55.2959H76.7969V410.112H552.957V55.2959Z" fill="white"/>
</mask>
<g mask="url(#mask4_230_14878)">
<path d="M410.836 410.11L415.119 409.951L422.615 409.492L425.293 409.083L427.97 408.305L429.576 407.625L431.182 406.506L433.859 404.058L434.93 402.761L436.001 400.993L437.607 397.597L439.214 393.589L440.82 388.683L442.962 381.269L445.104 372.419L446.71 364.648L447.781 358.325L449.387 346.537L452.6 318.177L454.206 302.791L459.56 245.238L461.166 228.106L462.237 220.264L463.308 215.361L465.45 207.394L467.592 198.932L468.127 197.467L468.662 196.44L469.198 195.913L469.733 195.946L470.269 196.602L470.804 197.948L471.34 200.06L471.875 203.007L472.946 211.511L474.552 228.964L476.694 251.463L478.3 269.044L480.977 301.692L482.584 315.715L484.725 333.412L487.938 360.927L489.544 371.897L491.151 381.182L493.292 391.764L494.363 395.947L495.434 399.16L496.505 401.569L497.576 403.313L498.647 404.501L501.859 407.066L504.001 408.706L505.072 409.264L506.678 409.72L508.82 409.957L517.387 410.111" fill="#EFEFEF" fill-opacity="0.4"/>
<path d="M410.836 410.11L415.119 409.951L422.615 409.492L425.293 409.083L427.97 408.305L429.576 407.625L431.182 406.506L433.859 404.058L434.93 402.761L436.001 400.993L437.607 397.597L439.214 393.589L440.82 388.683L442.962 381.269L445.104 372.419L446.71 364.648L447.781 358.325L449.387 346.537L452.6 318.177L454.206 302.791L459.56 245.238L461.166 228.106L462.237 220.264L463.308 215.361L465.45 207.394L467.592 198.932L468.127 197.467L468.662 196.44L469.198 195.913L469.733 195.946L470.269 196.602L470.804 197.948L471.34 200.06L471.875 203.007L472.946 211.511L474.552 228.964L476.694 251.463L478.3 269.044L480.977 301.692L482.584 315.715L484.725 333.412L487.938 360.927L489.544 371.897L491.151 381.182L493.292 391.764L494.363 395.947L495.434 399.16L496.505 401.569L497.576 403.313L498.647 404.501L501.859 407.066L504.001 408.706L505.072 409.264L506.678 409.72L508.82 409.957L517.387 410.111" stroke="#EFEFEF" stroke-linecap="square"/>
</g>
<mask id="mask5_230_14878" style="mask-type:luminance" maskUnits="userSpaceOnUse" x="76" y="55" width="477" height="356">
<path d="M552.957 55.2959H76.7969V410.112H552.957V55.2959Z" fill="white"/>
</mask>
<g mask="url(#mask5_230_14878)">
<path d="M420.422 410.111L424.667 409.959L427.85 409.848L430.503 409.785L432.625 409.444L437.401 408.152L440.054 407.105L441.645 406.588L442.707 405.974L443.768 404.952L445.36 402.673L446.951 399.979L448.012 397.737L449.074 394.595L450.135 390.377L451.727 382.982L452.788 377.076L453.849 369.478L455.441 355.147L457.032 338.186L458.624 317.244L459.685 299.469L461.277 266.76L462.869 235.091L464.461 210.656L466.583 181.464L467.644 170.575L468.705 163.678L469.236 161.908L469.767 161.153L470.297 161.173L470.828 161.677L471.889 163.418L472.42 164.655L472.95 166.279L474.011 171.022L475.073 178.419L476.134 189.904L477.195 205.63L480.378 257.702L481.44 271.095L486.215 321.292L489.929 353.437L491.521 366.148L492.582 373.122L493.643 378.536L494.704 382.456L496.296 387.44L498.949 396.927L500.01 399.114L503.724 405.301L504.785 406.25L506.908 407.638L508.5 408.366L510.091 408.759L512.744 409.273L514.336 409.579L519.111 409.877L521.234 410.01L526.009 410.111" fill="#EFEFEF" fill-opacity="0.4"/>
<path d="M420.422 410.111L424.667 409.959L427.85 409.848L430.503 409.785L432.625 409.444L437.401 408.152L440.054 407.105L441.645 406.588L442.707 405.974L443.768 404.952L445.36 402.673L446.951 399.979L448.012 397.737L449.074 394.595L450.135 390.377L451.727 382.982L452.788 377.076L453.849 369.478L455.441 355.147L457.032 338.186L458.624 317.244L459.685 299.469L461.277 266.76L462.869 235.091L464.461 210.656L466.583 181.464L467.644 170.575L468.705 163.678L469.236 161.908L469.767 161.153L470.297 161.173L470.828 161.677L471.889 163.418L472.42 164.655L472.95 166.279L474.011 171.022L475.073 178.419L476.134 189.904L477.195 205.63L480.378 257.702L481.44 271.095L486.215 321.292L489.929 353.437L491.521 366.148L492.582 373.122L493.643 378.536L494.704 382.456L496.296 387.44L498.949 396.927L500.01 399.114L503.724 405.301L504.785 406.25L506.908 407.638L508.5 408.366L510.091 408.759L512.744 409.273L514.336 409.579L519.111 409.877L521.234 410.01L526.009 410.111" stroke="#EFEFEF" stroke-linecap="square"/>
</g>
<mask id="mask6_230_14878" style="mask-type:luminance" maskUnits="userSpaceOnUse" x="76" y="55" width="477" height="356">
<path d="M552.957 55.2959H76.7969V410.112H552.957V55.2959Z" fill="white"/>
</mask>
<g mask="url(#mask6_230_14878)">
<path d="M412.594 410.11L416.83 409.955L422.125 409.353L425.832 408.735L426.891 408.16L427.95 407.213L429.009 405.826L430.597 402.95L432.715 398.867L434.304 396.393L436.422 393.228L437.481 390.76L438.54 386.923L439.599 381.704L443.306 360.367L444.894 350.048L447.012 333.716L451.778 296.304L457.603 256.181L458.662 252.173L463.957 236.476L466.075 231.578L466.604 230.841L467.134 230.559L467.663 230.782L468.193 231.452L469.781 234.606L471.899 238.966L472.959 242.343L474.018 247.497L475.077 254.647L477.724 276.316L483.549 325.891L489.373 379.937L490.433 386.83L491.492 392.232L492.551 396.521L493.61 399.89L494.669 402.515L496.257 405.531L497.316 407.017L498.375 408.044L499.434 408.663L501.023 409.151L504.729 409.855L507.377 410.083L511.613 410.053L516.908 410.108L517.967 410.111" fill="#EFEFEF" fill-opacity="0.4"/>
<path d="M412.594 410.11L416.83 409.955L422.125 409.353L425.832 408.735L426.891 408.16L427.95 407.213L429.009 405.826L430.597 402.95L432.715 398.867L434.304 396.393L436.422 393.228L437.481 390.76L438.54 386.923L439.599 381.704L443.306 360.367L444.894 350.048L447.012 333.716L451.778 296.304L457.603 256.181L458.662 252.173L463.957 236.476L466.075 231.578L466.604 230.841L467.134 230.559L467.663 230.782L468.193 231.452L469.781 234.606L471.899 238.966L472.959 242.343L474.018 247.497L475.077 254.647L477.724 276.316L483.549 325.891L489.373 379.937L490.433 386.83L491.492 392.232L492.551 396.521L493.61 399.89L494.669 402.515L496.257 405.531L497.316 407.017L498.375 408.044L499.434 408.663L501.023 409.151L504.729 409.855L507.377 410.083L511.613 410.053L516.908 410.108L517.967 410.111" stroke="#EFEFEF" stroke-linecap="square"/>
</g>
<mask id="mask7_230_14878" style="mask-type:luminance" maskUnits="userSpaceOnUse" x="76" y="55" width="477" height="356">
<path d="M552.957 55.2959H76.7969V410.112H552.957V55.2959Z" fill="white"/>
</mask>
<g mask="url(#mask7_230_14878)">
<path d="M398.609 410.111L411.795 409.958L422.583 408.588L424.381 408.086L426.179 407.232L427.377 406.408L429.175 404.733L431.573 402.039L433.371 399.545L434.569 397.424L435.768 394.867L436.967 391.737L438.165 387.873L439.963 380.873L442.361 370.328L444.159 361.012L445.357 353.407L447.155 339.704L449.553 321.203L451.351 309.849L454.947 288.139L457.344 273.45L458.543 267.668L459.741 263.679L460.94 261.228L464.536 255.935L465.735 254.934L466.334 254.736L467.533 254.785L468.731 255.346L469.331 255.907L469.93 256.749L470.529 257.939L471.728 261.511L472.927 266.511L475.324 278.445L478.321 294.716L480.718 307.494L481.917 312.652L483.715 318.817L486.112 326.664L489.109 337.204L490.907 343.458L492.105 348.86L494.503 362.128L496.9 374.973L499.897 389.442L501.695 396.518L502.893 400.085L504.092 402.766L505.291 404.754L506.489 406.267L508.287 407.94L510.085 409.039L511.883 409.669L513.681 409.977L516.678 410.105L517.877 410.11" fill="#EFEFEF" fill-opacity="0.4"/>
<path d="M398.609 410.111L411.795 409.958L422.583 408.588L424.381 408.086L426.179 407.232L427.377 406.408L429.175 404.733L431.573 402.039L433.371 399.545L434.569 397.424L435.768 394.867L436.967 391.737L438.165 387.873L439.963 380.873L442.361 370.328L444.159 361.012L445.357 353.407L447.155 339.704L449.553 321.203L451.351 309.849L454.947 288.139L457.344 273.45L458.543 267.668L459.741 263.679L460.94 261.228L464.536 255.935L465.735 254.934L466.334 254.736L467.533 254.785L468.731 255.346L469.331 255.907L469.93 256.749L470.529 257.939L471.728 261.511L472.927 266.511L475.324 278.445L478.321 294.716L480.718 307.494L481.917 312.652L483.715 318.817L486.112 326.664L489.109 337.204L490.907 343.458L492.105 348.86L494.503 362.128L496.9 374.973L499.897 389.442L501.695 396.518L502.893 400.085L504.092 402.766L505.291 404.754L506.489 406.267L508.287 407.94L510.085 409.039L511.883 409.669L513.681 409.977L516.678 410.105L517.877 410.11" stroke="#EFEFEF" stroke-linecap="square"/>
</g>
<mask id="mask8_230_14878" style="mask-type:luminance" maskUnits="userSpaceOnUse" x="76" y="55" width="477" height="356">
<path d="M552.957 55.2959H76.7969V410.112H552.957V55.2959Z" fill="white"/>
</mask>
<g mask="url(#mask8_230_14878)">
<path d="M418.258 410.111L422.773 409.965L425.595 409.85L428.982 409.877L433.497 409.596L439.141 408.341L440.835 408.049L442.528 407.29L444.785 405.822L445.914 404.801L447.608 402.775L449.301 400.343L450.43 398.317L451.559 395.541L452.687 391.922L454.945 383.273L457.203 373.451L458.332 367.161L459.46 358.858L461.154 343.24L466.233 292.983L469.62 260.978L470.749 253.508L471.878 248.285L474.7 237.535L476.393 230.264L477.522 226.912L478.651 224.942L479.779 223.16L480.908 220.613L482.602 215.977L483.166 214.857L483.73 214.258L484.295 214.284L484.859 214.962L485.424 216.274L485.988 218.19L487.117 223.634L488.246 230.736L489.375 239.584L490.503 251.189L493.325 286.808L496.148 324.72L497.841 345.467L499.534 362.554L500.663 371.811L501.792 379.31L502.921 385.318L504.614 392.791L506.307 399.141L507.436 402.157L508.565 404.135L510.258 406.118L511.951 407.678L513.645 408.799L515.338 409.532L517.031 409.882L520.982 410.057L524.933 410.042L530.577 410.111" fill="#EFEFEF" fill-opacity="0.4"/>
<path d="M418.258 410.111L422.773 409.965L425.595 409.85L428.982 409.877L433.497 409.596L439.141 408.341L440.835 408.049L442.528 407.29L444.785 405.822L445.914 404.801L447.608 402.775L449.301 400.343L450.43 398.317L451.559 395.541L452.687 391.922L454.945 383.273L457.203 373.451L458.332 367.161L459.46 358.858L461.154 343.24L466.233 292.983L469.62 260.978L470.749 253.508L471.878 248.285L474.7 237.535L476.393 230.264L477.522 226.912L478.651 224.942L479.779 223.16L480.908 220.613L482.602 215.977L483.166 214.857L483.73 214.258L484.295 214.284L484.859 214.962L485.424 216.274L485.988 218.19L487.117 223.634L488.246 230.736L489.375 239.584L490.503 251.189L493.325 286.808L496.148 324.72L497.841 345.467L499.534 362.554L500.663 371.811L501.792 379.31L502.921 385.318L504.614 392.791L506.307 399.141L507.436 402.157L508.565 404.135L510.258 406.118L511.951 407.678L513.645 408.799L515.338 409.532L517.031 409.882L520.982 410.057L524.933 410.042L530.577 410.111" stroke="#EFEFEF" stroke-linecap="square"/>
</g>
<mask id="mask9_230_14878" style="mask-type:luminance" maskUnits="userSpaceOnUse" x="76" y="55" width="477" height="356">
<path d="M552.957 55.2959H76.7969V410.112H552.957V55.2959Z" fill="white"/>
</mask>
<g mask="url(#mask9_230_14878)">
<path d="M384.742 410.111L391.578 409.962L397.17 409.584L399.034 409.148L400.277 408.873L403.384 408.531L405.248 407.685L407.112 406.405L408.355 405.567L409.598 405.096L410.841 404.799L412.083 404.106L413.948 402.343L417.676 398.352L418.919 396.303L420.162 393.558L422.647 386.994L423.89 383.175L425.133 378.434L425.754 375.396L426.376 371.532L427.618 360.555L429.483 338.759L430.725 321.528L431.968 297.805L433.211 267.21L436.939 168.683L438.803 126.904L440.046 106.079L440.668 98.9588L441.289 94.6488L441.91 93.6523L442.532 96.1129L443.153 101.637L444.396 118.777L445.639 140.417L446.882 166.725L451.231 270.825L452.474 293.558L453.717 312.183L454.96 326.854L457.445 351.53L459.309 366.707L461.174 380.365L462.416 387.204L463.038 389.378L463.659 390.848L466.766 395.856L468.009 397.527L469.873 399.161L472.359 402.239L474.223 403.436L475.466 403.988L477.951 404.543L484.165 407.781L486.651 408.616L487.894 408.697L489.758 408.748L494.107 409.677L496.593 409.705L499.079 409.844L505.293 410.006L508.399 410.111" fill="#EFEFEF" fill-opacity="0.4"/>
<path d="M384.742 410.111L391.578 409.962L397.17 409.584L399.034 409.148L400.277 408.873L403.384 408.531L405.248 407.685L407.112 406.405L408.355 405.567L409.598 405.096L410.841 404.799L412.083 404.106L413.948 402.343L417.676 398.352L418.919 396.303L420.162 393.558L422.647 386.994L423.89 383.175L425.133 378.434L425.754 375.396L426.376 371.532L427.618 360.555L429.483 338.759L430.725 321.528L431.968 297.805L433.211 267.21L436.939 168.683L438.803 126.904L440.046 106.079L440.668 98.9588L441.289 94.6488L441.91 93.6523L442.532 96.1129L443.153 101.637L444.396 118.777L445.639 140.417L446.882 166.725L451.231 270.825L452.474 293.558L453.717 312.183L454.96 326.854L457.445 351.53L459.309 366.707L461.174 380.365L462.416 387.204L463.038 389.378L463.659 390.848L466.766 395.856L468.009 397.527L469.873 399.161L472.359 402.239L474.223 403.436L475.466 403.988L477.951 404.543L484.165 407.781L486.651 408.616L487.894 408.697L489.758 408.748L494.107 409.677L496.593 409.705L499.079 409.844L505.293 410.006L508.399 410.111" stroke="#EFEFEF" stroke-linecap="square"/>
</g>
<mask id="mask10_230_14878" style="mask-type:luminance" maskUnits="userSpaceOnUse" x="76" y="55" width="477" height="356">
<path d="M552.957 55.2959H76.7969V410.112H552.957V55.2959Z" fill="white"/>
</mask>
<g mask="url(#mask10_230_14878)">
<path d="M416.062 410.111L428.225 409.963L437.491 409.403L439.808 409.24L441.545 408.795L445.02 407.526L446.179 406.843L447.337 405.808L450.812 401.868L451.97 400.249L453.129 398.153L454.287 395.491L455.445 391.868L456.604 386.743L458.341 376.706L461.237 358.415L465.291 328.138L468.766 300.848L471.662 279.864L474.557 255.573L476.295 244.829L477.453 237.407L478.611 227.636L480.928 206.333L481.507 202.927L482.086 200.791L482.666 199.795L484.403 198.991L486.141 196.58L486.72 197.152L487.299 199.1L487.878 202.391L489.036 212.11L490.774 231.398L494.249 274.024L496.565 302.984L501.778 361.648L502.936 371.822L504.094 379.202L505.253 384.112L506.99 389.319L508.728 394.625L510.465 400.074L511.623 402.737L512.782 404.463L513.94 405.637L515.098 406.491L516.836 407.361L522.048 409.64L523.786 409.93L526.682 410.031L531.315 410.111" fill="#EFEFEF" fill-opacity="0.4"/>
<path d="M416.062 410.111L428.225 409.963L437.491 409.403L439.808 409.24L441.545 408.795L445.02 407.526L446.179 406.843L447.337 405.808L450.812 401.868L451.97 400.249L453.129 398.153L454.287 395.491L455.445 391.868L456.604 386.743L458.341 376.706L461.237 358.415L465.291 328.138L468.766 300.848L471.662 279.864L474.557 255.573L476.295 244.829L477.453 237.407L478.611 227.636L480.928 206.333L481.507 202.927L482.086 200.791L482.666 199.795L484.403 198.991L486.141 196.58L486.72 197.152L487.299 199.1L487.878 202.391L489.036 212.11L490.774 231.398L494.249 274.024L496.565 302.984L501.778 361.648L502.936 371.822L504.094 379.202L505.253 384.112L506.99 389.319L508.728 394.625L510.465 400.074L511.623 402.737L512.782 404.463L513.94 405.637L515.098 406.491L516.836 407.361L522.048 409.64L523.786 409.93L526.682 410.031L531.315 410.111" stroke="#EFEFEF" stroke-linecap="square"/>
</g>
<mask id="mask11_230_14878" style="mask-type:luminance" maskUnits="userSpaceOnUse" x="76" y="55" width="477" height="356">
<path d="M552.957 55.2959H76.7969V410.112H552.957V55.2959Z" fill="white"/>
</mask>
<g mask="url(#mask11_230_14878)">
<path d="M405.812 410.112L424.967 409.929L432.854 409.196L433.981 408.768L435.671 407.737L437.924 406.058L439.051 404.876L440.178 402.871L441.304 399.72L442.431 395.579L444.121 387.993L445.248 381.646L446.938 369.739L448.628 355.141L449.755 343.275L451.445 321.968L454.825 277.313L457.642 246.236L459.332 229.764L460.459 221.449L461.585 216.199L463.275 211.058L464.402 208.567L464.965 207.88L465.529 207.55L466.656 207.426L467.782 207.504L468.346 207.793L468.909 208.527L469.472 209.951L470.036 212.236L471.162 219.293L476.233 257.833L477.359 264.192L479.049 273.176L480.176 281.919L481.303 294.032L484.12 326.496L485.81 342.76L487.5 355.87L490.88 379.736L492.007 385.144L493.134 388.568L498.204 399.673L499.894 402.525L501.584 404.951L503.274 406.75L504.964 408.082L506.654 409.007L508.344 409.512L510.034 409.668L513.415 409.806L516.231 410.088L517.921 410.111" fill="#EFEFEF" fill-opacity="0.4"/>
<path d="M405.812 410.112L424.967 409.929L432.854 409.196L433.981 408.768L435.671 407.737L437.924 406.058L439.051 404.876L440.178 402.871L441.304 399.72L442.431 395.579L444.121 387.993L445.248 381.646L446.938 369.739L448.628 355.141L449.755 343.275L451.445 321.968L454.825 277.313L457.642 246.236L459.332 229.764L460.459 221.449L461.585 216.199L463.275 211.058L464.402 208.567L464.965 207.88L465.529 207.55L466.656 207.426L467.782 207.504L468.346 207.793L468.909 208.527L469.472 209.951L470.036 212.236L471.162 219.293L476.233 257.833L477.359 264.192L479.049 273.176L480.176 281.919L481.303 294.032L484.12 326.496L485.81 342.76L487.5 355.87L490.88 379.736L492.007 385.144L493.134 388.568L498.204 399.673L499.894 402.525L501.584 404.951L503.274 406.75L504.964 408.082L506.654 409.007L508.344 409.512L510.034 409.668L513.415 409.806L516.231 410.088L517.921 410.111" stroke="#EFEFEF" stroke-linecap="square"/>
</g>
<mask id="mask12_230_14878" style="mask-type:luminance" maskUnits="userSpaceOnUse" x="76" y="55" width="477" height="356">
<path d="M552.957 55.2959H76.7969V410.112H552.957V55.2959Z" fill="white"/>
</mask>
<g mask="url(#mask12_230_14878)">
<path d="M421.648 410.111L425.6 409.972L430.045 409.521L435.479 408.427L437.455 407.592L438.442 406.926L439.924 405.434L441.9 402.869L442.888 401.147L443.876 398.879L444.864 395.979L446.346 390.453L448.321 381.582L449.803 373.853L451.285 364.15L452.767 351.809L454.249 337.05L455.73 319.656L463.633 217.443L466.103 191.423L467.091 185.136L467.585 183.366L468.079 182.352L468.573 181.924L469.067 181.92L469.561 182.213L470.055 182.732L470.549 183.491L471.043 184.577L471.537 186.099L472.524 190.521L474.006 199.087L474.994 206.174L476.476 220.236L477.958 236.695L479.44 257.235L481.415 284.306L483.391 306.031L487.343 345.237L489.812 363.938L491.294 373.62L492.282 378.386L496.728 396.189L498.703 401.229L500.185 404.371L501.173 405.717L502.161 406.577L503.643 407.432L508.088 409.547L510.064 409.859L512.534 409.999L518.461 410.101L519.943 410.111" fill="#EFEFEF" fill-opacity="0.4"/>
<path d="M421.648 410.111L425.6 409.972L430.045 409.521L435.479 408.427L437.455 407.592L438.442 406.926L439.924 405.434L441.9 402.869L442.888 401.147L443.876 398.879L444.864 395.979L446.346 390.453L448.321 381.582L449.803 373.853L451.285 364.15L452.767 351.809L454.249 337.05L455.73 319.656L463.633 217.443L466.103 191.423L467.091 185.136L467.585 183.366L468.079 182.352L468.573 181.924L469.067 181.92L469.561 182.213L470.055 182.732L470.549 183.491L471.043 184.577L471.537 186.099L472.524 190.521L474.006 199.087L474.994 206.174L476.476 220.236L477.958 236.695L479.44 257.235L481.415 284.306L483.391 306.031L487.343 345.237L489.812 363.938L491.294 373.62L492.282 378.386L496.728 396.189L498.703 401.229L500.185 404.371L501.173 405.717L502.161 406.577L503.643 407.432L508.088 409.547L510.064 409.859L512.534 409.999L518.461 410.101L519.943 410.111" stroke="#EFEFEF" stroke-linecap="square"/>
</g>
<mask id="mask13_230_14878" style="mask-type:luminance" maskUnits="userSpaceOnUse" x="76" y="55" width="477" height="356">
<path d="M552.957 55.2959H76.7969V410.112H552.957V55.2959Z" fill="white"/>
</mask>
<g mask="url(#mask13_230_14878)">
<path d="M379.156 410.111L384.948 409.97L391.463 409.572L398.702 408.554L400.874 407.816L403.045 406.84L404.493 405.953L406.665 404.219L411.008 400.438L412.456 398.612L414.628 395.173L417.524 390.072L419.695 385.66L421.867 380.588L423.315 376.426L424.763 371.146L426.211 364.422L427.658 356.227L429.83 341.864L434.174 310.211L437.069 290.076L439.241 277.591L442.861 259.993L444.308 253.752L445.756 248.919L447.204 245.387L447.928 244.282L448.652 243.797L449.376 243.992L450.1 244.821L450.824 246.158L452.271 249.786L454.443 256.46L455.891 261.718L457.339 268.2L458.787 276.338L461.682 295.35L468.198 339.802L470.369 352.426L471.817 359.014L478.332 383.505L479.78 387.715L481.228 391.199L482.676 394.074L484.848 397.678L486.295 399.69L487.743 401.255L490.639 404.063L493.535 407.319L494.982 408.35L496.43 408.939L498.602 409.457L502.221 409.958L505.117 410.078L523.215 410.112" fill="#EFEFEF" fill-opacity="0.4"/>
<path d="M379.156 410.111L384.948 409.97L391.463 409.572L398.702 408.554L400.874 407.816L403.045 406.84L404.493 405.953L406.665 404.219L411.008 400.438L412.456 398.612L414.628 395.173L417.524 390.072L419.695 385.66L421.867 380.588L423.315 376.426L424.763 371.146L426.211 364.422L427.658 356.227L429.83 341.864L434.174 310.211L437.069 290.076L439.241 277.591L442.861 259.993L444.308 253.752L445.756 248.919L447.204 245.387L447.928 244.282L448.652 243.797L449.376 243.992L450.1 244.821L450.824 246.158L452.271 249.786L454.443 256.46L455.891 261.718L457.339 268.2L458.787 276.338L461.682 295.35L468.198 339.802L470.369 352.426L471.817 359.014L478.332 383.505L479.78 387.715L481.228 391.199L482.676 394.074L484.848 397.678L486.295 399.69L487.743 401.255L490.639 404.063L493.535 407.319L494.982 408.35L496.43 408.939L498.602 409.457L502.221 409.958L505.117 410.078L523.215 410.112" stroke="#EFEFEF" stroke-linecap="square"/>
</g>
<mask id="mask14_230_14878" style="mask-type:luminance" maskUnits="userSpaceOnUse" x="76" y="55" width="477" height="356">
<path d="M552.957 55.2959H76.7969V410.112H552.957V55.2959Z" fill="white"/>
</mask>
<g mask="url(#mask14_230_14878)">
<path d="M98.4375 410.111L147.294 410.112L380.953 409.97L389.449 409.846L391.574 409.885L393.698 409.755L397.946 409.061L400.07 408.682L402.194 408.481L406.443 408.311L412.815 407.042L419.188 405.024L421.312 403.45L425.56 398.45L427.685 395.577L429.809 392.368L431.933 388.16L434.057 383.317L436.181 378.896L438.305 373.874L440.43 367.208L442.554 358.904L446.802 339.744L448.926 331.093L451.05 321.776L453.175 310.181L455.299 295.83L459.547 264.538L461.671 252.714L463.796 244.37L465.92 239.342L468.044 239.097L470.168 243.113L472.292 249.765L474.416 260.174L476.541 274.792L478.665 291.505L482.913 327.927L485.037 342.936L489.286 368.106L491.41 379.417L493.534 388.545L495.658 395.057L497.782 399.764L499.907 403.466L502.031 406.23L504.155 407.923L506.279 408.835L508.403 409.437L510.527 409.771L516.9 410.074L521.148 410.111" fill="#7EB0D5" fill-opacity="0.4"/>
<path d="M98.4375 410.111L147.294 410.112L380.953 409.97L389.449 409.846L391.574 409.885L393.698 409.755L397.946 409.061L400.07 408.682L402.194 408.481L406.443 408.311L412.815 407.042L419.188 405.024L421.312 403.45L425.56 398.45L427.685 395.577L429.809 392.368L431.933 388.16L434.057 383.317L436.181 378.896L438.305 373.874L440.43 367.208L442.554 358.904L446.802 339.744L448.926 331.093L451.05 321.776L453.175 310.181L455.299 295.83L459.547 264.538L461.671 252.714L463.796 244.37L465.92 239.342L468.044 239.097L470.168 243.113L472.292 249.765L474.416 260.174L476.541 274.792L478.665 291.505L482.913 327.927L485.037 342.936L489.286 368.106L491.41 379.417L493.534 388.545L495.658 395.057L497.782 399.764L499.907 403.466L502.031 406.23L504.155 407.923L506.279 408.835L508.403 409.437L510.527 409.771L516.9 410.074L521.148 410.111" stroke="#7EB0D5" stroke-linecap="square"/>
</g>
<path d="M535.061 411.061C535.646 410.475 535.646 409.525 535.061 408.939L525.515 399.393C524.929 398.808 523.979 398.808 523.393 399.393C522.808 399.979 522.808 400.929 523.393 401.515L531.879 410L523.393 418.485C522.808 419.071 522.808 420.021 523.393 420.607C523.979 421.192 524.929 421.192 525.515 420.607L535.061 411.061ZM79 411.5H534V408.5H79V411.5Z" fill="black"/>
</g>
<defs>
<clipPath id="clip0_230_14878">
<rect width="614.4" height="460.8" fill="white"/>
</clipPath>
</defs>
</svg>
