<svg width="615" height="461" viewBox="0 0 615 461" fill="none" xmlns="http://www.w3.org/2000/svg">
<g clip-path="url(#clip0_230_14798)">
<mask id="mask0_230_14798" style="mask-type:luminance" maskUnits="userSpaceOnUse" x="76" y="55" width="477" height="356">
<path d="M552.957 55.2959H76.7969V410.112H552.957V55.2959Z" fill="white"/>
</mask>
<g mask="url(#mask0_230_14798)">
<path d="M388.055 410.111L391.892 409.964L395.091 409.806L398.289 409.735L400.847 409.618L402.766 409.462L404.046 409.103L405.325 408.38L406.604 407.112L407.883 405.366L409.163 403.029L409.802 401.425L410.442 399.36L411.082 396.699L412.361 389.317L413.64 379.676L414.919 368.217L417.478 340.856L418.757 325.611L420.676 297.997L427.073 200.987L428.352 187.893L429.631 178.274L431.55 166.366L432.19 163.397L432.829 161.708L433.469 161.568L434.109 162.837L434.748 165.1L436.027 171.51L437.307 180.674L439.226 198.381L441.784 225.706L445.622 270.459L447.541 295.292L450.099 323.048L452.658 348.494L453.937 358.443L455.856 370.56L457.775 381.255L459.054 387.153L460.334 391.311L462.253 395.752L464.172 399.82L465.451 401.922L466.73 403.639L468.009 404.919L471.847 408.057L473.766 408.92L475.045 409.255L476.964 409.361L480.162 409.348L484 409.862L488.478 410.026L514.063 410.103L515.342 410.111" fill="#EFEFEF" fill-opacity="0.4"/>
<path d="M388.055 410.111L391.892 409.964L395.091 409.806L398.289 409.735L400.847 409.618L402.766 409.462L404.046 409.103L405.325 408.38L406.604 407.112L407.883 405.366L409.163 403.029L409.802 401.425L410.442 399.36L411.082 396.699L412.361 389.317L413.64 379.676L414.919 368.217L417.478 340.856L418.757 325.611L420.676 297.997L427.073 200.987L428.352 187.893L429.631 178.274L431.55 166.366L432.19 163.397L432.829 161.708L433.469 161.568L434.109 162.837L434.748 165.1L436.027 171.51L437.307 180.674L439.226 198.381L441.784 225.706L445.622 270.459L447.541 295.292L450.099 323.048L452.658 348.494L453.937 358.443L455.856 370.56L457.775 381.255L459.054 387.153L460.334 391.311L462.253 395.752L464.172 399.82L465.451 401.922L466.73 403.639L468.009 404.919L471.847 408.057L473.766 408.92L475.045 409.255L476.964 409.361L480.162 409.348L484 409.862L488.478 410.026L514.063 410.103L515.342 410.111" stroke="#EFEFEF" stroke-linecap="square"/>
</g>
<mask id="mask1_230_14798" style="mask-type:luminance" maskUnits="userSpaceOnUse" x="76" y="55" width="477" height="356">
<path d="M552.957 55.2959H76.7969V410.112H552.957V55.2959Z" fill="white"/>
</mask>
<g mask="url(#mask1_230_14798)">
<path d="M364.672 410.11L375.99 409.93L381.65 409.119L383.064 408.29L383.772 407.684L385.187 405.845L388.016 401.621L388.724 400.263L389.431 398.423L390.138 395.849L390.846 392.387L392.261 382.81L393.675 370.034L395.09 352.879L396.505 330.783L398.627 291.667L401.457 228.922L403.579 180.139L404.994 146.71L406.409 120.938L407.824 100.113L408.531 93.321L409.238 90.5947L409.946 91.8068L410.653 95.704L411.361 101.093L412.068 107.67L412.775 115.784L414.19 137.809L415.605 166.973L421.264 296.967L422.679 321.719L424.094 341.699L425.509 357.463L426.924 368.276L429.046 379.861L430.461 386.211L431.875 391.11L432.583 393.022L433.29 394.372L433.998 395.182L435.412 396.121L436.12 396.872L438.242 400.655L438.95 401.341L441.072 402.535L444.609 405.141L446.024 405.229L446.731 405.252L448.146 405.706L451.683 407.112L454.512 407.658L457.342 408.762L463.709 409.704L465.831 409.923L467.953 409.851L470.783 409.615L474.32 409.73L477.857 409.979L480.686 409.985L483.516 410.006L487.761 410.111L505.446 410.11" fill="#EFEFEF" fill-opacity="0.4"/>
<path d="M364.672 410.11L375.99 409.93L381.65 409.119L383.064 408.29L383.772 407.684L385.187 405.845L388.016 401.621L388.724 400.263L389.431 398.423L390.138 395.849L390.846 392.387L392.261 382.81L393.675 370.034L395.09 352.879L396.505 330.783L398.627 291.667L401.457 228.922L403.579 180.139L404.994 146.71L406.409 120.938L407.824 100.113L408.531 93.321L409.238 90.5947L409.946 91.8068L410.653 95.704L411.361 101.093L412.068 107.67L412.775 115.784L414.19 137.809L415.605 166.973L421.264 296.967L422.679 321.719L424.094 341.699L425.509 357.463L426.924 368.276L429.046 379.861L430.461 386.211L431.875 391.11L432.583 393.022L433.29 394.372L433.998 395.182L435.412 396.121L436.12 396.872L438.242 400.655L438.95 401.341L441.072 402.535L444.609 405.141L446.024 405.229L446.731 405.252L448.146 405.706L451.683 407.112L454.512 407.658L457.342 408.762L463.709 409.704L465.831 409.923L467.953 409.851L470.783 409.615L474.32 409.73L477.857 409.979L480.686 409.985L483.516 410.006L487.761 410.111L505.446 410.11" stroke="#EFEFEF" stroke-linecap="square"/>
</g>
<mask id="mask2_230_14798" style="mask-type:luminance" maskUnits="userSpaceOnUse" x="76" y="55" width="477" height="356">
<path d="M552.957 55.2959H76.7969V410.112H552.957V55.2959Z" fill="white"/>
</mask>
<g mask="url(#mask2_230_14798)">
<path d="M372.039 410.111L381.746 409.971L383.986 409.633L387.719 408.678L389.213 408.026L390.706 407.036L391.453 406.328L392.946 404.259L394.439 401.406L395.933 398.043L396.679 395.999L397.426 393.443L398.173 390.176L399.666 381.274L401.159 369.941L402.653 357.094L404.146 341.619L405.639 322.449L407.88 288.693L411.613 230.384L413.106 210.807L414.6 196.164L415.346 190.999L416.093 187.108L416.84 184.309L417.586 182.651L418.333 182.409L419.08 183.789L419.826 186.629L424.306 209.371L425.053 214.072L426.546 226.72L433.266 293.486L436.253 318.538L438.493 335.438L439.987 344.424L442.227 355.89L445.213 369.408L446.707 374.751L449.693 384.112L451.933 391.721L453.427 395.513L454.92 398.398L456.413 400.539L457.16 401.257L460.147 403.313L463.134 406.875L463.88 407.423L465.374 407.925L468.36 408.494L472.84 409.869L475.827 409.975L480.307 409.977L507.934 410.105L520.628 410.111" fill="#EFEFEF" fill-opacity="0.4"/>
<path d="M372.039 410.111L381.746 409.971L383.986 409.633L387.719 408.678L389.213 408.026L390.706 407.036L391.453 406.328L392.946 404.259L394.439 401.406L395.933 398.043L396.679 395.999L397.426 393.443L398.173 390.176L399.666 381.274L401.159 369.941L402.653 357.094L404.146 341.619L405.639 322.449L407.88 288.693L411.613 230.384L413.106 210.807L414.6 196.164L415.346 190.999L416.093 187.108L416.84 184.309L417.586 182.651L418.333 182.409L419.08 183.789L419.826 186.629L424.306 209.371L425.053 214.072L426.546 226.72L433.266 293.486L436.253 318.538L438.493 335.438L439.987 344.424L442.227 355.89L445.213 369.408L446.707 374.751L449.693 384.112L451.933 391.721L453.427 395.513L454.92 398.398L456.413 400.539L457.16 401.257L460.147 403.313L463.134 406.875L463.88 407.423L465.374 407.925L468.36 408.494L472.84 409.869L475.827 409.975L480.307 409.977L507.934 410.105L520.628 410.111" stroke="#EFEFEF" stroke-linecap="square"/>
</g>
<mask id="mask3_230_14798" style="mask-type:luminance" maskUnits="userSpaceOnUse" x="76" y="55" width="477" height="356">
<path d="M552.957 55.2959H76.7969V410.112H552.957V55.2959Z" fill="white"/>
</mask>
<g mask="url(#mask3_230_14798)">
<path d="M384.562 410.11L391.132 409.945L394.051 409.768L397.701 409.812L399.89 409.231L401.35 408.684L402.08 408.253L403.54 406.788L406.459 403.228L407.189 401.705L407.919 399.45L409.379 393.325L411.569 383.443L412.298 379.54L413.028 374.634L413.758 368.415L415.218 351.646L417.408 318.76L419.597 283.612L421.787 243.718L423.247 216.27L426.166 168.932L427.626 142.259L428.356 132.545L429.086 125.926L429.816 122.552L430.546 122.302L431.276 124.537L432.006 128.655L433.465 140.932L436.385 168.348L437.845 191.131L440.034 231.516L442.224 275.437L443.684 297.447L448.063 350.32L449.523 363.96L450.983 375.261L451.713 380.084L452.443 383.896L453.902 389.02L456.092 396.361L457.552 401.278L458.282 403.049L459.012 404.162L461.201 406.185L462.661 407.138L467.04 409.063L468.5 409.234L471.42 409.384L475.069 409.966L477.259 410.01L486.018 410.055L490.397 410.111L502.805 409.976L504.265 409.916L509.374 410.111L529.811 410.11" fill="#EFEFEF" fill-opacity="0.4"/>
<path d="M384.562 410.11L391.132 409.945L394.051 409.768L397.701 409.812L399.89 409.231L401.35 408.684L402.08 408.253L403.54 406.788L406.459 403.228L407.189 401.705L407.919 399.45L409.379 393.325L411.569 383.443L412.298 379.54L413.028 374.634L413.758 368.415L415.218 351.646L417.408 318.76L419.597 283.612L421.787 243.718L423.247 216.27L426.166 168.932L427.626 142.259L428.356 132.545L429.086 125.926L429.816 122.552L430.546 122.302L431.276 124.537L432.006 128.655L433.465 140.932L436.385 168.348L437.845 191.131L440.034 231.516L442.224 275.437L443.684 297.447L448.063 350.32L449.523 363.96L450.983 375.261L451.713 380.084L452.443 383.896L453.902 389.02L456.092 396.361L457.552 401.278L458.282 403.049L459.012 404.162L461.201 406.185L462.661 407.138L467.04 409.063L468.5 409.234L471.42 409.384L475.069 409.966L477.259 410.01L486.018 410.055L490.397 410.111L502.805 409.976L504.265 409.916L509.374 410.111L529.811 410.11" stroke="#EFEFEF" stroke-linecap="square"/>
</g>
<mask id="mask4_230_14798" style="mask-type:luminance" maskUnits="userSpaceOnUse" x="76" y="55" width="477" height="356">
<path d="M552.957 55.2959H76.7969V410.112H552.957V55.2959Z" fill="white"/>
</mask>
<g mask="url(#mask4_230_14798)">
<path d="M384.445 410.111L387.902 410.006L390.667 409.601L396.197 408.445L396.888 407.993L398.27 406.548L399.653 404.493L401.727 400.777L403.109 397.957L404.492 394.487L405.874 389.959L407.257 384.043L408.639 376.685L410.022 367.313L411.404 355.4L414.169 330.689L415.552 317.971L416.934 302.684L421.082 250.041L424.538 208.111L425.921 195.911L427.303 186.755L427.994 183.146L428.686 180.507L429.377 179.016L430.068 178.479L431.451 178.058L432.142 177.677L432.833 177.935L433.524 179.789L434.216 183.695L435.598 196.065L441.82 261.982L445.276 300.078L448.041 329.567L450.115 352.41L451.497 364.453L452.88 373.159L454.953 383.218L456.336 388.857L458.41 395.822L459.792 399.4L461.175 401.957L463.248 404.831L464.631 406.435L466.013 407.543L466.705 407.782L470.161 408.167L472.926 409.058L474.309 409.248L477.765 409.472L480.53 409.729L487.442 410.015L490.207 410.061L494.355 410.087L502.65 410.112L522.005 410.111" fill="#EFEFEF" fill-opacity="0.4"/>
<path d="M384.445 410.111L387.902 410.006L390.667 409.601L396.197 408.445L396.888 407.993L398.27 406.548L399.653 404.493L401.727 400.777L403.109 397.957L404.492 394.487L405.874 389.959L407.257 384.043L408.639 376.685L410.022 367.313L411.404 355.4L414.169 330.689L415.552 317.971L416.934 302.684L421.082 250.041L424.538 208.111L425.921 195.911L427.303 186.755L427.994 183.146L428.686 180.507L429.377 179.016L430.068 178.479L431.451 178.058L432.142 177.677L432.833 177.935L433.524 179.789L434.216 183.695L435.598 196.065L441.82 261.982L445.276 300.078L448.041 329.567L450.115 352.41L451.497 364.453L452.88 373.159L454.953 383.218L456.336 388.857L458.41 395.822L459.792 399.4L461.175 401.957L463.248 404.831L464.631 406.435L466.013 407.543L466.705 407.782L470.161 408.167L472.926 409.058L474.309 409.248L477.765 409.472L480.53 409.729L487.442 410.015L490.207 410.061L494.355 410.087L502.65 410.112L522.005 410.111" stroke="#EFEFEF" stroke-linecap="square"/>
</g>
<mask id="mask5_230_14798" style="mask-type:luminance" maskUnits="userSpaceOnUse" x="76" y="55" width="477" height="356">
<path d="M552.957 55.2959H76.7969V410.112H552.957V55.2959Z" fill="white"/>
</mask>
<g mask="url(#mask5_230_14798)">
<path d="M388.969 410.11L393.26 409.964L398.267 409.897L401.129 409.898L402.559 409.523L403.99 408.681L405.42 407.488L406.851 405.817L407.566 404.583L408.281 402.912L408.997 400.735L410.427 394.898L411.858 386.836L413.288 375.641L414.719 361.049L416.865 334.019L421.157 273.882L424.018 232.377L425.448 215.866L426.879 203.2L428.309 192.977L429.74 184.94L430.455 181.995L431.171 179.972L431.886 179.118L432.601 179.667L433.316 181.695L434.032 185.069L435.462 194.531L439.039 222.008L441.185 242.17L446.907 299.671L454.775 357.154L456.206 365.247L457.636 372.093L459.067 377.642L460.497 381.934L463.358 390.114L465.504 397.003L466.22 398.659L467.65 400.834L469.796 403.196L471.227 404.406L473.372 405.807L475.518 406.831L477.664 407.698L479.81 408.893L481.241 409.244L484.102 409.498L486.963 409.908L491.97 410.08L498.407 410.024L502.699 409.992L506.991 410.035L510.567 410.058L514.144 409.969L522.012 410.108L531.311 410.111" fill="#EFEFEF" fill-opacity="0.4"/>
<path d="M388.969 410.11L393.26 409.964L398.267 409.897L401.129 409.898L402.559 409.523L403.99 408.681L405.42 407.488L406.851 405.817L407.566 404.583L408.281 402.912L408.997 400.735L410.427 394.898L411.858 386.836L413.288 375.641L414.719 361.049L416.865 334.019L421.157 273.882L424.018 232.377L425.448 215.866L426.879 203.2L428.309 192.977L429.74 184.94L430.455 181.995L431.171 179.972L431.886 179.118L432.601 179.667L433.316 181.695L434.032 185.069L435.462 194.531L439.039 222.008L441.185 242.17L446.907 299.671L454.775 357.154L456.206 365.247L457.636 372.093L459.067 377.642L460.497 381.934L463.358 390.114L465.504 397.003L466.22 398.659L467.65 400.834L469.796 403.196L471.227 404.406L473.372 405.807L475.518 406.831L477.664 407.698L479.81 408.893L481.241 409.244L484.102 409.498L486.963 409.908L491.97 410.08L498.407 410.024L502.699 409.992L506.991 410.035L510.567 410.058L514.144 409.969L522.012 410.108L531.311 410.111" stroke="#EFEFEF" stroke-linecap="square"/>
</g>
<mask id="mask6_230_14798" style="mask-type:luminance" maskUnits="userSpaceOnUse" x="76" y="55" width="477" height="356">
<path d="M552.957 55.2959H76.7969V410.112H552.957V55.2959Z" fill="white"/>
</mask>
<g mask="url(#mask6_230_14798)">
<path d="M375.172 410.111L379.643 409.965L382.624 409.941L384.859 409.989L390.075 409.391L391.566 408.957L396.036 407.05L396.782 406.345L398.272 404.003L400.507 400.218L401.253 398.502L401.998 396.188L407.959 372.566L408.704 368.579L410.195 358.053L412.43 339.017L413.92 324.619L415.411 307.328L416.901 286.858L419.882 244.082L422.117 214.571L424.353 190.817L426.588 171.868L428.079 160.911L428.824 156.845L429.569 153.872L430.314 151.758L431.059 150.637L431.804 151.182L432.55 154.114L433.295 159.67L434.04 167.538L437.021 206.883L438.511 229.459L440.746 271.619L442.982 312.001L445.217 347.49L446.708 365.388L447.453 372.104L448.198 377.264L451.179 392.715L452.669 399.258L453.414 401.448L454.159 403.024L454.904 404.182L455.65 405.024L459.375 407.82L460.121 408.137L461.611 408.444L463.846 409.183L479.495 410.001L485.456 410.112L523.46 410.111" fill="#EFEFEF" fill-opacity="0.4"/>
<path d="M375.172 410.111L379.643 409.965L382.624 409.941L384.859 409.989L390.075 409.391L391.566 408.957L396.036 407.05L396.782 406.345L398.272 404.003L400.507 400.218L401.253 398.502L401.998 396.188L407.959 372.566L408.704 368.579L410.195 358.053L412.43 339.017L413.92 324.619L415.411 307.328L416.901 286.858L419.882 244.082L422.117 214.571L424.353 190.817L426.588 171.868L428.079 160.911L428.824 156.845L429.569 153.872L430.314 151.758L431.059 150.637L431.804 151.182L432.55 154.114L433.295 159.67L434.04 167.538L437.021 206.883L438.511 229.459L440.746 271.619L442.982 312.001L445.217 347.49L446.708 365.388L447.453 372.104L448.198 377.264L451.179 392.715L452.669 399.258L453.414 401.448L454.159 403.024L454.904 404.182L455.65 405.024L459.375 407.82L460.121 408.137L461.611 408.444L463.846 409.183L479.495 410.001L485.456 410.112L523.46 410.111" stroke="#EFEFEF" stroke-linecap="square"/>
</g>
<mask id="mask7_230_14798" style="mask-type:luminance" maskUnits="userSpaceOnUse" x="76" y="55" width="477" height="356">
<path d="M552.957 55.2959H76.7969V410.112H552.957V55.2959Z" fill="white"/>
</mask>
<g mask="url(#mask7_230_14798)">
<path d="M370.109 410.111L377.166 409.952L381.015 409.67L384.222 409.242L386.788 409.086L388.712 408.599L391.92 407.335L393.203 406.496L394.486 405.205L395.769 403.468L398.335 399.26L401.542 393.375L403.466 389.036L409.881 372.244L411.164 367.393L412.447 361.021L416.938 336.715L418.862 328.846L420.786 320.904L422.711 311.419L424.635 300.523L426.56 287.31L428.484 274.129L433.616 242.225L434.258 239.719L434.899 238.078L435.541 237.156L436.824 236.351L437.465 235.924L438.748 234.508L440.031 233.17L440.672 233.005L441.314 233.306L441.955 234.037L443.238 236.33L446.446 243.225L447.729 246.935L448.37 249.533L449.012 252.872L450.295 262.11L451.578 274.334L453.502 296.241L456.709 334.611L458.634 353.086L461.2 374.443L462.483 383.096L463.766 389.846L465.049 394.954L466.332 398.804L467.615 401.738L468.898 404.001L470.181 405.672L471.464 406.795L473.388 407.897L475.954 409.121L477.878 409.639L480.444 409.832L488.142 409.979L492.632 410.002L497.764 410.111" fill="#EFEFEF" fill-opacity="0.4"/>
<path d="M370.109 410.111L377.166 409.952L381.015 409.67L384.222 409.242L386.788 409.086L388.712 408.599L391.92 407.335L393.203 406.496L394.486 405.205L395.769 403.468L398.335 399.26L401.542 393.375L403.466 389.036L409.881 372.244L411.164 367.393L412.447 361.021L416.938 336.715L418.862 328.846L420.786 320.904L422.711 311.419L424.635 300.523L426.56 287.31L428.484 274.129L433.616 242.225L434.258 239.719L434.899 238.078L435.541 237.156L436.824 236.351L437.465 235.924L438.748 234.508L440.031 233.17L440.672 233.005L441.314 233.306L441.955 234.037L443.238 236.33L446.446 243.225L447.729 246.935L448.37 249.533L449.012 252.872L450.295 262.11L451.578 274.334L453.502 296.241L456.709 334.611L458.634 353.086L461.2 374.443L462.483 383.096L463.766 389.846L465.049 394.954L466.332 398.804L467.615 401.738L468.898 404.001L470.181 405.672L471.464 406.795L473.388 407.897L475.954 409.121L477.878 409.639L480.444 409.832L488.142 409.979L492.632 410.002L497.764 410.111" stroke="#EFEFEF" stroke-linecap="square"/>
</g>
<mask id="mask8_230_14798" style="mask-type:luminance" maskUnits="userSpaceOnUse" x="76" y="55" width="477" height="356">
<path d="M552.957 55.2959H76.7969V410.112H552.957V55.2959Z" fill="white"/>
</mask>
<g mask="url(#mask8_230_14798)">
<path d="M392.625 410.111L399.008 409.97L400.749 409.772L402.49 409.269L404.812 408.209L407.133 406.865L408.874 405.62L410.035 404.352L410.615 403.393L411.775 400.596L412.936 396.773L414.677 389.725L415.838 383.928L417.579 373.392L419.9 356.651L427.444 299.811L431.506 270.539L436.149 231.123L437.309 223.149L438.47 216.737L439.631 211.718L443.113 199.449L443.693 197.679L444.273 196.709L444.854 196.91L445.434 198.404L446.594 204.244L448.916 218.548L450.076 227.771L452.978 255.326L454.719 274.835L459.942 339.733L461.683 355.089L464.004 372.803L465.165 380.32L466.325 386.067L467.486 389.992L468.646 392.693L470.968 397.779L472.709 401.587L473.869 403.588L475.03 404.983L476.191 405.857L482.574 409.467L483.735 409.721L486.056 409.714L488.377 409.849L490.699 410.014L508.108 410.111" fill="#EFEFEF" fill-opacity="0.4"/>
<path d="M392.625 410.111L399.008 409.97L400.749 409.772L402.49 409.269L404.812 408.209L407.133 406.865L408.874 405.62L410.035 404.352L410.615 403.393L411.775 400.596L412.936 396.773L414.677 389.725L415.838 383.928L417.579 373.392L419.9 356.651L427.444 299.811L431.506 270.539L436.149 231.123L437.309 223.149L438.47 216.737L439.631 211.718L443.113 199.449L443.693 197.679L444.273 196.709L444.854 196.91L445.434 198.404L446.594 204.244L448.916 218.548L450.076 227.771L452.978 255.326L454.719 274.835L459.942 339.733L461.683 355.089L464.004 372.803L465.165 380.32L466.325 386.067L467.486 389.992L468.646 392.693L470.968 397.779L472.709 401.587L473.869 403.588L475.03 404.983L476.191 405.857L482.574 409.467L483.735 409.721L486.056 409.714L488.377 409.849L490.699 410.014L508.108 410.111" stroke="#EFEFEF" stroke-linecap="square"/>
</g>
<mask id="mask9_230_14798" style="mask-type:luminance" maskUnits="userSpaceOnUse" x="76" y="55" width="477" height="356">
<path d="M552.957 55.2959H76.7969V410.112H552.957V55.2959Z" fill="white"/>
</mask>
<g mask="url(#mask9_230_14798)">
<path d="M364.109 410.111L375.409 409.929L380.726 409.343L384.05 408.142L385.379 407.215L388.038 404.69L388.702 403.796L389.367 402.517L390.032 400.708L390.696 398.249L392.026 391.53L393.355 383.152L394.684 371.551L396.014 355.809L397.343 335.776L398.672 308.343L400.666 256.684L405.319 134.296L406.648 106.104L407.978 85.0989L408.642 78.3858L409.307 74.1584L409.972 72.1924L410.636 72.3362L411.301 74.4899L411.966 78.9091L412.63 86.5477L413.295 98.1759L415.954 160.278L421.271 288.757L422.6 316.022L423.93 335.478L425.924 356.818L427.253 369.613L427.918 374.73L429.247 381.745L431.241 391.015L432.571 396.957L433.235 399.004L433.9 400.36L434.565 401.209L435.894 402.216L437.888 403.343L440.547 406.302L441.876 406.889L444.535 407.18L446.529 408.166L447.858 408.329L450.517 408.255L453.175 408.582L456.499 409.356L457.828 409.638L459.157 409.651L461.816 409.484L465.804 409.881L469.792 409.497L474.445 409.991L477.768 409.94L479.762 409.77L486.409 409.948L496.379 410.111" fill="#EFEFEF" fill-opacity="0.4"/>
<path d="M364.109 410.111L375.409 409.929L380.726 409.343L384.05 408.142L385.379 407.215L388.038 404.69L388.702 403.796L389.367 402.517L390.032 400.708L390.696 398.249L392.026 391.53L393.355 383.152L394.684 371.551L396.014 355.809L397.343 335.776L398.672 308.343L400.666 256.684L405.319 134.296L406.648 106.104L407.978 85.0989L408.642 78.3858L409.307 74.1584L409.972 72.1924L410.636 72.3362L411.301 74.4899L411.966 78.9091L412.63 86.5477L413.295 98.1759L415.954 160.278L421.271 288.757L422.6 316.022L423.93 335.478L425.924 356.818L427.253 369.613L427.918 374.73L429.247 381.745L431.241 391.015L432.571 396.957L433.235 399.004L433.9 400.36L434.565 401.209L435.894 402.216L437.888 403.343L440.547 406.302L441.876 406.889L444.535 407.18L446.529 408.166L447.858 408.329L450.517 408.255L453.175 408.582L456.499 409.356L457.828 409.638L459.157 409.651L461.816 409.484L465.804 409.881L469.792 409.497L474.445 409.991L477.768 409.94L479.762 409.77L486.409 409.948L496.379 410.111" stroke="#EFEFEF" stroke-linecap="square"/>
</g>
<mask id="mask10_230_14798" style="mask-type:luminance" maskUnits="userSpaceOnUse" x="76" y="55" width="477" height="356">
<path d="M552.957 55.2959H76.7969V410.112H552.957V55.2959Z" fill="white"/>
</mask>
<g mask="url(#mask10_230_14798)">
<path d="M384.797 410.111L390.125 409.956L396.636 409.643L399.596 409.212L401.964 408.492L403.148 407.959L404.332 407.157L405.516 405.985L406.7 404.362L407.884 402.096L409.068 399.154L410.844 393.886L412.028 389.425L413.804 380.739L415.58 370.716L417.356 358.664L419.724 342.047L421.5 330.385L422.684 320.833L425.051 298.46L429.787 252.741L430.971 243.869L432.155 237.625L433.339 232.504L433.931 229.344L434.523 225.287L435.707 214.202L438.075 189.207L438.667 184.92L439.259 181.924L439.851 180.142L440.443 179.345L441.035 179.277L441.627 179.801L442.219 180.987L442.811 183.094L443.403 186.447L443.995 191.276L445.179 205.11L451.099 286.714L452.874 305.838L455.242 327.809L457.018 341.932L459.386 357.225L461.162 367.022L462.938 374.703L465.306 383.425L468.266 393.067L469.45 396.117L470.634 398.394L473.002 401.922L474.778 404.246L475.962 405.402L477.146 406.213L481.881 408.447L483.657 409.062L486.025 409.47L491.945 410.105L502.601 410.111" fill="#EFEFEF" fill-opacity="0.4"/>
<path d="M384.797 410.111L390.125 409.956L396.636 409.643L399.596 409.212L401.964 408.492L403.148 407.959L404.332 407.157L405.516 405.985L406.7 404.362L407.884 402.096L409.068 399.154L410.844 393.886L412.028 389.425L413.804 380.739L415.58 370.716L417.356 358.664L419.724 342.047L421.5 330.385L422.684 320.833L425.051 298.46L429.787 252.741L430.971 243.869L432.155 237.625L433.339 232.504L433.931 229.344L434.523 225.287L435.707 214.202L438.075 189.207L438.667 184.92L439.259 181.924L439.851 180.142L440.443 179.345L441.035 179.277L441.627 179.801L442.219 180.987L442.811 183.094L443.403 186.447L443.995 191.276L445.179 205.11L451.099 286.714L452.874 305.838L455.242 327.809L457.018 341.932L459.386 357.225L461.162 367.022L462.938 374.703L465.306 383.425L468.266 393.067L469.45 396.117L470.634 398.394L473.002 401.922L474.778 404.246L475.962 405.402L477.146 406.213L481.881 408.447L483.657 409.062L486.025 409.47L491.945 410.105L502.601 410.111" stroke="#EFEFEF" stroke-linecap="square"/>
</g>
<mask id="mask11_230_14798" style="mask-type:luminance" maskUnits="userSpaceOnUse" x="76" y="55" width="477" height="356">
<path d="M552.957 55.2959H76.7969V410.112H552.957V55.2959Z" fill="white"/>
</mask>
<g mask="url(#mask11_230_14798)">
<path d="M374.773 410.111L385.363 409.951L387.632 409.599L390.657 408.732L392.17 407.86L393.683 406.509L395.195 404.745L395.952 403.522L396.708 401.899L397.465 399.806L398.977 394.27L400.49 386.968L401.246 382.335L402.003 376.665L402.759 369.659L404.272 351.12L405.785 326.945L407.297 297.335L409.566 242.734L411.079 207.517L411.836 193.447L412.592 182.438L413.348 174.536L414.105 169.543L414.861 167.061L415.617 166.539L416.374 167.39L417.13 169.119L418.643 174.007L420.156 180.096L421.668 187.896L423.181 198.092L425.45 215.599L426.963 229.449L429.232 255.317L434.527 317.183L436.039 329.571L438.308 344.394L440.578 357.671L442.847 368.846L444.359 375.106L445.872 379.952L447.385 383.409L448.898 386.343L449.654 387.531L451.167 389.115L452.679 390.488L454.192 392.415L456.461 395.409L457.974 396.79L464.781 402.541L467.807 406.286L469.32 407.247L470.832 407.751L474.614 408.783L476.127 409.143L478.396 409.206L480.665 409.357L485.96 409.955L494.28 409.933L496.549 409.908L501.087 409.976L509.407 410.07L516.214 410.105L525.291 410.111" fill="#EFEFEF" fill-opacity="0.4"/>
<path d="M374.773 410.111L385.363 409.951L387.632 409.599L390.657 408.732L392.17 407.86L393.683 406.509L395.195 404.745L395.952 403.522L396.708 401.899L397.465 399.806L398.977 394.27L400.49 386.968L401.246 382.335L402.003 376.665L402.759 369.659L404.272 351.12L405.785 326.945L407.297 297.335L409.566 242.734L411.079 207.517L411.836 193.447L412.592 182.438L413.348 174.536L414.105 169.543L414.861 167.061L415.617 166.539L416.374 167.39L417.13 169.119L418.643 174.007L420.156 180.096L421.668 187.896L423.181 198.092L425.45 215.599L426.963 229.449L429.232 255.317L434.527 317.183L436.039 329.571L438.308 344.394L440.578 357.671L442.847 368.846L444.359 375.106L445.872 379.952L447.385 383.409L448.898 386.343L449.654 387.531L451.167 389.115L452.679 390.488L454.192 392.415L456.461 395.409L457.974 396.79L464.781 402.541L467.807 406.286L469.32 407.247L470.832 407.751L474.614 408.783L476.127 409.143L478.396 409.206L480.665 409.357L485.96 409.955L494.28 409.933L496.549 409.908L501.087 409.976L509.407 410.07L516.214 410.105L525.291 410.111" stroke="#EFEFEF" stroke-linecap="square"/>
</g>
<mask id="mask12_230_14798" style="mask-type:luminance" maskUnits="userSpaceOnUse" x="76" y="55" width="477" height="356">
<path d="M552.957 55.2959H76.7969V410.112H552.957V55.2959Z" fill="white"/>
</mask>
<g mask="url(#mask12_230_14798)">
<path d="M382.977 410.111L393.984 409.956L396.047 409.754L397.423 409.4L399.487 408.525L400.863 407.703L402.239 406.361L403.615 404.193L404.99 401.014L406.366 396.694L407.742 391.518L409.118 384.663L410.494 374.601L411.87 361.776L413.934 339.549L415.997 313.509L418.749 276.586L420.125 258.781L422.877 218.69L424.253 205.084L425.629 196.085L426.316 192.85L427.004 190.412L428.38 187.245L429.756 185.051L430.444 184.692L431.132 185.53L431.82 187.98L432.508 192.032L433.884 203.121L440.763 265.65L442.139 277.866L448.33 326.406L451.082 348.507L452.458 356.698L457.274 382.354L458.649 387.018L461.401 395.004L462.777 397.737L466.217 403.32L467.593 405.409L468.968 406.762L471.032 408.113L472.408 408.758L473.784 409.055L479.287 409.61L481.351 409.445L483.415 409.724L485.479 409.964L488.231 409.93L490.982 409.906L496.486 410.034L510.932 410.064L519.876 410.111" fill="#EFEFEF" fill-opacity="0.4"/>
<path d="M382.977 410.111L393.984 409.956L396.047 409.754L397.423 409.4L399.487 408.525L400.863 407.703L402.239 406.361L403.615 404.193L404.99 401.014L406.366 396.694L407.742 391.518L409.118 384.663L410.494 374.601L411.87 361.776L413.934 339.549L415.997 313.509L418.749 276.586L420.125 258.781L422.877 218.69L424.253 205.084L425.629 196.085L426.316 192.85L427.004 190.412L428.38 187.245L429.756 185.051L430.444 184.692L431.132 185.53L431.82 187.98L432.508 192.032L433.884 203.121L440.763 265.65L442.139 277.866L448.33 326.406L451.082 348.507L452.458 356.698L457.274 382.354L458.649 387.018L461.401 395.004L462.777 397.737L466.217 403.32L467.593 405.409L468.968 406.762L471.032 408.113L472.408 408.758L473.784 409.055L479.287 409.61L481.351 409.445L483.415 409.724L485.479 409.964L488.231 409.93L490.982 409.906L496.486 410.034L510.932 410.064L519.876 410.111" stroke="#EFEFEF" stroke-linecap="square"/>
</g>
<mask id="mask13_230_14798" style="mask-type:luminance" maskUnits="userSpaceOnUse" x="76" y="55" width="477" height="356">
<path d="M552.957 55.2959H76.7969V410.112H552.957V55.2959Z" fill="white"/>
</mask>
<g mask="url(#mask13_230_14798)">
<path d="M357.344 410.111L367.446 409.968L369.971 409.87L372.497 409.9L375.864 409.75L377.548 409.687L381.757 408.853L383.44 408.653L384.282 408.332L385.966 407.117L389.333 404.314L391.017 402.159L391.859 400.884L392.7 399.265L393.542 397.087L395.226 391.49L396.909 385.151L398.593 376.964L400.277 366.904L401.119 361.035L401.96 354.013L403.644 335.655L408.695 269.009L412.062 219.274L413.746 199.051L415.43 181.634L416.271 175.061L417.113 170.769L417.955 168.603L418.797 167.812L419.639 167.915L420.481 169.109L421.322 171.644L423.848 182.699L424.69 187.755L425.531 195.306L427.215 217.185L429.741 256.396L431.424 281.583L433.108 300.764L436.475 330.517L439.001 356.402L440.684 369.465L442.368 379.326L444.052 386.657L446.577 396.397L448.261 401.283L449.944 405.077L450.786 406.417L451.628 407.307L452.47 407.761L454.995 408.206L457.521 409.092L460.888 409.329L464.255 409.521L467.623 409.963L470.99 409.813L474.357 409.697L477.724 409.871L481.934 410.008L486.143 410.085L490.352 410.069L497.086 410.112L524.867 410.111" fill="#EFEFEF" fill-opacity="0.4"/>
<path d="M357.344 410.111L367.446 409.968L369.971 409.87L372.497 409.9L375.864 409.75L377.548 409.687L381.757 408.853L383.44 408.653L384.282 408.332L385.966 407.117L389.333 404.314L391.017 402.159L391.859 400.884L392.7 399.265L393.542 397.087L395.226 391.49L396.909 385.151L398.593 376.964L400.277 366.904L401.119 361.035L401.96 354.013L403.644 335.655L408.695 269.009L412.062 219.274L413.746 199.051L415.43 181.634L416.271 175.061L417.113 170.769L417.955 168.603L418.797 167.812L419.639 167.915L420.481 169.109L421.322 171.644L423.848 182.699L424.69 187.755L425.531 195.306L427.215 217.185L429.741 256.396L431.424 281.583L433.108 300.764L436.475 330.517L439.001 356.402L440.684 369.465L442.368 379.326L444.052 386.657L446.577 396.397L448.261 401.283L449.944 405.077L450.786 406.417L451.628 407.307L452.47 407.761L454.995 408.206L457.521 409.092L460.888 409.329L464.255 409.521L467.623 409.963L470.99 409.813L474.357 409.697L477.724 409.871L481.934 410.008L486.143 410.085L490.352 410.069L497.086 410.112L524.867 410.111" stroke="#EFEFEF" stroke-linecap="square"/>
</g>
<mask id="mask14_230_14798" style="mask-type:luminance" maskUnits="userSpaceOnUse" x="76" y="55" width="477" height="356">
<path d="M552.957 55.2959H76.7969V410.112H552.957V55.2959Z" fill="white"/>
</mask>
<g mask="url(#mask14_230_14798)">
<path d="M98.4375 410.111L117.209 410.112L382.094 410.095L388.351 409.7L390.437 409.754L392.523 409.526L396.694 408.581L398.78 407.712L402.951 404.68L405.037 402.592L407.123 399.957L409.208 395.771L411.294 389.592L413.38 381.646L415.466 370.156L417.551 354.535L419.637 336.198L425.894 273.806L427.98 247.667L430.065 226.568L432.151 212.283L434.237 202.171L436.323 198.947L438.408 198.098L440.494 202.322L442.58 212.548L444.665 227.786L448.837 269.436L453.008 314.193L455.094 333.235L459.265 364.847L461.351 377.638L463.437 387.332L465.523 394.463L467.608 400.515L469.694 404.785L471.78 406.752L473.865 408.146L475.951 409.308L478.037 409.704L482.208 410.057L490.551 410.09L505.151 410.098L511.408 410.096L513.494 410.111" fill="#7EB0D5" fill-opacity="0.4"/>
<path d="M98.4375 410.111L117.209 410.112L382.094 410.095L388.351 409.7L390.437 409.754L392.523 409.526L396.694 408.581L398.78 407.712L402.951 404.68L405.037 402.592L407.123 399.957L409.208 395.771L411.294 389.592L413.38 381.646L415.466 370.156L417.551 354.535L419.637 336.198L425.894 273.806L427.98 247.667L430.065 226.568L432.151 212.283L434.237 202.171L436.323 198.947L438.408 198.098L440.494 202.322L442.58 212.548L444.665 227.786L448.837 269.436L453.008 314.193L455.094 333.235L459.265 364.847L461.351 377.638L463.437 387.332L465.523 394.463L467.608 400.515L469.694 404.785L471.78 406.752L473.865 408.146L475.951 409.308L478.037 409.704L482.208 410.057L490.551 410.09L505.151 410.098L511.408 410.096L513.494 410.111" stroke="#7EB0D5" stroke-linecap="square"/>
</g>
<path d="M535.061 411.061C535.646 410.475 535.646 409.525 535.061 408.939L525.515 399.393C524.929 398.808 523.979 398.808 523.393 399.393C522.808 399.979 522.808 400.929 523.393 401.515L531.879 410L523.393 418.485C522.808 419.071 522.808 420.021 523.393 420.607C523.979 421.192 524.929 421.192 525.515 420.607L535.061 411.061ZM79 411.5H534V408.5H79V411.5Z" fill="black"/>
</g>
<defs>
<clipPath id="clip0_230_14798">
<rect width="614.4" height="460.8" fill="white"/>
</clipPath>
</defs>
</svg>
