<svg width="615" height="461" viewBox="0 0 615 461" fill="none" xmlns="http://www.w3.org/2000/svg">
<g clip-path="url(#clip0_230_7838)">
<mask id="mask0_230_7838" style="mask-type:luminance" maskUnits="userSpaceOnUse" x="76" y="55" width="477" height="356">
<path d="M552.957 55.2959H76.7969V410.112H552.957V55.2959Z" fill="white"/>
</mask>
<g mask="url(#mask0_230_7838)">
<path d="M368.273 410.111L377.735 409.953L381.375 409.723L383.558 409.534L386.47 409.055L390.109 408.732L390.837 408.302L393.748 405.821L395.932 405.02L399.571 402.537L400.299 401.845L401.027 400.851L401.755 399.537L403.21 395.946L404.666 390.871L407.577 379.682L409.033 374.165L410.489 367.361L411.944 358.549L413.4 347.934L414.856 334.036L416.312 316.306L418.495 285.755L421.406 240.7L423.59 205.515L425.774 172.973L427.957 138.429L428.685 130.662L429.413 126.065L430.141 124.28L430.868 124.573L431.596 126.48L432.324 129.944L433.052 134.906L434.508 148.42L435.236 157.137L435.963 167.81L437.419 195.497L439.603 239.013L443.242 298.713L446.153 339.578L447.609 357.735L449.065 371.285L450.52 381.515L451.976 389.383L453.432 394.631L454.888 398.117L456.343 400.557L459.982 405.096L461.438 406.344L462.894 407.103L467.261 408.539L469.445 409.366L470.9 409.418L473.812 408.909L475.267 409.119L478.907 410.015L481.09 410.04L491.28 409.854L494.191 410.083L503.653 410.043L506.565 410.078L510.204 410.058L513.115 410.111" fill="#EFEFEF" fill-opacity="0.4"/>
<path d="M368.273 410.111L377.735 409.953L381.375 409.723L383.558 409.534L386.47 409.055L390.109 408.732L390.837 408.302L393.748 405.821L395.932 405.02L399.571 402.537L400.299 401.845L401.027 400.851L401.755 399.537L403.21 395.946L404.666 390.871L407.577 379.682L409.033 374.165L410.489 367.361L411.944 358.549L413.4 347.934L414.856 334.036L416.312 316.306L418.495 285.755L421.406 240.7L423.59 205.515L425.774 172.973L427.957 138.429L428.685 130.662L429.413 126.065L430.141 124.28L430.868 124.573L431.596 126.48L432.324 129.944L433.052 134.906L434.508 148.42L435.236 157.137L435.963 167.81L437.419 195.497L439.603 239.013L443.242 298.713L446.153 339.578L447.609 357.735L449.065 371.285L450.52 381.515L451.976 389.383L453.432 394.631L454.888 398.117L456.343 400.557L459.982 405.096L461.438 406.344L462.894 407.103L467.261 408.539L469.445 409.366L470.9 409.418L473.812 408.909L475.267 409.119L478.907 410.015L481.09 410.04L491.28 409.854L494.191 410.083L503.653 410.043L506.565 410.078L510.204 410.058L513.115 410.111" stroke="#EFEFEF" stroke-linecap="square"/>
</g>
<mask id="mask1_230_7838" style="mask-type:luminance" maskUnits="userSpaceOnUse" x="76" y="55" width="477" height="356">
<path d="M552.957 55.2959H76.7969V410.112H552.957V55.2959Z" fill="white"/>
</mask>
<g mask="url(#mask1_230_7838)">
<path d="M348.062 410.111L372.758 409.887L374.587 409.324L378.246 407.942L379.161 407.117L380.075 405.942L380.99 404.035L381.905 400.74L382.819 395.487L383.734 387.952L384.649 377.957L386.478 351.854L388.307 320.525L389.222 302.084L390.136 279.963L391.966 224.152L393.795 166.692L395.624 119.774L396.539 100.474L397.454 85.8408L398.368 76.4215L399.283 72.1924L400.198 73.8099L401.112 81.3592L402.027 93.5936L403.856 125.125L406.6 177.346L410.259 257.846L412.088 287.149L414.832 325.859L416.661 354.212L417.576 364.321L418.491 370.745L422.149 388.67L423.064 391.737L423.979 393.848L425.808 396.587L430.381 402.181L431.296 402.502L432.21 402.652L433.125 403.077L435.869 405.217L437.698 405.567L438.613 405.728L443.186 407.238L447.76 407.805L450.504 407.813L451.418 408.008L455.077 409.517L456.906 409.545L459.65 409.171L461.479 409.448L464.223 409.961L477.028 409.969L479.772 410.082L487.09 409.952L488.919 410.08L496.236 409.99L498.98 410.11L530.078 410.111" fill="#EFEFEF" fill-opacity="0.4"/>
<path d="M348.062 410.111L372.758 409.887L374.587 409.324L378.246 407.942L379.161 407.117L380.075 405.942L380.99 404.035L381.905 400.74L382.819 395.487L383.734 387.952L384.649 377.957L386.478 351.854L388.307 320.525L389.222 302.084L390.136 279.963L391.966 224.152L393.795 166.692L395.624 119.774L396.539 100.474L397.454 85.8408L398.368 76.4215L399.283 72.1924L400.198 73.8099L401.112 81.3592L402.027 93.5936L403.856 125.125L406.6 177.346L410.259 257.846L412.088 287.149L414.832 325.859L416.661 354.212L417.576 364.321L418.491 370.745L422.149 388.67L423.064 391.737L423.979 393.848L425.808 396.587L430.381 402.181L431.296 402.502L432.21 402.652L433.125 403.077L435.869 405.217L437.698 405.567L438.613 405.728L443.186 407.238L447.76 407.805L450.504 407.813L451.418 408.008L455.077 409.517L456.906 409.545L459.65 409.171L461.479 409.448L464.223 409.961L477.028 409.969L479.772 410.082L487.09 409.952L488.919 410.08L496.236 409.99L498.98 410.11L530.078 410.111" stroke="#EFEFEF" stroke-linecap="square"/>
</g>
<mask id="mask2_230_7838" style="mask-type:luminance" maskUnits="userSpaceOnUse" x="76" y="55" width="477" height="356">
<path d="M552.957 55.2959H76.7969V410.112H552.957V55.2959Z" fill="white"/>
</mask>
<g mask="url(#mask2_230_7838)">
<path d="M331.57 410.111L349.118 409.942L353.018 409.76L356.917 409.62L361.792 409.223L363.741 408.615L365.691 407.629L369.591 404.961L370.566 404.179L371.54 403.14L372.515 401.694L373.49 399.798L375.44 395.148L377.39 389.757L378.365 386.151L379.34 381.428L380.314 375.441L382.264 359.965L384.214 341.183L386.164 319.053L388.114 291.065L392.013 230.838L394.938 192.93L395.913 183.504L396.887 177.391L397.862 174.169L398.837 172.68L399.812 172.586L400.787 174.553L401.762 178.973L402.737 185.257L404.687 200.61L406.636 220.138L412.486 286.785L416.385 321.097L418.335 337.515L420.285 350.324L421.26 355.524L422.234 359.871L425.159 370.185L427.109 377.046L430.033 385.71L431.983 390.866L432.958 392.92L433.933 394.604L435.883 397.1L439.782 401.613L440.757 402.164L442.707 402.83L444.657 403.999L446.606 405.244L448.556 405.923L451.481 406.878L456.355 408.984L458.305 409.282L462.205 409.548L467.079 409.523L470.979 409.816L475.853 409.948L483.652 410.07L494.376 409.933L504.125 410.112L525.572 410.111" fill="#EFEFEF" fill-opacity="0.4"/>
<path d="M331.57 410.111L349.118 409.942L353.018 409.76L356.917 409.62L361.792 409.223L363.741 408.615L365.691 407.629L369.591 404.961L370.566 404.179L371.54 403.14L372.515 401.694L373.49 399.798L375.44 395.148L377.39 389.757L378.365 386.151L379.34 381.428L380.314 375.441L382.264 359.965L384.214 341.183L386.164 319.053L388.114 291.065L392.013 230.838L394.938 192.93L395.913 183.504L396.887 177.391L397.862 174.169L398.837 172.68L399.812 172.586L400.787 174.553L401.762 178.973L402.737 185.257L404.687 200.61L406.636 220.138L412.486 286.785L416.385 321.097L418.335 337.515L420.285 350.324L421.26 355.524L422.234 359.871L425.159 370.185L427.109 377.046L430.033 385.71L431.983 390.866L432.958 392.92L433.933 394.604L435.883 397.1L439.782 401.613L440.757 402.164L442.707 402.83L444.657 403.999L446.606 405.244L448.556 405.923L451.481 406.878L456.355 408.984L458.305 409.282L462.205 409.548L467.079 409.523L470.979 409.816L475.853 409.948L483.652 410.07L494.376 409.933L504.125 410.112L525.572 410.111" stroke="#EFEFEF" stroke-linecap="square"/>
</g>
<mask id="mask3_230_7838" style="mask-type:luminance" maskUnits="userSpaceOnUse" x="76" y="55" width="477" height="356">
<path d="M552.957 55.2959H76.7969V410.112H552.957V55.2959Z" fill="white"/>
</mask>
<g mask="url(#mask3_230_7838)">
<path d="M360.273 410.111L371.447 409.977L377.463 409.362L379.182 408.974L380.901 408.082L385.198 405.466L386.917 403.856L390.355 400.147L392.074 397.561L393.793 393.901L395.512 388.884L398.091 380.305L402.388 367.487L404.107 360.057L405.826 351.104L409.264 331.016L411.842 313.37L415.28 287.314L418.718 260.56L421.297 242.688L422.156 237.629L423.016 233.506L423.875 230.422L424.735 228.231L425.594 226.667L426.454 225.515L427.313 224.703L428.173 224.261L429.032 224.245L429.892 224.686L430.751 225.619L431.611 227.141L432.47 229.424L433.33 232.611L435.049 241.361L438.486 262.076L441.065 280.24L442.784 294.162L445.362 319.11L447.081 335.006L448.8 348.404L450.519 360.369L452.238 370.508L453.957 378.537L455.676 385.011L458.255 393.393L459.974 397.998L460.833 399.798L461.693 401.246L463.411 403.312L465.13 404.801L467.709 406.57L470.287 407.93L472.006 408.521L474.585 408.94L482.32 409.86L490.915 409.911L494.353 409.809L501.229 410.11L531.311 410.111" fill="#EFEFEF" fill-opacity="0.4"/>
<path d="M360.273 410.111L371.447 409.977L377.463 409.362L379.182 408.974L380.901 408.082L385.198 405.466L386.917 403.856L390.355 400.147L392.074 397.561L393.793 393.901L395.512 388.884L398.091 380.305L402.388 367.487L404.107 360.057L405.826 351.104L409.264 331.016L411.842 313.37L415.28 287.314L418.718 260.56L421.297 242.688L422.156 237.629L423.016 233.506L423.875 230.422L424.735 228.231L425.594 226.667L426.454 225.515L427.313 224.703L428.173 224.261L429.032 224.245L429.892 224.686L430.751 225.619L431.611 227.141L432.47 229.424L433.33 232.611L435.049 241.361L438.486 262.076L441.065 280.24L442.784 294.162L445.362 319.11L447.081 335.006L448.8 348.404L450.519 360.369L452.238 370.508L453.957 378.537L455.676 385.011L458.255 393.393L459.974 397.998L460.833 399.798L461.693 401.246L463.411 403.312L465.13 404.801L467.709 406.57L470.287 407.93L472.006 408.521L474.585 408.94L482.32 409.86L490.915 409.911L494.353 409.809L501.229 410.11L531.311 410.111" stroke="#EFEFEF" stroke-linecap="square"/>
</g>
<mask id="mask4_230_7838" style="mask-type:luminance" maskUnits="userSpaceOnUse" x="76" y="55" width="477" height="356">
<path d="M552.957 55.2959H76.7969V410.112H552.957V55.2959Z" fill="white"/>
</mask>
<g mask="url(#mask4_230_7838)">
<path d="M351.07 410.111L357.205 409.956L361.587 409.889L367.721 409.918L370.35 409.464L377.361 407.454L379.113 406.807L380.866 405.788L382.619 404.314L385.248 401.495L387.001 399.106L387.877 397.548L389.63 393.546L393.135 384.095L394.888 378.796L396.64 372.525L399.269 361.885L401.022 353.768L403.651 339.539L408.909 310.197L412.415 286.787L414.167 277.438L417.673 261.708L420.302 250.344L422.054 244.303L422.931 242.237L423.807 240.835L424.684 239.995L425.56 239.608L426.436 239.615L427.313 240.02L428.189 240.891L429.065 242.366L429.942 244.621L430.818 247.757L432.571 256.094L435.2 269.102L437.829 281.82L439.581 292.39L442.21 311.293L444.84 329.955L447.469 345.181L452.727 374.242L453.603 377.515L455.356 382.401L462.366 397.895L464.119 400.622L465.872 402.524L468.501 404.659L471.13 406.483L472.883 407.328L474.635 407.809L480.77 409.002L486.028 409.437L489.533 409.582L493.915 409.726L500.049 410.028L514.947 410.097L524.587 410.11L525.464 410.111" fill="#EFEFEF" fill-opacity="0.4"/>
<path d="M351.07 410.111L357.205 409.956L361.587 409.889L367.721 409.918L370.35 409.464L377.361 407.454L379.113 406.807L380.866 405.788L382.619 404.314L385.248 401.495L387.001 399.106L387.877 397.548L389.63 393.546L393.135 384.095L394.888 378.796L396.64 372.525L399.269 361.885L401.022 353.768L403.651 339.539L408.909 310.197L412.415 286.787L414.167 277.438L417.673 261.708L420.302 250.344L422.054 244.303L422.931 242.237L423.807 240.835L424.684 239.995L425.56 239.608L426.436 239.615L427.313 240.02L428.189 240.891L429.065 242.366L429.942 244.621L430.818 247.757L432.571 256.094L435.2 269.102L437.829 281.82L439.581 292.39L442.21 311.293L444.84 329.955L447.469 345.181L452.727 374.242L453.603 377.515L455.356 382.401L462.366 397.895L464.119 400.622L465.872 402.524L468.501 404.659L471.13 406.483L472.883 407.328L474.635 407.809L480.77 409.002L486.028 409.437L489.533 409.582L493.915 409.726L500.049 410.028L514.947 410.097L524.587 410.11L525.464 410.111" stroke="#EFEFEF" stroke-linecap="square"/>
</g>
<mask id="mask5_230_7838" style="mask-type:luminance" maskUnits="userSpaceOnUse" x="76" y="55" width="477" height="356">
<path d="M552.957 55.2959H76.7969V410.112H552.957V55.2959Z" fill="white"/>
</mask>
<g mask="url(#mask5_230_7838)">
<path d="M355.648 410.112L377.551 409.924L386.312 409.314L388.94 408.757L393.32 407.529L395.073 406.586L395.949 405.817L397.701 403.686L399.453 401.598L401.205 399.604L402.081 398.149L410.842 379.732L411.718 377.218L412.594 374.082L414.347 365.748L416.975 350.116L418.727 338.199L420.479 324.444L422.231 309.09L423.984 290.284L428.364 235.857L430.116 217.716L431.868 203.358L433.621 192.832L434.497 188.8L435.373 186.142L436.249 185.295L437.125 186.255L438.001 188.734L438.877 192.571L439.753 197.837L441.505 212.296L444.134 235.758L445.886 251.69L452.018 317.474L453.771 333.915L455.523 347.049L457.275 357.567L461.655 380.744L463.408 388.192L464.284 390.93L465.16 393.075L466.912 396.271L468.664 398.821L473.045 404.429L474.797 406.289L476.549 407.392L480.053 408.781L481.806 409.225L485.31 409.635L497.575 410.02L515.973 409.998L521.23 409.938L524.734 409.93L529.991 410.111" fill="#EFEFEF" fill-opacity="0.4"/>
<path d="M355.648 410.112L377.551 409.924L386.312 409.314L388.94 408.757L393.32 407.529L395.073 406.586L395.949 405.817L397.701 403.686L399.453 401.598L401.205 399.604L402.081 398.149L410.842 379.732L411.718 377.218L412.594 374.082L414.347 365.748L416.975 350.116L418.727 338.199L420.479 324.444L422.231 309.09L423.984 290.284L428.364 235.857L430.116 217.716L431.868 203.358L433.621 192.832L434.497 188.8L435.373 186.142L436.249 185.295L437.125 186.255L438.001 188.734L438.877 192.571L439.753 197.837L441.505 212.296L444.134 235.758L445.886 251.69L452.018 317.474L453.771 333.915L455.523 347.049L457.275 357.567L461.655 380.744L463.408 388.192L464.284 390.93L465.16 393.075L466.912 396.271L468.664 398.821L473.045 404.429L474.797 406.289L476.549 407.392L480.053 408.781L481.806 409.225L485.31 409.635L497.575 410.02L515.973 409.998L521.23 409.938L524.734 409.93L529.991 410.111" stroke="#EFEFEF" stroke-linecap="square"/>
</g>
<mask id="mask6_230_7838" style="mask-type:luminance" maskUnits="userSpaceOnUse" x="76" y="55" width="477" height="356">
<path d="M552.957 55.2959H76.7969V410.112H552.957V55.2959Z" fill="white"/>
</mask>
<g mask="url(#mask6_230_7838)">
<path d="M362.516 410.111L377.104 409.949L379.536 409.66L381.157 409.09L382.778 408.074L384.399 406.663L386.83 403.961L388.451 401.705L390.072 398.968L390.882 397.214L391.693 395.019L393.314 389.264L395.745 378.642L397.366 370.623L399.798 356.77L401.419 346.342L407.903 299.955L411.145 274.059L412.766 261.439L418.439 212.189L420.87 197.41L421.681 193.543L422.491 190.639L423.302 188.593L424.112 187.247L424.923 186.604L425.733 186.791L426.544 188.016L427.354 190.553L428.165 194.613L428.975 200.205L429.786 207.276L430.596 215.932L432.217 238.242L435.459 288.413L437.89 320.201L439.511 337.738L441.132 352.493L443.564 371.939L445.185 382.708L446.806 390.585L448.427 396.124L450.048 400.052L451.669 402.697L453.29 404.419L456.532 407.101L458.153 407.979L459.773 408.38L463.826 408.947L466.257 409.529L468.689 409.719L474.362 409.847L476.794 409.919L480.036 409.932L483.277 410.021L487.33 409.932L490.572 409.916L493.814 409.904L497.866 410.107L517.318 410.054L521.37 410.09L523.802 410.111" fill="#EFEFEF" fill-opacity="0.4"/>
<path d="M362.516 410.111L377.104 409.949L379.536 409.66L381.157 409.09L382.778 408.074L384.399 406.663L386.83 403.961L388.451 401.705L390.072 398.968L390.882 397.214L391.693 395.019L393.314 389.264L395.745 378.642L397.366 370.623L399.798 356.77L401.419 346.342L407.903 299.955L411.145 274.059L412.766 261.439L418.439 212.189L420.87 197.41L421.681 193.543L422.491 190.639L423.302 188.593L424.112 187.247L424.923 186.604L425.733 186.791L426.544 188.016L427.354 190.553L428.165 194.613L428.975 200.205L429.786 207.276L430.596 215.932L432.217 238.242L435.459 288.413L437.89 320.201L439.511 337.738L441.132 352.493L443.564 371.939L445.185 382.708L446.806 390.585L448.427 396.124L450.048 400.052L451.669 402.697L453.29 404.419L456.532 407.101L458.153 407.979L459.773 408.38L463.826 408.947L466.257 409.529L468.689 409.719L474.362 409.847L476.794 409.919L480.036 409.932L483.277 410.021L487.33 409.932L490.572 409.916L493.814 409.904L497.866 410.107L517.318 410.054L521.37 410.09L523.802 410.111" stroke="#EFEFEF" stroke-linecap="square"/>
</g>
<mask id="mask7_230_7838" style="mask-type:luminance" maskUnits="userSpaceOnUse" x="76" y="55" width="477" height="356">
<path d="M552.957 55.2959H76.7969V410.112H552.957V55.2959Z" fill="white"/>
</mask>
<g mask="url(#mask7_230_7838)">
<path d="M366.93 410.111L375.7 409.972L379.354 409.941L381.547 409.886L385.932 409.276L389.586 408.188L391.778 407.124L393.971 405.892L394.702 405.291L395.432 404.456L396.894 401.993L400.548 394.432L402.01 390.243L403.472 384.635L405.664 374.569L407.857 363.28L409.318 354.668L410.78 344.552L412.242 332.317L414.434 312.808L415.896 303.863L417.358 296.408L418.089 291.636L419.55 278.535L423.935 231.503L425.397 221.394L429.051 200.009L429.782 197.216L430.513 195.886L431.244 195.857L431.974 196.682L432.705 197.998L433.436 199.75L434.167 202.127L434.898 205.341L435.629 209.482L437.09 220.261L440.745 252.484L442.937 274.449L446.591 312.928L448.784 333.977L450.245 345.015L454.631 371.426L456.092 379.088L457.554 385.367L459.016 390.75L460.477 395.181L461.939 398.473L464.131 402.321L465.593 404.37L467.055 405.824L468.516 406.819L471.44 408.186L473.632 408.925L476.556 409.607L479.479 409.944L482.402 409.981L486.057 409.871L492.634 410.027L512.367 410.111" fill="#EFEFEF" fill-opacity="0.4"/>
<path d="M366.93 410.111L375.7 409.972L379.354 409.941L381.547 409.886L385.932 409.276L389.586 408.188L391.778 407.124L393.971 405.892L394.702 405.291L395.432 404.456L396.894 401.993L400.548 394.432L402.01 390.243L403.472 384.635L405.664 374.569L407.857 363.28L409.318 354.668L410.78 344.552L412.242 332.317L414.434 312.808L415.896 303.863L417.358 296.408L418.089 291.636L419.55 278.535L423.935 231.503L425.397 221.394L429.051 200.009L429.782 197.216L430.513 195.886L431.244 195.857L431.974 196.682L432.705 197.998L433.436 199.75L434.167 202.127L434.898 205.341L435.629 209.482L437.09 220.261L440.745 252.484L442.937 274.449L446.591 312.928L448.784 333.977L450.245 345.015L454.631 371.426L456.092 379.088L457.554 385.367L459.016 390.75L460.477 395.181L461.939 398.473L464.131 402.321L465.593 404.37L467.055 405.824L468.516 406.819L471.44 408.186L473.632 408.925L476.556 409.607L479.479 409.944L482.402 409.981L486.057 409.871L492.634 410.027L512.367 410.111" stroke="#EFEFEF" stroke-linecap="square"/>
</g>
<mask id="mask8_230_7838" style="mask-type:luminance" maskUnits="userSpaceOnUse" x="76" y="55" width="477" height="356">
<path d="M552.957 55.2959H76.7969V410.112H552.957V55.2959Z" fill="white"/>
</mask>
<g mask="url(#mask8_230_7838)">
<path d="M368.531 410.111L383.962 409.952L387.636 409.439L395.719 408.187L397.189 407.361L402.333 403.934L403.802 402.564L406.007 399.69L408.211 396.485L409.681 393.528L412.62 386.509L413.355 384.195L414.824 377.989L416.294 371.451L418.498 362.897L419.233 359.197L420.703 349.42L422.173 337.086L425.847 302.35L427.316 285.307L431.725 230.337L435.399 187.615L436.869 173.917L437.604 168.676L438.338 164.918L439.073 163.137L439.808 163.776L440.543 166.934L441.278 172.165L445.687 210.759L447.156 228.631L449.361 256.552L451.565 282.848L455.239 329.057L456.709 343.495L458.178 354.888L459.648 363.319L462.587 377.119L464.057 383.295L466.996 393.764L468.466 398.155L469.935 401.375L471.405 403.481L472.875 404.807L475.079 406.401L477.284 407.648L479.488 408.554L481.692 409.171L483.897 409.395L491.245 409.837L493.449 409.952L497.123 409.941L500.798 410.063L508.88 410L514.759 410.111" fill="#EFEFEF" fill-opacity="0.4"/>
<path d="M368.531 410.111L383.962 409.952L387.636 409.439L395.719 408.187L397.189 407.361L402.333 403.934L403.802 402.564L406.007 399.69L408.211 396.485L409.681 393.528L412.62 386.509L413.355 384.195L414.824 377.989L416.294 371.451L418.498 362.897L419.233 359.197L420.703 349.42L422.173 337.086L425.847 302.35L427.316 285.307L431.725 230.337L435.399 187.615L436.869 173.917L437.604 168.676L438.338 164.918L439.073 163.137L439.808 163.776L440.543 166.934L441.278 172.165L445.687 210.759L447.156 228.631L449.361 256.552L451.565 282.848L455.239 329.057L456.709 343.495L458.178 354.888L459.648 363.319L462.587 377.119L464.057 383.295L466.996 393.764L468.466 398.155L469.935 401.375L471.405 403.481L472.875 404.807L475.079 406.401L477.284 407.648L479.488 408.554L481.692 409.171L483.897 409.395L491.245 409.837L493.449 409.952L497.123 409.941L500.798 410.063L508.88 410L514.759 410.111" stroke="#EFEFEF" stroke-linecap="square"/>
</g>
<mask id="mask9_230_7838" style="mask-type:luminance" maskUnits="userSpaceOnUse" x="76" y="55" width="477" height="356">
<path d="M552.957 55.2959H76.7969V410.112H552.957V55.2959Z" fill="white"/>
</mask>
<g mask="url(#mask9_230_7838)">
<path d="M353.055 410.111L362.562 409.975L364.146 409.666L367.315 408.753L368.9 408.463L370.485 407.821L372.069 406.715L373.654 404.908L375.238 402.427L376.823 398.953L379.199 393.139L380.784 389.248L382.369 383.758L383.953 378.174L385.538 373.908L386.33 371.096L387.122 367.09L388.707 356.509L393.46 322.27L394.252 315.141L395.837 296.289L397.422 270.998L399.006 238.205L402.967 147.058L404.552 121.636L405.344 111.731L406.136 104.018L406.929 98.6428L407.721 95.8467L408.513 96.4198L409.306 101.424L410.098 111.325L410.89 125.542L412.475 161.754L417.228 278.606L418.813 306.735L420.397 329.691L421.982 348.696L423.566 362.373L425.151 372.459L427.528 385.768L428.32 389.169L429.112 391.515L433.073 398.76L433.866 399.783L440.204 404.683L441.788 406.408L442.581 407.034L443.373 407.343L444.957 407.351L446.542 407.44L452.88 408.959L454.465 409.278L460.803 409.412L463.972 409.532L469.518 409.841L471.894 409.751L482.194 409.978L496.455 409.867L502.001 410.092L510.715 410.111" fill="#EFEFEF" fill-opacity="0.4"/>
<path d="M353.055 410.111L362.562 409.975L364.146 409.666L367.315 408.753L368.9 408.463L370.485 407.821L372.069 406.715L373.654 404.908L375.238 402.427L376.823 398.953L379.199 393.139L380.784 389.248L382.369 383.758L383.953 378.174L385.538 373.908L386.33 371.096L387.122 367.09L388.707 356.509L393.46 322.27L394.252 315.141L395.837 296.289L397.422 270.998L399.006 238.205L402.967 147.058L404.552 121.636L405.344 111.731L406.136 104.018L406.929 98.6428L407.721 95.8467L408.513 96.4198L409.306 101.424L410.098 111.325L410.89 125.542L412.475 161.754L417.228 278.606L418.813 306.735L420.397 329.691L421.982 348.696L423.566 362.373L425.151 372.459L427.528 385.768L428.32 389.169L429.112 391.515L433.073 398.76L433.866 399.783L440.204 404.683L441.788 406.408L442.581 407.034L443.373 407.343L444.957 407.351L446.542 407.44L452.88 408.959L454.465 409.278L460.803 409.412L463.972 409.532L469.518 409.841L471.894 409.751L482.194 409.978L496.455 409.867L502.001 410.092L510.715 410.111" stroke="#EFEFEF" stroke-linecap="square"/>
</g>
<mask id="mask10_230_7838" style="mask-type:luminance" maskUnits="userSpaceOnUse" x="76" y="55" width="477" height="356">
<path d="M552.957 55.2959H76.7969V410.112H552.957V55.2959Z" fill="white"/>
</mask>
<g mask="url(#mask10_230_7838)">
<path d="M362.609 410.111L377.947 409.964L387.149 408.994L390.217 408.657L393.285 408.648L394.818 408.605L396.352 408.214L399.42 406.798L403.254 404.892L405.555 404.339L406.321 403.876L407.855 402.467L410.156 399.961L411.69 397.79L413.223 395.516L413.99 394.696L416.291 392.98L417.058 392.003L417.825 390.618L418.592 388.813L420.125 383.899L422.426 374.244L423.96 366.61L424.727 361.495L426.26 347.763L430.862 298.561L433.162 268.652L436.997 217.641L439.297 190.163L440.831 175.567L441.598 169.754L442.365 165.446L443.132 163.113L443.899 162.957L444.665 164.838L445.432 168.44L446.966 179.311L449.267 199.105L450.801 215.719L453.101 247.911L454.635 268.303L456.169 284.268L463.071 344.552L464.604 356.205L466.138 365.748L469.973 385.483L471.506 391.956L473.04 396.412L474.574 399.793L476.108 402.431L477.641 404.212L479.175 405.396L483.009 407.804L484.543 408.427L487.611 409.201L489.911 409.434L492.979 409.681L496.046 409.998L500.648 410.111L515.218 410.111" fill="#EFEFEF" fill-opacity="0.4"/>
<path d="M362.609 410.111L377.947 409.964L387.149 408.994L390.217 408.657L393.285 408.648L394.818 408.605L396.352 408.214L399.42 406.798L403.254 404.892L405.555 404.339L406.321 403.876L407.855 402.467L410.156 399.961L411.69 397.79L413.223 395.516L413.99 394.696L416.291 392.98L417.058 392.003L417.825 390.618L418.592 388.813L420.125 383.899L422.426 374.244L423.96 366.61L424.727 361.495L426.26 347.763L430.862 298.561L433.162 268.652L436.997 217.641L439.297 190.163L440.831 175.567L441.598 169.754L442.365 165.446L443.132 163.113L443.899 162.957L444.665 164.838L445.432 168.44L446.966 179.311L449.267 199.105L450.801 215.719L453.101 247.911L454.635 268.303L456.169 284.268L463.071 344.552L464.604 356.205L466.138 365.748L469.973 385.483L471.506 391.956L473.04 396.412L474.574 399.793L476.108 402.431L477.641 404.212L479.175 405.396L483.009 407.804L484.543 408.427L487.611 409.201L489.911 409.434L492.979 409.681L496.046 409.998L500.648 410.111L515.218 410.111" stroke="#EFEFEF" stroke-linecap="square"/>
</g>
<mask id="mask11_230_7838" style="mask-type:luminance" maskUnits="userSpaceOnUse" x="76" y="55" width="477" height="356">
<path d="M552.957 55.2959H76.7969V410.112H552.957V55.2959Z" fill="white"/>
</mask>
<g mask="url(#mask11_230_7838)">
<path d="M360.438 410.111L384.683 409.906L388.863 409.666L392.208 409.218L394.716 408.521L397.224 407.802L398.896 407.363L400.568 406.64L402.24 405.535L403.076 404.736L403.913 403.608L404.749 402.011L405.585 399.894L407.257 394.397L408.929 387.748L410.601 379.763L412.273 369.281L413.945 355.408L423.978 263.005L425.65 252.447L427.322 241.794L429.83 224.324L430.666 220.029L431.502 216.819L432.338 214.484L433.175 212.786L434.011 211.559L434.847 210.701L435.683 210.217L436.519 210.247L437.355 210.968L438.191 212.412L439.027 214.436L440.699 219.618L443.207 228.918L444.043 232.604L444.879 237.127L445.715 242.867L447.388 258.068L451.568 302.957L454.912 338.754L456.584 354.338L458.256 366.958L459.928 376.485L462.437 388.596L464.109 394.581L464.945 396.742L466.617 399.821L469.961 404.709L471.633 406.408L473.305 407.372L476.65 408.733L478.322 409.028L480.83 409.104L485.846 409.167L489.19 409.422L491.699 409.631L503.403 409.885L509.256 410.03L514.272 410.005L517.616 409.922L524.305 410.091L526.813 410.111" fill="#EFEFEF" fill-opacity="0.4"/>
<path d="M360.438 410.111L384.683 409.906L388.863 409.666L392.208 409.218L394.716 408.521L397.224 407.802L398.896 407.363L400.568 406.64L402.24 405.535L403.076 404.736L403.913 403.608L404.749 402.011L405.585 399.894L407.257 394.397L408.929 387.748L410.601 379.763L412.273 369.281L413.945 355.408L423.978 263.005L425.65 252.447L427.322 241.794L429.83 224.324L430.666 220.029L431.502 216.819L432.338 214.484L433.175 212.786L434.011 211.559L434.847 210.701L435.683 210.217L436.519 210.247L437.355 210.968L438.191 212.412L439.027 214.436L440.699 219.618L443.207 228.918L444.043 232.604L444.879 237.127L445.715 242.867L447.388 258.068L451.568 302.957L454.912 338.754L456.584 354.338L458.256 366.958L459.928 376.485L462.437 388.596L464.109 394.581L464.945 396.742L466.617 399.821L469.961 404.709L471.633 406.408L473.305 407.372L476.65 408.733L478.322 409.028L480.83 409.104L485.846 409.167L489.19 409.422L491.699 409.631L503.403 409.885L509.256 410.03L514.272 410.005L517.616 409.922L524.305 410.091L526.813 410.111" stroke="#EFEFEF" stroke-linecap="square"/>
</g>
<mask id="mask12_230_7838" style="mask-type:luminance" maskUnits="userSpaceOnUse" x="76" y="55" width="477" height="356">
<path d="M552.957 55.2959H76.7969V410.112H552.957V55.2959Z" fill="white"/>
</mask>
<g mask="url(#mask12_230_7838)">
<path d="M364.641 410.111L373.792 409.965L384.607 409.295L386.271 408.869L390.431 407.084L393.758 406.378L394.59 405.87L396.254 404.287L397.918 402.294L399.582 399.794L401.246 396.28L402.91 391.711L404.574 386.193L408.733 371.081L410.397 365.279L411.229 361.355L412.061 356.46L413.725 344.086L415.389 328.877L424.54 235.998L428.7 200.069L429.532 194.415L430.364 190.158L431.196 187.626L432.028 187.062L432.859 188.459L433.691 191.354L436.187 202.623L437.851 211.202L438.683 216.471L439.515 222.938L440.347 230.961L442.011 250.829L444.507 280.35L447.834 314.845L451.994 353.045L453.658 366.285L455.322 376.355L456.986 384.439L458.65 390.927L460.313 395.984L461.145 398.019L461.977 399.598L462.809 400.646L464.473 401.705L465.305 402.265L466.137 403.091L468.633 406.179L469.465 406.912L471.129 407.842L473.624 408.698L476.12 409.286L478.616 409.558L483.608 409.639L490.263 409.484L492.759 409.559L496.919 410.041L510.23 409.943L517.717 410.03L522.709 410.074L527.7 410.091L530.196 410.111" fill="#EFEFEF" fill-opacity="0.4"/>
<path d="M364.641 410.111L373.792 409.965L384.607 409.295L386.271 408.869L390.431 407.084L393.758 406.378L394.59 405.87L396.254 404.287L397.918 402.294L399.582 399.794L401.246 396.28L402.91 391.711L404.574 386.193L408.733 371.081L410.397 365.279L411.229 361.355L412.061 356.46L413.725 344.086L415.389 328.877L424.54 235.998L428.7 200.069L429.532 194.415L430.364 190.158L431.196 187.626L432.028 187.062L432.859 188.459L433.691 191.354L436.187 202.623L437.851 211.202L438.683 216.471L439.515 222.938L440.347 230.961L442.011 250.829L444.507 280.35L447.834 314.845L451.994 353.045L453.658 366.285L455.322 376.355L456.986 384.439L458.65 390.927L460.313 395.984L461.145 398.019L461.977 399.598L462.809 400.646L464.473 401.705L465.305 402.265L466.137 403.091L468.633 406.179L469.465 406.912L471.129 407.842L473.624 408.698L476.12 409.286L478.616 409.558L483.608 409.639L490.263 409.484L492.759 409.559L496.919 410.041L510.23 409.943L517.717 410.03L522.709 410.074L527.7 410.091L530.196 410.111" stroke="#EFEFEF" stroke-linecap="square"/>
</g>
<mask id="mask13_230_7838" style="mask-type:luminance" maskUnits="userSpaceOnUse" x="76" y="55" width="477" height="356">
<path d="M552.957 55.2959H76.7969V410.112H552.957V55.2959Z" fill="white"/>
</mask>
<g mask="url(#mask13_230_7838)">
<path d="M337.656 410.111L344.428 409.984L351.2 409.52L354.102 408.917L356.037 408.152L357.971 406.9L359.906 405.245L362.808 402.308L364.743 399.951L366.678 397.095L369.58 391.937L371.515 387.829L372.482 385.338L373.45 382.405L375.385 375.126L382.156 346.203L386.993 320.327L388.928 307.716L391.83 288.095L393.765 276.822L395.7 268.057L398.602 255.968L401.504 242.242L402.472 238.658L403.439 236.387L404.406 235.746L405.374 236.79L406.341 239.292L408.276 246.69L410.211 253.652L414.08 264.578L415.048 268.814L416.015 274.379L417.95 288.712L420.852 311.083L423.754 330.612L426.656 348.201L428.591 358.683L430.526 367.681L432.461 375.02L436.33 388.108L438.265 393.578L439.232 395.672L440.2 397.311L442.135 399.611L445.037 402.216L449.874 406.051L451.809 407.189L454.711 408.305L457.613 409.095L459.548 409.357L467.287 409.727L470.189 409.88L517.591 410.104L529.2 410.109L530.167 410.111" fill="#EFEFEF" fill-opacity="0.4"/>
<path d="M337.656 410.111L344.428 409.984L351.2 409.52L354.102 408.917L356.037 408.152L357.971 406.9L359.906 405.245L362.808 402.308L364.743 399.951L366.678 397.095L369.58 391.937L371.515 387.829L372.482 385.338L373.45 382.405L375.385 375.126L382.156 346.203L386.993 320.327L388.928 307.716L391.83 288.095L393.765 276.822L395.7 268.057L398.602 255.968L401.504 242.242L402.472 238.658L403.439 236.387L404.406 235.746L405.374 236.79L406.341 239.292L408.276 246.69L410.211 253.652L414.08 264.578L415.048 268.814L416.015 274.379L417.95 288.712L420.852 311.083L423.754 330.612L426.656 348.201L428.591 358.683L430.526 367.681L432.461 375.02L436.33 388.108L438.265 393.578L439.232 395.672L440.2 397.311L442.135 399.611L445.037 402.216L449.874 406.051L451.809 407.189L454.711 408.305L457.613 409.095L459.548 409.357L467.287 409.727L470.189 409.88L517.591 410.104L529.2 410.109L530.167 410.111" stroke="#EFEFEF" stroke-linecap="square"/>
</g>
<mask id="mask14_230_7838" style="mask-type:luminance" maskUnits="userSpaceOnUse" x="76" y="55" width="477" height="356">
<path d="M552.957 55.2959H76.7969V410.112H552.957V55.2959Z" fill="white"/>
</mask>
<g mask="url(#mask14_230_7838)">
<path d="M98.4375 410.112L230.256 410.112L304.67 410.011L317.426 409.529L323.805 409.011L328.057 408.393L332.309 407.737L334.435 407.505L336.561 407.105L342.94 405.103L345.066 404.536L347.192 403.656L351.444 401.508L355.696 399.646L357.822 398.374L359.948 396.843L364.201 393.162L366.327 391.06L370.579 386.248L376.957 378.938L379.083 375.966L381.209 372.162L383.335 367.455L385.462 361.816L387.588 355.01L391.84 338.856L393.966 331.719L396.092 326.076L402.47 311.894L404.597 305.826L408.849 293.026L410.975 287.751L413.101 283.947L415.227 281.886L417.353 281.525L419.479 282.545L421.605 284.407L423.731 286.926L425.858 290.751L427.984 296.66L430.11 304.697L432.236 314.473L438.614 346.508L442.866 366.227L444.992 375.203L447.119 382.659L449.245 388.422L451.371 393.012L453.497 396.921L455.623 400.152L457.749 402.587L459.875 404.421L462.001 405.956L464.127 407.274L466.254 408.297L468.38 408.98L470.506 409.389L474.758 409.786L483.262 409.989L517.28 410.098L521.532 410.112" fill="#7EB0D5" fill-opacity="0.4"/>
<path d="M98.4375 410.112L230.256 410.112L304.67 410.011L317.426 409.529L323.805 409.011L328.057 408.393L332.309 407.737L334.435 407.505L336.561 407.105L342.94 405.103L345.066 404.536L347.192 403.656L351.444 401.508L355.696 399.646L357.822 398.374L359.948 396.843L364.201 393.162L366.327 391.06L370.579 386.248L376.957 378.938L379.083 375.966L381.209 372.162L383.335 367.455L385.462 361.816L387.588 355.01L391.84 338.856L393.966 331.719L396.092 326.076L402.47 311.894L404.597 305.826L408.849 293.026L410.975 287.751L413.101 283.947L415.227 281.886L417.353 281.525L419.479 282.545L421.605 284.407L423.731 286.926L425.858 290.751L427.984 296.66L430.11 304.697L432.236 314.473L438.614 346.508L442.866 366.227L444.992 375.203L447.119 382.659L449.245 388.422L451.371 393.012L453.497 396.921L455.623 400.152L457.749 402.587L459.875 404.421L462.001 405.956L464.127 407.274L466.254 408.297L468.38 408.98L470.506 409.389L474.758 409.786L483.262 409.989L517.28 410.098L521.532 410.112" stroke="#7EB0D5" stroke-linecap="square"/>
</g>
<path d="M535.061 411.061C535.646 410.475 535.646 409.525 535.061 408.939L525.515 399.393C524.929 398.808 523.979 398.808 523.393 399.393C522.808 399.979 522.808 400.929 523.393 401.515L531.879 410L523.393 418.485C522.808 419.071 522.808 420.021 523.393 420.607C523.979 421.192 524.929 421.192 525.515 420.607L535.061 411.061ZM79 411.5H534V408.5H79V411.5Z" fill="black"/>
</g>
<defs>
<clipPath id="clip0_230_7838">
<rect width="614.4" height="460.8" fill="white"/>
</clipPath>
</defs>
</svg>
