<svg width="615" height="461" viewBox="0 0 615 461" fill="none" xmlns="http://www.w3.org/2000/svg">
<g clip-path="url(#clip0_230_15438)">
<mask id="mask0_230_15438" style="mask-type:luminance" maskUnits="userSpaceOnUse" x="76" y="55" width="477" height="356">
<path d="M552.957 55.2959H76.7969V410.112H552.957V55.2959Z" fill="white"/>
</mask>
<g mask="url(#mask0_230_15438)">
<path d="M248.992 410.112L295.585 409.903L301.715 409.557L305.394 409.108L312.75 407.747L315.202 407.375L317.655 406.553L320.107 405.342L322.559 403.638L327.464 399.346L331.142 395.836L332.368 394.411L333.594 392.654L334.82 390.486L336.046 387.911L338.499 381.807L342.177 372.08L344.629 365.84L345.855 361.969L347.081 357.057L348.308 351.005L353.212 323.623L356.89 306.473L360.569 290.49L363.021 279.607L365.473 266.669L367.925 252.851L369.152 246.6L370.378 241.341L371.604 237.341L372.83 234.556L374.056 232.663L375.282 231.363L376.508 230.611L377.734 230.541L378.96 231.267L380.187 232.861L381.413 235.423L382.639 239.021L383.865 243.525L386.317 254.159L388.769 266.721L391.222 282.269L393.674 298.905L396.126 312.995L398.578 324.415L403.483 345.252L407.161 362.651L409.613 372.248L412.066 380.471L414.518 387.995L415.744 391.33L416.97 394.18L418.196 396.441L419.422 398.108L420.648 399.295L423.101 400.956L426.779 403.444L429.231 405.207L431.683 406.551L435.362 407.906L437.814 408.678L440.266 409.194L443.945 409.569L457.432 409.985L462.336 409.799L466.015 409.78L475.824 410.053L492.989 410.112" fill="#EFEFEF" fill-opacity="0.4"/>
<path d="M248.992 410.112L295.585 409.903L301.715 409.557L305.394 409.108L312.75 407.747L315.202 407.375L317.655 406.553L320.107 405.342L322.559 403.638L327.464 399.346L331.142 395.836L332.368 394.411L333.594 392.654L334.82 390.486L336.046 387.911L338.499 381.807L342.177 372.08L344.629 365.84L345.855 361.969L347.081 357.057L348.308 351.005L353.212 323.623L356.89 306.473L360.569 290.49L363.021 279.607L365.473 266.669L367.925 252.851L369.152 246.6L370.378 241.341L371.604 237.341L372.83 234.556L374.056 232.663L375.282 231.363L376.508 230.611L377.734 230.541L378.96 231.267L380.187 232.861L381.413 235.423L382.639 239.021L383.865 243.525L386.317 254.159L388.769 266.721L391.222 282.269L393.674 298.905L396.126 312.995L398.578 324.415L403.483 345.252L407.161 362.651L409.613 372.248L412.066 380.471L414.518 387.995L415.744 391.33L416.97 394.18L418.196 396.441L419.422 398.108L420.648 399.295L423.101 400.956L426.779 403.444L429.231 405.207L431.683 406.551L435.362 407.906L437.814 408.678L440.266 409.194L443.945 409.569L457.432 409.985L462.336 409.799L466.015 409.78L475.824 410.053L492.989 410.112" stroke="#EFEFEF" stroke-linecap="square"/>
</g>
<mask id="mask1_230_15438" style="mask-type:luminance" maskUnits="userSpaceOnUse" x="76" y="55" width="477" height="356">
<path d="M552.957 55.2959H76.7969V410.112H552.957V55.2959Z" fill="white"/>
</mask>
<g mask="url(#mask1_230_15438)">
<path d="M257.945 410.111L264.31 409.968L270.674 409.877L273.22 409.825L275.766 409.473L279.585 408.603L282.13 408.674L283.403 408.699L284.676 408.489L285.949 408.008L288.495 406.552L289.768 406.106L292.314 405.966L293.587 405.498L294.859 404.147L302.497 390.765L305.043 384.561L307.589 377.159L308.861 372.611L310.134 367.187L311.407 360.877L312.68 353.326L315.226 333.848L317.772 312.615L319.045 300.335L320.318 285.541L322.863 250.046L327.955 171.892L333.047 88.3388L334.319 76.9961L335.592 72.1924L336.865 74.832L338.138 86.1435L339.411 106.441L340.684 134.185L345.776 265.793L348.321 317.128L349.594 338.358L350.867 355.547L352.14 368.116L353.413 376.733L354.686 383.017L355.959 388.259L357.232 392.638L358.505 395.952L359.778 398.444L361.05 400.54L362.323 402.3L363.596 403.578L364.869 404.315L366.142 404.521L367.415 404.422L368.688 404.485L372.507 405.733L373.779 405.884L375.052 406.186L378.871 407.455L381.417 407.442L386.508 407.454L387.781 407.352L389.054 407.569L391.6 408.533L399.237 409.421L405.602 409.475L408.148 409.348L415.785 409.864L422.15 410.013L445.062 409.892L452.699 410.11L503.615 410.068L507.434 410.05L511.253 410.111" fill="#EFEFEF" fill-opacity="0.4"/>
<path d="M257.945 410.111L264.31 409.968L270.674 409.877L273.22 409.825L275.766 409.473L279.585 408.603L282.13 408.674L283.403 408.699L284.676 408.489L285.949 408.008L288.495 406.552L289.768 406.106L292.314 405.966L293.587 405.498L294.859 404.147L302.497 390.765L305.043 384.561L307.589 377.159L308.861 372.611L310.134 367.187L311.407 360.877L312.68 353.326L315.226 333.848L317.772 312.615L319.045 300.335L320.318 285.541L322.863 250.046L327.955 171.892L333.047 88.3388L334.319 76.9961L335.592 72.1924L336.865 74.832L338.138 86.1435L339.411 106.441L340.684 134.185L345.776 265.793L348.321 317.128L349.594 338.358L350.867 355.547L352.14 368.116L353.413 376.733L354.686 383.017L355.959 388.259L357.232 392.638L358.505 395.952L359.778 398.444L361.05 400.54L362.323 402.3L363.596 403.578L364.869 404.315L366.142 404.521L367.415 404.422L368.688 404.485L372.507 405.733L373.779 405.884L375.052 406.186L378.871 407.455L381.417 407.442L386.508 407.454L387.781 407.352L389.054 407.569L391.6 408.533L399.237 409.421L405.602 409.475L408.148 409.348L415.785 409.864L422.15 410.013L445.062 409.892L452.699 410.11L503.615 410.068L507.434 410.05L511.253 410.111" stroke="#EFEFEF" stroke-linecap="square"/>
</g>
<mask id="mask2_230_15438" style="mask-type:luminance" maskUnits="userSpaceOnUse" x="76" y="55" width="477" height="356">
<path d="M552.957 55.2959H76.7969V410.112H552.957V55.2959Z" fill="white"/>
</mask>
<g mask="url(#mask2_230_15438)">
<path d="M216.188 410.11L226.427 409.968L239.591 409.266L242.516 408.789L246.905 407.716L251.293 406.347L252.755 405.783L254.218 405.053L255.681 404.052L257.144 402.684L258.606 400.895L260.069 398.679L261.532 396.073L262.994 393.113L264.457 389.793L265.92 386.054L267.383 381.806L268.845 376.966L270.308 371.484L271.771 365.337L274.696 351.078L277.622 334.49L280.547 315.981L286.398 276.274L287.861 267.833L289.323 260.905L290.786 255.598L292.249 251.741L293.711 249.045L295.174 247.29L296.637 246.418L298.1 246.52L299.562 247.733L301.025 250.133L302.488 253.698L303.95 258.31L305.413 263.78L308.339 276.306L312.727 295.162L321.503 329.103L322.966 334.076L325.891 342.546L331.742 357.734L333.205 361.158L334.667 364.193L336.13 366.781L337.593 368.945L340.518 372.459L343.444 375.922L347.832 381.423L353.683 387.865L355.145 389.348L356.608 390.572L358.071 391.493L363.922 394.351L372.698 399.542L377.086 401.484L381.474 403.125L385.862 404.433L393.176 406.205L400.49 407.715L403.415 407.916L407.803 408.005L413.654 408.614L419.505 409.081L428.281 409.58L435.595 409.682L442.908 409.919L472.163 410.111L507.268 410.111" fill="#EFEFEF" fill-opacity="0.4"/>
<path d="M216.188 410.11L226.427 409.968L239.591 409.266L242.516 408.789L246.905 407.716L251.293 406.347L252.755 405.783L254.218 405.053L255.681 404.052L257.144 402.684L258.606 400.895L260.069 398.679L261.532 396.073L262.994 393.113L264.457 389.793L265.92 386.054L267.383 381.806L268.845 376.966L270.308 371.484L271.771 365.337L274.696 351.078L277.622 334.49L280.547 315.981L286.398 276.274L287.861 267.833L289.323 260.905L290.786 255.598L292.249 251.741L293.711 249.045L295.174 247.29L296.637 246.418L298.1 246.52L299.562 247.733L301.025 250.133L302.488 253.698L303.95 258.31L305.413 263.78L308.339 276.306L312.727 295.162L321.503 329.103L322.966 334.076L325.891 342.546L331.742 357.734L333.205 361.158L334.667 364.193L336.13 366.781L337.593 368.945L340.518 372.459L343.444 375.922L347.832 381.423L353.683 387.865L355.145 389.348L356.608 390.572L358.071 391.493L363.922 394.351L372.698 399.542L377.086 401.484L381.474 403.125L385.862 404.433L393.176 406.205L400.49 407.715L403.415 407.916L407.803 408.005L413.654 408.614L419.505 409.081L428.281 409.58L435.595 409.682L442.908 409.919L472.163 410.111L507.268 410.111" stroke="#EFEFEF" stroke-linecap="square"/>
</g>
<mask id="mask3_230_15438" style="mask-type:luminance" maskUnits="userSpaceOnUse" x="76" y="55" width="477" height="356">
<path d="M552.957 55.2959H76.7969V410.112H552.957V55.2959Z" fill="white"/>
</mask>
<g mask="url(#mask3_230_15438)">
<path d="M237.438 410.111L271.371 409.933L274.322 409.631L280.223 408.825L286.125 408.331L287.6 407.949L290.551 406.563L292.026 405.624L293.501 404.309L299.403 397.45L300.878 395.911L302.354 393.978L305.304 388.98L306.78 386.019L308.255 382.136L309.73 377.012L315.632 353.754L317.107 346.153L320.058 327.774L324.484 298.453L327.435 278.744L330.386 256.51L331.861 247.425L334.812 233.908L337.762 220.662L339.238 215.824L340.713 213.073L342.189 212.107L343.664 212.845L345.139 215.404L346.615 219.208L348.09 223.445L349.565 228.329L351.041 234.756L352.516 242.95L353.991 252.413L356.942 274.221L359.893 297.053L361.368 306.502L365.794 332.314L368.745 349.679L373.171 372.223L376.122 386.102L377.597 391.436L379.073 395.414L380.548 398.172L382.023 400.042L387.925 406.044L389.4 407.104L390.876 407.912L392.351 408.505L393.826 408.887L399.728 409.616L402.679 409.769L408.58 409.72L417.432 409.956L429.235 410.092L433.661 409.925L436.612 409.851L442.513 410.103L483.824 410.045L489.725 409.968L497.102 410.111L531.035 410.111" fill="#EFEFEF" fill-opacity="0.4"/>
<path d="M237.438 410.111L271.371 409.933L274.322 409.631L280.223 408.825L286.125 408.331L287.6 407.949L290.551 406.563L292.026 405.624L293.501 404.309L299.403 397.45L300.878 395.911L302.354 393.978L305.304 388.98L306.78 386.019L308.255 382.136L309.73 377.012L315.632 353.754L317.107 346.153L320.058 327.774L324.484 298.453L327.435 278.744L330.386 256.51L331.861 247.425L334.812 233.908L337.762 220.662L339.238 215.824L340.713 213.073L342.189 212.107L343.664 212.845L345.139 215.404L346.615 219.208L348.09 223.445L349.565 228.329L351.041 234.756L352.516 242.95L353.991 252.413L356.942 274.221L359.893 297.053L361.368 306.502L365.794 332.314L368.745 349.679L373.171 372.223L376.122 386.102L377.597 391.436L379.073 395.414L380.548 398.172L382.023 400.042L387.925 406.044L389.4 407.104L390.876 407.912L392.351 408.505L393.826 408.887L399.728 409.616L402.679 409.769L408.58 409.72L417.432 409.956L429.235 410.092L433.661 409.925L436.612 409.851L442.513 410.103L483.824 410.045L489.725 409.968L497.102 410.111L531.035 410.111" stroke="#EFEFEF" stroke-linecap="square"/>
</g>
<mask id="mask4_230_15438" style="mask-type:luminance" maskUnits="userSpaceOnUse" x="76" y="55" width="477" height="356">
<path d="M552.957 55.2959H76.7969V410.112H552.957V55.2959Z" fill="white"/>
</mask>
<g mask="url(#mask4_230_15438)">
<path d="M228.938 410.111L245.813 410.008L250.032 409.66L255.658 409.2L259.877 408.939L262.689 408.382L265.502 407.275L271.127 404.233L273.94 402.398L275.346 401.118L276.753 399.527L279.565 395.632L282.378 391.112L283.784 388.431L285.191 385.246L288.003 377.442L290.816 368.647L292.222 363.46L293.629 357.255L296.441 342.257L299.254 326.984L304.879 297.463L309.098 273.165L310.504 266.066L313.317 254.302L316.13 242.453L317.536 236.43L318.942 231.572L320.349 228.882L321.755 228.75L323.161 230.811L324.568 234.197L330.193 249.61L331.599 254.381L333.006 260.251L335.818 274.59L340.037 298.171L344.256 322.872L347.069 337.038L348.475 342.93L351.288 352.711L354.101 362.699L356.913 372.71L358.32 376.957L359.726 380.648L362.538 386.805L363.945 389.388L365.351 391.657L368.164 395.38L370.976 398.463L373.789 401.047L375.195 402.012L378.008 403.341L383.633 405.537L394.884 407.939L400.509 408.409L404.728 409.003L408.947 409.161L413.166 409.33L418.792 409.79L421.604 409.768L425.823 409.573L435.667 409.673L441.293 409.739L446.918 409.907L453.95 409.843L462.388 410.103L486.295 410.051L508.796 410.111" fill="#EFEFEF" fill-opacity="0.4"/>
<path d="M228.938 410.111L245.813 410.008L250.032 409.66L255.658 409.2L259.877 408.939L262.689 408.382L265.502 407.275L271.127 404.233L273.94 402.398L275.346 401.118L276.753 399.527L279.565 395.632L282.378 391.112L283.784 388.431L285.191 385.246L288.003 377.442L290.816 368.647L292.222 363.46L293.629 357.255L296.441 342.257L299.254 326.984L304.879 297.463L309.098 273.165L310.504 266.066L313.317 254.302L316.13 242.453L317.536 236.43L318.942 231.572L320.349 228.882L321.755 228.75L323.161 230.811L324.568 234.197L330.193 249.61L331.599 254.381L333.006 260.251L335.818 274.59L340.037 298.171L344.256 322.872L347.069 337.038L348.475 342.93L351.288 352.711L354.101 362.699L356.913 372.71L358.32 376.957L359.726 380.648L362.538 386.805L363.945 389.388L365.351 391.657L368.164 395.38L370.976 398.463L373.789 401.047L375.195 402.012L378.008 403.341L383.633 405.537L394.884 407.939L400.509 408.409L404.728 409.003L408.947 409.161L413.166 409.33L418.792 409.79L421.604 409.768L425.823 409.573L435.667 409.673L441.293 409.739L446.918 409.907L453.95 409.843L462.388 410.103L486.295 410.051L508.796 410.111" stroke="#EFEFEF" stroke-linecap="square"/>
</g>
<mask id="mask5_230_15438" style="mask-type:luminance" maskUnits="userSpaceOnUse" x="76" y="55" width="477" height="356">
<path d="M552.957 55.2959H76.7969V410.112H552.957V55.2959Z" fill="white"/>
</mask>
<g mask="url(#mask5_230_15438)">
<path d="M270.789 410.11L277.248 410L283.707 409.803L288.874 409.861L296.625 409.433L301.792 408.635L305.667 407.849L310.835 406.513L313.418 405.448L316.002 403.812L319.877 400.872L322.461 398.397L325.044 395.21L327.628 391.419L328.92 388.897L330.211 385.701L332.795 377.829L335.379 369.008L337.962 358.411L343.129 334.602L345.713 321.289L348.296 305.524L352.172 278.758L354.755 263.943L357.339 251.659L361.214 234.232L362.506 228.985L363.798 224.76L365.09 222.117L366.381 221.25L367.673 221.903L368.965 223.726L370.257 226.677L371.549 230.959L372.84 236.593L378.008 263.565L380.591 278.067L383.175 295.404L385.758 313.092L387.05 320.577L389.634 332.877L392.217 345.049L394.801 357.34L396.093 362.532L397.384 366.915L398.676 370.643L401.26 376.738L410.302 394.377L411.594 396.209L412.886 397.603L415.469 399.656L418.053 401.136L420.637 402.537L425.804 405.975L428.387 407.108L430.971 407.717L434.846 408.129L441.305 408.848L445.181 409.423L449.056 409.452L452.931 409.638L459.39 409.994L468.433 410.028L522.688 410.078L527.855 410.11" fill="#EFEFEF" fill-opacity="0.4"/>
<path d="M270.789 410.11L277.248 410L283.707 409.803L288.874 409.861L296.625 409.433L301.792 408.635L305.667 407.849L310.835 406.513L313.418 405.448L316.002 403.812L319.877 400.872L322.461 398.397L325.044 395.21L327.628 391.419L328.92 388.897L330.211 385.701L332.795 377.829L335.379 369.008L337.962 358.411L343.129 334.602L345.713 321.289L348.296 305.524L352.172 278.758L354.755 263.943L357.339 251.659L361.214 234.232L362.506 228.985L363.798 224.76L365.09 222.117L366.381 221.25L367.673 221.903L368.965 223.726L370.257 226.677L371.549 230.959L372.84 236.593L378.008 263.565L380.591 278.067L383.175 295.404L385.758 313.092L387.05 320.577L389.634 332.877L392.217 345.049L394.801 357.34L396.093 362.532L397.384 366.915L398.676 370.643L401.26 376.738L410.302 394.377L411.594 396.209L412.886 397.603L415.469 399.656L418.053 401.136L420.637 402.537L425.804 405.975L428.387 407.108L430.971 407.717L434.846 408.129L441.305 408.848L445.181 409.423L449.056 409.452L452.931 409.638L459.39 409.994L468.433 410.028L522.688 410.078L527.855 410.11" stroke="#EFEFEF" stroke-linecap="square"/>
</g>
<mask id="mask6_230_15438" style="mask-type:luminance" maskUnits="userSpaceOnUse" x="76" y="55" width="477" height="356">
<path d="M552.957 55.2959H76.7969V410.112H552.957V55.2959Z" fill="white"/>
</mask>
<g mask="url(#mask6_230_15438)">
<path d="M254.609 410.111L284.889 409.956L287.522 409.824L294.105 409.833L298.054 409.469L302.004 408.945L308.586 407.769L309.903 407.23L312.536 405.369L313.852 404.46L316.485 403.141L317.802 402.181L319.118 400.717L323.068 395.176L325.701 391.947L327.017 389.577L328.334 386.121L332.283 373.416L334.916 366.215L336.233 361.173L337.549 354.206L338.866 345.144L344.132 302.358L345.448 293.56L346.765 283.346L348.081 270.532L352.031 228.245L354.664 204.924L357.297 185.422L358.613 177.759L359.93 173.043L363.879 165.296L365.196 164.877L366.512 168.989L367.829 177.813L369.145 190.105L370.462 205.064L373.095 240.747L377.044 295.77L378.361 311.059L380.994 335.803L383.627 358.022L384.943 366.749L386.26 373.657L388.893 384.908L390.209 389.257L391.526 392.556L392.842 395.118L395.475 399.315L396.792 400.929L398.108 402.107L400.741 403.755L403.374 405.178L404.691 405.692L411.274 407.431L413.907 408.238L416.539 408.599L419.173 408.992L421.806 409.437L424.439 409.495L427.072 409.3L436.287 409.602L442.87 409.938L449.452 410.045L456.035 410.078L463.934 410.049L470.516 410.106L506.062 410.1L513.961 410.095L516.594 410.111" fill="#EFEFEF" fill-opacity="0.4"/>
<path d="M254.609 410.111L284.889 409.956L287.522 409.824L294.105 409.833L298.054 409.469L302.004 408.945L308.586 407.769L309.903 407.23L312.536 405.369L313.852 404.46L316.485 403.141L317.802 402.181L319.118 400.717L323.068 395.176L325.701 391.947L327.017 389.577L328.334 386.121L332.283 373.416L334.916 366.215L336.233 361.173L337.549 354.206L338.866 345.144L344.132 302.358L345.448 293.56L346.765 283.346L348.081 270.532L352.031 228.245L354.664 204.924L357.297 185.422L358.613 177.759L359.93 173.043L363.879 165.296L365.196 164.877L366.512 168.989L367.829 177.813L369.145 190.105L370.462 205.064L373.095 240.747L377.044 295.77L378.361 311.059L380.994 335.803L383.627 358.022L384.943 366.749L386.26 373.657L388.893 384.908L390.209 389.257L391.526 392.556L392.842 395.118L395.475 399.315L396.792 400.929L398.108 402.107L400.741 403.755L403.374 405.178L404.691 405.692L411.274 407.431L413.907 408.238L416.539 408.599L419.173 408.992L421.806 409.437L424.439 409.495L427.072 409.3L436.287 409.602L442.87 409.938L449.452 410.045L456.035 410.078L463.934 410.049L470.516 410.106L506.062 410.1L513.961 410.095L516.594 410.111" stroke="#EFEFEF" stroke-linecap="square"/>
</g>
<mask id="mask7_230_15438" style="mask-type:luminance" maskUnits="userSpaceOnUse" x="76" y="55" width="477" height="356">
<path d="M552.957 55.2959H76.7969V410.112H552.957V55.2959Z" fill="white"/>
</mask>
<g mask="url(#mask7_230_15438)">
<path d="M261.242 410.111L276.25 409.944L281.253 409.92L285.005 409.82L290.008 409.621L300.013 409.411L303.765 409.003L308.768 408.29L311.27 408.13L313.771 407.374L317.523 406.2L320.024 405.217L322.526 403.691L325.027 402.23L327.528 401.105L328.779 400.286L330.03 399.153L332.531 396.178L335.033 392.439L337.534 388.193L338.785 386.358L341.286 383.165L342.537 380.999L343.787 377.939L345.038 373.862L346.289 368.869L348.79 357.253L351.291 344.6L352.542 337.437L353.793 329.162L356.294 308.811L358.796 287.124L361.297 269.268L370.052 216.412L371.302 211.449L372.553 208.923L373.804 208.379L375.054 208.684L376.305 208.71L377.556 207.892L378.806 206.488L380.057 205.596L381.308 206.781L382.558 211.208L383.809 218.868L386.311 239.683L390.063 272.27L393.815 304.111L398.817 346.559L400.068 355.881L401.319 363.987L402.569 370.727L403.82 376.232L406.322 384.927L408.823 391.906L410.074 394.637L412.575 398.863L415.076 402.344L416.327 403.779L417.578 404.939L418.828 405.802L420.079 406.395L425.082 408.041L427.583 408.603L431.335 408.952L440.09 409.408L450.095 409.681L456.349 409.986L485.115 410.046L491.368 410.015L510.128 410.111" fill="#EFEFEF" fill-opacity="0.4"/>
<path d="M261.242 410.111L276.25 409.944L281.253 409.92L285.005 409.82L290.008 409.621L300.013 409.411L303.765 409.003L308.768 408.29L311.27 408.13L313.771 407.374L317.523 406.2L320.024 405.217L322.526 403.691L325.027 402.23L327.528 401.105L328.779 400.286L330.03 399.153L332.531 396.178L335.033 392.439L337.534 388.193L338.785 386.358L341.286 383.165L342.537 380.999L343.787 377.939L345.038 373.862L346.289 368.869L348.79 357.253L351.291 344.6L352.542 337.437L353.793 329.162L356.294 308.811L358.796 287.124L361.297 269.268L370.052 216.412L371.302 211.449L372.553 208.923L373.804 208.379L375.054 208.684L376.305 208.71L377.556 207.892L378.806 206.488L380.057 205.596L381.308 206.781L382.558 211.208L383.809 218.868L386.311 239.683L390.063 272.27L393.815 304.111L398.817 346.559L400.068 355.881L401.319 363.987L402.569 370.727L403.82 376.232L406.322 384.927L408.823 391.906L410.074 394.637L412.575 398.863L415.076 402.344L416.327 403.779L417.578 404.939L418.828 405.802L420.079 406.395L425.082 408.041L427.583 408.603L431.335 408.952L440.09 409.408L450.095 409.681L456.349 409.986L485.115 410.046L491.368 410.015L510.128 410.111" stroke="#EFEFEF" stroke-linecap="square"/>
</g>
<mask id="mask8_230_15438" style="mask-type:luminance" maskUnits="userSpaceOnUse" x="76" y="55" width="477" height="356">
<path d="M552.957 55.2959H76.7969V410.112H552.957V55.2959Z" fill="white"/>
</mask>
<g mask="url(#mask8_230_15438)">
<path d="M269.078 410.11L285.211 409.952L295.14 409.599L298.863 409.361L303.827 408.7L308.791 407.833L311.273 407.028L314.996 405.27L321.201 402.096L323.683 400.335L327.406 397.162L329.888 394.72L331.129 393.205L333.611 389.437L336.093 384.89L338.575 379.522L341.057 373.208L344.78 362.687L347.262 355.091L350.985 342.397L354.708 329.539L359.673 314.096L367.119 290.651L369.601 284.143L370.842 281.26L372.083 278.811L373.324 276.878L374.565 275.389L379.529 270.554L380.77 269.494L382.011 268.728L383.252 268.363L384.493 268.442L385.734 268.953L386.975 269.878L388.216 271.228L389.457 273.044L390.698 275.359L391.939 278.185L393.18 281.517L394.421 285.347L396.903 294.409L406.831 334.644L415.518 367.637L418 374.776L420.483 380.85L422.965 386.248L425.447 390.96L427.929 394.884L430.411 398.025L432.893 400.368L435.375 402.106L437.857 403.471L441.58 405.029L446.544 407.006L449.026 407.666L455.231 408.925L457.713 409.21L472.605 409.972L485.016 409.865L499.908 410.016L508.595 410.039L516.041 410.11" fill="#EFEFEF" fill-opacity="0.4"/>
<path d="M269.078 410.11L285.211 409.952L295.14 409.599L298.863 409.361L303.827 408.7L308.791 407.833L311.273 407.028L314.996 405.27L321.201 402.096L323.683 400.335L327.406 397.162L329.888 394.72L331.129 393.205L333.611 389.437L336.093 384.89L338.575 379.522L341.057 373.208L344.78 362.687L347.262 355.091L350.985 342.397L354.708 329.539L359.673 314.096L367.119 290.651L369.601 284.143L370.842 281.26L372.083 278.811L373.324 276.878L374.565 275.389L379.529 270.554L380.77 269.494L382.011 268.728L383.252 268.363L384.493 268.442L385.734 268.953L386.975 269.878L388.216 271.228L389.457 273.044L390.698 275.359L391.939 278.185L393.18 281.517L394.421 285.347L396.903 294.409L406.831 334.644L415.518 367.637L418 374.776L420.483 380.85L422.965 386.248L425.447 390.96L427.929 394.884L430.411 398.025L432.893 400.368L435.375 402.106L437.857 403.471L441.58 405.029L446.544 407.006L449.026 407.666L455.231 408.925L457.713 409.21L472.605 409.972L485.016 409.865L499.908 410.016L508.595 410.039L516.041 410.11" stroke="#EFEFEF" stroke-linecap="square"/>
</g>
<mask id="mask9_230_15438" style="mask-type:luminance" maskUnits="userSpaceOnUse" x="76" y="55" width="477" height="356">
<path d="M552.957 55.2959H76.7969V410.112H552.957V55.2959Z" fill="white"/>
</mask>
<g mask="url(#mask9_230_15438)">
<path d="M250.344 410.111L257.179 409.953L266.293 409.623L269.711 409.437L271.989 409.482L274.267 409.132L283.381 406.334L286.799 404.973L289.077 404.206L290.217 403.562L291.356 402.531L292.495 401.003L295.913 395.01L297.052 393.484L299.33 390.999L300.47 389.489L302.748 385.703L303.887 384.205L306.166 382.282L307.305 380.729L308.444 377.967L309.584 373.742L311.862 362.147L315.28 343.915L318.697 325.97L319.837 318.979L320.976 310.525L323.254 290.011L325.533 266.433L327.811 237.209L331.229 191.466L333.507 164.844L335.786 142.454L336.925 133.911L338.064 128.797L339.203 127.871L340.343 131.001L341.482 137.738L342.621 147.551L343.76 159.72L344.9 173.723L347.178 207.345L350.596 261.406L355.153 327.412L357.431 355.135L358.57 365.796L359.709 374.208L360.849 380.782L361.988 386.152L364.266 394.909L365.406 398.426L366.545 401.295L367.684 403.486L368.823 405.047L369.963 406.113L371.102 406.833L372.241 407.297L374.519 407.707L385.912 408.766L388.19 408.972L391.608 409.587L393.886 409.463L396.165 409.356L400.722 409.697L404.139 409.644L407.557 409.861L420.088 409.899L423.506 409.931L431.481 409.887L438.316 410.066L446.291 409.986L451.987 410.104L463.379 410.112L469.075 410L472.493 409.992L477.05 410.111" fill="#EFEFEF" fill-opacity="0.4"/>
<path d="M250.344 410.111L257.179 409.953L266.293 409.623L269.711 409.437L271.989 409.482L274.267 409.132L283.381 406.334L286.799 404.973L289.077 404.206L290.217 403.562L291.356 402.531L292.495 401.003L295.913 395.01L297.052 393.484L299.33 390.999L300.47 389.489L302.748 385.703L303.887 384.205L306.166 382.282L307.305 380.729L308.444 377.967L309.584 373.742L311.862 362.147L315.28 343.915L318.697 325.97L319.837 318.979L320.976 310.525L323.254 290.011L325.533 266.433L327.811 237.209L331.229 191.466L333.507 164.844L335.786 142.454L336.925 133.911L338.064 128.797L339.203 127.871L340.343 131.001L341.482 137.738L342.621 147.551L343.76 159.72L344.9 173.723L347.178 207.345L350.596 261.406L355.153 327.412L357.431 355.135L358.57 365.796L359.709 374.208L360.849 380.782L361.988 386.152L364.266 394.909L365.406 398.426L366.545 401.295L367.684 403.486L368.823 405.047L369.963 406.113L371.102 406.833L372.241 407.297L374.519 407.707L385.912 408.766L388.19 408.972L391.608 409.587L393.886 409.463L396.165 409.356L400.722 409.697L404.139 409.644L407.557 409.861L420.088 409.899L423.506 409.931L431.481 409.887L438.316 410.066L446.291 409.986L451.987 410.104L463.379 410.112L469.075 410L472.493 409.992L477.05 410.111" stroke="#EFEFEF" stroke-linecap="square"/>
</g>
<mask id="mask10_230_15438" style="mask-type:luminance" maskUnits="userSpaceOnUse" x="76" y="55" width="477" height="356">
<path d="M552.957 55.2959H76.7969V410.112H552.957V55.2959Z" fill="white"/>
</mask>
<g mask="url(#mask10_230_15438)">
<path d="M267.82 410.111L272.467 410.017L280.599 409.638L285.246 409.527L292.216 409.054L294.54 408.967L298.025 408.47L300.348 407.975L302.672 407.093L304.995 406.128L308.481 404.916L310.804 403.664L311.966 402.779L313.127 401.671L315.451 398.74L318.936 393.937L320.098 391.971L324.745 382.544L325.906 380.063L327.068 377.082L328.23 373.466L330.553 364.807L331.715 359.629L332.877 353.423L334.038 345.997L336.362 328.548L338.685 309.474L341.009 286.316L344.494 246.056L349.141 186.26L351.464 164.09L353.788 145.81L354.949 138.802L356.111 135.155L357.273 136.214L358.435 142.195L359.596 152.38L360.758 165.952L363.081 200.664L367.728 275.603L368.89 290.724L370.052 303.27L371.213 313.687L373.537 330.61L375.86 343.807L380.507 365.91L382.831 375.309L383.992 378.851L385.154 381.454L386.316 383.284L387.478 384.811L388.639 386.602L389.801 388.954L392.124 394.483L393.286 396.801L394.448 398.45L395.61 399.487L397.933 400.961L400.256 403.064L402.58 405.076L403.742 405.746L404.903 406.204L407.227 406.639L409.55 406.904L416.521 408.26L424.653 409.547L431.623 409.697L433.946 409.88L442.078 409.872L452.534 410.078L458.342 410L466.475 410.088L499.003 410.111" fill="#EFEFEF" fill-opacity="0.4"/>
<path d="M267.82 410.111L272.467 410.017L280.599 409.638L285.246 409.527L292.216 409.054L294.54 408.967L298.025 408.47L300.348 407.975L302.672 407.093L304.995 406.128L308.481 404.916L310.804 403.664L311.966 402.779L313.127 401.671L315.451 398.74L318.936 393.937L320.098 391.971L324.745 382.544L325.906 380.063L327.068 377.082L328.23 373.466L330.553 364.807L331.715 359.629L332.877 353.423L334.038 345.997L336.362 328.548L338.685 309.474L341.009 286.316L344.494 246.056L349.141 186.26L351.464 164.09L353.788 145.81L354.949 138.802L356.111 135.155L357.273 136.214L358.435 142.195L359.596 152.38L360.758 165.952L363.081 200.664L367.728 275.603L368.89 290.724L370.052 303.27L371.213 313.687L373.537 330.61L375.86 343.807L380.507 365.91L382.831 375.309L383.992 378.851L385.154 381.454L386.316 383.284L387.478 384.811L388.639 386.602L389.801 388.954L392.124 394.483L393.286 396.801L394.448 398.45L395.61 399.487L397.933 400.961L400.256 403.064L402.58 405.076L403.742 405.746L404.903 406.204L407.227 406.639L409.55 406.904L416.521 408.26L424.653 409.547L431.623 409.697L433.946 409.88L442.078 409.872L452.534 410.078L458.342 410L466.475 410.088L499.003 410.111" stroke="#EFEFEF" stroke-linecap="square"/>
</g>
<mask id="mask11_230_15438" style="mask-type:luminance" maskUnits="userSpaceOnUse" x="76" y="55" width="477" height="356">
<path d="M552.957 55.2959H76.7969V410.112H552.957V55.2959Z" fill="white"/>
</mask>
<g mask="url(#mask11_230_15438)">
<path d="M249.453 410.112L275.242 409.923L284.743 409.465L287.458 409.247L294.245 409.341L301.031 408.656L305.103 407.814L307.818 407.499L310.532 406.923L313.247 406.089L318.676 403.539L320.034 402.631L321.391 401.337L324.106 397.974L326.82 394.328L328.178 392.302L329.535 389.978L330.892 387.267L332.25 384.108L333.607 380.428L334.964 376.162L337.679 366.243L340.394 354.924L343.108 341.777L344.465 334.593L345.823 326.386L347.18 316.447L349.895 291.753L352.609 267.004L353.967 256.619L356.681 239.517L360.753 216.151L362.111 209.79L363.468 205.299L364.825 202.982L366.183 202.805L367.54 204.638L368.897 208.141L370.255 212.644L371.612 217.826L372.969 224.275L374.327 232.735L379.756 273.995L382.47 290.673L385.185 307.554L389.257 334.513L390.614 341.926L391.972 347.988L396.044 364.155L398.758 375.793L400.116 380.752L401.473 384.891L402.83 388.198L405.545 393.251L408.259 398.087L409.617 400.154L410.974 401.816L413.689 404.451L415.046 405.447L416.403 406.148L419.118 407.006L424.547 408.348L428.619 409.007L431.334 409.045L435.406 409.078L439.478 409.381L444.907 409.858L450.336 410.052L470.696 410.042L496.485 410.019L501.915 410.055L507.344 410.077L514.13 410.034L519.56 410.111" fill="#EFEFEF" fill-opacity="0.4"/>
<path d="M249.453 410.112L275.242 409.923L284.743 409.465L287.458 409.247L294.245 409.341L301.031 408.656L305.103 407.814L307.818 407.499L310.532 406.923L313.247 406.089L318.676 403.539L320.034 402.631L321.391 401.337L324.106 397.974L326.82 394.328L328.178 392.302L329.535 389.978L330.892 387.267L332.25 384.108L333.607 380.428L334.964 376.162L337.679 366.243L340.394 354.924L343.108 341.777L344.465 334.593L345.823 326.386L347.18 316.447L349.895 291.753L352.609 267.004L353.967 256.619L356.681 239.517L360.753 216.151L362.111 209.79L363.468 205.299L364.825 202.982L366.183 202.805L367.54 204.638L368.897 208.141L370.255 212.644L371.612 217.826L372.969 224.275L374.327 232.735L379.756 273.995L382.47 290.673L385.185 307.554L389.257 334.513L390.614 341.926L391.972 347.988L396.044 364.155L398.758 375.793L400.116 380.752L401.473 384.891L402.83 388.198L405.545 393.251L408.259 398.087L409.617 400.154L410.974 401.816L413.689 404.451L415.046 405.447L416.403 406.148L419.118 407.006L424.547 408.348L428.619 409.007L431.334 409.045L435.406 409.078L439.478 409.381L444.907 409.858L450.336 410.052L470.696 410.042L496.485 410.019L501.915 410.055L507.344 410.077L514.13 410.034L519.56 410.111" stroke="#EFEFEF" stroke-linecap="square"/>
</g>
<mask id="mask12_230_15438" style="mask-type:luminance" maskUnits="userSpaceOnUse" x="76" y="55" width="477" height="356">
<path d="M552.957 55.2959H76.7969V410.112H552.957V55.2959Z" fill="white"/>
</mask>
<g mask="url(#mask12_230_15438)">
<path d="M249.773 410.11L259.147 409.953L268.521 409.69L273.877 409.195L277.894 408.442L280.572 407.783L283.251 406.834L287.268 405.239L288.607 404.731L289.946 403.925L291.285 402.651L293.963 399.097L299.32 391.846L300.659 389.392L301.998 386.323L304.676 378.98L307.354 370.595L308.693 365.695L310.032 360.105L312.711 346.905L318.067 318.997L320.745 300.958L324.762 271.554L327.441 254.333L328.78 247.232L330.119 241.291L332.797 231.332L334.136 226.662L335.475 222.622L336.814 219.966L338.153 219.178L339.492 220.187L340.832 222.528L342.171 225.695L343.51 229.411L344.849 233.7L346.188 238.753L348.866 251.23L351.544 265.525L354.222 282.361L356.901 302.242L359.579 322.493L360.918 331.66L362.257 339.614L363.596 346.354L368.952 369.782L370.291 375.279L371.631 380.122L372.97 384.193L374.309 387.613L376.987 393.234L378.326 395.532L381.004 399.275L383.682 402.216L385.021 403.306L387.7 404.878L390.378 405.953L393.056 406.556L395.734 407.125L403.769 409.258L406.447 409.187L410.464 408.847L413.142 409.042L418.499 409.641L422.516 409.741L435.907 409.898L439.924 409.909L445.28 409.876L450.637 409.957L454.654 409.945L461.35 410.094L473.401 410.018L516.252 410.11" fill="#EFEFEF" fill-opacity="0.4"/>
<path d="M249.773 410.11L259.147 409.953L268.521 409.69L273.877 409.195L277.894 408.442L280.572 407.783L283.251 406.834L287.268 405.239L288.607 404.731L289.946 403.925L291.285 402.651L293.963 399.097L299.32 391.846L300.659 389.392L301.998 386.323L304.676 378.98L307.354 370.595L308.693 365.695L310.032 360.105L312.711 346.905L318.067 318.997L320.745 300.958L324.762 271.554L327.441 254.333L328.78 247.232L330.119 241.291L332.797 231.332L334.136 226.662L335.475 222.622L336.814 219.966L338.153 219.178L339.492 220.187L340.832 222.528L342.171 225.695L343.51 229.411L344.849 233.7L346.188 238.753L348.866 251.23L351.544 265.525L354.222 282.361L356.901 302.242L359.579 322.493L360.918 331.66L362.257 339.614L363.596 346.354L368.952 369.782L370.291 375.279L371.631 380.122L372.97 384.193L374.309 387.613L376.987 393.234L378.326 395.532L381.004 399.275L383.682 402.216L385.021 403.306L387.7 404.878L390.378 405.953L393.056 406.556L395.734 407.125L403.769 409.258L406.447 409.187L410.464 408.847L413.142 409.042L418.499 409.641L422.516 409.741L435.907 409.898L439.924 409.909L445.28 409.876L450.637 409.957L454.654 409.945L461.35 410.094L473.401 410.018L516.252 410.11" stroke="#EFEFEF" stroke-linecap="square"/>
</g>
<mask id="mask13_230_15438" style="mask-type:luminance" maskUnits="userSpaceOnUse" x="76" y="55" width="477" height="356">
<path d="M552.957 55.2959H76.7969V410.112H552.957V55.2959Z" fill="white"/>
</mask>
<g mask="url(#mask13_230_15438)">
<path d="M231.891 410.112L240.918 409.973L246.937 409.749L249.946 409.321L252.956 408.577L255.965 407.549L257.47 406.706L258.974 405.446L260.479 403.77L261.983 401.776L263.488 399.489L264.993 396.794L266.497 393.497L268.002 389.47L269.507 384.769L271.011 379.529L272.516 373.74L274.021 367.187L275.525 359.62L278.534 342.025L281.544 324.182L284.553 308.062L287.562 292.264L295.086 246.664L296.59 238.787L298.095 232.249L299.599 227.612L301.104 224.832L302.609 223.674L304.113 224.093L305.618 225.871L308.627 230.976L310.132 234.273L311.637 238.996L313.141 245.308L316.15 260.879L319.16 278.165L326.683 324.379L331.197 349.212L332.702 357.013L334.206 364.017L335.711 369.95L337.215 374.97L340.225 383.407L341.729 386.955L344.739 392.883L346.243 395.4L347.748 397.584L349.253 399.341L350.757 400.634L353.766 402.343L361.29 406.182L362.794 406.551L370.317 407.698L374.831 408.456L377.841 408.469L382.355 408.316L386.869 408.819L391.382 409.172L410.943 409.858L432.008 409.953L442.54 410.039L531.314 410.112" fill="#EFEFEF" fill-opacity="0.4"/>
<path d="M231.891 410.112L240.918 409.973L246.937 409.749L249.946 409.321L252.956 408.577L255.965 407.549L257.47 406.706L258.974 405.446L260.479 403.77L261.983 401.776L263.488 399.489L264.993 396.794L266.497 393.497L268.002 389.47L269.507 384.769L271.011 379.529L272.516 373.74L274.021 367.187L275.525 359.62L278.534 342.025L281.544 324.182L284.553 308.062L287.562 292.264L295.086 246.664L296.59 238.787L298.095 232.249L299.599 227.612L301.104 224.832L302.609 223.674L304.113 224.093L305.618 225.871L308.627 230.976L310.132 234.273L311.637 238.996L313.141 245.308L316.15 260.879L319.16 278.165L326.683 324.379L331.197 349.212L332.702 357.013L334.206 364.017L335.711 369.95L337.215 374.97L340.225 383.407L341.729 386.955L344.739 392.883L346.243 395.4L347.748 397.584L349.253 399.341L350.757 400.634L353.766 402.343L361.29 406.182L362.794 406.551L370.317 407.698L374.831 408.456L377.841 408.469L382.355 408.316L386.869 408.819L391.382 409.172L410.943 409.858L432.008 409.953L442.54 410.039L531.314 410.112" stroke="#EFEFEF" stroke-linecap="square"/>
</g>
<mask id="mask14_230_15438" style="mask-type:luminance" maskUnits="userSpaceOnUse" x="76" y="55" width="477" height="356">
<path d="M552.957 55.2959H76.7969V410.112H552.957V55.2959Z" fill="white"/>
</mask>
<g mask="url(#mask14_230_15438)">
<path d="M98.4375 410.111L192.846 409.991L197.042 409.758L201.238 409.25L205.434 408.285L209.63 406.968L213.826 405.302L215.924 404.151L220.12 401.183L226.414 396.326L234.806 388.492L236.904 386.723L239.002 384.669L241.1 382.222L243.198 379.456L245.296 376.427L247.394 373.023L249.492 369.089L257.884 351.772L262.08 342.96L264.178 338.439L266.276 334.436L268.374 331.101L272.57 324.898L276.765 317.51L280.961 309.914L283.059 306.64L285.157 303.973L287.255 301.9L289.353 300.274L291.451 298.988L293.549 298.113L295.647 297.891L297.745 298.538L299.843 300.032L301.941 302.093L308.235 308.974L310.333 311.84L312.431 315.712L314.529 320.669L322.921 342.67L327.117 354.067L331.313 366.279L333.411 371.732L335.509 376.249L337.607 379.868L339.705 382.899L343.901 388.314L345.999 390.814L348.097 393.05L350.195 394.975L354.391 398.248L358.587 401.254L360.684 402.554L362.782 403.61L364.88 404.406L371.174 406.087L375.37 407.104L379.566 407.678L387.958 408.541L394.252 409.253L404.742 409.574L432.016 409.88L444.604 410.041L457.191 410.075L515.935 410.111" fill="#7EB0D5" fill-opacity="0.4"/>
<path d="M98.4375 410.111L192.846 409.991L197.042 409.758L201.238 409.25L205.434 408.285L209.63 406.968L213.826 405.302L215.924 404.151L220.12 401.183L226.414 396.326L234.806 388.492L236.904 386.723L239.002 384.669L241.1 382.222L243.198 379.456L245.296 376.427L247.394 373.023L249.492 369.089L257.884 351.772L262.08 342.96L264.178 338.439L266.276 334.436L268.374 331.101L272.57 324.898L276.765 317.51L280.961 309.914L283.059 306.64L285.157 303.973L287.255 301.9L289.353 300.274L291.451 298.988L293.549 298.113L295.647 297.891L297.745 298.538L299.843 300.032L301.941 302.093L308.235 308.974L310.333 311.84L312.431 315.712L314.529 320.669L322.921 342.67L327.117 354.067L331.313 366.279L333.411 371.732L335.509 376.249L337.607 379.868L339.705 382.899L343.901 388.314L345.999 390.814L348.097 393.05L350.195 394.975L354.391 398.248L358.587 401.254L360.684 402.554L362.782 403.61L364.88 404.406L371.174 406.087L375.37 407.104L379.566 407.678L387.958 408.541L394.252 409.253L404.742 409.574L432.016 409.88L444.604 410.041L457.191 410.075L515.935 410.111" stroke="#7EB0D5" stroke-linecap="square"/>
</g>
<path d="M535.061 411.061C535.646 410.475 535.646 409.525 535.061 408.939L525.515 399.393C524.929 398.808 523.979 398.808 523.393 399.393C522.808 399.979 522.808 400.929 523.393 401.515L531.879 410L523.393 418.485C522.808 419.071 522.808 420.021 523.393 420.607C523.979 421.192 524.929 421.192 525.515 420.607L535.061 411.061ZM79 411.5H534V408.5H79V411.5Z" fill="black"/>
</g>
<defs>
<clipPath id="clip0_230_15438">
<rect width="614.4" height="460.8" fill="white"/>
</clipPath>
</defs>
</svg>
