<svg width="615" height="461" viewBox="0 0 615 461" fill="none" xmlns="http://www.w3.org/2000/svg">
<g clip-path="url(#clip0_230_15198)">
<mask id="mask0_230_15198" style="mask-type:luminance" maskUnits="userSpaceOnUse" x="76" y="55" width="477" height="356">
<path d="M552.957 55.2959H76.7969V410.112H552.957V55.2959Z" fill="white"/>
</mask>
<g mask="url(#mask0_230_15198)">
<path d="M315.766 410.111L326.517 409.964L331.893 409.477L332.789 409.16L334.581 408.062L336.373 406.611L337.269 405.781L338.165 404.748L339.061 403.197L339.957 400.738L340.853 397.2L343.54 383.674L344.436 378.401L345.332 371.596L346.228 362.756L348.02 340.386L349.812 318.41L353.396 281.176L355.188 261.194L356.084 253.087L356.98 247.028L357.876 242.966L358.772 240.575L359.668 239.52L360.564 239.445L361.46 240.036L362.356 241.455L363.252 244.439L364.148 249.37L368.627 280.224L373.107 319.316L375.795 341.401L377.587 354.327L379.379 364.614L383.859 384.292L384.755 387.437L386.547 392.252L388.338 396.383L390.13 399.561L391.922 401.911L393.714 403.649L396.402 405.411L399.986 407.322L404.466 408.4L408.946 409.074L411.633 409.535L415.217 409.768L417.905 409.768L421.489 409.705L430.449 409.969L485.102 410.062L492.27 410.102L494.062 410.111" fill="#EFEFEF" fill-opacity="0.4"/>
<path d="M315.766 410.111L326.517 409.964L331.893 409.477L332.789 409.16L334.581 408.062L336.373 406.611L337.269 405.781L338.165 404.748L339.061 403.197L339.957 400.738L340.853 397.2L343.54 383.674L344.436 378.401L345.332 371.596L346.228 362.756L348.02 340.386L349.812 318.41L353.396 281.176L355.188 261.194L356.084 253.087L356.98 247.028L357.876 242.966L358.772 240.575L359.668 239.52L360.564 239.445L361.46 240.036L362.356 241.455L363.252 244.439L364.148 249.37L368.627 280.224L373.107 319.316L375.795 341.401L377.587 354.327L379.379 364.614L383.859 384.292L384.755 387.437L386.547 392.252L388.338 396.383L390.13 399.561L391.922 401.911L393.714 403.649L396.402 405.411L399.986 407.322L404.466 408.4L408.946 409.074L411.633 409.535L415.217 409.768L417.905 409.768L421.489 409.705L430.449 409.969L485.102 410.062L492.27 410.102L494.062 410.111" stroke="#EFEFEF" stroke-linecap="square"/>
</g>
<mask id="mask1_230_15198" style="mask-type:luminance" maskUnits="userSpaceOnUse" x="76" y="55" width="477" height="356">
<path d="M552.957 55.2959H76.7969V410.112H552.957V55.2959Z" fill="white"/>
</mask>
<g mask="url(#mask1_230_15198)">
<path d="M313.125 410.111L318.049 409.936L321.004 409.668L322.974 409.331L323.959 408.973L324.944 408.315L325.929 407.328L326.914 406.057L327.898 404.113L328.883 401.146L329.868 397.314L330.853 392.256L331.838 385.283L332.823 375.342L333.808 361.463L334.793 343.353L335.778 319.952L336.762 290.071L337.747 252.303L339.717 164.886L340.702 128.446L341.687 102.393L342.672 89.624L343.657 92.3832L344.642 109.474L345.627 135.899L350.551 285.713L351.536 307.212L352.521 324.534L353.506 338.197L355.475 358.452L356.46 366.64L357.445 373.272L358.43 378.394L359.415 382.219L364.34 395.666L365.324 397.95L367.294 400.113L368.279 401.306L370.249 403.033L372.219 404.693L376.158 406.521L378.128 407.645L380.098 407.775L382.068 408.074L385.022 408.717L388.962 409.151L391.917 409.712L395.856 409.977L400.781 409.736L405.705 409.881L408.66 410.038L411.614 410.044L415.554 409.896L421.463 410.011L439.192 410.05L442.146 410.089L448.056 409.936L475.633 410.112L509.119 410.111" fill="#EFEFEF" fill-opacity="0.4"/>
<path d="M313.125 410.111L318.049 409.936L321.004 409.668L322.974 409.331L323.959 408.973L324.944 408.315L325.929 407.328L326.914 406.057L327.898 404.113L328.883 401.146L329.868 397.314L330.853 392.256L331.838 385.283L332.823 375.342L333.808 361.463L334.793 343.353L335.778 319.952L336.762 290.071L337.747 252.303L339.717 164.886L340.702 128.446L341.687 102.393L342.672 89.624L343.657 92.3832L344.642 109.474L345.627 135.899L350.551 285.713L351.536 307.212L352.521 324.534L353.506 338.197L355.475 358.452L356.46 366.64L357.445 373.272L358.43 378.394L359.415 382.219L364.34 395.666L365.324 397.95L367.294 400.113L368.279 401.306L370.249 403.033L372.219 404.693L376.158 406.521L378.128 407.645L380.098 407.775L382.068 408.074L385.022 408.717L388.962 409.151L391.917 409.712L395.856 409.977L400.781 409.736L405.705 409.881L408.66 410.038L411.614 410.044L415.554 409.896L421.463 410.011L439.192 410.05L442.146 410.089L448.056 409.936L475.633 410.112L509.119 410.111" stroke="#EFEFEF" stroke-linecap="square"/>
</g>
<mask id="mask2_230_15198" style="mask-type:luminance" maskUnits="userSpaceOnUse" x="76" y="55" width="477" height="356">
<path d="M552.957 55.2959H76.7969V410.112H552.957V55.2959Z" fill="white"/>
</mask>
<g mask="url(#mask2_230_15198)">
<path d="M271.781 410.112L290.273 409.987L301.368 409.462L303.834 409.067L306.3 408.161L309.998 406.419L311.231 405.63L312.464 404.606L313.696 403.264L314.929 401.428L316.162 398.913L317.395 395.65L318.628 391.594L319.86 386.508L321.093 380.013L322.326 371.982L324.792 352.862L327.257 331.833L330.956 299.153L332.188 290.027L333.421 282.513L334.654 276.747L335.887 272.705L337.12 270.361L338.353 269.947L339.585 271.88L340.818 276.257L342.051 282.548L349.448 325.49L351.913 338.414L354.379 348.856L356.845 357.959L359.31 365.022L363.009 374.336L364.241 376.789L365.474 378.77L369.173 383.878L372.871 389.789L375.337 392.685L377.802 395.219L381.501 398.42L383.966 400.293L385.199 400.926L390.13 402.772L395.061 405.486L397.527 406.409L399.993 406.786L402.458 406.936L404.924 407.454L408.622 408.336L413.553 409.168L418.485 409.52L423.416 409.698L433.278 409.906L438.209 410.051L444.373 409.99L449.305 410.044L455.469 409.996L466.564 410.108L517.109 410.112" fill="#EFEFEF" fill-opacity="0.4"/>
<path d="M271.781 410.112L290.273 409.987L301.368 409.462L303.834 409.067L306.3 408.161L309.998 406.419L311.231 405.63L312.464 404.606L313.696 403.264L314.929 401.428L316.162 398.913L317.395 395.65L318.628 391.594L319.86 386.508L321.093 380.013L322.326 371.982L324.792 352.862L327.257 331.833L330.956 299.153L332.188 290.027L333.421 282.513L334.654 276.747L335.887 272.705L337.12 270.361L338.353 269.947L339.585 271.88L340.818 276.257L342.051 282.548L349.448 325.49L351.913 338.414L354.379 348.856L356.845 357.959L359.31 365.022L363.009 374.336L364.241 376.789L365.474 378.77L369.173 383.878L372.871 389.789L375.337 392.685L377.802 395.219L381.501 398.42L383.966 400.293L385.199 400.926L390.13 402.772L395.061 405.486L397.527 406.409L399.993 406.786L402.458 406.936L404.924 407.454L408.622 408.336L413.553 409.168L418.485 409.52L423.416 409.698L433.278 409.906L438.209 410.051L444.373 409.99L449.305 410.044L455.469 409.996L466.564 410.108L517.109 410.112" stroke="#EFEFEF" stroke-linecap="square"/>
</g>
<mask id="mask3_230_15198" style="mask-type:luminance" maskUnits="userSpaceOnUse" x="76" y="55" width="477" height="356">
<path d="M552.957 55.2959H76.7969V410.112H552.957V55.2959Z" fill="white"/>
</mask>
<g mask="url(#mask3_230_15198)">
<path d="M299.984 410.111L320.748 409.938L325.362 409.411L326.516 409.119L328.823 407.972L329.977 407.206L331.13 406.084L332.284 404.541L333.437 402.435L334.591 399.527L335.744 395.776L336.898 391.03L338.052 384.862L339.205 377.226L340.359 368.118L341.512 356.685L344.973 314.104L346.126 296.289L348.434 256.302L349.587 238.995L350.741 225.337L351.894 216.164L353.048 211.426L354.201 210.27L355.355 210.793L356.508 213.049L357.662 220.144L361.123 256.061L362.276 269.791L365.737 318.948L368.044 340.956L370.351 363.034L371.505 371.695L372.658 378.493L373.812 383.988L374.965 388.484L376.119 392.27L377.272 395.385L378.426 398L379.579 400.12L380.733 401.747L381.886 403.073L384.194 405.142L385.347 406.012L388.808 407.957L391.115 408.754L392.268 408.98L393.422 408.94L394.576 408.627L395.729 408.474L399.19 409.271L401.497 409.348L404.958 409.906L409.572 409.861L411.879 410L415.339 409.754L419.954 409.886L522.62 410.103L528.387 410.105L529.541 410.111" fill="#EFEFEF" fill-opacity="0.4"/>
<path d="M299.984 410.111L320.748 409.938L325.362 409.411L326.516 409.119L328.823 407.972L329.977 407.206L331.13 406.084L332.284 404.541L333.437 402.435L334.591 399.527L335.744 395.776L336.898 391.03L338.052 384.862L339.205 377.226L340.359 368.118L341.512 356.685L344.973 314.104L346.126 296.289L348.434 256.302L349.587 238.995L350.741 225.337L351.894 216.164L353.048 211.426L354.201 210.27L355.355 210.793L356.508 213.049L357.662 220.144L361.123 256.061L362.276 269.791L365.737 318.948L368.044 340.956L370.351 363.034L371.505 371.695L372.658 378.493L373.812 383.988L374.965 388.484L376.119 392.27L377.272 395.385L378.426 398L379.579 400.12L380.733 401.747L381.886 403.073L384.194 405.142L385.347 406.012L388.808 407.957L391.115 408.754L392.268 408.98L393.422 408.94L394.576 408.627L395.729 408.474L399.19 409.271L401.497 409.348L404.958 409.906L409.572 409.861L411.879 410L415.339 409.754L419.954 409.886L522.62 410.103L528.387 410.105L529.541 410.111" stroke="#EFEFEF" stroke-linecap="square"/>
</g>
<mask id="mask4_230_15198" style="mask-type:luminance" maskUnits="userSpaceOnUse" x="76" y="55" width="477" height="356">
<path d="M552.957 55.2959H76.7969V410.112H552.957V55.2959Z" fill="white"/>
</mask>
<g mask="url(#mask4_230_15198)">
<path d="M295.445 410.112L307.808 409.956L311.18 409.578L314.552 409.132L315.676 408.792L316.8 408.215L317.924 407.389L319.048 406.343L320.172 405.086L321.296 403.551L322.419 401.596L323.543 399.076L324.667 395.967L326.915 388.536L329.163 379.707L330.287 374.236L331.411 367.727L333.659 352.152L337.03 328.729L341.526 297.364L342.65 291.277L343.774 286.64L344.898 283.188L346.022 280.448L347.146 278.175L348.27 276.46L349.394 275.457L350.518 275.273L351.641 276.107L352.765 278.234L353.889 281.758L355.013 286.434L357.261 297.527L361.757 321.31L365.129 342.072L367.376 352.062L372.996 375.566L374.12 379.414L375.244 382.674L376.368 385.366L378.616 389.678L381.987 395.212L384.235 398.497L386.483 400.964L388.731 402.909L390.979 404.5L393.227 405.699L396.598 406.972L398.846 407.478L402.218 407.951L405.59 408.606L411.209 409.13L416.829 409.306L422.449 409.658L425.82 409.614L430.316 409.867L437.06 409.778L447.175 409.956L457.29 409.875L464.034 410.061L475.273 410.053L497.751 410.113L519.106 410.112" fill="#EFEFEF" fill-opacity="0.4"/>
<path d="M295.445 410.112L307.808 409.956L311.18 409.578L314.552 409.132L315.676 408.792L316.8 408.215L317.924 407.389L319.048 406.343L320.172 405.086L321.296 403.551L322.419 401.596L323.543 399.076L324.667 395.967L326.915 388.536L329.163 379.707L330.287 374.236L331.411 367.727L333.659 352.152L337.03 328.729L341.526 297.364L342.65 291.277L343.774 286.64L344.898 283.188L346.022 280.448L347.146 278.175L348.27 276.46L349.394 275.457L350.518 275.273L351.641 276.107L352.765 278.234L353.889 281.758L355.013 286.434L357.261 297.527L361.757 321.31L365.129 342.072L367.376 352.062L372.996 375.566L374.12 379.414L375.244 382.674L376.368 385.366L378.616 389.678L381.987 395.212L384.235 398.497L386.483 400.964L388.731 402.909L390.979 404.5L393.227 405.699L396.598 406.972L398.846 407.478L402.218 407.951L405.59 408.606L411.209 409.13L416.829 409.306L422.449 409.658L425.82 409.614L430.316 409.867L437.06 409.778L447.175 409.956L457.29 409.875L464.034 410.061L475.273 410.053L497.751 410.113L519.106 410.112" stroke="#EFEFEF" stroke-linecap="square"/>
</g>
<mask id="mask5_230_15198" style="mask-type:luminance" maskUnits="userSpaceOnUse" x="76" y="55" width="477" height="356">
<path d="M552.957 55.2959H76.7969V410.112H552.957V55.2959Z" fill="white"/>
</mask>
<g mask="url(#mask5_230_15198)">
<path d="M313.906 410.112L329.074 409.954L333.408 409.389L335.575 408.822L336.658 408.31L337.741 407.608L338.825 406.652L339.908 405.304L340.992 403.434L342.075 401.004L343.159 398.03L344.242 394.459L345.325 390.138L346.409 384.912L347.492 378.702L348.576 371.434L350.742 353.733L356.16 305.401L357.243 297.266L358.326 290.578L360.493 280.253L361.577 275.916L362.66 272.66L363.743 271.1L364.827 271.165L365.91 272.237L366.994 273.91L368.077 276.372L369.161 279.871L373.494 296.86L376.744 312.669L378.911 323.51L381.078 336.959L383.245 350.482L384.328 355.733L385.412 359.802L389.745 373.053L391.912 380.046L395.163 388.166L397.329 392.858L399.496 396.351L401.663 398.856L404.913 402.004L410.33 406.336L411.414 407.043L412.497 407.545L414.664 408.049L417.914 408.503L420.081 409.039L422.248 409.269L427.665 409.402L429.832 409.415L435.249 409.871L445 409.983L449.333 410.05L458.001 409.977L481.836 410.1L495.92 410.065L529.506 410.112" fill="#EFEFEF" fill-opacity="0.4"/>
<path d="M313.906 410.112L329.074 409.954L333.408 409.389L335.575 408.822L336.658 408.31L337.741 407.608L338.825 406.652L339.908 405.304L340.992 403.434L342.075 401.004L343.159 398.03L344.242 394.459L345.325 390.138L346.409 384.912L347.492 378.702L348.576 371.434L350.742 353.733L356.16 305.401L357.243 297.266L358.326 290.578L360.493 280.253L361.577 275.916L362.66 272.66L363.743 271.1L364.827 271.165L365.91 272.237L366.994 273.91L368.077 276.372L369.161 279.871L373.494 296.86L376.744 312.669L378.911 323.51L381.078 336.959L383.245 350.482L384.328 355.733L385.412 359.802L389.745 373.053L391.912 380.046L395.163 388.166L397.329 392.858L399.496 396.351L401.663 398.856L404.913 402.004L410.33 406.336L411.414 407.043L412.497 407.545L414.664 408.049L417.914 408.503L420.081 409.039L422.248 409.269L427.665 409.402L429.832 409.415L435.249 409.871L445 409.983L449.333 410.05L458.001 409.977L481.836 410.1L495.92 410.065L529.506 410.112" stroke="#EFEFEF" stroke-linecap="square"/>
</g>
<mask id="mask6_230_15198" style="mask-type:luminance" maskUnits="userSpaceOnUse" x="76" y="55" width="477" height="356">
<path d="M552.957 55.2959H76.7969V410.112H552.957V55.2959Z" fill="white"/>
</mask>
<g mask="url(#mask6_230_15198)">
<path d="M312.406 410.111L321.871 409.934L323.975 409.46L329.233 407.413L330.285 406.516L332.388 404.068L333.44 402.149L334.491 399.425L336.595 392.528L337.646 387.679L338.698 381.172L340.801 364.203L342.905 345.953L343.956 335.216L347.111 296.497L351.318 242.836L352.369 231.379L353.421 221.864L354.473 215.433L355.524 211.879L356.576 211.322L357.628 214.499L358.679 221.092L359.731 230.888L361.834 257.295L366.041 310.097L369.196 343.768L371.299 362.98L372.351 371.368L373.403 378.486L374.454 383.706L375.506 387.198L378.661 394.784L380.764 398.649L382.868 402.204L383.919 403.567L384.971 404.42L389.178 406.737L391.281 407.359L393.384 408.076L395.488 408.805L397.591 409.03L399.694 409.201L401.798 409.575L406.004 409.574L411.263 409.939L414.418 409.975L417.573 410.084L424.934 409.971L435.451 410.034L444.916 410.09L450.174 410.053L456.484 410.072L459.639 410.047L462.794 410.038L467.001 410.092L472.259 410.106L505.912 410.112L521.687 410.111" fill="#EFEFEF" fill-opacity="0.4"/>
<path d="M312.406 410.111L321.871 409.934L323.975 409.46L329.233 407.413L330.285 406.516L332.388 404.068L333.44 402.149L334.491 399.425L336.595 392.528L337.646 387.679L338.698 381.172L340.801 364.203L342.905 345.953L343.956 335.216L347.111 296.497L351.318 242.836L352.369 231.379L353.421 221.864L354.473 215.433L355.524 211.879L356.576 211.322L357.628 214.499L358.679 221.092L359.731 230.888L361.834 257.295L366.041 310.097L369.196 343.768L371.299 362.98L372.351 371.368L373.403 378.486L374.454 383.706L375.506 387.198L378.661 394.784L380.764 398.649L382.868 402.204L383.919 403.567L384.971 404.42L389.178 406.737L391.281 407.359L393.384 408.076L395.488 408.805L397.591 409.03L399.694 409.201L401.798 409.575L406.004 409.574L411.263 409.939L414.418 409.975L417.573 410.084L424.934 409.971L435.451 410.034L444.916 410.09L450.174 410.053L456.484 410.072L459.639 410.047L462.794 410.038L467.001 410.092L472.259 410.106L505.912 410.112L521.687 410.111" stroke="#EFEFEF" stroke-linecap="square"/>
</g>
<mask id="mask7_230_15198" style="mask-type:luminance" maskUnits="userSpaceOnUse" x="76" y="55" width="477" height="356">
<path d="M552.957 55.2959H76.7969V410.112H552.957V55.2959Z" fill="white"/>
</mask>
<g mask="url(#mask7_230_15198)">
<path d="M313.141 410.112L325.145 409.949L327.915 409.821L330.685 409.864L334.379 409.461L336.226 409.017L338.073 408.244L339.919 407.344L342.69 406.275L343.613 405.509L344.536 404.305L345.46 402.636L347.307 398.106L349.153 392.164L351 384.095L352.847 374.226L355.617 358.805L359.311 341.901L360.234 337.018L361.158 331.112L370.392 262.654L371.315 257.264L372.239 253.036L374.085 246.491L375.009 244.193L375.932 243.527L376.856 245.105L377.779 248.893L378.703 254.533L379.626 261.774L381.473 279.969L386.09 328.745L388.86 353.523L390.707 368.815L391.63 375.589L392.554 381.212L393.477 385.518L394.4 388.722L396.247 393.555L398.094 398.011L399.017 399.894L400.864 402.651L402.711 404.942L403.635 405.779L405.481 406.836L408.252 408.287L409.175 408.569L411.022 408.706L412.869 408.802L416.562 409.116L422.103 409.552L425.796 409.638L428.566 409.854L436.877 409.982L439.647 410.06L453.498 410.041L474.737 410.007L477.507 409.991L482.124 410.111L496.899 410.112" fill="#EFEFEF" fill-opacity="0.4"/>
<path d="M313.141 410.112L325.145 409.949L327.915 409.821L330.685 409.864L334.379 409.461L336.226 409.017L338.073 408.244L339.919 407.344L342.69 406.275L343.613 405.509L344.536 404.305L345.46 402.636L347.307 398.106L349.153 392.164L351 384.095L352.847 374.226L355.617 358.805L359.311 341.901L360.234 337.018L361.158 331.112L370.392 262.654L371.315 257.264L372.239 253.036L374.085 246.491L375.009 244.193L375.932 243.527L376.856 245.105L377.779 248.893L378.703 254.533L379.626 261.774L381.473 279.969L386.09 328.745L388.86 353.523L390.707 368.815L391.63 375.589L392.554 381.212L393.477 385.518L394.4 388.722L396.247 393.555L398.094 398.011L399.017 399.894L400.864 402.651L402.711 404.942L403.635 405.779L405.481 406.836L408.252 408.287L409.175 408.569L411.022 408.706L412.869 408.802L416.562 409.116L422.103 409.552L425.796 409.638L428.566 409.854L436.877 409.982L439.647 410.06L453.498 410.041L474.737 410.007L477.507 409.991L482.124 410.111L496.899 410.112" stroke="#EFEFEF" stroke-linecap="square"/>
</g>
<mask id="mask8_230_15198" style="mask-type:luminance" maskUnits="userSpaceOnUse" x="76" y="55" width="477" height="356">
<path d="M552.957 55.2959H76.7969V410.112H552.957V55.2959Z" fill="white"/>
</mask>
<g mask="url(#mask8_230_15198)">
<path d="M321.867 410.112L328.624 409.983L332.484 409.629L335.38 409.003L337.31 408.116L339.241 406.603L344.067 401.973L345.032 400.829L345.997 399.389L346.962 397.551L347.927 395.263L349.858 389.376L351.788 382.1L356.614 362.21L358.544 352.628L366.266 311.474L368.196 303.197L369.162 299.773L370.127 297.009L371.092 294.955L372.057 293.594L373.022 292.924L373.987 292.992L374.953 293.8L375.918 295.211L377.848 298.966L379.779 303.604L381.709 309.785L385.57 323.522L389.431 335.268L391.361 343.129L393.291 351.267L394.256 354.675L396.187 360.005L398.117 364.939L400.048 371.016L401.978 377.169L403.908 381.96L406.804 388.327L408.734 392.623L409.699 394.359L410.665 395.715L412.595 397.624L419.351 403.057L421.282 404.309L423.212 405.178L426.108 406.374L429.968 408.17L431.899 408.71L433.829 408.945L437.69 409.224L443.481 409.826L448.307 410.005L475.332 410.112L513.94 410.112" fill="#EFEFEF" fill-opacity="0.4"/>
<path d="M321.867 410.112L328.624 409.983L332.484 409.629L335.38 409.003L337.31 408.116L339.241 406.603L344.067 401.973L345.032 400.829L345.997 399.389L346.962 397.551L347.927 395.263L349.858 389.376L351.788 382.1L356.614 362.21L358.544 352.628L366.266 311.474L368.196 303.197L369.162 299.773L370.127 297.009L371.092 294.955L372.057 293.594L373.022 292.924L373.987 292.992L374.953 293.8L375.918 295.211L377.848 298.966L379.779 303.604L381.709 309.785L385.57 323.522L389.431 335.268L391.361 343.129L393.291 351.267L394.256 354.675L396.187 360.005L398.117 364.939L400.048 371.016L401.978 377.169L403.908 381.96L406.804 388.327L408.734 392.623L409.699 394.359L410.665 395.715L412.595 397.624L419.351 403.057L421.282 404.309L423.212 405.178L426.108 406.374L429.968 408.17L431.899 408.71L433.829 408.945L437.69 409.224L443.481 409.826L448.307 410.005L475.332 410.112L513.94 410.112" stroke="#EFEFEF" stroke-linecap="square"/>
</g>
<mask id="mask9_230_15198" style="mask-type:luminance" maskUnits="userSpaceOnUse" x="76" y="55" width="477" height="356">
<path d="M552.957 55.2959H76.7969V410.112H552.957V55.2959Z" fill="white"/>
</mask>
<g mask="url(#mask9_230_15198)">
<path d="M302.734 410.111L313.142 409.907L315.98 409.613L319.765 408.872L320.711 408.777L321.657 408.455L323.549 407.166L325.441 405.971L326.388 404.361L327.334 401.745L329.226 397.758L330.172 394.376L331.118 388.531L333.01 370.804L333.957 361.693L334.903 350.557L335.849 334.598L336.795 313.337L337.741 287.647L338.687 257.04L342.472 112.187L343.418 84.9968L344.364 72.1924L345.31 72.2582L346.256 83.1788L347.202 107.196L348.148 143.105L350.987 264.858L351.933 295.638L352.879 318.326L354.771 351.733L355.717 365.43L356.664 376.17L357.61 384.572L358.556 391.435L359.502 395.98L360.448 398.305L363.286 403.435L364.233 404.684L366.125 406.004L369.909 408.262L372.748 408.506L375.586 409L378.424 409.084L380.317 409.706L381.263 409.756L384.101 409.335L387.886 409.572L389.778 409.878L406.808 410.038L409.647 409.609L411.539 410.042L413.431 409.92L415.323 409.878L420.054 410.016L422.892 410.008L424.785 409.876L426.677 410.079L436.138 409.989L448.438 410.043L450.33 409.949L453.168 410.107L462.63 410.098L474.929 410.09L477.768 410.065L482.498 410.112L491.014 410.111" fill="#EFEFEF" fill-opacity="0.4"/>
<path d="M302.734 410.111L313.142 409.907L315.98 409.613L319.765 408.872L320.711 408.777L321.657 408.455L323.549 407.166L325.441 405.971L326.388 404.361L327.334 401.745L329.226 397.758L330.172 394.376L331.118 388.531L333.01 370.804L333.957 361.693L334.903 350.557L335.849 334.598L336.795 313.337L337.741 287.647L338.687 257.04L342.472 112.187L343.418 84.9968L344.364 72.1924L345.31 72.2582L346.256 83.1788L347.202 107.196L348.148 143.105L350.987 264.858L351.933 295.638L352.879 318.326L354.771 351.733L355.717 365.43L356.664 376.17L357.61 384.572L358.556 391.435L359.502 395.98L360.448 398.305L363.286 403.435L364.233 404.684L366.125 406.004L369.909 408.262L372.748 408.506L375.586 409L378.424 409.084L380.317 409.706L381.263 409.756L384.101 409.335L387.886 409.572L389.778 409.878L406.808 410.038L409.647 409.609L411.539 410.042L413.431 409.92L415.323 409.878L420.054 410.016L422.892 410.008L424.785 409.876L426.677 410.079L436.138 409.989L448.438 410.043L450.33 409.949L453.168 410.107L462.63 410.098L474.929 410.09L477.768 410.065L482.498 410.112L491.014 410.111" stroke="#EFEFEF" stroke-linecap="square"/>
</g>
<mask id="mask10_230_15198" style="mask-type:luminance" maskUnits="userSpaceOnUse" x="76" y="55" width="477" height="356">
<path d="M552.957 55.2959H76.7969V410.112H552.957V55.2959Z" fill="white"/>
</mask>
<g mask="url(#mask10_230_15198)">
<path d="M310.406 410.112L323.236 409.972L330.568 409.022L332.401 408.602L334.233 407.722L336.066 406.614L336.983 405.787L337.899 404.532L338.816 402.752L339.732 400.447L340.648 397.58L341.565 393.952L342.481 389.311L343.398 383.57L345.231 369.376L347.063 352.147L352.562 293.431L356.228 260.754L357.144 254.466L358.061 250.187L358.977 247.941L359.893 247.322L360.81 247.917L361.726 249.701L362.643 253.045L363.559 258.247L365.392 272.718L367.225 287.574L369.058 300.345L373.64 328.631L375.473 339.234L376.389 343.455L378.222 349.772L380.055 355.597L381.888 362.787L383.721 370.606L385.554 376.895L389.219 387.726L391.052 391.915L392.885 394.944L396.551 400.435L398.384 402.597L400.216 404.057L402.049 404.958L413.046 408.73L421.294 409.467L426.793 409.955L434.124 409.925L437.79 409.911L484.528 410.076L489.11 410.058L492.776 410.112" fill="#EFEFEF" fill-opacity="0.4"/>
<path d="M310.406 410.112L323.236 409.972L330.568 409.022L332.401 408.602L334.233 407.722L336.066 406.614L336.983 405.787L337.899 404.532L338.816 402.752L339.732 400.447L340.648 397.58L341.565 393.952L342.481 389.311L343.398 383.57L345.231 369.376L347.063 352.147L352.562 293.431L356.228 260.754L357.144 254.466L358.061 250.187L358.977 247.941L359.893 247.322L360.81 247.917L361.726 249.701L362.643 253.045L363.559 258.247L365.392 272.718L367.225 287.574L369.058 300.345L373.64 328.631L375.473 339.234L376.389 343.455L378.222 349.772L380.055 355.597L381.888 362.787L383.721 370.606L385.554 376.895L389.219 387.726L391.052 391.915L392.885 394.944L396.551 400.435L398.384 402.597L400.216 404.057L402.049 404.958L413.046 408.73L421.294 409.467L426.793 409.955L434.124 409.925L437.79 409.911L484.528 410.076L489.11 410.058L492.776 410.112" stroke="#EFEFEF" stroke-linecap="square"/>
</g>
<mask id="mask11_230_15198" style="mask-type:luminance" maskUnits="userSpaceOnUse" x="76" y="55" width="477" height="356">
<path d="M552.957 55.2959H76.7969V410.112H552.957V55.2959Z" fill="white"/>
</mask>
<g mask="url(#mask11_230_15198)">
<path d="M304.258 410.111L322.219 409.934L324.464 409.344L325.586 408.809L326.709 408.1L327.831 407.177L328.954 405.901L330.076 404.044L331.199 401.416L332.321 397.977L334.566 389.115L336.812 378.522L339.057 366.161L341.302 352.034L345.792 321.372L348.037 306.465L350.282 294.411L353.65 278.719L354.772 274.37L355.895 270.812L357.017 268.216L358.14 267.043L359.262 267.501L360.385 269.458L361.508 273.026L362.63 278.343L364.875 291.17L365.998 296.584L368.243 305.996L369.365 312.178L370.488 320.051L373.855 346.089L376.101 359.875L378.346 372.688L379.468 378.264L380.591 382.6L382.836 388.627L385.081 394.291L386.203 396.707L387.326 398.467L388.449 399.677L391.816 402.324L394.061 403.877L400.796 407.299L403.042 407.759L423.247 409.675L428.86 409.744L433.35 409.825L452.433 409.892L455.801 409.762L464.781 410.056L527.644 410.111" fill="#EFEFEF" fill-opacity="0.4"/>
<path d="M304.258 410.111L322.219 409.934L324.464 409.344L325.586 408.809L326.709 408.1L327.831 407.177L328.954 405.901L330.076 404.044L331.199 401.416L332.321 397.977L334.566 389.115L336.812 378.522L339.057 366.161L341.302 352.034L345.792 321.372L348.037 306.465L350.282 294.411L353.65 278.719L354.772 274.37L355.895 270.812L357.017 268.216L358.14 267.043L359.262 267.501L360.385 269.458L361.508 273.026L362.63 278.343L364.875 291.17L365.998 296.584L368.243 305.996L369.365 312.178L370.488 320.051L373.855 346.089L376.101 359.875L378.346 372.688L379.468 378.264L380.591 382.6L382.836 388.627L385.081 394.291L386.203 396.707L387.326 398.467L388.449 399.677L391.816 402.324L394.061 403.877L400.796 407.299L403.042 407.759L423.247 409.675L428.86 409.744L433.35 409.825L452.433 409.892L455.801 409.762L464.781 410.056L527.644 410.111" stroke="#EFEFEF" stroke-linecap="square"/>
</g>
<mask id="mask12_230_15198" style="mask-type:luminance" maskUnits="userSpaceOnUse" x="76" y="55" width="477" height="356">
<path d="M552.957 55.2959H76.7969V410.112H552.957V55.2959Z" fill="white"/>
</mask>
<g mask="url(#mask12_230_15198)">
<path d="M305.062 410.11L320.182 409.956L322.342 409.672L324.502 409.12L325.582 408.637L327.742 407.149L328.822 406.277L329.902 405.154L330.982 403.466L332.061 401.063L333.141 398.058L335.301 390.674L336.381 386.218L337.461 381.003L338.541 374.619L340.701 357.959L343.941 329.73L347.181 299.35L350.421 275.486L351.501 267.954L352.581 262.523L353.661 259.703L354.741 258.506L355.821 258.135L356.901 258.798L357.981 260.934L359.06 264.372L360.14 268.626L361.22 273.581L362.3 279.52L363.38 286.683L368.78 327.437L372.02 347.647L374.18 358.739L378.5 378.497L379.58 382.591L380.66 385.815L381.74 388.142L383.9 392.15L386.059 396.541L387.139 398.276L389.299 400.915L391.459 403.173L393.619 404.779L397.939 407.471L400.099 408.133L403.339 408.705L414.138 409.754L421.698 409.782L426.018 409.939L430.338 409.891L433.578 409.788L436.818 409.563L445.457 409.957L456.257 409.944L461.657 410.077L469.216 410.023L480.016 410.075L489.736 410.11H519.974" fill="#EFEFEF" fill-opacity="0.4"/>
<path d="M305.062 410.11L320.182 409.956L322.342 409.672L324.502 409.12L325.582 408.637L327.742 407.149L328.822 406.277L329.902 405.154L330.982 403.466L332.061 401.063L333.141 398.058L335.301 390.674L336.381 386.218L337.461 381.003L338.541 374.619L340.701 357.959L343.941 329.73L347.181 299.35L350.421 275.486L351.501 267.954L352.581 262.523L353.661 259.703L354.741 258.506L355.821 258.135L356.901 258.798L357.981 260.934L359.06 264.372L360.14 268.626L361.22 273.581L362.3 279.52L363.38 286.683L368.78 327.437L372.02 347.647L374.18 358.739L378.5 378.497L379.58 382.591L380.66 385.815L381.74 388.142L383.9 392.15L386.059 396.541L387.139 398.276L389.299 400.915L391.459 403.173L393.619 404.779L397.939 407.471L400.099 408.133L403.339 408.705L414.138 409.754L421.698 409.782L426.018 409.939L430.338 409.891L433.578 409.788L436.818 409.563L445.457 409.957L456.257 409.944L461.657 410.077L469.216 410.023L480.016 410.075L489.736 410.11H519.974" stroke="#EFEFEF" stroke-linecap="square"/>
</g>
<mask id="mask13_230_15198" style="mask-type:luminance" maskUnits="userSpaceOnUse" x="76" y="55" width="477" height="356">
<path d="M552.957 55.2959H76.7969V410.112H552.957V55.2959Z" fill="white"/>
</mask>
<g mask="url(#mask13_230_15198)">
<path d="M277.797 410.111L295.632 410.035L298.18 409.673L299.454 409.322L300.728 408.808L302.002 408.075L305.824 405.204L307.098 403.915L308.372 402.063L309.646 399.52L312.194 392.821L313.468 389.001L314.742 384.607L316.016 379.207L317.29 372.753L319.838 357.568L327.482 305.289L328.755 297.932L331.303 285.726L332.577 281.127L333.851 279.35L335.125 280.479L336.399 282.248L337.673 282.501L338.947 281.596L340.221 281.273L341.495 282.87L342.769 286.752L349.139 313.492L352.961 334.751L355.509 350.736L358.057 366.82L360.605 380.976L361.879 386.619L363.153 391.143L364.426 394.806L365.7 397.877L366.974 400.36L368.248 402.25L370.796 405.174L372.07 406.361L373.344 407.211L375.892 408.219L378.44 408.87L384.81 409.543L388.632 409.769L396.276 409.825L400.098 409.875L403.919 409.801L419.207 410.049L431.947 410.041L437.043 409.979L442.138 410.074L451.056 410.068L457.426 410.015L462.522 410.103L473.987 410.111L531.316 410.111" fill="#EFEFEF" fill-opacity="0.4"/>
<path d="M277.797 410.111L295.632 410.035L298.18 409.673L299.454 409.322L300.728 408.808L302.002 408.075L305.824 405.204L307.098 403.915L308.372 402.063L309.646 399.52L312.194 392.821L313.468 389.001L314.742 384.607L316.016 379.207L317.29 372.753L319.838 357.568L327.482 305.289L328.755 297.932L331.303 285.726L332.577 281.127L333.851 279.35L335.125 280.479L336.399 282.248L337.673 282.501L338.947 281.596L340.221 281.273L341.495 282.87L342.769 286.752L349.139 313.492L352.961 334.751L355.509 350.736L358.057 366.82L360.605 380.976L361.879 386.619L363.153 391.143L364.426 394.806L365.7 397.877L366.974 400.36L368.248 402.25L370.796 405.174L372.07 406.361L373.344 407.211L375.892 408.219L378.44 408.87L384.81 409.543L388.632 409.769L396.276 409.825L400.098 409.875L403.919 409.801L419.207 410.049L431.947 410.041L437.043 409.979L442.138 410.074L451.056 410.068L457.426 410.015L462.522 410.103L473.987 410.111L531.316 410.111" stroke="#EFEFEF" stroke-linecap="square"/>
</g>
<mask id="mask14_230_15198" style="mask-type:luminance" maskUnits="userSpaceOnUse" x="76" y="55" width="477" height="356">
<path d="M552.957 55.2959H76.7969V410.112H552.957V55.2959Z" fill="white"/>
</mask>
<g mask="url(#mask14_230_15198)">
<path d="M98.4375 410.112L235.547 410.112L252.167 409.974L262.554 409.78L275.018 408.338L279.173 407.829L281.25 407.429L283.328 406.865L289.56 404.72L293.715 403.622L295.792 402.794L304.102 398.495L306.179 397.136L310.334 393.797L314.489 390.113L316.567 387.993L318.644 384.874L320.721 380.53L324.876 370.386L326.954 365.004L329.031 358.964L331.108 351.801L337.341 327.209L339.418 318.843L341.496 311.425L343.573 305.853L345.65 301.683L347.728 299.117L349.805 299.791L351.883 304.313L353.96 311.195L356.038 319.146L358.115 328.156L362.27 348.643L364.347 357.596L366.425 364.931L370.579 377.875L372.657 383.887L374.734 389.077L376.812 393.393L378.889 397.008L380.967 399.899L383.044 402.029L385.121 403.492L389.276 405.313L393.431 407.092L397.586 408.286L401.741 409.147L405.896 409.541L416.283 409.813L474.45 410.082L511.844 410.112" fill="#7EB0D5" fill-opacity="0.4"/>
<path d="M98.4375 410.112L235.547 410.112L252.167 409.974L262.554 409.78L275.018 408.338L279.173 407.829L281.25 407.429L283.328 406.865L289.56 404.72L293.715 403.622L295.792 402.794L304.102 398.495L306.179 397.136L310.334 393.797L314.489 390.113L316.567 387.993L318.644 384.874L320.721 380.53L324.876 370.386L326.954 365.004L329.031 358.964L331.108 351.801L337.341 327.209L339.418 318.843L341.496 311.425L343.573 305.853L345.65 301.683L347.728 299.117L349.805 299.791L351.883 304.313L353.96 311.195L356.038 319.146L358.115 328.156L362.27 348.643L364.347 357.596L366.425 364.931L370.579 377.875L372.657 383.887L374.734 389.077L376.812 393.393L378.889 397.008L380.967 399.899L383.044 402.029L385.121 403.492L389.276 405.313L393.431 407.092L397.586 408.286L401.741 409.147L405.896 409.541L416.283 409.813L474.45 410.082L511.844 410.112" stroke="#7EB0D5" stroke-linecap="square"/>
</g>
<path d="M535.061 411.061C535.646 410.475 535.646 409.525 535.061 408.939L525.515 399.393C524.929 398.808 523.979 398.808 523.393 399.393C522.808 399.979 522.808 400.929 523.393 401.515L531.879 410L523.393 418.485C522.808 419.071 522.808 420.021 523.393 420.607C523.979 421.192 524.929 421.192 525.515 420.607L535.061 411.061ZM79 411.5H534V408.5H79V411.5Z" fill="black"/>
</g>
<defs>
<clipPath id="clip0_230_15198">
<rect width="614.4" height="460.8" fill="white"/>
</clipPath>
</defs>
</svg>
