<svg width="615" height="461" viewBox="0 0 615 461" fill="none" xmlns="http://www.w3.org/2000/svg">
<g clip-path="url(#clip0_230_15278)">
<mask id="mask0_230_15278" style="mask-type:luminance" maskUnits="userSpaceOnUse" x="76" y="55" width="477" height="356">
<path d="M552.957 55.2959H76.7969V410.112H552.957V55.2959Z" fill="white"/>
</mask>
<g mask="url(#mask0_230_15278)">
<path d="M321.359 410.112L343.84 409.909L347.928 409.703L350.993 409.645L354.059 409.61L356.103 409.176L359.168 408.28L361.212 408.049L363.256 408.12L364.278 407.989L365.299 407.606L367.343 406.192L370.409 403.496L371.431 402.322L373.474 399.305L377.562 393.123L378.584 391.031L379.606 388.308L381.649 381.099L383.693 372.297L384.715 367.006L386.759 354.035L388.802 338.485L390.846 321.039L392.89 301.56L395.955 268.385L399.021 235.586L401.065 217.674L403.108 201.4L404.13 194.117L405.152 187.944L406.174 183.456L407.196 181.077L408.218 180.568L409.24 181.089L410.261 181.968L411.283 183.223L412.305 185.295L413.327 188.65L414.349 193.771L415.371 201.095L417.414 221.2L419.458 241.998L422.524 268.621L426.611 304.846L428.655 322.069L430.699 336.775L433.764 356.869L435.808 367.927L438.874 380.882L440.917 387.889L442.961 392.909L445.005 396.96L447.049 400.269L449.092 402.932L451.136 405.042L453.18 406.556L455.223 407.403L458.289 408.611L459.311 408.826L465.442 409.223L469.529 409.61L479.748 409.971L483.836 409.779L487.923 410.007L492.01 410.097L506.317 410.012L520.623 410.064L524.71 410.112" fill="#EFEFEF" fill-opacity="0.4"/>
<path d="M321.359 410.112L343.84 409.909L347.928 409.703L350.993 409.645L354.059 409.61L356.103 409.176L359.168 408.28L361.212 408.049L363.256 408.12L364.278 407.989L365.299 407.606L367.343 406.192L370.409 403.496L371.431 402.322L373.474 399.305L377.562 393.123L378.584 391.031L379.606 388.308L381.649 381.099L383.693 372.297L384.715 367.006L386.759 354.035L388.802 338.485L390.846 321.039L392.89 301.56L395.955 268.385L399.021 235.586L401.065 217.674L403.108 201.4L404.13 194.117L405.152 187.944L406.174 183.456L407.196 181.077L408.218 180.568L409.24 181.089L410.261 181.968L411.283 183.223L412.305 185.295L413.327 188.65L414.349 193.771L415.371 201.095L417.414 221.2L419.458 241.998L422.524 268.621L426.611 304.846L428.655 322.069L430.699 336.775L433.764 356.869L435.808 367.927L438.874 380.882L440.917 387.889L442.961 392.909L445.005 396.96L447.049 400.269L449.092 402.932L451.136 405.042L453.18 406.556L455.223 407.403L458.289 408.611L459.311 408.826L465.442 409.223L469.529 409.61L479.748 409.971L483.836 409.779L487.923 410.007L492.01 410.097L506.317 410.012L520.623 410.064L524.71 410.112" stroke="#EFEFEF" stroke-linecap="square"/>
</g>
<mask id="mask1_230_15278" style="mask-type:luminance" maskUnits="userSpaceOnUse" x="76" y="55" width="477" height="356">
<path d="M552.957 55.2959H76.7969V410.112H552.957V55.2959Z" fill="white"/>
</mask>
<g mask="url(#mask1_230_15278)">
<path d="M324.148 410.111L328.312 409.933L330.394 409.968L333.517 410.107L336.64 410.013L339.763 409.879L341.845 409.911L349.132 409.151L351.214 408.814L353.296 408.448L355.378 407.754L356.418 407.202L357.459 406.401L358.5 405.33L359.541 404.011L360.582 402.355L361.623 400.077L362.664 396.996L364.746 389.47L365.787 384.715L366.828 378.091L367.869 369.316L370.992 337.336L372.033 325.319L373.074 311.362L375.156 277.163L377.238 232.721L380.361 159.612L382.443 116.947L383.484 100.678L384.525 89.5616L385.566 81.6089L386.607 75.3514L387.647 72.1924L388.688 75.826L389.729 89.0782L393.893 168.098L395.975 209.85L398.057 251.41L400.139 285.273L402.221 309.173L404.303 334.194L405.344 346.61L406.385 356.502L408.467 372.005L409.508 378.507L410.549 383.28L412.631 389.938L413.672 392.667L414.713 394.812L416.795 398.023L418.877 401.111L419.918 402.398L420.958 403.241L421.999 403.645L424.081 404.138L425.122 404.803L427.204 406.566L428.245 407.143L429.286 407.384L431.368 407.537L434.491 408.228L436.573 408.611L438.655 409.126L439.696 409.252L442.819 409.234L444.901 409.563L446.983 409.555L450.106 409.371L454.269 409.954L458.433 409.875L461.556 409.878L464.679 409.81L475.089 409.811L477.171 409.634L479.253 409.865L481.335 410.081L488.621 410.112L531.301 410.111" fill="#EFEFEF" fill-opacity="0.4"/>
<path d="M324.148 410.111L328.312 409.933L330.394 409.968L333.517 410.107L336.64 410.013L339.763 409.879L341.845 409.911L349.132 409.151L351.214 408.814L353.296 408.448L355.378 407.754L356.418 407.202L357.459 406.401L358.5 405.33L359.541 404.011L360.582 402.355L361.623 400.077L362.664 396.996L364.746 389.47L365.787 384.715L366.828 378.091L367.869 369.316L370.992 337.336L372.033 325.319L373.074 311.362L375.156 277.163L377.238 232.721L380.361 159.612L382.443 116.947L383.484 100.678L384.525 89.5616L385.566 81.6089L386.607 75.3514L387.647 72.1924L388.688 75.826L389.729 89.0782L393.893 168.098L395.975 209.85L398.057 251.41L400.139 285.273L402.221 309.173L404.303 334.194L405.344 346.61L406.385 356.502L408.467 372.005L409.508 378.507L410.549 383.28L412.631 389.938L413.672 392.667L414.713 394.812L416.795 398.023L418.877 401.111L419.918 402.398L420.958 403.241L421.999 403.645L424.081 404.138L425.122 404.803L427.204 406.566L428.245 407.143L429.286 407.384L431.368 407.537L434.491 408.228L436.573 408.611L438.655 409.126L439.696 409.252L442.819 409.234L444.901 409.563L446.983 409.555L450.106 409.371L454.269 409.954L458.433 409.875L461.556 409.878L464.679 409.81L475.089 409.811L477.171 409.634L479.253 409.865L481.335 410.081L488.621 410.112L531.301 410.111" stroke="#EFEFEF" stroke-linecap="square"/>
</g>
<mask id="mask2_230_15278" style="mask-type:luminance" maskUnits="userSpaceOnUse" x="76" y="55" width="477" height="356">
<path d="M552.957 55.2959H76.7969V410.112H552.957V55.2959Z" fill="white"/>
</mask>
<g mask="url(#mask2_230_15278)">
<path d="M278.062 410.111L303.903 409.942L309.776 409.594L317.998 408.655L326.22 406.766L328.57 405.904L330.919 404.681L336.792 401.188L337.966 400.145L340.315 397.34L342.665 393.713L343.839 391.393L345.014 388.56L346.188 385.123L347.363 380.994L348.538 376.071L349.712 370.287L352.061 356.52L356.76 325.65L357.934 316.677L360.283 295.135L363.807 258.374L364.982 247.909L366.156 239.27L367.331 232.425L368.505 227.061L369.68 222.806L370.855 219.424L372.029 216.874L373.204 215.284L374.378 214.898L375.553 216.012L376.728 218.861L377.902 223.451L379.077 229.441L388.473 284.323L393.172 312.567L395.521 325.041L399.045 341.838L401.394 351.609L403.743 359.479L406.092 366.386L407.267 369.423L408.441 372.026L410.791 376.172L413.14 380.123L416.663 386.625L417.838 388.347L419.013 389.682L423.711 394.052L428.409 399.209L430.758 401.204L433.108 402.47L436.631 404.008L440.155 405.629L442.504 406.4L444.853 406.724L447.203 406.938L449.552 407.467L451.901 408.046L454.25 408.325L458.948 408.668L464.821 409.267L480.091 410.044L490.662 410.103L508.281 410.083L511.805 410.111" fill="#EFEFEF" fill-opacity="0.4"/>
<path d="M278.062 410.111L303.903 409.942L309.776 409.594L317.998 408.655L326.22 406.766L328.57 405.904L330.919 404.681L336.792 401.188L337.966 400.145L340.315 397.34L342.665 393.713L343.839 391.393L345.014 388.56L346.188 385.123L347.363 380.994L348.538 376.071L349.712 370.287L352.061 356.52L356.76 325.65L357.934 316.677L360.283 295.135L363.807 258.374L364.982 247.909L366.156 239.27L367.331 232.425L368.505 227.061L369.68 222.806L370.855 219.424L372.029 216.874L373.204 215.284L374.378 214.898L375.553 216.012L376.728 218.861L377.902 223.451L379.077 229.441L388.473 284.323L393.172 312.567L395.521 325.041L399.045 341.838L401.394 351.609L403.743 359.479L406.092 366.386L407.267 369.423L408.441 372.026L410.791 376.172L413.14 380.123L416.663 386.625L417.838 388.347L419.013 389.682L423.711 394.052L428.409 399.209L430.758 401.204L433.108 402.47L436.631 404.008L440.155 405.629L442.504 406.4L444.853 406.724L447.203 406.938L449.552 407.467L451.901 408.046L454.25 408.325L458.948 408.668L464.821 409.267L480.091 410.044L490.662 410.103L508.281 410.083L511.805 410.111" stroke="#EFEFEF" stroke-linecap="square"/>
</g>
<mask id="mask3_230_15278" style="mask-type:luminance" maskUnits="userSpaceOnUse" x="76" y="55" width="477" height="356">
<path d="M552.957 55.2959H76.7969V410.112H552.957V55.2959Z" fill="white"/>
</mask>
<g mask="url(#mask3_230_15278)">
<path d="M324.055 410.109L328.153 409.99L331.227 409.885L336.35 409.952L345.572 409.893L347.621 409.604L349.67 409.218L353.769 408.717L355.818 408.031L357.867 407.004L359.916 405.568L362.99 402.947L364.015 401.68L365.039 399.901L366.064 397.539L371.187 383.823L372.212 380.279L373.236 375.903L375.286 365.358L377.335 352.788L379.384 338.216L381.433 322.106L385.532 286.353L390.655 240.772L394.753 208.298L396.803 191.192L397.827 185.373L398.852 182.244L399.877 180.887L400.901 180.107L401.926 179.742L402.95 180.758L403.975 184.102L405 189.683L408.074 211.232L410.123 226.531L411.147 235.125L413.197 256.42L415.246 279.738L417.295 299.582L421.394 335.295L424.467 358.103L426.517 371.389L428.566 381.834L429.591 386.138L430.615 389.8L431.64 392.819L433.689 397.605L434.714 399.583L435.738 401.218L437.787 403.631L439.837 405.38L441.886 406.429L444.96 407.642L447.009 407.975L449.058 408.177L455.206 409.423L458.28 409.671L466.477 409.752L469.551 409.695L481.846 410.107L493.117 410.036L498.24 409.902L517.708 410.103L527.954 410.11" fill="#EFEFEF" fill-opacity="0.4"/>
<path d="M324.055 410.109L328.153 409.99L331.227 409.885L336.35 409.952L345.572 409.893L347.621 409.604L349.67 409.218L353.769 408.717L355.818 408.031L357.867 407.004L359.916 405.568L362.99 402.947L364.015 401.68L365.039 399.901L366.064 397.539L371.187 383.823L372.212 380.279L373.236 375.903L375.286 365.358L377.335 352.788L379.384 338.216L381.433 322.106L385.532 286.353L390.655 240.772L394.753 208.298L396.803 191.192L397.827 185.373L398.852 182.244L399.877 180.887L400.901 180.107L401.926 179.742L402.95 180.758L403.975 184.102L405 189.683L408.074 211.232L410.123 226.531L411.147 235.125L413.197 256.42L415.246 279.738L417.295 299.582L421.394 335.295L424.467 358.103L426.517 371.389L428.566 381.834L429.591 386.138L430.615 389.8L431.64 392.819L433.689 397.605L434.714 399.583L435.738 401.218L437.787 403.631L439.837 405.38L441.886 406.429L444.96 407.642L447.009 407.975L449.058 408.177L455.206 409.423L458.28 409.671L466.477 409.752L469.551 409.695L481.846 410.107L493.117 410.036L498.24 409.902L517.708 410.103L527.954 410.11" stroke="#EFEFEF" stroke-linecap="square"/>
</g>
<mask id="mask4_230_15278" style="mask-type:luminance" maskUnits="userSpaceOnUse" x="76" y="55" width="477" height="356">
<path d="M552.957 55.2959H76.7969V410.112H552.957V55.2959Z" fill="white"/>
</mask>
<g mask="url(#mask4_230_15278)">
<path d="M308.766 410.112L318.484 409.952L322.803 409.903L327.123 409.972L329.282 409.785L332.522 409.199L337.921 407.967L341.16 406.887L343.32 405.969L345.48 404.503L348.719 401.514L349.799 400.335L350.879 398.865L351.959 396.959L353.039 394.55L355.198 388.37L357.358 381.003L359.518 372.667L361.677 362.391L363.837 349.581L367.076 327.263L372.475 287.534L376.795 261.233L378.954 248.73L380.034 243.506L381.114 239.378L382.194 236.267L386.513 226.535L387.593 224.691L388.673 223.706L389.753 223.701L390.833 224.597L391.912 226.257L392.992 228.606L394.072 231.692L395.152 235.681L396.232 240.787L397.312 247.144L399.471 262.995L401.631 279.374L402.711 286.147L404.87 296.618L407.03 306.971L409.19 319.959L411.349 333.083L413.509 343.796L418.908 367.084L419.988 370.993L421.068 374.324L422.148 377.088L424.307 381.554L428.627 389.626L430.786 393.197L432.946 396.139L435.106 398.558L437.265 400.644L439.425 402.273L444.824 405.57L446.984 406.334L451.303 407.272L455.622 408.484L457.782 408.817L459.942 408.924L464.261 408.709L467.5 408.585L469.66 408.766L475.059 409.419L484.778 409.963L496.656 410.073L503.135 410.059L518.252 410.065L523.651 410.112" fill="#EFEFEF" fill-opacity="0.4"/>
<path d="M308.766 410.112L318.484 409.952L322.803 409.903L327.123 409.972L329.282 409.785L332.522 409.199L337.921 407.967L341.16 406.887L343.32 405.969L345.48 404.503L348.719 401.514L349.799 400.335L350.879 398.865L351.959 396.959L353.039 394.55L355.198 388.37L357.358 381.003L359.518 372.667L361.677 362.391L363.837 349.581L367.076 327.263L372.475 287.534L376.795 261.233L378.954 248.73L380.034 243.506L381.114 239.378L382.194 236.267L386.513 226.535L387.593 224.691L388.673 223.706L389.753 223.701L390.833 224.597L391.912 226.257L392.992 228.606L394.072 231.692L395.152 235.681L396.232 240.787L397.312 247.144L399.471 262.995L401.631 279.374L402.711 286.147L404.87 296.618L407.03 306.971L409.19 319.959L411.349 333.083L413.509 343.796L418.908 367.084L419.988 370.993L421.068 374.324L422.148 377.088L424.307 381.554L428.627 389.626L430.786 393.197L432.946 396.139L435.106 398.558L437.265 400.644L439.425 402.273L444.824 405.57L446.984 406.334L451.303 407.272L455.622 408.484L457.782 408.817L459.942 408.924L464.261 408.709L467.5 408.585L469.66 408.766L475.059 409.419L484.778 409.963L496.656 410.073L503.135 410.059L518.252 410.065L523.651 410.112" stroke="#EFEFEF" stroke-linecap="square"/>
</g>
<mask id="mask5_230_15278" style="mask-type:luminance" maskUnits="userSpaceOnUse" x="76" y="55" width="477" height="356">
<path d="M552.957 55.2959H76.7969V410.112H552.957V55.2959Z" fill="white"/>
</mask>
<g mask="url(#mask5_230_15278)">
<path d="M332.117 410.112L351.641 409.964L355.546 409.765L358.475 409.61L366.284 408.272L369.213 407.441L372.141 406.621L375.07 405.389L376.046 404.859L377.022 404.098L377.999 402.998L379.951 399.884L381.903 396.187L383.856 391.601L385.808 385.774L387.761 379.393L388.737 375.792L389.713 371.54L390.689 366.362L391.665 360.129L393.618 344.792L396.546 317.433L399.475 287.827L403.38 246.95L407.285 209.866L409.237 190.319L410.213 183.183L411.189 178.523L412.166 176.207L413.142 175.906L414.118 177.173L415.094 179.503L416.07 182.554L417.047 186.298L418.023 190.901L418.999 196.496L420.951 210.352L424.856 242.008L426.809 261.397L430.713 300.668L432.666 317.376L433.642 323.672L437.547 345.188L439.499 357.557L441.452 367.367L444.38 379.188L446.333 386.077L448.285 391.471L450.237 395.713L452.19 399.042L454.142 401.987L456.095 404.4L457.071 405.292L458.047 405.917L459.023 406.243L461.952 406.546L463.904 407.335L465.856 408.28L467.809 408.862L470.738 409.09L483.428 409.93L487.333 409.802L495.143 410.032L526.381 410.111" fill="#EFEFEF" fill-opacity="0.4"/>
<path d="M332.117 410.112L351.641 409.964L355.546 409.765L358.475 409.61L366.284 408.272L369.213 407.441L372.141 406.621L375.07 405.389L376.046 404.859L377.022 404.098L377.999 402.998L379.951 399.884L381.903 396.187L383.856 391.601L385.808 385.774L387.761 379.393L388.737 375.792L389.713 371.54L390.689 366.362L391.665 360.129L393.618 344.792L396.546 317.433L399.475 287.827L403.38 246.95L407.285 209.866L409.237 190.319L410.213 183.183L411.189 178.523L412.166 176.207L413.142 175.906L414.118 177.173L415.094 179.503L416.07 182.554L417.047 186.298L418.023 190.901L418.999 196.496L420.951 210.352L424.856 242.008L426.809 261.397L430.713 300.668L432.666 317.376L433.642 323.672L437.547 345.188L439.499 357.557L441.452 367.367L444.38 379.188L446.333 386.077L448.285 391.471L450.237 395.713L452.19 399.042L454.142 401.987L456.095 404.4L457.071 405.292L458.047 405.917L459.023 406.243L461.952 406.546L463.904 407.335L465.856 408.28L467.809 408.862L470.738 409.09L483.428 409.93L487.333 409.802L495.143 410.032L526.381 410.111" stroke="#EFEFEF" stroke-linecap="square"/>
</g>
<mask id="mask6_230_15278" style="mask-type:luminance" maskUnits="userSpaceOnUse" x="76" y="55" width="477" height="356">
<path d="M552.957 55.2959H76.7969V410.112H552.957V55.2959Z" fill="white"/>
</mask>
<g mask="url(#mask6_230_15278)">
<path d="M321.461 410.111L339.257 409.901L343.211 409.919L347.166 409.894L353.098 409.177L356.063 408.691L358.041 408.532L359.029 408.144L363.973 404.602L364.961 403.555L367.927 399.723L368.916 398.568L369.905 396.93L370.893 394.569L373.859 385.592L375.836 378.872L377.814 369.927L379.791 359.491L380.78 353.547L381.768 346.558L383.746 329.582L386.711 302.283L388.689 280.831L398.575 160.951L399.564 153.336L400.553 147.63L402.53 138.775L403.518 135.205L404.507 133.69L405.496 135.674L406.484 141.413L407.473 150.355L408.462 162.045L410.439 191.4L413.405 235.864L415.382 266.469L418.348 315.011L420.325 339.048L422.303 357.114L424.28 370.661L426.257 382.392L427.246 387.494L428.235 391.694L429.223 394.881L431.201 399.309L433.178 402.95L434.166 404.213L435.155 404.96L441.087 407.634L445.042 408.516L447.019 408.8L449.985 408.913L455.917 409.621L466.792 409.881L471.735 409.876L474.701 409.883L478.655 409.744L482.61 410.074L518.201 410.111" fill="#EFEFEF" fill-opacity="0.4"/>
<path d="M321.461 410.111L339.257 409.901L343.211 409.919L347.166 409.894L353.098 409.177L356.063 408.691L358.041 408.532L359.029 408.144L363.973 404.602L364.961 403.555L367.927 399.723L368.916 398.568L369.905 396.93L370.893 394.569L373.859 385.592L375.836 378.872L377.814 369.927L379.791 359.491L380.78 353.547L381.768 346.558L383.746 329.582L386.711 302.283L388.689 280.831L398.575 160.951L399.564 153.336L400.553 147.63L402.53 138.775L403.518 135.205L404.507 133.69L405.496 135.674L406.484 141.413L407.473 150.355L408.462 162.045L410.439 191.4L413.405 235.864L415.382 266.469L418.348 315.011L420.325 339.048L422.303 357.114L424.28 370.661L426.257 382.392L427.246 387.494L428.235 391.694L429.223 394.881L431.201 399.309L433.178 402.95L434.166 404.213L435.155 404.96L441.087 407.634L445.042 408.516L447.019 408.8L449.985 408.913L455.917 409.621L466.792 409.881L471.735 409.876L474.701 409.883L478.655 409.744L482.61 410.074L518.201 410.111" stroke="#EFEFEF" stroke-linecap="square"/>
</g>
<mask id="mask7_230_15278" style="mask-type:luminance" maskUnits="userSpaceOnUse" x="76" y="55" width="477" height="356">
<path d="M552.957 55.2959H76.7969V410.112H552.957V55.2959Z" fill="white"/>
</mask>
<g mask="url(#mask7_230_15278)">
<path d="M327.984 410.112L350.477 409.97L356.1 409.651L358.912 409.594L361.724 409.039L365.472 408.198L369.221 407.566L371.096 406.917L373.907 405.489L376.719 403.689L379.53 401.886L381.405 400.773L382.342 400.025L383.279 399.028L384.216 397.716L385.154 396.066L387.028 391.924L389.84 385.114L391.714 381.314L393.588 377.468L394.526 374.873L395.463 371.586L397.337 363.073L399.212 352.699L405.772 312.938L406.709 305.863L408.584 288.519L411.395 261.576L418.893 201.111L419.83 196.425L420.767 193.076L421.704 190.952L422.642 189.836L423.579 189.428L424.516 189.638L425.453 190.817L426.39 193.503L427.327 197.876L429.202 209.769L431.076 223.209L432.951 239.037L441.385 315.325L443.26 329.561L447.009 355.084L448.883 366.367L451.695 380.856L453.569 388.562L454.506 391.526L455.443 393.917L456.381 395.805L457.318 397.241L458.255 398.284L461.067 400.647L462.941 402.969L464.815 405.137L465.753 405.84L467.627 406.652L472.313 407.968L475.125 408.366L479.811 408.925L484.497 409.514L488.245 409.724L494.806 409.675L497.617 409.767L501.366 410.01L514.487 410.111" fill="#EFEFEF" fill-opacity="0.4"/>
<path d="M327.984 410.112L350.477 409.97L356.1 409.651L358.912 409.594L361.724 409.039L365.472 408.198L369.221 407.566L371.096 406.917L373.907 405.489L376.719 403.689L379.53 401.886L381.405 400.773L382.342 400.025L383.279 399.028L384.216 397.716L385.154 396.066L387.028 391.924L389.84 385.114L391.714 381.314L393.588 377.468L394.526 374.873L395.463 371.586L397.337 363.073L399.212 352.699L405.772 312.938L406.709 305.863L408.584 288.519L411.395 261.576L418.893 201.111L419.83 196.425L420.767 193.076L421.704 190.952L422.642 189.836L423.579 189.428L424.516 189.638L425.453 190.817L426.39 193.503L427.327 197.876L429.202 209.769L431.076 223.209L432.951 239.037L441.385 315.325L443.26 329.561L447.009 355.084L448.883 366.367L451.695 380.856L453.569 388.562L454.506 391.526L455.443 393.917L456.381 395.805L457.318 397.241L458.255 398.284L461.067 400.647L462.941 402.969L464.815 405.137L465.753 405.84L467.627 406.652L472.313 407.968L475.125 408.366L479.811 408.925L484.497 409.514L488.245 409.724L494.806 409.675L497.617 409.767L501.366 410.01L514.487 410.111" stroke="#EFEFEF" stroke-linecap="square"/>
</g>
<mask id="mask8_230_15278" style="mask-type:luminance" maskUnits="userSpaceOnUse" x="76" y="55" width="477" height="356">
<path d="M552.957 55.2959H76.7969V410.112H552.957V55.2959Z" fill="white"/>
</mask>
<g mask="url(#mask8_230_15278)">
<path d="M331.375 410.112L354.96 409.926L364.787 408.975L367.735 408.263L369.7 407.508L376.579 404.109L377.561 403.3L378.544 402.228L380.51 399.38L383.458 394.831L387.388 389.98L388.371 388.364L389.354 386.293L390.336 383.685L392.302 377.185L394.267 369.943L396.233 361.307L398.198 350.372L403.111 321.545L405.077 306.786L408.025 283.91L409.99 270.882L411.956 260.144L414.904 244.788L417.852 229.041L418.835 224.867L419.817 221.421L421.783 216.163L422.765 214.138L423.748 212.576L424.731 211.738L425.713 211.993L426.696 213.613L427.679 216.589L428.661 220.638L430.627 230.782L432.592 243.122L436.523 271.278L440.454 300.192L445.367 332.879L448.315 354.226L450.281 365.311L452.246 374.195L454.211 381.959L456.177 388.3L458.142 393.118L460.108 397.147L462.073 400.411L464.038 402.681L466.004 404.202L467.969 405.242L474.848 408.09L476.813 408.659L479.761 409.141L485.658 409.745L488.606 409.876L496.467 409.869L511.208 410.113L526.931 410.112" fill="#EFEFEF" fill-opacity="0.4"/>
<path d="M331.375 410.112L354.96 409.926L364.787 408.975L367.735 408.263L369.7 407.508L376.579 404.109L377.561 403.3L378.544 402.228L380.51 399.38L383.458 394.831L387.388 389.98L388.371 388.364L389.354 386.293L390.336 383.685L392.302 377.185L394.267 369.943L396.233 361.307L398.198 350.372L403.111 321.545L405.077 306.786L408.025 283.91L409.99 270.882L411.956 260.144L414.904 244.788L417.852 229.041L418.835 224.867L419.817 221.421L421.783 216.163L422.765 214.138L423.748 212.576L424.731 211.738L425.713 211.993L426.696 213.613L427.679 216.589L428.661 220.638L430.627 230.782L432.592 243.122L436.523 271.278L440.454 300.192L445.367 332.879L448.315 354.226L450.281 365.311L452.246 374.195L454.211 381.959L456.177 388.3L458.142 393.118L460.108 397.147L462.073 400.411L464.038 402.681L466.004 404.202L467.969 405.242L474.848 408.09L476.813 408.659L479.761 409.141L485.658 409.745L488.606 409.876L496.467 409.869L511.208 410.113L526.931 410.112" stroke="#EFEFEF" stroke-linecap="square"/>
</g>
<mask id="mask9_230_15278" style="mask-type:luminance" maskUnits="userSpaceOnUse" x="76" y="55" width="477" height="356">
<path d="M552.957 55.2959H76.7969V410.112H552.957V55.2959Z" fill="white"/>
</mask>
<g mask="url(#mask9_230_15278)">
<path d="M317.039 410.111L335.065 409.879L342.075 409.445L345.079 409.426L351.088 407.458L352.089 406.623L354.092 404.177L356.095 401.072L358.098 397.68L360.101 394.722L361.102 392.672L362.103 390.013L363.105 386.582L364.106 382.416L365.108 377.402L366.109 371.066L368.112 356.203L370.115 343.183L371.116 334.811L372.118 324.188L374.121 298.253L376.123 268.603L378.126 232.365L381.131 169.438L383.134 137.077L385.136 105.45L386.138 93.1913L387.139 87.6396L388.141 88.6475L389.142 93.0484L390.144 98.9049L391.145 107.027L393.148 129.668L394.149 143.673L395.151 161.575L400.158 267.949L402.161 301.7L404.164 329.428L406.166 353.246L407.168 362.533L409.171 376.523L410.172 382.436L411.174 387.324L412.175 390.915L415.179 399.194L416.181 401.374L417.182 402.5L419.185 403.339L420.186 404.164L423.191 407.051L424.192 407.699L425.194 408.059L430.201 408.673L434.206 408.996L445.222 409.817L449.228 409.84L452.232 409.948L456.238 409.72L458.241 409.823L462.247 409.597L465.251 409.884L470.258 409.827L473.262 409.924L475.265 409.749L494.292 410.032L498.298 410.094L508.312 410.101L514.321 410.089L516.324 410.111" fill="#EFEFEF" fill-opacity="0.4"/>
<path d="M317.039 410.111L335.065 409.879L342.075 409.445L345.079 409.426L351.088 407.458L352.089 406.623L354.092 404.177L356.095 401.072L358.098 397.68L360.101 394.722L361.102 392.672L362.103 390.013L363.105 386.582L364.106 382.416L365.108 377.402L366.109 371.066L368.112 356.203L370.115 343.183L371.116 334.811L372.118 324.188L374.121 298.253L376.123 268.603L378.126 232.365L381.131 169.438L383.134 137.077L385.136 105.45L386.138 93.1913L387.139 87.6396L388.141 88.6475L389.142 93.0484L390.144 98.9049L391.145 107.027L393.148 129.668L394.149 143.673L395.151 161.575L400.158 267.949L402.161 301.7L404.164 329.428L406.166 353.246L407.168 362.533L409.171 376.523L410.172 382.436L411.174 387.324L412.175 390.915L415.179 399.194L416.181 401.374L417.182 402.5L419.185 403.339L420.186 404.164L423.191 407.051L424.192 407.699L425.194 408.059L430.201 408.673L434.206 408.996L445.222 409.817L449.228 409.84L452.232 409.948L456.238 409.72L458.241 409.823L462.247 409.597L465.251 409.884L470.258 409.827L473.262 409.924L475.265 409.749L494.292 410.032L498.298 410.094L508.312 410.101L514.321 410.089L516.324 410.111" stroke="#EFEFEF" stroke-linecap="square"/>
</g>
<mask id="mask10_230_15278" style="mask-type:luminance" maskUnits="userSpaceOnUse" x="76" y="55" width="477" height="356">
<path d="M552.957 55.2959H76.7969V410.112H552.957V55.2959Z" fill="white"/>
</mask>
<g mask="url(#mask10_230_15278)">
<path d="M323.625 410.11L339.369 409.943L342.147 409.745L346.778 408.914L349.556 409.033L351.408 409.057L355.113 408.682L356.965 408.378L358.817 407.772L361.595 406.703L364.374 405.885L366.226 404.935L369.004 402.945L370.857 401.316L374.561 397.095L376.413 394.899L378.265 392.189L380.118 388.704L381.97 384.509L383.822 379.528L385.674 373.266L387.527 365.528L389.379 355.932L391.231 343.781L395.861 308.472L397.714 292.073L402.344 245.572L405.123 218.492L406.049 210.977L406.975 204.785L407.901 199.927L408.827 196.148L409.753 193.121L410.679 190.677L411.605 188.905L412.531 188.08L413.458 188.488L414.384 190.272L415.31 193.362L416.236 197.516L418.088 207.93L419.94 220.266L421.793 235.064L424.571 262.327L426.423 279.22L431.054 314.231L432.906 327.698L434.758 339.139L437.536 354.23L440.315 367.924L442.167 375.734L444.019 382.248L445.871 387.531L447.724 391.716L449.576 394.929L452.354 398.881L454.206 400.839L456.059 402.099L457.911 403.259L462.541 406.645L463.467 406.904L465.32 406.932L467.172 407.068L469.024 407.765L470.876 408.594L472.729 409.043L475.507 409.179L481.064 409.496L489.399 410.046L501.438 409.943L506.995 410.109L507.921 410.111" fill="#EFEFEF" fill-opacity="0.4"/>
<path d="M323.625 410.11L339.369 409.943L342.147 409.745L346.778 408.914L349.556 409.033L351.408 409.057L355.113 408.682L356.965 408.378L358.817 407.772L361.595 406.703L364.374 405.885L366.226 404.935L369.004 402.945L370.857 401.316L374.561 397.095L376.413 394.899L378.265 392.189L380.118 388.704L381.97 384.509L383.822 379.528L385.674 373.266L387.527 365.528L389.379 355.932L391.231 343.781L395.861 308.472L397.714 292.073L402.344 245.572L405.123 218.492L406.049 210.977L406.975 204.785L407.901 199.927L408.827 196.148L409.753 193.121L410.679 190.677L411.605 188.905L412.531 188.08L413.458 188.488L414.384 190.272L415.31 193.362L416.236 197.516L418.088 207.93L419.94 220.266L421.793 235.064L424.571 262.327L426.423 279.22L431.054 314.231L432.906 327.698L434.758 339.139L437.536 354.23L440.315 367.924L442.167 375.734L444.019 382.248L445.871 387.531L447.724 391.716L449.576 394.929L452.354 398.881L454.206 400.839L456.059 402.099L457.911 403.259L462.541 406.645L463.467 406.904L465.32 406.932L467.172 407.068L469.024 407.765L470.876 408.594L472.729 409.043L475.507 409.179L481.064 409.496L489.399 410.046L501.438 409.943L506.995 410.109L507.921 410.111" stroke="#EFEFEF" stroke-linecap="square"/>
</g>
<mask id="mask11_230_15278" style="mask-type:luminance" maskUnits="userSpaceOnUse" x="76" y="55" width="477" height="356">
<path d="M552.957 55.2959H76.7969V410.112H552.957V55.2959Z" fill="white"/>
</mask>
<g mask="url(#mask11_230_15278)">
<path d="M317.57 410.111L345.497 409.9L358.386 409.589L365.905 408.226L366.979 407.815L369.127 406.411L372.349 404.193L373.423 403.145L374.497 401.686L375.571 399.832L376.646 397.617L377.72 394.995L379.868 388.373L383.09 377.167L384.164 372.882L385.238 367.762L387.387 355.306L389.535 341.442L391.683 325.748L397.053 284.287L400.276 259.348L403.498 232.998L405.646 217.844L406.72 211.203L407.794 205.706L408.868 202.018L409.943 200.594L411.017 201.303L413.165 204.96L414.239 205.471L416.387 204.125L417.461 204.115L418.535 205.49L419.609 208.79L420.683 214.283L421.758 221.746L422.832 230.832L424.98 253.415L428.202 291.17L430.35 312.514L432.499 330.234L434.647 346.322L436.795 359.873L438.943 370.29L442.165 383.333L444.314 390.368L445.388 393.085L446.462 395.301L447.536 397.064L449.684 399.706L453.98 404.34L455.055 405.147L457.203 406.231L461.499 407.588L463.647 408.102L470.092 408.792L474.388 408.965L488.352 410.028L492.648 409.994L495.87 410.033L501.241 409.832L507.685 410.009L511.982 410.011L519.5 410.059L527.019 410.06L531.315 410.111" fill="#EFEFEF" fill-opacity="0.4"/>
<path d="M317.57 410.111L345.497 409.9L358.386 409.589L365.905 408.226L366.979 407.815L369.127 406.411L372.349 404.193L373.423 403.145L374.497 401.686L375.571 399.832L376.646 397.617L377.72 394.995L379.868 388.373L383.09 377.167L384.164 372.882L385.238 367.762L387.387 355.306L389.535 341.442L391.683 325.748L397.053 284.287L400.276 259.348L403.498 232.998L405.646 217.844L406.72 211.203L407.794 205.706L408.868 202.018L409.943 200.594L411.017 201.303L413.165 204.96L414.239 205.471L416.387 204.125L417.461 204.115L418.535 205.49L419.609 208.79L420.683 214.283L421.758 221.746L422.832 230.832L424.98 253.415L428.202 291.17L430.35 312.514L432.499 330.234L434.647 346.322L436.795 359.873L438.943 370.29L442.165 383.333L444.314 390.368L445.388 393.085L446.462 395.301L447.536 397.064L449.684 399.706L453.98 404.34L455.055 405.147L457.203 406.231L461.499 407.588L463.647 408.102L470.092 408.792L474.388 408.965L488.352 410.028L492.648 409.994L495.87 410.033L501.241 409.832L507.685 410.009L511.982 410.011L519.5 410.059L527.019 410.06L531.315 410.111" stroke="#EFEFEF" stroke-linecap="square"/>
</g>
<mask id="mask12_230_15278" style="mask-type:luminance" maskUnits="userSpaceOnUse" x="76" y="55" width="477" height="356">
<path d="M552.957 55.2959H76.7969V410.112H552.957V55.2959Z" fill="white"/>
</mask>
<g mask="url(#mask12_230_15278)">
<path d="M316.758 410.11L336.987 409.925L348.112 408.914L351.147 408.17L356.204 406.559L357.215 406.049L358.227 405.269L359.238 404.15L360.25 402.66L362.273 398.83L364.296 395.137L367.33 390.798L368.341 388.849L369.353 386.257L370.364 382.875L371.376 378.649L373.398 368.067L376.433 349.447L381.49 316.191L382.501 308.288L384.524 289.031L387.559 258.055L391.604 219.684L392.616 211.854L393.627 205.457L394.639 200.571L395.65 197.229L396.662 195.317L397.673 194.423L398.684 193.999L399.696 193.803L400.707 194.166L401.719 195.721L402.73 198.872L403.742 203.52L405.765 215.586L407.787 229.858L409.81 247.026L412.845 273.627L415.879 297.88L420.936 340.463L422.959 352.699L424.982 363.003L427.005 371.969L429.028 379.915L431.051 386.862L433.073 392.452L435.096 396.629L436.108 398.279L437.119 399.643L438.131 400.699L439.142 401.481L445.211 405.132L447.234 406.475L449.256 407.345L454.314 408.717L456.337 408.978L460.382 409.043L464.428 409.524L467.462 409.591L473.531 409.371L476.565 409.645L479.6 409.848L507.92 409.946L512.977 410.04L518.034 410.11" fill="#EFEFEF" fill-opacity="0.4"/>
<path d="M316.758 410.11L336.987 409.925L348.112 408.914L351.147 408.17L356.204 406.559L357.215 406.049L358.227 405.269L359.238 404.15L360.25 402.66L362.273 398.83L364.296 395.137L367.33 390.798L368.341 388.849L369.353 386.257L370.364 382.875L371.376 378.649L373.398 368.067L376.433 349.447L381.49 316.191L382.501 308.288L384.524 289.031L387.559 258.055L391.604 219.684L392.616 211.854L393.627 205.457L394.639 200.571L395.65 197.229L396.662 195.317L397.673 194.423L398.684 193.999L399.696 193.803L400.707 194.166L401.719 195.721L402.73 198.872L403.742 203.52L405.765 215.586L407.787 229.858L409.81 247.026L412.845 273.627L415.879 297.88L420.936 340.463L422.959 352.699L424.982 363.003L427.005 371.969L429.028 379.915L431.051 386.862L433.073 392.452L435.096 396.629L436.108 398.279L437.119 399.643L438.131 400.699L439.142 401.481L445.211 405.132L447.234 406.475L449.256 407.345L454.314 408.717L456.337 408.978L460.382 409.043L464.428 409.524L467.462 409.591L473.531 409.371L476.565 409.645L479.6 409.848L507.92 409.946L512.977 410.04L518.034 410.11" stroke="#EFEFEF" stroke-linecap="square"/>
</g>
<mask id="mask13_230_15278" style="mask-type:luminance" maskUnits="userSpaceOnUse" x="76" y="55" width="477" height="356">
<path d="M552.957 55.2959H76.7969V410.112H552.957V55.2959Z" fill="white"/>
</mask>
<g mask="url(#mask13_230_15278)">
<path d="M299.055 410.112L315.318 410.007L321.126 409.487L323.449 408.974L328.096 407.558L329.258 406.924L331.581 405.082L333.904 402.772L335.066 401.364L336.227 399.59L337.389 397.235L338.551 394.146L339.712 390.342L342.036 381.142L343.197 375.736L345.521 362.869L347.844 348.075L350.167 330.488L352.49 309.143L357.137 264.026L360.622 227.782L361.784 217.894L362.945 209.928L364.107 203.823L365.269 199.347L366.43 196.26L367.592 194.49L368.753 194.164L369.915 195.312L371.077 197.606L372.238 200.626L373.4 204.371L374.562 209.275L375.723 215.724L378.047 232.594L383.855 278.444L387.34 303.811L390.825 330.341L393.148 345.141L395.471 357.409L397.795 367.139L400.118 375.349L402.441 382.447L404.765 388.156L407.088 393.35L408.249 395.511L409.411 397.255L410.573 398.634L411.734 399.7L415.219 402.187L418.704 405.555L419.866 406.268L422.189 407.176L429.159 408.453L434.967 409.181L437.291 409.366L443.099 409.453L446.584 409.605L453.554 409.627L462.847 410.02L468.655 409.94L474.463 409.641L480.272 410.033L487.241 410.081L493.05 410.084L504.666 410.112L530.222 410.112" fill="#EFEFEF" fill-opacity="0.4"/>
<path d="M299.055 410.112L315.318 410.007L321.126 409.487L323.449 408.974L328.096 407.558L329.258 406.924L331.581 405.082L333.904 402.772L335.066 401.364L336.227 399.59L337.389 397.235L338.551 394.146L339.712 390.342L342.036 381.142L343.197 375.736L345.521 362.869L347.844 348.075L350.167 330.488L352.49 309.143L357.137 264.026L360.622 227.782L361.784 217.894L362.945 209.928L364.107 203.823L365.269 199.347L366.43 196.26L367.592 194.49L368.753 194.164L369.915 195.312L371.077 197.606L372.238 200.626L373.4 204.371L374.562 209.275L375.723 215.724L378.047 232.594L383.855 278.444L387.34 303.811L390.825 330.341L393.148 345.141L395.471 357.409L397.795 367.139L400.118 375.349L402.441 382.447L404.765 388.156L407.088 393.35L408.249 395.511L409.411 397.255L410.573 398.634L411.734 399.7L415.219 402.187L418.704 405.555L419.866 406.268L422.189 407.176L429.159 408.453L434.967 409.181L437.291 409.366L443.099 409.453L446.584 409.605L453.554 409.627L462.847 410.02L468.655 409.94L474.463 409.641L480.272 410.033L487.241 410.081L493.05 410.084L504.666 410.112L530.222 410.112" stroke="#EFEFEF" stroke-linecap="square"/>
</g>
<mask id="mask14_230_15278" style="mask-type:luminance" maskUnits="userSpaceOnUse" x="76" y="55" width="477" height="356">
<path d="M552.957 55.2959H76.7969V410.112H552.957V55.2959Z" fill="white"/>
</mask>
<g mask="url(#mask14_230_15278)">
<path d="M98.4375 410.111L261.401 409.891L269.978 409.318L274.266 408.796L278.555 407.799L287.132 404.927L291.42 403.088L295.709 400.911L297.853 399.629L299.998 398.087L310.719 389.264L312.863 387.072L315.007 384.597L323.584 373.426L325.729 370.115L327.873 366.232L336.45 349.467L340.738 342.569L342.883 338.31L345.027 333.303L351.46 317.195L355.748 307.863L357.892 303.656L360.037 299.836L362.181 296.52L364.325 293.675L366.469 291.214L368.614 289.192L370.758 287.877L372.902 287.613L375.046 288.548L377.191 290.66L379.335 294.042L381.479 298.882L383.624 305.129L387.912 320.105L394.345 342.732L398.633 357.701L400.778 364.545L402.922 370.385L405.066 375.376L409.355 384.362L411.499 388.515L413.643 392.25L415.787 395.435L417.932 397.966L420.076 399.876L424.364 402.779L428.653 405.333L430.797 406.34L432.941 407.089L437.23 408.035L441.518 408.666L450.095 409.539L454.384 409.735L480.115 409.962L492.981 410.091L525.144 410.111" fill="#7EB0D5" fill-opacity="0.4"/>
<path d="M98.4375 410.111L261.401 409.891L269.978 409.318L274.266 408.796L278.555 407.799L287.132 404.927L291.42 403.088L295.709 400.911L297.853 399.629L299.998 398.087L310.719 389.264L312.863 387.072L315.007 384.597L323.584 373.426L325.729 370.115L327.873 366.232L336.45 349.467L340.738 342.569L342.883 338.31L345.027 333.303L351.46 317.195L355.748 307.863L357.892 303.656L360.037 299.836L362.181 296.52L364.325 293.675L366.469 291.214L368.614 289.192L370.758 287.877L372.902 287.613L375.046 288.548L377.191 290.66L379.335 294.042L381.479 298.882L383.624 305.129L387.912 320.105L394.345 342.732L398.633 357.701L400.778 364.545L402.922 370.385L405.066 375.376L409.355 384.362L411.499 388.515L413.643 392.25L415.787 395.435L417.932 397.966L420.076 399.876L424.364 402.779L428.653 405.333L430.797 406.34L432.941 407.089L437.23 408.035L441.518 408.666L450.095 409.539L454.384 409.735L480.115 409.962L492.981 410.091L525.144 410.111" stroke="#7EB0D5" stroke-linecap="square"/>
</g>
<path d="M535.061 411.061C535.646 410.475 535.646 409.525 535.061 408.939L525.515 399.393C524.929 398.808 523.979 398.808 523.393 399.393C522.808 399.979 522.808 400.929 523.393 401.515L531.879 410L523.393 418.485C522.808 419.071 522.808 420.021 523.393 420.607C523.979 421.192 524.929 421.192 525.515 420.607L535.061 411.061ZM79 411.5H534V408.5H79V411.5Z" fill="black"/>
</g>
<defs>
<clipPath id="clip0_230_15278">
<rect width="614.4" height="460.8" fill="white"/>
</clipPath>
</defs>
</svg>
