<svg width="615" height="461" viewBox="0 0 615 461" fill="none" xmlns="http://www.w3.org/2000/svg">
<mask id="mask0_230_15038" style="mask-type:luminance" maskUnits="userSpaceOnUse" x="76" y="55" width="477" height="356">
<path d="M552.957 55.2959H76.7969V410.112H552.957V55.2959Z" fill="white"/>
</mask>
<g mask="url(#mask0_230_15038)">
<path d="M330.398 410.111L338.785 409.931L340.463 409.769L342.14 409.207L343.817 408.614L345.495 408.095L346.333 407.406L348.849 404.039L349.688 402.795L350.527 400.743L351.365 397.348L353.043 387.592L353.881 382.182L354.72 375.571L355.559 366.599L358.913 320.343L360.591 293.729L364.784 224.732L366.461 203.646L369.816 167.513L370.655 164.921L371.493 167.004L372.332 171.465L373.171 176.86L374.009 184.088L374.848 194.752L381.557 302.199L383.235 324.878L385.751 354.662L387.428 369.403L389.105 380.306L389.944 384.682L390.783 388.024L393.299 395.696L394.137 398.494L394.976 400.511L395.815 401.683L397.492 403.722L399.17 405.911L400.008 406.505L403.363 407.936L405.04 408.127L406.718 408.257L409.234 408.843L410.911 409.282L414.266 409.612L415.943 409.488L417.62 409.366L420.975 409.785L423.491 409.634L425.168 409.613L428.523 410.015L436.91 410.025L439.426 410.1L446.135 409.984L452.844 410.016L457.038 410.044L459.554 409.982L462.07 410.063L467.102 409.988L474.65 410.07L478.005 410.085L485.553 410.112L497.294 410.111" fill="#EFEFEF" fill-opacity="0.4"/>
<path d="M330.398 410.111L338.785 409.931L340.463 409.769L342.14 409.207L343.817 408.614L345.495 408.095L346.333 407.406L348.849 404.039L349.688 402.795L350.527 400.743L351.365 397.348L353.043 387.592L353.881 382.182L354.72 375.571L355.559 366.599L358.913 320.343L360.591 293.729L364.784 224.732L366.461 203.646L369.816 167.513L370.655 164.921L371.493 167.004L372.332 171.465L373.171 176.86L374.009 184.088L374.848 194.752L381.557 302.199L383.235 324.878L385.751 354.662L387.428 369.403L389.105 380.306L389.944 384.682L390.783 388.024L393.299 395.696L394.137 398.494L394.976 400.511L395.815 401.683L397.492 403.722L399.17 405.911L400.008 406.505L403.363 407.936L405.04 408.127L406.718 408.257L409.234 408.843L410.911 409.282L414.266 409.612L415.943 409.488L417.62 409.366L420.975 409.785L423.491 409.634L425.168 409.613L428.523 410.015L436.91 410.025L439.426 410.1L446.135 409.984L452.844 410.016L457.038 410.044L459.554 409.982L462.07 410.063L467.102 409.988L474.65 410.07L478.005 410.085L485.553 410.112L497.294 410.111" stroke="#EFEFEF" stroke-linecap="square"/>
</g>
<mask id="mask1_230_15038" style="mask-type:luminance" maskUnits="userSpaceOnUse" x="76" y="55" width="477" height="356">
<path d="M552.957 55.2959H76.7969V410.112H552.957V55.2959Z" fill="white"/>
</mask>
<g mask="url(#mask1_230_15038)">
<path d="M318.023 410.111L322.743 409.957L324.631 409.823L325.575 409.634L326.519 409.288L327.463 408.698L328.407 407.586L329.351 405.734L330.295 403.228L331.239 400.166L332.183 396.371L333.126 391.484L335.014 378.54L335.958 370.817L336.902 361.701L337.846 350.987L338.79 338.179L340.678 305.073L342.566 265.004L347.286 149.654L348.23 133.17L349.173 123.409L350.117 120.925L351.061 125.389L352.005 136.038L352.949 152.167L355.781 216.656L358.613 277.96L360.501 311.778L362.389 337.987L364.277 359.55L366.164 375.691L367.108 381.895L368.052 386.662L368.996 390.395L369.94 393.328L370.884 395.518L371.828 397.207L377.492 404.966L378.436 405.618L379.38 405.711L380.324 405.443L381.267 405.383L385.987 407.253L387.875 407.846L390.707 408.391L393.539 408.79L395.427 409.28L398.258 409.364L400.146 409.754L416.193 409.855L418.081 409.859L422.801 410.095L427.521 410.071L431.296 410.01L439.792 410.054L447.343 409.974L453.007 410.058L455.839 410.079L461.502 410.098L468.11 410.031L471.886 409.983L505.868 410.111" fill="#EFEFEF" fill-opacity="0.4"/>
<path d="M318.023 410.111L322.743 409.957L324.631 409.823L325.575 409.634L326.519 409.288L327.463 408.698L328.407 407.586L329.351 405.734L330.295 403.228L331.239 400.166L332.183 396.371L333.126 391.484L335.014 378.54L335.958 370.817L336.902 361.701L337.846 350.987L338.79 338.179L340.678 305.073L342.566 265.004L347.286 149.654L348.23 133.17L349.173 123.409L350.117 120.925L351.061 125.389L352.005 136.038L352.949 152.167L355.781 216.656L358.613 277.96L360.501 311.778L362.389 337.987L364.277 359.55L366.164 375.691L367.108 381.895L368.052 386.662L368.996 390.395L369.94 393.328L370.884 395.518L371.828 397.207L377.492 404.966L378.436 405.618L379.38 405.711L380.324 405.443L381.267 405.383L385.987 407.253L387.875 407.846L390.707 408.391L393.539 408.79L395.427 409.28L398.258 409.364L400.146 409.754L416.193 409.855L418.081 409.859L422.801 410.095L427.521 410.071L431.296 410.01L439.792 410.054L447.343 409.974L453.007 410.058L455.839 410.079L461.502 410.098L468.11 410.031L471.886 409.983L505.868 410.111" stroke="#EFEFEF" stroke-linecap="square"/>
</g>
<mask id="mask2_230_15038" style="mask-type:luminance" maskUnits="userSpaceOnUse" x="76" y="55" width="477" height="356">
<path d="M552.957 55.2959H76.7969V410.112H552.957V55.2959Z" fill="white"/>
</mask>
<g mask="url(#mask2_230_15038)">
<path d="M312.625 410.111L322.372 409.952L326.271 409.663L329.195 409.041L330.169 408.654L331.144 408.074L332.119 407.256L333.093 406.157L334.068 404.641L335.043 402.442L336.017 399.303L336.992 395.114L337.967 389.816L338.941 383.319L339.916 375.6L340.891 366.623L342.84 344.42L344.79 316.694L347.714 270.53L349.663 246.648L351.612 226.473L352.587 218.466L353.562 213.624L354.536 212.318L355.511 213.522L356.486 216.219L357.46 220.214L358.435 225.614L360.384 239.842L362.334 257.309L365.258 284.848L371.106 334.141L372.081 340.603L373.055 345.827L375.979 358.794L378.903 372.858L380.853 380.704L381.827 383.805L382.802 386.342L383.777 388.431L385.726 391.717L388.65 396.769L391.574 401.914L392.549 403.025L393.524 403.628L395.473 404.407L398.397 405.983L400.346 406.749L403.271 407.487L406.195 408.668L408.144 408.985L411.068 409.241L413.992 409.409L416.916 409.895L419.84 409.82L422.764 409.813L426.663 410.03L434.46 409.98L444.207 410.102L473.448 410.086L484.169 410.111L506.587 410.111" fill="#EFEFEF" fill-opacity="0.4"/>
<path d="M312.625 410.111L322.372 409.952L326.271 409.663L329.195 409.041L330.169 408.654L331.144 408.074L332.119 407.256L333.093 406.157L334.068 404.641L335.043 402.442L336.017 399.303L336.992 395.114L337.967 389.816L338.941 383.319L339.916 375.6L340.891 366.623L342.84 344.42L344.79 316.694L347.714 270.53L349.663 246.648L351.612 226.473L352.587 218.466L353.562 213.624L354.536 212.318L355.511 213.522L356.486 216.219L357.46 220.214L358.435 225.614L360.384 239.842L362.334 257.309L365.258 284.848L371.106 334.141L372.081 340.603L373.055 345.827L375.979 358.794L378.903 372.858L380.853 380.704L381.827 383.805L382.802 386.342L383.777 388.431L385.726 391.717L388.65 396.769L391.574 401.914L392.549 403.025L393.524 403.628L395.473 404.407L398.397 405.983L400.346 406.749L403.271 407.487L406.195 408.668L408.144 408.985L411.068 409.241L413.992 409.409L416.916 409.895L419.84 409.82L422.764 409.813L426.663 410.03L434.46 409.98L444.207 410.102L473.448 410.086L484.169 410.111L506.587 410.111" stroke="#EFEFEF" stroke-linecap="square"/>
</g>
<mask id="mask3_230_15038" style="mask-type:luminance" maskUnits="userSpaceOnUse" x="76" y="55" width="477" height="356">
<path d="M552.957 55.2959H76.7969V410.112H552.957V55.2959Z" fill="white"/>
</mask>
<g mask="url(#mask3_230_15038)">
<path d="M326.273 410.111L329.338 410.016L335.467 409.35L336.488 409.292L337.51 409.056L338.531 408.578L340.574 407.11L341.596 405.939L342.617 404.078L345.682 396.483L346.703 393.536L347.725 389.361L349.768 377.957L350.789 371.571L351.81 363.644L353.853 342.653L354.875 330.915L355.896 316.79L361.004 232.212L363.047 209.33L364.068 200.721L365.09 195.713L366.111 194.336L367.133 194.577L368.154 195.344L369.176 198.557L370.197 205.828L373.262 235.75L374.283 247.708L378.369 303.973L382.455 348.423L384.498 364.629L385.519 371.372L386.541 376.928L387.562 381.323L389.605 388.46L391.648 394.161L393.691 399.089L394.713 401.082L395.734 402.661L397.777 404.999L398.799 405.816L401.863 407.34L404.928 408.585L410.035 409.473L416.164 409.864L419.228 409.806L424.336 410.014L431.486 409.855L436.594 409.866L438.636 410.058L445.787 409.964L449.873 409.954L453.959 410.096L459.066 410.055L462.131 410.083L466.216 410.089L471.324 410.053L477.453 410.112L529.548 410.111" fill="#EFEFEF" fill-opacity="0.4"/>
<path d="M326.273 410.111L329.338 410.016L335.467 409.35L336.488 409.292L337.51 409.056L338.531 408.578L340.574 407.11L341.596 405.939L342.617 404.078L345.682 396.483L346.703 393.536L347.725 389.361L349.768 377.957L350.789 371.571L351.81 363.644L353.853 342.653L354.875 330.915L355.896 316.79L361.004 232.212L363.047 209.33L364.068 200.721L365.09 195.713L366.111 194.336L367.133 194.577L368.154 195.344L369.176 198.557L370.197 205.828L373.262 235.75L374.283 247.708L378.369 303.973L382.455 348.423L384.498 364.629L385.519 371.372L386.541 376.928L387.562 381.323L389.605 388.46L391.648 394.161L393.691 399.089L394.713 401.082L395.734 402.661L397.777 404.999L398.799 405.816L401.863 407.34L404.928 408.585L410.035 409.473L416.164 409.864L419.228 409.806L424.336 410.014L431.486 409.855L436.594 409.866L438.636 410.058L445.787 409.964L449.873 409.954L453.959 410.096L459.066 410.055L462.131 410.083L466.216 410.089L471.324 410.053L477.453 410.112L529.548 410.111" stroke="#EFEFEF" stroke-linecap="square"/>
</g>
<mask id="mask4_230_15038" style="mask-type:luminance" maskUnits="userSpaceOnUse" x="76" y="55" width="477" height="356">
<path d="M552.957 55.2959H76.7969V410.112H552.957V55.2959Z" fill="white"/>
</mask>
<g mask="url(#mask4_230_15038)">
<path d="M323.375 410.111L327.307 410.013L330.256 409.619L334.189 408.774L336.155 407.837L338.121 406.508L339.104 405.65L340.087 404.529L341.07 403.005L342.053 400.967L343.036 398.329L344.019 394.973L345.985 386.333L348.934 371.744L350.901 359.149L351.884 351.204L353.85 331.687L357.782 291.218L360.731 261.787L361.714 253.632L362.697 246.807L363.68 241.169L364.663 236.461L365.646 232.561L366.629 229.569L367.612 227.777L368.595 227.779L369.578 230.335L370.562 235.438L375.477 267.906L379.409 302.608L385.307 346.577L387.273 359.412L389.24 370.247L391.206 379.528L393.172 387.159L394.155 390.375L395.138 393.016L397.104 396.928L399.07 400.293L400.053 401.663L402.019 403.571L403.985 404.993L406.935 406.696L407.918 407.055L409.884 407.269L411.85 407.564L414.799 408.699L416.765 408.848L418.731 408.931L422.663 409.609L428.562 409.652L431.511 409.834L437.409 409.93L440.358 409.709L451.172 409.796L454.121 409.778L458.053 409.894L461.986 409.956L465.918 410.076L474.765 410.049L479.681 410.112L519.003 410.111" fill="#EFEFEF" fill-opacity="0.4"/>
<path d="M323.375 410.111L327.307 410.013L330.256 409.619L334.189 408.774L336.155 407.837L338.121 406.508L339.104 405.65L340.087 404.529L341.07 403.005L342.053 400.967L343.036 398.329L344.019 394.973L345.985 386.333L348.934 371.744L350.901 359.149L351.884 351.204L353.85 331.687L357.782 291.218L360.731 261.787L361.714 253.632L362.697 246.807L363.68 241.169L364.663 236.461L365.646 232.561L366.629 229.569L367.612 227.777L368.595 227.779L369.578 230.335L370.562 235.438L375.477 267.906L379.409 302.608L385.307 346.577L387.273 359.412L389.24 370.247L391.206 379.528L393.172 387.159L394.155 390.375L395.138 393.016L397.104 396.928L399.07 400.293L400.053 401.663L402.019 403.571L403.985 404.993L406.935 406.696L407.918 407.055L409.884 407.269L411.85 407.564L414.799 408.699L416.765 408.848L418.731 408.931L422.663 409.609L428.562 409.652L431.511 409.834L437.409 409.93L440.358 409.709L451.172 409.796L454.121 409.778L458.053 409.894L461.986 409.956L465.918 410.076L474.765 410.049L479.681 410.112L519.003 410.111" stroke="#EFEFEF" stroke-linecap="square"/>
</g>
<mask id="mask5_230_15038" style="mask-type:luminance" maskUnits="userSpaceOnUse" x="76" y="55" width="477" height="356">
<path d="M552.957 55.2959H76.7969V410.112H552.957V55.2959Z" fill="white"/>
</mask>
<g mask="url(#mask5_230_15038)">
<path d="M330.305 410.112L334.345 409.987L337.375 409.864L341.416 409.864L343.436 409.64L346.466 408.908L347.477 408.543L348.487 407.88L349.497 406.785L350.507 405.23L351.517 403.137L352.527 400.308L353.537 396.591L354.547 391.922L355.557 386.131L356.567 378.979L357.578 370.423L359.598 349.131L361.618 322.424L363.638 294.833L365.658 271.802L368.689 241.883L369.699 233.181L370.709 226.355L371.719 222.417L372.729 221.766L373.739 223.771L375.76 230.991L376.77 235.176L378.79 245.457L379.8 251.378L380.81 258.274L382.83 276.588L384.851 294.496L388.891 325.179L390.911 341.318L391.921 348.161L393.941 358.806L395.962 368.224L400.002 384.551L401.012 388.237L402.022 391.24L403.032 393.584L404.043 395.3L407.073 398.833L410.103 403.899L411.113 404.893L413.134 405.951L416.164 407.374L419.194 408.239L425.255 409.379L432.326 409.759L434.346 409.958L437.376 409.891L444.447 409.778L448.487 410.087L464.649 410.036L480.811 410.097L488.892 410.045L493.942 410.11L515.154 410.079L523.235 410.102L530.306 410.109L531.316 410.112" fill="#EFEFEF" fill-opacity="0.4"/>
<path d="M330.305 410.112L334.345 409.987L337.375 409.864L341.416 409.864L343.436 409.64L346.466 408.908L347.477 408.543L348.487 407.88L349.497 406.785L350.507 405.23L351.517 403.137L352.527 400.308L353.537 396.591L354.547 391.922L355.557 386.131L356.567 378.979L357.578 370.423L359.598 349.131L361.618 322.424L363.638 294.833L365.658 271.802L368.689 241.883L369.699 233.181L370.709 226.355L371.719 222.417L372.729 221.766L373.739 223.771L375.76 230.991L376.77 235.176L378.79 245.457L379.8 251.378L380.81 258.274L382.83 276.588L384.851 294.496L388.891 325.179L390.911 341.318L391.921 348.161L393.941 358.806L395.962 368.224L400.002 384.551L401.012 388.237L402.022 391.24L403.032 393.584L404.043 395.3L407.073 398.833L410.103 403.899L411.113 404.893L413.134 405.951L416.164 407.374L419.194 408.239L425.255 409.379L432.326 409.759L434.346 409.958L437.376 409.891L444.447 409.778L448.487 410.087L464.649 410.036L480.811 410.097L488.892 410.045L493.942 410.11L515.154 410.079L523.235 410.102L530.306 410.109L531.316 410.112" stroke="#EFEFEF" stroke-linecap="square"/>
</g>
<mask id="mask6_230_15038" style="mask-type:luminance" maskUnits="userSpaceOnUse" x="76" y="55" width="477" height="356">
<path d="M552.957 55.2959H76.7969V410.112H552.957V55.2959Z" fill="white"/>
</mask>
<g mask="url(#mask6_230_15038)">
<path d="M325.219 410.111L330.044 409.952L335.833 409.47L337.763 408.666L338.728 408.031L339.693 406.86L342.588 401.948L343.553 399.988L344.518 397.247L345.483 393.478L347.413 383.177L348.378 376.775L350.308 361.254L352.238 343.488L354.168 316.84L356.098 291.633L358.028 267.992L359.958 234.055L360.923 216.773L362.852 189.624L363.817 177.816L364.782 168.253L365.747 162.772L366.712 161.218L367.677 162.549L368.642 166.831L369.607 174.91L370.572 187.657L371.537 204.4L373.467 245.679L375.397 288.952L377.327 322.324L379.257 347.722L381.187 368.363L382.152 377.233L383.117 384.379L384.082 389.54L386.012 397.024L386.977 400.092L387.942 402.065L388.907 403.141L390.837 404.894L392.766 406.88L394.696 408.093L396.626 408.856L397.591 409.089L398.556 409.076L400.486 408.643L401.451 408.721L404.346 409.748L406.276 409.592L407.241 409.445L409.171 409.571L413.031 409.696L428.47 410.112L436.19 409.968L438.12 409.994L441.015 410.108L453.559 410.061L458.384 410.112L517.247 410.111" fill="#EFEFEF" fill-opacity="0.4"/>
<path d="M325.219 410.111L330.044 409.952L335.833 409.47L337.763 408.666L338.728 408.031L339.693 406.86L342.588 401.948L343.553 399.988L344.518 397.247L345.483 393.478L347.413 383.177L348.378 376.775L350.308 361.254L352.238 343.488L354.168 316.84L356.098 291.633L358.028 267.992L359.958 234.055L360.923 216.773L362.852 189.624L363.817 177.816L364.782 168.253L365.747 162.772L366.712 161.218L367.677 162.549L368.642 166.831L369.607 174.91L370.572 187.657L371.537 204.4L373.467 245.679L375.397 288.952L377.327 322.324L379.257 347.722L381.187 368.363L382.152 377.233L383.117 384.379L384.082 389.54L386.012 397.024L386.977 400.092L387.942 402.065L388.907 403.141L390.837 404.894L392.766 406.88L394.696 408.093L396.626 408.856L397.591 409.089L398.556 409.076L400.486 408.643L401.451 408.721L404.346 409.748L406.276 409.592L407.241 409.445L409.171 409.571L413.031 409.696L428.47 410.112L436.19 409.968L438.12 409.994L441.015 410.108L453.559 410.061L458.384 410.112L517.247 410.111" stroke="#EFEFEF" stroke-linecap="square"/>
</g>
<mask id="mask7_230_15038" style="mask-type:luminance" maskUnits="userSpaceOnUse" x="76" y="55" width="477" height="356">
<path d="M552.957 55.2959H76.7969V410.112H552.957V55.2959Z" fill="white"/>
</mask>
<g mask="url(#mask7_230_15038)">
<path d="M326.648 410.111L334.578 409.997L336.164 409.731L338.543 408.775L341.715 407.175L343.301 406.02L344.887 404.397L346.473 402.334L348.058 399.777L349.644 396.292L353.609 385.289L357.574 373.107L360.746 359.701L362.332 352.777L363.918 344.059L365.504 332.343L367.09 317.719L368.675 300.138L374.226 232.204L375.019 224.524L375.812 218.586L376.605 214.419L377.398 211.849L378.191 210.618L378.984 210.617L379.777 212.017L380.57 215.029L381.363 219.612L382.156 225.545L383.742 240.976L386.914 275.49L390.085 306.303L394.843 353.675L397.222 371.587L398.808 380.728L401.187 391.013L402.773 397.218L403.566 399.758L404.359 401.704L405.152 403.11L406.738 405.082L408.324 406.675L409.91 407.726L411.495 408.275L413.874 408.696L416.253 409.056L419.425 409.664L421.804 409.776L424.976 409.897L428.148 410L436.87 409.943L440.835 410.071L446.386 410.106L482.862 410.103L484.448 410.111" fill="#EFEFEF" fill-opacity="0.4"/>
<path d="M326.648 410.111L334.578 409.997L336.164 409.731L338.543 408.775L341.715 407.175L343.301 406.02L344.887 404.397L346.473 402.334L348.058 399.777L349.644 396.292L353.609 385.289L357.574 373.107L360.746 359.701L362.332 352.777L363.918 344.059L365.504 332.343L367.09 317.719L368.675 300.138L374.226 232.204L375.019 224.524L375.812 218.586L376.605 214.419L377.398 211.849L378.191 210.618L378.984 210.617L379.777 212.017L380.57 215.029L381.363 219.612L382.156 225.545L383.742 240.976L386.914 275.49L390.085 306.303L394.843 353.675L397.222 371.587L398.808 380.728L401.187 391.013L402.773 397.218L403.566 399.758L404.359 401.704L405.152 403.11L406.738 405.082L408.324 406.675L409.91 407.726L411.495 408.275L413.874 408.696L416.253 409.056L419.425 409.664L421.804 409.776L424.976 409.897L428.148 410L436.87 409.943L440.835 410.071L446.386 410.106L482.862 410.103L484.448 410.111" stroke="#EFEFEF" stroke-linecap="square"/>
</g>
<mask id="mask8_230_15038" style="mask-type:luminance" maskUnits="userSpaceOnUse" x="76" y="55" width="477" height="356">
<path d="M552.957 55.2959H76.7969V410.112H552.957V55.2959Z" fill="white"/>
</mask>
<g mask="url(#mask8_230_15038)">
<path d="M336.555 410.111L341.338 409.969L346.121 409.574L348.512 408.933L350.107 408.172L351.701 406.866L353.296 404.946L354.89 402.428L356.484 399.242L357.281 397.236L358.079 394.663L358.876 391.332L359.673 387.191L361.267 376.606L362.862 363.605L364.456 348.286L366.848 320.877L372.428 255.915L374.819 233.035L376.414 221.004L377.211 216.461L378.008 212.849L378.805 210.717L379.603 210.879L380.4 213.403L383.589 228.777L384.386 234.047L385.98 247.808L387.574 264.151L392.358 317.577L395.546 345.673L397.141 357.894L398.735 368.012L400.329 375.671L402.721 385.344L404.315 391.065L405.91 395.538L407.504 398.729L409.098 401.023L412.287 404.653L414.679 406.486L417.07 408.007L418.665 408.692L421.056 409.261L423.448 409.568L444.175 410.069L448.958 410.05L462.51 410.065L473.67 410.048L482.439 410.098L492.006 410.066L495.194 410.111" fill="#EFEFEF" fill-opacity="0.4"/>
<path d="M336.555 410.111L341.338 409.969L346.121 409.574L348.512 408.933L350.107 408.172L351.701 406.866L353.296 404.946L354.89 402.428L356.484 399.242L357.281 397.236L358.079 394.663L358.876 391.332L359.673 387.191L361.267 376.606L362.862 363.605L364.456 348.286L366.848 320.877L372.428 255.915L374.819 233.035L376.414 221.004L377.211 216.461L378.008 212.849L378.805 210.717L379.603 210.879L380.4 213.403L383.589 228.777L384.386 234.047L385.98 247.808L387.574 264.151L392.358 317.577L395.546 345.673L397.141 357.894L398.735 368.012L400.329 375.671L402.721 385.344L404.315 391.065L405.91 395.538L407.504 398.729L409.098 401.023L412.287 404.653L414.679 406.486L417.07 408.007L418.665 408.692L421.056 409.261L423.448 409.568L444.175 410.069L448.958 410.05L462.51 410.065L473.67 410.048L482.439 410.098L492.006 410.066L495.194 410.111" stroke="#EFEFEF" stroke-linecap="square"/>
</g>
<mask id="mask9_230_15038" style="mask-type:luminance" maskUnits="userSpaceOnUse" x="76" y="55" width="477" height="356">
<path d="M552.957 55.2959H76.7969V410.112H552.957V55.2959Z" fill="white"/>
</mask>
<g mask="url(#mask9_230_15038)">
<path d="M315.883 410.111L321.048 409.956L324.491 409.63L326.213 409.728L327.074 409.6L328.796 408.778L331.378 407.478L333.1 406.826L333.961 405.993L335.682 402.827L338.265 397.598L339.987 394.287L340.847 392.052L341.708 388.638L342.569 383.959L343.43 377.561L345.152 359.629L346.012 348.638L346.873 335.449L347.734 318.58L349.456 274.274L351.178 216.698L354.621 93.6579L355.482 77.248L356.343 72.1924L357.203 75.3236L358.064 83.6399L358.925 97.6102L359.786 117.675L360.647 143.57L363.229 234.523L364.951 280.324L366.673 319.584L367.534 336.003L368.394 348.063L369.255 356.275L371.838 374.945L374.42 392.144L375.281 395.922L376.142 398.611L377.003 400.508L378.725 403.198L380.446 405.493L381.307 406.366L383.029 407.508L384.751 408.186L385.611 408.306L387.333 408.086L388.194 408.207L390.777 409.14L392.498 409.137L394.22 409.284L395.942 409.552L401.107 409.728L405.411 409.361L407.133 409.633L408.854 409.913L414.88 409.938L417.463 409.904L420.045 409.849L421.767 409.738L428.654 409.991L430.375 409.946L435.541 410.11L446.732 410.035L449.314 409.869L451.897 410.097L457.062 410.108L466.531 410.052L469.114 409.953L474.279 410.04L482.887 410.048L485.47 410.081L487.191 410.111" fill="#EFEFEF" fill-opacity="0.4"/>
<path d="M315.883 410.111L321.048 409.956L324.491 409.63L326.213 409.728L327.074 409.6L328.796 408.778L331.378 407.478L333.1 406.826L333.961 405.993L335.682 402.827L338.265 397.598L339.987 394.287L340.847 392.052L341.708 388.638L342.569 383.959L343.43 377.561L345.152 359.629L346.012 348.638L346.873 335.449L347.734 318.58L349.456 274.274L351.178 216.698L354.621 93.6579L355.482 77.248L356.343 72.1924L357.203 75.3236L358.064 83.6399L358.925 97.6102L359.786 117.675L360.647 143.57L363.229 234.523L364.951 280.324L366.673 319.584L367.534 336.003L368.394 348.063L369.255 356.275L371.838 374.945L374.42 392.144L375.281 395.922L376.142 398.611L377.003 400.508L378.725 403.198L380.446 405.493L381.307 406.366L383.029 407.508L384.751 408.186L385.611 408.306L387.333 408.086L388.194 408.207L390.777 409.14L392.498 409.137L394.22 409.284L395.942 409.552L401.107 409.728L405.411 409.361L407.133 409.633L408.854 409.913L414.88 409.938L417.463 409.904L420.045 409.849L421.767 409.738L428.654 409.991L430.375 409.946L435.541 410.11L446.732 410.035L449.314 409.869L451.897 410.097L457.062 410.108L466.531 410.052L469.114 409.953L474.279 410.04L482.887 410.048L485.47 410.081L487.191 410.111" stroke="#EFEFEF" stroke-linecap="square"/>
</g>
<mask id="mask10_230_15038" style="mask-type:luminance" maskUnits="userSpaceOnUse" x="76" y="55" width="477" height="356">
<path d="M552.957 55.2959H76.7969V410.112H552.957V55.2959Z" fill="white"/>
</mask>
<g mask="url(#mask10_230_15038)">
<path d="M334.812 410.111L337.944 409.993L344.208 409.376L348.123 408.513L350.472 408.257L351.255 407.941L352.038 407.316L353.603 405.34L355.952 401.963L356.735 400.601L357.518 398.859L359.084 394.038L360.65 387.357L362.216 378.25L365.348 357.237L366.914 344.893L368.48 330.47L370.046 312.347L375.526 239.859L378.658 203.324L379.441 196.487L380.224 191.894L381.007 189.857L381.79 190.989L382.573 195.613L384.139 211.222L387.271 245.085L388.836 265.698L391.185 299.391L392.751 315.796L395.883 340.39L397.449 350.505L399.798 363.306L402.93 378.255L404.496 384.174L406.062 388.563L409.976 398.816L410.759 400.132L412.325 401.969L416.24 405.868L417.806 406.894L420.155 407.709L422.504 408.249L428.767 409.559L432.682 409.759L448.341 410.002L455.388 410.042L467.132 410.113L490.621 410.112" fill="#EFEFEF" fill-opacity="0.4"/>
<path d="M334.812 410.111L337.944 409.993L344.208 409.376L348.123 408.513L350.472 408.257L351.255 407.941L352.038 407.316L353.603 405.34L355.952 401.963L356.735 400.601L357.518 398.859L359.084 394.038L360.65 387.357L362.216 378.25L365.348 357.237L366.914 344.893L368.48 330.47L370.046 312.347L375.526 239.859L378.658 203.324L379.441 196.487L380.224 191.894L381.007 189.857L381.79 190.989L382.573 195.613L384.139 211.222L387.271 245.085L388.836 265.698L391.185 299.391L392.751 315.796L395.883 340.39L397.449 350.505L399.798 363.306L402.93 378.255L404.496 384.174L406.062 388.563L409.976 398.816L410.759 400.132L412.325 401.969L416.24 405.868L417.806 406.894L420.155 407.709L422.504 408.249L428.767 409.559L432.682 409.759L448.341 410.002L455.388 410.042L467.132 410.113L490.621 410.112" stroke="#EFEFEF" stroke-linecap="square"/>
</g>
<mask id="mask11_230_15038" style="mask-type:luminance" maskUnits="userSpaceOnUse" x="76" y="55" width="477" height="356">
<path d="M552.957 55.2959H76.7969V410.112H552.957V55.2959Z" fill="white"/>
</mask>
<g mask="url(#mask11_230_15038)">
<path d="M321.031 410.111L335.832 409.966L337.806 409.809L338.793 409.576L339.779 409.18L340.766 408.578L341.753 407.705L342.74 406.512L343.726 404.952L344.713 402.906L345.7 400.159L346.687 396.43L347.673 391.528L348.66 385.509L349.647 378.531L350.634 370.491L351.62 361.041L353.594 337.667L357.541 282.55L360.501 241.7L361.488 231.074L362.475 224.283L363.461 221.262L364.448 220.877L365.435 221.616L366.422 222.589L367.408 224.179L368.395 227.17L370.369 236.468L372.342 247.817L373.329 255.099L383.196 339.849L385.17 354.643L387.143 366.09L388.13 370.631L389.117 374.315L391.09 380.225L393.064 385.52L395.037 389.62L397.011 393.627L398.984 397.895L399.971 399.466L400.958 400.592L402.931 402.08L404.905 403.358L407.865 405.758L408.852 406.289L410.825 406.837L413.785 407.565L418.719 408.923L420.693 409.188L424.64 409.35L429.573 409.676L437.467 409.805L440.427 409.716L452.268 409.928L455.229 409.818L466.083 410.038L473.977 410.052L477.924 410.052L481.871 410.04L487.791 410.02L494.698 410.027L498.645 410.062L511.473 410.058L517.394 410.112" fill="#EFEFEF" fill-opacity="0.4"/>
<path d="M321.031 410.111L335.832 409.966L337.806 409.809L338.793 409.576L339.779 409.18L340.766 408.578L341.753 407.705L342.74 406.512L343.726 404.952L344.713 402.906L345.7 400.159L346.687 396.43L347.673 391.528L348.66 385.509L349.647 378.531L350.634 370.491L351.62 361.041L353.594 337.667L357.541 282.55L360.501 241.7L361.488 231.074L362.475 224.283L363.461 221.262L364.448 220.877L365.435 221.616L366.422 222.589L367.408 224.179L368.395 227.17L370.369 236.468L372.342 247.817L373.329 255.099L383.196 339.849L385.17 354.643L387.143 366.09L388.13 370.631L389.117 374.315L391.09 380.225L393.064 385.52L395.037 389.62L397.011 393.627L398.984 397.895L399.971 399.466L400.958 400.592L402.931 402.08L404.905 403.358L407.865 405.758L408.852 406.289L410.825 406.837L413.785 407.565L418.719 408.923L420.693 409.188L424.64 409.35L429.573 409.676L437.467 409.805L440.427 409.716L452.268 409.928L455.229 409.818L466.083 410.038L473.977 410.052L477.924 410.052L481.871 410.04L487.791 410.02L494.698 410.027L498.645 410.062L511.473 410.058L517.394 410.112" stroke="#EFEFEF" stroke-linecap="square"/>
</g>
<mask id="mask12_230_15038" style="mask-type:luminance" maskUnits="userSpaceOnUse" x="76" y="55" width="477" height="356">
<path d="M552.957 55.2959H76.7969V410.112H552.957V55.2959Z" fill="white"/>
</mask>
<g mask="url(#mask12_230_15038)">
<path d="M331.961 410.11L335.544 409.994L340.92 409.507L342.711 408.872L344.503 407.808L345.399 407.112L346.295 406.118L347.191 404.67L348.087 402.748L348.982 400.414L349.878 397.628L350.774 394.204L351.67 389.953L352.566 384.77L354.358 371.651L356.149 355.183L357.941 334.119L359.733 307.467L362.42 267.079L365.108 229.931L366.004 220.117L366.9 212.55L367.796 207.48L368.691 204.613L369.587 203.404L370.483 203.611L371.379 205.239L372.275 208.341L373.171 213.004L374.067 219.153L375.858 234.221L377.65 251.884L383.025 311.983L384.817 328.68L386.609 347.015L387.505 354.552L389.296 365.289L392.88 384.065L393.776 388.001L394.672 391.266L395.567 393.895L396.463 395.959L397.359 397.475L399.151 399.719L401.838 403.912L402.734 404.736L407.214 407.53L409.005 407.858L410.797 408.24L414.381 409.203L417.964 409.33L419.756 409.678L433.194 409.943L436.777 409.715L440.361 409.928L443.944 409.962L460.966 409.983L463.653 410.071L467.237 410.002L470.82 409.982L510.238 410.111" fill="#EFEFEF" fill-opacity="0.4"/>
<path d="M331.961 410.11L335.544 409.994L340.92 409.507L342.711 408.872L344.503 407.808L345.399 407.112L346.295 406.118L347.191 404.67L348.087 402.748L348.982 400.414L349.878 397.628L350.774 394.204L351.67 389.953L352.566 384.77L354.358 371.651L356.149 355.183L357.941 334.119L359.733 307.467L362.42 267.079L365.108 229.931L366.004 220.117L366.9 212.55L367.796 207.48L368.691 204.613L369.587 203.404L370.483 203.611L371.379 205.239L372.275 208.341L373.171 213.004L374.067 219.153L375.858 234.221L377.65 251.884L383.025 311.983L384.817 328.68L386.609 347.015L387.505 354.552L389.296 365.289L392.88 384.065L393.776 388.001L394.672 391.266L395.567 393.895L396.463 395.959L397.359 397.475L399.151 399.719L401.838 403.912L402.734 404.736L407.214 407.53L409.005 407.858L410.797 408.24L414.381 409.203L417.964 409.33L419.756 409.678L433.194 409.943L436.777 409.715L440.361 409.928L443.944 409.962L460.966 409.983L463.653 410.071L467.237 410.002L470.82 409.982L510.238 410.111" stroke="#EFEFEF" stroke-linecap="square"/>
</g>
<mask id="mask13_230_15038" style="mask-type:luminance" maskUnits="userSpaceOnUse" x="76" y="55" width="477" height="356">
<path d="M552.957 55.2959H76.7969V410.112H552.957V55.2959Z" fill="white"/>
</mask>
<g mask="url(#mask13_230_15038)">
<path d="M309.031 410.111L312.232 410.029L315.432 409.64L320.766 408.569L321.833 408.188L322.899 407.597L325.033 405.971L327.167 403.975L331.434 399.44L332.5 397.419L333.567 394.565L337.834 381.506L338.901 377.133L341.035 366.274L342.101 360.367L343.168 353.515L344.235 345.058L346.369 323.943L349.569 290.122L353.836 250.231L354.903 241.929L355.97 235.078L358.103 224.504L359.17 220.501L360.237 218.162L361.303 218.168L362.37 221.07L363.437 226.905L364.504 234.868L365.571 244.211L367.704 267.04L371.971 317.953L374.105 338.706L376.238 356.582L377.305 364.221L379.439 376.172L381.572 386.007L383.706 394.39L384.773 397.75L385.839 400.178L387.973 403.485L390.107 406.24L391.173 407.161L392.24 407.762L396.507 409.353L397.574 409.552L400.774 409.583L403.975 409.576L408.242 409.969L410.375 409.871L412.509 409.691L422.11 409.946L435.978 410.033L439.178 410.006L442.379 410.061L447.713 410.111L480.783 410.112L521.321 410.112" fill="#EFEFEF" fill-opacity="0.4"/>
<path d="M309.031 410.111L312.232 410.029L315.432 409.64L320.766 408.569L321.833 408.188L322.899 407.597L325.033 405.971L327.167 403.975L331.434 399.44L332.5 397.419L333.567 394.565L337.834 381.506L338.901 377.133L341.035 366.274L342.101 360.367L343.168 353.515L344.235 345.058L346.369 323.943L349.569 290.122L353.836 250.231L354.903 241.929L355.97 235.078L358.103 224.504L359.17 220.501L360.237 218.162L361.303 218.168L362.37 221.07L363.437 226.905L364.504 234.868L365.571 244.211L367.704 267.04L371.971 317.953L374.105 338.706L376.238 356.582L377.305 364.221L379.439 376.172L381.572 386.007L383.706 394.39L384.773 397.75L385.839 400.178L387.973 403.485L390.107 406.24L391.173 407.161L392.24 407.762L396.507 409.353L397.574 409.552L400.774 409.583L403.975 409.576L408.242 409.969L410.375 409.871L412.509 409.691L422.11 409.946L435.978 410.033L439.178 410.006L442.379 410.061L447.713 410.111L480.783 410.112L521.321 410.112" stroke="#EFEFEF" stroke-linecap="square"/>
</g>
<mask id="mask14_230_15038" style="mask-type:luminance" maskUnits="userSpaceOnUse" x="76" y="55" width="477" height="356">
<path d="M552.957 55.2959H76.7969V410.112H552.957V55.2959Z" fill="white"/>
</mask>
<g mask="url(#mask14_230_15038)">
<path d="M98.4375 410.111L142.386 410.111L298.203 409.998L304.196 409.726L314.185 408.471L318.18 408.612L320.177 408.165L324.173 406.049L326.17 405.147L332.163 401.203L334.161 398.547L336.159 395.451L338.156 392.037L340.154 388.053L342.152 382.768L344.149 375.372L346.147 366.162L352.14 333.671L354.138 321.636L358.133 293.337L362.128 265.048L364.126 255.425L366.124 250.107L368.121 248.336L370.119 252.051L372.117 261.059L374.114 273.336L378.11 304.078L382.105 335.907L384.103 349.014L386.1 361.077L388.098 371.892L390.096 380.678L392.093 387.768L394.091 393.431L396.089 397.665L398.086 401.091L400.084 403.735L402.081 405.207L406.077 407.504L408.074 408.279L414.067 409.683L430.049 410.087L448.028 409.985L495.971 410.111" fill="#7EB0D5" fill-opacity="0.4"/>
<path d="M98.4375 410.111L142.386 410.111L298.203 409.998L304.196 409.726L314.185 408.471L318.18 408.612L320.177 408.165L324.173 406.049L326.17 405.147L332.163 401.203L334.161 398.547L336.159 395.451L338.156 392.037L340.154 388.053L342.152 382.768L344.149 375.372L346.147 366.162L352.14 333.671L354.138 321.636L358.133 293.337L362.128 265.048L364.126 255.425L366.124 250.107L368.121 248.336L370.119 252.051L372.117 261.059L374.114 273.336L378.11 304.078L382.105 335.907L384.103 349.014L386.1 361.077L388.098 371.892L390.096 380.678L392.093 387.768L394.091 393.431L396.089 397.665L398.086 401.091L400.084 403.735L402.081 405.207L406.077 407.504L408.074 408.279L414.067 409.683L430.049 410.087L448.028 409.985L495.971 410.111" stroke="#7EB0D5" stroke-linecap="square"/>
</g>
<path d="M535.061 411.061C535.646 410.475 535.646 409.525 535.061 408.939L525.515 399.393C524.929 398.808 523.979 398.808 523.393 399.393C522.808 399.979 522.808 400.929 523.393 401.515L531.879 410L523.393 418.485C522.808 419.071 522.808 420.021 523.393 420.607C523.979 421.192 524.929 421.192 525.515 420.607L535.061 411.061ZM79 411.5H534V408.5H79V411.5Z" fill="black"/>
</svg>
