<svg width="615" height="461" viewBox="0 0 615 461" fill="none" xmlns="http://www.w3.org/2000/svg">
<g clip-path="url(#clip0_230_14638)">
<mask id="mask0_230_14638" style="mask-type:luminance" maskUnits="userSpaceOnUse" x="76" y="55" width="477" height="356">
<path d="M552.957 55.2959H76.7969V410.112H552.957V55.2959Z" fill="white"/>
</mask>
<g mask="url(#mask0_230_14638)">
<path d="M351.188 410.111L374.475 409.935L377.58 409.509L383.013 408.471L383.79 408.067L384.566 407.461L386.118 405.669L388.447 402.132L389.223 400.668L390 398.883L390.776 396.632L391.552 393.744L392.328 390.053L393.104 385.474L394.657 373.649L396.209 358.718L397.762 341.642L399.314 321.065L401.643 287.978L403.196 270.986L405.524 248.402L408.629 215.024L410.182 203.642L413.287 184.637L414.063 182.549L414.839 182.667L415.615 184.341L417.944 190.97L418.72 193.841L419.497 197.715L421.049 208.249L422.602 221.54L424.154 238.508L425.707 256.098L427.259 270.258L431.917 305.311L434.245 327.179L437.35 358.445L438.903 370.133L440.455 378.57L442.784 389.029L444.336 394.797L445.889 399.628L447.441 403.113L448.994 405.269L450.546 406.686L452.099 407.722L453.651 408.457L456.756 409.445L458.309 409.714L463.742 410.008L466.071 410.063L470.729 409.854L473.834 409.972L484.701 410.032L493.24 410.112L505.659 410.111" fill="#EFEFEF" fill-opacity="0.4"/>
<path d="M351.188 410.111L374.475 409.935L377.58 409.509L383.013 408.471L383.79 408.067L384.566 407.461L386.118 405.669L388.447 402.132L389.223 400.668L390 398.883L390.776 396.632L391.552 393.744L392.328 390.053L393.104 385.474L394.657 373.649L396.209 358.718L397.762 341.642L399.314 321.065L401.643 287.978L403.196 270.986L405.524 248.402L408.629 215.024L410.182 203.642L413.287 184.637L414.063 182.549L414.839 182.667L415.615 184.341L417.944 190.97L418.72 193.841L419.497 197.715L421.049 208.249L422.602 221.54L424.154 238.508L425.707 256.098L427.259 270.258L431.917 305.311L434.245 327.179L437.35 358.445L438.903 370.133L440.455 378.57L442.784 389.029L444.336 394.797L445.889 399.628L447.441 403.113L448.994 405.269L450.546 406.686L452.099 407.722L453.651 408.457L456.756 409.445L458.309 409.714L463.742 410.008L466.071 410.063L470.729 409.854L473.834 409.972L484.701 410.032L493.24 410.112L505.659 410.111" stroke="#EFEFEF" stroke-linecap="square"/>
</g>
<mask id="mask1_230_14638" style="mask-type:luminance" maskUnits="userSpaceOnUse" x="76" y="55" width="477" height="356">
<path d="M552.957 55.2959H76.7969V410.112H552.957V55.2959Z" fill="white"/>
</mask>
<g mask="url(#mask1_230_14638)">
<path d="M349.875 410.111L356.594 409.944L362.566 409.613L364.059 409.317L365.552 408.583L367.791 406.656L369.284 404.863L370.777 402.504L371.524 400.78L372.27 398.245L373.017 394.762L374.51 385.248L376.003 372.895L377.496 357.753L378.242 348.16L379.735 322.839L381.975 275.557L388.693 129.698L390.186 103.668L391.679 83.9598L392.426 76.9925L393.173 72.95L393.919 72.1924L394.666 75.1969L395.412 82.7382L396.159 95.2768L397.652 131.291L403.624 293.921L405.117 319.615L407.356 348.818L408.849 365.378L410.342 377.46L411.089 381.913L411.835 385.41L413.328 390.618L415.568 397.284L416.314 398.919L417.061 400.043L417.807 400.628L418.554 400.825L420.047 400.764L422.286 400.203L423.033 400.603L424.526 402.436L426.019 404.033L427.512 404.953L429.005 405.337L430.498 405.53L432.738 406.238L434.231 406.474L439.456 408.452L440.949 408.452L442.442 408.466L443.935 409.08L445.428 409.694L446.921 409.768L452.893 409.792L457.372 410.013L463.344 410.001L466.33 410.111L480.514 410.003L484.993 410.039L489.472 410.112L498.43 410.111" fill="#EFEFEF" fill-opacity="0.4"/>
<path d="M349.875 410.111L356.594 409.944L362.566 409.613L364.059 409.317L365.552 408.583L367.791 406.656L369.284 404.863L370.777 402.504L371.524 400.78L372.27 398.245L373.017 394.762L374.51 385.248L376.003 372.895L377.496 357.753L378.242 348.16L379.735 322.839L381.975 275.557L388.693 129.698L390.186 103.668L391.679 83.9598L392.426 76.9925L393.173 72.95L393.919 72.1924L394.666 75.1969L395.412 82.7382L396.159 95.2768L397.652 131.291L403.624 293.921L405.117 319.615L407.356 348.818L408.849 365.378L410.342 377.46L411.089 381.913L411.835 385.41L413.328 390.618L415.568 397.284L416.314 398.919L417.061 400.043L417.807 400.628L418.554 400.825L420.047 400.764L422.286 400.203L423.033 400.603L424.526 402.436L426.019 404.033L427.512 404.953L429.005 405.337L430.498 405.53L432.738 406.238L434.231 406.474L439.456 408.452L440.949 408.452L442.442 408.466L443.935 409.08L445.428 409.694L446.921 409.768L452.893 409.792L457.372 410.013L463.344 410.001L466.33 410.111L480.514 410.003L484.993 410.039L489.472 410.112L498.43 410.111" stroke="#EFEFEF" stroke-linecap="square"/>
</g>
<mask id="mask2_230_14638" style="mask-type:luminance" maskUnits="userSpaceOnUse" x="76" y="55" width="477" height="356">
<path d="M552.957 55.2959H76.7969V410.112H552.957V55.2959Z" fill="white"/>
</mask>
<g mask="url(#mask2_230_14638)">
<path d="M350.773 410.11L354.812 409.968L362.08 409.238L362.888 408.869L363.696 408.266L365.311 406.551L367.734 403.561L369.349 400.812L370.965 397.134L372.58 392.698L373.388 389.864L374.195 386.285L375.003 381.728L376.618 369.538L379.041 347.273L380.656 330.21L382.272 310.338L383.887 287.598L387.925 225.799L389.541 206.737L391.156 191.658L391.964 186.471L392.771 183.121L393.579 181.267L396.809 176.834L397.617 176.648L398.425 178.194L399.232 181.777L400.04 187.323L400.848 194.632L402.463 213.117L408.116 282.813L410.539 309.496L412.962 333.004L414.578 345.496L416.193 354.817L418.616 365.547L420.231 371.584L425.885 388.631L427.5 392.016L428.308 393.109L431.538 396.325L433.154 399.09L434.769 401.879L436.384 403.956L437.999 405.573L439.615 406.809L441.23 407.456L446.076 408.571L448.499 408.767L452.537 409.498L458.191 409.893L472.728 410.107L486.458 410.109L511.495 410.111" fill="#EFEFEF" fill-opacity="0.4"/>
<path d="M350.773 410.11L354.812 409.968L362.08 409.238L362.888 408.869L363.696 408.266L365.311 406.551L367.734 403.561L369.349 400.812L370.965 397.134L372.58 392.698L373.388 389.864L374.195 386.285L375.003 381.728L376.618 369.538L379.041 347.273L380.656 330.21L382.272 310.338L383.887 287.598L387.925 225.799L389.541 206.737L391.156 191.658L391.964 186.471L392.771 183.121L393.579 181.267L396.809 176.834L397.617 176.648L398.425 178.194L399.232 181.777L400.04 187.323L400.848 194.632L402.463 213.117L408.116 282.813L410.539 309.496L412.962 333.004L414.578 345.496L416.193 354.817L418.616 365.547L420.231 371.584L425.885 388.631L427.5 392.016L428.308 393.109L431.538 396.325L433.154 399.09L434.769 401.879L436.384 403.956L437.999 405.573L439.615 406.809L441.23 407.456L446.076 408.571L448.499 408.767L452.537 409.498L458.191 409.893L472.728 410.107L486.458 410.109L511.495 410.111" stroke="#EFEFEF" stroke-linecap="square"/>
</g>
<mask id="mask3_230_14638" style="mask-type:luminance" maskUnits="userSpaceOnUse" x="76" y="55" width="477" height="356">
<path d="M552.957 55.2959H76.7969V410.112H552.957V55.2959Z" fill="white"/>
</mask>
<g mask="url(#mask3_230_14638)">
<path d="M356.367 410.111L366.855 409.919L370.35 409.644L372.098 409.272L373.846 408.367L375.594 407.431L377.342 406.527L379.09 404.976L380.838 402.973L382.586 400.712L384.333 398.633L385.207 396.963L386.081 394.533L387.829 388.309L389.577 380.324L393.073 362.662L393.947 356.079L394.821 347.893L396.569 326.696L400.938 261.901L405.308 187.774L406.182 178.079L407.93 163.683L409.678 151.275L410.552 146.907L411.426 145.882L412.3 148.488L413.174 153.434L414.921 165.395L415.795 172.467L416.669 181.426L418.417 204.452L421.039 242.457L424.535 295.758L426.283 317.65L428.905 344.898L431.526 370.439L432.4 376.852L433.274 382.044L434.148 386.326L435.022 389.839L436.77 395.124L439.392 401.132L441.14 404.375L442.014 405.562L443.762 407.266L445.51 408.412L447.257 409.047L449.005 409.336L450.753 409.388L453.375 409.205L455.997 409.747L457.745 409.949L462.114 409.973L464.736 409.884L467.358 409.81L474.35 410.112L530.282 410.111" fill="#EFEFEF" fill-opacity="0.4"/>
<path d="M356.367 410.111L366.855 409.919L370.35 409.644L372.098 409.272L373.846 408.367L375.594 407.431L377.342 406.527L379.09 404.976L380.838 402.973L382.586 400.712L384.333 398.633L385.207 396.963L386.081 394.533L387.829 388.309L389.577 380.324L393.073 362.662L393.947 356.079L394.821 347.893L396.569 326.696L400.938 261.901L405.308 187.774L406.182 178.079L407.93 163.683L409.678 151.275L410.552 146.907L411.426 145.882L412.3 148.488L413.174 153.434L414.921 165.395L415.795 172.467L416.669 181.426L418.417 204.452L421.039 242.457L424.535 295.758L426.283 317.65L428.905 344.898L431.526 370.439L432.4 376.852L433.274 382.044L434.148 386.326L435.022 389.839L436.77 395.124L439.392 401.132L441.14 404.375L442.014 405.562L443.762 407.266L445.51 408.412L447.257 409.047L449.005 409.336L450.753 409.388L453.375 409.205L455.997 409.747L457.745 409.949L462.114 409.973L464.736 409.884L467.358 409.81L474.35 410.112L530.282 410.111" stroke="#EFEFEF" stroke-linecap="square"/>
</g>
<mask id="mask4_230_14638" style="mask-type:luminance" maskUnits="userSpaceOnUse" x="76" y="55" width="477" height="356">
<path d="M552.957 55.2959H76.7969V410.112H552.957V55.2959Z" fill="white"/>
</mask>
<g mask="url(#mask4_230_14638)">
<path d="M352.062 410.111L363.591 409.942L366.884 409.957L368.531 409.909L371.825 409.382L374.295 408.685L376.766 407.633L379.236 406.277L380.059 405.608L380.883 404.698L382.53 402.241L384.176 399.101L385.823 395.132L387.47 390.22L389.117 383.842L390.764 375.49L393.234 361.514L394.058 355.758L395.705 341.116L398.175 315.866L399.822 295.43L402.292 261.552L404.762 232.986L406.409 216.535L408.056 203.707L408.879 198.946L411.35 187.011L412.997 177.027L413.82 173.352L414.644 171.73L415.467 172.359L416.29 174.932L417.937 183.35L419.584 193.053L420.408 199.066L421.231 207.188L422.054 218.256L425.348 272.189L429.465 323.15L431.112 338.08L433.583 358.076L435.229 371.78L436.053 377.246L437.7 385.322L440.17 394.705L441.817 399.663L442.64 401.384L443.464 402.603L445.934 405.039L448.404 407.447L450.051 408.401L451.698 408.741L459.932 409.561L461.579 409.815L465.696 409.892L469.814 409.681L472.284 409.645L478.048 410.055L482.165 409.916L485.459 410.023L515.926 410.111" fill="#EFEFEF" fill-opacity="0.4"/>
<path d="M352.062 410.111L363.591 409.942L366.884 409.957L368.531 409.909L371.825 409.382L374.295 408.685L376.766 407.633L379.236 406.277L380.059 405.608L380.883 404.698L382.53 402.241L384.176 399.101L385.823 395.132L387.47 390.22L389.117 383.842L390.764 375.49L393.234 361.514L394.058 355.758L395.705 341.116L398.175 315.866L399.822 295.43L402.292 261.552L404.762 232.986L406.409 216.535L408.056 203.707L408.879 198.946L411.35 187.011L412.997 177.027L413.82 173.352L414.644 171.73L415.467 172.359L416.29 174.932L417.937 183.35L419.584 193.053L420.408 199.066L421.231 207.188L422.054 218.256L425.348 272.189L429.465 323.15L431.112 338.08L433.583 358.076L435.229 371.78L436.053 377.246L437.7 385.322L440.17 394.705L441.817 399.663L442.64 401.384L443.464 402.603L445.934 405.039L448.404 407.447L450.051 408.401L451.698 408.741L459.932 409.561L461.579 409.815L465.696 409.892L469.814 409.681L472.284 409.645L478.048 410.055L482.165 409.916L485.459 410.023L515.926 410.111" stroke="#EFEFEF" stroke-linecap="square"/>
</g>
<mask id="mask5_230_14638" style="mask-type:luminance" maskUnits="userSpaceOnUse" x="76" y="55" width="477" height="356">
<path d="M552.957 55.2959H76.7969V410.112H552.957V55.2959Z" fill="white"/>
</mask>
<g mask="url(#mask5_230_14638)">
<path d="M366.734 410.111L374.178 409.997L375.832 409.737L379.967 408.87L382.448 408.373L385.756 407.098L388.238 406.993L389.065 406.45L389.892 405.474L391.546 402.611L394.854 395.783L395.681 393.684L396.508 390.969L397.335 387.336L398.162 382.589L399.816 370.099L401.47 354.883L402.297 345.922L403.124 335.311L404.778 307.687L410.568 193.501L411.395 182.232L412.222 174.355L413.049 169.061L414.703 161.754L415.53 159.012L416.357 157.253L417.184 156.826L418.011 158.032L418.838 161.045L419.665 165.664L420.492 171.464L421.319 178.408L422.146 186.98L426.282 238.502L431.244 290.069L435.379 330.102L437.033 344.598L438.687 356.76L440.341 365.98L445.304 389.805L446.958 394.973L448.612 398.803L450.266 401.833L451.92 404.121L454.401 406.967L455.228 407.646L456.055 408.096L458.536 408.744L461.018 409.377L475.904 410.039L480.04 410.102L488.31 410.026L490.791 409.869L498.235 410.033L508.159 410.061L511.467 410.088L515.603 410.064L521.392 410.112L531.316 410.111" fill="#EFEFEF" fill-opacity="0.4"/>
<path d="M366.734 410.111L374.178 409.997L375.832 409.737L379.967 408.87L382.448 408.373L385.756 407.098L388.238 406.993L389.065 406.45L389.892 405.474L391.546 402.611L394.854 395.783L395.681 393.684L396.508 390.969L397.335 387.336L398.162 382.589L399.816 370.099L401.47 354.883L402.297 345.922L403.124 335.311L404.778 307.687L410.568 193.501L411.395 182.232L412.222 174.355L413.049 169.061L414.703 161.754L415.53 159.012L416.357 157.253L417.184 156.826L418.011 158.032L418.838 161.045L419.665 165.664L420.492 171.464L421.319 178.408L422.146 186.98L426.282 238.502L431.244 290.069L435.379 330.102L437.033 344.598L438.687 356.76L440.341 365.98L445.304 389.805L446.958 394.973L448.612 398.803L450.266 401.833L451.92 404.121L454.401 406.967L455.228 407.646L456.055 408.096L458.536 408.744L461.018 409.377L475.904 410.039L480.04 410.102L488.31 410.026L490.791 409.869L498.235 410.033L508.159 410.061L511.467 410.088L515.603 410.064L521.392 410.112L531.316 410.111" stroke="#EFEFEF" stroke-linecap="square"/>
</g>
<mask id="mask6_230_14638" style="mask-type:luminance" maskUnits="userSpaceOnUse" x="76" y="55" width="477" height="356">
<path d="M552.957 55.2959H76.7969V410.112H552.957V55.2959Z" fill="white"/>
</mask>
<g mask="url(#mask6_230_14638)">
<path d="M361.367 410.11L365.401 409.956L367.822 409.567L371.049 408.672L374.276 408.174L375.083 407.741L375.89 407.064L377.503 405.179L379.117 402.929L382.344 397.605L383.151 396.08L383.958 394.18L385.571 388.956L387.992 379.215L389.605 371.65L391.219 361.123L394.446 337.716L396.06 325.817L397.674 311.253L402.514 265.65L404.128 253.071L405.742 240.658L408.969 213.136L409.776 208.209L411.389 200.601L413.003 194.038L413.81 192.476L414.617 192.671L417.844 197.581L418.651 200.345L419.457 204.853L421.071 217.443L424.298 245.22L425.912 264.277L431.559 340.734L433.173 358.256L434.787 372.361L436.4 383.949L438.014 393.194L438.821 396.775L439.628 399.674L440.434 401.959L441.241 403.732L442.048 405.108L443.662 407.052L445.275 408.348L446.889 409.115L448.502 409.396L453.343 409.65L468.673 410.1L478.354 410.048L483.195 410.104L504.979 410.112L521.922 410.111" fill="#EFEFEF" fill-opacity="0.4"/>
<path d="M361.367 410.11L365.401 409.956L367.822 409.567L371.049 408.672L374.276 408.174L375.083 407.741L375.89 407.064L377.503 405.179L379.117 402.929L382.344 397.605L383.151 396.08L383.958 394.18L385.571 388.956L387.992 379.215L389.605 371.65L391.219 361.123L394.446 337.716L396.06 325.817L397.674 311.253L402.514 265.65L404.128 253.071L405.742 240.658L408.969 213.136L409.776 208.209L411.389 200.601L413.003 194.038L413.81 192.476L414.617 192.671L417.844 197.581L418.651 200.345L419.457 204.853L421.071 217.443L424.298 245.22L425.912 264.277L431.559 340.734L433.173 358.256L434.787 372.361L436.4 383.949L438.014 393.194L438.821 396.775L439.628 399.674L440.434 401.959L441.241 403.732L442.048 405.108L443.662 407.052L445.275 408.348L446.889 409.115L448.502 409.396L453.343 409.65L468.673 410.1L478.354 410.048L483.195 410.104L504.979 410.112L521.922 410.111" stroke="#EFEFEF" stroke-linecap="square"/>
</g>
<mask id="mask7_230_14638" style="mask-type:luminance" maskUnits="userSpaceOnUse" x="76" y="55" width="477" height="356">
<path d="M552.957 55.2959H76.7969V410.112H552.957V55.2959Z" fill="white"/>
</mask>
<g mask="url(#mask7_230_14638)">
<path d="M358.562 410.111L364.636 409.952L367.335 409.763L372.733 408.8L376.107 407.793L378.806 406.292L380.155 405.157L381.505 403.312L382.855 400.574L385.554 393.655L386.903 390.071L387.578 387.842L388.253 384.985L389.602 377.109L392.301 358.947L395.001 342.393L396.35 330.659L402.423 268.006L403.773 256.742L405.797 242.799L409.171 222.73L411.87 203.455L412.545 199.949L413.22 197.275L413.894 195.432L414.569 194.313L415.244 193.741L415.919 193.558L416.594 193.711L417.268 194.306L417.943 195.589L418.618 197.868L419.293 201.371L420.642 211.725L422.667 228.892L424.016 239.67L425.366 253.049L428.74 292.114L431.439 323.39L435.487 365.601L436.837 377.986L438.186 388.004L439.536 394.962L440.211 397.283L441.56 400.407L443.585 403.839L444.934 405.704L446.284 407.17L447.633 408.276L448.983 408.938L450.333 409.167L454.381 409.391L457.755 409.834L469.901 410.024L475.974 410.014L482.047 410.112L486.771 409.973L489.47 410.02L492.844 410.111" fill="#EFEFEF" fill-opacity="0.4"/>
<path d="M358.562 410.111L364.636 409.952L367.335 409.763L372.733 408.8L376.107 407.793L378.806 406.292L380.155 405.157L381.505 403.312L382.855 400.574L385.554 393.655L386.903 390.071L387.578 387.842L388.253 384.985L389.602 377.109L392.301 358.947L395.001 342.393L396.35 330.659L402.423 268.006L403.773 256.742L405.797 242.799L409.171 222.73L411.87 203.455L412.545 199.949L413.22 197.275L413.894 195.432L414.569 194.313L415.244 193.741L415.919 193.558L416.594 193.711L417.268 194.306L417.943 195.589L418.618 197.868L419.293 201.371L420.642 211.725L422.667 228.892L424.016 239.67L425.366 253.049L428.74 292.114L431.439 323.39L435.487 365.601L436.837 377.986L438.186 388.004L439.536 394.962L440.211 397.283L441.56 400.407L443.585 403.839L444.934 405.704L446.284 407.17L447.633 408.276L448.983 408.938L450.333 409.167L454.381 409.391L457.755 409.834L469.901 410.024L475.974 410.014L482.047 410.112L486.771 409.973L489.47 410.02L492.844 410.111" stroke="#EFEFEF" stroke-linecap="square"/>
</g>
<mask id="mask8_230_14638" style="mask-type:luminance" maskUnits="userSpaceOnUse" x="76" y="55" width="477" height="356">
<path d="M552.957 55.2959H76.7969V410.112H552.957V55.2959Z" fill="white"/>
</mask>
<g mask="url(#mask8_230_14638)">
<path d="M368.727 410.111L374.234 409.953L383.183 409.276L385.248 408.576L388.69 407.271L390.067 406.329L391.444 405.01L392.821 403.216L395.575 398.938L396.951 396.197L398.328 392.459L399.705 387.6L401.082 381.081L402.459 371.906L403.836 359.031L405.212 341.452L407.278 307.912L409.343 273.297L411.408 245.111L413.473 220.676L414.85 208.144L416.227 198.14L416.915 194.285L417.604 191.38L418.292 189.452L418.981 188.462L419.669 188.339L420.357 189.025L421.046 190.533L422.423 195.629L423.111 198.323L423.799 200.374L425.176 202.716L425.865 203.984L426.553 205.884L427.93 211.59L429.307 219.261L429.995 224.291L431.372 237.397L433.437 257.851L434.814 270.791L441.698 342.617L443.763 359.525L445.829 373.686L447.894 385.17L449.959 394.475L451.336 399.269L452.713 402.962L454.09 405.717L454.778 406.687L456.155 407.918L457.532 408.606L458.908 408.979L460.974 409.215L464.416 409.539L466.481 409.756L480.938 409.94L505.72 410.111" fill="#EFEFEF" fill-opacity="0.4"/>
<path d="M368.727 410.111L374.234 409.953L383.183 409.276L385.248 408.576L388.69 407.271L390.067 406.329L391.444 405.01L392.821 403.216L395.575 398.938L396.951 396.197L398.328 392.459L399.705 387.6L401.082 381.081L402.459 371.906L403.836 359.031L405.212 341.452L407.278 307.912L409.343 273.297L411.408 245.111L413.473 220.676L414.85 208.144L416.227 198.14L416.915 194.285L417.604 191.38L418.292 189.452L418.981 188.462L419.669 188.339L420.357 189.025L421.046 190.533L422.423 195.629L423.111 198.323L423.799 200.374L425.176 202.716L425.865 203.984L426.553 205.884L427.93 211.59L429.307 219.261L429.995 224.291L431.372 237.397L433.437 257.851L434.814 270.791L441.698 342.617L443.763 359.525L445.829 373.686L447.894 385.17L449.959 394.475L451.336 399.269L452.713 402.962L454.09 405.717L454.778 406.687L456.155 407.918L457.532 408.606L458.908 408.979L460.974 409.215L464.416 409.539L466.481 409.756L480.938 409.94L505.72 410.111" stroke="#EFEFEF" stroke-linecap="square"/>
</g>
<mask id="mask9_230_14638" style="mask-type:luminance" maskUnits="userSpaceOnUse" x="76" y="55" width="477" height="356">
<path d="M552.957 55.2959H76.7969V410.112H552.957V55.2959Z" fill="white"/>
</mask>
<g mask="url(#mask9_230_14638)">
<path d="M342.773 410.111L349.572 409.965L355.615 409.483L359.392 408.649L361.658 408.364L363.169 407.792L366.19 406.044L367.701 404.981L369.212 403.177L371.478 400.377L372.234 398.969L372.989 397.006L373.744 394.398L374.5 391.039L376.01 382.341L377.521 372.651L378.277 366.971L379.032 359.77L379.787 350.59L381.298 326.902L382.809 297.77L384.32 263.949L387.341 186.588L388.852 148.776L389.607 132.708L390.363 120.014L391.118 111.293L391.874 105.815L393.384 98.4151L394.14 95.9688L394.895 96.1074L395.651 99.499L396.406 105.325L397.161 113.069L397.917 123.585L399.427 153.646L403.96 254.297L406.981 302.644L408.492 324.809L411.514 361.829L412.269 369.23L413.024 375.029L414.535 383.332L416.046 388.916L417.557 393.475L419.068 396.853L419.823 397.895L420.578 398.516L422.844 399.48L423.6 400.155L425.111 402.424L426.621 404.546L428.132 405.803L429.643 406.814L430.398 407.168L431.909 407.406L432.665 407.482L433.42 407.729L434.931 408.553L435.686 408.787L438.708 408.954L440.974 409.639L442.485 409.863L449.283 409.864L452.305 409.851L456.837 409.723L458.348 409.461L459.858 409.683L461.369 410.008L463.635 410.11L474.211 409.988L477.232 409.976L487.808 409.963L490.074 409.97L493.096 410.11" fill="#EFEFEF" fill-opacity="0.4"/>
<path d="M342.773 410.111L349.572 409.965L355.615 409.483L359.392 408.649L361.658 408.364L363.169 407.792L366.19 406.044L367.701 404.981L369.212 403.177L371.478 400.377L372.234 398.969L372.989 397.006L373.744 394.398L374.5 391.039L376.01 382.341L377.521 372.651L378.277 366.971L379.032 359.77L379.787 350.59L381.298 326.902L382.809 297.77L384.32 263.949L387.341 186.588L388.852 148.776L389.607 132.708L390.363 120.014L391.118 111.293L391.874 105.815L393.384 98.4151L394.14 95.9688L394.895 96.1074L395.651 99.499L396.406 105.325L397.161 113.069L397.917 123.585L399.427 153.646L403.96 254.297L406.981 302.644L408.492 324.809L411.514 361.829L412.269 369.23L413.024 375.029L414.535 383.332L416.046 388.916L417.557 393.475L419.068 396.853L419.823 397.895L420.578 398.516L422.844 399.48L423.6 400.155L425.111 402.424L426.621 404.546L428.132 405.803L429.643 406.814L430.398 407.168L431.909 407.406L432.665 407.482L433.42 407.729L434.931 408.553L435.686 408.787L438.708 408.954L440.974 409.639L442.485 409.863L449.283 409.864L452.305 409.851L456.837 409.723L458.348 409.461L459.858 409.683L461.369 410.008L463.635 410.11L474.211 409.988L477.232 409.976L487.808 409.963L490.074 409.97L493.096 410.11" stroke="#EFEFEF" stroke-linecap="square"/>
</g>
<mask id="mask10_230_14638" style="mask-type:luminance" maskUnits="userSpaceOnUse" x="76" y="55" width="477" height="356">
<path d="M552.957 55.2959H76.7969V410.112H552.957V55.2959Z" fill="white"/>
</mask>
<g mask="url(#mask10_230_14638)">
<path d="M367.758 410.111L375.844 409.955L383.309 409.502L385.175 409.196L386.419 408.802L387.663 408.191L388.907 407.3L390.151 405.813L391.396 403.447L392.64 399.908L393.884 394.643L395.128 387.626L396.994 375.084L398.238 364.337L399.482 350.323L401.97 319.261L403.214 307.875L405.703 288.944L408.191 265.211L410.679 240.134L411.923 227.682L413.167 217.611L415.033 203.149L416.277 190.021L417.521 176.634L418.143 171.826L418.765 168.848L419.387 167.498L420.01 167.364L420.632 168.191L421.254 169.976L421.876 172.781L423.12 181.076L424.364 192.168L426.852 219.661L429.34 248.29L431.828 279.024L434.317 307.759L436.183 330.63L437.427 343.329L438.671 353.918L439.915 362.71L441.781 373.538L443.025 379.566L444.269 384.312L446.135 389.868L448.002 394.402L451.112 400.986L452.356 402.967L453.6 404.369L456.088 406.685L457.332 407.472L459.198 408.16L462.309 408.955L465.419 409.601L476.616 410.112L485.324 409.976L487.812 410.004L491.545 410.111" fill="#EFEFEF" fill-opacity="0.4"/>
<path d="M367.758 410.111L375.844 409.955L383.309 409.502L385.175 409.196L386.419 408.802L387.663 408.191L388.907 407.3L390.151 405.813L391.396 403.447L392.64 399.908L393.884 394.643L395.128 387.626L396.994 375.084L398.238 364.337L399.482 350.323L401.97 319.261L403.214 307.875L405.703 288.944L408.191 265.211L410.679 240.134L411.923 227.682L413.167 217.611L415.033 203.149L416.277 190.021L417.521 176.634L418.143 171.826L418.765 168.848L419.387 167.498L420.01 167.364L420.632 168.191L421.254 169.976L421.876 172.781L423.12 181.076L424.364 192.168L426.852 219.661L429.34 248.29L431.828 279.024L434.317 307.759L436.183 330.63L437.427 343.329L438.671 353.918L439.915 362.71L441.781 373.538L443.025 379.566L444.269 384.312L446.135 389.868L448.002 394.402L451.112 400.986L452.356 402.967L453.6 404.369L456.088 406.685L457.332 407.472L459.198 408.16L462.309 408.955L465.419 409.601L476.616 410.112L485.324 409.976L487.812 410.004L491.545 410.111" stroke="#EFEFEF" stroke-linecap="square"/>
</g>
<mask id="mask11_230_14638" style="mask-type:luminance" maskUnits="userSpaceOnUse" x="76" y="55" width="477" height="356">
<path d="M552.957 55.2959H76.7969V410.112H552.957V55.2959Z" fill="white"/>
</mask>
<g mask="url(#mask11_230_14638)">
<path d="M358.008 410.111L372.661 409.96L381.616 409.07L382.43 408.742L383.244 408.176L384.058 407.284L384.872 406.044L386.501 402.835L387.315 400.92L388.129 398.566L388.943 395.515L390.571 387.157L392.199 376.297L393.013 369.243L393.827 360.31L395.456 337.729L397.898 300.994L401.968 234.601L403.596 211.722L404.41 202.032L405.224 194.188L406.853 183.248L408.481 174.977L409.295 173.11L410.109 173.446L410.923 175.2L412.551 179.354L414.179 182.298L414.993 184.476L415.808 188.24L417.436 199.579L419.064 214.511L423.134 259.925L427.205 297.045L428.833 316.949L430.461 337.618L432.089 354.248L433.717 367.259L435.345 378.488L436.974 387.152L438.602 393.261L440.23 397.869L441.858 400.981L444.3 404.607L445.929 406.482L447.557 407.789L449.185 408.51L450.813 408.678L454.069 408.761L456.512 409.086L458.954 409.114L462.21 409.477L463.838 409.412L468.723 409.737L471.979 409.818L476.049 409.796L493.959 409.956L496.401 409.856L505.356 410.102L515.939 410.03L520.01 410.111" fill="#EFEFEF" fill-opacity="0.4"/>
<path d="M358.008 410.111L372.661 409.96L381.616 409.07L382.43 408.742L383.244 408.176L384.058 407.284L384.872 406.044L386.501 402.835L387.315 400.92L388.129 398.566L388.943 395.515L390.571 387.157L392.199 376.297L393.013 369.243L393.827 360.31L395.456 337.729L397.898 300.994L401.968 234.601L403.596 211.722L404.41 202.032L405.224 194.188L406.853 183.248L408.481 174.977L409.295 173.11L410.109 173.446L410.923 175.2L412.551 179.354L414.179 182.298L414.993 184.476L415.808 188.24L417.436 199.579L419.064 214.511L423.134 259.925L427.205 297.045L428.833 316.949L430.461 337.618L432.089 354.248L433.717 367.259L435.345 378.488L436.974 387.152L438.602 393.261L440.23 397.869L441.858 400.981L444.3 404.607L445.929 406.482L447.557 407.789L449.185 408.51L450.813 408.678L454.069 408.761L456.512 409.086L458.954 409.114L462.21 409.477L463.838 409.412L468.723 409.737L471.979 409.818L476.049 409.796L493.959 409.956L496.401 409.856L505.356 410.102L515.939 410.03L520.01 410.111" stroke="#EFEFEF" stroke-linecap="square"/>
</g>
<mask id="mask12_230_14638" style="mask-type:luminance" maskUnits="userSpaceOnUse" x="76" y="55" width="477" height="356">
<path d="M552.957 55.2959H76.7969V410.112H552.957V55.2959Z" fill="white"/>
</mask>
<g mask="url(#mask12_230_14638)">
<path d="M366.742 410.111L375.171 409.972L376.704 409.749L378.237 409.261L379.769 408.647L382.834 408.003L384.367 406.953L386.666 404.961L387.432 404.037L388.199 402.836L388.965 401.295L390.497 397.125L392.03 391.648L393.563 384.919L395.095 376.456L396.628 366.067L398.16 353.124L400.459 328.772L402.758 300.619L406.59 247.047L408.889 215.734L410.421 199.442L411.954 186.51L413.486 175.504L414.253 171.235L415.019 168.001L415.785 165.73L416.552 164.56L417.318 165.134L418.084 168.38L418.85 174.728L421.916 208.88L424.215 229.458L428.046 272.873L434.943 347.748L436.475 360.207L438.008 370.556L439.541 379.227L440.307 382.64L441.073 385.333L442.606 389.286L447.204 399.506L448.736 402.191L450.269 404.354L451.801 406.009L453.334 407.348L454.866 408.233L456.399 408.527L460.231 409.051L464.062 409.51L470.192 409.837L472.491 409.796L474.79 409.785L478.622 410.033L482.453 409.915L486.285 410.097L493.181 410.078L497.013 410.039L501.611 410.106L519.236 410.111" fill="#EFEFEF" fill-opacity="0.4"/>
<path d="M366.742 410.111L375.171 409.972L376.704 409.749L378.237 409.261L379.769 408.647L382.834 408.003L384.367 406.953L386.666 404.961L387.432 404.037L388.199 402.836L388.965 401.295L390.497 397.125L392.03 391.648L393.563 384.919L395.095 376.456L396.628 366.067L398.16 353.124L400.459 328.772L402.758 300.619L406.59 247.047L408.889 215.734L410.421 199.442L411.954 186.51L413.486 175.504L414.253 171.235L415.019 168.001L415.785 165.73L416.552 164.56L417.318 165.134L418.084 168.38L418.85 174.728L421.916 208.88L424.215 229.458L428.046 272.873L434.943 347.748L436.475 360.207L438.008 370.556L439.541 379.227L440.307 382.64L441.073 385.333L442.606 389.286L447.204 399.506L448.736 402.191L450.269 404.354L451.801 406.009L453.334 407.348L454.866 408.233L456.399 408.527L460.231 409.051L464.062 409.51L470.192 409.837L472.491 409.796L474.79 409.785L478.622 410.033L482.453 409.915L486.285 410.097L493.181 410.078L497.013 410.039L501.611 410.106L519.236 410.111" stroke="#EFEFEF" stroke-linecap="square"/>
</g>
<mask id="mask13_230_14638" style="mask-type:luminance" maskUnits="userSpaceOnUse" x="76" y="55" width="477" height="356">
<path d="M552.957 55.2959H76.7969V410.112H552.957V55.2959Z" fill="white"/>
</mask>
<g mask="url(#mask13_230_14638)">
<path d="M326.812 410.111L336.734 409.97L342.687 409.657L345.663 409.425L347.648 409.046L351.616 407.901L353.601 407.591L354.593 407.26L356.577 406.043L359.554 403.607L361.538 401.509L363.522 398.849L366.499 394.031L369.475 389.196L370.467 387.177L371.459 384.548L372.452 381.224L374.436 372.762L376.42 362.228L379.397 343.669L381.381 329.084L384.357 303.079L388.326 264.966L389.318 257.815L392.295 240.76L394.279 230.522L395.271 226.75L396.263 223.86L397.255 221.495L398.248 219.652L399.24 218.784L400.232 219.273L401.224 220.946L402.216 223.307L403.208 226.12L404.201 229.551L405.193 233.805L406.185 238.882L407.177 244.75L408.169 251.544L410.153 268.272L413.13 295.754L415.114 311.991L417.098 326.527L420.075 345.214L424.044 370.035L426.028 378.825L428.012 385.763L429.996 391.495L431.981 396.472L433.965 400.856L435.949 404.283L437.934 406.688L438.926 407.524L439.918 408.115L441.902 408.761L447.855 409.862L449.84 410L454.8 409.772L459.761 409.694L463.73 410.061L472.659 410.001L475.636 409.936L481.588 410.044L524.251 410.111" fill="#EFEFEF" fill-opacity="0.4"/>
<path d="M326.812 410.111L336.734 409.97L342.687 409.657L345.663 409.425L347.648 409.046L351.616 407.901L353.601 407.591L354.593 407.26L356.577 406.043L359.554 403.607L361.538 401.509L363.522 398.849L366.499 394.031L369.475 389.196L370.467 387.177L371.459 384.548L372.452 381.224L374.436 372.762L376.42 362.228L379.397 343.669L381.381 329.084L384.357 303.079L388.326 264.966L389.318 257.815L392.295 240.76L394.279 230.522L395.271 226.75L396.263 223.86L397.255 221.495L398.248 219.652L399.24 218.784L400.232 219.273L401.224 220.946L402.216 223.307L403.208 226.12L404.201 229.551L405.193 233.805L406.185 238.882L407.177 244.75L408.169 251.544L410.153 268.272L413.13 295.754L415.114 311.991L417.098 326.527L420.075 345.214L424.044 370.035L426.028 378.825L428.012 385.763L429.996 391.495L431.981 396.472L433.965 400.856L435.949 404.283L437.934 406.688L438.926 407.524L439.918 408.115L441.902 408.761L447.855 409.862L449.84 410L454.8 409.772L459.761 409.694L463.73 410.061L472.659 410.001L475.636 409.936L481.588 410.044L524.251 410.111" stroke="#EFEFEF" stroke-linecap="square"/>
</g>
<mask id="mask14_230_14638" style="mask-type:luminance" maskUnits="userSpaceOnUse" x="76" y="55" width="477" height="356">
<path d="M552.957 55.2959H76.7969V410.112H552.957V55.2959Z" fill="white"/>
</mask>
<g mask="url(#mask14_230_14638)">
<path d="M98.4375 410.111L131.215 410.112L334.023 409.996L340.169 409.864L344.266 409.949L348.363 409.715L352.46 409.599L354.509 409.234L358.606 408.222L360.655 407.882L366.8 407.491L368.849 406.682L370.898 405.665L372.946 404.196L374.995 401.626L379.092 394.646L385.238 383.015L387.286 376.579L393.432 349.967L395.48 337.186L399.578 309.821L405.723 261.752L409.82 226.668L411.869 215.545L413.917 210.384L415.966 208.337L418.015 210.831L420.063 217.47L422.112 230.775L432.355 332.306L434.403 350.323L436.452 365.802L438.5 377.742L440.549 386.569L442.598 393.711L444.646 398.906L446.695 402.715L448.743 405.495L450.792 407.137L452.84 407.911L456.938 409.031L458.986 409.566L461.035 409.876L465.132 410.052L475.375 410.063L481.52 410.073L487.666 410.103L506.103 410.111" fill="#7EB0D5" fill-opacity="0.4"/>
<path d="M98.4375 410.111L131.215 410.112L334.023 409.996L340.169 409.864L344.266 409.949L348.363 409.715L352.46 409.599L354.509 409.234L358.606 408.222L360.655 407.882L366.8 407.491L368.849 406.682L370.898 405.665L372.946 404.196L374.995 401.626L379.092 394.646L385.238 383.015L387.286 376.579L393.432 349.967L395.48 337.186L399.578 309.821L405.723 261.752L409.82 226.668L411.869 215.545L413.917 210.384L415.966 208.337L418.015 210.831L420.063 217.47L422.112 230.775L432.355 332.306L434.403 350.323L436.452 365.802L438.5 377.742L440.549 386.569L442.598 393.711L444.646 398.906L446.695 402.715L448.743 405.495L450.792 407.137L452.84 407.911L456.938 409.031L458.986 409.566L461.035 409.876L465.132 410.052L475.375 410.063L481.52 410.073L487.666 410.103L506.103 410.111" stroke="#7EB0D5" stroke-linecap="square"/>
</g>
<path d="M535.061 411.061C535.646 410.475 535.646 409.525 535.061 408.939L525.515 399.393C524.929 398.808 523.979 398.808 523.393 399.393C522.808 399.979 522.808 400.929 523.393 401.515L531.879 410L523.393 418.485C522.808 419.071 522.808 420.021 523.393 420.607C523.979 421.192 524.929 421.192 525.515 420.607L535.061 411.061ZM79 411.5H534V408.5H79V411.5Z" fill="black"/>
</g>
<defs>
<clipPath id="clip0_230_14638">
<rect width="614.4" height="460.8" fill="white"/>
</clipPath>
</defs>
</svg>
