<svg width="615" height="461" viewBox="0 0 615 461" fill="none" xmlns="http://www.w3.org/2000/svg">
<g clip-path="url(#clip0_230_15118)">
<mask id="mask0_230_15118" style="mask-type:luminance" maskUnits="userSpaceOnUse" x="76" y="55" width="477" height="356">
<path d="M552.957 55.2959H76.7969V410.112H552.957V55.2959Z" fill="white"/>
</mask>
<g mask="url(#mask0_230_15118)">
<path d="M345.875 410.11L352.738 409.949L362.176 409.925L364.749 409.98L367.323 409.746L371.613 409.132L373.329 409.057L375.045 408.618L381.908 405.939L383.624 404.813L385.34 403.161L387.056 401.008L389.629 397.151L391.345 394.255L394.777 387.582L395.635 385.552L396.493 382.971L397.351 379.634L399.067 370.688L401.641 354.158L405.93 323.875L407.646 310.849L411.078 283.312L412.794 270.963L414.509 256.391L416.225 240.575L417.083 233.855L417.941 228.846L418.799 225.682L419.657 224.011L420.515 223.247L422.231 222.533L423.089 222.463L423.947 223.155L424.805 225.201L425.663 228.915L426.52 234.173L428.236 247.55L437.674 328.131L440.247 350.152L441.963 362.336L443.679 371.483L446.253 382.807L447.969 389.417L449.685 394.584L451.4 398.296L452.258 399.602L453.974 401.439L458.264 405.291L459.98 406.08L461.696 406.852L464.269 408.347L465.985 408.872L471.133 409.584L474.565 409.7L478.854 409.651L484.002 409.864L508.882 410.029L512.314 410.015L516.603 410.11" fill="#EFEFEF" fill-opacity="0.4"/>
<path d="M345.875 410.11L352.738 409.949L362.176 409.925L364.749 409.98L367.323 409.746L371.613 409.132L373.329 409.057L375.045 408.618L381.908 405.939L383.624 404.813L385.34 403.161L387.056 401.008L389.629 397.151L391.345 394.255L394.777 387.582L395.635 385.552L396.493 382.971L397.351 379.634L399.067 370.688L401.641 354.158L405.93 323.875L407.646 310.849L411.078 283.312L412.794 270.963L414.509 256.391L416.225 240.575L417.083 233.855L417.941 228.846L418.799 225.682L419.657 224.011L420.515 223.247L422.231 222.533L423.089 222.463L423.947 223.155L424.805 225.201L425.663 228.915L426.52 234.173L428.236 247.55L437.674 328.131L440.247 350.152L441.963 362.336L443.679 371.483L446.253 382.807L447.969 389.417L449.685 394.584L451.4 398.296L452.258 399.602L453.974 401.439L458.264 405.291L459.98 406.08L461.696 406.852L464.269 408.347L465.985 408.872L471.133 409.584L474.565 409.7L478.854 409.651L484.002 409.864L508.882 410.029L512.314 410.015L516.603 410.11" stroke="#EFEFEF" stroke-linecap="square"/>
</g>
<mask id="mask1_230_15118" style="mask-type:luminance" maskUnits="userSpaceOnUse" x="76" y="55" width="477" height="356">
<path d="M552.957 55.2959H76.7969V410.112H552.957V55.2959Z" fill="white"/>
</mask>
<g mask="url(#mask1_230_15118)">
<path d="M331.711 410.112L345.754 409.964L348.763 409.665L352.775 409.553L355.784 409.253L356.787 408.952L357.79 408.396L359.796 406.665L360.799 405.619L361.802 404.316L362.805 402.466L363.808 399.894L364.811 396.677L365.814 392.832L366.817 388.084L367.82 382.136L368.824 374.677L369.827 364.867L370.83 351.399L371.833 333.435L373.839 286.991L375.845 230.52L379.857 99.9231L380.86 81.462L381.863 72.1924L382.866 73.1779L383.869 86.2128L384.872 109.924L388.884 223.832L390.891 271.685L391.894 290.106L393.9 318.509L395.906 340.095L397.912 356.904L398.915 363.308L400.921 373.238L401.924 376.943L404.933 385.538L405.936 388.178L407.942 392.132L409.948 395.557L410.951 396.919L411.954 397.886L414.964 400.077L415.967 401.04L416.97 401.716L419.979 402.355L420.982 402.924L423.991 405.006L425.997 405.347L432.015 406.515L436.027 407.846L438.034 407.962L439.037 407.94L440.04 408.137L442.046 408.948L443.049 409.105L447.061 409.125L451.073 409.343L454.082 409.368L459.097 409.69L463.11 409.741L467.122 410.063L474.143 409.788L476.149 409.811L479.158 410.008L483.17 409.97L486.18 409.791L494.204 410.109L525.298 410.06L529.31 410.095L531.317 410.112" fill="#EFEFEF" fill-opacity="0.4"/>
<path d="M331.711 410.112L345.754 409.964L348.763 409.665L352.775 409.553L355.784 409.253L356.787 408.952L357.79 408.396L359.796 406.665L360.799 405.619L361.802 404.316L362.805 402.466L363.808 399.894L364.811 396.677L365.814 392.832L366.817 388.084L367.82 382.136L368.824 374.677L369.827 364.867L370.83 351.399L371.833 333.435L373.839 286.991L375.845 230.52L379.857 99.9231L380.86 81.462L381.863 72.1924L382.866 73.1779L383.869 86.2128L384.872 109.924L388.884 223.832L390.891 271.685L391.894 290.106L393.9 318.509L395.906 340.095L397.912 356.904L398.915 363.308L400.921 373.238L401.924 376.943L404.933 385.538L405.936 388.178L407.942 392.132L409.948 395.557L410.951 396.919L411.954 397.886L414.964 400.077L415.967 401.04L416.97 401.716L419.979 402.355L420.982 402.924L423.991 405.006L425.997 405.347L432.015 406.515L436.027 407.846L438.034 407.962L439.037 407.94L440.04 408.137L442.046 408.948L443.049 409.105L447.061 409.125L451.073 409.343L454.082 409.368L459.097 409.69L463.11 409.741L467.122 410.063L474.143 409.788L476.149 409.811L479.158 410.008L483.17 409.97L486.18 409.791L494.204 410.109L525.298 410.06L529.31 410.095L531.317 410.112" stroke="#EFEFEF" stroke-linecap="square"/>
</g>
<mask id="mask2_230_15118" style="mask-type:luminance" maskUnits="userSpaceOnUse" x="76" y="55" width="477" height="356">
<path d="M552.957 55.2959H76.7969V410.112H552.957V55.2959Z" fill="white"/>
</mask>
<g mask="url(#mask2_230_15118)">
<path d="M287.914 410.111L312.843 409.981L324.714 409.22L327.088 408.883L329.462 408.047L336.584 404.613L340.146 402.121L341.333 400.982L342.52 399.489L343.707 397.589L344.894 395.267L346.081 392.48L347.268 389.129L348.455 385.121L349.642 380.405L350.83 374.928L352.017 368.581L354.391 353.071L356.765 334.501L362.7 284.262L363.887 276.83L365.075 270.747L366.262 265.76L367.449 261.574L368.636 257.971L369.823 254.919L371.01 252.599L372.197 251.318L373.384 251.426L374.571 253.23L375.758 256.853L376.945 262.078L379.32 275.427L385.255 311.913L387.629 324.373L392.377 346.323L394.752 355.422L397.126 363.247L399.5 369.924L401.874 375.163L405.435 382.215L407.81 386.057L410.184 389.151L412.558 391.418L416.119 394.333L420.867 398.808L423.242 400.337L432.738 404.938L435.112 405.864L442.235 408.029L445.796 408.508L449.357 408.755L454.106 409.02L460.041 409.731L463.602 409.765L467.164 409.701L479.035 410.033L488.531 409.994L493.28 410.093L515.834 410.065L524.144 410.111" fill="#EFEFEF" fill-opacity="0.4"/>
<path d="M287.914 410.111L312.843 409.981L324.714 409.22L327.088 408.883L329.462 408.047L336.584 404.613L340.146 402.121L341.333 400.982L342.52 399.489L343.707 397.589L344.894 395.267L346.081 392.48L347.268 389.129L348.455 385.121L349.642 380.405L350.83 374.928L352.017 368.581L354.391 353.071L356.765 334.501L362.7 284.262L363.887 276.83L365.075 270.747L366.262 265.76L367.449 261.574L368.636 257.971L369.823 254.919L371.01 252.599L372.197 251.318L373.384 251.426L374.571 253.23L375.758 256.853L376.945 262.078L379.32 275.427L385.255 311.913L387.629 324.373L392.377 346.323L394.752 355.422L397.126 363.247L399.5 369.924L401.874 375.163L405.435 382.215L407.81 386.057L410.184 389.151L412.558 391.418L416.119 394.333L420.867 398.808L423.242 400.337L432.738 404.938L435.112 405.864L442.235 408.029L445.796 408.508L449.357 408.755L454.106 409.02L460.041 409.731L463.602 409.765L467.164 409.701L479.035 410.033L488.531 409.994L493.28 410.093L515.834 410.065L524.144 410.111" stroke="#EFEFEF" stroke-linecap="square"/>
</g>
<mask id="mask3_230_15118" style="mask-type:luminance" maskUnits="userSpaceOnUse" x="76" y="55" width="477" height="356">
<path d="M552.957 55.2959H76.7969V410.112H552.957V55.2959Z" fill="white"/>
</mask>
<g mask="url(#mask3_230_15118)">
<path d="M327.727 410.11L351.564 409.948L360.503 409.579L363.483 409.098L365.469 408.502L367.456 407.647L370.435 405.993L373.415 404.077L375.402 402.49L379.374 398.79L380.368 397.593L382.354 394.465L386.327 387.067L388.313 382.662L390.3 376.852L392.286 369.9L395.266 358.369L399.239 341.485L402.219 328.754L404.205 321.171L411.158 297.771L413.144 292.031L414.137 289.814L415.131 288.015L416.124 286.6L417.117 285.572L418.11 284.987L419.104 284.922L420.097 285.427L421.09 286.473L423.077 289.626L428.043 298.391L430.029 303.129L432.016 309.117L434.002 316.263L440.955 343.38L442.941 349.851L448.9 367.611L451.88 376.93L453.867 381.87L455.853 385.75L462.806 397.314L464.792 400.364L466.779 402.851L468.765 404.581L470.751 405.658L473.731 406.735L480.684 408.983L483.663 409.396L490.616 409.912L498.562 410.108L525.379 410.11" fill="#EFEFEF" fill-opacity="0.4"/>
<path d="M327.727 410.11L351.564 409.948L360.503 409.579L363.483 409.098L365.469 408.502L367.456 407.647L370.435 405.993L373.415 404.077L375.402 402.49L379.374 398.79L380.368 397.593L382.354 394.465L386.327 387.067L388.313 382.662L390.3 376.852L392.286 369.9L395.266 358.369L399.239 341.485L402.219 328.754L404.205 321.171L411.158 297.771L413.144 292.031L414.137 289.814L415.131 288.015L416.124 286.6L417.117 285.572L418.11 284.987L419.104 284.922L420.097 285.427L421.09 286.473L423.077 289.626L428.043 298.391L430.029 303.129L432.016 309.117L434.002 316.263L440.955 343.38L442.941 349.851L448.9 367.611L451.88 376.93L453.867 381.87L455.853 385.75L462.806 397.314L464.792 400.364L466.779 402.851L468.765 404.581L470.751 405.658L473.731 406.735L480.684 408.983L483.663 409.396L490.616 409.912L498.562 410.108L525.379 410.11" stroke="#EFEFEF" stroke-linecap="square"/>
</g>
<mask id="mask4_230_15118" style="mask-type:luminance" maskUnits="userSpaceOnUse" x="76" y="55" width="477" height="356">
<path d="M552.957 55.2959H76.7969V410.112H552.957V55.2959Z" fill="white"/>
</mask>
<g mask="url(#mask4_230_15118)">
<path d="M318.359 410.111L331.2 409.964L340.089 409.707L347.991 409.281L351.942 408.627L353.917 408.136L355.893 407.391L357.868 406.283L360.831 404.103L364.782 400.884L366.758 398.975L368.733 396.68L370.709 393.961L372.684 390.705L374.659 386.687L376.635 381.872L380.586 371.907L383.549 364.867L385.524 359.329L388.487 349.419L391.451 339.739L394.414 331.471L398.365 321.118L400.34 316.594L403.303 310.755L405.279 307.259L407.254 304.406L408.242 303.374L409.23 302.616L410.217 302.088L411.205 301.743L412.193 301.562L413.18 301.575L414.168 301.838L415.156 302.409L416.144 303.311L418.119 305.957L425.033 316.95L427.009 321.083L428.984 326.223L430.959 332.208L436.886 351.289L438.861 356.765L441.824 363.993L446.763 375.222L452.689 387.563L454.665 391.309L456.64 394.546L458.616 397.207L460.591 399.378L462.566 401.209L464.542 402.745L466.517 403.917L473.431 407.042L475.407 407.754L478.37 408.432L482.321 409.002L492.198 409.879L498.124 409.985L513.928 410.111L514.916 410.111" fill="#EFEFEF" fill-opacity="0.4"/>
<path d="M318.359 410.111L331.2 409.964L340.089 409.707L347.991 409.281L351.942 408.627L353.917 408.136L355.893 407.391L357.868 406.283L360.831 404.103L364.782 400.884L366.758 398.975L368.733 396.68L370.709 393.961L372.684 390.705L374.659 386.687L376.635 381.872L380.586 371.907L383.549 364.867L385.524 359.329L388.487 349.419L391.451 339.739L394.414 331.471L398.365 321.118L400.34 316.594L403.303 310.755L405.279 307.259L407.254 304.406L408.242 303.374L409.23 302.616L410.217 302.088L411.205 301.743L412.193 301.562L413.18 301.575L414.168 301.838L415.156 302.409L416.144 303.311L418.119 305.957L425.033 316.95L427.009 321.083L428.984 326.223L430.959 332.208L436.886 351.289L438.861 356.765L441.824 363.993L446.763 375.222L452.689 387.563L454.665 391.309L456.64 394.546L458.616 397.207L460.591 399.378L462.566 401.209L464.542 402.745L466.517 403.917L473.431 407.042L475.407 407.754L478.37 408.432L482.321 409.002L492.198 409.879L498.124 409.985L513.928 410.111L514.916 410.111" stroke="#EFEFEF" stroke-linecap="square"/>
</g>
<mask id="mask5_230_15118" style="mask-type:luminance" maskUnits="userSpaceOnUse" x="76" y="55" width="477" height="356">
<path d="M552.957 55.2959H76.7969V410.112H552.957V55.2959Z" fill="white"/>
</mask>
<g mask="url(#mask5_230_15118)">
<path d="M337.172 410.112L354.405 409.956L359.191 409.91L363.021 410.022L365.893 409.834L373.552 408.743L375.467 408.314L379.296 407.238L381.211 406.767L383.126 405.891L386.955 403.299L389.827 401.168L392.7 398.847L394.614 396.71L396.529 393.83L399.401 388.781L401.316 384.455L403.231 378.771L405.145 371.917L407.06 363.937L408.975 354.664L420.463 295.456L422.378 287.591L424.293 281.302L425.25 278.765L426.208 276.666L427.165 275.015L428.122 273.773L429.08 272.867L430.037 272.229L431.952 271.541L433.867 271.381L434.824 271.578L435.781 272.133L436.739 273.194L437.696 274.849L438.654 277.103L440.568 283.098L442.483 290.381L444.398 298.919L446.313 309.313L453.014 348.608L454.929 358.958L456.844 367.781L458.758 374.884L464.503 393.863L465.46 396.002L466.417 397.625L468.332 400.092L471.204 403.303L473.119 404.78L476.948 406.964L478.863 407.625L483.65 408.561L486.522 409.301L489.394 409.639L497.053 410.028L501.84 410.04L511.414 409.99L527.689 410.111" fill="#EFEFEF" fill-opacity="0.4"/>
<path d="M337.172 410.112L354.405 409.956L359.191 409.91L363.021 410.022L365.893 409.834L373.552 408.743L375.467 408.314L379.296 407.238L381.211 406.767L383.126 405.891L386.955 403.299L389.827 401.168L392.7 398.847L394.614 396.71L396.529 393.83L399.401 388.781L401.316 384.455L403.231 378.771L405.145 371.917L407.06 363.937L408.975 354.664L420.463 295.456L422.378 287.591L424.293 281.302L425.25 278.765L426.208 276.666L427.165 275.015L428.122 273.773L429.08 272.867L430.037 272.229L431.952 271.541L433.867 271.381L434.824 271.578L435.781 272.133L436.739 273.194L437.696 274.849L438.654 277.103L440.568 283.098L442.483 290.381L444.398 298.919L446.313 309.313L453.014 348.608L454.929 358.958L456.844 367.781L458.758 374.884L464.503 393.863L465.46 396.002L466.417 397.625L468.332 400.092L471.204 403.303L473.119 404.78L476.948 406.964L478.863 407.625L483.65 408.561L486.522 409.301L489.394 409.639L497.053 410.028L501.84 410.04L511.414 409.99L527.689 410.111" stroke="#EFEFEF" stroke-linecap="square"/>
</g>
<mask id="mask6_230_15118" style="mask-type:luminance" maskUnits="userSpaceOnUse" x="76" y="55" width="477" height="356">
<path d="M552.957 55.2959H76.7969V410.112H552.957V55.2959Z" fill="white"/>
</mask>
<g mask="url(#mask6_230_15118)">
<path d="M340.75 410.112L355.423 409.945L358.012 409.751L360.601 409.293L362.328 408.735L364.054 407.696L366.643 405.835L369.232 404.238L370.095 403.472L370.959 402.444L371.822 401.085L373.548 397.39L378.727 384.759L380.453 379.196L382.179 372.248L383.905 363.938L385.631 354.291L387.358 342.746L390.81 318.393L397.715 273.585L400.304 258.821L402.03 250.39L403.756 243.511L404.62 241.067L405.483 239.547L406.346 238.977L407.209 239.236L408.072 240.112L409.798 242.826L411.524 246.26L412.387 248.667L413.251 252.147L414.114 257.125L415.84 271.249L418.429 294.935L421.018 315.538L425.334 347.296L427.06 358.056L428.786 367.02L430.513 374.304L435.691 393.974L436.554 396.381L438.281 399.954L440.007 402.555L441.733 404.378L443.459 405.659L445.185 406.719L446.912 407.479L450.364 408.466L453.816 409.32L455.543 409.392L458.995 409.242L466.763 409.788L471.942 409.839L475.394 410.063L512.507 410.112" fill="#EFEFEF" fill-opacity="0.4"/>
<path d="M340.75 410.112L355.423 409.945L358.012 409.751L360.601 409.293L362.328 408.735L364.054 407.696L366.643 405.835L369.232 404.238L370.095 403.472L370.959 402.444L371.822 401.085L373.548 397.39L378.727 384.759L380.453 379.196L382.179 372.248L383.905 363.938L385.631 354.291L387.358 342.746L390.81 318.393L397.715 273.585L400.304 258.821L402.03 250.39L403.756 243.511L404.62 241.067L405.483 239.547L406.346 238.977L407.209 239.236L408.072 240.112L409.798 242.826L411.524 246.26L412.387 248.667L413.251 252.147L414.114 257.125L415.84 271.249L418.429 294.935L421.018 315.538L425.334 347.296L427.06 358.056L428.786 367.02L430.513 374.304L435.691 393.974L436.554 396.381L438.281 399.954L440.007 402.555L441.733 404.378L443.459 405.659L445.185 406.719L446.912 407.479L450.364 408.466L453.816 409.32L455.543 409.392L458.995 409.242L466.763 409.788L471.942 409.839L475.394 410.063L512.507 410.112" stroke="#EFEFEF" stroke-linecap="square"/>
</g>
<mask id="mask7_230_15118" style="mask-type:luminance" maskUnits="userSpaceOnUse" x="76" y="55" width="477" height="356">
<path d="M552.957 55.2959H76.7969V410.112H552.957V55.2959Z" fill="white"/>
</mask>
<g mask="url(#mask7_230_15118)">
<path d="M345.789 410.112L362.417 409.957L367.669 409.829L372.92 409.668L380.796 409.087L383.422 408.63L386.923 407.879L390.423 407.233L392.174 406.567L393.924 405.622L395.674 404.333L397.425 402.446L399.175 399.929L403.551 392.879L405.301 389.669L407.052 385.828L408.802 381.005L414.053 364.384L417.554 352.186L421.055 339.887L422.805 334.691L425.431 327.808L427.181 322.266L428.931 315.742L431.557 304.398L433.307 296.609L435.058 290.387L435.933 288.17L436.808 286.51L437.683 285.277L440.309 282.56L442.934 279.863L443.809 279.175L444.685 278.746L445.56 278.652L446.435 278.966L447.31 279.755L448.185 281.073L449.06 282.93L450.811 288L452.561 294.293L454.312 301.565L458.687 320.611L460.438 328.376L463.063 341.893L466.564 359.91L469.19 371.98L470.94 378.727L472.69 384.462L475.316 391.731L477.941 398.117L479.692 401.734L480.567 403.182L481.442 404.336L482.317 405.207L484.068 406.333L487.568 407.799L490.194 408.524L493.695 409.082L501.571 409.891L519.95 410.112" fill="#EFEFEF" fill-opacity="0.4"/>
<path d="M345.789 410.112L362.417 409.957L367.669 409.829L372.92 409.668L380.796 409.087L383.422 408.63L386.923 407.879L390.423 407.233L392.174 406.567L393.924 405.622L395.674 404.333L397.425 402.446L399.175 399.929L403.551 392.879L405.301 389.669L407.052 385.828L408.802 381.005L414.053 364.384L417.554 352.186L421.055 339.887L422.805 334.691L425.431 327.808L427.181 322.266L428.931 315.742L431.557 304.398L433.307 296.609L435.058 290.387L435.933 288.17L436.808 286.51L437.683 285.277L440.309 282.56L442.934 279.863L443.809 279.175L444.685 278.746L445.56 278.652L446.435 278.966L447.31 279.755L448.185 281.073L449.06 282.93L450.811 288L452.561 294.293L454.312 301.565L458.687 320.611L460.438 328.376L463.063 341.893L466.564 359.91L469.19 371.98L470.94 378.727L472.69 384.462L475.316 391.731L477.941 398.117L479.692 401.734L480.567 403.182L481.442 404.336L482.317 405.207L484.068 406.333L487.568 407.799L490.194 408.524L493.695 409.082L501.571 409.891L519.95 410.112" stroke="#EFEFEF" stroke-linecap="square"/>
</g>
<mask id="mask8_230_15118" style="mask-type:luminance" maskUnits="userSpaceOnUse" x="76" y="55" width="477" height="356">
<path d="M552.957 55.2959H76.7969V410.112H552.957V55.2959Z" fill="white"/>
</mask>
<g mask="url(#mask8_230_15118)">
<path d="M344.117 410.11L359.596 409.946L369.055 409.43L375.934 408.614L380.234 407.599L385.394 406.328L390.553 404.304L392.273 403.101L393.993 401.131L399.153 393.809L400.872 390.583L402.592 386.314L409.472 367.517L412.051 359.297L413.771 352.162L415.491 343.132L419.791 319.801L423.23 300.698L426.67 281.23L428.39 273.035L429.25 269.758L430.11 267.2L430.97 265.389L431.83 264.249L432.69 263.636L433.55 263.408L434.41 263.49L435.269 263.909L436.129 264.785L436.989 266.25L437.849 268.353L439.569 273.949L443.869 289.406L445.589 297.559L455.048 347.083L456.768 354.353L461.927 373.099L464.507 381.081L467.947 391.167L469.667 395.119L470.526 396.573L471.386 397.686L473.106 399.212L476.546 401.819L482.565 406.626L484.285 407.633L486.005 408.281L488.585 408.822L493.745 409.607L501.484 409.978L515.243 410.11" fill="#EFEFEF" fill-opacity="0.4"/>
<path d="M344.117 410.11L359.596 409.946L369.055 409.43L375.934 408.614L380.234 407.599L385.394 406.328L390.553 404.304L392.273 403.101L393.993 401.131L399.153 393.809L400.872 390.583L402.592 386.314L409.472 367.517L412.051 359.297L413.771 352.162L415.491 343.132L419.791 319.801L423.23 300.698L426.67 281.23L428.39 273.035L429.25 269.758L430.11 267.2L430.97 265.389L431.83 264.249L432.69 263.636L433.55 263.408L434.41 263.49L435.269 263.909L436.129 264.785L436.989 266.25L437.849 268.353L439.569 273.949L443.869 289.406L445.589 297.559L455.048 347.083L456.768 354.353L461.927 373.099L464.507 381.081L467.947 391.167L469.667 395.119L470.526 396.573L471.386 397.686L473.106 399.212L476.546 401.819L482.565 406.626L484.285 407.633L486.005 408.281L488.585 408.822L493.745 409.607L501.484 409.978L515.243 410.11" stroke="#EFEFEF" stroke-linecap="square"/>
</g>
<mask id="mask9_230_15118" style="mask-type:luminance" maskUnits="userSpaceOnUse" x="76" y="55" width="477" height="356">
<path d="M552.957 55.2959H76.7969V410.112H552.957V55.2959Z" fill="white"/>
</mask>
<g mask="url(#mask9_230_15118)">
<path d="M337.828 410.111L342.125 409.96L347.281 409.718L349 409.304L351.578 408.581L353.297 408.595L355.016 408.672L355.875 408.481L356.735 408.066L358.454 406.708L360.172 404.694L361.891 401.745L363.61 397.81L364.469 395.435L365.329 392.606L366.188 389.023L367.047 384.405L367.907 378.635L369.626 363.936L371.344 345.492L372.204 334.162L373.923 305.266L376.501 251.326L379.079 193.754L380.798 162.606L382.517 139.443L383.376 131.923L384.235 128.621L385.095 130.256L385.954 136.914L386.813 148.078L388.532 178.772L392.829 259.84L394.548 287.231L396.267 311.108L397.986 330.215L399.704 344.297L401.423 356.195L403.142 365.705L404.861 372.261L410.877 390.793L412.595 394.81L414.314 397.963L416.033 400.267L416.892 401.092L417.752 401.636L419.47 402.028L421.189 402.393L422.908 403.016L425.486 404.151L427.205 404.748L428.924 405.709L430.643 406.747L432.361 407.423L434.08 407.888L435.799 408.069L438.377 408.025L440.096 408.391L442.674 409.188L443.533 409.196L446.971 408.491L448.69 408.845L450.409 409.329L452.127 409.45L453.846 409.512L456.424 409.838L459.003 409.679L461.581 409.608L470.175 409.784L474.472 409.829L478.769 410.012L483.925 409.965L490.8 409.881L494.238 410.104L508.847 410.111" fill="#EFEFEF" fill-opacity="0.4"/>
<path d="M337.828 410.111L342.125 409.96L347.281 409.718L349 409.304L351.578 408.581L353.297 408.595L355.016 408.672L355.875 408.481L356.735 408.066L358.454 406.708L360.172 404.694L361.891 401.745L363.61 397.81L364.469 395.435L365.329 392.606L366.188 389.023L367.047 384.405L367.907 378.635L369.626 363.936L371.344 345.492L372.204 334.162L373.923 305.266L376.501 251.326L379.079 193.754L380.798 162.606L382.517 139.443L383.376 131.923L384.235 128.621L385.095 130.256L385.954 136.914L386.813 148.078L388.532 178.772L392.829 259.84L394.548 287.231L396.267 311.108L397.986 330.215L399.704 344.297L401.423 356.195L403.142 365.705L404.861 372.261L410.877 390.793L412.595 394.81L414.314 397.963L416.033 400.267L416.892 401.092L417.752 401.636L419.47 402.028L421.189 402.393L422.908 403.016L425.486 404.151L427.205 404.748L428.924 405.709L430.643 406.747L432.361 407.423L434.08 407.888L435.799 408.069L438.377 408.025L440.096 408.391L442.674 409.188L443.533 409.196L446.971 408.491L448.69 408.845L450.409 409.329L452.127 409.45L453.846 409.512L456.424 409.838L459.003 409.679L461.581 409.608L470.175 409.784L474.472 409.829L478.769 410.012L483.925 409.965L490.8 409.881L494.238 410.104L508.847 410.111" stroke="#EFEFEF" stroke-linecap="square"/>
</g>
<mask id="mask10_230_15118" style="mask-type:luminance" maskUnits="userSpaceOnUse" x="76" y="55" width="477" height="356">
<path d="M552.957 55.2959H76.7969V410.112H552.957V55.2959Z" fill="white"/>
</mask>
<g mask="url(#mask10_230_15118)">
<path d="M334.891 410.112L352.124 409.964L358.826 409.659L377.017 408.745L378.931 408.508L381.804 407.763L388.505 405.713L392.335 403.857L396.165 402.706L397.122 402.214L399.037 400.739L401.909 398.109L405.739 395.226L406.696 394.097L408.611 391.154L416.27 377.843L418.185 374.071L420.1 369.236L422.015 362.84L424.887 351.381L427.759 338.439L436.376 296.381L438.291 288.611L440.206 281.833L442.12 275.877L443.078 273.4L444.035 271.405L444.993 269.934L445.95 268.963L446.907 268.442L447.865 268.34L448.822 268.692L449.78 269.597L450.737 271.192L451.694 273.58L452.652 276.773L454.567 285.102L456.482 295.067L462.226 327.086L467.97 353.967L469.885 362.224L471.8 369.293L473.715 375.243L476.587 382.943L478.502 387.596L480.417 391.623L482.332 395.004L484.246 397.886L486.161 400.184L488.076 401.933L492.863 405.811L494.778 406.826L496.693 407.367L503.395 408.727L506.267 409.316L510.096 409.736L515.841 409.991L525.415 410.112" fill="#EFEFEF" fill-opacity="0.4"/>
<path d="M334.891 410.112L352.124 409.964L358.826 409.659L377.017 408.745L378.931 408.508L381.804 407.763L388.505 405.713L392.335 403.857L396.165 402.706L397.122 402.214L399.037 400.739L401.909 398.109L405.739 395.226L406.696 394.097L408.611 391.154L416.27 377.843L418.185 374.071L420.1 369.236L422.015 362.84L424.887 351.381L427.759 338.439L436.376 296.381L438.291 288.611L440.206 281.833L442.12 275.877L443.078 273.4L444.035 271.405L444.993 269.934L445.95 268.963L446.907 268.442L447.865 268.34L448.822 268.692L449.78 269.597L450.737 271.192L451.694 273.58L452.652 276.773L454.567 285.102L456.482 295.067L462.226 327.086L467.97 353.967L469.885 362.224L471.8 369.293L473.715 375.243L476.587 382.943L478.502 387.596L480.417 391.623L482.332 395.004L484.246 397.886L486.161 400.184L488.076 401.933L492.863 405.811L494.778 406.826L496.693 407.367L503.395 408.727L506.267 409.316L510.096 409.736L515.841 409.991L525.415 410.112" stroke="#EFEFEF" stroke-linecap="square"/>
</g>
<mask id="mask11_230_15118" style="mask-type:luminance" maskUnits="userSpaceOnUse" x="76" y="55" width="477" height="356">
<path d="M552.957 55.2959H76.7969V410.112H552.957V55.2959Z" fill="white"/>
</mask>
<g mask="url(#mask11_230_15118)">
<path d="M344.992 410.11L361.931 409.954L368.172 409.677L371.738 409.592L375.304 409.13L378.871 408.753L385.111 408.197L386.894 407.735L388.678 406.97L390.461 405.794L392.244 404.036L394.027 401.574L395.81 398.377L397.593 394.563L399.376 390.179L401.159 384.844L402.942 378.312L407.4 360.185L410.075 347.923L411.858 339.858L413.641 332.951L417.207 321.005L418.99 315.77L423.448 304.058L427.905 289.629L429.688 285.335L430.58 283.576L431.471 282.205L432.363 281.349L433.254 281.039L434.146 281.164L436.821 282.15L439.495 282.836L440.387 283.399L441.278 284.355L442.17 285.824L443.061 287.884L443.953 290.552L445.736 297.51L447.519 305.979L453.76 337.122L462.675 374.968L464.458 381.293L466.241 386.511L468.024 390.704L469.808 394.014L471.591 396.398L479.615 404.643L481.398 405.769L484.964 407.534L486.747 408.161L490.313 408.907L494.771 409.674L497.445 409.819L509.927 409.958L522.408 410.11" fill="#EFEFEF" fill-opacity="0.4"/>
<path d="M344.992 410.11L361.931 409.954L368.172 409.677L371.738 409.592L375.304 409.13L378.871 408.753L385.111 408.197L386.894 407.735L388.678 406.97L390.461 405.794L392.244 404.036L394.027 401.574L395.81 398.377L397.593 394.563L399.376 390.179L401.159 384.844L402.942 378.312L407.4 360.185L410.075 347.923L411.858 339.858L413.641 332.951L417.207 321.005L418.99 315.77L423.448 304.058L427.905 289.629L429.688 285.335L430.58 283.576L431.471 282.205L432.363 281.349L433.254 281.039L434.146 281.164L436.821 282.15L439.495 282.836L440.387 283.399L441.278 284.355L442.17 285.824L443.061 287.884L443.953 290.552L445.736 297.51L447.519 305.979L453.76 337.122L462.675 374.968L464.458 381.293L466.241 386.511L468.024 390.704L469.808 394.014L471.591 396.398L479.615 404.643L481.398 405.769L484.964 407.534L486.747 408.161L490.313 408.907L494.771 409.674L497.445 409.819L509.927 409.958L522.408 410.11" stroke="#EFEFEF" stroke-linecap="square"/>
</g>
<mask id="mask12_230_15118" style="mask-type:luminance" maskUnits="userSpaceOnUse" x="76" y="55" width="477" height="356">
<path d="M552.957 55.2959H76.7969V410.112H552.957V55.2959Z" fill="white"/>
</mask>
<g mask="url(#mask12_230_15118)">
<path d="M340.336 410.111L347.997 409.949L357.573 409.646L361.404 409.188L365.234 408.356L369.065 407.276L371.938 406.055L374.811 404.506L376.726 403.161L379.599 400.706L381.514 398.839L382.472 397.68L383.429 396.262L385.345 392.615L390.133 381.875L392.048 376.841L394.921 368.219L397.794 358.455L399.709 351.201L401.624 342.72L405.455 323.264L410.243 298.561L412.158 290.79L414.074 285.004L416.946 277.978L417.904 275.996L418.862 274.364L419.819 273.159L420.777 272.415L421.735 272.148L422.692 272.382L423.65 273.17L424.608 274.608L425.565 276.811L426.523 279.828L428.438 287.609L430.353 295.396L432.269 301.779L434.184 308.067L436.099 315.844L438.972 329.723L443.76 352.926L446.633 364.271L449.506 374.649L452.379 383.81L454.294 389.248L456.209 393.846L458.125 397.289L460.04 399.971L461.955 402.29L463.87 404.106L465.786 405.265L468.659 406.693L471.531 408.198L473.447 408.652L483.023 409.327L486.854 409.78L491.642 409.991L500.26 410.024L507.921 409.989L521.328 410.063L530.905 410.111" fill="#EFEFEF" fill-opacity="0.4"/>
<path d="M340.336 410.111L347.997 409.949L357.573 409.646L361.404 409.188L365.234 408.356L369.065 407.276L371.938 406.055L374.811 404.506L376.726 403.161L379.599 400.706L381.514 398.839L382.472 397.68L383.429 396.262L385.345 392.615L390.133 381.875L392.048 376.841L394.921 368.219L397.794 358.455L399.709 351.201L401.624 342.72L405.455 323.264L410.243 298.561L412.158 290.79L414.074 285.004L416.946 277.978L417.904 275.996L418.862 274.364L419.819 273.159L420.777 272.415L421.735 272.148L422.692 272.382L423.65 273.17L424.608 274.608L425.565 276.811L426.523 279.828L428.438 287.609L430.353 295.396L432.269 301.779L434.184 308.067L436.099 315.844L438.972 329.723L443.76 352.926L446.633 364.271L449.506 374.649L452.379 383.81L454.294 389.248L456.209 393.846L458.125 397.289L460.04 399.971L461.955 402.29L463.87 404.106L465.786 405.265L468.659 406.693L471.531 408.198L473.447 408.652L483.023 409.327L486.854 409.78L491.642 409.991L500.26 410.024L507.921 409.989L521.328 410.063L530.905 410.111" stroke="#EFEFEF" stroke-linecap="square"/>
</g>
<mask id="mask13_230_15118" style="mask-type:luminance" maskUnits="userSpaceOnUse" x="76" y="55" width="477" height="356">
<path d="M552.957 55.2959H76.7969V410.112H552.957V55.2959Z" fill="white"/>
</mask>
<g mask="url(#mask13_230_15118)">
<path d="M302.156 410.112L319.192 409.957L324.871 409.813L327.142 409.457L329.414 408.839L331.685 407.963L333.957 406.835L337.364 404.774L339.635 403.29L340.771 402.416L341.907 401.325L343.042 399.942L344.178 398.245L345.314 396.24L346.45 393.914L347.585 391.208L349.857 384.498L353.264 372.555L356.671 359.773L366.893 318.254L369.164 311.016L371.436 305.063L373.707 299.928L375.979 295.851L377.114 294.271L378.25 292.995L379.386 292.091L380.521 291.691L381.657 291.907L382.793 292.743L383.929 294.093L386.2 297.705L389.607 303.909L391.879 308.788L395.286 317.402L398.693 326.356L400.965 333.318L404.372 343.935L418 380.36L421.408 388.225L422.543 390.444L423.679 392.314L425.951 395.125L430.493 400.075L433.901 403.792L435.036 404.749L436.172 405.458L438.443 406.283L440.715 406.977L445.258 408.703L447.529 409.117L450.936 409.16L455.479 409.315L465.701 409.807L469.108 409.695L478.194 409.953L485.008 409.955L494.094 410.087L504.316 410.065L528.166 410.112" fill="#EFEFEF" fill-opacity="0.4"/>
<path d="M302.156 410.112L319.192 409.957L324.871 409.813L327.142 409.457L329.414 408.839L331.685 407.963L333.957 406.835L337.364 404.774L339.635 403.29L340.771 402.416L341.907 401.325L343.042 399.942L344.178 398.245L345.314 396.24L346.45 393.914L347.585 391.208L349.857 384.498L353.264 372.555L356.671 359.773L366.893 318.254L369.164 311.016L371.436 305.063L373.707 299.928L375.979 295.851L377.114 294.271L378.25 292.995L379.386 292.091L380.521 291.691L381.657 291.907L382.793 292.743L383.929 294.093L386.2 297.705L389.607 303.909L391.879 308.788L395.286 317.402L398.693 326.356L400.965 333.318L404.372 343.935L418 380.36L421.408 388.225L422.543 390.444L423.679 392.314L425.951 395.125L430.493 400.075L433.901 403.792L435.036 404.749L436.172 405.458L438.443 406.283L440.715 406.977L445.258 408.703L447.529 409.117L450.936 409.16L455.479 409.315L465.701 409.807L469.108 409.695L478.194 409.953L485.008 409.955L494.094 410.087L504.316 410.065L528.166 410.112" stroke="#EFEFEF" stroke-linecap="square"/>
</g>
<mask id="mask14_230_15118" style="mask-type:luminance" maskUnits="userSpaceOnUse" x="76" y="55" width="477" height="356">
<path d="M552.957 55.2959H76.7969V410.112H552.957V55.2959Z" fill="white"/>
</mask>
<g mask="url(#mask14_230_15118)">
<path d="M98.4375 410.112L268.908 409.897L279.431 409.658L285.744 409.12L289.953 408.581L300.476 406.825L304.685 406.046L310.999 404.363L315.208 402.967L319.417 401.168L327.836 396.882L332.045 395.124L336.254 392.896L338.359 391.675L340.463 390.27L342.568 388.561L348.881 382.532L350.986 380.233L353.091 377.606L357.3 371.591L359.404 368.106L361.509 364.067L365.718 354.666L367.823 349.96L369.927 345.765L372.032 342.425L374.136 339.996L378.345 336.004L380.45 333.54L386.764 325.106L388.868 322.986L390.973 321.9L393.077 321.914L395.182 322.753L397.287 324.126L399.391 325.929L401.496 328.173L403.6 330.872L405.705 334.095L407.809 337.977L409.914 342.532L416.228 357.009L426.751 379.005L430.96 386.208L433.064 389.42L435.169 392.337L439.378 397.413L441.483 399.666L443.587 401.675L445.692 403.373L447.796 404.767L449.901 405.899L452.005 406.784L454.11 407.443L458.319 408.348L462.528 409.013L466.737 409.407L477.26 409.94L485.679 410.05L506.724 410.053L517.247 410.112" fill="#7EB0D5" fill-opacity="0.4"/>
<path d="M98.4375 410.112L268.908 409.897L279.431 409.658L285.744 409.12L289.953 408.581L300.476 406.825L304.685 406.046L310.999 404.363L315.208 402.967L319.417 401.168L327.836 396.882L332.045 395.124L336.254 392.896L338.359 391.675L340.463 390.27L342.568 388.561L348.881 382.532L350.986 380.233L353.091 377.606L357.3 371.591L359.404 368.106L361.509 364.067L365.718 354.666L367.823 349.96L369.927 345.765L372.032 342.425L374.136 339.996L378.345 336.004L380.45 333.54L386.764 325.106L388.868 322.986L390.973 321.9L393.077 321.914L395.182 322.753L397.287 324.126L399.391 325.929L401.496 328.173L403.6 330.872L405.705 334.095L407.809 337.977L409.914 342.532L416.228 357.009L426.751 379.005L430.96 386.208L433.064 389.42L435.169 392.337L439.378 397.413L441.483 399.666L443.587 401.675L445.692 403.373L447.796 404.767L449.901 405.899L452.005 406.784L454.11 407.443L458.319 408.348L462.528 409.013L466.737 409.407L477.26 409.94L485.679 410.05L506.724 410.053L517.247 410.112" stroke="#7EB0D5" stroke-linecap="square"/>
</g>
<path d="M535.061 411.061C535.646 410.475 535.646 409.525 535.061 408.939L525.515 399.393C524.929 398.808 523.979 398.808 523.393 399.393C522.808 399.979 522.808 400.929 523.393 401.515L531.879 410L523.393 418.485C522.808 419.071 522.808 420.021 523.393 420.607C523.979 421.192 524.929 421.192 525.515 420.607L535.061 411.061ZM79 411.5H534V408.5H79V411.5Z" fill="black"/>
</g>
<defs>
<clipPath id="clip0_230_15118">
<rect width="614.4" height="460.8" fill="white"/>
</clipPath>
</defs>
</svg>
