<svg width="128" height="128" viewBox="0 0 128 128" fill="none" xmlns="http://www.w3.org/2000/svg">
<rect x="80.0009" y="26.7392" width="19.2183" height="19.2183" fill="#EFEFEF" fill-opacity="0.2" stroke="#7EB0D5" stroke-width="1.47833"/>
<rect x="77.0439" y="30.5827" width="19.2183" height="19.2183" fill="#EFEFEF" fill-opacity="0.2" stroke="#7EB0D5" stroke-width="1.47833"/>
<rect x="73.5009" y="34.1308" width="19.2183" height="19.2183" fill="#EFEFEF" fill-opacity="0.2" stroke="#7EB0D5" stroke-width="1.47833"/>
<rect x="69.9501" y="37.6789" width="19.2183" height="19.2183" fill="#EFEFEF" fill-opacity="0.2" stroke="#7EB0D5" stroke-width="1.47833"/>
<rect x="66.6962" y="41.5224" width="19.2183" height="19.2183" fill="#EFEFEF" fill-opacity="0.2" stroke="#7EB0D5" stroke-width="1.47833"/>
<rect x="63.7392" y="45.3661" width="19.2183" height="19.2183" fill="#EFEFEF" fill-opacity="0.2" stroke="#7EB0D5" stroke-width="1.47833"/>
<rect x="60.1923" y="48.9142" width="19.2183" height="19.2183" fill="#EFEFEF" fill-opacity="0.2" stroke="#7EB0D5" stroke-width="1.47833"/>
<rect x="56.6454" y="52.4621" width="19.2183" height="19.2183" fill="#EFEFEF" fill-opacity="0.2" stroke="#7EB0D5" stroke-width="1.47833"/>
<rect x="53.0946" y="56.0102" width="19.2183" height="19.2183" fill="#EFEFEF" fill-opacity="0.2" stroke="#7EB0D5" stroke-width="1.47833"/>
<rect x="50.1415" y="59.8537" width="19.2183" height="19.2183" fill="#EFEFEF" fill-opacity="0.2" stroke="#7EB0D5" stroke-width="1.47833"/>
<rect x="46.5946" y="63.4018" width="19.2183" height="19.2183" fill="#EFEFEF" fill-opacity="0.2" stroke="#7EB0D5" stroke-width="1.47833"/>
<rect x="43.0439" y="66.9496" width="19.2183" height="19.2183" fill="#EFEFEF" fill-opacity="0.2" stroke="#7EB0D5" stroke-width="1.47833"/>
<rect x="39.7899" y="70.7936" width="19.2183" height="19.2183" fill="#EFEFEF" fill-opacity="0.2" stroke="#7EB0D5" stroke-width="1.47833"/>
<rect x="36.8329" y="74.6374" width="19.2183" height="19.2183" fill="#EFEFEF" fill-opacity="0.2" stroke="#7EB0D5" stroke-width="1.47833"/>
<rect x="33.286" y="78.185" width="19.2183" height="19.2183" fill="#EFEFEF" fill-opacity="0.2" stroke="#7EB0D5" stroke-width="1.47833"/>
<rect x="29.7392" y="81.7331" width="19.2183" height="19.2183" fill="#EFEFEF" fill-opacity="0.2" stroke="#7EB0D5" stroke-width="1.47833"/>
</svg>
