<svg width="128" height="128" viewBox="0 0 128 128" fill="none" xmlns="http://www.w3.org/2000/svg">
<rect x="85.0009" y="31.7392" width="8.86997" height="8.86997" fill="#EFEFEF" fill-opacity="0.2" stroke="#FC7F6F" stroke-width="1.47833"/>
<rect x="82.0439" y="35.5829" width="8.86997" height="8.86997" fill="#EFEFEF" fill-opacity="0.2" stroke="#FC7F6F" stroke-width="1.47833"/>
<rect x="78.5009" y="39.1308" width="8.86997" height="8.86997" fill="#EFEFEF" fill-opacity="0.2" stroke="#FC7F6F" stroke-width="1.47833"/>
<rect x="74.9501" y="42.6786" width="8.86997" height="8.86997" fill="#EFEFEF" fill-opacity="0.2" stroke="#FC7F6F" stroke-width="1.47833"/>
<rect x="71.6962" y="46.5224" width="8.86997" height="8.86997" fill="#EFEFEF" fill-opacity="0.2" stroke="#FC7F6F" stroke-width="1.47833"/>
<rect x="68.7392" y="50.3661" width="8.86997" height="8.86997" fill="#EFEFEF" fill-opacity="0.2" stroke="#FC7F6F" stroke-width="1.47833"/>
<rect x="65.1923" y="53.914" width="8.86997" height="8.86997" fill="#EFEFEF" fill-opacity="0.2" stroke="#FC7F6F" stroke-width="1.47833"/>
<rect x="61.6454" y="57.4623" width="8.86997" height="8.86997" fill="#EFEFEF" fill-opacity="0.2" stroke="#FC7F6F" stroke-width="1.47833"/>
<rect x="58.0946" y="61.0102" width="8.86997" height="8.86997" fill="#EFEFEF" fill-opacity="0.2" stroke="#FC7F6F" stroke-width="1.47833"/>
<rect x="55.1415" y="64.8539" width="8.86997" height="8.86997" fill="#EFEFEF" fill-opacity="0.2" stroke="#FC7F6F" stroke-width="1.47833"/>
<rect x="51.5946" y="68.4018" width="8.86997" height="8.86997" fill="#EFEFEF" fill-opacity="0.2" stroke="#FC7F6F" stroke-width="1.47833"/>
<rect x="48.0439" y="71.9496" width="8.86997" height="8.86997" fill="#EFEFEF" fill-opacity="0.2" stroke="#FC7F6F" stroke-width="1.47833"/>
<rect x="44.7899" y="75.7934" width="8.86997" height="8.86997" fill="#EFEFEF" fill-opacity="0.2" stroke="#FC7F6F" stroke-width="1.47833"/>
<rect x="41.8329" y="79.6371" width="8.86997" height="8.86997" fill="#EFEFEF" fill-opacity="0.2" stroke="#FC7F6F" stroke-width="1.47833"/>
<rect x="38.286" y="83.185" width="8.86997" height="8.86997" fill="#EFEFEF" fill-opacity="0.2" stroke="#FC7F6F" stroke-width="1.47833"/>
<rect x="34.7392" y="86.7328" width="8.86997" height="8.86997" fill="#EFEFEF" fill-opacity="0.2" stroke="#FC7F6F" stroke-width="1.47833"/>
</svg>
