<svg xmlns="http://www.w3.org/2000/svg" id="export" class="canvas" preserveAspectRatio="xMidYMid meet" style="" width="1428" height="116"><g id="origin" transform="translate(5.25, 5.25) scale(1)"><g id="clusters" class="clusters"/><g id="edge-paths" class="edge-paths"><defs><marker id="arrowhead" viewBox="0 0 10 10" refX="9" refY="5" markerUnits="strokeWidth" markerWidth="8" markerHeight="6" orient="auto" style="fill: rgb(0, 0, 0);"><path d="M 0 0 L 10 5 L 0 10 L 4 5 z" style="stroke-width: 1;"/></marker><marker id="arrowhead-select" viewBox="0 0 10 10" refX="9" refY="5" markerUnits="strokeWidth" markerWidth="8" markerHeight="6" orient="auto" style="fill: rgb(238, 0, 0);"><path d="M 0 0 L 10 5 L 0 10 L 4 5 z" style="stroke-width: 1;"/></marker><marker id="arrowhead-hover" viewBox="0 0 10 10" refX="9" refY="5" markerUnits="strokeWidth" markerWidth="8" markerHeight="6" orient="auto"><path d="M 0 0 L 10 5 L 0 10 L 4 5 z" style="stroke-width: 1;"/></marker></defs><path id="edge-images" class="edge-path" d="M51.5,52.5L53.166666666666664,52.5C54.833333333333336,52.5,58.166666666666664,52.5,66.00651041666667,52.5C73.84635416666667,52.5,86.19270833333333,52.5,98.5390625,52.5C110.88541666666667,52.5,123.23177083333333,52.5,131.07161458333334,52.5C138.91145833333334,52.5,142.24479166666666,52.5,143.91145833333334,52.5L145.578125,52.5" style="stroke: rgb(0, 0, 0); stroke-width: 1px; fill: none; marker-end: url(&quot;#arrowhead&quot;);"/><path class="edge-path-hit-test" d="M51.5,52.5L53.166666666666664,52.5C54.833333333333336,52.5,58.166666666666664,52.5,66.00651041666667,52.5C73.84635416666667,52.5,86.19270833333333,52.5,98.5390625,52.5C110.88541666666667,52.5,123.23177083333333,52.5,131.07161458333334,52.5C138.91145833333334,52.5,142.24479166666666,52.5,143.91145833333334,52.5L145.578125,52.5" style="pointer-events: stroke; stroke-width: 0.5em; fill: none; stroke: rgb(0, 0, 0); stroke-opacity: 0.001;"/><path id="edge-/0/Conv_output_0" class="edge-path" d="M244.453125,52.5L246.11979166666666,52.5C247.78645833333334,52.5,251.11979166666666,52.5,254.453125,52.5C257.7864583333333,52.5,261.1197916666667,52.5,262.7864583333333,52.5L264.453125,52.5" style="stroke: rgb(0, 0, 0); stroke-width: 1px; fill: none; marker-end: url(&quot;#arrowhead&quot;);"/><path class="edge-path-hit-test" d="M244.453125,52.5L246.11979166666666,52.5C247.78645833333334,52.5,251.11979166666666,52.5,254.453125,52.5C257.7864583333333,52.5,261.1197916666667,52.5,262.7864583333333,52.5L264.453125,52.5" style="pointer-events: stroke; stroke-width: 0.5em; fill: none; stroke: rgb(0, 0, 0); stroke-opacity: 0.001;"/><path id="edge-/1/Relu_output_0" class="edge-path" d="M301.234375,52.5L302.9010416666667,52.5C304.5677083333333,52.5,307.9010416666667,52.5,311.234375,52.5C314.5677083333333,52.5,317.9010416666667,52.5,319.5677083333333,52.5L321.234375,52.5" style="stroke: rgb(0, 0, 0); stroke-width: 1px; fill: none; marker-end: url(&quot;#arrowhead&quot;);"/><path class="edge-path-hit-test" d="M301.234375,52.5L302.9010416666667,52.5C304.5677083333333,52.5,307.9010416666667,52.5,311.234375,52.5C314.5677083333333,52.5,317.9010416666667,52.5,319.5677083333333,52.5L321.234375,52.5" style="pointer-events: stroke; stroke-width: 0.5em; fill: none; stroke: rgb(0, 0, 0); stroke-opacity: 0.001;"/><path id="edge-/2/MaxPool_output_0" class="edge-path" d="M419.859375,52.5L421.5260416666667,52.5C423.1927083333333,52.5,426.5260416666667,52.5,429.859375,52.5C433.1927083333333,52.5,436.5260416666667,52.5,438.1927083333333,52.5L439.859375,52.5" style="stroke: rgb(0, 0, 0); stroke-width: 1px; fill: none; marker-end: url(&quot;#arrowhead&quot;);"/><path class="edge-path-hit-test" d="M419.859375,52.5L421.5260416666667,52.5C423.1927083333333,52.5,426.5260416666667,52.5,429.859375,52.5C433.1927083333333,52.5,436.5260416666667,52.5,438.1927083333333,52.5L439.859375,52.5" style="pointer-events: stroke; stroke-width: 0.5em; fill: none; stroke: rgb(0, 0, 0); stroke-opacity: 0.001;"/><path id="edge-/3/Conv_output_0" class="edge-path" d="M538.734375,52.5L540.4010416666666,52.5C542.0677083333334,52.5,545.4010416666666,52.5,548.734375,52.5C552.0677083333334,52.5,555.4010416666666,52.5,557.0677083333334,52.5L558.734375,52.5" style="stroke: rgb(0, 0, 0); stroke-width: 1px; fill: none; marker-end: url(&quot;#arrowhead&quot;);"/><path class="edge-path-hit-test" d="M538.734375,52.5L540.4010416666666,52.5C542.0677083333334,52.5,545.4010416666666,52.5,548.734375,52.5C552.0677083333334,52.5,555.4010416666666,52.5,557.0677083333334,52.5L558.734375,52.5" style="pointer-events: stroke; stroke-width: 0.5em; fill: none; stroke: rgb(0, 0, 0); stroke-opacity: 0.001;"/><path id="edge-/4/Relu_output_0" class="edge-path" d="M595.515625,52.5L597.1822916666666,52.5C598.8489583333334,52.5,602.1822916666666,52.5,605.515625,52.5C608.8489583333334,52.5,612.1822916666666,52.5,613.8489583333334,52.5L615.515625,52.5" style="stroke: rgb(0, 0, 0); stroke-width: 1px; fill: none; marker-end: url(&quot;#arrowhead&quot;);"/><path class="edge-path-hit-test" d="M595.515625,52.5L597.1822916666666,52.5C598.8489583333334,52.5,602.1822916666666,52.5,605.515625,52.5C608.8489583333334,52.5,612.1822916666666,52.5,613.8489583333334,52.5L615.515625,52.5" style="pointer-events: stroke; stroke-width: 0.5em; fill: none; stroke: rgb(0, 0, 0); stroke-opacity: 0.001;"/><path id="edge-/5/MaxPool_output_0" class="edge-path" d="M714.140625,52.5L715.8072916666666,52.5C717.4739583333334,52.5,720.8072916666666,52.5,724.140625,52.5C727.4739583333334,52.5,730.8072916666666,52.5,732.4739583333334,52.5L734.140625,52.5" style="stroke: rgb(0, 0, 0); stroke-width: 1px; fill: none; marker-end: url(&quot;#arrowhead&quot;);"/><path class="edge-path-hit-test" d="M714.140625,52.5L715.8072916666666,52.5C717.4739583333334,52.5,720.8072916666666,52.5,724.140625,52.5C727.4739583333334,52.5,730.8072916666666,52.5,732.4739583333334,52.5L734.140625,52.5" style="pointer-events: stroke; stroke-width: 0.5em; fill: none; stroke: rgb(0, 0, 0); stroke-opacity: 0.001;"/><path id="edge-/6/Conv_output_0" class="edge-path" d="M833.015625,52.5L834.6822916666666,52.5C836.3489583333334,52.5,839.6822916666666,52.5,843.015625,52.5C846.3489583333334,52.5,849.6822916666666,52.5,851.3489583333334,52.5L853.015625,52.5" style="stroke: rgb(0, 0, 0); stroke-width: 1px; fill: none; marker-end: url(&quot;#arrowhead&quot;);"/><path class="edge-path-hit-test" d="M833.015625,52.5L834.6822916666666,52.5C836.3489583333334,52.5,839.6822916666666,52.5,843.015625,52.5C846.3489583333334,52.5,849.6822916666666,52.5,851.3489583333334,52.5L853.015625,52.5" style="pointer-events: stroke; stroke-width: 0.5em; fill: none; stroke: rgb(0, 0, 0); stroke-opacity: 0.001;"/><path id="edge-/7/Relu_output_0" class="edge-path" d="M889.796875,52.5L891.4635416666666,52.5C893.1302083333334,52.5,896.4635416666666,52.5,899.796875,52.5C903.1302083333334,52.5,906.4635416666666,52.5,908.1302083333334,52.5L909.796875,52.5" style="stroke: rgb(0, 0, 0); stroke-width: 1px; fill: none; marker-end: url(&quot;#arrowhead&quot;);"/><path class="edge-path-hit-test" d="M889.796875,52.5L891.4635416666666,52.5C893.1302083333334,52.5,896.4635416666666,52.5,899.796875,52.5C903.1302083333334,52.5,906.4635416666666,52.5,908.1302083333334,52.5L909.796875,52.5" style="pointer-events: stroke; stroke-width: 0.5em; fill: none; stroke: rgb(0, 0, 0); stroke-opacity: 0.001;"/><path id="edge-/8/MaxPool_output_0" class="edge-path" d="M1008.421875,52.5L1010.0885416666666,52.5C1011.7552083333334,52.5,1015.0885416666666,52.5,1018.421875,52.5C1021.7552083333334,52.5,1025.0885416666667,52.5,1026.7552083333333,52.5L1028.421875,52.5" style="stroke: rgb(0, 0, 0); stroke-width: 1px; fill: none; marker-end: url(&quot;#arrowhead&quot;);"/><path class="edge-path-hit-test" d="M1008.421875,52.5L1010.0885416666666,52.5C1011.7552083333334,52.5,1015.0885416666666,52.5,1018.421875,52.5C1021.7552083333334,52.5,1025.0885416666667,52.5,1026.7552083333333,52.5L1028.421875,52.5" style="pointer-events: stroke; stroke-width: 0.5em; fill: none; stroke: rgb(0, 0, 0); stroke-opacity: 0.001;"/><path id="edge-/9/Flatten_output_0" class="edge-path" d="M1078.640625,52.5L1080.3072916666667,52.5C1081.9739583333333,52.5,1085.3072916666667,52.5,1088.640625,52.5C1091.9739583333333,52.5,1095.3072916666667,52.5,1096.9739583333333,52.5L1098.640625,52.5" style="stroke: rgb(0, 0, 0); stroke-width: 1px; fill: none; marker-end: url(&quot;#arrowhead&quot;);"/><path class="edge-path-hit-test" d="M1078.640625,52.5L1080.3072916666667,52.5C1081.9739583333333,52.5,1085.3072916666667,52.5,1088.640625,52.5C1091.9739583333333,52.5,1095.3072916666667,52.5,1096.9739583333333,52.5L1098.640625,52.5" style="pointer-events: stroke; stroke-width: 0.5em; fill: none; stroke: rgb(0, 0, 0); stroke-opacity: 0.001;"/><path id="edge-/10/Gemm_output_0" class="edge-path" d="M1174.1875,52.5L1175.8541666666667,52.5C1177.5208333333333,52.5,1180.8541666666667,52.5,1184.1875,52.5C1187.5208333333333,52.5,1190.8541666666667,52.5,1192.5208333333333,52.5L1194.1875,52.5" style="stroke: rgb(0, 0, 0); stroke-width: 1px; fill: none; marker-end: url(&quot;#arrowhead&quot;);"/><path class="edge-path-hit-test" d="M1174.1875,52.5L1175.8541666666667,52.5C1177.5208333333333,52.5,1180.8541666666667,52.5,1184.1875,52.5C1187.5208333333333,52.5,1190.8541666666667,52.5,1192.5208333333333,52.5L1194.1875,52.5" style="pointer-events: stroke; stroke-width: 0.5em; fill: none; stroke: rgb(0, 0, 0); stroke-opacity: 0.001;"/><path id="edge-/11/Relu_output_0" class="edge-path" d="M1230.96875,52.5L1232.6354166666667,52.5C1234.3020833333333,52.5,1237.6354166666667,52.5,1240.96875,52.5C1244.3020833333333,52.5,1247.6354166666667,52.5,1249.3020833333333,52.5L1250.96875,52.5" style="stroke: rgb(0, 0, 0); stroke-width: 1px; fill: none; marker-end: url(&quot;#arrowhead&quot;);"/><path class="edge-path-hit-test" d="M1230.96875,52.5L1232.6354166666667,52.5C1234.3020833333333,52.5,1237.6354166666667,52.5,1240.96875,52.5C1244.3020833333333,52.5,1247.6354166666667,52.5,1249.3020833333333,52.5L1250.96875,52.5" style="pointer-events: stroke; stroke-width: 0.5em; fill: none; stroke: rgb(0, 0, 0); stroke-opacity: 0.001;"/><path id="edge-output" class="edge-path" d="M1325.96875,52.5L1329.48828125,52.5C1333.0078125,52.5,1340.046875,52.5,1347.0859375,52.5C1354.125,52.5,1361.1640625,52.5,1364.68359375,52.5L1368.203125,52.5" style="stroke: rgb(0, 0, 0); stroke-width: 1px; fill: none; marker-end: url(&quot;#arrowhead&quot;);"/><path class="edge-path-hit-test" d="M1325.96875,52.5L1329.48828125,52.5C1333.0078125,52.5,1340.046875,52.5,1347.0859375,52.5C1354.125,52.5,1361.1640625,52.5,1364.68359375,52.5L1368.203125,52.5" style="pointer-events: stroke; stroke-width: 0.5em; fill: none; stroke: rgb(0, 0, 0); stroke-opacity: 0.001;"/></g><g id="edge-labels" class="edge-labels"><text class="edge-label" id="edge-label-edge-images" style="opacity: 1; font-family: -apple-system, BlinkMacSystemFont, &quot;Segoe WPC&quot;, &quot;Segoe UI&quot;, Ubuntu, &quot;Droid Sans&quot;, sans-serif, &quot;PingFang SC&quot;; font-size: 10px;" transform="translate(71.5,62.5)"><tspan xml:space="preserve" dy="1em" x="1">1×1×28×28</tspan></text><text class="edge-label" id="edge-label-edge-output" style="opacity: 1; font-family: -apple-system, BlinkMacSystemFont, &quot;Segoe WPC&quot;, &quot;Segoe UI&quot;, Ubuntu, &quot;Droid Sans&quot;, sans-serif, &quot;PingFang SC&quot;; font-size: 10px;" transform="translate(1335.96875,62.5)"><tspan xml:space="preserve" dy="1em" x="1">1×15</tspan></text></g><g id="nodes" class="nodes"><g id="input-name-images" class="node graph-input" style="opacity: 1;" transform="translate(0,41.9794921875)"><g class="node-item graph-item-input" transform="translate(0,0)"><path d="M5,0h41.5a5,5 0 0 1 5,5v11.041015625a5,5 0 0 1 -5,5h-41.5a5,5 0 0 1 -5,-5v-11.041015625a5,5 0 0 1 5,-5z" style="stroke: rgb(0, 0, 0); fill: rgb(238, 238, 238); stroke-width: 0;"/><text x="6" y="15" style="font-family: -apple-system, BlinkMacSystemFont, &quot;Segoe WPC&quot;, &quot;Segoe UI&quot;, Ubuntu, &quot;Droid Sans&quot;, sans-serif, &quot;PingFang SC&quot;; font-size: 11px; text-rendering: geometricprecision;">images</text><title>float32[1,1,28,28]</title></g><path class="node border" d="M5,0h41.5a5,5 0 0 1 5,5v11.041015625a5,5 0 0 1 -5,5h-41.5a5,5 0 0 1 -5,-5v-11.041015625a5,5 0 0 1 5,-5z" style="stroke: rgb(51, 51, 51); fill: none; stroke-width: 1px;"/></g><g id="node-name-/0/Conv" class="node graph-node" style="opacity: 1;" transform="translate(145.578125,0)"><g class="node-item node-item-type node-item-type-layer" transform="translate(0,0)"><path d="M5,0h88.875a5,5 0 0 1 5,5v16a0,0 0 0 1 0,0h-98.875a0,0 0 0 1 0,0v-16a5,5 0 0 1 5,-5z" style="stroke: rgb(0, 0, 0); fill: rgb(51, 85, 136); stroke-width: 0;"/><text x="6" y="15" style="font-family: -apple-system, BlinkMacSystemFont, &quot;Segoe WPC&quot;, &quot;Segoe UI&quot;, Ubuntu, &quot;Droid Sans&quot;, sans-serif, &quot;PingFang SC&quot;; font-size: 11px; text-rendering: geometricprecision; fill: rgb(255, 255, 255);">Conv</text><title>/0/Conv</title></g><g class="node-attribute" transform="translate(0,21)"><path d="M0,0h98.875a0,0 0 0 1 0,0v79a5,5 0 0 1 -5,5h-88.875a5,5 0 0 1 -5,-5v-79a0,0 0 0 1 0,0z" style="stroke: rgb(0, 0, 0); fill: rgb(255, 255, 255); stroke-width: 0;"/><text id="initializer-0.weight" xml:space="preserve" x="6" y="13" style="font-family: -apple-system, BlinkMacSystemFont, &quot;Segoe WPC&quot;, &quot;Segoe UI&quot;, Ubuntu, &quot;Droid Sans&quot;, sans-serif, &quot;PingFang SC&quot;; font-size: 9px; font-weight: normal; text-rendering: geometricprecision;"><title>float32[16,1,3,3]</title><tspan style="font-weight: bold;">W</tspan><tspan>〈16×1×3×3〉</tspan></text><text id="initializer-0.bias" xml:space="preserve" x="6" y="26" style="font-family: -apple-system, BlinkMacSystemFont, &quot;Segoe WPC&quot;, &quot;Segoe UI&quot;, Ubuntu, &quot;Droid Sans&quot;, sans-serif, &quot;PingFang SC&quot;; font-size: 9px; font-weight: normal; text-rendering: geometricprecision;"><title>float32[16]</title><tspan style="font-weight: bold;">B</tspan><tspan>〈16〉</tspan></text><text xml:space="preserve" x="6" y="39" style="font-family: -apple-system, BlinkMacSystemFont, &quot;Segoe WPC&quot;, &quot;Segoe UI&quot;, Ubuntu, &quot;Droid Sans&quot;, sans-serif, &quot;PingFang SC&quot;; font-size: 9px; font-weight: normal; text-rendering: geometricprecision;"><title>int64[]</title><tspan>dilations</tspan><tspan> = 1, 1</tspan></text><text xml:space="preserve" x="6" y="52" style="font-family: -apple-system, BlinkMacSystemFont, &quot;Segoe WPC&quot;, &quot;Segoe UI&quot;, Ubuntu, &quot;Droid Sans&quot;, sans-serif, &quot;PingFang SC&quot;; font-size: 9px; font-weight: normal; text-rendering: geometricprecision;"><title>int64[]</title><tspan>kernel_shape</tspan><tspan> = 3, 3</tspan></text><text xml:space="preserve" x="6" y="65" style="font-family: -apple-system, BlinkMacSystemFont, &quot;Segoe WPC&quot;, &quot;Segoe UI&quot;, Ubuntu, &quot;Droid Sans&quot;, sans-serif, &quot;PingFang SC&quot;; font-size: 9px; font-weight: normal; text-rendering: geometricprecision;"><title>int64[]</title><tspan>pads</tspan><tspan> = 1, 1, 1, 1</tspan></text><text xml:space="preserve" x="6" y="78" style="font-family: -apple-system, BlinkMacSystemFont, &quot;Segoe WPC&quot;, &quot;Segoe UI&quot;, Ubuntu, &quot;Droid Sans&quot;, sans-serif, &quot;PingFang SC&quot;; font-size: 9px; font-weight: normal; text-rendering: geometricprecision;"><title>int64[]</title><tspan>strides</tspan><tspan> = 1, 1</tspan></text><line class="node" x1="0" x2="98.875" y1="0" y2="0" style="stroke: rgb(51, 51, 51); fill: none; stroke-width: 1px;"/></g><path class="node border" d="M5,0h88.875a5,5 0 0 1 5,5v95a5,5 0 0 1 -5,5h-88.875a5,5 0 0 1 -5,-5v-95a5,5 0 0 1 5,-5z" style="stroke: rgb(51, 51, 51); fill: none; stroke-width: 1px;"/></g><g id="node-name-/1/Relu" class="node graph-node" style="opacity: 1;" transform="translate(264.453125,42)"><g class="node-item node-item-type node-item-type-activation" transform="translate(0,0)"><path d="M5,0h26.78125a5,5 0 0 1 5,5v11a5,5 0 0 1 -5,5h-26.78125a5,5 0 0 1 -5,-5v-11a5,5 0 0 1 5,-5z" style="stroke: rgb(0, 0, 0); fill: rgb(112, 41, 33); stroke-width: 0;"/><text x="6" y="15" style="font-family: -apple-system, BlinkMacSystemFont, &quot;Segoe WPC&quot;, &quot;Segoe UI&quot;, Ubuntu, &quot;Droid Sans&quot;, sans-serif, &quot;PingFang SC&quot;; font-size: 11px; text-rendering: geometricprecision; fill: rgb(255, 255, 255);">Relu</text><title>/1/Relu</title></g><path class="node border" d="M5,0h26.78125a5,5 0 0 1 5,5v11a5,5 0 0 1 -5,5h-26.78125a5,5 0 0 1 -5,-5v-11a5,5 0 0 1 5,-5z" style="stroke: rgb(51, 51, 51); fill: none; stroke-width: 1px;"/></g><g id="node-name-/2/MaxPool" class="node graph-node" style="opacity: 1;" transform="translate(321.234375,13)"><g class="node-item node-item-type node-item-type-pool" transform="translate(0,0)"><path d="M5,0h88.625a5,5 0 0 1 5,5v16a0,0 0 0 1 0,0h-98.625a0,0 0 0 1 0,0v-16a5,5 0 0 1 5,-5z" style="stroke: rgb(0, 0, 0); fill: rgb(51, 85, 51); stroke-width: 0;"/><text x="6" y="15" style="font-family: -apple-system, BlinkMacSystemFont, &quot;Segoe WPC&quot;, &quot;Segoe UI&quot;, Ubuntu, &quot;Droid Sans&quot;, sans-serif, &quot;PingFang SC&quot;; font-size: 11px; text-rendering: geometricprecision; fill: rgb(255, 255, 255);">MaxPool</text><title>/2/MaxPool</title></g><g class="node-attribute" transform="translate(0,21)"><path d="M0,0h98.625a0,0 0 0 1 0,0v53a5,5 0 0 1 -5,5h-88.625a5,5 0 0 1 -5,-5v-53a0,0 0 0 1 0,0z" style="stroke: rgb(0, 0, 0); fill: rgb(255, 255, 255); stroke-width: 0;"/><text xml:space="preserve" x="6" y="13" style="font-family: -apple-system, BlinkMacSystemFont, &quot;Segoe WPC&quot;, &quot;Segoe UI&quot;, Ubuntu, &quot;Droid Sans&quot;, sans-serif, &quot;PingFang SC&quot;; font-size: 9px; font-weight: normal; text-rendering: geometricprecision;"><title>int64</title><tspan>ceil_mode</tspan><tspan> = 0</tspan></text><text xml:space="preserve" x="6" y="26" style="font-family: -apple-system, BlinkMacSystemFont, &quot;Segoe WPC&quot;, &quot;Segoe UI&quot;, Ubuntu, &quot;Droid Sans&quot;, sans-serif, &quot;PingFang SC&quot;; font-size: 9px; font-weight: normal; text-rendering: geometricprecision;"><title>int64[]</title><tspan>kernel_shape</tspan><tspan> = 2, 2</tspan></text><text xml:space="preserve" x="6" y="39" style="font-family: -apple-system, BlinkMacSystemFont, &quot;Segoe WPC&quot;, &quot;Segoe UI&quot;, Ubuntu, &quot;Droid Sans&quot;, sans-serif, &quot;PingFang SC&quot;; font-size: 9px; font-weight: normal; text-rendering: geometricprecision;"><title>int64[]</title><tspan>pads</tspan><tspan> = 0, 0, 0, 0</tspan></text><text xml:space="preserve" x="6" y="52" style="font-family: -apple-system, BlinkMacSystemFont, &quot;Segoe WPC&quot;, &quot;Segoe UI&quot;, Ubuntu, &quot;Droid Sans&quot;, sans-serif, &quot;PingFang SC&quot;; font-size: 9px; font-weight: normal; text-rendering: geometricprecision;"><title>int64[]</title><tspan>strides</tspan><tspan> = 2, 2</tspan></text><line class="node" x1="0" x2="98.625" y1="0" y2="0" style="stroke: rgb(51, 51, 51); fill: none; stroke-width: 1px;"/></g><path class="node border" d="M5,0h88.625a5,5 0 0 1 5,5v69a5,5 0 0 1 -5,5h-88.625a5,5 0 0 1 -5,-5v-69a5,5 0 0 1 5,-5z" style="stroke: rgb(51, 51, 51); fill: none; stroke-width: 1px;"/></g><g id="node-name-/3/Conv" class="node graph-node" style="opacity: 1;" transform="translate(439.859375,0)"><g class="node-item node-item-type node-item-type-layer" transform="translate(0,0)"><path d="M5,0h88.875a5,5 0 0 1 5,5v16a0,0 0 0 1 0,0h-98.875a0,0 0 0 1 0,0v-16a5,5 0 0 1 5,-5z" style="stroke: rgb(0, 0, 0); fill: rgb(51, 85, 136); stroke-width: 0;"/><text x="6" y="15" style="font-family: -apple-system, BlinkMacSystemFont, &quot;Segoe WPC&quot;, &quot;Segoe UI&quot;, Ubuntu, &quot;Droid Sans&quot;, sans-serif, &quot;PingFang SC&quot;; font-size: 11px; text-rendering: geometricprecision; fill: rgb(255, 255, 255);">Conv</text><title>/3/Conv</title></g><g class="node-attribute" transform="translate(0,21)"><path d="M0,0h98.875a0,0 0 0 1 0,0v79a5,5 0 0 1 -5,5h-88.875a5,5 0 0 1 -5,-5v-79a0,0 0 0 1 0,0z" style="stroke: rgb(0, 0, 0); fill: rgb(255, 255, 255); stroke-width: 0;"/><text id="initializer-3.weight" xml:space="preserve" x="6" y="13" style="font-family: -apple-system, BlinkMacSystemFont, &quot;Segoe WPC&quot;, &quot;Segoe UI&quot;, Ubuntu, &quot;Droid Sans&quot;, sans-serif, &quot;PingFang SC&quot;; font-size: 9px; font-weight: normal; text-rendering: geometricprecision;"><title>float32[32,16,3,3]</title><tspan style="font-weight: bold;">W</tspan><tspan>〈32×16×3×3〉</tspan></text><text id="initializer-3.bias" xml:space="preserve" x="6" y="26" style="font-family: -apple-system, BlinkMacSystemFont, &quot;Segoe WPC&quot;, &quot;Segoe UI&quot;, Ubuntu, &quot;Droid Sans&quot;, sans-serif, &quot;PingFang SC&quot;; font-size: 9px; font-weight: normal; text-rendering: geometricprecision;"><title>float32[32]</title><tspan style="font-weight: bold;">B</tspan><tspan>〈32〉</tspan></text><text xml:space="preserve" x="6" y="39" style="font-family: -apple-system, BlinkMacSystemFont, &quot;Segoe WPC&quot;, &quot;Segoe UI&quot;, Ubuntu, &quot;Droid Sans&quot;, sans-serif, &quot;PingFang SC&quot;; font-size: 9px; font-weight: normal; text-rendering: geometricprecision;"><title>int64[]</title><tspan>dilations</tspan><tspan> = 1, 1</tspan></text><text xml:space="preserve" x="6" y="52" style="font-family: -apple-system, BlinkMacSystemFont, &quot;Segoe WPC&quot;, &quot;Segoe UI&quot;, Ubuntu, &quot;Droid Sans&quot;, sans-serif, &quot;PingFang SC&quot;; font-size: 9px; font-weight: normal; text-rendering: geometricprecision;"><title>int64[]</title><tspan>kernel_shape</tspan><tspan> = 3, 3</tspan></text><text xml:space="preserve" x="6" y="65" style="font-family: -apple-system, BlinkMacSystemFont, &quot;Segoe WPC&quot;, &quot;Segoe UI&quot;, Ubuntu, &quot;Droid Sans&quot;, sans-serif, &quot;PingFang SC&quot;; font-size: 9px; font-weight: normal; text-rendering: geometricprecision;"><title>int64[]</title><tspan>pads</tspan><tspan> = 1, 1, 1, 1</tspan></text><text xml:space="preserve" x="6" y="78" style="font-family: -apple-system, BlinkMacSystemFont, &quot;Segoe WPC&quot;, &quot;Segoe UI&quot;, Ubuntu, &quot;Droid Sans&quot;, sans-serif, &quot;PingFang SC&quot;; font-size: 9px; font-weight: normal; text-rendering: geometricprecision;"><title>int64[]</title><tspan>strides</tspan><tspan> = 1, 1</tspan></text><line class="node" x1="0" x2="98.875" y1="0" y2="0" style="stroke: rgb(51, 51, 51); fill: none; stroke-width: 1px;"/></g><path class="node border" d="M5,0h88.875a5,5 0 0 1 5,5v95a5,5 0 0 1 -5,5h-88.875a5,5 0 0 1 -5,-5v-95a5,5 0 0 1 5,-5z" style="stroke: rgb(51, 51, 51); fill: none; stroke-width: 1px;"/></g><g id="node-name-/4/Relu" class="node graph-node" style="opacity: 1;" transform="translate(558.734375,42)"><g class="node-item node-item-type node-item-type-activation" transform="translate(0,0)"><path d="M5,0h26.78125a5,5 0 0 1 5,5v11a5,5 0 0 1 -5,5h-26.78125a5,5 0 0 1 -5,-5v-11a5,5 0 0 1 5,-5z" style="stroke: rgb(0, 0, 0); fill: rgb(112, 41, 33); stroke-width: 0;"/><text x="6" y="15" style="font-family: -apple-system, BlinkMacSystemFont, &quot;Segoe WPC&quot;, &quot;Segoe UI&quot;, Ubuntu, &quot;Droid Sans&quot;, sans-serif, &quot;PingFang SC&quot;; font-size: 11px; text-rendering: geometricprecision; fill: rgb(255, 255, 255);">Relu</text><title>/4/Relu</title></g><path class="node border" d="M5,0h26.78125a5,5 0 0 1 5,5v11a5,5 0 0 1 -5,5h-26.78125a5,5 0 0 1 -5,-5v-11a5,5 0 0 1 5,-5z" style="stroke: rgb(51, 51, 51); fill: none; stroke-width: 1px;"/></g><g id="node-name-/5/MaxPool" class="node graph-node" style="opacity: 1;" transform="translate(615.515625,13)"><g class="node-item node-item-type node-item-type-pool" transform="translate(0,0)"><path d="M5,0h88.625a5,5 0 0 1 5,5v16a0,0 0 0 1 0,0h-98.625a0,0 0 0 1 0,0v-16a5,5 0 0 1 5,-5z" style="stroke: rgb(0, 0, 0); fill: rgb(51, 85, 51); stroke-width: 0;"/><text x="6" y="15" style="font-family: -apple-system, BlinkMacSystemFont, &quot;Segoe WPC&quot;, &quot;Segoe UI&quot;, Ubuntu, &quot;Droid Sans&quot;, sans-serif, &quot;PingFang SC&quot;; font-size: 11px; text-rendering: geometricprecision; fill: rgb(255, 255, 255);">MaxPool</text><title>/5/MaxPool</title></g><g class="node-attribute" transform="translate(0,21)"><path d="M0,0h98.625a0,0 0 0 1 0,0v53a5,5 0 0 1 -5,5h-88.625a5,5 0 0 1 -5,-5v-53a0,0 0 0 1 0,0z" style="stroke: rgb(0, 0, 0); fill: rgb(255, 255, 255); stroke-width: 0;"/><text xml:space="preserve" x="6" y="13" style="font-family: -apple-system, BlinkMacSystemFont, &quot;Segoe WPC&quot;, &quot;Segoe UI&quot;, Ubuntu, &quot;Droid Sans&quot;, sans-serif, &quot;PingFang SC&quot;; font-size: 9px; font-weight: normal; text-rendering: geometricprecision;"><title>int64</title><tspan>ceil_mode</tspan><tspan> = 0</tspan></text><text xml:space="preserve" x="6" y="26" style="font-family: -apple-system, BlinkMacSystemFont, &quot;Segoe WPC&quot;, &quot;Segoe UI&quot;, Ubuntu, &quot;Droid Sans&quot;, sans-serif, &quot;PingFang SC&quot;; font-size: 9px; font-weight: normal; text-rendering: geometricprecision;"><title>int64[]</title><tspan>kernel_shape</tspan><tspan> = 2, 2</tspan></text><text xml:space="preserve" x="6" y="39" style="font-family: -apple-system, BlinkMacSystemFont, &quot;Segoe WPC&quot;, &quot;Segoe UI&quot;, Ubuntu, &quot;Droid Sans&quot;, sans-serif, &quot;PingFang SC&quot;; font-size: 9px; font-weight: normal; text-rendering: geometricprecision;"><title>int64[]</title><tspan>pads</tspan><tspan> = 0, 0, 0, 0</tspan></text><text xml:space="preserve" x="6" y="52" style="font-family: -apple-system, BlinkMacSystemFont, &quot;Segoe WPC&quot;, &quot;Segoe UI&quot;, Ubuntu, &quot;Droid Sans&quot;, sans-serif, &quot;PingFang SC&quot;; font-size: 9px; font-weight: normal; text-rendering: geometricprecision;"><title>int64[]</title><tspan>strides</tspan><tspan> = 2, 2</tspan></text><line class="node" x1="0" x2="98.625" y1="0" y2="0" style="stroke: rgb(51, 51, 51); fill: none; stroke-width: 1px;"/></g><path class="node border" d="M5,0h88.625a5,5 0 0 1 5,5v69a5,5 0 0 1 -5,5h-88.625a5,5 0 0 1 -5,-5v-69a5,5 0 0 1 5,-5z" style="stroke: rgb(51, 51, 51); fill: none; stroke-width: 1px;"/></g><g id="node-name-/6/Conv" class="node graph-node" style="opacity: 1;" transform="translate(734.140625,0)"><g class="node-item node-item-type node-item-type-layer" transform="translate(0,0)"><path d="M5,0h88.875a5,5 0 0 1 5,5v16a0,0 0 0 1 0,0h-98.875a0,0 0 0 1 0,0v-16a5,5 0 0 1 5,-5z" style="stroke: rgb(0, 0, 0); fill: rgb(51, 85, 136); stroke-width: 0;"/><text x="6" y="15" style="font-family: -apple-system, BlinkMacSystemFont, &quot;Segoe WPC&quot;, &quot;Segoe UI&quot;, Ubuntu, &quot;Droid Sans&quot;, sans-serif, &quot;PingFang SC&quot;; font-size: 11px; text-rendering: geometricprecision; fill: rgb(255, 255, 255);">Conv</text><title>/6/Conv</title></g><g class="node-attribute" transform="translate(0,21)"><path d="M0,0h98.875a0,0 0 0 1 0,0v79a5,5 0 0 1 -5,5h-88.875a5,5 0 0 1 -5,-5v-79a0,0 0 0 1 0,0z" style="stroke: rgb(0, 0, 0); fill: rgb(255, 255, 255); stroke-width: 0;"/><text id="initializer-6.weight" xml:space="preserve" x="6" y="13" style="font-family: -apple-system, BlinkMacSystemFont, &quot;Segoe WPC&quot;, &quot;Segoe UI&quot;, Ubuntu, &quot;Droid Sans&quot;, sans-serif, &quot;PingFang SC&quot;; font-size: 9px; font-weight: normal; text-rendering: geometricprecision;"><title>float32[32,32,3,3]</title><tspan style="font-weight: bold;">W</tspan><tspan>〈32×32×3×3〉</tspan></text><text id="initializer-6.bias" xml:space="preserve" x="6" y="26" style="font-family: -apple-system, BlinkMacSystemFont, &quot;Segoe WPC&quot;, &quot;Segoe UI&quot;, Ubuntu, &quot;Droid Sans&quot;, sans-serif, &quot;PingFang SC&quot;; font-size: 9px; font-weight: normal; text-rendering: geometricprecision;"><title>float32[32]</title><tspan style="font-weight: bold;">B</tspan><tspan>〈32〉</tspan></text><text xml:space="preserve" x="6" y="39" style="font-family: -apple-system, BlinkMacSystemFont, &quot;Segoe WPC&quot;, &quot;Segoe UI&quot;, Ubuntu, &quot;Droid Sans&quot;, sans-serif, &quot;PingFang SC&quot;; font-size: 9px; font-weight: normal; text-rendering: geometricprecision;"><title>int64[]</title><tspan>dilations</tspan><tspan> = 1, 1</tspan></text><text xml:space="preserve" x="6" y="52" style="font-family: -apple-system, BlinkMacSystemFont, &quot;Segoe WPC&quot;, &quot;Segoe UI&quot;, Ubuntu, &quot;Droid Sans&quot;, sans-serif, &quot;PingFang SC&quot;; font-size: 9px; font-weight: normal; text-rendering: geometricprecision;"><title>int64[]</title><tspan>kernel_shape</tspan><tspan> = 3, 3</tspan></text><text xml:space="preserve" x="6" y="65" style="font-family: -apple-system, BlinkMacSystemFont, &quot;Segoe WPC&quot;, &quot;Segoe UI&quot;, Ubuntu, &quot;Droid Sans&quot;, sans-serif, &quot;PingFang SC&quot;; font-size: 9px; font-weight: normal; text-rendering: geometricprecision;"><title>int64[]</title><tspan>pads</tspan><tspan> = 1, 1, 1, 1</tspan></text><text xml:space="preserve" x="6" y="78" style="font-family: -apple-system, BlinkMacSystemFont, &quot;Segoe WPC&quot;, &quot;Segoe UI&quot;, Ubuntu, &quot;Droid Sans&quot;, sans-serif, &quot;PingFang SC&quot;; font-size: 9px; font-weight: normal; text-rendering: geometricprecision;"><title>int64[]</title><tspan>strides</tspan><tspan> = 1, 1</tspan></text><line class="node" x1="0" x2="98.875" y1="0" y2="0" style="stroke: rgb(51, 51, 51); fill: none; stroke-width: 1px;"/></g><path class="node border" d="M5,0h88.875a5,5 0 0 1 5,5v95a5,5 0 0 1 -5,5h-88.875a5,5 0 0 1 -5,-5v-95a5,5 0 0 1 5,-5z" style="stroke: rgb(51, 51, 51); fill: none; stroke-width: 1px;"/></g><g id="node-name-/7/Relu" class="node graph-node" style="opacity: 1;" transform="translate(853.015625,42)"><g class="node-item node-item-type node-item-type-activation" transform="translate(0,0)"><path d="M5,0h26.78125a5,5 0 0 1 5,5v11a5,5 0 0 1 -5,5h-26.78125a5,5 0 0 1 -5,-5v-11a5,5 0 0 1 5,-5z" style="stroke: rgb(0, 0, 0); fill: rgb(112, 41, 33); stroke-width: 0;"/><text x="6" y="15" style="font-family: -apple-system, BlinkMacSystemFont, &quot;Segoe WPC&quot;, &quot;Segoe UI&quot;, Ubuntu, &quot;Droid Sans&quot;, sans-serif, &quot;PingFang SC&quot;; font-size: 11px; text-rendering: geometricprecision; fill: rgb(255, 255, 255);">Relu</text><title>/7/Relu</title></g><path class="node border" d="M5,0h26.78125a5,5 0 0 1 5,5v11a5,5 0 0 1 -5,5h-26.78125a5,5 0 0 1 -5,-5v-11a5,5 0 0 1 5,-5z" style="stroke: rgb(51, 51, 51); fill: none; stroke-width: 1px;"/></g><g id="node-name-/8/MaxPool" class="node graph-node" style="opacity: 1;" transform="translate(909.796875,13)"><g class="node-item node-item-type node-item-type-pool" transform="translate(0,0)"><path d="M5,0h88.625a5,5 0 0 1 5,5v16a0,0 0 0 1 0,0h-98.625a0,0 0 0 1 0,0v-16a5,5 0 0 1 5,-5z" style="stroke: rgb(0, 0, 0); fill: rgb(51, 85, 51); stroke-width: 0;"/><text x="6" y="15" style="font-family: -apple-system, BlinkMacSystemFont, &quot;Segoe WPC&quot;, &quot;Segoe UI&quot;, Ubuntu, &quot;Droid Sans&quot;, sans-serif, &quot;PingFang SC&quot;; font-size: 11px; text-rendering: geometricprecision; fill: rgb(255, 255, 255);">MaxPool</text><title>/8/MaxPool</title></g><g class="node-attribute" transform="translate(0,21)"><path d="M0,0h98.625a0,0 0 0 1 0,0v53a5,5 0 0 1 -5,5h-88.625a5,5 0 0 1 -5,-5v-53a0,0 0 0 1 0,0z" style="stroke: rgb(0, 0, 0); fill: rgb(255, 255, 255); stroke-width: 0;"/><text xml:space="preserve" x="6" y="13" style="font-family: -apple-system, BlinkMacSystemFont, &quot;Segoe WPC&quot;, &quot;Segoe UI&quot;, Ubuntu, &quot;Droid Sans&quot;, sans-serif, &quot;PingFang SC&quot;; font-size: 9px; font-weight: normal; text-rendering: geometricprecision;"><title>int64</title><tspan>ceil_mode</tspan><tspan> = 0</tspan></text><text xml:space="preserve" x="6" y="26" style="font-family: -apple-system, BlinkMacSystemFont, &quot;Segoe WPC&quot;, &quot;Segoe UI&quot;, Ubuntu, &quot;Droid Sans&quot;, sans-serif, &quot;PingFang SC&quot;; font-size: 9px; font-weight: normal; text-rendering: geometricprecision;"><title>int64[]</title><tspan>kernel_shape</tspan><tspan> = 2, 2</tspan></text><text xml:space="preserve" x="6" y="39" style="font-family: -apple-system, BlinkMacSystemFont, &quot;Segoe WPC&quot;, &quot;Segoe UI&quot;, Ubuntu, &quot;Droid Sans&quot;, sans-serif, &quot;PingFang SC&quot;; font-size: 9px; font-weight: normal; text-rendering: geometricprecision;"><title>int64[]</title><tspan>pads</tspan><tspan> = 0, 0, 0, 0</tspan></text><text xml:space="preserve" x="6" y="52" style="font-family: -apple-system, BlinkMacSystemFont, &quot;Segoe WPC&quot;, &quot;Segoe UI&quot;, Ubuntu, &quot;Droid Sans&quot;, sans-serif, &quot;PingFang SC&quot;; font-size: 9px; font-weight: normal; text-rendering: geometricprecision;"><title>int64[]</title><tspan>strides</tspan><tspan> = 2, 2</tspan></text><line class="node" x1="0" x2="98.625" y1="0" y2="0" style="stroke: rgb(51, 51, 51); fill: none; stroke-width: 1px;"/></g><path class="node border" d="M5,0h88.625a5,5 0 0 1 5,5v69a5,5 0 0 1 -5,5h-88.625a5,5 0 0 1 -5,-5v-69a5,5 0 0 1 5,-5z" style="stroke: rgb(51, 51, 51); fill: none; stroke-width: 1px;"/></g><g id="node-name-/9/Flatten" class="node graph-node" style="opacity: 1;" transform="translate(1028.421875,42)"><g class="node-item node-item-type node-item-type-shape" transform="translate(0,0)"><path d="M5,0h40.21875a5,5 0 0 1 5,5v11a5,5 0 0 1 -5,5h-40.21875a5,5 0 0 1 -5,-5v-11a5,5 0 0 1 5,-5z" style="stroke: rgb(0, 0, 0); fill: rgb(108, 79, 71); stroke-width: 0;"/><text x="6" y="15" style="font-family: -apple-system, BlinkMacSystemFont, &quot;Segoe WPC&quot;, &quot;Segoe UI&quot;, Ubuntu, &quot;Droid Sans&quot;, sans-serif, &quot;PingFang SC&quot;; font-size: 11px; text-rendering: geometricprecision; fill: rgb(255, 255, 255);">Flatten</text><title>/9/Flatten</title></g><path class="node border" d="M5,0h40.21875a5,5 0 0 1 5,5v11a5,5 0 0 1 -5,5h-40.21875a5,5 0 0 1 -5,-5v-11a5,5 0 0 1 5,-5z" style="stroke: rgb(51, 51, 51); fill: none; stroke-width: 1px;"/></g><g id="node-name-/10/Gemm" class="node graph-node" style="opacity: 1;" transform="translate(1098.640625,19.5)"><g class="node-item node-item-type node-item-type-layer" transform="translate(0,0)"><path d="M5,0h65.546875a5,5 0 0 1 5,5v16a0,0 0 0 1 0,0h-75.546875a0,0 0 0 1 0,0v-16a5,5 0 0 1 5,-5z" style="stroke: rgb(0, 0, 0); fill: rgb(51, 85, 136); stroke-width: 0;"/><text x="6" y="15" style="font-family: -apple-system, BlinkMacSystemFont, &quot;Segoe WPC&quot;, &quot;Segoe UI&quot;, Ubuntu, &quot;Droid Sans&quot;, sans-serif, &quot;PingFang SC&quot;; font-size: 11px; text-rendering: geometricprecision; fill: rgb(255, 255, 255);">Gemm</text><title>/10/Gemm</title></g><g class="node-attribute" transform="translate(0,21)"><path d="M0,0h75.546875a0,0 0 0 1 0,0v40a5,5 0 0 1 -5,5h-65.546875a5,5 0 0 1 -5,-5v-40a0,0 0 0 1 0,0z" style="stroke: rgb(0, 0, 0); fill: rgb(255, 255, 255); stroke-width: 0;"/><text id="initializer-10.weight" xml:space="preserve" x="6" y="13" style="font-family: -apple-system, BlinkMacSystemFont, &quot;Segoe WPC&quot;, &quot;Segoe UI&quot;, Ubuntu, &quot;Droid Sans&quot;, sans-serif, &quot;PingFang SC&quot;; font-size: 9px; font-weight: normal; text-rendering: geometricprecision;"><title>float32[128,288]</title><tspan style="font-weight: bold;">B</tspan><tspan>〈128×288〉</tspan></text><text id="initializer-10.bias" xml:space="preserve" x="6" y="26" style="font-family: -apple-system, BlinkMacSystemFont, &quot;Segoe WPC&quot;, &quot;Segoe UI&quot;, Ubuntu, &quot;Droid Sans&quot;, sans-serif, &quot;PingFang SC&quot;; font-size: 9px; font-weight: normal; text-rendering: geometricprecision;"><title>float32[128]</title><tspan style="font-weight: bold;">C</tspan><tspan>〈128〉</tspan></text><text xml:space="preserve" x="6" y="39" style="font-family: -apple-system, BlinkMacSystemFont, &quot;Segoe WPC&quot;, &quot;Segoe UI&quot;, Ubuntu, &quot;Droid Sans&quot;, sans-serif, &quot;PingFang SC&quot;; font-size: 9px; font-weight: normal; text-rendering: geometricprecision;"><title>int64</title><tspan>transB</tspan><tspan> = 1</tspan></text><line class="node" x1="0" x2="75.546875" y1="0" y2="0" style="stroke: rgb(51, 51, 51); fill: none; stroke-width: 1px;"/></g><path class="node border" d="M5,0h65.546875a5,5 0 0 1 5,5v56a5,5 0 0 1 -5,5h-65.546875a5,5 0 0 1 -5,-5v-56a5,5 0 0 1 5,-5z" style="stroke: rgb(51, 51, 51); fill: none; stroke-width: 1px;"/></g><g id="node-name-/11/Relu" class="node graph-node" style="opacity: 1;" transform="translate(1194.1875,42)"><g class="node-item node-item-type node-item-type-activation" transform="translate(0,0)"><path d="M5,0h26.78125a5,5 0 0 1 5,5v11a5,5 0 0 1 -5,5h-26.78125a5,5 0 0 1 -5,-5v-11a5,5 0 0 1 5,-5z" style="stroke: rgb(0, 0, 0); fill: rgb(112, 41, 33); stroke-width: 0;"/><text x="6" y="15" style="font-family: -apple-system, BlinkMacSystemFont, &quot;Segoe WPC&quot;, &quot;Segoe UI&quot;, Ubuntu, &quot;Droid Sans&quot;, sans-serif, &quot;PingFang SC&quot;; font-size: 11px; text-rendering: geometricprecision; fill: rgb(255, 255, 255);">Relu</text><title>/11/Relu</title></g><path class="node border" d="M5,0h26.78125a5,5 0 0 1 5,5v11a5,5 0 0 1 -5,5h-26.78125a5,5 0 0 1 -5,-5v-11a5,5 0 0 1 5,-5z" style="stroke: rgb(51, 51, 51); fill: none; stroke-width: 1px;"/></g><g id="node-name-/12/Gemm" class="node graph-node" style="opacity: 1;" transform="translate(1250.96875,19.5)"><g class="node-item node-item-type node-item-type-layer" transform="translate(0,0)"><path d="M5,0h65a5,5 0 0 1 5,5v16a0,0 0 0 1 0,0h-75a0,0 0 0 1 0,0v-16a5,5 0 0 1 5,-5z" style="stroke: rgb(0, 0, 0); fill: rgb(51, 85, 136); stroke-width: 0;"/><text x="6" y="15" style="font-family: -apple-system, BlinkMacSystemFont, &quot;Segoe WPC&quot;, &quot;Segoe UI&quot;, Ubuntu, &quot;Droid Sans&quot;, sans-serif, &quot;PingFang SC&quot;; font-size: 11px; text-rendering: geometricprecision; fill: rgb(255, 255, 255);">Gemm</text><title>/12/Gemm</title></g><g class="node-attribute" transform="translate(0,21)"><path d="M0,0h75a0,0 0 0 1 0,0v40a5,5 0 0 1 -5,5h-65a5,5 0 0 1 -5,-5v-40a0,0 0 0 1 0,0z" style="stroke: rgb(0, 0, 0); fill: rgb(255, 255, 255); stroke-width: 0;"/><text id="initializer-12.weight" xml:space="preserve" x="6" y="13" style="font-family: -apple-system, BlinkMacSystemFont, &quot;Segoe WPC&quot;, &quot;Segoe UI&quot;, Ubuntu, &quot;Droid Sans&quot;, sans-serif, &quot;PingFang SC&quot;; font-size: 9px; font-weight: normal; text-rendering: geometricprecision;"><title>float32[15,128]</title><tspan style="font-weight: bold;">B</tspan><tspan>〈15×128〉</tspan></text><text id="initializer-12.bias" xml:space="preserve" x="6" y="26" style="font-family: -apple-system, BlinkMacSystemFont, &quot;Segoe WPC&quot;, &quot;Segoe UI&quot;, Ubuntu, &quot;Droid Sans&quot;, sans-serif, &quot;PingFang SC&quot;; font-size: 9px; font-weight: normal; text-rendering: geometricprecision;"><title>float32[15]</title><tspan style="font-weight: bold;">C</tspan><tspan>〈15〉</tspan></text><text xml:space="preserve" x="6" y="39" style="font-family: -apple-system, BlinkMacSystemFont, &quot;Segoe WPC&quot;, &quot;Segoe UI&quot;, Ubuntu, &quot;Droid Sans&quot;, sans-serif, &quot;PingFang SC&quot;; font-size: 9px; font-weight: normal; text-rendering: geometricprecision;"><title>int64</title><tspan>transB</tspan><tspan> = 1</tspan></text><line class="node" x1="0" x2="75" y1="0" y2="0" style="stroke: rgb(51, 51, 51); fill: none; stroke-width: 1px;"/></g><path class="node border" d="M5,0h65a5,5 0 0 1 5,5v56a5,5 0 0 1 -5,5h-65a5,5 0 0 1 -5,-5v-56a5,5 0 0 1 5,-5z" style="stroke: rgb(51, 51, 51); fill: none; stroke-width: 1px;"/></g><g class="node" style="opacity: 1;" transform="translate(1368.203125,42)"><g class="node-item graph-item-output" transform="translate(0,0)"><path d="M5,0h38.4375a5,5 0 0 1 5,5v11a5,5 0 0 1 -5,5h-38.4375a5,5 0 0 1 -5,-5v-11a5,5 0 0 1 5,-5z" style="stroke: rgb(0, 0, 0); fill: rgb(238, 238, 238); stroke-width: 0;"/><text x="6" y="15" style="font-family: -apple-system, BlinkMacSystemFont, &quot;Segoe WPC&quot;, &quot;Segoe UI&quot;, Ubuntu, &quot;Droid Sans&quot;, sans-serif, &quot;PingFang SC&quot;; font-size: 11px; text-rendering: geometricprecision;">output</text><title>float32[1,15]</title></g><path class="node border" d="M5,0h38.4375a5,5 0 0 1 5,5v11a5,5 0 0 1 -5,5h-38.4375a5,5 0 0 1 -5,-5v-11a5,5 0 0 1 5,-5z" style="stroke: rgb(51, 51, 51); fill: none; stroke-width: 1px;"/></g></g></g></svg>