<svg width="64" height="64" viewBox="0 0 64 64" fill="none" xmlns="http://www.w3.org/2000/svg">
<rect width="64" height="64" fill="white"/>
<path d="M33.0373 29.906C32.6713 29.6294 32.1753 29.5987 31.7781 29.8281C31.3808 30.0575 31.1594 30.5023 31.2159 30.9575L34.4977 57.3841C34.556 57.8536 34.8977 58.2384 35.3569 58.3518C35.8162 58.4653 36.2978 58.2837 36.5679 57.8954L42.8058 48.9288L53.6902 48.0099C54.1615 47.9701 54.5595 47.6438 54.6909 47.1894C54.8223 46.735 54.6599 46.2466 54.2825 45.9614L33.0373 29.906Z" fill="black" stroke="black" stroke-width="2.28339" stroke-linejoin="round"/>
<path fill-rule="evenodd" clip-rule="evenodd" d="M50.1186 38.224C51.5669 35.4095 52.3845 32.2172 52.3845 28.8339C52.3845 17.4842 43.1837 8.28339 31.8339 8.28339C20.4842 8.28339 11.2834 17.4842 11.2834 28.8339C11.2834 39.4989 19.4074 48.2663 29.8045 49.2855L30.0922 51.6024C18.2951 50.7126 9 40.8588 9 28.8339C9 16.2231 19.2231 6 31.8339 6C44.4448 6 54.6679 16.2231 54.6679 28.8339C54.6679 32.7349 53.6896 36.4074 51.9651 39.6195L50.1186 38.224Z" fill="black"/>
<path fill-rule="evenodd" clip-rule="evenodd" d="M42.7976 32.6952C43.223 31.487 43.4544 30.1874 43.4544 28.8337C43.4544 22.4137 38.2499 17.2092 31.8298 17.2092C25.4098 17.2092 20.2053 22.4137 20.2053 28.8337C20.2053 34.1506 23.7748 38.6337 28.6482 40.0175L28.9494 42.443C22.6504 41.1165 17.9219 35.5273 17.9219 28.8337C17.9219 21.1526 24.1487 14.9258 31.8298 14.9258C39.5109 14.9258 45.7377 21.1526 45.7377 28.8337C45.7377 30.7084 45.3668 32.4965 44.6943 34.1286L42.7976 32.6952Z" fill="black"/>
</svg>
